version 1
nodes
0 "blender_implicit" -1
1 "root" -1
2 "steering_wheel" 1
end
skeleton
time 0
0  0.000000 0.000000 0.000000  0.000000 -0.000000 0.000000
1  0.000000 0.000000 0.000000  1.570796 -0.000000 0.000000
2  0.000004 24.183060 22.214846  0.000000 -0.000002 -0.000002
end
triangles
misc
0  0.000006 -61.524403 20.893522  0.000000 -0.197845 0.980233  0.996124 0.435530 1 1 1.000000
0  0.000006 -65.378281 20.122747  -0.000000 -0.199430 0.979912  0.996124 0.524400 1 1 1.000000
0  6.647945 -64.703857 20.219093  0.019614 -0.208658 0.977792  0.995148 0.524400 1 1 1.000000
misc
0  6.647945 -64.703857 20.219093  0.019614 -0.208658 0.977792  0.995148 0.524400 1 1 1.000000
0  7.074624 -61.551933 20.893522  -0.377633 -0.165703 0.911008  0.995148 0.435530 1 1 1.000000
0  0.000006 -61.524403 20.893522  0.000000 -0.197845 0.980233  0.996124 0.435530 1 1 1.000000
misc
0  7.088389 -66.038948 21.471603  -0.986722 0.159482 0.030745  0.994171 0.524400 1 1 1.000000
0  7.460012 -62.776913 21.664297  -0.924094 -0.010706 0.382014  0.994171 0.435530 1 1 1.000000
0  7.198500 -65.378281 20.962341  -0.976587 0.076207 0.201171  0.994171 0.524400 1 1 1.000000
misc
0  6.840639 -64.676331 20.219093  -0.527942 -0.127491 0.839657  0.995148 0.524400 1 1 1.000000
0  7.198500 -65.378281 20.962341  -0.976587 0.076207 0.201171  0.994171 0.524400 1 1 1.000000
0  7.460012 -62.776913 21.664297  -0.924094 -0.010706 0.382014  0.994171 0.435530 1 1 1.000000
misc
0  7.460012 -62.776913 21.664297  -0.924094 -0.010706 0.382014  0.994171 0.435530 1 1 1.000000
0  7.074624 -61.551933 20.893522  -0.377633 -0.165703 0.911008  0.995148 0.435530 1 1 1.000000
0  6.840639 -64.676331 20.219093  -0.527942 -0.127491 0.839657  0.995148 0.524400 1 1 1.000000
misc
0  6.647945 -64.703857 20.219093  0.019614 -0.208658 0.977792  0.995148 0.524400 1 1 1.000000
0  6.840639 -64.676331 20.219093  -0.527942 -0.127491 0.839657  0.995148 0.524400 1 1 1.000000
0  7.074624 -61.551933 20.893522  -0.377633 -0.165703 0.911008  0.995148 0.435530 1 1 1.000000
misc
0  -6.647933 -64.703857 20.219093  -0.019611 -0.208663 0.977791  0.995148 0.524400 1 1 1.000000
0  0.000006 -65.378281 20.122747  -0.000000 -0.199430 0.979912  0.996124 0.524400 1 1 1.000000
0  0.000006 -61.524403 20.893522  0.000000 -0.197845 0.980233  0.996124 0.435530 1 1 1.000000
misc
0  0.000006 -61.524403 20.893522  0.000000 -0.197845 0.980233  0.996124 0.435530 1 1 1.000000
0  -7.074612 -61.551933 20.893522  0.377463 -0.165628 0.911092  0.995148 0.435530 1 1 1.000000
0  -6.647933 -64.703857 20.219093  -0.019611 -0.208663 0.977791  0.995148 0.524400 1 1 1.000000
misc
0  -7.074612 -61.551933 20.893522  0.377463 -0.165628 0.911092  0.995148 0.435530 1 1 1.000000
0  -6.840627 -64.676331 20.219093  0.527914 -0.127475 0.839677  0.995148 0.524400 1 1 1.000000
0  -6.647933 -64.703857 20.219093  -0.019611 -0.208663 0.977791  0.995148 0.524400 1 1 1.000000
misc
0  -7.460000 -62.776913 21.664297  0.924094 -0.010706 0.382014  0.994171 0.435530 1 1 1.000000
0  -7.198487 -65.378281 20.962341  0.976570 0.076196 0.201258  0.994171 0.524400 1 1 1.000000
0  -6.840627 -64.676331 20.219093  0.527914 -0.127475 0.839677  0.995148 0.524400 1 1 1.000000
misc
0  -6.840627 -64.676331 20.219093  0.527914 -0.127475 0.839677  0.995148 0.524400 1 1 1.000000
0  -7.074612 -61.551933 20.893522  0.377463 -0.165628 0.911092  0.995148 0.435530 1 1 1.000000
0  -7.460000 -62.776913 21.664297  0.924094 -0.010706 0.382014  0.994171 0.435530 1 1 1.000000
misc
0  -7.198487 -65.378281 20.962341  0.976570 0.076196 0.201258  0.994171 0.524400 1 1 1.000000
0  -7.460000 -62.776913 21.664297  0.924094 -0.010706 0.382014  0.994171 0.435530 1 1 1.000000
0  -7.088376 -66.038948 21.471603  0.986752 0.159353 0.030443  0.994171 0.524400 1 1 1.000000
skin_0
0  0.000007 -79.857849 16.599203  -0.001093 -0.403796 0.914848  0.500015 0.845698 1 1 1.000000
0  0.000007 -83.257515 15.057651  -0.000957 -0.423933 0.905693  0.500015 0.858394 1 1 1.000000
0  4.129162 -83.023529 15.098941  0.013557 -0.417543 0.908556  0.476577 0.857418 1 1 1.000000
skin_0
0  4.129162 -83.023529 15.098941  0.013557 -0.417543 0.908556  0.476577 0.857418 1 1 1.000000
0  4.941229 -79.417404 16.681786  0.023166 -0.389579 0.920701  0.471694 0.843745 1 1 1.000000
0  0.000007 -79.857849 16.599203  -0.001093 -0.403796 0.914848  0.500015 0.845698 1 1 1.000000
skin_0
0  0.000008 -86.726006 13.378461  -0.000120 -0.433639 0.901087  0.500015 0.871090 1 1 1.000000
0  4.129162 -83.023529 15.098941  0.013557 -0.417543 0.908556  0.476577 0.857418 1 1 1.000000
0  0.000007 -83.257515 15.057651  -0.000957 -0.423933 0.905693  0.500015 0.858394 1 1 1.000000
skin_0
0  7.088389 -66.052711 21.540422  -0.682632 -0.101592 0.723666  0.459975 0.793939 1 1 1.000000
0  6.056100 -72.012459 19.517138  -0.630074 -0.167675 0.758216  0.465835 0.816401 1 1 1.000000
0  6.207502 -71.971169 19.530901  0.022485 -0.340552 0.939957  0.464858 0.815424 1 1 1.000000
skin_0
0  6.207502 -71.971169 19.530901  0.022485 -0.340552 0.939957  0.464858 0.815424 1 1 1.000000
0  7.267319 -66.052711 21.540422  0.023225 -0.297552 0.954423  0.458998 0.793939 1 1 1.000000
0  7.088389 -66.052711 21.540422  -0.682632 -0.101592 0.723666  0.459975 0.793939 1 1 1.000000
skin_0
0  6.207502 -71.971169 19.530901  0.022485 -0.340552 0.939957  0.464858 0.815424 1 1 1.000000
0  4.941229 -79.417404 16.681786  0.023166 -0.389579 0.920701  0.471694 0.843745 1 1 1.000000
0  9.015328 -78.508995 16.970825  0.015689 -0.375073 0.926862  0.449232 0.840815 1 1 1.000000
skin_0
0  9.015328 -78.508995 16.970825  0.015689 -0.375073 0.926862  0.449232 0.840815 1 1 1.000000
0  10.777101 -70.498428 19.957581  0.020131 -0.329703 0.943870  0.438490 0.810541 1 1 1.000000
0  6.207502 -71.971169 19.530901  0.022485 -0.340552 0.939957  0.464858 0.815424 1 1 1.000000
skin_0
0  4.941229 -79.417404 16.681786  0.023166 -0.389579 0.920701  0.471694 0.843745 1 1 1.000000
0  4.129162 -83.023529 15.098941  0.013557 -0.417543 0.908556  0.476577 0.857418 1 1 1.000000
0  7.927984 -82.596855 15.236579  0.015397 -0.408774 0.912506  0.455092 0.855464 1 1 1.000000
skin_0
0  7.927984 -82.596855 15.236579  0.015397 -0.408774 0.912506  0.455092 0.855464 1 1 1.000000
0  9.015328 -78.508995 16.970825  0.015689 -0.375073 0.926862  0.449232 0.840815 1 1 1.000000
0  4.941229 -79.417404 16.681786  0.023166 -0.389579 0.920701  0.471694 0.843745 1 1 1.000000
skin_0
0  6.813112 -86.560844 13.405987  0.006902 -0.421725 0.906697  0.460952 0.871090 1 1 1.000000
0  7.927984 -82.596855 15.236579  0.015397 -0.408774 0.912506  0.455092 0.855464 1 1 1.000000
0  4.129162 -83.023529 15.098941  0.013557 -0.417543 0.908556  0.476577 0.857418 1 1 1.000000
skin_0
0  4.129162 -83.023529 15.098941  0.013557 -0.417543 0.908556  0.476577 0.857418 1 1 1.000000
0  0.000008 -86.726006 13.378461  -0.000120 -0.433639 0.901087  0.500015 0.871090 1 1 1.000000
0  6.813112 -86.560844 13.405987  0.006902 -0.421725 0.906697  0.460952 0.871090 1 1 1.000000
skin_0
0  4.721007 -79.114601 16.805658  0.017606 -0.328188 0.944448  0.472671 0.842769 1 1 1.000000
0  5.588130 -72.301491 18.608723  0.027606 -0.232128 0.972293  0.467788 0.817377 1 1 1.000000
0  0.000007 -72.989685 18.622486  -0.003015 -0.235724 0.971815  0.500015 0.819330 1 1 1.000000
skin_0
0  0.000007 -72.989685 18.622486  -0.003015 -0.235724 0.971815  0.500015 0.819330 1 1 1.000000
0  0.000007 -79.527512 16.736839  -0.002409 -0.337931 0.941168  0.500015 0.844722 1 1 1.000000
0  4.721007 -79.114601 16.805658  0.017606 -0.328188 0.944448  0.472671 0.842769 1 1 1.000000
skin_0
0  0.000006 -63.533928 22.435074  -0.001160 -0.277932 0.960600  0.500015 0.784173 1 1 1.000000
0  0.000007 -66.713379 21.499132  -0.000548 -0.278390 0.960468  0.500015 0.795892 1 1 1.000000
0  6.758056 -65.997658 21.567951  0.025856 -0.281284 0.959276  0.461928 0.792962 1 1 1.000000
skin_0
0  6.758056 -65.997658 21.567951  0.025856 -0.281284 0.959276  0.461928 0.792962 1 1 1.000000
0  7.336139 -62.983372 22.407545  0.023326 -0.272495 0.961874  0.458022 0.782220 1 1 1.000000
0  0.000006 -63.533928 22.435074  -0.001160 -0.277932 0.960600  0.500015 0.784173 1 1 1.000000
skin_0
0  12.222304 -61.510639 22.724113  0.025639 -0.290843 0.956427  0.430677 0.776360 1 1 1.000000
0  7.859165 -62.900791 22.421309  0.019384 -0.272211 0.962042  0.455092 0.781243 1 1 1.000000
0  7.267319 -66.052711 21.540422  0.023225 -0.297552 0.954423  0.458998 0.793939 1 1 1.000000
skin_0
0  7.267319 -66.052711 21.540422  0.023225 -0.297552 0.954423  0.458998 0.793939 1 1 1.000000
0  10.777101 -70.498428 19.957581  0.020131 -0.329703 0.943870  0.438490 0.810541 1 1 1.000000
0  12.222304 -61.510639 22.724113  0.025639 -0.290843 0.956427  0.430677 0.776360 1 1 1.000000
skin_0
0  4.872409 -79.114601 16.805658  0.039552 -0.342551 0.938666  0.472671 0.842769 1 1 1.000000
0  5.973517 -72.150093 19.173040  -0.960939 0.080832 0.264693  0.465835 0.816401 1 1 1.000000
0  5.767059 -72.273964 18.608723  -0.565468 -0.113276 0.816955  0.466811 0.817377 1 1 1.000000
skin_0
0  0.000007 -66.837250 21.471603  -0.000012 -0.888506 0.458866  0.500015 0.796869 1 1 1.000000
0  0.000007 -66.782196 21.292675  -0.000001 -0.960045 -0.279846  0.500015 0.795892 1 1 1.000000
0  6.923222 -66.025185 21.361492  0.128295 -0.951883 -0.278315  0.460952 0.793939 1 1 1.000000
skin_0
0  6.923222 -66.025185 21.361492  0.128295 -0.951883 -0.278315  0.460952 0.793939 1 1 1.000000
0  6.909459 -66.080238 21.540422  0.211584 -0.841419 0.497238  0.460952 0.793939 1 1 1.000000
0  0.000007 -66.837250 21.471603  -0.000012 -0.888506 0.458866  0.500015 0.796869 1 1 1.000000
skin_0
0  4.941229 -79.417404 16.681786  0.023166 -0.389579 0.920701  0.471694 0.843745 1 1 1.000000
0  4.872409 -79.114601 16.805658  0.039552 -0.342551 0.938666  0.472671 0.842769 1 1 1.000000
0  4.721007 -79.114601 16.805658  0.017606 -0.328188 0.944448  0.472671 0.842769 1 1 1.000000
skin_0
0  4.941229 -79.417404 16.681786  0.023166 -0.389579 0.920701  0.471694 0.843745 1 1 1.000000
0  4.721007 -79.114601 16.805658  0.017606 -0.328188 0.944448  0.472671 0.842769 1 1 1.000000
0  0.000007 -79.527512 16.736839  -0.002409 -0.337931 0.941168  0.500015 0.844722 1 1 1.000000
skin_0
0  4.941229 -79.417404 16.681786  0.023166 -0.389579 0.920701  0.471694 0.843745 1 1 1.000000
0  0.000007 -79.527512 16.736839  -0.002409 -0.337931 0.941168  0.500015 0.844722 1 1 1.000000
0  0.000007 -79.857849 16.599203  -0.001093 -0.403796 0.914848  0.500015 0.845698 1 1 1.000000
skin_0
0  6.056100 -72.012459 19.517138  -0.630074 -0.167675 0.758216  0.465835 0.816401 1 1 1.000000
0  4.872409 -79.114601 16.805658  0.039552 -0.342551 0.938666  0.472671 0.842769 1 1 1.000000
0  4.941229 -79.417404 16.681786  0.023166 -0.389579 0.920701  0.471694 0.843745 1 1 1.000000
skin_0
0  4.941229 -79.417404 16.681786  0.023166 -0.389579 0.920701  0.471694 0.843745 1 1 1.000000
0  6.207502 -71.971169 19.530901  0.022485 -0.340552 0.939957  0.464858 0.815424 1 1 1.000000
0  6.056100 -72.012459 19.517138  -0.630074 -0.167675 0.758216  0.465835 0.816401 1 1 1.000000
skin_0
0  5.588130 -72.301491 18.608723  0.027606 -0.232128 0.972293  0.467788 0.817377 1 1 1.000000
0  4.721007 -79.114601 16.805658  0.017606 -0.328188 0.944448  0.472671 0.842769 1 1 1.000000
0  4.872409 -79.114601 16.805658  0.039552 -0.342551 0.938666  0.472671 0.842769 1 1 1.000000
skin_0
0  4.872409 -79.114601 16.805658  0.039552 -0.342551 0.938666  0.472671 0.842769 1 1 1.000000
0  5.767059 -72.273964 18.608723  -0.565468 -0.113276 0.816955  0.466811 0.817377 1 1 1.000000
0  5.588130 -72.301491 18.608723  0.027606 -0.232128 0.972293  0.467788 0.817377 1 1 1.000000
skin_0
0  7.680234 -62.955845 22.407545  -0.578301 -0.115322 0.807631  0.456069 0.782220 1 1 1.000000
0  7.088389 -66.052711 21.540422  -0.682632 -0.101592 0.723666  0.459975 0.793939 1 1 1.000000
0  7.267319 -66.052711 21.540422  0.023225 -0.297552 0.954423  0.458998 0.793939 1 1 1.000000
skin_0
0  7.267319 -66.052711 21.540422  0.023225 -0.297552 0.954423  0.458998 0.793939 1 1 1.000000
0  7.859165 -62.900791 22.421309  0.019384 -0.272211 0.962042  0.455092 0.781243 1 1 1.000000
0  7.680234 -62.955845 22.407545  -0.578301 -0.115322 0.807631  0.456069 0.782220 1 1 1.000000
skin_0
0  6.909459 -66.080238 21.540422  0.211584 -0.841419 0.497238  0.017579 0.502915 1 1 1.000000
0  6.923222 -66.025185 21.361492  0.128295 -0.951883 -0.278315  0.017579 0.778314 1 1 1.000000
0  7.088389 -66.011421 21.361492  0.147415 -0.949268 -0.277776  0.988311 0.607410 1 1 1.000000
skin_0
0  7.088389 -66.011421 21.361492  0.147415 -0.949268 -0.277776  0.988311 0.607410 1 1 1.000000
0  7.088389 -66.038948 21.471603  0.357356 -0.857036 0.371197  0.988311 0.436506 1 1 1.000000
0  6.909459 -66.080238 21.540422  0.211584 -0.841419 0.497238  0.017579 0.502915 1 1 1.000000
skin_0
0  7.088389 -66.052711 21.540422  -0.682632 -0.101592 0.723666  0.459975 0.793939 1 1 1.000000
0  7.088389 -66.038948 21.471603  -0.986722 0.159482 0.030745  0.459975 0.793939 1 1 1.000000
0  6.056100 -72.012459 19.517138  -0.630074 -0.167675 0.758216  0.465835 0.816401 1 1 1.000000
skin_0
0  7.088389 -66.052711 21.540422  -0.682632 -0.101592 0.723666  0.047853 0.916990 1 1 1.000000
0  7.680234 -62.955845 22.407545  -0.578301 -0.115322 0.807631  0.047853 0.085910 1 1 1.000000
0  7.680234 -62.942081 22.338728  -0.983349 0.167510 0.070469  0.821314 0.074190 1 1 1.000000
skin_0
0  7.680234 -62.942081 22.338728  -0.983350 0.167489 0.070493  0.821314 0.074190 1 1 1.000000
0  7.088389 -66.038948 21.471603  -0.986722 0.159482 0.030745  0.821314 0.952147 1 1 1.000000
0  7.088389 -66.052711 21.540422  -0.682632 -0.101592 0.723666  0.047853 0.916990 1 1 1.000000
skin_0
0  6.207502 -71.971169 19.530901  0.022485 -0.340552 0.939957  0.464858 0.815424 1 1 1.000000
0  10.777101 -70.498428 19.957581  0.020131 -0.329703 0.943870  0.438490 0.810541 1 1 1.000000
0  7.267319 -66.052711 21.540422  0.023225 -0.297552 0.954423  0.458998 0.793939 1 1 1.000000
skin_0
0  0.000007 -66.837250 21.471603  -0.000012 -0.888506 0.458866  0.500015 0.796869 1 1 1.000000
0  6.909459 -66.080238 21.540422  0.211584 -0.841419 0.497238  0.460952 0.793939 1 1 1.000000
0  6.758056 -65.997658 21.567951  0.025856 -0.281284 0.959276  0.461928 0.792962 1 1 1.000000
skin_0
0  6.758056 -65.997658 21.567951  0.025856 -0.281284 0.959276  0.461928 0.792962 1 1 1.000000
0  0.000007 -66.713379 21.499132  -0.000548 -0.278390 0.960468  0.500015 0.795892 1 1 1.000000
0  0.000007 -66.837250 21.471603  -0.000012 -0.888506 0.458866  0.500015 0.796869 1 1 1.000000
skin_0
0  7.336139 -62.983372 22.407545  0.023326 -0.272495 0.961874  0.458022 0.782220 1 1 1.000000
0  6.758056 -65.997658 21.567951  0.025856 -0.281284 0.959276  0.461928 0.792962 1 1 1.000000
0  6.909459 -66.080238 21.540422  0.211584 -0.841419 0.497238  0.460952 0.793939 1 1 1.000000
skin_0
0  6.909459 -66.080238 21.540422  0.211584 -0.841419 0.497238  0.460952 0.793939 1 1 1.000000
0  7.501304 -62.969608 22.407545  0.240031 -0.303267 0.922179  0.457045 0.782220 1 1 1.000000
0  7.336139 -62.983372 22.407545  0.023326 -0.272495 0.961874  0.458022 0.782220 1 1 1.000000
skin_0
0  7.501304 -62.969608 22.407545  0.240031 -0.303267 0.922179  0.015625 0.359355 1 1 1.000000
0  6.909459 -66.080238 21.540422  0.211584 -0.841419 0.497238  0.017579 0.502915 1 1 1.000000
0  7.088389 -66.038948 21.471603  0.357165 -0.857397 0.370546  0.988311 0.436506 1 1 1.000000
skin_0
0  7.088389 -66.038948 21.471603  0.357165 -0.857397 0.370546  0.988311 0.436506 1 1 1.000000
0  7.680234 -62.942081 22.338728  0.388004 -0.315901 0.865829  0.988311 0.361309 1 1 1.000000
0  7.501304 -62.969608 22.407545  0.240031 -0.303267 0.922179  0.015625 0.359355 1 1 1.000000
skin_0
0  12.951788 -69.658836 20.219091  0.007293 -0.319832 0.947446  0.426771 0.807611 1 1 1.000000
0  14.589685 -60.450829 22.985624  0.022799 -0.290806 0.956510  0.417005 0.772454 1 1 1.000000
0  12.222304 -61.510639 22.724113  0.025639 -0.290843 0.956427  0.430677 0.776360 1 1 1.000000
skin_0
0  12.222304 -61.510639 22.724113  0.025639 -0.290843 0.956427  0.430677 0.776360 1 1 1.000000
0  10.777101 -70.498428 19.957581  0.020131 -0.329703 0.943870  0.438490 0.810541 1 1 1.000000
0  12.951788 -69.658836 20.219091  0.007293 -0.319832 0.947446  0.426771 0.807611 1 1 1.000000
skin_0
0  11.286363 -77.765739 17.246101  0.013998 -0.369705 0.929044  0.435560 0.837886 1 1 1.000000
0  12.951788 -69.658836 20.219091  0.007293 -0.319832 0.947446  0.426771 0.807611 1 1 1.000000
0  10.777101 -70.498428 19.957581  0.020131 -0.329703 0.943870  0.438490 0.810541 1 1 1.000000
skin_0
0  10.777101 -70.498428 19.957581  0.020131 -0.329703 0.943870  0.438490 0.810541 1 1 1.000000
0  9.015328 -78.508995 16.970825  0.015689 -0.375073 0.926862  0.449232 0.840815 1 1 1.000000
0  11.286363 -77.765739 17.246101  0.013998 -0.369705 0.929044  0.435560 0.837886 1 1 1.000000
skin_0
0  10.322894 -82.005005 15.456801  0.014867 -0.403852 0.914704  0.441420 0.853511 1 1 1.000000
0  11.286363 -77.765739 17.246101  0.013998 -0.369705 0.929044  0.435560 0.837886 1 1 1.000000
0  9.015328 -78.508995 16.970825  0.015689 -0.375073 0.926862  0.449232 0.840815 1 1 1.000000
skin_0
0  9.015328 -78.508995 16.970825  0.015689 -0.375073 0.926862  0.449232 0.840815 1 1 1.000000
0  7.927984 -82.596855 15.236579  0.015397 -0.408774 0.912506  0.455092 0.855464 1 1 1.000000
0  10.322894 -82.005005 15.456801  0.014867 -0.403852 0.914704  0.441420 0.853511 1 1 1.000000
skin_0
0  7.927984 -82.596855 15.236579  0.015397 -0.408774 0.912506  0.455092 0.855464 1 1 1.000000
0  6.813112 -86.560844 13.405987  0.006902 -0.421725 0.906697  0.460952 0.871090 1 1 1.000000
0  7.762818 -86.326859 13.516098  0.005317 -0.419829 0.907588  0.456069 0.870113 1 1 1.000000
skin_0
0  8.602413 -85.858887 13.722556  0.008351 -0.419063 0.907919  0.451186 0.868160 1 1 1.000000
0  7.927984 -82.596855 15.236579  0.015397 -0.408774 0.912506  0.455092 0.855464 1 1 1.000000
0  7.762818 -86.326859 13.516098  0.005317 -0.419829 0.907588  0.456069 0.870113 1 1 1.000000
skin_0
0  9.166731 -85.253281 13.997833  0.011540 -0.417648 0.908535  0.448256 0.866207 1 1 1.000000
0  7.927984 -82.596855 15.236579  0.015397 -0.408774 0.912506  0.455092 0.855464 1 1 1.000000
0  8.602413 -85.858887 13.722556  0.008351 -0.419063 0.907919  0.451186 0.868160 1 1 1.000000
skin_0
0  9.717284 -84.138405 14.493331  0.014884 -0.416423 0.909049  0.445326 0.861324 1 1 1.000000
0  7.927984 -82.596855 15.236579  0.015397 -0.408774 0.912506  0.455092 0.855464 1 1 1.000000
0  9.166731 -85.253281 13.997833  0.011540 -0.417648 0.908535  0.448256 0.866207 1 1 1.000000
skin_0
0  10.322894 -82.005005 15.456801  0.014867 -0.403852 0.914704  0.441420 0.853511 1 1 1.000000
0  7.927984 -82.596855 15.236579  0.015397 -0.408774 0.912506  0.455092 0.855464 1 1 1.000000
0  9.717284 -84.138405 14.493331  0.014884 -0.416423 0.909049  0.445326 0.861324 1 1 1.000000
skin_0
0  6.771821 -86.726006 13.323403  0.038059 -0.593553 0.803894  0.461928 0.871090 1 1 1.000000
0  6.813112 -86.560844 13.405987  0.006902 -0.421725 0.906697  0.460952 0.871090 1 1 1.000000
0  0.000008 -86.726006 13.378461  -0.000120 -0.433639 0.901087  0.500015 0.871090 1 1 1.000000
skin_0
0  0.000008 -86.726006 13.378461  -0.000120 -0.433639 0.901087  0.500015 0.871090 1 1 1.000000
0  0.000008 -86.877419 13.309641  -0.000334 -0.600115 0.799914  0.500015 0.872066 1 1 1.000000
0  6.771821 -86.726006 13.323403  0.038059 -0.593553 0.803894  0.461928 0.871090 1 1 1.000000
skin_0
0  14.589685 -60.450829 22.985624  0.022799 -0.290806 0.956510  0.417005 0.772454 1 1 1.000000
0  12.951788 -69.658836 20.219091  0.007293 -0.319832 0.947446  0.426771 0.807611 1 1 1.000000
0  13.130718 -69.590019 20.246620  0.191244 -0.343090 0.919628  0.425794 0.806635 1 1 1.000000
skin_0
0  13.130718 -69.590019 20.246620  0.191244 -0.343090 0.919628  0.425794 0.806635 1 1 1.000000
0  14.768616 -60.368237 23.013151  0.275289 -0.320390 0.906403  0.416028 0.772454 1 1 1.000000
0  14.589685 -60.450829 22.985624  0.022799 -0.290806 0.956510  0.417005 0.772454 1 1 1.000000
skin_0
0  12.951788 -69.658836 20.219091  0.007293 -0.319832 0.947446  0.426771 0.807611 1 1 1.000000
0  11.286363 -77.765739 17.246101  0.013998 -0.369705 0.929044  0.435560 0.837886 1 1 1.000000
0  11.479057 -77.696922 17.259867  0.198487 -0.395397 0.896808  0.434584 0.837886 1 1 1.000000
skin_0
0  11.479057 -77.696922 17.259867  0.198487 -0.395397 0.896808  0.434584 0.837886 1 1 1.000000
0  13.130718 -69.590019 20.246620  0.191244 -0.343090 0.919628  0.425794 0.806635 1 1 1.000000
0  12.951788 -69.658836 20.219091  0.007293 -0.319832 0.947446  0.426771 0.807611 1 1 1.000000
skin_0
0  11.286363 -77.765739 17.246101  0.013998 -0.369705 0.929044  0.435560 0.837886 1 1 1.000000
0  10.322894 -82.005005 15.456801  0.014867 -0.403852 0.914704  0.441420 0.853511 1 1 1.000000
0  10.501824 -81.963715 15.484328  0.199779 -0.434679 0.878147  0.440443 0.853511 1 1 1.000000
skin_0
0  10.501824 -81.963715 15.484328  0.199779 -0.434679 0.878147  0.440443 0.853511 1 1 1.000000
0  11.479057 -77.696922 17.259867  0.198487 -0.395397 0.896808  0.434584 0.837886 1 1 1.000000
0  11.286363 -77.765739 17.246101  0.013998 -0.369705 0.929044  0.435560 0.837886 1 1 1.000000
skin_0
0  7.790346 -86.478264 13.433516  0.087375 -0.580560 0.809516  0.456069 0.871090 1 1 1.000000
0  7.762818 -86.326859 13.516098  0.005317 -0.419829 0.907588  0.456069 0.870113 1 1 1.000000
0  6.813112 -86.560844 13.405987  0.006902 -0.421725 0.906697  0.460952 0.871090 1 1 1.000000
skin_0
0  6.813112 -86.560844 13.405987  0.006902 -0.421725 0.906697  0.460952 0.871090 1 1 1.000000
0  6.771821 -86.726006 13.323403  0.038059 -0.593553 0.803894  0.461928 0.871090 1 1 1.000000
0  7.790346 -86.478264 13.433516  0.087375 -0.580560 0.809516  0.456069 0.871090 1 1 1.000000
skin_0
0  8.698760 -85.996529 13.653737  0.141801 -0.550572 0.822656  0.450209 0.869137 1 1 1.000000
0  8.602413 -85.858887 13.722556  0.008351 -0.419063 0.907919  0.451186 0.868160 1 1 1.000000
0  7.762818 -86.326859 13.516098  0.005317 -0.419829 0.907588  0.456069 0.870113 1 1 1.000000
skin_0
0  7.762818 -86.326859 13.516098  0.005317 -0.419829 0.907588  0.456069 0.870113 1 1 1.000000
0  7.790346 -86.478264 13.433516  0.087375 -0.580560 0.809516  0.456069 0.871090 1 1 1.000000
0  8.698760 -85.996529 13.653737  0.141801 -0.550572 0.822656  0.450209 0.869137 1 1 1.000000
skin_0
0  9.318133 -85.335861 13.956542  0.182361 -0.505825 0.843140  0.447279 0.866207 1 1 1.000000
0  9.166731 -85.253281 13.997833  0.011540 -0.417648 0.908535  0.448256 0.866207 1 1 1.000000
0  8.602413 -85.858887 13.722556  0.008351 -0.419063 0.907919  0.451186 0.868160 1 1 1.000000
skin_0
0  8.602413 -85.858887 13.722556  0.008351 -0.419063 0.907919  0.451186 0.868160 1 1 1.000000
0  8.698760 -85.996529 13.653737  0.141801 -0.550572 0.822656  0.450209 0.869137 1 1 1.000000
0  9.318133 -85.335861 13.956542  0.182361 -0.505825 0.843140  0.447279 0.866207 1 1 1.000000
skin_0
0  9.868688 -84.193459 14.465804  0.200170 -0.465112 0.862324  0.444349 0.862301 1 1 1.000000
0  9.717284 -84.138405 14.493331  0.014884 -0.416423 0.909049  0.445326 0.861324 1 1 1.000000
0  9.166731 -85.253281 13.997833  0.011540 -0.417648 0.908535  0.448256 0.866207 1 1 1.000000
skin_0
0  9.166731 -85.253281 13.997833  0.011540 -0.417648 0.908535  0.448256 0.866207 1 1 1.000000
0  9.318133 -85.335861 13.956542  0.182361 -0.505825 0.843140  0.447279 0.866207 1 1 1.000000
0  9.868688 -84.193459 14.465804  0.200170 -0.465112 0.862324  0.444349 0.862301 1 1 1.000000
skin_0
0  10.322894 -82.005005 15.456801  0.014867 -0.403852 0.914704  0.441420 0.853511 1 1 1.000000
0  9.717284 -84.138405 14.493331  0.014884 -0.416423 0.909049  0.445326 0.861324 1 1 1.000000
0  9.868688 -84.193459 14.465804  0.200170 -0.465112 0.862324  0.444349 0.862301 1 1 1.000000
skin_0
0  9.868688 -84.193459 14.465804  0.200170 -0.465112 0.862324  0.444349 0.862301 1 1 1.000000
0  10.501824 -81.963715 15.484328  0.199779 -0.434679 0.878147  0.440443 0.853511 1 1 1.000000
0  10.322894 -82.005005 15.456801  0.014867 -0.403852 0.914704  0.441420 0.853511 1 1 1.000000
skin_0
0  0.000008 -86.877419 13.309641  -0.000334 -0.600115 0.799914  0.015625 0.545885 1 1 1.000000
0  0.000008 -87.001289 13.172003  -0.000437 -0.739338 0.673335  0.988311 0.547838 1 1 1.000000
0  6.730530 -86.863640 13.199531  0.045527 -0.722290 0.690090  0.988311 0.441389 1 1 1.000000
skin_0
0  6.730530 -86.863640 13.199531  0.045527 -0.722290 0.690090  0.988311 0.441389 1 1 1.000000
0  6.771821 -86.726006 13.323403  0.038059 -0.593553 0.803894  0.015625 0.438459 1 1 1.000000
0  0.000008 -86.877419 13.309641  -0.000334 -0.600115 0.799914  0.015625 0.545885 1 1 1.000000
skin_0
0  13.130718 -69.590019 20.246620  0.191244 -0.343090 0.919628  0.015625 0.345683 1 1 1.000000
0  13.323411 -69.493675 20.205328  0.365633 -0.345741 0.864162  0.988311 0.335917 1 1 1.000000
0  14.947547 -60.258129 22.971861  0.382540 -0.326760 0.864229  0.988311 0.274392 1 1 1.000000
skin_0
0  14.947547 -60.258129 22.971861  0.382540 -0.326760 0.864229  0.988311 0.274392 1 1 1.000000
0  14.768616 -60.368237 23.013151  0.275289 -0.320390 0.906403  0.015625 0.285134 1 1 1.000000
0  13.130718 -69.590019 20.246620  0.191244 -0.343090 0.919628  0.015625 0.345683 1 1 1.000000
skin_0
0  11.479057 -77.696922 17.259867  0.198487 -0.395397 0.896808  0.015625 0.434553 1 1 1.000000
0  11.657988 -77.614342 17.218575  0.373796 -0.400872 0.836408  0.988311 0.424787 1 1 1.000000
0  13.323411 -69.493675 20.205328  0.365633 -0.345741 0.864162  0.988311 0.364238 1 1 1.000000
skin_0
0  13.323411 -69.493675 20.205328  0.365633 -0.345741 0.864162  0.988311 0.364238 1 1 1.000000
0  13.130718 -69.590019 20.246620  0.191244 -0.343090 0.919628  0.015625 0.374004 1 1 1.000000
0  11.479057 -77.696922 17.259867  0.198487 -0.395397 0.896808  0.015625 0.434553 1 1 1.000000
skin_0
0  10.694518 -81.881134 15.429273  0.372882 -0.443217 0.815180  0.988311 0.460921 1 1 1.000000
0  11.657988 -77.614342 17.218575  0.373796 -0.400872 0.836408  0.988311 0.424787 1 1 1.000000
0  11.479057 -77.696922 17.259867  0.198487 -0.395397 0.896808  0.015625 0.434553 1 1 1.000000
skin_0
0  11.479057 -77.696922 17.259867  0.198487 -0.395397 0.896808  0.015625 0.434553 1 1 1.000000
0  10.501824 -81.963715 15.484328  0.199779 -0.434679 0.878147  0.015625 0.470687 1 1 1.000000
0  10.694518 -81.881134 15.429273  0.372882 -0.443217 0.815180  0.988311 0.460921 1 1 1.000000
skin_0
0  6.771821 -86.726006 13.323403  0.038059 -0.593553 0.803894  0.015625 0.438459 1 1 1.000000
0  6.730530 -86.863640 13.199531  0.045527 -0.722290 0.690090  0.988311 0.441389 1 1 1.000000
0  7.817873 -86.615898 13.295877  0.139383 -0.701856 0.698548  0.988311 0.418928 1 1 1.000000
skin_0
0  7.817873 -86.615898 13.295877  0.139383 -0.701856 0.698548  0.988311 0.418928 1 1 1.000000
0  7.790346 -86.478264 13.433516  0.087375 -0.580560 0.809516  0.015625 0.416974 1 1 1.000000
0  6.771821 -86.726006 13.323403  0.038059 -0.593553 0.803894  0.015625 0.438459 1 1 1.000000
skin_0
0  7.790346 -86.478264 13.433516  0.087375 -0.580560 0.809516  0.015625 0.416974 1 1 1.000000
0  7.817873 -86.615898 13.295877  0.139383 -0.701856 0.698548  0.988311 0.418928 1 1 1.000000
0  8.808870 -86.092873 13.543627  0.241451 -0.645472 0.724615  0.988311 0.497055 1 1 1.000000
skin_0
0  8.808870 -86.092873 13.543627  0.241451 -0.645472 0.724615  0.988311 0.497055 1 1 1.000000
0  8.698760 -85.996529 13.653737  0.141801 -0.550572 0.822656  0.015625 0.505844 1 1 1.000000
0  7.790346 -86.478264 13.433516  0.087375 -0.580560 0.809516  0.015625 0.416974 1 1 1.000000
skin_0
0  8.698760 -85.996529 13.653737  0.141801 -0.550572 0.822656  0.015625 0.505844 1 1 1.000000
0  8.808870 -86.092873 13.543627  0.241451 -0.645472 0.724615  0.988311 0.497055 1 1 1.000000
0  9.469536 -85.377151 13.860195  0.321637 -0.562815 0.761439  0.988311 0.491195 1 1 1.000000
skin_0
0  9.469536 -85.377151 13.860195  0.321637 -0.562815 0.761439  0.988311 0.491195 1 1 1.000000
0  9.318133 -85.335861 13.956542  0.182361 -0.505825 0.843140  0.015625 0.499985 1 1 1.000000
0  8.698760 -85.996529 13.653737  0.141801 -0.550572 0.822656  0.015625 0.505844 1 1 1.000000
skin_0
0  9.318133 -85.335861 13.956542  0.182361 -0.505825 0.843140  0.015625 0.499985 1 1 1.000000
0  9.469536 -85.377151 13.860195  0.321637 -0.562815 0.761439  0.988311 0.491195 1 1 1.000000
0  10.020089 -84.220985 14.383220  0.361809 -0.495414 0.789721  0.988311 0.481429 1 1 1.000000
skin_0
0  10.020089 -84.220985 14.383220  0.361809 -0.495414 0.789721  0.988311 0.481429 1 1 1.000000
0  9.868688 -84.193459 14.465804  0.200170 -0.465112 0.862324  0.015625 0.490219 1 1 1.000000
0  9.318133 -85.335861 13.956542  0.182361 -0.505825 0.843140  0.015625 0.499985 1 1 1.000000
skin_0
0  10.020089 -84.220985 14.383220  0.361809 -0.495414 0.789721  0.988311 0.481429 1 1 1.000000
0  10.694518 -81.881134 15.429273  0.372882 -0.443217 0.815180  0.988311 0.460921 1 1 1.000000
0  10.501824 -81.963715 15.484328  0.199779 -0.434679 0.878147  0.015625 0.470687 1 1 1.000000
skin_0
0  10.501824 -81.963715 15.484328  0.199779 -0.434679 0.878147  0.015625 0.470687 1 1 1.000000
0  9.868688 -84.193459 14.465804  0.200170 -0.465112 0.862324  0.015625 0.490219 1 1 1.000000
0  10.020089 -84.220985 14.383220  0.361809 -0.495414 0.789721  0.988311 0.481429 1 1 1.000000
skin_0
0  -4.941215 -79.417404 16.681786  -0.025068 -0.390704 0.920175  0.527360 0.843745 1 1 1.000000
0  -4.129147 -83.023529 15.098941  -0.013390 -0.415351 0.909563  0.523453 0.857418 1 1 1.000000
0  0.000007 -83.257515 15.057651  -0.000957 -0.423933 0.905693  0.500015 0.858394 1 1 1.000000
skin_0
0  0.000007 -83.257515 15.057651  -0.000957 -0.423933 0.905693  0.500015 0.858394 1 1 1.000000
0  0.000007 -79.857849 16.599203  -0.001093 -0.403796 0.914848  0.500015 0.845698 1 1 1.000000
0  -4.941215 -79.417404 16.681786  -0.025068 -0.390704 0.920175  0.527360 0.843745 1 1 1.000000
skin_0
0  0.000008 -86.726006 13.378461  -0.000120 -0.433639 0.901087  0.500015 0.871090 1 1 1.000000
0  0.000007 -83.257515 15.057651  -0.000957 -0.423933 0.905693  0.500015 0.858394 1 1 1.000000
0  -4.129147 -83.023529 15.098941  -0.013390 -0.415351 0.909563  0.523453 0.857418 1 1 1.000000
skin_0
0  -7.088376 -66.052711 21.540422  0.682626 -0.101558 0.723677  0.540056 0.793939 1 1 1.000000
0  -7.267305 -66.052711 21.540422  -0.023225 -0.297553 0.954423  0.541032 0.793939 1 1 1.000000
0  -6.207489 -71.971169 19.530901  -0.024923 -0.342966 0.939017  0.535173 0.815424 1 1 1.000000
skin_0
0  -6.207489 -71.971169 19.530901  -0.024923 -0.342966 0.939017  0.535173 0.815424 1 1 1.000000
0  -6.056087 -72.012459 19.517138  0.630032 -0.167697 0.758246  0.534196 0.816401 1 1 1.000000
0  -7.088376 -66.052711 21.540422  0.682626 -0.101558 0.723677  0.540056 0.793939 1 1 1.000000
skin_0
0  -10.777087 -70.498428 19.957581  -0.020693 -0.330879 0.943446  0.560564 0.810541 1 1 1.000000
0  -9.015313 -78.508995 16.970825  -0.015418 -0.374533 0.927085  0.550798 0.840815 1 1 1.000000
0  -4.941215 -79.417404 16.681786  -0.025068 -0.390704 0.920175  0.527360 0.843745 1 1 1.000000
skin_0
0  -4.941215 -79.417404 16.681786  -0.025068 -0.390704 0.920175  0.527360 0.843745 1 1 1.000000
0  -6.207489 -71.971169 19.530901  -0.024923 -0.342966 0.939017  0.535173 0.815424 1 1 1.000000
0  -10.777087 -70.498428 19.957581  -0.020693 -0.330879 0.943446  0.560564 0.810541 1 1 1.000000
skin_0
0  -9.015313 -78.508995 16.970825  -0.015418 -0.374533 0.927085  0.550798 0.840815 1 1 1.000000
0  -7.927969 -82.596855 15.236581  -0.013514 -0.406423 0.913585  0.544939 0.855464 1 1 1.000000
0  -4.129147 -83.023529 15.098941  -0.013390 -0.415351 0.909563  0.523453 0.857418 1 1 1.000000
skin_0
0  -4.129147 -83.023529 15.098941  -0.013390 -0.415351 0.909563  0.523453 0.857418 1 1 1.000000
0  -4.941215 -79.417404 16.681786  -0.025068 -0.390704 0.920175  0.527360 0.843745 1 1 1.000000
0  -9.015313 -78.508995 16.970825  -0.015418 -0.374533 0.927085  0.550798 0.840815 1 1 1.000000
skin_0
0  -6.813097 -86.560844 13.405989  -0.006814 -0.421792 0.906667  0.538102 0.871090 1 1 1.000000
0  0.000008 -86.726006 13.378461  -0.000120 -0.433639 0.901087  0.500015 0.871090 1 1 1.000000
0  -4.129147 -83.023529 15.098941  -0.013390 -0.415351 0.909563  0.523453 0.857418 1 1 1.000000
skin_0
0  -4.129147 -83.023529 15.098941  -0.013390 -0.415351 0.909563  0.523453 0.857418 1 1 1.000000
0  -7.927969 -82.596855 15.236581  -0.013514 -0.406423 0.913585  0.544939 0.855464 1 1 1.000000
0  -6.813097 -86.560844 13.405989  -0.006814 -0.421792 0.906667  0.538102 0.871090 1 1 1.000000
skin_0
0  0.000007 -79.527512 16.736839  -0.002409 -0.337931 0.941168  0.500015 0.844722 1 1 1.000000
0  0.000007 -72.989685 18.622486  -0.003015 -0.235724 0.971815  0.500015 0.819330 1 1 1.000000
0  -5.588116 -72.301491 18.608723  -0.025971 -0.234112 0.971863  0.531266 0.817377 1 1 1.000000
skin_0
0  -5.588116 -72.301491 18.608723  -0.025971 -0.234112 0.971863  0.531266 0.817377 1 1 1.000000
0  -4.720993 -79.114601 16.805658  -0.014226 -0.324660 0.945724  0.526383 0.842769 1 1 1.000000
0  0.000007 -79.527512 16.736839  -0.002409 -0.337931 0.941168  0.500015 0.844722 1 1 1.000000
skin_0
0  -7.336125 -62.983372 22.407545  -0.021953 -0.273518 0.961616  0.541032 0.782220 1 1 1.000000
0  -6.758043 -65.997658 21.567951  -0.024955 -0.280747 0.959457  0.538102 0.792962 1 1 1.000000
0  0.000007 -66.713379 21.499132  -0.000548 -0.278390 0.960468  0.500015 0.795892 1 1 1.000000
skin_0
0  0.000007 -66.713379 21.499132  -0.000548 -0.278390 0.960468  0.500015 0.795892 1 1 1.000000
0  0.000006 -63.533928 22.435074  -0.001160 -0.277932 0.960600  0.500015 0.784173 1 1 1.000000
0  -7.336125 -62.983372 22.407545  -0.021953 -0.273518 0.961616  0.541032 0.782220 1 1 1.000000
skin_0
0  -12.222291 -61.510639 22.724113  -0.030375 -0.295260 0.954934  0.568377 0.776360 1 1 1.000000
0  -10.777087 -70.498428 19.957581  -0.020693 -0.330879 0.943446  0.560564 0.810541 1 1 1.000000
0  -7.267305 -66.052711 21.540422  -0.023225 -0.297553 0.954423  0.541032 0.793939 1 1 1.000000
skin_0
0  -7.267305 -66.052711 21.540422  -0.023225 -0.297553 0.954423  0.541032 0.793939 1 1 1.000000
0  -7.859151 -62.900791 22.421309  -0.019389 -0.272211 0.962042  0.543962 0.781243 1 1 1.000000
0  -12.222291 -61.510639 22.724113  -0.030375 -0.295260 0.954934  0.568377 0.776360 1 1 1.000000
skin_0
0  -7.088376 -66.038948 21.471603  0.986715 0.159519 0.030760  0.540056 0.793939 1 1 1.000000
0  -6.056087 -72.012459 19.517138  0.630032 -0.167697 0.758246  0.534196 0.816401 1 1 1.000000
0  -5.973504 -72.150093 19.173040  0.960902 0.080817 0.264831  0.533219 0.816401 1 1 1.000000
skin_0
0  -5.973504 -72.150093 19.173040  0.960902 0.080817 0.264831  0.533219 0.816401 1 1 1.000000
0  -7.198487 -65.378281 20.962341  0.976570 0.076196 0.201258  0.540056 0.791009 1 1 1.000000
0  -7.088376 -66.038948 21.471603  0.986715 0.159519 0.030760  0.540056 0.793939 1 1 1.000000
skin_0
0  -4.872395 -79.114601 16.805658  -0.039557 -0.342547 0.938668  0.527360 0.842769 1 1 1.000000
0  -5.973504 -72.150093 19.173040  0.960902 0.080817 0.264831  0.533219 0.816401 1 1 1.000000
0  -6.056087 -72.012459 19.517138  0.630032 -0.167697 0.758246  0.534196 0.816401 1 1 1.000000
skin_0
0  -6.909445 -66.080238 21.540422  -0.211582 -0.841428 0.497225  0.539079 0.793939 1 1 1.000000
0  -6.923209 -66.025185 21.361492  -0.128342 -0.951874 -0.278323  0.539079 0.793939 1 1 1.000000
0  0.000007 -66.782196 21.292675  -0.000001 -0.960045 -0.279846  0.500015 0.795892 1 1 1.000000
skin_0
0  0.000007 -66.782196 21.292675  -0.000001 -0.960045 -0.279846  0.500015 0.795892 1 1 1.000000
0  0.000007 -66.837250 21.471603  -0.000012 -0.888506 0.458866  0.500015 0.796869 1 1 1.000000
0  -6.909445 -66.080238 21.540422  -0.211582 -0.841428 0.497225  0.539079 0.793939 1 1 1.000000
skin_0
0  -4.941215 -79.417404 16.681786  -0.025068 -0.390704 0.920175  0.527360 0.843745 1 1 1.000000
0  0.000007 -79.857849 16.599203  -0.001093 -0.403796 0.914848  0.500015 0.845698 1 1 1.000000
0  0.000007 -79.527512 16.736839  -0.002409 -0.337931 0.941168  0.500015 0.844722 1 1 1.000000
skin_0
0  -4.941215 -79.417404 16.681786  -0.025068 -0.390704 0.920175  0.527360 0.843745 1 1 1.000000
0  0.000007 -79.527512 16.736839  -0.002409 -0.337931 0.941168  0.500015 0.844722 1 1 1.000000
0  -4.720993 -79.114601 16.805658  -0.014226 -0.324660 0.945724  0.526383 0.842769 1 1 1.000000
skin_0
0  -4.941215 -79.417404 16.681786  -0.025068 -0.390704 0.920175  0.527360 0.843745 1 1 1.000000
0  -4.720993 -79.114601 16.805658  -0.014226 -0.324660 0.945724  0.526383 0.842769 1 1 1.000000
0  -4.872395 -79.114601 16.805658  -0.039557 -0.342547 0.938668  0.527360 0.842769 1 1 1.000000
skin_0
0  -6.056087 -72.012459 19.517138  0.630032 -0.167697 0.758246  0.534196 0.816401 1 1 1.000000
0  -6.207489 -71.971169 19.530901  -0.024923 -0.342966 0.939017  0.535173 0.815424 1 1 1.000000
0  -4.941215 -79.417404 16.681786  -0.025068 -0.390704 0.920175  0.527360 0.843745 1 1 1.000000
skin_0
0  -4.941215 -79.417404 16.681786  -0.025068 -0.390704 0.920175  0.527360 0.843745 1 1 1.000000
0  -4.872395 -79.114601 16.805658  -0.039557 -0.342547 0.938668  0.527360 0.842769 1 1 1.000000
0  -6.056087 -72.012459 19.517138  0.630032 -0.167697 0.758246  0.534196 0.816401 1 1 1.000000
skin_0
0  -7.198487 -65.378281 20.962341  0.976570 0.076196 0.201258  0.540056 0.791009 1 1 1.000000
0  -5.973504 -72.150093 19.173040  0.960902 0.080817 0.264831  0.533219 0.816401 1 1 1.000000
0  -5.767046 -72.273964 18.608723  0.565239 -0.113387 0.817098  0.532243 0.817377 1 1 1.000000
skin_0
0  -5.767046 -72.273964 18.608723  0.565239 -0.113387 0.817098  0.532243 0.817377 1 1 1.000000
0  -6.840627 -64.676331 20.219093  0.527914 -0.127475 0.839677  0.538102 0.788080 1 1 1.000000
0  -7.198487 -65.378281 20.962341  0.976570 0.076196 0.201258  0.540056 0.791009 1 1 1.000000
skin_0
0  -5.588116 -72.301491 18.608723  -0.025971 -0.234112 0.971863  0.531266 0.817377 1 1 1.000000
0  -5.767046 -72.273964 18.608723  0.565239 -0.113387 0.817098  0.532243 0.817377 1 1 1.000000
0  -4.872395 -79.114601 16.805658  -0.039557 -0.342547 0.938668  0.527360 0.842769 1 1 1.000000
skin_0
0  -4.872395 -79.114601 16.805658  -0.039557 -0.342547 0.938668  0.527360 0.842769 1 1 1.000000
0  -4.720993 -79.114601 16.805658  -0.014226 -0.324660 0.945724  0.526383 0.842769 1 1 1.000000
0  -5.588116 -72.301491 18.608723  -0.025971 -0.234112 0.971863  0.531266 0.817377 1 1 1.000000
skin_0
0  -7.680221 -62.955845 22.407545  0.578535 -0.115255 0.807474  0.542985 0.782220 1 1 1.000000
0  -7.859151 -62.900791 22.421309  -0.019389 -0.272211 0.962042  0.543962 0.781243 1 1 1.000000
0  -7.267305 -66.052711 21.540422  -0.023225 -0.297553 0.954423  0.541032 0.793939 1 1 1.000000
skin_0
0  -7.267305 -66.052711 21.540422  -0.023225 -0.297553 0.954423  0.541032 0.793939 1 1 1.000000
0  -7.088376 -66.052711 21.540422  0.682626 -0.101558 0.723677  0.540056 0.793939 1 1 1.000000
0  -7.680221 -62.955845 22.407545  0.578535 -0.115255 0.807474  0.542985 0.782220 1 1 1.000000
skin_0
0  -6.909445 -66.080238 21.540422  -0.211582 -0.841428 0.497225  0.017579 0.502915 1 1 1.000000
0  -7.088376 -66.038948 21.471603  -0.357276 -0.857220 0.370847  0.988311 0.436506 1 1 1.000000
0  -7.088376 -66.011421 21.361492  -0.147413 -0.949267 -0.277781  0.988311 0.607410 1 1 1.000000
skin_0
0  -7.088376 -66.011421 21.361492  -0.147413 -0.949267 -0.277781  0.988311 0.607410 1 1 1.000000
0  -6.923209 -66.025185 21.361492  -0.128342 -0.951874 -0.278323  0.017579 0.778314 1 1 1.000000
0  -6.909445 -66.080238 21.540422  -0.211582 -0.841428 0.497225  0.017579 0.502915 1 1 1.000000
skin_0
0  -7.088376 -66.052711 21.540422  0.682626 -0.101558 0.723677  0.540056 0.793939 1 1 1.000000
0  -6.056087 -72.012459 19.517138  0.630032 -0.167697 0.758246  0.534196 0.816401 1 1 1.000000
0  -7.088376 -66.038948 21.471603  0.986715 0.159519 0.030760  0.540056 0.793939 1 1 1.000000
skin_0
0  -7.088376 -66.052711 21.540422  0.682626 -0.101558 0.723677  0.047853 0.916990 1 1 1.000000
0  -7.088376 -66.038948 21.471603  0.986715 0.159519 0.030760  0.821314 0.952147 1 1 1.000000
0  -7.680221 -62.942081 22.338728  0.983349 0.167510 0.070468  0.821314 0.074190 1 1 1.000000
skin_0
0  -7.680221 -62.942081 22.338728  0.983349 0.167510 0.070468  0.821314 0.074190 1 1 1.000000
0  -7.680221 -62.955845 22.407545  0.578535 -0.115255 0.807474  0.047853 0.085910 1 1 1.000000
0  -7.088376 -66.052711 21.540422  0.682626 -0.101558 0.723677  0.047853 0.916990 1 1 1.000000
skin_0
0  -6.207489 -71.971169 19.530901  -0.024923 -0.342966 0.939017  0.535173 0.815424 1 1 1.000000
0  -7.267305 -66.052711 21.540422  -0.023225 -0.297553 0.954423  0.541032 0.793939 1 1 1.000000
0  -10.777087 -70.498428 19.957581  -0.020693 -0.330879 0.943446  0.560564 0.810541 1 1 1.000000
skin_0
0  0.000007 -66.713379 21.499132  -0.000548 -0.278390 0.960468  0.500015 0.795892 1 1 1.000000
0  -6.758043 -65.997658 21.567951  -0.024955 -0.280747 0.959457  0.538102 0.792962 1 1 1.000000
0  -6.909445 -66.080238 21.540422  -0.211582 -0.841428 0.497225  0.539079 0.793939 1 1 1.000000
skin_0
0  -6.909445 -66.080238 21.540422  -0.211582 -0.841428 0.497225  0.539079 0.793939 1 1 1.000000
0  0.000007 -66.837250 21.471603  -0.000012 -0.888506 0.458866  0.500015 0.796869 1 1 1.000000
0  0.000007 -66.713379 21.499132  -0.000548 -0.278390 0.960468  0.500015 0.795892 1 1 1.000000
skin_0
0  -7.336125 -62.983372 22.407545  -0.021953 -0.273518 0.961616  0.541032 0.782220 1 1 1.000000
0  -7.501291 -62.969608 22.407545  -0.239975 -0.303264 0.922195  0.542009 0.782220 1 1 1.000000
0  -6.909445 -66.080238 21.540422  -0.211582 -0.841428 0.497225  0.539079 0.793939 1 1 1.000000
skin_0
0  -6.909445 -66.080238 21.540422  -0.211582 -0.841428 0.497225  0.539079 0.793939 1 1 1.000000
0  -6.758043 -65.997658 21.567951  -0.024955 -0.280747 0.959457  0.538102 0.792962 1 1 1.000000
0  -7.336125 -62.983372 22.407545  -0.021953 -0.273518 0.961616  0.541032 0.782220 1 1 1.000000
skin_0
0  -7.501291 -62.969608 22.407545  -0.239975 -0.303264 0.922195  0.015625 0.359355 1 1 1.000000
0  -7.680221 -62.942081 22.338728  -0.387952 -0.315904 0.865851  0.988311 0.361309 1 1 1.000000
0  -7.088376 -66.038948 21.471603  -0.357276 -0.857220 0.370847  0.988311 0.436506 1 1 1.000000
skin_0
0  -7.088376 -66.038948 21.471603  -0.357276 -0.857220 0.370847  0.988311 0.436506 1 1 1.000000
0  -6.909445 -66.080238 21.540422  -0.211582 -0.841428 0.497225  0.017579 0.502915 1 1 1.000000
0  -7.501291 -62.969608 22.407545  -0.239975 -0.303264 0.922195  0.015625 0.359355 1 1 1.000000
skin_0
0  -10.777087 -70.498428 19.957581  -0.020693 -0.330879 0.943446  0.560564 0.810541 1 1 1.000000
0  -12.222291 -61.510639 22.724113  -0.030375 -0.295260 0.954934  0.568377 0.776360 1 1 1.000000
0  -14.575909 -60.450829 22.985628  -0.021862 -0.292276 0.956084  0.582049 0.772454 1 1 1.000000
skin_0
0  -14.575909 -60.450829 22.985628  -0.021862 -0.292276 0.956084  0.582049 0.772454 1 1 1.000000
0  -12.951775 -69.658836 20.219095  -0.004804 -0.317845 0.948130  0.573260 0.807611 1 1 1.000000
0  -10.777087 -70.498428 19.957581  -0.020693 -0.330879 0.943446  0.560564 0.810541 1 1 1.000000
skin_0
0  -9.015313 -78.508995 16.970825  -0.015418 -0.374533 0.927085  0.550798 0.840815 1 1 1.000000
0  -10.777087 -70.498428 19.957581  -0.020693 -0.330879 0.943446  0.560564 0.810541 1 1 1.000000
0  -12.951775 -69.658836 20.219095  -0.004804 -0.317845 0.948130  0.573260 0.807611 1 1 1.000000
skin_0
0  -12.951775 -69.658836 20.219095  -0.004804 -0.317845 0.948130  0.573260 0.807611 1 1 1.000000
0  -11.286347 -77.765739 17.246101  -0.012594 -0.369150 0.929285  0.563494 0.837886 1 1 1.000000
0  -9.015313 -78.508995 16.970825  -0.015418 -0.374533 0.927085  0.550798 0.840815 1 1 1.000000
skin_0
0  -7.927969 -82.596855 15.236581  -0.013514 -0.406423 0.913585  0.544939 0.855464 1 1 1.000000
0  -9.015313 -78.508995 16.970825  -0.015418 -0.374533 0.927085  0.550798 0.840815 1 1 1.000000
0  -11.286347 -77.765739 17.246101  -0.012594 -0.369150 0.929285  0.563494 0.837886 1 1 1.000000
skin_0
0  -11.286347 -77.765739 17.246101  -0.012594 -0.369150 0.929285  0.563494 0.837886 1 1 1.000000
0  -10.322879 -82.005005 15.456803  -0.013463 -0.402347 0.915388  0.557634 0.853511 1 1 1.000000
0  -7.927969 -82.596855 15.236581  -0.013514 -0.406423 0.913585  0.544939 0.855464 1 1 1.000000
skin_0
0  -7.927969 -82.596855 15.236581  -0.013514 -0.406423 0.913585  0.544939 0.855464 1 1 1.000000
0  -7.762803 -86.326859 13.516100  -0.005320 -0.419830 0.907587  0.543962 0.870113 1 1 1.000000
0  -6.813097 -86.560844 13.405989  -0.006814 -0.421792 0.906667  0.538102 0.871090 1 1 1.000000
skin_0
0  -8.602398 -85.858887 13.722558  -0.008352 -0.419067 0.907917  0.548845 0.868160 1 1 1.000000
0  -7.762803 -86.326859 13.516100  -0.005320 -0.419830 0.907587  0.543962 0.870113 1 1 1.000000
0  -7.927969 -82.596855 15.236581  -0.013514 -0.406423 0.913585  0.544939 0.855464 1 1 1.000000
skin_0
0  -9.166716 -85.253281 13.997835  -0.011498 -0.417632 0.908544  0.551775 0.866207 1 1 1.000000
0  -8.602398 -85.858887 13.722558  -0.008352 -0.419067 0.907917  0.548845 0.868160 1 1 1.000000
0  -7.927969 -82.596855 15.236581  -0.013514 -0.406423 0.913585  0.544939 0.855464 1 1 1.000000
skin_0
0  -9.717269 -84.138405 14.493333  -0.014917 -0.416394 0.909062  0.554704 0.861324 1 1 1.000000
0  -9.166716 -85.253281 13.997835  -0.011498 -0.417632 0.908544  0.551775 0.866207 1 1 1.000000
0  -7.927969 -82.596855 15.236581  -0.013514 -0.406423 0.913585  0.544939 0.855464 1 1 1.000000
skin_0
0  -10.322879 -82.005005 15.456803  -0.013463 -0.402347 0.915388  0.557634 0.853511 1 1 1.000000
0  -9.717269 -84.138405 14.493333  -0.014917 -0.416394 0.909062  0.554704 0.861324 1 1 1.000000
0  -7.927969 -82.596855 15.236581  -0.013514 -0.406423 0.913585  0.544939 0.855464 1 1 1.000000
skin_0
0  0.000008 -86.877419 13.309641  -0.000334 -0.600115 0.799914  0.500015 0.872066 1 1 1.000000
0  0.000008 -86.726006 13.378461  -0.000120 -0.433639 0.901087  0.500015 0.871090 1 1 1.000000
0  -6.813097 -86.560844 13.405989  -0.006814 -0.421792 0.906667  0.538102 0.871090 1 1 1.000000
skin_0
0  -6.813097 -86.560844 13.405989  -0.006814 -0.421792 0.906667  0.538102 0.871090 1 1 1.000000
0  -6.771806 -86.726006 13.323405  -0.037777 -0.593621 0.803857  0.538102 0.871090 1 1 1.000000
0  0.000008 -86.877419 13.309641  -0.000334 -0.600115 0.799914  0.500015 0.872066 1 1 1.000000
skin_0
0  -14.575909 -60.450829 22.985628  -0.021862 -0.292276 0.956084  0.582049 0.772454 1 1 1.000000
0  -14.768602 -60.368237 23.013155  -0.275358 -0.320434 0.906366  0.583026 0.772454 1 1 1.000000
0  -13.130705 -69.590019 20.246624  -0.191278 -0.343085 0.919622  0.574236 0.806635 1 1 1.000000
skin_0
0  -13.130705 -69.590019 20.246624  -0.191278 -0.343085 0.919622  0.574236 0.806635 1 1 1.000000
0  -12.951775 -69.658836 20.219095  -0.004804 -0.317845 0.948130  0.573260 0.807611 1 1 1.000000
0  -14.575909 -60.450829 22.985628  -0.021862 -0.292276 0.956084  0.582049 0.772454 1 1 1.000000
skin_0
0  -12.951775 -69.658836 20.219095  -0.004804 -0.317845 0.948130  0.573260 0.807611 1 1 1.000000
0  -13.130705 -69.590019 20.246624  -0.191278 -0.343085 0.919622  0.574236 0.806635 1 1 1.000000
0  -11.479042 -77.696922 17.259867  -0.198603 -0.395579 0.896702  0.564470 0.837886 1 1 1.000000
skin_0
0  -11.479042 -77.696922 17.259867  -0.198603 -0.395579 0.896702  0.564470 0.837886 1 1 1.000000
0  -11.286347 -77.765739 17.246101  -0.012594 -0.369150 0.929285  0.563494 0.837886 1 1 1.000000
0  -12.951775 -69.658836 20.219095  -0.004804 -0.317845 0.948130  0.573260 0.807611 1 1 1.000000
skin_0
0  -11.286347 -77.765739 17.246101  -0.012594 -0.369150 0.929285  0.563494 0.837886 1 1 1.000000
0  -11.479042 -77.696922 17.259867  -0.198603 -0.395579 0.896702  0.564470 0.837886 1 1 1.000000
0  -10.501809 -81.963715 15.484330  -0.199970 -0.434708 0.878089  0.559587 0.853511 1 1 1.000000
skin_0
0  -10.501809 -81.963715 15.484330  -0.199970 -0.434708 0.878089  0.559587 0.853511 1 1 1.000000
0  -10.322879 -82.005005 15.456803  -0.013463 -0.402347 0.915388  0.557634 0.853511 1 1 1.000000
0  -11.286347 -77.765739 17.246101  -0.012594 -0.369150 0.929285  0.563494 0.837886 1 1 1.000000
skin_0
0  -7.790331 -86.478264 13.433517  -0.087371 -0.580531 0.809537  0.543962 0.871090 1 1 1.000000
0  -6.771806 -86.726006 13.323405  -0.037777 -0.593621 0.803857  0.538102 0.871090 1 1 1.000000
0  -6.813097 -86.560844 13.405989  -0.006814 -0.421792 0.906667  0.538102 0.871090 1 1 1.000000
skin_0
0  -6.813097 -86.560844 13.405989  -0.006814 -0.421792 0.906667  0.538102 0.871090 1 1 1.000000
0  -7.762803 -86.326859 13.516100  -0.005320 -0.419830 0.907587  0.543962 0.870113 1 1 1.000000
0  -7.790331 -86.478264 13.433517  -0.087371 -0.580531 0.809537  0.543962 0.871090 1 1 1.000000
skin_0
0  -8.698745 -85.996529 13.653739  -0.141764 -0.550560 0.822671  0.548845 0.869137 1 1 1.000000
0  -7.790331 -86.478264 13.433517  -0.087371 -0.580531 0.809537  0.543962 0.871090 1 1 1.000000
0  -7.762803 -86.326859 13.516100  -0.005320 -0.419830 0.907587  0.543962 0.870113 1 1 1.000000
skin_0
0  -7.762803 -86.326859 13.516100  -0.005320 -0.419830 0.907587  0.543962 0.870113 1 1 1.000000
0  -8.602398 -85.858887 13.722558  -0.008352 -0.419067 0.907917  0.548845 0.868160 1 1 1.000000
0  -8.698745 -85.996529 13.653739  -0.141764 -0.550560 0.822671  0.548845 0.869137 1 1 1.000000
skin_0
0  -9.318118 -85.335861 13.956544  -0.182361 -0.505832 0.843136  0.552751 0.866207 1 1 1.000000
0  -8.698745 -85.996529 13.653739  -0.141764 -0.550560 0.822671  0.548845 0.869137 1 1 1.000000
0  -8.602398 -85.858887 13.722558  -0.008352 -0.419067 0.907917  0.548845 0.868160 1 1 1.000000
skin_0
0  -8.602398 -85.858887 13.722558  -0.008352 -0.419067 0.907917  0.548845 0.868160 1 1 1.000000
0  -9.166716 -85.253281 13.997835  -0.011498 -0.417632 0.908544  0.551775 0.866207 1 1 1.000000
0  -9.318118 -85.335861 13.956544  -0.182361 -0.505832 0.843136  0.552751 0.866207 1 1 1.000000
skin_0
0  -9.868672 -84.193459 14.465806  -0.200343 -0.465035 0.862326  0.555681 0.862301 1 1 1.000000
0  -9.318118 -85.335861 13.956544  -0.182361 -0.505832 0.843136  0.552751 0.866207 1 1 1.000000
0  -9.166716 -85.253281 13.997835  -0.011498 -0.417632 0.908544  0.551775 0.866207 1 1 1.000000
skin_0
0  -9.166716 -85.253281 13.997835  -0.011498 -0.417632 0.908544  0.551775 0.866207 1 1 1.000000
0  -9.717269 -84.138405 14.493333  -0.014917 -0.416394 0.909062  0.554704 0.861324 1 1 1.000000
0  -9.868672 -84.193459 14.465806  -0.200343 -0.465035 0.862326  0.555681 0.862301 1 1 1.000000
skin_0
0  -10.322879 -82.005005 15.456803  -0.013463 -0.402347 0.915388  0.557634 0.853511 1 1 1.000000
0  -10.501809 -81.963715 15.484330  -0.199970 -0.434708 0.878089  0.559587 0.853511 1 1 1.000000
0  -9.868672 -84.193459 14.465806  -0.200343 -0.465035 0.862326  0.555681 0.862301 1 1 1.000000
skin_0
0  -9.868672 -84.193459 14.465806  -0.200343 -0.465035 0.862326  0.555681 0.862301 1 1 1.000000
0  -9.717269 -84.138405 14.493333  -0.014917 -0.416394 0.909062  0.554704 0.861324 1 1 1.000000
0  -10.322879 -82.005005 15.456803  -0.013463 -0.402347 0.915388  0.557634 0.853511 1 1 1.000000
skin_0
0  -6.771806 -86.726006 13.323405  -0.037777 -0.593621 0.803857  0.015625 0.438459 1 1 1.000000
0  -6.730515 -86.863640 13.199533  -0.045012 -0.722008 0.690419  0.988311 0.441389 1 1 1.000000
0  0.000008 -87.001289 13.172003  -0.000437 -0.739338 0.673335  0.988311 0.547838 1 1 1.000000
skin_0
0  0.000008 -87.001289 13.172003  -0.000437 -0.739338 0.673335  0.988311 0.547838 1 1 1.000000
0  0.000008 -86.877419 13.309641  -0.000334 -0.600115 0.799914  0.015625 0.545885 1 1 1.000000
0  -6.771806 -86.726006 13.323405  -0.037777 -0.593621 0.803857  0.015625 0.438459 1 1 1.000000
skin_0
0  -13.130705 -69.590019 20.246624  -0.191278 -0.343085 0.919622  0.015625 0.345683 1 1 1.000000
0  -14.768602 -60.368237 23.013155  -0.275358 -0.320434 0.906366  0.015625 0.285134 1 1 1.000000
0  -14.947534 -60.258129 22.971865  -0.382538 -0.326758 0.864230  0.988311 0.274392 1 1 1.000000
skin_0
0  -14.947534 -60.258129 22.971865  -0.382538 -0.326758 0.864230  0.988311 0.274392 1 1 1.000000
0  -13.323398 -69.493675 20.205332  -0.365604 -0.345744 0.864173  0.988311 0.335917 1 1 1.000000
0  -13.130705 -69.590019 20.246624  -0.191278 -0.343085 0.919622  0.015625 0.345683 1 1 1.000000
skin_0
0  -11.479042 -77.696922 17.259867  -0.198603 -0.395579 0.896702  0.015625 0.434553 1 1 1.000000
0  -13.130705 -69.590019 20.246624  -0.191278 -0.343085 0.919622  0.015625 0.374004 1 1 1.000000
0  -13.323398 -69.493675 20.205332  -0.365604 -0.345744 0.864173  0.988311 0.364238 1 1 1.000000
skin_0
0  -13.323398 -69.493675 20.205332  -0.365604 -0.345744 0.864173  0.988311 0.364238 1 1 1.000000
0  -11.657972 -77.614342 17.218575  -0.373707 -0.401043 0.836366  0.988311 0.424787 1 1 1.000000
0  -11.479042 -77.696922 17.259867  -0.198603 -0.395579 0.896702  0.015625 0.434553 1 1 1.000000
skin_0
0  -10.501809 -81.963715 15.484330  -0.199970 -0.434708 0.878089  0.015625 0.470687 1 1 1.000000
0  -11.479042 -77.696922 17.259867  -0.198603 -0.395579 0.896702  0.015625 0.434553 1 1 1.000000
0  -11.657972 -77.614342 17.218575  -0.373707 -0.401043 0.836366  0.988311 0.424787 1 1 1.000000
skin_0
0  -11.657972 -77.614342 17.218575  -0.373707 -0.401043 0.836366  0.988311 0.424787 1 1 1.000000
0  -10.694503 -81.881134 15.429275  -0.372563 -0.442981 0.815454  0.988311 0.460921 1 1 1.000000
0  -10.501809 -81.963715 15.484330  -0.199970 -0.434708 0.878089  0.015625 0.470687 1 1 1.000000
skin_0
0  -6.771806 -86.726006 13.323405  -0.037777 -0.593621 0.803857  0.015625 0.438459 1 1 1.000000
0  -7.790331 -86.478264 13.433517  -0.087371 -0.580531 0.809537  0.015625 0.416974 1 1 1.000000
0  -7.817858 -86.615898 13.295878  -0.139395 -0.701870 0.698532  0.988311 0.418928 1 1 1.000000
skin_0
0  -7.817858 -86.615898 13.295878  -0.139395 -0.701870 0.698532  0.988311 0.418928 1 1 1.000000
0  -6.730515 -86.863640 13.199533  -0.045012 -0.722008 0.690419  0.988311 0.441389 1 1 1.000000
0  -6.771806 -86.726006 13.323405  -0.037777 -0.593621 0.803857  0.015625 0.438459 1 1 1.000000
skin_0
0  -7.790331 -86.478264 13.433517  -0.087371 -0.580531 0.809537  0.015625 0.416974 1 1 1.000000
0  -8.698745 -85.996529 13.653739  -0.141764 -0.550560 0.822671  0.015625 0.505844 1 1 1.000000
0  -8.808855 -86.092873 13.543629  -0.241453 -0.645485 0.724603  0.988311 0.497055 1 1 1.000000
skin_0
0  -8.808855 -86.092873 13.543629  -0.241453 -0.645485 0.724603  0.988311 0.497055 1 1 1.000000
0  -7.817858 -86.615898 13.295878  -0.139395 -0.701870 0.698532  0.988311 0.418928 1 1 1.000000
0  -7.790331 -86.478264 13.433517  -0.087371 -0.580531 0.809537  0.015625 0.416974 1 1 1.000000
skin_0
0  -8.698745 -85.996529 13.653739  -0.141764 -0.550560 0.822671  0.015625 0.505844 1 1 1.000000
0  -9.318118 -85.335861 13.956544  -0.182361 -0.505832 0.843136  0.015625 0.499985 1 1 1.000000
0  -9.469521 -85.377151 13.860197  -0.321646 -0.562812 0.761437  0.988311 0.491195 1 1 1.000000
skin_0
0  -9.469521 -85.377151 13.860197  -0.321646 -0.562812 0.761437  0.988311 0.491195 1 1 1.000000
0  -8.808855 -86.092873 13.543629  -0.241453 -0.645485 0.724603  0.988311 0.497055 1 1 1.000000
0  -8.698745 -85.996529 13.653739  -0.141764 -0.550560 0.822671  0.015625 0.505844 1 1 1.000000
skin_0
0  -9.318118 -85.335861 13.956544  -0.182361 -0.505832 0.843136  0.015625 0.499985 1 1 1.000000
0  -9.868672 -84.193459 14.465806  -0.200343 -0.465035 0.862326  0.015625 0.490219 1 1 1.000000
0  -10.020074 -84.220985 14.383222  -0.361775 -0.495241 0.789845  0.988311 0.481429 1 1 1.000000
skin_0
0  -10.020074 -84.220985 14.383222  -0.361775 -0.495241 0.789845  0.988311 0.481429 1 1 1.000000
0  -9.469521 -85.377151 13.860197  -0.321646 -0.562812 0.761437  0.988311 0.491195 1 1 1.000000
0  -9.318118 -85.335861 13.956544  -0.182361 -0.505832 0.843136  0.015625 0.499985 1 1 1.000000
skin_0
0  -9.868672 -84.193459 14.465806  -0.200343 -0.465035 0.862326  0.015625 0.490219 1 1 1.000000
0  -10.501809 -81.963715 15.484330  -0.199970 -0.434708 0.878089  0.015625 0.470687 1 1 1.000000
0  -10.694503 -81.881134 15.429275  -0.372563 -0.442981 0.815454  0.988311 0.460921 1 1 1.000000
skin_0
0  -10.694503 -81.881134 15.429275  -0.372563 -0.442981 0.815454  0.988311 0.460921 1 1 1.000000
0  -10.020074 -84.220985 14.383222  -0.361775 -0.495241 0.789845  0.988311 0.481429 1 1 1.000000
0  -9.868672 -84.193459 14.465806  -0.200343 -0.465035 0.862326  0.015625 0.490219 1 1 1.000000
skin_0
0  -4.872395 -79.114601 16.805658  -0.039557 -0.342547 0.938668  0.527360 0.842769 1 1 1.000000
0  -5.767046 -72.273964 18.608723  0.565239 -0.113387 0.817098  0.532243 0.817377 1 1 1.000000
0  -5.973504 -72.150093 19.173040  0.960902 0.080817 0.264831  0.533219 0.816401 1 1 1.000000
skin_0
0  4.872409 -79.114601 16.805658  0.039552 -0.342551 0.938666  0.472671 0.842769 1 1 1.000000
0  6.056100 -72.012459 19.517138  -0.630074 -0.167675 0.758216  0.465835 0.816401 1 1 1.000000
0  5.973517 -72.150093 19.173040  -0.960939 0.080832 0.264693  0.465835 0.816401 1 1 1.000000
skin_0
0  -6.647933 -64.703857 20.219093  -0.019611 -0.208663 0.977791  0.537126 0.788080 1 1 1.000000
0  -6.840627 -64.676331 20.219093  0.527914 -0.127475 0.839677  0.538102 0.788080 1 1 1.000000
0  -5.767046 -72.273964 18.608723  0.565239 -0.113387 0.817098  0.532243 0.817377 1 1 1.000000
skin_0
0  -5.767046 -72.273964 18.608723  0.565239 -0.113387 0.817098  0.532243 0.817377 1 1 1.000000
0  -5.588116 -72.301491 18.608723  -0.025971 -0.234112 0.971863  0.531266 0.817377 1 1 1.000000
0  -6.647933 -64.703857 20.219093  -0.019611 -0.208663 0.977791  0.537126 0.788080 1 1 1.000000
skin_0
0  0.000006 -65.378281 20.122747  -0.000000 -0.199430 0.979912  0.500015 0.791009 1 1 1.000000
0  -6.647933 -64.703857 20.219093  -0.019611 -0.208663 0.977791  0.537126 0.788080 1 1 1.000000
0  -5.588116 -72.301491 18.608723  -0.025971 -0.234112 0.971863  0.531266 0.817377 1 1 1.000000
skin_0
0  -5.588116 -72.301491 18.608723  -0.025971 -0.234112 0.971863  0.531266 0.817377 1 1 1.000000
0  0.000007 -72.989685 18.622486  -0.003015 -0.235724 0.971815  0.500015 0.819330 1 1 1.000000
0  0.000006 -65.378281 20.122747  -0.000000 -0.199430 0.979912  0.500015 0.791009 1 1 1.000000
skin_0
0  5.588130 -72.301491 18.608723  0.027606 -0.232128 0.972293  0.467788 0.817377 1 1 1.000000
0  6.647945 -64.703857 20.219093  0.019614 -0.208658 0.977792  0.461928 0.788080 1 1 1.000000
0  0.000006 -65.378281 20.122747  -0.000000 -0.199430 0.979912  0.500015 0.791009 1 1 1.000000
skin_0
0  0.000006 -65.378281 20.122747  -0.000000 -0.199430 0.979912  0.500015 0.791009 1 1 1.000000
0  0.000007 -72.989685 18.622486  -0.003015 -0.235724 0.971815  0.500015 0.819330 1 1 1.000000
0  5.588130 -72.301491 18.608723  0.027606 -0.232128 0.972293  0.467788 0.817377 1 1 1.000000
skin_0
0  5.767059 -72.273964 18.608723  -0.565468 -0.113276 0.816955  0.466811 0.817377 1 1 1.000000
0  6.840639 -64.676331 20.219093  -0.527942 -0.127491 0.839657  0.460952 0.788080 1 1 1.000000
0  6.647945 -64.703857 20.219093  0.019614 -0.208658 0.977792  0.461928 0.788080 1 1 1.000000
skin_0
0  6.647945 -64.703857 20.219093  0.019614 -0.208658 0.977792  0.461928 0.788080 1 1 1.000000
0  5.588130 -72.301491 18.608723  0.027606 -0.232128 0.972293  0.467788 0.817377 1 1 1.000000
0  5.767059 -72.273964 18.608723  -0.565468 -0.113276 0.816955  0.466811 0.817377 1 1 1.000000
skin_0
0  7.198500 -65.378281 20.962341  -0.976587 0.076207 0.201171  0.458998 0.791009 1 1 1.000000
0  6.840639 -64.676331 20.219093  -0.527942 -0.127491 0.839657  0.460952 0.788080 1 1 1.000000
0  5.767059 -72.273964 18.608723  -0.565468 -0.113276 0.816955  0.466811 0.817377 1 1 1.000000
skin_0
0  5.767059 -72.273964 18.608723  -0.565468 -0.113276 0.816955  0.466811 0.817377 1 1 1.000000
0  5.973517 -72.150093 19.173040  -0.960939 0.080832 0.264693  0.465835 0.816401 1 1 1.000000
0  7.198500 -65.378281 20.962341  -0.976587 0.076207 0.201171  0.458998 0.791009 1 1 1.000000
skin_0
0  7.088389 -66.038948 21.471603  -0.986722 0.159482 0.030745  0.459975 0.793939 1 1 1.000000
0  7.198500 -65.378281 20.962341  -0.976587 0.076207 0.201171  0.458998 0.791009 1 1 1.000000
0  5.973517 -72.150093 19.173040  -0.960939 0.080832 0.264693  0.465835 0.816401 1 1 1.000000
skin_0
0  5.973517 -72.150093 19.173040  -0.960939 0.080832 0.264693  0.465835 0.816401 1 1 1.000000
0  6.056100 -72.012459 19.517138  -0.630074 -0.167675 0.758216  0.465835 0.816401 1 1 1.000000
0  7.088389 -66.038948 21.471603  -0.986722 0.159482 0.030745  0.459975 0.793939 1 1 1.000000
end
