version 1
nodes
0 "blender_implicit" -1
1 "root" -1
2 "steering_wheel" 1
end
skeleton
time 0
0  0.000000 0.000000 0.000000  0.000000 -0.000000 0.000000
1  0.000000 0.000000 0.000000  1.570796 -0.000000 0.000000
2  0.000004 24.183060 22.214846  0.000000 -0.000002 -0.000002
end
triangles
doorline
0  -38.525009 -38.043282 27.458881  -0.778222 -0.609685 -0.150512  0.778344 0.058565 1 1 1.000000
0  -37.988216 -38.401142 27.458881  -0.208936 -0.977014 -0.042293  0.778344 0.058565 1 1 1.000000
0  -38.084564 -38.401142 27.899326  -0.282822 -0.957529 -0.056116  0.979522 0.058565 1 1 1.000000
doorline
0  -38.084564 -38.401142 27.899326  -0.282822 -0.957529 -0.056116  0.979522 0.058565 1 1 1.000000
0  -38.607594 -38.043282 27.899326  -0.808530 -0.567720 -0.154834  0.979522 0.058565 1 1 1.000000
0  -38.525009 -38.043282 27.458881  -0.778222 -0.609685 -0.150512  0.778344 0.058565 1 1 1.000000
doorline
0  -38.937923 -35.318039 27.486408  -0.967423 0.168255 -0.189163  0.778344 0.058565 1 1 1.000000
0  -38.951687 -36.625607 27.472645  -0.972648 -0.139463 -0.185757  0.778344 0.058565 1 1 1.000000
0  -39.034271 -36.625607 27.913090  -0.973401 -0.133367 -0.186288  0.979522 0.058565 1 1 1.000000
doorline
0  -39.034271 -36.625607 27.913090  -0.973401 -0.133367 -0.186288  0.979522 0.058565 1 1 1.000000
0  -39.034271 -35.318039 27.926853  -0.967956 0.162845 -0.191159  0.979522 0.058565 1 1 1.000000
0  -38.937923 -35.318039 27.486408  -0.967423 0.168255 -0.189163  0.778344 0.058565 1 1 1.000000
doorline
0  -37.107330 -34.836304 27.472643  0.840651 0.499422 0.209483  0.778344 0.058565 1 1 1.000000
0  -37.823055 -34.216934 27.472643  0.357021 0.930458 0.082361  0.778344 0.058565 1 1 1.000000
0  -37.919399 -34.216934 27.913090  0.250713 0.966238 0.059388  0.979522 0.058565 1 1 1.000000
doorline
0  -37.919399 -34.216934 27.913090  0.250713 0.966238 0.059388  0.979522 0.058565 1 1 1.000000
0  -37.217442 -34.836304 27.913088  0.816674 0.539412 0.205131  0.979522 0.058565 1 1 1.000000
0  -37.107330 -34.836304 27.472643  0.840651 0.499422 0.209483  0.778344 0.058565 1 1 1.000000
doorline
0  -38.580063 -34.285751 27.500172  -0.561779 0.819239 -0.115114  0.778344 0.058565 1 1 1.000000
0  -38.937923 -35.318039 27.486408  -0.967423 0.168255 -0.189163  0.778344 0.058565 1 1 1.000000
0  -39.034271 -35.318039 27.926853  -0.967956 0.162845 -0.191159  0.979522 0.058565 1 1 1.000000
doorline
0  -39.034271 -35.318039 27.926853  -0.967956 0.162845 -0.191159  0.979522 0.058565 1 1 1.000000
0  -38.676411 -34.285751 27.940619  -0.655131 0.743118 -0.136307  0.979522 0.058565 1 1 1.000000
0  -38.580063 -34.285751 27.500172  -0.561779 0.819239 -0.115114  0.778344 0.058565 1 1 1.000000
doorline
0  -37.024746 -37.162395 27.913088  0.945140 -0.241306 0.220187  0.979522 0.058565 1 1 1.000000
0  -37.506485 -38.346085 27.913088  0.539931 -0.833643 0.116248  0.979522 0.058565 1 1 1.000000
0  -37.410137 -38.346085 27.472643  0.622604 -0.770510 0.136667  0.778344 0.058565 1 1 1.000000
doorline
0  -37.410137 -38.346085 27.472643  0.622604 -0.770510 0.136667  0.778344 0.058565 1 1 1.000000
0  -36.914639 -37.162395 27.472643  0.946497 -0.232348 0.223960  0.778344 0.057588 1 1 1.000000
0  -37.024746 -37.162395 27.913088  0.945140 -0.241306 0.220187  0.979522 0.058565 1 1 1.000000
doorline
0  -36.900875 -35.992470 27.913088  0.967787 0.079536 0.238877  0.979522 0.058565 1 1 1.000000
0  -37.024746 -37.162395 27.913088  0.945140 -0.241306 0.220187  0.979522 0.058565 1 1 1.000000
0  -36.914639 -37.162395 27.472643  0.946497 -0.232348 0.223960  0.778344 0.057588 1 1 1.000000
doorline
0  -36.914639 -37.162395 27.472643  0.946497 -0.232348 0.223960  0.778344 0.057588 1 1 1.000000
0  -36.804527 -35.992470 27.472643  0.967717 0.074638 0.240736  0.778344 0.058565 1 1 1.000000
0  -36.900875 -35.992470 27.913088  0.967787 0.079536 0.238877  0.979522 0.058565 1 1 1.000000
doorline
0  -38.607594 -38.043282 27.899326  -0.808530 -0.567720 -0.154834  0.979522 0.058565 1 1 1.000000
0  -39.034271 -36.625607 27.913090  -0.973401 -0.133367 -0.186288  0.979522 0.058565 1 1 1.000000
0  -38.951687 -36.625607 27.472645  -0.972648 -0.139463 -0.185757  0.778344 0.058565 1 1 1.000000
doorline
0  -38.951687 -36.625607 27.472645  -0.972648 -0.139463 -0.185757  0.778344 0.058565 1 1 1.000000
0  -38.525009 -38.043282 27.458881  -0.778222 -0.609685 -0.150512  0.778344 0.058565 1 1 1.000000
0  -38.607594 -38.043282 27.899326  -0.808530 -0.567720 -0.154834  0.979522 0.058565 1 1 1.000000
doorline
0  -37.506485 -38.346085 27.913088  0.539931 -0.833643 0.116248  0.979522 0.058565 1 1 1.000000
0  -38.084564 -38.401142 27.899326  -0.282822 -0.957529 -0.056116  0.979522 0.058565 1 1 1.000000
0  -37.988216 -38.401142 27.458881  -0.208936 -0.977014 -0.042293  0.778344 0.058565 1 1 1.000000
doorline
0  -37.988216 -38.401142 27.458881  -0.208936 -0.977014 -0.042293  0.778344 0.058565 1 1 1.000000
0  -37.410137 -38.346085 27.472643  0.622604 -0.770510 0.136667  0.778344 0.058565 1 1 1.000000
0  -37.506485 -38.346085 27.913088  0.539931 -0.833643 0.116248  0.979522 0.058565 1 1 1.000000
doorline
0  -37.217442 -34.836304 27.913088  0.816674 0.539412 0.205131  0.979522 0.058565 1 1 1.000000
0  -36.900875 -35.992470 27.913088  0.967787 0.079536 0.238877  0.979522 0.058565 1 1 1.000000
0  -36.804527 -35.992470 27.472643  0.967717 0.074638 0.240736  0.778344 0.058565 1 1 1.000000
doorline
0  -36.804527 -35.992470 27.472643  0.967717 0.074638 0.240736  0.778344 0.058565 1 1 1.000000
0  -37.107330 -34.836304 27.472643  0.840651 0.499422 0.209483  0.778344 0.058565 1 1 1.000000
0  -37.217442 -34.836304 27.913088  0.816674 0.539412 0.205131  0.979522 0.058565 1 1 1.000000
doorline
0  -38.676411 -34.285751 27.940619  -0.655131 0.743118 -0.136307  0.979522 0.058565 1 1 1.000000
0  -37.919399 -34.216934 27.913090  0.250713 0.966238 0.059388  0.979522 0.058565 1 1 1.000000
0  -37.823055 -34.216934 27.472643  0.357021 0.930458 0.082361  0.778344 0.058565 1 1 1.000000
doorline
0  -37.823055 -34.216934 27.472643  0.357021 0.930458 0.082361  0.778344 0.058565 1 1 1.000000
0  -38.580063 -34.285751 27.500172  -0.561779 0.819239 -0.115114  0.778344 0.058565 1 1 1.000000
0  -38.676411 -34.285751 27.940619  -0.655131 0.743118 -0.136307  0.979522 0.058565 1 1 1.000000
skin_0
0  -38.070801 -38.387379 28.972904  -0.205090 -0.978725 -0.006013  0.260750 0.462874 1 1 1.000000
0  -38.029507 -38.387379 27.679102  -0.226263 -0.974054 -0.004828  0.260750 0.379864 1 1 1.000000
0  -37.492722 -38.332321 27.679100  0.606126 -0.795040 0.022876  0.265633 0.379864 1 1 1.000000
skin_0
0  -37.492722 -38.332321 27.679100  0.606126 -0.795040 0.022876  0.265633 0.379864 1 1 1.000000
0  -37.547775 -38.332321 29.069250  0.631676 -0.774773 0.026700  0.265633 0.468734 1 1 1.000000
0  -38.070801 -38.387379 28.972904  -0.205090 -0.978725 -0.006013  0.260750 0.462874 1 1 1.000000
skin_0
0  -38.979214 -36.625607 28.793978  -0.990730 -0.135712 -0.005978  0.411145 0.451155 1 1 1.000000
0  -38.979214 -36.625607 27.692865  -0.990664 -0.136321 -0.001093  0.411145 0.380840 1 1 1.000000
0  -38.566299 -38.043282 27.679102  -0.801713 -0.597597 -0.011570  0.290048 0.379864 1 1 1.000000
skin_0
0  -38.566299 -38.043282 27.679102  -0.801713 -0.597597 -0.011570  0.290048 0.379864 1 1 1.000000
0  -38.593830 -38.043282 28.876558  -0.794422 -0.607129 -0.016943  0.290048 0.456038 1 1 1.000000
0  -38.979214 -36.625607 28.793978  -0.990730 -0.135712 -0.005978  0.411145 0.451155 1 1 1.000000
skin_0
0  -36.198917 -37.162395 25.807219  0.894177 -0.237478 0.379541  0.365246 0.260720 1 1 1.000000
0  -37.010983 -37.162395 27.692863  0.892575 -0.236604 0.383833  0.365246 0.380840 1 1 1.000000
0  -37.492722 -38.332321 27.679100  0.491714 -0.845601 0.207790  0.265633 0.379864 1 1 1.000000
skin_0
0  -37.492722 -38.332321 27.679100  0.491714 -0.845601 0.207790  0.265633 0.379864 1 1 1.000000
0  -36.653126 -38.332321 25.655815  0.567935 -0.788786 0.235087  0.265633 0.250954 1 1 1.000000
0  -36.198917 -37.162395 25.807219  0.894177 -0.237478 0.379541  0.365246 0.260720 1 1 1.000000
skin_0
0  -37.217442 -34.905125 27.706627  0.858978 0.511305 0.026908  0.556658 0.381817 1 1 1.000000
0  -37.891872 -34.258224 27.720394  0.363242 0.931640 0.010133  0.611347 0.382794 1 1 1.000000
0  -37.946926 -34.244461 28.986668  0.385940 0.922509 -0.005235  0.613300 0.462874 1 1 1.000000
skin_0
0  -37.946926 -34.244461 28.986668  0.385940 0.922509 -0.005235  0.613300 0.462874 1 1 1.000000
0  -37.272499 -34.836304 29.179359  0.856919 0.515306 0.012192  0.562517 0.476547 1 1 1.000000
0  -37.217442 -34.905125 27.706627  0.858978 0.511305 0.026908  0.556658 0.381817 1 1 1.000000
skin_0
0  -37.148621 -38.387379 25.476885  -0.212143 -0.973828 -0.081575  0.260750 0.239235 1 1 1.000000
0  -38.029507 -38.387379 27.679102  -0.302354 -0.945558 -0.120427  0.260750 0.379864 1 1 1.000000
0  -38.566299 -38.043282 27.679102  -0.788101 -0.533723 -0.306655  0.290048 0.379864 1 1 1.000000
skin_0
0  -38.566299 -38.043282 27.679102  -0.788101 -0.533723 -0.306655  0.290048 0.379864 1 1 1.000000
0  -37.644123 -38.043282 25.297958  -0.752656 -0.592283 -0.287593  0.290048 0.227515 1 1 1.000000
0  -37.148621 -38.387379 25.476885  -0.212143 -0.973828 -0.081575  0.260750 0.239235 1 1 1.000000
skin_0
0  -38.979214 -35.318039 27.706629  -0.925124 0.150736 -0.348459  0.521500 0.381817 1 1 1.000000
0  -38.001980 -35.318039 25.119026  -0.922996 0.162113 -0.348996  0.521500 0.216773 1 1 1.000000
0  -38.029507 -36.625607 25.160320  -0.927563 -0.131372 -0.349812  0.411145 0.219703 1 1 1.000000
skin_0
0  -38.029507 -36.625607 25.160320  -0.927563 -0.131372 -0.349812  0.411145 0.219703 1 1 1.000000
0  -38.979214 -36.625607 27.692865  -0.927693 -0.122800 -0.352569  0.411145 0.380840 1 1 1.000000
0  -38.979214 -35.318039 27.706629  -0.925124 0.150736 -0.348459  0.521500 0.381817 1 1 1.000000
skin_0
0  -36.900875 -35.992470 27.706627  0.994608 0.091615 0.048593  0.463881 0.381817 1 1 1.000000
0  -36.969692 -35.992470 29.206886  0.995040 0.089220 0.043988  0.463881 0.477523 1 1 1.000000
0  -37.079803 -37.162395 29.151833  0.971204 -0.233770 0.045988  0.365246 0.474593 1 1 1.000000
skin_0
0  -37.079803 -37.162395 29.151833  0.971204 -0.233770 0.045988  0.365246 0.474593 1 1 1.000000
0  -37.010983 -37.162395 27.692863  0.969555 -0.241073 0.042968  0.365246 0.380840 1 1 1.000000
0  -36.900875 -35.992470 27.706627  0.994608 0.091615 0.048593  0.463881 0.381817 1 1 1.000000
skin_0
0  -37.038509 -34.244461 25.504412  0.276267 0.952127 0.130889  0.613300 0.241188 1 1 1.000000
0  -37.891872 -34.258224 27.720394  0.267466 0.957714 0.106048  0.611347 0.382794 1 1 1.000000
0  -37.217442 -34.905125 27.706627  0.782157 0.526622 0.333016  0.556658 0.381817 1 1 1.000000
skin_0
0  -37.217442 -34.905125 27.706627  0.782157 0.526622 0.333016  0.556658 0.381817 1 1 1.000000
0  -36.405376 -34.836304 25.820982  0.768291 0.538005 0.346814  0.562517 0.260720 1 1 1.000000
0  -37.038509 -34.244461 25.504412  0.276267 0.952127 0.130889  0.613300 0.241188 1 1 1.000000
skin_0
0  -38.965450 -35.318039 28.752682  -0.986597 0.163147 0.003015  0.521500 0.448225 1 1 1.000000
0  -38.979214 -35.318039 27.706629  -0.986892 0.161293 0.005304  0.521500 0.381817 1 1 1.000000
0  -38.979214 -36.625607 27.692865  -0.990664 -0.136321 -0.001093  0.411145 0.380840 1 1 1.000000
skin_0
0  -38.979214 -36.625607 27.692865  -0.990664 -0.136321 -0.001093  0.411145 0.380840 1 1 1.000000
0  -38.979214 -36.625607 28.793978  -0.990730 -0.135712 -0.005978  0.411145 0.451155 1 1 1.000000
0  -38.965450 -35.318039 28.752682  -0.986597 0.163147 0.003015  0.521500 0.448225 1 1 1.000000
skin_0
0  -36.102570 -35.992470 25.876038  0.915661 0.072747 0.395312  0.463881 0.264626 1 1 1.000000
0  -36.900875 -35.992470 27.706627  0.913583 0.086096 0.397433  0.463881 0.381817 1 1 1.000000
0  -37.010983 -37.162395 27.692863  0.892575 -0.236604 0.383833  0.365246 0.380840 1 1 1.000000
skin_0
0  -37.010983 -37.162395 27.692863  0.892575 -0.236604 0.383833  0.365246 0.380840 1 1 1.000000
0  -36.198917 -37.162395 25.807219  0.894177 -0.237478 0.379541  0.365246 0.260720 1 1 1.000000
0  -36.102570 -35.992470 25.876038  0.915661 0.072747 0.395312  0.463881 0.264626 1 1 1.000000
skin_0
0  -37.644123 -38.043282 25.297958  -0.752656 -0.592283 -0.287593  0.290048 0.227515 1 1 1.000000
0  -38.566299 -38.043282 27.679102  -0.788101 -0.533723 -0.306655  0.290048 0.379864 1 1 1.000000
0  -38.979214 -36.625607 27.692865  -0.927693 -0.122800 -0.352569  0.411145 0.380840 1 1 1.000000
skin_0
0  -38.979214 -36.625607 27.692865  -0.927693 -0.122800 -0.352569  0.411145 0.380840 1 1 1.000000
0  -38.029507 -36.625607 25.160320  -0.927563 -0.131372 -0.349812  0.411145 0.219703 1 1 1.000000
0  -37.644123 -38.043282 25.297958  -0.752656 -0.592283 -0.287593  0.290048 0.227515 1 1 1.000000
skin_0
0  -37.547775 -38.332321 29.069250  0.631676 -0.774773 0.026700  0.265633 0.468734 1 1 1.000000
0  -37.492722 -38.332321 27.679100  0.606126 -0.795040 0.022876  0.265633 0.379864 1 1 1.000000
0  -37.010983 -37.162395 27.692863  0.969555 -0.241073 0.042968  0.365246 0.380840 1 1 1.000000
skin_0
0  -37.010983 -37.162395 27.692863  0.969555 -0.241073 0.042968  0.365246 0.380840 1 1 1.000000
0  -37.079803 -37.162395 29.151833  0.971204 -0.233770 0.045988  0.365246 0.474593 1 1 1.000000
0  -37.547775 -38.332321 29.069250  0.631676 -0.774773 0.026700  0.265633 0.468734 1 1 1.000000
skin_0
0  -38.593830 -38.043282 28.876558  -0.794422 -0.607129 -0.016943  0.290048 0.456038 1 1 1.000000
0  -38.566299 -38.043282 27.679102  -0.801713 -0.597597 -0.011570  0.290048 0.379864 1 1 1.000000
0  -38.029507 -38.387379 27.679102  -0.226263 -0.974054 -0.004828  0.260750 0.379864 1 1 1.000000
skin_0
0  -38.029507 -38.387379 27.679102  -0.226263 -0.974054 -0.004828  0.260750 0.379864 1 1 1.000000
0  -38.070801 -38.387379 28.972904  -0.205090 -0.978725 -0.006013  0.260750 0.462874 1 1 1.000000
0  -38.593830 -38.043282 28.876558  -0.794422 -0.607129 -0.016943  0.290048 0.456038 1 1 1.000000
skin_0
0  -36.653126 -38.332321 25.655815  0.567935 -0.788786 0.235087  0.265633 0.250954 1 1 1.000000
0  -37.492722 -38.332321 27.679100  0.491714 -0.845601 0.207790  0.265633 0.379864 1 1 1.000000
0  -38.029507 -38.387379 27.679102  -0.302354 -0.945558 -0.120427  0.260750 0.379864 1 1 1.000000
skin_0
0  -38.029507 -38.387379 27.679102  -0.302354 -0.945558 -0.120427  0.260750 0.379864 1 1 1.000000
0  -37.148621 -38.387379 25.476885  -0.212143 -0.973828 -0.081575  0.260750 0.239235 1 1 1.000000
0  -36.653126 -38.332321 25.655815  0.567935 -0.788786 0.235087  0.265633 0.250954 1 1 1.000000
skin_0
0  -38.635120 -34.285751 27.720396  -0.648538 0.720754 -0.244769  0.609394 0.382794 1 1 1.000000
0  -37.671650 -34.285751 25.187845  -0.579270 0.785643 -0.217283  0.609394 0.220679 1 1 1.000000
0  -38.001980 -35.318039 25.119026  -0.922996 0.162113 -0.348996  0.521500 0.216773 1 1 1.000000
skin_0
0  -38.001980 -35.318039 25.119026  -0.922996 0.162113 -0.348996  0.521500 0.216773 1 1 1.000000
0  -38.979214 -35.318039 27.706629  -0.925124 0.150736 -0.348459  0.521500 0.381817 1 1 1.000000
0  -38.635120 -34.285751 27.720396  -0.648538 0.720754 -0.244769  0.609394 0.382794 1 1 1.000000
skin_0
0  -37.217442 -34.905125 27.706627  0.858978 0.511305 0.026908  0.556658 0.381817 1 1 1.000000
0  -37.272499 -34.836304 29.179359  0.856919 0.515306 0.012192  0.562517 0.476547 1 1 1.000000
0  -36.969692 -35.992470 29.206886  0.995040 0.089220 0.043988  0.463881 0.477523 1 1 1.000000
skin_0
0  -36.969692 -35.992470 29.206886  0.995040 0.089220 0.043988  0.463881 0.477523 1 1 1.000000
0  -36.900875 -35.992470 27.706627  0.994608 0.091615 0.048593  0.463881 0.381817 1 1 1.000000
0  -37.217442 -34.905125 27.706627  0.858978 0.511305 0.026908  0.556658 0.381817 1 1 1.000000
skin_0
0  -38.965450 -35.318039 28.752682  -0.986597 0.163147 0.003015  0.521500 0.448225 1 1 1.000000
0  -38.621357 -34.285751 28.780209  -0.554715 0.832025 -0.005141  0.609394 0.450179 1 1 1.000000
0  -38.635120 -34.285751 27.720396  -0.602113 0.798406 0.002717  0.609394 0.382794 1 1 1.000000
skin_0
0  -38.635120 -34.285751 27.720396  -0.602113 0.798406 0.002717  0.609394 0.382794 1 1 1.000000
0  -38.979214 -35.318039 27.706629  -0.986892 0.161293 0.005304  0.521500 0.381817 1 1 1.000000
0  -38.965450 -35.318039 28.752682  -0.986597 0.163147 0.003015  0.521500 0.448225 1 1 1.000000
skin_0
0  -36.405376 -34.836304 25.820982  0.768291 0.538005 0.346814  0.562517 0.260720 1 1 1.000000
0  -37.217442 -34.905125 27.706627  0.782157 0.526622 0.333016  0.556658 0.381817 1 1 1.000000
0  -36.900875 -35.992470 27.706627  0.913583 0.086096 0.397433  0.463881 0.381817 1 1 1.000000
skin_0
0  -36.900875 -35.992470 27.706627  0.913583 0.086096 0.397433  0.463881 0.381817 1 1 1.000000
0  -36.102570 -35.992470 25.876038  0.915661 0.072747 0.395312  0.463881 0.264626 1 1 1.000000
0  -36.405376 -34.836304 25.820982  0.768291 0.538005 0.346814  0.562517 0.260720 1 1 1.000000
skin_0
0  -37.891872 -34.258224 27.720394  0.363242 0.931640 0.010133  0.611347 0.382794 1 1 1.000000
0  -38.635120 -34.285751 27.720396  -0.602113 0.798406 0.002717  0.609394 0.382794 1 1 1.000000
0  -38.621357 -34.285751 28.780209  -0.554715 0.832025 -0.005141  0.609394 0.450179 1 1 1.000000
skin_0
0  -38.621357 -34.285751 28.780209  -0.554715 0.832025 -0.005141  0.609394 0.450179 1 1 1.000000
0  -37.946926 -34.244461 28.986668  0.385940 0.922509 -0.005235  0.613300 0.462874 1 1 1.000000
0  -37.891872 -34.258224 27.720394  0.363242 0.931640 0.010133  0.611347 0.382794 1 1 1.000000
skin_0
0  -37.671650 -34.285751 25.187845  -0.579270 0.785643 -0.217283  0.609394 0.220679 1 1 1.000000
0  -38.635120 -34.285751 27.720396  -0.648538 0.720754 -0.244769  0.609394 0.382794 1 1 1.000000
0  -37.891872 -34.258224 27.720394  0.267466 0.957714 0.106048  0.611347 0.382794 1 1 1.000000
skin_0
0  -37.891872 -34.258224 27.720394  0.267466 0.957714 0.106048  0.611347 0.382794 1 1 1.000000
0  -37.038509 -34.244461 25.504412  0.276267 0.952127 0.130889  0.613300 0.241188 1 1 1.000000
0  -37.671650 -34.285751 25.187845  -0.579270 0.785643 -0.217283  0.609394 0.220679 1 1 1.000000
skin_0
0  -43.658924 -32.262463 33.212173  -0.691905 -0.042843 0.720717  0.782250 0.733390 1 1 1.000000
0  -44.016785 -32.193645 32.757965  -0.895305 0.022479 0.444885  0.787133 0.704093 1 1 1.000000
0  -43.507523 -33.831543 32.441395  -0.727462 -0.482114 0.488226  0.648457 0.684561 1 1 1.000000
skin_0
0  -43.218483 -32.331287 33.528740  -0.490514 -0.085333 0.867245  0.775414 0.752922 1 1 1.000000
0  -43.658924 -32.262463 33.212173  -0.691905 -0.042843 0.720717  0.782250 0.733390 1 1 1.000000
0  -43.507523 -33.831543 32.441395  -0.727462 -0.482114 0.488226  0.648457 0.684561 1 1 1.000000
skin_0
0  -43.507523 -33.831543 32.441395  -0.727462 -0.482114 0.488226  0.648457 0.684561 1 1 1.000000
0  -42.571583 -33.982944 33.074532  -0.464649 -0.480141 0.744020  0.634785 0.724601 1 1 1.000000
0  -43.218483 -32.331287 33.528740  -0.490514 -0.085333 0.867245  0.775414 0.752922 1 1 1.000000
skin_0
0  -42.585346 -32.441395 33.762726  -0.261323 -0.084702 0.961528  0.766625 0.768548 1 1 1.000000
0  -43.218483 -32.331287 33.528740  -0.490514 -0.085333 0.867245  0.775414 0.752922 1 1 1.000000
0  -42.571583 -33.982944 33.074532  -0.464649 -0.480141 0.744020  0.634785 0.724601 1 1 1.000000
skin_0
0  -42.571583 -33.982944 33.074532  -0.464649 -0.480141 0.744020  0.634785 0.724601 1 1 1.000000
0  -41.415417 -34.175640 33.528740  -0.245829 -0.402088 0.881983  0.618183 0.753899 1 1 1.000000
0  -42.585346 -32.441395 33.762726  -0.261323 -0.084702 0.961528  0.766625 0.768548 1 1 1.000000
skin_0
0  -36.625599 -33.432392 33.872837  0.194908 -0.089262 0.976751  0.681661 0.775384 1 1 1.000000
0  -39.557297 -32.950657 33.996708  -0.025595 -0.037484 0.998969  0.723655 0.783197 1 1 1.000000
0  -39.447186 -34.505970 33.666378  -0.055348 -0.366051 0.928947  0.587909 0.763665 1 1 1.000000
skin_0
0  -39.447186 -34.505970 33.666378  -0.055348 -0.366051 0.928947  0.587909 0.763665 1 1 1.000000
0  -36.873348 -34.946415 33.377338  0.172008 -0.432212 0.885215  0.553728 0.744133 1 1 1.000000
0  -36.625599 -33.432392 33.872837  0.194908 -0.089262 0.976751  0.681661 0.775384 1 1 1.000000
skin_0
0  -36.873348 -34.946415 33.377338  0.172008 -0.432212 0.885215  0.553728 0.744133 1 1 1.000000
0  -36.253971 -35.042763 33.102058  0.426388 -0.436057 0.792495  0.544939 0.725578 1 1 1.000000
0  -36.047516 -33.528740 33.666378  0.494585 -0.106990 0.862519  0.673849 0.762688 1 1 1.000000
skin_0
0  -36.047516 -33.528740 33.666378  0.494585 -0.106990 0.862519  0.673849 0.762688 1 1 1.000000
0  -36.625599 -33.432392 33.872837  0.194908 -0.089262 0.976751  0.681661 0.775384 1 1 1.000000
0  -36.873348 -34.946415 33.377338  0.172008 -0.432212 0.885215  0.553728 0.744133 1 1 1.000000
skin_0
0  -35.455669 -33.638851 32.881840  0.951531 -0.038699 0.305109  0.665059 0.712882 1 1 1.000000
0  -35.703419 -33.583794 33.363575  0.767597 -0.091203 0.634410  0.668966 0.743156 1 1 1.000000
0  -35.854824 -35.111584 32.757965  0.670236 -0.373137 0.641523  0.540056 0.704093 1 1 1.000000
skin_0
0  -35.854824 -35.111584 32.757965  0.670236 -0.373137 0.641523  0.540056 0.704093 1 1 1.000000
0  -35.607071 -35.152874 32.386341  0.896563 -0.277765 0.344995  0.536149 0.680654 1 1 1.000000
0  -35.455669 -33.638851 32.881840  0.951531 -0.038699 0.305109  0.665059 0.712882 1 1 1.000000
skin_0
0  -35.703419 -33.583794 33.363575  0.767597 -0.091203 0.634410  0.668966 0.743156 1 1 1.000000
0  -36.047516 -33.528740 33.666378  0.494585 -0.106990 0.862519  0.673849 0.762688 1 1 1.000000
0  -36.253971 -35.042763 33.102058  0.426388 -0.436057 0.792495  0.544939 0.725578 1 1 1.000000
skin_0
0  -36.253971 -35.042763 33.102058  0.426388 -0.436057 0.792495  0.544939 0.725578 1 1 1.000000
0  -35.854824 -35.111584 32.757965  0.670236 -0.373137 0.641523  0.540056 0.704093 1 1 1.000000
0  -35.703419 -33.583794 33.363575  0.767597 -0.091203 0.634410  0.668966 0.743156 1 1 1.000000
skin_0
0  -44.085602 -33.707668 30.886082  -0.896475 -0.432304 0.097191  0.658223 0.584948 1 1 1.000000
0  -43.507523 -33.831543 32.441395  -0.727462 -0.482114 0.488226  0.648457 0.684561 1 1 1.000000
0  -44.016785 -32.193645 32.757965  -0.895305 0.022479 0.444885  0.787133 0.704093 1 1 1.000000
skin_0
0  -44.016785 -32.193645 32.757965  -0.895305 0.022479 0.444885  0.787133 0.704093 1 1 1.000000
0  -44.415936 -32.124828 31.161358  -0.981594 0.088019 0.169486  0.792993 0.602527 1 1 1.000000
0  -44.085602 -33.707668 30.886082  -0.896475 -0.432304 0.097191  0.658223 0.584948 1 1 1.000000
skin_0
0  -35.304268 -33.652615 31.161356  0.999251 0.034441 0.017640  0.663106 0.601550 1 1 1.000000
0  -35.455669 -33.638851 32.881840  0.951531 -0.038699 0.305109  0.665059 0.712882 1 1 1.000000
0  -35.607071 -35.152874 32.386341  0.896563 -0.277765 0.344995  0.536149 0.680654 1 1 1.000000
skin_0
0  -35.607071 -35.152874 32.386341  0.896563 -0.277765 0.344995  0.536149 0.680654 1 1 1.000000
0  -35.373085 -35.166637 30.872313  0.985871 -0.165179 0.027831  0.534196 0.583972 1 1 1.000000
0  -35.304268 -33.652615 31.161356  0.999251 0.034441 0.017640  0.663106 0.601550 1 1 1.000000
skin_0
0  -44.581100 -32.097301 29.454641  -0.987633 0.054904 -0.146857  0.795923 0.494125 1 1 1.000000
0  -43.824093 -33.721432 29.069252  -0.766551 -0.451092 -0.457072  0.657247 0.468734 1 1 1.000000
0  -44.085602 -33.707668 30.886082  -0.896475 -0.432304 0.097191  0.658223 0.584948 1 1 1.000000
skin_0
0  -44.085602 -33.707668 30.886082  -0.896475 -0.432304 0.097191  0.658223 0.584948 1 1 1.000000
0  -44.415936 -32.124828 31.161358  -0.981594 0.088019 0.169486  0.792993 0.602527 1 1 1.000000
0  -44.581100 -32.097301 29.454641  -0.987633 0.054904 -0.146857  0.795923 0.494125 1 1 1.000000
skin_0
0  -35.455669 -33.625084 29.275707  0.979775 0.038271 -0.196406  0.666036 0.481429 1 1 1.000000
0  -35.304268 -33.652615 31.161356  0.999251 0.034441 0.017640  0.663106 0.601550 1 1 1.000000
0  -35.373085 -35.166637 30.872313  0.985871 -0.165179 0.027831  0.534196 0.583972 1 1 1.000000
skin_0
0  -35.373085 -35.166637 30.872313  0.985871 -0.165179 0.027831  0.534196 0.583972 1 1 1.000000
0  -35.593307 -35.111584 29.220650  0.936073 -0.160299 -0.313163  0.540056 0.478500 1 1 1.000000
0  -35.455669 -33.625084 29.275707  0.979775 0.038271 -0.196406  0.666036 0.481429 1 1 1.000000
skin_0
0  -44.388409 -32.124828 28.959141  -0.852182 0.041594 -0.521589  0.792993 0.461898 1 1 1.000000
0  -43.824093 -33.721432 29.069252  -0.766551 -0.451092 -0.457072  0.657247 0.468734 1 1 1.000000
0  -44.581100 -32.097301 29.454641  -0.987633 0.054904 -0.146857  0.795923 0.494125 1 1 1.000000
skin_0
0  -43.975491 -32.193645 28.532461  -0.561537 0.023082 -0.827129  0.788110 0.434553 1 1 1.000000
0  -42.833092 -33.872837 28.394823  -0.325690 -0.266188 -0.907232  0.644551 0.425764 1 1 1.000000
0  -43.824093 -33.721432 29.069252  -0.766551 -0.451092 -0.457072  0.657247 0.468734 1 1 1.000000
skin_0
0  -43.824093 -33.721432 29.069252  -0.766551 -0.451092 -0.457072  0.657247 0.468734 1 1 1.000000
0  -44.388409 -32.124828 28.959141  -0.852182 0.041594 -0.521589  0.792993 0.461898 1 1 1.000000
0  -43.975491 -32.193645 28.532461  -0.561537 0.023082 -0.827129  0.788110 0.434553 1 1 1.000000
skin_0
0  -43.438705 -32.276226 28.353533  -0.199956 0.039772 -0.978997  0.780297 0.422834 1 1 1.000000
0  -42.833092 -33.872837 28.394823  -0.325690 -0.266188 -0.907232  0.644551 0.425764 1 1 1.000000
0  -43.975491 -32.193645 28.532461  -0.561537 0.023082 -0.827129  0.788110 0.434553 1 1 1.000000
skin_0
0  -36.625599 -33.418629 28.133307  0.128838 0.072062 -0.989044  0.682638 0.409162 1 1 1.000000
0  -36.873348 -34.877598 28.147070  0.210120 -0.132390 -0.968670  0.559587 0.410138 1 1 1.000000
0  -42.833092 -33.872837 28.394823  -0.325690 -0.266188 -0.907232  0.644551 0.425764 1 1 1.000000
skin_0
0  -42.833092 -33.872837 28.394823  -0.325690 -0.266188 -0.907232  0.644551 0.425764 1 1 1.000000
0  -43.438705 -32.276226 28.353533  -0.199956 0.039772 -0.978997  0.780297 0.422834 1 1 1.000000
0  -36.625599 -33.418629 28.133307  0.128838 0.072062 -0.989044  0.682638 0.409162 1 1 1.000000
skin_0
0  -36.625599 -33.418629 28.133307  0.128838 0.072062 -0.989044  0.682638 0.409162 1 1 1.000000
0  -35.992462 -33.528740 28.298473  0.519360 0.022531 -0.854259  0.673849 0.418928 1 1 1.000000
0  -36.873348 -34.877598 28.147070  0.210120 -0.132390 -0.968670  0.559587 0.410138 1 1 1.000000
skin_0
0  -35.992462 -33.528740 28.298473  0.519360 0.022531 -0.854259  0.673849 0.418928 1 1 1.000000
0  -35.648365 -33.583794 28.642570  0.852628 0.018135 -0.522203  0.668966 0.442366 1 1 1.000000
0  -35.841061 -35.056526 28.780207  0.699444 -0.197674 -0.686807  0.543962 0.451155 1 1 1.000000
skin_0
0  -35.841061 -35.056526 28.780207  0.699444 -0.197674 -0.686807  0.543962 0.451155 1 1 1.000000
0  -36.873348 -34.877598 28.147070  0.210120 -0.132390 -0.968670  0.559587 0.410138 1 1 1.000000
0  -35.992462 -33.528740 28.298473  0.519360 0.022531 -0.854259  0.673849 0.418928 1 1 1.000000
skin_0
0  -35.593307 -35.111584 29.220650  0.936073 -0.160299 -0.313163  0.540056 0.478500 1 1 1.000000
0  -35.841061 -35.056526 28.780207  0.699444 -0.197674 -0.686807  0.543962 0.451155 1 1 1.000000
0  -35.648365 -33.583794 28.642570  0.852628 0.018135 -0.522203  0.668966 0.442366 1 1 1.000000
skin_0
0  -35.648365 -33.583794 28.642570  0.852628 0.018135 -0.522203  0.668966 0.442366 1 1 1.000000
0  -35.455669 -33.625084 29.275707  0.979775 0.038271 -0.196406  0.666036 0.481429 1 1 1.000000
0  -35.593307 -35.111584 29.220650  0.936073 -0.160299 -0.313163  0.540056 0.478500 1 1 1.000000
skin_0
0  -39.378368 -38.222210 30.817261  -0.336755 -0.816233 0.469425  0.275399 0.581042 1 1 1.000000
0  -39.722462 -38.139626 30.583277  -0.492246 -0.834321 0.248199  0.281259 0.565416 1 1 1.000000
0  -38.401134 -38.841583 29.895084  -0.373752 -0.923712 0.084058  0.222663 0.521470 1 1 1.000000
skin_0
0  -39.378368 -38.222210 30.817261  -0.336755 -0.816233 0.469425  0.275399 0.581042 1 1 1.000000
0  -38.401134 -38.841583 29.895084  -0.373752 -0.923712 0.084058  0.222663 0.521470 1 1 1.000000
0  -37.850582 -38.951694 30.087772  -0.117684 -0.939818 0.320770  0.212897 0.534166 1 1 1.000000
skin_0
0  -37.850582 -38.951694 30.087772  -0.117684 -0.939818 0.320770  0.212897 0.534166 1 1 1.000000
0  -37.946926 -38.483727 31.106304  -0.036616 -0.780650 0.623895  0.252937 0.598621 1 1 1.000000
0  -39.378368 -38.222210 30.817261  -0.336755 -0.816233 0.469425  0.275399 0.581042 1 1 1.000000
skin_0
0  -36.818291 -38.635128 30.638329  0.449058 -0.762852 0.465192  0.239265 0.569323 1 1 1.000000
0  -37.946926 -38.483727 31.106304  -0.036616 -0.780650 0.623895  0.252937 0.598621 1 1 1.000000
0  -37.850582 -38.951694 30.087772  -0.117684 -0.939818 0.320770  0.212897 0.534166 1 1 1.000000
skin_0
0  -37.850582 -38.951694 30.087772  -0.117684 -0.939818 0.320770  0.212897 0.534166 1 1 1.000000
0  -37.258732 -39.020512 29.840027  0.263903 -0.959024 0.103095  0.207038 0.518540 1 1 1.000000
0  -36.818291 -38.635128 30.638329  0.449058 -0.762852 0.465192  0.239265 0.569323 1 1 1.000000
skin_0
0  -39.722462 -38.139626 30.583277  -0.492246 -0.834321 0.248199  0.281259 0.565416 1 1 1.000000
0  -39.983974 -38.043282 29.922611  -0.567057 -0.818640 -0.090971  0.290048 0.523423 1 1 1.000000
0  -38.401134 -38.841583 29.895084  -0.373752 -0.923712 0.084058  0.222663 0.521470 1 1 1.000000
skin_0
0  -36.556778 -38.621365 29.991426  0.742041 -0.670178 0.015378  0.240242 0.528306 1 1 1.000000
0  -36.818291 -38.635128 30.638329  0.449058 -0.762852 0.465192  0.239265 0.569323 1 1 1.000000
0  -37.258732 -39.020512 29.840027  0.263903 -0.959024 0.103095  0.207038 0.518540 1 1 1.000000
skin_0
0  -39.722462 -38.029514 29.316999  -0.497191 -0.720296 -0.483709  0.291025 0.484359 1 1 1.000000
0  -38.401134 -38.772766 29.385822  -0.384196 -0.845427 -0.371008  0.227546 0.489242 1 1 1.000000
0  -38.401134 -38.841583 29.895084  -0.373752 -0.923712 0.084058  0.222663 0.521470 1 1 1.000000
skin_0
0  -38.401134 -38.841583 29.895084  -0.373752 -0.923712 0.084058  0.222663 0.521470 1 1 1.000000
0  -39.983974 -38.043282 29.922611  -0.567057 -0.818640 -0.090971  0.290048 0.523423 1 1 1.000000
0  -39.722462 -38.029514 29.316999  -0.497191 -0.720296 -0.483709  0.291025 0.484359 1 1 1.000000
skin_0
0  -36.694416 -38.538780 29.261944  0.649698 -0.548145 -0.526716  0.248054 0.480453 1 1 1.000000
0  -36.556778 -38.621365 29.991426  0.742041 -0.670178 0.015378  0.240242 0.528306 1 1 1.000000
0  -37.258732 -39.020512 29.840027  0.263903 -0.959024 0.103095  0.207038 0.518540 1 1 1.000000
skin_0
0  -37.258732 -39.020512 29.840027  0.263903 -0.959024 0.103095  0.207038 0.518540 1 1 1.000000
0  -37.258732 -38.965458 29.372057  0.303512 -0.861830 -0.406361  0.210944 0.488266 1 1 1.000000
0  -36.694416 -38.538780 29.261944  0.649698 -0.548145 -0.526716  0.248054 0.480453 1 1 1.000000
skin_0
0  -39.722462 -38.029514 29.316999  -0.497191 -0.720296 -0.483709  0.291025 0.484359 1 1 1.000000
0  -38.882866 -38.112099 28.862795  -0.260153 -0.519015 -0.814213  0.283212 0.456038 1 1 1.000000
0  -38.401134 -38.772766 29.385822  -0.384196 -0.845427 -0.371008  0.227546 0.489242 1 1 1.000000
skin_0
0  -38.401134 -38.772766 29.385822  -0.384196 -0.845427 -0.371008  0.227546 0.489242 1 1 1.000000
0  -38.882866 -38.112099 28.862795  -0.260153 -0.519015 -0.814213  0.283212 0.456038 1 1 1.000000
0  -37.809288 -38.855347 29.193123  -0.112715 -0.760243 -0.639786  0.220710 0.476547 1 1 1.000000
skin_0
0  -38.882866 -38.112099 28.862795  -0.260153 -0.519015 -0.814213  0.283212 0.456038 1 1 1.000000
0  -37.382610 -38.359848 28.807739  0.185822 -0.422061 -0.887319  0.262703 0.452132 1 1 1.000000
0  -37.809288 -38.855347 29.193123  -0.112715 -0.760243 -0.639786  0.220710 0.476547 1 1 1.000000
skin_0
0  -37.809288 -38.855347 29.193123  -0.112715 -0.760243 -0.639786  0.220710 0.476547 1 1 1.000000
0  -37.382610 -38.359848 28.807739  0.185822 -0.422061 -0.887319  0.262703 0.452132 1 1 1.000000
0  -37.258732 -38.965458 29.372057  0.303512 -0.861830 -0.406361  0.210944 0.488266 1 1 1.000000
skin_0
0  -37.382610 -38.359848 28.807739  0.185822 -0.422061 -0.887319  0.262703 0.452132 1 1 1.000000
0  -36.694416 -38.538780 29.261944  0.649698 -0.548145 -0.526716  0.248054 0.480453 1 1 1.000000
0  -37.258732 -38.965458 29.372057  0.303512 -0.861830 -0.406361  0.210944 0.488266 1 1 1.000000
skin_0
0  -37.850582 -38.951694 30.087772  -0.117684 -0.939818 0.320770  0.212897 0.534166 1 1 1.000000
0  -38.401134 -38.841583 29.895084  -0.373752 -0.923712 0.084058  0.222663 0.521470 1 1 1.000000
0  -37.809288 -39.061806 29.619802  -0.146211 -0.982991 -0.111132  0.204108 0.503891 1 1 1.000000
skin_0
0  -37.258732 -39.020512 29.840027  0.263903 -0.959024 0.103095  0.207038 0.518540 1 1 1.000000
0  -37.850582 -38.951694 30.087772  -0.117684 -0.939818 0.320770  0.212897 0.534166 1 1 1.000000
0  -37.809288 -39.061806 29.619802  -0.146211 -0.982991 -0.111132  0.204108 0.503891 1 1 1.000000
skin_0
0  -38.401134 -38.841583 29.895084  -0.373752 -0.923712 0.084058  0.222663 0.521470 1 1 1.000000
0  -38.401134 -38.772766 29.385822  -0.384196 -0.845427 -0.371008  0.227546 0.489242 1 1 1.000000
0  -37.809288 -39.061806 29.619802  -0.146211 -0.982991 -0.111132  0.204108 0.503891 1 1 1.000000
skin_0
0  -37.258732 -38.965458 29.372057  0.303512 -0.861830 -0.406361  0.210944 0.488266 1 1 1.000000
0  -37.258732 -39.020512 29.840027  0.263903 -0.959024 0.103095  0.207038 0.518540 1 1 1.000000
0  -37.809288 -39.061806 29.619802  -0.146211 -0.982991 -0.111132  0.204108 0.503891 1 1 1.000000
skin_0
0  -38.401134 -38.772766 29.385822  -0.384196 -0.845427 -0.371008  0.227546 0.489242 1 1 1.000000
0  -37.809288 -38.855347 29.193123  -0.112715 -0.760243 -0.639786  0.220710 0.476547 1 1 1.000000
0  -37.809288 -39.061806 29.619802  -0.146211 -0.982991 -0.111132  0.204108 0.503891 1 1 1.000000
skin_0
0  -37.809288 -38.855347 29.193123  -0.112715 -0.760243 -0.639786  0.220710 0.476547 1 1 1.000000
0  -37.258732 -38.965458 29.372057  0.303512 -0.861830 -0.406361  0.210944 0.488266 1 1 1.000000
0  -37.809288 -39.061806 29.619802  -0.146211 -0.982991 -0.111132  0.204108 0.503891 1 1 1.000000
skin_0
0  -41.910915 -36.212688 31.615564  -0.586996 -0.687129 0.428124  0.445326 0.630848 1 1 1.000000
0  -41.002499 -36.377853 32.097301  -0.357064 -0.650828 0.670021  0.431654 0.662099 1 1 1.000000
0  -42.571583 -33.982944 33.074532  -0.464649 -0.480141 0.744020  0.634785 0.724601 1 1 1.000000
skin_0
0  -42.571583 -33.982944 33.074532  -0.464649 -0.480141 0.744020  0.634785 0.724601 1 1 1.000000
0  -43.507523 -33.831543 32.441395  -0.727462 -0.482114 0.488226  0.648457 0.684561 1 1 1.000000
0  -41.910915 -36.212688 31.615564  -0.586996 -0.687129 0.428124  0.445326 0.630848 1 1 1.000000
skin_0
0  -41.002499 -36.377853 32.097301  -0.357064 -0.650828 0.670021  0.431654 0.662099 1 1 1.000000
0  -39.282021 -36.666897 32.427631  -0.129167 -0.593810 0.794170  0.407239 0.683584 1 1 1.000000
0  -41.415417 -34.175640 33.528740  -0.245829 -0.402088 0.881983  0.618183 0.753899 1 1 1.000000
skin_0
0  -41.415417 -34.175640 33.528740  -0.245829 -0.402088 0.881983  0.618183 0.753899 1 1 1.000000
0  -42.571583 -33.982944 33.074532  -0.464649 -0.480141 0.744020  0.634785 0.724601 1 1 1.000000
0  -41.002499 -36.377853 32.097301  -0.357064 -0.650828 0.670021  0.431654 0.662099 1 1 1.000000
skin_0
0  -39.282021 -36.666897 32.427631  -0.129167 -0.593810 0.794170  0.407239 0.683584 1 1 1.000000
0  -37.368843 -36.969700 32.207409  0.134616 -0.565990 0.813347  0.381848 0.668935 1 1 1.000000
0  -36.873348 -34.946415 33.377338  0.172008 -0.432212 0.885215  0.553728 0.744133 1 1 1.000000
skin_0
0  -36.873348 -34.946415 33.377338  0.172008 -0.432212 0.885215  0.553728 0.744133 1 1 1.000000
0  -39.447186 -34.505970 33.666378  -0.055348 -0.366051 0.928947  0.587909 0.763665 1 1 1.000000
0  -39.282021 -36.666897 32.427631  -0.129167 -0.593810 0.794170  0.407239 0.683584 1 1 1.000000
skin_0
0  -35.854824 -35.111584 32.757965  0.670236 -0.373137 0.641523  0.540056 0.704093 1 1 1.000000
0  -36.198917 -37.176159 31.684381  0.639617 -0.530055 0.556715  0.364269 0.635731 1 1 1.000000
0  -35.607071 -35.152874 32.386341  0.896563 -0.277765 0.344995  0.536149 0.680654 1 1 1.000000
skin_0
0  -36.253971 -35.042763 33.102058  0.426388 -0.436057 0.792495  0.544939 0.725578 1 1 1.000000
0  -36.198917 -37.176159 31.684381  0.639617 -0.530055 0.556715  0.364269 0.635731 1 1 1.000000
0  -35.854824 -35.111584 32.757965  0.670236 -0.373137 0.641523  0.540056 0.704093 1 1 1.000000
skin_0
0  -42.447704 -36.075050 30.390581  -0.728509 -0.684423 -0.028992  0.457045 0.552721 1 1 1.000000
0  -41.910915 -36.212688 31.615564  -0.586996 -0.687129 0.428124  0.445326 0.630848 1 1 1.000000
0  -43.507523 -33.831543 32.441395  -0.727462 -0.482114 0.488226  0.648457 0.684561 1 1 1.000000
skin_0
0  -43.507523 -33.831543 32.441395  -0.727462 -0.482114 0.488226  0.648457 0.684561 1 1 1.000000
0  -44.085602 -33.707668 30.886082  -0.896475 -0.432304 0.097191  0.658223 0.584948 1 1 1.000000
0  -42.447704 -36.075050 30.390581  -0.728509 -0.684423 -0.028992  0.457045 0.552721 1 1 1.000000
skin_0
0  -36.198917 -37.176159 31.684381  0.639617 -0.530055 0.556715  0.364269 0.635731 1 1 1.000000
0  -35.841061 -37.189922 30.376816  0.932462 -0.360414 0.024849  0.363292 0.552721 1 1 1.000000
0  -35.373085 -35.166637 30.872313  0.985871 -0.165179 0.027831  0.534196 0.583972 1 1 1.000000
skin_0
0  -35.373085 -35.166637 30.872313  0.985871 -0.165179 0.027831  0.534196 0.583972 1 1 1.000000
0  -35.607071 -35.152874 32.386341  0.896563 -0.277765 0.344995  0.536149 0.680654 1 1 1.000000
0  -36.198917 -37.176159 31.684381  0.639617 -0.530055 0.556715  0.364269 0.635731 1 1 1.000000
skin_0
0  -43.824093 -33.721432 29.069252  -0.766551 -0.451092 -0.457072  0.657247 0.468734 1 1 1.000000
0  -41.828331 -36.102577 29.124308  -0.567144 -0.595079 -0.569411  0.454115 0.472640 1 1 1.000000
0  -42.447704 -36.075050 30.390581  -0.728509 -0.684423 -0.028992  0.457045 0.552721 1 1 1.000000
skin_0
0  -42.447704 -36.075050 30.390581  -0.728509 -0.684423 -0.028992  0.457045 0.552721 1 1 1.000000
0  -44.085602 -33.707668 30.886082  -0.896475 -0.432304 0.097191  0.658223 0.584948 1 1 1.000000
0  -43.824093 -33.721432 29.069252  -0.766551 -0.451092 -0.457072  0.657247 0.468734 1 1 1.000000
skin_0
0  -35.841061 -37.189922 30.376816  0.932462 -0.360414 0.024849  0.363292 0.552721 1 1 1.000000
0  -36.116333 -37.066048 29.096777  0.753360 -0.294710 -0.587873  0.373058 0.470687 1 1 1.000000
0  -35.593307 -35.111584 29.220650  0.936073 -0.160299 -0.313163  0.540056 0.478500 1 1 1.000000
skin_0
0  -35.593307 -35.111584 29.220650  0.936073 -0.160299 -0.313163  0.540056 0.478500 1 1 1.000000
0  -35.373085 -35.166637 30.872313  0.985871 -0.165179 0.027831  0.534196 0.583972 1 1 1.000000
0  -35.841061 -37.189922 30.376816  0.932462 -0.360414 0.024849  0.363292 0.552721 1 1 1.000000
skin_0
0  -42.833092 -33.872837 28.394823  -0.325690 -0.266188 -0.907232  0.644551 0.425764 1 1 1.000000
0  -40.355602 -36.322800 28.504934  -0.232062 -0.319690 -0.918665  0.436537 0.432600 1 1 1.000000
0  -41.828331 -36.102577 29.124308  -0.567144 -0.595079 -0.569411  0.454115 0.472640 1 1 1.000000
skin_0
0  -41.828331 -36.102577 29.124308  -0.567144 -0.595079 -0.569411  0.454115 0.472640 1 1 1.000000
0  -43.824093 -33.721432 29.069252  -0.766551 -0.451092 -0.457072  0.657247 0.468734 1 1 1.000000
0  -42.833092 -33.872837 28.394823  -0.325690 -0.266188 -0.907232  0.644551 0.425764 1 1 1.000000
skin_0
0  -36.873348 -34.877598 28.147070  0.210120 -0.132390 -0.968670  0.559587 0.410138 1 1 1.000000
0  -37.368843 -36.818298 28.408585  0.175247 -0.217186 -0.960270  0.394543 0.426740 1 1 1.000000
0  -40.355602 -36.322800 28.504934  -0.232062 -0.319690 -0.918665  0.436537 0.432600 1 1 1.000000
skin_0
0  -40.355602 -36.322800 28.504934  -0.232062 -0.319690 -0.918665  0.436537 0.432600 1 1 1.000000
0  -42.833092 -33.872837 28.394823  -0.325690 -0.266188 -0.907232  0.644551 0.425764 1 1 1.000000
0  -36.873348 -34.877598 28.147070  0.210120 -0.132390 -0.968670  0.559587 0.410138 1 1 1.000000
skin_0
0  -36.116333 -37.066048 29.096777  0.753360 -0.294710 -0.587873  0.373058 0.470687 1 1 1.000000
0  -37.368843 -36.818298 28.408585  0.175247 -0.217186 -0.960270  0.394543 0.426740 1 1 1.000000
0  -36.873348 -34.877598 28.147070  0.210120 -0.132390 -0.968670  0.559587 0.410138 1 1 1.000000
skin_0
0  -36.873348 -34.877598 28.147070  0.210120 -0.132390 -0.968670  0.559587 0.410138 1 1 1.000000
0  -35.841061 -35.056526 28.780207  0.699444 -0.197674 -0.686807  0.543962 0.451155 1 1 1.000000
0  -36.116333 -37.066048 29.096777  0.753360 -0.294710 -0.587873  0.373058 0.470687 1 1 1.000000
skin_0
0  -35.593307 -35.111584 29.220650  0.936073 -0.160299 -0.313163  0.540056 0.478500 1 1 1.000000
0  -36.116333 -37.066048 29.096777  0.753360 -0.294710 -0.587873  0.373058 0.470687 1 1 1.000000
0  -35.841061 -35.056526 28.780207  0.699444 -0.197674 -0.686807  0.543962 0.451155 1 1 1.000000
skin_0
0  -41.415417 -34.175640 33.528740  -0.245829 -0.402088 0.881983  0.618183 0.753899 1 1 1.000000
0  -39.282021 -36.666897 32.427631  -0.129167 -0.593810 0.794170  0.407239 0.683584 1 1 1.000000
0  -39.447186 -34.505970 33.666378  -0.055348 -0.366051 0.928947  0.587909 0.763665 1 1 1.000000
skin_0
0  -39.722462 -38.139626 30.583277  -0.492246 -0.834321 0.248199  0.281259 0.565416 1 1 1.000000
0  -39.378368 -38.222210 30.817261  -0.336755 -0.816233 0.469425  0.275399 0.581042 1 1 1.000000
0  -41.002499 -36.377853 32.097301  -0.357064 -0.650828 0.670021  0.431654 0.662099 1 1 1.000000
skin_0
0  -41.002499 -36.377853 32.097301  -0.357064 -0.650828 0.670021  0.431654 0.662099 1 1 1.000000
0  -41.910915 -36.212688 31.615564  -0.586996 -0.687129 0.428124  0.445326 0.630848 1 1 1.000000
0  -39.722462 -38.139626 30.583277  -0.492246 -0.834321 0.248199  0.281259 0.565416 1 1 1.000000
skin_0
0  -37.946926 -38.483727 31.106304  -0.036616 -0.780650 0.623895  0.252937 0.598621 1 1 1.000000
0  -39.282021 -36.666897 32.427631  -0.129167 -0.593810 0.794170  0.407239 0.683584 1 1 1.000000
0  -39.378368 -38.222210 30.817261  -0.336755 -0.816233 0.469425  0.275399 0.581042 1 1 1.000000
skin_0
0  -37.946926 -38.483727 31.106304  -0.036616 -0.780650 0.623895  0.252937 0.598621 1 1 1.000000
0  -37.368843 -36.969700 32.207409  0.134616 -0.565990 0.813347  0.381848 0.668935 1 1 1.000000
0  -39.282021 -36.666897 32.427631  -0.129167 -0.593810 0.794170  0.407239 0.683584 1 1 1.000000
skin_0
0  -39.983974 -38.043282 29.922611  -0.567057 -0.818640 -0.090971  0.290048 0.523423 1 1 1.000000
0  -39.722462 -38.139626 30.583277  -0.492246 -0.834321 0.248199  0.281259 0.565416 1 1 1.000000
0  -41.910915 -36.212688 31.615564  -0.586996 -0.687129 0.428124  0.445326 0.630848 1 1 1.000000
skin_0
0  -41.910915 -36.212688 31.615564  -0.586996 -0.687129 0.428124  0.445326 0.630848 1 1 1.000000
0  -42.447704 -36.075050 30.390581  -0.728509 -0.684423 -0.028992  0.457045 0.552721 1 1 1.000000
0  -39.983974 -38.043282 29.922611  -0.567057 -0.818640 -0.090971  0.290048 0.523423 1 1 1.000000
skin_0
0  -36.818291 -38.635128 30.638329  0.449058 -0.762852 0.465192  0.239265 0.569323 1 1 1.000000
0  -36.556778 -38.621365 29.991426  0.742041 -0.670178 0.015378  0.240242 0.528306 1 1 1.000000
0  -35.841061 -37.189922 30.376816  0.932462 -0.360414 0.024849  0.363292 0.552721 1 1 1.000000
skin_0
0  -35.841061 -37.189922 30.376816  0.932462 -0.360414 0.024849  0.363292 0.552721 1 1 1.000000
0  -36.198917 -37.176159 31.684381  0.639617 -0.530055 0.556715  0.364269 0.635731 1 1 1.000000
0  -36.818291 -38.635128 30.638329  0.449058 -0.762852 0.465192  0.239265 0.569323 1 1 1.000000
skin_0
0  -41.828331 -36.102577 29.124308  -0.567144 -0.595079 -0.569411  0.454115 0.472640 1 1 1.000000
0  -39.722462 -38.029514 29.316999  -0.497191 -0.720296 -0.483709  0.291025 0.484359 1 1 1.000000
0  -39.983974 -38.043282 29.922611  -0.567057 -0.818640 -0.090971  0.290048 0.523423 1 1 1.000000
skin_0
0  -39.983974 -38.043282 29.922611  -0.567057 -0.818640 -0.090971  0.290048 0.523423 1 1 1.000000
0  -42.447704 -36.075050 30.390581  -0.728509 -0.684423 -0.028992  0.457045 0.552721 1 1 1.000000
0  -41.828331 -36.102577 29.124308  -0.567144 -0.595079 -0.569411  0.454115 0.472640 1 1 1.000000
skin_0
0  -36.556778 -38.621365 29.991426  0.742041 -0.670178 0.015378  0.240242 0.528306 1 1 1.000000
0  -36.694416 -38.538780 29.261944  0.649698 -0.548145 -0.526716  0.248054 0.480453 1 1 1.000000
0  -36.116333 -37.066048 29.096777  0.753360 -0.294710 -0.587873  0.373058 0.470687 1 1 1.000000
skin_0
0  -36.116333 -37.066048 29.096777  0.753360 -0.294710 -0.587873  0.373058 0.470687 1 1 1.000000
0  -35.841061 -37.189922 30.376816  0.932462 -0.360414 0.024849  0.363292 0.552721 1 1 1.000000
0  -36.556778 -38.621365 29.991426  0.742041 -0.670178 0.015378  0.240242 0.528306 1 1 1.000000
skin_0
0  -40.355602 -36.322800 28.504934  -0.232062 -0.319690 -0.918665  0.436537 0.432600 1 1 1.000000
0  -38.882866 -38.112099 28.862795  -0.260153 -0.519015 -0.814213  0.283212 0.456038 1 1 1.000000
0  -39.722462 -38.029514 29.316999  -0.497191 -0.720296 -0.483709  0.291025 0.484359 1 1 1.000000
skin_0
0  -39.722462 -38.029514 29.316999  -0.497191 -0.720296 -0.483709  0.291025 0.484359 1 1 1.000000
0  -41.828331 -36.102577 29.124308  -0.567144 -0.595079 -0.569411  0.454115 0.472640 1 1 1.000000
0  -40.355602 -36.322800 28.504934  -0.232062 -0.319690 -0.918665  0.436537 0.432600 1 1 1.000000
skin_0
0  -38.882866 -38.112099 28.862795  -0.260153 -0.519015 -0.814213  0.283212 0.456038 1 1 1.000000
0  -40.355602 -36.322800 28.504934  -0.232062 -0.319690 -0.918665  0.436537 0.432600 1 1 1.000000
0  -37.368843 -36.818298 28.408585  0.175247 -0.217186 -0.960270  0.394543 0.426740 1 1 1.000000
skin_0
0  -37.368843 -36.818298 28.408585  0.175247 -0.217186 -0.960270  0.394543 0.426740 1 1 1.000000
0  -37.382610 -38.359848 28.807739  0.185822 -0.422061 -0.887319  0.262703 0.452132 1 1 1.000000
0  -38.882866 -38.112099 28.862795  -0.260153 -0.519015 -0.814213  0.283212 0.456038 1 1 1.000000
skin_0
0  -36.694416 -38.538780 29.261944  0.649698 -0.548145 -0.526716  0.248054 0.480453 1 1 1.000000
0  -37.382610 -38.359848 28.807739  0.185822 -0.422061 -0.887319  0.262703 0.452132 1 1 1.000000
0  -37.368843 -36.818298 28.408585  0.175247 -0.217186 -0.960270  0.394543 0.426740 1 1 1.000000
skin_0
0  -37.368843 -36.818298 28.408585  0.175247 -0.217186 -0.960270  0.394543 0.426740 1 1 1.000000
0  -36.116333 -37.066048 29.096777  0.753360 -0.294710 -0.587873  0.373058 0.470687 1 1 1.000000
0  -36.694416 -38.538780 29.261944  0.649698 -0.548145 -0.526716  0.248054 0.480453 1 1 1.000000
skin_0
0  -41.415417 -34.175640 33.528740  -0.245829 -0.402088 0.881983  0.618183 0.753899 1 1 1.000000
0  -39.447186 -34.505970 33.666378  -0.055348 -0.366051 0.928947  0.587909 0.763665 1 1 1.000000
0  -39.557297 -32.950657 33.996708  -0.025595 -0.037484 0.998969  0.723655 0.783197 1 1 1.000000
skin_0
0  -39.557297 -32.950657 33.996708  -0.025595 -0.037484 0.998969  0.723655 0.783197 1 1 1.000000
0  -42.585346 -32.441395 33.762726  -0.261323 -0.084702 0.961528  0.766625 0.768548 1 1 1.000000
0  -41.415417 -34.175640 33.528740  -0.245829 -0.402088 0.881983  0.618183 0.753899 1 1 1.000000
skin_0
0  -36.198917 -37.176159 31.684381  0.639617 -0.530055 0.556715  0.364269 0.635731 1 1 1.000000
0  -36.253971 -35.042763 33.102058  0.426388 -0.436057 0.792495  0.544939 0.725578 1 1 1.000000
0  -36.873348 -34.946415 33.377338  0.172008 -0.432212 0.885215  0.553728 0.744133 1 1 1.000000
skin_0
0  -36.873348 -34.946415 33.377338  0.172008 -0.432212 0.885215  0.553728 0.744133 1 1 1.000000
0  -37.368843 -36.969700 32.207409  0.134616 -0.565990 0.813347  0.381848 0.668935 1 1 1.000000
0  -36.198917 -37.176159 31.684381  0.639617 -0.530055 0.556715  0.364269 0.635731 1 1 1.000000
skin_0
0  -37.946926 -38.483727 31.106304  -0.036616 -0.780650 0.623895  0.252937 0.598621 1 1 1.000000
0  -36.818291 -38.635128 30.638329  0.449058 -0.762852 0.465192  0.239265 0.569323 1 1 1.000000
0  -36.198917 -37.176159 31.684381  0.639617 -0.530055 0.556715  0.364269 0.635731 1 1 1.000000
skin_0
0  -36.198917 -37.176159 31.684381  0.639617 -0.530055 0.556715  0.364269 0.635731 1 1 1.000000
0  -37.368843 -36.969700 32.207409  0.134616 -0.565990 0.813347  0.381848 0.668935 1 1 1.000000
0  -37.946926 -38.483727 31.106304  -0.036616 -0.780650 0.623895  0.252937 0.598621 1 1 1.000000
skin_0
0  -39.378368 -38.222210 30.817261  -0.336755 -0.816233 0.469425  0.275399 0.581042 1 1 1.000000
0  -39.282021 -36.666897 32.427631  -0.129167 -0.593810 0.794170  0.407239 0.683584 1 1 1.000000
0  -41.002499 -36.377853 32.097301  -0.357064 -0.650828 0.670021  0.431654 0.662099 1 1 1.000000
chrome
0  -43.122135 -31.808258 32.413868  0.164215 0.986424 -0.000594  0.727561 0.833003 1 1 1.000000
0  -42.695454 -31.877077 32.895603  0.165038 0.986287 -0.000005  0.808618 0.789056 1 1 1.000000
0  -42.131138 -31.973421 33.157112  0.164972 0.986298 0.000038  0.852565 0.731437 1 1 1.000000
chrome
0  -43.122135 -31.808258 32.413868  0.164215 0.986424 -0.000594  0.727561 0.833003 1 1 1.000000
0  -42.131138 -31.973421 33.157112  0.164972 0.986298 0.000038  0.852565 0.731437 1 1 1.000000
0  -39.626118 -32.386341 33.322285  0.165014 0.986291 -0.000030  0.880886 0.475570 1 1 1.000000
chrome
0  -43.122135 -31.808258 32.413868  0.164215 0.986424 -0.000594  0.727561 0.833003 1 1 1.000000
0  -39.626118 -32.386341 33.322285  0.165014 0.986291 -0.000030  0.880886 0.475570 1 1 1.000000
0  -37.176151 -32.799255 33.239700  0.165016 0.986291 0.000020  0.866237 0.226539 1 1 1.000000
chrome
0  -43.122135 -31.808258 32.413868  0.164215 0.986424 -0.000594  0.727561 0.833003 1 1 1.000000
0  -37.176151 -32.799255 33.239700  0.165016 0.986291 0.000020  0.866237 0.226539 1 1 1.000000
0  -36.556778 -32.895603 32.978188  0.164993 0.986295 0.000139  0.822291 0.163060 1 1 1.000000
chrome
0  -43.122135 -31.808258 32.413868  0.164215 0.986424 -0.000594  0.727561 0.833003 1 1 1.000000
0  -36.556778 -32.895603 32.978188  0.164993 0.986295 0.000139  0.822291 0.163060 1 1 1.000000
0  -36.226444 -32.950657 32.427631  0.165010 0.986292 -0.000007  0.730491 0.128880 1 1 1.000000
chrome
0  -36.226444 -32.950657 32.427631  0.165010 0.986292 -0.000007  0.730491 0.128880 1 1 1.000000
0  -36.130096 -32.978188 31.175119  0.164788 0.986328 -0.001083  0.519547 0.119114 1 1 1.000000
0  -43.452469 -31.753201 31.188885  0.164408 0.986392 0.000487  0.520524 0.866207 1 1 1.000000
chrome
0  -43.452469 -31.753201 31.188885  0.164408 0.986392 0.000487  0.520524 0.866207 1 1 1.000000
0  -43.122135 -31.808258 32.413868  0.164215 0.986424 -0.000594  0.727561 0.833003 1 1 1.000000
0  -36.226444 -32.950657 32.427631  0.165010 0.986292 -0.000007  0.730491 0.128880 1 1 1.000000
chrome
0  -43.603867 -31.725674 29.826265  0.165006 0.986293 -0.000024  0.292001 0.881832 1 1 1.000000
0  -43.452469 -31.753201 31.188885  0.164408 0.986392 0.000487  0.520524 0.866207 1 1 1.000000
0  -36.130096 -32.978188 31.175119  0.164788 0.986328 -0.001083  0.519547 0.119114 1 1 1.000000
chrome
0  -36.130096 -32.978188 31.175119  0.164788 0.986328 -0.001083  0.519547 0.119114 1 1 1.000000
0  -36.240208 -32.950657 29.661093  0.165086 0.986279 -0.000002  0.262703 0.129856 1 1 1.000000
0  -43.603867 -31.725674 29.826265  0.165006 0.986293 -0.000024  0.292001 0.881832 1 1 1.000000
chrome
0  -36.240208 -32.950657 29.661093  0.165086 0.986279 -0.000002  0.262703 0.129856 1 1 1.000000
0  -36.543015 -32.909367 29.055487  0.165001 0.986293 -0.000045  0.162114 0.160131 1 1 1.000000
0  -37.148621 -32.799255 28.793976  0.165035 0.986288 -0.000027  0.118168 0.222633 1 1 1.000000
chrome
0  -36.240208 -32.950657 29.661093  0.165086 0.986279 -0.000002  0.262703 0.129856 1 1 1.000000
0  -37.148621 -32.799255 28.793976  0.165035 0.986288 -0.000027  0.118168 0.222633 1 1 1.000000
0  -42.681690 -31.877077 28.986668  0.165006 0.986292 0.000005  0.149419 0.788080 1 1 1.000000
chrome
0  -36.240208 -32.950657 29.661093  0.165086 0.986279 -0.000002  0.262703 0.129856 1 1 1.000000
0  -42.681690 -31.877077 28.986668  0.165006 0.986292 0.000005  0.149419 0.788080 1 1 1.000000
0  -43.301064 -31.780731 29.275709  0.165011 0.986292 0.000000  0.198248 0.850581 1 1 1.000000
chrome
0  -36.240208 -32.950657 29.661093  0.165086 0.986279 -0.000002  0.262703 0.129856 1 1 1.000000
0  -43.301064 -31.780731 29.275709  0.165011 0.986292 0.000000  0.198248 0.850581 1 1 1.000000
0  -43.603867 -31.725674 29.826265  0.165006 0.986293 -0.000024  0.292001 0.881832 1 1 1.000000
paintblack
0  -42.956966 -32.069771 33.047005  0.595879 0.138677 -0.791010  0.207038 0.673818 1 1 1.000000
0  -43.411171 -31.987190 32.523975  0.889555 0.103650 -0.444915  0.164068 0.616199 1 1 1.000000
0  -43.466232 -31.106304 32.620323  0.133734 0.990928 0.013306  0.144536 0.617176 1 1 1.000000
paintblack
0  -43.466232 -31.106304 32.620323  0.133734 0.990928 0.013306  0.144536 0.617176 1 1 1.000000
0  -43.135899 -31.161358 33.033241  0.210575 0.977511 0.011467  0.176763 0.661122 1 1 1.000000
0  -42.956966 -32.069771 33.047005  0.595879 0.138677 -0.791010  0.207038 0.673818 1 1 1.000000
paintblack
0  -42.736744 -31.230177 33.294754  0.182405 0.982633 -0.034066  0.214850 0.691397 1 1 1.000000
0  -42.956966 -32.069771 33.047005  0.595879 0.138677 -0.791010  0.207038 0.673818 1 1 1.000000
0  -43.135899 -31.161358 33.033241  0.210575 0.977511 0.011467  0.176763 0.661122 1 1 1.000000
paintblack
0  -42.227486 -32.193645 33.363575  0.239790 0.167140 -0.956329  0.280282 0.708975 1 1 1.000000
0  -42.956966 -32.069771 33.047005  0.595879 0.138677 -0.791010  0.207038 0.673818 1 1 1.000000
0  -42.736744 -31.230177 33.294754  0.182405 0.982633 -0.034066  0.214850 0.691397 1 1 1.000000
paintblack
0  -42.736744 -31.230177 33.294754  0.182405 0.982633 -0.034066  0.214850 0.691397 1 1 1.000000
0  -42.227486 -31.312757 33.501209  0.205433 0.978609 0.011002  0.266610 0.713858 1 1 1.000000
0  -42.227486 -32.193645 33.363575  0.239790 0.167140 -0.956329  0.280282 0.708975 1 1 1.000000
paintblack
0  -37.066040 -33.047005 33.446156  -0.164009 0.247127 -0.955002  0.785180 0.717765 1 1 1.000000
0  -39.612354 -32.620323 33.528740  0.048243 0.200618 -0.978481  0.536149 0.727531 1 1 1.000000
0  -39.474716 -31.780731 33.707668  0.158034 0.985969 -0.053763  0.536149 0.737297 1 1 1.000000
paintblack
0  -39.474716 -31.780731 33.707668  0.158034 0.985969 -0.053763  0.536149 0.737297 1 1 1.000000
0  -36.777000 -32.234936 33.597557  0.087034 0.996009 0.019789  0.799829 0.725578 1 1 1.000000
0  -37.066040 -33.047005 33.446156  -0.164009 0.247127 -0.955002  0.785180 0.717765 1 1 1.000000
paintblack
0  -36.364082 -33.170876 33.129585  -0.566606 0.375844 -0.733279  0.854518 0.683584 1 1 1.000000
0  -37.066040 -33.047005 33.446156  -0.164009 0.247127 -0.955002  0.785180 0.717765 1 1 1.000000
0  -36.777000 -32.234936 33.597557  0.087034 0.996009 0.019789  0.799829 0.725578 1 1 1.000000
paintblack
0  -36.777000 -32.234936 33.597557  0.087034 0.996009 0.019789  0.799829 0.725578 1 1 1.000000
0  -36.253971 -32.317524 33.418629  0.170267 0.985359 0.008709  0.850612 0.705069 1 1 1.000000
0  -36.364082 -33.170876 33.129585  -0.566606 0.375844 -0.733279  0.854518 0.683584 1 1 1.000000
paintblack
0  -36.019989 -33.225937 32.551506  -0.876761 0.396974 -0.271481  0.888699 0.618152 1 1 1.000000
0  -36.364082 -33.170876 33.129585  -0.566606 0.375844 -0.733279  0.854518 0.683584 1 1 1.000000
0  -35.937405 -32.372578 33.157112  0.140876 0.989998 0.007667  0.881863 0.675771 1 1 1.000000
paintblack
0  -35.937405 -32.372578 33.157112  0.140876 0.989998 0.007667  0.881863 0.675771 1 1 1.000000
0  -35.703419 -32.413868 32.730434  0.177848 0.983519 -0.032555  0.905301 0.628895 1 1 1.000000
0  -36.019989 -33.225937 32.551506  -0.876761 0.396974 -0.271481  0.888699 0.618152 1 1 1.000000
paintblack
0  -35.937405 -32.372578 33.157112  0.140876 0.989998 0.007667  0.881863 0.675771 1 1 1.000000
0  -36.364082 -33.170876 33.129585  -0.566606 0.375844 -0.733279  0.854518 0.683584 1 1 1.000000
0  -36.253971 -32.317524 33.418629  0.170267 0.985359 0.008709  0.850612 0.705069 1 1 1.000000
paintblack
0  -43.411171 -31.987190 32.523975  0.889555 0.103650 -0.444915  0.164068 0.616199 1 1 1.000000
0  -43.741505 -31.932131 31.188885  0.982060 0.076043 -0.172554  0.130863 0.467757 1 1 1.000000
0  -43.810329 -31.051245 31.175121  0.223454 0.974679 -0.008266  0.110355 0.456038 1 1 1.000000
paintblack
0  -43.810329 -31.051245 31.175121  0.223454 0.974679 -0.008266  0.110355 0.456038 1 1 1.000000
0  -43.466232 -31.106304 32.620323  0.133734 0.990928 0.013306  0.144536 0.617176 1 1 1.000000
0  -43.411171 -31.987190 32.523975  0.889555 0.103650 -0.444915  0.164068 0.616199 1 1 1.000000
paintblack
0  -35.909878 -33.239700 31.175119  -0.924469 0.381166 -0.008378  0.898465 0.466781 1 1 1.000000
0  -36.019989 -33.225937 32.551506  -0.876761 0.396974 -0.271481  0.888699 0.618152 1 1 1.000000
0  -35.703419 -32.413868 32.730434  0.177848 0.983519 -0.032555  0.905301 0.628895 1 1 1.000000
paintblack
0  -35.703419 -32.413868 32.730434  0.177848 0.983519 -0.032555  0.905301 0.628895 1 1 1.000000
0  -35.579544 -32.427631 31.175119  0.089871 0.995944 -0.004293  0.917997 0.456038 1 1 1.000000
0  -35.909878 -33.239700 31.175119  -0.924469 0.381166 -0.008378  0.898465 0.466781 1 1 1.000000
paintblack
0  -43.741505 -31.932131 31.188885  0.982060 0.076043 -0.172554  0.130863 0.467757 1 1 1.000000
0  -43.892910 -31.904604 29.716154  0.978038 0.127895 0.164574  0.116214 0.303690 1 1 1.000000
0  -43.975491 -31.023718 29.647331  0.128922 0.990749 0.042379  0.094729 0.286111 1 1 1.000000
paintblack
0  -43.975491 -31.023718 29.647331  0.128922 0.990749 0.042379  0.094729 0.286111 1 1 1.000000
0  -43.810329 -31.051245 31.175121  0.223454 0.974679 -0.008266  0.110355 0.456038 1 1 1.000000
0  -43.741505 -31.932131 31.188885  0.982060 0.076043 -0.172554  0.130863 0.467757 1 1 1.000000
paintblack
0  -36.019989 -33.225937 29.537220  -0.893861 0.362251 0.264172  0.887722 0.285134 1 1 1.000000
0  -35.909878 -33.239700 31.175119  -0.924469 0.381166 -0.008378  0.898465 0.466781 1 1 1.000000
0  -35.579544 -32.427631 31.175119  0.089871 0.995944 -0.004293  0.917997 0.456038 1 1 1.000000
paintblack
0  -35.579544 -32.427631 31.175119  0.089871 0.995944 -0.004293  0.917997 0.456038 1 1 1.000000
0  -35.703419 -32.413868 29.495930  0.122626 0.989927 0.070761  0.905301 0.269509 1 1 1.000000
0  -36.019989 -33.225937 29.537220  -0.893861 0.362251 0.264172  0.887722 0.285134 1 1 1.000000
paintblack
0  -43.892910 -31.904604 29.716154  0.978038 0.127895 0.164574  0.116214 0.303690 1 1 1.000000
0  -43.562576 -31.959658 29.110542  0.674147 0.188462 0.714148  0.148442 0.238258 1 1 1.000000
0  -43.810329 -31.051245 29.206888  0.173115 0.984897 0.002873  0.111332 0.237281 1 1 1.000000
paintblack
0  -43.810329 -31.051245 29.206888  0.173115 0.984897 0.002873  0.111332 0.237281 1 1 1.000000
0  -43.975491 -31.023718 29.647331  0.128922 0.990749 0.042379  0.094729 0.286111 1 1 1.000000
0  -43.892910 -31.904604 29.716154  0.978038 0.127895 0.164574  0.116214 0.303690 1 1 1.000000
paintblack
0  -43.810329 -31.051245 29.206888  0.173115 0.984897 0.002873  0.111332 0.237281 1 1 1.000000
0  -43.562576 -31.959658 29.110542  0.674147 0.188462 0.714148  0.148442 0.238258 1 1 1.000000
0  -43.438705 -31.120068 28.821505  0.144628 0.989180 -0.024619  0.147465 0.194311 1 1 1.000000
paintblack
0  -43.562576 -31.959658 29.110542  0.674147 0.188462 0.714148  0.148442 0.238258 1 1 1.000000
0  -42.915676 -32.069771 28.807741  0.230635 0.167145 0.958577  0.212897 0.204077 1 1 1.000000
0  -42.970730 -31.188885 28.670099  0.257107 0.966372 0.004608  0.193365 0.177709 1 1 1.000000
paintblack
0  -42.970730 -31.188885 28.670099  0.257107 0.966372 0.004608  0.193365 0.177709 1 1 1.000000
0  -43.438705 -31.120068 28.821505  0.144628 0.989180 -0.024619  0.147465 0.194311 1 1 1.000000
0  -43.562576 -31.959658 29.110542  0.674147 0.188462 0.714148  0.148442 0.238258 1 1 1.000000
paintblack
0  -42.915676 -32.069771 28.807741  0.230635 0.167145 0.958577  0.212897 0.204077 1 1 1.000000
0  -36.997219 -33.060768 28.615044  -0.103900 0.213398 0.971425  0.792016 0.183569 1 1 1.000000
0  -36.777000 -32.234936 28.491169  0.120699 0.989595 0.078317  0.799829 0.158177 1 1 1.000000
paintblack
0  -36.777000 -32.234936 28.491169  0.120699 0.989595 0.078317  0.799829 0.158177 1 1 1.000000
0  -42.970730 -31.188885 28.670099  0.257107 0.966372 0.004608  0.193365 0.177709 1 1 1.000000
0  -42.915676 -32.069771 28.807741  0.230635 0.167145 0.958577  0.212897 0.204077 1 1 1.000000
paintblack
0  -36.997219 -33.060768 28.615044  -0.103900 0.213398 0.971425  0.792016 0.183569 1 1 1.000000
0  -36.350319 -33.170876 28.904085  -0.613144 0.380616 0.692233  0.856471 0.213843 1 1 1.000000
0  -36.198917 -32.331287 28.628807  0.128360 0.991526 -0.020010  0.856471 0.173803 1 1 1.000000
paintblack
0  -36.198917 -32.331287 28.628807  0.128360 0.991526 -0.020010  0.856471 0.173803 1 1 1.000000
0  -36.777000 -32.234936 28.491169  0.120699 0.989595 0.078317  0.799829 0.158177 1 1 1.000000
0  -36.997219 -33.060768 28.615044  -0.103900 0.213398 0.971425  0.792016 0.183569 1 1 1.000000
paintblack
0  -36.198917 -32.331287 28.628807  0.128360 0.991526 -0.020010  0.856471 0.173803 1 1 1.000000
0  -36.350319 -33.170876 28.904085  -0.613144 0.380616 0.692233  0.856471 0.213843 1 1 1.000000
0  -35.882351 -32.386341 28.945375  0.169846 0.985151 -0.025092  0.887722 0.207984 1 1 1.000000
paintblack
0  -36.350319 -33.170876 28.904085  -0.613144 0.380616 0.692233  0.856471 0.213843 1 1 1.000000
0  -36.019989 -33.225937 29.537220  -0.893861 0.362251 0.264172  0.887722 0.285134 1 1 1.000000
0  -35.703419 -32.413868 29.495930  0.122626 0.989927 0.070761  0.905301 0.269509 1 1 1.000000
paintblack
0  -35.703419 -32.413868 29.495930  0.122626 0.989927 0.070761  0.905301 0.269509 1 1 1.000000
0  -35.882351 -32.386341 28.945375  0.169846 0.985151 -0.025092  0.887722 0.207984 1 1 1.000000
0  -36.350319 -33.170876 28.904085  -0.613144 0.380616 0.692233  0.856471 0.213843 1 1 1.000000
paintblack
0  -43.135899 -31.161358 33.033241  0.210575 0.977511 0.011467  0.176763 0.661122 1 1 1.000000
0  -43.466232 -31.106304 32.620323  0.133734 0.990928 0.013306  0.144536 0.617176 1 1 1.000000
0  -43.769039 -31.574274 32.730434  -0.782321 0.461104 0.418757  0.122074 0.633778 1 1 1.000000
paintblack
0  -43.769039 -31.574274 32.730434  -0.782321 0.461104 0.418757  0.122074 0.633778 1 1 1.000000
0  -43.424934 -31.629328 33.157112  -0.592962 0.413553 0.690920  0.156255 0.682608 1 1 1.000000
0  -43.135899 -31.161358 33.033241  0.210575 0.977511 0.011467  0.176763 0.661122 1 1 1.000000
paintblack
0  -42.736744 -31.230177 33.294754  0.182405 0.982633 -0.034066  0.214850 0.691397 1 1 1.000000
0  -43.135899 -31.161358 33.033241  0.210575 0.977511 0.011467  0.176763 0.661122 1 1 1.000000
0  -43.424934 -31.629328 33.157112  -0.592962 0.413553 0.690920  0.156255 0.682608 1 1 1.000000
paintblack
0  -43.424934 -31.629328 33.157112  -0.592962 0.413553 0.690920  0.156255 0.682608 1 1 1.000000
0  -43.012024 -31.698147 33.459919  -0.397860 0.354865 0.846037  0.196295 0.714835 1 1 1.000000
0  -42.736744 -31.230177 33.294754  0.182405 0.982633 -0.034066  0.214850 0.691397 1 1 1.000000
paintblack
0  -42.227486 -31.312757 33.501209  0.205433 0.978609 0.011002  0.266610 0.713858 1 1 1.000000
0  -42.736744 -31.230177 33.294754  0.182405 0.982633 -0.034066  0.214850 0.691397 1 1 1.000000
0  -43.012024 -31.698147 33.459919  -0.397860 0.354865 0.846037  0.196295 0.714835 1 1 1.000000
paintblack
0  -43.012024 -31.698147 33.459919  -0.397860 0.354865 0.846037  0.196295 0.714835 1 1 1.000000
0  -42.420177 -31.794495 33.693905  -0.165350 0.281723 0.945141  0.255867 0.740226 1 1 1.000000
0  -42.227486 -31.312757 33.501209  0.205433 0.978609 0.011002  0.266610 0.713858 1 1 1.000000
paintblack
0  -36.777000 -32.234936 33.597557  0.087034 0.996009 0.019789  0.799829 0.725578 1 1 1.000000
0  -39.474716 -31.780731 33.707668  0.158034 0.985969 -0.053763  0.536149 0.737297 1 1 1.000000
0  -39.516006 -32.289989 33.914127  0.024670 0.250132 0.967897  0.540056 0.765618 1 1 1.000000
paintblack
0  -39.516006 -32.289989 33.914127  0.024670 0.250132 0.967897  0.540056 0.765618 1 1 1.000000
0  -36.680653 -32.757965 33.790253  0.221653 0.249715 0.942609  0.817408 0.751946 1 1 1.000000
0  -36.777000 -32.234936 33.597557  0.087034 0.996009 0.019789  0.799829 0.725578 1 1 1.000000
paintblack
0  -36.253971 -32.317524 33.418629  0.170267 0.985359 0.008709  0.850612 0.705069 1 1 1.000000
0  -36.777000 -32.234936 33.597557  0.087034 0.996009 0.019789  0.799829 0.725578 1 1 1.000000
0  -36.680653 -32.757965 33.790253  0.221653 0.249715 0.942609  0.817408 0.751946 1 1 1.000000
paintblack
0  -36.680653 -32.757965 33.790253  0.221653 0.249715 0.942609  0.817408 0.751946 1 1 1.000000
0  -36.130096 -32.854309 33.597557  0.513393 0.259374 0.818017  0.872097 0.730461 1 1 1.000000
0  -36.253971 -32.317524 33.418629  0.170267 0.985359 0.008709  0.850612 0.705069 1 1 1.000000
paintblack
0  -35.703419 -32.413868 32.730434  0.177848 0.983519 -0.032555  0.905301 0.628895 1 1 1.000000
0  -35.937405 -32.372578 33.157112  0.140876 0.989998 0.007667  0.881863 0.675771 1 1 1.000000
0  -35.799767 -32.909367 33.308521  0.769020 0.254715 0.586283  0.904324 0.698233 1 1 1.000000
paintblack
0  -35.799767 -32.909367 33.308521  0.769020 0.254715 0.586283  0.904324 0.698233 1 1 1.000000
0  -35.552017 -32.950657 32.840546  0.933978 0.233807 0.270222  0.928739 0.647450 1 1 1.000000
0  -35.703419 -32.413868 32.730434  0.177848 0.983519 -0.032555  0.905301 0.628895 1 1 1.000000
paintblack
0  -35.937405 -32.372578 33.157112  0.140876 0.989998 0.007667  0.881863 0.675771 1 1 1.000000
0  -36.253971 -32.317524 33.418629  0.170267 0.985359 0.008709  0.850612 0.705069 1 1 1.000000
0  -36.130096 -32.854309 33.597557  0.513393 0.259374 0.818017  0.872097 0.730461 1 1 1.000000
paintblack
0  -36.130096 -32.854309 33.597557  0.513393 0.259374 0.818017  0.872097 0.730461 1 1 1.000000
0  -35.799767 -32.909367 33.308521  0.769020 0.254715 0.586283  0.904324 0.698233 1 1 1.000000
0  -35.937405 -32.372578 33.157112  0.140876 0.989998 0.007667  0.881863 0.675771 1 1 1.000000
paintblack
0  -43.466232 -31.106304 32.620323  0.133734 0.990928 0.013306  0.144536 0.617176 1 1 1.000000
0  -43.810329 -31.051245 31.175121  0.223454 0.974679 -0.008266  0.110355 0.456038 1 1 1.000000
0  -44.140659 -31.505453 31.175121  -0.861297 0.483115 0.157377  0.085940 0.460921 1 1 1.000000
paintblack
0  -44.140659 -31.505453 31.175121  -0.861297 0.483115 0.157377  0.085940 0.460921 1 1 1.000000
0  -43.769039 -31.574274 32.730434  -0.782321 0.461104 0.418757  0.122074 0.633778 1 1 1.000000
0  -43.466232 -31.106304 32.620323  0.133734 0.990928 0.013306  0.144536 0.617176 1 1 1.000000
paintblack
0  -35.579544 -32.427631 31.175119  0.089871 0.995944 -0.004293  0.917997 0.456038 1 1 1.000000
0  -35.703419 -32.413868 32.730434  0.177848 0.983519 -0.032555  0.905301 0.628895 1 1 1.000000
0  -35.552017 -32.950657 32.840546  0.933978 0.233807 0.270222  0.928739 0.647450 1 1 1.000000
paintblack
0  -35.552017 -32.950657 32.840546  0.933978 0.233807 0.270222  0.928739 0.647450 1 1 1.000000
0  -35.400616 -32.978188 31.161356  0.974741 0.223306 0.003737  0.943388 0.461898 1 1 1.000000
0  -35.579544 -32.427631 31.175119  0.089871 0.995944 -0.004293  0.917997 0.456038 1 1 1.000000
paintblack
0  -43.810329 -31.051245 31.175121  0.223454 0.974679 -0.008266  0.110355 0.456038 1 1 1.000000
0  -43.975491 -31.023718 29.647331  0.128922 0.990749 0.042379  0.094729 0.286111 1 1 1.000000
0  -44.292057 -31.477926 29.523458  -0.852489 0.508131 -0.122738  0.070315 0.278298 1 1 1.000000
paintblack
0  -44.292057 -31.477926 29.523458  -0.852489 0.508131 -0.122738  0.070315 0.278298 1 1 1.000000
0  -44.140659 -31.505453 31.175121  -0.861297 0.483115 0.157377  0.085940 0.460921 1 1 1.000000
0  -43.810329 -31.051245 31.175121  0.223454 0.974679 -0.008266  0.110355 0.456038 1 1 1.000000
paintblack
0  -35.703419 -32.413868 29.495930  0.122626 0.989927 0.070761  0.905301 0.269509 1 1 1.000000
0  -35.579544 -32.427631 31.175119  0.089871 0.995944 -0.004293  0.917997 0.456038 1 1 1.000000
0  -35.400616 -32.978188 31.161356  0.974741 0.223306 0.003737  0.943388 0.461898 1 1 1.000000
paintblack
0  -35.400616 -32.978188 31.161356  0.974741 0.223306 0.003737  0.943388 0.461898 1 1 1.000000
0  -35.552017 -32.950657 29.344530  0.953785 0.240263 -0.180463  0.928739 0.259743 1 1 1.000000
0  -35.703419 -32.413868 29.495930  0.122626 0.989927 0.070761  0.905301 0.269509 1 1 1.000000
paintblack
0  -43.975491 -31.023718 29.647331  0.128922 0.990749 0.042379  0.094729 0.286111 1 1 1.000000
0  -43.810329 -31.051245 29.206888  0.173115 0.984897 0.002873  0.111332 0.237281 1 1 1.000000
0  -44.126896 -31.505453 29.027962  -0.710603 0.501230 -0.493774  0.087893 0.224586 1 1 1.000000
paintblack
0  -44.126896 -31.505453 29.027962  -0.710603 0.501230 -0.493774  0.087893 0.224586 1 1 1.000000
0  -44.292057 -31.477926 29.523458  -0.852489 0.508131 -0.122738  0.070315 0.278298 1 1 1.000000
0  -43.975491 -31.023718 29.647331  0.128922 0.990749 0.042379  0.094729 0.286111 1 1 1.000000
paintblack
0  -43.810329 -31.051245 29.206888  0.173115 0.984897 0.002873  0.111332 0.237281 1 1 1.000000
0  -43.438705 -31.120068 28.821505  0.144628 0.989180 -0.024619  0.147465 0.194311 1 1 1.000000
0  -43.727741 -31.574274 28.615046  -0.434953 0.431162 -0.790516  0.125980 0.178686 1 1 1.000000
paintblack
0  -43.727741 -31.574274 28.615046  -0.434953 0.431162 -0.790516  0.125980 0.178686 1 1 1.000000
0  -44.126896 -31.505453 29.027962  -0.710603 0.501230 -0.493774  0.087893 0.224586 1 1 1.000000
0  -43.810329 -31.051245 29.206888  0.173115 0.984897 0.002873  0.111332 0.237281 1 1 1.000000
paintblack
0  -43.438705 -31.120068 28.821505  0.144628 0.989180 -0.024619  0.147465 0.194311 1 1 1.000000
0  -42.970730 -31.188885 28.670099  0.257107 0.966372 0.004608  0.193365 0.177709 1 1 1.000000
0  -43.232246 -31.656857 28.449877  -0.116228 0.330563 -0.936600  0.175787 0.159154 1 1 1.000000
paintblack
0  -43.232246 -31.656857 28.449877  -0.116228 0.330563 -0.936600  0.175787 0.159154 1 1 1.000000
0  -43.727741 -31.574274 28.615046  -0.434953 0.431162 -0.790516  0.125980 0.178686 1 1 1.000000
0  -43.438705 -31.120068 28.821505  0.144628 0.989180 -0.024619  0.147465 0.194311 1 1 1.000000
paintblack
0  -42.970730 -31.188885 28.670099  0.257107 0.966372 0.004608  0.193365 0.177709 1 1 1.000000
0  -36.777000 -32.234936 28.491169  0.120699 0.989595 0.078317  0.799829 0.158177 1 1 1.000000
0  -36.680653 -32.757965 28.243420  0.152112 0.308251 -0.939065  0.817408 0.136692 1 1 1.000000
paintblack
0  -36.680653 -32.757965 28.243420  0.152112 0.308251 -0.939065  0.817408 0.136692 1 1 1.000000
0  -43.232246 -31.656857 28.449877  -0.116228 0.330563 -0.936600  0.175787 0.159154 1 1 1.000000
0  -42.970730 -31.188885 28.670099  0.257107 0.966372 0.004608  0.193365 0.177709 1 1 1.000000
paintblack
0  -36.777000 -32.234936 28.491169  0.120699 0.989595 0.078317  0.799829 0.158177 1 1 1.000000
0  -36.198917 -32.331287 28.628807  0.128360 0.991526 -0.020010  0.856471 0.173803 1 1 1.000000
0  -36.075043 -32.854309 28.394821  0.504240 0.312692 -0.804963  0.877957 0.154271 1 1 1.000000
paintblack
0  -36.075043 -32.854309 28.394821  0.504240 0.312692 -0.804963  0.877957 0.154271 1 1 1.000000
0  -36.680653 -32.757965 28.243420  0.152112 0.308251 -0.939065  0.817408 0.136692 1 1 1.000000
0  -36.777000 -32.234936 28.491169  0.120699 0.989595 0.078317  0.799829 0.158177 1 1 1.000000
paintblack
0  -36.198917 -32.331287 28.628807  0.128360 0.991526 -0.020010  0.856471 0.173803 1 1 1.000000
0  -35.882351 -32.386341 28.945375  0.169846 0.985151 -0.025092  0.887722 0.207984 1 1 1.000000
0  -35.730949 -32.909367 28.738916  0.832121 0.282004 -0.477544  0.910184 0.192358 1 1 1.000000
paintblack
0  -35.730949 -32.909367 28.738916  0.832121 0.282004 -0.477544  0.910184 0.192358 1 1 1.000000
0  -36.075043 -32.854309 28.394821  0.504240 0.312692 -0.804963  0.877957 0.154271 1 1 1.000000
0  -36.198917 -32.331287 28.628807  0.128360 0.991526 -0.020010  0.856471 0.173803 1 1 1.000000
paintblack
0  -35.882351 -32.386341 28.945375  0.169846 0.985151 -0.025092  0.887722 0.207984 1 1 1.000000
0  -35.703419 -32.413868 29.495930  0.122626 0.989927 0.070761  0.905301 0.269509 1 1 1.000000
0  -35.552017 -32.950657 29.344530  0.953785 0.240263 -0.180463  0.928739 0.259743 1 1 1.000000
paintblack
0  -35.552017 -32.950657 29.344530  0.953785 0.240263 -0.180463  0.928739 0.259743 1 1 1.000000
0  -35.730949 -32.909367 28.738916  0.832121 0.282004 -0.477544  0.910184 0.192358 1 1 1.000000
0  -35.882351 -32.386341 28.945375  0.169846 0.985151 -0.025092  0.887722 0.207984 1 1 1.000000
paintblack
0  -43.424934 -31.629328 33.157112  -0.592962 0.413553 0.690920  0.156255 0.682608 1 1 1.000000
0  -43.769039 -31.574274 32.730434  -0.782321 0.461104 0.418757  0.122074 0.633778 1 1 1.000000
0  -44.016785 -32.193645 32.757965  -0.895305 0.022479 0.444885  0.108402 0.645497 1 1 1.000000
paintblack
0  -44.016785 -32.193645 32.757965  -0.895305 0.022479 0.444885  0.108402 0.645497 1 1 1.000000
0  -43.658924 -32.262463 33.212173  -0.691905 -0.042843 0.720717  0.143559 0.696280 1 1 1.000000
0  -43.424934 -31.629328 33.157112  -0.592962 0.413553 0.690920  0.156255 0.682608 1 1 1.000000
paintblack
0  -43.012024 -31.698147 33.459919  -0.397860 0.354865 0.846037  0.196295 0.714835 1 1 1.000000
0  -43.424934 -31.629328 33.157112  -0.592962 0.413553 0.690920  0.156255 0.682608 1 1 1.000000
0  -43.658924 -32.262463 33.212173  -0.691905 -0.042843 0.720717  0.143559 0.696280 1 1 1.000000
paintblack
0  -43.658924 -32.262463 33.212173  -0.691905 -0.042843 0.720717  0.143559 0.696280 1 1 1.000000
0  -43.218483 -32.331287 33.528740  -0.490514 -0.085333 0.867245  0.186529 0.730461 1 1 1.000000
0  -43.012024 -31.698147 33.459919  -0.397860 0.354865 0.846037  0.196295 0.714835 1 1 1.000000
paintblack
0  -42.420177 -31.794495 33.693905  -0.165350 0.281723 0.945141  0.255867 0.740226 1 1 1.000000
0  -43.012024 -31.698147 33.459919  -0.397860 0.354865 0.846037  0.196295 0.714835 1 1 1.000000
0  -43.218483 -32.331287 33.528740  -0.490514 -0.085333 0.867245  0.186529 0.730461 1 1 1.000000
paintblack
0  -43.218483 -32.331287 33.528740  -0.490514 -0.085333 0.867245  0.186529 0.730461 1 1 1.000000
0  -42.585346 -32.441395 33.762726  -0.261323 -0.084702 0.961528  0.249031 0.756829 1 1 1.000000
0  -42.420177 -31.794495 33.693905  -0.165350 0.281723 0.945141  0.255867 0.740226 1 1 1.000000
paintblack
0  -36.680653 -32.757965 33.790253  0.221653 0.249715 0.942609  0.817408 0.751946 1 1 1.000000
0  -39.516006 -32.289989 33.914127  0.024670 0.250132 0.967897  0.540056 0.765618 1 1 1.000000
0  -39.557297 -32.950657 33.996708  -0.025595 -0.037484 0.998969  0.545915 0.783197 1 1 1.000000
paintblack
0  -39.557297 -32.950657 33.996708  -0.025595 -0.037484 0.998969  0.545915 0.783197 1 1 1.000000
0  -36.625599 -33.432392 33.872837  0.194908 -0.089262 0.976751  0.834010 0.769524 1 1 1.000000
0  -36.680653 -32.757965 33.790253  0.221653 0.249715 0.942609  0.817408 0.751946 1 1 1.000000
paintblack
0  -36.130096 -32.854309 33.597557  0.513393 0.259374 0.818017  0.872097 0.730461 1 1 1.000000
0  -36.680653 -32.757965 33.790253  0.221653 0.249715 0.942609  0.817408 0.751946 1 1 1.000000
0  -36.625599 -33.432392 33.872837  0.194908 -0.089262 0.976751  0.834010 0.769524 1 1 1.000000
paintblack
0  -36.625599 -33.432392 33.872837  0.194908 -0.089262 0.976751  0.834010 0.769524 1 1 1.000000
0  -36.047516 -33.528740 33.666378  0.494585 -0.106990 0.862519  0.889676 0.747063 1 1 1.000000
0  -36.130096 -32.854309 33.597557  0.513393 0.259374 0.818017  0.872097 0.730461 1 1 1.000000
paintblack
0  -35.552017 -32.950657 32.840546  0.933978 0.233807 0.270222  0.928739 0.647450 1 1 1.000000
0  -35.799767 -32.909367 33.308521  0.769020 0.254715 0.586283  0.904324 0.698233 1 1 1.000000
0  -35.703419 -33.583794 33.363575  0.767597 -0.091203 0.634410  0.923856 0.713858 1 1 1.000000
paintblack
0  -35.703419 -33.583794 33.363575  0.767597 -0.091203 0.634410  0.923856 0.713858 1 1 1.000000
0  -35.455669 -33.638851 32.881840  0.951531 -0.038699 0.305109  0.948271 0.660146 1 1 1.000000
0  -35.552017 -32.950657 32.840546  0.933978 0.233807 0.270222  0.928739 0.647450 1 1 1.000000
paintblack
0  -35.799767 -32.909367 33.308521  0.769020 0.254715 0.586283  0.904324 0.698233 1 1 1.000000
0  -36.130096 -32.854309 33.597557  0.513393 0.259374 0.818017  0.872097 0.730461 1 1 1.000000
0  -36.047516 -33.528740 33.666378  0.494585 -0.106990 0.862519  0.889676 0.747063 1 1 1.000000
paintblack
0  -36.047516 -33.528740 33.666378  0.494585 -0.106990 0.862519  0.889676 0.747063 1 1 1.000000
0  -35.703419 -33.583794 33.363575  0.767597 -0.091203 0.634410  0.923856 0.713858 1 1 1.000000
0  -35.799767 -32.909367 33.308521  0.769020 0.254715 0.586283  0.904324 0.698233 1 1 1.000000
paintblack
0  -43.769039 -31.574274 32.730434  -0.782321 0.461104 0.418757  0.122074 0.633778 1 1 1.000000
0  -44.140659 -31.505453 31.175121  -0.861297 0.483115 0.157377  0.085940 0.460921 1 1 1.000000
0  -44.415936 -32.124828 31.161358  -0.981594 0.088019 0.169486  0.070315 0.467757 1 1 1.000000
paintblack
0  -44.415936 -32.124828 31.161358  -0.981594 0.088019 0.169486  0.070315 0.467757 1 1 1.000000
0  -44.016785 -32.193645 32.757965  -0.895305 0.022479 0.444885  0.108402 0.645497 1 1 1.000000
0  -43.769039 -31.574274 32.730434  -0.782321 0.461104 0.418757  0.122074 0.633778 1 1 1.000000
paintblack
0  -35.400616 -32.978188 31.161356  0.974741 0.223306 0.003737  0.943388 0.461898 1 1 1.000000
0  -35.552017 -32.950657 32.840546  0.933978 0.233807 0.270222  0.928739 0.647450 1 1 1.000000
0  -35.455669 -33.638851 32.881840  0.951531 -0.038699 0.305109  0.948271 0.660146 1 1 1.000000
paintblack
0  -35.455669 -33.638851 32.881840  0.951531 -0.038699 0.305109  0.948271 0.660146 1 1 1.000000
0  -35.304268 -33.652615 31.161356  0.999251 0.034441 0.017640  0.963897 0.467757 1 1 1.000000
0  -35.400616 -32.978188 31.161356  0.974741 0.223306 0.003737  0.943388 0.461898 1 1 1.000000
paintblack
0  -44.140659 -31.505453 31.175121  -0.861297 0.483115 0.157377  0.085940 0.460921 1 1 1.000000
0  -44.292057 -31.477926 29.523458  -0.852489 0.508131 -0.122738  0.070315 0.278298 1 1 1.000000
0  -44.581100 -32.097301 29.454641  -0.987633 0.054904 -0.146857  0.053713 0.279275 1 1 1.000000
paintblack
0  -44.581100 -32.097301 29.454641  -0.987633 0.054904 -0.146857  0.053713 0.279275 1 1 1.000000
0  -44.415936 -32.124828 31.161358  -0.981594 0.088019 0.169486  0.070315 0.467757 1 1 1.000000
0  -44.140659 -31.505453 31.175121  -0.861297 0.483115 0.157377  0.085940 0.460921 1 1 1.000000
paintblack
0  -35.552017 -32.950657 29.344530  0.953785 0.240263 -0.180463  0.928739 0.259743 1 1 1.000000
0  -35.400616 -32.978188 31.161356  0.974741 0.223306 0.003737  0.943388 0.461898 1 1 1.000000
0  -35.304268 -33.652615 31.161356  0.999251 0.034441 0.017640  0.963897 0.467757 1 1 1.000000
paintblack
0  -35.304268 -33.652615 31.161356  0.999251 0.034441 0.017640  0.963897 0.467757 1 1 1.000000
0  -35.455669 -33.625084 29.275707  0.979775 0.038271 -0.196406  0.948271 0.259743 1 1 1.000000
0  -35.552017 -32.950657 29.344530  0.953785 0.240263 -0.180463  0.928739 0.259743 1 1 1.000000
paintblack
0  -44.292057 -31.477926 29.523458  -0.852489 0.508131 -0.122738  0.070315 0.278298 1 1 1.000000
0  -44.126896 -31.505453 29.027962  -0.710603 0.501230 -0.493774  0.087893 0.224586 1 1 1.000000
0  -44.388409 -32.124828 28.959141  -0.852182 0.041594 -0.521589  0.072268 0.224586 1 1 1.000000
paintblack
0  -44.388409 -32.124828 28.959141  -0.852182 0.041594 -0.521589  0.072268 0.224586 1 1 1.000000
0  -44.581100 -32.097301 29.454641  -0.987633 0.054904 -0.146857  0.053713 0.279275 1 1 1.000000
0  -44.292057 -31.477926 29.523458  -0.852489 0.508131 -0.122738  0.070315 0.278298 1 1 1.000000
paintblack
0  -44.126896 -31.505453 29.027962  -0.710603 0.501230 -0.493774  0.087893 0.224586 1 1 1.000000
0  -43.727741 -31.574274 28.615046  -0.434953 0.431162 -0.790516  0.125980 0.178686 1 1 1.000000
0  -43.975491 -32.193645 28.532461  -0.561537 0.023082 -0.827129  0.112308 0.176733 1 1 1.000000
paintblack
0  -43.975491 -32.193645 28.532461  -0.561537 0.023082 -0.827129  0.112308 0.176733 1 1 1.000000
0  -44.388409 -32.124828 28.959141  -0.852182 0.041594 -0.521589  0.072268 0.224586 1 1 1.000000
0  -44.126896 -31.505453 29.027962  -0.710603 0.501230 -0.493774  0.087893 0.224586 1 1 1.000000
paintblack
0  -43.727741 -31.574274 28.615046  -0.434953 0.431162 -0.790516  0.125980 0.178686 1 1 1.000000
0  -43.232246 -31.656857 28.449877  -0.116228 0.330563 -0.936600  0.175787 0.159154 1 1 1.000000
0  -43.438705 -32.276226 28.353533  -0.199956 0.039772 -0.978997  0.165044 0.156224 1 1 1.000000
paintblack
0  -43.438705 -32.276226 28.353533  -0.199956 0.039772 -0.978997  0.165044 0.156224 1 1 1.000000
0  -43.975491 -32.193645 28.532461  -0.561537 0.023082 -0.827129  0.112308 0.176733 1 1 1.000000
0  -43.727741 -31.574274 28.615046  -0.434953 0.431162 -0.790516  0.125980 0.178686 1 1 1.000000
paintblack
0  -43.232246 -31.656857 28.449877  -0.116228 0.330563 -0.936600  0.175787 0.159154 1 1 1.000000
0  -36.680653 -32.757965 28.243420  0.152112 0.308251 -0.939065  0.817408 0.136692 1 1 1.000000
0  -36.625599 -33.418629 28.133307  0.128838 0.072062 -0.989044  0.834010 0.132786 1 1 1.000000
paintblack
0  -36.625599 -33.418629 28.133307  0.128838 0.072062 -0.989044  0.834010 0.132786 1 1 1.000000
0  -43.438705 -32.276226 28.353533  -0.199956 0.039772 -0.978997  0.165044 0.156224 1 1 1.000000
0  -43.232246 -31.656857 28.449877  -0.116228 0.330563 -0.936600  0.175787 0.159154 1 1 1.000000
paintblack
0  -36.680653 -32.757965 28.243420  0.152112 0.308251 -0.939065  0.817408 0.136692 1 1 1.000000
0  -36.075043 -32.854309 28.394821  0.504240 0.312692 -0.804963  0.877957 0.154271 1 1 1.000000
0  -35.992462 -33.528740 28.298473  0.519360 0.022531 -0.854259  0.895535 0.150365 1 1 1.000000
paintblack
0  -35.992462 -33.528740 28.298473  0.519360 0.022531 -0.854259  0.895535 0.150365 1 1 1.000000
0  -36.625599 -33.418629 28.133307  0.128838 0.072062 -0.989044  0.834010 0.132786 1 1 1.000000
0  -36.680653 -32.757965 28.243420  0.152112 0.308251 -0.939065  0.817408 0.136692 1 1 1.000000
paintblack
0  -36.075043 -32.854309 28.394821  0.504240 0.312692 -0.804963  0.877957 0.154271 1 1 1.000000
0  -35.730949 -32.909367 28.738916  0.832121 0.282004 -0.477544  0.910184 0.192358 1 1 1.000000
0  -35.648365 -33.583794 28.642570  0.852628 0.018135 -0.522203  0.929716 0.190405 1 1 1.000000
paintblack
0  -35.648365 -33.583794 28.642570  0.852628 0.018135 -0.522203  0.929716 0.190405 1 1 1.000000
0  -35.992462 -33.528740 28.298473  0.519360 0.022531 -0.854259  0.895535 0.150365 1 1 1.000000
0  -36.075043 -32.854309 28.394821  0.504240 0.312692 -0.804963  0.877957 0.154271 1 1 1.000000
paintblack
0  -35.730949 -32.909367 28.738916  0.832121 0.282004 -0.477544  0.910184 0.192358 1 1 1.000000
0  -35.552017 -32.950657 29.344530  0.953785 0.240263 -0.180463  0.928739 0.259743 1 1 1.000000
0  -35.455669 -33.625084 29.275707  0.979775 0.038271 -0.196406  0.948271 0.259743 1 1 1.000000
paintblack
0  -35.455669 -33.625084 29.275707  0.979775 0.038271 -0.196406  0.948271 0.259743 1 1 1.000000
0  -35.648365 -33.583794 28.642570  0.852628 0.018135 -0.522203  0.929716 0.190405 1 1 1.000000
0  -35.730949 -32.909367 28.738916  0.832121 0.282004 -0.477544  0.910184 0.192358 1 1 1.000000
paintblack
0  -42.227486 -32.193645 33.363575  0.239790 0.167140 -0.956329  0.280282 0.708975 1 1 1.000000
0  -42.227486 -31.312757 33.501209  0.205433 0.978609 0.011002  0.266610 0.713858 1 1 1.000000
0  -39.474716 -31.780731 33.707668  0.158034 0.985969 -0.053763  0.536149 0.737297 1 1 1.000000
paintblack
0  -39.474716 -31.780731 33.707668  0.158034 0.985969 -0.053763  0.536149 0.737297 1 1 1.000000
0  -39.612354 -32.620323 33.528740  0.048243 0.200618 -0.978481  0.536149 0.727531 1 1 1.000000
0  -42.227486 -32.193645 33.363575  0.239790 0.167140 -0.956329  0.280282 0.708975 1 1 1.000000
paintblack
0  -42.227486 -31.312757 33.501209  0.205433 0.978609 0.011002  0.266610 0.713858 1 1 1.000000
0  -42.420177 -31.794495 33.693905  -0.165350 0.281723 0.945141  0.255867 0.740226 1 1 1.000000
0  -39.516006 -32.289989 33.914127  0.024670 0.250132 0.967897  0.540056 0.765618 1 1 1.000000
paintblack
0  -39.516006 -32.289989 33.914127  0.024670 0.250132 0.967897  0.540056 0.765618 1 1 1.000000
0  -39.474716 -31.780731 33.707668  0.158034 0.985969 -0.053763  0.536149 0.737297 1 1 1.000000
0  -42.227486 -31.312757 33.501209  0.205433 0.978609 0.011002  0.266610 0.713858 1 1 1.000000
paintblack
0  -42.420177 -31.794495 33.693905  -0.165350 0.281723 0.945141  0.255867 0.740226 1 1 1.000000
0  -42.585346 -32.441395 33.762726  -0.261323 -0.084702 0.961528  0.249031 0.756829 1 1 1.000000
0  -39.557297 -32.950657 33.996708  -0.025595 -0.037484 0.998969  0.545915 0.783197 1 1 1.000000
paintblack
0  -39.557297 -32.950657 33.996708  -0.025595 -0.037484 0.998969  0.545915 0.783197 1 1 1.000000
0  -39.516006 -32.289989 33.914127  0.024670 0.250132 0.967897  0.540056 0.765618 1 1 1.000000
0  -42.420177 -31.794495 33.693905  -0.165350 0.281723 0.945141  0.255867 0.740226 1 1 1.000000
paintblack
0  -42.695454 -31.877077 32.895603  -0.248147 0.798471 0.548514  0.229499 0.654286 1 1 1.000000
0  -43.122135 -31.808258 32.413868  -0.431499 0.847005 0.310470  0.188482 0.600574 1 1 1.000000
0  -43.411171 -31.987190 32.523975  -0.431750 0.852306 0.295239  0.164068 0.616199 1 1 1.000000
paintblack
0  -43.411171 -31.987190 32.523975  -0.431750 0.852306 0.295239  0.164068 0.616199 1 1 1.000000
0  -42.956966 -32.069771 33.047005  -0.279277 0.809780 0.516005  0.207038 0.673818 1 1 1.000000
0  -42.695454 -31.877077 32.895603  -0.248147 0.798471 0.548514  0.229499 0.654286 1 1 1.000000
paintblack
0  -42.131138 -31.973421 33.157112  -0.052356 0.699022 0.713181  0.285165 0.683584 1 1 1.000000
0  -42.695454 -31.877077 32.895603  -0.248147 0.798471 0.548514  0.229499 0.654286 1 1 1.000000
0  -42.956966 -32.069771 33.047005  -0.279277 0.809780 0.516005  0.207038 0.673818 1 1 1.000000
paintblack
0  -42.956966 -32.069771 33.047005  -0.279277 0.809780 0.516005  0.207038 0.673818 1 1 1.000000
0  -42.227486 -32.193645 33.363575  -0.056338 0.693200 0.718540  0.280282 0.708975 1 1 1.000000
0  -42.131138 -31.973421 33.157112  -0.052356 0.699022 0.713181  0.285165 0.683584 1 1 1.000000
paintblack
0  -37.176151 -32.799255 33.239700  0.236759 0.671103 0.702543  0.770531 0.692373 1 1 1.000000
0  -39.626118 -32.386341 33.322285  0.094456 0.652075 0.752248  0.531266 0.702139 1 1 1.000000
0  -39.612354 -32.620323 33.528740  0.102359 0.651571 0.751650  0.536149 0.727531 1 1 1.000000
paintblack
0  -39.612354 -32.620323 33.528740  0.102359 0.651571 0.751650  0.536149 0.727531 1 1 1.000000
0  -37.066040 -33.047005 33.446156  0.287663 0.672436 0.681968  0.785180 0.717765 1 1 1.000000
0  -37.176151 -32.799255 33.239700  0.236759 0.671103 0.702543  0.770531 0.692373 1 1 1.000000
paintblack
0  -36.556778 -32.895603 32.978188  0.519708 0.682014 0.514548  0.832057 0.663076 1 1 1.000000
0  -37.176151 -32.799255 33.239700  0.236759 0.671103 0.702543  0.770531 0.692373 1 1 1.000000
0  -37.066040 -33.047005 33.446156  0.287663 0.672436 0.681968  0.785180 0.717765 1 1 1.000000
paintblack
0  -37.066040 -33.047005 33.446156  0.287663 0.672436 0.681968  0.785180 0.717765 1 1 1.000000
0  -36.364082 -33.170876 33.129585  0.559248 0.679467 0.474939  0.854518 0.683584 1 1 1.000000
0  -36.556778 -32.895603 32.978188  0.519708 0.682014 0.514548  0.832057 0.663076 1 1 1.000000
paintblack
0  -36.226444 -32.950657 32.427631  0.732228 0.654213 0.189333  0.864284 0.603504 1 1 1.000000
0  -36.556778 -32.895603 32.978188  0.519708 0.682014 0.514548  0.832057 0.663076 1 1 1.000000
0  -36.364082 -33.170876 33.129585  0.559248 0.679467 0.474939  0.854518 0.683584 1 1 1.000000
paintblack
0  -36.364082 -33.170876 33.129585  0.559248 0.679467 0.474939  0.854518 0.683584 1 1 1.000000
0  -36.019989 -33.225937 32.551506  0.728217 0.654342 0.203806  0.888699 0.618152 1 1 1.000000
0  -36.226444 -32.950657 32.427631  0.732228 0.654213 0.189333  0.864284 0.603504 1 1 1.000000
paintblack
0  -43.122135 -31.808258 32.413868  -0.431499 0.847005 0.310470  0.188482 0.600574 1 1 1.000000
0  -43.452469 -31.753201 31.188885  -0.530638 0.837857 0.128137  0.155278 0.464827 1 1 1.000000
0  -43.741505 -31.932131 31.188885  -0.526347 0.842341 0.115845  0.130863 0.467757 1 1 1.000000
paintblack
0  -43.741505 -31.932131 31.188885  -0.526347 0.842341 0.115845  0.130863 0.467757 1 1 1.000000
0  -43.411171 -31.987190 32.523975  -0.431750 0.852306 0.295239  0.164068 0.616199 1 1 1.000000
0  -43.122135 -31.808258 32.413868  -0.431499 0.847005 0.310470  0.188482 0.600574 1 1 1.000000
paintblack
0  -36.130096 -32.978188 31.175119  0.779120 0.626868 0.003055  0.874050 0.463851 1 1 1.000000
0  -36.226444 -32.950657 32.427631  0.732228 0.654213 0.189333  0.864284 0.603504 1 1 1.000000
0  -36.019989 -33.225937 32.551506  0.728217 0.654342 0.203806  0.888699 0.618152 1 1 1.000000
paintblack
0  -36.019989 -33.225937 32.551506  0.728217 0.654342 0.203806  0.888699 0.618152 1 1 1.000000
0  -35.909878 -33.239700 31.175119  0.779235 0.626725 0.002779  0.898465 0.466781 1 1 1.000000
0  -36.130096 -32.978188 31.175119  0.779120 0.626868 0.003055  0.874050 0.463851 1 1 1.000000
paintblack
0  -43.452469 -31.753201 31.188885  -0.530638 0.837857 0.128137  0.155278 0.464827 1 1 1.000000
0  -43.603867 -31.725674 29.826265  -0.512793 0.852750 -0.099300  0.140629 0.313456 1 1 1.000000
0  -43.892910 -31.904604 29.716154  -0.496212 0.856476 -0.142205  0.116214 0.303690 1 1 1.000000
paintblack
0  -43.892910 -31.904604 29.716154  -0.496212 0.856476 -0.142205  0.116214 0.303690 1 1 1.000000
0  -43.741505 -31.932131 31.188885  -0.526347 0.842341 0.115845  0.130863 0.467757 1 1 1.000000
0  -43.452469 -31.753201 31.188885  -0.530638 0.837857 0.128137  0.155278 0.464827 1 1 1.000000
paintblack
0  -36.240208 -32.950657 29.661093  0.743236 0.649029 -0.162360  0.863308 0.294900 1 1 1.000000
0  -36.130096 -32.978188 31.175119  0.779120 0.626868 0.003055  0.874050 0.463851 1 1 1.000000
0  -35.909878 -33.239700 31.175119  0.779235 0.626725 0.002779  0.898465 0.466781 1 1 1.000000
paintblack
0  -35.909878 -33.239700 31.175119  0.779235 0.626725 0.002779  0.898465 0.466781 1 1 1.000000
0  -36.019989 -33.225937 29.537220  0.736369 0.652247 -0.179820  0.887722 0.285134 1 1 1.000000
0  -36.240208 -32.950657 29.661093  0.743236 0.649029 -0.162360  0.863308 0.294900 1 1 1.000000
paintblack
0  -43.603867 -31.725674 29.826265  -0.512793 0.852750 -0.099300  0.140629 0.313456 1 1 1.000000
0  -43.301064 -31.780731 29.275709  -0.290350 0.818724 -0.495366  0.170904 0.251930 1 1 1.000000
0  -43.562576 -31.959658 29.110542  -0.319832 0.829377 -0.458085  0.148442 0.238258 1 1 1.000000
paintblack
0  -43.562576 -31.959658 29.110542  -0.319832 0.829377 -0.458085  0.148442 0.238258 1 1 1.000000
0  -43.892910 -31.904604 29.716154  -0.496212 0.856476 -0.142205  0.116214 0.303690 1 1 1.000000
0  -43.603867 -31.725674 29.826265  -0.512793 0.852750 -0.099300  0.140629 0.313456 1 1 1.000000
paintblack
0  -43.301064 -31.780731 29.275709  -0.290350 0.818724 -0.495366  0.170904 0.251930 1 1 1.000000
0  -42.681690 -31.877077 28.986668  -0.018150 0.671214 -0.741042  0.230476 0.219703 1 1 1.000000
0  -42.915676 -32.069771 28.807741  -0.085503 0.712157 -0.696794  0.212897 0.204077 1 1 1.000000
paintblack
0  -42.915676 -32.069771 28.807741  -0.085503 0.712157 -0.696794  0.212897 0.204077 1 1 1.000000
0  -43.562576 -31.959658 29.110542  -0.319832 0.829377 -0.458085  0.148442 0.238258 1 1 1.000000
0  -43.301064 -31.780731 29.275709  -0.290350 0.818724 -0.495366  0.170904 0.251930 1 1 1.000000
paintblack
0  -42.681690 -31.877077 28.986668  -0.018150 0.671214 -0.741042  0.230476 0.219703 1 1 1.000000
0  -37.148621 -32.799255 28.793976  0.188274 0.618084 -0.763233  0.773461 0.200171 1 1 1.000000
0  -36.997219 -33.060768 28.615044  0.280950 0.638968 -0.716092  0.792016 0.183569 1 1 1.000000
paintblack
0  -36.997219 -33.060768 28.615044  0.280950 0.638968 -0.716092  0.792016 0.183569 1 1 1.000000
0  -42.915676 -32.069771 28.807741  -0.085503 0.712157 -0.696794  0.212897 0.204077 1 1 1.000000
0  -42.681690 -31.877077 28.986668  -0.018150 0.671214 -0.741042  0.230476 0.219703 1 1 1.000000
paintblack
0  -37.148621 -32.799255 28.793976  0.188274 0.618084 -0.763233  0.773461 0.200171 1 1 1.000000
0  -36.543015 -32.909367 29.055487  0.537633 0.680036 -0.498500  0.834010 0.228492 1 1 1.000000
0  -36.350319 -33.170876 28.904085  0.572599 0.680571 -0.457114  0.856471 0.213843 1 1 1.000000
paintblack
0  -36.350319 -33.170876 28.904085  0.572599 0.680571 -0.457114  0.856471 0.213843 1 1 1.000000
0  -36.997219 -33.060768 28.615044  0.280950 0.638968 -0.716092  0.792016 0.183569 1 1 1.000000
0  -37.148621 -32.799255 28.793976  0.188274 0.618084 -0.763233  0.773461 0.200171 1 1 1.000000
paintblack
0  -36.543015 -32.909367 29.055487  0.537633 0.680036 -0.498500  0.834010 0.228492 1 1 1.000000
0  -36.240208 -32.950657 29.661093  0.743236 0.649029 -0.162360  0.863308 0.294900 1 1 1.000000
0  -36.019989 -33.225937 29.537220  0.736369 0.652247 -0.179820  0.887722 0.285134 1 1 1.000000
paintblack
0  -36.019989 -33.225937 29.537220  0.736369 0.652247 -0.179820  0.887722 0.285134 1 1 1.000000
0  -36.350319 -33.170876 28.904085  0.572599 0.680571 -0.457114  0.856471 0.213843 1 1 1.000000
0  -36.543015 -32.909367 29.055487  0.537633 0.680036 -0.498500  0.834010 0.228492 1 1 1.000000
paintblack
0  -42.227486 -32.193645 33.363575  -0.056338 0.693200 0.718540  0.280282 0.708975 1 1 1.000000
0  -39.612354 -32.620323 33.528740  0.102359 0.651571 0.751650  0.536149 0.727531 1 1 1.000000
0  -39.626118 -32.386341 33.322285  0.094456 0.652075 0.752248  0.531266 0.702139 1 1 1.000000
paintblack
0  -39.626118 -32.386341 33.322285  0.094456 0.652075 0.752248  0.531266 0.702139 1 1 1.000000
0  -42.131138 -31.973421 33.157112  -0.052356 0.699022 0.713181  0.285165 0.683584 1 1 1.000000
0  -42.227486 -32.193645 33.363575  -0.056338 0.693200 0.718540  0.280282 0.708975 1 1 1.000000
end
