version 1
nodes
0 "blender_implicit" -1
1 "root" -1
2 "steering_wheel" 1
end
skeleton
time 0
0  0.000000 0.000000 0.000000  0.000000 -0.000000 0.000000
1  0.000000 0.000000 0.000000  1.570796 -0.000000 0.000000
2  0.000004 24.183060 22.214846  0.000000 -0.000002 -0.000002
end
triangles
doorline
0  38.084572 -38.401134 27.899319  0.282777 -0.957545 -0.056084  0.979522 0.058565 1 1 1.000000
0  37.988224 -38.401134 27.458874  0.208987 -0.977003 -0.042296  0.778344 0.058565 1 1 1.000000
0  38.525017 -38.043274 27.458874  0.778187 -0.609728 -0.150522  0.778344 0.058565 1 1 1.000000
doorline
0  38.525017 -38.043274 27.458874  0.778187 -0.609728 -0.150522  0.778344 0.058565 1 1 1.000000
0  38.607601 -38.043274 27.899319  0.808529 -0.567723 -0.154827  0.979522 0.058565 1 1 1.000000
0  38.084572 -38.401134 27.899319  0.282777 -0.957545 -0.056084  0.979522 0.058565 1 1 1.000000
doorline
0  39.034279 -36.625599 27.913082  0.973401 -0.133994 -0.185840  0.979522 0.058565 1 1 1.000000
0  38.951694 -36.625599 27.472637  0.972683 -0.139493 -0.185554  0.778344 0.058565 1 1 1.000000
0  38.937931 -35.318031 27.486401  0.967423 0.168256 -0.189161  0.778344 0.058565 1 1 1.000000
doorline
0  38.937931 -35.318031 27.486401  0.967423 0.168256 -0.189161  0.778344 0.058565 1 1 1.000000
0  39.034279 -35.318031 27.926846  0.967958 0.162838 -0.191159  0.979522 0.058565 1 1 1.000000
0  39.034279 -36.625599 27.913082  0.973401 -0.133994 -0.185840  0.979522 0.058565 1 1 1.000000
doorline
0  37.919407 -34.216927 27.913082  -0.250671 0.966246 0.059433  0.979522 0.058565 1 1 1.000000
0  37.823063 -34.216927 27.472639  -0.357070 0.930444 0.082310  0.778344 0.058565 1 1 1.000000
0  37.107338 -34.836296 27.472639  -0.840680 0.499384 0.209458  0.778344 0.058565 1 1 1.000000
doorline
0  37.107338 -34.836296 27.472639  -0.840680 0.499384 0.209458  0.778344 0.058565 1 1 1.000000
0  37.217449 -34.836296 27.913084  -0.816705 0.539369 0.205120  0.979522 0.058565 1 1 1.000000
0  37.919407 -34.216927 27.913082  -0.250671 0.966246 0.059433  0.979522 0.058565 1 1 1.000000
doorline
0  39.034279 -35.318031 27.926846  0.967958 0.162838 -0.191159  0.979522 0.058565 1 1 1.000000
0  38.937931 -35.318031 27.486401  0.967423 0.168256 -0.189161  0.778344 0.058565 1 1 1.000000
0  38.580070 -34.285744 27.500164  0.561758 0.819255 -0.115104  0.778344 0.058565 1 1 1.000000
doorline
0  38.580070 -34.285744 27.500164  0.561758 0.819255 -0.115104  0.778344 0.058565 1 1 1.000000
0  38.676418 -34.285744 27.940611  0.655096 0.743158 -0.136256  0.979522 0.058565 1 1 1.000000
0  39.034279 -35.318031 27.926846  0.967958 0.162838 -0.191159  0.979522 0.058565 1 1 1.000000
doorline
0  37.410145 -38.346077 27.472639  -0.622599 -0.770513 0.136675  0.778344 0.058565 1 1 1.000000
0  37.506493 -38.346077 27.913084  -0.539918 -0.833647 0.116278  0.979522 0.058565 1 1 1.000000
0  37.024754 -37.162388 27.913084  -0.945141 -0.241303 0.220185  0.979522 0.058565 1 1 1.000000
doorline
0  37.024754 -37.162388 27.913084  -0.945141 -0.241303 0.220185  0.979522 0.058565 1 1 1.000000
0  36.914646 -37.162388 27.472639  -0.946499 -0.232343 0.223958  0.778344 0.057588 1 1 1.000000
0  37.410145 -38.346077 27.472639  -0.622599 -0.770513 0.136675  0.778344 0.058565 1 1 1.000000
doorline
0  36.914646 -37.162388 27.472639  -0.946499 -0.232343 0.223958  0.778344 0.057588 1 1 1.000000
0  37.024754 -37.162388 27.913084  -0.945141 -0.241303 0.220185  0.979522 0.058565 1 1 1.000000
0  36.900883 -35.992462 27.913084  -0.967787 0.079531 0.238878  0.979522 0.058565 1 1 1.000000
doorline
0  36.900883 -35.992462 27.913084  -0.967787 0.079531 0.238878  0.979522 0.058565 1 1 1.000000
0  36.804535 -35.992462 27.472639  -0.967729 0.074639 0.240686  0.778344 0.058565 1 1 1.000000
0  36.914646 -37.162388 27.472639  -0.946499 -0.232343 0.223958  0.778344 0.057588 1 1 1.000000
doorline
0  38.951694 -36.625599 27.472637  0.972683 -0.139493 -0.185554  0.778344 0.058565 1 1 1.000000
0  39.034279 -36.625599 27.913082  0.973401 -0.133994 -0.185840  0.979522 0.058565 1 1 1.000000
0  38.607601 -38.043274 27.899319  0.808529 -0.567723 -0.154827  0.979522 0.058565 1 1 1.000000
doorline
0  38.607601 -38.043274 27.899319  0.808529 -0.567723 -0.154827  0.979522 0.058565 1 1 1.000000
0  38.525017 -38.043274 27.458874  0.778187 -0.609728 -0.150522  0.778344 0.058565 1 1 1.000000
0  38.951694 -36.625599 27.472637  0.972683 -0.139493 -0.185554  0.778344 0.058565 1 1 1.000000
doorline
0  37.988224 -38.401134 27.458874  0.208987 -0.977003 -0.042296  0.778344 0.058565 1 1 1.000000
0  38.084572 -38.401134 27.899319  0.282777 -0.957545 -0.056084  0.979522 0.058565 1 1 1.000000
0  37.506493 -38.346077 27.913084  -0.539918 -0.833647 0.116278  0.979522 0.058565 1 1 1.000000
doorline
0  37.506493 -38.346077 27.913084  -0.539918 -0.833647 0.116278  0.979522 0.058565 1 1 1.000000
0  37.410145 -38.346077 27.472639  -0.622599 -0.770513 0.136675  0.778344 0.058565 1 1 1.000000
0  37.988224 -38.401134 27.458874  0.208987 -0.977003 -0.042296  0.778344 0.058565 1 1 1.000000
doorline
0  36.804535 -35.992462 27.472639  -0.967729 0.074639 0.240686  0.778344 0.058565 1 1 1.000000
0  36.900883 -35.992462 27.913084  -0.967787 0.079531 0.238878  0.979522 0.058565 1 1 1.000000
0  37.217449 -34.836296 27.913084  -0.816705 0.539369 0.205120  0.979522 0.058565 1 1 1.000000
doorline
0  37.217449 -34.836296 27.913084  -0.816705 0.539369 0.205120  0.979522 0.058565 1 1 1.000000
0  37.107338 -34.836296 27.472639  -0.840680 0.499384 0.209458  0.778344 0.058565 1 1 1.000000
0  36.804535 -35.992462 27.472639  -0.967729 0.074639 0.240686  0.778344 0.058565 1 1 1.000000
doorline
0  37.823063 -34.216927 27.472639  -0.357070 0.930444 0.082310  0.778344 0.058565 1 1 1.000000
0  37.919407 -34.216927 27.913082  -0.250671 0.966246 0.059433  0.979522 0.058565 1 1 1.000000
0  38.676418 -34.285744 27.940611  0.655096 0.743158 -0.136256  0.979522 0.058565 1 1 1.000000
doorline
0  38.676418 -34.285744 27.940611  0.655096 0.743158 -0.136256  0.979522 0.058565 1 1 1.000000
0  38.580070 -34.285744 27.500164  0.561758 0.819255 -0.115104  0.778344 0.058565 1 1 1.000000
0  37.823063 -34.216927 27.472639  -0.357070 0.930444 0.082310  0.778344 0.058565 1 1 1.000000
skin_0
0  37.492729 -38.332314 27.679096  -0.605952 -0.795170 0.022959  0.265633 0.379864 1 1 1.000000
0  38.029514 -38.387371 27.679094  0.225961 -0.974126 -0.004449  0.260750 0.379864 1 1 1.000000
0  38.070808 -38.387371 28.972897  0.204215 -0.978911 -0.005407  0.260750 0.462874 1 1 1.000000
skin_0
0  38.070808 -38.387371 28.972897  0.204215 -0.978911 -0.005407  0.260750 0.462874 1 1 1.000000
0  37.547783 -38.332314 29.069246  -0.631632 -0.774808 0.026712  0.265633 0.468734 1 1 1.000000
0  37.492729 -38.332314 27.679096  -0.605952 -0.795170 0.022959  0.265633 0.379864 1 1 1.000000
skin_0
0  38.566307 -38.043274 27.679094  0.801648 -0.597680 -0.011828  0.290048 0.379864 1 1 1.000000
0  38.979221 -36.625599 27.692858  0.990664 -0.136322 -0.001094  0.411145 0.380840 1 1 1.000000
0  38.979221 -36.625599 28.793970  0.990727 -0.135741 -0.005936  0.411145 0.451155 1 1 1.000000
skin_0
0  38.979221 -36.625599 28.793970  0.990727 -0.135741 -0.005936  0.411145 0.451155 1 1 1.000000
0  38.593838 -38.043274 28.876551  0.794404 -0.607161 -0.016671  0.290048 0.456038 1 1 1.000000
0  38.566307 -38.043274 27.679094  0.801648 -0.597680 -0.011828  0.290048 0.379864 1 1 1.000000
skin_0
0  37.492729 -38.332314 27.679096  -0.491716 -0.845602 0.207780  0.265633 0.379864 1 1 1.000000
0  37.010990 -37.162388 27.692860  -0.892570 -0.236524 0.383894  0.365246 0.380840 1 1 1.000000
0  36.198925 -37.162388 25.807215  -0.894201 -0.237572 0.379427  0.365246 0.260720 1 1 1.000000
skin_0
0  36.198925 -37.162388 25.807215  -0.894201 -0.237572 0.379427  0.365246 0.260720 1 1 1.000000
0  36.653133 -38.332314 25.655811  -0.567901 -0.788821 0.235051  0.265633 0.250954 1 1 1.000000
0  37.492729 -38.332314 27.679096  -0.491716 -0.845602 0.207780  0.265633 0.379864 1 1 1.000000
skin_0
0  37.946934 -34.244453 28.986660  -0.386396 0.922318 -0.005276  0.613300 0.462874 1 1 1.000000
0  37.891880 -34.258217 27.720390  -0.363347 0.931599 0.010147  0.611347 0.382794 1 1 1.000000
0  37.217449 -34.905117 27.706623  -0.858959 0.511328 0.027066  0.556658 0.381817 1 1 1.000000
skin_0
0  37.217449 -34.905117 27.706623  -0.858959 0.511328 0.027066  0.556658 0.381817 1 1 1.000000
0  37.272507 -34.836296 29.179356  -0.856925 0.515296 0.012253  0.562517 0.476547 1 1 1.000000
0  37.946934 -34.244453 28.986660  -0.386396 0.922318 -0.005276  0.613300 0.462874 1 1 1.000000
skin_0
0  38.566307 -38.043274 27.679094  0.787609 -0.534211 -0.307068  0.290048 0.379864 1 1 1.000000
0  38.029514 -38.387371 27.679094  0.302355 -0.945557 -0.120431  0.260750 0.379864 1 1 1.000000
0  37.148628 -38.387371 25.476881  0.212136 -0.973829 -0.081583  0.260750 0.239235 1 1 1.000000
skin_0
0  37.148628 -38.387371 25.476881  0.212136 -0.973829 -0.081583  0.260750 0.239235 1 1 1.000000
0  37.644131 -38.043274 25.297955  0.752755 -0.592152 -0.287605  0.290048 0.227515 1 1 1.000000
0  38.566307 -38.043274 27.679094  0.787609 -0.534211 -0.307068  0.290048 0.379864 1 1 1.000000
skin_0
0  38.029514 -36.625599 25.160313  0.927560 -0.131518 -0.349766  0.411145 0.219703 1 1 1.000000
0  38.001987 -35.318031 25.119019  0.922996 0.162112 -0.348997  0.521500 0.216773 1 1 1.000000
0  38.979221 -35.318031 27.706621  0.925124 0.150737 -0.348459  0.521500 0.381817 1 1 1.000000
skin_0
0  38.979221 -35.318031 27.706621  0.925124 0.150737 -0.348459  0.521500 0.381817 1 1 1.000000
0  38.979221 -36.625599 27.692858  0.927698 -0.122652 -0.352609  0.411145 0.380840 1 1 1.000000
0  38.029514 -36.625599 25.160313  0.927560 -0.131518 -0.349766  0.411145 0.219703 1 1 1.000000
skin_0
0  37.079811 -37.162388 29.151829  -0.971180 -0.233857 0.046034  0.365246 0.474593 1 1 1.000000
0  36.969700 -35.992462 29.206882  -0.995037 0.089234 0.044038  0.463881 0.477523 1 1 1.000000
0  36.900883 -35.992462 27.706623  -0.994609 0.091610 0.048590  0.463881 0.381817 1 1 1.000000
skin_0
0  36.900883 -35.992462 27.706623  -0.994609 0.091610 0.048590  0.463881 0.381817 1 1 1.000000
0  37.010990 -37.162388 27.692860  -0.969555 -0.241073 0.042968  0.365246 0.380840 1 1 1.000000
0  37.079811 -37.162388 29.151829  -0.971180 -0.233857 0.046034  0.365246 0.474593 1 1 1.000000
skin_0
0  37.217449 -34.905117 27.706623  -0.782155 0.526625 0.333016  0.556658 0.381817 1 1 1.000000
0  37.891880 -34.258217 27.720390  -0.267811 0.957655 0.105704  0.611347 0.382794 1 1 1.000000
0  37.038517 -34.244453 25.504408  -0.276265 0.952127 0.130887  0.613300 0.241188 1 1 1.000000
skin_0
0  37.038517 -34.244453 25.504408  -0.276265 0.952127 0.130887  0.613300 0.241188 1 1 1.000000
0  36.405384 -34.836296 25.820978  -0.768328 0.537969 0.346788  0.562517 0.260720 1 1 1.000000
0  37.217449 -34.905117 27.706623  -0.782155 0.526625 0.333016  0.556658 0.381817 1 1 1.000000
skin_0
0  38.979221 -36.625599 27.692858  0.990664 -0.136322 -0.001094  0.411145 0.380840 1 1 1.000000
0  38.979221 -35.318031 27.706621  0.986891 0.161299 0.005307  0.521500 0.381817 1 1 1.000000
0  38.965458 -35.318031 28.752674  0.986596 0.163155 0.003016  0.521500 0.448225 1 1 1.000000
skin_0
0  38.965458 -35.318031 28.752674  0.986596 0.163155 0.003016  0.521500 0.448225 1 1 1.000000
0  38.979221 -36.625599 28.793970  0.990727 -0.135741 -0.005936  0.411145 0.451155 1 1 1.000000
0  38.979221 -36.625599 27.692858  0.990664 -0.136322 -0.001094  0.411145 0.380840 1 1 1.000000
skin_0
0  37.010990 -37.162388 27.692860  -0.892570 -0.236524 0.383894  0.365246 0.380840 1 1 1.000000
0  36.900883 -35.992462 27.706623  -0.913662 0.085983 0.397278  0.463881 0.381817 1 1 1.000000
0  36.102577 -35.992462 25.876034  -0.915664 0.072759 0.395305  0.463881 0.264626 1 1 1.000000
skin_0
0  36.102577 -35.992462 25.876034  -0.915664 0.072759 0.395305  0.463881 0.264626 1 1 1.000000
0  36.198925 -37.162388 25.807215  -0.894201 -0.237572 0.379427  0.365246 0.260720 1 1 1.000000
0  37.010990 -37.162388 27.692860  -0.892570 -0.236524 0.383894  0.365246 0.380840 1 1 1.000000
skin_0
0  38.979221 -36.625599 27.692858  0.927698 -0.122652 -0.352609  0.411145 0.380840 1 1 1.000000
0  38.566307 -38.043274 27.679094  0.787609 -0.534211 -0.307068  0.290048 0.379864 1 1 1.000000
0  37.644131 -38.043274 25.297955  0.752755 -0.592152 -0.287605  0.290048 0.227515 1 1 1.000000
skin_0
0  37.644131 -38.043274 25.297955  0.752755 -0.592152 -0.287605  0.290048 0.227515 1 1 1.000000
0  38.029514 -36.625599 25.160313  0.927560 -0.131518 -0.349766  0.411145 0.219703 1 1 1.000000
0  38.979221 -36.625599 27.692858  0.927698 -0.122652 -0.352609  0.411145 0.380840 1 1 1.000000
skin_0
0  37.010990 -37.162388 27.692860  -0.969555 -0.241073 0.042968  0.365246 0.380840 1 1 1.000000
0  37.492729 -38.332314 27.679096  -0.605952 -0.795170 0.022959  0.265633 0.379864 1 1 1.000000
0  37.547783 -38.332314 29.069246  -0.631632 -0.774808 0.026712  0.265633 0.468734 1 1 1.000000
skin_0
0  37.547783 -38.332314 29.069246  -0.631632 -0.774808 0.026712  0.265633 0.468734 1 1 1.000000
0  37.079811 -37.162388 29.151829  -0.971180 -0.233857 0.046034  0.365246 0.474593 1 1 1.000000
0  37.010990 -37.162388 27.692860  -0.969555 -0.241073 0.042968  0.365246 0.380840 1 1 1.000000
skin_0
0  38.029514 -38.387371 27.679094  0.225961 -0.974126 -0.004449  0.260750 0.379864 1 1 1.000000
0  38.566307 -38.043274 27.679094  0.801648 -0.597680 -0.011828  0.290048 0.379864 1 1 1.000000
0  38.593838 -38.043274 28.876551  0.794404 -0.607161 -0.016671  0.290048 0.456038 1 1 1.000000
skin_0
0  38.593838 -38.043274 28.876551  0.794404 -0.607161 -0.016671  0.290048 0.456038 1 1 1.000000
0  38.070808 -38.387371 28.972897  0.204215 -0.978911 -0.005407  0.260750 0.462874 1 1 1.000000
0  38.029514 -38.387371 27.679094  0.225961 -0.974126 -0.004449  0.260750 0.379864 1 1 1.000000
skin_0
0  38.029514 -38.387371 27.679094  0.302355 -0.945557 -0.120431  0.260750 0.379864 1 1 1.000000
0  37.492729 -38.332314 27.679096  -0.491716 -0.845602 0.207780  0.265633 0.379864 1 1 1.000000
0  36.653133 -38.332314 25.655811  -0.567901 -0.788821 0.235051  0.265633 0.250954 1 1 1.000000
skin_0
0  36.653133 -38.332314 25.655811  -0.567901 -0.788821 0.235051  0.265633 0.250954 1 1 1.000000
0  37.148628 -38.387371 25.476881  0.212136 -0.973829 -0.081583  0.260750 0.239235 1 1 1.000000
0  38.029514 -38.387371 27.679094  0.302355 -0.945557 -0.120431  0.260750 0.379864 1 1 1.000000
skin_0
0  38.001987 -35.318031 25.119019  0.922996 0.162112 -0.348997  0.521500 0.216773 1 1 1.000000
0  37.671658 -34.285744 25.187841  0.579212 0.785682 -0.217297  0.609394 0.220679 1 1 1.000000
0  38.635128 -34.285744 27.720388  0.648532 0.720752 -0.244792  0.609394 0.382794 1 1 1.000000
skin_0
0  38.635128 -34.285744 27.720388  0.648532 0.720752 -0.244792  0.609394 0.382794 1 1 1.000000
0  38.979221 -35.318031 27.706621  0.925124 0.150737 -0.348459  0.521500 0.381817 1 1 1.000000
0  38.001987 -35.318031 25.119019  0.922996 0.162112 -0.348997  0.521500 0.216773 1 1 1.000000
skin_0
0  36.969700 -35.992462 29.206882  -0.995037 0.089234 0.044038  0.463881 0.477523 1 1 1.000000
0  37.272507 -34.836296 29.179356  -0.856925 0.515296 0.012253  0.562517 0.476547 1 1 1.000000
0  37.217449 -34.905117 27.706623  -0.858959 0.511328 0.027066  0.556658 0.381817 1 1 1.000000
skin_0
0  37.217449 -34.905117 27.706623  -0.858959 0.511328 0.027066  0.556658 0.381817 1 1 1.000000
0  36.900883 -35.992462 27.706623  -0.994609 0.091610 0.048590  0.463881 0.381817 1 1 1.000000
0  36.969700 -35.992462 29.206882  -0.995037 0.089234 0.044038  0.463881 0.477523 1 1 1.000000
skin_0
0  38.635128 -34.285744 27.720388  0.602060 0.798446 0.002693  0.609394 0.382794 1 1 1.000000
0  38.621365 -34.285744 28.780201  0.554693 0.832039 -0.005167  0.609394 0.450179 1 1 1.000000
0  38.965458 -35.318031 28.752674  0.986596 0.163155 0.003016  0.521500 0.448225 1 1 1.000000
skin_0
0  38.965458 -35.318031 28.752674  0.986596 0.163155 0.003016  0.521500 0.448225 1 1 1.000000
0  38.979221 -35.318031 27.706621  0.986891 0.161299 0.005307  0.521500 0.381817 1 1 1.000000
0  38.635128 -34.285744 27.720388  0.602060 0.798446 0.002693  0.609394 0.382794 1 1 1.000000
skin_0
0  36.900883 -35.992462 27.706623  -0.913662 0.085983 0.397278  0.463881 0.381817 1 1 1.000000
0  37.217449 -34.905117 27.706623  -0.782155 0.526625 0.333016  0.556658 0.381817 1 1 1.000000
0  36.405384 -34.836296 25.820978  -0.768328 0.537969 0.346788  0.562517 0.260720 1 1 1.000000
skin_0
0  36.405384 -34.836296 25.820978  -0.768328 0.537969 0.346788  0.562517 0.260720 1 1 1.000000
0  36.102577 -35.992462 25.876034  -0.915664 0.072759 0.395305  0.463881 0.264626 1 1 1.000000
0  36.900883 -35.992462 27.706623  -0.913662 0.085983 0.397278  0.463881 0.381817 1 1 1.000000
skin_0
0  38.621365 -34.285744 28.780201  0.554693 0.832039 -0.005167  0.609394 0.450179 1 1 1.000000
0  38.635128 -34.285744 27.720388  0.602060 0.798446 0.002693  0.609394 0.382794 1 1 1.000000
0  37.891880 -34.258217 27.720390  -0.363347 0.931599 0.010147  0.611347 0.382794 1 1 1.000000
skin_0
0  37.891880 -34.258217 27.720390  -0.363347 0.931599 0.010147  0.611347 0.382794 1 1 1.000000
0  37.946934 -34.244453 28.986660  -0.386396 0.922318 -0.005276  0.613300 0.462874 1 1 1.000000
0  38.621365 -34.285744 28.780201  0.554693 0.832039 -0.005167  0.609394 0.450179 1 1 1.000000
skin_0
0  37.891880 -34.258217 27.720390  -0.267811 0.957655 0.105704  0.611347 0.382794 1 1 1.000000
0  38.635128 -34.285744 27.720388  0.648532 0.720752 -0.244792  0.609394 0.382794 1 1 1.000000
0  37.671658 -34.285744 25.187841  0.579212 0.785682 -0.217297  0.609394 0.220679 1 1 1.000000
skin_0
0  37.671658 -34.285744 25.187841  0.579212 0.785682 -0.217297  0.609394 0.220679 1 1 1.000000
0  37.038517 -34.244453 25.504408  -0.276265 0.952127 0.130887  0.613300 0.241188 1 1 1.000000
0  37.891880 -34.258217 27.720390  -0.267811 0.957655 0.105704  0.611347 0.382794 1 1 1.000000
skin_0
0  43.658932 -32.262455 33.212166  0.691944 -0.042833 0.720680  0.782250 0.733390 1 1 1.000000
0  43.507530 -33.831535 32.441387  0.727729 -0.482183 0.487760  0.648457 0.684561 1 1 1.000000
0  44.016792 -32.193638 32.757957  0.895177 0.022676 0.445134  0.787133 0.704093 1 1 1.000000
skin_0
0  43.507530 -33.831535 32.441387  0.727729 -0.482183 0.487760  0.648457 0.684561 1 1 1.000000
0  43.658932 -32.262455 33.212166  0.691944 -0.042833 0.720680  0.782250 0.733390 1 1 1.000000
0  43.218491 -32.331280 33.528732  0.490762 -0.085143 0.867124  0.775414 0.752922 1 1 1.000000
skin_0
0  43.218491 -32.331280 33.528732  0.490762 -0.085143 0.867124  0.775414 0.752922 1 1 1.000000
0  42.571590 -33.982937 33.074524  0.464651 -0.480141 0.744019  0.634785 0.724601 1 1 1.000000
0  43.507530 -33.831535 32.441387  0.727729 -0.482183 0.487760  0.648457 0.684561 1 1 1.000000
skin_0
0  42.571590 -33.982937 33.074524  0.464651 -0.480141 0.744019  0.634785 0.724601 1 1 1.000000
0  43.218491 -32.331280 33.528732  0.490762 -0.085143 0.867124  0.775414 0.752922 1 1 1.000000
0  42.585354 -32.441387 33.762718  0.261330 -0.084703 0.961526  0.766625 0.768548 1 1 1.000000
skin_0
0  42.585354 -32.441387 33.762718  0.261330 -0.084703 0.961526  0.766625 0.768548 1 1 1.000000
0  41.415424 -34.175632 33.528732  0.245830 -0.402088 0.881982  0.618183 0.753899 1 1 1.000000
0  42.571590 -33.982937 33.074524  0.464651 -0.480141 0.744019  0.634785 0.724601 1 1 1.000000
skin_0
0  39.447193 -34.505962 33.666370  0.055203 -0.366105 0.928935  0.587909 0.763665 1 1 1.000000
0  39.557304 -32.950649 33.996700  0.025596 -0.037485 0.998969  0.723655 0.783197 1 1 1.000000
0  36.625607 -33.432384 33.872829  -0.194854 -0.089258 0.976762  0.681661 0.775384 1 1 1.000000
skin_0
0  36.625607 -33.432384 33.872829  -0.194854 -0.089258 0.976762  0.681661 0.775384 1 1 1.000000
0  36.873356 -34.946407 33.377331  -0.171963 -0.432193 0.885233  0.553728 0.744133 1 1 1.000000
0  39.447193 -34.505962 33.666370  0.055203 -0.366105 0.928935  0.587909 0.763665 1 1 1.000000
skin_0
0  36.047523 -33.528732 33.666370  -0.494548 -0.107029 0.862535  0.673849 0.762688 1 1 1.000000
0  36.253979 -35.042755 33.102051  -0.426378 -0.436017 0.792522  0.544939 0.725578 1 1 1.000000
0  36.873356 -34.946407 33.377331  -0.171963 -0.432193 0.885233  0.553728 0.744133 1 1 1.000000
skin_0
0  36.873356 -34.946407 33.377331  -0.171963 -0.432193 0.885233  0.553728 0.744133 1 1 1.000000
0  36.625607 -33.432384 33.872829  -0.194854 -0.089258 0.976762  0.681661 0.775384 1 1 1.000000
0  36.047523 -33.528732 33.666370  -0.494548 -0.107029 0.862535  0.673849 0.762688 1 1 1.000000
skin_0
0  35.854832 -35.111576 32.757957  -0.670272 -0.373101 0.641507  0.540056 0.704093 1 1 1.000000
0  35.703426 -33.583786 33.363567  -0.767598 -0.091203 0.634409  0.668966 0.743156 1 1 1.000000
0  35.455677 -33.638844 32.881832  -0.951384 -0.038649 0.305572  0.665059 0.712882 1 1 1.000000
skin_0
0  35.455677 -33.638844 32.881832  -0.951384 -0.038649 0.305572  0.665059 0.712882 1 1 1.000000
0  35.607079 -35.152866 32.386333  -0.896562 -0.277848 0.344931  0.536149 0.680654 1 1 1.000000
0  35.854832 -35.111576 32.757957  -0.670272 -0.373101 0.641507  0.540056 0.704093 1 1 1.000000
skin_0
0  36.253979 -35.042755 33.102051  -0.426378 -0.436017 0.792522  0.544939 0.725578 1 1 1.000000
0  36.047523 -33.528732 33.666370  -0.494548 -0.107029 0.862535  0.673849 0.762688 1 1 1.000000
0  35.703426 -33.583786 33.363567  -0.767598 -0.091203 0.634409  0.668966 0.743156 1 1 1.000000
skin_0
0  35.703426 -33.583786 33.363567  -0.767598 -0.091203 0.634409  0.668966 0.743156 1 1 1.000000
0  35.854832 -35.111576 32.757957  -0.670272 -0.373101 0.641507  0.540056 0.704093 1 1 1.000000
0  36.253979 -35.042755 33.102051  -0.426378 -0.436017 0.792522  0.544939 0.725578 1 1 1.000000
skin_0
0  44.016792 -32.193638 32.757957  0.895177 0.022676 0.445134  0.787133 0.704093 1 1 1.000000
0  43.507530 -33.831535 32.441387  0.727729 -0.482183 0.487760  0.648457 0.684561 1 1 1.000000
0  44.085609 -33.707661 30.886074  0.896355 -0.432544 0.097230  0.658223 0.584948 1 1 1.000000
skin_0
0  44.085609 -33.707661 30.886074  0.896355 -0.432544 0.097230  0.658223 0.584948 1 1 1.000000
0  44.415943 -32.124821 31.161350  0.981563 0.088107 0.169620  0.792993 0.602527 1 1 1.000000
0  44.016792 -32.193638 32.757957  0.895177 0.022676 0.445134  0.787133 0.704093 1 1 1.000000
skin_0
0  35.607079 -35.152866 32.386333  -0.896562 -0.277848 0.344931  0.536149 0.680654 1 1 1.000000
0  35.455677 -33.638844 32.881832  -0.951384 -0.038649 0.305572  0.665059 0.712882 1 1 1.000000
0  35.304276 -33.652607 31.161352  -0.999270 0.033935 0.017553  0.663106 0.601550 1 1 1.000000
skin_0
0  35.304276 -33.652607 31.161352  -0.999270 0.033935 0.017553  0.663106 0.601550 1 1 1.000000
0  35.373093 -35.166630 30.872309  -0.985823 -0.165508 0.027579  0.534196 0.583972 1 1 1.000000
0  35.607079 -35.152866 32.386333  -0.896562 -0.277848 0.344931  0.536149 0.680654 1 1 1.000000
skin_0
0  44.085609 -33.707661 30.886074  0.896355 -0.432544 0.097230  0.658223 0.584948 1 1 1.000000
0  43.824100 -33.721424 29.069244  0.766651 -0.451169 -0.456829  0.657247 0.468734 1 1 1.000000
0  44.581108 -32.097294 29.454634  0.987633 0.054900 -0.146860  0.795923 0.494125 1 1 1.000000
skin_0
0  44.581108 -32.097294 29.454634  0.987633 0.054900 -0.146860  0.795923 0.494125 1 1 1.000000
0  44.415943 -32.124821 31.161350  0.981563 0.088107 0.169620  0.792993 0.602527 1 1 1.000000
0  44.085609 -33.707661 30.886074  0.896355 -0.432544 0.097230  0.658223 0.584948 1 1 1.000000
skin_0
0  35.373093 -35.166630 30.872309  -0.985823 -0.165508 0.027579  0.534196 0.583972 1 1 1.000000
0  35.304276 -33.652607 31.161352  -0.999270 0.033935 0.017553  0.663106 0.601550 1 1 1.000000
0  35.455677 -33.625076 29.275703  -0.979777 0.038261 -0.196400  0.666036 0.481429 1 1 1.000000
skin_0
0  35.455677 -33.625076 29.275703  -0.979777 0.038261 -0.196400  0.666036 0.481429 1 1 1.000000
0  35.593315 -35.111576 29.220646  -0.936052 -0.160500 -0.313123  0.540056 0.478500 1 1 1.000000
0  35.373093 -35.166630 30.872309  -0.985823 -0.165508 0.027579  0.534196 0.583972 1 1 1.000000
skin_0
0  44.388416 -32.124821 28.959133  0.852184 0.041591 -0.521588  0.792993 0.461898 1 1 1.000000
0  44.581108 -32.097294 29.454634  0.987633 0.054900 -0.146860  0.795923 0.494125 1 1 1.000000
0  43.824100 -33.721424 29.069244  0.766651 -0.451169 -0.456829  0.657247 0.468734 1 1 1.000000
skin_0
0  43.824100 -33.721424 29.069244  0.766651 -0.451169 -0.456829  0.657247 0.468734 1 1 1.000000
0  42.833099 -33.872829 28.394815  0.326182 -0.266023 -0.907104  0.644551 0.425764 1 1 1.000000
0  43.975498 -32.193638 28.532454  0.561537 0.023202 -0.827126  0.788110 0.434553 1 1 1.000000
skin_0
0  43.975498 -32.193638 28.532454  0.561537 0.023202 -0.827126  0.788110 0.434553 1 1 1.000000
0  44.388416 -32.124821 28.959133  0.852184 0.041591 -0.521588  0.792993 0.461898 1 1 1.000000
0  43.824100 -33.721424 29.069244  0.766651 -0.451169 -0.456829  0.657247 0.468734 1 1 1.000000
skin_0
0  43.438713 -32.276218 28.353525  0.199924 0.039751 -0.979005  0.780297 0.422834 1 1 1.000000
0  43.975498 -32.193638 28.532454  0.561537 0.023202 -0.827126  0.788110 0.434553 1 1 1.000000
0  42.833099 -33.872829 28.394815  0.326182 -0.266023 -0.907104  0.644551 0.425764 1 1 1.000000
skin_0
0  42.833099 -33.872829 28.394815  0.326182 -0.266023 -0.907104  0.644551 0.425764 1 1 1.000000
0  36.873356 -34.877590 28.147066  -0.210181 -0.132590 -0.968630  0.559587 0.410138 1 1 1.000000
0  36.625607 -33.418621 28.133303  -0.128984 0.072093 -0.989022  0.682638 0.409162 1 1 1.000000
skin_0
0  36.625607 -33.418621 28.133303  -0.128984 0.072093 -0.989022  0.682638 0.409162 1 1 1.000000
0  43.438713 -32.276218 28.353525  0.199924 0.039751 -0.979005  0.780297 0.422834 1 1 1.000000
0  42.833099 -33.872829 28.394815  0.326182 -0.266023 -0.907104  0.644551 0.425764 1 1 1.000000
skin_0
0  36.625607 -33.418621 28.133303  -0.128984 0.072093 -0.989022  0.682638 0.409162 1 1 1.000000
0  36.873356 -34.877590 28.147066  -0.210181 -0.132590 -0.968630  0.559587 0.410138 1 1 1.000000
0  35.992470 -33.528732 28.298470  -0.519361 0.022513 -0.854258  0.673849 0.418928 1 1 1.000000
skin_0
0  35.841068 -35.056519 28.780203  -0.699421 -0.197637 -0.686841  0.543962 0.451155 1 1 1.000000
0  35.648373 -33.583786 28.642567  -0.852628 0.018144 -0.522202  0.668966 0.442366 1 1 1.000000
0  35.992470 -33.528732 28.298470  -0.519361 0.022513 -0.854258  0.673849 0.418928 1 1 1.000000
skin_0
0  35.992470 -33.528732 28.298470  -0.519361 0.022513 -0.854258  0.673849 0.418928 1 1 1.000000
0  36.873356 -34.877590 28.147066  -0.210181 -0.132590 -0.968630  0.559587 0.410138 1 1 1.000000
0  35.841068 -35.056519 28.780203  -0.699421 -0.197637 -0.686841  0.543962 0.451155 1 1 1.000000
skin_0
0  35.648373 -33.583786 28.642567  -0.852628 0.018144 -0.522202  0.668966 0.442366 1 1 1.000000
0  35.841068 -35.056519 28.780203  -0.699421 -0.197637 -0.686841  0.543962 0.451155 1 1 1.000000
0  35.593315 -35.111576 29.220646  -0.936052 -0.160500 -0.313123  0.540056 0.478500 1 1 1.000000
skin_0
0  35.593315 -35.111576 29.220646  -0.936052 -0.160500 -0.313123  0.540056 0.478500 1 1 1.000000
0  35.455677 -33.625076 29.275703  -0.979777 0.038261 -0.196400  0.666036 0.481429 1 1 1.000000
0  35.648373 -33.583786 28.642567  -0.852628 0.018144 -0.522202  0.668966 0.442366 1 1 1.000000
skin_0
0  39.378376 -38.222202 30.817253  0.336756 -0.816232 0.469427  0.275399 0.581042 1 1 1.000000
0  38.401142 -38.841576 29.895077  0.373713 -0.923750 0.083807  0.222663 0.521470 1 1 1.000000
0  39.722469 -38.139618 30.583269  0.492244 -0.834322 0.248196  0.281259 0.565416 1 1 1.000000
skin_0
0  37.850590 -38.951687 30.087769  0.117884 -0.939812 0.320712  0.212897 0.534166 1 1 1.000000
0  38.401142 -38.841576 29.895077  0.373713 -0.923750 0.083807  0.222663 0.521470 1 1 1.000000
0  39.378376 -38.222202 30.817253  0.336756 -0.816232 0.469427  0.275399 0.581042 1 1 1.000000
skin_0
0  39.378376 -38.222202 30.817253  0.336756 -0.816232 0.469427  0.275399 0.581042 1 1 1.000000
0  37.946934 -38.483719 31.106297  0.036614 -0.780651 0.623894  0.252937 0.598621 1 1 1.000000
0  37.850590 -38.951687 30.087769  0.117884 -0.939812 0.320712  0.212897 0.534166 1 1 1.000000
skin_0
0  37.850590 -38.951687 30.087769  0.117884 -0.939812 0.320712  0.212897 0.534166 1 1 1.000000
0  37.946934 -38.483719 31.106297  0.036614 -0.780651 0.623894  0.252937 0.598621 1 1 1.000000
0  36.818298 -38.635120 30.638325  -0.449079 -0.762870 0.465141  0.239265 0.569323 1 1 1.000000
skin_0
0  36.818298 -38.635120 30.638325  -0.449079 -0.762870 0.465141  0.239265 0.569323 1 1 1.000000
0  37.258739 -39.020504 29.840023  -0.263859 -0.959032 0.103129  0.207038 0.518540 1 1 1.000000
0  37.850590 -38.951687 30.087769  0.117884 -0.939812 0.320712  0.212897 0.534166 1 1 1.000000
skin_0
0  39.722469 -38.139618 30.583269  0.492244 -0.834322 0.248196  0.281259 0.565416 1 1 1.000000
0  38.401142 -38.841576 29.895077  0.373713 -0.923750 0.083807  0.222663 0.521470 1 1 1.000000
0  39.983982 -38.043274 29.922604  0.567138 -0.818611 -0.090721  0.290048 0.523423 1 1 1.000000
skin_0
0  36.556786 -38.621357 29.991423  -0.742040 -0.670180 0.015369  0.240242 0.528306 1 1 1.000000
0  37.258739 -39.020504 29.840023  -0.263859 -0.959032 0.103129  0.207038 0.518540 1 1 1.000000
0  36.818298 -38.635120 30.638325  -0.449079 -0.762870 0.465141  0.239265 0.569323 1 1 1.000000
skin_0
0  38.401142 -38.841576 29.895077  0.373713 -0.923750 0.083807  0.222663 0.521470 1 1 1.000000
0  38.401142 -38.772758 29.385815  0.384211 -0.845422 -0.371003  0.227546 0.489242 1 1 1.000000
0  39.722469 -38.029507 29.316992  0.497128 -0.720280 -0.483799  0.291025 0.484359 1 1 1.000000
skin_0
0  39.722469 -38.029507 29.316992  0.497128 -0.720280 -0.483799  0.291025 0.484359 1 1 1.000000
0  39.983982 -38.043274 29.922604  0.567138 -0.818611 -0.090721  0.290048 0.523423 1 1 1.000000
0  38.401142 -38.841576 29.895077  0.373713 -0.923750 0.083807  0.222663 0.521470 1 1 1.000000
skin_0
0  37.258739 -39.020504 29.840023  -0.263859 -0.959032 0.103129  0.207038 0.518540 1 1 1.000000
0  36.556786 -38.621357 29.991423  -0.742040 -0.670180 0.015369  0.240242 0.528306 1 1 1.000000
0  36.694424 -38.538773 29.261940  -0.649702 -0.548144 -0.526711  0.248054 0.480453 1 1 1.000000
skin_0
0  36.694424 -38.538773 29.261940  -0.649702 -0.548144 -0.526711  0.248054 0.480453 1 1 1.000000
0  37.258739 -38.965450 29.372053  -0.303498 -0.861837 -0.406358  0.210944 0.488266 1 1 1.000000
0  37.258739 -39.020504 29.840023  -0.263859 -0.959032 0.103129  0.207038 0.518540 1 1 1.000000
skin_0
0  39.722469 -38.029507 29.316992  0.497128 -0.720280 -0.483799  0.291025 0.484359 1 1 1.000000
0  38.401142 -38.772758 29.385815  0.384211 -0.845422 -0.371003  0.227546 0.489242 1 1 1.000000
0  38.882874 -38.112091 28.862787  0.260159 -0.519004 -0.814219  0.283212 0.456038 1 1 1.000000
skin_0
0  38.401142 -38.772758 29.385815  0.384211 -0.845422 -0.371003  0.227546 0.489242 1 1 1.000000
0  37.809296 -38.855339 29.193119  0.112713 -0.760243 -0.639786  0.220710 0.476547 1 1 1.000000
0  38.882874 -38.112091 28.862787  0.260159 -0.519004 -0.814219  0.283212 0.456038 1 1 1.000000
skin_0
0  38.882874 -38.112091 28.862787  0.260159 -0.519004 -0.814219  0.283212 0.456038 1 1 1.000000
0  37.809296 -38.855339 29.193119  0.112713 -0.760243 -0.639786  0.220710 0.476547 1 1 1.000000
0  37.382618 -38.359840 28.807735  -0.186271 -0.421518 -0.887483  0.262703 0.452132 1 1 1.000000
skin_0
0  37.809296 -38.855339 29.193119  0.112713 -0.760243 -0.639786  0.220710 0.476547 1 1 1.000000
0  37.258739 -38.965450 29.372053  -0.303498 -0.861837 -0.406358  0.210944 0.488266 1 1 1.000000
0  37.382618 -38.359840 28.807735  -0.186271 -0.421518 -0.887483  0.262703 0.452132 1 1 1.000000
skin_0
0  37.382618 -38.359840 28.807735  -0.186271 -0.421518 -0.887483  0.262703 0.452132 1 1 1.000000
0  37.258739 -38.965450 29.372053  -0.303498 -0.861837 -0.406358  0.210944 0.488266 1 1 1.000000
0  36.694424 -38.538773 29.261940  -0.649702 -0.548144 -0.526711  0.248054 0.480453 1 1 1.000000
skin_0
0  37.850590 -38.951687 30.087769  0.117884 -0.939812 0.320712  0.212897 0.534166 1 1 1.000000
0  37.809296 -39.061798 29.619799  0.146045 -0.983016 -0.111134  0.204108 0.503891 1 1 1.000000
0  38.401142 -38.841576 29.895077  0.373713 -0.923750 0.083807  0.222663 0.521470 1 1 1.000000
skin_0
0  37.258739 -39.020504 29.840023  -0.263859 -0.959032 0.103129  0.207038 0.518540 1 1 1.000000
0  37.809296 -39.061798 29.619799  0.146045 -0.983016 -0.111134  0.204108 0.503891 1 1 1.000000
0  37.850590 -38.951687 30.087769  0.117884 -0.939812 0.320712  0.212897 0.534166 1 1 1.000000
skin_0
0  38.401142 -38.841576 29.895077  0.373713 -0.923750 0.083807  0.222663 0.521470 1 1 1.000000
0  37.809296 -39.061798 29.619799  0.146045 -0.983016 -0.111134  0.204108 0.503891 1 1 1.000000
0  38.401142 -38.772758 29.385815  0.384211 -0.845422 -0.371003  0.227546 0.489242 1 1 1.000000
skin_0
0  37.258739 -38.965450 29.372053  -0.303498 -0.861837 -0.406358  0.210944 0.488266 1 1 1.000000
0  37.809296 -39.061798 29.619799  0.146045 -0.983016 -0.111134  0.204108 0.503891 1 1 1.000000
0  37.258739 -39.020504 29.840023  -0.263859 -0.959032 0.103129  0.207038 0.518540 1 1 1.000000
skin_0
0  38.401142 -38.772758 29.385815  0.384211 -0.845422 -0.371003  0.227546 0.489242 1 1 1.000000
0  37.809296 -39.061798 29.619799  0.146045 -0.983016 -0.111134  0.204108 0.503891 1 1 1.000000
0  37.809296 -38.855339 29.193119  0.112713 -0.760243 -0.639786  0.220710 0.476547 1 1 1.000000
skin_0
0  37.809296 -38.855339 29.193119  0.112713 -0.760243 -0.639786  0.220710 0.476547 1 1 1.000000
0  37.809296 -39.061798 29.619799  0.146045 -0.983016 -0.111134  0.204108 0.503891 1 1 1.000000
0  37.258739 -38.965450 29.372053  -0.303498 -0.861837 -0.406358  0.210944 0.488266 1 1 1.000000
skin_0
0  42.571590 -33.982937 33.074524  0.464651 -0.480141 0.744019  0.634785 0.724601 1 1 1.000000
0  41.002506 -36.377846 32.097294  0.356835 -0.650838 0.670133  0.431654 0.662099 1 1 1.000000
0  41.910923 -36.212681 31.615557  0.586995 -0.687130 0.428124  0.445326 0.630848 1 1 1.000000
skin_0
0  41.910923 -36.212681 31.615557  0.586995 -0.687130 0.428124  0.445326 0.630848 1 1 1.000000
0  43.507530 -33.831535 32.441387  0.727729 -0.482183 0.487760  0.648457 0.684561 1 1 1.000000
0  42.571590 -33.982937 33.074524  0.464651 -0.480141 0.744019  0.634785 0.724601 1 1 1.000000
skin_0
0  41.415424 -34.175632 33.528732  0.245830 -0.402088 0.881982  0.618183 0.753899 1 1 1.000000
0  39.282028 -36.666889 32.427624  0.129346 -0.593364 0.794474  0.407239 0.683584 1 1 1.000000
0  41.002506 -36.377846 32.097294  0.356835 -0.650838 0.670133  0.431654 0.662099 1 1 1.000000
skin_0
0  41.002506 -36.377846 32.097294  0.356835 -0.650838 0.670133  0.431654 0.662099 1 1 1.000000
0  42.571590 -33.982937 33.074524  0.464651 -0.480141 0.744019  0.634785 0.724601 1 1 1.000000
0  41.415424 -34.175632 33.528732  0.245830 -0.402088 0.881982  0.618183 0.753899 1 1 1.000000
skin_0
0  36.873356 -34.946407 33.377331  -0.171963 -0.432193 0.885233  0.553728 0.744133 1 1 1.000000
0  37.368851 -36.969692 32.207401  -0.134230 -0.565930 0.813453  0.381848 0.668935 1 1 1.000000
0  39.282028 -36.666889 32.427624  0.129346 -0.593364 0.794474  0.407239 0.683584 1 1 1.000000
skin_0
0  39.282028 -36.666889 32.427624  0.129346 -0.593364 0.794474  0.407239 0.683584 1 1 1.000000
0  39.447193 -34.505962 33.666370  0.055203 -0.366105 0.928935  0.587909 0.763665 1 1 1.000000
0  36.873356 -34.946407 33.377331  -0.171963 -0.432193 0.885233  0.553728 0.744133 1 1 1.000000
skin_0
0  35.854832 -35.111576 32.757957  -0.670272 -0.373101 0.641507  0.540056 0.704093 1 1 1.000000
0  35.607079 -35.152866 32.386333  -0.896562 -0.277848 0.344931  0.536149 0.680654 1 1 1.000000
0  36.198925 -37.176151 31.684378  -0.639739 -0.530099 0.556532  0.364269 0.635731 1 1 1.000000
skin_0
0  36.253979 -35.042755 33.102051  -0.426378 -0.436017 0.792522  0.544939 0.725578 1 1 1.000000
0  35.854832 -35.111576 32.757957  -0.670272 -0.373101 0.641507  0.540056 0.704093 1 1 1.000000
0  36.198925 -37.176151 31.684378  -0.639739 -0.530099 0.556532  0.364269 0.635731 1 1 1.000000
skin_0
0  43.507530 -33.831535 32.441387  0.727729 -0.482183 0.487760  0.648457 0.684561 1 1 1.000000
0  41.910923 -36.212681 31.615557  0.586995 -0.687130 0.428124  0.445326 0.630848 1 1 1.000000
0  42.447712 -36.075043 30.390574  0.728483 -0.684454 -0.028891  0.457045 0.552721 1 1 1.000000
skin_0
0  42.447712 -36.075043 30.390574  0.728483 -0.684454 -0.028891  0.457045 0.552721 1 1 1.000000
0  44.085609 -33.707661 30.886074  0.896355 -0.432544 0.097230  0.658223 0.584948 1 1 1.000000
0  43.507530 -33.831535 32.441387  0.727729 -0.482183 0.487760  0.648457 0.684561 1 1 1.000000
skin_0
0  35.373093 -35.166630 30.872309  -0.985823 -0.165508 0.027579  0.534196 0.583972 1 1 1.000000
0  35.841068 -37.189915 30.376812  -0.932566 -0.360118 0.025219  0.363292 0.552721 1 1 1.000000
0  36.198925 -37.176151 31.684378  -0.639739 -0.530099 0.556532  0.364269 0.635731 1 1 1.000000
skin_0
0  36.198925 -37.176151 31.684378  -0.639739 -0.530099 0.556532  0.364269 0.635731 1 1 1.000000
0  35.607079 -35.152866 32.386333  -0.896562 -0.277848 0.344931  0.536149 0.680654 1 1 1.000000
0  35.373093 -35.166630 30.872309  -0.985823 -0.165508 0.027579  0.534196 0.583972 1 1 1.000000
skin_0
0  42.447712 -36.075043 30.390574  0.728483 -0.684454 -0.028891  0.457045 0.552721 1 1 1.000000
0  41.828339 -36.102570 29.124300  0.567130 -0.595048 -0.569457  0.454115 0.472640 1 1 1.000000
0  43.824100 -33.721424 29.069244  0.766651 -0.451169 -0.456829  0.657247 0.468734 1 1 1.000000
skin_0
0  43.824100 -33.721424 29.069244  0.766651 -0.451169 -0.456829  0.657247 0.468734 1 1 1.000000
0  44.085609 -33.707661 30.886074  0.896355 -0.432544 0.097230  0.658223 0.584948 1 1 1.000000
0  42.447712 -36.075043 30.390574  0.728483 -0.684454 -0.028891  0.457045 0.552721 1 1 1.000000
skin_0
0  35.593315 -35.111576 29.220646  -0.936052 -0.160500 -0.313123  0.540056 0.478500 1 1 1.000000
0  36.116341 -37.066040 29.096773  -0.753370 -0.294711 -0.587860  0.373058 0.470687 1 1 1.000000
0  35.841068 -37.189915 30.376812  -0.932566 -0.360118 0.025219  0.363292 0.552721 1 1 1.000000
skin_0
0  35.841068 -37.189915 30.376812  -0.932566 -0.360118 0.025219  0.363292 0.552721 1 1 1.000000
0  35.373093 -35.166630 30.872309  -0.985823 -0.165508 0.027579  0.534196 0.583972 1 1 1.000000
0  35.593315 -35.111576 29.220646  -0.936052 -0.160500 -0.313123  0.540056 0.478500 1 1 1.000000
skin_0
0  41.828339 -36.102570 29.124300  0.567130 -0.595048 -0.569457  0.454115 0.472640 1 1 1.000000
0  40.355610 -36.322792 28.504927  0.232075 -0.319676 -0.918667  0.436537 0.432600 1 1 1.000000
0  42.833099 -33.872829 28.394815  0.326182 -0.266023 -0.907104  0.644551 0.425764 1 1 1.000000
skin_0
0  42.833099 -33.872829 28.394815  0.326182 -0.266023 -0.907104  0.644551 0.425764 1 1 1.000000
0  43.824100 -33.721424 29.069244  0.766651 -0.451169 -0.456829  0.657247 0.468734 1 1 1.000000
0  41.828339 -36.102570 29.124300  0.567130 -0.595048 -0.569457  0.454115 0.472640 1 1 1.000000
skin_0
0  40.355610 -36.322792 28.504927  0.232075 -0.319676 -0.918667  0.436537 0.432600 1 1 1.000000
0  37.368851 -36.818291 28.408581  -0.175213 -0.217226 -0.960267  0.394543 0.426740 1 1 1.000000
0  36.873356 -34.877590 28.147066  -0.210181 -0.132590 -0.968630  0.559587 0.410138 1 1 1.000000
skin_0
0  36.873356 -34.877590 28.147066  -0.210181 -0.132590 -0.968630  0.559587 0.410138 1 1 1.000000
0  42.833099 -33.872829 28.394815  0.326182 -0.266023 -0.907104  0.644551 0.425764 1 1 1.000000
0  40.355610 -36.322792 28.504927  0.232075 -0.319676 -0.918667  0.436537 0.432600 1 1 1.000000
skin_0
0  36.873356 -34.877590 28.147066  -0.210181 -0.132590 -0.968630  0.559587 0.410138 1 1 1.000000
0  37.368851 -36.818291 28.408581  -0.175213 -0.217226 -0.960267  0.394543 0.426740 1 1 1.000000
0  36.116341 -37.066040 29.096773  -0.753370 -0.294711 -0.587860  0.373058 0.470687 1 1 1.000000
skin_0
0  36.116341 -37.066040 29.096773  -0.753370 -0.294711 -0.587860  0.373058 0.470687 1 1 1.000000
0  35.841068 -35.056519 28.780203  -0.699421 -0.197637 -0.686841  0.543962 0.451155 1 1 1.000000
0  36.873356 -34.877590 28.147066  -0.210181 -0.132590 -0.968630  0.559587 0.410138 1 1 1.000000
skin_0
0  35.593315 -35.111576 29.220646  -0.936052 -0.160500 -0.313123  0.540056 0.478500 1 1 1.000000
0  35.841068 -35.056519 28.780203  -0.699421 -0.197637 -0.686841  0.543962 0.451155 1 1 1.000000
0  36.116341 -37.066040 29.096773  -0.753370 -0.294711 -0.587860  0.373058 0.470687 1 1 1.000000
skin_0
0  41.415424 -34.175632 33.528732  0.245830 -0.402088 0.881982  0.618183 0.753899 1 1 1.000000
0  39.447193 -34.505962 33.666370  0.055203 -0.366105 0.928935  0.587909 0.763665 1 1 1.000000
0  39.282028 -36.666889 32.427624  0.129346 -0.593364 0.794474  0.407239 0.683584 1 1 1.000000
skin_0
0  41.002506 -36.377846 32.097294  0.356835 -0.650838 0.670133  0.431654 0.662099 1 1 1.000000
0  39.378376 -38.222202 30.817253  0.336756 -0.816232 0.469427  0.275399 0.581042 1 1 1.000000
0  39.722469 -38.139618 30.583269  0.492244 -0.834322 0.248196  0.281259 0.565416 1 1 1.000000
skin_0
0  39.722469 -38.139618 30.583269  0.492244 -0.834322 0.248196  0.281259 0.565416 1 1 1.000000
0  41.910923 -36.212681 31.615557  0.586995 -0.687130 0.428124  0.445326 0.630848 1 1 1.000000
0  41.002506 -36.377846 32.097294  0.356835 -0.650838 0.670133  0.431654 0.662099 1 1 1.000000
skin_0
0  37.946934 -38.483719 31.106297  0.036614 -0.780651 0.623894  0.252937 0.598621 1 1 1.000000
0  39.378376 -38.222202 30.817253  0.336756 -0.816232 0.469427  0.275399 0.581042 1 1 1.000000
0  39.282028 -36.666889 32.427624  0.129346 -0.593364 0.794474  0.407239 0.683584 1 1 1.000000
skin_0
0  37.946934 -38.483719 31.106297  0.036614 -0.780651 0.623894  0.252937 0.598621 1 1 1.000000
0  39.282028 -36.666889 32.427624  0.129346 -0.593364 0.794474  0.407239 0.683584 1 1 1.000000
0  37.368851 -36.969692 32.207401  -0.134230 -0.565930 0.813453  0.381848 0.668935 1 1 1.000000
skin_0
0  41.910923 -36.212681 31.615557  0.586995 -0.687130 0.428124  0.445326 0.630848 1 1 1.000000
0  39.722469 -38.139618 30.583269  0.492244 -0.834322 0.248196  0.281259 0.565416 1 1 1.000000
0  39.983982 -38.043274 29.922604  0.567138 -0.818611 -0.090721  0.290048 0.523423 1 1 1.000000
skin_0
0  39.983982 -38.043274 29.922604  0.567138 -0.818611 -0.090721  0.290048 0.523423 1 1 1.000000
0  42.447712 -36.075043 30.390574  0.728483 -0.684454 -0.028891  0.457045 0.552721 1 1 1.000000
0  41.910923 -36.212681 31.615557  0.586995 -0.687130 0.428124  0.445326 0.630848 1 1 1.000000
skin_0
0  35.841068 -37.189915 30.376812  -0.932566 -0.360118 0.025219  0.363292 0.552721 1 1 1.000000
0  36.556786 -38.621357 29.991423  -0.742040 -0.670180 0.015369  0.240242 0.528306 1 1 1.000000
0  36.818298 -38.635120 30.638325  -0.449079 -0.762870 0.465141  0.239265 0.569323 1 1 1.000000
skin_0
0  36.818298 -38.635120 30.638325  -0.449079 -0.762870 0.465141  0.239265 0.569323 1 1 1.000000
0  36.198925 -37.176151 31.684378  -0.639739 -0.530099 0.556532  0.364269 0.635731 1 1 1.000000
0  35.841068 -37.189915 30.376812  -0.932566 -0.360118 0.025219  0.363292 0.552721 1 1 1.000000
skin_0
0  39.983982 -38.043274 29.922604  0.567138 -0.818611 -0.090721  0.290048 0.523423 1 1 1.000000
0  39.722469 -38.029507 29.316992  0.497128 -0.720280 -0.483799  0.291025 0.484359 1 1 1.000000
0  41.828339 -36.102570 29.124300  0.567130 -0.595048 -0.569457  0.454115 0.472640 1 1 1.000000
skin_0
0  41.828339 -36.102570 29.124300  0.567130 -0.595048 -0.569457  0.454115 0.472640 1 1 1.000000
0  42.447712 -36.075043 30.390574  0.728483 -0.684454 -0.028891  0.457045 0.552721 1 1 1.000000
0  39.983982 -38.043274 29.922604  0.567138 -0.818611 -0.090721  0.290048 0.523423 1 1 1.000000
skin_0
0  36.116341 -37.066040 29.096773  -0.753370 -0.294711 -0.587860  0.373058 0.470687 1 1 1.000000
0  36.694424 -38.538773 29.261940  -0.649702 -0.548144 -0.526711  0.248054 0.480453 1 1 1.000000
0  36.556786 -38.621357 29.991423  -0.742040 -0.670180 0.015369  0.240242 0.528306 1 1 1.000000
skin_0
0  36.556786 -38.621357 29.991423  -0.742040 -0.670180 0.015369  0.240242 0.528306 1 1 1.000000
0  35.841068 -37.189915 30.376812  -0.932566 -0.360118 0.025219  0.363292 0.552721 1 1 1.000000
0  36.116341 -37.066040 29.096773  -0.753370 -0.294711 -0.587860  0.373058 0.470687 1 1 1.000000
skin_0
0  39.722469 -38.029507 29.316992  0.497128 -0.720280 -0.483799  0.291025 0.484359 1 1 1.000000
0  38.882874 -38.112091 28.862787  0.260159 -0.519004 -0.814219  0.283212 0.456038 1 1 1.000000
0  40.355610 -36.322792 28.504927  0.232075 -0.319676 -0.918667  0.436537 0.432600 1 1 1.000000
skin_0
0  40.355610 -36.322792 28.504927  0.232075 -0.319676 -0.918667  0.436537 0.432600 1 1 1.000000
0  41.828339 -36.102570 29.124300  0.567130 -0.595048 -0.569457  0.454115 0.472640 1 1 1.000000
0  39.722469 -38.029507 29.316992  0.497128 -0.720280 -0.483799  0.291025 0.484359 1 1 1.000000
skin_0
0  37.368851 -36.818291 28.408581  -0.175213 -0.217226 -0.960267  0.394543 0.426740 1 1 1.000000
0  40.355610 -36.322792 28.504927  0.232075 -0.319676 -0.918667  0.436537 0.432600 1 1 1.000000
0  38.882874 -38.112091 28.862787  0.260159 -0.519004 -0.814219  0.283212 0.456038 1 1 1.000000
skin_0
0  38.882874 -38.112091 28.862787  0.260159 -0.519004 -0.814219  0.283212 0.456038 1 1 1.000000
0  37.382618 -38.359840 28.807735  -0.186271 -0.421518 -0.887483  0.262703 0.452132 1 1 1.000000
0  37.368851 -36.818291 28.408581  -0.175213 -0.217226 -0.960267  0.394543 0.426740 1 1 1.000000
skin_0
0  37.368851 -36.818291 28.408581  -0.175213 -0.217226 -0.960267  0.394543 0.426740 1 1 1.000000
0  37.382618 -38.359840 28.807735  -0.186271 -0.421518 -0.887483  0.262703 0.452132 1 1 1.000000
0  36.694424 -38.538773 29.261940  -0.649702 -0.548144 -0.526711  0.248054 0.480453 1 1 1.000000
skin_0
0  36.694424 -38.538773 29.261940  -0.649702 -0.548144 -0.526711  0.248054 0.480453 1 1 1.000000
0  36.116341 -37.066040 29.096773  -0.753370 -0.294711 -0.587860  0.373058 0.470687 1 1 1.000000
0  37.368851 -36.818291 28.408581  -0.175213 -0.217226 -0.960267  0.394543 0.426740 1 1 1.000000
skin_0
0  39.557304 -32.950649 33.996700  0.025596 -0.037485 0.998969  0.723655 0.783197 1 1 1.000000
0  39.447193 -34.505962 33.666370  0.055203 -0.366105 0.928935  0.587909 0.763665 1 1 1.000000
0  41.415424 -34.175632 33.528732  0.245830 -0.402088 0.881982  0.618183 0.753899 1 1 1.000000
skin_0
0  41.415424 -34.175632 33.528732  0.245830 -0.402088 0.881982  0.618183 0.753899 1 1 1.000000
0  42.585354 -32.441387 33.762718  0.261330 -0.084703 0.961526  0.766625 0.768548 1 1 1.000000
0  39.557304 -32.950649 33.996700  0.025596 -0.037485 0.998969  0.723655 0.783197 1 1 1.000000
skin_0
0  36.873356 -34.946407 33.377331  -0.171963 -0.432193 0.885233  0.553728 0.744133 1 1 1.000000
0  36.253979 -35.042755 33.102051  -0.426378 -0.436017 0.792522  0.544939 0.725578 1 1 1.000000
0  36.198925 -37.176151 31.684378  -0.639739 -0.530099 0.556532  0.364269 0.635731 1 1 1.000000
skin_0
0  36.198925 -37.176151 31.684378  -0.639739 -0.530099 0.556532  0.364269 0.635731 1 1 1.000000
0  37.368851 -36.969692 32.207401  -0.134230 -0.565930 0.813453  0.381848 0.668935 1 1 1.000000
0  36.873356 -34.946407 33.377331  -0.171963 -0.432193 0.885233  0.553728 0.744133 1 1 1.000000
skin_0
0  36.198925 -37.176151 31.684378  -0.639739 -0.530099 0.556532  0.364269 0.635731 1 1 1.000000
0  36.818298 -38.635120 30.638325  -0.449079 -0.762870 0.465141  0.239265 0.569323 1 1 1.000000
0  37.946934 -38.483719 31.106297  0.036614 -0.780651 0.623894  0.252937 0.598621 1 1 1.000000
skin_0
0  37.946934 -38.483719 31.106297  0.036614 -0.780651 0.623894  0.252937 0.598621 1 1 1.000000
0  37.368851 -36.969692 32.207401  -0.134230 -0.565930 0.813453  0.381848 0.668935 1 1 1.000000
0  36.198925 -37.176151 31.684378  -0.639739 -0.530099 0.556532  0.364269 0.635731 1 1 1.000000
skin_0
0  39.378376 -38.222202 30.817253  0.336756 -0.816232 0.469427  0.275399 0.581042 1 1 1.000000
0  41.002506 -36.377846 32.097294  0.356835 -0.650838 0.670133  0.431654 0.662099 1 1 1.000000
0  39.282028 -36.666889 32.427624  0.129346 -0.593364 0.794474  0.407239 0.683584 1 1 1.000000
chrome
0  43.122143 -31.808250 32.413860  -0.164215 0.986424 -0.000591  0.727561 0.833003 1 1 1.000000
0  36.226452 -32.950649 32.427624  -0.165069 0.986282 -0.000017  0.730491 0.128880 1 1 1.000000
0  36.556786 -32.895596 32.978180  -0.165015 0.986291 0.000095  0.822291 0.163060 1 1 1.000000
chrome
0  43.122143 -31.808250 32.413860  -0.164215 0.986424 -0.000591  0.727561 0.833003 1 1 1.000000
0  36.556786 -32.895596 32.978180  -0.165015 0.986291 0.000095  0.822291 0.163060 1 1 1.000000
0  37.176159 -32.799248 33.239693  -0.165072 0.986281 0.000026  0.866237 0.226539 1 1 1.000000
chrome
0  43.122143 -31.808250 32.413860  -0.164215 0.986424 -0.000591  0.727561 0.833003 1 1 1.000000
0  37.176159 -32.799248 33.239693  -0.165072 0.986281 0.000026  0.866237 0.226539 1 1 1.000000
0  39.626125 -32.386333 33.322277  -0.165072 0.986282 -0.000032  0.880886 0.475570 1 1 1.000000
chrome
0  43.122143 -31.808250 32.413860  -0.164215 0.986424 -0.000591  0.727561 0.833003 1 1 1.000000
0  39.626125 -32.386333 33.322277  -0.165072 0.986282 -0.000032  0.880886 0.475570 1 1 1.000000
0  42.131145 -31.973413 33.157104  -0.165068 0.986282 0.000015  0.852565 0.731437 1 1 1.000000
chrome
0  43.122143 -31.808250 32.413860  -0.164215 0.986424 -0.000591  0.727561 0.833003 1 1 1.000000
0  42.131145 -31.973413 33.157104  -0.165068 0.986282 0.000015  0.852565 0.731437 1 1 1.000000
0  42.695461 -31.877069 32.895596  -0.165077 0.986281 0.000024  0.808618 0.789056 1 1 1.000000
chrome
0  43.452477 -31.753193 31.188877  -0.164408 0.986392 0.000488  0.520524 0.866207 1 1 1.000000
0  36.130104 -32.978180 31.175116  -0.164967 0.986299 -0.000439  0.519547 0.119114 1 1 1.000000
0  36.226452 -32.950649 32.427624  -0.165069 0.986282 -0.000017  0.730491 0.128880 1 1 1.000000
chrome
0  36.226452 -32.950649 32.427624  -0.165069 0.986282 -0.000017  0.730491 0.128880 1 1 1.000000
0  43.122143 -31.808250 32.413860  -0.164215 0.986424 -0.000591  0.727561 0.833003 1 1 1.000000
0  43.452477 -31.753193 31.188877  -0.164408 0.986392 0.000488  0.520524 0.866207 1 1 1.000000
chrome
0  36.130104 -32.978180 31.175116  -0.164967 0.986299 -0.000439  0.519547 0.119114 1 1 1.000000
0  43.452477 -31.753193 31.188877  -0.164408 0.986392 0.000488  0.520524 0.866207 1 1 1.000000
0  43.603874 -31.725666 29.826258  -0.165060 0.986283 -0.000038  0.292001 0.881832 1 1 1.000000
chrome
0  43.603874 -31.725666 29.826258  -0.165060 0.986283 -0.000038  0.292001 0.881832 1 1 1.000000
0  36.240215 -32.950649 29.661089  -0.165086 0.986279 -0.000001  0.262703 0.129856 1 1 1.000000
0  36.130104 -32.978180 31.175116  -0.164967 0.986299 -0.000439  0.519547 0.119114 1 1 1.000000
chrome
0  36.240215 -32.950649 29.661089  -0.165086 0.986279 -0.000001  0.262703 0.129856 1 1 1.000000
0  43.603874 -31.725666 29.826258  -0.165060 0.986283 -0.000038  0.292001 0.881832 1 1 1.000000
0  43.301071 -31.780724 29.275702  -0.164999 0.986294 -0.000150  0.198248 0.850581 1 1 1.000000
chrome
0  36.240215 -32.950649 29.661089  -0.165086 0.986279 -0.000001  0.262703 0.129856 1 1 1.000000
0  43.301071 -31.780724 29.275702  -0.164999 0.986294 -0.000150  0.198248 0.850581 1 1 1.000000
0  42.681698 -31.877069 28.986660  -0.165072 0.986281 -0.000029  0.149419 0.788080 1 1 1.000000
chrome
0  36.240215 -32.950649 29.661089  -0.165086 0.986279 -0.000001  0.262703 0.129856 1 1 1.000000
0  42.681698 -31.877069 28.986660  -0.165072 0.986281 -0.000029  0.149419 0.788080 1 1 1.000000
0  37.148628 -32.799248 28.793972  -0.165073 0.986281 0.000004  0.118168 0.222633 1 1 1.000000
chrome
0  36.240215 -32.950649 29.661089  -0.165086 0.986279 -0.000001  0.262703 0.129856 1 1 1.000000
0  37.148628 -32.799248 28.793972  -0.165073 0.986281 0.000004  0.118168 0.222633 1 1 1.000000
0  36.543022 -32.909359 29.055483  -0.165106 0.986276 0.000001  0.162114 0.160131 1 1 1.000000
paintblack
0  43.466240 -31.106297 32.620316  -0.133811 0.990918 0.013312  0.144536 0.617176 1 1 1.000000
0  43.411179 -31.987183 32.523968  -0.889558 0.103634 -0.444912  0.164068 0.616199 1 1 1.000000
0  42.956974 -32.069763 33.046997  -0.595973 0.138728 -0.790930  0.207038 0.673818 1 1 1.000000
paintblack
0  42.956974 -32.069763 33.046997  -0.595973 0.138728 -0.790930  0.207038 0.673818 1 1 1.000000
0  43.135906 -31.161350 33.033234  -0.210634 0.977498 0.011478  0.176763 0.661122 1 1 1.000000
0  43.466240 -31.106297 32.620316  -0.133811 0.990918 0.013312  0.144536 0.617176 1 1 1.000000
paintblack
0  42.736752 -31.230169 33.294746  -0.182457 0.982623 -0.034077  0.214850 0.691397 1 1 1.000000
0  43.135906 -31.161350 33.033234  -0.210634 0.977498 0.011478  0.176763 0.661122 1 1 1.000000
0  42.956974 -32.069763 33.046997  -0.595973 0.138728 -0.790930  0.207038 0.673818 1 1 1.000000
paintblack
0  42.736752 -31.230169 33.294746  -0.182457 0.982623 -0.034077  0.214850 0.691397 1 1 1.000000
0  42.956974 -32.069763 33.046997  -0.595973 0.138728 -0.790930  0.207038 0.673818 1 1 1.000000
0  42.227493 -32.193638 33.363567  -0.239834 0.167161 -0.956314  0.280282 0.708975 1 1 1.000000
paintblack
0  42.227493 -32.193638 33.363567  -0.239834 0.167161 -0.956314  0.280282 0.708975 1 1 1.000000
0  42.227493 -31.312750 33.501202  -0.205486 0.978598 0.011004  0.266610 0.713858 1 1 1.000000
0  42.736752 -31.230169 33.294746  -0.182457 0.982623 -0.034077  0.214850 0.691397 1 1 1.000000
paintblack
0  39.474724 -31.780724 33.707661  -0.158063 0.985969 -0.053682  0.536149 0.737297 1 1 1.000000
0  39.612362 -32.620316 33.528732  -0.048242 0.200620 -0.978481  0.536149 0.727531 1 1 1.000000
0  37.066048 -33.046997 33.446148  0.163946 0.247138 -0.955010  0.785180 0.717765 1 1 1.000000
paintblack
0  37.066048 -33.046997 33.446148  0.163946 0.247138 -0.955010  0.785180 0.717765 1 1 1.000000
0  36.777008 -32.234928 33.597549  -0.087103 0.996003 0.019799  0.799829 0.725578 1 1 1.000000
0  39.474724 -31.780724 33.707661  -0.158063 0.985969 -0.053682  0.536149 0.737297 1 1 1.000000
paintblack
0  36.777008 -32.234928 33.597549  -0.087103 0.996003 0.019799  0.799829 0.725578 1 1 1.000000
0  37.066048 -33.046997 33.446148  0.163946 0.247138 -0.955010  0.785180 0.717765 1 1 1.000000
0  36.364090 -33.170868 33.129578  0.566558 0.375850 -0.733314  0.854518 0.683584 1 1 1.000000
paintblack
0  36.364090 -33.170868 33.129578  0.566558 0.375850 -0.733314  0.854518 0.683584 1 1 1.000000
0  36.253979 -32.317516 33.418621  -0.170328 0.985349 0.008705  0.850612 0.705069 1 1 1.000000
0  36.777008 -32.234928 33.597549  -0.087103 0.996003 0.019799  0.799829 0.725578 1 1 1.000000
paintblack
0  35.937412 -32.372570 33.157104  -0.140882 0.989997 0.007661  0.881863 0.675771 1 1 1.000000
0  36.364090 -33.170868 33.129578  0.566558 0.375850 -0.733314  0.854518 0.683584 1 1 1.000000
0  36.019997 -33.225929 32.551498  0.876740 0.397007 -0.271499  0.888699 0.618152 1 1 1.000000
paintblack
0  36.019997 -33.225929 32.551498  0.876740 0.397007 -0.271499  0.888699 0.618152 1 1 1.000000
0  35.703426 -32.413860 32.730427  -0.177912 0.983508 -0.032556  0.905301 0.628895 1 1 1.000000
0  35.937412 -32.372570 33.157104  -0.140882 0.989997 0.007661  0.881863 0.675771 1 1 1.000000
paintblack
0  35.937412 -32.372570 33.157104  -0.140882 0.989997 0.007661  0.881863 0.675771 1 1 1.000000
0  36.253979 -32.317516 33.418621  -0.170328 0.985349 0.008705  0.850612 0.705069 1 1 1.000000
0  36.364090 -33.170868 33.129578  0.566558 0.375850 -0.733314  0.854518 0.683584 1 1 1.000000
paintblack
0  43.810337 -31.051237 31.175114  -0.223523 0.974663 -0.008287  0.110355 0.456038 1 1 1.000000
0  43.741512 -31.932123 31.188877  -0.981991 0.075501 -0.173184  0.130863 0.467757 1 1 1.000000
0  43.411179 -31.987183 32.523968  -0.889558 0.103634 -0.444912  0.164068 0.616199 1 1 1.000000
paintblack
0  43.411179 -31.987183 32.523968  -0.889558 0.103634 -0.444912  0.164068 0.616199 1 1 1.000000
0  43.466240 -31.106297 32.620316  -0.133811 0.990918 0.013312  0.144536 0.617176 1 1 1.000000
0  43.810337 -31.051237 31.175114  -0.223523 0.974663 -0.008287  0.110355 0.456038 1 1 1.000000
paintblack
0  35.703426 -32.413860 32.730427  -0.177912 0.983508 -0.032556  0.905301 0.628895 1 1 1.000000
0  36.019997 -33.225929 32.551498  0.876740 0.397007 -0.271499  0.888699 0.618152 1 1 1.000000
0  35.909885 -33.239693 31.175116  0.924466 0.381173 -0.008368  0.898465 0.466781 1 1 1.000000
paintblack
0  35.909885 -33.239693 31.175116  0.924466 0.381173 -0.008368  0.898465 0.466781 1 1 1.000000
0  35.579552 -32.427624 31.175116  -0.089949 0.995937 -0.004305  0.917997 0.456038 1 1 1.000000
0  35.703426 -32.413860 32.730427  -0.177912 0.983508 -0.032556  0.905301 0.628895 1 1 1.000000
paintblack
0  43.975498 -31.023710 29.647324  -0.128938 0.990745 0.042406  0.094729 0.286111 1 1 1.000000
0  43.892918 -31.904596 29.716146  -0.978060 0.127609 0.164665  0.116214 0.303690 1 1 1.000000
0  43.741512 -31.932123 31.188877  -0.981991 0.075501 -0.173184  0.130863 0.467757 1 1 1.000000
paintblack
0  43.741512 -31.932123 31.188877  -0.981991 0.075501 -0.173184  0.130863 0.467757 1 1 1.000000
0  43.810337 -31.051237 31.175114  -0.223523 0.974663 -0.008287  0.110355 0.456038 1 1 1.000000
0  43.975498 -31.023710 29.647324  -0.128938 0.990745 0.042406  0.094729 0.286111 1 1 1.000000
paintblack
0  35.579552 -32.427624 31.175116  -0.089949 0.995937 -0.004305  0.917997 0.456038 1 1 1.000000
0  35.909885 -33.239693 31.175116  0.924466 0.381173 -0.008368  0.898465 0.466781 1 1 1.000000
0  36.019997 -33.225929 29.537216  0.893840 0.362275 0.264211  0.887722 0.285134 1 1 1.000000
paintblack
0  36.019997 -33.225929 29.537216  0.893840 0.362275 0.264211  0.887722 0.285134 1 1 1.000000
0  35.703426 -32.413860 29.495926  -0.122636 0.989924 0.070789  0.905301 0.269509 1 1 1.000000
0  35.579552 -32.427624 31.175116  -0.089949 0.995937 -0.004305  0.917997 0.456038 1 1 1.000000
paintblack
0  43.810337 -31.051237 29.206881  -0.173183 0.984886 0.002838  0.111332 0.237281 1 1 1.000000
0  43.562584 -31.959650 29.110535  -0.674178 0.188454 0.714121  0.148442 0.238258 1 1 1.000000
0  43.892918 -31.904596 29.716146  -0.978060 0.127609 0.164665  0.116214 0.303690 1 1 1.000000
paintblack
0  43.892918 -31.904596 29.716146  -0.978060 0.127609 0.164665  0.116214 0.303690 1 1 1.000000
0  43.975498 -31.023710 29.647324  -0.128938 0.990745 0.042406  0.094729 0.286111 1 1 1.000000
0  43.810337 -31.051237 29.206881  -0.173183 0.984886 0.002838  0.111332 0.237281 1 1 1.000000
paintblack
0  43.810337 -31.051237 29.206881  -0.173183 0.984886 0.002838  0.111332 0.237281 1 1 1.000000
0  43.438713 -31.120060 28.821497  -0.144639 0.989176 -0.024704  0.147465 0.194311 1 1 1.000000
0  43.562584 -31.959650 29.110535  -0.674178 0.188454 0.714121  0.148442 0.238258 1 1 1.000000
paintblack
0  42.970737 -31.188877 28.670092  -0.257109 0.966371 0.004624  0.193365 0.177709 1 1 1.000000
0  42.915684 -32.069763 28.807734  -0.230681 0.167274 0.958543  0.212897 0.204077 1 1 1.000000
0  43.562584 -31.959650 29.110535  -0.674178 0.188454 0.714121  0.148442 0.238258 1 1 1.000000
paintblack
0  43.562584 -31.959650 29.110535  -0.674178 0.188454 0.714121  0.148442 0.238258 1 1 1.000000
0  43.438713 -31.120060 28.821497  -0.144639 0.989176 -0.024704  0.147465 0.194311 1 1 1.000000
0  42.970737 -31.188877 28.670092  -0.257109 0.966371 0.004624  0.193365 0.177709 1 1 1.000000
paintblack
0  36.777008 -32.234928 28.491165  -0.120604 0.989599 0.078414  0.799829 0.158177 1 1 1.000000
0  36.997227 -33.060760 28.615040  0.103684 0.213390 0.971450  0.792016 0.183569 1 1 1.000000
0  42.915684 -32.069763 28.807734  -0.230681 0.167274 0.958543  0.212897 0.204077 1 1 1.000000
paintblack
0  42.915684 -32.069763 28.807734  -0.230681 0.167274 0.958543  0.212897 0.204077 1 1 1.000000
0  42.970737 -31.188877 28.670092  -0.257109 0.966371 0.004624  0.193365 0.177709 1 1 1.000000
0  36.777008 -32.234928 28.491165  -0.120604 0.989599 0.078414  0.799829 0.158177 1 1 1.000000
paintblack
0  36.198925 -32.331280 28.628803  -0.128431 0.991517 -0.020000  0.856471 0.173803 1 1 1.000000
0  36.350327 -33.170868 28.904081  0.613104 0.380630 0.692260  0.856471 0.213843 1 1 1.000000
0  36.997227 -33.060760 28.615040  0.103684 0.213390 0.971450  0.792016 0.183569 1 1 1.000000
paintblack
0  36.997227 -33.060760 28.615040  0.103684 0.213390 0.971450  0.792016 0.183569 1 1 1.000000
0  36.777008 -32.234928 28.491165  -0.120604 0.989599 0.078414  0.799829 0.158177 1 1 1.000000
0  36.198925 -32.331280 28.628803  -0.128431 0.991517 -0.020000  0.856471 0.173803 1 1 1.000000
paintblack
0  36.198925 -32.331280 28.628803  -0.128431 0.991517 -0.020000  0.856471 0.173803 1 1 1.000000
0  35.882359 -32.386333 28.945372  -0.169902 0.985141 -0.025106  0.887722 0.207984 1 1 1.000000
0  36.350327 -33.170868 28.904081  0.613104 0.380630 0.692260  0.856471 0.213843 1 1 1.000000
paintblack
0  35.703426 -32.413860 29.495926  -0.122636 0.989924 0.070789  0.905301 0.269509 1 1 1.000000
0  36.019997 -33.225929 29.537216  0.893840 0.362275 0.264211  0.887722 0.285134 1 1 1.000000
0  36.350327 -33.170868 28.904081  0.613104 0.380630 0.692260  0.856471 0.213843 1 1 1.000000
paintblack
0  36.350327 -33.170868 28.904081  0.613104 0.380630 0.692260  0.856471 0.213843 1 1 1.000000
0  35.882359 -32.386333 28.945372  -0.169902 0.985141 -0.025106  0.887722 0.207984 1 1 1.000000
0  35.703426 -32.413860 29.495926  -0.122636 0.989924 0.070789  0.905301 0.269509 1 1 1.000000
paintblack
0  43.769047 -31.574266 32.730427  0.782295 0.461098 0.418812  0.122074 0.633778 1 1 1.000000
0  43.466240 -31.106297 32.620316  -0.133811 0.990918 0.013312  0.144536 0.617176 1 1 1.000000
0  43.135906 -31.161350 33.033234  -0.210634 0.977498 0.011478  0.176763 0.661122 1 1 1.000000
paintblack
0  43.135906 -31.161350 33.033234  -0.210634 0.977498 0.011478  0.176763 0.661122 1 1 1.000000
0  43.424942 -31.629320 33.157104  0.592916 0.413534 0.690970  0.156255 0.682608 1 1 1.000000
0  43.769047 -31.574266 32.730427  0.782295 0.461098 0.418812  0.122074 0.633778 1 1 1.000000
paintblack
0  43.424942 -31.629320 33.157104  0.592916 0.413534 0.690970  0.156255 0.682608 1 1 1.000000
0  43.135906 -31.161350 33.033234  -0.210634 0.977498 0.011478  0.176763 0.661122 1 1 1.000000
0  42.736752 -31.230169 33.294746  -0.182457 0.982623 -0.034077  0.214850 0.691397 1 1 1.000000
paintblack
0  42.736752 -31.230169 33.294746  -0.182457 0.982623 -0.034077  0.214850 0.691397 1 1 1.000000
0  43.012032 -31.698139 33.459911  0.397821 0.354893 0.846043  0.196295 0.714835 1 1 1.000000
0  43.424942 -31.629320 33.157104  0.592916 0.413534 0.690970  0.156255 0.682608 1 1 1.000000
paintblack
0  43.012032 -31.698139 33.459911  0.397821 0.354893 0.846043  0.196295 0.714835 1 1 1.000000
0  42.736752 -31.230169 33.294746  -0.182457 0.982623 -0.034077  0.214850 0.691397 1 1 1.000000
0  42.227493 -31.312750 33.501202  -0.205486 0.978598 0.011004  0.266610 0.713858 1 1 1.000000
paintblack
0  42.227493 -31.312750 33.501202  -0.205486 0.978598 0.011004  0.266610 0.713858 1 1 1.000000
0  42.420185 -31.794487 33.693897  0.165306 0.281750 0.945141  0.255867 0.740226 1 1 1.000000
0  43.012032 -31.698139 33.459911  0.397821 0.354893 0.846043  0.196295 0.714835 1 1 1.000000
paintblack
0  39.516014 -32.289982 33.914120  -0.024751 0.250055 0.967915  0.540056 0.765618 1 1 1.000000
0  39.474724 -31.780724 33.707661  -0.158063 0.985969 -0.053682  0.536149 0.737297 1 1 1.000000
0  36.777008 -32.234928 33.597549  -0.087103 0.996003 0.019799  0.799829 0.725578 1 1 1.000000
paintblack
0  36.777008 -32.234928 33.597549  -0.087103 0.996003 0.019799  0.799829 0.725578 1 1 1.000000
0  36.680660 -32.757957 33.790245  -0.221715 0.249964 0.942529  0.817408 0.751946 1 1 1.000000
0  39.516014 -32.289982 33.914120  -0.024751 0.250055 0.967915  0.540056 0.765618 1 1 1.000000
paintblack
0  36.680660 -32.757957 33.790245  -0.221715 0.249964 0.942529  0.817408 0.751946 1 1 1.000000
0  36.777008 -32.234928 33.597549  -0.087103 0.996003 0.019799  0.799829 0.725578 1 1 1.000000
0  36.253979 -32.317516 33.418621  -0.170328 0.985349 0.008705  0.850612 0.705069 1 1 1.000000
paintblack
0  36.253979 -32.317516 33.418621  -0.170328 0.985349 0.008705  0.850612 0.705069 1 1 1.000000
0  36.130104 -32.854301 33.597549  -0.513545 0.259032 0.818031  0.872097 0.730461 1 1 1.000000
0  36.680660 -32.757957 33.790245  -0.221715 0.249964 0.942529  0.817408 0.751946 1 1 1.000000
paintblack
0  35.799774 -32.909359 33.308514  -0.769058 0.254683 0.586248  0.904324 0.698233 1 1 1.000000
0  35.937412 -32.372570 33.157104  -0.140882 0.989997 0.007661  0.881863 0.675771 1 1 1.000000
0  35.703426 -32.413860 32.730427  -0.177912 0.983508 -0.032556  0.905301 0.628895 1 1 1.000000
paintblack
0  35.703426 -32.413860 32.730427  -0.177912 0.983508 -0.032556  0.905301 0.628895 1 1 1.000000
0  35.552025 -32.950649 32.840538  -0.933961 0.233852 0.270243  0.928739 0.647450 1 1 1.000000
0  35.799774 -32.909359 33.308514  -0.769058 0.254683 0.586248  0.904324 0.698233 1 1 1.000000
paintblack
0  36.130104 -32.854301 33.597549  -0.513545 0.259032 0.818031  0.872097 0.730461 1 1 1.000000
0  36.253979 -32.317516 33.418621  -0.170328 0.985349 0.008705  0.850612 0.705069 1 1 1.000000
0  35.937412 -32.372570 33.157104  -0.140882 0.989997 0.007661  0.881863 0.675771 1 1 1.000000
paintblack
0  35.937412 -32.372570 33.157104  -0.140882 0.989997 0.007661  0.881863 0.675771 1 1 1.000000
0  35.799774 -32.909359 33.308514  -0.769058 0.254683 0.586248  0.904324 0.698233 1 1 1.000000
0  36.130104 -32.854301 33.597549  -0.513545 0.259032 0.818031  0.872097 0.730461 1 1 1.000000
paintblack
0  44.140667 -31.505445 31.175114  0.861293 0.483118 0.157391  0.085940 0.460921 1 1 1.000000
0  43.810337 -31.051237 31.175114  -0.223523 0.974663 -0.008287  0.110355 0.456038 1 1 1.000000
0  43.466240 -31.106297 32.620316  -0.133811 0.990918 0.013312  0.144536 0.617176 1 1 1.000000
paintblack
0  43.466240 -31.106297 32.620316  -0.133811 0.990918 0.013312  0.144536 0.617176 1 1 1.000000
0  43.769047 -31.574266 32.730427  0.782295 0.461098 0.418812  0.122074 0.633778 1 1 1.000000
0  44.140667 -31.505445 31.175114  0.861293 0.483118 0.157391  0.085940 0.460921 1 1 1.000000
paintblack
0  35.552025 -32.950649 32.840538  -0.933961 0.233852 0.270243  0.928739 0.647450 1 1 1.000000
0  35.703426 -32.413860 32.730427  -0.177912 0.983508 -0.032556  0.905301 0.628895 1 1 1.000000
0  35.579552 -32.427624 31.175116  -0.089949 0.995937 -0.004305  0.917997 0.456038 1 1 1.000000
paintblack
0  35.579552 -32.427624 31.175116  -0.089949 0.995937 -0.004305  0.917997 0.456038 1 1 1.000000
0  35.400623 -32.978180 31.161352  -0.974741 0.223305 0.003737  0.943388 0.461898 1 1 1.000000
0  35.552025 -32.950649 32.840538  -0.933961 0.233852 0.270243  0.928739 0.647450 1 1 1.000000
paintblack
0  44.292065 -31.477919 29.523451  0.852462 0.508167 -0.122779  0.070315 0.278298 1 1 1.000000
0  43.975498 -31.023710 29.647324  -0.128938 0.990745 0.042406  0.094729 0.286111 1 1 1.000000
0  43.810337 -31.051237 31.175114  -0.223523 0.974663 -0.008287  0.110355 0.456038 1 1 1.000000
paintblack
0  43.810337 -31.051237 31.175114  -0.223523 0.974663 -0.008287  0.110355 0.456038 1 1 1.000000
0  44.140667 -31.505445 31.175114  0.861293 0.483118 0.157391  0.085940 0.460921 1 1 1.000000
0  44.292065 -31.477919 29.523451  0.852462 0.508167 -0.122779  0.070315 0.278298 1 1 1.000000
paintblack
0  35.400623 -32.978180 31.161352  -0.974741 0.223305 0.003737  0.943388 0.461898 1 1 1.000000
0  35.579552 -32.427624 31.175116  -0.089949 0.995937 -0.004305  0.917997 0.456038 1 1 1.000000
0  35.703426 -32.413860 29.495926  -0.122636 0.989924 0.070789  0.905301 0.269509 1 1 1.000000
paintblack
0  35.703426 -32.413860 29.495926  -0.122636 0.989924 0.070789  0.905301 0.269509 1 1 1.000000
0  35.552025 -32.950649 29.344526  -0.953801 0.240231 -0.180426  0.928739 0.259743 1 1 1.000000
0  35.400623 -32.978180 31.161352  -0.974741 0.223305 0.003737  0.943388 0.461898 1 1 1.000000
paintblack
0  44.126904 -31.505445 29.027954  0.710598 0.501221 -0.493789  0.087893 0.224586 1 1 1.000000
0  43.810337 -31.051237 29.206881  -0.173183 0.984886 0.002838  0.111332 0.237281 1 1 1.000000
0  43.975498 -31.023710 29.647324  -0.128938 0.990745 0.042406  0.094729 0.286111 1 1 1.000000
paintblack
0  43.975498 -31.023710 29.647324  -0.128938 0.990745 0.042406  0.094729 0.286111 1 1 1.000000
0  44.292065 -31.477919 29.523451  0.852462 0.508167 -0.122779  0.070315 0.278298 1 1 1.000000
0  44.126904 -31.505445 29.027954  0.710598 0.501221 -0.493789  0.087893 0.224586 1 1 1.000000
paintblack
0  43.727749 -31.574266 28.615038  0.434901 0.431169 -0.790541  0.125980 0.178686 1 1 1.000000
0  43.438713 -31.120060 28.821497  -0.144639 0.989176 -0.024704  0.147465 0.194311 1 1 1.000000
0  43.810337 -31.051237 29.206881  -0.173183 0.984886 0.002838  0.111332 0.237281 1 1 1.000000
paintblack
0  43.810337 -31.051237 29.206881  -0.173183 0.984886 0.002838  0.111332 0.237281 1 1 1.000000
0  44.126904 -31.505445 29.027954  0.710598 0.501221 -0.493789  0.087893 0.224586 1 1 1.000000
0  43.727749 -31.574266 28.615038  0.434901 0.431169 -0.790541  0.125980 0.178686 1 1 1.000000
paintblack
0  43.232254 -31.656849 28.449869  0.115512 0.331445 -0.936377  0.175787 0.159154 1 1 1.000000
0  42.970737 -31.188877 28.670092  -0.257109 0.966371 0.004624  0.193365 0.177709 1 1 1.000000
0  43.438713 -31.120060 28.821497  -0.144639 0.989176 -0.024704  0.147465 0.194311 1 1 1.000000
paintblack
0  43.438713 -31.120060 28.821497  -0.144639 0.989176 -0.024704  0.147465 0.194311 1 1 1.000000
0  43.727749 -31.574266 28.615038  0.434901 0.431169 -0.790541  0.125980 0.178686 1 1 1.000000
0  43.232254 -31.656849 28.449869  0.115512 0.331445 -0.936377  0.175787 0.159154 1 1 1.000000
paintblack
0  36.680660 -32.757957 28.243416  -0.152346 0.308847 -0.938831  0.817408 0.136692 1 1 1.000000
0  36.777008 -32.234928 28.491165  -0.120604 0.989599 0.078414  0.799829 0.158177 1 1 1.000000
0  42.970737 -31.188877 28.670092  -0.257109 0.966371 0.004624  0.193365 0.177709 1 1 1.000000
paintblack
0  42.970737 -31.188877 28.670092  -0.257109 0.966371 0.004624  0.193365 0.177709 1 1 1.000000
0  43.232254 -31.656849 28.449869  0.115512 0.331445 -0.936377  0.175787 0.159154 1 1 1.000000
0  36.680660 -32.757957 28.243416  -0.152346 0.308847 -0.938831  0.817408 0.136692 1 1 1.000000
paintblack
0  36.075050 -32.854301 28.394817  -0.504290 0.312685 -0.804934  0.877957 0.154271 1 1 1.000000
0  36.198925 -32.331280 28.628803  -0.128431 0.991517 -0.020000  0.856471 0.173803 1 1 1.000000
0  36.777008 -32.234928 28.491165  -0.120604 0.989599 0.078414  0.799829 0.158177 1 1 1.000000
paintblack
0  36.777008 -32.234928 28.491165  -0.120604 0.989599 0.078414  0.799829 0.158177 1 1 1.000000
0  36.680660 -32.757957 28.243416  -0.152346 0.308847 -0.938831  0.817408 0.136692 1 1 1.000000
0  36.075050 -32.854301 28.394817  -0.504290 0.312685 -0.804934  0.877957 0.154271 1 1 1.000000
paintblack
0  35.730957 -32.909359 28.738913  -0.832138 0.281985 -0.477525  0.910184 0.192358 1 1 1.000000
0  35.882359 -32.386333 28.945372  -0.169902 0.985141 -0.025106  0.887722 0.207984 1 1 1.000000
0  36.198925 -32.331280 28.628803  -0.128431 0.991517 -0.020000  0.856471 0.173803 1 1 1.000000
paintblack
0  36.198925 -32.331280 28.628803  -0.128431 0.991517 -0.020000  0.856471 0.173803 1 1 1.000000
0  36.075050 -32.854301 28.394817  -0.504290 0.312685 -0.804934  0.877957 0.154271 1 1 1.000000
0  35.730957 -32.909359 28.738913  -0.832138 0.281985 -0.477525  0.910184 0.192358 1 1 1.000000
paintblack
0  35.552025 -32.950649 29.344526  -0.953801 0.240231 -0.180426  0.928739 0.259743 1 1 1.000000
0  35.703426 -32.413860 29.495926  -0.122636 0.989924 0.070789  0.905301 0.269509 1 1 1.000000
0  35.882359 -32.386333 28.945372  -0.169902 0.985141 -0.025106  0.887722 0.207984 1 1 1.000000
paintblack
0  35.882359 -32.386333 28.945372  -0.169902 0.985141 -0.025106  0.887722 0.207984 1 1 1.000000
0  35.730957 -32.909359 28.738913  -0.832138 0.281985 -0.477525  0.910184 0.192358 1 1 1.000000
0  35.552025 -32.950649 29.344526  -0.953801 0.240231 -0.180426  0.928739 0.259743 1 1 1.000000
paintblack
0  44.016792 -32.193638 32.757957  0.895177 0.022676 0.445134  0.108402 0.645497 1 1 1.000000
0  43.769047 -31.574266 32.730427  0.782295 0.461098 0.418812  0.122074 0.633778 1 1 1.000000
0  43.424942 -31.629320 33.157104  0.592916 0.413534 0.690970  0.156255 0.682608 1 1 1.000000
paintblack
0  43.424942 -31.629320 33.157104  0.592916 0.413534 0.690970  0.156255 0.682608 1 1 1.000000
0  43.658932 -32.262455 33.212166  0.691944 -0.042833 0.720680  0.143559 0.696280 1 1 1.000000
0  44.016792 -32.193638 32.757957  0.895177 0.022676 0.445134  0.108402 0.645497 1 1 1.000000
paintblack
0  43.658932 -32.262455 33.212166  0.691944 -0.042833 0.720680  0.143559 0.696280 1 1 1.000000
0  43.424942 -31.629320 33.157104  0.592916 0.413534 0.690970  0.156255 0.682608 1 1 1.000000
0  43.012032 -31.698139 33.459911  0.397821 0.354893 0.846043  0.196295 0.714835 1 1 1.000000
paintblack
0  43.012032 -31.698139 33.459911  0.397821 0.354893 0.846043  0.196295 0.714835 1 1 1.000000
0  43.218491 -32.331280 33.528732  0.490762 -0.085143 0.867124  0.186529 0.730461 1 1 1.000000
0  43.658932 -32.262455 33.212166  0.691944 -0.042833 0.720680  0.143559 0.696280 1 1 1.000000
paintblack
0  43.218491 -32.331280 33.528732  0.490762 -0.085143 0.867124  0.186529 0.730461 1 1 1.000000
0  43.012032 -31.698139 33.459911  0.397821 0.354893 0.846043  0.196295 0.714835 1 1 1.000000
0  42.420185 -31.794487 33.693897  0.165306 0.281750 0.945141  0.255867 0.740226 1 1 1.000000
paintblack
0  42.420185 -31.794487 33.693897  0.165306 0.281750 0.945141  0.255867 0.740226 1 1 1.000000
0  42.585354 -32.441387 33.762718  0.261330 -0.084703 0.961526  0.249031 0.756829 1 1 1.000000
0  43.218491 -32.331280 33.528732  0.490762 -0.085143 0.867124  0.186529 0.730461 1 1 1.000000
paintblack
0  39.557304 -32.950649 33.996700  0.025596 -0.037485 0.998969  0.545915 0.783197 1 1 1.000000
0  39.516014 -32.289982 33.914120  -0.024751 0.250055 0.967915  0.540056 0.765618 1 1 1.000000
0  36.680660 -32.757957 33.790245  -0.221715 0.249964 0.942529  0.817408 0.751946 1 1 1.000000
paintblack
0  36.680660 -32.757957 33.790245  -0.221715 0.249964 0.942529  0.817408 0.751946 1 1 1.000000
0  36.625607 -33.432384 33.872829  -0.194854 -0.089258 0.976762  0.834010 0.769524 1 1 1.000000
0  39.557304 -32.950649 33.996700  0.025596 -0.037485 0.998969  0.545915 0.783197 1 1 1.000000
paintblack
0  36.625607 -33.432384 33.872829  -0.194854 -0.089258 0.976762  0.834010 0.769524 1 1 1.000000
0  36.680660 -32.757957 33.790245  -0.221715 0.249964 0.942529  0.817408 0.751946 1 1 1.000000
0  36.130104 -32.854301 33.597549  -0.513545 0.259032 0.818031  0.872097 0.730461 1 1 1.000000
paintblack
0  36.130104 -32.854301 33.597549  -0.513545 0.259032 0.818031  0.872097 0.730461 1 1 1.000000
0  36.047523 -33.528732 33.666370  -0.494548 -0.107029 0.862535  0.889676 0.747063 1 1 1.000000
0  36.625607 -33.432384 33.872829  -0.194854 -0.089258 0.976762  0.834010 0.769524 1 1 1.000000
paintblack
0  35.703426 -33.583786 33.363567  -0.767598 -0.091203 0.634409  0.923856 0.713858 1 1 1.000000
0  35.799774 -32.909359 33.308514  -0.769058 0.254683 0.586248  0.904324 0.698233 1 1 1.000000
0  35.552025 -32.950649 32.840538  -0.933961 0.233852 0.270243  0.928739 0.647450 1 1 1.000000
paintblack
0  35.552025 -32.950649 32.840538  -0.933961 0.233852 0.270243  0.928739 0.647450 1 1 1.000000
0  35.455677 -33.638844 32.881832  -0.951384 -0.038649 0.305572  0.948271 0.660146 1 1 1.000000
0  35.703426 -33.583786 33.363567  -0.767598 -0.091203 0.634409  0.923856 0.713858 1 1 1.000000
paintblack
0  36.047523 -33.528732 33.666370  -0.494548 -0.107029 0.862535  0.889676 0.747063 1 1 1.000000
0  36.130104 -32.854301 33.597549  -0.513545 0.259032 0.818031  0.872097 0.730461 1 1 1.000000
0  35.799774 -32.909359 33.308514  -0.769058 0.254683 0.586248  0.904324 0.698233 1 1 1.000000
paintblack
0  35.799774 -32.909359 33.308514  -0.769058 0.254683 0.586248  0.904324 0.698233 1 1 1.000000
0  35.703426 -33.583786 33.363567  -0.767598 -0.091203 0.634409  0.923856 0.713858 1 1 1.000000
0  36.047523 -33.528732 33.666370  -0.494548 -0.107029 0.862535  0.889676 0.747063 1 1 1.000000
paintblack
0  44.415943 -32.124821 31.161350  0.981563 0.088107 0.169620  0.070315 0.467757 1 1 1.000000
0  44.140667 -31.505445 31.175114  0.861293 0.483118 0.157391  0.085940 0.460921 1 1 1.000000
0  43.769047 -31.574266 32.730427  0.782295 0.461098 0.418812  0.122074 0.633778 1 1 1.000000
paintblack
0  43.769047 -31.574266 32.730427  0.782295 0.461098 0.418812  0.122074 0.633778 1 1 1.000000
0  44.016792 -32.193638 32.757957  0.895177 0.022676 0.445134  0.108402 0.645497 1 1 1.000000
0  44.415943 -32.124821 31.161350  0.981563 0.088107 0.169620  0.070315 0.467757 1 1 1.000000
paintblack
0  35.455677 -33.638844 32.881832  -0.951384 -0.038649 0.305572  0.948271 0.660146 1 1 1.000000
0  35.552025 -32.950649 32.840538  -0.933961 0.233852 0.270243  0.928739 0.647450 1 1 1.000000
0  35.400623 -32.978180 31.161352  -0.974741 0.223305 0.003737  0.943388 0.461898 1 1 1.000000
paintblack
0  35.400623 -32.978180 31.161352  -0.974741 0.223305 0.003737  0.943388 0.461898 1 1 1.000000
0  35.304276 -33.652607 31.161352  -0.999270 0.033935 0.017553  0.963897 0.467757 1 1 1.000000
0  35.455677 -33.638844 32.881832  -0.951384 -0.038649 0.305572  0.948271 0.660146 1 1 1.000000
paintblack
0  44.581108 -32.097294 29.454634  0.987633 0.054900 -0.146860  0.053713 0.279275 1 1 1.000000
0  44.292065 -31.477919 29.523451  0.852462 0.508167 -0.122779  0.070315 0.278298 1 1 1.000000
0  44.140667 -31.505445 31.175114  0.861293 0.483118 0.157391  0.085940 0.460921 1 1 1.000000
paintblack
0  44.140667 -31.505445 31.175114  0.861293 0.483118 0.157391  0.085940 0.460921 1 1 1.000000
0  44.415943 -32.124821 31.161350  0.981563 0.088107 0.169620  0.070315 0.467757 1 1 1.000000
0  44.581108 -32.097294 29.454634  0.987633 0.054900 -0.146860  0.053713 0.279275 1 1 1.000000
paintblack
0  35.304276 -33.652607 31.161352  -0.999270 0.033935 0.017553  0.963897 0.467757 1 1 1.000000
0  35.400623 -32.978180 31.161352  -0.974741 0.223305 0.003737  0.943388 0.461898 1 1 1.000000
0  35.552025 -32.950649 29.344526  -0.953801 0.240231 -0.180426  0.928739 0.259743 1 1 1.000000
paintblack
0  35.552025 -32.950649 29.344526  -0.953801 0.240231 -0.180426  0.928739 0.259743 1 1 1.000000
0  35.455677 -33.625076 29.275703  -0.979777 0.038261 -0.196400  0.948271 0.259743 1 1 1.000000
0  35.304276 -33.652607 31.161352  -0.999270 0.033935 0.017553  0.963897 0.467757 1 1 1.000000
paintblack
0  44.388416 -32.124821 28.959133  0.852184 0.041591 -0.521588  0.072268 0.224586 1 1 1.000000
0  44.126904 -31.505445 29.027954  0.710598 0.501221 -0.493789  0.087893 0.224586 1 1 1.000000
0  44.292065 -31.477919 29.523451  0.852462 0.508167 -0.122779  0.070315 0.278298 1 1 1.000000
paintblack
0  44.292065 -31.477919 29.523451  0.852462 0.508167 -0.122779  0.070315 0.278298 1 1 1.000000
0  44.581108 -32.097294 29.454634  0.987633 0.054900 -0.146860  0.053713 0.279275 1 1 1.000000
0  44.388416 -32.124821 28.959133  0.852184 0.041591 -0.521588  0.072268 0.224586 1 1 1.000000
paintblack
0  43.975498 -32.193638 28.532454  0.561537 0.023202 -0.827126  0.112308 0.176733 1 1 1.000000
0  43.727749 -31.574266 28.615038  0.434901 0.431169 -0.790541  0.125980 0.178686 1 1 1.000000
0  44.126904 -31.505445 29.027954  0.710598 0.501221 -0.493789  0.087893 0.224586 1 1 1.000000
paintblack
0  44.126904 -31.505445 29.027954  0.710598 0.501221 -0.493789  0.087893 0.224586 1 1 1.000000
0  44.388416 -32.124821 28.959133  0.852184 0.041591 -0.521588  0.072268 0.224586 1 1 1.000000
0  43.975498 -32.193638 28.532454  0.561537 0.023202 -0.827126  0.112308 0.176733 1 1 1.000000
paintblack
0  43.438713 -32.276218 28.353525  0.199924 0.039751 -0.979005  0.165044 0.156224 1 1 1.000000
0  43.232254 -31.656849 28.449869  0.115512 0.331445 -0.936377  0.175787 0.159154 1 1 1.000000
0  43.727749 -31.574266 28.615038  0.434901 0.431169 -0.790541  0.125980 0.178686 1 1 1.000000
paintblack
0  43.727749 -31.574266 28.615038  0.434901 0.431169 -0.790541  0.125980 0.178686 1 1 1.000000
0  43.975498 -32.193638 28.532454  0.561537 0.023202 -0.827126  0.112308 0.176733 1 1 1.000000
0  43.438713 -32.276218 28.353525  0.199924 0.039751 -0.979005  0.165044 0.156224 1 1 1.000000
paintblack
0  36.625607 -33.418621 28.133303  -0.128984 0.072093 -0.989022  0.834010 0.132786 1 1 1.000000
0  36.680660 -32.757957 28.243416  -0.152346 0.308847 -0.938831  0.817408 0.136692 1 1 1.000000
0  43.232254 -31.656849 28.449869  0.115512 0.331445 -0.936377  0.175787 0.159154 1 1 1.000000
paintblack
0  43.232254 -31.656849 28.449869  0.115512 0.331445 -0.936377  0.175787 0.159154 1 1 1.000000
0  43.438713 -32.276218 28.353525  0.199924 0.039751 -0.979005  0.165044 0.156224 1 1 1.000000
0  36.625607 -33.418621 28.133303  -0.128984 0.072093 -0.989022  0.834010 0.132786 1 1 1.000000
paintblack
0  35.992470 -33.528732 28.298470  -0.519361 0.022513 -0.854258  0.895535 0.150365 1 1 1.000000
0  36.075050 -32.854301 28.394817  -0.504290 0.312685 -0.804934  0.877957 0.154271 1 1 1.000000
0  36.680660 -32.757957 28.243416  -0.152346 0.308847 -0.938831  0.817408 0.136692 1 1 1.000000
paintblack
0  36.680660 -32.757957 28.243416  -0.152346 0.308847 -0.938831  0.817408 0.136692 1 1 1.000000
0  36.625607 -33.418621 28.133303  -0.128984 0.072093 -0.989022  0.834010 0.132786 1 1 1.000000
0  35.992470 -33.528732 28.298470  -0.519361 0.022513 -0.854258  0.895535 0.150365 1 1 1.000000
paintblack
0  35.648373 -33.583786 28.642567  -0.852628 0.018144 -0.522202  0.929716 0.190405 1 1 1.000000
0  35.730957 -32.909359 28.738913  -0.832138 0.281985 -0.477525  0.910184 0.192358 1 1 1.000000
0  36.075050 -32.854301 28.394817  -0.504290 0.312685 -0.804934  0.877957 0.154271 1 1 1.000000
paintblack
0  36.075050 -32.854301 28.394817  -0.504290 0.312685 -0.804934  0.877957 0.154271 1 1 1.000000
0  35.992470 -33.528732 28.298470  -0.519361 0.022513 -0.854258  0.895535 0.150365 1 1 1.000000
0  35.648373 -33.583786 28.642567  -0.852628 0.018144 -0.522202  0.929716 0.190405 1 1 1.000000
paintblack
0  35.455677 -33.625076 29.275703  -0.979777 0.038261 -0.196400  0.948271 0.259743 1 1 1.000000
0  35.552025 -32.950649 29.344526  -0.953801 0.240231 -0.180426  0.928739 0.259743 1 1 1.000000
0  35.730957 -32.909359 28.738913  -0.832138 0.281985 -0.477525  0.910184 0.192358 1 1 1.000000
paintblack
0  35.730957 -32.909359 28.738913  -0.832138 0.281985 -0.477525  0.910184 0.192358 1 1 1.000000
0  35.648373 -33.583786 28.642567  -0.852628 0.018144 -0.522202  0.929716 0.190405 1 1 1.000000
0  35.455677 -33.625076 29.275703  -0.979777 0.038261 -0.196400  0.948271 0.259743 1 1 1.000000
paintblack
0  39.474724 -31.780724 33.707661  -0.158063 0.985969 -0.053682  0.536149 0.737297 1 1 1.000000
0  42.227493 -31.312750 33.501202  -0.205486 0.978598 0.011004  0.266610 0.713858 1 1 1.000000
0  42.227493 -32.193638 33.363567  -0.239834 0.167161 -0.956314  0.280282 0.708975 1 1 1.000000
paintblack
0  42.227493 -32.193638 33.363567  -0.239834 0.167161 -0.956314  0.280282 0.708975 1 1 1.000000
0  39.612362 -32.620316 33.528732  -0.048242 0.200620 -0.978481  0.536149 0.727531 1 1 1.000000
0  39.474724 -31.780724 33.707661  -0.158063 0.985969 -0.053682  0.536149 0.737297 1 1 1.000000
paintblack
0  39.516014 -32.289982 33.914120  -0.024751 0.250055 0.967915  0.540056 0.765618 1 1 1.000000
0  42.420185 -31.794487 33.693897  0.165306 0.281750 0.945141  0.255867 0.740226 1 1 1.000000
0  42.227493 -31.312750 33.501202  -0.205486 0.978598 0.011004  0.266610 0.713858 1 1 1.000000
paintblack
0  42.227493 -31.312750 33.501202  -0.205486 0.978598 0.011004  0.266610 0.713858 1 1 1.000000
0  39.474724 -31.780724 33.707661  -0.158063 0.985969 -0.053682  0.536149 0.737297 1 1 1.000000
0  39.516014 -32.289982 33.914120  -0.024751 0.250055 0.967915  0.540056 0.765618 1 1 1.000000
paintblack
0  39.557304 -32.950649 33.996700  0.025596 -0.037485 0.998969  0.545915 0.783197 1 1 1.000000
0  42.585354 -32.441387 33.762718  0.261330 -0.084703 0.961526  0.249031 0.756829 1 1 1.000000
0  42.420185 -31.794487 33.693897  0.165306 0.281750 0.945141  0.255867 0.740226 1 1 1.000000
paintblack
0  42.420185 -31.794487 33.693897  0.165306 0.281750 0.945141  0.255867 0.740226 1 1 1.000000
0  39.516014 -32.289982 33.914120  -0.024751 0.250055 0.967915  0.540056 0.765618 1 1 1.000000
0  39.557304 -32.950649 33.996700  0.025596 -0.037485 0.998969  0.545915 0.783197 1 1 1.000000
paintblack
0  43.411179 -31.987183 32.523968  0.431694 0.852333 0.295243  0.164068 0.616199 1 1 1.000000
0  43.122143 -31.808250 32.413860  0.431439 0.847032 0.310478  0.188482 0.600574 1 1 1.000000
0  42.695461 -31.877069 32.895596  0.248087 0.798476 0.548533  0.229499 0.654286 1 1 1.000000
paintblack
0  42.695461 -31.877069 32.895596  0.248087 0.798476 0.548533  0.229499 0.654286 1 1 1.000000
0  42.956974 -32.069763 33.046997  0.279218 0.809789 0.516023  0.207038 0.673818 1 1 1.000000
0  43.411179 -31.987183 32.523968  0.431694 0.852333 0.295243  0.164068 0.616199 1 1 1.000000
paintblack
0  42.956974 -32.069763 33.046997  0.279218 0.809789 0.516023  0.207038 0.673818 1 1 1.000000
0  42.695461 -31.877069 32.895596  0.248087 0.798476 0.548533  0.229499 0.654286 1 1 1.000000
0  42.131145 -31.973413 33.157104  0.052107 0.699000 0.713221  0.285165 0.683584 1 1 1.000000
paintblack
0  42.131145 -31.973413 33.157104  0.052107 0.699000 0.713221  0.285165 0.683584 1 1 1.000000
0  42.227493 -32.193638 33.363567  0.056211 0.693140 0.718608  0.280282 0.708975 1 1 1.000000
0  42.956974 -32.069763 33.046997  0.279218 0.809789 0.516023  0.207038 0.673818 1 1 1.000000
paintblack
0  39.612362 -32.620316 33.528732  -0.102418 0.651560 0.751651  0.536149 0.727531 1 1 1.000000
0  39.626125 -32.386333 33.322277  -0.094516 0.652067 0.752247  0.531266 0.702139 1 1 1.000000
0  37.176159 -32.799248 33.239693  -0.236816 0.671103 0.702523  0.770531 0.692373 1 1 1.000000
paintblack
0  37.176159 -32.799248 33.239693  -0.236816 0.671103 0.702523  0.770531 0.692373 1 1 1.000000
0  37.066048 -33.046997 33.446148  -0.287730 0.672397 0.681978  0.785180 0.717765 1 1 1.000000
0  39.612362 -32.620316 33.528732  -0.102418 0.651560 0.751651  0.536149 0.727531 1 1 1.000000
paintblack
0  37.066048 -33.046997 33.446148  -0.287730 0.672397 0.681978  0.785180 0.717765 1 1 1.000000
0  37.176159 -32.799248 33.239693  -0.236816 0.671103 0.702523  0.770531 0.692373 1 1 1.000000
0  36.556786 -32.895596 32.978180  -0.519766 0.681981 0.514534  0.832057 0.663076 1 1 1.000000
paintblack
0  36.556786 -32.895596 32.978180  -0.519766 0.681981 0.514534  0.832057 0.663076 1 1 1.000000
0  36.364090 -33.170868 33.129578  -0.559299 0.679433 0.474927  0.854518 0.683584 1 1 1.000000
0  37.066048 -33.046997 33.446148  -0.287730 0.672397 0.681978  0.785180 0.717765 1 1 1.000000
paintblack
0  36.364090 -33.170868 33.129578  -0.559299 0.679433 0.474927  0.854518 0.683584 1 1 1.000000
0  36.556786 -32.895596 32.978180  -0.519766 0.681981 0.514534  0.832057 0.663076 1 1 1.000000
0  36.226452 -32.950649 32.427624  -0.732263 0.654177 0.189324  0.864284 0.603504 1 1 1.000000
paintblack
0  36.226452 -32.950649 32.427624  -0.732263 0.654177 0.189324  0.864284 0.603504 1 1 1.000000
0  36.019997 -33.225929 32.551498  -0.728256 0.654298 0.203804  0.888699 0.618152 1 1 1.000000
0  36.364090 -33.170868 33.129578  -0.559299 0.679433 0.474927  0.854518 0.683584 1 1 1.000000
paintblack
0  43.741512 -31.932123 31.188877  0.526357 0.842335 0.115843  0.130863 0.467757 1 1 1.000000
0  43.452477 -31.753193 31.188877  0.530605 0.837876 0.128145  0.155278 0.464827 1 1 1.000000
0  43.122143 -31.808250 32.413860  0.431439 0.847032 0.310478  0.188482 0.600574 1 1 1.000000
paintblack
0  43.122143 -31.808250 32.413860  0.431439 0.847032 0.310478  0.188482 0.600574 1 1 1.000000
0  43.411179 -31.987183 32.523968  0.431694 0.852333 0.295243  0.164068 0.616199 1 1 1.000000
0  43.741512 -31.932123 31.188877  0.526357 0.842335 0.115843  0.130863 0.467757 1 1 1.000000
paintblack
0  36.019997 -33.225929 32.551498  -0.728256 0.654298 0.203804  0.888699 0.618152 1 1 1.000000
0  36.226452 -32.950649 32.427624  -0.732263 0.654177 0.189324  0.864284 0.603504 1 1 1.000000
0  36.130104 -32.978180 31.175116  -0.779150 0.626830 0.003054  0.874050 0.463851 1 1 1.000000
paintblack
0  36.130104 -32.978180 31.175116  -0.779150 0.626830 0.003054  0.874050 0.463851 1 1 1.000000
0  35.909885 -33.239693 31.175116  -0.779235 0.626725 0.002782  0.898465 0.466781 1 1 1.000000
0  36.019997 -33.225929 32.551498  -0.728256 0.654298 0.203804  0.888699 0.618152 1 1 1.000000
paintblack
0  43.892918 -31.904596 29.716146  0.496165 0.856502 -0.142212  0.116214 0.303690 1 1 1.000000
0  43.603874 -31.725666 29.826258  0.512746 0.852778 -0.099302  0.140629 0.313456 1 1 1.000000
0  43.452477 -31.753193 31.188877  0.530605 0.837876 0.128145  0.155278 0.464827 1 1 1.000000
paintblack
0  43.452477 -31.753193 31.188877  0.530605 0.837876 0.128145  0.155278 0.464827 1 1 1.000000
0  43.741512 -31.932123 31.188877  0.526357 0.842335 0.115843  0.130863 0.467757 1 1 1.000000
0  43.892918 -31.904596 29.716146  0.496165 0.856502 -0.142212  0.116214 0.303690 1 1 1.000000
paintblack
0  35.909885 -33.239693 31.175116  -0.779235 0.626725 0.002782  0.898465 0.466781 1 1 1.000000
0  36.130104 -32.978180 31.175116  -0.779150 0.626830 0.003054  0.874050 0.463851 1 1 1.000000
0  36.240215 -32.950649 29.661089  -0.743245 0.649022 -0.162354  0.863308 0.294900 1 1 1.000000
paintblack
0  36.240215 -32.950649 29.661089  -0.743245 0.649022 -0.162354  0.863308 0.294900 1 1 1.000000
0  36.019997 -33.225929 29.537216  -0.736408 0.652204 -0.179815  0.887722 0.285134 1 1 1.000000
0  35.909885 -33.239693 31.175116  -0.779235 0.626725 0.002782  0.898465 0.466781 1 1 1.000000
paintblack
0  43.562584 -31.959650 29.110535  0.319774 0.829391 -0.458100  0.148442 0.238258 1 1 1.000000
0  43.301071 -31.780724 29.275702  0.290284 0.818741 -0.495377  0.170904 0.251930 1 1 1.000000
0  43.603874 -31.725666 29.826258  0.512746 0.852778 -0.099302  0.140629 0.313456 1 1 1.000000
paintblack
0  43.603874 -31.725666 29.826258  0.512746 0.852778 -0.099302  0.140629 0.313456 1 1 1.000000
0  43.892918 -31.904596 29.716146  0.496165 0.856502 -0.142212  0.116214 0.303690 1 1 1.000000
0  43.562584 -31.959650 29.110535  0.319774 0.829391 -0.458100  0.148442 0.238258 1 1 1.000000
paintblack
0  42.915684 -32.069763 28.807734  0.085439 0.712145 -0.696814  0.212897 0.204077 1 1 1.000000
0  42.681698 -31.877069 28.986660  0.018095 0.671197 -0.741058  0.230476 0.219703 1 1 1.000000
0  43.301071 -31.780724 29.275702  0.290284 0.818741 -0.495377  0.170904 0.251930 1 1 1.000000
paintblack
0  43.301071 -31.780724 29.275702  0.290284 0.818741 -0.495377  0.170904 0.251930 1 1 1.000000
0  43.562584 -31.959650 29.110535  0.319774 0.829391 -0.458100  0.148442 0.238258 1 1 1.000000
0  42.915684 -32.069763 28.807734  0.085439 0.712145 -0.696814  0.212897 0.204077 1 1 1.000000
paintblack
0  36.997227 -33.060760 28.615040  -0.281020 0.638965 -0.716067  0.792016 0.183569 1 1 1.000000
0  37.148628 -32.799248 28.793972  -0.188331 0.618062 -0.763237  0.773461 0.200171 1 1 1.000000
0  42.681698 -31.877069 28.986660  0.018095 0.671197 -0.741058  0.230476 0.219703 1 1 1.000000
paintblack
0  42.681698 -31.877069 28.986660  0.018095 0.671197 -0.741058  0.230476 0.219703 1 1 1.000000
0  42.915684 -32.069763 28.807734  0.085439 0.712145 -0.696814  0.212897 0.204077 1 1 1.000000
0  36.997227 -33.060760 28.615040  -0.281020 0.638965 -0.716067  0.792016 0.183569 1 1 1.000000
paintblack
0  36.350327 -33.170868 28.904081  -0.572631 0.680560 -0.457091  0.856471 0.213843 1 1 1.000000
0  36.543022 -32.909359 29.055483  -0.537727 0.679880 -0.498611  0.834010 0.228492 1 1 1.000000
0  37.148628 -32.799248 28.793972  -0.188331 0.618062 -0.763237  0.773461 0.200171 1 1 1.000000
paintblack
0  37.148628 -32.799248 28.793972  -0.188331 0.618062 -0.763237  0.773461 0.200171 1 1 1.000000
0  36.997227 -33.060760 28.615040  -0.281020 0.638965 -0.716067  0.792016 0.183569 1 1 1.000000
0  36.350327 -33.170868 28.904081  -0.572631 0.680560 -0.457091  0.856471 0.213843 1 1 1.000000
paintblack
0  36.019997 -33.225929 29.537216  -0.736408 0.652204 -0.179815  0.887722 0.285134 1 1 1.000000
0  36.240215 -32.950649 29.661089  -0.743245 0.649022 -0.162354  0.863308 0.294900 1 1 1.000000
0  36.543022 -32.909359 29.055483  -0.537727 0.679880 -0.498611  0.834010 0.228492 1 1 1.000000
paintblack
0  36.543022 -32.909359 29.055483  -0.537727 0.679880 -0.498611  0.834010 0.228492 1 1 1.000000
0  36.350327 -33.170868 28.904081  -0.572631 0.680560 -0.457091  0.856471 0.213843 1 1 1.000000
0  36.019997 -33.225929 29.537216  -0.736408 0.652204 -0.179815  0.887722 0.285134 1 1 1.000000
paintblack
0  39.626125 -32.386333 33.322277  -0.094516 0.652067 0.752247  0.531266 0.702139 1 1 1.000000
0  39.612362 -32.620316 33.528732  -0.102418 0.651560 0.751651  0.536149 0.727531 1 1 1.000000
0  42.227493 -32.193638 33.363567  0.056211 0.693140 0.718608  0.280282 0.708975 1 1 1.000000
paintblack
0  42.227493 -32.193638 33.363567  0.056211 0.693140 0.718608  0.280282 0.708975 1 1 1.000000
0  42.131145 -31.973413 33.157104  0.052107 0.699000 0.713221  0.285165 0.683584 1 1 1.000000
0  39.626125 -32.386333 33.322277  -0.094516 0.652067 0.752247  0.531266 0.702139 1 1 1.000000
end
