version 1
nodes
0 "root" -1
end
skeleton
time 0
0  0.000000 0.000000 0.000000  0.000000 -0.000000 0.000000
end
triangles
misc
0  38.277256 135.835419 10.075134  -0.265447 0.930826 -0.251199  0.096683 0.160131 1 0 1.000000
0  38.277256 135.835419 17.039642  -0.265486 0.930819 0.251182  0.096683 0.264626 1 0 1.000000
0  43.810326 135.835419 17.039642  0.265700 0.930803 0.251017  0.008789 0.264626 1 0 1.000000
misc
0  43.810326 135.835419 17.039642  0.265700 0.930803 0.251017  0.008789 0.264626 1 0 1.000000
0  43.810326 135.835419 10.075134  0.265459 0.930782 -0.251350  0.008789 0.160131 1 0 1.000000
0  38.277256 135.835419 10.075134  -0.265447 0.930826 -0.251199  0.096683 0.160131 1 0 1.000000
misc
0  43.810326 135.835419 10.075134  0.265459 0.930782 -0.251350  0.008789 0.160131 1 0 1.000000
0  43.810326 135.518860 9.565872  0.181891 0.839964 -0.511250  0.008789 0.152318 1 0 1.000000
0  38.277256 135.518860 9.565872  -0.181955 0.839932 -0.511279  0.096683 0.152318 1 0 1.000000
misc
0  38.277256 135.518860 9.565872  -0.181955 0.839932 -0.511279  0.096683 0.152318 1 0 1.000000
0  38.277256 135.835419 10.075134  -0.265447 0.930826 -0.251199  0.096683 0.160131 1 0 1.000000
0  43.810326 135.835419 10.075134  0.265459 0.930782 -0.251350  0.008789 0.160131 1 0 1.000000
misc
0  37.795521 135.518860 17.039644  -0.536504 0.825104 0.177108  0.104495 0.264626 1 0 1.000000
0  38.277256 135.835419 17.039642  -0.265486 0.930819 0.251182  0.096683 0.264626 1 0 1.000000
0  38.277256 135.835419 10.075134  -0.265447 0.930826 -0.251199  0.096683 0.160131 1 0 1.000000
misc
0  38.277256 135.835419 10.075134  -0.265447 0.930826 -0.251199  0.096683 0.160131 1 0 1.000000
0  37.795521 135.518860 10.075134  -0.536498 0.825106 -0.177118  0.104495 0.160131 1 0 1.000000
0  37.795521 135.518860 17.039644  -0.536504 0.825104 0.177108  0.104495 0.264626 1 0 1.000000
misc
0  43.810326 135.835419 17.039642  0.265700 0.930803 0.251017  0.008789 0.264626 1 0 1.000000
0  44.292053 135.518860 17.039642  0.536393 0.825177 0.177101  0.000977 0.264626 1 0 1.000000
0  44.292053 135.518860 10.075133  0.536472 0.825122 -0.177120  0.000977 0.160131 1 0 1.000000
misc
0  44.292053 135.518860 10.075133  0.536472 0.825122 -0.177120  0.000977 0.160131 1 0 1.000000
0  43.810326 135.835419 10.075134  0.265459 0.930782 -0.251350  0.008789 0.160131 1 0 1.000000
0  43.810326 135.835419 17.039642  0.265700 0.930803 0.251017  0.008789 0.264626 1 0 1.000000
misc
0  43.810326 135.518860 17.562668  0.181987 0.840085 0.511016  0.008789 0.272439 1 0 1.000000
0  43.810326 135.835419 17.039642  0.265700 0.930803 0.251017  0.008789 0.264626 1 0 1.000000
0  38.277256 135.835419 17.039642  -0.265486 0.930819 0.251182  0.096683 0.264626 1 0 1.000000
misc
0  38.277256 135.835419 17.039642  -0.265486 0.930819 0.251182  0.096683 0.264626 1 0 1.000000
0  38.277256 135.518860 17.562668  -0.181992 0.840005 0.511146  0.096683 0.272439 1 0 1.000000
0  43.810326 135.518860 17.562668  0.181987 0.840085 0.511016  0.008789 0.272439 1 0 1.000000
misc
0  37.795521 135.518860 10.075134  -0.536498 0.825106 -0.177118  0.104495 0.160131 1 0 1.000000
0  38.277256 135.835419 10.075134  -0.265447 0.930826 -0.251199  0.096683 0.160131 1 0 1.000000
0  38.277256 135.518860 9.565872  -0.181955 0.839932 -0.511279  0.096683 0.152318 1 0 1.000000
misc
0  43.810326 135.518860 9.565872  0.181891 0.839964 -0.511250  0.008789 0.152318 1 0 1.000000
0  43.810326 135.835419 10.075134  0.265459 0.930782 -0.251350  0.008789 0.160131 1 0 1.000000
0  44.292053 135.518860 10.075133  0.536472 0.825122 -0.177120  0.000977 0.160131 1 0 1.000000
misc
0  38.277256 135.518860 17.562668  -0.181992 0.840005 0.511146  0.096683 0.272439 1 0 1.000000
0  38.277256 135.835419 17.039642  -0.265486 0.930819 0.251182  0.096683 0.264626 1 0 1.000000
0  37.795521 135.518860 17.039644  -0.536504 0.825104 0.177108  0.104495 0.264626 1 0 1.000000
misc
0  44.292053 135.518860 17.039642  0.536393 0.825177 0.177101  0.000977 0.264626 1 0 1.000000
0  43.810326 135.835419 17.039642  0.265700 0.930803 0.251017  0.008789 0.264626 1 0 1.000000
0  43.810326 135.518860 17.562668  0.181987 0.840085 0.511016  0.008789 0.272439 1 0 1.000000
misc
0  -38.304794 135.835403 10.075140  0.265395 0.930836 -0.251214  0.096683 0.160131 1 0 1.000000
0  -43.837864 135.835403 10.075140  -0.265457 0.930815 -0.251230  0.009766 0.160131 1 0 1.000000
0  -43.837864 135.835403 17.039648  -0.265663 0.930801 0.251062  0.009766 0.263649 1 0 1.000000
misc
0  -43.837864 135.835403 17.039648  -0.265663 0.930801 0.251062  0.009766 0.263649 1 0 1.000000
0  -38.304794 135.835403 17.039648  0.265474 0.930829 0.251160  0.096683 0.263649 1 0 1.000000
0  -38.304794 135.835403 10.075140  0.265395 0.930836 -0.251214  0.096683 0.160131 1 0 1.000000
misc
0  -43.837864 135.835403 10.075140  -0.265457 0.930815 -0.251230  0.009766 0.160131 1 0 1.000000
0  -38.304794 135.835403 10.075140  0.265395 0.930836 -0.251214  0.096683 0.160131 1 0 1.000000
0  -38.304794 135.518845 9.565877  0.181886 0.839975 -0.511233  0.096683 0.151341 1 0 1.000000
misc
0  -38.304794 135.518845 9.565877  0.181886 0.839975 -0.511233  0.096683 0.151341 1 0 1.000000
0  -43.837864 135.518845 9.565877  -0.181951 0.839933 -0.511279  0.009766 0.151341 1 0 1.000000
0  -43.837864 135.835403 10.075140  -0.265457 0.930815 -0.251230  0.009766 0.160131 1 0 1.000000
misc
0  -37.823063 135.518845 17.039646  0.536460 0.825132 0.177111  0.104495 0.263649 1 0 1.000000
0  -37.823063 135.518845 10.075140  0.536481 0.825111 -0.177144  0.104495 0.160131 1 0 1.000000
0  -38.304794 135.835403 10.075140  0.265395 0.930836 -0.251214  0.096683 0.160131 1 0 1.000000
misc
0  -38.304794 135.835403 10.075140  0.265395 0.930836 -0.251214  0.096683 0.160131 1 0 1.000000
0  -38.304794 135.835403 17.039648  0.265474 0.930829 0.251160  0.096683 0.263649 1 0 1.000000
0  -37.823063 135.518845 17.039646  0.536460 0.825132 0.177111  0.104495 0.263649 1 0 1.000000
misc
0  -43.837864 135.835403 17.039648  -0.265663 0.930801 0.251062  0.009766 0.263649 1 0 1.000000
0  -43.837864 135.835403 10.075140  -0.265457 0.930815 -0.251230  0.009766 0.160131 1 0 1.000000
0  -44.319599 135.518845 10.075141  -0.536474 0.825124 -0.177104  0.001953 0.160131 1 0 1.000000
misc
0  -44.319599 135.518845 10.075141  -0.536474 0.825124 -0.177104  0.001953 0.160131 1 0 1.000000
0  -44.319599 135.518845 17.039648  -0.536480 0.825119 0.177109  0.001953 0.263649 1 0 1.000000
0  -43.837864 135.835403 17.039648  -0.265663 0.930801 0.251062  0.009766 0.263649 1 0 1.000000
misc
0  -43.837864 135.518845 17.562674  -0.181987 0.840009 0.511142  0.009766 0.272439 1 0 1.000000
0  -38.304794 135.518845 17.562674  0.181925 0.839998 0.511181  0.096683 0.272439 1 0 1.000000
0  -38.304794 135.835403 17.039648  0.265474 0.930829 0.251160  0.096683 0.263649 1 0 1.000000
misc
0  -38.304794 135.835403 17.039648  0.265474 0.930829 0.251160  0.096683 0.263649 1 0 1.000000
0  -43.837864 135.835403 17.039648  -0.265663 0.930801 0.251062  0.009766 0.263649 1 0 1.000000
0  -43.837864 135.518845 17.562674  -0.181987 0.840009 0.511142  0.009766 0.272439 1 0 1.000000
misc
0  -37.823063 135.518845 10.075140  0.536481 0.825111 -0.177144  0.104495 0.160131 1 0 1.000000
0  -38.304794 135.518845 9.565877  0.181886 0.839975 -0.511233  0.096683 0.151341 1 0 1.000000
0  -38.304794 135.835403 10.075140  0.265395 0.930836 -0.251214  0.096683 0.160131 1 0 1.000000
misc
0  -43.837864 135.518845 9.565877  -0.181951 0.839933 -0.511279  0.009766 0.151341 1 0 1.000000
0  -44.319599 135.518845 10.075141  -0.536474 0.825124 -0.177104  0.001953 0.160131 1 0 1.000000
0  -43.837864 135.835403 10.075140  -0.265457 0.930815 -0.251230  0.009766 0.160131 1 0 1.000000
misc
0  -38.304794 135.518845 17.562674  0.181925 0.839998 0.511181  0.096683 0.272439 1 0 1.000000
0  -37.823063 135.518845 17.039646  0.536460 0.825132 0.177111  0.104495 0.263649 1 0 1.000000
0  -38.304794 135.835403 17.039648  0.265474 0.930829 0.251160  0.096683 0.263649 1 0 1.000000
misc
0  -44.319599 135.518845 17.039648  -0.536480 0.825119 0.177109  0.001953 0.263649 1 0 1.000000
0  -43.837864 135.518845 17.562674  -0.181987 0.840009 0.511142  0.009766 0.272439 1 0 1.000000
0  -43.837864 135.835403 17.039648  -0.265663 0.930801 0.251062  0.009766 0.263649 1 0 1.000000
misc
0  43.810322 134.899460 9.565871  0.382959 -0.130931 -0.914440  0.476577 0.292947 1 0 1.000000
0  38.277252 134.899460 9.565871  -0.382959 -0.130959 -0.914435  0.476577 0.292947 1 0 1.000000
0  38.277252 135.518845 9.565871  -0.253286 0.866389 -0.430368  0.476577 0.292947 1 0 1.000000
misc
0  38.277252 135.518845 9.565871  -0.253286 0.866389 -0.430368  0.476577 0.292947 1 0 1.000000
0  43.810322 135.518845 9.565871  0.253216 0.866421 -0.430343  0.476577 0.292947 1 0 1.000000
0  43.810322 134.899460 9.565871  0.382959 -0.130931 -0.914440  0.476577 0.292947 1 0 1.000000
misc
0  37.795517 134.899460 17.039642  -0.926508 -0.124760 0.354991  0.476577 0.292947 1 0 1.000000
0  37.795517 135.518845 17.039642  -0.420485 0.879009 0.224802  0.476577 0.292947 1 0 1.000000
0  37.795517 135.518845 10.075134  -0.420496 0.878979 -0.224897  0.476577 0.292947 1 0 1.000000
misc
0  37.795517 135.518845 10.075134  -0.420496 0.878979 -0.224897  0.476577 0.292947 1 0 1.000000
0  37.795517 134.899460 10.075134  -0.926489 -0.124817 -0.355019  0.476577 0.292947 1 0 1.000000
0  37.795517 134.899460 17.039642  -0.926508 -0.124760 0.354991  0.476577 0.292947 1 0 1.000000
misc
0  44.292053 134.899460 17.039640  0.926550 -0.124727 0.354893  0.476577 0.292947 1 0 1.000000
0  44.292053 134.899460 10.075133  0.926413 -0.124684 -0.355263  0.476577 0.292947 1 0 1.000000
0  44.292053 135.518845 10.075133  0.420427 0.878954 -0.225126  0.476577 0.292947 1 0 1.000000
misc
0  44.292053 135.518845 10.075133  0.420427 0.878954 -0.225126  0.476577 0.292947 1 0 1.000000
0  44.292053 135.518845 17.039640  0.420403 0.879050 0.224795  0.476577 0.292947 1 0 1.000000
0  44.292053 134.899460 17.039640  0.926550 -0.124727 0.354893  0.476577 0.292947 1 0 1.000000
misc
0  43.810322 134.899460 17.562666  0.382975 -0.130956 0.914429  0.476577 0.292947 1 0 1.000000
0  43.810322 135.518845 17.562666  0.253212 0.866440 0.430308  0.476577 0.292947 1 0 1.000000
0  38.277252 135.518845 17.562666  -0.253267 0.866407 0.430343  0.476577 0.292947 1 0 1.000000
misc
0  38.277252 135.518845 17.562666  -0.253267 0.866407 0.430343  0.476577 0.292947 1 0 1.000000
0  38.277252 134.899460 17.562666  -0.383108 -0.130970 0.914372  0.476577 0.292947 1 0 1.000000
0  43.810322 134.899460 17.562666  0.382975 -0.130956 0.914429  0.476577 0.292947 1 0 1.000000
misc
0  43.810322 133.165222 10.075134  0.503169 -0.707676 -0.496000  0.476577 0.292947 1 0 1.000000
0  43.810322 133.165222 17.039640  0.503330 -0.707712 0.495785  0.476577 0.292947 1 0 1.000000
0  38.277252 133.165222 17.039640  -0.503182 -0.707753 0.495877  0.476577 0.292947 1 0 1.000000
misc
0  38.277252 133.165222 17.039640  -0.503182 -0.707753 0.495877  0.476577 0.292947 1 0 1.000000
0  38.277252 133.165222 10.075134  -0.503147 -0.707740 -0.495932  0.476577 0.292947 1 0 1.000000
0  43.810322 133.165222 10.075134  0.503169 -0.707676 -0.496000  0.476577 0.292947 1 0 1.000000
misc
0  37.795517 135.518845 10.075134  -0.420496 0.878979 -0.224897  0.476577 0.292947 1 0 1.000000
0  38.277252 135.518845 9.565871  -0.253286 0.866389 -0.430368  0.476577 0.292947 1 0 1.000000
0  38.277252 134.899460 9.565871  -0.382959 -0.130959 -0.914435  0.476577 0.292947 1 0 1.000000
misc
0  38.277252 134.899460 9.565871  -0.382959 -0.130959 -0.914435  0.476577 0.292947 1 0 1.000000
0  37.795517 134.899460 10.075134  -0.926489 -0.124817 -0.355019  0.476577 0.292947 1 0 1.000000
0  37.795517 135.518845 10.075134  -0.420496 0.878979 -0.224897  0.476577 0.292947 1 0 1.000000
misc
0  43.810322 135.518845 9.565871  0.253216 0.866421 -0.430343  0.476577 0.292947 1 0 1.000000
0  44.292053 135.518845 10.075133  0.420427 0.878954 -0.225126  0.476577 0.292947 1 0 1.000000
0  44.292053 134.899460 10.075133  0.926413 -0.124684 -0.355263  0.476577 0.292947 1 0 1.000000
misc
0  44.292053 134.899460 10.075133  0.926413 -0.124684 -0.355263  0.476577 0.292947 1 0 1.000000
0  43.810322 134.899460 9.565871  0.382959 -0.130931 -0.914440  0.476577 0.292947 1 0 1.000000
0  43.810322 135.518845 9.565871  0.253216 0.866421 -0.430343  0.476577 0.292947 1 0 1.000000
misc
0  38.277252 135.518845 17.562666  -0.253267 0.866407 0.430343  0.476577 0.292947 1 0 1.000000
0  37.795517 135.518845 17.039642  -0.420485 0.879009 0.224802  0.476577 0.292947 1 0 1.000000
0  37.795517 134.899460 17.039642  -0.926508 -0.124760 0.354991  0.476577 0.292947 1 0 1.000000
misc
0  37.795517 134.899460 17.039642  -0.926508 -0.124760 0.354991  0.476577 0.292947 1 0 1.000000
0  38.277252 134.899460 17.562666  -0.383108 -0.130970 0.914372  0.476577 0.292947 1 0 1.000000
0  38.277252 135.518845 17.562666  -0.253267 0.866407 0.430343  0.476577 0.292947 1 0 1.000000
misc
0  44.292053 135.518845 17.039640  0.420403 0.879050 0.224795  0.476577 0.292947 1 0 1.000000
0  43.810322 135.518845 17.562666  0.253212 0.866440 0.430308  0.476577 0.292947 1 0 1.000000
0  43.810322 134.899460 17.562666  0.382975 -0.130956 0.914429  0.476577 0.292947 1 0 1.000000
misc
0  43.810322 134.899460 17.562666  0.382975 -0.130956 0.914429  0.476577 0.292947 1 0 1.000000
0  44.292053 134.899460 17.039640  0.926550 -0.124727 0.354893  0.476577 0.292947 1 0 1.000000
0  44.292053 135.518845 17.039640  0.420403 0.879050 0.224795  0.476577 0.292947 1 0 1.000000
misc
0  38.277252 133.165222 17.039640  -0.503182 -0.707753 0.495877  0.476577 0.292947 1 0 1.000000
0  37.795517 134.899460 17.039642  -0.926508 -0.124760 0.354991  0.476577 0.292947 1 0 1.000000
0  37.795517 134.899460 10.075134  -0.926489 -0.124817 -0.355019  0.476577 0.292947 1 0 1.000000
misc
0  37.795517 134.899460 10.075134  -0.926489 -0.124817 -0.355019  0.476577 0.292947 1 0 1.000000
0  38.277252 133.165222 10.075134  -0.503147 -0.707740 -0.495932  0.476577 0.292947 1 0 1.000000
0  38.277252 133.165222 17.039640  -0.503182 -0.707753 0.495877  0.476577 0.292947 1 0 1.000000
misc
0  38.277252 134.899460 17.562666  -0.383108 -0.130970 0.914372  0.476577 0.292947 1 0 1.000000
0  38.277252 133.165222 17.039640  -0.503182 -0.707753 0.495877  0.476577 0.292947 1 0 1.000000
0  43.810322 133.165222 17.039640  0.503330 -0.707712 0.495785  0.476577 0.292947 1 0 1.000000
misc
0  43.810322 133.165222 17.039640  0.503330 -0.707712 0.495785  0.476577 0.292947 1 0 1.000000
0  43.810322 134.899460 17.562666  0.382975 -0.130956 0.914429  0.476577 0.292947 1 0 1.000000
0  38.277252 134.899460 17.562666  -0.383108 -0.130970 0.914372  0.476577 0.292947 1 0 1.000000
misc
0  44.292053 134.899460 17.039640  0.926550 -0.124727 0.354893  0.476577 0.292947 1 0 1.000000
0  43.810322 133.165222 17.039640  0.503330 -0.707712 0.495785  0.476577 0.292947 1 0 1.000000
0  43.810322 133.165222 10.075134  0.503169 -0.707676 -0.496000  0.476577 0.292947 1 0 1.000000
misc
0  43.810322 133.165222 10.075134  0.503169 -0.707676 -0.496000  0.476577 0.292947 1 0 1.000000
0  44.292053 134.899460 10.075133  0.926413 -0.124684 -0.355263  0.476577 0.292947 1 0 1.000000
0  44.292053 134.899460 17.039640  0.926550 -0.124727 0.354893  0.476577 0.292947 1 0 1.000000
misc
0  38.277252 133.165222 10.075134  -0.503147 -0.707740 -0.495932  0.476577 0.292947 1 0 1.000000
0  38.277252 134.899460 9.565871  -0.382959 -0.130959 -0.914435  0.476577 0.292947 1 0 1.000000
0  43.810322 134.899460 9.565871  0.382959 -0.130931 -0.914440  0.476577 0.292947 1 0 1.000000
misc
0  43.810322 134.899460 9.565871  0.382959 -0.130931 -0.914440  0.476577 0.292947 1 0 1.000000
0  43.810322 133.165222 10.075134  0.503169 -0.707676 -0.496000  0.476577 0.292947 1 0 1.000000
0  38.277252 133.165222 10.075134  -0.503147 -0.707740 -0.495932  0.476577 0.292947 1 0 1.000000
misc
0  38.277252 133.165222 17.039640  -0.503182 -0.707753 0.495877  0.476577 0.292947 1 0 1.000000
0  38.277252 134.899460 17.562666  -0.383108 -0.130970 0.914372  0.476577 0.292947 1 0 1.000000
0  37.795517 134.899460 17.039642  -0.926508 -0.124760 0.354991  0.476577 0.292947 1 0 1.000000
misc
0  44.292053 134.899460 17.039640  0.926550 -0.124727 0.354893  0.476577 0.292947 1 0 1.000000
0  43.810322 134.899460 17.562666  0.382975 -0.130956 0.914429  0.476577 0.292947 1 0 1.000000
0  43.810322 133.165222 17.039640  0.503330 -0.707712 0.495785  0.476577 0.292947 1 0 1.000000
misc
0  38.277252 134.899460 9.565871  -0.382959 -0.130959 -0.914435  0.476577 0.292947 1 0 1.000000
0  38.277252 133.165222 10.075134  -0.503147 -0.707740 -0.495932  0.476577 0.292947 1 0 1.000000
0  37.795517 134.899460 10.075134  -0.926489 -0.124817 -0.355019  0.476577 0.292947 1 0 1.000000
misc
0  44.292053 134.899460 10.075133  0.926413 -0.124684 -0.355263  0.476577 0.292947 1 0 1.000000
0  43.810322 133.165222 10.075134  0.503169 -0.707676 -0.496000  0.476577 0.292947 1 0 1.000000
0  43.810322 134.899460 9.565871  0.382959 -0.130931 -0.914440  0.476577 0.292947 1 0 1.000000
misc
0  43.810322 134.858170 17.039640  -0.396085 0.835058 -0.381832  0.438490 0.402326 1 0 1.000000
0  43.810322 134.858170 10.075134  -0.396012 0.834990 0.382054  0.438490 0.337870 1 0 1.000000
0  38.277252 134.858170 10.075134  0.395851 0.834886 0.382449  0.494156 0.337870 1 0 1.000000
misc
0  38.277252 134.858170 10.075134  0.395851 0.834886 0.382449  0.494156 0.337870 1 0 1.000000
0  38.277252 134.858170 17.039640  0.396055 0.835117 -0.381732  0.494156 0.402326 1 0 1.000000
0  43.810322 134.858170 17.039640  -0.396085 0.835058 -0.381832  0.438490 0.402326 1 0 1.000000
misc
0  38.277252 135.518845 9.565871  -0.253286 0.866389 -0.430368  0.494156 0.332987 1 0 1.000000
0  38.277252 134.858170 10.075134  0.395851 0.834886 0.382449  0.494156 0.337870 1 0 1.000000
0  43.810322 134.858170 10.075134  -0.396012 0.834990 0.382054  0.438490 0.337870 1 0 1.000000
misc
0  43.810322 134.858170 10.075134  -0.396012 0.834990 0.382054  0.438490 0.337870 1 0 1.000000
0  43.810322 135.518845 9.565871  0.253216 0.866421 -0.430343  0.438490 0.332987 1 0 1.000000
0  38.277252 135.518845 9.565871  -0.253286 0.866389 -0.430368  0.494156 0.332987 1 0 1.000000
misc
0  38.277252 134.858170 10.075134  0.395851 0.834886 0.382449  0.494156 0.337870 1 0 1.000000
0  37.795517 135.518845 10.075134  -0.420496 0.878979 -0.224897  0.499039 0.337870 1 0 1.000000
0  37.795517 135.518845 17.039642  -0.420485 0.879009 0.224802  0.499039 0.402326 1 0 1.000000
misc
0  37.795517 135.518845 17.039642  -0.420485 0.879009 0.224802  0.499039 0.402326 1 0 1.000000
0  38.277252 134.858170 17.039640  0.396055 0.835117 -0.381732  0.494156 0.402326 1 0 1.000000
0  38.277252 134.858170 10.075134  0.395851 0.834886 0.382449  0.494156 0.337870 1 0 1.000000
misc
0  44.292053 135.518845 10.075133  0.420427 0.878954 -0.225126  0.434584 0.337870 1 0 1.000000
0  43.810322 134.858170 10.075134  -0.396012 0.834990 0.382054  0.438490 0.337870 1 0 1.000000
0  43.810322 134.858170 17.039640  -0.396085 0.835058 -0.381832  0.438490 0.402326 1 0 1.000000
misc
0  43.810322 134.858170 17.039640  -0.396085 0.835058 -0.381832  0.438490 0.402326 1 0 1.000000
0  44.292053 135.518845 17.039640  0.420403 0.879050 0.224795  0.434584 0.402326 1 0 1.000000
0  44.292053 135.518845 10.075133  0.420427 0.878954 -0.225126  0.434584 0.337870 1 0 1.000000
misc
0  38.277252 134.858170 17.039640  0.396055 0.835117 -0.381732  0.494156 0.402326 1 0 1.000000
0  38.277252 135.518845 17.562666  -0.253267 0.866407 0.430343  0.494156 0.406232 1 0 1.000000
0  43.810322 135.518845 17.562666  0.253212 0.866440 0.430308  0.438490 0.406232 1 0 1.000000
misc
0  43.810322 135.518845 17.562666  0.253212 0.866440 0.430308  0.438490 0.406232 1 0 1.000000
0  43.810322 134.858170 17.039640  -0.396085 0.835058 -0.381832  0.438490 0.402326 1 0 1.000000
0  38.277252 134.858170 17.039640  0.396055 0.835117 -0.381732  0.494156 0.402326 1 0 1.000000
misc
0  37.795517 135.518845 10.075134  -0.420496 0.878979 -0.224897  0.499039 0.337870 1 0 1.000000
0  38.277252 134.858170 10.075134  0.395851 0.834886 0.382449  0.494156 0.337870 1 0 1.000000
0  38.277252 135.518845 9.565871  -0.253286 0.866389 -0.430368  0.494156 0.332987 1 0 1.000000
misc
0  43.810322 135.518845 9.565871  0.253216 0.866421 -0.430343  0.438490 0.332987 1 0 1.000000
0  43.810322 134.858170 10.075134  -0.396012 0.834990 0.382054  0.438490 0.337870 1 0 1.000000
0  44.292053 135.518845 10.075133  0.420427 0.878954 -0.225126  0.434584 0.337870 1 0 1.000000
misc
0  38.277252 135.518845 17.562666  -0.253267 0.866407 0.430343  0.494156 0.406232 1 0 1.000000
0  38.277252 134.858170 17.039640  0.396055 0.835117 -0.381732  0.494156 0.402326 1 0 1.000000
0  37.795517 135.518845 17.039642  -0.420485 0.879009 0.224802  0.499039 0.402326 1 0 1.000000
misc
0  44.292053 135.518845 17.039640  0.420403 0.879050 0.224795  0.434584 0.402326 1 0 1.000000
0  43.810322 134.858170 17.039640  -0.396085 0.835058 -0.381832  0.438490 0.402326 1 0 1.000000
0  43.810322 135.518845 17.562666  0.253212 0.866440 0.430308  0.438490 0.406232 1 0 1.000000
misc
0  -43.837864 134.899460 9.565877  -0.382966 -0.130928 -0.914437  0.476577 0.292947 1 0 1.000000
0  -43.837864 135.518845 9.565877  -0.253292 0.866404 -0.430333  0.476577 0.292947 1 0 1.000000
0  -38.304794 135.518845 9.565877  0.253078 0.866427 -0.430414  0.476577 0.292947 1 0 1.000000
misc
0  -38.304794 135.518845 9.565877  0.253078 0.866427 -0.430414  0.476577 0.292947 1 0 1.000000
0  -38.304794 134.899460 9.565877  0.382960 -0.130961 -0.914435  0.476577 0.292947 1 0 1.000000
0  -43.837864 134.899460 9.565877  -0.382966 -0.130928 -0.914437  0.476577 0.292947 1 0 1.000000
misc
0  -37.823063 134.899460 17.039646  0.926509 -0.124758 0.354987  0.476577 0.292947 1 0 1.000000
0  -37.823063 134.899460 10.075140  0.926430 -0.124709 -0.355212  0.476577 0.292947 1 0 1.000000
0  -37.823063 135.518845 10.075140  0.420440 0.879031 -0.224799  0.476577 0.292947 1 0 1.000000
misc
0  -37.823063 135.518845 10.075140  0.420440 0.879031 -0.224799  0.476577 0.292947 1 0 1.000000
0  -37.823063 135.518845 17.039646  0.420427 0.879022 0.224856  0.476577 0.292947 1 0 1.000000
0  -37.823063 134.899460 17.039646  0.926509 -0.124758 0.354987  0.476577 0.292947 1 0 1.000000
misc
0  -44.319599 134.899460 17.039648  -0.926551 -0.124729 0.354889  0.476577 0.292947 1 0 1.000000
0  -44.319599 135.518845 17.039648  -0.420465 0.879022 0.224788  0.476577 0.292947 1 0 1.000000
0  -44.319599 135.518845 10.075141  -0.420489 0.879004 -0.224814  0.476577 0.292947 1 0 1.000000
misc
0  -44.319599 135.518845 10.075141  -0.420489 0.879004 -0.224814  0.476577 0.292947 1 0 1.000000
0  -44.319599 134.899460 10.075141  -0.926457 -0.124760 -0.355122  0.476577 0.292947 1 0 1.000000
0  -44.319599 134.899460 17.039648  -0.926551 -0.124729 0.354889  0.476577 0.292947 1 0 1.000000
misc
0  -43.837864 134.899460 17.562674  -0.382973 -0.130955 0.914430  0.476577 0.292947 1 0 1.000000
0  -38.304794 134.899460 17.562674  0.383002 -0.130957 0.914418  0.476577 0.292947 1 0 1.000000
0  -38.304794 135.518845 17.562674  0.253236 0.866432 0.430310  0.476577 0.292947 1 0 1.000000
misc
0  -38.304794 135.518845 17.562674  0.253236 0.866432 0.430310  0.476577 0.292947 1 0 1.000000
0  -43.837864 135.518845 17.562674  -0.253402 0.866388 0.430301  0.476577 0.292947 1 0 1.000000
0  -43.837864 134.899460 17.562674  -0.382973 -0.130955 0.914430  0.476577 0.292947 1 0 1.000000
misc
0  -43.837864 133.165222 10.075140  -0.503154 -0.707718 -0.495954  0.476577 0.292947 1 0 1.000000
0  -38.304794 133.165222 10.075140  0.503146 -0.707740 -0.495931  0.476577 0.292947 1 0 1.000000
0  -38.304794 133.165222 17.039648  0.503403 -0.707691 0.495741  0.476577 0.292947 1 0 1.000000
misc
0  -38.304794 133.165222 17.039648  0.503403 -0.707691 0.495741  0.476577 0.292947 1 0 1.000000
0  -43.837864 133.165222 17.039648  -0.503164 -0.707759 0.495886  0.476577 0.292947 1 0 1.000000
0  -43.837864 133.165222 10.075140  -0.503154 -0.707718 -0.495954  0.476577 0.292947 1 0 1.000000
misc
0  -37.823063 135.518845 10.075140  0.420440 0.879031 -0.224799  0.476577 0.292947 1 0 1.000000
0  -37.823063 134.899460 10.075140  0.926430 -0.124709 -0.355212  0.476577 0.292947 1 0 1.000000
0  -38.304794 134.899460 9.565877  0.382960 -0.130961 -0.914435  0.476577 0.292947 1 0 1.000000
misc
0  -38.304794 134.899460 9.565877  0.382960 -0.130961 -0.914435  0.476577 0.292947 1 0 1.000000
0  -38.304794 135.518845 9.565877  0.253078 0.866427 -0.430414  0.476577 0.292947 1 0 1.000000
0  -37.823063 135.518845 10.075140  0.420440 0.879031 -0.224799  0.476577 0.292947 1 0 1.000000
misc
0  -43.837864 135.518845 9.565877  -0.253292 0.866404 -0.430333  0.476577 0.292947 1 0 1.000000
0  -43.837864 134.899460 9.565877  -0.382966 -0.130928 -0.914437  0.476577 0.292947 1 0 1.000000
0  -44.319599 134.899460 10.075141  -0.926457 -0.124760 -0.355122  0.476577 0.292947 1 0 1.000000
misc
0  -44.319599 134.899460 10.075141  -0.926457 -0.124760 -0.355122  0.476577 0.292947 1 0 1.000000
0  -44.319599 135.518845 10.075141  -0.420489 0.879004 -0.224814  0.476577 0.292947 1 0 1.000000
0  -43.837864 135.518845 9.565877  -0.253292 0.866404 -0.430333  0.476577 0.292947 1 0 1.000000
misc
0  -38.304794 135.518845 17.562674  0.253236 0.866432 0.430310  0.476577 0.292947 1 0 1.000000
0  -38.304794 134.899460 17.562674  0.383002 -0.130957 0.914418  0.476577 0.292947 1 0 1.000000
0  -37.823063 134.899460 17.039646  0.926509 -0.124758 0.354987  0.476577 0.292947 1 0 1.000000
misc
0  -37.823063 134.899460 17.039646  0.926509 -0.124758 0.354987  0.476577 0.292947 1 0 1.000000
0  -37.823063 135.518845 17.039646  0.420427 0.879022 0.224856  0.476577 0.292947 1 0 1.000000
0  -38.304794 135.518845 17.562674  0.253236 0.866432 0.430310  0.476577 0.292947 1 0 1.000000
misc
0  -44.319599 135.518845 17.039648  -0.420465 0.879022 0.224788  0.476577 0.292947 1 0 1.000000
0  -44.319599 134.899460 17.039648  -0.926551 -0.124729 0.354889  0.476577 0.292947 1 0 1.000000
0  -43.837864 134.899460 17.562674  -0.382973 -0.130955 0.914430  0.476577 0.292947 1 0 1.000000
misc
0  -43.837864 134.899460 17.562674  -0.382973 -0.130955 0.914430  0.476577 0.292947 1 0 1.000000
0  -43.837864 135.518845 17.562674  -0.253402 0.866388 0.430301  0.476577 0.292947 1 0 1.000000
0  -44.319599 135.518845 17.039648  -0.420465 0.879022 0.224788  0.476577 0.292947 1 0 1.000000
misc
0  -38.304794 133.165222 17.039648  0.503403 -0.707691 0.495741  0.476577 0.292947 1 0 1.000000
0  -38.304794 133.165222 10.075140  0.503146 -0.707740 -0.495931  0.476577 0.292947 1 0 1.000000
0  -37.823063 134.899460 10.075140  0.926430 -0.124709 -0.355212  0.476577 0.292947 1 0 1.000000
misc
0  -37.823063 134.899460 10.075140  0.926430 -0.124709 -0.355212  0.476577 0.292947 1 0 1.000000
0  -37.823063 134.899460 17.039646  0.926509 -0.124758 0.354987  0.476577 0.292947 1 0 1.000000
0  -38.304794 133.165222 17.039648  0.503403 -0.707691 0.495741  0.476577 0.292947 1 0 1.000000
misc
0  -38.304794 134.899460 17.562674  0.383002 -0.130957 0.914418  0.476577 0.292947 1 0 1.000000
0  -43.837864 134.899460 17.562674  -0.382973 -0.130955 0.914430  0.476577 0.292947 1 0 1.000000
0  -43.837864 133.165222 17.039648  -0.503164 -0.707759 0.495886  0.476577 0.292947 1 0 1.000000
misc
0  -43.837864 133.165222 17.039648  -0.503164 -0.707759 0.495886  0.476577 0.292947 1 0 1.000000
0  -38.304794 133.165222 17.039648  0.503403 -0.707691 0.495741  0.476577 0.292947 1 0 1.000000
0  -38.304794 134.899460 17.562674  0.383002 -0.130957 0.914418  0.476577 0.292947 1 0 1.000000
misc
0  -44.319599 134.899460 17.039648  -0.926551 -0.124729 0.354889  0.476577 0.292947 1 0 1.000000
0  -44.319599 134.899460 10.075141  -0.926457 -0.124760 -0.355122  0.476577 0.292947 1 0 1.000000
0  -43.837864 133.165222 10.075140  -0.503154 -0.707718 -0.495954  0.476577 0.292947 1 0 1.000000
misc
0  -43.837864 133.165222 10.075140  -0.503154 -0.707718 -0.495954  0.476577 0.292947 1 0 1.000000
0  -43.837864 133.165222 17.039648  -0.503164 -0.707759 0.495886  0.476577 0.292947 1 0 1.000000
0  -44.319599 134.899460 17.039648  -0.926551 -0.124729 0.354889  0.476577 0.292947 1 0 1.000000
misc
0  -38.304794 133.165222 10.075140  0.503146 -0.707740 -0.495931  0.476577 0.292947 1 0 1.000000
0  -43.837864 133.165222 10.075140  -0.503154 -0.707718 -0.495954  0.476577 0.292947 1 0 1.000000
0  -43.837864 134.899460 9.565877  -0.382966 -0.130928 -0.914437  0.476577 0.292947 1 0 1.000000
misc
0  -43.837864 134.899460 9.565877  -0.382966 -0.130928 -0.914437  0.476577 0.292947 1 0 1.000000
0  -38.304794 134.899460 9.565877  0.382960 -0.130961 -0.914435  0.476577 0.292947 1 0 1.000000
0  -38.304794 133.165222 10.075140  0.503146 -0.707740 -0.495931  0.476577 0.292947 1 0 1.000000
misc
0  -38.304794 134.899460 17.562674  0.383002 -0.130957 0.914418  0.476577 0.292947 1 0 1.000000
0  -38.304794 133.165222 17.039648  0.503403 -0.707691 0.495741  0.476577 0.292947 1 0 1.000000
0  -37.823063 134.899460 17.039646  0.926509 -0.124758 0.354987  0.476577 0.292947 1 0 1.000000
misc
0  -43.837864 134.899460 17.562674  -0.382973 -0.130955 0.914430  0.476577 0.292947 1 0 1.000000
0  -44.319599 134.899460 17.039648  -0.926551 -0.124729 0.354889  0.476577 0.292947 1 0 1.000000
0  -43.837864 133.165222 17.039648  -0.503164 -0.707759 0.495886  0.476577 0.292947 1 0 1.000000
misc
0  -38.304794 133.165222 10.075140  0.503146 -0.707740 -0.495931  0.476577 0.292947 1 0 1.000000
0  -38.304794 134.899460 9.565877  0.382960 -0.130961 -0.914435  0.476577 0.292947 1 0 1.000000
0  -37.823063 134.899460 10.075140  0.926430 -0.124709 -0.355212  0.476577 0.292947 1 0 1.000000
misc
0  -43.837864 133.165222 10.075140  -0.503154 -0.707718 -0.495954  0.476577 0.292947 1 0 1.000000
0  -44.319599 134.899460 10.075141  -0.926457 -0.124760 -0.355122  0.476577 0.292947 1 0 1.000000
0  -43.837864 134.899460 9.565877  -0.382966 -0.130928 -0.914437  0.476577 0.292947 1 0 1.000000
misc
0  -43.837864 134.858170 17.039648  0.396044 0.835104 -0.381774  0.438490 0.402326 1 0 1.000000
0  -38.304794 134.858170 17.039648  -0.396109 0.835109 -0.381695  0.494156 0.402326 1 0 1.000000
0  -38.304794 134.858170 10.075140  -0.395956 0.834934 0.382236  0.494156 0.337870 1 0 1.000000
misc
0  -38.304794 134.858170 10.075140  -0.395956 0.834934 0.382236  0.494156 0.337870 1 0 1.000000
0  -43.837864 134.858170 10.075140  0.396024 0.835060 0.381889  0.438490 0.337870 1 0 1.000000
0  -43.837864 134.858170 17.039648  0.396044 0.835104 -0.381774  0.438490 0.402326 1 0 1.000000
misc
0  -38.304794 135.518845 9.565877  0.253250 0.866437 -0.430292  0.494156 0.332987 1 0 1.000000
0  -43.837864 135.518845 9.565877  -0.253272 0.866409 -0.430335  0.438490 0.332987 1 0 1.000000
0  -43.837864 134.858170 10.075140  0.396024 0.835060 0.381889  0.438490 0.337870 1 0 1.000000
misc
0  -43.837864 134.858170 10.075140  0.396024 0.835060 0.381889  0.438490 0.337870 1 0 1.000000
0  -38.304794 134.858170 10.075140  -0.395956 0.834934 0.382236  0.494156 0.337870 1 0 1.000000
0  -38.304794 135.518845 9.565877  0.253250 0.866437 -0.430292  0.494156 0.332987 1 0 1.000000
misc
0  -38.304794 134.858170 10.075140  -0.395956 0.834934 0.382236  0.494156 0.337870 1 0 1.000000
0  -38.304794 134.858170 17.039648  -0.396109 0.835109 -0.381695  0.494156 0.402326 1 0 1.000000
0  -37.823063 135.518845 17.039646  0.420464 0.878984 0.224938  0.499039 0.402326 1 0 1.000000
misc
0  -37.823063 135.518845 17.039646  0.420464 0.878984 0.224938  0.499039 0.402326 1 0 1.000000
0  -37.823063 135.518845 10.075140  0.420495 0.878979 -0.224900  0.499039 0.337870 1 0 1.000000
0  -38.304794 134.858170 10.075140  -0.395956 0.834934 0.382236  0.494156 0.337870 1 0 1.000000
misc
0  -44.319599 135.518845 10.075141  -0.420494 0.878984 -0.224880  0.434584 0.337870 1 0 1.000000
0  -44.319599 135.518845 17.039648  -0.420499 0.878987 0.224860  0.434584 0.402326 1 0 1.000000
0  -43.837864 134.858170 17.039648  0.396044 0.835104 -0.381774  0.438490 0.402326 1 0 1.000000
misc
0  -43.837864 134.858170 17.039648  0.396044 0.835104 -0.381774  0.438490 0.402326 1 0 1.000000
0  -43.837864 134.858170 10.075140  0.396024 0.835060 0.381889  0.438490 0.337870 1 0 1.000000
0  -44.319599 135.518845 10.075141  -0.420494 0.878984 -0.224880  0.434584 0.337870 1 0 1.000000
misc
0  -38.304794 134.858170 17.039648  -0.396109 0.835109 -0.381695  0.494156 0.402326 1 0 1.000000
0  -43.837864 134.858170 17.039648  0.396044 0.835104 -0.381774  0.438490 0.402326 1 0 1.000000
0  -43.837864 135.518845 17.562674  -0.253347 0.866363 0.430385  0.438490 0.406232 1 0 1.000000
misc
0  -43.837864 135.518845 17.562674  -0.253347 0.866363 0.430385  0.438490 0.406232 1 0 1.000000
0  -38.304794 135.518845 17.562674  0.253229 0.866401 0.430376  0.494156 0.406232 1 0 1.000000
0  -38.304794 134.858170 17.039648  -0.396109 0.835109 -0.381695  0.494156 0.402326 1 0 1.000000
misc
0  -38.304794 134.858170 10.075140  -0.395956 0.834934 0.382236  0.494156 0.337870 1 0 1.000000
0  -37.823063 135.518845 10.075140  0.420495 0.878979 -0.224900  0.499039 0.337870 1 0 1.000000
0  -38.304794 135.518845 9.565877  0.253250 0.866437 -0.430292  0.494156 0.332987 1 0 1.000000
misc
0  -43.837864 134.858170 10.075140  0.396024 0.835060 0.381889  0.438490 0.337870 1 0 1.000000
0  -43.837864 135.518845 9.565877  -0.253272 0.866409 -0.430335  0.438490 0.332987 1 0 1.000000
0  -44.319599 135.518845 10.075141  -0.420494 0.878984 -0.224880  0.434584 0.337870 1 0 1.000000
misc
0  -38.304794 134.858170 17.039648  -0.396109 0.835109 -0.381695  0.494156 0.402326 1 0 1.000000
0  -38.304794 135.518845 17.562674  0.253229 0.866401 0.430376  0.494156 0.406232 1 0 1.000000
0  -37.823063 135.518845 17.039646  0.420464 0.878984 0.224938  0.499039 0.402326 1 0 1.000000
misc
0  -43.837864 134.858170 17.039648  0.396044 0.835104 -0.381774  0.438490 0.402326 1 0 1.000000
0  -44.319599 135.518845 17.039648  -0.420499 0.878987 0.224860  0.434584 0.402326 1 0 1.000000
0  -43.837864 135.518845 17.562674  -0.253347 0.866363 0.430385  0.438490 0.406232 1 0 1.000000
end
