version 1
nodes
0 "root" -1
end
skeleton
time 0
0  0.000000 0.000000 0.000000  0.000000 -0.000000 0.000000
end
triangles
misc
0  31.780737 -58.000851 71.117805  0.911885 0.069253 0.404561  0.469741 0.040986 1 0 1.000000
0  31.354057 -58.620224 72.108803  0.909555 0.017703 0.415207  0.467788 0.040986 1 0 1.000000
0  31.574280 -59.074432 71.640831  0.908310 0.011161 0.418150  0.468764 0.007782 1 0 1.000000
misc
0  31.574280 -59.074432 71.640831  0.908310 0.011161 0.418150  0.468764 0.007782 1 0 1.000000
0  31.973427 -58.578934 70.787468  0.915324 0.093646 0.391679  0.469741 0.007782 1 0 1.000000
0  31.780737 -58.000851 71.117805  0.911885 0.069253 0.404561  0.469741 0.040986 1 0 1.000000
misc
0  31.574280 -59.074432 71.640831  0.908310 0.011161 0.418150  0.468764 0.007782 1 0 1.000000
0  31.354057 -58.620224 72.108803  0.909555 0.017703 0.415207  0.467788 0.040986 1 0 1.000000
0  31.106310 -59.473587 72.645592  0.916040 -0.029994 0.399964  0.466811 0.040986 1 0 1.000000
misc
0  31.106310 -59.473587 72.645592  0.916040 -0.029994 0.399964  0.466811 0.040986 1 0 1.000000
0  31.326530 -59.927792 72.108803  0.918615 -0.041775 0.392940  0.466811 0.007782 1 0 1.000000
0  31.574280 -59.074432 71.640831  0.908310 0.011161 0.418150  0.468764 0.007782 1 0 1.000000
misc
0  30.789742 -67.098763 72.673119  0.913408 -0.034275 0.405600  0.464858 0.040986 1 0 1.000000
0  31.326530 -59.927792 72.108803  0.918615 -0.041775 0.392940  0.466811 0.007782 1 0 1.000000
0  31.106310 -59.473587 72.645592  0.916040 -0.029994 0.399964  0.466811 0.040986 1 0 1.000000
misc
0  38.070816 -91.502068 51.586903  0.880860 -0.026247 0.472648  0.480483 0.007782 1 0 1.000000
0  38.277275 -94.819153 51.008816  0.926004 -0.004605 0.377486  0.482437 0.040986 1 0 1.000000
0  38.896641 -74.132088 51.077637  0.936944 -0.034394 0.347782  0.479507 0.040986 1 0 1.000000
misc
0  38.896641 -74.132088 51.077637  0.936944 -0.034394 0.347782  0.479507 0.040986 1 0 1.000000
0  38.676422 -74.104561 51.669483  0.937576 -0.034485 0.346066  0.478530 0.007782 1 0 1.000000
0  38.070816 -91.502068 51.586903  0.880860 -0.026247 0.472648  0.480483 0.007782 1 0 1.000000
misc
0  39.199448 -59.363480 51.738304  0.923437 -0.004851 0.383719  0.477554 0.007782 1 0 1.000000
0  39.405907 -59.046906 51.201515  0.927310 0.006472 0.374238  0.477554 0.040986 1 0 1.000000
0  38.951698 -57.808163 52.164982  0.904492 -0.043015 0.424316  0.475600 0.040986 1 0 1.000000
misc
0  38.951698 -57.808163 52.164982  0.904492 -0.043015 0.424316  0.475600 0.040986 1 0 1.000000
0  38.745243 -58.386238 52.522842  0.894962 -0.055708 0.442650  0.475600 0.007782 1 0 1.000000
0  39.199448 -59.363480 51.738304  0.923437 -0.004851 0.383719  0.477554 0.007782 1 0 1.000000
misc
0  38.745243 -58.386238 52.522842  0.894962 -0.055708 0.442650  0.475600 0.007782 1 0 1.000000
0  38.951698 -57.808163 52.164982  0.904492 -0.043015 0.424316  0.475600 0.040986 1 0 1.000000
0  38.525021 -57.367718 53.307377  0.916831 -0.133513 0.376292  0.474624 0.040986 1 0 1.000000
misc
0  38.525021 -57.367718 53.307377  0.916831 -0.133513 0.376292  0.474624 0.040986 1 0 1.000000
0  38.346088 -57.973324 53.541367  0.917469 -0.141778 0.371686  0.474624 0.007782 1 0 1.000000
0  38.745243 -58.386238 52.522842  0.894962 -0.055708 0.442650  0.475600 0.007782 1 0 1.000000
misc
0  38.346088 -57.973324 53.541367  0.917469 -0.141778 0.371686  0.474624 0.007782 1 0 1.000000
0  38.525021 -57.367718 53.307377  0.916831 -0.133513 0.376292  0.474624 0.040986 1 0 1.000000
0  31.780737 -58.000851 71.117805  0.911885 0.069253 0.404561  0.469741 0.040986 1 0 1.000000
misc
0  31.780737 -58.000851 71.117805  0.911885 0.069253 0.404561  0.469741 0.040986 1 0 1.000000
0  31.973427 -58.578934 70.787468  0.915324 0.093646 0.391679  0.469741 0.007782 1 0 1.000000
0  38.346088 -57.973324 53.541367  0.917469 -0.141778 0.371686  0.474624 0.007782 1 0 1.000000
misc
0  30.569521 -78.164894 72.521713  0.962967 -0.029206 0.268034  0.461928 0.040986 1 0 1.000000
0  30.748449 -78.123604 71.847290  0.959271 -0.029635 0.280929  0.461928 0.007782 1 0 1.000000
0  30.789742 -67.098763 72.673119  0.913408 -0.034275 0.405600  0.464858 0.040986 1 0 1.000000
misc
0  31.202656 -82.170174 70.278214  0.910170 -0.079976 0.406442  0.458022 0.007782 1 0 1.000000
0  30.982433 -82.514275 70.691124  0.910390 -0.081279 0.405690  0.458022 0.040986 1 0 1.000000
0  34.547272 -91.901215 60.932552  0.959937 0.075732 0.269789  0.455092 0.040986 1 0 1.000000
misc
0  34.547272 -91.901215 60.932552  0.959937 0.075732 0.269789  0.455092 0.040986 1 0 1.000000
0  34.671146 -91.570885 60.395760  0.960236 0.081888 0.266912  0.455092 0.007782 1 0 1.000000
0  31.202656 -82.170174 70.278214  0.910170 -0.079976 0.406442  0.458022 0.007782 1 0 1.000000
misc
0  35.620853 -94.819153 57.890743  0.940267 0.034579 0.338677  0.485366 0.040986 1 0 1.000000
0  38.277275 -94.819153 51.008816  0.926004 -0.004605 0.377486  0.482437 0.040986 1 0 1.000000
0  38.057053 -94.213547 51.600666  0.931820 -0.000758 0.362921  0.482437 0.007782 1 0 1.000000
misc
0  38.057053 -94.213547 51.600666  0.931820 -0.000758 0.362921  0.482437 0.007782 1 0 1.000000
0  35.648380 -94.213547 57.725578  0.942167 0.037281 0.333064  0.485366 0.007782 1 0 1.000000
0  35.620853 -94.819153 57.890743  0.940267 0.034579 0.338677  0.485366 0.040986 1 0 1.000000
misc
0  30.748449 -78.123604 71.847290  0.959271 -0.029635 0.280929  0.461928 0.007782 1 0 1.000000
0  30.569521 -78.164894 72.521713  0.962967 -0.029206 0.268034  0.461928 0.040986 1 0 1.000000
0  30.652102 -80.573570 71.902351  0.924458 -0.053072 0.377573  0.459975 0.040986 1 0 1.000000
misc
0  30.652102 -80.573570 71.902351  0.924458 -0.053072 0.377573  0.459975 0.040986 1 0 1.000000
0  30.886089 -80.325821 71.379318  0.918240 -0.052716 0.392500  0.459975 0.007782 1 0 1.000000
0  30.748449 -78.123604 71.847290  0.959271 -0.029635 0.280929  0.461928 0.007782 1 0 1.000000
misc
0  35.648380 -94.213547 57.725578  0.942167 0.037281 0.333064  0.451186 0.007782 1 0 1.000000
0  34.671146 -91.570885 60.395760  0.960236 0.081888 0.266912  0.455092 0.007782 1 0 1.000000
0  34.547272 -91.901215 60.932552  0.959937 0.075732 0.269789  0.455092 0.040986 1 0 1.000000
misc
0  34.547272 -91.901215 60.932552  0.959937 0.075732 0.269789  0.455092 0.040986 1 0 1.000000
0  35.620853 -94.819153 57.890743  0.940267 0.034579 0.338677  0.451186 0.040986 1 0 1.000000
0  35.648380 -94.213547 57.725578  0.942167 0.037281 0.333064  0.451186 0.007782 1 0 1.000000
misc
0  38.070816 -91.502068 51.586903  0.931534 -0.006769 0.363592  0.836940 0.824213 1 0 1.000000
0  34.671146 -91.570885 60.395760  0.932866 -0.015883 0.359874  0.836940 0.824213 1 0 1.000000
0  35.648380 -94.213547 57.725578  0.932605 -0.013904 0.360631  0.836940 0.824213 1 0 1.000000
misc
0  35.648380 -94.213547 57.725578  0.932605 -0.013904 0.360631  0.836940 0.824213 1 0 1.000000
0  38.057053 -94.213547 51.600666  0.931129 -0.003700 0.364671  0.836940 0.824213 1 0 1.000000
0  38.070816 -91.502068 51.586903  0.931534 -0.006769 0.363592  0.836940 0.824213 1 0 1.000000
misc
0  38.057053 -94.213547 51.600666  0.931820 -0.000758 0.362921  0.482437 0.007782 1 0 1.000000
0  38.277275 -94.819153 51.008816  0.926004 -0.004605 0.377486  0.482437 0.040986 1 0 1.000000
0  38.070816 -91.502068 51.586903  0.880860 -0.026247 0.472648  0.480483 0.007782 1 0 1.000000
misc
0  30.886089 -80.325821 71.379318  0.918240 -0.052716 0.392500  0.459975 0.007782 1 0 1.000000
0  30.652102 -80.573570 71.902351  0.924458 -0.053072 0.377573  0.459975 0.040986 1 0 1.000000
0  30.982433 -82.514275 70.691124  0.910390 -0.081279 0.405690  0.458022 0.040986 1 0 1.000000
misc
0  30.982433 -82.514275 70.691124  0.910390 -0.081279 0.405690  0.458022 0.040986 1 0 1.000000
0  31.202656 -82.170174 70.278214  0.910170 -0.079976 0.406442  0.458022 0.007782 1 0 1.000000
0  30.886089 -80.325821 71.379318  0.918240 -0.052716 0.392500  0.459975 0.007782 1 0 1.000000
misc
0  30.748449 -78.123604 71.847290  0.959271 -0.029635 0.280929  0.461928 0.007782 1 0 1.000000
0  31.326530 -59.927792 72.108803  0.918615 -0.041775 0.392940  0.466811 0.007782 1 0 1.000000
0  30.789742 -67.098763 72.673119  0.913408 -0.034275 0.405600  0.464858 0.040986 1 0 1.000000
misc
0  30.913614 -54.436016 72.576775  -0.609393 0.760495 -0.224251  0.736351 0.643544 1 0 1.000000
0  39.158157 -53.376202 51.160225  -0.734088 0.630824 -0.251347  0.736351 0.643544 1 0 1.000000
0  38.497494 -54.119453 51.187752  -0.734084 0.630827 -0.251353  0.736351 0.643544 1 0 1.000000
misc
0  30.913614 -54.436016 72.576775  -0.609393 0.760495 -0.224251  0.736351 0.643544 1 0 1.000000
0  38.497494 -54.119453 51.187752  -0.734084 0.630827 -0.251353  0.736351 0.643544 1 0 1.000000
0  38.442436 -54.188271 51.201515  -0.730181 0.635910 -0.249909  0.736351 0.643544 1 0 1.000000
misc
0  30.913614 -54.436016 72.576775  -0.609393 0.760495 -0.224251  0.736351 0.643544 1 0 1.000000
0  38.442436 -54.188271 51.201515  -0.730181 0.635910 -0.249909  0.736351 0.643544 1 0 1.000000
0  29.083021 -55.371956 74.311012  -0.662462 0.671728 -0.331549  0.736351 0.643544 1 0 1.000000
misc
0  29.083021 -55.371956 74.311012  -0.982527 0.010072 0.185848  0.736351 0.643544 1 0 1.000000
0  29.151842 -67.098763 75.274490  -0.997585 0.001005 0.069451  0.736351 0.643544 1 0 1.000000
0  29.289478 -54.614948 75.260727  -0.981337 0.010590 0.192002  0.736351 0.643544 1 0 1.000000
misc
0  29.014206 -81.537033 73.430130  -0.988839 -0.129188 0.074212  0.736351 0.643544 1 0 1.000000
0  29.041733 -78.687920 75.081795  -0.999963 0.000639 0.008526  0.736351 0.643544 1 0 1.000000
0  29.151842 -67.098763 75.274490  -0.997585 0.001005 0.069451  0.736351 0.643544 1 0 1.000000
misc
0  29.151842 -81.014015 74.710167  -0.986284 -0.093720 0.135865  0.736351 0.643544 1 0 1.000000
0  29.041733 -78.687920 75.081795  -0.999963 0.000639 0.008526  0.736351 0.643544 1 0 1.000000
0  29.014206 -81.537033 73.430130  -0.988839 -0.129188 0.074212  0.736351 0.643544 1 0 1.000000
misc
0  33.267235 -94.681519 60.973843  -0.868837 -0.492317 -0.052401  0.736351 0.643544 1 0 1.000000
0  37.561554 -94.832916 51.050110  -0.831111 -0.429291 -0.353503  0.736351 0.643544 1 0 1.000000
0  37.960705 -95.562401 51.008816  -0.828135 -0.436673 -0.351438  0.736351 0.643544 1 0 1.000000
misc
0  37.960705 -95.562401 51.008816  -0.828135 -0.436673 -0.351438  0.736351 0.643544 1 0 1.000000
0  33.735203 -95.534874 61.249123  -0.855125 -0.499433 -0.139022  0.736351 0.643544 1 0 1.000000
0  33.267235 -94.681519 60.973843  -0.868837 -0.492317 -0.052401  0.736351 0.643544 1 0 1.000000
misc
0  29.289478 -54.614948 75.260727  -0.678668 0.635233 -0.368631  0.736351 0.643544 1 0 1.000000
0  30.913614 -54.436016 72.576775  -0.609393 0.760495 -0.224251  0.736351 0.643544 1 0 1.000000
0  29.083021 -55.371956 74.311012  -0.662462 0.671728 -0.331549  0.736351 0.643544 1 0 1.000000
misc
0  29.014206 -81.537033 73.430130  -0.988839 -0.129188 0.074212  0.736351 0.643544 1 0 1.000000
0  29.550993 -84.454979 72.769463  -0.972505 -0.136469 -0.188708  0.736351 0.643544 1 0 1.000000
0  29.330770 -82.913422 73.898102  -0.977715 -0.188051 0.093326  0.736351 0.643544 1 0 1.000000
misc
0  29.330770 -82.913422 73.898102  -0.977715 -0.188051 0.093326  0.736351 0.643544 1 0 1.000000
0  29.151842 -81.014015 74.710167  -0.986284 -0.093720 0.135865  0.736351 0.643544 1 0 1.000000
0  29.014206 -81.537033 73.430130  -0.988839 -0.129188 0.074212  0.736351 0.643544 1 0 1.000000
misc
0  29.014206 -81.537033 73.430130  -0.988850 -0.129212 0.074030  0.736351 0.643544 1 0 1.000000
0  33.267235 -94.681519 60.973843  -0.868837 -0.492317 -0.052401  0.736351 0.643544 1 0 1.000000
0  33.735203 -95.534874 61.249123  -0.855125 -0.499433 -0.139022  0.736351 0.643544 1 0 1.000000
misc
0  33.735203 -95.534874 61.249123  -0.855125 -0.499433 -0.139022  0.736351 0.643544 1 0 1.000000
0  29.550993 -84.454979 72.769463  -0.972482 -0.136389 -0.188884  0.736351 0.643544 1 0 1.000000
0  29.014206 -81.537033 73.430130  -0.988850 -0.129212 0.074030  0.736351 0.643544 1 0 1.000000
misc
0  37.520260 -55.468307 29.344526  -0.588628 0.808111 0.021783  0.712912 0.796869 1 0 1.000000
0  36.350327 -56.032623 16.158758  -0.573363 0.777064 -0.259666  0.712912 0.794916 1 0 1.000000
0  35.386856 -56.665756 16.461561  -0.585076 0.766580 -0.264653  0.712912 0.794916 1 0 1.000000
misc
0  37.520260 -55.468307 29.344526  -0.588628 0.808111 0.021783  0.712912 0.796869 1 0 1.000000
0  35.386856 -56.665756 16.461561  -0.585076 0.766580 -0.264653  0.712912 0.794916 1 0 1.000000
0  37.121105 -55.977570 37.534012  -0.618154 0.785892 -0.016113  0.712912 0.797845 1 0 1.000000
misc
0  37.520260 -55.468307 29.344526  -0.588628 0.808111 0.021783  0.712912 0.796869 1 0 1.000000
0  37.121105 -55.977570 37.534012  -0.618154 0.785892 -0.016113  0.712912 0.797845 1 0 1.000000
0  38.153397 -55.165501 37.630360  -0.617842 0.785908 -0.024908  0.712912 0.797845 1 0 1.000000
misc
0  36.350327 -56.032623 16.158758  -0.573363 0.777064 -0.259666  0.712912 0.794916 1 0 1.000000
0  35.992470 -59.404770 12.690266  -0.500629 0.354274 -0.789848  0.711936 0.794916 1 0 1.000000
0  35.001472 -59.597466 13.240820  -0.511477 0.354341 -0.782837  0.711936 0.794916 1 0 1.000000
misc
0  35.001472 -59.597466 13.240820  -0.511477 0.354341 -0.782837  0.711936 0.794916 1 0 1.000000
0  35.386856 -56.665756 16.461561  -0.585076 0.766580 -0.264653  0.712912 0.794916 1 0 1.000000
0  36.350327 -56.032623 16.158758  -0.573363 0.777064 -0.259666  0.712912 0.794916 1 0 1.000000
misc
0  38.731480 -54.050629 46.948483  -0.603908 0.796201 -0.036857  0.712912 0.799799 1 0 1.000000
0  37.575314 -54.903988 46.976013  -0.591155 0.805583 -0.039629  0.712912 0.799799 1 0 1.000000
0  38.442436 -54.188271 51.201515  -0.726057 0.687040 -0.028595  0.712912 0.799799 1 0 1.000000
misc
0  38.731480 -54.050629 46.948483  -0.603908 0.796201 -0.036857  0.712912 0.799799 1 0 1.000000
0  38.442436 -54.188271 51.201515  -0.726057 0.687040 -0.028595  0.712912 0.799799 1 0 1.000000
0  38.497494 -54.119453 51.187752  -0.753405 0.656805 -0.031436  0.712912 0.799799 1 0 1.000000
misc
0  38.731480 -54.050629 46.948483  -0.603908 0.796201 -0.036857  0.712912 0.799799 1 0 1.000000
0  38.497494 -54.119453 51.187752  -0.753405 0.656805 -0.031436  0.712912 0.799799 1 0 1.000000
0  39.158157 -53.376202 51.160225  -0.753367 0.656849 -0.031441  0.713889 0.799799 1 0 1.000000
misc
0  38.318565 -94.750336 37.891872  -0.590318 -0.806453 -0.034016  0.705100 0.797845 1 0 1.000000
0  37.093582 -93.662994 32.799248  -0.729547 -0.669509 -0.139711  0.705100 0.797845 1 0 1.000000
0  37.946941 -94.543869 32.441387  -0.741777 -0.655920 -0.139770  0.705100 0.797845 1 0 1.000000
misc
0  35.290516 -84.744019 13.172000  -0.503579 -0.814597 -0.287818  0.707053 0.794916 1 0 1.000000
0  36.364094 -85.143173 12.456281  -0.492742 -0.819720 -0.292000  0.707053 0.794916 1 0 1.000000
0  37.368855 -90.318367 25.297955  -0.694108 -0.671116 -0.260419  0.706076 0.795892 1 0 1.000000
misc
0  37.368855 -90.318367 25.297955  -0.694108 -0.671116 -0.260419  0.706076 0.795892 1 0 1.000000
0  36.446678 -89.506310 25.683340  -0.696838 -0.670598 -0.254391  0.706076 0.795892 1 0 1.000000
0  35.290516 -84.744019 13.172000  -0.503579 -0.814597 -0.287818  0.707053 0.794916 1 0 1.000000
misc
0  38.318565 -94.750336 37.891872  -0.590318 -0.806453 -0.034016  0.705100 0.797845 1 0 1.000000
0  37.960705 -95.562401 51.008816  -0.865475 -0.500683 -0.016428  0.705100 0.799799 1 0 1.000000
0  37.478970 -94.598938 47.361401  -0.779929 -0.623385 -0.055694  0.705100 0.799799 1 0 1.000000
misc
0  37.478970 -94.598938 47.361401  -0.779929 -0.623385 -0.055694  0.705100 0.799799 1 0 1.000000
0  37.960705 -95.562401 51.008816  -0.865475 -0.500683 -0.016428  0.705100 0.799799 1 0 1.000000
0  37.561554 -94.832916 51.050110  -0.879205 -0.476374 -0.008124  0.705100 0.799799 1 0 1.000000
misc
0  36.198929 -73.787994 12.566392  -0.522127 -0.003504 -0.852861  0.709006 0.794916 1 0 1.000000
0  36.364094 -85.143173 12.456281  -0.550119 -0.000429 -0.835086  0.707053 0.794916 1 0 1.000000
0  35.290516 -84.744019 13.172000  -0.548523 -0.000636 -0.836135  0.707053 0.794916 1 0 1.000000
misc
0  35.290516 -84.744019 13.172000  -0.548523 -0.000636 -0.836135  0.707053 0.794916 1 0 1.000000
0  35.166641 -73.732941 13.199529  -0.522316 -0.003732 -0.852744  0.709006 0.794916 1 0 1.000000
0  36.198929 -73.787994 12.566392  -0.522127 -0.003504 -0.852861  0.709006 0.794916 1 0 1.000000
misc
0  37.368855 -90.318367 25.297955  -0.694108 -0.671116 -0.260419  0.706076 0.795892 1 0 1.000000
0  37.946941 -94.543869 32.441387  -0.741777 -0.655920 -0.139770  0.705100 0.797845 1 0 1.000000
0  37.093582 -93.662994 32.799248  -0.729547 -0.669509 -0.139711  0.705100 0.797845 1 0 1.000000
misc
0  37.093582 -93.662994 32.799248  -0.729547 -0.669509 -0.139711  0.705100 0.797845 1 0 1.000000
0  36.446678 -89.506310 25.683340  -0.696838 -0.670598 -0.254391  0.706076 0.795892 1 0 1.000000
0  37.368855 -90.318367 25.297955  -0.694108 -0.671116 -0.260419  0.706076 0.795892 1 0 1.000000
misc
0  37.575314 -54.903988 46.976013  -0.591155 0.805583 -0.039629  0.712912 0.799799 1 0 1.000000
0  38.731480 -54.050629 46.948483  -0.603908 0.796201 -0.036857  0.712912 0.799799 1 0 1.000000
0  38.153397 -55.165501 37.630360  -0.617842 0.785908 -0.024908  0.712912 0.797845 1 0 1.000000
misc
0  38.153397 -55.165501 37.630360  -0.617842 0.785908 -0.024908  0.712912 0.797845 1 0 1.000000
0  37.121105 -55.977570 37.534012  -0.618154 0.785892 -0.016113  0.712912 0.797845 1 0 1.000000
0  37.575314 -54.903988 46.976013  -0.591155 0.805583 -0.039629  0.712912 0.799799 1 0 1.000000
misc
0  31.973427 -58.578934 70.787468  -0.857455 -0.307180 -0.412810  0.736351 0.643544 1 0 1.000000
0  29.083021 -55.371956 74.311012  -0.809865 -0.187747 -0.555761  0.736351 0.643544 1 0 1.000000
0  38.442436 -54.188271 51.201515  -0.918544 -0.204153 -0.338523  0.736351 0.643544 1 0 1.000000
misc
0  38.442436 -54.188271 51.201515  -0.918544 -0.204153 -0.338523  0.736351 0.643544 1 0 1.000000
0  39.199448 -59.363480 51.738304  -0.929058 -0.170655 -0.328221  0.736351 0.643544 1 0 1.000000
0  38.745243 -58.386238 52.522842  -0.933239 -0.167659 -0.317734  0.736351 0.643544 1 0 1.000000
misc
0  31.973427 -58.578934 70.787468  -0.857455 -0.307180 -0.412810  0.736351 0.643544 1 0 1.000000
0  38.442436 -54.188271 51.201515  -0.918544 -0.204153 -0.338523  0.736351 0.643544 1 0 1.000000
0  38.346088 -57.973324 53.541367  -0.927183 -0.179619 -0.328737  0.736351 0.643544 1 0 1.000000
misc
0  29.083021 -55.371956 74.311012  -0.809865 -0.187747 -0.555761  0.736351 0.643544 1 0 1.000000
0  31.326530 -59.927792 72.108803  -0.710076 -0.008538 -0.704073  0.736351 0.643544 1 0 1.000000
0  30.748449 -78.123604 71.847290  -0.714875 0.041133 -0.698041  0.736351 0.643544 1 0 1.000000
misc
0  30.748449 -78.123604 71.847290  -0.714875 0.041133 -0.698041  0.736351 0.643544 1 0 1.000000
0  29.014206 -81.537033 73.430130  -0.756209 0.167160 -0.632618  0.736351 0.643544 1 0 1.000000
0  29.083021 -55.371956 74.311012  -0.809865 -0.187747 -0.555761  0.736351 0.643544 1 0 1.000000
misc
0  30.886089 -80.325821 71.379318  -0.773435 0.150236 -0.615814  0.736351 0.643544 1 0 1.000000
0  29.014206 -81.537033 73.430130  -0.756209 0.167160 -0.632618  0.736351 0.643544 1 0 1.000000
0  30.748449 -78.123604 71.847290  -0.714875 0.041133 -0.698041  0.736351 0.643544 1 0 1.000000
misc
0  33.267235 -94.681519 60.973843  -0.849456 0.283224 -0.445206  0.736351 0.643544 1 0 1.000000
0  34.671146 -91.570885 60.395760  -0.842089 0.300662 -0.447759  0.736351 0.643544 1 0 1.000000
0  38.070816 -91.502068 51.586903  -0.896356 0.223260 -0.383014  0.736351 0.643544 1 0 1.000000
misc
0  38.070816 -91.502068 51.586903  -0.896356 0.223260 -0.383014  0.736351 0.643544 1 0 1.000000
0  37.561554 -94.832916 51.050110  -0.898195 0.197801 -0.392582  0.736351 0.643544 1 0 1.000000
0  33.267235 -94.681519 60.973843  -0.849456 0.283224 -0.445206  0.736351 0.643544 1 0 1.000000
misc
0  31.574280 -59.074432 71.640831  -0.816379 -0.145477 -0.558893  0.736351 0.643544 1 0 1.000000
0  31.326530 -59.927792 72.108803  -0.710076 -0.008538 -0.704073  0.736351 0.643544 1 0 1.000000
0  29.083021 -55.371956 74.311012  -0.809865 -0.187747 -0.555761  0.736351 0.643544 1 0 1.000000
misc
0  31.574280 -59.074432 71.640831  -0.816379 -0.145477 -0.558893  0.736351 0.643544 1 0 1.000000
0  29.083021 -55.371956 74.311012  -0.809865 -0.187747 -0.555761  0.736351 0.643544 1 0 1.000000
0  31.973427 -58.578934 70.787468  -0.857455 -0.307180 -0.412810  0.736351 0.643544 1 0 1.000000
misc
0  30.886089 -80.325821 71.379318  -0.773435 0.150236 -0.615814  0.736351 0.643544 1 0 1.000000
0  31.202656 -82.170174 70.278214  -0.752373 0.306249 -0.583221  0.736351 0.643544 1 0 1.000000
0  29.014206 -81.537033 73.430130  -0.756209 0.167160 -0.632618  0.736351 0.643544 1 0 1.000000
misc
0  29.014206 -81.537033 73.430130  -0.756209 0.167160 -0.632618  0.736351 0.643544 1 0 1.000000
0  31.202656 -82.170174 70.278214  -0.752373 0.306249 -0.583221  0.736351 0.643544 1 0 1.000000
0  34.671146 -91.570885 60.395760  -0.842089 0.300662 -0.447759  0.736351 0.643544 1 0 1.000000
misc
0  34.671146 -91.570885 60.395760  -0.842089 0.300662 -0.447759  0.736351 0.643544 1 0 1.000000
0  33.267235 -94.681519 60.973843  -0.849456 0.283224 -0.445206  0.736351 0.643544 1 0 1.000000
0  29.014206 -81.537033 73.430130  -0.756209 0.167160 -0.632618  0.736351 0.643544 1 0 1.000000
misc
0  38.070816 -91.502068 51.586903  -0.771187 0.014435 0.636445  0.706076 0.799799 1 0 1.000000
0  38.676422 -74.104561 51.669483  -0.628720 0.018648 0.777408  0.709983 0.799799 1 0 1.000000
0  38.015755 -74.063263 51.132690  -0.628793 0.018362 0.777356  0.709006 0.799799 1 0 1.000000
misc
0  38.015755 -74.063263 51.132690  -0.628793 0.018362 0.777356  0.709006 0.799799 1 0 1.000000
0  37.561554 -94.832916 51.050110  -0.773362 0.014344 0.633802  0.705100 0.799799 1 0 1.000000
0  38.070816 -91.502068 51.586903  -0.771187 0.014435 0.636445  0.706076 0.799799 1 0 1.000000
misc
0  37.616608 -65.419571 32.152348  -0.997059 -0.038080 0.066506  0.958037 0.710929 1 0 1.000000
0  37.575314 -54.903988 46.976013  -0.993992 -0.002678 0.109418  0.988311 0.767571 1 0 1.000000
0  37.121105 -55.977570 37.534012  -0.993746 -0.089902 0.066232  0.987335 0.725578 1 0 1.000000
misc
0  37.478970 -94.598938 47.361401  -0.999523 0.023063 0.020525  0.830103 0.767571 1 0 1.000000
0  37.561554 -94.832916 51.050110  -0.999409 0.021308 0.026984  0.830103 0.781243 1 0 1.000000
0  38.015755 -74.063263 51.132690  -0.992596 0.006004 0.121315  0.910184 0.780267 1 0 1.000000
misc
0  38.015755 -74.063263 51.132690  -0.992596 0.006004 0.121315  0.910184 0.780267 1 0 1.000000
0  37.534023 -74.021973 47.168705  -0.998541 0.000625 0.053995  0.912137 0.767571 1 0 1.000000
0  37.478970 -94.598938 47.361401  -0.999523 0.023063 0.020525  0.830103 0.767571 1 0 1.000000
misc
0  35.001472 -59.597466 13.240820  -0.991036 -0.013392 0.132920  0.978545 0.634754 1 0 1.000000
0  37.616608 -65.419571 32.152348  -0.997059 -0.038080 0.066506  0.959990 0.711905 1 0 1.000000
0  35.386856 -56.665756 16.461561  -0.991950 -0.034035 0.121973  0.987335 0.648427 1 0 1.000000
misc
0  35.166641 -73.732941 13.199529  -0.990739 -0.013059 0.135152  0.936552 0.634754 1 0 1.000000
0  35.290516 -84.744019 13.172000  -0.991334 0.012981 0.130721  0.905301 0.634754 1 0 1.000000
0  37.823067 -80.394638 31.945889  -0.997826 0.015862 0.063971  0.912137 0.710929 1 0 1.000000
misc
0  37.823067 -80.394638 31.945889  -0.997826 0.015862 0.063971  0.912137 0.710929 1 0 1.000000
0  37.740482 -73.966919 32.028473  -0.998034 -0.014474 0.060981  0.932646 0.711905 1 0 1.000000
0  35.166641 -73.732941 13.199529  -0.990739 -0.013059 0.135152  0.936552 0.634754 1 0 1.000000
misc
0  37.823067 -80.394638 31.945889  -0.997826 0.015862 0.063971  0.912137 0.710929 1 0 1.000000
0  35.290516 -84.744019 13.172000  -0.991334 0.012981 0.130721  0.905301 0.634754 1 0 1.000000
0  36.446678 -89.506310 25.683340  -0.990374 0.065963 0.121692  0.891629 0.685537 1 0 1.000000
misc
0  37.823067 -80.394638 31.945889  -0.997826 0.015862 0.063971  0.912137 0.710929 1 0 1.000000
0  36.446678 -89.506310 25.683340  -0.990374 0.065963 0.121692  0.891629 0.685537 1 0 1.000000
0  37.093582 -93.662994 32.799248  -0.996102 0.058983 0.065588  0.868191 0.714835 1 0 1.000000
misc
0  35.386856 -56.665756 16.461561  -0.991950 -0.034035 0.121973  0.987335 0.648427 1 0 1.000000
0  37.616608 -65.419571 32.152348  -0.997059 -0.038080 0.066506  0.959990 0.711905 1 0 1.000000
0  37.121105 -55.977570 37.534012  -0.993746 -0.089902 0.066232  0.989288 0.734367 1 0 1.000000
misc
0  29.014206 -81.537033 73.430130  -0.988839 -0.129188 0.074212  0.736351 0.643544 1 0 1.000000
0  29.151842 -67.098763 75.274490  -0.997585 0.001005 0.069451  0.736351 0.643544 1 0 1.000000
0  29.083021 -55.371956 74.311012  -0.982527 0.010072 0.185848  0.736351 0.643544 1 0 1.000000
misc
0  37.093582 -93.662994 32.799248  -0.996102 0.058983 0.065588  0.830103 0.721671 1 0 1.000000
0  37.478970 -94.598938 47.361401  -0.999523 0.023063 0.020525  0.830103 0.767571 1 0 1.000000
0  37.823067 -80.394638 31.945889  -0.997826 0.015862 0.063971  0.881863 0.711905 1 0 1.000000
misc
0  37.478970 -94.598938 47.361401  -0.779929 -0.623385 -0.055694  0.705100 0.799799 1 0 1.000000
0  37.093582 -93.662994 32.799248  -0.729547 -0.669509 -0.139711  0.705100 0.797845 1 0 1.000000
0  38.318565 -94.750336 37.891872  -0.590318 -0.806453 -0.034016  0.705100 0.797845 1 0 1.000000
misc
0  37.534023 -74.021973 47.168705  -0.998541 0.000625 0.053995  0.912137 0.767571 1 0 1.000000
0  37.740482 -73.966919 32.028473  -0.998034 -0.014474 0.060981  0.915067 0.711905 1 0 1.000000
0  37.823067 -80.394638 31.945889  -0.997826 0.015862 0.063971  0.881863 0.711905 1 0 1.000000
misc
0  37.823067 -80.394638 31.945889  -0.997826 0.015862 0.063971  0.881863 0.711905 1 0 1.000000
0  37.478970 -94.598938 47.361401  -0.999523 0.023063 0.020525  0.830103 0.767571 1 0 1.000000
0  37.534023 -74.021973 47.168705  -0.998541 0.000625 0.053995  0.912137 0.767571 1 0 1.000000
misc
0  38.346088 -57.973324 53.541367  -0.927183 -0.179619 -0.328737  0.736351 0.643544 1 0 1.000000
0  38.442436 -54.188271 51.201515  -0.918544 -0.204153 -0.338523  0.736351 0.643544 1 0 1.000000
0  38.745243 -58.386238 52.522842  -0.933239 -0.167659 -0.317734  0.736351 0.643544 1 0 1.000000
misc
0  40.575832 -60.588459 46.177708  0.995802 -0.029662 0.086598  0.479507 0.123997 1 0 1.000000
0  40.562069 -61.180305 46.177708  0.995944 -0.029002 0.085175  0.461928 0.123997 1 0 1.000000
0  40.589596 -61.689564 45.668446  0.995886 -0.027747 0.086267  0.446303 0.109348 1 0 1.000000
misc
0  40.589596 -61.689564 45.668446  0.995886 -0.027747 0.086267  0.446303 0.109348 1 0 1.000000
0  40.644650 -60.065430 45.654682  0.996283 -0.030086 0.080720  0.495132 0.109348 1 0 1.000000
0  40.575832 -60.588459 46.177708  0.995802 -0.029662 0.086598  0.479507 0.123997 1 0 1.000000
misc
0  40.685944 -60.065430 45.090363  0.996276 -0.028053 0.081534  0.495132 0.091769 1 0 1.000000
0  40.644650 -60.065430 45.654682  0.996283 -0.030086 0.080720  0.495132 0.109348 1 0 1.000000
0  40.589596 -61.689564 45.668446  0.995886 -0.027747 0.086267  0.446303 0.109348 1 0 1.000000
misc
0  40.589596 -61.689564 45.668446  0.995886 -0.027747 0.086267  0.446303 0.109348 1 0 1.000000
0  40.644650 -61.689564 45.076599  0.995969 -0.026726 0.085630  0.446303 0.090793 1 0 1.000000
0  40.685944 -60.065430 45.090363  0.996276 -0.028053 0.081534  0.495132 0.091769 1 0 1.000000
misc
0  40.713470 -60.560932 44.581100  0.996235 -0.026701 0.082482  0.479507 0.076144 1 0 1.000000
0  40.685944 -60.065430 45.090363  0.996276 -0.028053 0.081534  0.495132 0.091769 1 0 1.000000
0  40.644650 -61.689564 45.076599  0.995969 -0.026726 0.085630  0.446303 0.090793 1 0 1.000000
misc
0  40.644650 -61.689564 45.076599  0.995969 -0.026726 0.085630  0.446303 0.090793 1 0 1.000000
0  40.699707 -61.194069 44.581100  0.996823 -0.030740 0.073477  0.461928 0.076144 1 0 1.000000
0  40.713470 -60.560932 44.581100  0.996235 -0.026701 0.082482  0.479507 0.076144 1 0 1.000000
misc
0  41.566830 -58.757870 38.456188  0.996210 -0.014382 0.085779  0.349620 0.079073 1 0 1.000000
0  41.621883 -58.551407 37.919399  0.996170 -0.012876 0.086487  0.354503 0.082003 1 0 1.000000
0  41.663174 -55.096676 37.960690  0.997010 -0.014204 0.075951  0.353526 0.115207 1 0 1.000000
misc
0  41.663174 -55.096676 37.960690  0.997010 -0.014204 0.075951  0.353526 0.115207 1 0 1.000000
0  41.621883 -55.000332 38.566299  0.996879 -0.017304 0.077021  0.348643 0.117161 1 0 1.000000
0  41.566830 -58.757870 38.456188  0.996210 -0.014382 0.085779  0.349620 0.079073 1 0 1.000000
misc
0  40.837349 -55.495834 48.214760  0.996453 -0.027072 0.079684  0.264657 0.112278 1 0 1.000000
0  40.768524 -58.276131 48.214760  0.996138 -0.027894 0.083256  0.264657 0.082980 1 0 1.000000
0  40.809822 -58.757870 47.471508  0.996424 -0.025449 0.080574  0.271493 0.078097 1 0 1.000000
misc
0  40.809822 -58.757870 47.471508  0.996424 -0.025449 0.080574  0.271493 0.078097 1 0 1.000000
0  40.906166 -55.000332 47.595383  0.996515 -0.027014 0.078923  0.270516 0.118137 1 0 1.000000
0  40.837349 -55.495834 48.214760  0.996453 -0.027072 0.079684  0.264657 0.112278 1 0 1.000000
misc
0  41.621883 -55.000332 38.566299  0.996879 -0.017304 0.077021  0.348643 0.117161 1 0 1.000000
0  40.906166 -55.000332 47.595383  0.996515 -0.027014 0.078923  0.270516 0.118137 1 0 1.000000
0  40.809822 -58.757870 47.471508  0.996424 -0.025449 0.080574  0.271493 0.078097 1 0 1.000000
misc
0  40.809822 -58.757870 47.471508  0.996424 -0.025449 0.080574  0.271493 0.078097 1 0 1.000000
0  41.566830 -58.757870 38.456188  0.996210 -0.014382 0.085779  0.349620 0.079073 1 0 1.000000
0  41.621883 -55.000332 38.566299  0.996879 -0.017304 0.077021  0.348643 0.117161 1 0 1.000000
misc
0  41.621883 -58.551407 37.919399  0.996170 -0.012876 0.086487  0.354503 0.082003 1 0 1.000000
0  41.663174 -58.110966 37.437664  0.997187 -0.014104 0.073612  0.358409 0.084933 1 0 1.000000
0  41.690708 -55.798641 37.437664  0.996394 -0.012483 0.083928  0.358409 0.110324 1 0 1.000000
misc
0  41.690708 -55.798641 37.437664  0.996394 -0.012483 0.083928  0.358409 0.110324 1 0 1.000000
0  41.663174 -55.096676 37.960690  0.997010 -0.014204 0.075951  0.353526 0.115207 1 0 1.000000
0  41.621883 -58.551407 37.919399  0.996170 -0.012876 0.086487  0.354503 0.082003 1 0 1.000000
misc
0  39.199448 -59.363480 51.738304  0.923437 -0.004851 0.383719  0.477554 0.007782 1 0 1.000000
0  38.676422 -74.104561 51.669483  0.937576 -0.034485 0.346066  0.478530 0.007782 1 0 1.000000
0  38.896641 -74.132088 51.077637  0.936944 -0.034394 0.347782  0.479507 0.040986 1 0 1.000000
misc
0  38.896641 -74.132088 51.077637  0.936944 -0.034394 0.347782  0.479507 0.040986 1 0 1.000000
0  39.405907 -59.046906 51.201515  0.927310 0.006472 0.374238  0.477554 0.040986 1 0 1.000000
0  39.199448 -59.363480 51.738304  0.923437 -0.004851 0.383719  0.477554 0.007782 1 0 1.000000
misc
0  38.015755 -74.063263 51.132690  -0.628793 0.018362 0.777356  0.709006 0.799799 1 0 1.000000
0  38.676422 -74.104561 51.669483  -0.628720 0.018648 0.777408  0.709983 0.799799 1 0 1.000000
0  39.199448 -59.363480 51.738304  -0.539807 0.008797 0.841743  0.712912 0.799799 1 0 1.000000
misc
0  39.199448 -59.363480 51.738304  -0.539807 0.008797 0.841743  0.712912 0.799799 1 0 1.000000
0  38.442436 -54.188271 51.201515  -0.537495 0.008577 0.843223  0.712912 0.799799 1 0 1.000000
0  38.015755 -74.063263 51.132690  -0.628793 0.018362 0.777356  0.709006 0.799799 1 0 1.000000
misc
0  37.575314 -54.903988 46.976013  -0.993992 -0.002678 0.109418  0.988311 0.767571 1 0 1.000000
0  37.534023 -74.021973 47.168705  -0.998541 0.000625 0.053995  0.912137 0.767571 1 0 1.000000
0  38.015755 -74.063263 51.132690  -0.992596 0.006004 0.121315  0.910184 0.780267 1 0 1.000000
misc
0  38.015755 -74.063263 51.132690  -0.992596 0.006004 0.121315  0.910184 0.780267 1 0 1.000000
0  38.442436 -54.188271 51.201515  -0.980388 0.020325 0.196027  0.986358 0.779290 1 0 1.000000
0  37.575314 -54.903988 46.976013  -0.993992 -0.002678 0.109418  0.988311 0.767571 1 0 1.000000
misc
0  37.616608 -65.419571 32.152348  -0.997059 -0.038080 0.066506  0.958037 0.710929 1 0 1.000000
0  37.740482 -73.966919 32.028473  -0.998034 -0.014474 0.060981  0.915067 0.711905 1 0 1.000000
0  37.534023 -74.021973 47.168705  -0.998541 0.000625 0.053995  0.912137 0.767571 1 0 1.000000
misc
0  37.534023 -74.021973 47.168705  -0.998541 0.000625 0.053995  0.912137 0.767571 1 0 1.000000
0  37.575314 -54.903988 46.976013  -0.993992 -0.002678 0.109418  0.988311 0.767571 1 0 1.000000
0  37.616608 -65.419571 32.152348  -0.997059 -0.038080 0.066506  0.958037 0.710929 1 0 1.000000
misc
0  35.166641 -73.732941 13.199529  -0.990739 -0.013059 0.135152  0.936552 0.634754 1 0 1.000000
0  37.740482 -73.966919 32.028473  -0.998034 -0.014474 0.060981  0.932646 0.711905 1 0 1.000000
0  37.616608 -65.419571 32.152348  -0.997059 -0.038080 0.066506  0.959990 0.711905 1 0 1.000000
misc
0  37.616608 -65.419571 32.152348  -0.997059 -0.038080 0.066506  0.959990 0.711905 1 0 1.000000
0  35.001472 -59.597466 13.240820  -0.991036 -0.013392 0.132920  0.978545 0.634754 1 0 1.000000
0  35.166641 -73.732941 13.199529  -0.990739 -0.013059 0.135152  0.936552 0.634754 1 0 1.000000
misc
0  36.198929 -73.787994 12.566392  -0.522127 -0.003504 -0.852861  0.709006 0.794916 1 0 1.000000
0  35.166641 -73.732941 13.199529  -0.522316 -0.003732 -0.852744  0.709006 0.794916 1 0 1.000000
0  35.001472 -59.597466 13.240820  -0.511477 0.354341 -0.782837  0.711936 0.794916 1 0 1.000000
misc
0  35.001472 -59.597466 13.240820  -0.511477 0.354341 -0.782837  0.711936 0.794916 1 0 1.000000
0  35.992470 -59.404770 12.690266  -0.500629 0.354274 -0.789848  0.711936 0.794916 1 0 1.000000
0  36.198929 -73.787994 12.566392  -0.522127 -0.003504 -0.852861  0.709006 0.794916 1 0 1.000000
skin_0
0  31.230183 -54.945278 72.576775  0.895405 -0.012358 0.445081  0.256844 0.646474 1 0 1.000000
0  29.771214 -55.110447 74.902863  0.849485 -0.017522 0.527322  0.262703 0.646474 1 0 1.000000
0  31.106310 -59.473587 72.645592  0.849925 -0.027698 0.526175  0.256844 0.654286 1 0 1.000000
skin_0
0  39.130630 -94.819153 47.967007  0.985395 -0.031196 0.167400  0.191412 0.715812 1 0 1.000000
0  39.777527 -74.132088 48.187233  0.981915 -0.035162 0.186027  0.192389 0.679678 1 0 1.000000
0  38.896641 -74.132088 51.077637  0.956334 -0.033672 0.290331  0.200201 0.679678 1 0 1.000000
skin_0
0  38.896641 -74.132088 51.077637  0.956334 -0.033672 0.290331  0.200201 0.679678 1 0 1.000000
0  38.277275 -94.819153 51.008816  0.963386 -0.029455 0.266496  0.200201 0.715812 1 0 1.000000
0  39.130630 -94.819153 47.967007  0.985395 -0.031196 0.167400  0.191412 0.715812 1 0 1.000000
skin_0
0  38.896641 -74.132088 51.077637  0.956334 -0.033672 0.290331  0.200201 0.679678 1 0 1.000000
0  39.777527 -74.132088 48.187233  0.981915 -0.035162 0.186027  0.192389 0.679678 1 0 1.000000
0  39.405907 -59.046906 51.201515  0.948603 -0.024971 0.315483  0.200201 0.653310 1 0 1.000000
skin_0
0  41.553062 -74.145851 34.877590  0.996004 -0.029229 -0.084392  0.157231 0.679678 1 0 1.000000
0  40.548302 -53.912991 17.232334  0.995508 -0.029128 -0.090086  0.111332 0.644520 1 0 1.000000
0  42.199966 -53.912991 34.877590  0.995144 -0.031818 -0.093149  0.157231 0.644520 1 0 1.000000
skin_0
0  40.658413 -74.132088 37.437664  0.996010 -0.037492 0.080989  0.164068 0.679678 1 0 1.000000
0  41.291553 -53.912991 37.437664  0.996494 -0.031205 0.077632  0.164068 0.644520 1 0 1.000000
0  40.451958 -53.912991 48.214760  0.981209 -0.024882 0.191336  0.192389 0.644520 1 0 1.000000
skin_0
0  40.451958 -53.912991 48.214760  0.981209 -0.024882 0.191336  0.192389 0.644520 1 0 1.000000
0  39.777527 -74.132088 48.187233  0.981915 -0.035162 0.186027  0.192389 0.679678 1 0 1.000000
0  40.658413 -74.132088 37.437664  0.996010 -0.037492 0.080989  0.164068 0.679678 1 0 1.000000
skin_0
0  30.569521 -78.164894 72.521713  0.912328 -0.032621 0.408158  0.256844 0.686514 1 0 1.000000
0  30.789742 -67.098763 72.673119  0.884148 -0.018985 0.466820  0.256844 0.667959 1 0 1.000000
0  29.633575 -67.098763 74.916626  0.889337 -0.016679 0.456948  0.262703 0.667959 1 0 1.000000
skin_0
0  29.633575 -67.098763 74.916626  0.889337 -0.016679 0.456948  0.262703 0.667959 1 0 1.000000
0  29.537230 -78.605339 74.737694  0.909795 -0.025061 0.414300  0.262703 0.687490 1 0 1.000000
0  30.569521 -78.164894 72.521713  0.912328 -0.032621 0.408158  0.256844 0.686514 1 0 1.000000
skin_0
0  31.106310 -59.473587 72.645592  0.849925 -0.027698 0.526175  0.256844 0.654286 1 0 1.000000
0  31.354057 -58.620224 72.108803  0.924469 -0.019197 0.380774  0.254891 0.652333 1 0 1.000000
0  31.230183 -54.945278 72.576775  0.895405 -0.012358 0.445081  0.256844 0.646474 1 0 1.000000
skin_0
0  39.405907 -59.046906 51.201515  0.948603 -0.024971 0.315483  0.200201 0.653310 1 0 1.000000
0  40.451958 -53.912991 48.214760  0.981209 -0.024882 0.191336  0.192389 0.644520 1 0 1.000000
0  39.474728 -53.912991 51.160225  0.939304 -0.019246 0.342546  0.200201 0.644520 1 0 1.000000
skin_0
0  40.741001 -94.475052 34.877590  0.999203 -0.039914 -0.001080  0.157231 0.715812 1 0 1.000000
0  40.740997 -94.392471 31.822014  0.998471 -0.033401 -0.044043  0.149419 0.715812 1 0 1.000000
0  41.553062 -74.145851 34.877590  0.996004 -0.029229 -0.084392  0.157231 0.679678 1 0 1.000000
skin_0
0  39.791294 -94.530106 37.437664  0.997086 -0.035040 0.067767  0.164068 0.715812 1 0 1.000000
0  40.658413 -74.132088 37.437664  0.996010 -0.037492 0.080989  0.164068 0.679678 1 0 1.000000
0  39.777527 -74.132088 48.187233  0.981915 -0.035162 0.186027  0.192389 0.679678 1 0 1.000000
skin_0
0  39.777527 -74.132088 48.187233  0.981915 -0.035162 0.186027  0.192389 0.679678 1 0 1.000000
0  39.130630 -94.819153 47.967007  0.985395 -0.031196 0.167400  0.191412 0.715812 1 0 1.000000
0  39.791294 -94.530106 37.437664  0.997086 -0.035040 0.067767  0.164068 0.715812 1 0 1.000000
skin_0
0  41.291553 -53.912991 37.437664  0.941907 -0.030096 0.334522  0.164068 0.644520 1 0 1.000000
0  40.658413 -74.132088 37.437664  0.943823 -0.033506 0.328748  0.164068 0.679678 1 0 1.000000
0  41.553062 -74.145851 34.877590  0.943886 -0.033415 0.328577  0.157231 0.679678 1 0 1.000000
skin_0
0  41.553062 -74.145851 34.877590  0.943886 -0.033415 0.328577  0.157231 0.679678 1 0 1.000000
0  42.199966 -53.912991 34.877590  0.941436 -0.030215 0.335835  0.157231 0.644520 1 0 1.000000
0  41.291553 -53.912991 37.437664  0.941907 -0.030096 0.334522  0.164068 0.644520 1 0 1.000000
skin_0
0  40.658413 -74.132088 37.437664  0.943823 -0.033506 0.328748  0.164068 0.679678 1 0 1.000000
0  39.791294 -94.530106 37.437664  0.937818 -0.039697 0.344851  0.164068 0.715812 1 0 1.000000
0  40.741001 -94.475052 34.877590  0.938222 -0.039537 0.343768  0.157231 0.715812 1 0 1.000000
skin_0
0  40.741001 -94.475052 34.877590  0.938222 -0.039537 0.343768  0.157231 0.715812 1 0 1.000000
0  41.553062 -74.145851 34.877590  0.943886 -0.033415 0.328577  0.157231 0.679678 1 0 1.000000
0  40.658413 -74.132088 37.437664  0.943823 -0.033506 0.328748  0.164068 0.679678 1 0 1.000000
skin_0
0  40.176678 -53.912991 15.140231  0.980648 -0.024569 0.194234  0.105472 0.644520 1 0 1.000000
0  39.983982 -53.912991 16.131226  0.980833 -0.024633 0.193289  0.108402 0.644520 1 0 1.000000
0  39.474728 -73.953156 16.131226  0.974751 -0.023072 0.222100  0.108402 0.679678 1 0 1.000000
skin_0
0  39.474728 -73.953156 16.131226  0.974751 -0.023072 0.222100  0.108402 0.679678 1 0 1.000000
0  39.694946 -73.966919 15.140231  0.974745 -0.023010 0.222132  0.105472 0.679678 1 0 1.000000
0  40.176678 -53.912991 15.140231  0.980648 -0.024569 0.194234  0.105472 0.644520 1 0 1.000000
skin_0
0  39.983982 -53.912991 16.131226  0.889463 -0.023141 -0.456421  0.108402 0.644520 1 0 1.000000
0  40.548302 -53.912991 17.232334  0.889169 -0.023166 -0.456993  0.111332 0.644520 1 0 1.000000
0  40.025280 -73.994446 17.232334  0.895228 -0.022523 -0.445039  0.111332 0.679678 1 0 1.000000
skin_0
0  40.025280 -73.994446 17.232334  0.895228 -0.022523 -0.445039  0.111332 0.679678 1 0 1.000000
0  39.474728 -73.953156 16.131226  0.895233 -0.022492 -0.445030  0.108402 0.679678 1 0 1.000000
0  39.983982 -53.912991 16.131226  0.889463 -0.023141 -0.456421  0.108402 0.644520 1 0 1.000000
skin_0
0  39.460957 -53.981808 11.836907  0.977809 -0.022700 -0.208266  0.096683 0.644520 1 0 1.000000
0  40.176678 -53.912991 15.140231  0.977155 -0.023473 -0.211228  0.105472 0.644520 1 0 1.000000
0  39.694946 -73.966919 15.140231  0.982942 -0.018992 -0.182932  0.105472 0.679678 1 0 1.000000
skin_0
0  39.694946 -73.966919 15.140231  0.982942 -0.018992 -0.182932  0.105472 0.679678 1 0 1.000000
0  39.089336 -73.925629 11.836907  0.982954 -0.018285 -0.182940  0.096683 0.679678 1 0 1.000000
0  39.460957 -53.981808 11.836907  0.977809 -0.022700 -0.208266  0.096683 0.644520 1 0 1.000000
skin_0
0  29.647339 -80.793793 74.324783  0.920213 -0.057300 0.387202  0.260750 0.691397 1 0 1.000000
0  29.826273 -82.569328 73.567772  0.924196 -0.072342 0.375004  0.258797 0.694327 1 0 1.000000
0  30.652102 -80.573570 71.902351  0.924249 -0.067264 0.375819  0.254891 0.691397 1 0 1.000000
skin_0
0  30.913614 -54.436016 72.576775  0.767887 0.479319 0.424973  0.256844 0.645497 1 0 1.000000
0  29.289478 -54.614948 75.260727  0.703858 0.197841 0.682234  0.263680 0.645497 1 0 1.000000
0  29.771214 -55.110447 74.902863  0.705782 0.208616 0.677017  0.262703 0.646474 1 0 1.000000
skin_0
0  29.771214 -55.110447 74.902863  0.705782 0.208616 0.677017  0.262703 0.646474 1 0 1.000000
0  31.230183 -54.945278 72.576775  0.772984 0.488493 0.404810  0.256844 0.646474 1 0 1.000000
0  30.913614 -54.436016 72.576775  0.767887 0.479319 0.424973  0.256844 0.645497 1 0 1.000000
skin_0
0  29.771214 -55.110447 74.902863  0.705782 0.208616 0.677017  0.262703 0.646474 1 0 1.000000
0  29.289478 -54.614948 75.260727  0.703858 0.197841 0.682234  0.263680 0.645497 1 0 1.000000
0  29.151842 -67.098763 75.274490  0.589321 -0.011931 0.807811  0.263680 0.667959 1 0 1.000000
skin_0
0  29.151842 -67.098763 75.274490  0.589321 -0.011931 0.807811  0.263680 0.667959 1 0 1.000000
0  29.633575 -67.098763 74.916626  0.589627 -0.011842 0.807589  0.262703 0.667959 1 0 1.000000
0  29.771214 -55.110447 74.902863  0.705782 0.208616 0.677017  0.262703 0.646474 1 0 1.000000
skin_0
0  38.277275 -94.819153 51.008816  0.878486 -0.381758 0.287268  0.200201 0.715812 1 0 1.000000
0  37.960705 -95.562401 51.008816  0.873844 -0.387195 0.294068  0.200201 0.717765 1 0 1.000000
0  38.800301 -95.562401 47.967007  0.906455 -0.393813 0.152484  0.191412 0.717765 1 0 1.000000
skin_0
0  38.800301 -95.562401 47.967007  0.906455 -0.393813 0.152484  0.191412 0.717765 1 0 1.000000
0  39.130630 -94.819153 47.967007  0.907773 -0.394491 0.142564  0.191412 0.715812 1 0 1.000000
0  38.277275 -94.819153 51.008816  0.878486 -0.381758 0.287268  0.200201 0.715812 1 0 1.000000
skin_0
0  40.217968 -53.376202 17.232334  0.858749 0.506033 -0.080508  0.111332 0.643544 1 0 1.000000
0  41.869633 -53.376202 34.877590  0.855744 0.504314 0.115627  0.157231 0.643544 1 0 1.000000
0  42.199966 -53.912991 34.877590  0.857170 0.505147 0.100433  0.157231 0.644520 1 0 1.000000
skin_0
0  42.199966 -53.912991 34.877590  0.857170 0.505147 0.100433  0.157231 0.644520 1 0 1.000000
0  40.548302 -53.912991 17.232334  0.858749 0.506033 -0.080508  0.111332 0.644520 1 0 1.000000
0  40.217968 -53.376202 17.232334  0.858749 0.506033 -0.080508  0.111332 0.643544 1 0 1.000000
skin_0
0  41.291553 -53.912991 37.437664  0.845936 0.498760 0.188762  0.164068 0.644520 1 0 1.000000
0  40.961220 -53.376202 37.437664  0.848472 0.500015 0.173436  0.164068 0.643544 1 0 1.000000
0  40.121624 -53.376202 48.214760  0.847844 0.499679 0.177431  0.192389 0.643544 1 0 1.000000
skin_0
0  40.121624 -53.376202 48.214760  0.847844 0.499679 0.177431  0.192389 0.643544 1 0 1.000000
0  40.451958 -53.912991 48.214760  0.849824 0.500824 0.164238  0.192389 0.644520 1 0 1.000000
0  41.291553 -53.912991 37.437664  0.845936 0.498760 0.188762  0.164068 0.644520 1 0 1.000000
skin_0
0  29.151842 -67.098763 75.274490  0.589321 -0.011931 0.807811  0.263680 0.667959 1 0 1.000000
0  29.041733 -78.687920 75.081795  0.583218 -0.070737 0.809230  0.262703 0.687490 1 0 1.000000
0  29.537230 -78.605339 74.737694  0.578001 -0.069535 0.813068  0.262703 0.687490 1 0 1.000000
skin_0
0  29.537230 -78.605339 74.737694  0.578001 -0.069535 0.813068  0.262703 0.687490 1 0 1.000000
0  29.633575 -67.098763 74.916626  0.589627 -0.011842 0.807589  0.262703 0.667959 1 0 1.000000
0  29.151842 -67.098763 75.274490  0.589321 -0.011931 0.807811  0.263680 0.667959 1 0 1.000000
skin_0
0  39.158157 -53.376202 51.160225  0.819598 0.483241 0.307794  0.200201 0.643544 1 0 1.000000
0  30.913614 -54.436016 72.576775  0.767887 0.479319 0.424973  0.256844 0.645497 1 0 1.000000
0  31.230183 -54.945278 72.576775  0.772984 0.488493 0.404810  0.256844 0.646474 1 0 1.000000
skin_0
0  31.230183 -54.945278 72.576775  0.772984 0.488493 0.404810  0.256844 0.646474 1 0 1.000000
0  39.474728 -53.912991 51.160225  0.821399 0.484060 0.301644  0.200201 0.644520 1 0 1.000000
0  39.158157 -53.376202 51.160225  0.819598 0.483241 0.307794  0.200201 0.643544 1 0 1.000000
skin_0
0  40.121624 -53.376202 48.214760  0.847844 0.499679 0.177431  0.192389 0.643544 1 0 1.000000
0  39.158157 -53.376202 51.160225  0.819598 0.483241 0.307794  0.200201 0.643544 1 0 1.000000
0  39.474728 -53.912991 51.160225  0.821399 0.484060 0.301644  0.200201 0.644520 1 0 1.000000
skin_0
0  39.474728 -53.912991 51.160225  0.821399 0.484060 0.301644  0.200201 0.644520 1 0 1.000000
0  40.451958 -53.912991 48.214760  0.849824 0.500824 0.164238  0.192389 0.644520 1 0 1.000000
0  40.121624 -53.376202 48.214760  0.847844 0.499679 0.177431  0.192389 0.643544 1 0 1.000000
skin_0
0  40.204208 -90.290840 25.270422  0.884121 -0.398283 -0.244338  0.131840 0.707999 1 0 1.000000
0  39.887638 -91.006561 25.270422  0.877469 -0.395266 -0.271685  0.131840 0.709952 1 0 1.000000
0  39.350849 -88.157448 17.232334  0.890691 -0.406888 -0.202759  0.111332 0.704093 1 0 1.000000
skin_0
0  39.350849 -88.157448 17.232334  0.890691 -0.406888 -0.202759  0.111332 0.704093 1 0 1.000000
0  39.667419 -87.455490 17.232334  0.890577 -0.407107 -0.202822  0.111332 0.703116 1 0 1.000000
0  40.204208 -90.290840 25.270422  0.884121 -0.398283 -0.244338  0.131840 0.707999 1 0 1.000000
skin_0
0  40.741001 -94.475052 34.877590  0.905262 -0.400442 0.141936  0.157231 0.715812 1 0 1.000000
0  40.410671 -95.190773 34.877590  0.902612 -0.399047 0.161408  0.157231 0.716788 1 0 1.000000
0  40.424435 -95.121956 31.822014  0.905631 -0.402061 -0.134828  0.149419 0.716788 1 0 1.000000
skin_0
0  40.424435 -95.121956 31.822014  0.905631 -0.402061 -0.134828  0.149419 0.716788 1 0 1.000000
0  40.740997 -94.392471 31.822014  0.898392 -0.398779 -0.184032  0.149419 0.715812 1 0 1.000000
0  40.741001 -94.475052 34.877590  0.905262 -0.400442 0.141936  0.157231 0.715812 1 0 1.000000
skin_0
0  39.130630 -94.819153 47.967007  0.907773 -0.394491 0.142564  0.191412 0.715812 1 0 1.000000
0  38.800301 -95.562401 47.967007  0.906455 -0.393813 0.152484  0.191412 0.717765 1 0 1.000000
0  39.474731 -95.273369 37.437664  0.901668 -0.397203 0.170955  0.164068 0.716788 1 0 1.000000
skin_0
0  39.474731 -95.273369 37.437664  0.901668 -0.397203 0.170955  0.164068 0.716788 1 0 1.000000
0  39.791294 -94.530106 37.437664  0.898522 -0.396062 0.189189  0.164068 0.715812 1 0 1.000000
0  39.130630 -94.819153 47.967007  0.907773 -0.394491 0.142564  0.191412 0.715812 1 0 1.000000
skin_0
0  29.647339 -80.793793 74.324783  0.645617 -0.163636 0.745923  0.260750 0.691397 1 0 1.000000
0  29.537230 -78.605339 74.737694  0.578001 -0.069535 0.813068  0.262703 0.687490 1 0 1.000000
0  29.041733 -78.687920 75.081795  0.583218 -0.070737 0.809230  0.262703 0.687490 1 0 1.000000
skin_0
0  29.041733 -78.687920 75.081795  0.583218 -0.070737 0.809230  0.262703 0.687490 1 0 1.000000
0  29.151842 -81.014015 74.710167  0.651003 -0.171719 0.739397  0.261727 0.692373 1 0 1.000000
0  29.647339 -80.793793 74.324783  0.645617 -0.163636 0.745923  0.260750 0.691397 1 0 1.000000
skin_0
0  41.869633 -53.376202 34.877590  0.855744 0.504314 0.115627  0.157231 0.643544 1 0 1.000000
0  40.961220 -53.376202 37.437664  0.848472 0.500015 0.173436  0.164068 0.643544 1 0 1.000000
0  41.291553 -53.912991 37.437664  0.845936 0.498760 0.188762  0.164068 0.644520 1 0 1.000000
skin_0
0  41.291553 -53.912991 37.437664  0.845936 0.498760 0.188762  0.164068 0.644520 1 0 1.000000
0  42.199966 -53.912991 34.877590  0.857170 0.505147 0.100433  0.157231 0.644520 1 0 1.000000
0  41.869633 -53.376202 34.877590  0.855744 0.504314 0.115627  0.157231 0.643544 1 0 1.000000
skin_0
0  39.791294 -94.530106 37.437664  0.898522 -0.396062 0.189189  0.164068 0.715812 1 0 1.000000
0  39.474731 -95.273369 37.437664  0.901668 -0.397203 0.170955  0.164068 0.716788 1 0 1.000000
0  40.410671 -95.190773 34.877590  0.902612 -0.399047 0.161408  0.157231 0.716788 1 0 1.000000
skin_0
0  40.410671 -95.190773 34.877590  0.902612 -0.399047 0.161408  0.157231 0.716788 1 0 1.000000
0  40.741001 -94.475052 34.877590  0.905262 -0.400442 0.141936  0.157231 0.715812 1 0 1.000000
0  39.791294 -94.530106 37.437664  0.898522 -0.396062 0.189189  0.164068 0.715812 1 0 1.000000
skin_0
0  39.846344 -53.376202 15.140231  0.849374 0.500534 0.167420  0.105472 0.643544 1 0 1.000000
0  39.653652 -53.376202 16.131226  0.849379 0.500523 0.167426  0.108402 0.643544 1 0 1.000000
0  39.983982 -53.912991 16.131226  0.849376 0.500529 0.167424  0.108402 0.644520 1 0 1.000000
skin_0
0  39.983982 -53.912991 16.131226  0.849376 0.500529 0.167424  0.108402 0.644520 1 0 1.000000
0  40.176678 -53.912991 15.140231  0.849370 0.500540 0.167424  0.105472 0.644520 1 0 1.000000
0  39.846344 -53.376202 15.140231  0.849374 0.500534 0.167420  0.105472 0.643544 1 0 1.000000
skin_0
0  39.983982 -53.912991 16.131226  0.787651 0.464151 -0.405178  0.108402 0.644520 1 0 1.000000
0  39.653652 -53.376202 16.131226  0.787653 0.464148 -0.405178  0.108402 0.643544 1 0 1.000000
0  40.217968 -53.376202 17.232334  0.787633 0.464199 -0.405160  0.111332 0.643544 1 0 1.000000
skin_0
0  40.217968 -53.376202 17.232334  0.787633 0.464199 -0.405160  0.111332 0.643544 1 0 1.000000
0  40.548302 -53.912991 17.232334  0.787629 0.464202 -0.405163  0.111332 0.644520 1 0 1.000000
0  39.983982 -53.912991 16.131226  0.787651 0.464151 -0.405178  0.108402 0.644520 1 0 1.000000
skin_0
0  39.144394 -87.180214 16.131226  0.900714 -0.419892 0.111376  0.108402 0.703116 1 0 1.000000
0  38.814060 -87.882172 16.131226  0.901668 -0.418067 0.110522  0.108402 0.704093 1 0 1.000000
0  39.075573 -87.593140 15.140231  0.900079 -0.421090 0.111986  0.105472 0.703116 1 0 1.000000
skin_0
0  39.075573 -87.593140 15.140231  0.900079 -0.421090 0.111986  0.105472 0.703116 1 0 1.000000
0  39.392143 -86.918709 15.140231  0.899397 -0.422157 0.113442  0.105472 0.702139 1 0 1.000000
0  39.144394 -87.180214 16.131226  0.900714 -0.419892 0.111376  0.108402 0.703116 1 0 1.000000
skin_0
0  39.667419 -87.455490 17.232334  0.799408 -0.367295 -0.475438  0.111332 0.703116 1 0 1.000000
0  39.350849 -88.157448 17.232334  0.799652 -0.365611 -0.476325  0.111332 0.704093 1 0 1.000000
0  38.814060 -87.882172 16.131226  0.799116 -0.368785 -0.474775  0.108402 0.704093 1 0 1.000000
skin_0
0  38.814060 -87.882172 16.131226  0.799116 -0.368785 -0.474775  0.108402 0.704093 1 0 1.000000
0  39.144394 -87.180214 16.131226  0.798880 -0.370466 -0.473863  0.108402 0.703116 1 0 1.000000
0  39.667419 -87.455490 17.232334  0.799408 -0.367295 -0.475438  0.111332 0.703116 1 0 1.000000
skin_0
0  38.621368 -73.925629 11.190006  0.810086 -0.015410 -0.586109  0.094729 0.679678 1 0 1.000000
0  38.992985 -53.431255 11.190006  0.801980 -0.014406 -0.597177  0.094729 0.643544 1 0 1.000000
0  39.460957 -53.981808 11.836907  0.802148 -0.014408 -0.596951  0.096683 0.644520 1 0 1.000000
skin_0
0  39.460957 -53.981808 11.836907  0.802148 -0.014408 -0.596951  0.096683 0.644520 1 0 1.000000
0  39.089336 -73.925629 11.836907  0.810130 -0.015415 -0.586047  0.096683 0.679678 1 0 1.000000
0  38.621368 -73.925629 11.190006  0.810086 -0.015410 -0.586109  0.094729 0.679678 1 0 1.000000
skin_0
0  39.460957 -53.981808 11.836907  0.845412 0.498303 -0.192284  0.096683 0.644520 1 0 1.000000
0  38.992985 -53.431255 11.190006  0.845369 0.498318 -0.192432  0.094729 0.643544 1 0 1.000000
0  39.846344 -53.376202 15.140231  0.845444 0.498207 -0.192393  0.105472 0.643544 1 0 1.000000
skin_0
0  39.846344 -53.376202 15.140231  0.845444 0.498207 -0.192393  0.105472 0.643544 1 0 1.000000
0  40.176678 -53.912991 15.140231  0.845438 0.498215 -0.192393  0.105472 0.644520 1 0 1.000000
0  39.460957 -53.981808 11.836907  0.845412 0.498303 -0.192284  0.096683 0.644520 1 0 1.000000
skin_0
0  39.075573 -87.593140 15.140231  0.876196 -0.407662 -0.257083  0.105472 0.703116 1 0 1.000000
0  38.387383 -86.615898 11.203770  0.886214 -0.390502 -0.249266  0.094729 0.702139 1 0 1.000000
0  38.855350 -85.968994 11.836907  0.885058 -0.392539 -0.250172  0.096683 0.701163 1 0 1.000000
skin_0
0  38.855350 -85.968994 11.836907  0.885058 -0.392539 -0.250172  0.096683 0.701163 1 0 1.000000
0  39.392143 -86.918709 15.140231  0.874134 -0.411092 -0.258635  0.105472 0.702139 1 0 1.000000
0  39.075573 -87.593140 15.140231  0.876196 -0.407662 -0.257083  0.105472 0.703116 1 0 1.000000
skin_0
0  29.151842 -81.014015 74.710167  0.651003 -0.171719 0.739397  0.261727 0.692373 1 0 1.000000
0  29.330770 -82.913422 73.898102  0.671588 -0.309984 0.672963  0.259774 0.695303 1 0 1.000000
0  29.826273 -82.569328 73.567772  0.660960 -0.302939 0.686557  0.258797 0.694327 1 0 1.000000
skin_0
0  29.826273 -82.569328 73.567772  0.660960 -0.302939 0.686557  0.258797 0.694327 1 0 1.000000
0  29.647339 -80.793793 74.324783  0.645617 -0.163636 0.745923  0.260750 0.691397 1 0 1.000000
0  29.151842 -81.014015 74.710167  0.651003 -0.171719 0.739397  0.261727 0.692373 1 0 1.000000
skin_0
0  30.170366 -84.248520 72.356552  0.598939 -0.428560 0.676468  0.255867 0.697256 1 0 1.000000
0  29.550993 -84.454979 72.769463  0.606692 -0.413258 0.679075  0.256844 0.698233 1 0 1.000000
0  32.978195 -93.497833 63.354992  0.791333 -0.281769 0.542585  0.232429 0.713858 1 0 1.000000
skin_0
0  32.978195 -93.497833 63.354992  0.791333 -0.281769 0.542585  0.232429 0.713858 1 0 1.000000
0  33.363583 -93.153725 62.955841  0.792945 -0.279347 0.541482  0.231452 0.712882 1 0 1.000000
0  30.170366 -84.248520 72.356552  0.598939 -0.428560 0.676468  0.255867 0.697256 1 0 1.000000
skin_0
0  35.620853 -94.819153 57.890743  0.789065 -0.517738 0.330641  0.217780 0.715812 1 0 1.000000
0  33.969189 -94.791626 61.249123  0.831837 -0.262101 0.489234  0.226569 0.715812 1 0 1.000000
0  33.735203 -95.534874 61.249123  0.837702 -0.288936 0.463434  0.226569 0.717765 1 0 1.000000
skin_0
0  35.620853 -94.819153 57.890743  0.789065 -0.517738 0.330641  0.217780 0.715812 1 0 1.000000
0  33.735203 -95.534874 61.249123  0.837702 -0.288936 0.463434  0.226569 0.717765 1 0 1.000000
0  37.960705 -95.562401 51.008816  0.873844 -0.387195 0.294068  0.200201 0.717765 1 0 1.000000
skin_0
0  35.620853 -94.819153 57.890743  0.789065 -0.517738 0.330641  0.217780 0.715812 1 0 1.000000
0  37.960705 -95.562401 51.008816  0.873844 -0.387195 0.294068  0.200201 0.717765 1 0 1.000000
0  38.277275 -94.819153 51.008816  0.878486 -0.381758 0.287268  0.200201 0.715812 1 0 1.000000
skin_0
0  30.569521 -78.164894 72.521713  0.912328 -0.032621 0.408158  0.256844 0.686514 1 0 1.000000
0  29.537230 -78.605339 74.737694  0.909795 -0.025061 0.414300  0.262703 0.687490 1 0 1.000000
0  29.647339 -80.793793 74.324783  0.920213 -0.057300 0.387202  0.260750 0.691397 1 0 1.000000
skin_0
0  38.525021 -57.367718 53.307377  0.933533 -0.032330 0.357031  0.206061 0.650380 1 0 1.000000
0  39.474728 -53.912991 51.160225  0.939304 -0.019246 0.342546  0.200201 0.644520 1 0 1.000000
0  31.230183 -54.945278 72.576775  0.895405 -0.012358 0.445081  0.256844 0.646474 1 0 1.000000
skin_0
0  31.230183 -54.945278 72.576775  0.895405 -0.012358 0.445081  0.256844 0.646474 1 0 1.000000
0  31.780737 -58.000851 71.117805  0.929305 -0.009922 0.369180  0.252937 0.651357 1 0 1.000000
0  38.525021 -57.367718 53.307377  0.933533 -0.032330 0.357031  0.206061 0.650380 1 0 1.000000
skin_0
0  31.354057 -58.620224 72.108803  0.924469 -0.019197 0.380774  0.254891 0.652333 1 0 1.000000
0  31.780737 -58.000851 71.117805  0.929305 -0.009922 0.369180  0.252937 0.651357 1 0 1.000000
0  31.230183 -54.945278 72.576775  0.895405 -0.012358 0.445081  0.256844 0.646474 1 0 1.000000
skin_0
0  38.951698 -57.808163 52.164982  0.913827 -0.018941 0.405661  0.203131 0.651357 1 0 1.000000
0  39.474728 -53.912991 51.160225  0.939304 -0.019246 0.342546  0.200201 0.644520 1 0 1.000000
0  38.525021 -57.367718 53.307377  0.933533 -0.032330 0.357031  0.206061 0.650380 1 0 1.000000
skin_0
0  39.405907 -59.046906 51.201515  0.948603 -0.024971 0.315483  0.200201 0.653310 1 0 1.000000
0  39.474728 -53.912991 51.160225  0.939304 -0.019246 0.342546  0.200201 0.644520 1 0 1.000000
0  38.951698 -57.808163 52.164982  0.913827 -0.018941 0.405661  0.203131 0.651357 1 0 1.000000
skin_0
0  29.771214 -55.110447 74.902863  0.849485 -0.017522 0.527322  0.262703 0.646474 1 0 1.000000
0  29.633575 -67.098763 74.916626  0.889337 -0.016679 0.456948  0.262703 0.667959 1 0 1.000000
0  30.789742 -67.098763 72.673119  0.884148 -0.018985 0.466820  0.256844 0.667959 1 0 1.000000
skin_0
0  30.789742 -67.098763 72.673119  0.884148 -0.018985 0.466820  0.256844 0.667959 1 0 1.000000
0  31.106310 -59.473587 72.645592  0.849925 -0.027698 0.526175  0.256844 0.654286 1 0 1.000000
0  29.771214 -55.110447 74.902863  0.849485 -0.017522 0.527322  0.262703 0.646474 1 0 1.000000
skin_0
0  32.978195 -93.497833 63.354992  0.791333 -0.281769 0.542585  0.232429 0.713858 1 0 1.000000
0  33.735203 -95.534874 61.249123  0.837674 -0.288899 0.463508  0.226569 0.717765 1 0 1.000000
0  33.969189 -94.791626 61.249123  0.831818 -0.262103 0.489265  0.226569 0.715812 1 0 1.000000
skin_0
0  33.969189 -94.791626 61.249123  0.831818 -0.262103 0.489265  0.226569 0.715812 1 0 1.000000
0  33.363583 -93.153725 62.955841  0.792945 -0.279347 0.541482  0.231452 0.712882 1 0 1.000000
0  32.978195 -93.497833 63.354992  0.791333 -0.281769 0.542585  0.232429 0.713858 1 0 1.000000
skin_0
0  34.547272 -91.901215 60.932552  0.888678 -0.127657 0.440404  0.225593 0.710929 1 0 1.000000
0  33.363583 -93.153725 62.955841  0.890735 -0.123268 0.437488  0.231452 0.712882 1 0 1.000000
0  33.969189 -94.791626 61.249123  0.889100 -0.131014 0.438562  0.226569 0.715812 1 0 1.000000
skin_0
0  33.969189 -94.791626 61.249123  0.889100 -0.131014 0.438562  0.226569 0.715812 1 0 1.000000
0  35.620853 -94.819153 57.890743  0.889089 -0.131212 0.438526  0.217780 0.715812 1 0 1.000000
0  34.547272 -91.901215 60.932552  0.888678 -0.127657 0.440404  0.225593 0.710929 1 0 1.000000
skin_0
0  29.550993 -84.454979 72.769463  0.606692 -0.413258 0.679075  0.256844 0.698233 1 0 1.000000
0  30.170366 -84.248520 72.356552  0.598939 -0.428560 0.676468  0.255867 0.697256 1 0 1.000000
0  29.826273 -82.569328 73.567772  0.660960 -0.302939 0.686557  0.258797 0.694327 1 0 1.000000
skin_0
0  29.826273 -82.569328 73.567772  0.660960 -0.302939 0.686557  0.258797 0.694327 1 0 1.000000
0  29.330770 -82.913422 73.898102  0.671588 -0.309984 0.672963  0.259774 0.695303 1 0 1.000000
0  29.550993 -84.454979 72.769463  0.606692 -0.413258 0.679075  0.256844 0.698233 1 0 1.000000
skin_0
0  30.982433 -82.514275 70.691124  0.921382 -0.075657 0.381223  0.251961 0.694327 1 0 1.000000
0  30.170366 -84.248520 72.356552  0.922836 -0.075477 0.377726  0.255867 0.697256 1 0 1.000000
0  33.363583 -93.153725 62.955841  0.890735 -0.123268 0.437488  0.231452 0.712882 1 0 1.000000
skin_0
0  33.363583 -93.153725 62.955841  0.890735 -0.123268 0.437488  0.231452 0.712882 1 0 1.000000
0  34.547272 -91.901215 60.932552  0.888678 -0.127657 0.440404  0.225593 0.710929 1 0 1.000000
0  30.982433 -82.514275 70.691124  0.921382 -0.075657 0.381223  0.251961 0.694327 1 0 1.000000
skin_0
0  29.826273 -82.569328 73.567772  0.924196 -0.072342 0.375004  0.258797 0.694327 1 0 1.000000
0  30.170366 -84.248520 72.356552  0.922836 -0.075477 0.377726  0.255867 0.697256 1 0 1.000000
0  30.982433 -82.514275 70.691124  0.921382 -0.075657 0.381223  0.251961 0.694327 1 0 1.000000
skin_0
0  30.652102 -80.573570 71.902351  0.924249 -0.067264 0.375819  0.254891 0.691397 1 0 1.000000
0  29.826273 -82.569328 73.567772  0.924196 -0.072342 0.375004  0.258797 0.694327 1 0 1.000000
0  30.982433 -82.514275 70.691124  0.921382 -0.075657 0.381223  0.251961 0.694327 1 0 1.000000
skin_0
0  30.652102 -80.573570 71.902351  0.924249 -0.067264 0.375819  0.254891 0.691397 1 0 1.000000
0  30.569521 -78.164894 72.521713  0.912328 -0.032621 0.408158  0.256844 0.686514 1 0 1.000000
0  29.647339 -80.793793 74.324783  0.920213 -0.057300 0.387202  0.260750 0.691397 1 0 1.000000
skin_0
0  39.777527 -74.132088 48.187233  0.981915 -0.035162 0.186027  0.192389 0.679678 1 0 1.000000
0  40.451958 -53.912991 48.214760  0.981209 -0.024882 0.191336  0.192389 0.644520 1 0 1.000000
0  39.405907 -59.046906 51.201515  0.948603 -0.024971 0.315483  0.200201 0.653310 1 0 1.000000
skin_0
0  41.553062 -74.145851 34.877590  0.996004 -0.029229 -0.084392  0.157231 0.679678 1 0 1.000000
0  40.025280 -73.994446 17.232334  0.995911 -0.026206 -0.086454  0.111332 0.679678 1 0 1.000000
0  40.548302 -53.912991 17.232334  0.995508 -0.029128 -0.090086  0.111332 0.644520 1 0 1.000000
skin_0
0  40.740997 -94.392471 31.822014  0.998471 -0.033401 -0.044043  0.149419 0.715812 1 0 1.000000
0  40.204208 -90.290840 25.270422  0.995658 -0.030944 -0.087790  0.131840 0.707999 1 0 1.000000
0  41.553062 -74.145851 34.877590  0.996004 -0.029229 -0.084392  0.157231 0.679678 1 0 1.000000
skin_0
0  40.204208 -90.290840 25.270422  0.884121 -0.398283 -0.244338  0.131840 0.707999 1 0 1.000000
0  40.740997 -94.392471 31.822014  0.898392 -0.398779 -0.184032  0.149419 0.715812 1 0 1.000000
0  40.424435 -95.121956 31.822014  0.905631 -0.402061 -0.134828  0.149419 0.716788 1 0 1.000000
skin_0
0  40.424435 -95.121956 31.822014  0.905631 -0.402061 -0.134828  0.149419 0.716788 1 0 1.000000
0  39.887638 -91.006561 25.270422  0.877469 -0.395266 -0.271685  0.131840 0.709952 1 0 1.000000
0  40.204208 -90.290840 25.270422  0.884121 -0.398283 -0.244338  0.131840 0.707999 1 0 1.000000
skin_0
0  38.153397 -55.165501 37.630360  -0.497776 0.865529 -0.055483  0.054689 0.033174 1 0 1.000000
0  40.961220 -53.376202 37.437664  -0.539583 0.832236 -0.127408  0.054689 0.033174 1 0 1.000000
0  41.869633 -53.376202 34.877590  -0.474153 0.879370 -0.043439  0.054689 0.033174 1 0 1.000000
skin_0
0  41.869633 -53.376202 34.877590  -0.474153 0.879370 -0.043439  0.054689 0.033174 1 0 1.000000
0  40.217968 -53.376202 17.232334  -0.587420 0.796843 0.141347  0.054689 0.033174 1 0 1.000000
0  36.350327 -56.032623 16.158758  -0.718823 0.693390 -0.050038  0.054689 0.033174 1 0 1.000000
skin_0
0  41.869633 -53.376202 34.877590  -0.474153 0.879370 -0.043439  0.054689 0.033174 1 0 1.000000
0  36.350327 -56.032623 16.158758  -0.718823 0.693390 -0.050038  0.054689 0.033174 1 0 1.000000
0  37.520260 -55.468307 29.344526  -0.433418 0.901193 -0.000055  0.054689 0.033174 1 0 1.000000
skin_0
0  41.869633 -53.376202 34.877590  -0.474153 0.879370 -0.043439  0.054689 0.033174 1 0 1.000000
0  37.520260 -55.468307 29.344526  -0.433418 0.901193 -0.000055  0.054689 0.033174 1 0 1.000000
0  38.153397 -55.165501 37.630360  -0.497776 0.865529 -0.055483  0.054689 0.033174 1 0 1.000000
skin_0
0  38.992985 -53.431255 11.190006  -0.781903 0.537654 -0.315524  0.054689 0.033174 1 0 1.000000
0  35.992470 -59.404770 12.690266  -0.623361 0.119020 -0.772823  0.054689 0.033174 1 0 1.000000
0  36.350327 -56.032623 16.158758  -0.718823 0.693390 -0.050038  0.054689 0.033174 1 0 1.000000
skin_0
0  36.350327 -56.032623 16.158758  -0.718823 0.693390 -0.050038  0.054689 0.033174 1 0 1.000000
0  40.217968 -53.376202 17.232334  -0.587420 0.796843 0.141347  0.054689 0.033174 1 0 1.000000
0  39.653652 -53.376202 16.131226  -0.623573 0.774580 0.105744  0.054689 0.033174 1 0 1.000000
skin_0
0  36.364094 -85.143173 12.456281  -0.519793 0.008381 -0.854251  0.054689 0.033174 1 0 1.000000
0  36.198929 -73.787994 12.566392  -0.488766 0.004546 -0.872403  0.054689 0.033174 1 0 1.000000
0  38.621368 -73.925629 11.190006  -0.493256 0.005285 -0.869868  0.054689 0.033174 1 0 1.000000
skin_0
0  38.621368 -73.925629 11.190006  -0.493256 0.005285 -0.869868  0.054689 0.033174 1 0 1.000000
0  38.387383 -86.615898 11.203770  -0.523336 0.009325 -0.852076  0.054689 0.033174 1 0 1.000000
0  36.364094 -85.143173 12.456281  -0.519793 0.008381 -0.854251  0.054689 0.033174 1 0 1.000000
skin_0
0  38.153397 -55.165501 37.630360  -0.497776 0.865529 -0.055483  0.054689 0.033174 1 0 1.000000
0  38.731480 -54.050629 46.948483  -0.369409 0.924581 -0.093207  0.054689 0.033174 1 0 1.000000
0  40.121624 -53.376202 48.214760  -0.376965 0.920629 -0.101682  0.054689 0.033174 1 0 1.000000
skin_0
0  40.121624 -53.376202 48.214760  -0.376965 0.920629 -0.101682  0.054689 0.033174 1 0 1.000000
0  40.961220 -53.376202 37.437664  -0.539583 0.832236 -0.127408  0.054689 0.033174 1 0 1.000000
0  38.153397 -55.165501 37.630360  -0.497776 0.865529 -0.055483  0.054689 0.033174 1 0 1.000000
skin_0
0  40.410671 -95.190773 34.877590  -0.261392 -0.964398 -0.040125  0.054689 0.033174 1 0 1.000000
0  38.318565 -94.750336 37.891872  -0.393406 -0.916326 -0.074697  0.054689 0.033174 1 0 1.000000
0  37.946941 -94.543869 32.441387  -0.277151 -0.930677 -0.238804  0.053713 0.033174 1 0 1.000000
skin_0
0  40.410671 -95.190773 34.877590  -0.261392 -0.964398 -0.040125  0.054689 0.033174 1 0 1.000000
0  37.946941 -94.543869 32.441387  -0.277151 -0.930677 -0.238804  0.053713 0.033174 1 0 1.000000
0  40.424435 -95.121956 31.822014  -0.274341 -0.921292 -0.275605  0.053713 0.033174 1 0 1.000000
skin_0
0  38.318565 -94.750336 37.891872  -0.393406 -0.916326 -0.074697  0.054689 0.033174 1 0 1.000000
0  40.410671 -95.190773 34.877590  -0.261392 -0.964398 -0.040125  0.054689 0.033174 1 0 1.000000
0  39.474731 -95.273369 37.437664  -0.455297 -0.878153 -0.146806  0.054689 0.033174 1 0 1.000000
skin_0
0  38.814060 -87.882172 16.131226  -0.397781 -0.865278 -0.305063  0.054689 0.033174 1 0 1.000000
0  37.368855 -90.318367 25.297955  -0.266941 -0.880758 -0.391162  0.054689 0.033174 1 0 1.000000
0  36.364094 -85.143173 12.456281  -0.568719 -0.804590 -0.170865  0.054689 0.033174 1 0 1.000000
skin_0
0  37.368855 -90.318367 25.297955  -0.266941 -0.880758 -0.391162  0.054689 0.033174 1 0 1.000000
0  38.814060 -87.882172 16.131226  -0.397781 -0.865278 -0.305063  0.054689 0.033174 1 0 1.000000
0  39.350849 -88.157448 17.232334  -0.013208 -0.965289 -0.260851  0.054689 0.033174 1 0 1.000000
skin_0
0  37.368855 -90.318367 25.297955  -0.266941 -0.880758 -0.391162  0.054689 0.033174 1 0 1.000000
0  39.350849 -88.157448 17.232334  -0.013208 -0.965289 -0.260851  0.054689 0.033174 1 0 1.000000
0  39.887638 -91.006561 25.270422  -0.245080 -0.874852 -0.417815  0.054689 0.033174 1 0 1.000000
skin_0
0  40.424435 -95.121956 31.822014  -0.274341 -0.921292 -0.275605  0.054689 0.033174 1 0 1.000000
0  37.368855 -90.318367 25.297955  -0.266941 -0.880758 -0.391162  0.054689 0.033174 1 0 1.000000
0  39.887638 -91.006561 25.270422  -0.245080 -0.874852 -0.417815  0.054689 0.033174 1 0 1.000000
skin_0
0  38.318565 -94.750336 37.891872  -0.393406 -0.916326 -0.074697  0.054689 0.033174 1 0 1.000000
0  39.474731 -95.273369 37.437664  -0.455297 -0.878153 -0.146806  0.054689 0.033174 1 0 1.000000
0  38.800301 -95.562401 47.967007  -0.257367 -0.964044 -0.066194  0.054689 0.033174 1 0 1.000000
skin_0
0  38.800301 -95.562401 47.967007  -0.257367 -0.964044 -0.066194  0.054689 0.033174 1 0 1.000000
0  37.960705 -95.562401 51.008816  -0.249676 -0.966026 -0.066744  0.054689 0.033174 1 0 1.000000
0  38.318565 -94.750336 37.891872  -0.393406 -0.916326 -0.074697  0.054689 0.033174 1 0 1.000000
skin_0
0  36.350327 -56.032623 16.158758  -0.718823 0.693390 -0.050038  0.054689 0.033174 1 0 1.000000
0  39.846344 -53.376202 15.140231  -0.603074 0.797568 0.013670  0.054689 0.033174 1 0 1.000000
0  38.992985 -53.431255 11.190006  -0.781903 0.537654 -0.315524  0.054689 0.033174 1 0 1.000000
skin_0
0  36.350327 -56.032623 16.158758  -0.718823 0.693390 -0.050038  0.054689 0.033174 1 0 1.000000
0  39.653652 -53.376202 16.131226  -0.623573 0.774580 0.105744  0.054689 0.033174 1 0 1.000000
0  39.846344 -53.376202 15.140231  -0.603074 0.797568 0.013670  0.054689 0.033174 1 0 1.000000
skin_0
0  39.158157 -53.376202 51.160225  -0.350949 0.929204 -0.115825  0.054689 0.033174 1 0 1.000000
0  40.121624 -53.376202 48.214760  -0.376965 0.920629 -0.101682  0.054689 0.033174 1 0 1.000000
0  38.731480 -54.050629 46.948483  -0.369409 0.924581 -0.093207  0.054689 0.033174 1 0 1.000000
skin_0
0  39.075573 -87.593140 15.140231  -0.471767 -0.833162 -0.288578  0.054689 0.033174 1 0 1.000000
0  38.814060 -87.882172 16.131226  -0.397781 -0.865278 -0.305063  0.054689 0.033174 1 0 1.000000
0  36.364094 -85.143173 12.456281  -0.568719 -0.804590 -0.170865  0.054689 0.033174 1 0 1.000000
skin_0
0  38.387383 -86.615898 11.203770  -0.622074 -0.778162 -0.086538  0.054689 0.033174 1 0 1.000000
0  39.075573 -87.593140 15.140231  -0.471767 -0.833162 -0.288578  0.054689 0.033174 1 0 1.000000
0  36.364094 -85.143173 12.456281  -0.568719 -0.804590 -0.170865  0.054689 0.033174 1 0 1.000000
skin_0
0  37.946941 -94.543869 32.441387  -0.277151 -0.930677 -0.238804  0.054689 0.033174 1 0 1.000000
0  37.368855 -90.318367 25.297955  -0.266941 -0.880758 -0.391162  0.054689 0.033174 1 0 1.000000
0  40.424435 -95.121956 31.822014  -0.274341 -0.921292 -0.275605  0.054689 0.033174 1 0 1.000000
skin_0
0  41.553062 -74.145851 34.877590  0.996004 -0.029229 -0.084392  0.157231 0.679678 1 0 1.000000
0  40.204208 -90.290840 25.270422  0.995658 -0.030944 -0.087790  0.131840 0.707999 1 0 1.000000
0  39.667419 -87.455490 17.232334  0.996075 -0.031419 -0.082745  0.111332 0.703116 1 0 1.000000
skin_0
0  39.667419 -87.455490 17.232334  0.996075 -0.031419 -0.082745  0.111332 0.703116 1 0 1.000000
0  40.025280 -73.994446 17.232334  0.995911 -0.026206 -0.086454  0.111332 0.679678 1 0 1.000000
0  41.553062 -74.145851 34.877590  0.996004 -0.029229 -0.084392  0.157231 0.679678 1 0 1.000000
skin_0
0  39.144394 -87.180214 16.131226  0.899044 -0.023389 -0.437234  0.108402 0.703116 1 0 1.000000
0  39.474728 -73.953156 16.131226  0.895233 -0.022492 -0.445030  0.108402 0.679678 1 0 1.000000
0  40.025280 -73.994446 17.232334  0.895228 -0.022523 -0.445039  0.111332 0.679678 1 0 1.000000
skin_0
0  40.025280 -73.994446 17.232334  0.895228 -0.022523 -0.445039  0.111332 0.679678 1 0 1.000000
0  39.667419 -87.455490 17.232334  0.899189 -0.023427 -0.436933  0.111332 0.703116 1 0 1.000000
0  39.144394 -87.180214 16.131226  0.899044 -0.023389 -0.437234  0.108402 0.703116 1 0 1.000000
skin_0
0  39.392143 -86.918709 15.140231  0.970563 -0.024323 0.239618  0.105472 0.702139 1 0 1.000000
0  39.694946 -73.966919 15.140231  0.974745 -0.023010 0.222132  0.105472 0.679678 1 0 1.000000
0  39.474728 -73.953156 16.131226  0.974751 -0.023072 0.222100  0.108402 0.679678 1 0 1.000000
skin_0
0  39.474728 -73.953156 16.131226  0.974751 -0.023072 0.222100  0.108402 0.679678 1 0 1.000000
0  39.144394 -87.180214 16.131226  0.970370 -0.024384 0.240390  0.108402 0.703116 1 0 1.000000
0  39.392143 -86.918709 15.140231  0.970563 -0.024323 0.239618  0.105472 0.702139 1 0 1.000000
skin_0
0  38.855350 -85.968994 11.836907  0.985468 -0.022508 -0.168364  0.096683 0.701163 1 0 1.000000
0  39.089336 -73.925629 11.836907  0.982954 -0.018285 -0.182940  0.096683 0.679678 1 0 1.000000
0  39.694946 -73.966919 15.140231  0.982942 -0.018992 -0.182932  0.105472 0.679678 1 0 1.000000
skin_0
0  39.694946 -73.966919 15.140231  0.982942 -0.018992 -0.182932  0.105472 0.679678 1 0 1.000000
0  39.392143 -86.918709 15.140231  0.985842 -0.023200 -0.166064  0.105472 0.702139 1 0 1.000000
0  38.855350 -85.968994 11.836907  0.985468 -0.022508 -0.168364  0.096683 0.701163 1 0 1.000000
skin_0
0  38.621368 -73.925629 11.190006  0.810086 -0.015410 -0.586109  0.094729 0.679678 1 0 1.000000
0  39.089336 -73.925629 11.836907  0.810130 -0.015415 -0.586047  0.096683 0.679678 1 0 1.000000
0  38.855350 -85.968994 11.836907  0.814731 -0.014646 -0.579654  0.096683 0.701163 1 0 1.000000
skin_0
0  38.855350 -85.968994 11.836907  0.814731 -0.014646 -0.579654  0.096683 0.701163 1 0 1.000000
0  38.387383 -86.615898 11.203770  0.814857 -0.014616 -0.579478  0.094729 0.702139 1 0 1.000000
0  38.621368 -73.925629 11.190006  0.810086 -0.015410 -0.586109  0.094729 0.679678 1 0 1.000000
skin_0
0  38.992985 -53.431255 11.190006  -0.781903 0.537654 -0.315524  0.054689 0.033174 1 0 1.000000
0  38.621368 -73.925629 11.190006  -0.493256 0.005285 -0.869868  0.054689 0.033174 1 0 1.000000
0  36.198929 -73.787994 12.566392  -0.488766 0.004546 -0.872403  0.054689 0.033174 1 0 1.000000
skin_0
0  36.198929 -73.787994 12.566392  -0.488766 0.004546 -0.872403  0.054689 0.033174 1 0 1.000000
0  35.992470 -59.404770 12.690266  -0.623361 0.119020 -0.772823  0.054689 0.033174 1 0 1.000000
0  38.992985 -53.431255 11.190006  -0.781903 0.537654 -0.315524  0.054689 0.033174 1 0 1.000000
end
