version 1
nodes
0 "root" -1
end
skeleton
time 0
0  0.000000 0.000000 0.000000  0.000000 -0.000000 0.000000
end
triangles
misc
0  -31.574261 -59.074440 71.640831  -0.908323 0.011206 0.418120  0.468764 0.007782 1 0 1.000000
0  -31.354038 -58.620232 72.108803  -0.909565 0.017703 0.415183  0.467788 0.040986 1 0 1.000000
0  -31.780718 -58.000858 71.117805  -0.911889 0.069258 0.404550  0.469741 0.040986 1 0 1.000000
misc
0  -31.780718 -58.000858 71.117805  -0.911889 0.069258 0.404550  0.469741 0.040986 1 0 1.000000
0  -31.973408 -58.578941 70.787468  -0.915330 0.093643 0.391664  0.469741 0.007782 1 0 1.000000
0  -31.574261 -59.074440 71.640831  -0.908323 0.011206 0.418120  0.468764 0.007782 1 0 1.000000
misc
0  -31.106291 -59.473595 72.645592  -0.916040 -0.029996 0.399963  0.466811 0.040986 1 0 1.000000
0  -31.354038 -58.620232 72.108803  -0.909565 0.017703 0.415183  0.467788 0.040986 1 0 1.000000
0  -31.574261 -59.074440 71.640831  -0.908323 0.011206 0.418120  0.468764 0.007782 1 0 1.000000
misc
0  -31.574261 -59.074440 71.640831  -0.908323 0.011206 0.418120  0.468764 0.007782 1 0 1.000000
0  -31.326511 -59.927799 72.108803  -0.918614 -0.041777 0.392940  0.466811 0.007782 1 0 1.000000
0  -31.106291 -59.473595 72.645592  -0.916040 -0.029996 0.399963  0.466811 0.040986 1 0 1.000000
misc
0  -31.326511 -59.927799 72.108803  -0.918614 -0.041777 0.392940  0.466811 0.007782 1 0 1.000000
0  -30.789719 -67.098763 72.673119  -0.913408 -0.034272 0.405599  0.464858 0.040986 1 0 1.000000
0  -31.106291 -59.473595 72.645592  -0.916040 -0.029996 0.399963  0.466811 0.040986 1 0 1.000000
misc
0  -38.896626 -74.132088 51.077644  -0.936927 -0.034395 0.347828  0.479507 0.040986 1 0 1.000000
0  -38.277252 -94.819153 51.008823  -0.926004 -0.004600 0.377485  0.482437 0.040986 1 0 1.000000
0  -38.070793 -91.502068 51.586910  -0.880860 -0.026247 0.472648  0.480483 0.007782 1 0 1.000000
misc
0  -38.070793 -91.502068 51.586910  -0.880860 -0.026247 0.472648  0.480483 0.007782 1 0 1.000000
0  -38.676407 -74.104561 51.669491  -0.937576 -0.034486 0.346068  0.478530 0.007782 1 0 1.000000
0  -38.896626 -74.132088 51.077644  -0.936927 -0.034395 0.347828  0.479507 0.040986 1 0 1.000000
misc
0  -38.951683 -57.808170 52.164989  -0.904491 -0.043017 0.424317  0.475600 0.040986 1 0 1.000000
0  -39.405891 -59.046913 51.201523  -0.927311 0.006467 0.374236  0.477554 0.040986 1 0 1.000000
0  -39.199432 -59.363487 51.738312  -0.923438 -0.004852 0.383718  0.477554 0.007782 1 0 1.000000
misc
0  -39.199432 -59.363487 51.738312  -0.923438 -0.004852 0.383718  0.477554 0.007782 1 0 1.000000
0  -38.745228 -58.386246 52.522850  -0.894959 -0.055665 0.442662  0.475600 0.007782 1 0 1.000000
0  -38.951683 -57.808170 52.164989  -0.904491 -0.043017 0.424317  0.475600 0.040986 1 0 1.000000
misc
0  -38.525005 -57.367725 53.307384  -0.916831 -0.133515 0.376292  0.474624 0.040986 1 0 1.000000
0  -38.951683 -57.808170 52.164989  -0.904491 -0.043017 0.424317  0.475600 0.040986 1 0 1.000000
0  -38.745228 -58.386246 52.522850  -0.894959 -0.055665 0.442662  0.475600 0.007782 1 0 1.000000
misc
0  -38.745228 -58.386246 52.522850  -0.894959 -0.055665 0.442662  0.475600 0.007782 1 0 1.000000
0  -38.346073 -57.973331 53.541374  -0.917470 -0.141779 0.371682  0.474624 0.007782 1 0 1.000000
0  -38.525005 -57.367725 53.307384  -0.916831 -0.133515 0.376292  0.474624 0.040986 1 0 1.000000
misc
0  -31.780718 -58.000858 71.117805  -0.911889 0.069258 0.404550  0.469741 0.040986 1 0 1.000000
0  -38.525005 -57.367725 53.307384  -0.916831 -0.133515 0.376292  0.474624 0.040986 1 0 1.000000
0  -38.346073 -57.973331 53.541374  -0.917470 -0.141779 0.371682  0.474624 0.007782 1 0 1.000000
misc
0  -38.346073 -57.973331 53.541374  -0.917470 -0.141779 0.371682  0.474624 0.007782 1 0 1.000000
0  -31.973408 -58.578941 70.787468  -0.915330 0.093643 0.391664  0.469741 0.007782 1 0 1.000000
0  -31.780718 -58.000858 71.117805  -0.911889 0.069258 0.404550  0.469741 0.040986 1 0 1.000000
misc
0  -30.748426 -78.123604 71.847290  -0.959271 -0.029635 0.280929  0.461928 0.007782 1 0 1.000000
0  -30.569498 -78.164894 72.521713  -0.962967 -0.029204 0.268034  0.461928 0.040986 1 0 1.000000
0  -30.789719 -67.098763 72.673119  -0.913408 -0.034272 0.405599  0.464858 0.040986 1 0 1.000000
misc
0  -34.547249 -91.901215 60.932560  -0.959931 0.075650 0.269834  0.455092 0.040986 1 0 1.000000
0  -30.982410 -82.514275 70.691124  -0.910379 -0.081319 0.405705  0.458022 0.040986 1 0 1.000000
0  -31.202633 -82.170174 70.278214  -0.910188 -0.079940 0.406408  0.458022 0.007782 1 0 1.000000
misc
0  -31.202633 -82.170174 70.278214  -0.910188 -0.079940 0.406408  0.458022 0.007782 1 0 1.000000
0  -34.671124 -91.570885 60.395767  -0.960239 0.081885 0.266901  0.455092 0.007782 1 0 1.000000
0  -34.547249 -91.901215 60.932560  -0.959931 0.075650 0.269834  0.455092 0.040986 1 0 1.000000
misc
0  -38.057030 -94.213547 51.600674  -0.931819 -0.000757 0.362923  0.482437 0.007782 1 0 1.000000
0  -38.277252 -94.819153 51.008823  -0.926004 -0.004600 0.377485  0.482437 0.040986 1 0 1.000000
0  -35.620831 -94.819153 57.890751  -0.940269 0.034579 0.338671  0.485366 0.040986 1 0 1.000000
misc
0  -35.620831 -94.819153 57.890751  -0.940269 0.034579 0.338671  0.485366 0.040986 1 0 1.000000
0  -35.648357 -94.213547 57.725586  -0.942179 0.037272 0.333032  0.485366 0.007782 1 0 1.000000
0  -38.057030 -94.213547 51.600674  -0.931819 -0.000757 0.362923  0.482437 0.007782 1 0 1.000000
misc
0  -30.652079 -80.573570 71.902351  -0.924458 -0.053070 0.377572  0.459975 0.040986 1 0 1.000000
0  -30.569498 -78.164894 72.521713  -0.962967 -0.029204 0.268034  0.461928 0.040986 1 0 1.000000
0  -30.748426 -78.123604 71.847290  -0.959271 -0.029635 0.280929  0.461928 0.007782 1 0 1.000000
misc
0  -30.748426 -78.123604 71.847290  -0.959271 -0.029635 0.280929  0.461928 0.007782 1 0 1.000000
0  -30.886066 -80.325821 71.379318  -0.918240 -0.052716 0.392499  0.459975 0.007782 1 0 1.000000
0  -30.652079 -80.573570 71.902351  -0.924458 -0.053070 0.377572  0.459975 0.040986 1 0 1.000000
misc
0  -34.547249 -91.901215 60.932560  -0.959931 0.075650 0.269834  0.455092 0.040986 1 0 1.000000
0  -34.671124 -91.570885 60.395767  -0.960239 0.081885 0.266901  0.455092 0.007782 1 0 1.000000
0  -35.648357 -94.213547 57.725586  -0.942179 0.037272 0.333032  0.451186 0.007782 1 0 1.000000
misc
0  -35.648357 -94.213547 57.725586  -0.942179 0.037272 0.333032  0.451186 0.007782 1 0 1.000000
0  -35.620831 -94.819153 57.890751  -0.940269 0.034579 0.338671  0.451186 0.040986 1 0 1.000000
0  -34.547249 -91.901215 60.932560  -0.959931 0.075650 0.269834  0.455092 0.040986 1 0 1.000000
misc
0  -35.648357 -94.213547 57.725586  -0.932597 -0.014047 0.360646  0.836940 0.824213 1 0 1.000000
0  -34.671124 -91.570885 60.395767  -0.932865 -0.015883 0.359875  0.836940 0.824213 1 0 1.000000
0  -38.070793 -91.502068 51.586910  -0.931516 -0.006769 0.363637  0.836940 0.824213 1 0 1.000000
misc
0  -38.070793 -91.502068 51.586910  -0.931516 -0.006769 0.363637  0.836940 0.824213 1 0 1.000000
0  -38.057030 -94.213547 51.600674  -0.931174 -0.003775 0.364557  0.836940 0.824213 1 0 1.000000
0  -35.648357 -94.213547 57.725586  -0.932597 -0.014047 0.360646  0.836940 0.824213 1 0 1.000000
misc
0  -38.277252 -94.819153 51.008823  -0.926004 -0.004600 0.377485  0.482437 0.040986 1 0 1.000000
0  -38.057030 -94.213547 51.600674  -0.931819 -0.000757 0.362923  0.482437 0.007782 1 0 1.000000
0  -38.070793 -91.502068 51.586910  -0.880860 -0.026247 0.472648  0.480483 0.007782 1 0 1.000000
misc
0  -30.982410 -82.514275 70.691124  -0.910379 -0.081319 0.405705  0.458022 0.040986 1 0 1.000000
0  -30.652079 -80.573570 71.902351  -0.924458 -0.053070 0.377572  0.459975 0.040986 1 0 1.000000
0  -30.886066 -80.325821 71.379318  -0.918240 -0.052716 0.392499  0.459975 0.007782 1 0 1.000000
misc
0  -30.886066 -80.325821 71.379318  -0.918240 -0.052716 0.392499  0.459975 0.007782 1 0 1.000000
0  -31.202633 -82.170174 70.278214  -0.910188 -0.079940 0.406408  0.458022 0.007782 1 0 1.000000
0  -30.982410 -82.514275 70.691124  -0.910379 -0.081319 0.405705  0.458022 0.040986 1 0 1.000000
misc
0  -31.326511 -59.927799 72.108803  -0.918614 -0.041777 0.392940  0.466811 0.007782 1 0 1.000000
0  -30.748426 -78.123604 71.847290  -0.959271 -0.029635 0.280929  0.461928 0.007782 1 0 1.000000
0  -30.789719 -67.098763 72.673119  -0.913408 -0.034272 0.405599  0.464858 0.040986 1 0 1.000000
misc
0  -30.913595 -54.436024 72.576775  0.609352 0.760526 -0.224255  0.736351 0.643544 1 0 1.000000
0  -29.083002 -55.371964 74.311012  0.662421 0.671766 -0.331555  0.736351 0.643544 1 0 1.000000
0  -38.442421 -54.188278 51.201523  0.730160 0.635908 -0.249975  0.736351 0.643544 1 0 1.000000
misc
0  -30.913595 -54.436024 72.576775  0.609352 0.760526 -0.224255  0.736351 0.643544 1 0 1.000000
0  -38.442421 -54.188278 51.201523  0.730160 0.635908 -0.249975  0.736351 0.643544 1 0 1.000000
0  -38.497478 -54.119461 51.187759  0.734060 0.630851 -0.251363  0.736351 0.643544 1 0 1.000000
misc
0  -30.913595 -54.436024 72.576775  0.609352 0.760526 -0.224255  0.736351 0.643544 1 0 1.000000
0  -38.497478 -54.119461 51.187759  0.734060 0.630851 -0.251363  0.736351 0.643544 1 0 1.000000
0  -39.158142 -53.376209 51.160233  0.734049 0.630866 -0.251357  0.736351 0.643544 1 0 1.000000
misc
0  -29.151819 -67.098763 75.274490  0.997588 0.001007 0.069401  0.736351 0.643544 1 0 1.000000
0  -29.083002 -55.371964 74.311012  0.982527 0.010072 0.185846  0.736351 0.643544 1 0 1.000000
0  -29.289459 -54.614956 75.260727  0.981328 0.010592 0.192047  0.736351 0.643544 1 0 1.000000
misc
0  -29.041710 -78.687920 75.081795  0.999963 0.000640 0.008526  0.736351 0.643544 1 0 1.000000
0  -29.014183 -81.537033 73.430130  0.988838 -0.129188 0.074224  0.736351 0.643544 1 0 1.000000
0  -29.151819 -67.098763 75.274490  0.997588 0.001007 0.069401  0.736351 0.643544 1 0 1.000000
misc
0  -29.041710 -78.687920 75.081795  0.999963 0.000640 0.008526  0.736351 0.643544 1 0 1.000000
0  -29.151819 -81.014015 74.710167  0.986284 -0.093722 0.135864  0.736351 0.643544 1 0 1.000000
0  -29.014183 -81.537033 73.430130  0.988838 -0.129188 0.074224  0.736351 0.643544 1 0 1.000000
misc
0  -37.960682 -95.562401 51.008823  0.828082 -0.436805 -0.351399  0.736351 0.643544 1 0 1.000000
0  -37.561531 -94.832916 51.050117  0.831110 -0.429294 -0.353501  0.736351 0.643544 1 0 1.000000
0  -33.267212 -94.681519 60.973850  0.868795 -0.492398 -0.052346  0.736351 0.643544 1 0 1.000000
misc
0  -33.267212 -94.681519 60.973850  0.868795 -0.492398 -0.052346  0.736351 0.643544 1 0 1.000000
0  -33.735180 -95.534874 61.249130  0.855142 -0.499397 -0.139052  0.736351 0.643544 1 0 1.000000
0  -37.960682 -95.562401 51.008823  0.828082 -0.436805 -0.351399  0.736351 0.643544 1 0 1.000000
misc
0  -30.913595 -54.436024 72.576775  0.609352 0.760526 -0.224255  0.736351 0.643544 1 0 1.000000
0  -29.289459 -54.614956 75.260727  0.678626 0.635274 -0.368638  0.736351 0.643544 1 0 1.000000
0  -29.083002 -55.371964 74.311012  0.662421 0.671766 -0.331555  0.736351 0.643544 1 0 1.000000
misc
0  -29.550970 -84.454979 72.769463  0.972591 -0.136258 -0.188416  0.736351 0.643544 1 0 1.000000
0  -29.014183 -81.537033 73.430130  0.988838 -0.129188 0.074224  0.736351 0.643544 1 0 1.000000
0  -29.330748 -82.913422 73.898102  0.977715 -0.188050 0.093326  0.736351 0.643544 1 0 1.000000
misc
0  -29.151819 -81.014015 74.710167  0.986284 -0.093722 0.135864  0.736351 0.643544 1 0 1.000000
0  -29.330748 -82.913422 73.898102  0.977715 -0.188050 0.093326  0.736351 0.643544 1 0 1.000000
0  -29.014183 -81.537033 73.430130  0.988838 -0.129188 0.074224  0.736351 0.643544 1 0 1.000000
misc
0  -33.735180 -95.534874 61.249130  0.855142 -0.499397 -0.139052  0.736351 0.643544 1 0 1.000000
0  -33.267212 -94.681519 60.973850  0.868795 -0.492398 -0.052346  0.736351 0.643544 1 0 1.000000
0  -29.014183 -81.537033 73.430130  0.988811 -0.129373 0.074260  0.736351 0.643544 1 0 1.000000
misc
0  -29.014183 -81.537033 73.430130  0.988838 -0.129188 0.074224  0.736351 0.643544 1 0 1.000000
0  -29.550970 -84.454979 72.769463  0.972591 -0.136258 -0.188416  0.736351 0.643544 1 0 1.000000
0  -33.735180 -95.534874 61.249130  0.855239 -0.499226 -0.139066  0.736351 0.643544 1 0 1.000000
misc
0  -37.520245 -55.468315 29.344530  0.588511 0.808196 0.021764  0.712912 0.796869 1 0 1.000000
0  -38.153381 -55.165508 37.630367  0.617955 0.785819 -0.024903  0.712912 0.797845 1 0 1.000000
0  -37.121090 -55.977577 37.534019  0.618082 0.785949 -0.016116  0.712912 0.797845 1 0 1.000000
misc
0  -37.520245 -55.468315 29.344530  0.588511 0.808196 0.021764  0.712912 0.796869 1 0 1.000000
0  -37.121090 -55.977577 37.534019  0.618082 0.785949 -0.016116  0.712912 0.797845 1 0 1.000000
0  -35.386848 -56.665764 16.461565  0.585075 0.766579 -0.264659  0.712912 0.794916 1 0 1.000000
misc
0  -37.520245 -55.468315 29.344530  0.588511 0.808196 0.021764  0.712912 0.796869 1 0 1.000000
0  -35.386848 -56.665764 16.461565  0.585075 0.766579 -0.264659  0.712912 0.794916 1 0 1.000000
0  -36.350319 -56.032631 16.158762  0.573362 0.777066 -0.259662  0.712912 0.794916 1 0 1.000000
misc
0  -35.001465 -59.597473 13.240826  0.511429 0.354353 -0.782863  0.711936 0.794916 1 0 1.000000
0  -35.992462 -59.404778 12.690271  0.500582 0.354287 -0.789873  0.711936 0.794916 1 0 1.000000
0  -36.350319 -56.032631 16.158762  0.573362 0.777066 -0.259662  0.712912 0.794916 1 0 1.000000
misc
0  -36.350319 -56.032631 16.158762  0.573362 0.777066 -0.259662  0.712912 0.794916 1 0 1.000000
0  -35.386848 -56.665764 16.461565  0.585075 0.766579 -0.264659  0.712912 0.794916 1 0 1.000000
0  -35.001465 -59.597473 13.240826  0.511429 0.354353 -0.782863  0.711936 0.794916 1 0 1.000000
misc
0  -38.731464 -54.050636 46.948490  0.603830 0.796260 -0.036865  0.712912 0.799799 1 0 1.000000
0  -39.158142 -53.376209 51.160233  0.753335 0.656886 -0.031438  0.713889 0.799799 1 0 1.000000
0  -38.497478 -54.119461 51.187759  0.753373 0.656842 -0.031439  0.712912 0.799799 1 0 1.000000
misc
0  -38.731464 -54.050636 46.948490  0.603830 0.796260 -0.036865  0.712912 0.799799 1 0 1.000000
0  -38.497478 -54.119461 51.187759  0.753373 0.656842 -0.031439  0.712912 0.799799 1 0 1.000000
0  -38.442421 -54.188278 51.201523  0.726024 0.687074 -0.028597  0.712912 0.799799 1 0 1.000000
misc
0  -38.731464 -54.050636 46.948490  0.603830 0.796260 -0.036865  0.712912 0.799799 1 0 1.000000
0  -38.442421 -54.188278 51.201523  0.726024 0.687074 -0.028597  0.712912 0.799799 1 0 1.000000
0  -37.575298 -54.903996 46.976021  0.591076 0.805642 -0.039634  0.712912 0.799799 1 0 1.000000
misc
0  -37.093559 -93.662994 32.799255  0.729549 -0.669507 -0.139711  0.705100 0.797845 1 0 1.000000
0  -38.318542 -94.750336 37.891880  0.590659 -0.806213 -0.033797  0.705100 0.797845 1 0 1.000000
0  -37.946918 -94.543869 32.441395  0.741746 -0.655951 -0.139790  0.705100 0.797845 1 0 1.000000
misc
0  -37.368839 -90.318367 25.297958  0.694125 -0.670932 -0.260846  0.706076 0.795892 1 0 1.000000
0  -36.364079 -85.143173 12.456286  0.492783 -0.819700 -0.291987  0.707053 0.794916 1 0 1.000000
0  -35.290501 -84.744019 13.172006  0.503619 -0.814578 -0.287802  0.707053 0.794916 1 0 1.000000
misc
0  -35.290501 -84.744019 13.172006  0.503619 -0.814578 -0.287802  0.707053 0.794916 1 0 1.000000
0  -36.446663 -89.506310 25.683344  0.696836 -0.670600 -0.254391  0.706076 0.795892 1 0 1.000000
0  -37.368839 -90.318367 25.297958  0.694125 -0.670932 -0.260846  0.706076 0.795892 1 0 1.000000
misc
0  -37.960682 -95.562401 51.008823  0.865513 -0.500619 -0.016357  0.705100 0.799799 1 0 1.000000
0  -38.318542 -94.750336 37.891880  0.590659 -0.806213 -0.033797  0.705100 0.797845 1 0 1.000000
0  -37.478947 -94.598938 47.361408  0.779928 -0.623386 -0.055695  0.705100 0.799799 1 0 1.000000
misc
0  -37.960682 -95.562401 51.008823  0.865513 -0.500619 -0.016357  0.705100 0.799799 1 0 1.000000
0  -37.478947 -94.598938 47.361408  0.779928 -0.623386 -0.055695  0.705100 0.799799 1 0 1.000000
0  -37.561531 -94.832916 51.050117  0.879172 -0.476434 -0.008181  0.705100 0.799799 1 0 1.000000
misc
0  -35.290501 -84.744019 13.172006  0.548483 -0.000643 -0.836161  0.707053 0.794916 1 0 1.000000
0  -36.364079 -85.143173 12.456286  0.550119 -0.000428 -0.835087  0.707053 0.794916 1 0 1.000000
0  -36.198914 -73.787994 12.566398  0.522289 -0.003496 -0.852761  0.709006 0.794916 1 0 1.000000
misc
0  -36.198914 -73.787994 12.566398  0.522289 -0.003496 -0.852761  0.709006 0.794916 1 0 1.000000
0  -35.166626 -73.732941 13.199534  0.522030 -0.003753 -0.852919  0.709006 0.794916 1 0 1.000000
0  -35.290501 -84.744019 13.172006  0.548483 -0.000643 -0.836161  0.707053 0.794916 1 0 1.000000
misc
0  -37.093559 -93.662994 32.799255  0.729549 -0.669507 -0.139711  0.705100 0.797845 1 0 1.000000
0  -37.946918 -94.543869 32.441395  0.741746 -0.655951 -0.139790  0.705100 0.797845 1 0 1.000000
0  -37.368839 -90.318367 25.297958  0.694125 -0.670932 -0.260846  0.706076 0.795892 1 0 1.000000
misc
0  -37.368839 -90.318367 25.297958  0.694125 -0.670932 -0.260846  0.706076 0.795892 1 0 1.000000
0  -36.446663 -89.506310 25.683344  0.696836 -0.670600 -0.254391  0.706076 0.795892 1 0 1.000000
0  -37.093559 -93.662994 32.799255  0.729549 -0.669507 -0.139711  0.705100 0.797845 1 0 1.000000
misc
0  -38.153381 -55.165508 37.630367  0.617955 0.785819 -0.024903  0.712912 0.797845 1 0 1.000000
0  -38.731464 -54.050636 46.948490  0.603830 0.796260 -0.036865  0.712912 0.799799 1 0 1.000000
0  -37.575298 -54.903996 46.976021  0.591076 0.805642 -0.039634  0.712912 0.799799 1 0 1.000000
misc
0  -37.575298 -54.903996 46.976021  0.591076 0.805642 -0.039634  0.712912 0.799799 1 0 1.000000
0  -37.121090 -55.977577 37.534019  0.618082 0.785949 -0.016116  0.712912 0.797845 1 0 1.000000
0  -38.153381 -55.165508 37.630367  0.617955 0.785819 -0.024903  0.712912 0.797845 1 0 1.000000
misc
0  -29.083002 -55.371964 74.311012  0.809866 -0.187748 -0.555759  0.736351 0.643544 1 0 1.000000
0  -31.973408 -58.578941 70.787468  0.857530 -0.307333 -0.412539  0.736351 0.643544 1 0 1.000000
0  -38.442421 -54.188278 51.201523  0.918545 -0.204152 -0.338523  0.736351 0.643544 1 0 1.000000
misc
0  -39.199432 -59.363487 51.738312  0.929094 -0.170616 -0.328138  0.736351 0.643544 1 0 1.000000
0  -38.442421 -54.188278 51.201523  0.918545 -0.204152 -0.338523  0.736351 0.643544 1 0 1.000000
0  -38.745228 -58.386246 52.522850  0.933240 -0.167658 -0.317732  0.736351 0.643544 1 0 1.000000
misc
0  -38.442421 -54.188278 51.201523  0.918545 -0.204152 -0.338523  0.736351 0.643544 1 0 1.000000
0  -31.973408 -58.578941 70.787468  0.857530 -0.307333 -0.412539  0.736351 0.643544 1 0 1.000000
0  -38.346073 -57.973331 53.541374  0.927184 -0.179617 -0.328738  0.736351 0.643544 1 0 1.000000
misc
0  -30.748426 -78.123604 71.847290  0.714875 0.041133 -0.698042  0.736351 0.643544 1 0 1.000000
0  -31.326511 -59.927799 72.108803  0.710078 -0.008537 -0.704071  0.736351 0.643544 1 0 1.000000
0  -29.083002 -55.371964 74.311012  0.809866 -0.187748 -0.555759  0.736351 0.643544 1 0 1.000000
misc
0  -29.083002 -55.371964 74.311012  0.809866 -0.187748 -0.555759  0.736351 0.643544 1 0 1.000000
0  -29.014183 -81.537033 73.430130  0.755895 0.167126 -0.633002  0.736351 0.643544 1 0 1.000000
0  -30.748426 -78.123604 71.847290  0.714875 0.041133 -0.698042  0.736351 0.643544 1 0 1.000000
misc
0  -29.014183 -81.537033 73.430130  0.755895 0.167126 -0.633002  0.736351 0.643544 1 0 1.000000
0  -30.886066 -80.325821 71.379318  0.773582 0.150189 -0.615641  0.736351 0.643544 1 0 1.000000
0  -30.748426 -78.123604 71.847290  0.714875 0.041133 -0.698042  0.736351 0.643544 1 0 1.000000
misc
0  -38.070793 -91.502068 51.586910  0.896337 0.223360 -0.383002  0.736351 0.643544 1 0 1.000000
0  -34.671124 -91.570885 60.395767  0.842089 0.300662 -0.447759  0.736351 0.643544 1 0 1.000000
0  -33.267212 -94.681519 60.973850  0.849456 0.283225 -0.445206  0.736351 0.643544 1 0 1.000000
misc
0  -33.267212 -94.681519 60.973850  0.849456 0.283225 -0.445206  0.736351 0.643544 1 0 1.000000
0  -37.561531 -94.832916 51.050117  0.898186 0.197766 -0.392620  0.736351 0.643544 1 0 1.000000
0  -38.070793 -91.502068 51.586910  0.896337 0.223360 -0.383002  0.736351 0.643544 1 0 1.000000
misc
0  -31.326511 -59.927799 72.108803  0.710078 -0.008537 -0.704071  0.736351 0.643544 1 0 1.000000
0  -31.574261 -59.074440 71.640831  0.816403 -0.145551 -0.558839  0.736351 0.643544 1 0 1.000000
0  -29.083002 -55.371964 74.311012  0.809866 -0.187748 -0.555759  0.736351 0.643544 1 0 1.000000
misc
0  -29.083002 -55.371964 74.311012  0.809866 -0.187748 -0.555759  0.736351 0.643544 1 0 1.000000
0  -31.574261 -59.074440 71.640831  0.816403 -0.145551 -0.558839  0.736351 0.643544 1 0 1.000000
0  -31.973408 -58.578941 70.787468  0.857530 -0.307333 -0.412539  0.736351 0.643544 1 0 1.000000
misc
0  -31.202633 -82.170174 70.278214  0.752014 0.306683 -0.583456  0.736351 0.643544 1 0 1.000000
0  -30.886066 -80.325821 71.379318  0.773582 0.150189 -0.615641  0.736351 0.643544 1 0 1.000000
0  -29.014183 -81.537033 73.430130  0.755895 0.167126 -0.633002  0.736351 0.643544 1 0 1.000000
misc
0  -34.671124 -91.570885 60.395767  0.842089 0.300662 -0.447759  0.736351 0.643544 1 0 1.000000
0  -31.202633 -82.170174 70.278214  0.752014 0.306683 -0.583456  0.736351 0.643544 1 0 1.000000
0  -29.014183 -81.537033 73.430130  0.755895 0.167126 -0.633002  0.736351 0.643544 1 0 1.000000
misc
0  -29.014183 -81.537033 73.430130  0.755895 0.167126 -0.633002  0.736351 0.643544 1 0 1.000000
0  -33.267212 -94.681519 60.973850  0.849456 0.283225 -0.445206  0.736351 0.643544 1 0 1.000000
0  -34.671124 -91.570885 60.395767  0.842089 0.300662 -0.447759  0.736351 0.643544 1 0 1.000000
misc
0  -38.015739 -74.063263 51.132698  0.629048 0.018318 0.777151  0.709006 0.799799 1 0 1.000000
0  -38.676407 -74.104561 51.669491  0.628641 0.018654 0.777472  0.709983 0.799799 1 0 1.000000
0  -38.070793 -91.502068 51.586910  0.771183 0.014436 0.636450  0.706076 0.799799 1 0 1.000000
misc
0  -38.070793 -91.502068 51.586910  0.771183 0.014436 0.636450  0.706076 0.799799 1 0 1.000000
0  -37.561531 -94.832916 51.050117  0.773328 0.014345 0.633845  0.705100 0.799799 1 0 1.000000
0  -38.015739 -74.063263 51.132698  0.629048 0.018318 0.777151  0.709006 0.799799 1 0 1.000000
misc
0  -37.575298 -54.903996 46.976021  0.994013 -0.002616 0.109231  0.988311 0.767571 1 0 1.000000
0  -37.616592 -65.419571 32.152355  0.997059 -0.038080 0.066506  0.958037 0.710929 1 0 1.000000
0  -37.121090 -55.977577 37.534019  0.993746 -0.089901 0.066232  0.987335 0.725578 1 0 1.000000
misc
0  -38.015739 -74.063263 51.132698  0.992618 0.005942 0.121135  0.910184 0.780267 1 0 1.000000
0  -37.561531 -94.832916 51.050117  0.999411 0.021324 0.026890  0.830103 0.781243 1 0 1.000000
0  -37.478947 -94.598938 47.361408  0.999523 0.023065 0.020525  0.830103 0.767571 1 0 1.000000
misc
0  -37.478947 -94.598938 47.361408  0.999523 0.023065 0.020525  0.830103 0.767571 1 0 1.000000
0  -37.534008 -74.021973 47.168713  0.998541 0.000624 0.053995  0.912137 0.767571 1 0 1.000000
0  -38.015739 -74.063263 51.132698  0.992618 0.005942 0.121135  0.910184 0.780267 1 0 1.000000
misc
0  -37.616592 -65.419571 32.152355  0.997059 -0.038080 0.066506  0.959990 0.711905 1 0 1.000000
0  -35.001465 -59.597473 13.240826  0.991036 -0.013392 0.132920  0.978545 0.634754 1 0 1.000000
0  -35.386848 -56.665764 16.461565  0.991950 -0.034035 0.121973  0.987335 0.648427 1 0 1.000000
misc
0  -37.823051 -80.394638 31.945892  0.997826 0.015862 0.063971  0.912137 0.710929 1 0 1.000000
0  -35.290501 -84.744019 13.172006  0.991334 0.012980 0.130721  0.905301 0.634754 1 0 1.000000
0  -35.166626 -73.732941 13.199534  0.990732 -0.013146 0.135192  0.936552 0.634754 1 0 1.000000
misc
0  -35.166626 -73.732941 13.199534  0.990732 -0.013146 0.135192  0.936552 0.634754 1 0 1.000000
0  -37.740467 -73.966919 32.028481  0.998034 -0.014475 0.060981  0.932646 0.711905 1 0 1.000000
0  -37.823051 -80.394638 31.945892  0.997826 0.015862 0.063971  0.912137 0.710929 1 0 1.000000
misc
0  -35.290501 -84.744019 13.172006  0.991334 0.012980 0.130721  0.905301 0.634754 1 0 1.000000
0  -37.823051 -80.394638 31.945892  0.997826 0.015862 0.063971  0.912137 0.710929 1 0 1.000000
0  -36.446663 -89.506310 25.683344  0.990407 0.065119 0.121873  0.891629 0.685537 1 0 1.000000
misc
0  -36.446663 -89.506310 25.683344  0.990407 0.065119 0.121873  0.891629 0.685537 1 0 1.000000
0  -37.823051 -80.394638 31.945892  0.997826 0.015862 0.063971  0.912137 0.710929 1 0 1.000000
0  -37.093559 -93.662994 32.799255  0.996143 0.058635 0.065275  0.868191 0.714835 1 0 1.000000
misc
0  -37.616592 -65.419571 32.152355  0.997059 -0.038080 0.066506  0.959990 0.711905 1 0 1.000000
0  -35.386848 -56.665764 16.461565  0.991950 -0.034035 0.121973  0.987335 0.648427 1 0 1.000000
0  -37.121090 -55.977577 37.534019  0.993746 -0.089901 0.066232  0.989288 0.734367 1 0 1.000000
misc
0  -29.151819 -67.098763 75.274490  0.997588 0.001007 0.069401  0.736351 0.643544 1 0 1.000000
0  -29.014183 -81.537033 73.430130  0.988838 -0.129188 0.074224  0.736351 0.643544 1 0 1.000000
0  -29.083002 -55.371964 74.311012  0.982527 0.010072 0.185846  0.736351 0.643544 1 0 1.000000
misc
0  -37.478947 -94.598938 47.361408  0.999523 0.023065 0.020525  0.830103 0.767571 1 0 1.000000
0  -37.093559 -93.662994 32.799255  0.996143 0.058635 0.065275  0.830103 0.721671 1 0 1.000000
0  -37.823051 -80.394638 31.945892  0.997826 0.015862 0.063971  0.881863 0.711905 1 0 1.000000
misc
0  -37.093559 -93.662994 32.799255  0.729549 -0.669507 -0.139711  0.705100 0.797845 1 0 1.000000
0  -37.478947 -94.598938 47.361408  0.779928 -0.623386 -0.055695  0.705100 0.799799 1 0 1.000000
0  -38.318542 -94.750336 37.891880  0.590659 -0.806213 -0.033797  0.705100 0.797845 1 0 1.000000
misc
0  -37.823051 -80.394638 31.945892  0.997826 0.015862 0.063971  0.881863 0.711905 1 0 1.000000
0  -37.740467 -73.966919 32.028481  0.998034 -0.014475 0.060981  0.915067 0.711905 1 0 1.000000
0  -37.534008 -74.021973 47.168713  0.998541 0.000624 0.053995  0.912137 0.767571 1 0 1.000000
misc
0  -37.534008 -74.021973 47.168713  0.998541 0.000624 0.053995  0.912137 0.767571 1 0 1.000000
0  -37.478947 -94.598938 47.361408  0.999523 0.023065 0.020525  0.830103 0.767571 1 0 1.000000
0  -37.823051 -80.394638 31.945892  0.997826 0.015862 0.063971  0.881863 0.711905 1 0 1.000000
misc
0  -38.442421 -54.188278 51.201523  0.918545 -0.204152 -0.338523  0.736351 0.643544 1 0 1.000000
0  -38.346073 -57.973331 53.541374  0.927184 -0.179617 -0.328738  0.736351 0.643544 1 0 1.000000
0  -38.745228 -58.386246 52.522850  0.933240 -0.167658 -0.317732  0.736351 0.643544 1 0 1.000000
misc
0  -40.589581 -61.689571 45.668453  -0.995881 -0.027751 0.086314  0.446303 0.109348 1 0 1.000000
0  -40.562054 -61.180313 46.177715  -0.995940 -0.029029 0.085213  0.461928 0.123997 1 0 1.000000
0  -40.575817 -60.588467 46.177715  -0.995801 -0.029662 0.086599  0.479507 0.123997 1 0 1.000000
misc
0  -40.575817 -60.588467 46.177715  -0.995801 -0.029662 0.086599  0.479507 0.123997 1 0 1.000000
0  -40.644634 -60.065437 45.654690  -0.996282 -0.030088 0.080722  0.495132 0.109348 1 0 1.000000
0  -40.589581 -61.689571 45.668453  -0.995881 -0.027751 0.086314  0.446303 0.109348 1 0 1.000000
misc
0  -40.589581 -61.689571 45.668453  -0.995881 -0.027751 0.086314  0.446303 0.109348 1 0 1.000000
0  -40.644634 -60.065437 45.654690  -0.996282 -0.030088 0.080722  0.495132 0.109348 1 0 1.000000
0  -40.685928 -60.065437 45.090370  -0.996276 -0.028055 0.081534  0.495132 0.091769 1 0 1.000000
misc
0  -40.685928 -60.065437 45.090370  -0.996276 -0.028055 0.081534  0.495132 0.091769 1 0 1.000000
0  -40.644634 -61.689571 45.076607  -0.995976 -0.026757 0.085538  0.446303 0.090793 1 0 1.000000
0  -40.589581 -61.689571 45.668453  -0.995881 -0.027751 0.086314  0.446303 0.109348 1 0 1.000000
misc
0  -40.644634 -61.689571 45.076607  -0.995976 -0.026757 0.085538  0.446303 0.090793 1 0 1.000000
0  -40.685928 -60.065437 45.090370  -0.996276 -0.028055 0.081534  0.495132 0.091769 1 0 1.000000
0  -40.713455 -60.560940 44.581108  -0.996220 -0.026830 0.082623  0.479507 0.076144 1 0 1.000000
misc
0  -40.713455 -60.560940 44.581108  -0.996220 -0.026830 0.082623  0.479507 0.076144 1 0 1.000000
0  -40.699692 -61.194077 44.581108  -0.996823 -0.030740 0.073479  0.461928 0.076144 1 0 1.000000
0  -40.644634 -61.689571 45.076607  -0.995976 -0.026757 0.085538  0.446303 0.090793 1 0 1.000000
misc
0  -41.663158 -55.096684 37.960697  -0.997010 -0.014204 0.075951  0.353526 0.115207 1 0 1.000000
0  -41.621868 -58.551414 37.919407  -0.996162 -0.012871 0.086583  0.354503 0.082003 1 0 1.000000
0  -41.566814 -58.757877 38.456196  -0.996226 -0.014299 0.085608  0.349620 0.079073 1 0 1.000000
misc
0  -41.566814 -58.757877 38.456196  -0.996226 -0.014299 0.085608  0.349620 0.079073 1 0 1.000000
0  -41.621868 -55.000340 38.566307  -0.996883 -0.017065 0.077024  0.348643 0.117161 1 0 1.000000
0  -41.663158 -55.096684 37.960697  -0.997010 -0.014204 0.075951  0.353526 0.115207 1 0 1.000000
misc
0  -40.809807 -58.757877 47.471516  -0.996416 -0.025451 0.080669  0.271493 0.078097 1 0 1.000000
0  -40.768509 -58.276138 48.214767  -0.996138 -0.027894 0.083255  0.264657 0.082980 1 0 1.000000
0  -40.837334 -55.495842 48.214767  -0.996453 -0.027071 0.079683  0.264657 0.112278 1 0 1.000000
misc
0  -40.837334 -55.495842 48.214767  -0.996453 -0.027071 0.079683  0.264657 0.112278 1 0 1.000000
0  -40.906151 -55.000340 47.595390  -0.996523 -0.026981 0.078833  0.270516 0.118137 1 0 1.000000
0  -40.809807 -58.757877 47.471516  -0.996416 -0.025451 0.080669  0.271493 0.078097 1 0 1.000000
misc
0  -40.809807 -58.757877 47.471516  -0.996416 -0.025451 0.080669  0.271493 0.078097 1 0 1.000000
0  -40.906151 -55.000340 47.595390  -0.996523 -0.026981 0.078833  0.270516 0.118137 1 0 1.000000
0  -41.621868 -55.000340 38.566307  -0.996883 -0.017065 0.077024  0.348643 0.117161 1 0 1.000000
misc
0  -41.621868 -55.000340 38.566307  -0.996883 -0.017065 0.077024  0.348643 0.117161 1 0 1.000000
0  -41.566814 -58.757877 38.456196  -0.996226 -0.014299 0.085608  0.349620 0.079073 1 0 1.000000
0  -40.809807 -58.757877 47.471516  -0.996416 -0.025451 0.080669  0.271493 0.078097 1 0 1.000000
misc
0  -41.690693 -55.798649 37.437672  -0.996394 -0.012484 0.083928  0.358409 0.110324 1 0 1.000000
0  -41.663158 -58.110973 37.437672  -0.997187 -0.014104 0.073611  0.358409 0.084933 1 0 1.000000
0  -41.621868 -58.551414 37.919407  -0.996162 -0.012871 0.086583  0.354503 0.082003 1 0 1.000000
misc
0  -41.621868 -58.551414 37.919407  -0.996162 -0.012871 0.086583  0.354503 0.082003 1 0 1.000000
0  -41.663158 -55.096684 37.960697  -0.997010 -0.014204 0.075951  0.353526 0.115207 1 0 1.000000
0  -41.690693 -55.798649 37.437672  -0.996394 -0.012484 0.083928  0.358409 0.110324 1 0 1.000000
misc
0  -38.896626 -74.132088 51.077644  -0.936927 -0.034395 0.347828  0.479507 0.040986 1 0 1.000000
0  -38.676407 -74.104561 51.669491  -0.937576 -0.034486 0.346068  0.478530 0.007782 1 0 1.000000
0  -39.199432 -59.363487 51.738312  -0.923438 -0.004852 0.383718  0.477554 0.007782 1 0 1.000000
misc
0  -39.199432 -59.363487 51.738312  -0.923438 -0.004852 0.383718  0.477554 0.007782 1 0 1.000000
0  -39.405891 -59.046913 51.201523  -0.927311 0.006467 0.374236  0.477554 0.040986 1 0 1.000000
0  -38.896626 -74.132088 51.077644  -0.936927 -0.034395 0.347828  0.479507 0.040986 1 0 1.000000
misc
0  -39.199432 -59.363487 51.738312  0.539568 0.008779 0.841897  0.712912 0.799799 1 0 1.000000
0  -38.676407 -74.104561 51.669491  0.628641 0.018654 0.777472  0.709983 0.799799 1 0 1.000000
0  -38.015739 -74.063263 51.132698  0.629048 0.018318 0.777151  0.709006 0.799799 1 0 1.000000
misc
0  -38.015739 -74.063263 51.132698  0.629048 0.018318 0.777151  0.709006 0.799799 1 0 1.000000
0  -38.442421 -54.188278 51.201523  0.537376 0.008571 0.843299  0.712912 0.799799 1 0 1.000000
0  -39.199432 -59.363487 51.738312  0.539568 0.008779 0.841897  0.712912 0.799799 1 0 1.000000
misc
0  -38.015739 -74.063263 51.132698  0.992618 0.005942 0.121135  0.910184 0.780267 1 0 1.000000
0  -37.534008 -74.021973 47.168713  0.998541 0.000624 0.053995  0.912137 0.767571 1 0 1.000000
0  -37.575298 -54.903996 46.976021  0.994013 -0.002616 0.109231  0.988311 0.767571 1 0 1.000000
misc
0  -37.575298 -54.903996 46.976021  0.994013 -0.002616 0.109231  0.988311 0.767571 1 0 1.000000
0  -38.442421 -54.188278 51.201523  0.980379 0.020327 0.196074  0.986358 0.779290 1 0 1.000000
0  -38.015739 -74.063263 51.132698  0.992618 0.005942 0.121135  0.910184 0.780267 1 0 1.000000
misc
0  -37.534008 -74.021973 47.168713  0.998541 0.000624 0.053995  0.912137 0.767571 1 0 1.000000
0  -37.740467 -73.966919 32.028481  0.998034 -0.014475 0.060981  0.915067 0.711905 1 0 1.000000
0  -37.616592 -65.419571 32.152355  0.997059 -0.038080 0.066506  0.958037 0.710929 1 0 1.000000
misc
0  -37.616592 -65.419571 32.152355  0.997059 -0.038080 0.066506  0.958037 0.710929 1 0 1.000000
0  -37.575298 -54.903996 46.976021  0.994013 -0.002616 0.109231  0.988311 0.767571 1 0 1.000000
0  -37.534008 -74.021973 47.168713  0.998541 0.000624 0.053995  0.912137 0.767571 1 0 1.000000
misc
0  -37.616592 -65.419571 32.152355  0.997059 -0.038080 0.066506  0.959990 0.711905 1 0 1.000000
0  -37.740467 -73.966919 32.028481  0.998034 -0.014475 0.060981  0.932646 0.711905 1 0 1.000000
0  -35.166626 -73.732941 13.199534  0.990732 -0.013146 0.135192  0.936552 0.634754 1 0 1.000000
misc
0  -35.166626 -73.732941 13.199534  0.990732 -0.013146 0.135192  0.936552 0.634754 1 0 1.000000
0  -35.001465 -59.597473 13.240826  0.991036 -0.013392 0.132920  0.978545 0.634754 1 0 1.000000
0  -37.616592 -65.419571 32.152355  0.997059 -0.038080 0.066506  0.959990 0.711905 1 0 1.000000
misc
0  -35.001465 -59.597473 13.240826  0.511429 0.354353 -0.782863  0.711936 0.794916 1 0 1.000000
0  -35.166626 -73.732941 13.199534  0.522030 -0.003753 -0.852919  0.709006 0.794916 1 0 1.000000
0  -36.198914 -73.787994 12.566398  0.522289 -0.003496 -0.852761  0.709006 0.794916 1 0 1.000000
misc
0  -36.198914 -73.787994 12.566398  0.522289 -0.003496 -0.852761  0.709006 0.794916 1 0 1.000000
0  -35.992462 -59.404778 12.690271  0.500582 0.354287 -0.789873  0.711936 0.794916 1 0 1.000000
0  -35.001465 -59.597473 13.240826  0.511429 0.354353 -0.782863  0.711936 0.794916 1 0 1.000000
skin_0
0  -29.771194 -55.110455 74.902863  -0.849894 -0.018064 0.526645  0.737327 0.646474 1 0 1.000000
0  -31.230164 -54.945286 72.576775  -0.895215 -0.012117 0.445470  0.743187 0.646474 1 0 1.000000
0  -31.106291 -59.473595 72.645592  -0.849925 -0.027699 0.526174  0.743187 0.654286 1 0 1.000000
skin_0
0  -38.896626 -74.132088 51.077644  -0.956334 -0.033672 0.290331  0.799829 0.680654 1 0 1.000000
0  -39.777512 -74.132088 48.187241  -0.981915 -0.035162 0.186027  0.807642 0.680654 1 0 1.000000
0  -39.130608 -94.819153 47.967014  -0.985412 -0.031206 0.167302  0.808618 0.716788 1 0 1.000000
skin_0
0  -39.130608 -94.819153 47.967014  -0.985412 -0.031206 0.167302  0.808618 0.716788 1 0 1.000000
0  -38.277252 -94.819153 51.008823  -0.963411 -0.029450 0.266404  0.799829 0.716788 1 0 1.000000
0  -38.896626 -74.132088 51.077644  -0.956334 -0.033672 0.290331  0.799829 0.680654 1 0 1.000000
skin_0
0  -39.777512 -74.132088 48.187241  -0.981915 -0.035162 0.186027  0.807642 0.680654 1 0 1.000000
0  -38.896626 -74.132088 51.077644  -0.956334 -0.033672 0.290331  0.799829 0.680654 1 0 1.000000
0  -39.405891 -59.046913 51.201523  -0.948735 -0.024690 0.315106  0.799829 0.653310 1 0 1.000000
skin_0
0  -40.548294 -53.912998 17.232342  -0.995508 -0.029128 -0.090086  0.888699 0.644520 1 0 1.000000
0  -41.553047 -74.145851 34.877598  -0.996004 -0.029229 -0.084392  0.842799 0.680654 1 0 1.000000
0  -42.199951 -53.912998 34.877598  -0.995144 -0.031818 -0.093149  0.842799 0.644520 1 0 1.000000
skin_0
0  -40.451942 -53.912998 48.214767  -0.981209 -0.024882 0.191336  0.807642 0.644520 1 0 1.000000
0  -41.291538 -53.912998 37.437672  -0.996494 -0.031205 0.077632  0.835963 0.644520 1 0 1.000000
0  -40.658398 -74.132088 37.437672  -0.996010 -0.037492 0.080989  0.835963 0.680654 1 0 1.000000
skin_0
0  -40.658398 -74.132088 37.437672  -0.996010 -0.037492 0.080989  0.835963 0.680654 1 0 1.000000
0  -39.777512 -74.132088 48.187241  -0.981915 -0.035162 0.186027  0.807642 0.680654 1 0 1.000000
0  -40.451942 -53.912998 48.214767  -0.981209 -0.024882 0.191336  0.807642 0.644520 1 0 1.000000
skin_0
0  -29.633553 -67.098763 74.916626  -0.889401 -0.016637 0.456826  0.737327 0.667959 1 0 1.000000
0  -30.789719 -67.098763 72.673119  -0.884192 -0.018958 0.466739  0.743187 0.667959 1 0 1.000000
0  -30.569498 -78.164894 72.521713  -0.912329 -0.032621 0.408157  0.743187 0.687490 1 0 1.000000
skin_0
0  -30.569498 -78.164894 72.521713  -0.912329 -0.032621 0.408157  0.743187 0.687490 1 0 1.000000
0  -29.537207 -78.605339 74.737694  -0.909795 -0.025059 0.414300  0.737327 0.688467 1 0 1.000000
0  -29.633553 -67.098763 74.916626  -0.889401 -0.016637 0.456826  0.737327 0.667959 1 0 1.000000
skin_0
0  -31.354038 -58.620232 72.108803  -0.924451 -0.019194 0.380818  0.745140 0.653310 1 0 1.000000
0  -31.106291 -59.473595 72.645592  -0.849925 -0.027699 0.526174  0.743187 0.654286 1 0 1.000000
0  -31.230164 -54.945286 72.576775  -0.895215 -0.012117 0.445470  0.743187 0.646474 1 0 1.000000
skin_0
0  -40.451942 -53.912998 48.214767  -0.981209 -0.024882 0.191336  0.807642 0.644520 1 0 1.000000
0  -39.405891 -59.046913 51.201523  -0.948735 -0.024690 0.315106  0.799829 0.653310 1 0 1.000000
0  -39.474712 -53.912998 51.160233  -0.939273 -0.019286 0.342628  0.799829 0.644520 1 0 1.000000
skin_0
0  -40.740982 -94.392471 31.822021  -0.998471 -0.033401 -0.044042  0.850612 0.715812 1 0 1.000000
0  -40.740978 -94.475052 34.877598  -0.999203 -0.039914 -0.001078  0.842799 0.715812 1 0 1.000000
0  -41.553047 -74.145851 34.877598  -0.996004 -0.029229 -0.084392  0.842799 0.680654 1 0 1.000000
skin_0
0  -39.777512 -74.132088 48.187241  -0.981915 -0.035162 0.186027  0.807642 0.680654 1 0 1.000000
0  -40.658398 -74.132088 37.437672  -0.996010 -0.037492 0.080989  0.835963 0.680654 1 0 1.000000
0  -39.791271 -94.530106 37.437672  -0.997086 -0.035040 0.067767  0.835963 0.715812 1 0 1.000000
skin_0
0  -39.791271 -94.530106 37.437672  -0.997086 -0.035040 0.067767  0.835963 0.715812 1 0 1.000000
0  -39.130608 -94.819153 47.967014  -0.985412 -0.031206 0.167302  0.808618 0.716788 1 0 1.000000
0  -39.777512 -74.132088 48.187241  -0.981915 -0.035162 0.186027  0.807642 0.680654 1 0 1.000000
skin_0
0  -41.553047 -74.145851 34.877598  -0.943886 -0.033415 0.328577  0.842799 0.680654 1 0 1.000000
0  -40.658398 -74.132088 37.437672  -0.943823 -0.033506 0.328747  0.835963 0.680654 1 0 1.000000
0  -41.291538 -53.912998 37.437672  -0.941682 -0.030121 0.335154  0.835963 0.644520 1 0 1.000000
skin_0
0  -41.291538 -53.912998 37.437672  -0.941682 -0.030121 0.335154  0.835963 0.644520 1 0 1.000000
0  -42.199951 -53.912998 34.877598  -0.941436 -0.030215 0.335835  0.842799 0.644520 1 0 1.000000
0  -41.553047 -74.145851 34.877598  -0.943886 -0.033415 0.328577  0.842799 0.680654 1 0 1.000000
skin_0
0  -40.740978 -94.475052 34.877598  -0.938272 -0.039527 0.343633  0.842799 0.715812 1 0 1.000000
0  -39.791271 -94.530106 37.437672  -0.937785 -0.039704 0.344940  0.835963 0.715812 1 0 1.000000
0  -40.658398 -74.132088 37.437672  -0.943823 -0.033506 0.328747  0.835963 0.680654 1 0 1.000000
skin_0
0  -40.658398 -74.132088 37.437672  -0.943823 -0.033506 0.328747  0.835963 0.680654 1 0 1.000000
0  -41.553047 -74.145851 34.877598  -0.943886 -0.033415 0.328577  0.842799 0.680654 1 0 1.000000
0  -40.740978 -94.475052 34.877598  -0.938272 -0.039527 0.343633  0.842799 0.715812 1 0 1.000000
skin_0
0  -39.474712 -73.953156 16.131233  -0.974751 -0.023072 0.222100  0.891629 0.679678 1 0 1.000000
0  -39.983974 -53.912998 16.131233  -0.980833 -0.024634 0.193289  0.891629 0.644520 1 0 1.000000
0  -40.176670 -53.912998 15.140237  -0.980666 -0.024581 0.194140  0.894559 0.644520 1 0 1.000000
skin_0
0  -40.176670 -53.912998 15.140237  -0.980666 -0.024581 0.194140  0.894559 0.644520 1 0 1.000000
0  -39.694931 -73.966919 15.140237  -0.974745 -0.023011 0.222132  0.894559 0.679678 1 0 1.000000
0  -39.474712 -73.953156 16.131233  -0.974751 -0.023072 0.222100  0.891629 0.679678 1 0 1.000000
skin_0
0  -40.025265 -73.994446 17.232342  -0.895164 -0.022526 -0.445168  0.888699 0.679678 1 0 1.000000
0  -40.548294 -53.912998 17.232342  -0.889037 -0.023173 -0.457249  0.888699 0.644520 1 0 1.000000
0  -39.983974 -53.912998 16.131233  -0.889354 -0.023138 -0.456635  0.891629 0.644520 1 0 1.000000
skin_0
0  -39.983974 -53.912998 16.131233  -0.889354 -0.023138 -0.456635  0.891629 0.644520 1 0 1.000000
0  -39.474712 -73.953156 16.131233  -0.895233 -0.022492 -0.445029  0.891629 0.679678 1 0 1.000000
0  -40.025265 -73.994446 17.232342  -0.895164 -0.022526 -0.445168  0.888699 0.679678 1 0 1.000000
skin_0
0  -39.694931 -73.966919 15.140237  -0.982951 -0.019000 -0.182886  0.894559 0.679678 1 0 1.000000
0  -40.176670 -53.912998 15.140237  -0.977155 -0.023473 -0.211228  0.894559 0.644520 1 0 1.000000
0  -39.460949 -53.981815 11.836913  -0.977853 -0.022937 -0.208032  0.903348 0.644520 1 0 1.000000
skin_0
0  -39.460949 -53.981815 11.836913  -0.977853 -0.022937 -0.208032  0.903348 0.644520 1 0 1.000000
0  -39.089321 -73.925629 11.836913  -0.982954 -0.018285 -0.182940  0.903348 0.679678 1 0 1.000000
0  -39.694931 -73.966919 15.140237  -0.982951 -0.019000 -0.182886  0.894559 0.679678 1 0 1.000000
skin_0
0  -29.826250 -82.569328 73.567772  -0.924249 -0.072358 0.374871  0.741234 0.695303 1 0 1.000000
0  -29.647316 -80.793793 74.324783  -0.920213 -0.057298 0.387202  0.739280 0.692373 1 0 1.000000
0  -30.652079 -80.573570 71.902351  -0.924249 -0.067264 0.375819  0.745140 0.691397 1 0 1.000000
skin_0
0  -29.771194 -55.110455 74.902863  -0.705823 0.208627 0.676971  0.737327 0.646474 1 0 1.000000
0  -29.289459 -54.614956 75.260727  -0.703897 0.197800 0.682206  0.736351 0.645497 1 0 1.000000
0  -30.913595 -54.436024 72.576775  -0.767926 0.479285 0.424942  0.743187 0.645497 1 0 1.000000
skin_0
0  -30.913595 -54.436024 72.576775  -0.767926 0.479285 0.424942  0.743187 0.645497 1 0 1.000000
0  -31.230164 -54.945286 72.576775  -0.772984 0.488496 0.404807  0.743187 0.646474 1 0 1.000000
0  -29.771194 -55.110455 74.902863  -0.705823 0.208627 0.676971  0.737327 0.646474 1 0 1.000000
skin_0
0  -29.151819 -67.098763 75.274490  -0.589277 -0.011933 0.807843  0.736351 0.667959 1 0 1.000000
0  -29.289459 -54.614956 75.260727  -0.703897 0.197800 0.682206  0.736351 0.645497 1 0 1.000000
0  -29.771194 -55.110455 74.902863  -0.705823 0.208627 0.676971  0.737327 0.646474 1 0 1.000000
skin_0
0  -29.771194 -55.110455 74.902863  -0.705823 0.208627 0.676971  0.737327 0.646474 1 0 1.000000
0  -29.633553 -67.098763 74.916626  -0.589621 -0.011841 0.807593  0.737327 0.667959 1 0 1.000000
0  -29.151819 -67.098763 75.274490  -0.589277 -0.011933 0.807843  0.736351 0.667959 1 0 1.000000
skin_0
0  -38.800278 -95.562401 47.967014  -0.906433 -0.393860 0.152492  0.808618 0.717765 1 0 1.000000
0  -37.960682 -95.562401 51.008823  -0.873845 -0.387193 0.294070  0.799829 0.717765 1 0 1.000000
0  -38.277252 -94.819153 51.008823  -0.878467 -0.381801 0.287269  0.799829 0.716788 1 0 1.000000
skin_0
0  -38.277252 -94.819153 51.008823  -0.878467 -0.381801 0.287269  0.799829 0.716788 1 0 1.000000
0  -39.130608 -94.819153 47.967014  -0.907749 -0.394534 0.142602  0.808618 0.716788 1 0 1.000000
0  -38.800278 -95.562401 47.967014  -0.906433 -0.393860 0.152492  0.808618 0.717765 1 0 1.000000
skin_0
0  -42.199951 -53.912998 34.877598  -0.857172 0.505143 0.100431  0.842799 0.644520 1 0 1.000000
0  -41.869617 -53.376209 34.877598  -0.855747 0.504311 0.115620  0.842799 0.643544 1 0 1.000000
0  -40.217960 -53.376209 17.232342  -0.858764 0.506007 -0.080505  0.888699 0.643544 1 0 1.000000
skin_0
0  -40.217960 -53.376209 17.232342  -0.858764 0.506007 -0.080505  0.888699 0.643544 1 0 1.000000
0  -40.548294 -53.912998 17.232342  -0.858764 0.506008 -0.080504  0.888699 0.644520 1 0 1.000000
0  -42.199951 -53.912998 34.877598  -0.857172 0.505143 0.100431  0.842799 0.644520 1 0 1.000000
skin_0
0  -40.121609 -53.376209 48.214767  -0.847871 0.499633 0.177431  0.807642 0.643544 1 0 1.000000
0  -40.961205 -53.376209 37.437672  -0.848471 0.500018 0.173433  0.835963 0.643544 1 0 1.000000
0  -41.291538 -53.912998 37.437672  -0.846048 0.498566 0.188772  0.835963 0.644520 1 0 1.000000
skin_0
0  -41.291538 -53.912998 37.437672  -0.846048 0.498566 0.188772  0.835963 0.644520 1 0 1.000000
0  -40.451942 -53.912998 48.214767  -0.849856 0.500777 0.164217  0.807642 0.644520 1 0 1.000000
0  -40.121609 -53.376209 48.214767  -0.847871 0.499633 0.177431  0.807642 0.643544 1 0 1.000000
skin_0
0  -29.537207 -78.605339 74.737694  -0.577861 -0.069456 0.813174  0.737327 0.688467 1 0 1.000000
0  -29.041710 -78.687920 75.081795  -0.583376 -0.070774 0.809113  0.737327 0.688467 1 0 1.000000
0  -29.151819 -67.098763 75.274490  -0.589277 -0.011933 0.807843  0.736351 0.667959 1 0 1.000000
skin_0
0  -29.151819 -67.098763 75.274490  -0.589277 -0.011933 0.807843  0.736351 0.667959 1 0 1.000000
0  -29.633553 -67.098763 74.916626  -0.589621 -0.011841 0.807593  0.737327 0.667959 1 0 1.000000
0  -29.537207 -78.605339 74.737694  -0.577861 -0.069456 0.813174  0.737327 0.688467 1 0 1.000000
skin_0
0  -31.230164 -54.945286 72.576775  -0.772984 0.488496 0.404807  0.743187 0.646474 1 0 1.000000
0  -30.913595 -54.436024 72.576775  -0.767926 0.479285 0.424942  0.743187 0.645497 1 0 1.000000
0  -39.158142 -53.376209 51.160233  -0.819796 0.483684 0.306569  0.799829 0.643544 1 0 1.000000
skin_0
0  -39.158142 -53.376209 51.160233  -0.819796 0.483684 0.306569  0.799829 0.643544 1 0 1.000000
0  -39.474712 -53.912998 51.160233  -0.821373 0.484195 0.301500  0.799829 0.644520 1 0 1.000000
0  -31.230164 -54.945286 72.576775  -0.772984 0.488496 0.404807  0.743187 0.646474 1 0 1.000000
skin_0
0  -39.474712 -53.912998 51.160233  -0.821373 0.484195 0.301500  0.799829 0.644520 1 0 1.000000
0  -39.158142 -53.376209 51.160233  -0.819796 0.483684 0.306569  0.799829 0.643544 1 0 1.000000
0  -40.121609 -53.376209 48.214767  -0.847871 0.499633 0.177431  0.807642 0.643544 1 0 1.000000
skin_0
0  -40.121609 -53.376209 48.214767  -0.847871 0.499633 0.177431  0.807642 0.643544 1 0 1.000000
0  -40.451942 -53.912998 48.214767  -0.849856 0.500777 0.164217  0.807642 0.644520 1 0 1.000000
0  -39.474712 -53.912998 51.160233  -0.821373 0.484195 0.301500  0.799829 0.644520 1 0 1.000000
skin_0
0  -39.350834 -88.157448 17.232342  -0.890692 -0.406887 -0.202759  0.888699 0.705069 1 0 1.000000
0  -39.887623 -91.006561 25.270430  -0.877494 -0.395220 -0.271672  0.868191 0.709952 1 0 1.000000
0  -40.204193 -90.290840 25.270430  -0.884144 -0.398240 -0.244324  0.868191 0.708975 1 0 1.000000
skin_0
0  -40.204193 -90.290840 25.270430  -0.884144 -0.398240 -0.244324  0.868191 0.708975 1 0 1.000000
0  -39.667404 -87.455490 17.232342  -0.890577 -0.407107 -0.202822  0.888699 0.704093 1 0 1.000000
0  -39.350834 -88.157448 17.232342  -0.890692 -0.406887 -0.202759  0.888699 0.705069 1 0 1.000000
skin_0
0  -40.424412 -95.121956 31.822021  -0.905646 -0.402032 -0.134817  0.850612 0.716788 1 0 1.000000
0  -40.410648 -95.190773 34.877598  -0.902612 -0.399047 0.161409  0.842799 0.716788 1 0 1.000000
0  -40.740978 -94.475052 34.877598  -0.905262 -0.400443 0.141937  0.842799 0.715812 1 0 1.000000
skin_0
0  -40.740978 -94.475052 34.877598  -0.905262 -0.400443 0.141937  0.842799 0.715812 1 0 1.000000
0  -40.740982 -94.392471 31.822021  -0.898383 -0.398798 -0.184033  0.850612 0.715812 1 0 1.000000
0  -40.424412 -95.121956 31.822021  -0.905646 -0.402032 -0.134817  0.850612 0.716788 1 0 1.000000
skin_0
0  -39.474709 -95.273369 37.437672  -0.901668 -0.397203 0.170953  0.835963 0.717765 1 0 1.000000
0  -38.800278 -95.562401 47.967014  -0.906433 -0.393860 0.152492  0.808618 0.717765 1 0 1.000000
0  -39.130608 -94.819153 47.967014  -0.907749 -0.394534 0.142602  0.808618 0.716788 1 0 1.000000
skin_0
0  -39.130608 -94.819153 47.967014  -0.907749 -0.394534 0.142602  0.808618 0.716788 1 0 1.000000
0  -39.791271 -94.530106 37.437672  -0.898522 -0.396061 0.189191  0.835963 0.715812 1 0 1.000000
0  -39.474709 -95.273369 37.437672  -0.901668 -0.397203 0.170953  0.835963 0.717765 1 0 1.000000
skin_0
0  -29.041710 -78.687920 75.081795  -0.583376 -0.070774 0.809113  0.737327 0.688467 1 0 1.000000
0  -29.537207 -78.605339 74.737694  -0.577861 -0.069456 0.813174  0.737327 0.688467 1 0 1.000000
0  -29.647316 -80.793793 74.324783  -0.645469 -0.163628 0.746053  0.739280 0.692373 1 0 1.000000
skin_0
0  -29.647316 -80.793793 74.324783  -0.645469 -0.163628 0.746053  0.739280 0.692373 1 0 1.000000
0  -29.151819 -81.014015 74.710167  -0.651112 -0.171734 0.739297  0.738304 0.692373 1 0 1.000000
0  -29.041710 -78.687920 75.081795  -0.583376 -0.070774 0.809113  0.737327 0.688467 1 0 1.000000
skin_0
0  -41.291538 -53.912998 37.437672  -0.846048 0.498566 0.188772  0.835963 0.644520 1 0 1.000000
0  -40.961205 -53.376209 37.437672  -0.848471 0.500018 0.173433  0.835963 0.643544 1 0 1.000000
0  -41.869617 -53.376209 34.877598  -0.855747 0.504311 0.115620  0.842799 0.643544 1 0 1.000000
skin_0
0  -41.869617 -53.376209 34.877598  -0.855747 0.504311 0.115620  0.842799 0.643544 1 0 1.000000
0  -42.199951 -53.912998 34.877598  -0.857172 0.505143 0.100431  0.842799 0.644520 1 0 1.000000
0  -41.291538 -53.912998 37.437672  -0.846048 0.498566 0.188772  0.835963 0.644520 1 0 1.000000
skin_0
0  -40.410648 -95.190773 34.877598  -0.902612 -0.399047 0.161409  0.842799 0.716788 1 0 1.000000
0  -39.474709 -95.273369 37.437672  -0.901668 -0.397203 0.170953  0.835963 0.717765 1 0 1.000000
0  -39.791271 -94.530106 37.437672  -0.898522 -0.396061 0.189191  0.835963 0.715812 1 0 1.000000
skin_0
0  -39.791271 -94.530106 37.437672  -0.898522 -0.396061 0.189191  0.835963 0.715812 1 0 1.000000
0  -40.740978 -94.475052 34.877598  -0.905262 -0.400443 0.141937  0.842799 0.715812 1 0 1.000000
0  -40.410648 -95.190773 34.877598  -0.902612 -0.399047 0.161409  0.842799 0.716788 1 0 1.000000
skin_0
0  -39.983974 -53.912998 16.131233  -0.849380 0.500526 0.167411  0.891629 0.644520 1 0 1.000000
0  -39.653645 -53.376209 16.131233  -0.849384 0.500520 0.167410  0.891629 0.643544 1 0 1.000000
0  -39.846336 -53.376209 15.140237  -0.849378 0.500531 0.167408  0.894559 0.643544 1 0 1.000000
skin_0
0  -39.846336 -53.376209 15.140237  -0.849378 0.500531 0.167408  0.894559 0.643544 1 0 1.000000
0  -40.176670 -53.912998 15.140237  -0.849373 0.500538 0.167414  0.894559 0.644520 1 0 1.000000
0  -39.983974 -53.912998 16.131233  -0.849380 0.500526 0.167411  0.891629 0.644520 1 0 1.000000
skin_0
0  -40.217960 -53.376209 17.232342  -0.787663 0.464157 -0.405149  0.888699 0.643544 1 0 1.000000
0  -39.653645 -53.376209 16.131233  -0.787664 0.464152 -0.405153  0.891629 0.643544 1 0 1.000000
0  -39.983974 -53.912998 16.131233  -0.787664 0.464154 -0.405150  0.891629 0.644520 1 0 1.000000
skin_0
0  -39.983974 -53.912998 16.131233  -0.787664 0.464154 -0.405150  0.891629 0.644520 1 0 1.000000
0  -40.548294 -53.912998 17.232342  -0.787659 0.464159 -0.405153  0.888699 0.644520 1 0 1.000000
0  -40.217960 -53.376209 17.232342  -0.787663 0.464157 -0.405149  0.888699 0.643544 1 0 1.000000
skin_0
0  -39.075558 -87.593140 15.140237  -0.900043 -0.421148 0.112053  0.894559 0.704093 1 0 1.000000
0  -38.814045 -87.882172 16.131233  -0.901668 -0.418066 0.110520  0.891629 0.704093 1 0 1.000000
0  -39.144379 -87.180214 16.131233  -0.900715 -0.419891 0.111376  0.891629 0.703116 1 0 1.000000
skin_0
0  -39.144379 -87.180214 16.131233  -0.900715 -0.419891 0.111376  0.891629 0.703116 1 0 1.000000
0  -39.392128 -86.918709 15.140237  -0.899268 -0.422540 0.113032  0.894559 0.703116 1 0 1.000000
0  -39.075558 -87.593140 15.140237  -0.900043 -0.421148 0.112053  0.894559 0.704093 1 0 1.000000
skin_0
0  -38.814045 -87.882172 16.131233  -0.799167 -0.368705 -0.474752  0.891629 0.704093 1 0 1.000000
0  -39.350834 -88.157448 17.232342  -0.799656 -0.365603 -0.476325  0.888699 0.705069 1 0 1.000000
0  -39.667404 -87.455490 17.232342  -0.799391 -0.367233 -0.475514  0.888699 0.704093 1 0 1.000000
skin_0
0  -39.667404 -87.455490 17.232342  -0.799391 -0.367233 -0.475514  0.888699 0.704093 1 0 1.000000
0  -39.144379 -87.180214 16.131233  -0.798893 -0.370421 -0.473875  0.891629 0.703116 1 0 1.000000
0  -38.814045 -87.882172 16.131233  -0.799167 -0.368705 -0.474752  0.891629 0.704093 1 0 1.000000
skin_0
0  -39.460949 -53.981815 11.836913  -0.802148 -0.014408 -0.596951  0.903348 0.644520 1 0 1.000000
0  -38.992977 -53.431263 11.190012  -0.801923 -0.014403 -0.597254  0.905301 0.643544 1 0 1.000000
0  -38.621353 -73.925629 11.190012  -0.810086 -0.015411 -0.586109  0.905301 0.679678 1 0 1.000000
skin_0
0  -38.621353 -73.925629 11.190012  -0.810086 -0.015411 -0.586109  0.905301 0.679678 1 0 1.000000
0  -39.089321 -73.925629 11.836913  -0.810130 -0.015416 -0.586047  0.903348 0.679678 1 0 1.000000
0  -39.460949 -53.981815 11.836913  -0.802148 -0.014408 -0.596951  0.903348 0.644520 1 0 1.000000
skin_0
0  -39.846336 -53.376209 15.140237  -0.845440 0.498216 -0.192383  0.894559 0.643544 1 0 1.000000
0  -38.992977 -53.431263 11.190012  -0.845398 0.498281 -0.192402  0.905301 0.643544 1 0 1.000000
0  -39.460949 -53.981815 11.836913  -0.845425 0.498279 -0.192286  0.903348 0.644520 1 0 1.000000
skin_0
0  -39.460949 -53.981815 11.836913  -0.845425 0.498279 -0.192286  0.903348 0.644520 1 0 1.000000
0  -40.176670 -53.912998 15.140237  -0.845459 0.498186 -0.192379  0.894559 0.644520 1 0 1.000000
0  -39.846336 -53.376209 15.140237  -0.845440 0.498216 -0.192383  0.894559 0.643544 1 0 1.000000
skin_0
0  -38.855335 -85.968994 11.836913  -0.884993 -0.392619 -0.250275  0.903348 0.701163 1 0 1.000000
0  -38.387367 -86.615898 11.203775  -0.886212 -0.390505 -0.249266  0.905301 0.702139 1 0 1.000000
0  -39.075558 -87.593140 15.140237  -0.876196 -0.407662 -0.257083  0.894559 0.704093 1 0 1.000000
skin_0
0  -39.075558 -87.593140 15.140237  -0.876196 -0.407662 -0.257083  0.894559 0.704093 1 0 1.000000
0  -39.392128 -86.918709 15.140237  -0.874132 -0.411045 -0.258719  0.894559 0.703116 1 0 1.000000
0  -38.855335 -85.968994 11.836913  -0.884993 -0.392619 -0.250275  0.903348 0.701163 1 0 1.000000
skin_0
0  -29.826250 -82.569328 73.567772  -0.660958 -0.302940 0.686558  0.741234 0.695303 1 0 1.000000
0  -29.330748 -82.913422 73.898102  -0.671587 -0.309984 0.672964  0.740257 0.695303 1 0 1.000000
0  -29.151819 -81.014015 74.710167  -0.651112 -0.171734 0.739297  0.738304 0.692373 1 0 1.000000
skin_0
0  -29.151819 -81.014015 74.710167  -0.651112 -0.171734 0.739297  0.738304 0.692373 1 0 1.000000
0  -29.647316 -80.793793 74.324783  -0.645469 -0.163628 0.746053  0.739280 0.692373 1 0 1.000000
0  -29.826250 -82.569328 73.567772  -0.660958 -0.302940 0.686558  0.741234 0.695303 1 0 1.000000
skin_0
0  -32.978172 -93.497833 63.355000  -0.791328 -0.281774 0.542589  0.767602 0.713858 1 0 1.000000
0  -29.550970 -84.454979 72.769463  -0.606673 -0.413294 0.679070  0.743187 0.698233 1 0 1.000000
0  -30.170343 -84.248520 72.356552  -0.598931 -0.428271 0.676657  0.744163 0.698233 1 0 1.000000
skin_0
0  -30.170343 -84.248520 72.356552  -0.598931 -0.428271 0.676657  0.744163 0.698233 1 0 1.000000
0  -33.363560 -93.153725 62.955849  -0.792940 -0.279353 0.541487  0.768578 0.713858 1 0 1.000000
0  -32.978172 -93.497833 63.355000  -0.791328 -0.281774 0.542589  0.767602 0.713858 1 0 1.000000
skin_0
0  -35.620831 -94.819153 57.890751  -0.789064 -0.517739 0.330642  0.782250 0.716788 1 0 1.000000
0  -38.277252 -94.819153 51.008823  -0.878467 -0.381801 0.287269  0.799829 0.716788 1 0 1.000000
0  -37.960682 -95.562401 51.008823  -0.873845 -0.387193 0.294070  0.799829 0.717765 1 0 1.000000
skin_0
0  -35.620831 -94.819153 57.890751  -0.789064 -0.517739 0.330642  0.782250 0.716788 1 0 1.000000
0  -37.960682 -95.562401 51.008823  -0.873845 -0.387193 0.294070  0.799829 0.717765 1 0 1.000000
0  -33.735180 -95.534874 61.249130  -0.837692 -0.289023 0.463399  0.773461 0.717765 1 0 1.000000
skin_0
0  -35.620831 -94.819153 57.890751  -0.789064 -0.517739 0.330642  0.782250 0.716788 1 0 1.000000
0  -33.735180 -95.534874 61.249130  -0.837692 -0.289023 0.463399  0.773461 0.717765 1 0 1.000000
0  -33.969166 -94.791626 61.249130  -0.831825 -0.262058 0.489278  0.773461 0.716788 1 0 1.000000
skin_0
0  -29.537207 -78.605339 74.737694  -0.909795 -0.025059 0.414300  0.737327 0.688467 1 0 1.000000
0  -30.569498 -78.164894 72.521713  -0.912329 -0.032621 0.408157  0.743187 0.687490 1 0 1.000000
0  -29.647316 -80.793793 74.324783  -0.920213 -0.057298 0.387202  0.739280 0.692373 1 0 1.000000
skin_0
0  -31.230164 -54.945286 72.576775  -0.895215 -0.012117 0.445470  0.743187 0.646474 1 0 1.000000
0  -39.474712 -53.912998 51.160233  -0.939273 -0.019286 0.342628  0.799829 0.644520 1 0 1.000000
0  -38.525005 -57.367725 53.307384  -0.933499 -0.032311 0.357120  0.793970 0.650380 1 0 1.000000
skin_0
0  -38.525005 -57.367725 53.307384  -0.933499 -0.032311 0.357120  0.793970 0.650380 1 0 1.000000
0  -31.780718 -58.000858 71.117805  -0.929296 -0.009964 0.369202  0.747093 0.652333 1 0 1.000000
0  -31.230164 -54.945286 72.576775  -0.895215 -0.012117 0.445470  0.743187 0.646474 1 0 1.000000
skin_0
0  -31.780718 -58.000858 71.117805  -0.929296 -0.009964 0.369202  0.747093 0.652333 1 0 1.000000
0  -31.354038 -58.620232 72.108803  -0.924451 -0.019194 0.380818  0.745140 0.653310 1 0 1.000000
0  -31.230164 -54.945286 72.576775  -0.895215 -0.012117 0.445470  0.743187 0.646474 1 0 1.000000
skin_0
0  -39.474712 -53.912998 51.160233  -0.939273 -0.019286 0.342628  0.799829 0.644520 1 0 1.000000
0  -38.951683 -57.808170 52.164989  -0.913936 -0.018737 0.405425  0.796899 0.651357 1 0 1.000000
0  -38.525005 -57.367725 53.307384  -0.933499 -0.032311 0.357120  0.793970 0.650380 1 0 1.000000
skin_0
0  -39.474712 -53.912998 51.160233  -0.939273 -0.019286 0.342628  0.799829 0.644520 1 0 1.000000
0  -39.405891 -59.046913 51.201523  -0.948735 -0.024690 0.315106  0.799829 0.653310 1 0 1.000000
0  -38.951683 -57.808170 52.164989  -0.913936 -0.018737 0.405425  0.796899 0.651357 1 0 1.000000
skin_0
0  -30.789719 -67.098763 72.673119  -0.884192 -0.018958 0.466739  0.743187 0.667959 1 0 1.000000
0  -29.633553 -67.098763 74.916626  -0.889401 -0.016637 0.456826  0.737327 0.667959 1 0 1.000000
0  -29.771194 -55.110455 74.902863  -0.849894 -0.018064 0.526645  0.737327 0.646474 1 0 1.000000
skin_0
0  -29.771194 -55.110455 74.902863  -0.849894 -0.018064 0.526645  0.737327 0.646474 1 0 1.000000
0  -31.106291 -59.473595 72.645592  -0.849925 -0.027699 0.526174  0.743187 0.654286 1 0 1.000000
0  -30.789719 -67.098763 72.673119  -0.884192 -0.018958 0.466739  0.743187 0.667959 1 0 1.000000
skin_0
0  -33.969166 -94.791626 61.249130  -0.831825 -0.262058 0.489278  0.773461 0.716788 1 0 1.000000
0  -33.735180 -95.534874 61.249130  -0.837692 -0.289023 0.463399  0.773461 0.717765 1 0 1.000000
0  -32.978172 -93.497833 63.355000  -0.791328 -0.281774 0.542589  0.767602 0.713858 1 0 1.000000
skin_0
0  -32.978172 -93.497833 63.355000  -0.791328 -0.281774 0.542589  0.767602 0.713858 1 0 1.000000
0  -33.363560 -93.153725 62.955849  -0.792940 -0.279353 0.541487  0.768578 0.713858 1 0 1.000000
0  -33.969166 -94.791626 61.249130  -0.831825 -0.262058 0.489278  0.773461 0.716788 1 0 1.000000
skin_0
0  -33.969166 -94.791626 61.249130  -0.889098 -0.130877 0.438607  0.773461 0.716788 1 0 1.000000
0  -33.363560 -93.153725 62.955849  -0.890653 -0.122835 0.437778  0.768578 0.713858 1 0 1.000000
0  -34.547249 -91.901215 60.932560  -0.888731 -0.128075 0.440175  0.774438 0.711905 1 0 1.000000
skin_0
0  -34.547249 -91.901215 60.932560  -0.888731 -0.128075 0.440175  0.774438 0.711905 1 0 1.000000
0  -35.620831 -94.819153 57.890751  -0.889105 -0.131118 0.438520  0.782250 0.716788 1 0 1.000000
0  -33.969166 -94.791626 61.249130  -0.889098 -0.130877 0.438607  0.773461 0.716788 1 0 1.000000
skin_0
0  -29.826250 -82.569328 73.567772  -0.660958 -0.302940 0.686558  0.741234 0.695303 1 0 1.000000
0  -30.170343 -84.248520 72.356552  -0.598899 -0.428277 0.676682  0.744163 0.698233 1 0 1.000000
0  -29.550970 -84.454979 72.769463  -0.606669 -0.413306 0.679066  0.743187 0.698233 1 0 1.000000
skin_0
0  -29.550970 -84.454979 72.769463  -0.606669 -0.413306 0.679066  0.743187 0.698233 1 0 1.000000
0  -29.330748 -82.913422 73.898102  -0.671587 -0.309984 0.672964  0.740257 0.695303 1 0 1.000000
0  -29.826250 -82.569328 73.567772  -0.660958 -0.302940 0.686558  0.741234 0.695303 1 0 1.000000
skin_0
0  -33.363560 -93.153725 62.955849  -0.890653 -0.122835 0.437778  0.768578 0.713858 1 0 1.000000
0  -30.170343 -84.248520 72.356552  -0.922836 -0.075476 0.377725  0.744163 0.698233 1 0 1.000000
0  -30.982410 -82.514275 70.691124  -0.921382 -0.075656 0.381223  0.748070 0.695303 1 0 1.000000
skin_0
0  -30.982410 -82.514275 70.691124  -0.921382 -0.075656 0.381223  0.748070 0.695303 1 0 1.000000
0  -34.547249 -91.901215 60.932560  -0.888731 -0.128075 0.440175  0.774438 0.711905 1 0 1.000000
0  -33.363560 -93.153725 62.955849  -0.890653 -0.122835 0.437778  0.768578 0.713858 1 0 1.000000
skin_0
0  -30.170343 -84.248520 72.356552  -0.922836 -0.075476 0.377725  0.744163 0.698233 1 0 1.000000
0  -29.826250 -82.569328 73.567772  -0.924249 -0.072358 0.374871  0.741234 0.695303 1 0 1.000000
0  -30.982410 -82.514275 70.691124  -0.921382 -0.075656 0.381223  0.748070 0.695303 1 0 1.000000
skin_0
0  -29.826250 -82.569328 73.567772  -0.924249 -0.072358 0.374871  0.741234 0.695303 1 0 1.000000
0  -30.652079 -80.573570 71.902351  -0.924249 -0.067264 0.375819  0.745140 0.691397 1 0 1.000000
0  -30.982410 -82.514275 70.691124  -0.921382 -0.075656 0.381223  0.748070 0.695303 1 0 1.000000
skin_0
0  -30.569498 -78.164894 72.521713  -0.912329 -0.032621 0.408157  0.743187 0.687490 1 0 1.000000
0  -30.652079 -80.573570 71.902351  -0.924249 -0.067264 0.375819  0.745140 0.691397 1 0 1.000000
0  -29.647316 -80.793793 74.324783  -0.920213 -0.057298 0.387202  0.739280 0.692373 1 0 1.000000
skin_0
0  -40.451942 -53.912998 48.214767  -0.981209 -0.024882 0.191336  0.807642 0.644520 1 0 1.000000
0  -39.777512 -74.132088 48.187241  -0.981915 -0.035162 0.186027  0.807642 0.680654 1 0 1.000000
0  -39.405891 -59.046913 51.201523  -0.948735 -0.024690 0.315106  0.799829 0.653310 1 0 1.000000
skin_0
0  -40.025265 -73.994446 17.232342  -0.995911 -0.026206 -0.086454  0.888699 0.679678 1 0 1.000000
0  -41.553047 -74.145851 34.877598  -0.996004 -0.029229 -0.084392  0.842799 0.680654 1 0 1.000000
0  -40.548294 -53.912998 17.232342  -0.995508 -0.029128 -0.090086  0.888699 0.644520 1 0 1.000000
skin_0
0  -40.204193 -90.290840 25.270430  -0.995658 -0.030944 -0.087790  0.868191 0.708975 1 0 1.000000
0  -40.740982 -94.392471 31.822021  -0.998471 -0.033401 -0.044042  0.850612 0.715812 1 0 1.000000
0  -41.553047 -74.145851 34.877598  -0.996004 -0.029229 -0.084392  0.842799 0.680654 1 0 1.000000
skin_0
0  -40.424412 -95.121956 31.822021  -0.905646 -0.402032 -0.134817  0.850612 0.716788 1 0 1.000000
0  -40.740982 -94.392471 31.822021  -0.898383 -0.398798 -0.184033  0.850612 0.715812 1 0 1.000000
0  -40.204193 -90.290840 25.270430  -0.884144 -0.398240 -0.244324  0.868191 0.708975 1 0 1.000000
skin_0
0  -40.204193 -90.290840 25.270430  -0.884144 -0.398240 -0.244324  0.868191 0.708975 1 0 1.000000
0  -39.887623 -91.006561 25.270430  -0.877494 -0.395220 -0.271672  0.868191 0.709952 1 0 1.000000
0  -40.424412 -95.121956 31.822021  -0.905646 -0.402032 -0.134817  0.850612 0.716788 1 0 1.000000
skin_0
0  -40.961205 -53.376209 37.437672  0.539629 0.832186 -0.127541  0.054689 0.033174 1 0 1.000000
0  -38.153381 -55.165508 37.630367  0.498054 0.865364 -0.055558  0.054689 0.033174 1 0 1.000000
0  -41.869617 -53.376209 34.877598  0.474122 0.879416 -0.042844  0.054689 0.033174 1 0 1.000000
skin_0
0  -41.869617 -53.376209 34.877598  0.474122 0.879416 -0.042844  0.054689 0.033174 1 0 1.000000
0  -38.153381 -55.165508 37.630367  0.498054 0.865364 -0.055558  0.054689 0.033174 1 0 1.000000
0  -37.520245 -55.468315 29.344530  0.433168 0.901313 -0.000246  0.054689 0.033174 1 0 1.000000
skin_0
0  -41.869617 -53.376209 34.877598  0.474122 0.879416 -0.042844  0.054689 0.033174 1 0 1.000000
0  -37.520245 -55.468315 29.344530  0.433168 0.901313 -0.000246  0.054689 0.033174 1 0 1.000000
0  -36.350319 -56.032631 16.158762  0.719010 0.693215 -0.049773  0.054689 0.033174 1 0 1.000000
skin_0
0  -41.869617 -53.376209 34.877598  0.474122 0.879416 -0.042844  0.054689 0.033174 1 0 1.000000
0  -36.350319 -56.032631 16.158762  0.719010 0.693215 -0.049773  0.054689 0.033174 1 0 1.000000
0  -40.217960 -53.376209 17.232342  0.587372 0.796877 0.141353  0.054689 0.033174 1 0 1.000000
skin_0
0  -35.992462 -59.404778 12.690271  0.622816 0.119225 -0.773230  0.054689 0.033174 1 0 1.000000
0  -38.992977 -53.431263 11.190012  0.781843 0.537710 -0.315577  0.054689 0.033174 1 0 1.000000
0  -36.350319 -56.032631 16.158762  0.719010 0.693215 -0.049773  0.054689 0.033174 1 0 1.000000
skin_0
0  -40.217960 -53.376209 17.232342  0.587372 0.796877 0.141353  0.054689 0.033174 1 0 1.000000
0  -36.350319 -56.032631 16.158762  0.719010 0.693215 -0.049773  0.054689 0.033174 1 0 1.000000
0  -39.653645 -53.376209 16.131233  0.623218 0.774846 0.105894  0.054689 0.033174 1 0 1.000000
skin_0
0  -38.621353 -73.925629 11.190012  0.493214 0.005286 -0.869892  0.054689 0.033174 1 0 1.000000
0  -36.198914 -73.787994 12.566398  0.488766 0.004551 -0.872403  0.054689 0.033174 1 0 1.000000
0  -36.364079 -85.143173 12.456286  0.519483 0.008257 -0.854441  0.054689 0.033174 1 0 1.000000
skin_0
0  -36.364079 -85.143173 12.456286  0.519483 0.008257 -0.854441  0.054689 0.033174 1 0 1.000000
0  -38.387367 -86.615898 11.203775  0.523177 0.009277 -0.852174  0.054689 0.033174 1 0 1.000000
0  -38.621353 -73.925629 11.190012  0.493214 0.005286 -0.869892  0.054689 0.033174 1 0 1.000000
skin_0
0  -40.121609 -53.376209 48.214767  0.376918 0.920647 -0.101693  0.054689 0.033174 1 0 1.000000
0  -38.731464 -54.050636 46.948490  0.369367 0.924597 -0.093207  0.054689 0.033174 1 0 1.000000
0  -38.153381 -55.165508 37.630367  0.498054 0.865364 -0.055558  0.054689 0.033174 1 0 1.000000
skin_0
0  -38.153381 -55.165508 37.630367  0.498054 0.865364 -0.055558  0.054689 0.033174 1 0 1.000000
0  -40.961205 -53.376209 37.437672  0.539629 0.832186 -0.127541  0.054689 0.033174 1 0 1.000000
0  -40.121609 -53.376209 48.214767  0.376918 0.920647 -0.101693  0.054689 0.033174 1 0 1.000000
skin_0
0  -38.318542 -94.750336 37.891880  0.393610 -0.916245 -0.074600  0.054689 0.033174 1 0 1.000000
0  -40.410648 -95.190773 34.877598  0.261393 -0.964398 -0.040130  0.054689 0.033174 1 0 1.000000
0  -37.946918 -94.543869 32.441395  0.277155 -0.930703 -0.238700  0.053713 0.033174 1 0 1.000000
skin_0
0  -37.946918 -94.543869 32.441395  0.277155 -0.930703 -0.238700  0.053713 0.033174 1 0 1.000000
0  -40.410648 -95.190773 34.877598  0.261393 -0.964398 -0.040130  0.054689 0.033174 1 0 1.000000
0  -40.424412 -95.121956 31.822021  0.273872 -0.921326 -0.275956  0.053713 0.033174 1 0 1.000000
skin_0
0  -40.410648 -95.190773 34.877598  0.261393 -0.964398 -0.040130  0.054689 0.033174 1 0 1.000000
0  -38.318542 -94.750336 37.891880  0.393610 -0.916245 -0.074600  0.054689 0.033174 1 0 1.000000
0  -39.474709 -95.273369 37.437672  0.455304 -0.878125 -0.146952  0.054689 0.033174 1 0 1.000000
skin_0
0  -37.368839 -90.318367 25.297958  0.267149 -0.880736 -0.391069  0.054689 0.033174 1 0 1.000000
0  -38.814045 -87.882172 16.131233  0.397826 -0.865264 -0.305044  0.054689 0.033174 1 0 1.000000
0  -36.364079 -85.143173 12.456286  0.568794 -0.804535 -0.170871  0.054689 0.033174 1 0 1.000000
skin_0
0  -38.814045 -87.882172 16.131233  0.397826 -0.865264 -0.305044  0.054689 0.033174 1 0 1.000000
0  -37.368839 -90.318367 25.297958  0.267149 -0.880736 -0.391069  0.054689 0.033174 1 0 1.000000
0  -39.350834 -88.157448 17.232342  0.013255 -0.965289 -0.260848  0.054689 0.033174 1 0 1.000000
skin_0
0  -39.350834 -88.157448 17.232342  0.013255 -0.965289 -0.260848  0.054689 0.033174 1 0 1.000000
0  -37.368839 -90.318367 25.297958  0.267149 -0.880736 -0.391069  0.054689 0.033174 1 0 1.000000
0  -39.887623 -91.006561 25.270430  0.245039 -0.874852 -0.417840  0.054689 0.033174 1 0 1.000000
skin_0
0  -37.368839 -90.318367 25.297958  0.267149 -0.880736 -0.391069  0.054689 0.033174 1 0 1.000000
0  -40.424412 -95.121956 31.822021  0.273872 -0.921326 -0.275956  0.054689 0.033174 1 0 1.000000
0  -39.887623 -91.006561 25.270430  0.245039 -0.874852 -0.417840  0.054689 0.033174 1 0 1.000000
skin_0
0  -38.800278 -95.562401 47.967014  0.257367 -0.964044 -0.066195  0.054689 0.033174 1 0 1.000000
0  -39.474709 -95.273369 37.437672  0.455304 -0.878125 -0.146952  0.054689 0.033174 1 0 1.000000
0  -38.318542 -94.750336 37.891880  0.393610 -0.916245 -0.074600  0.054689 0.033174 1 0 1.000000
skin_0
0  -38.318542 -94.750336 37.891880  0.393610 -0.916245 -0.074600  0.054689 0.033174 1 0 1.000000
0  -37.960682 -95.562401 51.008823  0.249675 -0.966027 -0.066744  0.054689 0.033174 1 0 1.000000
0  -38.800278 -95.562401 47.967014  0.257367 -0.964044 -0.066195  0.054689 0.033174 1 0 1.000000
skin_0
0  -39.846336 -53.376209 15.140237  0.602981 0.797637 0.013746  0.054689 0.033174 1 0 1.000000
0  -36.350319 -56.032631 16.158762  0.719010 0.693215 -0.049773  0.054689 0.033174 1 0 1.000000
0  -38.992977 -53.431263 11.190012  0.781843 0.537710 -0.315577  0.054689 0.033174 1 0 1.000000
skin_0
0  -39.653645 -53.376209 16.131233  0.623218 0.774846 0.105894  0.054689 0.033174 1 0 1.000000
0  -36.350319 -56.032631 16.158762  0.719010 0.693215 -0.049773  0.054689 0.033174 1 0 1.000000
0  -39.846336 -53.376209 15.140237  0.602981 0.797637 0.013746  0.054689 0.033174 1 0 1.000000
skin_0
0  -40.121609 -53.376209 48.214767  0.376918 0.920647 -0.101693  0.054689 0.033174 1 0 1.000000
0  -39.158142 -53.376209 51.160233  0.350861 0.929240 -0.115799  0.054689 0.033174 1 0 1.000000
0  -38.731464 -54.050636 46.948490  0.369367 0.924597 -0.093207  0.054689 0.033174 1 0 1.000000
skin_0
0  -38.814045 -87.882172 16.131233  0.397826 -0.865264 -0.305044  0.054689 0.033174 1 0 1.000000
0  -39.075558 -87.593140 15.140237  0.471767 -0.833163 -0.288576  0.054689 0.033174 1 0 1.000000
0  -36.364079 -85.143173 12.456286  0.568794 -0.804535 -0.170871  0.054689 0.033174 1 0 1.000000
skin_0
0  -39.075558 -87.593140 15.140237  0.471767 -0.833163 -0.288576  0.054689 0.033174 1 0 1.000000
0  -38.387367 -86.615898 11.203775  0.622074 -0.778161 -0.086539  0.054689 0.033174 1 0 1.000000
0  -36.364079 -85.143173 12.456286  0.568794 -0.804535 -0.170871  0.054689 0.033174 1 0 1.000000
skin_0
0  -37.368839 -90.318367 25.297958  0.267149 -0.880736 -0.391069  0.054689 0.033174 1 0 1.000000
0  -37.946918 -94.543869 32.441395  0.277155 -0.930703 -0.238700  0.054689 0.033174 1 0 1.000000
0  -40.424412 -95.121956 31.822021  0.273872 -0.921326 -0.275956  0.054689 0.033174 1 0 1.000000
skin_0
0  -39.667404 -87.455490 17.232342  -0.996075 -0.031419 -0.082745  0.888699 0.704093 1 0 1.000000
0  -40.204193 -90.290840 25.270430  -0.995658 -0.030944 -0.087790  0.868191 0.708975 1 0 1.000000
0  -41.553047 -74.145851 34.877598  -0.996004 -0.029229 -0.084392  0.842799 0.680654 1 0 1.000000
skin_0
0  -41.553047 -74.145851 34.877598  -0.996004 -0.029229 -0.084392  0.842799 0.680654 1 0 1.000000
0  -40.025265 -73.994446 17.232342  -0.995911 -0.026206 -0.086454  0.888699 0.679678 1 0 1.000000
0  -39.667404 -87.455490 17.232342  -0.996075 -0.031419 -0.082745  0.888699 0.704093 1 0 1.000000
skin_0
0  -40.025265 -73.994446 17.232342  -0.895164 -0.022526 -0.445168  0.888699 0.679678 1 0 1.000000
0  -39.474712 -73.953156 16.131233  -0.895233 -0.022492 -0.445029  0.891629 0.679678 1 0 1.000000
0  -39.144379 -87.180214 16.131233  -0.899044 -0.023389 -0.437234  0.891629 0.703116 1 0 1.000000
skin_0
0  -39.144379 -87.180214 16.131233  -0.899044 -0.023389 -0.437234  0.891629 0.703116 1 0 1.000000
0  -39.667404 -87.455490 17.232342  -0.899230 -0.023442 -0.436848  0.888699 0.704093 1 0 1.000000
0  -40.025265 -73.994446 17.232342  -0.895164 -0.022526 -0.445168  0.888699 0.679678 1 0 1.000000
skin_0
0  -39.474712 -73.953156 16.131233  -0.974751 -0.023072 0.222100  0.891629 0.679678 1 0 1.000000
0  -39.694931 -73.966919 15.140237  -0.974745 -0.023011 0.222132  0.894559 0.679678 1 0 1.000000
0  -39.392128 -86.918709 15.140237  -0.970563 -0.024323 0.239617  0.894559 0.703116 1 0 1.000000
skin_0
0  -39.392128 -86.918709 15.140237  -0.970563 -0.024323 0.239617  0.894559 0.703116 1 0 1.000000
0  -39.144379 -87.180214 16.131233  -0.970382 -0.024382 0.240343  0.891629 0.703116 1 0 1.000000
0  -39.474712 -73.953156 16.131233  -0.974751 -0.023072 0.222100  0.891629 0.679678 1 0 1.000000
skin_0
0  -39.694931 -73.966919 15.140237  -0.982951 -0.019000 -0.182886  0.894559 0.679678 1 0 1.000000
0  -39.089321 -73.925629 11.836913  -0.982954 -0.018285 -0.182940  0.903348 0.679678 1 0 1.000000
0  -38.855335 -85.968994 11.836913  -0.985388 -0.022463 -0.168835  0.903348 0.701163 1 0 1.000000
skin_0
0  -38.855335 -85.968994 11.836913  -0.985388 -0.022463 -0.168835  0.903348 0.701163 1 0 1.000000
0  -39.392128 -86.918709 15.140237  -0.985895 -0.023267 -0.165740  0.894559 0.703116 1 0 1.000000
0  -39.694931 -73.966919 15.140237  -0.982951 -0.019000 -0.182886  0.894559 0.679678 1 0 1.000000
skin_0
0  -38.855335 -85.968994 11.836913  -0.814676 -0.014664 -0.579732  0.903348 0.701163 1 0 1.000000
0  -39.089321 -73.925629 11.836913  -0.810130 -0.015416 -0.586047  0.903348 0.679678 1 0 1.000000
0  -38.621353 -73.925629 11.190012  -0.810086 -0.015411 -0.586109  0.905301 0.679678 1 0 1.000000
skin_0
0  -38.621353 -73.925629 11.190012  -0.810086 -0.015411 -0.586109  0.905301 0.679678 1 0 1.000000
0  -38.387367 -86.615898 11.203775  -0.814856 -0.014616 -0.579479  0.905301 0.702139 1 0 1.000000
0  -38.855335 -85.968994 11.836913  -0.814676 -0.014664 -0.579732  0.903348 0.701163 1 0 1.000000
skin_0
0  -36.198914 -73.787994 12.566398  0.488766 0.004551 -0.872403  0.054689 0.033174 1 0 1.000000
0  -38.621353 -73.925629 11.190012  0.493214 0.005286 -0.869892  0.054689 0.033174 1 0 1.000000
0  -38.992977 -53.431263 11.190012  0.781843 0.537710 -0.315577  0.054689 0.033174 1 0 1.000000
skin_0
0  -38.992977 -53.431263 11.190012  0.781843 0.537710 -0.315577  0.054689 0.033174 1 0 1.000000
0  -35.992462 -59.404778 12.690271  0.622816 0.119225 -0.773230  0.054689 0.033174 1 0 1.000000
0  -36.198914 -73.787994 12.566398  0.488766 0.004551 -0.872403  0.054689 0.033174 1 0 1.000000
end
