version 1
nodes
0 "root" -1
end
skeleton
time 0
0  0.000000 0.000000 0.000000  0.000000 -0.000000 0.000000
end
triangles
misc
0  -17.817982 -150.245087 8.559972  0.172398 -0.935115 -0.309579  0.478530 0.023408 1 0 1.000000
0  -18.825737 -147.268951 3.086163  0.070206 -0.640486 -0.764754  0.478530 0.010712 1 0 1.000000
0  0.082264 -142.175858 1.246593  0.031635 -0.579253 -0.814534  0.469741 0.010712 1 0 1.000000
misc
0  0.082264 -142.175858 1.246593  0.031635 -0.579253 -0.814534  0.469741 0.010712 1 0 1.000000
0  0.618290 -145.266373 6.678582  0.041772 -0.937611 -0.345167  0.469741 0.023408 1 0 1.000000
0  -17.817982 -150.245087 8.559972  0.172398 -0.935115 -0.309579  0.478530 0.023408 1 0 1.000000
misc
0  0.776451 -145.152283 12.679118  0.010274 -0.347015 0.937803  0.469741 0.038057 1 0 1.000000
0  0.364323 -141.700317 13.113602  0.008825 -0.123557 0.992298  0.469741 0.039033 1 0 1.000000
0  -18.239567 -146.844086 14.932722  0.101126 -0.101709 0.989661  0.478530 0.039033 1 0 1.000000
misc
0  -18.239567 -146.844086 14.932722  0.101126 -0.101709 0.989661  0.478530 0.039033 1 0 1.000000
0  -17.538960 -149.958374 14.538445  0.146762 -0.349062 0.925536  0.478530 0.038057 1 0 1.000000
0  0.776451 -145.152283 12.679118  0.010274 -0.347015 0.937803  0.469741 0.038057 1 0 1.000000
misc
0  -49.029755 -138.673569 10.165482  -0.921330 -0.026952 -0.387846  0.492203 0.023408 1 0 1.000000
0  -50.179695 -139.070160 15.609663  -0.961174 -0.217278 0.170104  0.492203 0.037080 1 0 1.000000
0  -50.077190 -136.900024 16.065130  -0.988722 0.129558 -0.075119  0.492203 0.038057 1 0 1.000000
misc
0  -50.077190 -136.900024 16.065130  -0.988722 0.129558 -0.075119  0.492203 0.038057 1 0 1.000000
0  -48.005447 -136.400894 10.086257  -0.853407 0.353835 -0.382750  0.491226 0.023408 1 0 1.000000
0  -49.029755 -138.673569 10.165482  -0.921330 -0.026952 -0.387846  0.492203 0.023408 1 0 1.000000
misc
0  -45.384960 -137.626495 4.466087  -0.780119 -0.060857 -0.622664  0.490249 0.010712 1 0 1.000000
0  -49.029755 -138.673569 10.165482  -0.921330 -0.026952 -0.387846  0.492203 0.023408 1 0 1.000000
0  -48.005447 -136.400894 10.086257  -0.853407 0.353835 -0.382750  0.491226 0.023408 1 0 1.000000
misc
0  -48.005447 -136.400894 10.086257  -0.853407 0.353835 -0.382750  0.491226 0.023408 1 0 1.000000
0  -44.935940 -135.671143 4.421926  -0.778864 0.172340 -0.603050  0.489273 0.010712 1 0 1.000000
0  -45.384960 -137.626495 4.466087  -0.780119 -0.060857 -0.622664  0.490249 0.010712 1 0 1.000000
misc
0  -30.690500 -152.010040 15.288881  0.066194 -0.390747 0.918115  0.485366 0.038057 1 0 1.000000
0  -31.270504 -149.418747 15.667820  0.063375 -0.126036 0.989999  0.485366 0.039033 1 0 1.000000
0  -36.126606 -149.472763 15.910423  0.029049 -0.148222 0.988527  0.487320 0.039033 1 0 1.000000
misc
0  -36.126606 -149.472763 15.910423  0.029049 -0.148222 0.988527  0.487320 0.039033 1 0 1.000000
0  -35.632210 -151.688370 15.560114  -0.034974 -0.416579 0.908426  0.487320 0.038057 1 0 1.000000
0  -30.690500 -152.010040 15.288881  0.066194 -0.390747 0.918115  0.485366 0.038057 1 0 1.000000
misc
0  -17.817982 -150.245087 8.559972  0.172398 -0.935115 -0.309579  0.478530 0.023408 1 0 1.000000
0  -17.374895 -150.822662 13.903691  0.218840 -0.891764 0.396064  0.478530 0.037080 1 0 1.000000
0  -30.532660 -152.847488 14.654211  0.063380 -0.922393 0.381017  0.485366 0.037080 1 0 1.000000
misc
0  -30.532660 -152.847488 14.654211  0.063380 -0.922393 0.381017  0.485366 0.037080 1 0 1.000000
0  -31.001579 -152.219406 9.311427  -0.000910 -0.942652 -0.333777  0.485366 0.023408 1 0 1.000000
0  -17.817982 -150.245087 8.559972  0.172398 -0.935115 -0.309579  0.478530 0.023408 1 0 1.000000
misc
0  -17.538960 -149.958374 14.538445  0.146762 -0.349062 0.925536  0.478530 0.038057 1 0 1.000000
0  -18.239567 -146.844086 14.932722  0.101126 -0.101709 0.989661  0.478530 0.039033 1 0 1.000000
0  -31.270504 -149.418747 15.667820  0.063375 -0.126036 0.989999  0.485366 0.039033 1 0 1.000000
misc
0  -31.270504 -149.418747 15.667820  0.063375 -0.126036 0.989999  0.485366 0.039033 1 0 1.000000
0  -30.690500 -152.010040 15.288881  0.066194 -0.390747 0.918115  0.485366 0.038057 1 0 1.000000
0  -17.538960 -149.958374 14.538445  0.146762 -0.349062 0.925536  0.478530 0.038057 1 0 1.000000
misc
0  -31.001579 -152.219406 9.311427  -0.000910 -0.942652 -0.333777  0.485366 0.023408 1 0 1.000000
0  -30.532660 -152.847488 14.654211  0.063380 -0.922393 0.381017  0.485366 0.037080 1 0 1.000000
0  -35.480591 -152.499039 14.925526  -0.148039 -0.918622 0.366358  0.487320 0.037080 1 0 1.000000
misc
0  -35.480591 -152.499039 14.925526  -0.148039 -0.918622 0.366358  0.487320 0.037080 1 0 1.000000
0  -35.985920 -151.653290 9.582623  -0.235237 -0.907349 -0.348397  0.487320 0.023408 1 0 1.000000
0  -31.001579 -152.219406 9.311427  -0.000910 -0.942652 -0.333777  0.485366 0.023408 1 0 1.000000
misc
0  -44.737419 -146.921951 16.018826  -0.468403 -0.475300 0.744774  0.491226 0.038057 1 0 1.000000
0  -40.527451 -150.168976 15.816989  -0.212123 -0.444559 0.870271  0.489273 0.038057 1 0 1.000000
0  -40.692348 -148.653870 16.114532  -0.067364 -0.193237 0.978837  0.489273 0.039033 1 0 1.000000
misc
0  -40.631176 -149.934555 9.823657  -0.483089 -0.801074 -0.353421  0.489273 0.023408 1 0 1.000000
0  -40.375835 -150.979630 15.182400  -0.400654 -0.854673 0.330168  0.489273 0.037080 1 0 1.000000
0  -45.101280 -147.456696 15.410146  -0.680291 -0.667454 0.302835  0.491226 0.037080 1 0 1.000000
misc
0  -45.101280 -147.456696 15.410146  -0.680291 -0.667454 0.302835  0.491226 0.037080 1 0 1.000000
0  -44.614826 -146.507767 10.011158  -0.711056 -0.601409 -0.364289  0.490249 0.023408 1 0 1.000000
0  -40.631176 -149.934555 9.823657  -0.483089 -0.801074 -0.353421  0.489273 0.023408 1 0 1.000000
misc
0  -44.614826 -146.507767 10.011158  -0.711056 -0.601409 -0.364289  0.490249 0.023408 1 0 1.000000
0  -42.175976 -143.550568 4.346158  -0.591819 -0.429851 -0.681893  0.489273 0.010712 1 0 1.000000
0  -40.240211 -145.630234 4.259122  -0.452634 -0.543891 -0.706616  0.488296 0.010712 1 0 1.000000
misc
0  -40.240211 -145.630234 4.259122  -0.452634 -0.543891 -0.706616  0.488296 0.010712 1 0 1.000000
0  -40.631176 -149.934555 9.823657  -0.483089 -0.801074 -0.353421  0.489273 0.023408 1 0 1.000000
0  -44.614826 -146.507767 10.011158  -0.711056 -0.601409 -0.364289  0.490249 0.023408 1 0 1.000000
misc
0  -44.614826 -146.507767 10.011158  -0.711056 -0.601409 -0.364289  0.490249 0.023408 1 0 1.000000
0  -45.101280 -147.456696 15.410146  -0.680291 -0.667454 0.302835  0.491226 0.037080 1 0 1.000000
0  -48.479675 -142.504547 15.549039  -0.834185 -0.494135 0.244881  0.492203 0.037080 1 0 1.000000
misc
0  -48.479675 -142.504547 15.549039  -0.834185 -0.494135 0.244881  0.492203 0.037080 1 0 1.000000
0  -47.588707 -141.843140 10.116633  -0.815768 -0.437192 -0.378663  0.491226 0.023408 1 0 1.000000
0  -44.614826 -146.507767 10.011158  -0.711056 -0.601409 -0.364289  0.490249 0.023408 1 0 1.000000
misc
0  -49.029755 -138.673569 10.165482  -0.921330 -0.026952 -0.387846  0.492203 0.023408 1 0 1.000000
0  -45.384960 -137.626495 4.466087  -0.780119 -0.060857 -0.622664  0.490249 0.010712 1 0 1.000000
0  -44.334522 -140.024872 4.431344  -0.667557 -0.342535 -0.661088  0.489273 0.010712 1 0 1.000000
misc
0  -44.334522 -140.024872 4.431344  -0.667557 -0.342535 -0.661088  0.489273 0.010712 1 0 1.000000
0  -47.588707 -141.843140 10.116633  -0.815768 -0.437192 -0.378663  0.491226 0.023408 1 0 1.000000
0  -49.029755 -138.673569 10.165482  -0.921330 -0.026952 -0.387846  0.492203 0.023408 1 0 1.000000
misc
0  -50.179695 -139.070160 15.609663  -0.961174 -0.217278 0.170104  0.492203 0.037080 1 0 1.000000
0  -49.029755 -138.673569 10.165482  -0.921330 -0.026952 -0.387846  0.492203 0.023408 1 0 1.000000
0  -47.588707 -141.843140 10.116633  -0.815768 -0.437192 -0.378663  0.491226 0.023408 1 0 1.000000
misc
0  -47.588707 -141.843140 10.116633  -0.815768 -0.437192 -0.378663  0.491226 0.023408 1 0 1.000000
0  -48.479675 -142.504547 15.549039  -0.834185 -0.494135 0.244881  0.492203 0.037080 1 0 1.000000
0  -50.179695 -139.070160 15.609663  -0.961174 -0.217278 0.170104  0.492203 0.037080 1 0 1.000000
misc
0  0.618290 -145.266373 6.678582  0.041772 -0.937611 -0.345167  0.469741 0.023408 1 0 1.000000
0  0.864647 -146.019836 12.033833  0.027659 -0.923815 0.381839  0.469741 0.037080 1 0 1.000000
0  -17.374895 -150.822662 13.903691  0.218840 -0.891764 0.396064  0.478530 0.037080 1 0 1.000000
misc
0  -17.374895 -150.822662 13.903691  0.218840 -0.891764 0.396064  0.478530 0.037080 1 0 1.000000
0  -17.817982 -150.245087 8.559972  0.172398 -0.935115 -0.309579  0.478530 0.023408 1 0 1.000000
0  0.618290 -145.266373 6.678582  0.041772 -0.937611 -0.345167  0.469741 0.023408 1 0 1.000000
misc
0  -18.825737 -147.268951 3.086163  0.070206 -0.640486 -0.764754  0.478530 0.010712 1 0 1.000000
0  -17.817982 -150.245087 8.559972  0.172398 -0.935115 -0.309579  0.478530 0.023408 1 0 1.000000
0  -31.001579 -152.219406 9.311427  -0.000910 -0.942652 -0.333777  0.485366 0.023408 1 0 1.000000
misc
0  -31.001579 -152.219406 9.311427  -0.000910 -0.942652 -0.333777  0.485366 0.023408 1 0 1.000000
0  -32.135990 -148.636810 3.838687  -0.077135 -0.643620 -0.761448  0.485366 0.010712 1 0 1.000000
0  -18.825737 -147.268951 3.086163  0.070206 -0.640486 -0.764754  0.478530 0.010712 1 0 1.000000
misc
0  -32.135990 -148.636810 3.838687  -0.077135 -0.643620 -0.761448  0.485366 0.010712 1 0 1.000000
0  -31.001579 -152.219406 9.311427  -0.000910 -0.942652 -0.333777  0.485366 0.023408 1 0 1.000000
0  -35.985920 -151.653290 9.582623  -0.235237 -0.907349 -0.348397  0.487320 0.023408 1 0 1.000000
misc
0  -35.985920 -151.653290 9.582623  -0.235237 -0.907349 -0.348397  0.487320 0.023408 1 0 1.000000
0  -37.303936 -147.279663 4.112300  -0.269764 -0.610825 -0.744392  0.487320 0.010712 1 0 1.000000
0  -32.135990 -148.636810 3.838687  -0.077135 -0.643620 -0.761448  0.485366 0.010712 1 0 1.000000
misc
0  -42.175976 -143.550568 4.346158  -0.591819 -0.429851 -0.681893  0.489273 0.010712 1 0 1.000000
0  -44.614826 -146.507767 10.011158  -0.711056 -0.601409 -0.364289  0.490249 0.023408 1 0 1.000000
0  -47.588707 -141.843140 10.116633  -0.815768 -0.437192 -0.378663  0.491226 0.023408 1 0 1.000000
misc
0  -47.588707 -141.843140 10.116633  -0.815768 -0.437192 -0.378663  0.491226 0.023408 1 0 1.000000
0  -44.334522 -140.024872 4.431344  -0.667557 -0.342535 -0.661088  0.489273 0.010712 1 0 1.000000
0  -42.175976 -143.550568 4.346158  -0.591819 -0.429851 -0.681893  0.489273 0.010712 1 0 1.000000
misc
0  -35.632210 -151.688370 15.560114  -0.034974 -0.416579 0.908426  0.487320 0.038057 1 0 1.000000
0  -36.126606 -149.472763 15.910423  0.029049 -0.148222 0.988527  0.487320 0.039033 1 0 1.000000
0  -40.692348 -148.653870 16.114532  -0.067364 -0.193237 0.978837  0.489273 0.039033 1 0 1.000000
misc
0  -40.692348 -148.653870 16.114532  -0.067364 -0.193237 0.978837  0.489273 0.039033 1 0 1.000000
0  -40.527451 -150.168976 15.816989  -0.212123 -0.444559 0.870271  0.489273 0.038057 1 0 1.000000
0  -35.632210 -151.688370 15.560114  -0.034974 -0.416579 0.908426  0.487320 0.038057 1 0 1.000000
misc
0  -35.985920 -151.653290 9.582623  -0.235237 -0.907349 -0.348397  0.487320 0.023408 1 0 1.000000
0  -35.480591 -152.499039 14.925526  -0.148039 -0.918622 0.366358  0.487320 0.037080 1 0 1.000000
0  -40.375835 -150.979630 15.182400  -0.400654 -0.854673 0.330168  0.489273 0.037080 1 0 1.000000
misc
0  -40.375835 -150.979630 15.182400  -0.400654 -0.854673 0.330168  0.489273 0.037080 1 0 1.000000
0  -40.631176 -149.934555 9.823657  -0.483089 -0.801074 -0.353421  0.489273 0.023408 1 0 1.000000
0  -35.985920 -151.653290 9.582623  -0.235237 -0.907349 -0.348397  0.487320 0.023408 1 0 1.000000
misc
0  -37.303936 -147.279663 4.112300  -0.269764 -0.610825 -0.744392  0.487320 0.010712 1 0 1.000000
0  -35.985920 -151.653290 9.582623  -0.235237 -0.907349 -0.348397  0.487320 0.023408 1 0 1.000000
0  -40.631176 -149.934555 9.823657  -0.483089 -0.801074 -0.353421  0.489273 0.023408 1 0 1.000000
misc
0  -40.631176 -149.934555 9.823657  -0.483089 -0.801074 -0.353421  0.489273 0.023408 1 0 1.000000
0  -40.240211 -145.630234 4.259122  -0.452634 -0.543891 -0.706616  0.488296 0.010712 1 0 1.000000
0  -37.303936 -147.279663 4.112300  -0.269764 -0.610825 -0.744392  0.487320 0.010712 1 0 1.000000
misc
0  0.864647 -146.019836 12.033833  0.027659 -0.923815 0.381839  0.469741 0.037080 1 0 1.000000
0  0.776451 -145.152283 12.679118  0.010274 -0.347015 0.937803  0.469741 0.038057 1 0 1.000000
0  -17.538960 -149.958374 14.538445  0.146762 -0.349062 0.925536  0.478530 0.038057 1 0 1.000000
misc
0  -17.538960 -149.958374 14.538445  0.146762 -0.349062 0.925536  0.478530 0.038057 1 0 1.000000
0  -17.374895 -150.822662 13.903691  0.218840 -0.891764 0.396064  0.478530 0.037080 1 0 1.000000
0  0.864647 -146.019836 12.033833  0.027659 -0.923815 0.381839  0.469741 0.037080 1 0 1.000000
misc
0  -30.690500 -152.010040 15.288881  0.066194 -0.390747 0.918115  0.485366 0.038057 1 0 1.000000
0  -30.532660 -152.847488 14.654211  0.063380 -0.922393 0.381017  0.485366 0.037080 1 0 1.000000
0  -17.374895 -150.822662 13.903691  0.218840 -0.891764 0.396064  0.478530 0.037080 1 0 1.000000
misc
0  -17.374895 -150.822662 13.903691  0.218840 -0.891764 0.396064  0.478530 0.037080 1 0 1.000000
0  -17.538960 -149.958374 14.538445  0.146762 -0.349062 0.925536  0.478530 0.038057 1 0 1.000000
0  -30.690500 -152.010040 15.288881  0.066194 -0.390747 0.918115  0.485366 0.038057 1 0 1.000000
misc
0  -35.632210 -151.688370 15.560114  -0.034974 -0.416579 0.908426  0.487320 0.038057 1 0 1.000000
0  -35.480591 -152.499039 14.925526  -0.148039 -0.918622 0.366358  0.487320 0.037080 1 0 1.000000
0  -30.532660 -152.847488 14.654211  0.063380 -0.922393 0.381017  0.485366 0.037080 1 0 1.000000
misc
0  -30.532660 -152.847488 14.654211  0.063380 -0.922393 0.381017  0.485366 0.037080 1 0 1.000000
0  -30.690500 -152.010040 15.288881  0.066194 -0.390747 0.918115  0.485366 0.038057 1 0 1.000000
0  -35.632210 -151.688370 15.560114  -0.034974 -0.416579 0.908426  0.487320 0.038057 1 0 1.000000
misc
0  -40.527451 -150.168976 15.816989  -0.212123 -0.444559 0.870271  0.489273 0.038057 1 0 1.000000
0  -40.375835 -150.979630 15.182400  -0.400654 -0.854673 0.330168  0.489273 0.037080 1 0 1.000000
0  -35.480591 -152.499039 14.925526  -0.148039 -0.918622 0.366358  0.487320 0.037080 1 0 1.000000
misc
0  -35.480591 -152.499039 14.925526  -0.148039 -0.918622 0.366358  0.487320 0.037080 1 0 1.000000
0  -35.632210 -151.688370 15.560114  -0.034974 -0.416579 0.908426  0.487320 0.038057 1 0 1.000000
0  -40.527451 -150.168976 15.816989  -0.212123 -0.444559 0.870271  0.489273 0.038057 1 0 1.000000
misc
0  -44.737419 -146.921951 16.018826  -0.468403 -0.475300 0.744774  0.491226 0.038057 1 0 1.000000
0  -45.101280 -147.456696 15.410146  -0.680291 -0.667454 0.302835  0.491226 0.037080 1 0 1.000000
0  -40.375835 -150.979630 15.182400  -0.400654 -0.854673 0.330168  0.489273 0.037080 1 0 1.000000
misc
0  -40.375835 -150.979630 15.182400  -0.400654 -0.854673 0.330168  0.489273 0.037080 1 0 1.000000
0  -40.527451 -150.168976 15.816989  -0.212123 -0.444559 0.870271  0.489273 0.038057 1 0 1.000000
0  -44.737419 -146.921951 16.018826  -0.468403 -0.475300 0.744774  0.491226 0.038057 1 0 1.000000
misc
0  -48.056690 -142.224548 16.156940  -0.647595 -0.401744 0.647474  0.492203 0.038057 1 0 1.000000
0  -48.479675 -142.504547 15.549039  -0.834185 -0.494135 0.244881  0.492203 0.037080 1 0 1.000000
0  -45.101280 -147.456696 15.410146  -0.680291 -0.667454 0.302835  0.491226 0.037080 1 0 1.000000
misc
0  -45.101280 -147.456696 15.410146  -0.680291 -0.667454 0.302835  0.491226 0.037080 1 0 1.000000
0  -44.737419 -146.921951 16.018826  -0.468403 -0.475300 0.744774  0.491226 0.038057 1 0 1.000000
0  -48.056690 -142.224548 16.156940  -0.647595 -0.401744 0.647474  0.492203 0.038057 1 0 1.000000
misc
0  -48.479675 -142.504547 15.549039  -0.834185 -0.494135 0.244881  0.492203 0.037080 1 0 1.000000
0  -48.056690 -142.224548 16.156940  -0.647595 -0.401744 0.647474  0.492203 0.038057 1 0 1.000000
0  -49.762638 -138.946960 16.219437  -0.776991 -0.232548 0.584984  0.492203 0.038057 1 0 1.000000
misc
0  -49.762638 -138.946960 16.219437  -0.776991 -0.232548 0.584984  0.492203 0.038057 1 0 1.000000
0  -50.179695 -139.070160 15.609663  -0.961174 -0.217278 0.170104  0.492203 0.037080 1 0 1.000000
0  -48.479675 -142.504547 15.549039  -0.834185 -0.494135 0.244881  0.492203 0.037080 1 0 1.000000
misc
0  -49.762638 -138.946960 16.219437  -0.776991 -0.232548 0.584984  0.492203 0.038057 1 0 1.000000
0  -50.077190 -136.900024 16.065130  -0.988722 0.129558 -0.075119  0.492203 0.038057 1 0 1.000000
0  -50.179695 -139.070160 15.609663  -0.961174 -0.217278 0.170104  0.492203 0.037080 1 0 1.000000
misc
0  -18.825737 -147.268951 3.086163  0.070206 -0.640486 -0.764754  0.478530 0.010712 1 0 1.000000
0  -20.044592 -142.431824 1.438205  -0.006087 -0.326508 -0.945175  0.478530 0.006806 1 0 1.000000
0  -0.609056 -136.926376 -0.343373  0.013461 -0.290595 -0.956751  0.469741 0.006806 1 0 1.000000
misc
0  -0.609056 -136.926376 -0.343373  0.013461 -0.290595 -0.956751  0.469741 0.006806 1 0 1.000000
0  0.082264 -142.175858 1.246593  0.031635 -0.579253 -0.814534  0.469741 0.010712 1 0 1.000000
0  -18.825737 -147.268951 3.086163  0.070206 -0.640486 -0.764754  0.478530 0.010712 1 0 1.000000
misc
0  -45.384960 -137.626495 4.466087  -0.780119 -0.060857 -0.622664  0.490249 0.010712 1 0 1.000000
0  -43.487762 -136.982788 2.658768  -0.675223 -0.038817 -0.736591  0.489273 0.005829 1 0 1.000000
0  -42.461922 -139.146759 2.650659  -0.573761 -0.321770 -0.753168  0.488296 0.006806 1 0 1.000000
misc
0  -42.461922 -139.146759 2.650659  -0.573761 -0.321770 -0.753168  0.488296 0.006806 1 0 1.000000
0  -44.334522 -140.024872 4.431344  -0.667557 -0.342535 -0.661088  0.489273 0.010712 1 0 1.000000
0  -45.384960 -137.626495 4.466087  -0.780119 -0.060857 -0.622664  0.490249 0.010712 1 0 1.000000
misc
0  -44.935940 -135.671143 4.421926  -0.778864 0.172340 -0.603050  0.489273 0.010712 1 0 1.000000
0  -42.896133 -134.980118 2.578653  -0.689956 0.177095 -0.701853  0.488296 0.005829 1 0 1.000000
0  -43.487762 -136.982788 2.658768  -0.675223 -0.038817 -0.736591  0.489273 0.005829 1 0 1.000000
misc
0  -43.487762 -136.982788 2.658768  -0.675223 -0.038817 -0.736591  0.489273 0.005829 1 0 1.000000
0  -45.384960 -137.626495 4.466087  -0.780119 -0.060857 -0.622664  0.490249 0.010712 1 0 1.000000
0  -44.935940 -135.671143 4.421926  -0.778864 0.172340 -0.603050  0.489273 0.010712 1 0 1.000000
misc
0  -20.044592 -142.431824 1.438205  -0.006087 -0.326508 -0.945175  0.478530 0.006806 1 0 1.000000
0  -18.825737 -147.268951 3.086163  0.070206 -0.640486 -0.764754  0.478530 0.010712 1 0 1.000000
0  -32.135990 -148.636810 3.838687  -0.077135 -0.643620 -0.761448  0.485366 0.010712 1 0 1.000000
misc
0  -32.135990 -148.636810 3.838687  -0.077135 -0.643620 -0.761448  0.485366 0.010712 1 0 1.000000
0  -33.227253 -144.349396 2.189049  -0.081530 -0.380834 -0.921042  0.485366 0.006806 1 0 1.000000
0  -20.044592 -142.431824 1.438205  -0.006087 -0.326508 -0.945175  0.478530 0.006806 1 0 1.000000
misc
0  -33.227253 -144.349396 2.189049  -0.081530 -0.380834 -0.921042  0.485366 0.006806 1 0 1.000000
0  -32.135990 -148.636810 3.838687  -0.077135 -0.643620 -0.761448  0.485366 0.010712 1 0 1.000000
0  -37.303936 -147.279663 4.112300  -0.269764 -0.610825 -0.744392  0.487320 0.010712 1 0 1.000000
misc
0  -37.303936 -147.279663 4.112300  -0.269764 -0.610825 -0.744392  0.487320 0.010712 1 0 1.000000
0  -38.323624 -143.300629 2.461720  -0.221086 -0.428438 -0.876106  0.487320 0.006806 1 0 1.000000
0  -33.227253 -144.349396 2.189049  -0.081530 -0.380834 -0.921042  0.485366 0.006806 1 0 1.000000
misc
0  -39.563759 -142.698502 2.524660  -0.359188 -0.425838 -0.830449  0.487320 0.006806 1 0 1.000000
0  -40.240211 -145.630234 4.259122  -0.452634 -0.543891 -0.706616  0.488296 0.010712 1 0 1.000000
0  -42.175976 -143.550568 4.346158  -0.591819 -0.429851 -0.681893  0.489273 0.010712 1 0 1.000000
misc
0  -42.175976 -143.550568 4.346158  -0.591819 -0.429851 -0.681893  0.489273 0.010712 1 0 1.000000
0  -40.461151 -141.931961 2.566951  -0.476488 -0.382770 -0.791484  0.488296 0.006806 1 0 1.000000
0  -39.563759 -142.698502 2.524660  -0.359188 -0.425838 -0.830449  0.487320 0.006806 1 0 1.000000
misc
0  -44.334522 -140.024872 4.431344  -0.667557 -0.342535 -0.661088  0.489273 0.010712 1 0 1.000000
0  -42.461922 -139.146759 2.650659  -0.573761 -0.321770 -0.753168  0.488296 0.006806 1 0 1.000000
0  -40.461151 -141.931961 2.566951  -0.476488 -0.382770 -0.791484  0.488296 0.006806 1 0 1.000000
misc
0  -40.461151 -141.931961 2.566951  -0.476488 -0.382770 -0.791484  0.488296 0.006806 1 0 1.000000
0  -42.175976 -143.550568 4.346158  -0.591819 -0.429851 -0.681893  0.489273 0.010712 1 0 1.000000
0  -44.334522 -140.024872 4.431344  -0.667557 -0.342535 -0.661088  0.489273 0.010712 1 0 1.000000
misc
0  -38.323624 -143.300629 2.461720  -0.221086 -0.428438 -0.876106  0.487320 0.006806 1 0 1.000000
0  -37.303936 -147.279663 4.112300  -0.269764 -0.610825 -0.744392  0.487320 0.010712 1 0 1.000000
0  -40.240211 -145.630234 4.259122  -0.452634 -0.543891 -0.706616  0.488296 0.010712 1 0 1.000000
misc
0  -40.240211 -145.630234 4.259122  -0.452634 -0.543891 -0.706616  0.488296 0.010712 1 0 1.000000
0  -39.563759 -142.698502 2.524660  -0.359188 -0.425838 -0.830449  0.487320 0.006806 1 0 1.000000
0  -38.323624 -143.300629 2.461720  -0.221086 -0.428438 -0.876106  0.487320 0.006806 1 0 1.000000
misc
0  0.364323 -141.700317 13.113602  -0.031604 0.941979 0.334181  0.349620 0.034150 1 0 1.000000
0  -0.609056 -136.926376 -0.343373  -0.052394 0.937421 0.344233  0.349620 0.034150 1 0 1.000000
0  -20.044592 -142.431824 1.438205  -0.171580 0.928649 0.328894  0.349620 0.034150 1 0 1.000000
misc
0  -20.044592 -142.431824 1.438205  -0.171580 0.928649 0.328894  0.349620 0.034150 1 0 1.000000
0  -18.239567 -146.844086 14.932722  -0.180632 0.923428 0.338605  0.349620 0.034150 1 0 1.000000
0  0.364323 -141.700317 13.113602  -0.031604 0.941979 0.334181  0.349620 0.034150 1 0 1.000000
misc
0  -50.077190 -136.900024 16.065130  0.889707 0.135935 0.435824  0.349620 0.034150 1 0 1.000000
0  -49.762638 -138.946960 16.219437  0.850944 0.293182 0.435819  0.349620 0.034150 1 0 1.000000
0  -43.487762 -136.982788 2.658768  0.889576 0.073342 0.450861  0.349620 0.034150 1 0 1.000000
misc
0  -43.487762 -136.982788 2.658768  0.889576 0.073342 0.450861  0.349620 0.034150 1 0 1.000000
0  -42.896133 -134.980118 2.578653  0.870152 -0.242525 0.428971  0.349620 0.034150 1 0 1.000000
0  -50.077190 -136.900024 16.065130  0.889707 0.135935 0.435824  0.349620 0.034150 1 0 1.000000
misc
0  -31.270504 -149.418747 15.667820  -0.057042 0.921690 0.383711  0.349620 0.034150 1 0 1.000000
0  -33.227253 -144.349396 2.189049  0.044971 0.940977 0.335470  0.349620 0.034150 1 0 1.000000
0  -38.323624 -143.300629 2.461720  0.316919 0.888762 0.331156  0.349620 0.034150 1 0 1.000000
misc
0  -38.323624 -143.300629 2.461720  0.316919 0.888762 0.331156  0.349620 0.034150 1 0 1.000000
0  -36.126606 -149.472763 15.910423  0.094744 0.906473 0.411497  0.349620 0.034150 1 0 1.000000
0  -31.270504 -149.418747 15.667820  -0.057042 0.921690 0.383711  0.349620 0.034150 1 0 1.000000
misc
0  -44.737419 -146.921951 16.018826  0.567909 0.696808 0.438107  0.349620 0.034150 1 0 1.000000
0  -40.461151 -141.931961 2.566951  0.665630 0.627573 0.403844  0.349620 0.034150 1 0 1.000000
0  -42.461922 -139.146759 2.650659  0.780979 0.454648 0.428215  0.349620 0.034150 1 0 1.000000
misc
0  -42.461922 -139.146759 2.650659  0.780979 0.454648 0.428215  0.349620 0.034150 1 0 1.000000
0  -48.056690 -142.224548 16.156940  0.777167 0.460312 0.429096  0.349620 0.034150 1 0 1.000000
0  -44.737419 -146.921951 16.018826  0.567909 0.696808 0.438107  0.349620 0.034150 1 0 1.000000
misc
0  -18.239567 -146.844086 14.932722  -0.180632 0.923428 0.338605  0.349620 0.034150 1 0 1.000000
0  -20.044592 -142.431824 1.438205  -0.171580 0.928649 0.328894  0.349620 0.034150 1 0 1.000000
0  -33.227253 -144.349396 2.189049  0.044971 0.940977 0.335470  0.349620 0.034150 1 0 1.000000
misc
0  -33.227253 -144.349396 2.189049  0.044971 0.940977 0.335470  0.349620 0.034150 1 0 1.000000
0  -31.270504 -149.418747 15.667820  -0.057042 0.921690 0.383711  0.349620 0.034150 1 0 1.000000
0  -18.239567 -146.844086 14.932722  -0.180632 0.923428 0.338605  0.349620 0.034150 1 0 1.000000
misc
0  -40.692348 -148.653870 16.114532  0.270455 0.868670 0.415049  0.349620 0.034150 1 0 1.000000
0  -39.563759 -142.698502 2.524660  0.514127 0.781945 0.352471  0.349620 0.034150 1 0 1.000000
0  -40.461151 -141.931961 2.566951  0.665630 0.627573 0.403844  0.349620 0.034150 1 0 1.000000
misc
0  -40.461151 -141.931961 2.566951  0.665630 0.627573 0.403844  0.349620 0.034150 1 0 1.000000
0  -44.737419 -146.921951 16.018826  0.567909 0.696808 0.438107  0.349620 0.034150 1 0 1.000000
0  -40.692348 -148.653870 16.114532  0.270455 0.868670 0.415049  0.349620 0.034150 1 0 1.000000
misc
0  -48.056690 -142.224548 16.156940  0.777167 0.460312 0.429096  0.349620 0.034150 1 0 1.000000
0  -42.461922 -139.146759 2.650659  0.780979 0.454648 0.428215  0.349620 0.034150 1 0 1.000000
0  -43.487762 -136.982788 2.658768  0.889576 0.073342 0.450861  0.349620 0.034150 1 0 1.000000
misc
0  -43.487762 -136.982788 2.658768  0.889576 0.073342 0.450861  0.349620 0.034150 1 0 1.000000
0  -49.762638 -138.946960 16.219437  0.850944 0.293182 0.435819  0.349620 0.034150 1 0 1.000000
0  -48.056690 -142.224548 16.156940  0.777167 0.460312 0.429096  0.349620 0.034150 1 0 1.000000
misc
0  -36.126606 -149.472763 15.910423  0.094744 0.906473 0.411497  0.349620 0.034150 1 0 1.000000
0  -38.323624 -143.300629 2.461720  0.316919 0.888762 0.331156  0.349620 0.034150 1 0 1.000000
0  -39.563759 -142.698502 2.524660  0.514127 0.781945 0.352471  0.349620 0.034150 1 0 1.000000
misc
0  -39.563759 -142.698502 2.524660  0.514127 0.781945 0.352471  0.349620 0.034150 1 0 1.000000
0  -40.692348 -148.653870 16.114532  0.270455 0.868670 0.415049  0.349620 0.034150 1 0 1.000000
0  -36.126606 -149.472763 15.910423  0.094744 0.906473 0.411497  0.349620 0.034150 1 0 1.000000
misc
0  -48.005447 -136.400894 10.086257  -0.301582 0.953085 -0.026029  0.491226 0.023408 1 0 1.000000
0  -50.077190 -136.900024 16.065130  -0.298164 0.954226 -0.023469  0.492203 0.038057 1 0 1.000000
0  -42.896133 -134.980118 2.578653  -0.361676 0.929570 -0.071348  0.488296 0.005829 1 0 1.000000
misc
0  -42.896133 -134.980118 2.578653  -0.361676 0.929570 -0.071348  0.488296 0.005829 1 0 1.000000
0  -44.935940 -135.671143 4.421926  -0.388859 0.916664 -0.092284  0.489273 0.010712 1 0 1.000000
0  -48.005447 -136.400894 10.086257  -0.301582 0.953085 -0.026029  0.491226 0.023408 1 0 1.000000
misc
0  18.887974 -145.163605 3.010393  -0.044922 -0.615054 -0.787205  0.460952 0.010712 1 0 1.000000
0  17.698198 -148.303101 8.354889  -0.146851 -0.925664 -0.348685  0.460952 0.023408 1 0 1.000000
0  0.618290 -145.266373 6.678582  0.041772 -0.937611 -0.345167  0.469741 0.023408 1 0 1.000000
misc
0  0.618290 -145.266373 6.678582  0.041772 -0.937611 -0.345167  0.469741 0.023408 1 0 1.000000
0  0.082264 -142.175858 1.246593  0.031635 -0.579253 -0.814534  0.469741 0.010712 1 0 1.000000
0  18.887974 -145.163605 3.010393  -0.044922 -0.615054 -0.787205  0.460952 0.010712 1 0 1.000000
misc
0  0.364323 -141.700317 13.113602  0.008825 -0.123557 0.992298  0.469741 0.039033 1 0 1.000000
0  0.776451 -145.152283 12.679118  0.010274 -0.347015 0.937803  0.469741 0.038057 1 0 1.000000
0  17.412174 -148.248001 14.339650  -0.144920 -0.375775 0.915310  0.460952 0.038057 1 0 1.000000
misc
0  17.412174 -148.248001 14.339650  -0.144920 -0.375775 0.915310  0.460952 0.038057 1 0 1.000000
0  18.280159 -145.195572 14.863436  -0.101916 -0.139547 0.984957  0.460952 0.039033 1 0 1.000000
0  0.364323 -141.700317 13.113602  0.008825 -0.123557 0.992298  0.469741 0.039033 1 0 1.000000
misc
0  50.594067 -139.214371 15.912284  0.956538 -0.256963 0.137857  0.447279 0.037080 1 0 1.000000
0  49.488499 -138.531616 10.487312  0.934956 -0.051020 -0.351076  0.448256 0.023408 1 0 1.000000
0  48.590050 -136.204987 10.500451  0.896912 0.317693 -0.307604  0.449232 0.023408 1 0 1.000000
misc
0  48.590050 -136.204987 10.500451  0.896912 0.317693 -0.307604  0.449232 0.023408 1 0 1.000000
0  50.608387 -137.062454 16.456898  0.987582 0.032334 -0.153743  0.448256 0.038057 1 0 1.000000
0  50.594067 -139.214371 15.912284  0.956538 -0.256963 0.137857  0.447279 0.037080 1 0 1.000000
misc
0  49.488499 -138.531616 10.487312  0.934956 -0.051020 -0.351076  0.448256 0.023408 1 0 1.000000
0  45.928291 -137.052963 4.830235  0.767403 -0.086401 -0.635316  0.450209 0.010712 1 0 1.000000
0  45.586826 -135.075806 4.866215  0.769401 0.159849 -0.618442  0.451186 0.010712 1 0 1.000000
misc
0  45.586826 -135.075806 4.866215  0.769401 0.159849 -0.618442  0.451186 0.010712 1 0 1.000000
0  48.590050 -136.204987 10.500451  0.896912 0.317693 -0.307604  0.449232 0.023408 1 0 1.000000
0  49.488499 -138.531616 10.487312  0.934956 -0.051020 -0.351076  0.448256 0.023408 1 0 1.000000
misc
0  31.148243 -148.507050 15.512359  -0.073265 -0.166727 0.983277  0.455092 0.039033 1 0 1.000000
0  30.429157 -151.044937 15.025708  -0.090724 -0.422583 0.901772  0.455092 0.038057 1 0 1.000000
0  35.379974 -151.005417 15.317922  0.007981 -0.452753 0.891600  0.453139 0.038057 1 0 1.000000
misc
0  35.379974 -151.005417 15.317922  0.007981 -0.452753 0.891600  0.453139 0.038057 1 0 1.000000
0  35.993187 -148.836472 15.760300  -0.035769 -0.193886 0.980372  0.453139 0.039033 1 0 1.000000
0  31.148243 -148.507050 15.512359  -0.073265 -0.166727 0.983277  0.455092 0.039033 1 0 1.000000
misc
0  17.203638 -149.075165 13.669454  -0.208685 -0.905226 0.370158  0.460952 0.037080 1 0 1.000000
0  17.698198 -148.303101 8.354889  -0.146851 -0.925664 -0.348685  0.460952 0.023408 1 0 1.000000
0  30.751411 -151.024643 9.045215  -0.039761 -0.923155 -0.382366  0.455092 0.023408 1 0 1.000000
misc
0  30.751411 -151.024643 9.045215  -0.039761 -0.923155 -0.382366  0.455092 0.023408 1 0 1.000000
0  30.228302 -151.845657 14.356712  -0.110011 -0.934643 0.338141  0.455092 0.037080 1 0 1.000000
0  17.203638 -149.075165 13.669454  -0.208685 -0.905226 0.370158  0.460952 0.037080 1 0 1.000000
misc
0  18.280159 -145.195572 14.863436  -0.101916 -0.139547 0.984957  0.460952 0.039033 1 0 1.000000
0  17.412174 -148.248001 14.339650  -0.144920 -0.375775 0.915310  0.460952 0.038057 1 0 1.000000
0  30.429157 -151.044937 15.025708  -0.090724 -0.422583 0.901772  0.455092 0.038057 1 0 1.000000
misc
0  30.429157 -151.044937 15.025708  -0.090724 -0.422583 0.901772  0.455092 0.038057 1 0 1.000000
0  31.148243 -148.507050 15.512359  -0.073265 -0.166727 0.983277  0.455092 0.039033 1 0 1.000000
0  18.280159 -145.195572 14.863436  -0.101916 -0.139547 0.984957  0.460952 0.039033 1 0 1.000000
misc
0  30.228302 -151.845657 14.356712  -0.110011 -0.934643 0.338141  0.455092 0.037080 1 0 1.000000
0  30.751411 -151.024643 9.045215  -0.039761 -0.923155 -0.382366  0.455092 0.023408 1 0 1.000000
0  35.758129 -150.743607 9.347563  0.182839 -0.898877 -0.398234  0.453139 0.023408 1 0 1.000000
misc
0  35.758129 -150.743607 9.347563  0.182839 -0.898877 -0.398234  0.453139 0.023408 1 0 1.000000
0  35.186794 -151.779755 14.650127  0.097457 -0.942995 0.318218  0.453139 0.037080 1 0 1.000000
0  30.228302 -151.845657 14.356712  -0.110011 -0.934643 0.338141  0.455092 0.037080 1 0 1.000000
misc
0  40.349804 -149.767868 15.645220  0.173338 -0.487043 0.856004  0.451186 0.038057 1 0 1.000000
0  44.729885 -146.766968 15.987838  0.447565 -0.523905 0.724713  0.449232 0.038057 1 0 1.000000
0  40.595989 -148.277588 16.005398  0.049000 -0.239980 0.969540  0.451186 0.039033 1 0 1.000000
misc
0  40.156631 -150.542175 14.977426  0.354296 -0.891528 0.282228  0.451186 0.037080 1 0 1.000000
0  40.489304 -149.292816 9.666875  0.439594 -0.809893 -0.388370  0.451186 0.023408 1 0 1.000000
0  44.653259 -146.099640 10.002236  0.672873 -0.631774 -0.384842  0.449232 0.023408 1 0 1.000000
misc
0  44.653259 -146.099640 10.002236  0.672873 -0.631774 -0.384842  0.449232 0.023408 1 0 1.000000
0  45.066368 -147.295303 15.358159  0.644637 -0.717525 0.263819  0.449232 0.037080 1 0 1.000000
0  40.156631 -150.542175 14.977426  0.354296 -0.891528 0.282228  0.451186 0.037080 1 0 1.000000
misc
0  42.401299 -142.782715 4.460407  0.573752 -0.451080 -0.683619  0.451186 0.010712 1 0 1.000000
0  44.653259 -146.099640 10.002236  0.672873 -0.631774 -0.384842  0.449232 0.023408 1 0 1.000000
0  40.489304 -149.292816 9.666875  0.439594 -0.809893 -0.388370  0.451186 0.023408 1 0 1.000000
misc
0  40.489304 -149.292816 9.666875  0.439594 -0.809893 -0.388370  0.451186 0.023408 1 0 1.000000
0  40.355278 -144.748062 4.284386  0.434538 -0.556211 -0.708382  0.452162 0.010712 1 0 1.000000
0  42.401299 -142.782715 4.460407  0.573752 -0.451080 -0.683619  0.451186 0.010712 1 0 1.000000
misc
0  45.066368 -147.295303 15.358159  0.644637 -0.717525 0.263819  0.449232 0.037080 1 0 1.000000
0  44.653259 -146.099640 10.002236  0.672873 -0.631774 -0.384842  0.449232 0.023408 1 0 1.000000
0  47.876831 -141.612930 10.305188  0.792844 -0.467734 -0.390670  0.449232 0.023408 1 0 1.000000
misc
0  47.876831 -141.612930 10.305188  0.792844 -0.467734 -0.390670  0.449232 0.023408 1 0 1.000000
0  48.709408 -142.545242 15.707035  0.805102 -0.549399 0.223545  0.448256 0.037080 1 0 1.000000
0  45.066368 -147.295303 15.358159  0.644637 -0.717525 0.263819  0.449232 0.037080 1 0 1.000000
misc
0  45.928291 -137.052963 4.830235  0.767403 -0.086401 -0.635316  0.450209 0.010712 1 0 1.000000
0  49.488499 -138.531616 10.487312  0.934956 -0.051020 -0.351076  0.448256 0.023408 1 0 1.000000
0  47.876831 -141.612930 10.305188  0.792844 -0.467734 -0.390670  0.449232 0.023408 1 0 1.000000
misc
0  47.876831 -141.612930 10.305188  0.792844 -0.467734 -0.390670  0.449232 0.023408 1 0 1.000000
0  44.748680 -139.386826 4.694708  0.657734 -0.353971 -0.664899  0.450209 0.010712 1 0 1.000000
0  45.928291 -137.052963 4.830235  0.767403 -0.086401 -0.635316  0.450209 0.010712 1 0 1.000000
misc
0  49.488499 -138.531616 10.487312  0.934956 -0.051020 -0.351076  0.448256 0.023408 1 0 1.000000
0  50.594067 -139.214371 15.912284  0.956538 -0.256963 0.137857  0.447279 0.037080 1 0 1.000000
0  48.709408 -142.545242 15.707035  0.805102 -0.549399 0.223545  0.448256 0.037080 1 0 1.000000
misc
0  48.709408 -142.545242 15.707035  0.805102 -0.549399 0.223545  0.448256 0.037080 1 0 1.000000
0  47.876831 -141.612930 10.305188  0.792844 -0.467734 -0.390670  0.449232 0.023408 1 0 1.000000
0  49.488499 -138.531616 10.487312  0.934956 -0.051020 -0.351076  0.448256 0.023408 1 0 1.000000
misc
0  0.864647 -146.019836 12.033833  0.027659 -0.923815 0.381839  0.469741 0.037080 1 0 1.000000
0  0.618290 -145.266373 6.678582  0.041772 -0.937611 -0.345167  0.469741 0.023408 1 0 1.000000
0  17.698198 -148.303101 8.354889  -0.146851 -0.925664 -0.348685  0.460952 0.023408 1 0 1.000000
misc
0  17.698198 -148.303101 8.354889  -0.146851 -0.925664 -0.348685  0.460952 0.023408 1 0 1.000000
0  17.203638 -149.075165 13.669454  -0.208685 -0.905226 0.370158  0.460952 0.037080 1 0 1.000000
0  0.864647 -146.019836 12.033833  0.027659 -0.923815 0.381839  0.469741 0.037080 1 0 1.000000
misc
0  17.698198 -148.303101 8.354889  -0.146851 -0.925664 -0.348685  0.460952 0.023408 1 0 1.000000
0  18.887974 -145.163605 3.010393  -0.044922 -0.615054 -0.787205  0.460952 0.010712 1 0 1.000000
0  32.100746 -147.287094 3.727057  0.056116 -0.634984 -0.770484  0.455092 0.010712 1 0 1.000000
misc
0  32.100746 -147.287094 3.727057  0.056116 -0.634984 -0.770484  0.455092 0.010712 1 0 1.000000
0  30.751411 -151.024643 9.045215  -0.039761 -0.923155 -0.382366  0.455092 0.023408 1 0 1.000000
0  17.698198 -148.303101 8.354889  -0.146851 -0.925664 -0.348685  0.460952 0.023408 1 0 1.000000
misc
0  30.751411 -151.024643 9.045215  -0.039761 -0.923155 -0.382366  0.455092 0.023408 1 0 1.000000
0  32.100746 -147.287094 3.727057  0.056116 -0.634984 -0.770484  0.455092 0.010712 1 0 1.000000
0  37.333954 -146.227005 4.064809  0.251654 -0.615390 -0.746971  0.453139 0.010712 1 0 1.000000
misc
0  37.333954 -146.227005 4.064809  0.251654 -0.615390 -0.746971  0.453139 0.010712 1 0 1.000000
0  35.758129 -150.743607 9.347563  0.182839 -0.898877 -0.398234  0.453139 0.023408 1 0 1.000000
0  30.751411 -151.024643 9.045215  -0.039761 -0.923155 -0.382366  0.455092 0.023408 1 0 1.000000
misc
0  44.653259 -146.099640 10.002236  0.672873 -0.631774 -0.384842  0.449232 0.023408 1 0 1.000000
0  42.401299 -142.782715 4.460407  0.573752 -0.451080 -0.683619  0.451186 0.010712 1 0 1.000000
0  44.748680 -139.386826 4.694708  0.657734 -0.353971 -0.664899  0.450209 0.010712 1 0 1.000000
misc
0  44.748680 -139.386826 4.694708  0.657734 -0.353971 -0.664899  0.450209 0.010712 1 0 1.000000
0  47.876831 -141.612930 10.305188  0.792844 -0.467734 -0.390670  0.449232 0.023408 1 0 1.000000
0  44.653259 -146.099640 10.002236  0.672873 -0.631774 -0.384842  0.449232 0.023408 1 0 1.000000
misc
0  35.993187 -148.836472 15.760300  -0.035769 -0.193886 0.980372  0.453139 0.039033 1 0 1.000000
0  35.379974 -151.005417 15.317922  0.007981 -0.452753 0.891600  0.453139 0.038057 1 0 1.000000
0  40.349804 -149.767868 15.645220  0.173338 -0.487043 0.856004  0.451186 0.038057 1 0 1.000000
misc
0  40.349804 -149.767868 15.645220  0.173338 -0.487043 0.856004  0.451186 0.038057 1 0 1.000000
0  40.595989 -148.277588 16.005398  0.049000 -0.239980 0.969540  0.451186 0.039033 1 0 1.000000
0  35.993187 -148.836472 15.760300  -0.035769 -0.193886 0.980372  0.453139 0.039033 1 0 1.000000
misc
0  35.186794 -151.779755 14.650127  0.097457 -0.942995 0.318218  0.453139 0.037080 1 0 1.000000
0  35.758129 -150.743607 9.347563  0.182839 -0.898877 -0.398234  0.453139 0.023408 1 0 1.000000
0  40.489304 -149.292816 9.666875  0.439594 -0.809893 -0.388370  0.451186 0.023408 1 0 1.000000
misc
0  40.489304 -149.292816 9.666875  0.439594 -0.809893 -0.388370  0.451186 0.023408 1 0 1.000000
0  40.156631 -150.542175 14.977426  0.354296 -0.891528 0.282228  0.451186 0.037080 1 0 1.000000
0  35.186794 -151.779755 14.650127  0.097457 -0.942995 0.318218  0.453139 0.037080 1 0 1.000000
misc
0  35.758129 -150.743607 9.347563  0.182839 -0.898877 -0.398234  0.453139 0.023408 1 0 1.000000
0  37.333954 -146.227005 4.064809  0.251654 -0.615390 -0.746971  0.453139 0.010712 1 0 1.000000
0  40.355278 -144.748062 4.284386  0.434538 -0.556211 -0.708382  0.452162 0.010712 1 0 1.000000
misc
0  40.355278 -144.748062 4.284386  0.434538 -0.556211 -0.708382  0.452162 0.010712 1 0 1.000000
0  40.489304 -149.292816 9.666875  0.439594 -0.809893 -0.388370  0.451186 0.023408 1 0 1.000000
0  35.758129 -150.743607 9.347563  0.182839 -0.898877 -0.398234  0.453139 0.023408 1 0 1.000000
misc
0  0.776451 -145.152283 12.679118  0.010274 -0.347015 0.937803  0.469741 0.038057 1 0 1.000000
0  0.864647 -146.019836 12.033833  0.027659 -0.923815 0.381839  0.469741 0.037080 1 0 1.000000
0  17.203638 -149.075165 13.669454  -0.208685 -0.905226 0.370158  0.460952 0.037080 1 0 1.000000
misc
0  17.203638 -149.075165 13.669454  -0.208685 -0.905226 0.370158  0.460952 0.037080 1 0 1.000000
0  17.412174 -148.248001 14.339650  -0.144920 -0.375775 0.915310  0.460952 0.038057 1 0 1.000000
0  0.776451 -145.152283 12.679118  0.010274 -0.347015 0.937803  0.469741 0.038057 1 0 1.000000
misc
0  30.228302 -151.845657 14.356712  -0.110011 -0.934643 0.338141  0.455092 0.037080 1 0 1.000000
0  30.429157 -151.044937 15.025708  -0.090724 -0.422583 0.901772  0.455092 0.038057 1 0 1.000000
0  17.412174 -148.248001 14.339650  -0.144920 -0.375775 0.915310  0.460952 0.038057 1 0 1.000000
misc
0  17.412174 -148.248001 14.339650  -0.144920 -0.375775 0.915310  0.460952 0.038057 1 0 1.000000
0  17.203638 -149.075165 13.669454  -0.208685 -0.905226 0.370158  0.460952 0.037080 1 0 1.000000
0  30.228302 -151.845657 14.356712  -0.110011 -0.934643 0.338141  0.455092 0.037080 1 0 1.000000
misc
0  35.186794 -151.779755 14.650127  0.097457 -0.942995 0.318218  0.453139 0.037080 1 0 1.000000
0  35.379974 -151.005417 15.317922  0.007981 -0.452753 0.891600  0.453139 0.038057 1 0 1.000000
0  30.429157 -151.044937 15.025708  -0.090724 -0.422583 0.901772  0.455092 0.038057 1 0 1.000000
misc
0  30.429157 -151.044937 15.025708  -0.090724 -0.422583 0.901772  0.455092 0.038057 1 0 1.000000
0  30.228302 -151.845657 14.356712  -0.110011 -0.934643 0.338141  0.455092 0.037080 1 0 1.000000
0  35.186794 -151.779755 14.650127  0.097457 -0.942995 0.318218  0.453139 0.037080 1 0 1.000000
misc
0  40.156631 -150.542175 14.977426  0.354296 -0.891528 0.282228  0.451186 0.037080 1 0 1.000000
0  40.349804 -149.767868 15.645220  0.173338 -0.487043 0.856004  0.451186 0.038057 1 0 1.000000
0  35.379974 -151.005417 15.317922  0.007981 -0.452753 0.891600  0.453139 0.038057 1 0 1.000000
misc
0  35.379974 -151.005417 15.317922  0.007981 -0.452753 0.891600  0.453139 0.038057 1 0 1.000000
0  35.186794 -151.779755 14.650127  0.097457 -0.942995 0.318218  0.453139 0.037080 1 0 1.000000
0  40.156631 -150.542175 14.977426  0.354296 -0.891528 0.282228  0.451186 0.037080 1 0 1.000000
misc
0  45.066368 -147.295303 15.358159  0.644637 -0.717525 0.263819  0.449232 0.037080 1 0 1.000000
0  44.729885 -146.766968 15.987838  0.447565 -0.523905 0.724713  0.449232 0.038057 1 0 1.000000
0  40.349804 -149.767868 15.645220  0.173338 -0.487043 0.856004  0.451186 0.038057 1 0 1.000000
misc
0  40.349804 -149.767868 15.645220  0.173338 -0.487043 0.856004  0.451186 0.038057 1 0 1.000000
0  40.156631 -150.542175 14.977426  0.354296 -0.891528 0.282228  0.451186 0.037080 1 0 1.000000
0  45.066368 -147.295303 15.358159  0.644637 -0.717525 0.263819  0.449232 0.037080 1 0 1.000000
misc
0  48.709408 -142.545242 15.707035  0.805102 -0.549399 0.223545  0.448256 0.037080 1 0 1.000000
0  48.299988 -142.267807 16.325312  0.628590 -0.463851 0.624273  0.448256 0.038057 1 0 1.000000
0  44.729885 -146.766968 15.987838  0.447565 -0.523905 0.724713  0.449232 0.038057 1 0 1.000000
misc
0  44.729885 -146.766968 15.987838  0.447565 -0.523905 0.724713  0.449232 0.038057 1 0 1.000000
0  45.066368 -147.295303 15.358159  0.644637 -0.717525 0.263819  0.449232 0.037080 1 0 1.000000
0  48.709408 -142.545242 15.707035  0.805102 -0.549399 0.223545  0.448256 0.037080 1 0 1.000000
misc
0  48.299988 -142.267807 16.325312  0.628590 -0.463851 0.624273  0.448256 0.038057 1 0 1.000000
0  48.709408 -142.545242 15.707035  0.805102 -0.549399 0.223545  0.448256 0.037080 1 0 1.000000
0  50.594067 -139.214371 15.912284  0.956538 -0.256963 0.137857  0.447279 0.037080 1 0 1.000000
misc
0  50.594067 -139.214371 15.912284  0.956538 -0.256963 0.137857  0.447279 0.037080 1 0 1.000000
0  50.182007 -139.093765 16.525959  0.761012 -0.307231 0.571376  0.448256 0.038057 1 0 1.000000
0  48.299988 -142.267807 16.325312  0.628590 -0.463851 0.624273  0.448256 0.038057 1 0 1.000000
misc
0  50.608387 -137.062454 16.456898  0.987582 0.032334 -0.153743  0.448256 0.038057 1 0 1.000000
0  50.182007 -139.093765 16.525959  0.761012 -0.307231 0.571376  0.448256 0.038057 1 0 1.000000
0  50.594067 -139.214371 15.912284  0.956538 -0.256963 0.137857  0.447279 0.037080 1 0 1.000000
misc
0  20.375324 -140.336624 1.565730  0.015919 -0.289223 -0.957129  0.460952 0.006806 1 0 1.000000
0  18.887974 -145.163605 3.010393  -0.044922 -0.615054 -0.787205  0.460952 0.010712 1 0 1.000000
0  0.082264 -142.175858 1.246593  0.031635 -0.579253 -0.814534  0.469741 0.010712 1 0 1.000000
misc
0  0.082264 -142.175858 1.246593  0.031635 -0.579253 -0.814534  0.469741 0.010712 1 0 1.000000
0  -0.609056 -136.926376 -0.343373  0.013461 -0.290595 -0.956751  0.469741 0.006806 1 0 1.000000
0  20.375324 -140.336624 1.565730  0.015919 -0.289223 -0.957129  0.460952 0.006806 1 0 1.000000
misc
0  44.076035 -136.232590 3.048032  0.681662 -0.027324 -0.731157  0.451186 0.005829 1 0 1.000000
0  45.928291 -137.052963 4.830235  0.767403 -0.086401 -0.635316  0.450209 0.010712 1 0 1.000000
0  44.748680 -139.386826 4.694708  0.657734 -0.353971 -0.664899  0.450209 0.010712 1 0 1.000000
misc
0  44.748680 -139.386826 4.694708  0.657734 -0.353971 -0.664899  0.450209 0.010712 1 0 1.000000
0  42.933678 -138.335037 2.948842  0.549919 -0.304993 -0.777540  0.451186 0.006806 1 0 1.000000
0  44.076035 -136.232590 3.048032  0.681662 -0.027324 -0.731157  0.451186 0.005829 1 0 1.000000
misc
0  43.594887 -134.198944 3.049815  0.710957 0.155211 -0.685893  0.452162 0.005829 1 0 1.000000
0  45.586826 -135.075806 4.866215  0.769401 0.159849 -0.618442  0.451186 0.010712 1 0 1.000000
0  45.928291 -137.052963 4.830235  0.767403 -0.086401 -0.635316  0.450209 0.010712 1 0 1.000000
misc
0  45.928291 -137.052963 4.830235  0.767403 -0.086401 -0.635316  0.450209 0.010712 1 0 1.000000
0  44.076035 -136.232590 3.048032  0.681662 -0.027324 -0.731157  0.451186 0.005829 1 0 1.000000
0  43.594887 -134.198944 3.049815  0.710957 0.155211 -0.685893  0.452162 0.005829 1 0 1.000000
misc
0  18.887974 -145.163605 3.010393  -0.044922 -0.615054 -0.787205  0.460952 0.010712 1 0 1.000000
0  20.375324 -140.336624 1.565730  0.015919 -0.289223 -0.957129  0.460952 0.006806 1 0 1.000000
0  33.430702 -143.001495 2.257792  0.069655 -0.343960 -0.936397  0.455092 0.006806 1 0 1.000000
misc
0  33.430702 -143.001495 2.257792  0.069655 -0.343960 -0.936397  0.455092 0.006806 1 0 1.000000
0  32.100746 -147.287094 3.727057  0.056116 -0.634984 -0.770484  0.455092 0.010712 1 0 1.000000
0  18.887974 -145.163605 3.010393  -0.044922 -0.615054 -0.787205  0.460952 0.010712 1 0 1.000000
misc
0  33.430702 -143.001495 2.257792  0.069655 -0.343960 -0.936397  0.455092 0.006806 1 0 1.000000
0  38.575626 -142.245071 2.581742  0.200849 -0.403587 -0.892624  0.453139 0.006806 1 0 1.000000
0  37.333954 -146.227005 4.064809  0.251654 -0.615390 -0.746971  0.453139 0.010712 1 0 1.000000
misc
0  37.333954 -146.227005 4.064809  0.251654 -0.615390 -0.746971  0.453139 0.010712 1 0 1.000000
0  32.100746 -147.287094 3.727057  0.056116 -0.634984 -0.770484  0.455092 0.010712 1 0 1.000000
0  33.430702 -143.001495 2.257792  0.069655 -0.343960 -0.936397  0.455092 0.006806 1 0 1.000000
misc
0  40.355278 -144.748062 4.284386  0.434538 -0.556211 -0.708382  0.452162 0.010712 1 0 1.000000
0  39.846519 -141.714783 2.671503  0.314237 -0.402187 -0.859942  0.452162 0.006806 1 0 1.000000
0  40.784237 -141.000839 2.746879  0.444312 -0.358544 -0.820995  0.452162 0.006806 1 0 1.000000
misc
0  40.784237 -141.000839 2.746879  0.444312 -0.358544 -0.820995  0.452162 0.006806 1 0 1.000000
0  42.401299 -142.782715 4.460407  0.573752 -0.451080 -0.683619  0.451186 0.010712 1 0 1.000000
0  40.355278 -144.748062 4.284386  0.434538 -0.556211 -0.708382  0.452162 0.010712 1 0 1.000000
misc
0  42.933678 -138.335037 2.948842  0.549919 -0.304993 -0.777540  0.451186 0.006806 1 0 1.000000
0  44.748680 -139.386826 4.694708  0.657734 -0.353971 -0.664899  0.450209 0.010712 1 0 1.000000
0  42.401299 -142.782715 4.460407  0.573752 -0.451080 -0.683619  0.451186 0.010712 1 0 1.000000
misc
0  42.401299 -142.782715 4.460407  0.573752 -0.451080 -0.683619  0.451186 0.010712 1 0 1.000000
0  40.784237 -141.000839 2.746879  0.444312 -0.358544 -0.820995  0.452162 0.006806 1 0 1.000000
0  42.933678 -138.335037 2.948842  0.549919 -0.304993 -0.777540  0.451186 0.006806 1 0 1.000000
misc
0  38.575626 -142.245071 2.581742  0.200849 -0.403587 -0.892624  0.453139 0.006806 1 0 1.000000
0  39.846519 -141.714783 2.671503  0.314237 -0.402187 -0.859942  0.452162 0.006806 1 0 1.000000
0  40.355278 -144.748062 4.284386  0.434538 -0.556211 -0.708382  0.452162 0.010712 1 0 1.000000
misc
0  40.355278 -144.748062 4.284386  0.434538 -0.556211 -0.708382  0.452162 0.010712 1 0 1.000000
0  37.333954 -146.227005 4.064809  0.251654 -0.615390 -0.746971  0.453139 0.010712 1 0 1.000000
0  38.575626 -142.245071 2.581742  0.200849 -0.403587 -0.892624  0.453139 0.006806 1 0 1.000000
misc
0  -0.609056 -136.926376 -0.343373  -0.052394 0.937421 0.344233  0.349620 0.034150 1 0 1.000000
0  0.364323 -141.700317 13.113602  -0.031604 0.941979 0.334181  0.349620 0.034150 1 0 1.000000
0  18.280159 -145.195572 14.863436  0.172678 0.918894 0.354705  0.349620 0.034150 1 0 1.000000
misc
0  18.280159 -145.195572 14.863436  0.172678 0.918894 0.354705  0.349620 0.034150 1 0 1.000000
0  20.375324 -140.336624 1.565730  0.153174 0.915744 0.371418  0.349620 0.034150 1 0 1.000000
0  -0.609056 -136.926376 -0.343373  -0.052394 0.937421 0.344233  0.349620 0.034150 1 0 1.000000
misc
0  50.608387 -137.062454 16.456898  -0.882591 0.166436 0.439696  0.349620 0.034150 1 0 1.000000
0  43.594887 -134.198944 3.049815  -0.883736 -0.212086 0.417170  0.349620 0.034150 1 0 1.000000
0  44.076035 -136.232590 3.048032  -0.885005 0.101310 0.454425  0.349620 0.034150 1 0 1.000000
misc
0  44.076035 -136.232590 3.048032  -0.885005 0.101310 0.454425  0.349620 0.034150 1 0 1.000000
0  50.182007 -139.093765 16.525959  -0.836381 0.320502 0.444685  0.349620 0.034150 1 0 1.000000
0  50.608387 -137.062454 16.456898  -0.882591 0.166436 0.439696  0.349620 0.034150 1 0 1.000000
misc
0  33.430702 -143.001495 2.257792  0.013399 0.911082 0.412008  0.349620 0.034150 1 0 1.000000
0  31.148243 -148.507050 15.512359  0.118954 0.914306 0.387163  0.349620 0.034150 1 0 1.000000
0  35.993187 -148.836472 15.760300  -0.059507 0.910405 0.409416  0.349620 0.034150 1 0 1.000000
misc
0  35.993187 -148.836472 15.760300  -0.059507 0.910405 0.409416  0.349620 0.034150 1 0 1.000000
0  38.575626 -142.245071 2.581742  -0.259234 0.867350 0.424855  0.349620 0.034150 1 0 1.000000
0  33.430702 -143.001495 2.257792  0.013399 0.911082 0.412008  0.349620 0.034150 1 0 1.000000
misc
0  40.784237 -141.000839 2.746879  -0.644122 0.613010 0.457521  0.349620 0.034150 1 0 1.000000
0  44.729885 -146.766968 15.987838  -0.539162 0.708049 0.456038  0.349620 0.034150 1 0 1.000000
0  48.299988 -142.267807 16.325312  -0.751997 0.486007 0.445306  0.349620 0.034150 1 0 1.000000
misc
0  48.299988 -142.267807 16.325312  -0.751997 0.486007 0.445306  0.349620 0.034150 1 0 1.000000
0  42.933678 -138.335037 2.948842  -0.754113 0.481367 0.446765  0.349620 0.034150 1 0 1.000000
0  40.784237 -141.000839 2.746879  -0.644122 0.613010 0.457521  0.349620 0.034150 1 0 1.000000
misc
0  20.375324 -140.336624 1.565730  0.153174 0.915744 0.371418  0.349620 0.034150 1 0 1.000000
0  18.280159 -145.195572 14.863436  0.172678 0.918894 0.354705  0.349620 0.034150 1 0 1.000000
0  31.148243 -148.507050 15.512359  0.118954 0.914306 0.387163  0.349620 0.034150 1 0 1.000000
misc
0  31.148243 -148.507050 15.512359  0.118954 0.914306 0.387163  0.349620 0.034150 1 0 1.000000
0  33.430702 -143.001495 2.257792  0.013399 0.911082 0.412008  0.349620 0.034150 1 0 1.000000
0  20.375324 -140.336624 1.565730  0.153174 0.915744 0.371418  0.349620 0.034150 1 0 1.000000
misc
0  39.846519 -141.714783 2.671503  -0.456815 0.768375 0.448241  0.349620 0.034150 1 0 1.000000
0  40.595989 -148.277588 16.005398  -0.226053 0.873919 0.430309  0.349620 0.034150 1 0 1.000000
0  44.729885 -146.766968 15.987838  -0.539162 0.708049 0.456038  0.349620 0.034150 1 0 1.000000
misc
0  44.729885 -146.766968 15.987838  -0.539162 0.708049 0.456038  0.349620 0.034150 1 0 1.000000
0  40.784237 -141.000839 2.746879  -0.644122 0.613010 0.457521  0.349620 0.034150 1 0 1.000000
0  39.846519 -141.714783 2.671503  -0.456815 0.768375 0.448241  0.349620 0.034150 1 0 1.000000
misc
0  42.933678 -138.335037 2.948842  -0.754113 0.481367 0.446765  0.349620 0.034150 1 0 1.000000
0  48.299988 -142.267807 16.325312  -0.751997 0.486007 0.445306  0.349620 0.034150 1 0 1.000000
0  50.182007 -139.093765 16.525959  -0.836381 0.320502 0.444685  0.349620 0.034150 1 0 1.000000
misc
0  50.182007 -139.093765 16.525959  -0.836381 0.320502 0.444685  0.349620 0.034150 1 0 1.000000
0  44.076035 -136.232590 3.048032  -0.885005 0.101310 0.454425  0.349620 0.034150 1 0 1.000000
0  42.933678 -138.335037 2.948842  -0.754113 0.481367 0.446765  0.349620 0.034150 1 0 1.000000
misc
0  38.575626 -142.245071 2.581742  -0.259234 0.867350 0.424855  0.349620 0.034150 1 0 1.000000
0  35.993187 -148.836472 15.760300  -0.059507 0.910405 0.409416  0.349620 0.034150 1 0 1.000000
0  40.595989 -148.277588 16.005398  -0.226053 0.873919 0.430309  0.349620 0.034150 1 0 1.000000
misc
0  40.595989 -148.277588 16.005398  -0.226053 0.873919 0.430309  0.349620 0.034150 1 0 1.000000
0  39.846519 -141.714783 2.671503  -0.456815 0.768375 0.448241  0.349620 0.034150 1 0 1.000000
0  38.575626 -142.245071 2.581742  -0.259234 0.867350 0.424855  0.349620 0.034150 1 0 1.000000
misc
0  48.590050 -136.204987 10.500451  0.353241 0.935430 0.013843  0.449232 0.023408 1 0 1.000000
0  45.586826 -135.075806 4.866215  0.438595 0.897078 -0.053721  0.451186 0.010712 1 0 1.000000
0  43.594887 -134.198944 3.049815  0.412082 0.910574 -0.032306  0.452162 0.005829 1 0 1.000000
misc
0  43.594887 -134.198944 3.049815  0.412082 0.910574 -0.032306  0.452162 0.005829 1 0 1.000000
0  50.608387 -137.062454 16.456898  0.349839 0.936665 0.016460  0.448256 0.038057 1 0 1.000000
0  48.590050 -136.204987 10.500451  0.353241 0.935430 0.013843  0.449232 0.023408 1 0 1.000000
misc
0  -32.368984 -153.534698 12.198790  -0.423727 0.313491 0.849811  0.337901 0.444319 1 0 1.000000
0  -27.509974 -152.406036 11.917887  0.337116 0.488697 0.804691  0.337901 0.436506 1 0 1.000000
0  -28.045662 -151.200638 11.411921  0.223763 0.687636 0.690714  0.333995 0.437483 1 0 1.000000
misc
0  -28.045662 -151.200638 11.411921  0.223763 0.687636 0.690714  0.333995 0.437483 1 0 1.000000
0  -32.462944 -152.226700 11.667288  -0.421254 0.539663 0.728909  0.333995 0.444319 1 0 1.000000
0  -32.368984 -153.534698 12.198790  -0.423727 0.313491 0.849811  0.337901 0.444319 1 0 1.000000
misc
0  -32.626896 -153.580383 7.553988  -0.515656 0.297922 -0.803332  0.337901 0.422834 1 0 1.000000
0  -32.662865 -152.262085 8.066878  -0.499961 0.525732 -0.688219  0.333995 0.422834 1 0 1.000000
0  -28.245581 -151.236023 7.811512  0.145217 0.673708 -0.724589  0.333995 0.430647 1 0 1.000000
misc
0  -28.245581 -151.236023 7.811512  0.145217 0.673708 -0.724589  0.333995 0.430647 1 0 1.000000
0  -27.767885 -152.451691 7.273085  0.245507 0.471945 -0.846755  0.337901 0.430647 1 0 1.000000
0  -32.626896 -153.580383 7.553988  -0.515656 0.297922 -0.803332  0.337901 0.422834 1 0 1.000000
misc
0  -32.898594 -153.655823 11.609029  -0.915382 0.232360 0.328763  0.337901 0.415998 1 0 1.000000
0  -32.551712 -152.232895 11.575775  -0.797845 0.498503 0.339025  0.333995 0.416974 1 0 1.000000
0  -32.740948 -152.266403 8.167757  -0.831138 0.492410 -0.258344  0.333995 0.421857 1 0 1.000000
misc
0  -32.740948 -152.266403 8.167757  -0.831138 0.492410 -0.258344  0.333995 0.421857 1 0 1.000000
0  -33.087830 -153.689331 8.201011  -0.946063 0.227562 -0.230608  0.337901 0.421857 1 0 1.000000
0  -32.898594 -153.655823 11.609029  -0.915382 0.232360 0.328763  0.337901 0.415998 1 0 1.000000
misc
0  -27.062422 -152.300171 11.271635  0.756353 0.612635 0.229365  0.337901 0.436506 1 0 1.000000
0  -27.251659 -152.333694 7.863616  0.725677 0.607211 -0.323555  0.337901 0.430647 1 0 1.000000
0  -28.176420 -151.206131 7.903877  0.503358 0.797466 -0.332685  0.333995 0.430647 1 0 1.000000
misc
0  -28.176420 -151.206131 7.903877  0.503358 0.797466 -0.332685  0.333995 0.430647 1 0 1.000000
0  -27.987186 -151.172623 11.311896  0.536209 0.803303 0.259199  0.333995 0.436506 1 0 1.000000
0  -27.062422 -152.300171 11.271635  0.756353 0.612635 0.229365  0.337901 0.436506 1 0 1.000000
misc
0  -28.045662 -151.200638 11.411921  0.223763 0.687636 0.690714  0.333995 0.437483 1 0 1.000000
0  -27.509974 -152.406036 11.917887  0.337116 0.488697 0.804691  0.337901 0.436506 1 0 1.000000
0  -27.062422 -152.300171 11.271635  0.756353 0.612635 0.229365  0.337901 0.436506 1 0 1.000000
misc
0  -27.062422 -152.300171 11.271635  0.756353 0.612635 0.229365  0.337901 0.436506 1 0 1.000000
0  -27.987186 -151.172623 11.311896  0.536209 0.803303 0.259199  0.333995 0.436506 1 0 1.000000
0  -28.045662 -151.200638 11.411921  0.223763 0.687636 0.690714  0.333995 0.437483 1 0 1.000000
misc
0  -32.551712 -152.232895 11.575775  -0.797845 0.498503 0.339025  0.333995 0.445296 1 0 1.000000
0  -32.898594 -153.655823 11.609029  -0.915382 0.232360 0.328763  0.337901 0.444319 1 0 1.000000
0  -32.368984 -153.534698 12.198790  -0.423727 0.313491 0.849811  0.337901 0.444319 1 0 1.000000
misc
0  -32.368984 -153.534698 12.198790  -0.423727 0.313491 0.849811  0.337901 0.444319 1 0 1.000000
0  -32.462944 -152.226700 11.667288  -0.421254 0.539663 0.728909  0.333995 0.444319 1 0 1.000000
0  -32.551712 -152.232895 11.575775  -0.797845 0.498503 0.339025  0.333995 0.445296 1 0 1.000000
misc
0  -28.176420 -151.206131 7.903877  0.503358 0.797466 -0.332685  0.333995 0.430647 1 0 1.000000
0  -27.251659 -152.333694 7.863616  0.725677 0.607211 -0.323555  0.337901 0.430647 1 0 1.000000
0  -27.767885 -152.451691 7.273085  0.245507 0.471945 -0.846755  0.337901 0.430647 1 0 1.000000
misc
0  -27.767885 -152.451691 7.273085  0.245507 0.471945 -0.846755  0.337901 0.430647 1 0 1.000000
0  -28.245581 -151.236023 7.811512  0.145217 0.673708 -0.724589  0.333995 0.430647 1 0 1.000000
0  -28.176420 -151.206131 7.903877  0.503358 0.797466 -0.332685  0.333995 0.430647 1 0 1.000000
misc
0  -32.662865 -152.262085 8.066878  -0.499961 0.525732 -0.688219  0.333995 0.422834 1 0 1.000000
0  -32.626896 -153.580383 7.553988  -0.515656 0.297922 -0.803332  0.337901 0.422834 1 0 1.000000
0  -33.087830 -153.689331 8.201011  -0.946063 0.227562 -0.230608  0.337901 0.421857 1 0 1.000000
misc
0  -33.087830 -153.689331 8.201011  -0.946063 0.227562 -0.230608  0.337901 0.421857 1 0 1.000000
0  -32.740948 -152.266403 8.167757  -0.831138 0.492410 -0.258344  0.333995 0.421857 1 0 1.000000
0  -32.662865 -152.262085 8.066878  -0.499961 0.525732 -0.688219  0.333995 0.422834 1 0 1.000000
misc
0  -27.767885 -152.451691 7.273085  0.458757 -0.446329 -0.768331  0.337901 0.430647 1 0 1.000000
0  -27.251659 -152.333694 7.863616  0.872929 -0.346804 -0.343106  0.337901 0.430647 1 0 1.000000
0  -27.418148 -152.966415 8.072083  0.890082 -0.340093 -0.303465  0.338878 0.431623 1 0 1.000000
misc
0  -27.418148 -152.966415 8.072083  0.890082 -0.340093 -0.303465  0.338878 0.431623 1 0 1.000000
0  -27.862101 -153.067947 7.573875  0.388555 -0.453892 -0.801877  0.338878 0.429670 1 0 1.000000
0  -27.767885 -152.451691 7.273085  0.458757 -0.446329 -0.768331  0.337901 0.430647 1 0 1.000000
misc
0  -27.862101 -153.067947 7.573875  0.388555 -0.453892 -0.801877  0.338878 0.429670 1 0 1.000000
0  -32.225842 -154.081558 7.826146  -0.230445 -0.597413 -0.768110  0.338878 0.422834 1 0 1.000000
0  -32.626896 -153.580383 7.553988  -0.292337 -0.626349 -0.722653  0.337901 0.422834 1 0 1.000000
misc
0  -32.626896 -153.580383 7.553988  -0.292337 -0.626349 -0.722653  0.337901 0.422834 1 0 1.000000
0  -27.767885 -152.451691 7.273085  0.458757 -0.446329 -0.768331  0.337901 0.430647 1 0 1.000000
0  -27.862101 -153.067947 7.573875  0.388555 -0.453892 -0.801877  0.338878 0.429670 1 0 1.000000
misc
0  -32.225842 -154.081558 7.826146  -0.230445 -0.597413 -0.768110  0.338878 0.422834 1 0 1.000000
0  -32.638569 -154.179031 8.373879  -0.669568 -0.709392 -0.220095  0.338878 0.421857 1 0 1.000000
0  -33.087830 -153.689331 8.201011  -0.653347 -0.711724 -0.258044  0.337901 0.421857 1 0 1.000000
misc
0  -33.087830 -153.689331 8.201011  -0.653347 -0.711724 -0.258044  0.337901 0.421857 1 0 1.000000
0  -32.626896 -153.580383 7.553988  -0.292337 -0.626349 -0.722653  0.337901 0.422834 1 0 1.000000
0  -32.225842 -154.081558 7.826146  -0.230445 -0.597413 -0.768110  0.338878 0.422834 1 0 1.000000
misc
0  -32.638569 -154.179031 8.373879  -0.669568 -0.709392 -0.220095  0.338878 0.421857 1 0 1.000000
0  -32.470699 -154.149307 11.397123  -0.639977 -0.705697 0.304009  0.338878 0.416974 1 0 1.000000
0  -32.898594 -153.655823 11.609029  -0.622527 -0.704113 0.341591  0.337901 0.415998 1 0 1.000000
misc
0  -32.898594 -153.655823 11.609029  -0.622527 -0.704113 0.341591  0.337901 0.415998 1 0 1.000000
0  -33.087830 -153.689331 8.201011  -0.653347 -0.711724 -0.258044  0.337901 0.421857 1 0 1.000000
0  -32.638569 -154.179031 8.373879  -0.669568 -0.709392 -0.220095  0.338878 0.421857 1 0 1.000000
misc
0  -32.470699 -154.149307 11.397123  -0.639977 -0.705697 0.304009  0.338878 0.445296 1 0 1.000000
0  -31.999979 -154.041565 11.893784  -0.140380 -0.582833 0.800374  0.338878 0.444319 1 0 1.000000
0  -32.368984 -153.534698 12.198790  -0.210061 -0.608928 0.764906  0.337901 0.444319 1 0 1.000000
misc
0  -32.368984 -153.534698 12.198790  -0.210061 -0.608928 0.764906  0.337901 0.444319 1 0 1.000000
0  -32.898594 -153.655823 11.609029  -0.622527 -0.704113 0.341591  0.337901 0.444319 1 0 1.000000
0  -32.470699 -154.149307 11.397123  -0.639977 -0.705697 0.304009  0.338878 0.445296 1 0 1.000000
misc
0  -31.999979 -154.041565 11.893784  -0.140380 -0.582833 0.800374  0.338878 0.444319 1 0 1.000000
0  -27.636238 -153.027939 11.641512  0.477854 -0.436428 0.762355  0.338878 0.437483 1 0 1.000000
0  -27.509974 -152.406036 11.917887  0.542732 -0.433773 0.719223  0.337901 0.436506 1 0 1.000000
misc
0  -27.509974 -152.406036 11.917887  0.542732 -0.433773 0.719223  0.337901 0.436506 1 0 1.000000
0  -32.368984 -153.534698 12.198790  -0.210061 -0.608928 0.764906  0.337901 0.444319 1 0 1.000000
0  -31.999979 -154.041565 11.893784  -0.140380 -0.582833 0.800374  0.338878 0.444319 1 0 1.000000
misc
0  -27.636238 -153.027939 11.641512  0.477854 -0.436428 0.762355  0.338878 0.437483 1 0 1.000000
0  -27.250277 -152.936676 11.095326  0.918535 -0.333409 0.212445  0.338878 0.436506 1 0 1.000000
0  -27.062422 -152.300171 11.271635  0.904568 -0.343529 0.252476  0.337901 0.436506 1 0 1.000000
misc
0  -27.062422 -152.300171 11.271635  0.904568 -0.343529 0.252476  0.337901 0.436506 1 0 1.000000
0  -27.509974 -152.406036 11.917887  0.542732 -0.433773 0.719223  0.337901 0.436506 1 0 1.000000
0  -27.636238 -153.027939 11.641512  0.477854 -0.436428 0.762355  0.338878 0.437483 1 0 1.000000
misc
0  -27.251659 -152.333694 7.863616  0.872929 -0.346804 -0.343106  0.337901 0.430647 1 0 1.000000
0  -27.062422 -152.300171 11.271635  0.904568 -0.343529 0.252476  0.337901 0.436506 1 0 1.000000
0  -27.250277 -152.936676 11.095326  0.918535 -0.333409 0.212445  0.338878 0.436506 1 0 1.000000
misc
0  -27.250277 -152.936676 11.095326  0.918535 -0.333409 0.212445  0.338878 0.436506 1 0 1.000000
0  -27.418148 -152.966415 8.072083  0.890082 -0.340093 -0.303465  0.338878 0.431623 1 0 1.000000
0  -27.251659 -152.333694 7.863616  0.872929 -0.346804 -0.343106  0.337901 0.430647 1 0 1.000000
misc
0  -28.393867 -151.011856 11.043398  0.026006 0.976869 0.212251  0.388684 0.129856 1 0 1.000000
0  -28.551056 -151.039673 8.212543  0.001359 0.972481 -0.232979  0.388684 0.115207 1 0 1.000000
0  -32.432915 -151.941376 8.436956  -0.449340 0.868912 -0.207571  0.376965 0.115207 1 0 1.000000
misc
0  -32.432915 -151.941376 8.436956  -0.449340 0.868912 -0.207571  0.376965 0.115207 1 0 1.000000
0  -32.275726 -151.913544 11.267812  -0.424476 0.873339 0.238953  0.376965 0.129856 1 0 1.000000
0  -28.393867 -151.011856 11.043398  0.026006 0.976869 0.212251  0.388684 0.129856 1 0 1.000000
misc
0  -32.275726 -151.913544 11.267812  -0.424476 0.873339 0.238953  0.411145 0.115207 1 0 1.000000
0  -32.462944 -152.226700 11.667288  -0.421254 0.539663 0.728909  0.411145 0.114231 1 0 1.000000
0  -28.045662 -151.200638 11.411921  0.223763 0.687636 0.690714  0.399426 0.114231 1 0 1.000000
misc
0  -28.045662 -151.200638 11.411921  0.223763 0.687636 0.690714  0.399426 0.114231 1 0 1.000000
0  -28.393867 -151.011856 11.043398  0.026006 0.976869 0.212251  0.398450 0.115207 1 0 1.000000
0  -32.275726 -151.913544 11.267812  -0.424476 0.873339 0.238953  0.411145 0.115207 1 0 1.000000
misc
0  -28.176420 -151.206131 7.903877  0.503358 0.797466 -0.332685  0.389660 0.114231 1 0 1.000000
0  -28.551056 -151.039673 8.212543  0.001359 0.972481 -0.232979  0.388684 0.115207 1 0 1.000000
0  -28.393867 -151.011856 11.043398  0.026006 0.976869 0.212251  0.398450 0.115207 1 0 1.000000
misc
0  -28.393867 -151.011856 11.043398  0.026006 0.976869 0.212251  0.398450 0.115207 1 0 1.000000
0  -27.987186 -151.172623 11.311896  0.536209 0.803303 0.259199  0.398450 0.114231 1 0 1.000000
0  -28.176420 -151.206131 7.903877  0.503358 0.797466 -0.332685  0.389660 0.114231 1 0 1.000000
misc
0  -32.662865 -152.262085 8.066878  -0.499961 0.525732 -0.688219  0.376965 0.114231 1 0 1.000000
0  -32.432915 -151.941376 8.436956  -0.449340 0.868912 -0.207571  0.376965 0.115207 1 0 1.000000
0  -28.551056 -151.039673 8.212543  0.001359 0.972481 -0.232979  0.388684 0.115207 1 0 1.000000
misc
0  -28.551056 -151.039673 8.212543  0.001359 0.972481 -0.232979  0.388684 0.115207 1 0 1.000000
0  -28.245581 -151.236023 7.811512  0.145217 0.673708 -0.724589  0.388684 0.114231 1 0 1.000000
0  -32.662865 -152.262085 8.066878  -0.499961 0.525732 -0.688219  0.376965 0.114231 1 0 1.000000
misc
0  -32.432915 -151.941376 8.436956  -0.449340 0.868912 -0.207571  0.376965 0.115207 1 0 1.000000
0  -32.740948 -152.266403 8.167757  -0.831138 0.492410 -0.258344  0.375988 0.114231 1 0 1.000000
0  -32.551712 -152.232895 11.575775  -0.797845 0.498503 0.339025  0.367199 0.114231 1 0 1.000000
misc
0  -32.551712 -152.232895 11.575775  -0.797845 0.498503 0.339025  0.367199 0.114231 1 0 1.000000
0  -32.275726 -151.913544 11.267812  -0.424476 0.873339 0.238953  0.366222 0.115207 1 0 1.000000
0  -32.432915 -151.941376 8.436956  -0.449340 0.868912 -0.207571  0.376965 0.115207 1 0 1.000000
misc
0  -28.045662 -151.200638 11.411921  0.223763 0.687636 0.690714  0.399426 0.114231 1 0 1.000000
0  -27.987186 -151.172623 11.311896  0.536209 0.803303 0.259199  0.398450 0.114231 1 0 1.000000
0  -28.393867 -151.011856 11.043398  0.026006 0.976869 0.212251  0.398450 0.115207 1 0 1.000000
misc
0  -28.176420 -151.206131 7.903877  0.503358 0.797466 -0.332685  0.389660 0.114231 1 0 1.000000
0  -28.245581 -151.236023 7.811512  0.145217 0.673708 -0.724589  0.388684 0.114231 1 0 1.000000
0  -28.551056 -151.039673 8.212543  0.001359 0.972481 -0.232979  0.388684 0.115207 1 0 1.000000
misc
0  -32.551712 -152.232895 11.575775  -0.797845 0.498503 0.339025  0.412122 0.114231 1 0 1.000000
0  -32.462944 -152.226700 11.667288  -0.421254 0.539663 0.728909  0.411145 0.114231 1 0 1.000000
0  -32.275726 -151.913544 11.267812  -0.424476 0.873339 0.238953  0.411145 0.115207 1 0 1.000000
misc
0  -32.662865 -152.262085 8.066878  -0.499961 0.525732 -0.688219  0.376965 0.114231 1 0 1.000000
0  -32.740948 -152.266403 8.167757  -0.831138 0.492410 -0.258344  0.375988 0.114231 1 0 1.000000
0  -32.432915 -151.941376 8.436956  -0.449340 0.868912 -0.207571  0.376965 0.115207 1 0 1.000000
misc
0  -32.470699 -154.149307 11.397123  0.226103 -0.974099 -0.002969  0.113285 0.352519 1 0 1.000000
0  -32.638569 -154.179031 8.373879  0.226101 -0.974099 -0.002979  0.113285 0.295877 1 0 1.000000
0  -32.225842 -154.081558 7.826146  0.226095 -0.974101 -0.002973  0.102542 0.286111 1 0 1.000000
misc
0  -32.225842 -154.081558 7.826146  0.226095 -0.974101 -0.002973  0.102542 0.286111 1 0 1.000000
0  -31.999979 -154.041565 11.893784  0.226097 -0.974100 -0.002973  0.102542 0.362285 1 0 1.000000
0  -32.470699 -154.149307 11.397123  0.226103 -0.974099 -0.002969  0.113285 0.352519 1 0 1.000000
misc
0  -27.418148 -152.966415 8.072083  0.226116 -0.974096 -0.002967  0.007813 0.295877 1 0 1.000000
0  -27.250277 -152.936676 11.095326  0.226123 -0.974094 -0.002970  0.007813 0.352519 1 0 1.000000
0  -27.636238 -153.027939 11.641512  0.226103 -0.974099 -0.002976  0.017579 0.362285 1 0 1.000000
misc
0  -27.636238 -153.027939 11.641512  0.226103 -0.974099 -0.002976  0.017579 0.362285 1 0 1.000000
0  -27.862101 -153.067947 7.573875  0.226101 -0.974099 -0.002973  0.017579 0.286111 1 0 1.000000
0  -27.418148 -152.966415 8.072083  0.226116 -0.974096 -0.002967  0.007813 0.295877 1 0 1.000000
misc
0  -31.999979 -154.041565 11.893784  0.226097 -0.974100 -0.002973  0.102542 0.362285 1 0 1.000000
0  -32.225842 -154.081558 7.826146  0.226095 -0.974101 -0.002973  0.102542 0.286111 1 0 1.000000
0  -27.862101 -153.067947 7.573875  0.226101 -0.974099 -0.002973  0.017579 0.286111 1 0 1.000000
misc
0  -27.862101 -153.067947 7.573875  0.226101 -0.974099 -0.002973  0.017579 0.286111 1 0 1.000000
0  -27.636238 -153.027939 11.641512  0.226103 -0.974099 -0.002976  0.017579 0.362285 1 0 1.000000
0  -31.999979 -154.041565 11.893784  0.226097 -0.974100 -0.002973  0.102542 0.362285 1 0 1.000000
misc
0  32.033848 -152.530533 11.877932  0.436849 0.254590 0.862755  0.337901 0.444319 1 0 1.000000
0  32.201099 -151.208847 11.401100  0.447190 0.485345 0.751307  0.333995 0.444319 1 0 1.000000
0  27.847410 -149.933121 11.181285  -0.188621 0.669825 0.718162  0.333995 0.437483 1 0 1.000000
misc
0  27.847410 -149.933121 11.181285  -0.188621 0.669825 0.718162  0.333995 0.437483 1 0 1.000000
0  27.244797 -151.127243 11.636137  -0.313099 0.472951 0.823581  0.337901 0.436506 1 0 1.000000
0  32.033848 -152.530533 11.877932  0.436849 0.254590 0.862755  0.337901 0.444319 1 0 1.000000
misc
0  32.306801 -152.398926 7.235630  0.534173 0.301813 -0.789663  0.337901 0.422834 1 0 1.000000
0  27.517750 -150.995605 6.993835  -0.216117 0.519143 -0.826912  0.337901 0.430647 1 0 1.000000
0  28.058990 -149.831100 7.582814  -0.105448 0.709947 -0.696316  0.333995 0.430647 1 0 1.000000
misc
0  28.058990 -149.831100 7.582814  -0.105448 0.709947 -0.696316  0.333995 0.430647 1 0 1.000000
0  32.412678 -151.106827 7.802629  0.530488 0.525498 -0.665158  0.333995 0.422834 1 0 1.000000
0  32.306801 -152.398926 7.235630  0.534173 0.301813 -0.789663  0.337901 0.422834 1 0 1.000000
misc
0  32.558331 -152.656036 11.284517  0.925465 0.168068 0.339511  0.337901 0.415998 1 0 1.000000
0  32.758606 -152.559479 7.878334  0.958091 0.184491 -0.219147  0.337901 0.421857 1 0 1.000000
0  32.490021 -151.119537 7.903367  0.857710 0.456524 -0.236472  0.333995 0.421857 1 0 1.000000
misc
0  32.490021 -151.119537 7.903367  0.857710 0.456524 -0.236472  0.333995 0.421857 1 0 1.000000
0  32.289753 -151.216110 11.309552  0.822602 0.439628 0.360630  0.333995 0.416974 1 0 1.000000
0  32.558331 -152.656036 11.284517  0.925465 0.168068 0.339511  0.337901 0.415998 1 0 1.000000
misc
0  26.806187 -150.970551 10.994098  -0.722665 0.643107 0.253316  0.337901 0.436506 1 0 1.000000
0  27.790937 -149.897858 11.082411  -0.492582 0.820042 0.291365  0.333995 0.436506 1 0 1.000000
0  27.991211 -149.801285 7.676228  -0.457856 0.836817 -0.300175  0.333995 0.430647 1 0 1.000000
misc
0  27.991211 -149.801285 7.676228  -0.457856 0.836817 -0.300175  0.333995 0.430647 1 0 1.000000
0  27.006456 -150.873978 7.587914  -0.690141 0.658800 -0.299479  0.337901 0.430647 1 0 1.000000
0  26.806187 -150.970551 10.994098  -0.722665 0.643107 0.253316  0.337901 0.436506 1 0 1.000000
misc
0  27.847410 -149.933121 11.181285  -0.188621 0.669825 0.718162  0.333995 0.437483 1 0 1.000000
0  27.790937 -149.897858 11.082411  -0.492582 0.820042 0.291365  0.333995 0.436506 1 0 1.000000
0  26.806187 -150.970551 10.994098  -0.722665 0.643107 0.253316  0.337901 0.436506 1 0 1.000000
misc
0  26.806187 -150.970551 10.994098  -0.722665 0.643107 0.253316  0.337901 0.436506 1 0 1.000000
0  27.244797 -151.127243 11.636137  -0.313099 0.472951 0.823581  0.337901 0.436506 1 0 1.000000
0  27.847410 -149.933121 11.181285  -0.188621 0.669825 0.718162  0.333995 0.437483 1 0 1.000000
misc
0  32.289753 -151.216110 11.309552  0.822602 0.439628 0.360630  0.333995 0.445296 1 0 1.000000
0  32.201099 -151.208847 11.401100  0.447190 0.485345 0.751307  0.333995 0.444319 1 0 1.000000
0  32.033848 -152.530533 11.877932  0.436849 0.254590 0.862755  0.337901 0.444319 1 0 1.000000
misc
0  32.033848 -152.530533 11.877932  0.436849 0.254590 0.862755  0.337901 0.444319 1 0 1.000000
0  32.558331 -152.656036 11.284517  0.925465 0.168068 0.339511  0.337901 0.444319 1 0 1.000000
0  32.289753 -151.216110 11.309552  0.822602 0.439628 0.360630  0.333995 0.445296 1 0 1.000000
misc
0  27.991211 -149.801285 7.676228  -0.457856 0.836817 -0.300175  0.333995 0.430647 1 0 1.000000
0  28.058990 -149.831100 7.582814  -0.105448 0.709947 -0.696316  0.333995 0.430647 1 0 1.000000
0  27.517750 -150.995605 6.993835  -0.216117 0.519143 -0.826912  0.337901 0.430647 1 0 1.000000
misc
0  27.517750 -150.995605 6.993835  -0.216117 0.519143 -0.826912  0.337901 0.430647 1 0 1.000000
0  27.006456 -150.873978 7.587914  -0.690141 0.658800 -0.299479  0.337901 0.430647 1 0 1.000000
0  27.991211 -149.801285 7.676228  -0.457856 0.836817 -0.300175  0.333995 0.430647 1 0 1.000000
misc
0  32.412678 -151.106827 7.802629  0.530488 0.525498 -0.665158  0.333995 0.422834 1 0 1.000000
0  32.490021 -151.119537 7.903367  0.857710 0.456524 -0.236472  0.333995 0.421857 1 0 1.000000
0  32.758606 -152.559479 7.878334  0.958091 0.184491 -0.219147  0.337901 0.421857 1 0 1.000000
misc
0  32.758606 -152.559479 7.878334  0.958091 0.184491 -0.219147  0.337901 0.421857 1 0 1.000000
0  32.306801 -152.398926 7.235630  0.534173 0.301813 -0.789663  0.337901 0.422834 1 0 1.000000
0  32.412678 -151.106827 7.802629  0.530488 0.525498 -0.665158  0.333995 0.422834 1 0 1.000000
misc
0  27.006456 -150.873978 7.587914  -0.887797 -0.286883 -0.359880  0.337901 0.430647 1 0 1.000000
0  27.517750 -150.995605 6.993835  -0.481104 -0.390653 -0.784812  0.337901 0.430647 1 0 1.000000
0  27.577034 -151.627945 7.269048  -0.411940 -0.396353 -0.820494  0.338878 0.429670 1 0 1.000000
misc
0  27.577034 -151.627945 7.269048  -0.411940 -0.396353 -0.820494  0.338878 0.429670 1 0 1.000000
0  27.137363 -151.522903 7.770315  -0.905697 -0.276537 -0.321310  0.338878 0.431623 1 0 1.000000
0  27.006456 -150.873978 7.587914  -0.887797 -0.286883 -0.359880  0.337901 0.430647 1 0 1.000000
misc
0  27.577034 -151.627945 7.269048  -0.411940 -0.396353 -0.820494  0.338878 0.429670 1 0 1.000000
0  27.517750 -150.995605 6.993835  -0.481104 -0.390653 -0.784812  0.337901 0.430647 1 0 1.000000
0  32.306801 -152.398926 7.235630  0.260497 -0.611094 -0.747466  0.337901 0.422834 1 0 1.000000
misc
0  32.306801 -152.398926 7.235630  0.260497 -0.611094 -0.747466  0.337901 0.422834 1 0 1.000000
0  31.877949 -152.888214 7.486197  0.200470 -0.577021 -0.791745  0.338878 0.422834 1 0 1.000000
0  27.577034 -151.627945 7.269048  -0.411940 -0.396353 -0.820494  0.338878 0.429670 1 0 1.000000
misc
0  31.877949 -152.888214 7.486197  0.200470 -0.577021 -0.791745  0.338878 0.422834 1 0 1.000000
0  32.306801 -152.398926 7.235630  0.260497 -0.611094 -0.747466  0.337901 0.422834 1 0 1.000000
0  32.758606 -152.559479 7.878334  0.614525 -0.735153 -0.286198  0.337901 0.421857 1 0 1.000000
misc
0  32.758606 -152.559479 7.878334  0.614525 -0.735153 -0.286198  0.337901 0.421857 1 0 1.000000
0  32.282631 -153.030579 8.030094  0.630710 -0.735274 -0.248149  0.338878 0.421857 1 0 1.000000
0  31.877949 -152.888214 7.486197  0.200470 -0.577021 -0.791745  0.338878 0.422834 1 0 1.000000
misc
0  32.282631 -153.030579 8.030094  0.630710 -0.735274 -0.248149  0.338878 0.421857 1 0 1.000000
0  32.758606 -152.559479 7.878334  0.614525 -0.735153 -0.286198  0.337901 0.421857 1 0 1.000000
0  32.558331 -152.656036 11.284517  0.581876 -0.750558 0.313183  0.337901 0.415998 1 0 1.000000
misc
0  32.558331 -152.656036 11.284517  0.581876 -0.750558 0.313183  0.337901 0.415998 1 0 1.000000
0  32.104969 -153.116257 11.051711  0.599326 -0.751576 0.275574  0.338878 0.416974 1 0 1.000000
0  32.282631 -153.030579 8.030094  0.630710 -0.735274 -0.248149  0.338878 0.421857 1 0 1.000000
misc
0  32.104969 -153.116257 11.051711  0.599326 -0.751576 0.275574  0.338878 0.445296 1 0 1.000000
0  32.558331 -152.656036 11.284517  0.581876 -0.750558 0.313183  0.337901 0.444319 1 0 1.000000
0  32.033848 -152.530533 11.877932  0.173575 -0.650476 0.739428  0.337901 0.444319 1 0 1.000000
misc
0  32.033848 -152.530533 11.877932  0.173575 -0.650476 0.739428  0.337901 0.444319 1 0 1.000000
0  31.638914 -153.003479 11.551645  0.105275 -0.622088 0.775838  0.338878 0.444319 1 0 1.000000
0  32.104969 -153.116257 11.051711  0.599326 -0.751576 0.275574  0.338878 0.445296 1 0 1.000000
misc
0  31.638914 -153.003479 11.551645  0.105275 -0.622088 0.775838  0.338878 0.444319 1 0 1.000000
0  32.033848 -152.530533 11.877932  0.173575 -0.650476 0.739428  0.337901 0.444319 1 0 1.000000
0  27.244797 -151.127243 11.636137  -0.568407 -0.432780 0.699725  0.337901 0.436506 1 0 1.000000
misc
0  27.244797 -151.127243 11.636137  -0.568407 -0.432780 0.699725  0.337901 0.436506 1 0 1.000000
0  27.337999 -151.743210 11.334496  -0.503813 -0.440746 0.742910  0.338878 0.437483 1 0 1.000000
0  31.638914 -153.003479 11.551645  0.105275 -0.622088 0.775838  0.338878 0.444319 1 0 1.000000
misc
0  27.337999 -151.743210 11.334496  -0.503813 -0.440746 0.742910  0.338878 0.437483 1 0 1.000000
0  27.244797 -151.127243 11.636137  -0.568407 -0.432780 0.699725  0.337901 0.436506 1 0 1.000000
0  26.806187 -150.970551 10.994098  -0.922874 -0.303797 0.236665  0.337901 0.436506 1 0 1.000000
misc
0  26.806187 -150.970551 10.994098  -0.922874 -0.303797 0.236665  0.337901 0.436506 1 0 1.000000
0  26.959703 -151.608566 10.791931  -0.936165 -0.291185 0.196991  0.338878 0.436506 1 0 1.000000
0  27.337999 -151.743210 11.334496  -0.503813 -0.440746 0.742910  0.338878 0.437483 1 0 1.000000
misc
0  26.959703 -151.608566 10.791931  -0.936165 -0.291185 0.196991  0.338878 0.436506 1 0 1.000000
0  26.806187 -150.970551 10.994098  -0.922874 -0.303797 0.236665  0.337901 0.436506 1 0 1.000000
0  27.006456 -150.873978 7.587914  -0.887797 -0.286883 -0.359880  0.337901 0.430647 1 0 1.000000
misc
0  27.006456 -150.873978 7.587914  -0.887797 -0.286883 -0.359880  0.337901 0.430647 1 0 1.000000
0  27.137363 -151.522903 7.770315  -0.905697 -0.276537 -0.321310  0.338878 0.431623 1 0 1.000000
0  26.959703 -151.608566 10.791931  -0.936165 -0.291185 0.196991  0.338878 0.436506 1 0 1.000000
misc
0  28.206820 -149.748657 10.821440  0.026376 0.967256 0.252429  0.388684 0.129856 1 0 1.000000
0  32.032795 -150.869736 11.014609  0.470553 0.838242 0.275556  0.376965 0.129856 1 0 1.000000
0  32.199150 -150.789520 8.185277  0.496828 0.850882 -0.170771  0.376965 0.115207 1 0 1.000000
misc
0  32.199150 -150.789520 8.185277  0.496828 0.850882 -0.170771  0.376965 0.115207 1 0 1.000000
0  28.373177 -149.668427 7.992108  0.052611 0.979877 -0.192544  0.388684 0.115207 1 0 1.000000
0  28.206820 -149.748657 10.821440  0.026376 0.967256 0.252429  0.388684 0.129856 1 0 1.000000
misc
0  32.032795 -150.869736 11.014609  0.470553 0.838242 0.275556  0.411145 0.115207 1 0 1.000000
0  28.206820 -149.748657 10.821440  0.026376 0.967256 0.252429  0.398450 0.115207 1 0 1.000000
0  27.847410 -149.933121 11.181285  -0.188621 0.669825 0.718162  0.399426 0.114231 1 0 1.000000
misc
0  27.847410 -149.933121 11.181285  -0.188621 0.669825 0.718162  0.399426 0.114231 1 0 1.000000
0  32.201099 -151.208847 11.401100  0.447190 0.485345 0.751307  0.411145 0.114231 1 0 1.000000
0  32.032795 -150.869736 11.014609  0.470553 0.838242 0.275556  0.411145 0.115207 1 0 1.000000
misc
0  27.991211 -149.801285 7.676228  -0.457856 0.836817 -0.300175  0.389660 0.114231 1 0 1.000000
0  27.790937 -149.897858 11.082411  -0.492582 0.820042 0.291365  0.398450 0.114231 1 0 1.000000
0  28.206820 -149.748657 10.821440  0.026376 0.967256 0.252429  0.398450 0.115207 1 0 1.000000
misc
0  28.206820 -149.748657 10.821440  0.026376 0.967256 0.252429  0.398450 0.115207 1 0 1.000000
0  28.373177 -149.668427 7.992108  0.052611 0.979877 -0.192544  0.388684 0.115207 1 0 1.000000
0  27.991211 -149.801285 7.676228  -0.457856 0.836817 -0.300175  0.389660 0.114231 1 0 1.000000
misc
0  32.412678 -151.106827 7.802629  0.530488 0.525498 -0.665158  0.376965 0.114231 1 0 1.000000
0  28.058990 -149.831100 7.582814  -0.105448 0.709947 -0.696316  0.388684 0.114231 1 0 1.000000
0  28.373177 -149.668427 7.992108  0.052611 0.979877 -0.192544  0.388684 0.115207 1 0 1.000000
misc
0  28.373177 -149.668427 7.992108  0.052611 0.979877 -0.192544  0.388684 0.115207 1 0 1.000000
0  32.199150 -150.789520 8.185277  0.496828 0.850882 -0.170771  0.376965 0.115207 1 0 1.000000
0  32.412678 -151.106827 7.802629  0.530488 0.525498 -0.665158  0.376965 0.114231 1 0 1.000000
misc
0  32.199150 -150.789520 8.185277  0.496828 0.850882 -0.170771  0.376965 0.115207 1 0 1.000000
0  32.032795 -150.869736 11.014609  0.470553 0.838242 0.275556  0.366222 0.115207 1 0 1.000000
0  32.289753 -151.216110 11.309552  0.822602 0.439628 0.360630  0.367199 0.114231 1 0 1.000000
misc
0  32.289753 -151.216110 11.309552  0.822602 0.439628 0.360630  0.367199 0.114231 1 0 1.000000
0  32.490021 -151.119537 7.903367  0.857710 0.456524 -0.236472  0.375988 0.114231 1 0 1.000000
0  32.199150 -150.789520 8.185277  0.496828 0.850882 -0.170771  0.376965 0.115207 1 0 1.000000
misc
0  27.790937 -149.897858 11.082411  -0.492582 0.820042 0.291365  0.398450 0.114231 1 0 1.000000
0  27.847410 -149.933121 11.181285  -0.188621 0.669825 0.718162  0.399426 0.114231 1 0 1.000000
0  28.206820 -149.748657 10.821440  0.026376 0.967256 0.252429  0.398450 0.115207 1 0 1.000000
misc
0  28.058990 -149.831100 7.582814  -0.105448 0.709947 -0.696316  0.388684 0.114231 1 0 1.000000
0  27.991211 -149.801285 7.676228  -0.457856 0.836817 -0.300175  0.389660 0.114231 1 0 1.000000
0  28.373177 -149.668427 7.992108  0.052611 0.979877 -0.192544  0.388684 0.115207 1 0 1.000000
misc
0  32.201099 -151.208847 11.401100  0.447190 0.485345 0.751307  0.411145 0.114231 1 0 1.000000
0  32.289753 -151.216110 11.309552  0.822602 0.439628 0.360630  0.412122 0.114231 1 0 1.000000
0  32.032795 -150.869736 11.014609  0.470553 0.838242 0.275556  0.411145 0.115207 1 0 1.000000
misc
0  32.490021 -151.119537 7.903367  0.857710 0.456524 -0.236472  0.375988 0.114231 1 0 1.000000
0  32.412678 -151.106827 7.802629  0.530488 0.525498 -0.665158  0.376965 0.114231 1 0 1.000000
0  32.199150 -150.789520 8.185277  0.496828 0.850882 -0.170771  0.376965 0.115207 1 0 1.000000
misc
0  32.104969 -153.116257 11.051711  -0.278909 -0.959327 -0.043600  0.113285 0.352519 1 0 1.000000
0  31.638914 -153.003479 11.551645  -0.278907 -0.959328 -0.043598  0.102542 0.362285 1 0 1.000000
0  31.877949 -152.888214 7.486197  -0.278900 -0.959330 -0.043591  0.102542 0.286111 1 0 1.000000
misc
0  31.877949 -152.888214 7.486197  -0.278900 -0.959330 -0.043591  0.102542 0.286111 1 0 1.000000
0  32.282631 -153.030579 8.030094  -0.278885 -0.959334 -0.043598  0.113285 0.295877 1 0 1.000000
0  32.104969 -153.116257 11.051711  -0.278909 -0.959327 -0.043600  0.113285 0.352519 1 0 1.000000
misc
0  27.337999 -151.743210 11.334496  -0.278907 -0.959328 -0.043602  0.017579 0.362285 1 0 1.000000
0  26.959703 -151.608566 10.791931  -0.278914 -0.959326 -0.043594  0.007813 0.352519 1 0 1.000000
0  27.137363 -151.522903 7.770315  -0.278902 -0.959329 -0.043600  0.007813 0.295877 1 0 1.000000
misc
0  27.137363 -151.522903 7.770315  -0.278902 -0.959329 -0.043600  0.007813 0.295877 1 0 1.000000
0  27.577034 -151.627945 7.269048  -0.278904 -0.959329 -0.043598  0.017579 0.286111 1 0 1.000000
0  27.337999 -151.743210 11.334496  -0.278907 -0.959328 -0.043602  0.017579 0.362285 1 0 1.000000
misc
0  31.638914 -153.003479 11.551645  -0.278907 -0.959328 -0.043598  0.102542 0.362285 1 0 1.000000
0  27.337999 -151.743210 11.334496  -0.278907 -0.959328 -0.043602  0.017579 0.362285 1 0 1.000000
0  27.577034 -151.627945 7.269048  -0.278904 -0.959329 -0.043598  0.017579 0.286111 1 0 1.000000
misc
0  27.577034 -151.627945 7.269048  -0.278904 -0.959329 -0.043598  0.017579 0.286111 1 0 1.000000
0  31.877949 -152.888214 7.486197  -0.278900 -0.959330 -0.043591  0.102542 0.286111 1 0 1.000000
0  31.638914 -153.003479 11.551645  -0.278907 -0.959328 -0.043598  0.102542 0.362285 1 0 1.000000
end
