version 1
nodes
0 "root" -1
end
skeleton
time 0
0  0.000000 0.000000 0.000000  0.000000 -0.000000 0.000000
end
triangles
misc
0  -17.955437 -150.292709 8.559972  0.128583 -0.942139 -0.309580  0.478530 0.023408 1 0 1.000000
0  -18.823244 -147.272797 3.086163  0.040220 -0.642902 -0.764892  0.478530 0.010712 1 0 1.000000
0  0.301781 -143.067383 1.246593  -0.003744 -0.574027 -0.818828  0.469741 0.010712 1 0 1.000000
misc
0  0.301781 -143.067383 1.246593  -0.003744 -0.574027 -0.818828  0.469741 0.010712 1 0 1.000000
0  0.693039 -146.179550 6.678582  -0.029823 -0.937833 -0.345804  0.469741 0.023408 1 0 1.000000
0  -17.955437 -150.292709 8.559972  0.128583 -0.942139 -0.309580  0.478530 0.023408 1 0 1.000000
misc
0  0.856354 -146.072952 12.679118  -0.029372 -0.344550 0.938308  0.469741 0.038057 1 0 1.000000
0  0.605722 -142.605530 13.113602  -0.010390 -0.124108 0.992214  0.469741 0.039033 1 0 1.000000
0  -18.217890 -146.875748 14.932722  0.096305 -0.106456 0.989643  0.478530 0.039033 1 0 1.000000
misc
0  -18.217890 -146.875748 14.932722  0.096305 -0.106456 0.989643  0.478530 0.039033 1 0 1.000000
0  -17.663342 -150.019333 14.538445  0.130312 -0.355483 0.925554  0.478530 0.038057 1 0 1.000000
0  0.856354 -146.072952 12.679118  -0.029372 -0.344550 0.938308  0.469741 0.038057 1 0 1.000000
misc
0  -48.593365 -137.277634 10.165482  -0.921585 0.016062 -0.387845  0.492203 0.023408 1 0 1.000000
0  -49.760551 -137.620148 15.609663  -0.970349 -0.171938 0.169884  0.492203 0.037080 1 0 1.000000
0  -49.556915 -135.457153 16.065130  -0.981602 0.175542 -0.075120  0.492203 0.038057 1 0 1.000000
misc
0  -49.556915 -135.457153 16.065130  -0.981602 0.175542 -0.075120  0.492203 0.038057 1 0 1.000000
0  -47.464142 -135.055222 10.086257  -0.836057 0.392996 -0.382834  0.491226 0.023408 1 0 1.000000
0  -48.593365 -137.277634 10.165482  -0.921585 0.016062 -0.387845  0.492203 0.023408 1 0 1.000000
misc
0  -44.903687 -136.401749 4.466087  -0.782108 -0.024395 -0.622665  0.490249 0.010712 1 0 1.000000
0  -48.593365 -137.277634 10.165482  -0.921585 0.016062 -0.387845  0.492203 0.023408 1 0 1.000000
0  -47.464142 -135.055222 10.086257  -0.836057 0.392996 -0.382834  0.491226 0.023408 1 0 1.000000
misc
0  -47.464142 -135.055222 10.086257  -0.836057 0.392996 -0.382834  0.491226 0.023408 1 0 1.000000
0  -44.363930 -134.469467 4.421926  -0.769980 0.208534 -0.603029  0.489273 0.010712 1 0 1.000000
0  -44.903687 -136.401749 4.466087  -0.782108 -0.024395 -0.622665  0.490249 0.010712 1 0 1.000000
misc
0  -30.896278 -151.455185 15.288881  0.047892 -0.393416 0.918112  0.485366 0.038057 1 0 1.000000
0  -31.354757 -148.839661 15.667820  0.057414 -0.128901 0.989994  0.485366 0.039033 1 0 1.000000
0  -36.208092 -148.667053 15.910423  0.022102 -0.149415 0.988527  0.487320 0.039033 1 0 1.000000
misc
0  -36.208092 -148.667053 15.910423  0.022102 -0.149415 0.988527  0.487320 0.039033 1 0 1.000000
0  -35.817600 -150.903320 15.560114  -0.054371 -0.414492 0.908427  0.487320 0.038057 1 0 1.000000
0  -30.896278 -151.455185 15.288881  0.047892 -0.393416 0.918112  0.485366 0.038057 1 0 1.000000
misc
0  -17.955437 -150.292709 8.559972  0.128583 -0.942139 -0.309580  0.478530 0.023408 1 0 1.000000
0  -17.539778 -150.890335 13.903691  0.176995 -0.901026 0.396011  0.478530 0.037080 1 0 1.000000
0  -30.777681 -152.299088 14.654211  0.020270 -0.924368 0.380962  0.485366 0.037080 1 0 1.000000
misc
0  -30.777681 -152.299088 14.654211  0.020270 -0.924368 0.380962  0.485366 0.037080 1 0 1.000000
0  -31.216787 -151.649811 9.311427  -0.044887 -0.941583 -0.333776  0.485366 0.023408 1 0 1.000000
0  -17.955437 -150.292709 8.559972  0.128583 -0.942139 -0.309580  0.478530 0.023408 1 0 1.000000
misc
0  -17.663342 -150.019333 14.538445  0.130312 -0.355483 0.925554  0.478530 0.038057 1 0 1.000000
0  -18.217890 -146.875748 14.932722  0.096305 -0.106456 0.989643  0.478530 0.039033 1 0 1.000000
0  -31.354757 -148.839661 15.667820  0.057414 -0.128901 0.989994  0.485366 0.039033 1 0 1.000000
misc
0  -31.354757 -148.839661 15.667820  0.057414 -0.128901 0.989994  0.485366 0.039033 1 0 1.000000
0  -30.896278 -151.455185 15.288881  0.047892 -0.393416 0.918112  0.485366 0.038057 1 0 1.000000
0  -17.663342 -150.019333 14.538445  0.130312 -0.355483 0.925554  0.478530 0.038057 1 0 1.000000
misc
0  -31.216787 -151.649811 9.311427  -0.044887 -0.941583 -0.333776  0.485366 0.023408 1 0 1.000000
0  -30.777681 -152.299088 14.654211  0.020270 -0.924368 0.380962  0.485366 0.037080 1 0 1.000000
0  -35.703968 -151.720169 14.925526  -0.190755 -0.910752 0.366256  0.487320 0.037080 1 0 1.000000
misc
0  -35.703968 -151.720169 14.925526  -0.190755 -0.910752 0.366256  0.487320 0.037080 1 0 1.000000
0  -36.169289 -150.851776 9.582623  -0.277313 -0.895386 -0.348398  0.487320 0.023408 1 0 1.000000
0  -31.216787 -151.649811 9.311427  -0.044887 -0.941583 -0.333776  0.485366 0.023408 1 0 1.000000
misc
0  -44.690521 -145.717285 16.018826  -0.490031 -0.452870 0.744835  0.491226 0.038057 1 0 1.000000
0  -40.636623 -149.157196 15.816989  -0.232629 -0.434174 0.870274  0.489273 0.038057 1 0 1.000000
0  -40.730659 -147.636047 16.114532  -0.076335 -0.189930 0.978825  0.489273 0.039033 1 0 1.000000
misc
0  -40.729301 -148.918182 9.823657  -0.520023 -0.777417 -0.353835  0.489273 0.023408 1 0 1.000000
0  -40.522995 -149.974030 15.182400  -0.440091 -0.835049 0.330172  0.489273 0.037080 1 0 1.000000
0  -45.078934 -146.234482 15.410146  -0.710690 -0.634991 0.302831  0.491226 0.037080 1 0 1.000000
misc
0  -45.078934 -146.234482 15.410146  -0.710690 -0.634991 0.302831  0.491226 0.037080 1 0 1.000000
0  -44.548740 -145.309280 10.011158  -0.738133 -0.567824 -0.364328  0.490249 0.023408 1 0 1.000000
0  -40.729301 -148.918182 9.823657  -0.520023 -0.777417 -0.353835  0.489273 0.023408 1 0 1.000000
misc
0  -44.548740 -145.309280 10.011158  -0.738133 -0.567824 -0.364328  0.490249 0.023408 1 0 1.000000
0  -41.974579 -142.469086 4.346158  -0.611240 -0.401723 -0.681912  0.489273 0.010712 1 0 1.000000
0  -40.137947 -144.636795 4.259122  -0.477515 -0.522181 -0.706616  0.488296 0.010712 1 0 1.000000
misc
0  -40.137947 -144.636795 4.259122  -0.477515 -0.522181 -0.706616  0.488296 0.010712 1 0 1.000000
0  -40.729301 -148.918182 9.823657  -0.520023 -0.777417 -0.353835  0.489273 0.023408 1 0 1.000000
0  -44.548740 -145.309280 10.011158  -0.738133 -0.567824 -0.364328  0.490249 0.023408 1 0 1.000000
misc
0  -44.548740 -145.309280 10.011158  -0.738133 -0.567824 -0.364328  0.490249 0.023408 1 0 1.000000
0  -45.078934 -146.234482 15.410146  -0.710690 -0.634991 0.302831  0.491226 0.037080 1 0 1.000000
0  -48.222610 -141.130112 15.549039  -0.856344 -0.454680 0.244830  0.492203 0.037080 1 0 1.000000
misc
0  -48.222610 -141.130112 15.549039  -0.856344 -0.454680 0.244830  0.492203 0.037080 1 0 1.000000
0  -47.301758 -140.510986 10.116633  -0.835277 -0.398657 -0.378661  0.491226 0.023408 1 0 1.000000
0  -44.548740 -145.309280 10.011158  -0.738133 -0.567824 -0.364328  0.490249 0.023408 1 0 1.000000
misc
0  -48.593365 -137.277634 10.165482  -0.921585 0.016062 -0.387845  0.492203 0.023408 1 0 1.000000
0  -44.903687 -136.401749 4.466087  -0.782108 -0.024395 -0.622665  0.490249 0.010712 1 0 1.000000
0  -43.966286 -138.846512 4.431344  -0.682812 -0.311019 -0.661086  0.489273 0.010712 1 0 1.000000
misc
0  -43.966286 -138.846512 4.431344  -0.682812 -0.311019 -0.661086  0.489273 0.010712 1 0 1.000000
0  -47.301758 -140.510986 10.116633  -0.835277 -0.398657 -0.378661  0.491226 0.023408 1 0 1.000000
0  -48.593365 -137.277634 10.165482  -0.921585 0.016062 -0.387845  0.492203 0.023408 1 0 1.000000
misc
0  -49.760551 -137.620148 15.609663  -0.970349 -0.171938 0.169884  0.492203 0.037080 1 0 1.000000
0  -48.593365 -137.277634 10.165482  -0.921585 0.016062 -0.387845  0.492203 0.023408 1 0 1.000000
0  -47.301758 -140.510986 10.116633  -0.835277 -0.398657 -0.378661  0.491226 0.023408 1 0 1.000000
misc
0  -47.301758 -140.510986 10.116633  -0.835277 -0.398657 -0.378661  0.491226 0.023408 1 0 1.000000
0  -48.222610 -141.130112 15.549039  -0.856344 -0.454680 0.244830  0.492203 0.037080 1 0 1.000000
0  -49.760551 -137.620148 15.609663  -0.970349 -0.171938 0.169884  0.492203 0.037080 1 0 1.000000
misc
0  0.693039 -146.179550 6.678582  -0.029823 -0.937833 -0.345804  0.469741 0.023408 1 0 1.000000
0  0.903976 -146.943680 12.033833  -0.053386 -0.922682 0.381848  0.469741 0.037080 1 0 1.000000
0  -17.539778 -150.890335 13.903691  0.176995 -0.901026 0.396011  0.478530 0.037080 1 0 1.000000
misc
0  -17.539778 -150.890335 13.903691  0.176995 -0.901026 0.396011  0.478530 0.037080 1 0 1.000000
0  -17.955437 -150.292709 8.559972  0.128583 -0.942139 -0.309580  0.478530 0.023408 1 0 1.000000
0  0.693039 -146.179550 6.678582  -0.029823 -0.937833 -0.345804  0.469741 0.023408 1 0 1.000000
misc
0  -18.823244 -147.272797 3.086163  0.040220 -0.642902 -0.764892  0.478530 0.010712 1 0 1.000000
0  -17.955437 -150.292709 8.559972  0.128583 -0.942139 -0.309580  0.478530 0.023408 1 0 1.000000
0  -31.216787 -151.649811 9.311427  -0.044887 -0.941583 -0.333776  0.485366 0.023408 1 0 1.000000
misc
0  -31.216787 -151.649811 9.311427  -0.044887 -0.941583 -0.333776  0.485366 0.023408 1 0 1.000000
0  -32.182819 -148.018188 3.838687  -0.107079 -0.639320 -0.761449  0.485366 0.010712 1 0 1.000000
0  -18.823244 -147.272797 3.086163  0.040220 -0.642902 -0.764892  0.478530 0.010712 1 0 1.000000
misc
0  -32.182819 -148.018188 3.838687  -0.107079 -0.639320 -0.761449  0.485366 0.010712 1 0 1.000000
0  -31.216787 -151.649811 9.311427  -0.044887 -0.941583 -0.333776  0.485366 0.023408 1 0 1.000000
0  -36.169289 -150.851776 9.582623  -0.277313 -0.895386 -0.348398  0.487320 0.023408 1 0 1.000000
misc
0  -36.169289 -150.851776 9.582623  -0.277313 -0.895386 -0.348398  0.487320 0.023408 1 0 1.000000
0  -37.281822 -146.421417 4.112300  -0.297968 -0.597575 -0.744392  0.487320 0.010712 1 0 1.000000
0  -32.182819 -148.018188 3.838687  -0.107079 -0.639320 -0.761449  0.485366 0.010712 1 0 1.000000
misc
0  -41.974579 -142.469086 4.346158  -0.611240 -0.401723 -0.681912  0.489273 0.010712 1 0 1.000000
0  -44.548740 -145.309280 10.011158  -0.738133 -0.567824 -0.364328  0.490249 0.023408 1 0 1.000000
0  -47.301758 -140.510986 10.116633  -0.835277 -0.398657 -0.378661  0.491226 0.023408 1 0 1.000000
misc
0  -47.301758 -140.510986 10.116633  -0.835277 -0.398657 -0.378661  0.491226 0.023408 1 0 1.000000
0  -43.966286 -138.846512 4.431344  -0.682812 -0.311019 -0.661086  0.489273 0.010712 1 0 1.000000
0  -41.974579 -142.469086 4.346158  -0.611240 -0.401723 -0.681912  0.489273 0.010712 1 0 1.000000
misc
0  -35.817600 -150.903320 15.560114  -0.054371 -0.414492 0.908427  0.487320 0.038057 1 0 1.000000
0  -36.208092 -148.667053 15.910423  0.022102 -0.149415 0.988527  0.487320 0.039033 1 0 1.000000
0  -40.730659 -147.636047 16.114532  -0.076335 -0.189930 0.978825  0.489273 0.039033 1 0 1.000000
misc
0  -40.730659 -147.636047 16.114532  -0.076335 -0.189930 0.978825  0.489273 0.039033 1 0 1.000000
0  -40.636623 -149.157196 15.816989  -0.232629 -0.434174 0.870274  0.489273 0.038057 1 0 1.000000
0  -35.817600 -150.903320 15.560114  -0.054371 -0.414492 0.908427  0.487320 0.038057 1 0 1.000000
misc
0  -36.169289 -150.851776 9.582623  -0.277313 -0.895386 -0.348398  0.487320 0.023408 1 0 1.000000
0  -35.703968 -151.720169 14.925526  -0.190755 -0.910752 0.366256  0.487320 0.037080 1 0 1.000000
0  -40.522995 -149.974030 15.182400  -0.440091 -0.835049 0.330172  0.489273 0.037080 1 0 1.000000
misc
0  -40.522995 -149.974030 15.182400  -0.440091 -0.835049 0.330172  0.489273 0.037080 1 0 1.000000
0  -40.729301 -148.918182 9.823657  -0.520023 -0.777417 -0.353835  0.489273 0.023408 1 0 1.000000
0  -36.169289 -150.851776 9.582623  -0.277313 -0.895386 -0.348398  0.487320 0.023408 1 0 1.000000
misc
0  -37.281822 -146.421417 4.112300  -0.297968 -0.597575 -0.744392  0.487320 0.010712 1 0 1.000000
0  -36.169289 -150.851776 9.582623  -0.277313 -0.895386 -0.348398  0.487320 0.023408 1 0 1.000000
0  -40.729301 -148.918182 9.823657  -0.520023 -0.777417 -0.353835  0.489273 0.023408 1 0 1.000000
misc
0  -40.729301 -148.918182 9.823657  -0.520023 -0.777417 -0.353835  0.489273 0.023408 1 0 1.000000
0  -40.137947 -144.636795 4.259122  -0.477515 -0.522181 -0.706616  0.488296 0.010712 1 0 1.000000
0  -37.281822 -146.421417 4.112300  -0.297968 -0.597575 -0.744392  0.487320 0.010712 1 0 1.000000
misc
0  0.903976 -146.943680 12.033833  -0.053386 -0.922682 0.381848  0.469741 0.037080 1 0 1.000000
0  0.856354 -146.072952 12.679118  -0.029372 -0.344550 0.938308  0.469741 0.038057 1 0 1.000000
0  -17.663342 -150.019333 14.538445  0.130312 -0.355483 0.925554  0.478530 0.038057 1 0 1.000000
misc
0  -17.663342 -150.019333 14.538445  0.130312 -0.355483 0.925554  0.478530 0.038057 1 0 1.000000
0  -17.539778 -150.890335 13.903691  0.176995 -0.901026 0.396011  0.478530 0.037080 1 0 1.000000
0  0.903976 -146.943680 12.033833  -0.053386 -0.922682 0.381848  0.469741 0.037080 1 0 1.000000
misc
0  -30.896278 -151.455185 15.288881  0.047892 -0.393416 0.918112  0.485366 0.038057 1 0 1.000000
0  -30.777681 -152.299088 14.654211  0.020270 -0.924368 0.380962  0.485366 0.037080 1 0 1.000000
0  -17.539778 -150.890335 13.903691  0.176995 -0.901026 0.396011  0.478530 0.037080 1 0 1.000000
misc
0  -17.539778 -150.890335 13.903691  0.176995 -0.901026 0.396011  0.478530 0.037080 1 0 1.000000
0  -17.663342 -150.019333 14.538445  0.130312 -0.355483 0.925554  0.478530 0.038057 1 0 1.000000
0  -30.896278 -151.455185 15.288881  0.047892 -0.393416 0.918112  0.485366 0.038057 1 0 1.000000
misc
0  -35.817600 -150.903320 15.560114  -0.054371 -0.414492 0.908427  0.487320 0.038057 1 0 1.000000
0  -35.703968 -151.720169 14.925526  -0.190755 -0.910752 0.366256  0.487320 0.037080 1 0 1.000000
0  -30.777681 -152.299088 14.654211  0.020270 -0.924368 0.380962  0.485366 0.037080 1 0 1.000000
misc
0  -30.777681 -152.299088 14.654211  0.020270 -0.924368 0.380962  0.485366 0.037080 1 0 1.000000
0  -30.896278 -151.455185 15.288881  0.047892 -0.393416 0.918112  0.485366 0.038057 1 0 1.000000
0  -35.817600 -150.903320 15.560114  -0.054371 -0.414492 0.908427  0.487320 0.038057 1 0 1.000000
misc
0  -40.636623 -149.157196 15.816989  -0.232629 -0.434174 0.870274  0.489273 0.038057 1 0 1.000000
0  -40.522995 -149.974030 15.182400  -0.440091 -0.835049 0.330172  0.489273 0.037080 1 0 1.000000
0  -35.703968 -151.720169 14.925526  -0.190755 -0.910752 0.366256  0.487320 0.037080 1 0 1.000000
misc
0  -35.703968 -151.720169 14.925526  -0.190755 -0.910752 0.366256  0.487320 0.037080 1 0 1.000000
0  -35.817600 -150.903320 15.560114  -0.054371 -0.414492 0.908427  0.487320 0.038057 1 0 1.000000
0  -40.636623 -149.157196 15.816989  -0.232629 -0.434174 0.870274  0.489273 0.038057 1 0 1.000000
misc
0  -44.690521 -145.717285 16.018826  -0.490031 -0.452870 0.744835  0.491226 0.038057 1 0 1.000000
0  -45.078934 -146.234482 15.410146  -0.710690 -0.634991 0.302831  0.491226 0.037080 1 0 1.000000
0  -40.522995 -149.974030 15.182400  -0.440091 -0.835049 0.330172  0.489273 0.037080 1 0 1.000000
misc
0  -40.522995 -149.974030 15.182400  -0.440091 -0.835049 0.330172  0.489273 0.037080 1 0 1.000000
0  -40.636623 -149.157196 15.816989  -0.232629 -0.434174 0.870274  0.489273 0.038057 1 0 1.000000
0  -44.690521 -145.717285 16.018826  -0.490031 -0.452870 0.744835  0.491226 0.038057 1 0 1.000000
misc
0  -47.787025 -140.870148 16.156940  -0.665632 -0.371091 0.647476  0.492203 0.038057 1 0 1.000000
0  -48.222610 -141.130112 15.549039  -0.856344 -0.454680 0.244830  0.492203 0.037080 1 0 1.000000
0  -45.078934 -146.234482 15.410146  -0.710690 -0.634991 0.302831  0.491226 0.037080 1 0 1.000000
misc
0  -45.078934 -146.234482 15.410146  -0.710690 -0.634991 0.302831  0.491226 0.037080 1 0 1.000000
0  -44.690521 -145.717285 16.018826  -0.490031 -0.452870 0.744835  0.491226 0.038057 1 0 1.000000
0  -47.787025 -140.870148 16.156940  -0.665632 -0.371091 0.647476  0.492203 0.038057 1 0 1.000000
misc
0  -48.222610 -141.130112 15.549039  -0.856344 -0.454680 0.244830  0.492203 0.037080 1 0 1.000000
0  -47.787025 -140.870148 16.156940  -0.665632 -0.371091 0.647476  0.492203 0.038057 1 0 1.000000
0  -49.338203 -137.516541 16.219437  -0.786997 -0.196048 0.584979  0.492203 0.038057 1 0 1.000000
misc
0  -49.338203 -137.516541 16.219437  -0.786997 -0.196048 0.584979  0.492203 0.038057 1 0 1.000000
0  -49.760551 -137.620148 15.609663  -0.970349 -0.171938 0.169884  0.492203 0.037080 1 0 1.000000
0  -48.222610 -141.130112 15.549039  -0.856344 -0.454680 0.244830  0.492203 0.037080 1 0 1.000000
misc
0  -49.338203 -137.516541 16.219437  -0.786997 -0.196048 0.584979  0.492203 0.038057 1 0 1.000000
0  -49.556915 -135.457153 16.065130  -0.981602 0.175542 -0.075120  0.492203 0.038057 1 0 1.000000
0  -49.760551 -137.620148 15.609663  -0.970349 -0.171938 0.169884  0.492203 0.037080 1 0 1.000000
misc
0  -18.823244 -147.272797 3.086163  0.040220 -0.642902 -0.764892  0.478530 0.010712 1 0 1.000000
0  -19.815100 -142.384079 1.438205  -0.021332 -0.325733 -0.945221  0.478530 0.006806 1 0 1.000000
0  -0.143875 -137.791367 -0.343373  0.000133 -0.290970 -0.956732  0.469741 0.006806 1 0 1.000000
misc
0  -0.143875 -137.791367 -0.343373  0.000133 -0.290970 -0.956732  0.469741 0.006806 1 0 1.000000
0  0.301781 -143.067383 1.246593  -0.003744 -0.574027 -0.818828  0.469741 0.010712 1 0 1.000000
0  -18.823244 -147.272797 3.086163  0.040220 -0.642902 -0.764892  0.478530 0.010712 1 0 1.000000
misc
0  -44.903687 -136.401749 4.466087  -0.782108 -0.024395 -0.622665  0.490249 0.010712 1 0 1.000000
0  -42.978523 -135.847260 2.658768  -0.676297 -0.007271 -0.736593  0.489273 0.005829 1 0 1.000000
0  -42.054760 -138.056732 2.650659  -0.588608 -0.294673 -0.752801  0.488296 0.006806 1 0 1.000000
misc
0  -42.054760 -138.056732 2.650659  -0.588608 -0.294673 -0.752801  0.488296 0.006806 1 0 1.000000
0  -43.966286 -138.846512 4.431344  -0.682812 -0.311019 -0.661086  0.489273 0.010712 1 0 1.000000
0  -44.903687 -136.401749 4.466087  -0.782108 -0.024395 -0.622665  0.490249 0.010712 1 0 1.000000
misc
0  -44.363930 -134.469467 4.421926  -0.769980 0.208534 -0.603029  0.489273 0.010712 1 0 1.000000
0  -42.294106 -133.874359 2.578653  -0.680945 0.209090 -0.701851  0.488296 0.005829 1 0 1.000000
0  -42.978523 -135.847260 2.658768  -0.676297 -0.007271 -0.736593  0.489273 0.005829 1 0 1.000000
misc
0  -42.978523 -135.847260 2.658768  -0.676297 -0.007271 -0.736593  0.489273 0.005829 1 0 1.000000
0  -44.903687 -136.401749 4.466087  -0.782108 -0.024395 -0.622665  0.490249 0.010712 1 0 1.000000
0  -44.363930 -134.469467 4.421926  -0.769980 0.208534 -0.603029  0.489273 0.010712 1 0 1.000000
misc
0  -19.815100 -142.384079 1.438205  -0.021332 -0.325733 -0.945221  0.478530 0.006806 1 0 1.000000
0  -18.823244 -147.272797 3.086163  0.040220 -0.642902 -0.764892  0.478530 0.010712 1 0 1.000000
0  -32.182819 -148.018188 3.838687  -0.107079 -0.639320 -0.761449  0.485366 0.010712 1 0 1.000000
misc
0  -32.182819 -148.018188 3.838687  -0.107079 -0.639320 -0.761449  0.485366 0.010712 1 0 1.000000
0  -33.072868 -143.684540 2.189049  -0.099209 -0.376615 -0.921042  0.485366 0.006806 1 0 1.000000
0  -19.815100 -142.384079 1.438205  -0.021332 -0.325733 -0.945221  0.478530 0.006806 1 0 1.000000
misc
0  -33.072868 -143.684540 2.189049  -0.099209 -0.376615 -0.921042  0.485366 0.006806 1 0 1.000000
0  -32.182819 -148.018188 3.838687  -0.107079 -0.639320 -0.761449  0.485366 0.010712 1 0 1.000000
0  -37.281822 -146.421417 4.112300  -0.297968 -0.597575 -0.744392  0.487320 0.010712 1 0 1.000000
misc
0  -37.281822 -146.421417 4.112300  -0.297968 -0.597575 -0.744392  0.487320 0.010712 1 0 1.000000
0  -38.114761 -142.399139 2.461720  -0.240832 -0.417654 -0.876108  0.487320 0.006806 1 0 1.000000
0  -33.072868 -143.684540 2.189049  -0.099209 -0.376615 -0.921042  0.485366 0.006806 1 0 1.000000
misc
0  -39.325455 -141.739807 2.524660  -0.378666 -0.408565 -0.830474  0.487320 0.006806 1 0 1.000000
0  -40.137947 -144.636795 4.259122  -0.477515 -0.522181 -0.706616  0.488296 0.010712 1 0 1.000000
0  -41.974579 -142.469086 4.346158  -0.611240 -0.401723 -0.681912  0.489273 0.010712 1 0 1.000000
misc
0  -41.974579 -142.469086 4.346158  -0.611240 -0.401723 -0.681912  0.489273 0.010712 1 0 1.000000
0  -40.186108 -140.932236 2.566951  -0.493823 -0.360118 -0.791488  0.488296 0.006806 1 0 1.000000
0  -39.325455 -141.739807 2.524660  -0.378666 -0.408565 -0.830474  0.487320 0.006806 1 0 1.000000
misc
0  -43.966286 -138.846512 4.431344  -0.682812 -0.311019 -0.661086  0.489273 0.010712 1 0 1.000000
0  -42.054760 -138.056732 2.650659  -0.588608 -0.294673 -0.752801  0.488296 0.006806 1 0 1.000000
0  -40.186108 -140.932236 2.566951  -0.493823 -0.360118 -0.791488  0.488296 0.006806 1 0 1.000000
misc
0  -40.186108 -140.932236 2.566951  -0.493823 -0.360118 -0.791488  0.488296 0.006806 1 0 1.000000
0  -41.974579 -142.469086 4.346158  -0.611240 -0.401723 -0.681912  0.489273 0.010712 1 0 1.000000
0  -43.966286 -138.846512 4.431344  -0.682812 -0.311019 -0.661086  0.489273 0.010712 1 0 1.000000
misc
0  -38.114761 -142.399139 2.461720  -0.240832 -0.417654 -0.876108  0.487320 0.006806 1 0 1.000000
0  -37.281822 -146.421417 4.112300  -0.297968 -0.597575 -0.744392  0.487320 0.010712 1 0 1.000000
0  -40.137947 -144.636795 4.259122  -0.477515 -0.522181 -0.706616  0.488296 0.010712 1 0 1.000000
misc
0  -40.137947 -144.636795 4.259122  -0.477515 -0.522181 -0.706616  0.488296 0.010712 1 0 1.000000
0  -39.325455 -141.739807 2.524660  -0.378666 -0.408565 -0.830474  0.487320 0.006806 1 0 1.000000
0  -38.114761 -142.399139 2.461720  -0.240832 -0.417654 -0.876108  0.487320 0.006806 1 0 1.000000
misc
0  0.605722 -142.605530 13.113602  0.039200 0.942240 0.332636  0.349620 0.034150 1 0 1.000000
0  -0.143875 -137.791367 -0.343373  0.013026 0.939960 0.341037  0.349620 0.034150 1 0 1.000000
0  -19.815100 -142.384079 1.438205  -0.128067 0.935643 0.328895  0.349620 0.034150 1 0 1.000000
misc
0  -19.815100 -142.384079 1.438205  -0.128067 0.935643 0.328895  0.349620 0.034150 1 0 1.000000
0  -18.217890 -146.875748 14.932722  -0.137354 0.930850 0.338604  0.349620 0.034150 1 0 1.000000
0  0.605722 -142.605530 13.113602  0.039200 0.942240 0.332636  0.349620 0.034150 1 0 1.000000
misc
0  -49.556915 -135.457153 16.065130  0.895068 0.094317 0.435841  0.349620 0.034150 1 0 1.000000
0  -49.338203 -137.516541 16.219437  0.863695 0.253160 0.435821  0.349620 0.034150 1 0 1.000000
0  -42.978523 -135.847260 2.658768  0.892020 0.031847 0.450872  0.349620 0.034150 1 0 1.000000
misc
0  -42.978523 -135.847260 2.658768  0.892020 0.031847 0.450872  0.349620 0.034150 1 0 1.000000
0  -42.294106 -133.874359 2.578653  0.857879 -0.282903 0.428964  0.349620 0.034150 1 0 1.000000
0  -49.556915 -135.457153 16.065130  0.895068 0.094317 0.435841  0.349620 0.034150 1 0 1.000000
misc
0  -31.354757 -148.839661 15.667820  -0.013979 0.923348 0.383709  0.349620 0.034150 1 0 1.000000
0  -33.072868 -143.684540 2.189049  0.088823 0.937853 0.335472  0.349620 0.034150 1 0 1.000000
0  -38.114761 -142.399139 2.461720  0.358126 0.872975 0.331149  0.349620 0.034150 1 0 1.000000
misc
0  -38.114761 -142.399139 2.461720  0.358126 0.872975 0.331149  0.349620 0.034150 1 0 1.000000
0  -36.208092 -148.667053 15.910423  0.136932 0.901067 0.411496  0.349620 0.034150 1 0 1.000000
0  -31.354757 -148.839661 15.667820  -0.013979 0.923348 0.383709  0.349620 0.034150 1 0 1.000000
misc
0  -44.690521 -145.717285 16.018826  0.599934 0.669442 0.438095  0.349620 0.034150 1 0 1.000000
0  -40.186108 -140.932236 2.566951  0.694153 0.595863 0.403856  0.349620 0.034150 1 0 1.000000
0  -42.054760 -138.056732 2.650659  0.801338 0.417718 0.428215  0.349620 0.034150 1 0 1.000000
misc
0  -42.054760 -138.056732 2.650659  0.801338 0.417718 0.428215  0.349620 0.034150 1 0 1.000000
0  -47.787025 -140.870148 16.156940  0.797796 0.423553 0.429096  0.349620 0.034150 1 0 1.000000
0  -44.690521 -145.717285 16.018826  0.599934 0.669442 0.438095  0.349620 0.034150 1 0 1.000000
misc
0  -18.217890 -146.875748 14.932722  -0.137354 0.930850 0.338604  0.349620 0.034150 1 0 1.000000
0  -19.815100 -142.384079 1.438205  -0.128067 0.935643 0.328895  0.349620 0.034150 1 0 1.000000
0  -33.072868 -143.684540 2.189049  0.088823 0.937853 0.335472  0.349620 0.034150 1 0 1.000000
misc
0  -33.072868 -143.684540 2.189049  0.088823 0.937853 0.335472  0.349620 0.034150 1 0 1.000000
0  -31.354757 -148.839661 15.667820  -0.013979 0.923348 0.383709  0.349620 0.034150 1 0 1.000000
0  -18.217890 -146.875748 14.932722  -0.137354 0.930850 0.338604  0.349620 0.034150 1 0 1.000000
misc
0  -40.730659 -147.636047 16.114532  0.310687 0.855107 0.415049  0.349620 0.034150 1 0 1.000000
0  -39.325455 -141.739807 2.524660  0.550052 0.757104 0.352472  0.349620 0.034150 1 0 1.000000
0  -40.186108 -140.932236 2.566951  0.694153 0.595863 0.403856  0.349620 0.034150 1 0 1.000000
misc
0  -40.186108 -140.932236 2.566951  0.694153 0.595863 0.403856  0.349620 0.034150 1 0 1.000000
0  -44.690521 -145.717285 16.018826  0.599934 0.669442 0.438095  0.349620 0.034150 1 0 1.000000
0  -40.730659 -147.636047 16.114532  0.310687 0.855107 0.415049  0.349620 0.034150 1 0 1.000000
misc
0  -47.787025 -140.870148 16.156940  0.797796 0.423553 0.429096  0.349620 0.034150 1 0 1.000000
0  -42.054760 -138.056732 2.650659  0.801338 0.417718 0.428215  0.349620 0.034150 1 0 1.000000
0  -42.978523 -135.847260 2.658768  0.892020 0.031847 0.450872  0.349620 0.034150 1 0 1.000000
misc
0  -42.978523 -135.847260 2.658768  0.892020 0.031847 0.450872  0.349620 0.034150 1 0 1.000000
0  -49.338203 -137.516541 16.219437  0.863695 0.253160 0.435821  0.349620 0.034150 1 0 1.000000
0  -47.787025 -140.870148 16.156940  0.797796 0.423553 0.429096  0.349620 0.034150 1 0 1.000000
misc
0  -36.208092 -148.667053 15.910423  0.136932 0.901067 0.411496  0.349620 0.034150 1 0 1.000000
0  -38.114761 -142.399139 2.461720  0.358126 0.872975 0.331149  0.349620 0.034150 1 0 1.000000
0  -39.325455 -141.739807 2.524660  0.550052 0.757104 0.352472  0.349620 0.034150 1 0 1.000000
misc
0  -39.325455 -141.739807 2.524660  0.550052 0.757104 0.352472  0.349620 0.034150 1 0 1.000000
0  -40.730659 -147.636047 16.114532  0.310687 0.855107 0.415049  0.349620 0.034150 1 0 1.000000
0  -36.208092 -148.667053 15.910423  0.136932 0.901067 0.411496  0.349620 0.034150 1 0 1.000000
misc
0  -47.464142 -135.055222 10.086257  -0.256788 0.966117 -0.026030  0.491226 0.023408 1 0 1.000000
0  -49.556915 -135.457153 16.065130  -0.253321 0.967098 -0.023469  0.492203 0.038057 1 0 1.000000
0  -42.294106 -133.874359 2.578653  -0.317913 0.945431 -0.071361  0.488296 0.005829 1 0 1.000000
misc
0  -42.294106 -133.874359 2.578653  -0.317913 0.945431 -0.071361  0.488296 0.005829 1 0 1.000000
0  -44.363930 -134.469467 4.421926  -0.345668 0.933806 -0.092302  0.489273 0.010712 1 0 1.000000
0  -47.464142 -135.055222 10.086257  -0.256788 0.966117 -0.026030  0.491226 0.023408 1 0 1.000000
misc
0  18.631836 -148.172974 3.453944  -0.034258 -0.649919 -0.759231  0.460952 0.010712 1 0 1.000000
0  18.154936 -151.338379 8.893467  -0.119061 -0.938856 -0.323070  0.460952 0.023408 1 0 1.000000
0  0.693039 -146.179550 6.678582  -0.029823 -0.937833 -0.345804  0.469741 0.023408 1 0 1.000000
misc
0  0.693039 -146.179550 6.678582  -0.029823 -0.937833 -0.345804  0.469741 0.023408 1 0 1.000000
0  0.301781 -143.067383 1.246593  -0.003744 -0.574027 -0.818828  0.469741 0.010712 1 0 1.000000
0  18.631836 -148.172974 3.453944  -0.034258 -0.649919 -0.759231  0.460952 0.010712 1 0 1.000000
misc
0  0.605722 -142.605530 13.113602  -0.010390 -0.124108 0.992214  0.469741 0.039033 1 0 1.000000
0  0.856354 -146.072952 12.679118  -0.029372 -0.344550 0.938308  0.469741 0.038057 1 0 1.000000
0  18.018955 -151.184952 14.881804  -0.130351 -0.380990 0.915345  0.460952 0.038057 1 0 1.000000
misc
0  18.018955 -151.184952 14.881804  -0.130351 -0.380990 0.915345  0.460952 0.038057 1 0 1.000000
0  18.346794 -148.015213 15.318132  -0.097004 -0.125250 0.987371  0.460952 0.039033 1 0 1.000000
0  0.605722 -142.605530 13.113602  -0.010390 -0.124108 0.992214  0.469741 0.039033 1 0 1.000000
misc
0  49.110016 -136.409775 15.279181  0.990151 -0.080879 0.114280  0.447279 0.037080 1 0 1.000000
0  47.760853 -136.068329 9.877150  0.919822 0.105751 -0.377814  0.448256 0.023408 1 0 1.000000
0  46.465801 -133.936813 9.870578  0.818338 0.462857 -0.340715  0.449232 0.023408 1 0 1.000000
misc
0  46.465801 -133.936813 9.870578  0.818338 0.462857 -0.340715  0.449232 0.023408 1 0 1.000000
0  48.757710 -134.276077 15.779913  0.961977 0.201984 -0.183854  0.448256 0.038057 1 0 1.000000
0  49.110016 -136.409775 15.279181  0.990151 -0.080879 0.114280  0.447279 0.037080 1 0 1.000000
misc
0  47.760853 -136.068329 9.877150  0.919822 0.105751 -0.377814  0.448256 0.023408 1 0 1.000000
0  43.849819 -135.381989 4.300705  0.753775 0.034129 -0.656245  0.450209 0.010712 1 0 1.000000
0  43.165169 -133.495651 4.307285  0.712729 0.277431 -0.644243  0.451186 0.010712 1 0 1.000000
misc
0  43.165169 -133.495651 4.307285  0.712729 0.277431 -0.644243  0.451186 0.010712 1 0 1.000000
0  46.465801 -133.936813 9.870578  0.818338 0.462857 -0.340715  0.449232 0.023408 1 0 1.000000
0  47.760853 -136.068329 9.877150  0.919822 0.105751 -0.377814  0.448256 0.023408 1 0 1.000000
misc
0  31.610088 -148.990341 15.647746  -0.017111 -0.152346 0.988179  0.455092 0.039033 1 0 1.000000
0  31.338730 -151.626587 15.233767  0.008844 -0.409278 0.912367  0.455092 0.038057 1 0 1.000000
0  36.210430 -150.708099 15.376795  0.111016 -0.421782 0.899875  0.453139 0.038057 1 0 1.000000
misc
0  36.210430 -150.708099 15.376795  0.111016 -0.421782 0.899875  0.453139 0.038057 1 0 1.000000
0  36.441711 -148.454666 15.757090  0.024511 -0.172585 0.984690  0.453139 0.039033 1 0 1.000000
0  31.610088 -148.990341 15.647746  -0.017111 -0.152346 0.988179  0.455092 0.039033 1 0 1.000000
misc
0  17.942661 -152.052399 14.234852  -0.172360 -0.908734 0.380125  0.460952 0.037080 1 0 1.000000
0  18.154936 -151.338379 8.893467  -0.119061 -0.938856 -0.323070  0.460952 0.023408 1 0 1.000000
0  31.497141 -151.699341 9.247100  0.114204 -0.924985 -0.362438  0.455092 0.023408 1 0 1.000000
misc
0  31.497141 -151.699341 9.247100  0.114204 -0.924985 -0.362438  0.455092 0.023408 1 0 1.000000
0  31.265352 -152.466644 14.587255  0.065801 -0.930674 0.359883  0.455092 0.037080 1 0 1.000000
0  17.942661 -152.052399 14.234852  -0.172360 -0.908734 0.380125  0.460952 0.037080 1 0 1.000000
misc
0  18.346794 -148.015213 15.318132  -0.097004 -0.125250 0.987371  0.460952 0.039033 1 0 1.000000
0  18.018955 -151.184952 14.881804  -0.130351 -0.380990 0.915345  0.460952 0.038057 1 0 1.000000
0  31.338730 -151.626587 15.233767  0.008844 -0.409278 0.912367  0.455092 0.038057 1 0 1.000000
misc
0  31.338730 -151.626587 15.233767  0.008844 -0.409278 0.912367  0.455092 0.038057 1 0 1.000000
0  31.610088 -148.990341 15.647746  -0.017111 -0.152346 0.988179  0.455092 0.039033 1 0 1.000000
0  18.346794 -148.015213 15.318132  -0.097004 -0.125250 0.987371  0.460952 0.039033 1 0 1.000000
misc
0  31.265352 -152.466644 14.587255  0.065801 -0.930674 0.359883  0.455092 0.037080 1 0 1.000000
0  31.497141 -151.699341 9.247100  0.114204 -0.924985 -0.362438  0.455092 0.023408 1 0 1.000000
0  36.381397 -150.533081 9.393745  0.328515 -0.862269 -0.385448  0.453139 0.023408 1 0 1.000000
misc
0  36.381397 -150.533081 9.393745  0.328515 -0.862269 -0.385448  0.453139 0.023408 1 0 1.000000
0  36.139969 -151.520798 14.730724  0.270884 -0.902837 0.333928  0.453139 0.037080 1 0 1.000000
0  31.265352 -152.466644 14.587255  0.065801 -0.930674 0.359883  0.455092 0.037080 1 0 1.000000
misc
0  40.889900 -148.606461 15.530322  0.278819 -0.427245 0.860071  0.451186 0.038057 1 0 1.000000
0  44.677708 -144.873169 15.681496  0.551787 -0.418565 0.721342  0.449232 0.038057 1 0 1.000000
0  40.877941 -147.087601 15.853048  0.115784 -0.203280 0.972251  0.451186 0.039033 1 0 1.000000
misc
0  40.819443 -149.419144 14.884251  0.513562 -0.807833 0.289241  0.451186 0.037080 1 0 1.000000
0  40.788139 -148.263870 9.542165  0.565656 -0.729221 -0.385058  0.451186 0.023408 1 0 1.000000
0  44.329117 -144.379623 9.688706  0.763776 -0.512755 -0.392083  0.449232 0.023408 1 0 1.000000
misc
0  44.329117 -144.379623 9.688706  0.763776 -0.512755 -0.392083  0.449232 0.023408 1 0 1.000000
0  45.085869 -145.349518 15.052734  0.767977 -0.585896 0.258723  0.449232 0.037080 1 0 1.000000
0  40.819443 -149.419144 14.884251  0.513562 -0.807833 0.289241  0.451186 0.037080 1 0 1.000000
misc
0  41.383194 -141.650955 4.151454  0.626557 -0.359969 -0.691266  0.451186 0.010712 1 0 1.000000
0  44.329117 -144.379623 9.688706  0.763776 -0.512755 -0.392083  0.449232 0.023408 1 0 1.000000
0  40.788139 -148.263870 9.542165  0.565656 -0.729221 -0.385058  0.451186 0.023408 1 0 1.000000
misc
0  40.788139 -148.263870 9.542165  0.565656 -0.729221 -0.385058  0.451186 0.023408 1 0 1.000000
0  39.713078 -143.949829 4.076157  0.507495 -0.488520 -0.709787  0.452162 0.010712 1 0 1.000000
0  41.383194 -141.650955 4.151454  0.626557 -0.359969 -0.691266  0.451186 0.010712 1 0 1.000000
misc
0  45.085869 -145.349518 15.052734  0.767977 -0.585896 0.258723  0.449232 0.037080 1 0 1.000000
0  44.329117 -144.379623 9.688706  0.763776 -0.512755 -0.392083  0.449232 0.023408 1 0 1.000000
0  46.715271 -139.388977 9.805102  0.852659 -0.330340 -0.404782  0.449232 0.023408 1 0 1.000000
misc
0  46.715271 -139.388977 9.805102  0.852659 -0.330340 -0.404782  0.449232 0.023408 1 0 1.000000
0  47.839363 -140.024673 15.197193  0.895085 -0.393187 0.210301  0.448256 0.037080 1 0 1.000000
0  45.085869 -145.349518 15.052734  0.767977 -0.585896 0.258723  0.449232 0.037080 1 0 1.000000
misc
0  43.849819 -135.381989 4.300705  0.753775 0.034129 -0.656245  0.450209 0.010712 1 0 1.000000
0  47.760853 -136.068329 9.877150  0.919822 0.105751 -0.377814  0.448256 0.023408 1 0 1.000000
0  46.715271 -139.388977 9.805102  0.852659 -0.330340 -0.404782  0.449232 0.023408 1 0 1.000000
misc
0  46.715271 -139.388977 9.805102  0.852659 -0.330340 -0.404782  0.449232 0.023408 1 0 1.000000
0  43.098377 -137.889832 4.247320  0.692497 -0.249055 -0.677067  0.450209 0.010712 1 0 1.000000
0  43.849819 -135.381989 4.300705  0.753775 0.034129 -0.656245  0.450209 0.010712 1 0 1.000000
misc
0  47.760853 -136.068329 9.877150  0.919822 0.105751 -0.377814  0.448256 0.023408 1 0 1.000000
0  49.110016 -136.409775 15.279181  0.990151 -0.080879 0.114280  0.447279 0.037080 1 0 1.000000
0  47.839363 -140.024673 15.197193  0.895085 -0.393187 0.210301  0.448256 0.037080 1 0 1.000000
misc
0  47.839363 -140.024673 15.197193  0.895085 -0.393187 0.210301  0.448256 0.037080 1 0 1.000000
0  46.715271 -139.388977 9.805102  0.852659 -0.330340 -0.404782  0.449232 0.023408 1 0 1.000000
0  47.760853 -136.068329 9.877150  0.919822 0.105751 -0.377814  0.448256 0.023408 1 0 1.000000
misc
0  0.903976 -146.943680 12.033833  -0.053386 -0.922682 0.381848  0.469741 0.037080 1 0 1.000000
0  0.693039 -146.179550 6.678582  -0.029823 -0.937833 -0.345804  0.469741 0.023408 1 0 1.000000
0  18.154936 -151.338379 8.893467  -0.119061 -0.938856 -0.323070  0.460952 0.023408 1 0 1.000000
misc
0  18.154936 -151.338379 8.893467  -0.119061 -0.938856 -0.323070  0.460952 0.023408 1 0 1.000000
0  17.942661 -152.052399 14.234852  -0.172360 -0.908734 0.380125  0.460952 0.037080 1 0 1.000000
0  0.903976 -146.943680 12.033833  -0.053386 -0.922682 0.381848  0.469741 0.037080 1 0 1.000000
misc
0  18.154936 -151.338379 8.893467  -0.119061 -0.938856 -0.323070  0.460952 0.023408 1 0 1.000000
0  18.631836 -148.172974 3.453944  -0.034258 -0.649919 -0.759231  0.460952 0.010712 1 0 1.000000
0  32.025959 -147.916656 3.817144  0.147517 -0.634223 -0.758946  0.455092 0.010712 1 0 1.000000
misc
0  32.025959 -147.916656 3.817144  0.147517 -0.634223 -0.758946  0.455092 0.010712 1 0 1.000000
0  31.497141 -151.699341 9.247100  0.114204 -0.924985 -0.362438  0.455092 0.023408 1 0 1.000000
0  18.154936 -151.338379 8.893467  -0.119061 -0.938856 -0.323070  0.460952 0.023408 1 0 1.000000
misc
0  31.497141 -151.699341 9.247100  0.114204 -0.924985 -0.362438  0.455092 0.023408 1 0 1.000000
0  32.025959 -147.916656 3.817144  0.147517 -0.634223 -0.758946  0.455092 0.010712 1 0 1.000000
0  36.996220 -145.942993 3.976788  0.337052 -0.579902 -0.741694  0.453139 0.010712 1 0 1.000000
misc
0  36.996220 -145.942993 3.976788  0.337052 -0.579902 -0.741694  0.453139 0.010712 1 0 1.000000
0  36.381397 -150.533081 9.393745  0.328515 -0.862269 -0.385448  0.453139 0.023408 1 0 1.000000
0  31.497141 -151.699341 9.247100  0.114204 -0.924985 -0.362438  0.455092 0.023408 1 0 1.000000
misc
0  44.329117 -144.379623 9.688706  0.763776 -0.512755 -0.392083  0.449232 0.023408 1 0 1.000000
0  41.383194 -141.650955 4.151454  0.626557 -0.359969 -0.691266  0.451186 0.010712 1 0 1.000000
0  43.098377 -137.889832 4.247320  0.692497 -0.249055 -0.677067  0.450209 0.010712 1 0 1.000000
misc
0  43.098377 -137.889832 4.247320  0.692497 -0.249055 -0.677067  0.450209 0.010712 1 0 1.000000
0  46.715271 -139.388977 9.805102  0.852659 -0.330340 -0.404782  0.449232 0.023408 1 0 1.000000
0  44.329117 -144.379623 9.688706  0.763776 -0.512755 -0.392083  0.449232 0.023408 1 0 1.000000
misc
0  36.441711 -148.454666 15.757090  0.024511 -0.172585 0.984690  0.453139 0.039033 1 0 1.000000
0  36.210430 -150.708099 15.376795  0.111016 -0.421782 0.899875  0.453139 0.038057 1 0 1.000000
0  40.889900 -148.606461 15.530322  0.278819 -0.427245 0.860071  0.451186 0.038057 1 0 1.000000
misc
0  40.889900 -148.606461 15.530322  0.278819 -0.427245 0.860071  0.451186 0.038057 1 0 1.000000
0  40.877941 -147.087601 15.853048  0.115784 -0.203280 0.972251  0.451186 0.039033 1 0 1.000000
0  36.441711 -148.454666 15.757090  0.024511 -0.172585 0.984690  0.453139 0.039033 1 0 1.000000
misc
0  36.139969 -151.520798 14.730724  0.270884 -0.902837 0.333928  0.453139 0.037080 1 0 1.000000
0  36.381397 -150.533081 9.393745  0.328515 -0.862269 -0.385448  0.453139 0.023408 1 0 1.000000
0  40.788139 -148.263870 9.542165  0.565656 -0.729221 -0.385058  0.451186 0.023408 1 0 1.000000
misc
0  40.788139 -148.263870 9.542165  0.565656 -0.729221 -0.385058  0.451186 0.023408 1 0 1.000000
0  40.819443 -149.419144 14.884251  0.513562 -0.807833 0.289241  0.451186 0.037080 1 0 1.000000
0  36.139969 -151.520798 14.730724  0.270884 -0.902837 0.333928  0.453139 0.037080 1 0 1.000000
misc
0  36.381397 -150.533081 9.393745  0.328515 -0.862269 -0.385448  0.453139 0.023408 1 0 1.000000
0  36.996220 -145.942993 3.976788  0.337052 -0.579902 -0.741694  0.453139 0.010712 1 0 1.000000
0  39.713078 -143.949829 4.076157  0.507495 -0.488520 -0.709787  0.452162 0.010712 1 0 1.000000
misc
0  39.713078 -143.949829 4.076157  0.507495 -0.488520 -0.709787  0.452162 0.010712 1 0 1.000000
0  40.788139 -148.263870 9.542165  0.565656 -0.729221 -0.385058  0.451186 0.023408 1 0 1.000000
0  36.381397 -150.533081 9.393745  0.328515 -0.862269 -0.385448  0.453139 0.023408 1 0 1.000000
misc
0  0.856354 -146.072952 12.679118  -0.029372 -0.344550 0.938308  0.469741 0.038057 1 0 1.000000
0  0.903976 -146.943680 12.033833  -0.053386 -0.922682 0.381848  0.469741 0.037080 1 0 1.000000
0  17.942661 -152.052399 14.234852  -0.172360 -0.908734 0.380125  0.460952 0.037080 1 0 1.000000
misc
0  17.942661 -152.052399 14.234852  -0.172360 -0.908734 0.380125  0.460952 0.037080 1 0 1.000000
0  18.018955 -151.184952 14.881804  -0.130351 -0.380990 0.915345  0.460952 0.038057 1 0 1.000000
0  0.856354 -146.072952 12.679118  -0.029372 -0.344550 0.938308  0.469741 0.038057 1 0 1.000000
misc
0  31.265352 -152.466644 14.587255  0.065801 -0.930674 0.359883  0.455092 0.037080 1 0 1.000000
0  31.338730 -151.626587 15.233767  0.008844 -0.409278 0.912367  0.455092 0.038057 1 0 1.000000
0  18.018955 -151.184952 14.881804  -0.130351 -0.380990 0.915345  0.460952 0.038057 1 0 1.000000
misc
0  18.018955 -151.184952 14.881804  -0.130351 -0.380990 0.915345  0.460952 0.038057 1 0 1.000000
0  17.942661 -152.052399 14.234852  -0.172360 -0.908734 0.380125  0.460952 0.037080 1 0 1.000000
0  31.265352 -152.466644 14.587255  0.065801 -0.930674 0.359883  0.455092 0.037080 1 0 1.000000
misc
0  36.139969 -151.520798 14.730724  0.270884 -0.902837 0.333928  0.453139 0.037080 1 0 1.000000
0  36.210430 -150.708099 15.376795  0.111016 -0.421782 0.899875  0.453139 0.038057 1 0 1.000000
0  31.338730 -151.626587 15.233767  0.008844 -0.409278 0.912367  0.455092 0.038057 1 0 1.000000
misc
0  31.338730 -151.626587 15.233767  0.008844 -0.409278 0.912367  0.455092 0.038057 1 0 1.000000
0  31.265352 -152.466644 14.587255  0.065801 -0.930674 0.359883  0.455092 0.037080 1 0 1.000000
0  36.139969 -151.520798 14.730724  0.270884 -0.902837 0.333928  0.453139 0.037080 1 0 1.000000
misc
0  40.819443 -149.419144 14.884251  0.513562 -0.807833 0.289241  0.451186 0.037080 1 0 1.000000
0  40.889900 -148.606461 15.530322  0.278819 -0.427245 0.860071  0.451186 0.038057 1 0 1.000000
0  36.210430 -150.708099 15.376795  0.111016 -0.421782 0.899875  0.453139 0.038057 1 0 1.000000
misc
0  36.210430 -150.708099 15.376795  0.111016 -0.421782 0.899875  0.453139 0.038057 1 0 1.000000
0  36.139969 -151.520798 14.730724  0.270884 -0.902837 0.333928  0.453139 0.037080 1 0 1.000000
0  40.819443 -149.419144 14.884251  0.513562 -0.807833 0.289241  0.451186 0.037080 1 0 1.000000
misc
0  45.085869 -145.349518 15.052734  0.767977 -0.585896 0.258723  0.449232 0.037080 1 0 1.000000
0  44.677708 -144.873169 15.681496  0.551787 -0.418565 0.721342  0.449232 0.038057 1 0 1.000000
0  40.889900 -148.606461 15.530322  0.278819 -0.427245 0.860071  0.451186 0.038057 1 0 1.000000
misc
0  40.889900 -148.606461 15.530322  0.278819 -0.427245 0.860071  0.451186 0.038057 1 0 1.000000
0  40.819443 -149.419144 14.884251  0.513562 -0.807833 0.289241  0.451186 0.037080 1 0 1.000000
0  45.085869 -145.349518 15.052734  0.767977 -0.585896 0.258723  0.449232 0.037080 1 0 1.000000
misc
0  47.839363 -140.024673 15.197193  0.895085 -0.393187 0.210301  0.448256 0.037080 1 0 1.000000
0  47.403511 -139.808350 15.821769  0.716680 -0.330087 0.614339  0.448256 0.038057 1 0 1.000000
0  44.677708 -144.873169 15.681496  0.551787 -0.418565 0.721342  0.449232 0.038057 1 0 1.000000
misc
0  44.677708 -144.873169 15.681496  0.551787 -0.418565 0.721342  0.449232 0.038057 1 0 1.000000
0  45.085869 -145.349518 15.052734  0.767977 -0.585896 0.258723  0.449232 0.037080 1 0 1.000000
0  47.839363 -140.024673 15.197193  0.895085 -0.393187 0.210301  0.448256 0.037080 1 0 1.000000
misc
0  47.403511 -139.808350 15.821769  0.716680 -0.330087 0.614339  0.448256 0.038057 1 0 1.000000
0  47.839363 -140.024673 15.197193  0.895085 -0.393187 0.210301  0.448256 0.037080 1 0 1.000000
0  49.110016 -136.409775 15.279181  0.990151 -0.080879 0.114280  0.447279 0.037080 1 0 1.000000
misc
0  49.110016 -136.409775 15.279181  0.990151 -0.080879 0.114280  0.447279 0.037080 1 0 1.000000
0  48.699173 -136.348358 15.902378  0.817900 -0.153960 0.554379  0.448256 0.038057 1 0 1.000000
0  47.403511 -139.808350 15.821769  0.716680 -0.330087 0.614339  0.448256 0.038057 1 0 1.000000
misc
0  48.757710 -134.276077 15.779913  0.961977 0.201984 -0.183854  0.448256 0.038057 1 0 1.000000
0  48.699173 -136.348358 15.902378  0.817900 -0.153960 0.554379  0.448256 0.038057 1 0 1.000000
0  49.110016 -136.409775 15.279181  0.990151 -0.080879 0.114280  0.447279 0.037080 1 0 1.000000
misc
0  19.204243 -143.197098 1.869020  0.024046 -0.303545 -0.952514  0.460952 0.006806 1 0 1.000000
0  18.631836 -148.172974 3.453944  -0.034258 -0.649919 -0.759231  0.460952 0.010712 1 0 1.000000
0  0.301781 -143.067383 1.246593  -0.003744 -0.574027 -0.818828  0.469741 0.010712 1 0 1.000000
misc
0  0.301781 -143.067383 1.246593  -0.003744 -0.574027 -0.818828  0.469741 0.010712 1 0 1.000000
0  -0.143875 -137.791367 -0.343373  0.000133 -0.290970 -0.956732  0.469741 0.006806 1 0 1.000000
0  19.204243 -143.197098 1.869020  0.024046 -0.303545 -0.952514  0.460952 0.006806 1 0 1.000000
misc
0  41.836109 -134.945618 2.558675  0.656561 0.074939 -0.750541  0.451186 0.005829 1 0 1.000000
0  43.849819 -135.381989 4.300705  0.753775 0.034129 -0.656245  0.450209 0.010712 1 0 1.000000
0  43.098377 -137.889832 4.247320  0.692497 -0.249055 -0.677067  0.450209 0.010712 1 0 1.000000
misc
0  43.098377 -137.889832 4.247320  0.692497 -0.249055 -0.677067  0.450209 0.010712 1 0 1.000000
0  41.081341 -137.218262 2.535854  0.574877 -0.222664 -0.787361  0.451186 0.006806 1 0 1.000000
0  41.836109 -134.945618 2.558675  0.656561 0.074939 -0.750541  0.451186 0.005829 1 0 1.000000
misc
0  41.003151 -133.029160 2.534130  0.654247 0.260845 -0.709874  0.452162 0.005829 1 0 1.000000
0  43.165169 -133.495651 4.307285  0.712729 0.277431 -0.644243  0.451186 0.010712 1 0 1.000000
0  43.849819 -135.381989 4.300705  0.753775 0.034129 -0.656245  0.450209 0.010712 1 0 1.000000
misc
0  43.849819 -135.381989 4.300705  0.753775 0.034129 -0.656245  0.450209 0.010712 1 0 1.000000
0  41.836109 -134.945618 2.558675  0.656561 0.074939 -0.750541  0.451186 0.005829 1 0 1.000000
0  41.003151 -133.029160 2.534130  0.654247 0.260845 -0.709874  0.452162 0.005829 1 0 1.000000
misc
0  18.631836 -148.172974 3.453944  -0.034258 -0.649919 -0.759231  0.460952 0.010712 1 0 1.000000
0  19.204243 -143.197098 1.869020  0.024046 -0.303545 -0.952514  0.460952 0.006806 1 0 1.000000
0  32.538597 -143.501862 2.223187  0.105097 -0.349694 -0.930950  0.455092 0.006806 1 0 1.000000
misc
0  32.538597 -143.501862 2.223187  0.105097 -0.349694 -0.930950  0.455092 0.006806 1 0 1.000000
0  32.025959 -147.916656 3.817144  0.147517 -0.634223 -0.758946  0.455092 0.010712 1 0 1.000000
0  18.631836 -148.172974 3.453944  -0.034258 -0.649919 -0.759231  0.460952 0.010712 1 0 1.000000
misc
0  32.538597 -143.501862 2.223187  0.105097 -0.349694 -0.930950  0.455092 0.006806 1 0 1.000000
0  37.475334 -141.842926 2.377763  0.245839 -0.384073 -0.889973  0.453139 0.006806 1 0 1.000000
0  36.996220 -145.942993 3.976788  0.337052 -0.579902 -0.741694  0.453139 0.010712 1 0 1.000000
misc
0  36.996220 -145.942993 3.976788  0.337052 -0.579902 -0.741694  0.453139 0.010712 1 0 1.000000
0  32.025959 -147.916656 3.817144  0.147517 -0.634223 -0.758946  0.455092 0.010712 1 0 1.000000
0  32.538597 -143.501862 2.223187  0.105097 -0.349694 -0.930950  0.455092 0.006806 1 0 1.000000
misc
0  39.713078 -143.949829 4.076157  0.507495 -0.488520 -0.709787  0.452162 0.010712 1 0 1.000000
0  38.634323 -141.094925 2.418800  0.357977 -0.361944 -0.860726  0.452162 0.006806 1 0 1.000000
0  39.432655 -140.225281 2.451758  0.479274 -0.294968 -0.826614  0.452162 0.006806 1 0 1.000000
misc
0  39.432655 -140.225281 2.451758  0.479274 -0.294968 -0.826614  0.452162 0.006806 1 0 1.000000
0  41.383194 -141.650955 4.151454  0.626557 -0.359969 -0.691266  0.451186 0.010712 1 0 1.000000
0  39.713078 -143.949829 4.076157  0.507495 -0.488520 -0.709787  0.452162 0.010712 1 0 1.000000
misc
0  41.081341 -137.218262 2.535854  0.574877 -0.222664 -0.787361  0.451186 0.006806 1 0 1.000000
0  43.098377 -137.889832 4.247320  0.692497 -0.249055 -0.677067  0.450209 0.010712 1 0 1.000000
0  41.383194 -141.650955 4.151454  0.626557 -0.359969 -0.691266  0.451186 0.010712 1 0 1.000000
misc
0  41.383194 -141.650955 4.151454  0.626557 -0.359969 -0.691266  0.451186 0.010712 1 0 1.000000
0  39.432655 -140.225281 2.451758  0.479274 -0.294968 -0.826614  0.452162 0.006806 1 0 1.000000
0  41.081341 -137.218262 2.535854  0.574877 -0.222664 -0.787361  0.451186 0.006806 1 0 1.000000
misc
0  37.475334 -141.842926 2.377763  0.245839 -0.384073 -0.889973  0.453139 0.006806 1 0 1.000000
0  38.634323 -141.094925 2.418800  0.357977 -0.361944 -0.860726  0.452162 0.006806 1 0 1.000000
0  39.713078 -143.949829 4.076157  0.507495 -0.488520 -0.709787  0.452162 0.010712 1 0 1.000000
misc
0  39.713078 -143.949829 4.076157  0.507495 -0.488520 -0.709787  0.452162 0.010712 1 0 1.000000
0  36.996220 -145.942993 3.976788  0.337052 -0.579902 -0.741694  0.453139 0.010712 1 0 1.000000
0  37.475334 -141.842926 2.377763  0.245839 -0.384073 -0.889973  0.453139 0.006806 1 0 1.000000
misc
0  -0.143875 -137.791367 -0.343373  0.013026 0.939960 0.341037  0.349620 0.034150 1 0 1.000000
0  0.605722 -142.605530 13.113602  0.039200 0.942240 0.332636  0.349620 0.034150 1 0 1.000000
0  18.346794 -148.015213 15.318132  0.139868 0.931053 0.337013  0.349620 0.034150 1 0 1.000000
misc
0  18.346794 -148.015213 15.318132  0.139868 0.931053 0.337013  0.349620 0.034150 1 0 1.000000
0  19.204243 -143.197098 1.869020  0.128994 0.926943 0.352330  0.349620 0.034150 1 0 1.000000
0  -0.143875 -137.791367 -0.343373  0.013026 0.939960 0.341037  0.349620 0.034150 1 0 1.000000
misc
0  48.757710 -134.276077 15.779913  -0.886393 0.019356 0.462529  0.349620 0.034150 1 0 1.000000
0  41.003151 -133.029160 2.534130  -0.821204 -0.353938 0.447607  0.349620 0.034150 1 0 1.000000
0  41.836109 -134.945618 2.558675  -0.876889 -0.044881 0.478593  0.349620 0.034150 1 0 1.000000
misc
0  41.836109 -134.945618 2.558675  -0.876889 -0.044881 0.478593  0.349620 0.034150 1 0 1.000000
0  48.699173 -136.348358 15.902378  -0.868059 0.179141 0.463015  0.349620 0.034150 1 0 1.000000
0  48.757710 -134.276077 15.779913  -0.886393 0.019356 0.462529  0.349620 0.034150 1 0 1.000000
misc
0  32.538597 -143.501862 2.223187  -0.137237 0.909200 0.393093  0.349620 0.034150 1 0 1.000000
0  31.610088 -148.990341 15.647746  -0.034596 0.930349 0.365039  0.349620 0.034150 1 0 1.000000
0  36.441711 -148.454666 15.757090  -0.208917 0.895624 0.392697  0.349620 0.034150 1 0 1.000000
misc
0  36.441711 -148.454666 15.757090  -0.208917 0.895624 0.392697  0.349620 0.034150 1 0 1.000000
0  37.475334 -141.842926 2.377763  -0.397417 0.818450 0.414969  0.349620 0.034150 1 0 1.000000
0  32.538597 -143.501862 2.223187  -0.137237 0.909200 0.393093  0.349620 0.034150 1 0 1.000000
misc
0  39.432655 -140.225281 2.451758  -0.730311 0.501142 0.464222  0.349620 0.034150 1 0 1.000000
0  44.677708 -144.873169 15.681496  -0.643923 0.613090 0.457694  0.349620 0.034150 1 0 1.000000
0  47.403511 -139.808350 15.821769  -0.814284 0.356885 0.457794  0.349620 0.034150 1 0 1.000000
misc
0  47.403511 -139.808350 15.821769  -0.814284 0.356885 0.457794  0.349620 0.034150 1 0 1.000000
0  41.081341 -137.218262 2.535854  -0.815547 0.351809 0.459472  0.349620 0.034150 1 0 1.000000
0  39.432655 -140.225281 2.451758  -0.730311 0.501142 0.464222  0.349620 0.034150 1 0 1.000000
misc
0  19.204243 -143.197098 1.869020  0.128994 0.926943 0.352330  0.349620 0.034150 1 0 1.000000
0  18.346794 -148.015213 15.318132  0.139868 0.931053 0.337013  0.349620 0.034150 1 0 1.000000
0  31.610088 -148.990341 15.647746  -0.034596 0.930349 0.365039  0.349620 0.034150 1 0 1.000000
misc
0  31.610088 -148.990341 15.647746  -0.034596 0.930349 0.365039  0.349620 0.034150 1 0 1.000000
0  32.538597 -143.501862 2.223187  -0.137237 0.909200 0.393093  0.349620 0.034150 1 0 1.000000
0  19.204243 -143.197098 1.869020  0.128994 0.926943 0.352330  0.349620 0.034150 1 0 1.000000
misc
0  38.634323 -141.094925 2.418800  -0.573706 0.686832 0.446233  0.349620 0.034150 1 0 1.000000
0  40.877941 -147.087601 15.853048  -0.365788 0.830898 0.419294  0.349620 0.034150 1 0 1.000000
0  44.677708 -144.873169 15.681496  -0.643923 0.613090 0.457694  0.349620 0.034150 1 0 1.000000
misc
0  44.677708 -144.873169 15.681496  -0.643923 0.613090 0.457694  0.349620 0.034150 1 0 1.000000
0  39.432655 -140.225281 2.451758  -0.730311 0.501142 0.464222  0.349620 0.034150 1 0 1.000000
0  38.634323 -141.094925 2.418800  -0.573706 0.686832 0.446233  0.349620 0.034150 1 0 1.000000
misc
0  41.081341 -137.218262 2.535854  -0.815547 0.351809 0.459472  0.349620 0.034150 1 0 1.000000
0  47.403511 -139.808350 15.821769  -0.814284 0.356885 0.457794  0.349620 0.034150 1 0 1.000000
0  48.699173 -136.348358 15.902378  -0.868059 0.179141 0.463015  0.349620 0.034150 1 0 1.000000
misc
0  48.699173 -136.348358 15.902378  -0.868059 0.179141 0.463015  0.349620 0.034150 1 0 1.000000
0  41.836109 -134.945618 2.558675  -0.876889 -0.044881 0.478593  0.349620 0.034150 1 0 1.000000
0  41.081341 -137.218262 2.535854  -0.815547 0.351809 0.459472  0.349620 0.034150 1 0 1.000000
misc
0  37.475334 -141.842926 2.377763  -0.397417 0.818450 0.414969  0.349620 0.034150 1 0 1.000000
0  36.441711 -148.454666 15.757090  -0.208917 0.895624 0.392697  0.349620 0.034150 1 0 1.000000
0  40.877941 -147.087601 15.853048  -0.365788 0.830898 0.419294  0.349620 0.034150 1 0 1.000000
misc
0  40.877941 -147.087601 15.853048  -0.365788 0.830898 0.419294  0.349620 0.034150 1 0 1.000000
0  38.634323 -141.094925 2.418800  -0.573706 0.686832 0.446233  0.349620 0.034150 1 0 1.000000
0  37.475334 -141.842926 2.377763  -0.397417 0.818450 0.414969  0.349620 0.034150 1 0 1.000000
misc
0  46.465801 -133.936813 9.870578  0.182458 0.983092 -0.015454  0.449232 0.023408 1 0 1.000000
0  43.165169 -133.495651 4.307285  0.271517 0.958694 -0.084766  0.451186 0.010712 1 0 1.000000
0  41.003151 -133.029160 2.534130  0.243598 0.967838 -0.062846  0.452162 0.005829 1 0 1.000000
misc
0  41.003151 -133.029160 2.534130  0.243598 0.967838 -0.062846  0.452162 0.005829 1 0 1.000000
0  48.757710 -134.276077 15.779913  0.179003 0.983765 -0.012781  0.448256 0.038057 1 0 1.000000
0  46.465801 -133.936813 9.870578  0.182458 0.983092 -0.015454  0.449232 0.023408 1 0 1.000000
misc
0  -32.644066 -152.899872 12.198790  -0.408636 0.332916 0.849814  0.337901 0.444319 1 0 1.000000
0  -27.737690 -151.999130 11.917887  0.359562 0.472397 0.804709  0.337901 0.436506 1 0 1.000000
0  -28.216558 -150.770050 11.411921  0.255605 0.676471 0.690690  0.333995 0.437483 1 0 1.000000
misc
0  -28.216558 -150.770050 11.411921  0.255605 0.676471 0.690690  0.333995 0.437483 1 0 1.000000
0  -32.676899 -151.588913 11.667288  -0.395611 0.558729 0.728913  0.333995 0.444319 1 0 1.000000
0  -32.644066 -152.899872 12.198790  -0.408636 0.332916 0.849814  0.337901 0.444319 1 0 1.000000
misc
0  -32.903828 -152.933472 7.553988  -0.501195 0.321554 -0.803372  0.337901 0.422834 1 0 1.000000
0  -32.878254 -151.614944 8.066878  -0.474872 0.548480 -0.688234  0.333995 0.422834 1 0 1.000000
0  -28.417912 -150.796082 7.811512  0.176464 0.666187 -0.724607  0.333995 0.430647 1 0 1.000000
misc
0  -28.417912 -150.796082 7.811512  0.176464 0.666187 -0.724607  0.333995 0.430647 1 0 1.000000
0  -27.997452 -152.032715 7.273085  0.267233 0.460407 -0.846529  0.337901 0.430647 1 0 1.000000
0  -32.903828 -152.933472 7.553988  -0.501195 0.321554 -0.803372  0.337901 0.422834 1 0 1.000000
misc
0  -33.178749 -152.996155 11.609029  -0.903562 0.274763 0.328756  0.337901 0.415998 1 0 1.000000
0  -32.765862 -151.590958 11.575775  -0.773715 0.535198 0.339009  0.333995 0.416974 1 0 1.000000
0  -32.956455 -151.615601 8.167757  -0.807238 0.530674 -0.258364  0.333995 0.421857 1 0 1.000000
misc
0  -32.956455 -151.615601 8.167757  -0.807238 0.530674 -0.258364  0.333995 0.421857 1 0 1.000000
0  -33.369343 -153.020798 8.201011  -0.934415 0.271457 -0.230606  0.337901 0.421857 1 0 1.000000
0  -33.178749 -152.996155 11.609029  -0.903562 0.274763 0.328756  0.337901 0.415998 1 0 1.000000
misc
0  -27.285686 -151.914261 11.271635  0.784138 0.576668 0.229307  0.337901 0.436506 1 0 1.000000
0  -27.476282 -151.938919 7.863616  0.753241 0.572688 -0.323506  0.337901 0.430647 1 0 1.000000
0  -28.347431 -150.769440 7.903877  0.539987 0.773128 -0.332697  0.333995 0.430647 1 0 1.000000
misc
0  -28.347431 -150.769440 7.903877  0.539987 0.773128 -0.332697  0.333995 0.430647 1 0 1.000000
0  -28.156839 -150.744797 11.311896  0.573107 0.777418 0.259171  0.333995 0.436506 1 0 1.000000
0  -27.285686 -151.914261 11.271635  0.784138 0.576668 0.229307  0.337901 0.436506 1 0 1.000000
misc
0  -28.216558 -150.770050 11.411921  0.255605 0.676471 0.690690  0.333995 0.437483 1 0 1.000000
0  -27.737690 -151.999130 11.917887  0.359562 0.472397 0.804709  0.337901 0.436506 1 0 1.000000
0  -27.285686 -151.914261 11.271635  0.784138 0.576668 0.229307  0.337901 0.436506 1 0 1.000000
misc
0  -27.285686 -151.914261 11.271635  0.784138 0.576668 0.229307  0.337901 0.436506 1 0 1.000000
0  -28.156839 -150.744797 11.311896  0.573107 0.777418 0.259171  0.333995 0.436506 1 0 1.000000
0  -28.216558 -150.770050 11.411921  0.255605 0.676471 0.690690  0.333995 0.437483 1 0 1.000000
misc
0  -32.765862 -151.590958 11.575775  -0.773715 0.535198 0.339009  0.333995 0.445296 1 0 1.000000
0  -33.178749 -152.996155 11.609029  -0.903562 0.274763 0.328756  0.337901 0.444319 1 0 1.000000
0  -32.644066 -152.899872 12.198790  -0.408636 0.332916 0.849814  0.337901 0.444319 1 0 1.000000
misc
0  -32.644066 -152.899872 12.198790  -0.408636 0.332916 0.849814  0.337901 0.444319 1 0 1.000000
0  -32.676899 -151.588913 11.667288  -0.395611 0.558729 0.728913  0.333995 0.444319 1 0 1.000000
0  -32.765862 -151.590958 11.575775  -0.773715 0.535198 0.339009  0.333995 0.445296 1 0 1.000000
misc
0  -28.347431 -150.769440 7.903877  0.539987 0.773128 -0.332697  0.333995 0.430647 1 0 1.000000
0  -27.476282 -151.938919 7.863616  0.753241 0.572688 -0.323506  0.337901 0.430647 1 0 1.000000
0  -27.997452 -152.032715 7.273085  0.267233 0.460407 -0.846529  0.337901 0.430647 1 0 1.000000
misc
0  -27.997452 -152.032715 7.273085  0.267233 0.460407 -0.846529  0.337901 0.430647 1 0 1.000000
0  -28.417912 -150.796082 7.811512  0.176464 0.666187 -0.724607  0.333995 0.430647 1 0 1.000000
0  -28.347431 -150.769440 7.903877  0.539987 0.773128 -0.332697  0.333995 0.430647 1 0 1.000000
misc
0  -32.878254 -151.614944 8.066878  -0.474872 0.548480 -0.688234  0.333995 0.422834 1 0 1.000000
0  -32.903828 -152.933472 7.553988  -0.501195 0.321554 -0.803372  0.337901 0.422834 1 0 1.000000
0  -33.369343 -153.020798 8.201011  -0.934415 0.271457 -0.230606  0.337901 0.421857 1 0 1.000000
misc
0  -33.369343 -153.020798 8.201011  -0.934415 0.271457 -0.230606  0.337901 0.421857 1 0 1.000000
0  -32.956455 -151.615601 8.167757  -0.807238 0.530674 -0.258364  0.333995 0.421857 1 0 1.000000
0  -32.878254 -151.614944 8.066878  -0.474872 0.548480 -0.688234  0.333995 0.422834 1 0 1.000000
misc
0  -27.997452 -152.032715 7.273085  0.437447 -0.467286 -0.768299  0.337901 0.430647 1 0 1.000000
0  -27.476282 -151.938919 7.863616  0.855798 -0.387146 -0.343115  0.337901 0.430647 1 0 1.000000
0  -27.672110 -152.563187 8.072083  0.873245 -0.381246 -0.303470  0.338878 0.431623 1 0 1.000000
misc
0  -27.672110 -152.563187 8.072083  0.873245 -0.381246 -0.303470  0.338878 0.431623 1 0 1.000000
0  -28.120316 -152.643890 7.573875  0.366954 -0.471530 -0.801875  0.338878 0.429670 1 0 1.000000
0  -27.997452 -152.032715 7.273085  0.437447 -0.467286 -0.768299  0.337901 0.430647 1 0 1.000000
misc
0  -28.120316 -152.643890 7.573875  0.366954 -0.471530 -0.801875  0.338878 0.429670 1 0 1.000000
0  -32.526592 -153.452820 7.826146  -0.258052 -0.585972 -0.768144  0.338878 0.422834 1 0 1.000000
0  -32.903828 -152.933472 7.553988  -0.321235 -0.612026 -0.722657  0.337901 0.422834 1 0 1.000000
misc
0  -32.903828 -152.933472 7.553988  -0.321235 -0.612026 -0.722657  0.337901 0.422834 1 0 1.000000
0  -27.997452 -152.032715 7.273085  0.437447 -0.467286 -0.768299  0.337901 0.430647 1 0 1.000000
0  -28.120316 -152.643890 7.573875  0.366954 -0.471530 -0.801875  0.338878 0.429670 1 0 1.000000
misc
0  -32.526592 -153.452820 7.826146  -0.258052 -0.585972 -0.768144  0.338878 0.422834 1 0 1.000000
0  -32.943420 -153.530930 8.373879  -0.701939 -0.677375 -0.220100  0.338878 0.421857 1 0 1.000000
0  -33.369343 -153.020798 8.201011  -0.685842 -0.680463 -0.258052  0.337901 0.421857 1 0 1.000000
misc
0  -33.369343 -153.020798 8.201011  -0.685842 -0.680463 -0.258052  0.337901 0.421857 1 0 1.000000
0  -32.903828 -152.933472 7.553988  -0.321235 -0.612026 -0.722657  0.337901 0.422834 1 0 1.000000
0  -32.526592 -153.452820 7.826146  -0.258052 -0.585972 -0.768144  0.338878 0.422834 1 0 1.000000
misc
0  -32.943420 -153.530930 8.373879  -0.701939 -0.677375 -0.220100  0.338878 0.421857 1 0 1.000000
0  -32.774345 -153.509064 11.397123  -0.672200 -0.675075 0.304009  0.338878 0.416974 1 0 1.000000
0  -33.178749 -152.996155 11.609029  -0.654700 -0.674306 0.341584  0.337901 0.415998 1 0 1.000000
misc
0  -33.178749 -152.996155 11.609029  -0.654700 -0.674306 0.341584  0.337901 0.415998 1 0 1.000000
0  -33.369343 -153.020798 8.201011  -0.685842 -0.680463 -0.258052  0.337901 0.421857 1 0 1.000000
0  -32.943420 -153.530930 8.373879  -0.701939 -0.677375 -0.220100  0.338878 0.421857 1 0 1.000000
misc
0  -32.774345 -153.509064 11.397123  -0.672200 -0.675075 0.304009  0.338878 0.445296 1 0 1.000000
0  -32.299110 -153.423401 11.893784  -0.167412 -0.575637 0.800384  0.338878 0.444319 1 0 1.000000
0  -32.644066 -152.899872 12.198790  -0.238240 -0.598458 0.764912  0.337901 0.444319 1 0 1.000000
misc
0  -32.644066 -152.899872 12.198790  -0.238240 -0.598458 0.764912  0.337901 0.444319 1 0 1.000000
0  -33.178749 -152.996155 11.609029  -0.654700 -0.674306 0.341584  0.337901 0.444319 1 0 1.000000
0  -32.774345 -153.509064 11.397123  -0.672200 -0.675075 0.304009  0.338878 0.445296 1 0 1.000000
misc
0  -32.299110 -153.423401 11.893784  -0.167412 -0.575637 0.800384  0.338878 0.444319 1 0 1.000000
0  -27.892832 -152.614471 11.641512  0.456926 -0.458280 0.762364  0.338878 0.437483 1 0 1.000000
0  -27.737690 -151.999130 11.917887  0.521896 -0.458617 0.719232  0.337901 0.436506 1 0 1.000000
misc
0  -27.737690 -151.999130 11.917887  0.521896 -0.458617 0.719232  0.337901 0.436506 1 0 1.000000
0  -32.644066 -152.899872 12.198790  -0.238240 -0.598458 0.764912  0.337901 0.444319 1 0 1.000000
0  -32.299110 -153.423401 11.893784  -0.167412 -0.575637 0.800384  0.338878 0.444319 1 0 1.000000
misc
0  -27.892832 -152.614471 11.641512  0.456926 -0.458280 0.762364  0.338878 0.437483 1 0 1.000000
0  -27.503033 -152.541321 11.095326  0.901982 -0.375897 0.212440  0.338878 0.436506 1 0 1.000000
0  -27.285686 -151.914261 11.271635  0.887532 -0.385398 0.252498  0.337901 0.436506 1 0 1.000000
misc
0  -27.285686 -151.914261 11.271635  0.887532 -0.385398 0.252498  0.337901 0.436506 1 0 1.000000
0  -27.737690 -151.999130 11.917887  0.521896 -0.458617 0.719232  0.337901 0.436506 1 0 1.000000
0  -27.892832 -152.614471 11.641512  0.456926 -0.458280 0.762364  0.338878 0.437483 1 0 1.000000
misc
0  -27.476282 -151.938919 7.863616  0.855798 -0.387146 -0.343115  0.337901 0.430647 1 0 1.000000
0  -27.285686 -151.914261 11.271635  0.887532 -0.385398 0.252498  0.337901 0.436506 1 0 1.000000
0  -27.503033 -152.541321 11.095326  0.901982 -0.375897 0.212440  0.338878 0.436506 1 0 1.000000
misc
0  -27.503033 -152.541321 11.095326  0.901982 -0.375897 0.212440  0.338878 0.436506 1 0 1.000000
0  -27.672110 -152.563187 8.072083  0.873245 -0.381246 -0.303470  0.338878 0.431623 1 0 1.000000
0  -27.476282 -151.938919 7.863616  0.855798 -0.387146 -0.343115  0.337901 0.430647 1 0 1.000000
misc
0  -28.555578 -150.565231 11.043398  0.071553 0.974597 0.212230  0.388684 0.129856 1 0 1.000000
0  -28.713894 -150.585693 8.212543  0.046715 0.971359 -0.232978  0.388684 0.115207 1 0 1.000000
0  -32.633595 -151.305313 8.436956  -0.408276 0.888955 -0.207534  0.376965 0.115207 1 0 1.000000
misc
0  -32.633595 -151.305313 8.436956  -0.408276 0.888955 -0.207534  0.376965 0.115207 1 0 1.000000
0  -32.475277 -151.284836 11.267812  -0.383262 0.892192 0.238963  0.376965 0.129856 1 0 1.000000
0  -28.555578 -150.565231 11.043398  0.071553 0.974597 0.212230  0.388684 0.129856 1 0 1.000000
misc
0  -32.475277 -151.284836 11.267812  -0.383262 0.892192 0.238963  0.411145 0.115207 1 0 1.000000
0  -32.676899 -151.588913 11.667288  -0.395611 0.558729 0.728913  0.411145 0.114231 1 0 1.000000
0  -28.216558 -150.770050 11.411921  0.255605 0.676471 0.690690  0.399426 0.114231 1 0 1.000000
misc
0  -28.216558 -150.770050 11.411921  0.255605 0.676471 0.690690  0.399426 0.114231 1 0 1.000000
0  -28.555578 -150.565231 11.043398  0.071553 0.974597 0.212230  0.398450 0.115207 1 0 1.000000
0  -32.475277 -151.284836 11.267812  -0.383262 0.892192 0.238963  0.411145 0.115207 1 0 1.000000
misc
0  -28.347431 -150.769440 7.903877  0.539987 0.773128 -0.332697  0.389660 0.114231 1 0 1.000000
0  -28.713894 -150.585693 8.212543  0.046715 0.971359 -0.232978  0.388684 0.115207 1 0 1.000000
0  -28.555578 -150.565231 11.043398  0.071553 0.974597 0.212230  0.398450 0.115207 1 0 1.000000
misc
0  -28.555578 -150.565231 11.043398  0.071553 0.974597 0.212230  0.398450 0.115207 1 0 1.000000
0  -28.156839 -150.744797 11.311896  0.573107 0.777418 0.259171  0.398450 0.114231 1 0 1.000000
0  -28.347431 -150.769440 7.903877  0.539987 0.773128 -0.332697  0.389660 0.114231 1 0 1.000000
misc
0  -32.878254 -151.614944 8.066878  -0.474872 0.548480 -0.688234  0.376965 0.114231 1 0 1.000000
0  -32.633595 -151.305313 8.436956  -0.408276 0.888955 -0.207534  0.376965 0.115207 1 0 1.000000
0  -28.713894 -150.585693 8.212543  0.046715 0.971359 -0.232978  0.388684 0.115207 1 0 1.000000
misc
0  -28.713894 -150.585693 8.212543  0.046715 0.971359 -0.232978  0.388684 0.115207 1 0 1.000000
0  -28.417912 -150.796082 7.811512  0.176464 0.666187 -0.724607  0.388684 0.114231 1 0 1.000000
0  -32.878254 -151.614944 8.066878  -0.474872 0.548480 -0.688234  0.376965 0.114231 1 0 1.000000
misc
0  -32.633595 -151.305313 8.436956  -0.408276 0.888955 -0.207534  0.376965 0.115207 1 0 1.000000
0  -32.956455 -151.615601 8.167757  -0.807238 0.530674 -0.258364  0.375988 0.114231 1 0 1.000000
0  -32.765862 -151.590958 11.575775  -0.773715 0.535198 0.339009  0.367199 0.114231 1 0 1.000000
misc
0  -32.765862 -151.590958 11.575775  -0.773715 0.535198 0.339009  0.367199 0.114231 1 0 1.000000
0  -32.475277 -151.284836 11.267812  -0.383262 0.892192 0.238963  0.366222 0.115207 1 0 1.000000
0  -32.633595 -151.305313 8.436956  -0.408276 0.888955 -0.207534  0.376965 0.115207 1 0 1.000000
misc
0  -28.216558 -150.770050 11.411921  0.255605 0.676471 0.690690  0.399426 0.114231 1 0 1.000000
0  -28.156839 -150.744797 11.311896  0.573107 0.777418 0.259171  0.398450 0.114231 1 0 1.000000
0  -28.555578 -150.565231 11.043398  0.071553 0.974597 0.212230  0.398450 0.115207 1 0 1.000000
misc
0  -28.347431 -150.769440 7.903877  0.539987 0.773128 -0.332697  0.389660 0.114231 1 0 1.000000
0  -28.417912 -150.796082 7.811512  0.176464 0.666187 -0.724607  0.388684 0.114231 1 0 1.000000
0  -28.713894 -150.585693 8.212543  0.046715 0.971359 -0.232978  0.388684 0.115207 1 0 1.000000
misc
0  -32.765862 -151.590958 11.575775  -0.773715 0.535198 0.339009  0.412122 0.114231 1 0 1.000000
0  -32.676899 -151.588913 11.667288  -0.395611 0.558729 0.728913  0.411145 0.114231 1 0 1.000000
0  -32.475277 -151.284836 11.267812  -0.383262 0.892192 0.238963  0.411145 0.115207 1 0 1.000000
misc
0  -32.878254 -151.614944 8.066878  -0.474872 0.548480 -0.688234  0.376965 0.114231 1 0 1.000000
0  -32.956455 -151.615601 8.167757  -0.807238 0.530674 -0.258364  0.375988 0.114231 1 0 1.000000
0  -32.633595 -151.305313 8.436956  -0.408276 0.888955 -0.207534  0.376965 0.115207 1 0 1.000000
misc
0  -32.774345 -153.509064 11.397123  0.180405 -0.983588 -0.002977  0.113285 0.352519 1 0 1.000000
0  -32.943420 -153.530930 8.373879  0.180403 -0.983588 -0.002973  0.113285 0.295877 1 0 1.000000
0  -32.526592 -153.452820 7.826146  0.180403 -0.983588 -0.002972  0.102542 0.286111 1 0 1.000000
misc
0  -32.526592 -153.452820 7.826146  0.180403 -0.983588 -0.002972  0.102542 0.286111 1 0 1.000000
0  -32.299110 -153.423401 11.893784  0.180403 -0.983588 -0.002975  0.102542 0.362285 1 0 1.000000
0  -32.774345 -153.509064 11.397123  0.180405 -0.983588 -0.002977  0.113285 0.352519 1 0 1.000000
misc
0  -27.672110 -152.563187 8.072083  0.180413 -0.983586 -0.002975  0.007813 0.295877 1 0 1.000000
0  -27.503033 -152.541321 11.095326  0.180413 -0.983586 -0.002970  0.007813 0.352519 1 0 1.000000
0  -27.892832 -152.614471 11.641512  0.180405 -0.983588 -0.002976  0.017579 0.362285 1 0 1.000000
misc
0  -27.892832 -152.614471 11.641512  0.180405 -0.983588 -0.002976  0.017579 0.362285 1 0 1.000000
0  -28.120316 -152.643890 7.573875  0.180406 -0.983588 -0.002975  0.017579 0.286111 1 0 1.000000
0  -27.672110 -152.563187 8.072083  0.180413 -0.983586 -0.002975  0.007813 0.295877 1 0 1.000000
misc
0  -32.299110 -153.423401 11.893784  0.180403 -0.983588 -0.002975  0.102542 0.362285 1 0 1.000000
0  -32.526592 -153.452820 7.826146  0.180403 -0.983588 -0.002972  0.102542 0.286111 1 0 1.000000
0  -28.120316 -152.643890 7.573875  0.180406 -0.983588 -0.002975  0.017579 0.286111 1 0 1.000000
misc
0  -28.120316 -152.643890 7.573875  0.180406 -0.983588 -0.002975  0.017579 0.286111 1 0 1.000000
0  -27.892832 -152.614471 11.641512  0.180405 -0.983588 -0.002976  0.017579 0.362285 1 0 1.000000
0  -32.299110 -153.423401 11.893784  0.180403 -0.983588 -0.002975  0.102542 0.362285 1 0 1.000000
misc
0  33.098663 -152.884430 12.069749  0.407208 0.349100 0.843985  0.337901 0.444319 1 0 1.000000
0  33.017147 -151.566284 11.561749  0.373663 0.575188 0.727691  0.333995 0.444319 1 0 1.000000
0  28.502270 -151.083511 11.446856  -0.285408 0.643848 0.709931  0.333995 0.437483 1 0 1.000000
misc
0  28.502270 -151.083511 11.446856  -0.285408 0.643848 0.709931  0.333995 0.437483 1 0 1.000000
0  28.132303 -152.353378 11.943368  -0.370324 0.430778 0.822977  0.337901 0.436506 1 0 1.000000
0  33.098663 -152.884430 12.069749  0.407208 0.349100 0.843985  0.337901 0.444319 1 0 1.000000
misc
0  33.223579 -152.822876 7.419653  0.451729 0.371432 -0.811159  0.337901 0.422834 1 0 1.000000
0  28.257217 -152.291809 7.293271  -0.325870 0.452103 -0.830308  0.337901 0.430647 1 0 1.000000
0  28.599098 -151.035797 7.842343  -0.247344 0.662579 -0.706973  0.333995 0.430647 1 0 1.000000
misc
0  28.599098 -151.035797 7.842343  -0.247344 0.662579 -0.706973  0.333995 0.430647 1 0 1.000000
0  33.113976 -151.518570 7.957236  0.411798 0.593972 -0.691101  0.333995 0.422834 1 0 1.000000
0  33.223579 -152.822876 7.419653  0.451729 0.371432 -0.811159  0.337901 0.422834 1 0 1.000000
misc
0  33.621510 -152.930359 11.463533  0.889607 0.337029 0.308238  0.337901 0.415998 1 0 1.000000
0  33.713165 -152.885193 8.051630  0.904448 0.344762 -0.251225  0.337901 0.421857 1 0 1.000000
0  33.194935 -151.514938 8.055848  0.757060 0.594445 -0.271100  0.333995 0.421857 1 0 1.000000
misc
0  33.194935 -151.514938 8.055848  0.757060 0.594445 -0.271100  0.333995 0.421857 1 0 1.000000
0  33.103283 -151.560104 11.467752  0.740980 0.586573 0.326926  0.333995 0.416974 1 0 1.000000
0  33.621510 -152.930359 11.463533  0.889607 0.337029 0.308238  0.337901 0.415998 1 0 1.000000
misc
0  27.656399 -152.292511 11.311737  -0.818179 0.511848 0.261908  0.337901 0.436506 1 0 1.000000
0  28.437906 -151.061234 11.349030  -0.622106 0.727442 0.289503  0.333995 0.436506 1 0 1.000000
0  28.529560 -151.016068 7.937127  -0.606241 0.735251 -0.303114  0.333995 0.430647 1 0 1.000000
misc
0  28.529560 -151.016068 7.937127  -0.606241 0.735251 -0.303114  0.333995 0.430647 1 0 1.000000
0  27.748051 -152.247345 7.899833  -0.803262 0.519210 -0.291876  0.337901 0.430647 1 0 1.000000
0  27.656399 -152.292511 11.311737  -0.818179 0.511848 0.261908  0.337901 0.436506 1 0 1.000000
misc
0  28.502270 -151.083511 11.446856  -0.285408 0.643848 0.709931  0.333995 0.437483 1 0 1.000000
0  28.437906 -151.061234 11.349030  -0.622106 0.727442 0.289503  0.333995 0.436506 1 0 1.000000
0  27.656399 -152.292511 11.311737  -0.818179 0.511848 0.261908  0.337901 0.436506 1 0 1.000000
misc
0  27.656399 -152.292511 11.311737  -0.818179 0.511848 0.261908  0.337901 0.436506 1 0 1.000000
0  28.132303 -152.353378 11.943368  -0.370324 0.430778 0.822977  0.337901 0.436506 1 0 1.000000
0  28.502270 -151.083511 11.446856  -0.285408 0.643848 0.709931  0.333995 0.437483 1 0 1.000000
misc
0  33.103283 -151.560104 11.467752  0.740980 0.586573 0.326926  0.333995 0.445296 1 0 1.000000
0  33.017147 -151.566284 11.561749  0.373663 0.575188 0.727691  0.333995 0.444319 1 0 1.000000
0  33.098663 -152.884430 12.069749  0.407208 0.349100 0.843985  0.337901 0.444319 1 0 1.000000
misc
0  33.098663 -152.884430 12.069749  0.407208 0.349100 0.843985  0.337901 0.444319 1 0 1.000000
0  33.621510 -152.930359 11.463533  0.889607 0.337029 0.308238  0.337901 0.444319 1 0 1.000000
0  33.103283 -151.560104 11.467752  0.740980 0.586573 0.326926  0.333995 0.445296 1 0 1.000000
misc
0  28.529560 -151.016068 7.937127  -0.606241 0.735251 -0.303114  0.333995 0.430647 1 0 1.000000
0  28.599098 -151.035797 7.842343  -0.247344 0.662579 -0.706973  0.333995 0.430647 1 0 1.000000
0  28.257217 -152.291809 7.293271  -0.325870 0.452103 -0.830308  0.337901 0.430647 1 0 1.000000
misc
0  28.257217 -152.291809 7.293271  -0.325870 0.452103 -0.830308  0.337901 0.430647 1 0 1.000000
0  27.748051 -152.247345 7.899833  -0.803262 0.519210 -0.291876  0.337901 0.430647 1 0 1.000000
0  28.529560 -151.016068 7.937127  -0.606241 0.735251 -0.303114  0.333995 0.430647 1 0 1.000000
misc
0  33.113976 -151.518570 7.957236  0.411798 0.593972 -0.691101  0.333995 0.422834 1 0 1.000000
0  33.194935 -151.514938 8.055848  0.757060 0.594445 -0.271100  0.333995 0.421857 1 0 1.000000
0  33.713165 -152.885193 8.051630  0.904448 0.344762 -0.251225  0.337901 0.421857 1 0 1.000000
misc
0  33.713165 -152.885193 8.051630  0.904448 0.344762 -0.251225  0.337901 0.421857 1 0 1.000000
0  33.223579 -152.822876 7.419653  0.451729 0.371432 -0.811159  0.337901 0.422834 1 0 1.000000
0  33.113976 -151.518570 7.957236  0.411798 0.593972 -0.691101  0.333995 0.422834 1 0 1.000000
misc
0  27.748051 -152.247345 7.899833  -0.832109 -0.447725 -0.327319  0.337901 0.430647 1 0 1.000000
0  28.257217 -152.291809 7.293271  -0.424644 -0.488811 -0.762064  0.337901 0.430647 1 0 1.000000
0  28.434498 -152.896729 7.579195  -0.356499 -0.483115 -0.799693  0.338878 0.429670 1 0 1.000000
misc
0  28.434498 -152.896729 7.579195  -0.356499 -0.483115 -0.799693  0.338878 0.429670 1 0 1.000000
0  27.996328 -152.858292 8.091194  -0.850546 -0.439729 -0.288462  0.338878 0.431623 1 0 1.000000
0  27.748051 -152.247345 7.899833  -0.832109 -0.447725 -0.327319  0.337901 0.430647 1 0 1.000000
misc
0  28.434498 -152.896729 7.579195  -0.356499 -0.483115 -0.799693  0.338878 0.429670 1 0 1.000000
0  28.257217 -152.291809 7.293271  -0.424644 -0.488811 -0.762064  0.337901 0.430647 1 0 1.000000
0  33.223579 -152.822876 7.419653  0.344987 -0.574127 -0.742537  0.337901 0.422834 1 0 1.000000
misc
0  33.223579 -152.822876 7.419653  0.344987 -0.574127 -0.742537  0.337901 0.422834 1 0 1.000000
0  32.894650 -153.373657 7.692695  0.278753 -0.552289 -0.785668  0.338878 0.422834 1 0 1.000000
0  28.434498 -152.896729 7.579195  -0.356499 -0.483115 -0.799693  0.338878 0.429670 1 0 1.000000
misc
0  32.894650 -153.373657 7.692695  0.278753 -0.552289 -0.785668  0.338878 0.422834 1 0 1.000000
0  33.223579 -152.822876 7.419653  0.344987 -0.574127 -0.742537  0.337901 0.422834 1 0 1.000000
0  33.713165 -152.885193 8.051630  0.727212 -0.622295 -0.289676  0.337901 0.421857 1 0 1.000000
misc
0  33.713165 -152.885193 8.051630  0.727212 -0.622295 -0.289676  0.337901 0.421857 1 0 1.000000
0  33.332092 -153.428848 8.226975  0.744140 -0.618616 -0.252130  0.338878 0.421857 1 0 1.000000
0  32.894650 -153.373657 7.692695  0.278753 -0.552289 -0.785668  0.338878 0.422834 1 0 1.000000
misc
0  33.332092 -153.428848 8.226975  0.744140 -0.618616 -0.252130  0.338878 0.421857 1 0 1.000000
0  33.713165 -152.885193 8.051630  0.727212 -0.622295 -0.289676  0.337901 0.421857 1 0 1.000000
0  33.621510 -152.930359 11.463533  0.713332 -0.628238 0.310603  0.337901 0.415998 1 0 1.000000
misc
0  33.621510 -152.930359 11.463533  0.713332 -0.628238 0.310603  0.337901 0.415998 1 0 1.000000
0  33.250786 -153.468918 11.253666  0.729710 -0.627108 0.272505  0.338878 0.416974 1 0 1.000000
0  33.332092 -153.428848 8.226975  0.744140 -0.618616 -0.252130  0.338878 0.421857 1 0 1.000000
misc
0  33.250786 -153.468918 11.253666  0.729710 -0.627108 0.272505  0.338878 0.445296 1 0 1.000000
0  33.621510 -152.930359 11.463533  0.713332 -0.628238 0.310603  0.337901 0.444319 1 0 1.000000
0  33.098663 -152.884430 12.069749  0.304969 -0.591030 0.746778  0.337901 0.444319 1 0 1.000000
misc
0  33.098663 -152.884430 12.069749  0.304969 -0.591030 0.746778  0.337901 0.444319 1 0 1.000000
0  32.785255 -153.427567 11.764969  0.233701 -0.574221 0.784636  0.338878 0.444319 1 0 1.000000
0  33.250786 -153.468918 11.253666  0.729710 -0.627108 0.272505  0.338878 0.445296 1 0 1.000000
misc
0  32.785255 -153.427567 11.764969  0.233701 -0.574221 0.784636  0.338878 0.444319 1 0 1.000000
0  33.098663 -152.884430 12.069749  0.304969 -0.591030 0.746778  0.337901 0.444319 1 0 1.000000
0  28.132303 -152.353378 11.943368  -0.464561 -0.508466 0.725014  0.337901 0.436506 1 0 1.000000
misc
0  28.132303 -152.353378 11.943368  -0.464561 -0.508466 0.725014  0.337901 0.436506 1 0 1.000000
0  28.325106 -152.950638 11.651470  -0.398501 -0.503893 0.766348  0.338878 0.437483 1 0 1.000000
0  32.785255 -153.427567 11.764969  0.233701 -0.574221 0.784636  0.338878 0.444319 1 0 1.000000
misc
0  28.325106 -152.950638 11.651470  -0.398501 -0.503893 0.766348  0.338878 0.437483 1 0 1.000000
0  28.132303 -152.353378 11.943368  -0.464561 -0.508466 0.725014  0.337901 0.436506 1 0 1.000000
0  27.656399 -152.292511 11.311737  -0.848162 -0.455634 0.270221  0.337901 0.436506 1 0 1.000000
misc
0  27.656399 -152.292511 11.311737  -0.848162 -0.455634 0.270221  0.337901 0.436506 1 0 1.000000
0  27.915024 -152.898361 11.117885  -0.864512 -0.446520 0.230734  0.338878 0.436506 1 0 1.000000
0  28.325106 -152.950638 11.651470  -0.398501 -0.503893 0.766348  0.338878 0.437483 1 0 1.000000
misc
0  27.915024 -152.898361 11.117885  -0.864512 -0.446520 0.230734  0.338878 0.436506 1 0 1.000000
0  27.656399 -152.292511 11.311737  -0.848162 -0.455634 0.270221  0.337901 0.436506 1 0 1.000000
0  27.748051 -152.247345 7.899833  -0.832109 -0.447725 -0.327319  0.337901 0.430647 1 0 1.000000
misc
0  27.748051 -152.247345 7.899833  -0.832109 -0.447725 -0.327319  0.337901 0.430647 1 0 1.000000
0  27.996328 -152.858292 8.091194  -0.850546 -0.439729 -0.288462  0.338878 0.431623 1 0 1.000000
0  27.915024 -152.898361 11.117885  -0.864512 -0.446520 0.230734  0.338878 0.436506 1 0 1.000000
misc
0  28.813942 -150.847656 11.072790  -0.138496 0.962784 0.232091  0.388684 0.129856 1 0 1.000000
0  32.781567 -151.271912 11.173756  0.321895 0.914659 0.244505  0.376965 0.129856 1 0 1.000000
0  32.857700 -151.234390 8.339673  0.333971 0.920553 -0.202597  0.376965 0.115207 1 0 1.000000
misc
0  32.857700 -151.234390 8.339673  0.333971 0.920553 -0.202597  0.376965 0.115207 1 0 1.000000
0  28.890074 -150.810135 8.238708  -0.126501 0.968683 -0.213662  0.388684 0.115207 1 0 1.000000
0  28.813942 -150.847656 11.072790  -0.138496 0.962784 0.232091  0.388684 0.129856 1 0 1.000000
misc
0  32.781567 -151.271912 11.173756  0.321895 0.914659 0.244505  0.411145 0.115207 1 0 1.000000
0  28.813942 -150.847656 11.072790  -0.138496 0.962784 0.232091  0.398450 0.115207 1 0 1.000000
0  28.502270 -151.083511 11.446856  -0.285408 0.643848 0.709931  0.399426 0.114231 1 0 1.000000
misc
0  28.502270 -151.083511 11.446856  -0.285408 0.643848 0.709931  0.399426 0.114231 1 0 1.000000
0  33.017147 -151.566284 11.561749  0.373663 0.575188 0.727691  0.411145 0.114231 1 0 1.000000
0  32.781567 -151.271912 11.173756  0.321895 0.914659 0.244505  0.411145 0.115207 1 0 1.000000
misc
0  28.529560 -151.016068 7.937127  -0.606241 0.735251 -0.303114  0.389660 0.114231 1 0 1.000000
0  28.437906 -151.061234 11.349030  -0.622106 0.727442 0.289503  0.398450 0.114231 1 0 1.000000
0  28.813942 -150.847656 11.072790  -0.138496 0.962784 0.232091  0.398450 0.115207 1 0 1.000000
misc
0  28.813942 -150.847656 11.072790  -0.138496 0.962784 0.232091  0.398450 0.115207 1 0 1.000000
0  28.890074 -150.810135 8.238708  -0.126501 0.968683 -0.213662  0.388684 0.115207 1 0 1.000000
0  28.529560 -151.016068 7.937127  -0.606241 0.735251 -0.303114  0.389660 0.114231 1 0 1.000000
misc
0  33.113976 -151.518570 7.957236  0.411798 0.593972 -0.691101  0.376965 0.114231 1 0 1.000000
0  28.599098 -151.035797 7.842343  -0.247344 0.662579 -0.706973  0.388684 0.114231 1 0 1.000000
0  28.890074 -150.810135 8.238708  -0.126501 0.968683 -0.213662  0.388684 0.115207 1 0 1.000000
misc
0  28.890074 -150.810135 8.238708  -0.126501 0.968683 -0.213662  0.388684 0.115207 1 0 1.000000
0  32.857700 -151.234390 8.339673  0.333971 0.920553 -0.202597  0.376965 0.115207 1 0 1.000000
0  33.113976 -151.518570 7.957236  0.411798 0.593972 -0.691101  0.376965 0.114231 1 0 1.000000
misc
0  32.857700 -151.234390 8.339673  0.333971 0.920553 -0.202597  0.376965 0.115207 1 0 1.000000
0  32.781567 -151.271912 11.173756  0.321895 0.914659 0.244505  0.366222 0.115207 1 0 1.000000
0  33.103283 -151.560104 11.467752  0.740980 0.586573 0.326926  0.367199 0.114231 1 0 1.000000
misc
0  33.103283 -151.560104 11.467752  0.740980 0.586573 0.326926  0.367199 0.114231 1 0 1.000000
0  33.194935 -151.514938 8.055848  0.757060 0.594445 -0.271100  0.375988 0.114231 1 0 1.000000
0  32.857700 -151.234390 8.339673  0.333971 0.920553 -0.202597  0.376965 0.115207 1 0 1.000000
misc
0  28.437906 -151.061234 11.349030  -0.622106 0.727442 0.289503  0.398450 0.114231 1 0 1.000000
0  28.502270 -151.083511 11.446856  -0.285408 0.643848 0.709931  0.399426 0.114231 1 0 1.000000
0  28.813942 -150.847656 11.072790  -0.138496 0.962784 0.232091  0.398450 0.115207 1 0 1.000000
misc
0  28.599098 -151.035797 7.842343  -0.247344 0.662579 -0.706973  0.388684 0.114231 1 0 1.000000
0  28.529560 -151.016068 7.937127  -0.606241 0.735251 -0.303114  0.389660 0.114231 1 0 1.000000
0  28.890074 -150.810135 8.238708  -0.126501 0.968683 -0.213662  0.388684 0.115207 1 0 1.000000
misc
0  33.017147 -151.566284 11.561749  0.373663 0.575188 0.727691  0.411145 0.114231 1 0 1.000000
0  33.103283 -151.560104 11.467752  0.740980 0.586573 0.326926  0.412122 0.114231 1 0 1.000000
0  32.781567 -151.271912 11.173756  0.321895 0.914659 0.244505  0.411145 0.115207 1 0 1.000000
misc
0  33.194935 -151.514938 8.055848  0.757060 0.594445 -0.271100  0.375988 0.114231 1 0 1.000000
0  33.113976 -151.518570 7.957236  0.411798 0.593972 -0.691101  0.376965 0.114231 1 0 1.000000
0  32.857700 -151.234390 8.339673  0.333971 0.920553 -0.202597  0.376965 0.115207 1 0 1.000000
misc
0  33.250786 -153.468918 11.253666  -0.105895 -0.994249 -0.016006  0.113285 0.352519 1 0 1.000000
0  32.785255 -153.427567 11.764969  -0.105905 -0.994247 -0.016007  0.102542 0.362285 1 0 1.000000
0  32.894650 -153.373657 7.692695  -0.105903 -0.994247 -0.016010  0.102542 0.286111 1 0 1.000000
misc
0  32.894650 -153.373657 7.692695  -0.105903 -0.994247 -0.016010  0.102542 0.286111 1 0 1.000000
0  33.332092 -153.428848 8.226975  -0.105890 -0.994249 -0.016023  0.113285 0.295877 1 0 1.000000
0  33.250786 -153.468918 11.253666  -0.105895 -0.994249 -0.016006  0.113285 0.352519 1 0 1.000000
misc
0  28.325106 -152.950638 11.651470  -0.105911 -0.994247 -0.016010  0.017579 0.362285 1 0 1.000000
0  27.915024 -152.898361 11.117885  -0.105917 -0.994246 -0.016007  0.007813 0.352519 1 0 1.000000
0  27.996328 -152.858292 8.091194  -0.105920 -0.994246 -0.016006  0.007813 0.295877 1 0 1.000000
misc
0  27.996328 -152.858292 8.091194  -0.105920 -0.994246 -0.016006  0.007813 0.295877 1 0 1.000000
0  28.434498 -152.896729 7.579195  -0.105912 -0.994247 -0.016008  0.017579 0.286111 1 0 1.000000
0  28.325106 -152.950638 11.651470  -0.105911 -0.994247 -0.016010  0.017579 0.362285 1 0 1.000000
misc
0  32.785255 -153.427567 11.764969  -0.105905 -0.994247 -0.016007  0.102542 0.362285 1 0 1.000000
0  28.325106 -152.950638 11.651470  -0.105911 -0.994247 -0.016010  0.017579 0.362285 1 0 1.000000
0  28.434498 -152.896729 7.579195  -0.105912 -0.994247 -0.016008  0.017579 0.286111 1 0 1.000000
misc
0  28.434498 -152.896729 7.579195  -0.105912 -0.994247 -0.016008  0.017579 0.286111 1 0 1.000000
0  32.894650 -153.373657 7.692695  -0.105903 -0.994247 -0.016010  0.102542 0.286111 1 0 1.000000
0  32.785255 -153.427567 11.764969  -0.105905 -0.994247 -0.016007  0.102542 0.362285 1 0 1.000000
end
