version 1
nodes
0 "root" -1
end
skeleton
time 0
0 0 0 0 0 0 0
end
triangles
misc
0  -18.718822 -152.806244 9.331890  -0.053795 -0.948744 -0.311434  0.478530 0.023408 0
0  -18.718822 -149.695618 3.840115  -0.042812 -0.634997 -0.771328  0.478530 0.010712 0
0  0.000012 -150.397568 3.840114  -0.000536 -0.636842 -0.770994  0.469741 0.010712 0
misc
0  0.000012 -150.397568 3.840114  -0.000536 -0.636842 -0.770994  0.469741 0.010712 0
0  0.000012 -153.453140 9.318126  -0.000158 -0.949829 -0.312771  0.469741 0.023408 0
0  -18.718822 -152.806244 9.331890  -0.053795 -0.948744 -0.311434  0.478530 0.023408 0
misc
0  0.000013 -153.274216 15.319163  0.000307 -0.365567 0.930785  0.469741 0.038057 0
0  0.000012 -149.791962 15.704551  0.000770 -0.110527 0.993873  0.469741 0.039033 0
0  -18.718821 -149.379044 15.704552  -0.004699 -0.117627 0.993047  0.478530 0.039033 0
misc
0  -18.718821 -149.379044 15.704552  -0.004699 -0.117627 0.993047  0.478530 0.039033 0
0  -18.718821 -152.572250 15.319164  -0.019720 -0.367030 0.930000  0.478530 0.038057 0
0  0.000013 -153.274216 15.319163  0.000307 -0.365567 0.930785  0.469741 0.038057 0
misc
0  -46.549324 -134.472794 9.318130  -0.880593 0.180664 -0.438083  0.492203 0.023408 0
0  -48.063347 -134.582916 14.686031  -0.993398 0.005992 0.114560  0.492203 0.037080 0
0  -47.499027 -132.490799 15.167766  -0.928069 0.349632 -0.128243  0.492203 0.038057 0
misc
0  -47.499027 -132.490799 15.167766  -0.928069 0.349632 -0.128243  0.492203 0.038057 0
0  -45.035301 -132.490799 9.318130  -0.728401 0.536690 -0.425906  0.491226 0.023408 0
0  -46.549324 -134.472794 9.318130  -0.880593 0.180664 -0.438083  0.492203 0.023408 0
misc
0  -42.447697 -134.293869 3.840117  -0.737391 0.114777 -0.665643  0.490249 0.010712 0
0  -46.549324 -134.472794 9.318130  -0.880593 0.180664 -0.438083  0.492203 0.023408 0
0  -45.035301 -132.490799 9.318130  -0.728401 0.536690 -0.425906  0.491226 0.023408 0
misc
0  -45.035301 -132.490799 9.318130  -0.728401 0.536690 -0.425906  0.491226 0.023408 0
0  -41.566811 -132.490799 3.840117  -0.684638 0.341907 -0.643716  0.489273 0.010712 0
0  -42.447697 -134.293869 3.840117  -0.737391 0.114777 -0.665643  0.490249 0.010712 0
misc
0  -32.014702 -151.595032 15.319166  -0.075512 -0.392856 0.916495  0.485366 0.038057 0
0  -32.014702 -148.938599 15.690790  -0.022480 -0.134110 0.990711  0.485366 0.039033 0
0  -36.763229 -147.892548 15.663263  -0.060811 -0.148010 0.987115  0.487320 0.039033 0
misc
0  -36.763229 -147.892548 15.663263  -0.060811 -0.148010 0.987115  0.487320 0.039033 0
0  -36.763229 -150.163589 15.319166  -0.179175 -0.395128 0.900983  0.487320 0.038057 0
0  -32.014702 -151.595032 15.319166  -0.075512 -0.392856 0.916495  0.485366 0.038057 0
misc
0  -18.718822 -152.806244 9.331890  -0.053795 -0.948744 -0.311434  0.478530 0.023408 0
0  -18.718821 -153.453140 14.686028  -0.050666 -0.916410 0.397020  0.478530 0.037080 0
0  -32.014702 -152.448380 14.686030  -0.168144 -0.911679 0.374925  0.485366 0.037080 0
misc
0  -32.014702 -152.448380 14.686030  -0.168144 -0.911679 0.374925  0.485366 0.037080 0
0  -32.028465 -151.746429 9.331892  -0.195066 -0.919025 -0.342553  0.485366 0.023408 0
0  -18.718822 -152.806244 9.331890  -0.053795 -0.948744 -0.311434  0.478530 0.023408 0
misc
0  -18.718821 -152.572250 15.319164  -0.019720 -0.367030 0.930000  0.478530 0.038057 0
0  -18.718821 -149.379044 15.704552  -0.004699 -0.117627 0.993047  0.478530 0.039033 0
0  -32.014702 -148.938599 15.690790  -0.022480 -0.134110 0.990711  0.485366 0.039033 0
misc
0  -32.014702 -148.938599 15.690790  -0.022480 -0.134110 0.990711  0.485366 0.039033 0
0  -32.014702 -151.595032 15.319166  -0.075512 -0.392856 0.916495  0.485366 0.038057 0
0  -18.718821 -152.572250 15.319164  -0.019720 -0.367030 0.930000  0.478530 0.038057 0
misc
0  -32.028465 -151.746429 9.331892  -0.195066 -0.919025 -0.342553  0.485366 0.023408 0
0  -32.014702 -152.448380 14.686030  -0.168144 -0.911679 0.374925  0.485366 0.037080 0
0  -36.763229 -150.989426 14.686030  -0.372088 -0.860267 0.348556  0.487320 0.037080 0
misc
0  -36.763229 -150.989426 14.686030  -0.372088 -0.860267 0.348556  0.487320 0.037080 0
0  -36.763229 -150.067245 9.331892  -0.414159 -0.831700 -0.369793  0.487320 0.023408 0
0  -32.028465 -151.746429 9.331892  -0.195066 -0.919025 -0.342553  0.485366 0.023408 0
misc
0  -44.567329 -143.460602 15.319167  -0.604714 -0.354794 0.713052  0.491226 0.038057 0
0  -41.195187 -147.575989 15.319166  -0.355545 -0.382400 0.852853  0.489273 0.038057 0
0  -41.030022 -146.061966 15.621971  -0.164237 -0.170131 0.971639  0.489273 0.039033 0
misc
0  -40.906147 -147.342010 9.331892  -0.630904 -0.672266 -0.387322  0.489273 0.023408 0
0  -41.195187 -148.401810 14.686030  -0.601124 -0.740829 0.299704  0.489273 0.037080 0
0  -45.007774 -143.901047 14.686031  -0.829407 -0.495459 0.258077  0.491226 0.037080 0
misc
0  -45.007774 -143.901047 14.686031  -0.829407 -0.495459 0.258077  0.491226 0.037080 0
0  -44.016777 -143.102737 9.331892  -0.806979 -0.426012 -0.409021  0.490249 0.023408 0
0  -40.906147 -147.342010 9.331892  -0.630904 -0.672266 -0.387322  0.489273 0.023408 0
misc
0  -44.016777 -143.102737 9.331892  -0.806979 -0.426012 -0.409021  0.490249 0.023408 0
0  -40.658394 -140.790405 3.840117  -0.634326 -0.286889 -0.717861  0.489273 0.010712 0
0  -39.240719 -143.254135 3.840117  -0.523353 -0.429148 -0.736161  0.488296 0.010712 0
misc
0  -39.240719 -143.254135 3.840117  -0.523353 -0.429148 -0.736161  0.488296 0.010712 0
0  -40.906147 -147.342010 9.331892  -0.630904 -0.672266 -0.387322  0.489273 0.023408 0
0  -44.016777 -143.102737 9.331892  -0.806979 -0.426012 -0.409021  0.490249 0.023408 0
misc
0  -44.016777 -143.102737 9.331892  -0.806979 -0.426012 -0.409021  0.490249 0.023408 0
0  -45.007774 -143.901047 14.686031  -0.829407 -0.495459 0.258077  0.491226 0.037080 0
0  -47.182461 -138.312912 14.686031  -0.936650 -0.292001 0.193447  0.492203 0.037080 0
misc
0  -47.182461 -138.312912 14.686031  -0.936650 -0.292001 0.193447  0.492203 0.037080 0
0  -45.861134 -137.886230 9.318130  -0.870830 -0.242554 -0.427577  0.491226 0.023408 0
0  -44.016777 -143.102737 9.331892  -0.806979 -0.426012 -0.409021  0.490249 0.023408 0
misc
0  -46.549324 -134.472794 9.318130  -0.880593 0.180664 -0.438083  0.492203 0.023408 0
0  -42.447697 -134.293869 3.840117  -0.737391 0.114777 -0.665643  0.490249 0.010712 0
0  -41.965961 -136.867722 3.840117  -0.688946 -0.184800 -0.700858  0.489273 0.010712 0
misc
0  -41.965961 -136.867722 3.840117  -0.688946 -0.184800 -0.700858  0.489273 0.010712 0
0  -45.861134 -137.886230 9.318130  -0.870830 -0.242554 -0.427577  0.491226 0.023408 0
0  -46.549324 -134.472794 9.318130  -0.880593 0.180664 -0.438083  0.492203 0.023408 0
misc
0  -48.063347 -134.582916 14.686031  -0.993398 0.005992 0.114560  0.492203 0.037080 0
0  -46.549324 -134.472794 9.318130  -0.880593 0.180664 -0.438083  0.492203 0.023408 0
0  -45.861134 -137.886230 9.318130  -0.870830 -0.242554 -0.427577  0.491226 0.023408 0
misc
0  -45.861134 -137.886230 9.318130  -0.870830 -0.242554 -0.427577  0.491226 0.023408 0
0  -47.182461 -138.312912 14.686031  -0.936650 -0.292001 0.193447  0.492203 0.037080 0
0  -48.063347 -134.582916 14.686031  -0.993398 0.005992 0.114560  0.492203 0.037080 0
misc
0  0.000012 -153.453140 9.318126  -0.000158 -0.949829 -0.312771  0.469741 0.023408 0
0  0.000013 -154.155106 14.686028  -0.000599 -0.919449 0.393208  0.469741 0.037080 0
0  -18.718821 -153.453140 14.686028  -0.050666 -0.916410 0.397020  0.478530 0.037080 0
misc
0  -18.718821 -153.453140 14.686028  -0.050666 -0.916410 0.397020  0.478530 0.037080 0
0  -18.718822 -152.806244 9.331890  -0.053795 -0.948744 -0.311434  0.478530 0.023408 0
0  0.000012 -153.453140 9.318126  -0.000158 -0.949829 -0.312771  0.469741 0.023408 0
misc
0  -18.718822 -149.695618 3.840115  -0.042812 -0.634997 -0.771328  0.478530 0.010712 0
0  -18.718822 -152.806244 9.331890  -0.053795 -0.948744 -0.311434  0.478530 0.023408 0
0  -32.028465 -151.746429 9.331892  -0.195066 -0.919025 -0.342553  0.485366 0.023408 0
misc
0  -32.028465 -151.746429 9.331892  -0.195066 -0.919025 -0.342553  0.485366 0.023408 0
0  -32.014702 -148.016418 3.840116  -0.177600 -0.611776 -0.770836  0.485366 0.010712 0
0  -18.718822 -149.695618 3.840115  -0.042812 -0.634997 -0.771328  0.478530 0.010712 0
misc
0  -32.014702 -148.016418 3.840116  -0.177600 -0.611776 -0.770836  0.485366 0.010712 0
0  -32.028465 -151.746429 9.331892  -0.195066 -0.919025 -0.342553  0.485366 0.023408 0
0  -36.763229 -150.067245 9.331892  -0.414159 -0.831700 -0.369793  0.487320 0.023408 0
misc
0  -36.763229 -150.067245 9.331892  -0.414159 -0.831700 -0.369793  0.487320 0.023408 0
0  -36.749466 -145.525162 3.840117  -0.358487 -0.536228 -0.764164  0.487320 0.010712 0
0  -32.014702 -148.016418 3.840116  -0.177600 -0.611776 -0.770836  0.485366 0.010712 0
misc
0  -40.658394 -140.790405 3.840117  -0.634326 -0.286889 -0.717861  0.489273 0.010712 0
0  -44.016777 -143.102737 9.331892  -0.806979 -0.426012 -0.409021  0.490249 0.023408 0
0  -45.861134 -137.886230 9.318130  -0.870830 -0.242554 -0.427577  0.491226 0.023408 0
misc
0  -45.861134 -137.886230 9.318130  -0.870830 -0.242554 -0.427577  0.491226 0.023408 0
0  -41.965961 -136.867722 3.840117  -0.688946 -0.184800 -0.700858  0.489273 0.010712 0
0  -40.658394 -140.790405 3.840117  -0.634326 -0.286889 -0.717861  0.489273 0.010712 0
misc
0  -36.763229 -150.163589 15.319166  -0.179175 -0.395128 0.900983  0.487320 0.038057 0
0  -36.763229 -147.892548 15.663263  -0.060811 -0.148010 0.987115  0.487320 0.039033 0
0  -41.030022 -146.061966 15.621971  -0.164237 -0.170131 0.971639  0.489273 0.039033 0
misc
0  -41.030022 -146.061966 15.621971  -0.164237 -0.170131 0.971639  0.489273 0.039033 0
0  -41.195187 -147.575989 15.319166  -0.355545 -0.382400 0.852853  0.489273 0.038057 0
0  -36.763229 -150.163589 15.319166  -0.179175 -0.395128 0.900983  0.487320 0.038057 0
misc
0  -36.763229 -150.067245 9.331892  -0.414159 -0.831700 -0.369793  0.487320 0.023408 0
0  -36.763229 -150.989426 14.686030  -0.372088 -0.860267 0.348556  0.487320 0.037080 0
0  -41.195187 -148.401810 14.686030  -0.601124 -0.740829 0.299704  0.489273 0.037080 0
misc
0  -41.195187 -148.401810 14.686030  -0.601124 -0.740829 0.299704  0.489273 0.037080 0
0  -40.906147 -147.342010 9.331892  -0.630904 -0.672266 -0.387322  0.489273 0.023408 0
0  -36.763229 -150.067245 9.331892  -0.414159 -0.831700 -0.369793  0.487320 0.023408 0
misc
0  -36.749466 -145.525162 3.840117  -0.358487 -0.536228 -0.764164  0.487320 0.010712 0
0  -36.763229 -150.067245 9.331892  -0.414159 -0.831700 -0.369793  0.487320 0.023408 0
0  -40.906147 -147.342010 9.331892  -0.630904 -0.672266 -0.387322  0.489273 0.023408 0
misc
0  -40.906147 -147.342010 9.331892  -0.630904 -0.672266 -0.387322  0.489273 0.023408 0
0  -39.240719 -143.254135 3.840117  -0.523353 -0.429148 -0.736161  0.488296 0.010712 0
0  -36.749466 -145.525162 3.840117  -0.358487 -0.536228 -0.764164  0.487320 0.010712 0
misc
0  0.000013 -154.155106 14.686028  -0.000599 -0.919449 0.393208  0.469741 0.037080 0
0  0.000013 -153.274216 15.319163  0.000307 -0.365567 0.930785  0.469741 0.038057 0
0  -18.718821 -152.572250 15.319164  -0.019720 -0.367030 0.930000  0.478530 0.038057 0
misc
0  -18.718821 -152.572250 15.319164  -0.019720 -0.367030 0.930000  0.478530 0.038057 0
0  -18.718821 -153.453140 14.686028  -0.050666 -0.916410 0.397020  0.478530 0.037080 0
0  0.000013 -154.155106 14.686028  -0.000599 -0.919449 0.393208  0.469741 0.037080 0
misc
0  -32.014702 -151.595032 15.319166  -0.075512 -0.392856 0.916495  0.485366 0.038057 0
0  -32.014702 -152.448380 14.686030  -0.168144 -0.911679 0.374925  0.485366 0.037080 0
0  -18.718821 -153.453140 14.686028  -0.050666 -0.916410 0.397020  0.478530 0.037080 0
misc
0  -18.718821 -153.453140 14.686028  -0.050666 -0.916410 0.397020  0.478530 0.037080 0
0  -18.718821 -152.572250 15.319164  -0.019720 -0.367030 0.930000  0.478530 0.038057 0
0  -32.014702 -151.595032 15.319166  -0.075512 -0.392856 0.916495  0.485366 0.038057 0
misc
0  -36.763229 -150.163589 15.319166  -0.179175 -0.395128 0.900983  0.487320 0.038057 0
0  -36.763229 -150.989426 14.686030  -0.372088 -0.860267 0.348556  0.487320 0.037080 0
0  -32.014702 -152.448380 14.686030  -0.168144 -0.911679 0.374925  0.485366 0.037080 0
misc
0  -32.014702 -152.448380 14.686030  -0.168144 -0.911679 0.374925  0.485366 0.037080 0
0  -32.014702 -151.595032 15.319166  -0.075512 -0.392856 0.916495  0.485366 0.038057 0
0  -36.763229 -150.163589 15.319166  -0.179175 -0.395128 0.900983  0.487320 0.038057 0
misc
0  -41.195187 -147.575989 15.319166  -0.355545 -0.382400 0.852853  0.489273 0.038057 0
0  -41.195187 -148.401810 14.686030  -0.601124 -0.740829 0.299704  0.489273 0.037080 0
0  -36.763229 -150.989426 14.686030  -0.372088 -0.860267 0.348556  0.487320 0.037080 0
misc
0  -36.763229 -150.989426 14.686030  -0.372088 -0.860267 0.348556  0.487320 0.037080 0
0  -36.763229 -150.163589 15.319166  -0.179175 -0.395128 0.900983  0.487320 0.038057 0
0  -41.195187 -147.575989 15.319166  -0.355545 -0.382400 0.852853  0.489273 0.038057 0
misc
0  -44.567329 -143.460602 15.319167  -0.604714 -0.354794 0.713052  0.491226 0.038057 0
0  -45.007774 -143.901047 14.686031  -0.829407 -0.495459 0.258077  0.491226 0.037080 0
0  -41.195187 -148.401810 14.686030  -0.601124 -0.740829 0.299704  0.489273 0.037080 0
misc
0  -41.195187 -148.401810 14.686030  -0.601124 -0.740829 0.299704  0.489273 0.037080 0
0  -41.195187 -147.575989 15.319166  -0.355545 -0.382400 0.852853  0.489273 0.038057 0
0  -44.567329 -143.460602 15.319167  -0.604714 -0.354794 0.713052  0.491226 0.038057 0
misc
0  -46.742023 -138.133987 15.319167  -0.756965 -0.242994 0.606595  0.492203 0.038057 0
0  -47.182461 -138.312912 14.686031  -0.936650 -0.292001 0.193447  0.492203 0.037080 0
0  -45.007774 -143.901047 14.686031  -0.829407 -0.495459 0.258077  0.491226 0.037080 0
misc
0  -45.007774 -143.901047 14.686031  -0.829407 -0.495459 0.258077  0.491226 0.037080 0
0  -44.567329 -143.460602 15.319167  -0.604714 -0.354794 0.713052  0.491226 0.038057 0
0  -46.742023 -138.133987 15.319167  -0.756965 -0.242994 0.606595  0.492203 0.038057 0
misc
0  -47.182461 -138.312912 14.686031  -0.936650 -0.292001 0.193447  0.492203 0.037080 0
0  -46.742023 -138.133987 15.319167  -0.756965 -0.242994 0.606595  0.492203 0.038057 0
0  -47.664200 -134.555389 15.319167  -0.841030 -0.048764 0.538787  0.492203 0.038057 0
misc
0  -47.664200 -134.555389 15.319167  -0.841030 -0.048764 0.538787  0.492203 0.038057 0
0  -48.063347 -134.582916 14.686031  -0.993398 0.005992 0.114560  0.492203 0.037080 0
0  -47.182461 -138.312912 14.686031  -0.936650 -0.292001 0.193447  0.492203 0.037080 0
misc
0  -47.664200 -134.555389 15.319167  -0.841030 -0.048764 0.538787  0.492203 0.038057 0
0  -47.499027 -132.490799 15.167766  -0.928069 0.349632 -0.128243  0.492203 0.038057 0
0  -48.063347 -134.582916 14.686031  -0.993398 0.005992 0.114560  0.492203 0.037080 0
misc
0  -18.718822 -149.695618 3.840115  -0.042812 -0.634997 -0.771328  0.478530 0.010712 0
0  -18.718822 -144.713104 2.174690  -0.022766 -0.319608 -0.947276  0.478530 0.006806 0
0  0.000011 -145.126022 2.174688  -0.001923 -0.301561 -0.953445  0.469741 0.006806 0
misc
0  0.000011 -145.126022 2.174688  -0.001923 -0.301561 -0.953445  0.469741 0.006806 0
0  0.000012 -150.397568 3.840114  -0.000536 -0.636842 -0.770994  0.469741 0.010712 0
0  -18.718822 -149.695618 3.840115  -0.042812 -0.634997 -0.771328  0.478530 0.010712 0
misc
0  -42.447697 -134.293869 3.840117  -0.737391 0.114777 -0.665643  0.490249 0.010712 0
0  -40.355595 -134.101166 2.147163  -0.623916 0.112459 -0.773358  0.489273 0.005829 0
0  -39.846329 -136.441040 2.174691  -0.588145 -0.185979 -0.787082  0.488296 0.006806 0
misc
0  -39.846329 -136.441040 2.174691  -0.588145 -0.185979 -0.787082  0.488296 0.006806 0
0  -41.965961 -136.867722 3.840117  -0.688946 -0.184800 -0.700858  0.489273 0.010712 0
0  -42.447697 -134.293869 3.840117  -0.737391 0.114777 -0.665643  0.490249 0.010712 0
misc
0  -41.566811 -132.490799 3.840117  -0.684638 0.341907 -0.643716  0.489273 0.010712 0
0  -39.323303 -132.284348 2.119636  -0.591542 0.326421 -0.737243  0.488296 0.005829 0
0  -40.355595 -134.101166 2.147163  -0.623916 0.112459 -0.773358  0.489273 0.005829 0
misc
0  -40.355595 -134.101166 2.147163  -0.623916 0.112459 -0.773358  0.489273 0.005829 0
0  -42.447697 -134.293869 3.840117  -0.737391 0.114777 -0.665643  0.490249 0.010712 0
0  -41.566811 -132.490799 3.840117  -0.684638 0.341907 -0.643716  0.489273 0.010712 0
misc
0  -18.718822 -144.713104 2.174690  -0.022766 -0.319608 -0.947276  0.478530 0.006806 0
0  -18.718822 -149.695618 3.840115  -0.042812 -0.634997 -0.771328  0.478530 0.010712 0
0  -32.014702 -148.016418 3.840116  -0.177600 -0.611776 -0.770836  0.485366 0.010712 0
misc
0  -32.014702 -148.016418 3.840116  -0.177600 -0.611776 -0.770836  0.485366 0.010712 0
0  -32.014702 -143.598236 2.174690  -0.113476 -0.355106 -0.927913  0.485366 0.006806 0
0  -18.718822 -144.713104 2.174690  -0.022766 -0.319608 -0.947276  0.478530 0.006806 0
misc
0  -32.014702 -143.598236 2.174690  -0.113476 -0.355106 -0.927913  0.485366 0.006806 0
0  -32.014702 -148.016418 3.840116  -0.177600 -0.611776 -0.770836  0.485366 0.010712 0
0  -36.749466 -145.525162 3.840117  -0.358487 -0.536228 -0.764164  0.487320 0.010712 0
misc
0  -36.749466 -145.525162 3.840117  -0.358487 -0.536228 -0.764164  0.487320 0.010712 0
0  -36.749466 -141.423538 2.174691  -0.262472 -0.369904 -0.891224  0.487320 0.006806 0
0  -32.014702 -143.598236 2.174690  -0.113476 -0.355106 -0.927913  0.485366 0.006806 0
misc
0  -37.823048 -140.556427 2.174691  -0.398815 -0.335927 -0.853288  0.487320 0.006806 0
0  -39.240719 -143.254135 3.840117  -0.523353 -0.429148 -0.736161  0.488296 0.010712 0
0  -40.658394 -140.790405 3.840117  -0.634326 -0.286889 -0.717861  0.489273 0.010712 0
misc
0  -40.658394 -140.790405 3.840117  -0.634326 -0.286889 -0.717861  0.489273 0.010712 0
0  -38.525002 -139.606720 2.174691  -0.505360 -0.267428 -0.820423  0.488296 0.006806 0
0  -37.823048 -140.556427 2.174691  -0.398815 -0.335927 -0.853288  0.487320 0.006806 0
misc
0  -41.965961 -136.867722 3.840117  -0.688946 -0.184800 -0.700858  0.489273 0.010712 0
0  -39.846329 -136.441040 2.174691  -0.588145 -0.185979 -0.787082  0.488296 0.006806 0
0  -38.525002 -139.606720 2.174691  -0.505360 -0.267428 -0.820423  0.488296 0.006806 0
misc
0  -38.525002 -139.606720 2.174691  -0.505360 -0.267428 -0.820423  0.488296 0.006806 0
0  -40.658394 -140.790405 3.840117  -0.634326 -0.286889 -0.717861  0.489273 0.010712 0
0  -41.965961 -136.867722 3.840117  -0.688946 -0.184800 -0.700858  0.489273 0.010712 0
misc
0  -36.749466 -141.423538 2.174691  -0.262472 -0.369904 -0.891224  0.487320 0.006806 0
0  -36.749466 -145.525162 3.840117  -0.358487 -0.536228 -0.764164  0.487320 0.010712 0
0  -39.240719 -143.254135 3.840117  -0.523353 -0.429148 -0.736161  0.488296 0.010712 0
misc
0  -39.240719 -143.254135 3.840117  -0.523353 -0.429148 -0.736161  0.488296 0.010712 0
0  -37.823048 -140.556427 2.174691  -0.398815 -0.335927 -0.853288  0.487320 0.006806 0
0  -36.749466 -141.423538 2.174691  -0.262472 -0.369904 -0.891224  0.487320 0.006806 0
misc
0  0.000012 -149.791962 15.704551  0.000000 0.945362 0.326021  0.349620 0.034150 0
0  0.000011 -145.126022 2.174688  -0.000000 0.945363 0.326021  0.349620 0.034150 0
0  -18.718822 -144.713104 2.174690  0.050273 0.944167 0.325609  0.349620 0.034150 0
misc
0  -18.718822 -144.713104 2.174690  0.050273 0.944167 0.325609  0.349620 0.034150 0
0  -18.718821 -149.379044 15.704552  0.037049 0.940875 0.336721  0.349620 0.034150 0
0  0.000012 -149.791962 15.704551  0.000000 0.945362 0.326021  0.349620 0.034150 0
misc
0  -47.499027 -132.490799 15.167766  0.871470 -0.067450 0.485788  0.349620 0.034150 0
0  -47.664200 -134.555389 15.319167  0.869369 0.094367 0.485069  0.349620 0.034150 0
0  -40.355595 -134.101166 2.147163  0.856362 -0.128258 0.500194  0.349620 0.034150 0
misc
0  -40.355595 -134.101166 2.147163  0.856362 -0.128258 0.500194  0.349620 0.034150 0
0  -39.323303 -132.284348 2.119636  0.767302 -0.431791 0.474135  0.349620 0.034150 0
0  -47.499027 -132.490799 15.167766  0.871470 -0.067450 0.485788  0.349620 0.034150 0
misc
0  -32.014702 -148.938599 15.690790  0.131164 0.911858 0.388988  0.349620 0.034150 0
0  -32.014702 -143.598236 2.174690  0.237444 0.907436 0.346669  0.349620 0.034150 0
0  -36.749466 -141.423538 2.174691  0.490055 0.795260 0.356942  0.349620 0.034150 0
misc
0  -36.749466 -141.423538 2.174691  0.490055 0.795260 0.356942  0.349620 0.034150 0
0  -36.763229 -147.892548 15.663263  0.273213 0.863005 0.424944  0.349620 0.034150 0
0  -32.014702 -148.938599 15.690790  0.131164 0.911858 0.388988  0.349620 0.034150 0
misc
0  -44.567329 -143.460602 15.319167  0.685225 0.551494 0.475732  0.349620 0.034150 0
0  -38.525002 -139.606720 2.174691  0.766434 0.461984 0.446263  0.349620 0.034150 0
0  -39.846329 -136.441040 2.174691  0.838015 0.268110 0.475234  0.349620 0.034150 0
misc
0  -39.846329 -136.441040 2.174691  0.838015 0.268110 0.475234  0.349620 0.034150 0
0  -46.742023 -138.133987 15.319167  0.835675 0.273953 0.476021  0.349620 0.034150 0
0  -44.567329 -143.460602 15.319167  0.685225 0.551494 0.475732  0.349620 0.034150 0
misc
0  -18.718821 -149.379044 15.704552  0.037049 0.940875 0.336721  0.349620 0.034150 0
0  -18.718822 -144.713104 2.174690  0.050273 0.944167 0.325609  0.349620 0.034150 0
0  -32.014702 -143.598236 2.174690  0.237444 0.907436 0.346669  0.349620 0.034150 0
misc
0  -32.014702 -143.598236 2.174690  0.237444 0.907436 0.346669  0.349620 0.034150 0
0  -32.014702 -148.938599 15.690790  0.131164 0.911858 0.388988  0.349620 0.034150 0
0  -18.718821 -149.379044 15.704552  0.037049 0.940875 0.336721  0.349620 0.034150 0
misc
0  -41.030022 -146.061966 15.621971  0.435923 0.786259 0.437914  0.349620 0.034150 0
0  -37.823048 -140.556427 2.174691  0.656862 0.646465 0.388091  0.349620 0.034150 0
0  -38.525002 -139.606720 2.174691  0.766434 0.461984 0.446263  0.349620 0.034150 0
misc
0  -38.525002 -139.606720 2.174691  0.766434 0.461984 0.446263  0.349620 0.034150 0
0  -44.567329 -143.460602 15.319167  0.685225 0.551494 0.475732  0.349620 0.034150 0
0  -41.030022 -146.061966 15.621971  0.435923 0.786259 0.437914  0.349620 0.034150 0
misc
0  -46.742023 -138.133987 15.319167  0.835675 0.273953 0.476021  0.349620 0.034150 0
0  -39.846329 -136.441040 2.174691  0.838015 0.268110 0.475234  0.349620 0.034150 0
0  -40.355595 -134.101166 2.147163  0.856362 -0.128258 0.500194  0.349620 0.034150 0
misc
0  -40.355595 -134.101166 2.147163  0.856362 -0.128258 0.500194  0.349620 0.034150 0
0  -47.664200 -134.555389 15.319167  0.869369 0.094367 0.485069  0.349620 0.034150 0
0  -46.742023 -138.133987 15.319167  0.835675 0.273953 0.476021  0.349620 0.034150 0
misc
0  -36.763229 -147.892548 15.663263  0.273213 0.863005 0.424944  0.349620 0.034150 0
0  -36.749466 -141.423538 2.174691  0.490055 0.795260 0.356942  0.349620 0.034150 0
0  -37.823048 -140.556427 2.174691  0.656862 0.646465 0.388091  0.349620 0.034150 0
misc
0  -37.823048 -140.556427 2.174691  0.656862 0.646465 0.388091  0.349620 0.034150 0
0  -41.030022 -146.061966 15.621971  0.435923 0.786259 0.437914  0.349620 0.034150 0
0  -36.763229 -147.892548 15.663263  0.273213 0.863005 0.424944  0.349620 0.034150 0
misc
0  -45.035301 -132.490799 9.318130  -0.076486 0.996513 -0.033337  0.491226 0.023408 0
0  -47.499027 -132.490799 15.167766  -0.073091 0.996856 -0.030600  0.492203 0.038057 0
0  -39.323303 -132.284348 2.119636  -0.137735 0.987055 -0.082171  0.488296 0.005829 0
misc
0  -39.323303 -132.284348 2.119636  -0.137735 0.987055 -0.082171  0.488296 0.005829 0
0  -41.566811 -132.490799 3.840117  -0.165909 0.980566 -0.104709  0.489273 0.010712 0
0  -45.035301 -132.490799 9.318130  -0.076486 0.996513 -0.033337  0.491226 0.023408 0
misc
0  18.718845 -149.695618 3.840112  0.049653 -0.641642 -0.765395  0.460952 0.010712 0
0  18.718845 -152.806244 9.331888  0.061623 -0.946443 -0.316936  0.460952 0.023408 0
0  0.000012 -153.453140 9.318126  -0.000158 -0.949829 -0.312771  0.469741 0.023408 0
misc
0  0.000012 -153.453140 9.318126  -0.000158 -0.949829 -0.312771  0.469741 0.023408 0
0  0.000012 -150.397568 3.840114  -0.000536 -0.636842 -0.770994  0.469741 0.010712 0
0  18.718845 -149.695618 3.840112  0.049653 -0.641642 -0.765395  0.460952 0.010712 0
misc
0  0.000012 -149.791962 15.704551  0.000770 -0.110527 0.993873  0.469741 0.039033 0
0  0.000013 -153.274216 15.319163  0.000307 -0.365567 0.930785  0.469741 0.038057 0
0  18.718847 -152.572250 15.319162  0.020401 -0.366612 0.930150  0.460952 0.038057 0
misc
0  18.718847 -152.572250 15.319162  0.020401 -0.366612 0.930150  0.460952 0.038057 0
0  18.718847 -149.379044 15.704550  0.005701 -0.119251 0.992848  0.460952 0.039033 0
0  0.000012 -149.791962 15.704551  0.000770 -0.110527 0.993873  0.469741 0.039033 0
misc
0  48.063370 -134.582916 14.686024  0.995673 0.026158 0.089168  0.447279 0.037080 0
0  46.549347 -134.472794 9.318122  0.893518 0.196510 -0.403745  0.448256 0.023408 0
0  45.035324 -132.490799 9.318122  0.755586 0.541548 -0.368532  0.449232 0.023408 0
misc
0  45.035324 -132.490799 9.318122  0.755586 0.541548 -0.368532  0.449232 0.023408 0
0  47.499050 -132.490799 15.167758  0.930099 0.299488 -0.212657  0.448256 0.038057 0
0  48.063370 -134.582916 14.686024  0.995673 0.026158 0.089168  0.447279 0.037080 0
misc
0  46.549347 -134.472794 9.318122  0.893518 0.196510 -0.403745  0.448256 0.023408 0
0  42.447720 -134.293869 3.840111  0.729037 0.103262 -0.676641  0.450209 0.010712 0
0  41.566833 -132.490799 3.840111  0.662629 0.340902 -0.666865  0.451186 0.010712 0
misc
0  41.566833 -132.490799 3.840111  0.662629 0.340902 -0.666865  0.451186 0.010712 0
0  45.035324 -132.490799 9.318122  0.755586 0.541548 -0.368532  0.449232 0.023408 0
0  46.549347 -134.472794 9.318122  0.893518 0.196510 -0.403745  0.448256 0.023408 0
misc
0  32.014725 -148.938599 15.690784  0.024181 -0.137465 0.990211  0.455092 0.039033 0
0  32.014725 -151.595032 15.319160  0.075556 -0.391773 0.916954  0.455092 0.038057 0
0  36.763252 -150.163589 15.319160  0.177911 -0.393102 0.902119  0.453139 0.038057 0
misc
0  36.763252 -150.163589 15.319160  0.177911 -0.393102 0.902119  0.453139 0.038057 0
0  36.763252 -147.892548 15.663258  0.067280 -0.153235 0.985897  0.453139 0.039033 0
0  32.014725 -148.938599 15.690784  0.024181 -0.137465 0.990211  0.455092 0.039033 0
misc
0  18.718847 -153.453140 14.686027  0.052312 -0.916263 0.397146  0.460952 0.037080 0
0  18.718845 -152.806244 9.331888  0.061623 -0.946443 -0.316936  0.460952 0.023408 0
0  32.028488 -151.746429 9.331886  0.202669 -0.913370 -0.353101  0.455092 0.023408 0
misc
0  32.028488 -151.746429 9.331886  0.202669 -0.913370 -0.353101  0.455092 0.023408 0
0  32.014725 -152.448380 14.686025  0.173433 -0.912613 0.370215  0.455092 0.037080 0
0  18.718847 -153.453140 14.686027  0.052312 -0.916263 0.397146  0.460952 0.037080 0
misc
0  18.718847 -149.379044 15.704550  0.005701 -0.119251 0.992848  0.460952 0.039033 0
0  18.718847 -152.572250 15.319162  0.020401 -0.366612 0.930150  0.460952 0.038057 0
0  32.014725 -151.595032 15.319160  0.075556 -0.391773 0.916954  0.455092 0.038057 0
misc
0  32.014725 -151.595032 15.319160  0.075556 -0.391773 0.916954  0.455092 0.038057 0
0  32.014725 -148.938599 15.690784  0.024181 -0.137465 0.990211  0.455092 0.039033 0
0  18.718847 -149.379044 15.704550  0.005701 -0.119251 0.992848  0.460952 0.039033 0
misc
0  32.014725 -152.448380 14.686025  0.173433 -0.912613 0.370215  0.455092 0.037080 0
0  32.028488 -151.746429 9.331886  0.202669 -0.913370 -0.353101  0.455092 0.023408 0
0  36.763252 -150.067245 9.331886  0.408449 -0.828686 -0.382686  0.453139 0.023408 0
misc
0  36.763252 -150.067245 9.331886  0.408449 -0.828686 -0.382686  0.453139 0.023408 0
0  36.763252 -150.989426 14.686025  0.373674 -0.863523 0.338669  0.453139 0.037080 0
0  32.014725 -152.448380 14.686025  0.173433 -0.912613 0.370215  0.455092 0.037080 0
misc
0  41.195210 -147.575989 15.319160  0.344289 -0.381449 0.857882  0.451186 0.038057 0
0  44.567352 -143.460602 15.319160  0.611215 -0.346455 0.711607  0.449232 0.038057 0
0  41.030045 -146.061966 15.621965  0.161269 -0.174245 0.971407  0.451186 0.039033 0
misc
0  41.195210 -148.401810 14.686025  0.603661 -0.744147 0.286074  0.451186 0.037080 0
0  40.906170 -147.342010 9.331886  0.630178 -0.671323 -0.390129  0.451186 0.023408 0
0  44.016800 -143.102737 9.331886  0.803787 -0.435191 -0.405631  0.449232 0.023408 0
misc
0  44.016800 -143.102737 9.331886  0.803787 -0.435191 -0.405631  0.449232 0.023408 0
0  45.007797 -143.901047 14.686024  0.832199 -0.497050 0.245737  0.449232 0.037080 0
0  41.195210 -148.401810 14.686025  0.603661 -0.744147 0.286074  0.451186 0.037080 0
misc
0  40.658417 -140.790405 3.840111  0.643559 -0.302473 -0.703094  0.451186 0.010712 0
0  44.016800 -143.102737 9.331886  0.803787 -0.435191 -0.405631  0.449232 0.023408 0
0  40.906170 -147.342010 9.331886  0.630178 -0.671323 -0.390129  0.451186 0.023408 0
misc
0  40.906170 -147.342010 9.331886  0.630178 -0.671323 -0.390129  0.451186 0.023408 0
0  39.240742 -143.254135 3.840111  0.538609 -0.443059 -0.716658  0.452162 0.010712 0
0  40.658417 -140.790405 3.840111  0.643559 -0.302473 -0.703094  0.451186 0.010712 0
misc
0  45.007797 -143.901047 14.686024  0.832199 -0.497050 0.245737  0.449232 0.037080 0
0  44.016800 -143.102737 9.331886  0.803787 -0.435191 -0.405631  0.449232 0.023408 0
0  45.861156 -137.886230 9.318122  0.872427 -0.244615 -0.423125  0.449232 0.023408 0
misc
0  45.861156 -137.886230 9.318122  0.872427 -0.244615 -0.423125  0.449232 0.023408 0
0  47.182484 -138.312912 14.686024  0.936838 -0.292762 0.191374  0.448256 0.037080 0
0  45.007797 -143.901047 14.686024  0.832199 -0.497050 0.245737  0.449232 0.037080 0
misc
0  42.447720 -134.293869 3.840111  0.729037 0.103262 -0.676641  0.450209 0.010712 0
0  46.549347 -134.472794 9.318122  0.893518 0.196510 -0.403745  0.448256 0.023408 0
0  45.861156 -137.886230 9.318122  0.872427 -0.244615 -0.423125  0.449232 0.023408 0
misc
0  45.861156 -137.886230 9.318122  0.872427 -0.244615 -0.423125  0.449232 0.023408 0
0  41.965984 -136.867722 3.840111  0.697440 -0.185167 -0.692308  0.450209 0.010712 0
0  42.447720 -134.293869 3.840111  0.729037 0.103262 -0.676641  0.450209 0.010712 0
misc
0  46.549347 -134.472794 9.318122  0.893518 0.196510 -0.403745  0.448256 0.023408 0
0  48.063370 -134.582916 14.686024  0.995673 0.026158 0.089168  0.447279 0.037080 0
0  47.182484 -138.312912 14.686024  0.936838 -0.292762 0.191374  0.448256 0.037080 0
misc
0  47.182484 -138.312912 14.686024  0.936838 -0.292762 0.191374  0.448256 0.037080 0
0  45.861156 -137.886230 9.318122  0.872427 -0.244615 -0.423125  0.449232 0.023408 0
0  46.549347 -134.472794 9.318122  0.893518 0.196510 -0.403745  0.448256 0.023408 0
misc
0  0.000013 -154.155106 14.686028  -0.000599 -0.919449 0.393208  0.469741 0.037080 0
0  0.000012 -153.453140 9.318126  -0.000158 -0.949829 -0.312771  0.469741 0.023408 0
0  18.718845 -152.806244 9.331888  0.061623 -0.946443 -0.316936  0.460952 0.023408 0
misc
0  18.718845 -152.806244 9.331888  0.061623 -0.946443 -0.316936  0.460952 0.023408 0
0  18.718847 -153.453140 14.686027  0.052312 -0.916263 0.397146  0.460952 0.037080 0
0  0.000013 -154.155106 14.686028  -0.000599 -0.919449 0.393208  0.469741 0.037080 0
misc
0  18.718845 -152.806244 9.331888  0.061623 -0.946443 -0.316936  0.460952 0.023408 0
0  18.718845 -149.695618 3.840112  0.049653 -0.641642 -0.765395  0.460952 0.010712 0
0  32.014725 -148.016418 3.840111  0.194750 -0.626742 -0.754497  0.455092 0.010712 0
misc
0  32.014725 -148.016418 3.840111  0.194750 -0.626742 -0.754497  0.455092 0.010712 0
0  32.028488 -151.746429 9.331886  0.202669 -0.913370 -0.353101  0.455092 0.023408 0
0  18.718845 -152.806244 9.331888  0.061623 -0.946443 -0.316936  0.460952 0.023408 0
misc
0  32.028488 -151.746429 9.331886  0.202669 -0.913370 -0.353101  0.455092 0.023408 0
0  32.014725 -148.016418 3.840111  0.194750 -0.626742 -0.754497  0.455092 0.010712 0
0  36.749489 -145.525162 3.840111  0.377518 -0.552648 -0.743008  0.453139 0.010712 0
misc
0  36.749489 -145.525162 3.840111  0.377518 -0.552648 -0.743008  0.453139 0.010712 0
0  36.763252 -150.067245 9.331886  0.408449 -0.828686 -0.382686  0.453139 0.023408 0
0  32.028488 -151.746429 9.331886  0.202669 -0.913370 -0.353101  0.455092 0.023408 0
misc
0  44.016800 -143.102737 9.331886  0.803787 -0.435191 -0.405631  0.449232 0.023408 0
0  40.658417 -140.790405 3.840111  0.643559 -0.302473 -0.703094  0.451186 0.010712 0
0  41.965984 -136.867722 3.840111  0.697440 -0.185167 -0.692308  0.450209 0.010712 0
misc
0  41.965984 -136.867722 3.840111  0.697440 -0.185167 -0.692308  0.450209 0.010712 0
0  45.861156 -137.886230 9.318122  0.872427 -0.244615 -0.423125  0.449232 0.023408 0
0  44.016800 -143.102737 9.331886  0.803787 -0.435191 -0.405631  0.449232 0.023408 0
misc
0  36.763252 -147.892548 15.663258  0.067280 -0.153235 0.985897  0.453139 0.039033 0
0  36.763252 -150.163589 15.319160  0.177911 -0.393102 0.902119  0.453139 0.038057 0
0  41.195210 -147.575989 15.319160  0.344289 -0.381449 0.857882  0.451186 0.038057 0
misc
0  41.195210 -147.575989 15.319160  0.344289 -0.381449 0.857882  0.451186 0.038057 0
0  41.030045 -146.061966 15.621965  0.161269 -0.174245 0.971407  0.451186 0.039033 0
0  36.763252 -147.892548 15.663258  0.067280 -0.153235 0.985897  0.453139 0.039033 0
misc
0  36.763252 -150.989426 14.686025  0.373674 -0.863523 0.338669  0.453139 0.037080 0
0  36.763252 -150.067245 9.331886  0.408449 -0.828686 -0.382686  0.453139 0.023408 0
0  40.906170 -147.342010 9.331886  0.630178 -0.671323 -0.390129  0.451186 0.023408 0
misc
0  40.906170 -147.342010 9.331886  0.630178 -0.671323 -0.390129  0.451186 0.023408 0
0  41.195210 -148.401810 14.686025  0.603661 -0.744147 0.286074  0.451186 0.037080 0
0  36.763252 -150.989426 14.686025  0.373674 -0.863523 0.338669  0.453139 0.037080 0
misc
0  36.763252 -150.067245 9.331886  0.408449 -0.828686 -0.382686  0.453139 0.023408 0
0  36.749489 -145.525162 3.840111  0.377518 -0.552648 -0.743008  0.453139 0.010712 0
0  39.240742 -143.254135 3.840111  0.538609 -0.443059 -0.716658  0.452162 0.010712 0
misc
0  39.240742 -143.254135 3.840111  0.538609 -0.443059 -0.716658  0.452162 0.010712 0
0  40.906170 -147.342010 9.331886  0.630178 -0.671323 -0.390129  0.451186 0.023408 0
0  36.763252 -150.067245 9.331886  0.408449 -0.828686 -0.382686  0.453139 0.023408 0
misc
0  0.000013 -153.274216 15.319163  0.000307 -0.365567 0.930785  0.469741 0.038057 0
0  0.000013 -154.155106 14.686028  -0.000599 -0.919449 0.393208  0.469741 0.037080 0
0  18.718847 -153.453140 14.686027  0.052312 -0.916263 0.397146  0.460952 0.037080 0
misc
0  18.718847 -153.453140 14.686027  0.052312 -0.916263 0.397146  0.460952 0.037080 0
0  18.718847 -152.572250 15.319162  0.020401 -0.366612 0.930150  0.460952 0.038057 0
0  0.000013 -153.274216 15.319163  0.000307 -0.365567 0.930785  0.469741 0.038057 0
misc
0  32.014725 -152.448380 14.686025  0.173433 -0.912613 0.370215  0.455092 0.037080 0
0  32.014725 -151.595032 15.319160  0.075556 -0.391773 0.916954  0.455092 0.038057 0
0  18.718847 -152.572250 15.319162  0.020401 -0.366612 0.930150  0.460952 0.038057 0
misc
0  18.718847 -152.572250 15.319162  0.020401 -0.366612 0.930150  0.460952 0.038057 0
0  18.718847 -153.453140 14.686027  0.052312 -0.916263 0.397146  0.460952 0.037080 0
0  32.014725 -152.448380 14.686025  0.173433 -0.912613 0.370215  0.455092 0.037080 0
misc
0  36.763252 -150.989426 14.686025  0.373674 -0.863523 0.338669  0.453139 0.037080 0
0  36.763252 -150.163589 15.319160  0.177911 -0.393102 0.902119  0.453139 0.038057 0
0  32.014725 -151.595032 15.319160  0.075556 -0.391773 0.916954  0.455092 0.038057 0
misc
0  32.014725 -151.595032 15.319160  0.075556 -0.391773 0.916954  0.455092 0.038057 0
0  32.014725 -152.448380 14.686025  0.173433 -0.912613 0.370215  0.455092 0.037080 0
0  36.763252 -150.989426 14.686025  0.373674 -0.863523 0.338669  0.453139 0.037080 0
misc
0  41.195210 -148.401810 14.686025  0.603661 -0.744147 0.286074  0.451186 0.037080 0
0  41.195210 -147.575989 15.319160  0.344289 -0.381449 0.857882  0.451186 0.038057 0
0  36.763252 -150.163589 15.319160  0.177911 -0.393102 0.902119  0.453139 0.038057 0
misc
0  36.763252 -150.163589 15.319160  0.177911 -0.393102 0.902119  0.453139 0.038057 0
0  36.763252 -150.989426 14.686025  0.373674 -0.863523 0.338669  0.453139 0.037080 0
0  41.195210 -148.401810 14.686025  0.603661 -0.744147 0.286074  0.451186 0.037080 0
misc
0  45.007797 -143.901047 14.686024  0.832199 -0.497050 0.245737  0.449232 0.037080 0
0  44.567352 -143.460602 15.319160  0.611215 -0.346455 0.711607  0.449232 0.038057 0
0  41.195210 -147.575989 15.319160  0.344289 -0.381449 0.857882  0.451186 0.038057 0
misc
0  41.195210 -147.575989 15.319160  0.344289 -0.381449 0.857882  0.451186 0.038057 0
0  41.195210 -148.401810 14.686025  0.603661 -0.744147 0.286074  0.451186 0.037080 0
0  45.007797 -143.901047 14.686024  0.832199 -0.497050 0.245737  0.449232 0.037080 0
misc
0  47.182484 -138.312912 14.686024  0.936838 -0.292762 0.191374  0.448256 0.037080 0
0  46.742046 -138.133987 15.319160  0.763016 -0.242453 0.599185  0.448256 0.038057 0
0  44.567352 -143.460602 15.319160  0.611215 -0.346455 0.711607  0.449232 0.038057 0
misc
0  44.567352 -143.460602 15.319160  0.611215 -0.346455 0.711607  0.449232 0.038057 0
0  45.007797 -143.901047 14.686024  0.832199 -0.497050 0.245737  0.449232 0.037080 0
0  47.182484 -138.312912 14.686024  0.936838 -0.292762 0.191374  0.448256 0.037080 0
misc
0  46.742046 -138.133987 15.319160  0.763016 -0.242453 0.599185  0.448256 0.038057 0
0  47.182484 -138.312912 14.686024  0.936838 -0.292762 0.191374  0.448256 0.037080 0
0  48.063370 -134.582916 14.686024  0.995673 0.026158 0.089168  0.447279 0.037080 0
misc
0  48.063370 -134.582916 14.686024  0.995673 0.026158 0.089168  0.447279 0.037080 0
0  47.664223 -134.555389 15.319160  0.843392 -0.057579 0.534205  0.448256 0.038057 0
0  46.742046 -138.133987 15.319160  0.763016 -0.242453 0.599185  0.448256 0.038057 0
misc
0  47.499050 -132.490799 15.167758  0.930099 0.299488 -0.212657  0.448256 0.038057 0
0  47.664223 -134.555389 15.319160  0.843392 -0.057579 0.534205  0.448256 0.038057 0
0  48.063370 -134.582916 14.686024  0.995673 0.026158 0.089168  0.447279 0.037080 0
misc
0  18.718845 -144.713104 2.174687  0.018871 -0.314464 -0.949082  0.460952 0.006806 0
0  18.718845 -149.695618 3.840112  0.049653 -0.641642 -0.765395  0.460952 0.010712 0
0  0.000012 -150.397568 3.840114  -0.000536 -0.636842 -0.770994  0.469741 0.010712 0
misc
0  0.000012 -150.397568 3.840114  -0.000536 -0.636842 -0.770994  0.469741 0.010712 0
0  0.000011 -145.126022 2.174688  -0.001923 -0.301561 -0.953445  0.469741 0.006806 0
0  18.718845 -144.713104 2.174687  0.018871 -0.314464 -0.949082  0.460952 0.006806 0
misc
0  40.355618 -134.101166 2.147157  0.625604 0.132048 -0.768884  0.451186 0.005829 0
0  42.447720 -134.293869 3.840111  0.729037 0.103262 -0.676641  0.450209 0.010712 0
0  41.965984 -136.867722 3.840111  0.697440 -0.185167 -0.692308  0.450209 0.010712 0
misc
0  41.965984 -136.867722 3.840111  0.697440 -0.185167 -0.692308  0.450209 0.010712 0
0  39.846352 -136.441040 2.174685  0.574948 -0.173177 -0.799653  0.451186 0.006806 0
0  40.355618 -134.101166 2.147157  0.625604 0.132048 -0.768884  0.451186 0.005829 0
misc
0  39.323326 -132.284348 2.119630  0.604622 0.317261 -0.730601  0.452162 0.005829 0
0  41.566833 -132.490799 3.840111  0.662629 0.340902 -0.666865  0.451186 0.010712 0
0  42.447720 -134.293869 3.840111  0.729037 0.103262 -0.676641  0.450209 0.010712 0
misc
0  42.447720 -134.293869 3.840111  0.729037 0.103262 -0.676641  0.450209 0.010712 0
0  40.355618 -134.101166 2.147157  0.625604 0.132048 -0.768884  0.451186 0.005829 0
0  39.323326 -132.284348 2.119630  0.604622 0.317261 -0.730601  0.452162 0.005829 0
misc
0  18.718845 -149.695618 3.840112  0.049653 -0.641642 -0.765395  0.460952 0.010712 0
0  18.718845 -144.713104 2.174687  0.018871 -0.314464 -0.949082  0.460952 0.006806 0
0  32.014725 -143.598236 2.174686  0.118024 -0.351282 -0.928801  0.455092 0.006806 0
misc
0  32.014725 -143.598236 2.174686  0.118024 -0.351282 -0.928801  0.455092 0.006806 0
0  32.014725 -148.016418 3.840111  0.194750 -0.626742 -0.754497  0.455092 0.010712 0
0  18.718845 -149.695618 3.840112  0.049653 -0.641642 -0.765395  0.460952 0.010712 0
misc
0  32.014725 -143.598236 2.174686  0.118024 -0.351282 -0.928801  0.455092 0.006806 0
0  36.749489 -141.423538 2.174685  0.262506 -0.369931 -0.891202  0.453139 0.006806 0
0  36.749489 -145.525162 3.840111  0.377518 -0.552648 -0.743008  0.453139 0.010712 0
misc
0  36.749489 -145.525162 3.840111  0.377518 -0.552648 -0.743008  0.453139 0.010712 0
0  32.014725 -148.016418 3.840111  0.194750 -0.626742 -0.754497  0.455092 0.010712 0
0  32.014725 -143.598236 2.174686  0.118024 -0.351282 -0.928801  0.455092 0.006806 0
misc
0  39.240742 -143.254135 3.840111  0.538609 -0.443059 -0.716658  0.452162 0.010712 0
0  37.823071 -140.556427 2.174685  0.372545 -0.335678 -0.865176  0.452162 0.006806 0
0  38.525024 -139.606720 2.174685  0.486843 -0.255698 -0.835226  0.452162 0.006806 0
misc
0  38.525024 -139.606720 2.174685  0.486843 -0.255698 -0.835226  0.452162 0.006806 0
0  40.658417 -140.790405 3.840111  0.643559 -0.302473 -0.703094  0.451186 0.010712 0
0  39.240742 -143.254135 3.840111  0.538609 -0.443059 -0.716658  0.452162 0.010712 0
misc
0  39.846352 -136.441040 2.174685  0.574948 -0.173177 -0.799653  0.451186 0.006806 0
0  41.965984 -136.867722 3.840111  0.697440 -0.185167 -0.692308  0.450209 0.010712 0
0  40.658417 -140.790405 3.840111  0.643559 -0.302473 -0.703094  0.451186 0.010712 0
misc
0  40.658417 -140.790405 3.840111  0.643559 -0.302473 -0.703094  0.451186 0.010712 0
0  38.525024 -139.606720 2.174685  0.486843 -0.255698 -0.835226  0.452162 0.006806 0
0  39.846352 -136.441040 2.174685  0.574948 -0.173177 -0.799653  0.451186 0.006806 0
misc
0  36.749489 -141.423538 2.174685  0.262506 -0.369931 -0.891202  0.453139 0.006806 0
0  37.823071 -140.556427 2.174685  0.372545 -0.335678 -0.865176  0.452162 0.006806 0
0  39.240742 -143.254135 3.840111  0.538609 -0.443059 -0.716658  0.452162 0.010712 0
misc
0  39.240742 -143.254135 3.840111  0.538609 -0.443059 -0.716658  0.452162 0.010712 0
0  36.749489 -145.525162 3.840111  0.377518 -0.552648 -0.743008  0.453139 0.010712 0
0  36.749489 -141.423538 2.174685  0.262506 -0.369931 -0.891202  0.453139 0.006806 0
misc
0  0.000011 -145.126022 2.174688  -0.000000 0.945363 0.326021  0.349620 0.034150 0
0  0.000012 -149.791962 15.704551  0.000000 0.945362 0.326021  0.349620 0.034150 0
0  18.718847 -149.379044 15.704550  -0.025876 0.945047 0.325911  0.349620 0.034150 0
misc
0  18.718847 -149.379044 15.704550  -0.025876 0.945047 0.325911  0.349620 0.034150 0
0  18.718845 -144.713104 2.174687  -0.038478 0.940760 0.336884  0.349620 0.034150 0
0  0.000011 -145.126022 2.174688  -0.000000 0.945363 0.326021  0.349620 0.034150 0
misc
0  47.499050 -132.490799 15.167758  -0.871465 -0.067405 0.485804  0.349620 0.034150 0
0  39.323326 -132.284348 2.119630  -0.767302 -0.431798 0.474129  0.349620 0.034150 0
0  40.355618 -134.101166 2.147157  -0.854782 -0.130402 0.502338  0.349620 0.034150 0
misc
0  40.355618 -134.101166 2.147157  -0.854782 -0.130402 0.502338  0.349620 0.034150 0
0  47.664223 -134.555389 15.319160  -0.870193 0.093588 0.483741  0.349620 0.034150 0
0  47.499050 -132.490799 15.167758  -0.871465 -0.067405 0.485804  0.349620 0.034150 0
misc
0  32.014725 -143.598236 2.174686  -0.223110 0.895727 0.384571  0.349620 0.034150 0
0  32.014725 -148.938599 15.690784  -0.124042 0.927176 0.353495  0.349620 0.034150 0
0  36.763252 -147.892548 15.663258  -0.292930 0.874631 0.386280  0.349620 0.034150 0
misc
0  36.763252 -147.892548 15.663258  -0.292930 0.874631 0.386280  0.349620 0.034150 0
0  36.749489 -141.423538 2.174685  -0.471143 0.778533 0.414621  0.349620 0.034150 0
0  32.014725 -143.598236 2.174686  -0.223110 0.895727 0.384571  0.349620 0.034150 0
misc
0  38.525024 -139.606720 2.174685  -0.767463 0.428339 0.476997  0.349620 0.034150 0
0  44.567352 -143.460602 15.319160  -0.693797 0.548528 0.466651  0.349620 0.034150 0
0  46.742046 -138.133987 15.319160  -0.835763 0.275921 0.474730  0.349620 0.034150 0
misc
0  46.742046 -138.133987 15.319160  -0.835763 0.275921 0.474730  0.349620 0.034150 0
0  39.846352 -136.441040 2.174685  -0.836406 0.271027 0.476414  0.349620 0.034150 0
0  38.525024 -139.606720 2.174685  -0.767463 0.428339 0.476997  0.349620 0.034150 0
misc
0  18.718845 -144.713104 2.174687  -0.038478 0.940760 0.336884  0.349620 0.034150 0
0  18.718847 -149.379044 15.704550  -0.025876 0.945047 0.325911  0.349620 0.034150 0
0  32.014725 -148.938599 15.690784  -0.124042 0.927176 0.353495  0.349620 0.034150 0
misc
0  32.014725 -148.938599 15.690784  -0.124042 0.927176 0.353495  0.349620 0.034150 0
0  32.014725 -143.598236 2.174686  -0.223110 0.895727 0.384571  0.349620 0.034150 0
0  18.718845 -144.713104 2.174687  -0.038478 0.940760 0.336884  0.349620 0.034150 0
misc
0  37.823071 -140.556427 2.174685  -0.632019 0.629223 0.452361  0.349620 0.034150 0
0  41.030045 -146.061966 15.621965  -0.441309 0.794090 0.417933  0.349620 0.034150 0
0  44.567352 -143.460602 15.319160  -0.693797 0.548528 0.466651  0.349620 0.034150 0
misc
0  44.567352 -143.460602 15.319160  -0.693797 0.548528 0.466651  0.349620 0.034150 0
0  38.525024 -139.606720 2.174685  -0.767463 0.428339 0.476997  0.349620 0.034150 0
0  37.823071 -140.556427 2.174685  -0.632019 0.629223 0.452361  0.349620 0.034150 0
misc
0  39.846352 -136.441040 2.174685  -0.836406 0.271027 0.476414  0.349620 0.034150 0
0  46.742046 -138.133987 15.319160  -0.835763 0.275921 0.474730  0.349620 0.034150 0
0  47.664223 -134.555389 15.319160  -0.870193 0.093588 0.483741  0.349620 0.034150 0
misc
0  47.664223 -134.555389 15.319160  -0.870193 0.093588 0.483741  0.349620 0.034150 0
0  40.355618 -134.101166 2.147157  -0.854782 -0.130402 0.502338  0.349620 0.034150 0
0  39.846352 -136.441040 2.174685  -0.836406 0.271027 0.476414  0.349620 0.034150 0
misc
0  36.749489 -141.423538 2.174685  -0.471143 0.778533 0.414621  0.349620 0.034150 0
0  36.763252 -147.892548 15.663258  -0.292930 0.874631 0.386280  0.349620 0.034150 0
0  41.030045 -146.061966 15.621965  -0.441309 0.794090 0.417933  0.349620 0.034150 0
misc
0  41.030045 -146.061966 15.621965  -0.441309 0.794090 0.417933  0.349620 0.034150 0
0  37.823071 -140.556427 2.174685  -0.632019 0.629223 0.452361  0.349620 0.034150 0
0  36.749489 -141.423538 2.174685  -0.471143 0.778533 0.414621  0.349620 0.034150 0
misc
0  45.035324 -132.490799 9.318122  0.076430 0.996518 -0.033335  0.449232 0.023408 0
0  41.566833 -132.490799 3.840111  0.165851 0.980576 -0.104711  0.451186 0.010712 0
0  39.323326 -132.284348 2.119630  0.137677 0.987063 -0.082171  0.452162 0.005829 0
misc
0  39.323326 -132.284348 2.119630  0.137677 0.987063 -0.082171  0.452162 0.005829 0
0  47.499050 -132.490799 15.167758  0.072992 0.996864 -0.030579  0.448256 0.038057 0
0  45.035324 -132.490799 9.318122  0.076430 0.996518 -0.033335  0.449232 0.023408 0
misc
0  -33.817764 -152.709900 12.125955  -0.389099 0.403775 0.827990  0.337901 0.444319 0
0  -28.821487 -152.709900 12.125954  0.393050 0.402360 0.826812  0.337901 0.436506 0
0  -29.041710 -151.416107 11.602927  0.334150 0.621214 0.708828  0.333995 0.437483 0
misc
0  -29.041710 -151.416107 11.602927  0.334150 0.621214 0.708828  0.333995 0.437483 0
0  -33.583778 -151.416107 11.602928  -0.328804 0.623021 0.709742  0.333995 0.444319 0
0  -33.817764 -152.709900 12.125955  -0.389099 0.403775 0.827990  0.337901 0.444319 0
misc
0  -33.817764 -152.709900 7.473773  -0.389095 0.403941 -0.827911  0.337901 0.422834 0
0  -33.583778 -151.416107 7.996799  -0.328776 0.623019 -0.709756  0.333995 0.422834 0
0  -29.041710 -151.416107 7.996799  0.334169 0.621205 -0.708827  0.333995 0.430647 0
misc
0  -29.041710 -151.416107 7.996799  0.334169 0.621205 -0.708827  0.333995 0.430647 0
0  -28.821489 -152.709900 7.473773  0.393019 0.402124 -0.826942  0.337901 0.430647 0
0  -33.817764 -152.709900 7.473773  -0.389095 0.403941 -0.827911  0.337901 0.422834 0
misc
0  -34.327026 -152.709900 11.506579  -0.856147 0.434446 0.279766  0.337901 0.415998 0
0  -33.666363 -151.402344 11.506579  -0.682561 0.666843 0.299049  0.333995 0.416974 0
0  -33.666363 -151.402344 8.093146  -0.682571 0.666784 -0.299158  0.333995 0.421857 0
misc
0  -33.666363 -151.402344 8.093146  -0.682571 0.666784 -0.299158  0.333995 0.421857 0
0  -34.327026 -152.709900 8.093146  -0.855883 0.434694 -0.280189  0.337901 0.421857 0
0  -34.327026 -152.709900 11.506579  -0.856147 0.434446 0.279766  0.337901 0.415998 0
misc
0  -28.325985 -152.709900 11.506578  0.861031 0.426477 0.277025  0.337901 0.436506 0
0  -28.325987 -152.709900 8.093145  0.861035 0.426487 -0.277000  0.337901 0.430647 0
0  -28.972889 -151.402344 8.093145  0.688412 0.661972 -0.296449  0.333995 0.430647 0
misc
0  -28.972889 -151.402344 8.093145  0.688412 0.661972 -0.296449  0.333995 0.430647 0
0  -28.972889 -151.402344 11.506578  0.688424 0.661961 0.296445  0.333995 0.436506 0
0  -28.325985 -152.709900 11.506578  0.861031 0.426477 0.277025  0.337901 0.436506 0
misc
0  -29.041710 -151.416107 11.602927  0.334150 0.621214 0.708828  0.333995 0.437483 0
0  -28.821487 -152.709900 12.125954  0.393050 0.402360 0.826812  0.337901 0.436506 0
0  -28.325985 -152.709900 11.506578  0.861031 0.426477 0.277025  0.337901 0.436506 0
misc
0  -28.325985 -152.709900 11.506578  0.861031 0.426477 0.277025  0.337901 0.436506 0
0  -28.972889 -151.402344 11.506578  0.688424 0.661961 0.296445  0.333995 0.436506 0
0  -29.041710 -151.416107 11.602927  0.334150 0.621214 0.708828  0.333995 0.437483 0
misc
0  -33.666363 -151.402344 11.506579  -0.682524 0.666853 0.299112  0.333995 0.445296 0
0  -34.327026 -152.709900 11.506579  -0.856093 0.434443 0.279935  0.337901 0.444319 0
0  -33.817764 -152.709900 12.125955  -0.389099 0.403775 0.827990  0.337901 0.444319 0
misc
0  -33.817764 -152.709900 12.125955  -0.389099 0.403775 0.827990  0.337901 0.444319 0
0  -33.583778 -151.416107 11.602928  -0.328804 0.623021 0.709742  0.333995 0.444319 0
0  -33.666363 -151.402344 11.506579  -0.682524 0.666853 0.299112  0.333995 0.445296 0
misc
0  -28.972889 -151.402344 8.093145  0.688412 0.661972 -0.296449  0.333995 0.430647 0
0  -28.325987 -152.709900 8.093145  0.861035 0.426487 -0.277000  0.337901 0.430647 0
0  -28.821489 -152.709900 7.473773  0.393019 0.402124 -0.826942  0.337901 0.430647 0
misc
0  -28.821489 -152.709900 7.473773  0.393019 0.402124 -0.826942  0.337901 0.430647 0
0  -29.041710 -151.416107 7.996799  0.334169 0.621205 -0.708827  0.333995 0.430647 0
0  -28.972889 -151.402344 8.093145  0.688412 0.661972 -0.296449  0.333995 0.430647 0
misc
0  -33.583778 -151.416107 7.996799  -0.328776 0.623019 -0.709756  0.333995 0.422834 0
0  -33.817764 -152.709900 7.473773  -0.389095 0.403941 -0.827911  0.337901 0.422834 0
0  -34.327026 -152.709900 8.093146  -0.855883 0.434694 -0.280189  0.337901 0.421857 0
misc
0  -34.327026 -152.709900 8.093146  -0.855883 0.434694 -0.280189  0.337901 0.421857 0
0  -33.666363 -151.402344 8.093146  -0.682571 0.666784 -0.299158  0.333995 0.421857 0
0  -33.583778 -151.416107 7.996799  -0.328776 0.623019 -0.709756  0.333995 0.422834 0
misc
0  -28.821489 -152.709900 7.473773  0.388542 -0.540878 -0.745980  0.337901 0.430647 0
0  -28.325987 -152.709900 8.093145  0.789835 -0.536280 -0.297598  0.337901 0.430647 0
0  -28.642557 -153.287979 8.285838  0.805865 -0.533428 -0.256975  0.338878 0.431623 0
misc
0  -28.642557 -153.287979 8.285838  0.805865 -0.533428 -0.256975  0.338878 0.431623 0
0  -29.069237 -153.287979 7.762813  0.320426 -0.532393 -0.783508  0.338878 0.429670 0
0  -28.821489 -152.709900 7.473773  0.388542 -0.540878 -0.745980  0.337901 0.430647 0
misc
0  -29.069237 -153.287979 7.762813  0.320426 -0.532393 -0.783508  0.338878 0.429670 0
0  -33.556252 -153.287979 7.762813  -0.315911 -0.532156 -0.785500  0.338878 0.422834 0
0  -33.817764 -152.709900 7.473773  -0.385172 -0.546180 -0.743861  0.337901 0.422834 0
misc
0  -33.817764 -152.709900 7.473773  -0.385172 -0.546180 -0.743861  0.337901 0.422834 0
0  -28.821489 -152.709900 7.473773  0.388542 -0.540878 -0.745980  0.337901 0.430647 0
0  -29.069237 -153.287979 7.762813  0.320426 -0.532393 -0.783508  0.338878 0.429670 0
misc
0  -33.556252 -153.287979 7.762813  -0.315911 -0.532156 -0.785500  0.338878 0.422834 0
0  -34.010456 -153.287979 8.285839  -0.799055 -0.540275 -0.263845  0.338878 0.421857 0
0  -34.327026 -152.709900 8.093146  -0.781672 -0.546332 -0.300850  0.337901 0.421857 0
misc
0  -34.327026 -152.709900 8.093146  -0.781672 -0.546332 -0.300850  0.337901 0.421857 0
0  -33.817764 -152.709900 7.473773  -0.385172 -0.546180 -0.743861  0.337901 0.422834 0
0  -33.556252 -153.287979 7.762813  -0.315911 -0.532156 -0.785500  0.338878 0.422834 0
misc
0  -34.010456 -153.287979 8.285839  -0.799055 -0.540275 -0.263845  0.338878 0.421857 0
0  -34.010456 -153.287979 11.313887  -0.798950 -0.541820 0.260980  0.338878 0.416974 0
0  -34.327026 -152.709900 11.506579  -0.783711 -0.544122 0.299546  0.337901 0.415998 0
misc
0  -34.327026 -152.709900 11.506579  -0.783711 -0.544122 0.299546  0.337901 0.415998 0
0  -34.327026 -152.709900 8.093146  -0.781672 -0.546332 -0.300850  0.337901 0.421857 0
0  -34.010456 -153.287979 8.285839  -0.799055 -0.540275 -0.263845  0.338878 0.421857 0
misc
0  -34.010456 -153.287979 11.313887  -0.798873 -0.541848 0.261157  0.338878 0.445296 0
0  -33.556252 -153.287979 11.836913  -0.313180 -0.533609 0.785608  0.338878 0.444319 0
0  -33.817764 -152.709900 12.125955  -0.384855 -0.543386 0.746069  0.337901 0.444319 0
misc
0  -33.817764 -152.709900 12.125955  -0.384855 -0.543386 0.746069  0.337901 0.444319 0
0  -34.327026 -152.709900 11.506579  -0.783639 -0.544129 0.299722  0.337901 0.444319 0
0  -34.010456 -153.287979 11.313887  -0.798873 -0.541848 0.261157  0.338878 0.445296 0
misc
0  -33.556252 -153.287979 11.836913  -0.313180 -0.533609 0.785608  0.338878 0.444319 0
0  -29.069235 -153.287979 11.836912  0.323225 -0.530917 0.783360  0.338878 0.437483 0
0  -28.821487 -152.709900 12.125954  0.389406 -0.543112 0.743904  0.337901 0.436506 0
misc
0  -28.821487 -152.709900 12.125954  0.389406 -0.543112 0.743904  0.337901 0.436506 0
0  -33.817764 -152.709900 12.125955  -0.384855 -0.543386 0.746069  0.337901 0.444319 0
0  -33.556252 -153.287979 11.836913  -0.313180 -0.533609 0.785608  0.338878 0.444319 0
misc
0  -29.069235 -153.287979 11.836912  0.323225 -0.530917 0.783360  0.338878 0.437483 0
0  -28.642555 -153.287979 11.313886  0.806004 -0.531897 0.259700  0.338878 0.436506 0
0  -28.325985 -152.709900 11.506578  0.787884 -0.538440 0.298868  0.337901 0.436506 0
misc
0  -28.325985 -152.709900 11.506578  0.787884 -0.538440 0.298868  0.337901 0.436506 0
0  -28.821487 -152.709900 12.125954  0.389406 -0.543112 0.743904  0.337901 0.436506 0
0  -29.069235 -153.287979 11.836912  0.323225 -0.530917 0.783360  0.338878 0.437483 0
misc
0  -28.325987 -152.709900 8.093145  0.789835 -0.536280 -0.297598  0.337901 0.430647 0
0  -28.325985 -152.709900 11.506578  0.787884 -0.538440 0.298868  0.337901 0.436506 0
0  -28.642555 -153.287979 11.313886  0.806004 -0.531897 0.259700  0.338878 0.436506 0
misc
0  -28.642555 -153.287979 11.313886  0.806004 -0.531897 0.259700  0.338878 0.436506 0
0  -28.642557 -153.287979 8.285838  0.805865 -0.533428 -0.256975  0.338878 0.431623 0
0  -28.325987 -152.709900 8.093145  0.789835 -0.536280 -0.297598  0.337901 0.430647 0
misc
0  -29.316984 -151.154587 11.217539  0.233966 0.946350 0.222893  0.388684 0.129856 0
0  -29.316984 -151.154587 8.382186  0.234089 0.946298 -0.222984  0.388684 0.115207 0
0  -33.308506 -151.154587 8.382187  -0.229004 0.947403 -0.223574  0.376965 0.115207 0
misc
0  -33.308506 -151.154587 8.382187  -0.229004 0.947403 -0.223574  0.376965 0.115207 0
0  -33.308506 -151.154587 11.217540  -0.228886 0.947444 0.223518  0.376965 0.129856 0
0  -29.316984 -151.154587 11.217539  0.233966 0.946350 0.222893  0.388684 0.129856 0
misc
0  -33.308506 -151.154587 11.217540  -0.228929 0.947407 0.223631  0.411145 0.115207 0
0  -33.583778 -151.416107 11.602928  -0.328763 0.623253 0.709557  0.411145 0.114231 0
0  -29.041710 -151.416107 11.602927  0.334100 0.621436 0.708657  0.399426 0.114231 0
misc
0  -29.041710 -151.416107 11.602927  0.334100 0.621436 0.708657  0.399426 0.114231 0
0  -29.316984 -151.154587 11.217539  0.234085 0.946309 0.222942  0.398450 0.115207 0
0  -33.308506 -151.154587 11.217540  -0.228929 0.947407 0.223631  0.411145 0.115207 0
misc
0  -28.972889 -151.402344 8.093145  0.688304 0.662120 -0.296369  0.389660 0.114231 0
0  -29.316984 -151.154587 8.382186  0.234089 0.946298 -0.222984  0.388684 0.115207 0
0  -29.316984 -151.154587 11.217539  0.234085 0.946309 0.222942  0.398450 0.115207 0
misc
0  -29.316984 -151.154587 11.217539  0.234085 0.946309 0.222942  0.398450 0.115207 0
0  -28.972889 -151.402344 11.506578  0.688320 0.662120 0.296332  0.398450 0.114231 0
0  -28.972889 -151.402344 8.093145  0.688304 0.662120 -0.296369  0.389660 0.114231 0
misc
0  -33.583778 -151.416107 7.996799  -0.328747 0.623256 -0.709562  0.376965 0.114231 0
0  -33.308506 -151.154587 8.382187  -0.229004 0.947403 -0.223574  0.376965 0.115207 0
0  -29.316984 -151.154587 8.382186  0.234089 0.946298 -0.222984  0.388684 0.115207 0
misc
0  -29.316984 -151.154587 8.382186  0.234089 0.946298 -0.222984  0.388684 0.115207 0
0  -29.041710 -151.416107 7.996799  0.334093 0.621368 -0.708720  0.388684 0.114231 0
0  -33.583778 -151.416107 7.996799  -0.328747 0.623256 -0.709562  0.376965 0.114231 0
misc
0  -33.308506 -151.154587 8.382187  -0.229004 0.947403 -0.223574  0.376965 0.115207 0
0  -33.666363 -151.402344 8.093146  -0.682462 0.666970 -0.298993  0.375988 0.114231 0
0  -33.666363 -151.402344 11.506579  -0.682504 0.666907 0.299037  0.367199 0.114231 0
misc
0  -33.666363 -151.402344 11.506579  -0.682504 0.666907 0.299037  0.367199 0.114231 0
0  -33.308506 -151.154587 11.217540  -0.229021 0.947401 0.223565  0.366222 0.115207 0
0  -33.308506 -151.154587 8.382187  -0.229004 0.947403 -0.223574  0.376965 0.115207 0
misc
0  -29.041710 -151.416107 11.602927  0.334100 0.621436 0.708657  0.399426 0.114231 0
0  -28.972889 -151.402344 11.506578  0.688320 0.662120 0.296332  0.398450 0.114231 0
0  -29.316984 -151.154587 11.217539  0.234085 0.946309 0.222942  0.398450 0.115207 0
misc
0  -28.972889 -151.402344 8.093145  0.688304 0.662120 -0.296369  0.389660 0.114231 0
0  -29.041710 -151.416107 7.996799  0.334093 0.621368 -0.708720  0.388684 0.114231 0
0  -29.316984 -151.154587 8.382186  0.234089 0.946298 -0.222984  0.388684 0.115207 0
misc
0  -33.666363 -151.402344 11.506579  -0.682530 0.666924 0.298941  0.412122 0.114231 0
0  -33.583778 -151.416107 11.602928  -0.328763 0.623253 0.709557  0.411145 0.114231 0
0  -33.308506 -151.154587 11.217540  -0.228929 0.947407 0.223631  0.411145 0.115207 0
misc
0  -33.583778 -151.416107 7.996799  -0.328747 0.623256 -0.709562  0.376965 0.114231 0
0  -33.666363 -151.402344 8.093146  -0.682462 0.666970 -0.298993  0.375988 0.114231 0
0  -33.308506 -151.154587 8.382187  -0.229004 0.947403 -0.223574  0.376965 0.115207 0
misc
0  -34.010456 -153.287979 11.313887  0.000000 -1.000000 0.000000  0.113285 0.352519 0
0  -34.010456 -153.287979 8.285839  0.000000 -1.000000 0.000000  0.113285 0.295877 0
0  -33.556252 -153.287979 7.762813  0.000000 -1.000000 0.000000  0.102542 0.286111 0
misc
0  -33.556252 -153.287979 7.762813  0.000000 -1.000000 0.000000  0.102542 0.286111 0
0  -33.556252 -153.287979 11.836913  0.000000 -1.000000 0.000000  0.102542 0.362285 0
0  -34.010456 -153.287979 11.313887  0.000000 -1.000000 0.000000  0.113285 0.352519 0
misc
0  -28.642557 -153.287979 8.285838  0.000000 -1.000000 0.000000  0.007813 0.295877 0
0  -28.642555 -153.287979 11.313886  0.000000 -1.000000 0.000000  0.007813 0.352519 0
0  -29.069235 -153.287979 11.836912  0.000000 -1.000000 0.000000  0.017579 0.362285 0
misc
0  -29.069235 -153.287979 11.836912  0.000000 -1.000000 0.000000  0.017579 0.362285 0
0  -29.069237 -153.287979 7.762813  0.000000 -1.000000 0.000000  0.017579 0.286111 0
0  -28.642557 -153.287979 8.285838  0.000000 -1.000000 0.000000  0.007813 0.295877 0
misc
0  -33.556252 -153.287979 11.836913  0.000000 -1.000000 0.000000  0.102542 0.362285 0
0  -33.556252 -153.287979 7.762813  0.000000 -1.000000 0.000000  0.102542 0.286111 0
0  -29.069237 -153.287979 7.762813  0.000000 -1.000000 0.000000  0.017579 0.286111 0
misc
0  -29.069237 -153.287979 7.762813  0.000000 -1.000000 0.000000  0.017579 0.286111 0
0  -29.069235 -153.287979 11.836912  0.000000 -1.000000 0.000000  0.017579 0.362285 0
0  -33.556252 -153.287979 11.836913  0.000000 -1.000000 0.000000  0.102542 0.362285 0
misc
0  33.817787 -152.709900 12.125949  0.389035 0.403768 0.828023  0.337901 0.444319 0
0  33.583801 -151.416107 11.602922  0.328735 0.623022 0.709772  0.333995 0.444319 0
0  29.041733 -151.416107 11.602923  -0.334207 0.621221 0.708795  0.333995 0.437483 0
misc
0  29.041733 -151.416107 11.602923  -0.334207 0.621221 0.708795  0.333995 0.437483 0
0  28.821514 -152.709900 12.125950  -0.393074 0.402246 0.826856  0.337901 0.436506 0
0  33.817787 -152.709900 12.125949  0.389035 0.403768 0.828023  0.337901 0.444319 0
misc
0  33.817787 -152.709900 7.473768  0.389056 0.403890 -0.827954  0.337901 0.422834 0
0  28.821512 -152.709900 7.473768  -0.393025 0.401972 -0.827013  0.337901 0.430647 0
0  29.041733 -151.416107 7.996794  -0.334206 0.621205 -0.708810  0.333995 0.430647 0
misc
0  29.041733 -151.416107 7.996794  -0.334206 0.621205 -0.708810  0.333995 0.430647 0
0  33.583801 -151.416107 7.996794  0.328726 0.623015 -0.709782  0.333995 0.422834 0
0  33.817787 -152.709900 7.473768  0.389056 0.403890 -0.827954  0.337901 0.422834 0
misc
0  34.327049 -152.709900 11.506574  0.856129 0.434482 0.279766  0.337901 0.415998 0
0  34.327049 -152.709900 8.093141  0.856034 0.434543 -0.279960  0.337901 0.421857 0
0  33.666386 -151.402344 8.093141  0.682516 0.666827 -0.299189  0.333995 0.421857 0
misc
0  33.666386 -151.402344 8.093141  0.682516 0.666827 -0.299189  0.333995 0.421857 0
0  33.666386 -151.402344 11.506574  0.682530 0.666861 0.299081  0.333995 0.416974 0
0  34.327049 -152.709900 11.506574  0.856129 0.434482 0.279766  0.337901 0.415998 0
misc
0  28.326012 -152.709900 11.506575  -0.861013 0.426478 0.277079  0.337901 0.436506 0
0  28.972912 -151.402344 11.506575  -0.688470 0.661920 0.296430  0.333995 0.436506 0
0  28.972912 -151.402344 8.093142  -0.688461 0.661933 -0.296421  0.333995 0.430647 0
misc
0  28.972912 -151.402344 8.093142  -0.688461 0.661933 -0.296421  0.333995 0.430647 0
0  28.326010 -152.709900 8.093142  -0.861000 0.426490 -0.277103  0.337901 0.430647 0
0  28.326012 -152.709900 11.506575  -0.861013 0.426478 0.277079  0.337901 0.436506 0
misc
0  29.041733 -151.416107 11.602923  -0.334207 0.621221 0.708795  0.333995 0.437483 0
0  28.972912 -151.402344 11.506575  -0.688470 0.661920 0.296430  0.333995 0.436506 0
0  28.326012 -152.709900 11.506575  -0.861013 0.426478 0.277079  0.337901 0.436506 0
misc
0  28.326012 -152.709900 11.506575  -0.861013 0.426478 0.277079  0.337901 0.436506 0
0  28.821514 -152.709900 12.125950  -0.393074 0.402246 0.826856  0.337901 0.436506 0
0  29.041733 -151.416107 11.602923  -0.334207 0.621221 0.708795  0.333995 0.437483 0
misc
0  33.666386 -151.402344 11.506574  0.682447 0.666908 0.299167  0.333995 0.445296 0
0  33.583801 -151.416107 11.602922  0.328735 0.623022 0.709772  0.333995 0.444319 0
0  33.817787 -152.709900 12.125949  0.389035 0.403768 0.828023  0.337901 0.444319 0
misc
0  33.817787 -152.709900 12.125949  0.389035 0.403768 0.828023  0.337901 0.444319 0
0  34.327049 -152.709900 11.506574  0.856075 0.434480 0.279935  0.337901 0.444319 0
0  33.666386 -151.402344 11.506574  0.682447 0.666908 0.299167  0.333995 0.445296 0
misc
0  28.972912 -151.402344 8.093142  -0.688461 0.661933 -0.296421  0.333995 0.430647 0
0  29.041733 -151.416107 7.996794  -0.334206 0.621205 -0.708810  0.333995 0.430647 0
0  28.821512 -152.709900 7.473768  -0.393025 0.401972 -0.827013  0.337901 0.430647 0
misc
0  28.821512 -152.709900 7.473768  -0.393025 0.401972 -0.827013  0.337901 0.430647 0
0  28.326010 -152.709900 8.093142  -0.861000 0.426490 -0.277103  0.337901 0.430647 0
0  28.972912 -151.402344 8.093142  -0.688461 0.661933 -0.296421  0.333995 0.430647 0
misc
0  33.583801 -151.416107 7.996794  0.328726 0.623015 -0.709782  0.333995 0.422834 0
0  33.666386 -151.402344 8.093141  0.682516 0.666827 -0.299189  0.333995 0.421857 0
0  34.327049 -152.709900 8.093141  0.856034 0.434543 -0.279960  0.337901 0.421857 0
misc
0  34.327049 -152.709900 8.093141  0.856034 0.434543 -0.279960  0.337901 0.421857 0
0  33.817787 -152.709900 7.473768  0.389056 0.403890 -0.827954  0.337901 0.422834 0
0  33.583801 -151.416107 7.996794  0.328726 0.623015 -0.709782  0.333995 0.422834 0
misc
0  28.326010 -152.709900 8.093142  -0.787820 -0.538516 -0.298899  0.337901 0.430647 0
0  28.821512 -152.709900 7.473768  -0.389426 -0.543185 -0.743840  0.337901 0.430647 0
0  29.069260 -153.287979 7.762808  -0.323193 -0.530928 -0.783366  0.338878 0.429670 0
misc
0  29.069260 -153.287979 7.762808  -0.323193 -0.530928 -0.783366  0.338878 0.429670 0
0  28.642580 -153.287979 8.285834  -0.806012 -0.531895 -0.259676  0.338878 0.431623 0
0  28.326010 -152.709900 8.093142  -0.787820 -0.538516 -0.298899  0.337901 0.430647 0
misc
0  29.069260 -153.287979 7.762808  -0.323193 -0.530928 -0.783366  0.338878 0.429670 0
0  28.821512 -152.709900 7.473768  -0.389426 -0.543185 -0.743840  0.337901 0.430647 0
0  33.817787 -152.709900 7.473768  0.385174 -0.546187 -0.743856  0.337901 0.422834 0
misc
0  33.817787 -152.709900 7.473768  0.385174 -0.546187 -0.743856  0.337901 0.422834 0
0  33.556274 -153.287979 7.762808  0.315910 -0.532160 -0.785497  0.338878 0.422834 0
0  29.069260 -153.287979 7.762808  -0.323193 -0.530928 -0.783366  0.338878 0.429670 0
misc
0  33.556274 -153.287979 7.762808  0.315910 -0.532160 -0.785497  0.338878 0.422834 0
0  33.817787 -152.709900 7.473768  0.385174 -0.546187 -0.743856  0.337901 0.422834 0
0  34.327049 -152.709900 8.093141  0.781672 -0.546334 -0.300846  0.337901 0.421857 0
misc
0  34.327049 -152.709900 8.093141  0.781672 -0.546334 -0.300846  0.337901 0.421857 0
0  34.010479 -153.287979 8.285833  0.799054 -0.540277 -0.263845  0.338878 0.421857 0
0  33.556274 -153.287979 7.762808  0.315910 -0.532160 -0.785497  0.338878 0.422834 0
misc
0  34.010479 -153.287979 8.285833  0.799054 -0.540277 -0.263845  0.338878 0.421857 0
0  34.327049 -152.709900 8.093141  0.781672 -0.546334 -0.300846  0.337901 0.421857 0
0  34.327049 -152.709900 11.506574  0.783718 -0.544110 0.299550  0.337901 0.415998 0
misc
0  34.327049 -152.709900 11.506574  0.783718 -0.544110 0.299550  0.337901 0.415998 0
0  34.010479 -153.287979 11.313881  0.798950 -0.541822 0.260976  0.338878 0.416974 0
0  34.010479 -153.287979 8.285833  0.799054 -0.540277 -0.263845  0.338878 0.421857 0
misc
0  34.010479 -153.287979 11.313881  0.798868 -0.541860 0.261146  0.338878 0.445296 0
0  34.327049 -152.709900 11.506574  0.783632 -0.544148 0.299705  0.337901 0.444319 0
0  33.817787 -152.709900 12.125949  0.384857 -0.543388 0.746066  0.337901 0.444319 0
misc
0  33.817787 -152.709900 12.125949  0.384857 -0.543388 0.746066  0.337901 0.444319 0
0  33.556274 -153.287979 11.836907  0.313179 -0.533612 0.785606  0.338878 0.444319 0
0  34.010479 -153.287979 11.313881  0.798868 -0.541860 0.261146  0.338878 0.445296 0
misc
0  33.556274 -153.287979 11.836907  0.313179 -0.533612 0.785606  0.338878 0.444319 0
0  33.817787 -152.709900 12.125949  0.384857 -0.543388 0.746066  0.337901 0.444319 0
0  28.821514 -152.709900 12.125950  -0.389419 -0.543196 0.743835  0.337901 0.436506 0
misc
0  28.821514 -152.709900 12.125950  -0.389419 -0.543196 0.743835  0.337901 0.436506 0
0  29.069262 -153.287979 11.836908  -0.323175 -0.530940 0.783365  0.338878 0.437483 0
0  33.556274 -153.287979 11.836907  0.313179 -0.533612 0.785606  0.338878 0.444319 0
misc
0  29.069262 -153.287979 11.836908  -0.323175 -0.530940 0.783365  0.338878 0.437483 0
0  28.821514 -152.709900 12.125950  -0.389419 -0.543196 0.743835  0.337901 0.436506 0
0  28.326012 -152.709900 11.506575  -0.787821 -0.538514 0.298900  0.337901 0.436506 0
misc
0  28.326012 -152.709900 11.506575  -0.787821 -0.538514 0.298900  0.337901 0.436506 0
0  28.642582 -153.287979 11.313882  -0.806021 -0.531854 0.259736  0.338878 0.436506 0
0  29.069262 -153.287979 11.836908  -0.323175 -0.530940 0.783365  0.338878 0.437483 0
misc
0  28.642582 -153.287979 11.313882  -0.806021 -0.531854 0.259736  0.338878 0.436506 0
0  28.326012 -152.709900 11.506575  -0.787821 -0.538514 0.298900  0.337901 0.436506 0
0  28.326010 -152.709900 8.093142  -0.787820 -0.538516 -0.298899  0.337901 0.430647 0
misc
0  28.326010 -152.709900 8.093142  -0.787820 -0.538516 -0.298899  0.337901 0.430647 0
0  28.642580 -153.287979 8.285834  -0.806012 -0.531895 -0.259676  0.338878 0.431623 0
0  28.642582 -153.287979 11.313882  -0.806021 -0.531854 0.259736  0.338878 0.436506 0
misc
0  29.317007 -151.154587 11.217535  -0.234031 0.946335 0.222891  0.388684 0.129856 0
0  33.308529 -151.154587 11.217534  0.228886 0.947444 0.223518  0.376965 0.129856 0
0  33.308529 -151.154587 8.382181  0.228933 0.947423 -0.223559  0.376965 0.115207 0
misc
0  33.308529 -151.154587 8.382181  0.228933 0.947423 -0.223559  0.376965 0.115207 0
0  29.317007 -151.154587 8.382182  -0.234100 0.946303 -0.222954  0.388684 0.115207 0
0  29.317007 -151.154587 11.217535  -0.234031 0.946335 0.222891  0.388684 0.129856 0
misc
0  33.308529 -151.154587 11.217534  0.228881 0.947415 0.223648  0.411145 0.115207 0
0  29.317007 -151.154587 11.217535  -0.234127 0.946292 0.222971  0.398450 0.115207 0
0  29.041733 -151.416107 11.602923  -0.334171 0.621399 0.708655  0.399426 0.114231 0
misc
0  29.041733 -151.416107 11.602923  -0.334171 0.621399 0.708655  0.399426 0.114231 0
0  33.583801 -151.416107 11.602922  0.328671 0.623249 0.709603  0.411145 0.114231 0
0  33.308529 -151.154587 11.217534  0.228881 0.947415 0.223648  0.411145 0.115207 0
misc
0  28.972912 -151.402344 8.093142  -0.688344 0.662095 -0.296334  0.389660 0.114231 0
0  28.972912 -151.402344 11.506575  -0.688346 0.662074 0.296376  0.398450 0.114231 0
0  29.317007 -151.154587 11.217535  -0.234127 0.946292 0.222971  0.398450 0.115207 0
misc
0  29.317007 -151.154587 11.217535  -0.234127 0.946292 0.222971  0.398450 0.115207 0
0  29.317007 -151.154587 8.382182  -0.234100 0.946303 -0.222954  0.388684 0.115207 0
0  28.972912 -151.402344 8.093142  -0.688344 0.662095 -0.296334  0.389660 0.114231 0
misc
0  33.583801 -151.416107 7.996794  0.328725 0.623252 -0.709575  0.376965 0.114231 0
0  29.041733 -151.416107 7.996794  -0.334143 0.621422 -0.708649  0.388684 0.114231 0
0  29.317007 -151.154587 8.382182  -0.234100 0.946303 -0.222954  0.388684 0.115207 0
misc
0  29.317007 -151.154587 8.382182  -0.234100 0.946303 -0.222954  0.388684 0.115207 0
0  33.308529 -151.154587 8.382181  0.228933 0.947423 -0.223559  0.376965 0.115207 0
0  33.583801 -151.416107 7.996794  0.328725 0.623252 -0.709575  0.376965 0.114231 0
misc
0  33.308529 -151.154587 8.382181  0.228933 0.947423 -0.223559  0.376965 0.115207 0
0  33.308529 -151.154587 11.217534  0.229007 0.947415 0.223519  0.366222 0.115207 0
0  33.666386 -151.402344 11.506574  0.682460 0.666956 0.299028  0.367199 0.114231 0
misc
0  33.666386 -151.402344 11.506574  0.682460 0.666956 0.299028  0.367199 0.114231 0
0  33.666386 -151.402344 8.093141  0.682432 0.667003 -0.298987  0.375988 0.114231 0
0  33.308529 -151.154587 8.382181  0.228933 0.947423 -0.223559  0.376965 0.115207 0
misc
0  28.972912 -151.402344 11.506575  -0.688346 0.662074 0.296376  0.398450 0.114231 0
0  29.041733 -151.416107 11.602923  -0.334171 0.621399 0.708655  0.399426 0.114231 0
0  29.317007 -151.154587 11.217535  -0.234127 0.946292 0.222971  0.398450 0.115207 0
misc
0  29.041733 -151.416107 7.996794  -0.334143 0.621422 -0.708649  0.388684 0.114231 0
0  28.972912 -151.402344 8.093142  -0.688344 0.662095 -0.296334  0.389660 0.114231 0
0  29.317007 -151.154587 8.382182  -0.234100 0.946303 -0.222954  0.388684 0.115207 0
misc
0  33.583801 -151.416107 11.602922  0.328671 0.623249 0.709603  0.411145 0.114231 0
0  33.666386 -151.402344 11.506574  0.682495 0.666974 0.298907  0.412122 0.114231 0
0  33.308529 -151.154587 11.217534  0.228881 0.947415 0.223648  0.411145 0.115207 0
misc
0  33.666386 -151.402344 8.093141  0.682432 0.667003 -0.298987  0.375988 0.114231 0
0  33.583801 -151.416107 7.996794  0.328725 0.623252 -0.709575  0.376965 0.114231 0
0  33.308529 -151.154587 8.382181  0.228933 0.947423 -0.223559  0.376965 0.115207 0
misc
0  34.010479 -153.287979 11.313881  0.000000 -1.000000 0.000000  0.113285 0.352519 0
0  33.556274 -153.287979 11.836907  0.000000 -1.000000 0.000000  0.102542 0.362285 0
0  33.556274 -153.287979 7.762808  0.000000 -1.000000 0.000000  0.102542 0.286111 0
misc
0  33.556274 -153.287979 7.762808  0.000000 -1.000000 0.000000  0.102542 0.286111 0
0  34.010479 -153.287979 8.285833  0.000000 -1.000000 0.000000  0.113285 0.295877 0
0  34.010479 -153.287979 11.313881  0.000000 -1.000000 0.000000  0.113285 0.352519 0
misc
0  29.069262 -153.287979 11.836908  0.000000 -1.000000 0.000003  0.017579 0.362285 0
0  28.642582 -153.287979 11.313882  0.000000 -1.000000 0.000008  0.007813 0.352519 0
0  28.642580 -153.287979 8.285834  0.000000 -1.000000 -0.000005  0.007813 0.295877 0
misc
0  28.642580 -153.287979 8.285834  0.000000 -1.000000 -0.000005  0.007813 0.295877 0
0  29.069260 -153.287979 7.762808  0.000000 -1.000000 -0.000001  0.017579 0.286111 0
0  29.069262 -153.287979 11.836908  0.000000 -1.000000 0.000003  0.017579 0.362285 0
misc
0  33.556274 -153.287979 11.836907  0.000000 -1.000000 0.000000  0.102542 0.362285 0
0  29.069262 -153.287979 11.836908  0.000000 -1.000000 0.000003  0.017579 0.362285 0
0  29.069260 -153.287979 7.762808  0.000000 -1.000000 -0.000001  0.017579 0.286111 0
misc
0  29.069260 -153.287979 7.762808  0.000000 -1.000000 -0.000001  0.017579 0.286111 0
0  33.556274 -153.287979 7.762808  0.000000 -1.000000 0.000000  0.102542 0.286111 0
0  33.556274 -153.287979 11.836907  0.000000 -1.000000 0.000000  0.102542 0.362285 0
end
