version 1
nodes
0 "root" -1
end
skeleton
time 0
0  0.000000 0.000000 0.000000  0.000000 -0.000000 0.000000
end
triangles
misc
0  40.025284 -142.373245 26.701862  0.246834 -0.825086 0.508238  0.153325 0.471664 1 0 1.000000
0  32.386349 -142.373245 26.894560  -0.157141 -0.834047 0.528840  0.018555 0.471664 1 0 1.000000
0  32.496456 -142.387009 21.044922  -0.173379 -0.822790 -0.541255  0.020508 0.374981 1 0 1.000000
misc
0  32.496456 -142.387009 21.044922  -0.173379 -0.822790 -0.541255  0.020508 0.374981 1 0 1.000000
0  40.988750 -142.373245 21.031157  0.266667 -0.817640 -0.510249  0.166021 0.377911 1 0 1.000000
0  40.025284 -142.373245 26.701862  0.246834 -0.825086 0.508238  0.153325 0.471664 1 0 1.000000
misc
0  41.043808 -141.919037 25.820976  0.740819 -0.596363 0.309093  0.171880 0.461898 1 0 1.000000
0  40.741001 -142.373245 25.669573  0.465722 -0.865546 0.184212  0.166021 0.458968 1 0 1.000000
0  41.305321 -142.373245 22.077209  0.473287 -0.880784 -0.014766  0.176763 0.389630 1 0 1.000000
misc
0  41.305321 -142.373245 22.077209  0.473287 -0.880784 -0.014766  0.176763 0.389630 1 0 1.000000
0  41.690712 -141.919037 21.912045  0.761444 -0.643711 -0.076412  0.184576 0.386700 1 0 1.000000
0  41.043808 -141.919037 25.820976  0.740819 -0.596363 0.309093  0.171880 0.461898 1 0 1.000000
misc
0  41.690712 -141.919037 21.912045  0.761444 -0.643711 -0.076412  0.184576 0.386700 1 0 1.000000
0  41.305321 -142.373245 22.077209  0.473287 -0.880784 -0.014766  0.176763 0.389630 1 0 1.000000
0  40.988750 -142.373245 21.031157  0.266667 -0.817640 -0.510249  0.166021 0.377911 1 0 1.000000
misc
0  40.988750 -142.373245 21.031157  0.266667 -0.817640 -0.510249  0.166021 0.377911 1 0 1.000000
0  41.319084 -141.919037 20.824697  0.502053 -0.623894 -0.598915  0.170904 0.372051 1 0 1.000000
0  41.690712 -141.919037 21.912045  0.761444 -0.643711 -0.076412  0.184576 0.386700 1 0 1.000000
misc
0  32.276234 -141.919037 20.824699  -0.330080 -0.545904 -0.770088  0.015625 0.371075 1 0 1.000000
0  41.319084 -141.919037 20.824697  0.502053 -0.623894 -0.598915  0.170904 0.372051 1 0 1.000000
0  40.988750 -142.373245 21.031157  0.266667 -0.817640 -0.510249  0.166021 0.377911 1 0 1.000000
misc
0  40.988750 -142.373245 21.031157  0.266667 -0.817640 -0.510249  0.166021 0.377911 1 0 1.000000
0  32.496456 -142.387009 21.044922  -0.173379 -0.822790 -0.541255  0.020508 0.374981 1 0 1.000000
0  32.276234 -141.919037 20.824699  -0.330080 -0.545904 -0.770088  0.015625 0.371075 1 0 1.000000
misc
0  32.276234 -141.919037 20.824699  -0.330080 -0.545904 -0.770088  0.015625 0.371075 1 0 1.000000
0  32.496456 -142.387009 21.044922  -0.173379 -0.822790 -0.541255  0.020508 0.374981 1 0 1.000000
0  31.945902 -142.387009 21.540421  -0.493393 -0.846007 -0.202078  0.007813 0.386700 1 0 1.000000
misc
0  31.945902 -142.387009 21.540421  -0.493393 -0.846007 -0.202078  0.007813 0.386700 1 0 1.000000
0  31.656864 -141.919037 21.333963  -0.707744 -0.610590 -0.355357  0.001953 0.382794 1 0 1.000000
0  32.276234 -141.919037 20.824699  -0.330080 -0.545904 -0.770088  0.015625 0.371075 1 0 1.000000
misc
0  31.656864 -141.919037 21.333963  -0.707744 -0.610590 -0.355357  0.001953 0.382794 1 0 1.000000
0  31.945902 -142.387009 21.540421  -0.493393 -0.846007 -0.202078  0.007813 0.386700 1 0 1.000000
0  31.945904 -142.387009 26.495407  -0.493042 -0.847949 0.194660  0.007813 0.458968 1 0 1.000000
misc
0  31.945904 -142.387009 26.495407  -0.493042 -0.847949 0.194660  0.007813 0.458968 1 0 1.000000
0  31.656866 -141.919037 26.701864  -0.709914 -0.613102 0.346595  0.001953 0.462874 1 0 1.000000
0  31.656864 -141.919037 21.333963  -0.707744 -0.610590 -0.355357  0.001953 0.382794 1 0 1.000000
misc
0  31.945904 -142.387009 26.495407  -0.493042 -0.847949 0.194660  0.007813 0.458968 1 0 1.000000
0  32.386349 -142.373245 26.894560  -0.157141 -0.834047 0.528840  0.018555 0.471664 1 0 1.000000
0  32.152363 -141.919037 27.142307  -0.316145 -0.576335 0.753586  0.013672 0.476547 1 0 1.000000
misc
0  32.152363 -141.919037 27.142307  -0.316145 -0.576335 0.753586  0.013672 0.476547 1 0 1.000000
0  31.656866 -141.919037 26.701864  -0.709914 -0.613102 0.346595  0.001953 0.462874 1 0 1.000000
0  31.945904 -142.387009 26.495407  -0.493042 -0.847949 0.194660  0.007813 0.458968 1 0 1.000000
misc
0  32.386349 -142.373245 26.894560  -0.157141 -0.834047 0.528840  0.018555 0.471664 1 0 1.000000
0  40.025284 -142.373245 26.701862  0.246834 -0.825086 0.508238  0.153325 0.471664 1 0 1.000000
0  40.231739 -141.919037 26.949612  0.410813 -0.570781 0.710944  0.158208 0.478500 1 0 1.000000
misc
0  40.231739 -141.919037 26.949612  0.410813 -0.570781 0.710944  0.158208 0.478500 1 0 1.000000
0  32.152363 -141.919037 27.142307  -0.316145 -0.576335 0.753586  0.013672 0.476547 1 0 1.000000
0  32.386349 -142.373245 26.894560  -0.157141 -0.834047 0.528840  0.018555 0.471664 1 0 1.000000
misc
0  40.231739 -141.919037 26.949612  0.410813 -0.570781 0.710944  0.158208 0.478500 1 0 1.000000
0  40.025284 -142.373245 26.701862  0.246834 -0.825086 0.508238  0.153325 0.471664 1 0 1.000000
0  40.741001 -142.373245 25.669573  0.465722 -0.865546 0.184212  0.166021 0.458968 1 0 1.000000
misc
0  40.741001 -142.373245 25.669573  0.465722 -0.865546 0.184212  0.166021 0.458968 1 0 1.000000
0  41.043808 -141.919037 25.820976  0.740819 -0.596363 0.309093  0.171880 0.461898 1 0 1.000000
0  40.231739 -141.919037 26.949612  0.410813 -0.570781 0.710944  0.158208 0.478500 1 0 1.000000
misc
0  31.945902 -142.387009 21.540421  -0.493393 -0.846007 -0.202078  0.007813 0.386700 1 0 1.000000
0  32.496456 -142.387009 21.044922  -0.173379 -0.822790 -0.541255  0.020508 0.374981 1 0 1.000000
0  32.386349 -142.373245 26.894560  -0.157141 -0.834047 0.528840  0.018555 0.471664 1 0 1.000000
misc
0  32.386349 -142.373245 26.894560  -0.157141 -0.834047 0.528840  0.018555 0.471664 1 0 1.000000
0  31.945904 -142.387009 26.495407  -0.493042 -0.847949 0.194660  0.007813 0.458968 1 0 1.000000
0  31.945902 -142.387009 21.540421  -0.493393 -0.846007 -0.202078  0.007813 0.386700 1 0 1.000000
misc
0  41.305321 -142.373245 22.077209  0.473287 -0.880784 -0.014766  0.176763 0.389630 1 0 1.000000
0  40.741001 -142.373245 25.669573  0.465722 -0.865546 0.184212  0.166021 0.458968 1 0 1.000000
0  40.025284 -142.373245 26.701862  0.246834 -0.825086 0.508238  0.153325 0.471664 1 0 1.000000
misc
0  40.025284 -142.373245 26.701862  0.246834 -0.825086 0.508238  0.153325 0.471664 1 0 1.000000
0  40.988750 -142.373245 21.031157  0.266667 -0.817640 -0.510249  0.166021 0.377911 1 0 1.000000
0  41.305321 -142.373245 22.077209  0.473287 -0.880784 -0.014766  0.176763 0.389630 1 0 1.000000
misc
0  -40.025257 -142.373230 26.701866  -0.246832 -0.825073 0.508259  0.153325 0.471664 1 0 1.000000
0  -40.988728 -142.373230 21.031164  -0.266669 -0.817644 -0.510242  0.166021 0.377911 1 0 1.000000
0  -32.496433 -142.386993 21.044926  0.173367 -0.822764 -0.541298  0.020508 0.374981 1 0 1.000000
misc
0  -32.496433 -142.386993 21.044926  0.173367 -0.822764 -0.541298  0.020508 0.374981 1 0 1.000000
0  -32.386322 -142.373230 26.894562  0.157144 -0.834055 0.528827  0.018555 0.471664 1 0 1.000000
0  -40.025257 -142.373230 26.701866  -0.246832 -0.825073 0.508259  0.153325 0.471664 1 0 1.000000
misc
0  -41.043781 -141.919022 25.820980  -0.740943 -0.596211 0.309088  0.171880 0.461898 1 0 1.000000
0  -41.690685 -141.919022 21.912050  -0.761444 -0.643710 -0.076420  0.184576 0.386700 1 0 1.000000
0  -41.305294 -142.373230 22.077215  -0.473287 -0.880784 -0.014779  0.176763 0.389630 1 0 1.000000
misc
0  -41.305294 -142.373230 22.077215  -0.473287 -0.880784 -0.014779  0.176763 0.389630 1 0 1.000000
0  -40.740974 -142.373230 25.669577  -0.465673 -0.865567 0.184234  0.166021 0.458968 1 0 1.000000
0  -41.043781 -141.919022 25.820980  -0.740943 -0.596211 0.309088  0.171880 0.461898 1 0 1.000000
misc
0  -41.690685 -141.919022 21.912050  -0.761444 -0.643710 -0.076420  0.184576 0.386700 1 0 1.000000
0  -41.319057 -141.919022 20.824703  -0.502056 -0.623902 -0.598905  0.170904 0.372051 1 0 1.000000
0  -40.988728 -142.373230 21.031164  -0.266669 -0.817644 -0.510242  0.166021 0.377911 1 0 1.000000
misc
0  -40.988728 -142.373230 21.031164  -0.266669 -0.817644 -0.510242  0.166021 0.377911 1 0 1.000000
0  -41.305294 -142.373230 22.077215  -0.473287 -0.880784 -0.014779  0.176763 0.389630 1 0 1.000000
0  -41.690685 -141.919022 21.912050  -0.761444 -0.643710 -0.076420  0.184576 0.386700 1 0 1.000000
misc
0  -32.276211 -141.919022 20.824701  0.330090 -0.545900 -0.770087  0.015625 0.371075 1 0 1.000000
0  -32.496433 -142.386993 21.044926  0.173367 -0.822764 -0.541298  0.020508 0.374981 1 0 1.000000
0  -40.988728 -142.373230 21.031164  -0.266669 -0.817644 -0.510242  0.166021 0.377911 1 0 1.000000
misc
0  -40.988728 -142.373230 21.031164  -0.266669 -0.817644 -0.510242  0.166021 0.377911 1 0 1.000000
0  -41.319057 -141.919022 20.824703  -0.502056 -0.623902 -0.598905  0.170904 0.372051 1 0 1.000000
0  -32.276211 -141.919022 20.824701  0.330090 -0.545900 -0.770087  0.015625 0.371075 1 0 1.000000
misc
0  -32.276211 -141.919022 20.824701  0.330090 -0.545900 -0.770087  0.015625 0.371075 1 0 1.000000
0  -31.656839 -141.919022 21.333967  0.707744 -0.610585 -0.355364  0.001953 0.382794 1 0 1.000000
0  -31.945877 -142.386993 21.540422  0.493393 -0.846007 -0.202079  0.007813 0.386700 1 0 1.000000
misc
0  -31.945877 -142.386993 21.540422  0.493393 -0.846007 -0.202079  0.007813 0.386700 1 0 1.000000
0  -32.496433 -142.386993 21.044926  0.173367 -0.822764 -0.541298  0.020508 0.374981 1 0 1.000000
0  -32.276211 -141.919022 20.824701  0.330090 -0.545900 -0.770087  0.015625 0.371075 1 0 1.000000
misc
0  -31.656839 -141.919022 21.333967  0.707744 -0.610585 -0.355364  0.001953 0.382794 1 0 1.000000
0  -31.656837 -141.919022 26.701864  0.709915 -0.613096 0.346603  0.001953 0.462874 1 0 1.000000
0  -31.945875 -142.386993 26.495409  0.493045 -0.847947 0.194660  0.007813 0.458968 1 0 1.000000
misc
0  -31.945875 -142.386993 26.495409  0.493045 -0.847947 0.194660  0.007813 0.458968 1 0 1.000000
0  -31.945877 -142.386993 21.540422  0.493393 -0.846007 -0.202079  0.007813 0.386700 1 0 1.000000
0  -31.656839 -141.919022 21.333967  0.707744 -0.610585 -0.355364  0.001953 0.382794 1 0 1.000000
misc
0  -31.945875 -142.386993 26.495409  0.493045 -0.847947 0.194660  0.007813 0.458968 1 0 1.000000
0  -31.656837 -141.919022 26.701864  0.709915 -0.613096 0.346603  0.001953 0.462874 1 0 1.000000
0  -32.152336 -141.919022 27.142307  0.316149 -0.576303 0.753608  0.013672 0.476547 1 0 1.000000
misc
0  -32.152336 -141.919022 27.142307  0.316149 -0.576303 0.753608  0.013672 0.476547 1 0 1.000000
0  -32.386322 -142.373230 26.894562  0.157144 -0.834055 0.528827  0.018555 0.471664 1 0 1.000000
0  -31.945875 -142.386993 26.495409  0.493045 -0.847947 0.194660  0.007813 0.458968 1 0 1.000000
misc
0  -32.386322 -142.373230 26.894562  0.157144 -0.834055 0.528827  0.018555 0.471664 1 0 1.000000
0  -32.152336 -141.919022 27.142307  0.316149 -0.576303 0.753608  0.013672 0.476547 1 0 1.000000
0  -40.231712 -141.919022 26.949617  -0.410808 -0.570764 0.710961  0.158208 0.478500 1 0 1.000000
misc
0  -40.231712 -141.919022 26.949617  -0.410808 -0.570764 0.710961  0.158208 0.478500 1 0 1.000000
0  -40.025257 -142.373230 26.701866  -0.246832 -0.825073 0.508259  0.153325 0.471664 1 0 1.000000
0  -32.386322 -142.373230 26.894562  0.157144 -0.834055 0.528827  0.018555 0.471664 1 0 1.000000
misc
0  -40.231712 -141.919022 26.949617  -0.410808 -0.570764 0.710961  0.158208 0.478500 1 0 1.000000
0  -41.043781 -141.919022 25.820980  -0.740943 -0.596211 0.309088  0.171880 0.461898 1 0 1.000000
0  -40.740974 -142.373230 25.669577  -0.465673 -0.865567 0.184234  0.166021 0.458968 1 0 1.000000
misc
0  -40.740974 -142.373230 25.669577  -0.465673 -0.865567 0.184234  0.166021 0.458968 1 0 1.000000
0  -40.025257 -142.373230 26.701866  -0.246832 -0.825073 0.508259  0.153325 0.471664 1 0 1.000000
0  -40.231712 -141.919022 26.949617  -0.410808 -0.570764 0.710961  0.158208 0.478500 1 0 1.000000
misc
0  -31.945877 -142.386993 21.540422  0.493393 -0.846007 -0.202079  0.007813 0.386700 1 0 1.000000
0  -31.945875 -142.386993 26.495409  0.493045 -0.847947 0.194660  0.007813 0.458968 1 0 1.000000
0  -32.386322 -142.373230 26.894562  0.157144 -0.834055 0.528827  0.018555 0.471664 1 0 1.000000
misc
0  -32.386322 -142.373230 26.894562  0.157144 -0.834055 0.528827  0.018555 0.471664 1 0 1.000000
0  -32.496433 -142.386993 21.044926  0.173367 -0.822764 -0.541298  0.020508 0.374981 1 0 1.000000
0  -31.945877 -142.386993 21.540422  0.493393 -0.846007 -0.202079  0.007813 0.386700 1 0 1.000000
misc
0  -41.305294 -142.373230 22.077215  -0.473287 -0.880784 -0.014779  0.176763 0.389630 1 0 1.000000
0  -40.988728 -142.373230 21.031164  -0.266669 -0.817644 -0.510242  0.166021 0.377911 1 0 1.000000
0  -40.025257 -142.373230 26.701866  -0.246832 -0.825073 0.508259  0.153325 0.471664 1 0 1.000000
misc
0  -40.025257 -142.373230 26.701866  -0.246832 -0.825073 0.508259  0.153325 0.471664 1 0 1.000000
0  -40.740974 -142.373230 25.669577  -0.465673 -0.865567 0.184234  0.166021 0.458968 1 0 1.000000
0  -41.305294 -142.373230 22.077215  -0.473287 -0.880784 -0.014779  0.176763 0.389630 1 0 1.000000
misc
0  41.690708 -141.919022 21.912043  -0.996285 -0.076234 0.040065  0.077151 0.172826 1 0 1.000000
0  41.043804 -141.919022 25.820972  -0.935341 -0.051011 -0.350051  0.074221 0.186499 1 0 1.000000
0  40.754761 -139.730576 26.261415  -0.953020 -0.075820 -0.293264  0.067385 0.187475 1 0 1.000000
misc
0  40.754761 -139.730576 26.261415  -0.953020 -0.075820 -0.293264  0.067385 0.187475 1 0 1.000000
0  41.470486 -139.730576 21.127502  -0.994937 -0.100428 -0.003801  0.069338 0.170873 1 0 1.000000
0  41.690708 -141.919022 21.912043  -0.996285 -0.076234 0.040065  0.077151 0.172826 1 0 1.000000
misc
0  41.690708 -141.919022 21.912043  -0.996285 -0.076234 0.040065  0.077151 0.172826 1 0 1.000000
0  41.470486 -139.730576 21.127502  -0.994937 -0.100428 -0.003801  0.069338 0.170873 1 0 1.000000
0  41.319080 -141.919022 20.824696  -0.947658 0.020119 0.318654  0.068361 0.168920 1 0 1.000000
misc
0  31.656862 -141.919022 21.333963  0.638607 -0.018707 0.769306  0.026368 0.170873 1 0 1.000000
0  32.276234 -141.919022 20.824697  0.303025 -0.090766 0.948650  0.036134 0.168920 1 0 1.000000
0  31.973427 -139.744339 21.127504  0.133355 -0.119314 0.983860  0.034181 0.170873 1 0 1.000000
misc
0  31.656862 -141.919022 21.333963  0.991184 -0.132175 0.009217  0.026368 0.170873 1 0 1.000000
0  31.973427 -139.744339 21.127504  0.990430 -0.137550 0.011352  0.034181 0.170873 1 0 1.000000
0  31.904612 -139.744339 26.922085  0.992798 -0.119725 0.004287  0.033204 0.189428 1 0 1.000000
misc
0  31.904612 -139.744339 26.922085  0.992797 -0.119734 0.004291  0.033204 0.189428 1 0 1.000000
0  31.656864 -141.919022 26.701860  0.993529 -0.113564 0.001733  0.026368 0.190405 1 0 1.000000
0  31.656862 -141.919022 21.333963  0.991184 -0.132174 0.009216  0.026368 0.170873 1 0 1.000000
misc
0  32.152359 -141.919022 27.142303  0.656914 0.000001 -0.753965  0.036134 0.191382 1 0 1.000000
0  31.656864 -141.919022 26.701860  0.656914 0.000002 -0.753965  0.026368 0.190405 1 0 1.000000
0  31.904612 -139.744339 26.922085  0.656914 0.000001 -0.753965  0.033204 0.189428 1 0 1.000000
misc
0  40.754761 -139.730576 26.261415  -0.031899 -0.259807 -0.965134  0.067385 0.187475 1 0 1.000000
0  40.231735 -141.919022 26.949610  -0.022326 -0.294146 -0.955499  0.062502 0.191382 1 0 1.000000
0  32.152359 -141.919022 27.142303  -0.065659 -0.136189 -0.988505  0.036134 0.191382 1 0 1.000000
misc
0  32.152359 -141.919022 27.142303  -0.065700 -0.136042 -0.988522  0.036134 0.191382 1 0 1.000000
0  31.904612 -139.744339 26.922085  -0.073396 -0.106993 -0.991547  0.033204 0.189428 1 0 1.000000
0  40.754761 -139.730576 26.261415  -0.031943 -0.259621 -0.965182  0.067385 0.187475 1 0 1.000000
misc
0  40.231735 -141.919022 26.949610  -0.813690 0.012051 -0.581175  0.062502 0.191382 1 0 1.000000
0  40.754761 -139.730576 26.261415  -0.953020 -0.075820 -0.293264  0.067385 0.187475 1 0 1.000000
0  41.043804 -141.919022 25.820972  -0.935341 -0.051011 -0.350051  0.074221 0.186499 1 0 1.000000
misc
0  40.754761 -139.730576 26.261415  0.001486 -0.999999 0.000139  0.067385 0.187475 1 0 1.000000
0  31.904612 -139.744339 26.922085  0.001557 -0.999999 0.000018  0.033204 0.189428 1 0 1.000000
0  31.973427 -139.744339 21.127504  0.001521 -0.999999 0.000079  0.034181 0.170873 1 0 1.000000
misc
0  31.973427 -139.744339 21.127504  0.001521 -0.999999 0.000079  0.034181 0.170873 1 0 1.000000
0  41.470486 -139.730576 21.127502  0.001449 -0.999999 0.000201  0.069338 0.170873 1 0 1.000000
0  40.754761 -139.730576 26.261415  0.001486 -0.999999 0.000139  0.067385 0.187475 1 0 1.000000
misc
0  31.973427 -139.744339 21.127504  0.133355 -0.119314 0.983860  0.034181 0.170873 1 0 1.000000
0  32.276234 -141.919022 20.824697  0.303025 -0.090766 0.948650  0.036134 0.168920 1 0 1.000000
0  41.319080 -141.919022 20.824696  0.000114 -0.138998 0.990293  0.068361 0.168920 1 0 1.000000
misc
0  41.319080 -141.919022 20.824696  0.000123 -0.139114 0.990276  0.068361 0.168920 1 0 1.000000
0  41.470486 -139.730576 21.127502  0.000094 -0.139113 0.990277  0.069338 0.170873 1 0 1.000000
0  31.973427 -139.744339 21.127504  0.133174 -0.119340 0.983881  0.034181 0.170873 1 0 1.000000
misc
0  36.474209 -139.744339 22.297430  0.000013 -0.920393 -0.390995  0.175787 0.359355 1 0 1.000000
0  37.478966 -139.744339 22.875513  0.338715 -0.920389 -0.195337  0.170904 0.356426 1 0 1.000000
0  36.474209 -140.239838 23.467356  0.000034 -1.000000 0.000000  0.175787 0.353496 1 0 1.000000
misc
0  37.478966 -139.744339 22.875513  0.338715 -0.920389 -0.195337  0.170904 0.356426 1 0 1.000000
0  37.478966 -139.744339 24.059202  0.338556 -0.920378 0.195665  0.170904 0.349590 1 0 1.000000
0  36.474209 -140.239838 23.467356  0.000034 -1.000000 0.000000  0.175787 0.353496 1 0 1.000000
misc
0  37.478966 -139.744339 24.059202  0.338556 -0.920378 0.195665  0.170904 0.349590 1 0 1.000000
0  36.474209 -139.744339 24.637285  0.000013 -0.920393 0.390995  0.175787 0.346660 1 0 1.000000
0  36.474209 -140.239838 23.467356  0.000034 -1.000000 0.000000  0.175787 0.353496 1 0 1.000000
misc
0  36.474209 -139.744339 24.637285  0.000013 -0.920393 0.390995  0.175787 0.346660 1 0 1.000000
0  35.455681 -139.744339 24.059202  -0.338599 -0.920398 0.195495  0.181646 0.349590 1 0 1.000000
0  36.474209 -140.239838 23.467356  0.000034 -1.000000 0.000000  0.175787 0.353496 1 0 1.000000
misc
0  35.455681 -139.744339 24.059202  -0.338599 -0.920398 0.195495  0.181646 0.349590 1 0 1.000000
0  35.455681 -139.744339 22.875513  -0.338599 -0.920398 -0.195494  0.181646 0.356426 1 0 1.000000
0  36.474209 -140.239838 23.467356  0.000034 -1.000000 0.000000  0.175787 0.353496 1 0 1.000000
misc
0  35.455681 -139.744339 22.875513  -0.338599 -0.920398 -0.195494  0.181646 0.356426 1 0 1.000000
0  36.474209 -139.744339 22.297430  0.000013 -0.920393 -0.390995  0.175787 0.359355 1 0 1.000000
0  36.474209 -140.239838 23.467356  0.000034 -1.000000 0.000000  0.175787 0.353496 1 0 1.000000
misc
0  -41.690685 -141.919022 21.912050  0.996313 -0.076029 0.039743  0.077151 0.172826 1 0 1.000000
0  -41.470463 -139.730576 21.127510  0.994957 -0.100224 -0.003888  0.069338 0.170873 1 0 1.000000
0  -40.754738 -139.730576 26.261423  0.952964 -0.075976 -0.293408  0.067385 0.187475 1 0 1.000000
misc
0  -40.754738 -139.730576 26.261423  0.952964 -0.075976 -0.293408  0.067385 0.187475 1 0 1.000000
0  -41.043781 -141.919022 25.820980  0.935313 -0.051054 -0.350119  0.074221 0.186499 1 0 1.000000
0  -41.690685 -141.919022 21.912050  0.996313 -0.076029 0.039743  0.077151 0.172826 1 0 1.000000
misc
0  -41.470463 -139.730576 21.127510  0.994957 -0.100224 -0.003888  0.069338 0.170873 1 0 1.000000
0  -41.690685 -141.919022 21.912050  0.996313 -0.076029 0.039743  0.077151 0.172826 1 0 1.000000
0  -41.319057 -141.919022 20.824703  0.947657 0.020118 0.318655  0.068361 0.168920 1 0 1.000000
misc
0  -32.276211 -141.919022 20.824701  -0.303210 -0.090826 0.948586  0.036134 0.168920 1 0 1.000000
0  -31.656839 -141.919022 21.333967  -0.638607 -0.018707 0.769306  0.026368 0.170873 1 0 1.000000
0  -31.973404 -139.744339 21.127508  -0.133492 -0.118978 0.983882  0.034181 0.170873 1 0 1.000000
misc
0  -31.656839 -141.919022 21.333967  -0.991172 -0.132264 0.009214  0.026368 0.170873 1 0 1.000000
0  -31.656837 -141.919022 26.701864  -0.993530 -0.113554 0.001687  0.026368 0.190405 1 0 1.000000
0  -31.904585 -139.744339 26.922089  -0.992797 -0.119735 0.004292  0.033204 0.189428 1 0 1.000000
misc
0  -31.904585 -139.744339 26.922089  -0.992797 -0.119735 0.004292  0.033204 0.189428 1 0 1.000000
0  -31.973404 -139.744339 21.127508  -0.990430 -0.137551 0.011353  0.034181 0.170873 1 0 1.000000
0  -31.656839 -141.919022 21.333967  -0.991172 -0.132264 0.009214  0.026368 0.170873 1 0 1.000000
misc
0  -31.656837 -141.919022 26.701864  -0.656911 0.000001 -0.753968  0.026368 0.190405 1 0 1.000000
0  -32.152336 -141.919022 27.142307  -0.656912 0.000002 -0.753968  0.036134 0.191382 1 0 1.000000
0  -31.904585 -139.744339 26.922089  -0.656912 0.000003 -0.753968  0.033204 0.189428 1 0 1.000000
misc
0  -40.754738 -139.730576 26.261423  0.031899 -0.259804 -0.965134  0.067385 0.187475 1 0 1.000000
0  -31.904585 -139.744339 26.922089  0.073396 -0.106993 -0.991547  0.033204 0.189428 1 0 1.000000
0  -32.152336 -141.919022 27.142307  0.065746 -0.136217 -0.988495  0.036134 0.191382 1 0 1.000000
misc
0  -32.152336 -141.919022 27.142307  0.065746 -0.136217 -0.988495  0.036134 0.191382 1 0 1.000000
0  -40.231712 -141.919022 26.949617  0.022372 -0.294225 -0.955474  0.062502 0.191382 1 0 1.000000
0  -40.754738 -139.730576 26.261423  0.031899 -0.259804 -0.965134  0.067385 0.187475 1 0 1.000000
misc
0  -40.754738 -139.730576 26.261423  0.952964 -0.075976 -0.293408  0.067385 0.187475 1 0 1.000000
0  -40.231712 -141.919022 26.949617  0.813661 0.012047 -0.581214  0.062502 0.191382 1 0 1.000000
0  -41.043781 -141.919022 25.820980  0.935313 -0.051054 -0.350119  0.074221 0.186499 1 0 1.000000
misc
0  -40.754738 -139.730576 26.261423  -0.001486 -0.999999 0.000139  0.067385 0.187475 1 0 1.000000
0  -41.470463 -139.730576 21.127510  -0.001449 -0.999999 0.000200  0.069338 0.170873 1 0 1.000000
0  -31.973404 -139.744339 21.127508  -0.001521 -0.999999 0.000080  0.034181 0.170873 1 0 1.000000
misc
0  -31.973404 -139.744339 21.127508  -0.001521 -0.999999 0.000080  0.034181 0.170873 1 0 1.000000
0  -31.904585 -139.744339 26.922089  -0.001557 -0.999999 0.000019  0.033204 0.189428 1 0 1.000000
0  -40.754738 -139.730576 26.261423  -0.001486 -0.999999 0.000139  0.067385 0.187475 1 0 1.000000
misc
0  -31.973404 -139.744339 21.127508  -0.133492 -0.118978 0.983882  0.034181 0.170873 1 0 1.000000
0  -41.470463 -139.730576 21.127510  -0.000093 -0.139113 0.990276  0.069338 0.170873 1 0 1.000000
0  -41.319057 -141.919022 20.824703  -0.000124 -0.139043 0.990286  0.068361 0.168920 1 0 1.000000
misc
0  -41.319057 -141.919022 20.824703  -0.000124 -0.139043 0.990286  0.068361 0.168920 1 0 1.000000
0  -32.276211 -141.919022 20.824701  -0.303210 -0.090826 0.948586  0.036134 0.168920 1 0 1.000000
0  -31.973404 -139.744339 21.127508  -0.133492 -0.118978 0.983882  0.034181 0.170873 1 0 1.000000
misc
0  -37.478943 -139.744339 22.875517  -0.338646 -0.920384 -0.195477  0.170904 0.356426 1 0 1.000000
0  -36.474186 -139.744339 22.297434  -0.000179 -0.920471 -0.390812  0.175787 0.359355 1 0 1.000000
0  -36.474186 -140.239838 23.467360  -0.000033 -1.000000 -0.000000  0.175787 0.353496 1 0 1.000000
misc
0  -37.478943 -139.744339 24.059206  -0.338487 -0.920374 0.195804  0.170904 0.349590 1 0 1.000000
0  -37.478943 -139.744339 22.875517  -0.338646 -0.920384 -0.195477  0.170904 0.356426 1 0 1.000000
0  -36.474186 -140.239838 23.467360  -0.000033 -1.000000 -0.000000  0.175787 0.353496 1 0 1.000000
misc
0  -36.474186 -139.744339 24.637289  -0.000111 -0.920440 0.390884  0.175787 0.346660 1 0 1.000000
0  -37.478943 -139.744339 24.059206  -0.338487 -0.920374 0.195804  0.170904 0.349590 1 0 1.000000
0  -36.474186 -140.239838 23.467360  -0.000033 -1.000000 -0.000000  0.175787 0.353496 1 0 1.000000
misc
0  -35.455658 -139.744339 24.059206  0.338552 -0.920416 0.195490  0.181646 0.349590 1 0 1.000000
0  -36.474186 -139.744339 24.637289  -0.000111 -0.920440 0.390884  0.175787 0.346660 1 0 1.000000
0  -36.474186 -140.239838 23.467360  -0.000033 -1.000000 -0.000000  0.175787 0.353496 1 0 1.000000
misc
0  -35.455658 -139.744339 22.875517  0.338648 -0.920379 -0.195500  0.181646 0.356426 1 0 1.000000
0  -35.455658 -139.744339 24.059206  0.338552 -0.920416 0.195490  0.181646 0.349590 1 0 1.000000
0  -36.474186 -140.239838 23.467360  -0.000033 -1.000000 -0.000000  0.175787 0.353496 1 0 1.000000
misc
0  -36.474186 -139.744339 22.297434  -0.000179 -0.920471 -0.390812  0.175787 0.359355 1 0 1.000000
0  -35.455658 -139.744339 22.875517  0.338648 -0.920379 -0.195500  0.181646 0.356426 1 0 1.000000
0  -36.474186 -140.239838 23.467360  -0.000033 -1.000000 -0.000000  0.175787 0.353496 1 0 1.000000
end
