version 1
nodes
0 "root" -1
end
skeleton
time 0
0  0.000000 0.000000 0.000000  0.000000 -0.000000 0.000000
end
triangles
misc
0  41.153919 -96.498344 42.888149  -0.887065 0.458445 -0.054251  0.403333 0.076144 1 0 1.000000
0  41.222736 -96.498344 41.883385  -0.869087 0.491800 -0.053110  0.403333 0.075167 1 0 1.000000
0  40.066574 -98.081177 41.828331  -0.948322 0.311977 -0.057922  0.403333 0.075167 1 0 1.000000
misc
0  40.066574 -98.081177 41.828331  -0.948322 0.311977 -0.057922  0.403333 0.075167 1 0 1.000000
0  39.997753 -98.081177 42.833092  -0.948830 0.310427 -0.057934  0.403333 0.076144 1 0 1.000000
0  41.153919 -96.498344 42.888149  -0.887065 0.458445 -0.054251  0.403333 0.076144 1 0 1.000000
misc
0  39.997753 -98.081177 42.833092  -0.948830 0.310427 -0.057934  0.403333 0.076144 1 0 1.000000
0  40.066574 -98.081177 41.828331  -0.948322 0.311977 -0.057922  0.403333 0.075167 1 0 1.000000
0  40.066574 -99.361221 41.828331  -0.998140 0.000000 -0.060968  0.403333 0.075167 1 0 1.000000
misc
0  40.066574 -99.361221 41.828331  -0.998140 0.000000 -0.060968  0.403333 0.075167 1 0 1.000000
0  39.997753 -99.361221 42.833092  -0.998137 0.000000 -0.061015  0.403333 0.076144 1 0 1.000000
0  39.997753 -98.081177 42.833092  -0.948830 0.310427 -0.057934  0.403333 0.076144 1 0 1.000000
misc
0  39.997753 -99.361221 42.833092  -0.705809 -0.707087 -0.043133  0.403333 0.076144 1 0 1.000000
0  40.066574 -99.361221 41.828331  -0.705802 -0.707096 -0.043123  0.403333 0.075167 1 0 1.000000
0  40.961224 -100.269630 41.883385  -0.382199 -0.923785 -0.023333  0.403333 0.075167 1 0 1.000000
misc
0  40.961224 -100.269630 41.883385  -0.382199 -0.923785 -0.023333  0.403333 0.075167 1 0 1.000000
0  40.906170 -100.269630 42.888149  -0.381904 -0.923909 -0.023270  0.403333 0.076144 1 0 1.000000
0  39.997753 -99.361221 42.833092  -0.705809 -0.707087 -0.043133  0.403333 0.076144 1 0 1.000000
misc
0  40.906170 -100.269630 42.888149  -0.381904 -0.923909 -0.023270  0.403333 0.076144 1 0 1.000000
0  40.961224 -100.269630 41.883385  -0.382199 -0.923785 -0.023333  0.403333 0.075167 1 0 1.000000
0  42.241264 -100.269630 41.952206  0.381967 -0.923881 0.023335  0.403333 0.075167 1 0 1.000000
misc
0  42.241264 -100.269630 41.952206  0.381967 -0.923881 0.023335  0.403333 0.075167 1 0 1.000000
0  42.186207 -100.269630 42.970730  0.381976 -0.923878 0.023335  0.403333 0.076144 1 0 1.000000
0  40.906170 -100.269630 42.888149  -0.381904 -0.923909 -0.023270  0.403333 0.076144 1 0 1.000000
misc
0  42.186207 -100.269630 42.970730  0.381976 -0.923878 0.023335  0.403333 0.076144 1 0 1.000000
0  42.241264 -100.269630 41.952206  0.381967 -0.923881 0.023335  0.403333 0.075167 1 0 1.000000
0  43.149677 -99.361221 42.007263  0.896200 -0.440257 0.054763  0.403333 0.076144 1 0 1.000000
misc
0  43.149677 -99.361221 42.007263  0.896200 -0.440257 0.054763  0.403333 0.076144 1 0 1.000000
0  43.094620 -99.361221 43.025787  0.895462 -0.441758 0.054748  0.403333 0.076144 1 0 1.000000
0  42.186207 -100.269630 42.970730  0.381976 -0.923878 0.023335  0.403333 0.076144 1 0 1.000000
misc
0  43.149677 -99.361221 42.007263  0.896200 -0.440257 0.054763  0.403333 0.076144 1 0 1.000000
0  43.397423 -97.406754 42.007263  0.963485 -0.261222 0.058813  0.403333 0.076144 1 0 1.000000
0  43.342369 -97.406754 43.025787  0.951231 -0.302958 0.058104  0.403333 0.076144 1 0 1.000000
misc
0  43.342369 -97.406754 43.025787  0.951231 -0.302958 0.058104  0.403333 0.076144 1 0 1.000000
0  43.094620 -99.361221 43.025787  0.895462 -0.441758 0.054748  0.403333 0.076144 1 0 1.000000
0  43.149677 -99.361221 42.007263  0.896200 -0.440257 0.054763  0.403333 0.076144 1 0 1.000000
misc
0  53.155994 -91.034081 47.691734  0.942095 0.321670 0.094791  0.401379 0.076144 1 0 1.000000
0  53.018356 -91.034081 48.944241  0.942093 0.321674 0.094796  0.401379 0.077120 1 0 1.000000
0  53.486328 -92.382942 48.971767  0.942061 0.321735 0.094909  0.401379 0.077120 1 0 1.000000
misc
0  53.486328 -92.382942 48.971767  0.942061 0.321735 0.094909  0.401379 0.077120 1 0 1.000000
0  53.610199 -92.382942 47.719261  0.942069 0.321733 0.094835  0.401379 0.076144 1 0 1.000000
0  53.155994 -91.034081 47.691734  0.942095 0.321670 0.094791  0.401379 0.076144 1 0 1.000000
misc
0  40.066574 -99.361221 41.828331  0.060960 -0.000004 -0.998140  0.403333 0.075167 1 0 1.000000
0  42.241264 -100.269630 41.952206  0.060825 0.000034 -0.998149  0.403333 0.075167 1 0 1.000000
0  40.961224 -100.269630 41.883385  0.060957 -0.000016 -0.998140  0.403333 0.075167 1 0 1.000000
misc
0  43.397423 -97.406754 42.007263  0.055117 -0.014119 -0.998380  0.403333 0.076144 1 0 1.000000
0  43.149677 -99.361221 42.007263  0.059337 -0.003929 -0.998230  0.403333 0.076144 1 0 1.000000
0  40.066574 -98.081177 41.828331  0.059266 -0.003943 -0.998234  0.403333 0.075167 1 0 1.000000
misc
0  40.066574 -98.081177 41.828331  0.059266 -0.003943 -0.998234  0.403333 0.075167 1 0 1.000000
0  41.222736 -96.498344 41.883385  0.055010 -0.014067 -0.998387  0.403333 0.075167 1 0 1.000000
0  43.397423 -97.406754 42.007263  0.055117 -0.014119 -0.998380  0.403333 0.076144 1 0 1.000000
misc
0  40.768528 -100.269630 45.214241  -0.060975 0.000000 0.998139  0.403333 0.076144 1 0 1.000000
0  42.048569 -100.269630 45.296822  -0.060946 0.000000 0.998141  0.403333 0.076144 1 0 1.000000
0  39.860115 -99.361221 45.159180  -0.061192 -0.000061 0.998126  0.403333 0.076144 1 0 1.000000
misc
0  39.860115 -98.081177 45.159180  -0.059585 0.004031 0.998215  0.403333 0.076144 1 0 1.000000
0  42.943218 -99.361221 45.351879  -0.059416 0.003950 0.998226  0.403333 0.076144 1 0 1.000000
0  43.204731 -97.406754 45.351879  -0.055344 0.014203 0.998366  0.403333 0.076144 1 0 1.000000
misc
0  43.204731 -97.406754 45.351879  -0.055344 0.014203 0.998366  0.403333 0.076144 1 0 1.000000
0  41.016281 -96.498344 45.214241  -0.055412 0.014290 0.998361  0.403333 0.076144 1 0 1.000000
0  39.860115 -98.081177 45.159180  -0.059585 0.004031 0.998215  0.403333 0.076144 1 0 1.000000
misc
0  40.768528 -100.269630 45.214241  -0.381707 -0.923996 -0.023071  0.403333 0.076144 1 0 1.000000
0  40.823589 -100.269630 44.250767  -0.382132 -0.923820 -0.023072  0.403333 0.076144 1 0 1.000000
0  42.103622 -100.269630 44.333355  0.382000 -0.923866 0.023384  0.403333 0.076144 1 0 1.000000
misc
0  42.103622 -100.269630 44.333355  0.382000 -0.923866 0.023384  0.403333 0.076144 1 0 1.000000
0  42.048569 -100.269630 45.296822  0.382113 -0.923819 0.023406  0.403333 0.076144 1 0 1.000000
0  40.768528 -100.269630 45.214241  -0.381707 -0.923996 -0.023071  0.403333 0.076144 1 0 1.000000
misc
0  39.860115 -99.361221 45.159180  -0.705783 -0.707117 -0.043071  0.403333 0.076144 1 0 1.000000
0  39.915173 -99.361221 44.195713  -0.705796 -0.707099 -0.043164  0.403333 0.076144 1 0 1.000000
0  40.823589 -100.269630 44.250767  -0.382132 -0.923820 -0.023072  0.403333 0.076144 1 0 1.000000
misc
0  40.823589 -100.269630 44.250767  -0.382132 -0.923820 -0.023072  0.403333 0.076144 1 0 1.000000
0  40.768528 -100.269630 45.214241  -0.381707 -0.923996 -0.023071  0.403333 0.076144 1 0 1.000000
0  39.860115 -99.361221 45.159180  -0.705783 -0.707117 -0.043071  0.403333 0.076144 1 0 1.000000
misc
0  39.860115 -98.081177 45.159180  -0.948834 0.310420 -0.057909  0.403333 0.076144 1 0 1.000000
0  39.915173 -98.081177 44.195713  -0.948324 0.311974 -0.057911  0.403333 0.076144 1 0 1.000000
0  39.915173 -99.361221 44.195713  -0.998139 0.000002 -0.060976  0.403333 0.076144 1 0 1.000000
misc
0  39.915173 -99.361221 44.195713  -0.998139 0.000002 -0.060976  0.403333 0.076144 1 0 1.000000
0  39.860115 -99.361221 45.159180  -0.998142 0.000000 -0.060928  0.403333 0.076144 1 0 1.000000
0  39.860115 -98.081177 45.159180  -0.948834 0.310420 -0.057909  0.403333 0.076144 1 0 1.000000
misc
0  41.016281 -96.498344 45.214241  -0.867956 0.493817 -0.052895  0.403333 0.076144 1 0 1.000000
0  41.071335 -96.498344 44.250767  -0.887345 0.457933 -0.054011  0.403333 0.076144 1 0 1.000000
0  39.915173 -98.081177 44.195713  -0.948324 0.311974 -0.057911  0.403333 0.076144 1 0 1.000000
misc
0  39.915173 -98.081177 44.195713  -0.948324 0.311974 -0.057911  0.403333 0.076144 1 0 1.000000
0  39.860115 -98.081177 45.159180  -0.948834 0.310420 -0.057909  0.403333 0.076144 1 0 1.000000
0  41.016281 -96.498344 45.214241  -0.867956 0.493817 -0.052895  0.403333 0.076144 1 0 1.000000
misc
0  43.012039 -99.361221 44.388409  0.896203 -0.440245 0.054806  0.403333 0.076144 1 0 1.000000
0  43.259789 -97.406754 44.388409  0.951096 -0.303433 0.057835  0.403333 0.076144 1 0 1.000000
0  43.204731 -97.406754 45.351879  0.964198 -0.258565 0.058867  0.403333 0.076144 1 0 1.000000
misc
0  43.204731 -97.406754 45.351879  0.964198 -0.258565 0.058867  0.403333 0.076144 1 0 1.000000
0  42.943218 -99.361221 45.351879  0.895466 -0.441753 0.054728  0.403333 0.076144 1 0 1.000000
0  43.012039 -99.361221 44.388409  0.896203 -0.440245 0.054806  0.403333 0.076144 1 0 1.000000
misc
0  42.048569 -100.269630 45.296822  0.382113 -0.923819 0.023406  0.403333 0.076144 1 0 1.000000
0  42.103622 -100.269630 44.333355  0.382000 -0.923866 0.023384  0.403333 0.076144 1 0 1.000000
0  43.012039 -99.361221 44.388409  0.896203 -0.440245 0.054806  0.403333 0.076144 1 0 1.000000
misc
0  43.012039 -99.361221 44.388409  0.896203 -0.440245 0.054806  0.403333 0.076144 1 0 1.000000
0  42.943218 -99.361221 45.351879  0.895466 -0.441753 0.054728  0.403333 0.076144 1 0 1.000000
0  42.048569 -100.269630 45.296822  0.382113 -0.923819 0.023406  0.403333 0.076144 1 0 1.000000
misc
0  41.153919 -96.498344 42.888149  -0.887065 0.458445 -0.054251  0.403333 0.076144 1 0 1.000000
0  41.828346 -95.053139 41.883385  -0.920215 0.387359 -0.056187  0.403333 0.075167 1 0 1.000000
0  41.222736 -96.498344 41.883385  -0.869087 0.491800 -0.053110  0.403333 0.075167 1 0 1.000000
misc
0  41.828346 -95.053139 41.883385  0.051835 -0.021878 -0.998416  0.403333 0.075167 1 0 1.000000
0  44.016800 -95.961548 42.007263  0.051857 -0.021835 -0.998416  0.403333 0.076144 1 0 1.000000
0  43.397423 -97.406754 42.007263  0.055117 -0.014119 -0.998380  0.403333 0.076144 1 0 1.000000
misc
0  43.397423 -97.406754 42.007263  0.055117 -0.014119 -0.998380  0.403333 0.076144 1 0 1.000000
0  41.222736 -96.498344 41.883385  0.055010 -0.014067 -0.998387  0.403333 0.075167 1 0 1.000000
0  41.828346 -95.053139 41.883385  0.051835 -0.021878 -0.998416  0.403333 0.075167 1 0 1.000000
misc
0  43.810345 -95.961548 45.351879  -0.052093 0.021896 0.998402  0.403333 0.076144 1 0 1.000000
0  41.621887 -95.053139 45.214241  -0.052316 0.021980 0.998389  0.403333 0.076144 1 0 1.000000
0  41.016281 -96.498344 45.214241  -0.055412 0.014290 0.998361  0.403333 0.076144 1 0 1.000000
misc
0  41.016281 -96.498344 45.214241  -0.055412 0.014290 0.998361  0.403333 0.076144 1 0 1.000000
0  43.204731 -97.406754 45.351879  -0.055344 0.014203 0.998366  0.403333 0.076144 1 0 1.000000
0  43.810345 -95.961548 45.351879  -0.052093 0.021896 0.998402  0.403333 0.076144 1 0 1.000000
misc
0  43.259789 -97.406754 44.388409  0.951096 -0.303433 0.057835  0.403333 0.076144 1 0 1.000000
0  43.810345 -95.961548 45.351879  0.920193 -0.387495 0.055606  0.403333 0.076144 1 0 1.000000
0  43.204731 -97.406754 45.351879  0.964198 -0.258565 0.058867  0.403333 0.076144 1 0 1.000000
misc
0  53.155994 -91.034081 47.691734  -0.322901 0.945924 -0.031045  0.401379 0.076144 1 0 1.000000
0  41.828346 -95.053139 41.883385  -0.325116 0.945459 -0.020157  0.403333 0.075167 1 0 1.000000
0  41.621887 -95.053139 45.214241  -0.324950 0.945498 -0.020991  0.403333 0.076144 1 0 1.000000
misc
0  41.621887 -95.053139 45.214241  -0.324950 0.945498 -0.020991  0.403333 0.076144 1 0 1.000000
0  53.018356 -91.034081 48.944241  -0.322609 0.945975 -0.032463  0.401379 0.077120 1 0 1.000000
0  53.155994 -91.034081 47.691734  -0.322901 0.945924 -0.031045  0.401379 0.076144 1 0 1.000000
misc
0  53.155994 -91.034081 47.691734  0.450679 0.173584 -0.875647  0.401379 0.076144 1 0 1.000000
0  53.610199 -92.382942 47.719261  0.466763 0.140259 -0.873189  0.401379 0.076144 1 0 1.000000
0  44.016800 -95.961548 42.007263  0.266278 0.473540 -0.839557  0.403333 0.076144 1 0 1.000000
misc
0  44.016800 -95.961548 42.007263  0.266278 0.473540 -0.839557  0.403333 0.076144 1 0 1.000000
0  41.828346 -95.053139 41.883385  0.254146 0.489723 -0.834015  0.403333 0.075167 1 0 1.000000
0  53.155994 -91.034081 47.691734  0.450679 0.173584 -0.875647  0.401379 0.076144 1 0 1.000000
misc
0  53.018356 -91.034081 48.944241  -0.308458 -0.111117 0.944726  0.401379 0.077120 1 0 1.000000
0  41.621887 -95.053139 45.214241  -0.189912 -0.320846 0.927896  0.403333 0.076144 1 0 1.000000
0  43.810345 -95.961548 45.351879  -0.197380 -0.308770 0.930431  0.403333 0.076144 1 0 1.000000
misc
0  43.810345 -95.961548 45.351879  -0.197380 -0.308770 0.930431  0.403333 0.076144 1 0 1.000000
0  53.486328 -92.382942 48.971767  -0.319721 -0.089040 0.943319  0.401379 0.077120 1 0 1.000000
0  53.018356 -91.034081 48.944241  -0.308458 -0.111117 0.944726  0.401379 0.077120 1 0 1.000000
misc
0  44.016800 -95.961548 42.007263  0.339239 -0.940444 0.021976  0.403333 0.076144 1 0 1.000000
0  53.610199 -92.382942 47.719261  0.331949 -0.942715 0.033139  0.401379 0.076144 1 0 1.000000
0  53.486328 -92.382942 48.971767  0.333656 -0.942202 0.030467  0.401379 0.077120 1 0 1.000000
misc
0  53.486328 -92.382942 48.971767  0.333656 -0.942202 0.030467  0.401379 0.077120 1 0 1.000000
0  43.810345 -95.961548 45.351879  0.339890 -0.940231 0.020982  0.403333 0.076144 1 0 1.000000
0  44.016800 -95.961548 42.007263  0.339239 -0.940444 0.021976  0.403333 0.076144 1 0 1.000000
misc
0  43.397423 -97.406754 42.007263  0.963485 -0.261222 0.058813  0.403333 0.076144 1 0 1.000000
0  44.016800 -95.961548 42.007263  0.920180 -0.387445 0.056176  0.403333 0.076144 1 0 1.000000
0  43.342369 -97.406754 43.025787  0.951231 -0.302958 0.058104  0.403333 0.076144 1 0 1.000000
misc
0  43.810345 -95.961548 45.351879  0.920193 -0.387495 0.055606  0.403333 0.076144 1 0 1.000000
0  43.259789 -97.406754 44.388409  0.951096 -0.303433 0.057835  0.403333 0.076144 1 0 1.000000
0  43.342369 -97.406754 43.025787  0.951231 -0.302958 0.058104  0.403333 0.076144 1 0 1.000000
misc
0  43.342369 -97.406754 43.025787  0.951231 -0.302958 0.058104  0.403333 0.076144 1 0 1.000000
0  44.016800 -95.961548 42.007263  0.920180 -0.387445 0.056176  0.403333 0.076144 1 0 1.000000
0  43.810345 -95.961548 45.351879  0.920193 -0.387495 0.055606  0.403333 0.076144 1 0 1.000000
misc
0  41.016281 -96.498344 45.214241  -0.867956 0.493817 -0.052895  0.403333 0.076144 1 0 1.000000
0  41.621887 -95.053139 45.214241  -0.920184 0.387482 -0.055852  0.403333 0.076144 1 0 1.000000
0  41.071335 -96.498344 44.250767  -0.887345 0.457933 -0.054011  0.403333 0.076144 1 0 1.000000
misc
0  41.621887 -95.053139 45.214241  -0.920184 0.387482 -0.055852  0.403333 0.076144 1 0 1.000000
0  41.828346 -95.053139 41.883385  -0.920215 0.387359 -0.056187  0.403333 0.075167 1 0 1.000000
0  41.153919 -96.498344 42.888149  -0.887065 0.458445 -0.054251  0.403333 0.076144 1 0 1.000000
misc
0  41.153919 -96.498344 42.888149  -0.887065 0.458445 -0.054251  0.403333 0.076144 1 0 1.000000
0  41.071335 -96.498344 44.250767  -0.887345 0.457933 -0.054011  0.403333 0.076144 1 0 1.000000
0  41.621887 -95.053139 45.214241  -0.920184 0.387482 -0.055852  0.403333 0.076144 1 0 1.000000
misc
0  42.943218 -99.361221 45.351879  -0.059416 0.003950 0.998226  0.403333 0.076144 1 0 1.000000
0  39.860115 -98.081177 45.159180  -0.059585 0.004031 0.998215  0.403333 0.076144 1 0 1.000000
0  39.860115 -99.361221 45.159180  -0.061192 -0.000061 0.998126  0.403333 0.076144 1 0 1.000000
misc
0  39.860115 -99.361221 45.159180  -0.061192 -0.000061 0.998126  0.403333 0.076144 1 0 1.000000
0  42.048569 -100.269630 45.296822  -0.060946 0.000000 0.998141  0.403333 0.076144 1 0 1.000000
0  42.943218 -99.361221 45.351879  -0.059416 0.003950 0.998226  0.403333 0.076144 1 0 1.000000
misc
0  43.149677 -99.361221 42.007263  0.059337 -0.003929 -0.998230  0.403333 0.076144 1 0 1.000000
0  42.241264 -100.269630 41.952206  0.060825 0.000034 -0.998149  0.403333 0.075167 1 0 1.000000
0  40.066574 -99.361221 41.828331  0.060960 -0.000004 -0.998140  0.403333 0.075167 1 0 1.000000
misc
0  40.066574 -99.361221 41.828331  0.060960 -0.000004 -0.998140  0.403333 0.075167 1 0 1.000000
0  40.066574 -98.081177 41.828331  0.059266 -0.003943 -0.998234  0.403333 0.075167 1 0 1.000000
0  43.149677 -99.361221 42.007263  0.059337 -0.003929 -0.998230  0.403333 0.076144 1 0 1.000000
misc
0  41.153919 -96.498344 42.888149  -0.382030 -0.923860 -0.023151  0.403333 0.076144 1 0 1.000000
0  43.342369 -97.406754 43.025787  -0.382031 -0.923859 -0.023155  0.403333 0.076144 1 0 1.000000
0  43.259789 -97.406754 44.388409  -0.382031 -0.923859 -0.023153  0.403333 0.076144 1 0 1.000000
misc
0  43.259789 -97.406754 44.388409  -0.382031 -0.923859 -0.023153  0.403333 0.076144 1 0 1.000000
0  41.071335 -96.498344 44.250767  -0.382030 -0.923860 -0.023150  0.403333 0.076144 1 0 1.000000
0  41.153919 -96.498344 42.888149  -0.382030 -0.923860 -0.023151  0.403333 0.076144 1 0 1.000000
misc
0  43.342369 -97.406754 43.025787  -0.057851 0.007455 0.998297  0.403333 0.076144 1 0 1.000000
0  41.153919 -96.498344 42.888149  -0.057938 0.007485 0.998292  0.403333 0.076144 1 0 1.000000
0  39.997753 -98.081177 42.833092  -0.059421 0.003984 0.998225  0.403333 0.076144 1 0 1.000000
misc
0  39.997753 -98.081177 42.833092  -0.059421 0.003984 0.998225  0.403333 0.076144 1 0 1.000000
0  43.094620 -99.361221 43.025787  -0.059657 0.004061 0.998211  0.403333 0.076144 1 0 1.000000
0  43.342369 -97.406754 43.025787  -0.057851 0.007455 0.998297  0.403333 0.076144 1 0 1.000000
misc
0  39.915173 -99.361221 44.195713  0.061074 0.000032 -0.998133  0.403333 0.076144 1 0 1.000000
0  42.103622 -100.269630 44.333355  0.061328 -0.000029 -0.998118  0.403333 0.076144 1 0 1.000000
0  40.823589 -100.269630 44.250767  0.060991 0.000009 -0.998138  0.403333 0.076144 1 0 1.000000
misc
0  39.915173 -98.081177 44.195713  0.059415 -0.003989 -0.998225  0.403333 0.076144 1 0 1.000000
0  43.012039 -99.361221 44.388409  0.059316 -0.003911 -0.998232  0.403333 0.076144 1 0 1.000000
0  42.103622 -100.269630 44.333355  0.061328 -0.000029 -0.998118  0.403333 0.076144 1 0 1.000000
misc
0  42.103622 -100.269630 44.333355  0.061328 -0.000029 -0.998118  0.403333 0.076144 1 0 1.000000
0  39.915173 -99.361221 44.195713  0.061074 0.000032 -0.998133  0.403333 0.076144 1 0 1.000000
0  39.915173 -98.081177 44.195713  0.059415 -0.003989 -0.998225  0.403333 0.076144 1 0 1.000000
misc
0  39.915173 -98.081177 44.195713  0.059415 -0.003989 -0.998225  0.403333 0.076144 1 0 1.000000
0  41.071335 -96.498344 44.250767  0.057851 -0.007443 -0.998298  0.403333 0.076144 1 0 1.000000
0  43.259789 -97.406754 44.388409  0.058263 -0.007584 -0.998273  0.403333 0.076144 1 0 1.000000
misc
0  43.259789 -97.406754 44.388409  0.058263 -0.007584 -0.998273  0.403333 0.076144 1 0 1.000000
0  43.012039 -99.361221 44.388409  0.059316 -0.003911 -0.998232  0.403333 0.076144 1 0 1.000000
0  39.915173 -98.081177 44.195713  0.059415 -0.003989 -0.998225  0.403333 0.076144 1 0 1.000000
misc
0  42.186207 -100.269630 42.970730  -0.061048 0.000032 0.998135  0.403333 0.076144 1 0 1.000000
0  39.997753 -99.361221 42.833092  -0.061135 -0.000041 0.998129  0.403333 0.076144 1 0 1.000000
0  40.906170 -100.269630 42.888149  -0.061005 -0.000037 0.998137  0.403333 0.076144 1 0 1.000000
misc
0  43.094620 -99.361221 43.025787  -0.059657 0.004061 0.998211  0.403333 0.076144 1 0 1.000000
0  39.997753 -98.081177 42.833092  -0.059421 0.003984 0.998225  0.403333 0.076144 1 0 1.000000
0  39.997753 -99.361221 42.833092  -0.061135 -0.000041 0.998129  0.403333 0.076144 1 0 1.000000
misc
0  39.997753 -99.361221 42.833092  -0.061135 -0.000041 0.998129  0.403333 0.076144 1 0 1.000000
0  42.186207 -100.269630 42.970730  -0.061048 0.000032 0.998135  0.403333 0.076144 1 0 1.000000
0  43.094620 -99.361221 43.025787  -0.059657 0.004061 0.998211  0.403333 0.076144 1 0 1.000000
misc
0  54.353451 -92.025078 49.783833  0.863032 -0.505149 0.000000  0.401379 0.077120 1 0 1.000000
0  52.880718 -93.139954 49.783833  0.603954 -0.797019 -0.000000  0.401379 0.077120 1 0 1.000000
0  52.880718 -93.139954 46.728260  0.604106 -0.796904 0.000000  0.401379 0.076144 1 0 1.000000
misc
0  52.880718 -93.139954 46.728260  0.604106 -0.796904 0.000000  0.401379 0.076144 1 0 1.000000
0  54.353451 -92.025078 46.728260  0.863073 -0.505079 0.000000  0.401379 0.076144 1 0 1.000000
0  54.353451 -92.025078 49.783833  0.863032 -0.505149 0.000000  0.401379 0.077120 1 0 1.000000
misc
0  51.435513 -91.240547 49.783833  -0.863100 0.505033 0.000000  0.402356 0.077120 1 0 1.000000
0  52.908249 -90.111908 49.783833  -0.604119 0.796894 -0.000000  0.401379 0.077120 1 0 1.000000
0  52.908249 -90.111908 46.728260  -0.604081 0.796923 0.000000  0.401379 0.076144 1 0 1.000000
misc
0  52.908249 -90.111908 46.728260  -0.604081 0.796923 0.000000  0.401379 0.076144 1 0 1.000000
0  51.435513 -91.240547 46.728260  -0.863076 0.505074 0.000000  0.402356 0.076144 1 0 1.000000
0  51.435513 -91.240547 49.783833  -0.863100 0.505033 0.000000  0.402356 0.077120 1 0 1.000000
misc
0  54.477322 -91.185493 46.728260  0.967437 0.253111 0.000000  0.401379 0.076144 1 0 1.000000
0  53.747841 -90.222015 46.728260  0.504948 0.863150 0.000001  0.401379 0.076144 1 0 1.000000
0  53.747841 -90.222015 49.783833  0.504942 0.863154 0.000000  0.401379 0.077120 1 0 1.000000
misc
0  53.747841 -90.222015 49.783833  0.504942 0.863154 0.000000  0.401379 0.077120 1 0 1.000000
0  54.477322 -91.185493 49.783833  0.967437 0.253111 -0.000002  0.401379 0.077120 1 0 1.000000
0  54.477322 -91.185493 46.728260  0.967437 0.253111 0.000000  0.401379 0.076144 1 0 1.000000
misc
0  52.041126 -93.029846 49.783833  -0.505098 -0.863062 0.000000  0.402356 0.077120 1 0 1.000000
0  51.311638 -92.080132 49.783833  -0.796916 -0.604090 -0.000000  0.402356 0.077120 1 0 1.000000
0  51.311638 -92.080132 46.728260  -0.796890 -0.604124 0.000000  0.402356 0.076144 1 0 1.000000
misc
0  51.311638 -92.080132 46.728260  -0.796890 -0.604124 0.000000  0.402356 0.076144 1 0 1.000000
0  52.041126 -93.029846 46.728260  -0.505083 -0.863071 -0.000003  0.402356 0.076144 1 0 1.000000
0  52.041126 -93.029846 49.783833  -0.505098 -0.863062 0.000000  0.402356 0.077120 1 0 1.000000
misc
0  54.353451 -92.025078 46.728260  -0.000003 0.000000 -1.000000  0.401379 0.076144 1 0 1.000000
0  52.880718 -93.139954 46.728260  -0.000001 0.000000 -1.000000  0.401379 0.076144 1 0 1.000000
0  51.435513 -91.240547 46.728260  0.000003 0.000000 -1.000000  0.402356 0.076144 1 0 1.000000
misc
0  51.435513 -91.240547 46.728260  0.000003 0.000000 -1.000000  0.402356 0.076144 1 0 1.000000
0  52.908249 -90.111908 46.728260  0.000003 0.000000 -1.000000  0.401379 0.076144 1 0 1.000000
0  54.353451 -92.025078 46.728260  -0.000003 0.000000 -1.000000  0.401379 0.076144 1 0 1.000000
misc
0  52.041126 -93.029846 49.783833  -0.505098 -0.863062 0.000000  0.402356 0.077120 1 0 1.000000
0  52.041126 -93.029846 46.728260  -0.505083 -0.863071 -0.000003  0.402356 0.076144 1 0 1.000000
0  52.880718 -93.139954 46.728260  -0.136350 -0.990661 0.000000  0.401379 0.076144 1 0 1.000000
misc
0  52.880718 -93.139954 46.728260  -0.136350 -0.990661 0.000000  0.401379 0.076144 1 0 1.000000
0  52.880718 -93.139954 49.783833  -0.136350 -0.990661 0.000000  0.401379 0.077120 1 0 1.000000
0  52.041126 -93.029846 49.783833  -0.505098 -0.863062 0.000000  0.402356 0.077120 1 0 1.000000
misc
0  54.477322 -91.185493 49.783833  0.967437 0.253111 -0.000002  0.401379 0.077120 1 0 1.000000
0  54.353451 -92.025078 49.783833  0.863032 -0.505149 0.000000  0.401379 0.077120 1 0 1.000000
0  54.353451 -92.025078 46.728260  0.863073 -0.505079 0.000000  0.401379 0.076144 1 0 1.000000
misc
0  54.353451 -92.025078 46.728260  0.863073 -0.505079 0.000000  0.401379 0.076144 1 0 1.000000
0  54.477322 -91.185493 46.728260  0.967437 0.253111 0.000000  0.401379 0.076144 1 0 1.000000
0  54.477322 -91.185493 49.783833  0.967437 0.253111 -0.000002  0.401379 0.077120 1 0 1.000000
misc
0  51.311638 -92.080132 46.728260  -0.990657 0.136377 0.000000  0.402356 0.076144 1 0 1.000000
0  51.311638 -92.080132 49.783833  -0.990664 0.136329 -0.000000  0.402356 0.077120 1 0 1.000000
0  51.435513 -91.240547 49.783833  -0.863100 0.505033 0.000000  0.402356 0.077120 1 0 1.000000
misc
0  51.435513 -91.240547 49.783833  -0.863100 0.505033 0.000000  0.402356 0.077120 1 0 1.000000
0  51.435513 -91.240547 46.728260  -0.863076 0.505074 0.000000  0.402356 0.076144 1 0 1.000000
0  51.311638 -92.080132 46.728260  -0.990657 0.136377 0.000000  0.402356 0.076144 1 0 1.000000
misc
0  53.747841 -90.222015 46.728260  0.504948 0.863150 0.000001  0.401379 0.076144 1 0 1.000000
0  52.908249 -90.111908 46.728260  0.136302 0.990667 0.000000  0.401379 0.076144 1 0 1.000000
0  52.908249 -90.111908 49.783833  0.136302 0.990667 0.000000  0.401379 0.077120 1 0 1.000000
misc
0  52.908249 -90.111908 49.783833  0.136302 0.990667 0.000000  0.401379 0.077120 1 0 1.000000
0  53.747841 -90.222015 49.783833  0.504942 0.863154 0.000000  0.401379 0.077120 1 0 1.000000
0  53.747841 -90.222015 46.728260  0.504948 0.863150 0.000001  0.401379 0.076144 1 0 1.000000
misc
0  54.477322 -91.185493 46.728260  -0.000008 0.000000 -1.000000  0.401379 0.076144 1 0 1.000000
0  54.353451 -92.025078 46.728260  -0.000003 0.000000 -1.000000  0.401379 0.076144 1 0 1.000000
0  52.908249 -90.111908 46.728260  0.000003 0.000000 -1.000000  0.401379 0.076144 1 0 1.000000
misc
0  52.908249 -90.111908 46.728260  0.000003 0.000000 -1.000000  0.401379 0.076144 1 0 1.000000
0  53.747841 -90.222015 46.728260  0.000010 0.000000 -1.000000  0.401379 0.076144 1 0 1.000000
0  54.477322 -91.185493 46.728260  -0.000008 0.000000 -1.000000  0.401379 0.076144 1 0 1.000000
misc
0  52.041126 -93.029846 46.728260  -0.000001 0.000000 -1.000000  0.402356 0.076144 1 0 1.000000
0  51.311638 -92.080132 46.728260  0.000010 0.000000 -1.000000  0.402356 0.076144 1 0 1.000000
0  51.435513 -91.240547 46.728260  0.000003 0.000000 -1.000000  0.402356 0.076144 1 0 1.000000
misc
0  51.435513 -91.240547 46.728260  0.000003 0.000000 -1.000000  0.402356 0.076144 1 0 1.000000
0  52.880718 -93.139954 46.728260  -0.000001 0.000000 -1.000000  0.401379 0.076144 1 0 1.000000
0  52.041126 -93.029846 46.728260  -0.000001 0.000000 -1.000000  0.402356 0.076144 1 0 1.000000
misc
0  55.220573 -91.914970 61.428055  0.663537 -0.401658 0.631181  0.414075 0.059542 1 0 1.000000
0  55.702305 -91.639694 60.794914  0.946714 -0.112433 0.301812  0.414075 0.060518 1 0 1.000000
0  55.592197 -89.217255 62.033661  0.928029 -0.115060 0.354293  0.411145 0.058565 1 0 1.000000
misc
0  55.592197 -89.217255 62.033661  0.928029 -0.115060 0.354293  0.411145 0.058565 1 0 1.000000
0  54.573673 -89.974274 63.354992  0.645076 -0.418629 0.639239  0.413099 0.056612 1 0 1.000000
0  55.220573 -91.914970 61.428055  0.663537 -0.401658 0.631181  0.414075 0.059542 1 0 1.000000
misc
0  52.701786 -95.755089 50.706017  0.067632 -0.607513 -0.791425  0.418958 0.073214 1 0 1.000000
0  52.137470 -96.112938 51.352913  -0.361706 -0.896810 -0.254756  0.418958 0.073214 1 0 1.000000
0  48.724037 -94.392471 50.100403  -0.318092 -0.886559 -0.335903  0.422864 0.074190 1 0 1.000000
misc
0  48.724037 -94.392471 50.100403  -0.318092 -0.886559 -0.335903  0.422864 0.074190 1 0 1.000000
0  49.962784 -93.456528 48.779076  0.069707 -0.589387 -0.804838  0.419935 0.078097 1 0 1.000000
0  52.701786 -95.755089 50.706017  0.067632 -0.607513 -0.791425  0.418958 0.073214 1 0 1.000000
misc
0  54.573673 -89.974274 63.354992  0.645076 -0.418629 0.639239  0.413099 0.056612 1 0 1.000000
0  50.430752 -93.098671 63.354992  0.224498 -0.735481 0.639272  0.420911 0.057588 1 0 1.000000
0  52.109943 -94.268593 61.428055  0.203500 -0.748512 0.631124  0.418958 0.059542 1 0 1.000000
misc
0  52.109943 -94.268593 61.428055  0.203500 -0.748512 0.631124  0.418958 0.059542 1 0 1.000000
0  55.220573 -91.914970 61.428055  0.663537 -0.401658 0.631181  0.414075 0.059542 1 0 1.000000
0  54.573673 -89.974274 63.354992  0.645076 -0.418629 0.639239  0.413099 0.056612 1 0 1.000000
misc
0  49.412231 -93.869446 62.033661  -0.133872 -0.934402 0.330107  0.421888 0.058565 1 0 1.000000
0  51.710793 -94.640221 60.794914  -0.201014 -0.943912 0.261961  0.418958 0.060518 1 0 1.000000
0  52.109943 -94.268593 61.428055  0.203500 -0.748512 0.631124  0.418958 0.059542 1 0 1.000000
misc
0  52.109943 -94.268593 61.428055  0.203500 -0.748512 0.631124  0.418958 0.059542 1 0 1.000000
0  50.430752 -93.098671 63.354992  0.224498 -0.735481 0.639272  0.420911 0.057588 1 0 1.000000
0  49.412231 -93.869446 62.033661  -0.133872 -0.934402 0.330107  0.421888 0.058565 1 0 1.000000
misc
0  51.710793 -94.640221 60.794914  -0.201014 -0.943912 0.261961  0.418958 0.060518 1 0 1.000000
0  49.412231 -93.869446 62.033661  -0.133872 -0.934402 0.330107  0.421888 0.058565 1 0 1.000000
0  48.724037 -94.392471 50.100403  -0.318092 -0.886559 -0.335903  0.422864 0.074190 1 0 1.000000
misc
0  48.724037 -94.392471 50.100403  -0.318092 -0.886559 -0.335903  0.422864 0.074190 1 0 1.000000
0  52.137470 -96.112938 51.352913  -0.361706 -0.896810 -0.254756  0.418958 0.073214 1 0 1.000000
0  51.710793 -94.640221 60.794914  -0.201014 -0.943912 0.261961  0.418958 0.060518 1 0 1.000000
misc
0  56.280384 -88.694237 50.100403  0.932729 0.072937 -0.353124  0.409192 0.074190 1 0 1.000000
0  56.996109 -92.437996 51.352913  0.958655 0.077211 -0.273897  0.413099 0.072237 1 0 1.000000
0  56.500610 -92.892212 50.706017  0.565510 -0.232203 -0.791379  0.414075 0.073214 1 0 1.000000
misc
0  56.500610 -92.892212 50.706017  0.565510 -0.232203 -0.791379  0.414075 0.073214 1 0 1.000000
0  55.041637 -89.630173 48.779076  0.547401 -0.229126 -0.804893  0.413099 0.078097 1 0 1.000000
0  56.280384 -88.694237 50.100403  0.932729 0.072937 -0.353124  0.409192 0.074190 1 0 1.000000
misc
0  55.592197 -89.217255 62.033661  0.928029 -0.115060 0.354293  0.411145 0.058565 1 0 1.000000
0  55.702305 -91.639694 60.794914  0.946714 -0.112433 0.301812  0.414075 0.060518 1 0 1.000000
0  56.996109 -92.437996 51.352913  0.958655 0.077211 -0.273897  0.413099 0.072237 1 0 1.000000
misc
0  56.996109 -92.437996 51.352913  0.958655 0.077211 -0.273897  0.413099 0.072237 1 0 1.000000
0  56.280384 -88.694237 50.100403  0.932729 0.072937 -0.353124  0.409192 0.074190 1 0 1.000000
0  55.592197 -89.217255 62.033661  0.928029 -0.115060 0.354293  0.411145 0.058565 1 0 1.000000
misc
0  49.962784 -93.456528 48.779076  0.069707 -0.589387 -0.804838  0.419935 0.078097 1 0 1.000000
0  55.041637 -89.630173 48.779076  0.547401 -0.229126 -0.804893  0.413099 0.078097 1 0 1.000000
0  56.500610 -92.892212 50.706017  0.565510 -0.232203 -0.791379  0.414075 0.073214 1 0 1.000000
misc
0  56.500610 -92.892212 50.706017  0.565510 -0.232203 -0.791379  0.414075 0.073214 1 0 1.000000
0  52.701786 -95.755089 50.706017  0.067632 -0.607513 -0.791425  0.418958 0.073214 1 0 1.000000
0  49.962784 -93.456528 48.779076  0.069707 -0.589387 -0.804838  0.419935 0.078097 1 0 1.000000
misc
0  55.220573 -91.914970 61.428055  0.599307 -0.794911 0.094596  0.414075 0.059542 1 0 1.000000
0  52.109943 -94.268593 61.428055  0.599319 -0.794909 0.094534  0.418958 0.059542 1 0 1.000000
0  51.710793 -94.640221 60.794914  0.596788 -0.791761 0.130226  0.418958 0.060518 1 0 1.000000
misc
0  51.710793 -94.640221 60.794914  0.596788 -0.791761 0.130226  0.418958 0.060518 1 0 1.000000
0  55.702305 -91.639694 60.794914  0.596855 -0.791664 0.130506  0.414075 0.060518 1 0 1.000000
0  55.220573 -91.914970 61.428055  0.599307 -0.794911 0.094596  0.414075 0.059542 1 0 1.000000
misc
0  54.573673 -89.974274 63.354992  0.312451 0.235515 0.920275  0.354503 0.031220 1 0 1.000000
0  55.592197 -89.217255 62.033661  0.729510 0.549735 0.406948  0.354503 0.031220 1 0 1.000000
0  54.807655 -88.171204 62.033661  0.729445 0.549789 0.406991  0.354503 0.031220 1 0 1.000000
misc
0  54.807655 -88.171204 62.033661  0.729445 0.549789 0.406991  0.354503 0.031220 1 0 1.000000
0  53.789135 -88.941978 63.354992  0.312470 0.235648 0.920235  0.354503 0.031220 1 0 1.000000
0  54.573673 -89.974274 63.354992  0.312451 0.235515 0.920275  0.354503 0.031220 1 0 1.000000
misc
0  55.495850 -87.648186 50.100403  0.736215 0.555223 -0.386930  0.354503 0.031220 1 0 1.000000
0  54.807655 -88.171204 62.033661  0.729445 0.549789 0.406991  0.354503 0.031220 1 0 1.000000
0  55.592197 -89.217255 62.033661  0.729510 0.549735 0.406948  0.354503 0.031220 1 0 1.000000
misc
0  55.592197 -89.217255 62.033661  0.729510 0.549735 0.406948  0.354503 0.031220 1 0 1.000000
0  56.280384 -88.694237 50.100403  0.736370 0.555069 -0.386856  0.354503 0.031220 1 0 1.000000
0  55.495850 -87.648186 50.100403  0.736215 0.555223 -0.386930  0.354503 0.031220 1 0 1.000000
misc
0  48.627689 -92.837166 62.033661  -0.729250 -0.550012 0.407040  0.354503 0.031220 1 0 1.000000
0  49.412231 -93.869446 62.033661  -0.729371 -0.549887 0.406992  0.354503 0.031220 1 0 1.000000
0  50.430752 -93.098671 63.354992  -0.312432 -0.235643 0.920249  0.354503 0.031220 1 0 1.000000
misc
0  50.430752 -93.098671 63.354992  -0.312432 -0.235643 0.920249  0.354503 0.031220 1 0 1.000000
0  49.646214 -92.066376 63.354992  -0.312499 -0.235673 0.920219  0.354503 0.031220 1 0 1.000000
0  48.627689 -92.837166 62.033661  -0.729250 -0.550012 0.407040  0.354503 0.031220 1 0 1.000000
misc
0  49.646214 -92.066376 63.354992  -0.312499 -0.235673 0.920219  0.354503 0.031220 1 0 1.000000
0  50.430752 -93.098671 63.354992  -0.312432 -0.235643 0.920249  0.354503 0.031220 1 0 1.000000
0  54.573673 -89.974274 63.354992  0.312451 0.235515 0.920275  0.354503 0.031220 1 0 1.000000
misc
0  54.573673 -89.974274 63.354992  0.312451 0.235515 0.920275  0.354503 0.031220 1 0 1.000000
0  53.789135 -88.941978 63.354992  0.312470 0.235648 0.920235  0.354503 0.031220 1 0 1.000000
0  49.646214 -92.066376 63.354992  -0.312499 -0.235673 0.920219  0.354503 0.031220 1 0 1.000000
misc
0  55.495850 -87.648186 50.100403  0.736215 0.555223 -0.386930  0.354503 0.031220 1 0 1.000000
0  56.280384 -88.694237 50.100403  0.736370 0.555069 -0.386856  0.354503 0.031220 1 0 1.000000
0  55.041637 -89.630173 48.779076  0.275324 0.208244 -0.938526  0.354503 0.031220 1 0 1.000000
misc
0  55.041637 -89.630173 48.779076  0.275324 0.208244 -0.938526  0.354503 0.031220 1 0 1.000000
0  54.257103 -88.597878 48.779076  0.275426 0.207686 -0.938620  0.354503 0.031220 1 0 1.000000
0  55.495850 -87.648186 50.100403  0.736215 0.555223 -0.386930  0.354503 0.031220 1 0 1.000000
misc
0  49.178242 -92.410477 48.779076  -0.275619 -0.207483 -0.938608  0.354503 0.031220 1 0 1.000000
0  54.257103 -88.597878 48.779076  0.275426 0.207686 -0.938620  0.354503 0.031220 1 0 1.000000
0  55.041637 -89.630173 48.779076  0.275324 0.208244 -0.938526  0.354503 0.031220 1 0 1.000000
misc
0  55.041637 -89.630173 48.779076  0.275324 0.208244 -0.938526  0.354503 0.031220 1 0 1.000000
0  49.962784 -93.456528 48.779076  -0.275494 -0.207675 -0.938602  0.354503 0.031220 1 0 1.000000
0  49.178242 -92.410477 48.779076  -0.275619 -0.207483 -0.938608  0.354503 0.031220 1 0 1.000000
misc
0  49.962784 -93.456528 48.779076  -0.275494 -0.207675 -0.938602  0.354503 0.031220 1 0 1.000000
0  48.724037 -94.392471 50.100403  -0.736498 -0.554945 -0.386790  0.354503 0.031220 1 0 1.000000
0  47.939495 -93.346420 50.100403  -0.736359 -0.555077 -0.386867  0.354503 0.031220 1 0 1.000000
misc
0  47.939495 -93.346420 50.100403  -0.736359 -0.555077 -0.386867  0.354503 0.031220 1 0 1.000000
0  49.178242 -92.410477 48.779076  -0.275619 -0.207483 -0.938608  0.354503 0.031220 1 0 1.000000
0  49.962784 -93.456528 48.779076  -0.275494 -0.207675 -0.938602  0.354503 0.031220 1 0 1.000000
misc
0  48.627689 -92.837166 62.033661  -0.729250 -0.550012 0.407040  0.354503 0.031220 1 0 1.000000
0  47.939495 -93.346420 50.100403  -0.736359 -0.555077 -0.386867  0.354503 0.031220 1 0 1.000000
0  48.724037 -94.392471 50.100403  -0.736498 -0.554945 -0.386790  0.354503 0.031220 1 0 1.000000
misc
0  48.724037 -94.392471 50.100403  -0.736498 -0.554945 -0.386790  0.354503 0.031220 1 0 1.000000
0  49.412231 -93.869446 62.033661  -0.729371 -0.549887 0.406992  0.354503 0.031220 1 0 1.000000
0  48.627689 -92.837166 62.033661  -0.729250 -0.550012 0.407040  0.354503 0.031220 1 0 1.000000
misc
0  54.807655 -88.171204 62.033661  -0.884892 0.388440 -0.257061  0.423841 0.056612 1 0 1.000000
0  54.752602 -88.625404 61.551929  -0.941044 0.297424 -0.161167  0.422864 0.057588 1 0 1.000000
0  53.816662 -89.327377 62.790672  -0.682914 0.588008 -0.433446  0.420911 0.055635 1 0 1.000000
misc
0  53.816662 -89.327377 62.790672  -0.682914 0.588008 -0.433446  0.420911 0.055635 1 0 1.000000
0  53.789135 -88.941978 63.354992  -0.675700 0.593054 -0.437855  0.421888 0.054659 1 0 1.000000
0  54.807655 -88.171204 62.033661  -0.884892 0.388440 -0.257061  0.423841 0.056612 1 0 1.000000
misc
0  55.371971 -88.157440 50.595909  -0.936733 0.331457 0.112549  0.423841 0.077120 1 0 1.000000
0  54.752602 -88.625404 61.551929  -0.941044 0.297424 -0.161167  0.422864 0.057588 1 0 1.000000
0  54.807655 -88.171204 62.033661  -0.884892 0.388440 -0.257061  0.423841 0.056612 1 0 1.000000
misc
0  54.807655 -88.171204 62.033661  -0.884892 0.388440 -0.257061  0.423841 0.056612 1 0 1.000000
0  55.495850 -87.648186 50.100403  -0.873415 0.428549 0.231282  0.424818 0.078097 1 0 1.000000
0  55.371971 -88.157440 50.595909  -0.936733 0.331457 0.112549  0.423841 0.077120 1 0 1.000000
misc
0  50.017838 -92.190262 62.790672  -0.377566 0.818251 -0.433484  0.412122 0.055635 1 0 1.000000
0  49.646214 -92.066376 63.354992  -0.383513 0.813007 -0.438106  0.412122 0.054659 1 0 1.000000
0  53.789135 -88.941978 63.354992  -0.675700 0.593054 -0.437855  0.421888 0.054659 1 0 1.000000
misc
0  53.789135 -88.941978 63.354992  -0.675700 0.593054 -0.437855  0.421888 0.054659 1 0 1.000000
0  53.816662 -89.327377 62.790672  -0.682914 0.588008 -0.433446  0.420911 0.055635 1 0 1.000000
0  50.017838 -92.190262 62.790672  -0.377566 0.818251 -0.433484  0.412122 0.055635 1 0 1.000000
misc
0  48.627689 -92.837166 62.033661  -0.130013 0.957603 -0.257087  0.409192 0.056612 1 0 1.000000
0  49.646214 -92.066376 63.354992  -0.383513 0.813007 -0.438106  0.412122 0.054659 1 0 1.000000
0  50.017838 -92.190262 62.790672  -0.377566 0.818251 -0.433484  0.412122 0.055635 1 0 1.000000
misc
0  50.017838 -92.190262 62.790672  -0.377566 0.818251 -0.433484  0.412122 0.055635 1 0 1.000000
0  49.081898 -92.892220 61.551929  -0.027218 0.986543 -0.161223  0.410169 0.057588 1 0 1.000000
0  48.627689 -92.837166 62.033661  -0.130013 0.957603 -0.257087  0.409192 0.056612 1 0 1.000000
misc
0  55.495850 -87.648186 50.100403  -0.873415 0.428549 0.231282  0.424818 0.078097 1 0 1.000000
0  54.257103 -88.597878 48.779076  -0.665604 0.607265 0.433821  0.422864 0.081027 1 0 1.000000
0  54.243340 -89.010796 49.343391  -0.653348 0.616596 0.439255  0.421888 0.080050 1 0 1.000000
misc
0  54.243340 -89.010796 49.343391  -0.653348 0.616596 0.439255  0.421888 0.080050 1 0 1.000000
0  55.371971 -88.157440 50.595909  -0.936733 0.331457 0.112549  0.423841 0.077120 1 0 1.000000
0  55.495850 -87.648186 50.100403  -0.873415 0.428549 0.231282  0.424818 0.078097 1 0 1.000000
misc
0  49.178242 -92.410477 48.779076  -0.400672 0.806973 0.433885  0.410169 0.081027 1 0 1.000000
0  49.591156 -92.520584 49.343391  -0.413057 0.797741 0.439311  0.411145 0.080050 1 0 1.000000
0  54.243340 -89.010796 49.343391  -0.653348 0.616596 0.439255  0.421888 0.080050 1 0 1.000000
misc
0  54.243340 -89.010796 49.343391  -0.653348 0.616596 0.439255  0.421888 0.080050 1 0 1.000000
0  54.257103 -88.597878 48.779076  -0.665604 0.607265 0.433821  0.422864 0.081027 1 0 1.000000
0  49.178242 -92.410477 48.779076  -0.400672 0.806973 0.433885  0.410169 0.081027 1 0 1.000000
misc
0  47.939495 -93.346420 50.100403  -0.171703 0.957602 0.231337  0.407239 0.078097 1 0 1.000000
0  48.448757 -93.373947 50.595909  -0.061106 0.991756 0.112632  0.409192 0.077120 1 0 1.000000
0  49.591156 -92.520584 49.343391  -0.413057 0.797741 0.439311  0.411145 0.080050 1 0 1.000000
misc
0  49.591156 -92.520584 49.343391  -0.413057 0.797741 0.439311  0.411145 0.080050 1 0 1.000000
0  49.178242 -92.410477 48.779076  -0.400672 0.806973 0.433885  0.410169 0.081027 1 0 1.000000
0  47.939495 -93.346420 50.100403  -0.171703 0.957602 0.231337  0.407239 0.078097 1 0 1.000000
misc
0  49.081898 -92.892220 61.551929  -0.027218 0.986543 -0.161223  0.410169 0.057588 1 0 1.000000
0  48.448757 -93.373947 50.595909  -0.061106 0.991756 0.112632  0.409192 0.077120 1 0 1.000000
0  47.939495 -93.346420 50.100403  -0.171703 0.957602 0.231337  0.407239 0.078097 1 0 1.000000
misc
0  47.939495 -93.346420 50.100403  -0.171703 0.957602 0.231337  0.407239 0.078097 1 0 1.000000
0  48.627689 -92.837166 62.033661  -0.130013 0.957603 -0.257087  0.409192 0.056612 1 0 1.000000
0  49.081898 -92.892220 61.551929  -0.027218 0.986543 -0.161223  0.410169 0.057588 1 0 1.000000
misc
0  52.701786 -95.755089 50.706017  0.599322 -0.794897 0.094611  0.418958 0.073214 1 0 1.000000
0  56.500610 -92.892212 50.706017  0.599304 -0.794912 0.094603  0.414075 0.073214 1 0 1.000000
0  56.996109 -92.437996 51.352913  0.596920 -0.791527 0.131038  0.413099 0.072237 1 0 1.000000
misc
0  56.996109 -92.437996 51.352913  0.596920 -0.791527 0.131038  0.413099 0.072237 1 0 1.000000
0  52.137470 -96.112938 51.352913  0.596869 -0.791589 0.130900  0.418958 0.073214 1 0 1.000000
0  52.701786 -95.755089 50.706017  0.599322 -0.794897 0.094611  0.418958 0.073214 1 0 1.000000
misc
0  52.137470 -96.112938 51.352913  0.596869 -0.791589 0.130900  0.418958 0.073214 1 0 1.000000
0  56.996109 -92.437996 51.352913  0.596920 -0.791527 0.131038  0.413099 0.072237 1 0 1.000000
0  55.702305 -91.639694 60.794914  0.596855 -0.791664 0.130506  0.414075 0.060518 1 0 1.000000
misc
0  55.702305 -91.639694 60.794914  0.596855 -0.791664 0.130506  0.414075 0.060518 1 0 1.000000
0  51.710793 -94.640221 60.794914  0.596788 -0.791761 0.130226  0.418958 0.060518 1 0 1.000000
0  52.137470 -96.112938 51.352913  0.596869 -0.791589 0.130900  0.418958 0.073214 1 0 1.000000
misc
0  55.371971 -88.157440 50.595909  -0.601898 0.798572 -0.000594  0.429701 0.084933 1 0 1.000000
0  54.243340 -89.010796 49.343391  -0.602113 0.798411 -0.000436  0.425794 0.087863 1 0 1.000000
0  49.591156 -92.520584 49.343391  -0.602026 0.798477 -0.000032  0.406262 0.087863 1 0 1.000000
misc
0  49.591156 -92.520584 49.343391  -0.602026 0.798477 -0.000032  0.406262 0.087863 1 0 1.000000
0  48.448757 -93.373947 50.595909  -0.602022 0.798480 -0.000034  0.402356 0.084933 1 0 1.000000
0  55.371971 -88.157440 50.595909  -0.601898 0.798572 -0.000594  0.429701 0.084933 1 0 1.000000
misc
0  54.752602 -88.625404 61.551929  -0.601395 0.798952 -0.000603  0.429701 0.047822 1 0 1.000000
0  55.371971 -88.157440 50.595909  -0.601898 0.798572 -0.000594  0.429701 0.084933 1 0 1.000000
0  48.448757 -93.373947 50.595909  -0.602022 0.798480 -0.000034  0.402356 0.084933 1 0 1.000000
misc
0  48.448757 -93.373947 50.595909  -0.602022 0.798480 -0.000034  0.402356 0.084933 1 0 1.000000
0  49.081898 -92.892220 61.551929  -0.601769 0.798670 0.000064  0.402356 0.047822 1 0 1.000000
0  54.752602 -88.625404 61.551929  -0.601395 0.798952 -0.000603  0.429701 0.047822 1 0 1.000000
misc
0  53.816662 -89.327377 62.790672  -0.601974 0.798516 -0.000079  0.425794 0.043916 1 0 1.000000
0  54.752602 -88.625404 61.551929  -0.601395 0.798952 -0.000603  0.429701 0.047822 1 0 1.000000
0  49.081898 -92.892220 61.551929  -0.601769 0.798670 0.000064  0.402356 0.047822 1 0 1.000000
misc
0  49.081898 -92.892220 61.551929  -0.601769 0.798670 0.000064  0.402356 0.047822 1 0 1.000000
0  50.017838 -92.190262 62.790672  -0.602024 0.798478 0.000039  0.406262 0.043916 1 0 1.000000
0  53.816662 -89.327377 62.790672  -0.601974 0.798516 -0.000079  0.425794 0.043916 1 0 1.000000
end
