version 1
nodes
0 "root" -1
end
skeleton
time 0
0  0.000000 0.000000 0.000000  0.000000 -0.000000 0.000000
end
triangles
misc
0  -41.153896 -96.498344 42.888157  0.887047 0.458470 -0.054342  0.403333 0.076144 1 0 1.000000
0  -39.997730 -98.081177 42.833099  0.948824 0.310435 -0.057992  0.403333 0.076144 1 0 1.000000
0  -40.066551 -98.081177 41.828339  0.948314 0.311991 -0.057978  0.403333 0.075167 1 0 1.000000
misc
0  -40.066551 -98.081177 41.828339  0.948314 0.311991 -0.057978  0.403333 0.075167 1 0 1.000000
0  -41.222713 -96.498344 41.883392  0.869073 0.491824 -0.053118  0.403333 0.075167 1 0 1.000000
0  -41.153896 -96.498344 42.888157  0.887047 0.458470 -0.054342  0.403333 0.076144 1 0 1.000000
misc
0  -39.997730 -98.081177 42.833099  0.948824 0.310435 -0.057992  0.403333 0.076144 1 0 1.000000
0  -39.997730 -99.361221 42.833099  0.998137 0.000000 -0.061016  0.403333 0.076144 1 0 1.000000
0  -40.066551 -99.361221 41.828339  0.998140 0.000000 -0.060968  0.403333 0.075167 1 0 1.000000
misc
0  -40.066551 -99.361221 41.828339  0.998140 0.000000 -0.060968  0.403333 0.075167 1 0 1.000000
0  -40.066551 -98.081177 41.828339  0.948314 0.311991 -0.057978  0.403333 0.075167 1 0 1.000000
0  -39.997730 -98.081177 42.833099  0.948824 0.310435 -0.057992  0.403333 0.076144 1 0 1.000000
misc
0  -39.997730 -99.361221 42.833099  0.705809 -0.707088 -0.043131  0.403333 0.076144 1 0 1.000000
0  -40.906147 -100.269630 42.888157  0.382003 -0.923865 -0.023397  0.403333 0.076144 1 0 1.000000
0  -40.961201 -100.269630 41.883392  0.381991 -0.923871 -0.023349  0.403333 0.075167 1 0 1.000000
misc
0  -40.961201 -100.269630 41.883392  0.381991 -0.923871 -0.023349  0.403333 0.075167 1 0 1.000000
0  -40.066551 -99.361221 41.828339  0.705799 -0.707098 -0.043127  0.403333 0.075167 1 0 1.000000
0  -39.997730 -99.361221 42.833099  0.705809 -0.707088 -0.043131  0.403333 0.076144 1 0 1.000000
misc
0  -40.906147 -100.269630 42.888157  0.382003 -0.923865 -0.023397  0.403333 0.076144 1 0 1.000000
0  -42.186184 -100.269630 42.970737  -0.382007 -0.923866 0.023288  0.403333 0.076144 1 0 1.000000
0  -42.241241 -100.269630 41.952213  -0.381925 -0.923903 0.023173  0.403333 0.075167 1 0 1.000000
misc
0  -42.241241 -100.269630 41.952213  -0.381925 -0.923903 0.023173  0.403333 0.075167 1 0 1.000000
0  -40.961201 -100.269630 41.883392  0.381991 -0.923871 -0.023349  0.403333 0.075167 1 0 1.000000
0  -40.906147 -100.269630 42.888157  0.382003 -0.923865 -0.023397  0.403333 0.076144 1 0 1.000000
misc
0  -42.186184 -100.269630 42.970737  -0.382007 -0.923866 0.023288  0.403333 0.076144 1 0 1.000000
0  -43.094597 -99.361221 43.025795  -0.895463 -0.441757 0.054747  0.403333 0.076144 1 0 1.000000
0  -43.149654 -99.361221 42.007271  -0.896201 -0.440255 0.054761  0.403333 0.076144 1 0 1.000000
misc
0  -43.149654 -99.361221 42.007271  -0.896201 -0.440255 0.054761  0.403333 0.076144 1 0 1.000000
0  -42.241241 -100.269630 41.952213  -0.381925 -0.923903 0.023173  0.403333 0.075167 1 0 1.000000
0  -42.186184 -100.269630 42.970737  -0.382007 -0.923866 0.023288  0.403333 0.076144 1 0 1.000000
misc
0  -43.149654 -99.361221 42.007271  -0.896201 -0.440255 0.054761  0.403333 0.076144 1 0 1.000000
0  -43.094597 -99.361221 43.025795  -0.895463 -0.441757 0.054747  0.403333 0.076144 1 0 1.000000
0  -43.342346 -97.406754 43.025795  -0.951225 -0.302992 0.058020  0.403333 0.076144 1 0 1.000000
misc
0  -43.342346 -97.406754 43.025795  -0.951225 -0.302992 0.058020  0.403333 0.076144 1 0 1.000000
0  -43.397400 -97.406754 42.007271  -0.963486 -0.261209 0.058854  0.403333 0.076144 1 0 1.000000
0  -43.149654 -99.361221 42.007271  -0.896201 -0.440255 0.054761  0.403333 0.076144 1 0 1.000000
misc
0  -53.155972 -91.034096 47.691742  -0.942098 0.321660 0.094797  0.401379 0.076144 1 0 1.000000
0  -53.610176 -92.382957 47.719269  -0.942181 0.321458 0.094658  0.401379 0.076144 1 0 1.000000
0  -53.486305 -92.382957 48.971775  -0.942064 0.321723 0.094913  0.401379 0.077120 1 0 1.000000
misc
0  -53.486305 -92.382957 48.971775  -0.942064 0.321723 0.094913  0.401379 0.077120 1 0 1.000000
0  -53.018333 -91.034096 48.944248  -0.942093 0.321671 0.094803  0.401379 0.077120 1 0 1.000000
0  -53.155972 -91.034096 47.691742  -0.942098 0.321660 0.094797  0.401379 0.076144 1 0 1.000000
misc
0  -42.241241 -100.269630 41.952213  -0.060963 0.000002 -0.998140  0.403333 0.075167 1 0 1.000000
0  -40.066551 -99.361221 41.828339  -0.060959 -0.000004 -0.998140  0.403333 0.075167 1 0 1.000000
0  -40.961201 -100.269630 41.883392  -0.060953 -0.000012 -0.998141  0.403333 0.075167 1 0 1.000000
misc
0  -43.397400 -97.406754 42.007271  -0.055117 -0.014119 -0.998380  0.403333 0.076144 1 0 1.000000
0  -41.222713 -96.498344 41.883392  -0.055091 -0.014116 -0.998381  0.403333 0.075167 1 0 1.000000
0  -40.066551 -98.081177 41.828339  -0.059358 -0.003968 -0.998229  0.403333 0.075167 1 0 1.000000
misc
0  -40.066551 -98.081177 41.828339  -0.059358 -0.003968 -0.998229  0.403333 0.075167 1 0 1.000000
0  -43.149654 -99.361221 42.007271  -0.059336 -0.003929 -0.998230  0.403333 0.076144 1 0 1.000000
0  -43.397400 -97.406754 42.007271  -0.055117 -0.014119 -0.998380  0.403333 0.076144 1 0 1.000000
misc
0  -42.048546 -100.269630 45.296829  0.060898 -0.000004 0.998144  0.403333 0.076144 1 0 1.000000
0  -40.768505 -100.269630 45.214249  0.060974 -0.000001 0.998139  0.403333 0.076144 1 0 1.000000
0  -39.860092 -99.361221 45.159187  0.061102 -0.000035 0.998132  0.403333 0.076144 1 0 1.000000
misc
0  -39.860092 -98.081177 45.159187  0.059354 0.003975 0.998229  0.403333 0.076144 1 0 1.000000
0  -41.016258 -96.498344 45.214249  0.055443 0.014336 0.998359  0.403333 0.076144 1 0 1.000000
0  -43.204708 -97.406754 45.351887  0.055469 0.014278 0.998358  0.403333 0.076144 1 0 1.000000
misc
0  -43.204708 -97.406754 45.351887  0.055469 0.014278 0.998358  0.403333 0.076144 1 0 1.000000
0  -42.943195 -99.361221 45.351887  0.059230 0.003900 0.998237  0.403333 0.076144 1 0 1.000000
0  -39.860092 -98.081177 45.159187  0.059354 0.003975 0.998229  0.403333 0.076144 1 0 1.000000
misc
0  -40.768505 -100.269630 45.214249  0.381748 -0.923977 -0.023106  0.403333 0.076144 1 0 1.000000
0  -42.048546 -100.269630 45.296829  -0.382212 -0.923777 0.023445  0.403333 0.076144 1 0 1.000000
0  -42.103600 -100.269630 44.333363  -0.381964 -0.923882 0.023344  0.403333 0.076144 1 0 1.000000
misc
0  -42.103600 -100.269630 44.333363  -0.381964 -0.923882 0.023344  0.403333 0.076144 1 0 1.000000
0  -40.823566 -100.269630 44.250774  0.382074 -0.923841 -0.023165  0.403333 0.076144 1 0 1.000000
0  -40.768505 -100.269630 45.214249  0.381748 -0.923977 -0.023106  0.403333 0.076144 1 0 1.000000
misc
0  -39.860092 -99.361221 45.159187  0.705808 -0.707084 -0.043206  0.403333 0.076144 1 0 1.000000
0  -40.768505 -100.269630 45.214249  0.381748 -0.923977 -0.023106  0.403333 0.076144 1 0 1.000000
0  -40.823566 -100.269630 44.250774  0.382074 -0.923841 -0.023165  0.403333 0.076144 1 0 1.000000
misc
0  -40.823566 -100.269630 44.250774  0.382074 -0.923841 -0.023165  0.403333 0.076144 1 0 1.000000
0  -39.915150 -99.361221 44.195721  0.705794 -0.707101 -0.043161  0.403333 0.076144 1 0 1.000000
0  -39.860092 -99.361221 45.159187  0.705808 -0.707084 -0.043206  0.403333 0.076144 1 0 1.000000
misc
0  -39.860092 -98.081177 45.159187  0.948822 0.310446 -0.057960  0.403333 0.076144 1 0 1.000000
0  -39.860092 -99.361221 45.159187  0.998142 0.000000 -0.060928  0.403333 0.076144 1 0 1.000000
0  -39.915150 -99.361221 44.195721  0.998139 0.000000 -0.060976  0.403333 0.076144 1 0 1.000000
misc
0  -39.915150 -99.361221 44.195721  0.998139 0.000000 -0.060976  0.403333 0.076144 1 0 1.000000
0  -39.915150 -98.081177 44.195721  0.948334 0.311963 -0.057800  0.403333 0.076144 1 0 1.000000
0  -39.860092 -98.081177 45.159187  0.948822 0.310446 -0.057960  0.403333 0.076144 1 0 1.000000
misc
0  -41.016258 -96.498344 45.214249  0.867946 0.493835 -0.052883  0.403333 0.076144 1 0 1.000000
0  -39.860092 -98.081177 45.159187  0.948822 0.310446 -0.057960  0.403333 0.076144 1 0 1.000000
0  -39.915150 -98.081177 44.195721  0.948334 0.311963 -0.057800  0.403333 0.076144 1 0 1.000000
misc
0  -39.915150 -98.081177 44.195721  0.948334 0.311963 -0.057800  0.403333 0.076144 1 0 1.000000
0  -41.071312 -96.498344 44.250774  0.887335 0.457951 -0.054004  0.403333 0.076144 1 0 1.000000
0  -41.016258 -96.498344 45.214249  0.867946 0.493835 -0.052883  0.403333 0.076144 1 0 1.000000
misc
0  -43.012016 -99.361221 44.388416  -0.896204 -0.440244 0.054805  0.403333 0.076144 1 0 1.000000
0  -42.943195 -99.361221 45.351887  -0.895465 -0.441754 0.054728  0.403333 0.076144 1 0 1.000000
0  -43.204708 -97.406754 45.351887  -0.964198 -0.258565 0.058866  0.403333 0.076144 1 0 1.000000
misc
0  -43.204708 -97.406754 45.351887  -0.964198 -0.258565 0.058866  0.403333 0.076144 1 0 1.000000
0  -43.259766 -97.406754 44.388416  -0.951088 -0.303450 0.057878  0.403333 0.076144 1 0 1.000000
0  -43.012016 -99.361221 44.388416  -0.896204 -0.440244 0.054805  0.403333 0.076144 1 0 1.000000
misc
0  -42.048546 -100.269630 45.296829  -0.382212 -0.923777 0.023445  0.403333 0.076144 1 0 1.000000
0  -42.943195 -99.361221 45.351887  -0.895465 -0.441754 0.054728  0.403333 0.076144 1 0 1.000000
0  -43.012016 -99.361221 44.388416  -0.896204 -0.440244 0.054805  0.403333 0.076144 1 0 1.000000
misc
0  -43.012016 -99.361221 44.388416  -0.896204 -0.440244 0.054805  0.403333 0.076144 1 0 1.000000
0  -42.103600 -100.269630 44.333363  -0.381964 -0.923882 0.023344  0.403333 0.076144 1 0 1.000000
0  -42.048546 -100.269630 45.296829  -0.382212 -0.923777 0.023445  0.403333 0.076144 1 0 1.000000
misc
0  -41.828323 -95.053139 41.883392  0.920199 0.387392 -0.056227  0.403333 0.075167 1 0 1.000000
0  -41.153896 -96.498344 42.888157  0.887047 0.458470 -0.054342  0.403333 0.076144 1 0 1.000000
0  -41.222713 -96.498344 41.883392  0.869073 0.491824 -0.053118  0.403333 0.075167 1 0 1.000000
misc
0  -41.828323 -95.053139 41.883392  -0.051855 -0.021828 -0.998416  0.403333 0.075167 1 0 1.000000
0  -41.222713 -96.498344 41.883392  -0.055091 -0.014116 -0.998381  0.403333 0.075167 1 0 1.000000
0  -43.397400 -97.406754 42.007271  -0.055117 -0.014119 -0.998380  0.403333 0.076144 1 0 1.000000
misc
0  -43.397400 -97.406754 42.007271  -0.055117 -0.014119 -0.998380  0.403333 0.076144 1 0 1.000000
0  -44.016777 -95.961548 42.007271  -0.051905 -0.021849 -0.998413  0.403333 0.076144 1 0 1.000000
0  -41.828323 -95.053139 41.883392  -0.051855 -0.021828 -0.998416  0.403333 0.075167 1 0 1.000000
misc
0  -43.810322 -95.961548 45.351887  0.052041 0.021897 0.998405  0.403333 0.076144 1 0 1.000000
0  -43.204708 -97.406754 45.351887  0.055469 0.014278 0.998358  0.403333 0.076144 1 0 1.000000
0  -41.016258 -96.498344 45.214249  0.055443 0.014336 0.998359  0.403333 0.076144 1 0 1.000000
misc
0  -41.016258 -96.498344 45.214249  0.055443 0.014336 0.998359  0.403333 0.076144 1 0 1.000000
0  -41.621864 -95.053139 45.214249  0.052085 0.021914 0.998402  0.403333 0.076144 1 0 1.000000
0  -43.810322 -95.961548 45.351887  0.052041 0.021897 0.998405  0.403333 0.076144 1 0 1.000000
misc
0  -43.810322 -95.961548 45.351887  -0.920191 -0.387514 0.055512  0.403333 0.076144 1 0 1.000000
0  -43.259766 -97.406754 44.388416  -0.951088 -0.303450 0.057878  0.403333 0.076144 1 0 1.000000
0  -43.204708 -97.406754 45.351887  -0.964198 -0.258565 0.058866  0.403333 0.076144 1 0 1.000000
misc
0  -53.155972 -91.034096 47.691742  0.322854 0.945940 -0.031046  0.401379 0.076144 1 0 1.000000
0  -53.018333 -91.034096 48.944248  0.322533 0.945997 -0.032607  0.401379 0.077120 1 0 1.000000
0  -41.621864 -95.053139 45.214249  0.324949 0.945499 -0.020989  0.403333 0.076144 1 0 1.000000
misc
0  -41.621864 -95.053139 45.214249  0.324949 0.945499 -0.020989  0.403333 0.076144 1 0 1.000000
0  -41.828323 -95.053139 41.883392  0.325115 0.945460 -0.020153  0.403333 0.075167 1 0 1.000000
0  -53.155972 -91.034096 47.691742  0.322854 0.945940 -0.031046  0.401379 0.076144 1 0 1.000000
misc
0  -53.155972 -91.034096 47.691742  -0.450457 0.173613 -0.875755  0.401379 0.076144 1 0 1.000000
0  -41.828323 -95.053139 41.883392  -0.254212 0.489704 -0.834006  0.403333 0.075167 1 0 1.000000
0  -44.016777 -95.961548 42.007271  -0.266368 0.473480 -0.839562  0.403333 0.076144 1 0 1.000000
misc
0  -44.016777 -95.961548 42.007271  -0.266368 0.473480 -0.839562  0.403333 0.076144 1 0 1.000000
0  -53.610176 -92.382957 47.719269  -0.466951 0.140141 -0.873108  0.401379 0.076144 1 0 1.000000
0  -53.155972 -91.034096 47.691742  -0.450457 0.173613 -0.875755  0.401379 0.076144 1 0 1.000000
misc
0  -53.018333 -91.034096 48.944248  0.308441 -0.111164 0.944726  0.401379 0.077120 1 0 1.000000
0  -53.486305 -92.382957 48.971775  0.319715 -0.089041 0.943321  0.401379 0.077120 1 0 1.000000
0  -43.810322 -95.961548 45.351887  0.197381 -0.308770 0.930431  0.403333 0.076144 1 0 1.000000
misc
0  -43.810322 -95.961548 45.351887  0.197381 -0.308770 0.930431  0.403333 0.076144 1 0 1.000000
0  -41.621864 -95.053139 45.214249  0.189913 -0.320846 0.927896  0.403333 0.076144 1 0 1.000000
0  -53.018333 -91.034096 48.944248  0.308441 -0.111164 0.944726  0.401379 0.077120 1 0 1.000000
misc
0  -44.016777 -95.961548 42.007271  -0.339238 -0.940444 0.021976  0.403333 0.076144 1 0 1.000000
0  -43.810322 -95.961548 45.351887  -0.339889 -0.940232 0.020983  0.403333 0.076144 1 0 1.000000
0  -53.486305 -92.382957 48.971775  -0.333540 -0.942233 0.030782  0.401379 0.077120 1 0 1.000000
misc
0  -53.486305 -92.382957 48.971775  -0.333540 -0.942233 0.030782  0.401379 0.077120 1 0 1.000000
0  -53.610176 -92.382957 47.719269  -0.331885 -0.942733 0.033270  0.401379 0.076144 1 0 1.000000
0  -44.016777 -95.961548 42.007271  -0.339238 -0.940444 0.021976  0.403333 0.076144 1 0 1.000000
misc
0  -44.016777 -95.961548 42.007271  -0.920194 -0.387407 0.056200  0.403333 0.076144 1 0 1.000000
0  -43.397400 -97.406754 42.007271  -0.963486 -0.261209 0.058854  0.403333 0.076144 1 0 1.000000
0  -43.342346 -97.406754 43.025795  -0.951225 -0.302992 0.058020  0.403333 0.076144 1 0 1.000000
misc
0  -43.810322 -95.961548 45.351887  -0.920191 -0.387514 0.055512  0.403333 0.076144 1 0 1.000000
0  -44.016777 -95.961548 42.007271  -0.920194 -0.387407 0.056200  0.403333 0.076144 1 0 1.000000
0  -43.342346 -97.406754 43.025795  -0.951225 -0.302992 0.058020  0.403333 0.076144 1 0 1.000000
misc
0  -43.342346 -97.406754 43.025795  -0.951225 -0.302992 0.058020  0.403333 0.076144 1 0 1.000000
0  -43.259766 -97.406754 44.388416  -0.951088 -0.303450 0.057878  0.403333 0.076144 1 0 1.000000
0  -43.810322 -95.961548 45.351887  -0.920191 -0.387514 0.055512  0.403333 0.076144 1 0 1.000000
misc
0  -41.621864 -95.053139 45.214249  0.920171 0.387524 -0.055765  0.403333 0.076144 1 0 1.000000
0  -41.016258 -96.498344 45.214249  0.867946 0.493835 -0.052883  0.403333 0.076144 1 0 1.000000
0  -41.071312 -96.498344 44.250774  0.887335 0.457951 -0.054004  0.403333 0.076144 1 0 1.000000
misc
0  -41.621864 -95.053139 45.214249  0.920171 0.387524 -0.055765  0.403333 0.076144 1 0 1.000000
0  -41.071312 -96.498344 44.250774  0.887335 0.457951 -0.054004  0.403333 0.076144 1 0 1.000000
0  -41.153896 -96.498344 42.888157  0.887047 0.458470 -0.054342  0.403333 0.076144 1 0 1.000000
misc
0  -41.153896 -96.498344 42.888157  0.887047 0.458470 -0.054342  0.403333 0.076144 1 0 1.000000
0  -41.828323 -95.053139 41.883392  0.920199 0.387392 -0.056227  0.403333 0.075167 1 0 1.000000
0  -41.621864 -95.053139 45.214249  0.920171 0.387524 -0.055765  0.403333 0.076144 1 0 1.000000
misc
0  -42.943195 -99.361221 45.351887  0.059230 0.003900 0.998237  0.403333 0.076144 1 0 1.000000
0  -42.048546 -100.269630 45.296829  0.060898 -0.000004 0.998144  0.403333 0.076144 1 0 1.000000
0  -39.860092 -99.361221 45.159187  0.061102 -0.000035 0.998132  0.403333 0.076144 1 0 1.000000
misc
0  -39.860092 -99.361221 45.159187  0.061102 -0.000035 0.998132  0.403333 0.076144 1 0 1.000000
0  -39.860092 -98.081177 45.159187  0.059354 0.003975 0.998229  0.403333 0.076144 1 0 1.000000
0  -42.943195 -99.361221 45.351887  0.059230 0.003900 0.998237  0.403333 0.076144 1 0 1.000000
misc
0  -43.149654 -99.361221 42.007271  -0.059336 -0.003929 -0.998230  0.403333 0.076144 1 0 1.000000
0  -40.066551 -98.081177 41.828339  -0.059358 -0.003968 -0.998229  0.403333 0.075167 1 0 1.000000
0  -40.066551 -99.361221 41.828339  -0.060959 -0.000004 -0.998140  0.403333 0.075167 1 0 1.000000
misc
0  -40.066551 -99.361221 41.828339  -0.060959 -0.000004 -0.998140  0.403333 0.075167 1 0 1.000000
0  -42.241241 -100.269630 41.952213  -0.060963 0.000002 -0.998140  0.403333 0.075167 1 0 1.000000
0  -43.149654 -99.361221 42.007271  -0.059336 -0.003929 -0.998230  0.403333 0.076144 1 0 1.000000
misc
0  -41.153896 -96.498344 42.888157  0.382030 -0.923860 -0.023151  0.403333 0.076144 1 0 1.000000
0  -41.071312 -96.498344 44.250774  0.382030 -0.923860 -0.023151  0.403333 0.076144 1 0 1.000000
0  -43.259766 -97.406754 44.388416  0.382031 -0.923860 -0.023151  0.403333 0.076144 1 0 1.000000
misc
0  -43.259766 -97.406754 44.388416  0.382031 -0.923860 -0.023151  0.403333 0.076144 1 0 1.000000
0  -43.342346 -97.406754 43.025795  0.382031 -0.923859 -0.023151  0.403333 0.076144 1 0 1.000000
0  -41.153896 -96.498344 42.888157  0.382030 -0.923860 -0.023151  0.403333 0.076144 1 0 1.000000
misc
0  -43.342346 -97.406754 43.025795  0.057891 0.007485 0.998295  0.403333 0.076144 1 0 1.000000
0  -43.094597 -99.361221 43.025795  0.059693 0.004097 0.998208  0.403333 0.076144 1 0 1.000000
0  -39.997730 -98.081177 42.833099  0.059464 0.004010 0.998222  0.403333 0.076144 1 0 1.000000
misc
0  -39.997730 -98.081177 42.833099  0.059464 0.004010 0.998222  0.403333 0.076144 1 0 1.000000
0  -41.153896 -96.498344 42.888157  0.057912 0.007515 0.998293  0.403333 0.076144 1 0 1.000000
0  -43.342346 -97.406754 43.025795  0.057891 0.007485 0.998295  0.403333 0.076144 1 0 1.000000
misc
0  -42.103600 -100.269630 44.333363  -0.061327 -0.000029 -0.998118  0.403333 0.076144 1 0 1.000000
0  -39.915150 -99.361221 44.195721  -0.061076 0.000032 -0.998133  0.403333 0.076144 1 0 1.000000
0  -40.823566 -100.269630 44.250774  -0.060984 0.000009 -0.998139  0.403333 0.076144 1 0 1.000000
misc
0  -39.915150 -98.081177 44.195721  -0.059505 -0.004023 -0.998220  0.403333 0.076144 1 0 1.000000
0  -39.915150 -99.361221 44.195721  -0.061076 0.000032 -0.998133  0.403333 0.076144 1 0 1.000000
0  -42.103600 -100.269630 44.333363  -0.061327 -0.000029 -0.998118  0.403333 0.076144 1 0 1.000000
misc
0  -42.103600 -100.269630 44.333363  -0.061327 -0.000029 -0.998118  0.403333 0.076144 1 0 1.000000
0  -43.012016 -99.361221 44.388416  -0.059316 -0.003911 -0.998232  0.403333 0.076144 1 0 1.000000
0  -39.915150 -98.081177 44.195721  -0.059505 -0.004023 -0.998220  0.403333 0.076144 1 0 1.000000
misc
0  -39.915150 -98.081177 44.195721  -0.059505 -0.004023 -0.998220  0.403333 0.076144 1 0 1.000000
0  -43.012016 -99.361221 44.388416  -0.059316 -0.003911 -0.998232  0.403333 0.076144 1 0 1.000000
0  -43.259766 -97.406754 44.388416  -0.058216 -0.007571 -0.998275  0.403333 0.076144 1 0 1.000000
misc
0  -43.259766 -97.406754 44.388416  -0.058216 -0.007571 -0.998275  0.403333 0.076144 1 0 1.000000
0  -41.071312 -96.498344 44.250774  -0.057926 -0.007502 -0.998293  0.403333 0.076144 1 0 1.000000
0  -39.915150 -98.081177 44.195721  -0.059505 -0.004023 -0.998220  0.403333 0.076144 1 0 1.000000
misc
0  -39.997730 -99.361221 42.833099  0.061137 -0.000041 0.998129  0.403333 0.076144 1 0 1.000000
0  -42.186184 -100.269630 42.970737  0.061136 0.000072 0.998129  0.403333 0.076144 1 0 1.000000
0  -40.906147 -100.269630 42.888157  0.061009 -0.000040 0.998137  0.403333 0.076144 1 0 1.000000
misc
0  -43.094597 -99.361221 43.025795  0.059693 0.004097 0.998208  0.403333 0.076144 1 0 1.000000
0  -42.186184 -100.269630 42.970737  0.061136 0.000072 0.998129  0.403333 0.076144 1 0 1.000000
0  -39.997730 -99.361221 42.833099  0.061137 -0.000041 0.998129  0.403333 0.076144 1 0 1.000000
misc
0  -39.997730 -99.361221 42.833099  0.061137 -0.000041 0.998129  0.403333 0.076144 1 0 1.000000
0  -39.997730 -98.081177 42.833099  0.059464 0.004010 0.998222  0.403333 0.076144 1 0 1.000000
0  -43.094597 -99.361221 43.025795  0.059693 0.004097 0.998208  0.403333 0.076144 1 0 1.000000
misc
0  -54.353428 -92.025093 49.783840  -0.863057 -0.505107 0.000000  0.401379 0.077120 1 0 1.000000
0  -54.353428 -92.025093 46.728268  -0.863076 -0.505074 -0.000000  0.401379 0.076144 1 0 1.000000
0  -52.880695 -93.139969 46.728268  -0.604107 -0.796903 0.000000  0.401379 0.076144 1 0 1.000000
misc
0  -52.880695 -93.139969 46.728268  -0.604107 -0.796903 0.000000  0.401379 0.076144 1 0 1.000000
0  -52.880695 -93.139969 49.783840  -0.603953 -0.797020 0.000000  0.401379 0.077120 1 0 1.000000
0  -54.353428 -92.025093 49.783840  -0.863057 -0.505107 0.000000  0.401379 0.077120 1 0 1.000000
misc
0  -51.435490 -91.240562 49.783840  0.863047 0.505123 0.000000  0.402356 0.077120 1 0 1.000000
0  -51.435490 -91.240562 46.728268  0.863045 0.505127 -0.000000  0.402356 0.076144 1 0 1.000000
0  -52.908226 -90.111923 46.728268  0.604082 0.796922 0.000000  0.401379 0.076144 1 0 1.000000
misc
0  -52.908226 -90.111923 46.728268  0.604082 0.796922 0.000000  0.401379 0.076144 1 0 1.000000
0  -52.908226 -90.111923 49.783840  0.604122 0.796892 -0.000000  0.401379 0.077120 1 0 1.000000
0  -51.435490 -91.240562 49.783840  0.863047 0.505123 0.000000  0.402356 0.077120 1 0 1.000000
misc
0  -54.477299 -91.185509 46.728268  -0.967436 0.253114 -0.000000  0.401379 0.076144 1 0 1.000000
0  -54.477299 -91.185509 49.783840  -0.967452 0.253054 0.000000  0.401379 0.077120 1 0 1.000000
0  -53.747818 -90.222031 49.783840  -0.504942 0.863154 -0.000001  0.401379 0.077120 1 0 1.000000
misc
0  -53.747818 -90.222031 49.783840  -0.504942 0.863154 -0.000001  0.401379 0.077120 1 0 1.000000
0  -53.747818 -90.222031 46.728268  -0.505204 0.863000 0.000000  0.401379 0.076144 1 0 1.000000
0  -54.477299 -91.185509 46.728268  -0.967436 0.253114 -0.000000  0.401379 0.076144 1 0 1.000000
misc
0  -52.041103 -93.029861 49.783840  0.505100 -0.863061 0.000000  0.402356 0.077120 1 0 1.000000
0  -52.041103 -93.029861 46.728268  0.505083 -0.863071 0.000000  0.402356 0.076144 1 0 1.000000
0  -51.311615 -92.080147 46.728268  0.796891 -0.604123 0.000000  0.402356 0.076144 1 0 1.000000
misc
0  -51.311615 -92.080147 46.728268  0.796891 -0.604123 0.000000  0.402356 0.076144 1 0 1.000000
0  -51.311615 -92.080147 49.783840  0.796919 -0.604086 -0.000000  0.402356 0.077120 1 0 1.000000
0  -52.041103 -93.029861 49.783840  0.505100 -0.863061 0.000000  0.402356 0.077120 1 0 1.000000
misc
0  -54.353428 -92.025093 46.728268  0.000002 0.000000 -1.000000  0.401379 0.076144 1 0 1.000000
0  -52.908226 -90.111923 46.728268  -0.000001 0.000000 -1.000000  0.401379 0.076144 1 0 1.000000
0  -51.435490 -91.240562 46.728268  0.000001 0.000000 -1.000000  0.402356 0.076144 1 0 1.000000
misc
0  -51.435490 -91.240562 46.728268  0.000001 0.000000 -1.000000  0.402356 0.076144 1 0 1.000000
0  -52.880695 -93.139969 46.728268  -0.000004 0.000000 -1.000000  0.401379 0.076144 1 0 1.000000
0  -54.353428 -92.025093 46.728268  0.000002 0.000000 -1.000000  0.401379 0.076144 1 0 1.000000
misc
0  -52.041103 -93.029861 49.783840  0.505100 -0.863061 0.000000  0.402356 0.077120 1 0 1.000000
0  -52.880695 -93.139969 49.783840  0.136350 -0.990661 -0.000000  0.401379 0.077120 1 0 1.000000
0  -52.880695 -93.139969 46.728268  0.136350 -0.990661 0.000000  0.401379 0.076144 1 0 1.000000
misc
0  -52.880695 -93.139969 46.728268  0.136350 -0.990661 0.000000  0.401379 0.076144 1 0 1.000000
0  -52.041103 -93.029861 46.728268  0.505083 -0.863071 0.000000  0.402356 0.076144 1 0 1.000000
0  -52.041103 -93.029861 49.783840  0.505100 -0.863061 0.000000  0.402356 0.077120 1 0 1.000000
misc
0  -54.477299 -91.185509 49.783840  -0.967452 0.253054 0.000000  0.401379 0.077120 1 0 1.000000
0  -54.477299 -91.185509 46.728268  -0.967436 0.253114 -0.000000  0.401379 0.076144 1 0 1.000000
0  -54.353428 -92.025093 46.728268  -0.863076 -0.505074 -0.000000  0.401379 0.076144 1 0 1.000000
misc
0  -54.353428 -92.025093 46.728268  -0.863076 -0.505074 -0.000000  0.401379 0.076144 1 0 1.000000
0  -54.353428 -92.025093 49.783840  -0.863057 -0.505107 0.000000  0.401379 0.077120 1 0 1.000000
0  -54.477299 -91.185509 49.783840  -0.967452 0.253054 0.000000  0.401379 0.077120 1 0 1.000000
misc
0  -51.311615 -92.080147 46.728268  0.990656 0.136384 0.000000  0.402356 0.076144 1 0 1.000000
0  -51.435490 -91.240562 46.728268  0.863045 0.505127 -0.000000  0.402356 0.076144 1 0 1.000000
0  -51.435490 -91.240562 49.783840  0.863047 0.505123 0.000000  0.402356 0.077120 1 0 1.000000
misc
0  -51.435490 -91.240562 49.783840  0.863047 0.505123 0.000000  0.402356 0.077120 1 0 1.000000
0  -51.311615 -92.080147 49.783840  0.990659 0.136365 -0.000000  0.402356 0.077120 1 0 1.000000
0  -51.311615 -92.080147 46.728268  0.990656 0.136384 0.000000  0.402356 0.076144 1 0 1.000000
misc
0  -53.747818 -90.222031 46.728268  -0.505204 0.863000 0.000000  0.401379 0.076144 1 0 1.000000
0  -53.747818 -90.222031 49.783840  -0.504942 0.863154 -0.000001  0.401379 0.077120 1 0 1.000000
0  -52.908226 -90.111923 49.783840  -0.136348 0.990661 -0.000000  0.401379 0.077120 1 0 1.000000
misc
0  -52.908226 -90.111923 49.783840  -0.136350 0.990661 -0.000000  0.401379 0.077120 1 0 1.000000
0  -52.908226 -90.111923 46.728268  -0.136350 0.990661 0.000000  0.401379 0.076144 1 0 1.000000
0  -53.747818 -90.222031 46.728268  -0.504884 0.863187 -0.000031  0.401379 0.076144 1 0 1.000000
misc
0  -54.477299 -91.185509 46.728268  0.000003 0.000000 -1.000000  0.401379 0.076144 1 0 1.000000
0  -53.747818 -90.222031 46.728268  -0.000008 0.000000 -1.000000  0.401379 0.076144 1 0 1.000000
0  -52.908226 -90.111923 46.728268  -0.000001 0.000000 -1.000000  0.401379 0.076144 1 0 1.000000
misc
0  -52.908226 -90.111923 46.728268  -0.000001 0.000000 -1.000000  0.401379 0.076144 1 0 1.000000
0  -54.353428 -92.025093 46.728268  0.000002 0.000000 -1.000000  0.401379 0.076144 1 0 1.000000
0  -54.477299 -91.185509 46.728268  0.000003 0.000000 -1.000000  0.401379 0.076144 1 0 1.000000
misc
0  -52.041103 -93.029861 46.728268  -0.000008 0.000000 -1.000000  0.402356 0.076144 1 0 1.000000
0  -52.880695 -93.139969 46.728268  -0.000004 0.000000 -1.000000  0.401379 0.076144 1 0 1.000000
0  -51.435490 -91.240562 46.728268  0.000001 0.000000 -1.000000  0.402356 0.076144 1 0 1.000000
misc
0  -51.435490 -91.240562 46.728268  0.000001 0.000000 -1.000000  0.402356 0.076144 1 0 1.000000
0  -51.311615 -92.080147 46.728268  0.000010 0.000000 -1.000000  0.402356 0.076144 1 0 1.000000
0  -52.041103 -93.029861 46.728268  -0.000008 0.000000 -1.000000  0.402356 0.076144 1 0 1.000000
misc
0  -55.220551 -91.914986 61.428062  -0.663583 -0.401638 0.631146  0.414075 0.059542 1 0 1.000000
0  -54.573650 -89.974289 63.355000  -0.645253 -0.418361 0.639236  0.413099 0.056612 1 0 1.000000
0  -55.592175 -89.217270 62.033669  -0.928029 -0.115059 0.354292  0.411145 0.058565 1 0 1.000000
misc
0  -55.592175 -89.217270 62.033669  -0.928029 -0.115059 0.354292  0.411145 0.058565 1 0 1.000000
0  -55.702282 -91.639709 60.794922  -0.946716 -0.112425 0.301810  0.414075 0.060518 1 0 1.000000
0  -55.220551 -91.914986 61.428062  -0.663583 -0.401638 0.631146  0.414075 0.059542 1 0 1.000000
misc
0  -52.701763 -95.755104 50.706024  -0.067637 -0.607643 -0.791325  0.418958 0.073214 1 0 1.000000
0  -49.962761 -93.456528 48.779083  -0.069781 -0.589544 -0.804717  0.419935 0.078097 1 0 1.000000
0  -48.724014 -94.392471 50.100410  0.318145 -0.886535 -0.335915  0.422864 0.074190 1 0 1.000000
misc
0  -48.724014 -94.392471 50.100410  0.318145 -0.886535 -0.335915  0.422864 0.074190 1 0 1.000000
0  -52.137447 -96.112953 51.352921  0.361709 -0.896810 -0.254752  0.418958 0.073214 1 0 1.000000
0  -52.701763 -95.755104 50.706024  -0.067637 -0.607643 -0.791325  0.418958 0.073214 1 0 1.000000
misc
0  -54.573650 -89.974289 63.355000  -0.645253 -0.418361 0.639236  0.413099 0.056612 1 0 1.000000
0  -55.220551 -91.914986 61.428062  -0.663583 -0.401638 0.631146  0.414075 0.059542 1 0 1.000000
0  -52.109921 -94.268608 61.428062  -0.203297 -0.748593 0.631094  0.418958 0.059542 1 0 1.000000
misc
0  -52.109921 -94.268608 61.428062  -0.203297 -0.748593 0.631094  0.418958 0.059542 1 0 1.000000
0  -50.430729 -93.098671 63.355000  -0.224493 -0.735478 0.639277  0.420911 0.057588 1 0 1.000000
0  -54.573650 -89.974289 63.355000  -0.645253 -0.418361 0.639236  0.413099 0.056612 1 0 1.000000
misc
0  -49.412209 -93.869446 62.033669  0.133805 -0.934457 0.329980  0.421888 0.058565 1 0 1.000000
0  -50.430729 -93.098671 63.355000  -0.224493 -0.735478 0.639277  0.420911 0.057588 1 0 1.000000
0  -52.109921 -94.268608 61.428062  -0.203297 -0.748593 0.631094  0.418958 0.059542 1 0 1.000000
misc
0  -52.109921 -94.268608 61.428062  -0.203297 -0.748593 0.631094  0.418958 0.059542 1 0 1.000000
0  -51.710770 -94.640236 60.794922  0.201123 -0.943924 0.261834  0.418958 0.060518 1 0 1.000000
0  -49.412209 -93.869446 62.033669  0.133805 -0.934457 0.329980  0.421888 0.058565 1 0 1.000000
misc
0  -51.710770 -94.640236 60.794922  0.201123 -0.943924 0.261834  0.418958 0.060518 1 0 1.000000
0  -52.137447 -96.112953 51.352921  0.361709 -0.896810 -0.254752  0.418958 0.073214 1 0 1.000000
0  -48.724014 -94.392471 50.100410  0.318145 -0.886535 -0.335915  0.422864 0.074190 1 0 1.000000
misc
0  -48.724014 -94.392471 50.100410  0.318145 -0.886535 -0.335915  0.422864 0.074190 1 0 1.000000
0  -49.412209 -93.869446 62.033669  0.133805 -0.934457 0.329980  0.421888 0.058565 1 0 1.000000
0  -51.710770 -94.640236 60.794922  0.201123 -0.943924 0.261834  0.418958 0.060518 1 0 1.000000
misc
0  -56.280361 -88.694252 50.100410  -0.932761 0.072857 -0.353056  0.409192 0.074190 1 0 1.000000
0  -55.041615 -89.630188 48.779083  -0.547553 -0.229216 -0.804764  0.413099 0.078097 1 0 1.000000
0  -56.500587 -92.892227 50.706024  -0.565468 -0.232189 -0.791413  0.414075 0.073214 1 0 1.000000
misc
0  -56.500587 -92.892227 50.706024  -0.565468 -0.232189 -0.791413  0.414075 0.073214 1 0 1.000000
0  -56.996086 -92.438011 51.352921  -0.958639 0.077213 -0.273952  0.413099 0.072237 1 0 1.000000
0  -56.280361 -88.694252 50.100410  -0.932761 0.072857 -0.353056  0.409192 0.074190 1 0 1.000000
misc
0  -55.592175 -89.217270 62.033669  -0.928029 -0.115059 0.354292  0.411145 0.058565 1 0 1.000000
0  -56.280361 -88.694252 50.100410  -0.932761 0.072857 -0.353056  0.409192 0.074190 1 0 1.000000
0  -56.996086 -92.438011 51.352921  -0.958639 0.077213 -0.273952  0.413099 0.072237 1 0 1.000000
misc
0  -56.996086 -92.438011 51.352921  -0.958639 0.077213 -0.273952  0.413099 0.072237 1 0 1.000000
0  -55.702282 -91.639709 60.794922  -0.946716 -0.112425 0.301810  0.414075 0.060518 1 0 1.000000
0  -55.592175 -89.217270 62.033669  -0.928029 -0.115059 0.354292  0.411145 0.058565 1 0 1.000000
misc
0  -49.962761 -93.456528 48.779083  -0.069781 -0.589544 -0.804717  0.419935 0.078097 1 0 1.000000
0  -52.701763 -95.755104 50.706024  -0.067637 -0.607643 -0.791325  0.418958 0.073214 1 0 1.000000
0  -56.500587 -92.892227 50.706024  -0.565468 -0.232189 -0.791413  0.414075 0.073214 1 0 1.000000
misc
0  -56.500587 -92.892227 50.706024  -0.565468 -0.232189 -0.791413  0.414075 0.073214 1 0 1.000000
0  -55.041615 -89.630188 48.779083  -0.547553 -0.229216 -0.804764  0.413099 0.078097 1 0 1.000000
0  -49.962761 -93.456528 48.779083  -0.069781 -0.589544 -0.804717  0.419935 0.078097 1 0 1.000000
misc
0  -55.220551 -91.914986 61.428062  -0.599319 -0.794903 0.094588  0.414075 0.059542 1 0 1.000000
0  -55.702282 -91.639709 60.794922  -0.596867 -0.791663 0.130456  0.414075 0.060518 1 0 1.000000
0  -51.710770 -94.640236 60.794922  -0.596752 -0.791801 0.130150  0.418958 0.060518 1 0 1.000000
misc
0  -51.710770 -94.640236 60.794922  -0.596752 -0.791801 0.130150  0.418958 0.060518 1 0 1.000000
0  -52.109921 -94.268608 61.428062  -0.599311 -0.794913 0.094551  0.418958 0.059542 1 0 1.000000
0  -55.220551 -91.914986 61.428062  -0.599319 -0.794903 0.094588  0.414075 0.059542 1 0 1.000000
misc
0  -54.573650 -89.974289 63.355000  -0.312661 0.235824 0.920125  0.354503 0.031220 1 0 1.000000
0  -53.789112 -88.941994 63.355000  -0.312626 0.235630 0.920187  0.354503 0.031220 1 0 1.000000
0  -54.807632 -88.171219 62.033669  -0.729591 0.549622 0.406956  0.354503 0.031220 1 0 1.000000
misc
0  -54.807632 -88.171219 62.033669  -0.729591 0.549622 0.406956  0.354503 0.031220 1 0 1.000000
0  -55.592175 -89.217270 62.033669  -0.729438 0.549814 0.406970  0.354503 0.031220 1 0 1.000000
0  -54.573650 -89.974289 63.355000  -0.312661 0.235824 0.920125  0.354503 0.031220 1 0 1.000000
misc
0  -55.495827 -87.648201 50.100410  -0.736333 0.555136 -0.386831  0.354503 0.031220 1 0 1.000000
0  -56.280361 -88.694252 50.100410  -0.736375 0.555074 -0.386840  0.354503 0.031220 1 0 1.000000
0  -55.592175 -89.217270 62.033669  -0.729438 0.549814 0.406970  0.354503 0.031220 1 0 1.000000
misc
0  -55.592175 -89.217270 62.033669  -0.729438 0.549814 0.406970  0.354503 0.031220 1 0 1.000000
0  -54.807632 -88.171219 62.033669  -0.729591 0.549622 0.406956  0.354503 0.031220 1 0 1.000000
0  -55.495827 -87.648201 50.100410  -0.736333 0.555136 -0.386831  0.354503 0.031220 1 0 1.000000
misc
0  -48.627666 -92.837166 62.033669  0.729364 -0.549891 0.406999  0.354503 0.031220 1 0 1.000000
0  -49.646191 -92.066376 63.355000  0.312500 -0.235672 0.920219  0.354503 0.031220 1 0 1.000000
0  -50.430729 -93.098671 63.355000  0.312433 -0.235643 0.920249  0.354503 0.031220 1 0 1.000000
misc
0  -50.430729 -93.098671 63.355000  0.312433 -0.235643 0.920249  0.354503 0.031220 1 0 1.000000
0  -49.412209 -93.869446 62.033669  0.729335 -0.549921 0.407009  0.354503 0.031220 1 0 1.000000
0  -48.627666 -92.837166 62.033669  0.729364 -0.549891 0.406999  0.354503 0.031220 1 0 1.000000
misc
0  -49.646191 -92.066376 63.355000  0.312500 -0.235672 0.920219  0.354503 0.031220 1 0 1.000000
0  -53.789112 -88.941994 63.355000  -0.312626 0.235630 0.920187  0.354503 0.031220 1 0 1.000000
0  -54.573650 -89.974289 63.355000  -0.312661 0.235824 0.920125  0.354503 0.031220 1 0 1.000000
misc
0  -54.573650 -89.974289 63.355000  -0.312661 0.235824 0.920125  0.354503 0.031220 1 0 1.000000
0  -50.430729 -93.098671 63.355000  0.312433 -0.235643 0.920249  0.354503 0.031220 1 0 1.000000
0  -49.646191 -92.066376 63.355000  0.312500 -0.235672 0.920219  0.354503 0.031220 1 0 1.000000
misc
0  -55.495827 -87.648201 50.100410  -0.736333 0.555136 -0.386831  0.354503 0.031220 1 0 1.000000
0  -54.257080 -88.597893 48.779083  -0.275165 0.207739 -0.938685  0.354503 0.031220 1 0 1.000000
0  -55.041615 -89.630188 48.779083  -0.275521 0.207605 -0.938610  0.354503 0.031220 1 0 1.000000
misc
0  -55.041615 -89.630188 48.779083  -0.275521 0.207605 -0.938610  0.354503 0.031220 1 0 1.000000
0  -56.280361 -88.694252 50.100410  -0.736375 0.555074 -0.386840  0.354503 0.031220 1 0 1.000000
0  -55.495827 -87.648201 50.100410  -0.736333 0.555136 -0.386831  0.354503 0.031220 1 0 1.000000
misc
0  -49.178219 -92.410477 48.779083  0.275683 -0.207391 -0.938609  0.354503 0.031220 1 0 1.000000
0  -49.962761 -93.456528 48.779083  0.276026 -0.207595 -0.938464  0.354503 0.031220 1 0 1.000000
0  -55.041615 -89.630188 48.779083  -0.275521 0.207605 -0.938610  0.354503 0.031220 1 0 1.000000
misc
0  -55.041615 -89.630188 48.779083  -0.275521 0.207605 -0.938610  0.354503 0.031220 1 0 1.000000
0  -54.257080 -88.597893 48.779083  -0.275165 0.207739 -0.938685  0.354503 0.031220 1 0 1.000000
0  -49.178219 -92.410477 48.779083  0.275683 -0.207391 -0.938609  0.354503 0.031220 1 0 1.000000
misc
0  -49.962761 -93.456528 48.779083  0.276026 -0.207595 -0.938464  0.354503 0.031220 1 0 1.000000
0  -49.178219 -92.410477 48.779083  0.275683 -0.207391 -0.938609  0.354503 0.031220 1 0 1.000000
0  -47.939472 -93.346420 50.100410  0.736358 -0.555077 -0.386867  0.354503 0.031220 1 0 1.000000
misc
0  -47.939472 -93.346420 50.100410  0.736358 -0.555077 -0.386867  0.354503 0.031220 1 0 1.000000
0  -48.724014 -94.392471 50.100410  0.736343 -0.555111 -0.386847  0.354503 0.031220 1 0 1.000000
0  -49.962761 -93.456528 48.779083  0.276026 -0.207595 -0.938464  0.354503 0.031220 1 0 1.000000
misc
0  -48.627666 -92.837166 62.033669  0.729364 -0.549891 0.406999  0.354503 0.031220 1 0 1.000000
0  -49.412209 -93.869446 62.033669  0.729335 -0.549921 0.407009  0.354503 0.031220 1 0 1.000000
0  -48.724014 -94.392471 50.100410  0.736343 -0.555111 -0.386847  0.354503 0.031220 1 0 1.000000
misc
0  -48.724014 -94.392471 50.100410  0.736343 -0.555111 -0.386847  0.354503 0.031220 1 0 1.000000
0  -47.939472 -93.346420 50.100410  0.736358 -0.555077 -0.386867  0.354503 0.031220 1 0 1.000000
0  -48.627666 -92.837166 62.033669  0.729364 -0.549891 0.406999  0.354503 0.031220 1 0 1.000000
misc
0  -54.807632 -88.171219 62.033669  0.884870 0.388489 -0.257062  0.423841 0.056612 1 0 1.000000
0  -53.789112 -88.941994 63.355000  0.676096 0.592424 -0.438096  0.421888 0.054659 1 0 1.000000
0  -53.816639 -89.327393 62.790680  0.682794 0.588129 -0.433471  0.420911 0.055635 1 0 1.000000
misc
0  -53.816639 -89.327393 62.790680  0.682794 0.588129 -0.433471  0.420911 0.055635 1 0 1.000000
0  -54.752579 -88.625420 61.551937  0.941042 0.297423 -0.161180  0.422864 0.057588 1 0 1.000000
0  -54.807632 -88.171219 62.033669  0.884870 0.388489 -0.257062  0.423841 0.056612 1 0 1.000000
misc
0  -55.371948 -88.157455 50.595917  0.936694 0.331604 0.112444  0.423841 0.077120 1 0 1.000000
0  -55.495827 -87.648201 50.100410  0.873409 0.428623 0.231168  0.424818 0.078097 1 0 1.000000
0  -54.807632 -88.171219 62.033669  0.884870 0.388489 -0.257062  0.423841 0.056612 1 0 1.000000
misc
0  -54.807632 -88.171219 62.033669  0.884870 0.388489 -0.257062  0.423841 0.056612 1 0 1.000000
0  -54.752579 -88.625420 61.551937  0.941042 0.297423 -0.161180  0.422864 0.057588 1 0 1.000000
0  -55.371948 -88.157455 50.595917  0.936694 0.331604 0.112444  0.423841 0.077120 1 0 1.000000
misc
0  -50.017815 -92.190262 62.790680  0.377516 0.818263 -0.433505  0.412122 0.055635 1 0 1.000000
0  -53.816639 -89.327393 62.790680  0.682794 0.588129 -0.433471  0.420911 0.055635 1 0 1.000000
0  -53.789112 -88.941994 63.355000  0.676096 0.592424 -0.438096  0.421888 0.054659 1 0 1.000000
misc
0  -53.789112 -88.941994 63.355000  0.676096 0.592424 -0.438096  0.421888 0.054659 1 0 1.000000
0  -49.646191 -92.066376 63.355000  0.383457 0.813015 -0.438142  0.412122 0.054659 1 0 1.000000
0  -50.017815 -92.190262 62.790680  0.377516 0.818263 -0.433505  0.412122 0.055635 1 0 1.000000
misc
0  -48.627666 -92.837166 62.033669  0.129962 0.957610 -0.257086  0.409192 0.056612 1 0 1.000000
0  -49.081875 -92.892220 61.551937  0.027124 0.986546 -0.161221  0.410169 0.057588 1 0 1.000000
0  -50.017815 -92.190262 62.790680  0.377516 0.818263 -0.433505  0.412122 0.055635 1 0 1.000000
misc
0  -50.017815 -92.190262 62.790680  0.377516 0.818263 -0.433505  0.412122 0.055635 1 0 1.000000
0  -49.646191 -92.066376 63.355000  0.383457 0.813015 -0.438142  0.412122 0.054659 1 0 1.000000
0  -48.627666 -92.837166 62.033669  0.129962 0.957610 -0.257086  0.409192 0.056612 1 0 1.000000
misc
0  -55.495827 -87.648201 50.100410  0.873409 0.428623 0.231168  0.424818 0.078097 1 0 1.000000
0  -55.371948 -88.157455 50.595917  0.936694 0.331604 0.112444  0.423841 0.077120 1 0 1.000000
0  -54.243317 -89.010811 49.343399  0.653317 0.616620 0.439268  0.421888 0.080050 1 0 1.000000
misc
0  -54.243317 -89.010811 49.343399  0.653317 0.616620 0.439268  0.421888 0.080050 1 0 1.000000
0  -54.257080 -88.597893 48.779083  0.665559 0.607271 0.433882  0.422864 0.081027 1 0 1.000000
0  -55.495827 -87.648201 50.100410  0.873409 0.428623 0.231168  0.424818 0.078097 1 0 1.000000
misc
0  -49.178219 -92.410477 48.779083  0.400612 0.806994 0.433902  0.410169 0.081027 1 0 1.000000
0  -54.257080 -88.597893 48.779083  0.665559 0.607271 0.433882  0.422864 0.081027 1 0 1.000000
0  -54.243317 -89.010811 49.343399  0.653317 0.616620 0.439268  0.421888 0.080050 1 0 1.000000
misc
0  -54.243317 -89.010811 49.343399  0.653317 0.616620 0.439268  0.421888 0.080050 1 0 1.000000
0  -49.591133 -92.520584 49.343399  0.412997 0.797762 0.439328  0.411145 0.080050 1 0 1.000000
0  -49.178219 -92.410477 48.779083  0.400612 0.806994 0.433902  0.410169 0.081027 1 0 1.000000
misc
0  -47.939472 -93.346420 50.100410  0.171653 0.957610 0.231338  0.407239 0.078097 1 0 1.000000
0  -49.178219 -92.410477 48.779083  0.400612 0.806994 0.433902  0.410169 0.081027 1 0 1.000000
0  -49.591133 -92.520584 49.343399  0.412997 0.797762 0.439328  0.411145 0.080050 1 0 1.000000
misc
0  -49.591133 -92.520584 49.343399  0.412997 0.797762 0.439328  0.411145 0.080050 1 0 1.000000
0  -48.448734 -93.373947 50.595917  0.061055 0.991758 0.112642  0.409192 0.077120 1 0 1.000000
0  -47.939472 -93.346420 50.100410  0.171653 0.957610 0.231338  0.407239 0.078097 1 0 1.000000
misc
0  -49.081875 -92.892220 61.551937  0.027124 0.986546 -0.161221  0.410169 0.057588 1 0 1.000000
0  -48.627666 -92.837166 62.033669  0.129962 0.957610 -0.257086  0.409192 0.056612 1 0 1.000000
0  -47.939472 -93.346420 50.100410  0.171653 0.957610 0.231338  0.407239 0.078097 1 0 1.000000
misc
0  -47.939472 -93.346420 50.100410  0.171653 0.957610 0.231338  0.407239 0.078097 1 0 1.000000
0  -48.448734 -93.373947 50.595917  0.061055 0.991758 0.112642  0.409192 0.077120 1 0 1.000000
0  -49.081875 -92.892220 61.551937  0.027124 0.986546 -0.161221  0.410169 0.057588 1 0 1.000000
misc
0  -52.701763 -95.755104 50.706024  -0.599321 -0.794897 0.094615  0.418958 0.073214 1 0 1.000000
0  -52.137447 -96.112953 51.352921  -0.596829 -0.791595 0.131041  0.418958 0.073214 1 0 1.000000
0  -56.996086 -92.438011 51.352921  -0.596920 -0.791527 0.131038  0.413099 0.072237 1 0 1.000000
misc
0  -56.996086 -92.438011 51.352921  -0.596920 -0.791527 0.131038  0.413099 0.072237 1 0 1.000000
0  -56.500587 -92.892227 50.706024  -0.599309 -0.794908 0.094605  0.414075 0.073214 1 0 1.000000
0  -52.701763 -95.755104 50.706024  -0.599321 -0.794897 0.094615  0.418958 0.073214 1 0 1.000000
misc
0  -52.137447 -96.112953 51.352921  -0.596829 -0.791595 0.131041  0.418958 0.073214 1 0 1.000000
0  -51.710770 -94.640236 60.794922  -0.596752 -0.791801 0.130150  0.418958 0.060518 1 0 1.000000
0  -55.702282 -91.639709 60.794922  -0.596867 -0.791663 0.130456  0.414075 0.060518 1 0 1.000000
misc
0  -55.702282 -91.639709 60.794922  -0.596867 -0.791663 0.130456  0.414075 0.060518 1 0 1.000000
0  -56.996086 -92.438011 51.352921  -0.596920 -0.791527 0.131038  0.413099 0.072237 1 0 1.000000
0  -52.137447 -96.112953 51.352921  -0.596829 -0.791595 0.131041  0.418958 0.073214 1 0 1.000000
misc
0  -55.371948 -88.157455 50.595917  0.601999 0.798497 0.000059  0.429701 0.084933 1 0 1.000000
0  -48.448734 -93.373947 50.595917  0.601995 0.798500 0.000030  0.402356 0.084933 1 0 1.000000
0  -49.591133 -92.520584 49.343399  0.601987 0.798506 -0.000019  0.406262 0.087863 1 0 1.000000
misc
0  -49.591133 -92.520584 49.343399  0.601987 0.798506 -0.000019  0.406262 0.087863 1 0 1.000000
0  -54.243317 -89.010811 49.343399  0.602091 0.798428 -0.000471  0.425794 0.087863 1 0 1.000000
0  -55.371948 -88.157455 50.595917  0.601999 0.798497 0.000059  0.429701 0.084933 1 0 1.000000
misc
0  -54.752579 -88.625420 61.551937  0.601868 0.798595 -0.000121  0.429701 0.047822 1 0 1.000000
0  -49.081875 -92.892220 61.551937  0.601392 0.798954 0.000158  0.402356 0.047822 1 0 1.000000
0  -48.448734 -93.373947 50.595917  0.601995 0.798500 0.000030  0.402356 0.084933 1 0 1.000000
misc
0  -48.448734 -93.373947 50.595917  0.601995 0.798500 0.000030  0.402356 0.084933 1 0 1.000000
0  -55.371948 -88.157455 50.595917  0.601999 0.798497 0.000059  0.429701 0.084933 1 0 1.000000
0  -54.752579 -88.625420 61.551937  0.601868 0.798595 -0.000121  0.429701 0.047822 1 0 1.000000
misc
0  -53.816639 -89.327393 62.790680  0.602039 0.798466 0.000088  0.425794 0.043916 1 0 1.000000
0  -50.017815 -92.190262 62.790680  0.601972 0.798517 0.000224  0.406262 0.043916 1 0 1.000000
0  -49.081875 -92.892220 61.551937  0.601392 0.798954 0.000158  0.402356 0.047822 1 0 1.000000
misc
0  -49.081875 -92.892220 61.551937  0.601392 0.798954 0.000158  0.402356 0.047822 1 0 1.000000
0  -54.752579 -88.625420 61.551937  0.601868 0.798595 -0.000121  0.429701 0.047822 1 0 1.000000
0  -53.816639 -89.327393 62.790680  0.602039 0.798466 0.000088  0.425794 0.043916 1 0 1.000000
end
