version 1
nodes
0 "root" -1
end
skeleton
time 0
0 0 0 0 0 0 0
end
triangles
phy
0  49.659973 -100.283394 25.119019  0.997008 0.022094 0.074073  0.557634 0.485336 0
0  49.164478 -97.021378 30.789726  0.996751 0.014629 0.079201  0.557634 0.485336 0
0  47.003555 -132.201767 28.986660  0.989207 -0.129994 0.067607  0.557634 0.485336 0
phy
0  47.003555 -132.201767 28.986660  0.989207 -0.129994 0.067607  0.557634 0.485336 0
0  47.677986 -129.407715 24.320717  0.988745 -0.135496 0.063442  0.557634 0.485336 0
0  49.659973 -100.283394 25.119019  0.997008 0.022094 0.074073  0.557634 0.485336 0
phy
0  49.315876 -93.071144 8.327126  0.993392 0.111756 0.026143  0.557634 0.485336 0
0  48.820377 -88.749298 8.327126  0.993332 0.112268 0.026231  0.557634 0.485336 0
0  49.164478 -97.021378 30.789726  0.996751 0.014629 0.079201  0.557634 0.485336 0
phy
0  49.164478 -97.021378 30.789726  0.996751 0.014629 0.079201  0.557634 0.485336 0
0  49.659973 -100.283394 25.119019  0.997008 0.022094 0.074073  0.557634 0.485336 0
0  49.315876 -93.071144 8.327126  0.993392 0.111756 0.026143  0.557634 0.485336 0
phy
0  -49.315861 -93.071144 8.327133  -0.993386 0.111801 0.026159  0.557634 0.485336 0
0  -49.659958 -100.283394 25.119026  -0.997001 0.022167 0.074143  0.557634 0.485336 0
0  -49.164455 -97.021378 30.789734  -0.996709 0.015002 0.079666  0.557634 0.485336 0
phy
0  -49.164455 -97.021378 30.789734  -0.996709 0.015002 0.079666  0.557634 0.485336 0
0  -48.820362 -88.749298 8.327133  -0.993343 0.112177 0.026204  0.557634 0.485336 0
0  -49.315861 -93.071144 8.327133  -0.993386 0.111801 0.026159  0.557634 0.485336 0
phy
0  47.677986 -129.407715 24.320717  0.988745 -0.135496 0.063442  0.557634 0.485336 0
0  47.003555 -132.201767 28.986660  0.989207 -0.129994 0.067607  0.557634 0.485336 0
0  46.274067 -137.308151 17.383738  0.978863 -0.202039 0.031749  0.557634 0.485336 0
phy
0  46.274067 -137.308151 17.383738  0.978863 -0.202039 0.031749  0.557634 0.485336 0
0  47.278828 -132.504562 17.383738  0.977931 -0.205774 0.036165  0.557634 0.485336 0
0  47.677986 -129.407715 24.320717  0.988745 -0.135496 0.063442  0.557634 0.485336 0
phy
0  -47.278805 -132.504562 17.383745  -0.978786 -0.202786 0.029264  0.557634 0.485336 0
0  -46.274044 -137.308151 17.383745  -0.978129 -0.205930 0.029257  0.557634 0.485336 0
0  -47.003532 -132.201767 28.986668  -0.989066 -0.130049 0.069544  0.557634 0.485336 0
phy
0  -47.003532 -132.201767 28.986668  -0.989066 -0.130049 0.069544  0.557634 0.485336 0
0  -47.677963 -129.407715 24.320724  -0.989233 -0.131491 0.064248  0.557634 0.485336 0
0  -47.278805 -132.504562 17.383745  -0.978786 -0.202786 0.029264  0.557634 0.485336 0
phy
0  -47.003532 -132.201767 28.986668  -0.989066 -0.130049 0.069544  0.557634 0.485336 0
0  -49.164455 -97.021378 30.789734  -0.996709 0.015002 0.079666  0.557634 0.485336 0
0  -49.659958 -100.283394 25.119026  -0.997001 0.022167 0.074143  0.557634 0.485336 0
phy
0  -49.659958 -100.283394 25.119026  -0.997001 0.022167 0.074143  0.557634 0.485336 0
0  -47.677963 -129.407715 24.320724  -0.989233 -0.131491 0.064248  0.557634 0.485336 0
0  -47.003532 -132.201767 28.986668  -0.989066 -0.130049 0.069544  0.557634 0.485336 0
phy
0  -33.721416 -102.485619 56.307903  -0.103241 -0.683148 0.722946  0.557634 0.485336 0
0  0.000012 -107.770935 56.335434  0.000000 -0.682671 0.730725  0.557634 0.485336 0
0  0.000012 -88.515305 74.324783  0.000000 -0.685885 0.727710  0.557634 0.485336 0
phy
0  0.000012 -88.515305 74.324783  0.000000 -0.685885 0.727710  0.557634 0.485336 0
0  -27.816727 -85.184464 73.650352  -0.099737 -0.687234 0.719556  0.557634 0.485336 0
0  -33.721416 -102.485619 56.307903  -0.103241 -0.683148 0.722946  0.557634 0.485336 0
phy
0  0.000012 -88.515305 74.324783  0.000000 -0.685885 0.727710  0.557634 0.485336 0
0  0.000012 -107.770935 56.335434  0.000000 -0.682671 0.730725  0.557634 0.485336 0
0  33.721439 -102.485619 56.307896  0.103241 -0.683148 0.722946  0.557634 0.485336 0
phy
0  33.721439 -102.485619 56.307896  0.103241 -0.683148 0.722946  0.557634 0.485336 0
0  27.816750 -85.184464 73.650352  0.099737 -0.687234 0.719556  0.557634 0.485336 0
0  0.000012 -88.515305 74.324783  0.000000 -0.685885 0.727710  0.557634 0.485336 0
phy
0  49.536102 -46.246525 100.118233  0.858788 -0.491988 0.142938  0.374035 0.124973 0
0  52.839428 -40.658401 100.200806  0.836746 -0.496739 0.230451  0.374035 0.124973 0
0  52.343925 -30.156588 113.716904  0.918821 -0.224252 0.324776  0.374035 0.124973 0
phy
0  52.343925 -30.156588 113.716904  0.918821 -0.224252 0.324776  0.374035 0.124973 0
0  49.618687 -31.959650 120.364845  0.926995 -0.170163 0.334251  0.374035 0.124973 0
0  49.536102 -46.246525 100.118233  0.858788 -0.491988 0.142938  0.374035 0.124973 0
phy
0  -49.618664 -31.959658 120.364845  0.000000 -0.817060 0.576553  0.301767 0.061495 0
0  -49.536079 -46.246532 100.118233  0.000000 -0.817060 0.576552  0.301767 0.043916 0
0  49.536102 -46.246525 100.118233  0.000000 -0.817060 0.576553  0.358409 0.043916 0
phy
0  49.536102 -46.246525 100.118233  0.000000 -0.817060 0.576553  0.358409 0.043916 0
0  49.618687 -31.959650 120.364845  0.000000 -0.817060 0.576553  0.359386 0.061495 0
0  -49.618664 -31.959658 120.364845  0.000000 -0.817060 0.576553  0.301767 0.061495 0
phy
0  49.274582 -46.191471 18.705067  0.858932 -0.512081 -0.002835  0.374035 0.124973 0
0  52.743069 -40.355602 18.705067  0.858968 -0.512021 -0.002827  0.374035 0.124973 0
0  52.839428 -40.658401 100.200806  0.836746 -0.496739 0.230451  0.374035 0.124973 0
phy
0  52.839428 -40.658401 100.200806  0.836746 -0.496739 0.230451  0.374035 0.124973 0
0  49.536102 -46.246525 100.118233  0.858788 -0.491988 0.142938  0.374035 0.124973 0
0  49.274582 -46.191471 18.705067  0.858932 -0.512081 -0.002835  0.374035 0.124973 0
phy
0  -49.274574 -46.191479 18.705074  0.000000 0.000000 -1.000000  0.567400 0.480453 0
0  -52.743061 -40.355610 18.705074  0.000001 0.000000 -1.000000  0.567400 0.480453 0
0  -52.509090 135.739075 18.705074  -0.000000 -0.000000 -1.000000  0.567400 0.480453 0
phy
0  -52.509090 135.739075 18.705074  -0.000000 -0.000000 -1.000000  0.567400 0.480453 0
0  52.481548 135.739075 18.705067  -0.000000 -0.000000 -1.000000  0.567400 0.480453 0
0  52.743069 -40.355602 18.705067  -0.000000 0.000000 -1.000000  0.567400 0.480453 0
phy
0  -49.274574 -46.191479 18.705074  0.000000 0.000000 -1.000000  0.567400 0.480453 0
0  -52.509090 135.739075 18.705074  -0.000000 -0.000000 -1.000000  0.567400 0.480453 0
0  52.743069 -40.355602 18.705067  -0.000000 0.000000 -1.000000  0.567400 0.480453 0
phy
0  -49.274574 -46.191479 18.705074  0.000000 0.000000 -1.000000  0.567400 0.480453 0
0  52.743069 -40.355602 18.705067  -0.000000 0.000000 -1.000000  0.567400 0.480453 0
0  49.274582 -46.191471 18.705067  -0.000000 0.000000 -1.000000  0.567400 0.480453 0
phy
0  52.385212 135.697784 113.661850  -0.000030 0.996436 -0.084356  0.374035 0.124973 0
0  -52.412739 135.697784 113.661865  0.000000 0.996532 -0.083211  0.374035 0.124973 0
0  -52.922001 136.262085 120.419907  -0.000028 0.996444 -0.084262  0.374035 0.124973 0
phy
0  -52.922001 136.262085 120.419907  -0.000028 0.996444 -0.084262  0.374035 0.124973 0
0  52.894470 136.262085 120.419891  -0.000029 0.996440 -0.084308  0.374035 0.124973 0
0  52.385212 135.697784 113.661850  -0.000030 0.996436 -0.084356  0.374035 0.124973 0
phy
0  52.894470 136.262085 120.419891  0.998057 -0.000793 -0.062297  0.374035 0.124973 0
0  49.618687 -31.959650 120.364845  0.926995 -0.170163 0.334251  0.374035 0.124973 0
0  52.343925 -30.156588 113.716904  0.918821 -0.224252 0.324776  0.374035 0.124973 0
phy
0  52.343925 -30.156588 113.716904  0.918821 -0.224252 0.324776  0.374035 0.124973 0
0  52.385212 135.697784 113.661850  0.997175 -0.000273 -0.075120  0.374035 0.124973 0
0  52.894470 136.262085 120.419891  0.998057 -0.000793 -0.062297  0.374035 0.124973 0
phy
0  -49.536079 -46.246532 100.118233  -0.858710 -0.492116 0.142965  0.374035 0.124973 0
0  -49.618664 -31.959658 120.364845  -0.926950 -0.170175 0.334371  0.374035 0.124973 0
0  -52.343903 -30.156595 113.716919  -0.918973 -0.224294 0.324316  0.374035 0.124973 0
phy
0  -52.343903 -30.156595 113.716919  -0.918973 -0.224294 0.324316  0.374035 0.124973 0
0  -52.839405 -40.658409 100.200821  -0.836746 -0.496738 0.230452  0.374035 0.124973 0
0  -49.536079 -46.246532 100.118233  -0.858710 -0.492116 0.142965  0.374035 0.124973 0
phy
0  -49.274574 -46.191479 18.705074  -0.858933 -0.512081 -0.002835  0.374035 0.124973 0
0  -49.536079 -46.246532 100.118233  -0.858710 -0.492116 0.142965  0.374035 0.124973 0
0  -52.839405 -40.658409 100.200821  -0.836746 -0.496738 0.230452  0.374035 0.124973 0
phy
0  -52.839405 -40.658409 100.200821  -0.836746 -0.496738 0.230452  0.374035 0.124973 0
0  -52.743061 -40.355610 18.705074  -0.859017 -0.511939 -0.002833  0.374035 0.124973 0
0  -49.274574 -46.191479 18.705074  -0.858933 -0.512081 -0.002835  0.374035 0.124973 0
phy
0  -52.922001 136.262085 120.419907  -0.998058 -0.000958 -0.062285  0.374035 0.124973 0
0  -52.412739 135.697784 113.661865  -0.997175 -0.000439 -0.075107  0.374035 0.124973 0
0  -52.343903 -30.156595 113.716919  -0.918973 -0.224294 0.324316  0.374035 0.124973 0
phy
0  -52.343903 -30.156595 113.716919  -0.918973 -0.224294 0.324316  0.374035 0.124973 0
0  -49.618664 -31.959658 120.364845  -0.926950 -0.170175 0.334371  0.374035 0.124973 0
0  -52.922001 136.262085 120.419907  -0.998058 -0.000958 -0.062285  0.374035 0.124973 0
phy
0  20.659527 125.608879 2.849115  0.999990 -0.004469 0.000000  0.493179 0.952147 0
0  20.659527 125.608879 10.185246  0.999990 -0.004469 0.000000  0.493179 0.992187 0
0  20.040165 -12.965543 10.130191  0.999990 -0.004469 0.000000  0.028321 0.992187 0
phy
0  20.040165 -12.965543 10.130191  0.999990 -0.004469 0.000000  0.028321 0.992187 0
0  20.040165 -12.965543 2.821587  0.999990 -0.004469 0.000000  0.028321 0.952147 0
0  20.659527 125.608879 2.849115  0.999990 -0.004469 0.000000  0.493179 0.952147 0
phy
0  20.040174 -145.029663 2.807824  1.000000 0.000000 0.000000  0.499039 0.957030 0
0  20.040165 -12.965543 2.821587  1.000000 0.000000 0.000000  0.002930 0.954100 0
0  20.040165 -12.965543 10.130191  1.000000 0.000000 0.000000  0.002930 0.994140 0
phy
0  20.040165 -12.965543 10.130191  1.000000 0.000000 0.000000  0.002930 0.994140 0
0  20.040174 -145.029663 10.130191  1.000000 0.000000 0.000000  0.499039 0.998047 0
0  20.040174 -145.029663 2.807824  1.000000 0.000000 0.000000  0.499039 0.957030 0
phy
0  -20.687075 125.608879 10.185249  -0.999989 -0.004668 0.000000  0.490249 0.992187 0
0  -20.687075 125.608879 2.849118  -0.999989 -0.004668 0.000000  0.490249 0.952147 0
0  -20.040161 -12.965547 2.821590  -0.999989 -0.004668 0.000000  0.028321 0.952147 0
phy
0  -20.040161 -12.965547 2.821590  -0.999989 -0.004668 0.000000  0.028321 0.952147 0
0  -20.040161 -12.965547 10.130195  -0.999989 -0.004668 0.000000  0.028321 0.992187 0
0  -20.687075 125.608879 10.185249  -0.999989 -0.004668 0.000000  0.490249 0.992187 0
phy
0  -20.040152 -145.029663 2.807827  -1.000000 -0.000000 0.000000  0.499039 0.957030 0
0  -20.040152 -145.029663 10.130195  -1.000000 -0.000000 0.000000  0.499039 0.998047 0
0  -20.040161 -12.965547 10.130195  -1.000000 -0.000000 0.000000  0.002930 0.994140 0
phy
0  -20.040161 -12.965547 10.130195  -1.000000 -0.000000 0.000000  0.002930 0.994140 0
0  -20.040161 -12.965547 2.821590  -1.000000 -0.000000 0.000000  0.002930 0.954100 0
0  -20.040152 -145.029663 2.807827  -1.000000 -0.000000 0.000000  0.499039 0.957030 0
phy
0  0.000013 -151.801483 14.686028  -0.039772 -0.996870 -0.068328  0.468764 0.046846 0
0  0.000011 -150.397568 0.646901  -0.041399 -0.996811 -0.068221  0.468764 0.073214 0
0  41.566833 -148.222885 0.646898  0.132549 -0.980891 0.142417  0.448256 0.073214 0
phy
0  41.566833 -148.222885 0.646898  0.132549 -0.980891 0.142417  0.448256 0.073214 0
0  47.499050 -144.492874 15.167758  0.147460 -0.970817 0.189131  0.448256 0.046846 0
0  0.000013 -151.801483 14.686028  -0.039772 -0.996870 -0.068328  0.468764 0.046846 0
phy
0  0.000011 -150.397568 0.646901  -0.041399 -0.996811 -0.068221  0.468764 0.073214 0
0  0.000013 -151.801483 14.686028  -0.039772 -0.996870 -0.068328  0.468764 0.046846 0
0  -47.499027 -144.492874 15.167766  -0.076604 -0.985679 0.150231  0.448256 0.046846 0
phy
0  -47.499027 -144.492874 15.167766  -0.076604 -0.985679 0.150231  0.448256 0.046846 0
0  -41.566811 -148.222885 0.646904  -0.050859 -0.972113 0.228931  0.448256 0.073214 0
0  0.000011 -150.397568 0.646901  -0.041399 -0.996811 -0.068221  0.468764 0.073214 0
phy
0  5.285316 137.762360 112.602036  0.000000 1.000000 -0.000000  0.017579 0.978515 0
0  5.285309 137.762360 25.380537  0.000000 1.000000 0.000000  0.017579 0.978515 0
0  4.363132 137.762360 25.380537  0.000000 1.000000 0.000000  0.017579 0.978515 0
phy
0  4.363132 137.762360 25.380537  0.000000 1.000000 0.000000  0.017579 0.978515 0
0  4.363138 137.762360 112.602036  0.000000 1.000000 -0.000000  0.017579 0.978515 0
0  5.285316 137.762360 112.602036  0.000000 1.000000 -0.000000  0.017579 0.978515 0
phy
0  -5.312847 137.762360 112.602036  0.000000 1.000000 0.000000  0.017579 0.978515 0
0  -4.390670 137.762360 112.602036  0.000000 1.000000 0.000000  0.017579 0.978515 0
0  -4.390676 137.762360 25.380537  0.000000 1.000000 -0.000000  0.017579 0.978515 0
phy
0  -4.390676 137.762360 25.380537  0.000000 1.000000 -0.000000  0.017579 0.978515 0
0  -5.312854 137.762360 25.380537  0.000000 1.000000 -0.000000  0.017579 0.978515 0
0  -5.312847 137.762360 112.602036  0.000000 1.000000 0.000000  0.017579 0.978515 0
phy
0  53.610180 126.269562 28.050720  0.999920 0.001859 0.012513  0.374035 0.124973 0
0  53.362446 -40.562057 28.050720  0.997408 -0.001481 0.071945  0.374035 0.124973 0
0  54.036873 -40.355602 18.705067  0.997528 -0.001464 0.070249  0.374035 0.124973 0
phy
0  54.036873 -40.355602 18.705067  0.997528 -0.001464 0.070249  0.374035 0.124973 0
0  53.706532 126.269562 18.705067  0.999945 0.001982 0.010309  0.374035 0.124973 0
0  53.610180 126.269562 28.050720  0.999920 0.001859 0.012513  0.374035 0.124973 0
phy
0  -53.679020 126.269547 28.050728  -0.999914 0.001763 0.012987  0.374035 0.124973 0
0  -53.775364 126.269547 18.705074  -0.999940 0.001885 0.010783  0.374035 0.124973 0
0  -54.078156 -40.355610 18.705074  -0.997561 -0.001524 0.069778  0.374035 0.124973 0
phy
0  -54.078156 -40.355610 18.705074  -0.997561 -0.001524 0.069778  0.374035 0.124973 0
0  -53.403728 -40.562065 28.050728  -0.997408 -0.001646 0.071941  0.374035 0.124973 0
0  -53.679020 126.269547 28.050728  -0.999914 0.001763 0.012987  0.374035 0.124973 0
phy
0  30.665867 -58.344948 72.645592  0.934322 -0.031330 0.355051  0.557634 0.485336 0
0  30.363062 -80.945198 71.448135  0.933516 -0.029043 0.357357  0.557634 0.485336 0
0  38.841587 -57.546642 51.201515  0.933518 -0.029539 0.357311  0.557634 0.485336 0
phy
0  37.823071 -95.548637 50.995052  0.931631 -0.027150 0.362389  0.557634 0.485336 0
0  38.841587 -57.546642 51.201515  0.933518 -0.029539 0.357311  0.557634 0.485336 0
0  35.262989 -95.521111 57.560406  0.932050 -0.027334 0.361296  0.557634 0.485336 0
phy
0  35.262989 -95.521111 57.560406  0.932050 -0.027334 0.361296  0.557634 0.485336 0
0  38.841587 -57.546642 51.201515  0.933518 -0.029539 0.357311  0.557634 0.485336 0
0  30.363062 -80.945198 71.448135  0.933516 -0.029043 0.357357  0.557634 0.485336 0
phy
0  -30.363039 -80.945198 71.448135  -0.933516 -0.029043 0.357358  0.557634 0.485336 0
0  -30.665848 -58.344955 72.645592  -0.934321 -0.031330 0.355052  0.557634 0.485336 0
0  -38.841572 -57.546650 51.201523  -0.933518 -0.029539 0.357311  0.557634 0.485336 0
phy
0  -38.841572 -57.546650 51.201523  -0.933518 -0.029539 0.357311  0.557634 0.485336 0
0  -37.823048 -95.548637 50.995060  -0.931715 -0.027204 0.362171  0.557634 0.485336 0
0  -35.262966 -95.521111 57.560413  -0.932050 -0.027334 0.361296  0.557634 0.485336 0
phy
0  -38.841572 -57.546650 51.201523  -0.933518 -0.029539 0.357311  0.557634 0.485336 0
0  -35.262966 -95.521111 57.560413  -0.932050 -0.027334 0.361296  0.557634 0.485336 0
0  -30.363039 -80.945198 71.448135  -0.933516 -0.029043 0.357358  0.557634 0.485336 0
phy
0  -27.747910 -46.686977 75.838806  -0.560331 0.013911 0.828152  0.573260 0.637684 0
0  -29.564735 -82.362869 73.732941  -0.778412 -0.172964 0.603456  0.578143 0.694327 0
0  -27.472630 -80.835083 75.769989  -0.342673 -0.164768 0.924893  0.572283 0.692373 0
phy
0  27.472652 -80.835083 75.769989  0.342143 -0.164865 0.925072  0.427747 0.692373 0
0  27.747929 -46.686970 75.838806  0.560062 0.013940 0.828333  0.426771 0.637684 0
0  -27.747910 -46.686977 75.838806  -0.560102 0.013935 0.828306  0.573260 0.637684 0
phy
0  -27.747910 -46.686977 75.838806  -0.560102 0.013935 0.828306  0.573260 0.637684 0
0  -27.472630 -80.835083 75.769989  -0.342179 -0.164722 0.925084  0.572283 0.692373 0
0  27.472652 -80.835083 75.769989  0.342143 -0.164865 0.925072  0.427747 0.692373 0
phy
0  -27.472630 -80.835083 75.769989  -0.342179 -0.164722 0.925084  0.572283 0.692373 0
0  0.000012 -88.515305 74.324783  -0.000006 -0.213954 0.976844  0.500015 0.705069 0
0  27.472652 -80.835083 75.769989  0.342143 -0.164865 0.925072  0.427747 0.692373 0
phy
0  -27.816727 -85.184464 73.650352  -0.433482 -0.429222 0.792377  0.573260 0.699210 0
0  -27.472630 -80.835083 75.769989  -0.342673 -0.164768 0.924893  0.572283 0.692373 0
0  -29.564735 -82.362869 73.732941  -0.778412 -0.172964 0.603456  0.578143 0.694327 0
phy
0  27.747929 -46.686970 75.838806  0.560292 0.013921 0.828178  0.426771 0.637684 0
0  27.472652 -80.835083 75.769989  0.342674 -0.164781 0.924890  0.427747 0.692373 0
0  29.564758 -82.362869 73.732941  0.778412 -0.172990 0.603448  0.421888 0.694327 0
phy
0  27.816750 -85.184464 73.650352  0.433485 -0.429226 0.792374  0.426771 0.699210 0
0  29.564758 -82.362869 73.732941  0.778412 -0.172990 0.603448  0.421888 0.694327 0
0  27.472652 -80.835083 75.769989  0.342674 -0.164781 0.924890  0.427747 0.692373 0
phy
0  36.350334 -103.999634 53.389965  0.878536 -0.252651 0.405392  0.404309 0.732414 0
0  33.721439 -102.485619 56.307896  0.434600 -0.416650 0.798452  0.411145 0.730461 0
0  23.811476 -144.066208 45.985016  0.650428 -0.362328 0.667579  0.437513 0.802728 0
phy
0  -33.721416 -102.485619 56.307903  -0.434376 -0.416608 0.798596  0.588885 0.730461 0
0  -23.811445 -144.066208 45.985016  -0.639959 -0.371580 0.672593  0.562517 0.802728 0
0  0.000012 -107.770935 56.335434  0.000000 -0.257890 0.966174  0.500015 0.739250 0
phy
0  -33.721416 -102.485619 56.307903  -0.434637 -0.416610 0.798453  0.588885 0.730461 0
0  -27.816727 -85.184464 73.650352  -0.433527 -0.429434 0.792238  0.573260 0.699210 0
0  -29.564735 -82.362869 73.732941  -0.778478 -0.173191 0.603305  0.578143 0.694327 0
phy
0  -29.564735 -82.362869 73.732941  -0.778581 -0.172934 0.603245  0.578143 0.694327 0
0  -36.350311 -103.999634 53.389973  -0.877765 -0.248570 0.409563  0.595721 0.732414 0
0  -33.721416 -102.485619 56.307903  -0.434511 -0.416750 0.798448  0.588885 0.730461 0
phy
0  29.564758 -82.362869 73.732941  0.778479 -0.173191 0.603305  0.421888 0.694327 0
0  27.816750 -85.184464 73.650352  0.433528 -0.429441 0.792233  0.426771 0.699210 0
0  33.721439 -102.485619 56.307896  0.434642 -0.416604 0.798453  0.411145 0.730461 0
phy
0  33.721439 -102.485619 56.307896  0.434600 -0.416650 0.798452  0.411145 0.730461 0
0  36.350334 -103.999634 53.389965  0.878536 -0.252651 0.405392  0.404309 0.732414 0
0  29.564758 -82.362869 73.732941  0.778584 -0.172940 0.603241  0.421888 0.694327 0
phy
0  48.820377 -88.749298 8.327126  0.213382 0.924717 0.315225  0.086917 0.706046 0
0  35.882362 -85.982758 8.327127  0.198715 0.929309 0.311282  0.086917 0.701163 0
0  40.741001 -95.094429 32.427624  0.248199 0.912990 0.323801  0.150395 0.716788 0
phy
0  40.741001 -95.094429 32.427624  0.248216 0.912984 0.323804  0.150395 0.716788 0
0  49.164478 -97.021378 30.789726  0.270915 0.904637 0.328993  0.146489 0.720695 0
0  48.820377 -88.749298 8.327126  0.213400 0.924712 0.315229  0.086917 0.706046 0
phy
0  -48.820362 -88.749298 8.327133  -0.213450 0.924703 0.315221  0.913114 0.706046 0
0  -49.164455 -97.021378 30.789734  -0.270915 0.904638 0.328992  0.853542 0.720695 0
0  -40.740978 -95.094429 32.427631  -0.248265 0.912973 0.323796  0.849635 0.716788 0
phy
0  -40.740978 -95.094429 32.427631  -0.248249 0.912978 0.323795  0.849635 0.716788 0
0  -35.882347 -85.982758 8.327132  -0.198714 0.929309 0.311283  0.913114 0.701163 0
0  -48.820362 -88.749298 8.327133  -0.213433 0.924707 0.315219  0.913114 0.706046 0
phy
0  35.359329 -47.595383 8.327127  0.993849 0.068421 -0.087079  0.086917 0.633778 0
0  37.079815 -46.783321 51.187752  0.982631 0.043240 0.180464  0.200201 0.634754 0
0  40.741001 -95.094429 32.427624  0.996167 -0.066574 0.056740  0.150395 0.716788 0
phy
0  40.741001 -95.094429 32.427624  0.996167 -0.066574 0.056740  0.150395 0.716788 0
0  35.882362 -85.982758 8.327127  0.981158 0.013369 -0.192746  0.086917 0.701163 0
0  35.359329 -47.595383 8.327127  0.993849 0.068421 -0.087079  0.086917 0.633778 0
phy
0  -35.359322 -47.595390 8.327132  -0.993849 0.068421 -0.087079  0.913114 0.633778 0
0  -35.882347 -85.982758 8.327132  -0.981158 0.013368 -0.192746  0.913114 0.701163 0
0  -40.740978 -95.094429 32.427631  -0.996477 -0.063299 0.055024  0.849635 0.716788 0
phy
0  -40.740978 -95.094429 32.427631  -0.996477 -0.063299 0.055024  0.849635 0.716788 0
0  -37.079800 -46.783329 51.187759  -0.982631 0.043236 0.180464  0.799829 0.634754 0
0  -35.359322 -47.595390 8.327132  -0.993849 0.068421 -0.087079  0.913114 0.633778 0
phy
0  24.527193 -148.332993 29.633562  0.008138 -0.054879 0.998460  0.143559 0.810541 0
0  43.135914 -142.318192 29.812494  0.064924 -0.051893 0.996540  0.143559 0.799799 0
0  40.741001 -95.094429 32.427624  0.151069 -0.058308 0.986802  0.150395 0.716788 0
phy
0  44.195728 -147.066727 17.383738  0.188787 -0.960599 0.203984  0.383801 0.858394 0
0  24.527193 -148.332993 29.633562  0.037729 -0.996491 0.074710  0.435560 0.836909 0
0  -24.527166 -148.332993 29.633566  -0.037709 -0.996491 0.074725  0.564470 0.836909 0
phy
0  -24.527166 -148.332993 29.633566  -0.037709 -0.996491 0.074725  0.564470 0.836909 0
0  -44.195705 -147.066727 17.383745  -0.188790 -0.960599 0.203983  0.616230 0.858394 0
0  44.195728 -147.066727 17.383738  0.188787 -0.960599 0.203984  0.383801 0.858394 0
phy
0  -24.527166 -148.332993 29.633566  -0.008137 -0.054879 0.998460  0.856471 0.810541 0
0  -40.740978 -95.094429 32.427631  -0.151069 -0.058308 0.986802  0.849635 0.716788 0
0  -43.135891 -142.318192 29.812502  -0.064924 -0.051893 0.996540  0.856471 0.799799 0
phy
0  -24.527166 -148.332993 29.633566  -0.037709 -0.996491 0.074725  0.564470 0.836909 0
0  24.527193 -148.332993 29.633562  0.037729 -0.996491 0.074710  0.435560 0.836909 0
0  23.811476 -144.066208 45.985016  0.000000 -0.967600 0.252487  0.437513 0.807611 0
phy
0  23.811476 -144.066208 45.985016  0.000000 -0.967600 0.252487  0.437513 0.807611 0
0  -23.811445 -144.066208 45.985016  0.000000 -0.967600 0.252488  0.562517 0.807611 0
0  -24.527166 -148.332993 29.633566  -0.037709 -0.996491 0.074725  0.564470 0.836909 0
phy
0  44.195728 -147.066727 17.383738  0.956147 -0.269721 0.114169  0.111332 0.808588 0
0  46.274067 -137.308151 17.383738  0.977619 -0.208209 0.030167  0.111332 0.791009 0
0  47.003555 -132.201767 28.986660  0.948469 -0.285863 0.136707  0.141606 0.782220 0
phy
0  47.003555 -132.201767 28.986660  0.948469 -0.285863 0.136707  0.141606 0.782220 0
0  43.135914 -142.318192 29.812494  0.919475 -0.334689 0.206276  0.143559 0.799799 0
0  44.195728 -147.066727 17.383738  0.956147 -0.269721 0.114169  0.111332 0.808588 0
phy
0  -46.274044 -137.308151 17.383745  -0.954470 -0.266793 0.133451  0.888699 0.791009 0
0  -44.195705 -147.066727 17.383745  -0.965336 -0.205359 0.161105  0.888699 0.808588 0
0  -43.135891 -142.318192 29.812502  -0.949078 -0.290182 0.122661  0.856471 0.799799 0
phy
0  -43.135891 -142.318192 29.812502  -0.949078 -0.290182 0.122661  0.856471 0.799799 0
0  -47.003532 -132.201767 28.986668  -0.932411 -0.348730 0.094852  0.858425 0.782220 0
0  -46.274044 -137.308151 17.383745  -0.954470 -0.266793 0.133451  0.888699 0.791009 0
phy
0  -33.721416 -102.485619 56.307903  -0.434643 -0.416467 0.798524  0.588885 0.730461 0
0  -36.350311 -103.999634 53.389973  -0.877624 -0.248627 0.409829  0.595721 0.732414 0
0  -23.811445 -144.066208 45.985016  -0.639727 -0.371620 0.672791  0.562517 0.802728 0
phy
0  33.721439 -102.485619 56.307896  0.434399 -0.416565 0.798606  0.411145 0.730461 0
0  0.000012 -107.770935 56.335434  0.000000 -0.257890 0.966174  0.500015 0.739250 0
0  23.811476 -144.066208 45.985016  0.650643 -0.362355 0.667355  0.437513 0.802728 0
phy
0  23.811476 -144.066208 45.985016  0.650240 -0.362337 0.667757  0.186529 0.802728 0
0  24.527193 -148.332993 29.633562  0.948133 -0.294972 0.118471  0.143559 0.810541 0
0  40.741001 -95.094429 32.427624  0.996167 -0.066574 0.056740  0.150395 0.716788 0
phy
0  40.741001 -95.094429 32.427624  0.996167 -0.066574 0.056740  0.150395 0.716788 0
0  36.350334 -103.999634 53.389965  0.878705 -0.252550 0.405089  0.206061 0.732414 0
0  23.811476 -144.066208 45.985016  0.650240 -0.362337 0.667757  0.186529 0.802728 0
phy
0  -24.527166 -148.332993 29.633566  -0.944762 -0.309601 0.107574  0.856471 0.810541 0
0  -23.811445 -144.066208 45.985016  -0.639550 -0.371559 0.672993  0.813501 0.803705 0
0  -36.350311 -103.999634 53.389973  -0.877884 -0.248528 0.409332  0.793970 0.732414 0
phy
0  -36.350311 -103.999634 53.389973  -0.877884 -0.248528 0.409332  0.793970 0.732414 0
0  -40.740978 -95.094429 32.427631  -0.996477 -0.063299 0.055024  0.849635 0.716788 0
0  -24.527166 -148.332993 29.633566  -0.944762 -0.309601 0.107574  0.856471 0.810541 0
phy
0  -23.811445 -144.066208 45.985016  -0.639959 -0.371580 0.672593  0.562517 0.802728 0
0  23.811476 -144.066208 45.985016  0.650643 -0.362355 0.667355  0.437513 0.802728 0
0  0.000012 -107.770935 56.335434  0.000000 -0.257890 0.966174  0.500015 0.739250 0
phy
0  -27.472630 -80.835083 75.769989  -0.342259 -0.165015 0.925002  0.572283 0.692373 0
0  -27.816727 -85.184464 73.650352  -0.433011 -0.429434 0.792520  0.573260 0.699210 0
0  0.000012 -88.515305 74.324783  -0.000104 -0.214224 0.976785  0.500015 0.705069 0
phy
0  0.000012 -88.515305 74.324783  -0.000006 -0.213954 0.976844  0.500015 0.705069 0
0  27.816750 -85.184464 73.650352  0.433010 -0.429443 0.792516  0.426771 0.699210 0
0  27.472652 -80.835083 75.769989  0.342143 -0.164865 0.925072  0.427747 0.692373 0
phy
0  47.003555 -132.201767 28.986660  0.291408 -0.039449 0.955785  0.141606 0.782220 0
0  49.164478 -97.021378 30.789726  0.177000 -0.061217 0.982305  0.146489 0.720695 0
0  40.741001 -95.094429 32.427624  0.151069 -0.058308 0.986802  0.150395 0.716788 0
phy
0  40.741001 -95.094429 32.427624  0.151069 -0.058308 0.986802  0.150395 0.716788 0
0  43.135914 -142.318192 29.812494  0.064924 -0.051893 0.996540  0.143559 0.799799 0
0  47.003555 -132.201767 28.986660  0.291408 -0.039449 0.955785  0.141606 0.782220 0
phy
0  -40.740978 -95.094429 32.427631  -0.151069 -0.058308 0.986802  0.849635 0.716788 0
0  -49.164455 -97.021378 30.789734  -0.177000 -0.061217 0.982305  0.853542 0.720695 0
0  -47.003532 -132.201767 28.986668  -0.291409 -0.039449 0.955785  0.858425 0.782220 0
phy
0  -47.003532 -132.201767 28.986668  -0.291409 -0.039449 0.955785  0.858425 0.782220 0
0  -43.135891 -142.318192 29.812502  -0.064924 -0.051893 0.996540  0.856471 0.799799 0
0  -40.740978 -95.094429 32.427631  -0.151069 -0.058308 0.986802  0.849635 0.716788 0
phy
0  52.343925 -30.156588 113.716904  0.999917 0.012737 0.002085  0.364269 0.602527 0
0  52.839428 -40.658401 100.200806  0.998827 0.048417 -0.001001  0.329112 0.621082 0
0  52.743069 -40.355602 18.705067  0.999982 0.004786 0.003687  0.114261 0.621082 0
phy
0  52.343925 -30.156588 113.716904  0.999917 0.012737 0.002085  0.364269 0.602527 0
0  52.743069 -40.355602 18.705067  0.999982 0.004786 0.003687  0.114261 0.621082 0
0  52.481548 135.739075 18.705067  0.999998 0.000326 0.002017  0.114261 0.311502 0
phy
0  52.343925 -30.156588 113.716904  0.999917 0.012737 0.002085  0.364269 0.602527 0
0  52.481548 135.739075 18.705067  0.999998 0.000326 0.002017  0.114261 0.311502 0
0  52.385212 135.697784 113.661850  0.999999 -0.000249 0.001014  0.364269 0.311502 0
phy
0  49.274582 -46.191471 18.705067  0.000000 -1.000000 -0.000676  0.052736 0.030244 0
0  49.536102 -46.246525 100.118233  0.000000 -1.000000 -0.000676  0.052736 0.031220 0
0  -49.536079 -46.246532 100.118233  0.000000 -1.000000 -0.000676  0.052736 0.031220 0
phy
0  -49.536079 -46.246532 100.118233  0.000000 -1.000000 -0.000676  0.052736 0.031220 0
0  -49.274574 -46.191479 18.705074  0.000000 -1.000000 -0.000676  0.052736 0.030244 0
0  49.274582 -46.191471 18.705067  0.000000 -1.000000 -0.000676  0.052736 0.030244 0
phy
0  -52.922001 136.262085 120.419907  0.000000 -0.000327 1.000000  0.639668 0.310526 0
0  -49.618664 -31.959658 120.364845  -0.000000 -0.000327 1.000000  0.630879 0.606433 0
0  49.618687 -31.959650 120.364845  0.000000 -0.000327 1.000000  0.369152 0.606433 0
phy
0  49.618687 -31.959650 120.364845  0.000000 -0.000327 1.000000  0.369152 0.606433 0
0  52.894470 136.262085 120.419891  0.000000 -0.000327 1.000000  0.360363 0.310526 0
0  -52.922001 136.262085 120.419907  0.000000 -0.000327 1.000000  0.639668 0.310526 0
phy
0  -52.343903 -30.156595 113.716919  -0.999918 0.012617 0.002094  0.635762 0.603504 0
0  -52.412739 135.697784 113.661865  -0.999999 -0.000415 0.001015  0.635762 0.311502 0
0  -52.509090 135.739075 18.705074  -0.999998 0.000163 0.002023  0.885769 0.311502 0
phy
0  -52.343903 -30.156595 113.716919  -0.999918 0.012617 0.002094  0.635762 0.603504 0
0  -52.509090 135.739075 18.705074  -0.999998 0.000163 0.002023  0.885769 0.311502 0
0  -52.743061 -40.355610 18.705074  -0.999982 0.004641 0.003703  0.885769 0.621082 0
phy
0  -52.343903 -30.156595 113.716919  -0.999918 0.012617 0.002094  0.635762 0.603504 0
0  -52.743061 -40.355610 18.705074  -0.999982 0.004641 0.003703  0.885769 0.621082 0
0  -52.839405 -40.658409 100.200821  -0.998827 0.048415 -0.001001  0.670919 0.622059 0
phy
0  -52.509090 135.739075 18.705074  0.000000 1.000000 0.000435  0.638691 0.145482 0
0  -52.412739 135.697784 113.661865  0.000000 1.000000 0.000435  0.637715 0.311502 0
0  52.385212 135.697784 113.661850  0.000000 1.000000 0.000435  0.362316 0.311502 0
phy
0  52.385212 135.697784 113.661850  0.000000 1.000000 0.000435  0.362316 0.311502 0
0  52.481548 135.739075 18.705067  0.000000 1.000000 0.000435  0.362316 0.145482 0
0  -52.509090 135.739075 18.705074  0.000000 1.000000 0.000435  0.638691 0.145482 0
phy
0  53.100918 126.283325 18.870234  1.000000 0.000000 -0.000000  0.115238 0.328104 0
0  53.100914 131.114426 0.839591  1.000000 0.000000 -0.000000  0.067385 0.319315 0
0  53.100914 137.087936 5.202731  1.000000 0.000000 -0.000000  0.079104 0.308573 0
phy
0  53.100918 126.283325 18.870234  1.000000 0.000000 -0.000000  0.115238 0.328104 0
0  53.100914 137.087936 5.202731  1.000000 0.000000 -0.000000  0.079104 0.308573 0
0  53.100918 137.087936 24.981382  1.000000 0.000000 -0.000000  0.130863 0.308573 0
phy
0  53.100918 126.283325 18.870234  1.000000 0.000000 -0.000000  0.115238 0.328104 0
0  53.100918 137.087936 24.981382  1.000000 0.000000 -0.000000  0.130863 0.308573 0
0  53.100918 126.338379 24.981382  1.000000 0.000000 0.000000  0.130863 0.327128 0
phy
0  53.100914 149.062469 0.867118  1.000000 -0.000000 0.000000  0.067385 0.288064 0
0  53.100914 149.062469 4.968745  1.000000 -0.000000 0.000000  0.078127 0.288064 0
0  53.100914 137.087936 5.202731  1.000000 0.000000 -0.000000  0.079104 0.308573 0
phy
0  53.100914 137.087936 5.202731  1.000000 0.000000 -0.000000  0.079104 0.308573 0
0  53.100914 131.114426 0.839591  1.000000 0.000000 -0.000000  0.067385 0.319315 0
0  53.100914 149.062469 0.867118  1.000000 -0.000000 0.000000  0.067385 0.288064 0
phy
0  -53.128468 137.087936 5.202738  0.000000 1.000000 -0.000001  0.639668 0.121067 0
0  -53.128464 137.087936 24.981390  0.000000 1.000000 -0.000001  0.639668 0.156224 0
0  53.100918 137.087936 24.981382  0.000000 1.000000 0.000001  0.360363 0.156224 0
phy
0  53.100918 137.087936 24.981382  0.000000 1.000000 0.000001  0.360363 0.156224 0
0  53.100914 137.087936 5.202731  0.000000 1.000000 0.000001  0.360363 0.121067 0
0  -53.128468 137.087936 5.202738  0.000000 1.000000 -0.000001  0.639668 0.121067 0
phy
0  -53.128468 149.062469 0.867126  0.000000 1.000000 0.000000  0.639668 0.114231 0
0  -53.128468 149.062469 4.968753  0.000000 1.000000 0.000000  0.639668 0.121067 0
0  53.100914 149.062469 4.968745  0.000000 1.000000 0.000000  0.360363 0.121067 0
phy
0  53.100914 149.062469 4.968745  0.000000 1.000000 0.000000  0.360363 0.121067 0
0  53.100914 149.062469 0.867118  0.000000 1.000000 0.000000  0.360363 0.114231 0
0  -53.128468 149.062469 0.867126  0.000000 1.000000 0.000000  0.639668 0.114231 0
phy
0  -53.128468 137.087936 5.202738  -0.000023 0.020015 0.999800  0.639668 0.121067 0
0  53.100914 137.087936 5.202731  0.000000 0.019537 0.999809  0.360363 0.121067 0
0  53.100914 149.062469 4.968745  -0.000023 0.020015 0.999800  0.360363 0.121067 0
phy
0  53.100914 149.062469 4.968745  -0.000023 0.020015 0.999800  0.360363 0.121067 0
0  -53.128468 149.062469 4.968753  0.000000 0.019537 0.999809  0.639668 0.121067 0
0  -53.128468 137.087936 5.202738  -0.000023 0.020015 0.999800  0.639668 0.121067 0
phy
0  -53.128464 126.283310 18.870241  -1.000000 -0.000000 0.000000  0.884793 0.328104 0
0  -53.128464 126.338364 24.981390  -1.000000 0.000000 0.000000  0.869167 0.328104 0
0  -53.128464 137.087936 24.981390  -1.000000 0.000000 0.000000  0.869167 0.309549 0
phy
0  -53.128464 126.283310 18.870241  -1.000000 -0.000000 0.000000  0.884793 0.328104 0
0  -53.128464 137.087936 24.981390  -1.000000 0.000000 0.000000  0.869167 0.309549 0
0  -53.128468 137.087936 5.202738  -1.000000 -0.000001 0.000000  0.920927 0.309549 0
phy
0  -53.128464 126.283310 18.870241  -1.000000 -0.000000 0.000000  0.884793 0.328104 0
0  -53.128468 137.087936 5.202738  -1.000000 -0.000001 0.000000  0.920927 0.309549 0
0  -53.128468 131.114426 0.839599  -1.000000 -0.000001 0.000000  0.932646 0.320292 0
phy
0  -53.128468 149.062469 0.867126  -1.000000 -0.000000 0.000000  0.932646 0.288064 0
0  -53.128468 131.114426 0.839599  -1.000000 -0.000001 0.000000  0.932646 0.320292 0
0  -53.128468 137.087936 5.202738  -1.000000 -0.000001 0.000000  0.920927 0.309549 0
phy
0  -53.128468 137.087936 5.202738  -1.000000 -0.000001 0.000000  0.920927 0.309549 0
0  -53.128468 149.062469 4.968753  -1.000000 -0.000001 0.000000  0.921903 0.288064 0
0  -53.128468 149.062469 0.867126  -1.000000 -0.000000 0.000000  0.932646 0.288064 0
phy
0  37.079815 -46.783321 51.187752  0.982535 0.043155 0.181006  0.200201 0.634754 0
0  27.747929 -46.686970 75.838806  0.559829 0.013878 0.828492  0.264657 0.637684 0
0  29.564758 -82.362869 73.732941  0.778771 -0.172777 0.603046  0.259774 0.694327 0
phy
0  29.564758 -82.362869 73.732941  0.778771 -0.172796 0.603040  0.259774 0.694327 0
0  36.350334 -103.999634 53.389965  0.878678 -0.252341 0.405277  0.206061 0.732414 0
0  37.079815 -46.783321 51.187752  0.982536 0.043091 0.181015  0.200201 0.634754 0
phy
0  37.079815 -46.783321 51.187752  0.982631 0.043240 0.180464  0.200201 0.634754 0
0  36.350334 -103.999634 53.389965  0.878705 -0.252550 0.405089  0.206061 0.732414 0
0  40.741001 -95.094429 32.427624  0.996167 -0.066574 0.056740  0.150395 0.716788 0
phy
0  -29.564735 -82.362869 73.732941  -0.778768 -0.172768 0.603052  0.740257 0.695303 0
0  -27.747910 -46.686977 75.838806  -0.559868 0.013904 0.828465  0.735374 0.638661 0
0  -37.079800 -46.783329 51.187759  -0.982535 0.043154 0.181006  0.799829 0.634754 0
phy
0  -37.079800 -46.783329 51.187759  -0.982544 0.043104 0.180970  0.799829 0.634754 0
0  -36.350311 -103.999634 53.389973  -0.877860 -0.248326 0.409507  0.793970 0.732414 0
0  -29.564735 -82.362869 73.732941  -0.778771 -0.172797 0.603040  0.740257 0.695303 0
phy
0  -40.740978 -95.094429 32.427631  -0.996477 -0.063299 0.055024  0.849635 0.716788 0
0  -36.350311 -103.999634 53.389973  -0.877884 -0.248528 0.409332  0.793970 0.732414 0
0  -37.079800 -46.783329 51.187759  -0.982631 0.043236 0.180464  0.799829 0.634754 0
phy
0  -24.527166 -148.332993 29.633566  -0.037937 -0.996466 0.074940  0.564470 0.836909 0
0  -43.135891 -142.318192 29.812502  -0.283807 -0.887046 0.364147  0.613300 0.836909 0
0  -44.195705 -147.066727 17.383745  -0.189082 -0.960443 0.204444  0.616230 0.858394 0
phy
0  44.195728 -147.066727 17.383738  0.189082 -0.960443 0.204442  0.383801 0.858394 0
0  43.135914 -142.318192 29.812494  0.283752 -0.887111 0.364030  0.386731 0.836909 0
0  24.527193 -148.332993 29.633562  0.037894 -0.996465 0.074976  0.435560 0.836909 0
end
