version 1
nodes
0 "root" -1
end
skeleton
time 0
0 0 0 0 0 0 0
end
triangles
misc
0  23.811453 135.628967 24.967621  0.000000 -0.000000 1.000000  0.365246 0.652333 0
0  26.192598 137.074173 24.967621  0.000000 -0.000000 1.000000  0.363292 0.656240 0
0  -0.013772 137.074173 24.967623  0.000000 0.000000 1.000000  0.363292 0.616199 0
misc
0  -0.013772 137.074173 24.967623  0.000000 0.000000 1.000000  0.363292 0.616199 0
0  -0.013772 135.628967 24.967623  0.000000 0.000000 1.000000  0.365246 0.616199 0
0  23.811453 135.628967 24.967621  0.000000 -0.000000 1.000000  0.365246 0.652333 0
misc
0  23.811453 135.628967 24.967621  -0.003571 -0.999994 0.000165  0.349620 0.652333 0
0  -0.013772 135.628967 24.967623  0.000000 -0.999860 -0.016762  0.322275 0.652333 0
0  -0.013773 135.725311 18.980347  0.000000 -0.999905 -0.013781  0.322275 0.645497 0
misc
0  -0.013773 135.725311 18.980347  0.000000 -0.999905 -0.013781  0.322275 0.645497 0
0  23.797684 135.615204 18.980345  -0.004217 -0.999991 0.000251  0.349620 0.645497 0
0  23.811453 135.628967 24.967621  -0.003571 -0.999994 0.000165  0.349620 0.652333 0
misc
0  23.797684 135.615204 18.980345  0.000000 -0.000000 1.000000  0.365246 0.652333 0
0  -0.013773 135.725311 18.980347  0.000000 0.000000 1.000000  0.365246 0.616199 0
0  -0.013772 131.706268 18.980347  0.000000 0.000000 1.000000  0.372082 0.616199 0
misc
0  -0.013772 131.706268 18.980347  0.000000 0.000000 1.000000  0.372082 0.616199 0
0  23.770159 131.720032 18.980345  0.000000 -0.000000 1.000000  0.372082 0.652333 0
0  23.797684 135.615204 18.980345  0.000000 -0.000000 1.000000  0.365246 0.652333 0
misc
0  47.622913 122.690956 18.209568  -0.000753 -0.894431 -0.447205  0.354503 0.679678 0
0  47.622910 131.128189 1.403909  -0.004249 -0.893919 -0.448209  0.260750 0.679678 0
0  53.100914 131.114426 1.376381  -0.003446 -0.894076 -0.447901  0.260750 0.695303 0
misc
0  53.100914 131.114426 1.376381  -0.003446 -0.894076 -0.447901  0.260750 0.695303 0
0  53.100918 122.690964 18.209568  0.000001 -0.894495 -0.447077  0.354503 0.695303 0
0  47.622913 122.690956 18.209568  -0.000753 -0.894431 -0.447205  0.354503 0.679678 0
misc
0  47.581615 126.063087 18.952816  -0.999975 -0.007074 -0.000615  0.310556 0.692373 0
0  47.622910 131.128189 1.403909  -0.984034 -0.177967 0.002291  0.269539 0.617176 0
0  47.622913 122.690956 18.209568  -0.999939 -0.010777 -0.002444  0.337901 0.689444 0
misc
0  53.100918 126.338379 24.761160  0.032258 -0.998048 0.053470  0.398450 0.695303 0
0  52.880699 126.365906 24.967619  0.031411 -0.990566 0.133385  0.399426 0.695303 0
0  47.622913 126.186974 24.967619  0.027372 -0.999340 0.023870  0.399426 0.679678 0
misc
0  53.100918 126.338379 24.761160  0.032258 -0.998048 0.053470  0.398450 0.695303 0
0  47.622913 126.186974 24.967619  0.027372 -0.999340 0.023870  0.399426 0.679678 0
0  47.581615 126.063087 18.952816  0.033260 -0.999328 0.015399  0.364269 0.679678 0
misc
0  53.100918 126.338379 24.761160  0.032258 -0.998048 0.053470  0.398450 0.695303 0
0  47.581615 126.063087 18.952816  0.033260 -0.999328 0.015399  0.364269 0.679678 0
0  53.100918 126.283325 18.870234  0.038641 -0.999200 0.010306  0.363292 0.695303 0
misc
0  23.742628 131.623688 1.403911  -0.004974 -0.905968 -0.423317  0.349620 0.624989 0
0  -0.013774 131.623688 1.403913  0.000000 -0.758365 -0.651831  0.322275 0.624989 0
0  -0.013774 132.160477 0.784539  -0.000000 -0.761650 -0.647989  0.322275 0.624012 0
misc
0  -0.013774 132.160477 0.784539  -0.000000 -0.761650 -0.647989  0.322275 0.624012 0
0  23.825214 131.912735 0.784538  -0.004515 -0.908503 -0.417853  0.349620 0.624012 0
0  23.742628 131.623688 1.403911  -0.004974 -0.905968 -0.423317  0.349620 0.624989 0
misc
0  47.622910 131.128189 1.403909  -0.000579 -0.754186 -0.656660  0.260750 0.679678 0
0  47.664200 131.664978 0.784536  -0.000000 -0.756406 -0.654102  0.257820 0.679678 0
0  52.481544 131.664978 0.784535  -0.004853 -0.737336 -0.675509  0.257820 0.694327 0
misc
0  52.481544 131.664978 0.784535  -0.004853 -0.737336 -0.675509  0.257820 0.694327 0
0  53.100914 131.114426 1.376381  -0.005217 -0.735883 -0.677088  0.260750 0.695303 0
0  47.622910 131.128189 1.403909  -0.000579 -0.754186 -0.656660  0.260750 0.679678 0
misc
0  47.622913 135.628967 24.967619  0.000000 -0.000000 1.000000  0.365246 0.689444 0
0  52.880699 136.564911 24.967619  0.000000 0.000000 1.000000  0.364269 0.697256 0
0  52.385204 137.074173 24.967619  -0.000001 -0.000000 1.000000  0.363292 0.696280 0
misc
0  47.512794 131.623688 1.403909  -0.943105 -0.225375 -0.244455  0.265633 0.617176 0
0  47.664200 131.664978 0.784536  -0.943105 -0.225375 -0.244456  0.265633 0.615223 0
0  47.622910 131.128189 1.403909  -0.943106 -0.225375 -0.244455  0.269539 0.617176 0
misc
0  52.880699 126.365906 24.967619  -0.000000 0.000000 1.000000  0.380871 0.697256 0
0  52.880699 136.564911 24.967619  0.000000 0.000000 1.000000  0.364269 0.697256 0
0  47.622913 135.628967 24.967619  0.000000 -0.000000 1.000000  0.365246 0.689444 0
misc
0  47.622913 135.628967 24.967619  0.000000 -0.000000 1.000000  0.365246 0.689444 0
0  47.622913 126.186974 24.967619  -0.000000 0.000000 1.000000  0.380871 0.689444 0
0  52.880699 126.365906 24.967619  -0.000000 0.000000 1.000000  0.380871 0.697256 0
misc
0  53.100918 123.131401 18.897760  0.009349 0.001981 0.999954  0.364269 0.695303 0
0  53.100918 126.283325 18.870234  0.013127 0.008784 0.999875  0.363292 0.695303 0
0  47.581615 126.063087 18.952816  0.005209 -0.005900 0.999969  0.364269 0.679678 0
misc
0  47.581615 126.063087 18.952816  0.005209 -0.005900 0.999969  0.364269 0.679678 0
0  47.622913 123.131393 18.911526  0.001411 -0.013199 0.999912  0.364269 0.679678 0
0  53.100918 123.131401 18.897760  0.009349 0.001981 0.999954  0.364269 0.695303 0
misc
0  47.622913 122.690956 18.209568  0.000661 -0.847434 0.530901  0.354503 0.679678 0
0  53.100918 122.690964 18.209568  0.000001 -0.845208 0.534438  0.354503 0.695303 0
0  53.100918 123.131401 18.897760  0.000063 -0.845432 0.534082  0.364269 0.695303 0
misc
0  53.100918 123.131401 18.897760  0.000063 -0.845432 0.534082  0.364269 0.695303 0
0  47.622913 123.131393 18.911526  0.000712 -0.847698 0.530478  0.364269 0.679678 0
0  47.622913 122.690956 18.209568  0.000661 -0.847434 0.530901  0.354503 0.679678 0
misc
0  23.770159 131.720032 18.980345  0.000235 -0.999985 0.005481  0.306650 0.725578 0
0  -0.013772 131.706268 18.980347  0.000000 -0.999989 0.004698  0.306650 0.688467 0
0  -0.013774 131.623688 1.403913  0.000000 -0.999987 0.005015  0.257820 0.688467 0
misc
0  -0.013774 131.623688 1.403913  0.000000 -0.999987 0.005015  0.257820 0.688467 0
0  23.742628 131.623688 1.403911  0.000000 -0.999985 0.005482  0.257820 0.725578 0
0  23.770159 131.720032 18.980345  0.000235 -0.999985 0.005481  0.306650 0.725578 0
misc
0  -0.013774 132.160477 0.784539  -0.000000 -0.000000 -1.000000  0.371105 0.616199 0
0  -0.013775 153.521973 0.784539  -0.000000 -0.000000 -1.000000  0.335948 0.616199 0
0  24.871262 153.521973 0.784537  -0.000000 -0.000000 -1.000000  0.335948 0.654286 0
misc
0  24.871262 153.521973 0.784537  -0.000000 -0.000000 -1.000000  0.335948 0.654286 0
0  23.825214 131.912735 0.784538  -0.000000 -0.000000 -1.000000  0.372082 0.652333 0
0  -0.013774 132.160477 0.784539  -0.000000 -0.000000 -1.000000  0.371105 0.616199 0
misc
0  -23.838995 135.628967 24.967625  0.000000 0.000000 1.000000  0.365246 0.580065 0
0  -0.013772 135.628967 24.967623  0.000000 0.000000 1.000000  0.365246 0.616199 0
0  -0.013772 137.074173 24.967623  0.000000 0.000000 1.000000  0.363292 0.616199 0
misc
0  -0.013772 137.074173 24.967623  0.000000 0.000000 1.000000  0.363292 0.616199 0
0  -26.220140 137.074173 24.967625  0.000000 0.000000 1.000000  0.363292 0.576159 0
0  -23.838995 135.628967 24.967625  0.000000 0.000000 1.000000  0.365246 0.580065 0
misc
0  -0.013773 135.725311 18.980347  0.000000 -0.999905 -0.013781  0.322275 0.645497 0
0  -0.013772 135.628967 24.967623  0.000000 -0.999860 -0.016762  0.322275 0.652333 0
0  -23.838995 135.628967 24.967625  0.001772 -0.999998 -0.001145  0.294931 0.652333 0
misc
0  -23.838995 135.628967 24.967625  0.001772 -0.999998 -0.001145  0.294931 0.652333 0
0  -23.825233 135.615204 18.980349  0.002442 -0.999996 0.001463  0.294931 0.645497 0
0  -0.013773 135.725311 18.980347  0.000000 -0.999905 -0.013781  0.322275 0.645497 0
misc
0  -0.013772 131.706268 18.980347  0.000000 0.000000 1.000000  0.372082 0.616199 0
0  -0.013773 135.725311 18.980347  0.000000 0.000000 1.000000  0.365246 0.616199 0
0  -23.825233 135.615204 18.980349  0.000000 0.000000 1.000000  0.365246 0.580065 0
misc
0  -23.825233 135.615204 18.980349  0.000000 0.000000 1.000000  0.365246 0.580065 0
0  -23.797701 131.720032 18.980349  0.000000 0.000000 1.000000  0.372082 0.580065 0
0  -0.013772 131.706268 18.980347  0.000000 0.000000 1.000000  0.372082 0.616199 0
misc
0  -53.128464 122.690948 18.209576  0.000749 -0.894099 -0.447868  0.354503 0.680654 0
0  -53.128468 131.114426 1.376389  0.004260 -0.894459 -0.447130  0.260750 0.680654 0
0  -47.650459 131.128189 1.403916  0.003496 -0.894366 -0.447322  0.260750 0.696280 0
misc
0  -47.650459 131.128189 1.403916  0.003496 -0.894366 -0.447322  0.260750 0.696280 0
0  -47.650455 122.690956 18.209576  0.000001 -0.893845 -0.448377  0.354503 0.696280 0
0  -53.128464 122.690948 18.209576  0.000749 -0.894099 -0.447868  0.354503 0.680654 0
misc
0  -47.650455 122.690956 18.209576  0.999939 -0.010780 -0.002444  0.337901 0.689444 0
0  -47.650459 131.128189 1.403916  0.975159 -0.212242 -0.063384  0.269539 0.617176 0
0  -47.609158 126.063087 18.952824  0.999962 -0.008633 0.001031  0.310556 0.692373 0
misc
0  -47.609158 126.063087 18.952824  0.999962 -0.008633 0.001031  0.310556 0.692373 0
0  -47.650455 123.131393 18.911533  0.999930 -0.011693 0.001875  0.333995 0.692373 0
0  -47.650455 122.690956 18.209576  0.999939 -0.010780 -0.002444  0.337901 0.689444 0
misc
0  -53.128464 126.338364 24.761168  -0.032260 -0.998046 0.053516  0.398450 0.680654 0
0  -53.128464 126.283310 18.870241  -0.038560 -0.999203 0.010362  0.363292 0.680654 0
0  -47.609158 126.063087 18.952824  -0.033136 -0.999331 0.015473  0.364269 0.696280 0
misc
0  -53.128464 126.338364 24.761168  -0.032260 -0.998046 0.053516  0.398450 0.680654 0
0  -47.609158 126.063087 18.952824  -0.033136 -0.999331 0.015473  0.364269 0.696280 0
0  -47.650455 126.186974 24.967627  -0.027561 -0.999335 0.023875  0.399426 0.696280 0
misc
0  -53.128464 126.338364 24.761168  -0.032260 -0.998046 0.053516  0.398450 0.680654 0
0  -47.650455 126.186974 24.967627  -0.027561 -0.999335 0.023875  0.399426 0.696280 0
0  -52.908245 126.365891 24.967627  -0.031401 -0.990554 0.133480  0.399426 0.680654 0
misc
0  -0.013774 132.160477 0.784539  -0.000000 -0.761650 -0.647989  0.322275 0.624012 0
0  -0.013774 131.623688 1.403913  0.000000 -0.758365 -0.651831  0.322275 0.624989 0
0  -23.770176 131.623688 1.403914  0.004974 -0.905968 -0.423317  0.294931 0.624989 0
misc
0  -23.770176 131.623688 1.403914  0.004974 -0.905968 -0.423317  0.294931 0.624989 0
0  -23.852760 131.912735 0.784541  0.004515 -0.908503 -0.417854  0.294931 0.624012 0
0  -0.013774 132.160477 0.784539  -0.000000 -0.761650 -0.647989  0.322275 0.624012 0
misc
0  -47.650459 131.128189 1.403916  0.000579 -0.754157 -0.656694  0.260750 0.696280 0
0  -52.509094 131.664978 0.784543  0.004853 -0.737381 -0.675459  0.257820 0.682608 0
0  -47.691750 131.664978 0.784543  -0.000000 -0.756375 -0.654138  0.257820 0.696280 0
misc
0  -52.509094 131.664978 0.784543  0.004853 -0.737381 -0.675459  0.257820 0.682608 0
0  -47.650459 131.128189 1.403916  0.000579 -0.754157 -0.656694  0.260750 0.696280 0
0  -53.128468 131.114426 1.376389  0.005249 -0.735930 -0.677037  0.260750 0.680654 0
misc
0  -47.650455 135.628967 24.967627  0.000000 0.000000 1.000000  0.365246 0.543931 0
0  -52.412746 137.074173 24.967627  0.000001 0.000000 1.000000  0.363292 0.536119 0
0  -52.908245 136.564911 24.967627  0.000001 0.000000 1.000000  0.364269 0.536119 0
misc
0  -47.691750 131.664978 0.784543  0.943106 -0.225375 -0.244454  0.265633 0.615223 0
0  -47.540344 131.623688 1.403916  0.943106 -0.225375 -0.244453  0.265633 0.617176 0
0  -47.650459 131.128189 1.403916  0.943105 -0.225375 -0.244455  0.269539 0.617176 0
misc
0  -52.908245 126.365891 24.967627  0.000000 0.000000 1.000000  0.380871 0.536119 0
0  -47.650455 126.186974 24.967627  0.000000 0.000000 1.000000  0.380871 0.543931 0
0  -47.650455 135.628967 24.967627  0.000000 0.000000 1.000000  0.365246 0.543931 0
misc
0  -47.650455 135.628967 24.967627  0.000000 0.000000 1.000000  0.365246 0.543931 0
0  -52.908245 136.564911 24.967627  0.000001 0.000000 1.000000  0.364269 0.536119 0
0  -52.908245 126.365891 24.967627  0.000000 0.000000 1.000000  0.380871 0.536119 0
misc
0  -47.609158 126.063087 18.952824  -0.005252 -0.005920 0.999969  0.364269 0.696280 0
0  -53.128464 126.283310 18.870241  -0.013079 0.008787 0.999876  0.363292 0.680654 0
0  -53.128464 123.131386 18.897768  -0.009445 0.001973 0.999953  0.364269 0.680654 0
misc
0  -53.128464 123.131386 18.897768  -0.009445 0.001973 0.999953  0.364269 0.680654 0
0  -47.650455 123.131393 18.911533  -0.001373 -0.013170 0.999912  0.364269 0.696280 0
0  -47.609158 126.063087 18.952824  -0.005252 -0.005920 0.999969  0.364269 0.696280 0
misc
0  -53.128464 123.131386 18.897768  -0.000126 -0.845433 0.534081  0.364269 0.680654 0
0  -53.128464 122.690948 18.209576  0.000002 -0.845183 0.534478  0.354503 0.680654 0
0  -47.650455 122.690956 18.209576  -0.000692 -0.847386 0.530977  0.354503 0.696280 0
misc
0  -47.650455 122.690956 18.209576  -0.000692 -0.847386 0.530977  0.354503 0.696280 0
0  -47.650455 123.131393 18.911533  -0.000768 -0.847628 0.530591  0.364269 0.696280 0
0  -53.128464 123.131386 18.897768  -0.000126 -0.845433 0.534081  0.364269 0.680654 0
misc
0  -23.797701 131.720032 18.980349  -0.000235 -0.999985 0.005481  0.306650 0.652333 0
0  -47.581631 131.733795 18.980350  -0.000579 -0.999980 0.006263  0.306650 0.615223 0
0  -47.540344 131.623688 1.403916  -0.000344 -0.999982 0.005946  0.257820 0.616199 0
misc
0  -47.540344 131.623688 1.403916  -0.000344 -0.999982 0.005946  0.257820 0.616199 0
0  -23.770176 131.623688 1.403914  0.000000 -0.999985 0.005482  0.257820 0.652333 0
0  -23.797701 131.720032 18.980349  -0.000235 -0.999985 0.005481  0.306650 0.652333 0
misc
0  -52.509094 131.664978 0.784543  -0.000000 0.000000 -1.000000  0.372082 0.536119 0
0  -52.509094 148.112762 0.784543  -0.000000 0.000000 -1.000000  0.344737 0.536119 0
0  -51.972301 148.649567 0.784543  -0.000000 -0.000000 -1.000000  0.343760 0.537095 0
misc
0  -52.509094 131.664978 0.784543  -0.000000 0.000000 -1.000000  0.372082 0.536119 0
0  -51.972301 148.649567 0.784543  -0.000000 -0.000000 -1.000000  0.343760 0.537095 0
0  -24.898811 153.521973 0.784541  -0.000000 0.000000 -1.000000  0.335948 0.578112 0
misc
0  -24.898811 153.521973 0.784541  -0.000000 0.000000 -1.000000  0.335948 0.578112 0
0  -23.852760 131.912735 0.784541  -0.000000 0.000000 -1.000000  0.372082 0.580065 0
0  -47.691750 131.664978 0.784543  -0.000000 0.000000 -1.000000  0.372082 0.543931 0
misc
0  -52.509094 131.664978 0.784543  -0.000000 0.000000 -1.000000  0.372082 0.536119 0
0  -24.898811 153.521973 0.784541  -0.000000 0.000000 -1.000000  0.335948 0.578112 0
0  -47.691750 131.664978 0.784543  -0.000000 0.000000 -1.000000  0.372082 0.543931 0
misc
0  47.622910 131.128189 1.403909  -0.984034 -0.177967 0.002291  0.269539 0.617176 0
0  47.581615 126.063087 18.952816  -0.999975 -0.007074 -0.000615  0.310556 0.692373 0
0  47.554089 131.733795 18.980343  -0.999907 0.004245 0.012945  0.264657 0.693350 0
misc
0  47.554089 131.733795 18.980343  -0.999907 0.004245 0.012945  0.264657 0.693350 0
0  47.512794 131.623688 1.403909  -0.972601 -0.232442 0.004364  0.265633 0.617176 0
0  47.622910 131.128189 1.403909  -0.984034 -0.177967 0.002291  0.269539 0.617176 0
misc
0  -47.650455 135.628967 24.967627  0.999958 0.005890 0.007064  0.234382 0.718741 0
0  -47.650455 126.186974 24.967627  0.999959 -0.002444 0.008741  0.309580 0.718741 0
0  -47.581631 131.733795 18.980350  0.999986 0.001031 0.005213  0.264657 0.693350 0
misc
0  -47.581631 131.733795 18.980350  0.999986 0.001031 0.005213  0.264657 0.693350 0
0  -47.650455 135.518860 18.980350  0.999861 0.016676 0.000159  0.234382 0.693350 0
0  -47.650455 135.628967 24.967627  0.999958 0.005890 0.007064  0.234382 0.718741 0
misc
0  -47.609158 126.063087 18.952824  0.999962 -0.008633 0.001031  0.310556 0.692373 0
0  -47.650459 131.128189 1.403916  0.975159 -0.212242 -0.063384  0.269539 0.617176 0
0  -47.540344 131.623688 1.403916  0.980642 -0.187912 -0.055059  0.265633 0.617176 0
misc
0  -47.540344 131.623688 1.403916  0.980642 -0.187912 -0.055059  0.265633 0.617176 0
0  -47.581631 131.733795 18.980350  0.999986 0.001031 0.005213  0.264657 0.693350 0
0  -47.609158 126.063087 18.952824  0.999962 -0.008633 0.001031  0.310556 0.692373 0
misc
0  -47.650455 126.186974 24.967627  0.999959 -0.002444 0.008741  0.309580 0.718741 0
0  -47.609158 126.063087 18.952824  0.999962 -0.008633 0.001031  0.310556 0.692373 0
0  -47.581631 131.733795 18.980350  0.999986 0.001031 0.005213  0.264657 0.693350 0
misc
0  47.622913 122.690956 18.209568  -0.999939 -0.010777 -0.002444  0.337901 0.689444 0
0  47.622913 123.131393 18.911526  -0.999930 -0.011686 0.001826  0.333995 0.692373 0
0  47.581615 126.063087 18.952816  -0.999975 -0.007074 -0.000615  0.310556 0.692373 0
misc
0  47.622913 126.186974 24.967619  -0.999971 0.000330 0.007601  0.309580 0.718741 0
0  47.622913 135.628967 24.967619  -1.000000 -0.000032 0.000478  0.234382 0.718741 0
0  47.622913 135.518860 18.980343  -0.999934 0.006019 0.009814  0.234382 0.693350 0
misc
0  47.622913 135.518860 18.980343  -0.999934 0.006019 0.009814  0.234382 0.693350 0
0  47.554089 131.733795 18.980343  -0.999907 0.004245 0.012945  0.264657 0.693350 0
0  47.622913 126.186974 24.967619  -0.999971 0.000330 0.007601  0.309580 0.718741 0
misc
0  47.581615 126.063087 18.952816  -0.999975 -0.007074 -0.000615  0.310556 0.692373 0
0  47.622913 126.186974 24.967619  -0.999971 0.000330 0.007601  0.309580 0.718741 0
0  47.554089 131.733795 18.980343  -0.999907 0.004245 0.012945  0.264657 0.693350 0
misc
0  11.988303 137.487076 20.962341  0.000000 1.000000 0.000000  0.180670 0.240211 0
0  11.988303 137.487076 22.627768  0.000000 1.000000 0.000000  0.188482 0.240211 0
0  20.191557 137.487076 22.641529  0.000000 1.000000 0.000000  0.188482 0.296854 0
misc
0  20.191557 137.487076 22.641529  0.000000 1.000000 0.000000  0.188482 0.296854 0
0  20.191557 137.487076 20.962339  0.000000 1.000000 0.000000  0.180670 0.296854 0
0  11.988303 137.487076 20.962341  0.000000 1.000000 0.000000  0.180670 0.240211 0
misc
0  42.131134 137.487076 20.962337  0.000000 1.000000 0.000000  0.180670 0.240211 0
0  42.131134 137.487076 22.627764  0.000000 1.000000 0.000000  0.188482 0.240211 0
0  50.334389 137.487076 22.641527  0.000000 1.000000 0.000000  0.188482 0.296854 0
misc
0  50.334389 137.487076 22.641527  0.000000 1.000000 0.000000  0.188482 0.296854 0
0  50.334389 137.487076 20.962337  0.000000 1.000000 0.000000  0.180670 0.296854 0
0  42.131134 137.487076 20.962337  0.000000 1.000000 0.000000  0.180670 0.240211 0
misc
0  27.445105 137.487076 20.962339  0.000000 1.000000 0.000000  0.180670 0.240211 0
0  27.445105 137.487076 22.627766  0.000000 1.000000 0.000000  0.188482 0.240211 0
0  35.648361 137.487076 22.641529  0.000000 1.000000 0.000000  0.188482 0.296854 0
misc
0  35.648361 137.487076 22.641529  0.000000 1.000000 0.000000  0.188482 0.296854 0
0  35.648361 137.487076 20.962339  0.000000 1.000000 0.000000  0.180670 0.296854 0
0  27.445105 137.487076 20.962339  0.000000 1.000000 0.000000  0.180670 0.240211 0
misc
0  -19.296926 137.487076 20.962343  0.000000 1.000000 0.000000  0.180670 0.296854 0
0  -19.296926 137.487076 22.641533  0.000000 1.000000 0.000000  0.188482 0.296854 0
0  -11.093671 137.487076 22.627768  0.000000 1.000000 0.000000  0.188482 0.240211 0
misc
0  -11.093671 137.487076 22.627768  0.000000 1.000000 0.000000  0.188482 0.240211 0
0  -11.093671 137.487076 20.962341  0.000000 1.000000 0.000000  0.180670 0.240211 0
0  -19.296926 137.487076 20.962343  0.000000 1.000000 0.000000  0.180670 0.296854 0
misc
0  -49.439754 137.487076 20.962345  0.000000 1.000000 0.000000  0.180670 0.296854 0
0  -49.439754 137.487076 22.641535  0.000000 1.000000 0.000000  0.188482 0.296854 0
0  -41.236500 137.487076 22.627771  0.000000 1.000000 0.000000  0.188482 0.240211 0
misc
0  -41.236500 137.487076 22.627771  0.000000 1.000000 0.000000  0.188482 0.240211 0
0  -41.236500 137.487076 20.962345  0.000000 1.000000 0.000000  0.180670 0.240211 0
0  -49.439754 137.487076 20.962345  0.000000 1.000000 0.000000  0.180670 0.296854 0
misc
0  -34.753727 137.487076 20.962343  0.000000 1.000000 0.000000  0.180670 0.296854 0
0  -34.753727 137.487076 22.641533  0.000000 1.000000 0.000000  0.188482 0.296854 0
0  -26.564238 137.487076 22.627769  0.000000 1.000000 0.000000  0.188482 0.240211 0
misc
0  -26.564238 137.487076 22.627769  0.000000 1.000000 0.000000  0.188482 0.240211 0
0  -26.564238 137.487076 20.962343  0.000000 1.000000 0.000000  0.180670 0.240211 0
0  -34.753727 137.487076 20.962343  0.000000 1.000000 0.000000  0.180670 0.296854 0
misc
0  43.920433 134.527847 8.258307  0.000000 1.000000 -0.000001  0.315439 0.250954 0
0  44.126888 134.527847 8.010557  0.000000 1.000000 0.000000  0.309580 0.253883 0
0  44.126888 134.527847 6.056090  0.000000 1.000000 0.000000  0.263680 0.253883 0
misc
0  44.126888 134.527847 6.056090  0.000000 1.000000 0.000000  0.263680 0.253883 0
0  43.920429 134.527847 5.849633  0.000000 1.000000 0.000000  0.258797 0.250954 0
0  38.194668 134.527847 5.849633  0.000000 1.000000 -0.000004  0.258797 0.136692 0
misc
0  43.920433 134.527847 8.258307  0.000000 1.000000 -0.000001  0.315439 0.250954 0
0  44.126888 134.527847 6.056090  0.000000 1.000000 0.000000  0.263680 0.253883 0
0  38.194668 134.527847 5.849633  0.000000 1.000000 -0.000004  0.258797 0.136692 0
misc
0  38.194668 134.527847 5.849633  0.000000 1.000000 -0.000004  0.258797 0.136692 0
0  37.974445 134.527847 6.179965  0.000000 1.000000 0.000000  0.264657 0.131809 0
0  37.974445 134.527847 7.996794  0.000000 1.000000 0.000002  0.309580 0.131809 0
misc
0  43.920433 134.527847 8.258307  0.000000 1.000000 -0.000001  0.315439 0.250954 0
0  38.194668 134.527847 5.849633  0.000000 1.000000 -0.000004  0.258797 0.136692 0
0  37.974445 134.527847 7.996794  0.000000 1.000000 0.000002  0.309580 0.131809 0
misc
0  43.920433 134.527847 8.258307  0.000000 1.000000 -0.000001  0.315439 0.250954 0
0  37.974445 134.527847 7.996794  0.000000 1.000000 0.000002  0.309580 0.131809 0
0  38.222198 134.527847 8.258307  0.000000 1.000000 0.000020  0.315439 0.136692 0
misc
0  44.113129 134.280106 8.519820  0.436844 0.392119 0.809574  0.017579 0.978515 0
0  37.974449 134.280106 8.519820  -0.436254 0.401181 0.805442  0.017579 0.978515 0
0  37.974449 133.509338 8.519820  -0.453340 0.000000 0.891338  0.017579 0.978515 0
misc
0  37.974449 133.509338 8.519820  -0.453340 0.000000 0.891338  0.017579 0.978515 0
0  44.113129 133.509338 8.519820  0.453336 0.000001 0.891340  0.017579 0.978515 0
0  44.113129 134.280106 8.519820  0.436844 0.392119 0.809574  0.017579 0.978515 0
misc
0  44.113125 134.280106 5.615647  0.433678 0.385565 -0.814409  0.017579 0.978515 0
0  44.113125 133.509338 5.615647  0.453384 0.000000 -0.891315  0.017579 0.978515 0
0  37.974445 133.509338 5.615647  -0.453340 -0.000001 -0.891338  0.017579 0.978515 0
misc
0  37.974445 133.509338 5.615647  -0.453340 -0.000001 -0.891338  0.017579 0.978515 0
0  37.974445 134.280106 5.615647  -0.440850 0.403870 -0.801586  0.017579 0.978515 0
0  44.113125 134.280106 5.615647  0.433678 0.385565 -0.814409  0.017579 0.978515 0
misc
0  37.795517 133.509338 5.863397  -0.950828 -0.000000 -0.309719  0.017579 0.978515 0
0  37.795521 133.509338 8.272070  -0.950822 0.000000 0.309739  0.017579 0.978515 0
0  37.795521 134.238815 8.272070  -0.901789 0.312087 0.298962  0.017579 0.978515 0
misc
0  37.795521 134.238815 8.272070  -0.901789 0.312087 0.298962  0.017579 0.978515 0
0  37.795517 134.238815 5.863397  -0.895514 0.328901 -0.299800  0.017579 0.978515 0
0  37.795517 133.509338 5.863397  -0.950828 -0.000000 -0.309719  0.017579 0.978515 0
misc
0  44.292053 133.509338 8.272069  0.950814 -0.000000 0.309764  0.017579 0.978515 0
0  44.292049 133.509338 5.863396  0.950806 0.000000 -0.309785  0.017579 0.978515 0
0  44.292049 134.238815 5.863396  0.907387 0.297202 -0.297187  0.017579 0.978515 0
misc
0  44.292049 134.238815 5.863396  0.907387 0.297202 -0.297187  0.017579 0.978515 0
0  44.292053 134.238815 8.272069  0.902946 0.308996 0.298681  0.017579 0.978515 0
0  44.292053 133.509338 8.272069  0.950814 -0.000000 0.309764  0.017579 0.978515 0
misc
0  37.795521 134.238815 8.272070  -0.901789 0.312087 0.298962  0.017579 0.978515 0
0  37.974445 134.527847 8.010557  -0.747031 0.645848 0.157560  0.017579 0.978515 0
0  37.974445 134.527847 6.179965  -0.776100 0.619551 -0.117583  0.017579 0.978515 0
misc
0  37.974445 134.527847 6.179965  -0.776100 0.619551 -0.117583  0.017579 0.978515 0
0  37.795517 134.238815 5.863397  -0.895514 0.328901 -0.299800  0.017579 0.978515 0
0  37.795521 134.238815 8.272070  -0.901789 0.312087 0.298962  0.017579 0.978515 0
misc
0  37.974449 133.509338 8.519820  -0.453340 0.000000 0.891338  0.017579 0.978515 0
0  37.974449 134.280106 8.519820  -0.436254 0.401181 0.805442  0.017579 0.978515 0
0  37.795521 134.238815 8.272070  -0.901789 0.312087 0.298962  0.017579 0.978515 0
misc
0  37.795521 134.238815 8.272070  -0.901789 0.312087 0.298962  0.017579 0.978515 0
0  37.795521 133.509338 8.272070  -0.950822 0.000000 0.309739  0.017579 0.978515 0
0  37.974449 133.509338 8.519820  -0.453340 0.000000 0.891338  0.017579 0.978515 0
misc
0  37.974449 134.280106 8.519820  -0.436254 0.401181 0.805442  0.017579 0.978515 0
0  38.222198 134.527847 8.272070  -0.174760 0.776323 0.605625  0.017579 0.978515 0
0  37.974445 134.527847 8.010557  -0.747031 0.645848 0.157560  0.017579 0.978515 0
misc
0  44.126888 134.527847 8.024322  0.766619 0.624416 0.149664  0.017579 0.978515 0
0  44.292053 134.238815 8.272069  0.902946 0.308996 0.298681  0.017579 0.978515 0
0  44.292049 134.238815 5.863396  0.907387 0.297202 -0.297187  0.017579 0.978515 0
misc
0  44.292049 134.238815 5.863396  0.907387 0.297202 -0.297187  0.017579 0.978515 0
0  44.126888 134.527847 6.069854  0.753655 0.632925 -0.177226  0.017579 0.978515 0
0  44.126888 134.527847 8.024322  0.766619 0.624416 0.149664  0.017579 0.978515 0
misc
0  44.292053 134.238815 8.272069  0.902946 0.308996 0.298681  0.017579 0.978515 0
0  44.113129 134.280106 8.519820  0.436844 0.392119 0.809574  0.017579 0.978515 0
0  44.113129 133.509338 8.519820  0.453336 0.000001 0.891340  0.017579 0.978515 0
misc
0  44.113129 133.509338 8.519820  0.453336 0.000001 0.891340  0.017579 0.978515 0
0  44.292053 133.509338 8.272069  0.950814 -0.000000 0.309764  0.017579 0.978515 0
0  44.292053 134.238815 8.272069  0.902946 0.308996 0.298681  0.017579 0.978515 0
misc
0  37.795517 134.238815 5.863397  -0.895514 0.328901 -0.299800  0.017579 0.978515 0
0  37.974445 134.280106 5.615647  -0.440850 0.403870 -0.801586  0.017579 0.978515 0
0  37.974445 133.509338 5.615647  -0.453340 -0.000001 -0.891338  0.017579 0.978515 0
misc
0  37.974445 133.509338 5.615647  -0.453340 -0.000001 -0.891338  0.017579 0.978515 0
0  37.795517 133.509338 5.863397  -0.950828 -0.000000 -0.309719  0.017579 0.978515 0
0  37.795517 134.238815 5.863397  -0.895514 0.328901 -0.299800  0.017579 0.978515 0
misc
0  37.974445 134.527847 6.179965  -0.776100 0.619551 -0.117583  0.017579 0.978515 0
0  38.194668 134.527847 5.863397  -0.247354 0.780067 -0.574727  0.017579 0.978515 0
0  37.974445 134.280106 5.615647  -0.440850 0.403870 -0.801586  0.017579 0.978515 0
misc
0  44.113125 133.509338 5.615647  0.453384 0.000000 -0.891315  0.017579 0.978515 0
0  44.113125 134.280106 5.615647  0.433678 0.385565 -0.814409  0.017579 0.978515 0
0  44.292049 134.238815 5.863396  0.907387 0.297202 -0.297187  0.017579 0.978515 0
misc
0  44.292049 134.238815 5.863396  0.907387 0.297202 -0.297187  0.017579 0.978515 0
0  44.292049 133.509338 5.863396  0.950806 0.000000 -0.309785  0.017579 0.978515 0
0  44.113125 133.509338 5.615647  0.453384 0.000000 -0.891315  0.017579 0.978515 0
misc
0  37.974449 134.280106 8.519820  -0.436254 0.401181 0.805442  0.017579 0.978515 0
0  37.974445 134.527847 8.010557  -0.747031 0.645848 0.157560  0.017579 0.978515 0
0  37.795521 134.238815 8.272070  -0.901789 0.312087 0.298962  0.017579 0.978515 0
misc
0  44.113129 134.280106 8.519820  0.436844 0.392119 0.809574  0.017579 0.978515 0
0  44.292053 134.238815 8.272069  0.902946 0.308996 0.298681  0.017579 0.978515 0
0  44.126888 134.527847 8.024322  0.766619 0.624416 0.149664  0.017579 0.978515 0
misc
0  37.974445 134.527847 6.179965  -0.776100 0.619551 -0.117583  0.017579 0.978515 0
0  37.974445 134.280106 5.615647  -0.440850 0.403870 -0.801586  0.017579 0.978515 0
0  37.795517 134.238815 5.863397  -0.895514 0.328901 -0.299800  0.017579 0.978515 0
misc
0  44.126888 134.527847 6.069854  0.753655 0.632925 -0.177226  0.017579 0.978515 0
0  44.292049 134.238815 5.863396  0.907387 0.297202 -0.297187  0.017579 0.978515 0
0  44.113125 134.280106 5.615647  0.433678 0.385565 -0.814409  0.017579 0.978515 0
misc
0  44.113129 134.280106 8.519820  0.436844 0.392119 0.809574  0.017579 0.978515 0
0  43.920433 134.527847 8.272070  0.236400 0.769628 0.593116  0.017579 0.978515 0
0  38.222198 134.527847 8.272070  -0.174760 0.776323 0.605625  0.017579 0.978515 0
misc
0  38.222198 134.527847 8.272070  -0.174760 0.776323 0.605625  0.017579 0.978515 0
0  37.974449 134.280106 8.519820  -0.436254 0.401181 0.805442  0.017579 0.978515 0
0  44.113129 134.280106 8.519820  0.436844 0.392119 0.809574  0.017579 0.978515 0
misc
0  43.920429 134.527847 5.863396  0.208935 0.764551 -0.609760  0.017579 0.978515 0
0  44.113125 134.280106 5.615647  0.433678 0.385565 -0.814409  0.017579 0.978515 0
0  37.974445 134.280106 5.615647  -0.440850 0.403870 -0.801586  0.017579 0.978515 0
misc
0  37.974445 134.280106 5.615647  -0.440850 0.403870 -0.801586  0.017579 0.978515 0
0  38.194668 134.527847 5.863397  -0.247354 0.780067 -0.574727  0.017579 0.978515 0
0  43.920429 134.527847 5.863396  0.208935 0.764551 -0.609760  0.017579 0.978515 0
misc
0  44.113129 134.280106 8.519820  0.436844 0.392119 0.809574  0.017579 0.978515 0
0  44.126888 134.527847 8.024322  0.766619 0.624416 0.149664  0.017579 0.978515 0
0  43.920433 134.527847 8.272070  0.236400 0.769628 0.593116  0.017579 0.978515 0
misc
0  44.126888 134.527847 6.069854  0.753655 0.632925 -0.177226  0.017579 0.978515 0
0  44.113125 134.280106 5.615647  0.433678 0.385565 -0.814409  0.017579 0.978515 0
0  43.920429 134.527847 5.863396  0.208935 0.764551 -0.609760  0.017579 0.978515 0
misc
0  -38.222218 134.527847 5.849639  0.000000 1.000000 -0.000001  0.258797 0.136692 0
0  -43.947979 134.527847 5.849639  0.000000 1.000000 0.000026  0.258797 0.250954 0
0  -44.154438 134.527847 6.056097  0.000000 1.000000 0.000004  0.263680 0.253883 0
misc
0  -44.154438 134.527847 6.056097  0.000000 1.000000 0.000004  0.263680 0.253883 0
0  -44.154438 134.527847 8.010563  0.000000 1.000000 0.000000  0.309580 0.253883 0
0  -43.947975 134.527847 8.258312  0.000000 1.000000 -0.000003  0.315439 0.250954 0
misc
0  -38.222218 134.527847 5.849639  0.000000 1.000000 -0.000001  0.258797 0.136692 0
0  -44.154438 134.527847 6.056097  0.000000 1.000000 0.000004  0.263680 0.253883 0
0  -43.947975 134.527847 8.258312  0.000000 1.000000 -0.000003  0.315439 0.250954 0
misc
0  -43.947975 134.527847 8.258312  0.000000 1.000000 -0.000003  0.315439 0.250954 0
0  -38.249741 134.527847 8.258312  0.000000 1.000000 0.000005  0.315439 0.136692 0
0  -38.001995 134.527847 7.996799  0.000000 1.000000 0.000002  0.309580 0.131809 0
misc
0  -38.222218 134.527847 5.849639  0.000000 1.000000 -0.000001  0.258797 0.136692 0
0  -43.947975 134.527847 8.258312  0.000000 1.000000 -0.000003  0.315439 0.250954 0
0  -38.001995 134.527847 7.996799  0.000000 1.000000 0.000002  0.309580 0.131809 0
misc
0  -38.222218 134.527847 5.849639  0.000000 1.000000 -0.000001  0.258797 0.136692 0
0  -38.001995 134.527847 7.996799  0.000000 1.000000 0.000002  0.309580 0.131809 0
0  -38.001995 134.527847 6.179971  0.000000 1.000000 0.000000  0.264657 0.131809 0
misc
0  -44.140671 134.280106 8.519826  -0.436813 0.391954 0.809671  0.017579 0.978515 0
0  -44.140671 133.509338 8.519826  -0.453272 0.000000 0.891372  0.017579 0.978515 0
0  -38.001991 133.509338 8.519826  0.453449 0.000001 0.891282  0.017579 0.978515 0
misc
0  -38.001991 133.509338 8.519826  0.453449 0.000001 0.891282  0.017579 0.978515 0
0  -38.001991 134.280106 8.519826  0.436194 0.401186 0.805472  0.017579 0.978515 0
0  -44.140671 134.280106 8.519826  -0.436813 0.391954 0.809671  0.017579 0.978515 0
misc
0  -44.140675 134.280106 5.615654  -0.433895 0.385913 -0.814129  0.017579 0.978515 0
0  -38.001995 134.280106 5.615653  0.440809 0.403884 -0.801602  0.017579 0.978515 0
0  -38.001995 133.509338 5.615653  0.453346 0.000000 -0.891334  0.017579 0.978515 0
misc
0  -38.001995 133.509338 5.615653  0.453346 0.000000 -0.891334  0.017579 0.978515 0
0  -44.140675 133.509338 5.615654  -0.453271 -0.000000 -0.891373  0.017579 0.978515 0
0  -44.140675 134.280106 5.615654  -0.433895 0.385913 -0.814129  0.017579 0.978515 0
misc
0  -37.823071 133.509338 5.863402  0.950813 0.000000 -0.309766  0.017579 0.978515 0
0  -37.823071 134.238815 5.863402  0.895521 0.328921 -0.299755  0.017579 0.978515 0
0  -37.823067 134.238815 8.272076  0.901774 0.312195 0.298895  0.017579 0.978515 0
misc
0  -37.823067 134.238815 8.272076  0.901774 0.312195 0.298895  0.017579 0.978515 0
0  -37.823067 133.509338 8.272076  0.950824 -0.000000 0.309732  0.017579 0.978515 0
0  -37.823071 133.509338 5.863402  0.950813 0.000000 -0.309766  0.017579 0.978515 0
misc
0  -44.319603 133.509338 8.272077  -0.950842 0.000000 0.309675  0.017579 0.978515 0
0  -44.319603 134.238815 8.272077  -0.902964 0.308946 0.298678  0.017579 0.978515 0
0  -44.319607 134.238815 5.863403  -0.907401 0.297163 -0.297182  0.017579 0.978515 0
misc
0  -44.319607 134.238815 5.863403  -0.907401 0.297163 -0.297182  0.017579 0.978515 0
0  -44.319607 133.509338 5.863403  -0.950820 -0.000000 -0.309745  0.017579 0.978515 0
0  -44.319603 133.509338 8.272077  -0.950842 0.000000 0.309675  0.017579 0.978515 0
misc
0  -37.823067 134.238815 8.272076  0.901774 0.312195 0.298895  0.017579 0.978515 0
0  -37.823071 134.238815 5.863402  0.895521 0.328921 -0.299755  0.017579 0.978515 0
0  -38.001995 134.527847 6.179971  0.776070 0.619586 -0.117593  0.017579 0.978515 0
misc
0  -38.001995 134.527847 6.179971  0.776070 0.619586 -0.117593  0.017579 0.978515 0
0  -38.001995 134.527847 8.010563  0.747008 0.645862 0.157612  0.017579 0.978515 0
0  -37.823067 134.238815 8.272076  0.901774 0.312195 0.298895  0.017579 0.978515 0
misc
0  -38.001991 133.509338 8.519826  0.453449 0.000001 0.891282  0.017579 0.978515 0
0  -37.823067 133.509338 8.272076  0.950824 -0.000000 0.309732  0.017579 0.978515 0
0  -37.823067 134.238815 8.272076  0.901774 0.312195 0.298895  0.017579 0.978515 0
misc
0  -37.823067 134.238815 8.272076  0.901774 0.312195 0.298895  0.017579 0.978515 0
0  -38.001991 134.280106 8.519826  0.436194 0.401186 0.805472  0.017579 0.978515 0
0  -38.001991 133.509338 8.519826  0.453449 0.000001 0.891282  0.017579 0.978515 0
misc
0  -38.249741 134.527847 8.272076  0.174729 0.776362 0.605584  0.017579 0.978515 0
0  -38.001991 134.280106 8.519826  0.436194 0.401186 0.805472  0.017579 0.978515 0
0  -38.001995 134.527847 8.010563  0.747008 0.645862 0.157612  0.017579 0.978515 0
misc
0  -44.154438 134.527847 8.024327  -0.766662 0.624362 0.149668  0.017579 0.978515 0
0  -44.154438 134.527847 6.069861  -0.753674 0.632903 -0.177225  0.017579 0.978515 0
0  -44.319607 134.238815 5.863403  -0.907401 0.297163 -0.297182  0.017579 0.978515 0
misc
0  -44.319607 134.238815 5.863403  -0.907401 0.297163 -0.297182  0.017579 0.978515 0
0  -44.319603 134.238815 8.272077  -0.902964 0.308946 0.298678  0.017579 0.978515 0
0  -44.154438 134.527847 8.024327  -0.766662 0.624362 0.149668  0.017579 0.978515 0
misc
0  -44.319603 134.238815 8.272077  -0.902964 0.308946 0.298678  0.017579 0.978515 0
0  -44.319603 133.509338 8.272077  -0.950842 0.000000 0.309675  0.017579 0.978515 0
0  -44.140671 133.509338 8.519826  -0.453272 0.000000 0.891372  0.017579 0.978515 0
misc
0  -44.140671 133.509338 8.519826  -0.453272 0.000000 0.891372  0.017579 0.978515 0
0  -44.140671 134.280106 8.519826  -0.436813 0.391954 0.809671  0.017579 0.978515 0
0  -44.319603 134.238815 8.272077  -0.902964 0.308946 0.298678  0.017579 0.978515 0
misc
0  -37.823071 134.238815 5.863402  0.895521 0.328921 -0.299755  0.017579 0.978515 0
0  -37.823071 133.509338 5.863402  0.950813 0.000000 -0.309766  0.017579 0.978515 0
0  -38.001995 133.509338 5.615653  0.453346 0.000000 -0.891334  0.017579 0.978515 0
misc
0  -38.001995 133.509338 5.615653  0.453346 0.000000 -0.891334  0.017579 0.978515 0
0  -38.001995 134.280106 5.615653  0.440809 0.403884 -0.801602  0.017579 0.978515 0
0  -37.823071 134.238815 5.863402  0.895521 0.328921 -0.299755  0.017579 0.978515 0
misc
0  -38.222218 134.527847 5.863402  0.247293 0.780073 -0.574745  0.017579 0.978515 0
0  -38.001995 134.527847 6.179971  0.776070 0.619586 -0.117593  0.017579 0.978515 0
0  -38.001995 134.280106 5.615653  0.440809 0.403884 -0.801602  0.017579 0.978515 0
misc
0  -44.140675 133.509338 5.615654  -0.453271 -0.000000 -0.891373  0.017579 0.978515 0
0  -44.319607 133.509338 5.863403  -0.950820 -0.000000 -0.309745  0.017579 0.978515 0
0  -44.319607 134.238815 5.863403  -0.907401 0.297163 -0.297182  0.017579 0.978515 0
misc
0  -44.319607 134.238815 5.863403  -0.907401 0.297163 -0.297182  0.017579 0.978515 0
0  -44.140675 134.280106 5.615654  -0.433895 0.385913 -0.814129  0.017579 0.978515 0
0  -44.140675 133.509338 5.615654  -0.453271 -0.000000 -0.891373  0.017579 0.978515 0
misc
0  -38.001995 134.527847 8.010563  0.747008 0.645862 0.157612  0.017579 0.978515 0
0  -38.001991 134.280106 8.519826  0.436194 0.401186 0.805472  0.017579 0.978515 0
0  -37.823067 134.238815 8.272076  0.901774 0.312195 0.298895  0.017579 0.978515 0
misc
0  -44.319603 134.238815 8.272077  -0.902964 0.308946 0.298678  0.017579 0.978515 0
0  -44.140671 134.280106 8.519826  -0.436813 0.391954 0.809671  0.017579 0.978515 0
0  -44.154438 134.527847 8.024327  -0.766662 0.624362 0.149668  0.017579 0.978515 0
misc
0  -38.001995 134.280106 5.615653  0.440809 0.403884 -0.801602  0.017579 0.978515 0
0  -38.001995 134.527847 6.179971  0.776070 0.619586 -0.117593  0.017579 0.978515 0
0  -37.823071 134.238815 5.863402  0.895521 0.328921 -0.299755  0.017579 0.978515 0
misc
0  -44.319607 134.238815 5.863403  -0.907401 0.297163 -0.297182  0.017579 0.978515 0
0  -44.154438 134.527847 6.069861  -0.753674 0.632903 -0.177225  0.017579 0.978515 0
0  -44.140675 134.280106 5.615654  -0.433895 0.385913 -0.814129  0.017579 0.978515 0
misc
0  -44.140671 134.280106 8.519826  -0.436813 0.391954 0.809671  0.017579 0.978515 0
0  -38.001991 134.280106 8.519826  0.436194 0.401186 0.805472  0.017579 0.978515 0
0  -38.249741 134.527847 8.272076  0.174729 0.776362 0.605584  0.017579 0.978515 0
misc
0  -38.249741 134.527847 8.272076  0.174729 0.776362 0.605584  0.017579 0.978515 0
0  -43.947975 134.527847 8.272076  -0.236457 0.769607 0.593121  0.017579 0.978515 0
0  -44.140671 134.280106 8.519826  -0.436813 0.391954 0.809671  0.017579 0.978515 0
misc
0  -43.947979 134.527847 5.863403  -0.208994 0.764536 -0.609759  0.017579 0.978515 0
0  -38.222218 134.527847 5.863402  0.247293 0.780073 -0.574745  0.017579 0.978515 0
0  -38.001995 134.280106 5.615653  0.440809 0.403884 -0.801602  0.017579 0.978515 0
misc
0  -38.001995 134.280106 5.615653  0.440809 0.403884 -0.801602  0.017579 0.978515 0
0  -44.140675 134.280106 5.615654  -0.433895 0.385913 -0.814129  0.017579 0.978515 0
0  -43.947979 134.527847 5.863403  -0.208994 0.764536 -0.609759  0.017579 0.978515 0
misc
0  -44.154438 134.527847 8.024327  -0.766662 0.624362 0.149668  0.017579 0.978515 0
0  -44.140671 134.280106 8.519826  -0.436813 0.391954 0.809671  0.017579 0.978515 0
0  -43.947975 134.527847 8.272076  -0.236457 0.769607 0.593121  0.017579 0.978515 0
misc
0  -44.140675 134.280106 5.615654  -0.433895 0.385913 -0.814129  0.017579 0.978515 0
0  -44.154438 134.527847 6.069861  -0.753674 0.632903 -0.177225  0.017579 0.978515 0
0  -43.947979 134.527847 5.863403  -0.208994 0.764536 -0.609759  0.017579 0.978515 0
misc
0  26.192598 137.074173 24.967621  0.000000 -0.000000 1.000000  0.363292 0.656240 0
0  23.811453 135.628967 24.967621  0.000000 -0.000000 1.000000  0.365246 0.652333 0
0  47.622913 135.628967 24.967619  0.000000 -0.000000 1.000000  0.365246 0.689444 0
misc
0  47.622913 135.628967 24.967619  0.000000 -0.000000 1.000000  0.365246 0.689444 0
0  52.385204 137.074173 24.967619  -0.000001 -0.000000 1.000000  0.363292 0.696280 0
0  26.192598 137.074173 24.967621  0.000000 -0.000000 1.000000  0.363292 0.656240 0
misc
0  23.811453 135.628967 24.967621  -0.003571 -0.999994 0.000165  0.349620 0.652333 0
0  23.797684 135.615204 18.980345  -0.004217 -0.999991 0.000251  0.349620 0.645497 0
0  47.622913 135.518860 18.980343  -0.000669 -0.999896 0.014377  0.376965 0.645497 0
misc
0  47.622913 135.518860 18.980343  -0.000669 -0.999896 0.014377  0.376965 0.645497 0
0  47.622913 135.628967 24.967619  0.000000 -0.999856 0.016995  0.376965 0.652333 0
0  23.811453 135.628967 24.967621  -0.003571 -0.999994 0.000165  0.349620 0.652333 0
misc
0  23.797684 135.615204 18.980345  0.000000 -0.000000 1.000000  0.365246 0.652333 0
0  23.770159 131.720032 18.980345  0.000000 -0.000000 1.000000  0.372082 0.652333 0
0  47.554089 131.733795 18.980343  0.000000 -0.000000 1.000000  0.372082 0.689444 0
misc
0  47.554089 131.733795 18.980343  0.000000 -0.000000 1.000000  0.372082 0.689444 0
0  47.622913 135.518860 18.980343  0.000000 -0.000000 1.000000  0.366222 0.689444 0
0  23.797684 135.615204 18.980345  0.000000 -0.000000 1.000000  0.365246 0.652333 0
misc
0  47.512794 131.623688 1.403909  -0.010279 -0.997189 -0.074218  0.376965 0.624989 0
0  23.742628 131.623688 1.403911  -0.004974 -0.905968 -0.423317  0.349620 0.624989 0
0  23.825214 131.912735 0.784538  -0.004515 -0.908503 -0.417853  0.349620 0.624012 0
misc
0  23.825214 131.912735 0.784538  -0.004515 -0.908503 -0.417853  0.349620 0.624012 0
0  47.664200 131.664978 0.784536  -0.010368 -0.997564 -0.068978  0.376965 0.624012 0
0  47.512794 131.623688 1.403909  -0.010279 -0.997189 -0.074218  0.376965 0.624989 0
misc
0  23.770159 131.720032 18.980345  0.000235 -0.999985 0.005481  0.306650 0.725578 0
0  23.742628 131.623688 1.403911  0.000000 -0.999985 0.005482  0.257820 0.725578 0
0  47.512794 131.623688 1.403909  0.000344 -0.999982 0.005946  0.257820 0.761711 0
misc
0  47.512794 131.623688 1.403909  0.000344 -0.999982 0.005946  0.257820 0.761711 0
0  47.554089 131.733795 18.980343  0.000579 -0.999980 0.006263  0.306650 0.761711 0
0  23.770159 131.720032 18.980345  0.000235 -0.999985 0.005481  0.306650 0.725578 0
misc
0  -47.650455 135.628967 24.967627  0.000000 0.000000 1.000000  0.365246 0.543931 0
0  -23.838995 135.628967 24.967625  0.000000 0.000000 1.000000  0.365246 0.580065 0
0  -26.220140 137.074173 24.967625  0.000000 0.000000 1.000000  0.363292 0.576159 0
misc
0  -26.220140 137.074173 24.967625  0.000000 0.000000 1.000000  0.363292 0.576159 0
0  -52.412746 137.074173 24.967627  0.000001 0.000000 1.000000  0.363292 0.536119 0
0  -47.650455 135.628967 24.967627  0.000000 0.000000 1.000000  0.365246 0.543931 0
misc
0  -23.825233 135.615204 18.980349  0.002442 -0.999996 0.001463  0.294931 0.645497 0
0  -23.838995 135.628967 24.967625  0.001772 -0.999998 -0.001145  0.294931 0.652333 0
0  -47.650455 135.628967 24.967627  0.003570 -0.999891 0.014295  0.267586 0.652333 0
misc
0  -47.650455 135.628967 24.967627  0.003570 -0.999891 0.014295  0.267586 0.652333 0
0  -47.650455 135.518860 18.980350  0.004211 -0.999848 0.016912  0.267586 0.645497 0
0  -23.825233 135.615204 18.980349  0.002442 -0.999996 0.001463  0.294931 0.645497 0
misc
0  -23.797701 131.720032 18.980349  0.000000 0.000000 1.000000  0.372082 0.580065 0
0  -23.825233 135.615204 18.980349  0.000000 0.000000 1.000000  0.365246 0.580065 0
0  -47.650455 135.518860 18.980350  0.000000 0.000000 1.000000  0.366222 0.543931 0
misc
0  -47.650455 135.518860 18.980350  0.000000 0.000000 1.000000  0.366222 0.543931 0
0  -47.581631 131.733795 18.980350  0.000000 0.000000 1.000000  0.372082 0.543931 0
0  -23.797701 131.720032 18.980349  0.000000 0.000000 1.000000  0.372082 0.580065 0
misc
0  -23.852760 131.912735 0.784541  0.004515 -0.908503 -0.417854  0.294931 0.624012 0
0  -23.770176 131.623688 1.403914  0.004974 -0.905968 -0.423317  0.294931 0.624989 0
0  -47.540344 131.623688 1.403916  0.010213 -0.997154 -0.074692  0.267586 0.624989 0
misc
0  -47.540344 131.623688 1.403916  0.010213 -0.997154 -0.074692  0.267586 0.624989 0
0  -47.691750 131.664978 0.784543  0.010368 -0.997564 -0.068980  0.267586 0.624012 0
0  -23.852760 131.912735 0.784541  0.004515 -0.908503 -0.417854  0.294931 0.624012 0
misc
0  -23.797701 131.720032 18.980349  -0.000235 -0.999985 0.005481  0.306650 0.652333 0
0  -23.770176 131.623688 1.403914  0.000000 -0.999985 0.005482  0.257820 0.652333 0
0  -0.013774 131.623688 1.403913  0.000000 -0.999987 0.005015  0.257820 0.688467 0
misc
0  -0.013774 131.623688 1.403913  0.000000 -0.999987 0.005015  0.257820 0.688467 0
0  -0.013772 131.706268 18.980347  0.000000 -0.999989 0.004698  0.306650 0.688467 0
0  -23.797701 131.720032 18.980349  -0.000235 -0.999985 0.005481  0.306650 0.652333 0
misc
0  51.944752 148.649567 0.784535  -0.000000 -0.000000 -1.000000  0.343760 0.695303 0
0  52.481544 148.112762 0.784535  0.000000 0.000000 -1.000000  0.344737 0.696280 0
0  52.481544 131.664978 0.784535  -0.000000 -0.000000 -1.000000  0.372082 0.696280 0
misc
0  47.664200 131.664978 0.784536  -0.000000 -0.000000 -1.000000  0.372082 0.689444 0
0  23.825214 131.912735 0.784538  -0.000000 -0.000000 -1.000000  0.372082 0.652333 0
0  24.871262 153.521973 0.784537  -0.000000 -0.000000 -1.000000  0.335948 0.654286 0
misc
0  52.481544 131.664978 0.784535  -0.000000 -0.000000 -1.000000  0.372082 0.696280 0
0  47.664200 131.664978 0.784536  -0.000000 -0.000000 -1.000000  0.372082 0.689444 0
0  24.871262 153.521973 0.784537  -0.000000 -0.000000 -1.000000  0.335948 0.654286 0
misc
0  51.944752 148.649567 0.784535  -0.000000 -0.000000 -1.000000  0.343760 0.695303 0
0  52.481544 131.664978 0.784535  -0.000000 -0.000000 -1.000000  0.372082 0.696280 0
0  24.871262 153.521973 0.784537  -0.000000 -0.000000 -1.000000  0.335948 0.654286 0
misc
0  -0.013774 132.160477 0.784539  -0.000000 -0.000000 -1.000000  0.371105 0.616199 0
0  -23.852760 131.912735 0.784541  -0.000000 0.000000 -1.000000  0.372082 0.580065 0
0  -24.898811 153.521973 0.784541  -0.000000 0.000000 -1.000000  0.335948 0.578112 0
misc
0  -24.898811 153.521973 0.784541  -0.000000 0.000000 -1.000000  0.335948 0.578112 0
0  -0.013775 153.521973 0.784539  -0.000000 -0.000000 -1.000000  0.335948 0.616199 0
0  -0.013774 132.160477 0.784539  -0.000000 -0.000000 -1.000000  0.371105 0.616199 0
skin_0
0  53.100918 136.661255 24.761160  1.000000 0.000000 0.000000  0.130863 0.309549 0
0  53.100918 126.338379 24.761160  1.000000 0.000000 0.000000  0.130863 0.327128 0
0  53.100918 126.283325 18.870234  1.000000 0.000000 -0.000000  0.115238 0.328104 0
skin_0
0  53.100918 126.283325 18.870234  1.000000 0.000000 -0.000000  0.115238 0.328104 0
0  53.100918 136.661255 18.581192  1.000000 -0.000000 -0.000000  0.114261 0.309549 0
0  53.100918 136.661255 24.761160  1.000000 0.000000 0.000000  0.130863 0.309549 0
skin_0
0  53.100914 137.280624 4.583358  1.000000 -0.000001 0.000000  0.077151 0.308573 0
0  53.100914 131.114426 1.376381  1.000000 -0.000001 -0.000000  0.069338 0.319315 0
0  53.100914 148.732147 1.403908  1.000000 0.000000 0.000000  0.069338 0.288064 0
skin_0
0  53.100914 148.732147 1.403908  1.000000 0.000000 0.000000  0.069338 0.288064 0
0  53.100914 148.732147 4.583358  1.000000 0.000000 0.000000  0.077151 0.288064 0
0  53.100914 137.280624 4.583358  1.000000 -0.000001 0.000000  0.077151 0.308573 0
skin_0
0  52.481544 137.280624 5.202731  0.000000 1.000000 -0.000001  0.362316 0.121067 0
0  48.421207 137.280624 5.202731  0.000000 1.000000 -0.000002  0.373058 0.121067 0
0  48.407448 137.280624 18.594955  0.000000 1.000000 0.000000  0.373058 0.144505 0
skin_0
0  48.407448 137.280624 18.594955  0.000000 1.000000 0.000000  0.373058 0.144505 0
0  52.481548 137.280624 18.594955  0.000000 1.000000 0.000001  0.362316 0.144505 0
0  52.481544 137.280624 5.202731  0.000000 1.000000 -0.000001  0.362316 0.121067 0
skin_0
0  52.481548 137.280624 24.761160  0.000000 1.000000 -0.000000  0.362316 0.155248 0
0  52.481548 137.280624 18.594955  0.000000 1.000000 0.000001  0.362316 0.144505 0
0  48.407448 137.280624 18.594955  0.000000 1.000000 0.000000  0.373058 0.144505 0
skin_0
0  52.481548 137.280624 24.761160  0.000000 1.000000 -0.000000  0.362316 0.155248 0
0  48.407448 137.280624 18.594955  0.000000 1.000000 0.000000  0.373058 0.144505 0
0  24.196836 137.280624 18.594957  0.000000 1.000000 -0.000001  0.436537 0.144505 0
skin_0
0  52.481548 137.280624 24.761160  0.000000 1.000000 -0.000000  0.362316 0.155248 0
0  24.196836 137.280624 18.594957  0.000000 1.000000 -0.000001  0.436537 0.144505 0
0  26.233889 137.280624 24.761162  0.000000 1.000000 -0.000001  0.431654 0.155248 0
skin_0
0  23.990377 133.509338 5.202733  -0.000034 0.999999 0.001289  0.437513 0.121067 0
0  -0.013774 133.509338 5.202734  -0.000034 0.999999 0.001291  0.500015 0.121067 0
0  -0.013773 133.481812 18.594959  -0.000034 0.999999 0.001290  0.500015 0.144505 0
skin_0
0  -0.013773 133.481812 18.594959  -0.000034 0.999999 0.001290  0.500015 0.144505 0
0  23.990377 133.481812 18.594957  -0.000034 0.999999 0.001289  0.437513 0.144505 0
0  23.990377 133.509338 5.202733  -0.000034 0.999999 0.001289  0.437513 0.121067 0
skin_0
0  24.871262 154.155106 4.583360  0.087211 0.996190 0.000000  0.434584 0.120090 0
0  24.871262 154.155106 1.403911  0.087211 0.996190 0.000000  0.434584 0.115207 0
0  -0.013775 154.155106 1.403913  0.000000 1.000000 0.000000  0.500015 0.115207 0
skin_0
0  -0.013775 154.155106 1.403913  0.000000 1.000000 0.000000  0.500015 0.115207 0
0  -0.013775 154.155106 4.583362  0.000000 1.000000 0.000000  0.500015 0.120090 0
0  24.871262 154.155106 4.583360  0.087211 0.996190 0.000000  0.434584 0.120090 0
skin_0
0  23.990377 136.922775 18.154514  -0.000000 -0.128342 -0.991730  0.437513 0.144505 0
0  48.008293 136.922775 18.154512  -0.000000 -0.128344 -0.991730  0.374035 0.144505 0
0  48.008293 133.481812 18.594955  -0.000000 -0.128439 -0.991717  0.374035 0.144505 0
skin_0
0  48.008293 133.481812 18.594955  -0.000000 -0.128439 -0.991717  0.374035 0.144505 0
0  23.990377 133.481812 18.594957  -0.000000 -0.128437 -0.991718  0.437513 0.144505 0
0  23.990377 136.922775 18.154514  -0.000000 -0.128342 -0.991730  0.437513 0.144505 0
skin_0
0  48.008289 133.509338 5.202731  -1.000000 0.000001 0.000000  0.374035 0.121067 0
0  48.008293 133.481812 18.594955  -1.000000 0.000001 0.000000  0.374035 0.144505 0
0  48.008293 136.922775 18.154512  -1.000000 0.000001 0.000000  0.374035 0.144505 0
skin_0
0  48.008293 136.922775 18.154512  -1.000000 0.000000 0.000000  0.374035 0.144505 0
0  48.008289 136.922775 5.202731  -1.000000 0.000000 0.000000  0.374035 0.121067 0
0  48.008289 133.509338 5.202731  -1.000000 0.000000 0.000000  0.374035 0.121067 0
skin_0
0  53.100914 131.114426 1.376381  1.000000 -0.000001 -0.000000  0.069338 0.319315 0
0  53.100914 136.661255 5.202731  1.000000 -0.000003 -0.000000  0.079104 0.309549 0
0  53.100918 136.661255 18.581192  1.000000 -0.000000 -0.000000  0.114261 0.309549 0
skin_0
0  53.100918 136.661255 18.581192  1.000000 -0.000000 -0.000000  0.114261 0.309549 0
0  53.100918 126.283325 18.870234  1.000000 0.000000 -0.000000  0.115238 0.328104 0
0  53.100914 131.114426 1.376381  1.000000 -0.000001 -0.000000  0.069338 0.319315 0
skin_0
0  24.871262 154.155106 1.403911  0.087211 0.996190 0.000000  0.434584 0.115207 0
0  24.871262 154.155106 4.583360  0.087211 0.996190 0.000000  0.434584 0.120090 0
0  52.564125 149.268936 4.583358  0.173758 0.984788 0.000000  0.362316 0.120090 0
skin_0
0  52.564125 149.268936 4.583358  0.173758 0.984788 0.000000  0.362316 0.120090 0
0  52.564125 149.268936 1.403909  0.173758 0.984788 0.000000  0.362316 0.115207 0
0  24.871262 154.155106 1.403911  0.087211 0.996190 0.000000  0.434584 0.115207 0
skin_0
0  52.481548 137.280624 18.594955  0.707108 0.707105 0.000000  0.362316 0.144505 0
0  52.481548 137.280624 24.761160  0.448206 0.815147 0.366941  0.362316 0.155248 0
0  53.100918 136.661255 24.761160  0.707108 0.707106 0.000000  0.360363 0.155248 0
skin_0
0  53.100918 136.661255 24.761160  0.707108 0.707106 0.000000  0.360363 0.155248 0
0  53.100918 136.661255 18.581192  0.707109 0.707105 -0.000000  0.360363 0.144505 0
0  52.481548 137.280624 18.594955  0.707108 0.707105 0.000000  0.362316 0.144505 0
skin_0
0  52.481544 137.280624 5.202731  0.707105 0.707108 -0.000001  0.362316 0.121067 0
0  52.481548 137.280624 18.594955  0.707108 0.707105 0.000000  0.362316 0.144505 0
0  53.100918 136.661255 18.581192  0.707109 0.707105 -0.000000  0.360363 0.144505 0
skin_0
0  53.100918 136.661255 18.581192  0.707109 0.707105 -0.000000  0.360363 0.144505 0
0  53.100914 136.661255 5.202731  0.707105 0.707109 -0.000001  0.360363 0.121067 0
0  52.481544 137.280624 5.202731  0.707105 0.707108 -0.000001  0.362316 0.121067 0
skin_0
0  53.100914 148.732147 1.403908  0.539109 0.262448 -0.800301  0.069338 0.288064 0
0  53.100914 131.114426 1.376381  0.688854 0.001310 -0.724899  0.069338 0.319315 0
0  52.481544 131.664978 0.784535  0.689271 0.001282 -0.724502  0.067385 0.318339 0
skin_0
0  52.481544 131.664978 0.784535  0.689271 0.001282 -0.724502  0.067385 0.318339 0
0  52.481544 148.112762 0.784535  0.602320 0.177315 -0.778312  0.067385 0.289041 0
0  53.100914 148.732147 1.403908  0.539109 0.262448 -0.800301  0.069338 0.288064 0
skin_0
0  52.481544 148.112762 5.202731  0.602329 0.177323 0.778303  0.362316 0.121067 0
0  52.481544 137.280624 5.202731  0.686114 0.241732 0.686158  0.362316 0.121067 0
0  53.100914 137.280624 4.583358  0.686124 0.241732 0.686149  0.360363 0.120090 0
skin_0
0  53.100914 137.280624 4.583358  0.686137 0.241732 0.686135  0.360363 0.120090 0
0  53.100914 148.732147 4.583358  0.539660 0.262330 0.799969  0.360363 0.120090 0
0  52.481544 148.112762 5.202731  0.602333 0.177328 0.778299  0.362316 0.121067 0
skin_0
0  24.871262 154.155106 4.583360  0.060617 0.705179 0.706434  0.434584 0.120090 0
0  24.871262 153.521973 5.202733  0.065798 0.705604 0.705545  0.434584 0.121067 0
0  51.944752 148.649567 5.202731  0.113713 0.644708 0.755924  0.363292 0.121067 0
skin_0
0  51.944752 148.649567 5.202731  0.113713 0.644708 0.755924  0.363292 0.121067 0
0  52.564125 149.268936 4.583358  0.113506 0.643834 0.756699  0.362316 0.120090 0
0  24.871262 154.155106 4.583360  0.060617 0.705179 0.706434  0.434584 0.120090 0
skin_0
0  -0.013775 154.155106 4.583362  -0.000030 0.707099 0.707114  0.500015 0.120090 0
0  -0.013775 153.521973 5.202734  -0.000030 0.707100 0.707114  0.500015 0.121067 0
0  24.871262 153.521973 5.202733  0.065772 0.705576 0.705576  0.434584 0.121067 0
skin_0
0  24.871262 153.521973 5.202733  0.065772 0.705576 0.705576  0.434584 0.121067 0
0  24.871262 154.155106 4.583360  0.060591 0.705151 0.706463  0.434584 0.120090 0
0  -0.013775 154.155106 4.583362  -0.000030 0.707099 0.707114  0.500015 0.120090 0
skin_0
0  24.871262 153.521973 0.784537  0.064265 0.705025 -0.706265  0.434584 0.114231 0
0  24.871262 154.155106 1.403911  0.059429 0.705846 -0.705868  0.434584 0.115207 0
0  52.564125 149.268936 1.403909  0.116105 0.644345 -0.755870  0.362316 0.115207 0
skin_0
0  52.564125 149.268936 1.403909  0.116105 0.644345 -0.755870  0.362316 0.115207 0
0  51.944752 148.649567 0.784535  0.115579 0.642214 -0.757762  0.363292 0.114231 0
0  24.871262 153.521973 0.784537  0.064265 0.705025 -0.706265  0.434584 0.114231 0
skin_0
0  24.871262 154.155106 1.403911  0.059409 0.705864 -0.705851  0.434584 0.115207 0
0  24.871262 153.521973 0.784537  0.064216 0.705045 -0.706249  0.434584 0.114231 0
0  -0.013775 153.521973 0.784539  -0.000030 0.707100 -0.707114  0.500015 0.114231 0
skin_0
0  -0.013775 153.521973 0.784539  -0.000030 0.707100 -0.707114  0.500015 0.114231 0
0  -0.013775 154.155106 1.403913  -0.000030 0.707100 -0.707114  0.500015 0.115207 0
0  24.871262 154.155106 1.403911  0.059409 0.705864 -0.705851  0.434584 0.115207 0
skin_0
0  53.100914 136.661255 5.202731  0.577350 0.577350 0.577350  0.360363 0.121067 0
0  53.100914 137.280624 4.583358  0.686070 0.241918 0.686137  0.360363 0.120090 0
0  52.481544 137.280624 5.202731  0.686091 0.241917 0.686117  0.362316 0.121067 0
skin_0
0  23.990377 136.922775 18.154514  0.000000 0.770749 -0.637139  0.437513 0.144505 0
0  -0.013773 136.922775 18.154516  -0.000030 0.770012 -0.638029  0.500015 0.144505 0
0  -0.013773 137.280624 18.594959  -0.000030 0.770012 -0.638029  0.500015 0.144505 0
skin_0
0  -0.013773 137.280624 18.594959  -0.000030 0.770012 -0.638029  0.500015 0.144505 0
0  24.196836 137.280624 18.594957  -0.000030 0.770780 -0.637102  0.436537 0.144505 0
0  23.990377 136.922775 18.154514  0.000000 0.770749 -0.637139  0.437513 0.144505 0
skin_0
0  48.421207 137.280624 5.202731  -0.661625 0.749835 -0.000018  0.373058 0.121067 0
0  48.008289 136.922775 5.202731  -0.661377 0.750053 0.000000  0.374035 0.121067 0
0  48.008293 136.922775 18.154512  -0.670416 0.741985 -0.000519  0.374035 0.144505 0
skin_0
0  48.008293 136.922775 18.154512  -0.670416 0.741985 -0.000519  0.374035 0.144505 0
0  48.407448 137.280624 18.594955  -0.670571 0.741846 -0.000520  0.373058 0.144505 0
0  48.421207 137.280624 5.202731  -0.661625 0.749835 -0.000018  0.373058 0.121067 0
skin_0
0  52.481544 148.112762 5.202731  0.602245 0.177451 0.778339  0.362316 0.121067 0
0  53.100914 148.732147 4.583358  0.539540 0.262433 0.800015  0.360363 0.120090 0
0  52.564125 149.268936 4.583358  0.409253 0.409276 0.815479  0.362316 0.120090 0
skin_0
0  52.564125 149.268936 4.583358  0.409253 0.409276 0.815479  0.362316 0.120090 0
0  51.944752 148.649567 5.202731  0.409243 0.409294 0.815475  0.363292 0.121067 0
0  52.481544 148.112762 5.202731  0.602245 0.177451 0.778339  0.362316 0.121067 0
skin_0
0  52.564125 149.268936 1.403909  0.707103 0.707110 0.000000  0.362316 0.115207 0
0  52.564125 149.268936 4.583358  0.707106 0.707107 0.000000  0.362316 0.120090 0
0  53.100914 148.732147 4.583358  0.707106 0.707108 0.000000  0.360363 0.120090 0
skin_0
0  53.100914 148.732147 4.583358  0.707106 0.707108 0.000000  0.360363 0.120090 0
0  53.100914 148.732147 1.403908  0.707103 0.707111 0.000000  0.360363 0.115207 0
0  52.564125 149.268936 1.403909  0.707103 0.707110 0.000000  0.362316 0.115207 0
skin_0
0  51.944752 148.649567 0.784535  0.409244 0.409237 -0.815502  0.363292 0.114231 0
0  52.564125 149.268936 1.403909  0.409188 0.409216 -0.815541  0.362316 0.115207 0
0  53.100914 148.732147 1.403908  0.539004 0.262562 -0.800335  0.360363 0.115207 0
skin_0
0  53.100914 148.732147 1.403908  0.539004 0.262562 -0.800335  0.360363 0.115207 0
0  52.481544 148.112762 0.784535  0.602254 0.177460 -0.778331  0.362316 0.114231 0
0  51.944752 148.649567 0.784535  0.409244 0.409237 -0.815502  0.363292 0.114231 0
skin_0
0  52.385204 137.074173 24.967619  0.499997 0.499989 0.707117  0.362316 0.156224 0
0  52.880699 136.564911 24.967619  0.626867 0.259750 0.734553  0.361339 0.156224 0
0  53.100918 136.661255 24.761160  0.626886 0.259798 0.734520  0.360363 0.155248 0
skin_0
0  53.100918 136.661255 24.761160  0.626886 0.259798 0.734520  0.360363 0.155248 0
0  52.481548 137.280624 24.761160  0.500006 0.500004 0.707100  0.362316 0.155248 0
0  52.385204 137.074173 24.967619  0.499997 0.499989 0.707117  0.362316 0.156224 0
skin_0
0  -0.013772 137.280624 24.761164  0.000000 0.707107 0.707106  0.500015 0.155248 0
0  -0.013772 137.074173 24.967623  0.000000 0.707107 0.707106  0.500015 0.156224 0
0  26.192598 137.074173 24.967621  0.000000 0.707125 0.707088  0.431654 0.156224 0
skin_0
0  26.192598 137.074173 24.967621  0.000000 0.707125 0.707088  0.431654 0.156224 0
0  26.233889 137.280624 24.761162  0.000000 0.707127 0.707086  0.431654 0.155248 0
0  -0.013772 137.280624 24.761164  0.000000 0.707107 0.707106  0.500015 0.155248 0
skin_0
0  52.880699 136.564911 24.967619  0.626967 0.259618 0.734514  0.130863 0.309549 0
0  52.880699 126.365906 24.967619  0.707089 -0.000000 0.707125  0.130863 0.327128 0
0  53.100918 126.338379 24.761160  0.707089 -0.000002 0.707125  0.130863 0.327128 0
skin_0
0  53.100918 126.338379 24.761160  0.707089 -0.000002 0.707125  0.130863 0.327128 0
0  53.100918 136.661255 24.761160  0.626942 0.259612 0.734537  0.130863 0.309549 0
0  52.880699 136.564911 24.967619  0.626967 0.259618 0.734514  0.130863 0.309549 0
skin_0
0  53.100918 122.690964 18.209568  1.000000 0.000001 -0.000000  0.113285 0.333964 0
0  53.100914 131.114426 1.376381  1.000000 -0.000001 -0.000000  0.069338 0.319315 0
0  53.100918 126.283325 18.870234  1.000000 0.000000 -0.000000  0.115238 0.328104 0
skin_0
0  53.100918 126.283325 18.870234  1.000000 0.000000 -0.000000  0.115238 0.328104 0
0  53.100918 123.131401 18.897760  1.000000 0.000003 0.000000  0.115238 0.332987 0
0  53.100918 122.690964 18.209568  1.000000 0.000001 -0.000000  0.113285 0.333964 0
skin_0
0  53.100914 131.114426 1.376381  1.000000 -0.000001 -0.000000  0.069338 0.319315 0
0  53.100914 137.280624 4.583358  1.000000 -0.000001 0.000000  0.077151 0.308573 0
0  53.100914 136.661255 5.202731  1.000000 -0.000003 -0.000000  0.079104 0.309549 0
skin_0
0  -53.128464 136.661255 24.761168  -1.000000 -0.000000 0.000000  0.869167 0.310526 0
0  -53.128464 136.661255 18.581200  -1.000000 -0.000000 0.000000  0.885769 0.310526 0
0  -53.128464 126.283310 18.870241  -1.000000 -0.000000 0.000000  0.884793 0.328104 0
skin_0
0  -53.128464 126.283310 18.870241  -1.000000 -0.000000 0.000000  0.884793 0.328104 0
0  -53.128464 126.338364 24.761168  -1.000000 0.000000 0.000000  0.869167 0.328104 0
0  -53.128464 136.661255 24.761168  -1.000000 -0.000000 0.000000  0.869167 0.310526 0
skin_0
0  -53.128468 137.280624 4.583365  -1.000000 -0.000001 0.000000  0.922880 0.309549 0
0  -53.128468 148.732147 4.583365  -1.000000 0.000000 0.000000  0.922880 0.289041 0
0  -53.128468 148.732147 1.403917  -1.000000 -0.000000 0.000000  0.930692 0.289041 0
skin_0
0  -53.128468 148.732147 1.403917  -1.000000 -0.000000 0.000000  0.930692 0.289041 0
0  -53.128468 131.114426 1.376389  -1.000000 -0.000000 0.000000  0.931669 0.320292 0
0  -53.128468 137.280624 4.583365  -1.000000 -0.000001 0.000000  0.922880 0.309549 0
skin_0
0  -48.434990 137.280624 18.594963  0.000000 1.000000 -0.000001  0.627949 0.144505 0
0  -48.448757 137.280624 5.202738  0.000000 1.000000 -0.000002  0.627949 0.121067 0
0  -52.509094 137.280624 5.202738  0.000000 1.000000 -0.000002  0.638691 0.121067 0
skin_0
0  -52.509094 137.280624 5.202738  0.000000 1.000000 -0.000002  0.638691 0.121067 0
0  -52.509090 137.280624 18.594963  0.000000 1.000000 0.000000  0.638691 0.144505 0
0  -48.434990 137.280624 18.594963  0.000000 1.000000 -0.000001  0.627949 0.144505 0
skin_0
0  -48.434990 137.280624 18.594963  0.000000 1.000000 -0.000001  0.627949 0.144505 0
0  -52.509090 137.280624 18.594963  0.000000 1.000000 0.000000  0.638691 0.144505 0
0  -52.509090 137.280624 24.761168  0.000000 1.000000 -0.000002  0.638691 0.155248 0
skin_0
0  -48.434990 137.280624 18.594963  0.000000 1.000000 -0.000001  0.627949 0.144505 0
0  -52.509090 137.280624 24.761168  0.000000 1.000000 -0.000002  0.638691 0.155248 0
0  -26.261431 137.280624 24.761166  0.000000 1.000000 -0.000002  0.569353 0.155248 0
skin_0
0  -48.434990 137.280624 18.594963  0.000000 1.000000 -0.000001  0.627949 0.144505 0
0  -26.261431 137.280624 24.761166  0.000000 1.000000 -0.000002  0.569353 0.155248 0
0  -24.224382 137.280624 18.594961  0.000000 1.000000 -0.000002  0.563494 0.144505 0
skin_0
0  -24.017923 133.509338 5.202736  -0.000034 0.999999 0.001289  0.563494 0.121067 0
0  -48.035839 133.509338 5.202738  -0.000034 0.999999 0.001289  0.626972 0.121067 0
0  -48.035835 133.481812 18.594963  -0.000034 0.999999 0.001289  0.626972 0.144505 0
skin_0
0  -48.035835 133.481812 18.594963  -0.000034 0.999999 0.001289  0.626972 0.144505 0
0  -24.017923 133.481812 18.594961  -0.000034 0.999999 0.001289  0.563494 0.144505 0
0  -24.017923 133.509338 5.202736  -0.000034 0.999999 0.001289  0.563494 0.121067 0
skin_0
0  -0.013775 154.155106 4.583362  0.000000 1.000000 0.000000  0.500015 0.120090 0
0  -0.013775 154.155106 1.403913  0.000000 1.000000 0.000000  0.500015 0.115207 0
0  -24.898811 154.155106 1.403914  -0.087211 0.996190 0.000000  0.565447 0.115207 0
skin_0
0  -24.898811 154.155106 1.403914  -0.087211 0.996190 0.000000  0.565447 0.115207 0
0  -24.898811 154.155106 4.583364  -0.087211 0.996190 0.000000  0.565447 0.120090 0
0  -0.013775 154.155106 4.583362  0.000000 1.000000 0.000000  0.500015 0.120090 0
skin_0
0  -0.013773 136.922775 18.154516  -0.000000 -0.128438 -0.991717  0.500015 0.144505 0
0  -0.013773 133.481812 18.594959  -0.000000 -0.128438 -0.991718  0.500015 0.144505 0
0  -24.017923 133.481812 18.594961  -0.000000 -0.128295 -0.991736  0.563494 0.144505 0
skin_0
0  -24.017923 133.481812 18.594961  -0.000000 -0.128295 -0.991736  0.563494 0.144505 0
0  -24.017923 136.922775 18.154518  -0.000000 -0.128438 -0.991717  0.563494 0.144505 0
0  -0.013773 136.922775 18.154516  -0.000000 -0.128438 -0.991717  0.500015 0.144505 0
skin_0
0  -48.035835 136.922775 18.154520  1.000000 0.000000 -0.000000  0.626972 0.144505 0
0  -48.035835 133.481812 18.594963  1.000000 0.000000 -0.000000  0.626972 0.144505 0
0  -48.035839 133.509338 5.202738  1.000000 0.000000 -0.000000  0.626972 0.121067 0
skin_0
0  -48.035839 133.509338 5.202738  1.000000 0.000000 -0.000000  0.626972 0.121067 0
0  -48.035839 136.922775 5.202738  1.000000 0.000000 -0.000000  0.626972 0.121067 0
0  -48.035835 136.922775 18.154520  1.000000 0.000000 -0.000000  0.626972 0.144505 0
skin_0
0  -53.128464 136.661255 18.581200  -1.000000 -0.000000 0.000000  0.885769 0.310526 0
0  -53.128468 136.661255 5.202738  -1.000000 -0.000000 0.000000  0.920927 0.310526 0
0  -53.128468 131.114426 1.376389  -1.000000 -0.000000 0.000000  0.931669 0.320292 0
skin_0
0  -53.128468 131.114426 1.376389  -1.000000 -0.000000 0.000000  0.931669 0.320292 0
0  -53.128464 126.283310 18.870241  -1.000000 -0.000000 0.000000  0.884793 0.328104 0
0  -53.128464 136.661255 18.581200  -1.000000 -0.000000 0.000000  0.885769 0.310526 0
skin_0
0  -52.591679 149.268936 1.403916  -0.173758 0.984788 0.000000  0.638691 0.115207 0
0  -52.591679 149.268936 4.583365  -0.173758 0.984788 0.000000  0.638691 0.120090 0
0  -24.898811 154.155106 4.583364  -0.087211 0.996190 0.000000  0.565447 0.120090 0
skin_0
0  -24.898811 154.155106 4.583364  -0.087211 0.996190 0.000000  0.565447 0.120090 0
0  -24.898811 154.155106 1.403914  -0.087211 0.996190 0.000000  0.565447 0.115207 0
0  -52.591679 149.268936 1.403916  -0.173758 0.984788 0.000000  0.638691 0.115207 0
skin_0
0  -53.128464 136.661255 24.761168  -0.707107 0.707107 0.000000  0.639668 0.155248 0
0  -52.509090 137.280624 24.761168  -0.448239 0.815145 0.366906  0.638691 0.155248 0
0  -52.509090 137.280624 18.594963  -0.707102 0.707111 -0.000000  0.638691 0.144505 0
skin_0
0  -52.509090 137.280624 18.594963  -0.707102 0.707111 -0.000000  0.638691 0.144505 0
0  -53.128464 136.661255 18.581200  -0.707102 0.707111 -0.000000  0.639668 0.144505 0
0  -53.128464 136.661255 24.761168  -0.707107 0.707107 0.000000  0.639668 0.155248 0
skin_0
0  -53.128464 136.661255 18.581200  -0.707102 0.707111 -0.000000  0.639668 0.144505 0
0  -52.509090 137.280624 18.594963  -0.707102 0.707111 -0.000000  0.638691 0.144505 0
0  -52.509094 137.280624 5.202738  -0.707110 0.707104 0.000001  0.638691 0.121067 0
skin_0
0  -52.509094 137.280624 5.202738  -0.707110 0.707104 0.000001  0.638691 0.121067 0
0  -53.128468 136.661255 5.202738  -0.707110 0.707103 0.000001  0.639668 0.121067 0
0  -53.128464 136.661255 18.581200  -0.707102 0.707111 -0.000000  0.639668 0.144505 0
skin_0
0  -53.128468 148.732147 1.403917  -0.539164 0.262439 -0.800267  0.930692 0.289041 0
0  -52.509094 148.112762 0.784543  -0.602377 0.177309 -0.778269  0.932646 0.290017 0
0  -52.509094 131.664978 0.784543  -0.689270 0.001285 -0.724504  0.932646 0.319315 0
skin_0
0  -52.509094 131.664978 0.784543  -0.689270 0.001285 -0.724504  0.932646 0.319315 0
0  -53.128468 131.114426 1.376389  -0.688887 0.001310 -0.724867  0.931669 0.320292 0
0  -53.128468 148.732147 1.403917  -0.539164 0.262439 -0.800267  0.930692 0.289041 0
skin_0
0  -53.128468 137.280624 4.583365  -0.686153 0.241732 0.686119  0.639668 0.120090 0
0  -52.509094 137.280624 5.202738  -0.686136 0.241732 0.686137  0.638691 0.121067 0
0  -52.509094 148.112762 5.202738  -0.602373 0.177305 0.778273  0.638691 0.121067 0
skin_0
0  -52.509094 148.112762 5.202738  -0.602376 0.177308 0.778271  0.638691 0.121067 0
0  -53.128468 148.732147 4.583365  -0.539689 0.262295 0.799960  0.639668 0.120090 0
0  -53.128468 137.280624 4.583365  -0.686165 0.241732 0.686108  0.639668 0.120090 0
skin_0
0  -24.898811 153.521973 5.202736  -0.064316 0.705035 0.706251  0.565447 0.121067 0
0  -24.898811 154.155106 4.583364  -0.059479 0.705858 0.705852  0.565447 0.120090 0
0  -52.591679 149.268936 4.583365  -0.115992 0.644054 0.756136  0.638691 0.120090 0
skin_0
0  -52.591679 149.268936 4.583365  -0.115992 0.644054 0.756136  0.638691 0.120090 0
0  -51.972301 148.649567 5.202738  -0.115575 0.642195 0.757778  0.636738 0.121067 0
0  -24.898811 153.521973 5.202736  -0.064316 0.705035 0.706251  0.565447 0.121067 0
skin_0
0  -0.013775 153.521973 5.202734  -0.000030 0.707100 0.707114  0.500015 0.121067 0
0  -0.013775 154.155106 4.583362  -0.000030 0.707099 0.707114  0.500015 0.120090 0
0  -24.898811 154.155106 4.583364  -0.059453 0.705881 0.705831  0.565447 0.120090 0
skin_0
0  -24.898811 154.155106 4.583364  -0.059453 0.705881 0.705831  0.565447 0.120090 0
0  -24.898811 153.521973 5.202736  -0.064309 0.705058 0.706228  0.565447 0.121067 0
0  -0.013775 153.521973 5.202734  -0.000030 0.707100 0.707114  0.500015 0.121067 0
skin_0
0  -51.972301 148.649567 0.784543  -0.113767 0.644794 -0.755843  0.636738 0.114231 0
0  -52.591679 149.268936 1.403916  -0.113554 0.643849 -0.756679  0.638691 0.115207 0
0  -24.898811 154.155106 1.403914  -0.060713 0.705170 -0.706434  0.565447 0.115207 0
skin_0
0  -24.898811 154.155106 1.403914  -0.060713 0.705170 -0.706434  0.565447 0.115207 0
0  -24.898811 153.521973 0.784541  -0.065894 0.705593 -0.705547  0.565447 0.114231 0
0  -51.972301 148.649567 0.784543  -0.113767 0.644794 -0.755843  0.636738 0.114231 0
skin_0
0  -0.013775 154.155106 1.403913  -0.000030 0.707100 -0.707114  0.500015 0.115207 0
0  -0.013775 153.521973 0.784539  -0.000030 0.707100 -0.707114  0.500015 0.114231 0
0  -24.898811 153.521973 0.784541  -0.065821 0.705573 -0.705574  0.565447 0.114231 0
skin_0
0  -24.898811 153.521973 0.784541  -0.065821 0.705573 -0.705574  0.565447 0.114231 0
0  -24.898811 154.155106 1.403914  -0.060639 0.705149 -0.706462  0.565447 0.115207 0
0  -0.013775 154.155106 1.403913  -0.000030 0.707100 -0.707114  0.500015 0.115207 0
skin_0
0  -53.128468 136.661255 5.202738  -0.577353 0.577366 0.577332  0.639668 0.121067 0
0  -52.509094 137.280624 5.202738  -0.686143 0.241937 0.686057  0.638691 0.121067 0
0  -53.128468 137.280624 4.583365  -0.686124 0.241931 0.686079  0.639668 0.120090 0
skin_0
0  -24.224382 137.280624 18.594961  -0.000030 0.770779 -0.637102  0.563494 0.144505 0
0  -24.017923 136.922775 18.154518  -0.000061 0.770750 -0.637138  0.563494 0.144505 0
0  -48.035835 136.922775 18.154520  -0.000061 0.771484 -0.636249  0.626972 0.144505 0
skin_0
0  -48.035835 136.922775 18.154520  -0.000061 0.771484 -0.636249  0.626972 0.144505 0
0  -48.434990 137.280624 18.594963  -0.000061 0.771514 -0.636212  0.627949 0.144505 0
0  -24.224382 137.280624 18.594961  -0.000030 0.770779 -0.637102  0.563494 0.144505 0
skin_0
0  -48.448757 137.280624 5.202738  0.661589 0.749866 0.000000  0.627949 0.121067 0
0  -48.434990 137.280624 18.594963  0.670565 0.741851 -0.000519  0.627949 0.144505 0
0  -48.035835 136.922775 18.154520  0.670375 0.742022 -0.000520  0.626972 0.144505 0
skin_0
0  -48.035835 136.922775 18.154520  0.670375 0.742022 -0.000520  0.626972 0.144505 0
0  -48.035839 136.922775 5.202738  0.661341 0.750085 0.000004  0.626972 0.121067 0
0  -48.448757 137.280624 5.202738  0.661589 0.749866 0.000000  0.627949 0.121067 0
skin_0
0  -52.591679 149.268936 4.583365  -0.409279 0.409245 0.815481  0.638691 0.120090 0
0  -53.128468 148.732147 4.583365  -0.539586 0.262413 0.799992  0.639668 0.120090 0
0  -52.509094 148.112762 5.202738  -0.602293 0.177433 0.778306  0.638691 0.121067 0
skin_0
0  -52.509094 148.112762 5.202738  -0.602293 0.177433 0.778306  0.638691 0.121067 0
0  -51.972301 148.649567 5.202738  -0.409268 0.409258 0.815480  0.636738 0.121067 0
0  -52.591679 149.268936 4.583365  -0.409279 0.409245 0.815481  0.638691 0.120090 0
skin_0
0  -53.128468 148.732147 4.583365  -0.707107 0.707106 0.000000  0.639668 0.120090 0
0  -52.591679 149.268936 4.583365  -0.707106 0.707107 0.000000  0.638691 0.120090 0
0  -52.591679 149.268936 1.403916  -0.707112 0.707102 0.000000  0.638691 0.115207 0
skin_0
0  -52.591679 149.268936 1.403916  -0.707112 0.707102 0.000000  0.638691 0.115207 0
0  -53.128468 148.732147 1.403917  -0.707113 0.707101 0.000000  0.639668 0.115207 0
0  -53.128468 148.732147 4.583365  -0.707107 0.707106 0.000000  0.639668 0.120090 0
skin_0
0  -53.128468 148.732147 1.403917  -0.539049 0.262537 -0.800313  0.639668 0.115207 0
0  -52.591679 149.268936 1.403916  -0.409276 0.409248 -0.815481  0.638691 0.115207 0
0  -51.972301 148.649567 0.784543  -0.409224 0.409190 -0.815536  0.636738 0.114231 0
skin_0
0  -51.972301 148.649567 0.784543  -0.409224 0.409190 -0.815536  0.636738 0.114231 0
0  -52.509094 148.112762 0.784543  -0.602269 0.177408 -0.778330  0.638691 0.114231 0
0  -53.128468 148.732147 1.403917  -0.539049 0.262537 -0.800313  0.639668 0.115207 0
skin_0
0  -53.128464 136.661255 24.761168  -0.626927 0.259774 0.734493  0.639668 0.155248 0
0  -52.908245 136.564911 24.967627  -0.626940 0.259806 0.734471  0.639668 0.156224 0
0  -52.412746 137.074173 24.967627  -0.499997 0.499967 0.707132  0.637715 0.156224 0
skin_0
0  -52.412746 137.074173 24.967627  -0.499997 0.499967 0.707132  0.637715 0.156224 0
0  -52.509090 137.280624 24.761168  -0.500006 0.499977 0.707119  0.638691 0.155248 0
0  -53.128464 136.661255 24.761168  -0.626927 0.259774 0.734493  0.639668 0.155248 0
skin_0
0  -26.261431 137.280624 24.761166  0.000000 0.707118 0.707095  0.569353 0.155248 0
0  -52.509090 137.280624 24.761168  -0.448277 0.815112 0.366933  0.638691 0.155248 0
0  -52.412746 137.074173 24.967627  0.000000 0.707103 0.707110  0.637715 0.156224 0
skin_0
0  -52.412746 137.074173 24.967627  0.000000 0.707103 0.707110  0.637715 0.156224 0
0  -26.220140 137.074173 24.967625  0.000000 0.707115 0.707098  0.569353 0.156224 0
0  -26.261431 137.280624 24.761166  0.000000 0.707118 0.707095  0.569353 0.155248 0
skin_0
0  -53.128464 126.338364 24.761168  -0.707092 0.000002 0.707122  0.869167 0.328104 0
0  -52.908245 126.365891 24.967627  -0.707092 -0.000001 0.707121  0.869167 0.328104 0
0  -52.908245 136.564911 24.967627  -0.626984 0.259574 0.734515  0.869167 0.310526 0
skin_0
0  -52.908245 136.564911 24.967627  -0.626984 0.259574 0.734515  0.869167 0.310526 0
0  -53.128464 136.661255 24.761168  -0.627002 0.259578 0.734498  0.869167 0.310526 0
0  -53.128464 126.338364 24.761168  -0.707092 0.000002 0.707122  0.869167 0.328104 0
skin_0
0  -53.128464 126.283310 18.870241  -1.000000 -0.000000 0.000000  0.884793 0.328104 0
0  -53.128468 131.114426 1.376389  -1.000000 -0.000000 0.000000  0.931669 0.320292 0
0  -53.128464 122.690948 18.209576  -1.000000 0.000000 0.000000  0.886746 0.334941 0
skin_0
0  -53.128464 122.690948 18.209576  -1.000000 0.000000 0.000000  0.886746 0.334941 0
0  -53.128464 123.131386 18.897768  -1.000000 0.000000 0.000000  0.884793 0.333964 0
0  -53.128464 126.283310 18.870241  -1.000000 -0.000000 0.000000  0.884793 0.328104 0
skin_0
0  -53.128468 131.114426 1.376389  -1.000000 -0.000000 0.000000  0.931669 0.320292 0
0  -53.128468 136.661255 5.202738  -1.000000 -0.000000 0.000000  0.920927 0.310526 0
0  -53.128468 137.280624 4.583365  -1.000000 -0.000001 0.000000  0.922880 0.309549 0
skin_0
0  52.481544 148.112762 5.202731  0.000000 0.000000 1.000000  0.362316 0.121067 0
0  51.944752 148.649567 5.202731  0.000000 0.000000 1.000000  0.363292 0.121067 0
0  24.871262 153.521973 5.202733  0.000000 0.000000 1.000000  0.434584 0.121067 0
skin_0
0  24.871262 153.521973 5.202733  0.000000 -0.000000 1.000000  0.434584 0.121067 0
0  23.990377 133.509338 5.202733  0.000000 -0.000000 1.000000  0.437513 0.121067 0
0  48.008289 133.509338 5.202731  0.000000 -0.000000 1.000000  0.374035 0.121067 0
skin_0
0  52.481544 148.112762 5.202731  0.000000 -0.000000 1.000000  0.362316 0.121067 0
0  24.871262 153.521973 5.202733  0.000000 -0.000000 1.000000  0.434584 0.121067 0
0  48.008289 133.509338 5.202731  0.000000 -0.000000 1.000000  0.374035 0.121067 0
skin_0
0  52.481544 148.112762 5.202731  0.000000 0.000000 1.000000  0.362316 0.121067 0
0  48.008289 133.509338 5.202731  0.000000 0.000000 1.000000  0.374035 0.121067 0
0  52.481544 137.280624 5.202731  0.000000 0.000000 1.000000  0.362316 0.121067 0
skin_0
0  -48.035839 133.509338 5.202738  0.000000 0.000000 1.000000  0.626972 0.121067 0
0  -24.017923 133.509338 5.202736  0.000000 0.000000 1.000000  0.563494 0.121067 0
0  -24.898811 153.521973 5.202736  0.000000 0.000000 1.000000  0.565447 0.121067 0
skin_0
0  -24.898811 153.521973 5.202736  0.000000 0.000000 1.000000  0.565447 0.121067 0
0  -51.972301 148.649567 5.202738  -0.000000 -0.000000 1.000000  0.636738 0.121067 0
0  -52.509094 148.112762 5.202738  0.000000 -0.000000 1.000000  0.638691 0.121067 0
skin_0
0  -48.035839 133.509338 5.202738  0.000000 0.000000 1.000000  0.626972 0.121067 0
0  -24.898811 153.521973 5.202736  0.000000 0.000000 1.000000  0.565447 0.121067 0
0  -52.509094 148.112762 5.202738  0.000000 -0.000000 1.000000  0.638691 0.121067 0
skin_0
0  -48.035839 133.509338 5.202738  0.000000 0.000000 1.000000  0.626972 0.121067 0
0  -52.509094 148.112762 5.202738  0.000000 -0.000000 1.000000  0.638691 0.121067 0
0  -52.509094 137.280624 5.202738  0.000000 0.000000 1.000000  0.638691 0.121067 0
skin_0
0  -0.013772 137.280624 24.761164  0.000000 1.000000 -0.000001  0.500015 0.155248 0
0  26.233889 137.280624 24.761162  0.000000 1.000000 -0.000001  0.431654 0.155248 0
0  24.196836 137.280624 18.594957  0.000000 1.000000 -0.000001  0.436537 0.144505 0
skin_0
0  24.196836 137.280624 18.594957  0.000000 1.000000 -0.000001  0.436537 0.144505 0
0  -0.013773 137.280624 18.594959  0.000000 1.000000 -0.000000  0.500015 0.144505 0
0  -0.013772 137.280624 24.761164  0.000000 1.000000 -0.000001  0.500015 0.155248 0
skin_0
0  23.990377 133.509338 5.202733  -0.000034 0.999999 0.001289  0.437513 0.121067 0
0  23.990377 133.481812 18.594957  -0.000034 0.999999 0.001289  0.437513 0.144505 0
0  48.008293 133.481812 18.594955  -0.000034 0.999999 0.001289  0.374035 0.144505 0
skin_0
0  48.008293 133.481812 18.594955  -0.000034 0.999999 0.001289  0.374035 0.144505 0
0  48.008289 133.509338 5.202731  -0.000034 0.999999 0.001289  0.374035 0.121067 0
0  23.990377 133.509338 5.202733  -0.000034 0.999999 0.001289  0.437513 0.121067 0
skin_0
0  23.990377 136.922775 18.154514  -0.000000 -0.128342 -0.991730  0.437513 0.144505 0
0  23.990377 133.481812 18.594957  -0.000000 -0.128437 -0.991718  0.437513 0.144505 0
0  -0.013773 133.481812 18.594959  -0.000000 -0.128438 -0.991718  0.500015 0.144505 0
skin_0
0  -0.013773 133.481812 18.594959  -0.000000 -0.128438 -0.991718  0.500015 0.144505 0
0  -0.013773 136.922775 18.154516  -0.000000 -0.128438 -0.991717  0.500015 0.144505 0
0  23.990377 136.922775 18.154514  -0.000000 -0.128342 -0.991730  0.437513 0.144505 0
skin_0
0  48.008293 136.922775 18.154512  -0.000001 0.771461 -0.636277  0.374035 0.144505 0
0  23.990377 136.922775 18.154514  0.000000 0.770749 -0.637139  0.437513 0.144505 0
0  24.196836 137.280624 18.594957  -0.000030 0.770780 -0.637102  0.436537 0.144505 0
skin_0
0  24.196836 137.280624 18.594957  -0.000030 0.770780 -0.637102  0.436537 0.144505 0
0  48.407448 137.280624 18.594955  0.000000 0.771491 -0.636240  0.373058 0.144505 0
0  48.008293 136.922775 18.154512  -0.000001 0.771461 -0.636277  0.374035 0.144505 0
skin_0
0  26.233889 137.280624 24.761162  0.000000 0.707127 0.707086  0.431654 0.155248 0
0  26.192598 137.074173 24.967621  0.000000 0.707125 0.707088  0.431654 0.156224 0
0  52.385204 137.074173 24.967619  0.000000 0.707115 0.707099  0.362316 0.156224 0
skin_0
0  52.385204 137.074173 24.967619  0.000000 0.707115 0.707099  0.362316 0.156224 0
0  52.481548 137.280624 24.761160  0.448210 0.815156 0.366916  0.362316 0.155248 0
0  26.233889 137.280624 24.761162  0.000000 0.707127 0.707086  0.431654 0.155248 0
skin_0
0  -24.224382 137.280624 18.594961  0.000000 1.000000 -0.000002  0.563494 0.144505 0
0  -26.261431 137.280624 24.761166  0.000000 1.000000 -0.000002  0.569353 0.155248 0
0  -0.013772 137.280624 24.761164  0.000000 1.000000 -0.000001  0.500015 0.155248 0
skin_0
0  -0.013772 137.280624 24.761164  0.000000 1.000000 -0.000001  0.500015 0.155248 0
0  -0.013773 137.280624 18.594959  0.000000 1.000000 -0.000000  0.500015 0.144505 0
0  -24.224382 137.280624 18.594961  0.000000 1.000000 -0.000002  0.563494 0.144505 0
skin_0
0  -24.017923 133.509338 5.202736  -0.000034 0.999999 0.001289  0.563494 0.121067 0
0  -24.017923 133.481812 18.594961  -0.000034 0.999999 0.001289  0.563494 0.144505 0
0  -0.013773 133.481812 18.594959  -0.000034 0.999999 0.001290  0.500015 0.144505 0
skin_0
0  -0.013773 133.481812 18.594959  -0.000034 0.999999 0.001290  0.500015 0.144505 0
0  -0.013774 133.509338 5.202734  -0.000034 0.999999 0.001291  0.500015 0.121067 0
0  -24.017923 133.509338 5.202736  -0.000034 0.999999 0.001289  0.563494 0.121067 0
skin_0
0  -24.017923 136.922775 18.154518  -0.000000 -0.128438 -0.991717  0.563494 0.144505 0
0  -24.017923 133.481812 18.594961  -0.000000 -0.128295 -0.991736  0.563494 0.144505 0
0  -48.035835 133.481812 18.594963  0.000000 -0.128343 -0.991730  0.626972 0.144505 0
skin_0
0  -48.035835 133.481812 18.594963  0.000000 -0.128343 -0.991730  0.626972 0.144505 0
0  -48.035835 136.922775 18.154520  0.000000 -0.128438 -0.991717  0.626972 0.144505 0
0  -24.017923 136.922775 18.154518  -0.000000 -0.128438 -0.991717  0.563494 0.144505 0
skin_0
0  -24.017923 136.922775 18.154518  -0.000061 0.770750 -0.637138  0.563494 0.144505 0
0  -24.224382 137.280624 18.594961  -0.000030 0.770779 -0.637102  0.563494 0.144505 0
0  -0.013773 137.280624 18.594959  -0.000030 0.770012 -0.638029  0.500015 0.144505 0
skin_0
0  -0.013773 137.280624 18.594959  -0.000030 0.770012 -0.638029  0.500015 0.144505 0
0  -0.013773 136.922775 18.154516  -0.000030 0.770012 -0.638029  0.500015 0.144505 0
0  -24.017923 136.922775 18.154518  -0.000061 0.770750 -0.637138  0.563494 0.144505 0
skin_0
0  -26.261431 137.280624 24.761166  0.000000 0.707118 0.707095  0.569353 0.155248 0
0  -26.220140 137.074173 24.967625  0.000000 0.707115 0.707098  0.569353 0.156224 0
0  -0.013772 137.074173 24.967623  0.000000 0.707107 0.707106  0.500015 0.156224 0
skin_0
0  -0.013772 137.074173 24.967623  0.000000 0.707107 0.707106  0.500015 0.156224 0
0  -0.013772 137.280624 24.761164  0.000000 0.707107 0.707106  0.500015 0.155248 0
0  -26.261431 137.280624 24.761166  0.000000 0.707118 0.707095  0.569353 0.155248 0
skin_0
0  -0.013774 133.509338 5.202734  0.000000 -0.000000 1.000000  0.500015 0.121067 0
0  23.990377 133.509338 5.202733  0.000000 -0.000000 1.000000  0.437513 0.121067 0
0  24.871262 153.521973 5.202733  0.000000 -0.000000 1.000000  0.434584 0.121067 0
skin_0
0  24.871262 153.521973 5.202733  0.000000 0.000000 1.000000  0.434584 0.121067 0
0  -0.013775 153.521973 5.202734  0.000000 0.000000 1.000000  0.500015 0.121067 0
0  -0.013774 133.509338 5.202734  0.000000 0.000000 1.000000  0.500015 0.121067 0
skin_0
0  -24.898811 153.521973 5.202736  0.000000 0.000000 1.000000  0.565447 0.121067 0
0  -24.017923 133.509338 5.202736  0.000000 0.000000 1.000000  0.563494 0.121067 0
0  -0.013774 133.509338 5.202734  0.000000 0.000000 1.000000  0.500015 0.121067 0
skin_0
0  -0.013774 133.509338 5.202734  0.000000 0.000000 1.000000  0.500015 0.121067 0
0  -0.013775 153.521973 5.202734  0.000000 0.000000 1.000000  0.500015 0.121067 0
0  -24.898811 153.521973 5.202736  0.000000 0.000000 1.000000  0.565447 0.121067 0
plate
0  6.565347 134.678528 8.172856  0.000000 1.000000 0.000001  0.013672 0.020478 0
0  -6.592891 134.678528 8.172858  0.000000 1.000000 -0.000002  0.982452 0.020478 0
0  -6.592890 134.678528 13.981201  0.000000 1.000000 -0.000001  0.982452 0.981445 0
plate
0  -6.592890 134.678528 13.981201  0.000000 1.000000 -0.000001  0.982452 0.981445 0
0  6.565347 134.678528 13.981199  0.000000 1.000000 0.000002  0.013672 0.981445 0
0  6.565347 134.678528 8.172856  0.000000 1.000000 0.000001  0.013672 0.020478 0
plate
0  -6.730529 134.761108 13.939909  -0.186883 0.973976 0.128237  0.989288 0.979492 0
0  -6.482780 134.761108 14.160131  -0.155098 0.962441 0.222826  0.978545 0.991211 0
0  -6.592890 134.678528 13.981201  0.407596 0.828968 -0.382986  0.982452 0.981445 0
plate
0  6.565347 134.678528 8.172856  -0.407546 0.829234 0.382462  0.013672 0.020478 0
0  6.565347 134.678528 13.981199  -0.407810 0.828726 -0.383280  0.013672 0.981445 0
0  6.702986 134.761108 13.939907  0.186724 0.973611 0.131210  0.007813 0.979492 0
plate
0  6.702986 134.761108 13.939907  0.186713 0.973606 0.131260  0.007813 0.979492 0
0  6.702985 134.761108 8.227911  0.186674 0.973658 -0.130932  0.007813 0.023408 0
0  6.565347 134.678528 8.172856  -0.407541 0.829237 0.382460  0.013672 0.020478 0
plate
0  6.702985 134.761108 8.227911  0.186495 0.973696 -0.130906  0.007813 0.023408 0
0  6.455236 134.761108 7.993927  0.163394 0.960069 -0.227091  0.018555 0.010712 0
0  6.565347 134.678528 8.172856  -0.407500 0.829200 0.382585  0.013672 0.020478 0
plate
0  -6.592890 134.678528 13.981201  0.407579 0.829040 -0.382847  0.982452 0.981445 0
0  -6.592891 134.678528 8.172858  0.407963 0.828438 0.383741  0.982452 0.020478 0
0  -6.730530 134.761108 8.227913  -0.187028 0.973911 -0.128522  0.989288 0.023408 0
plate
0  -6.730530 134.761108 8.227913  -0.187025 0.973904 -0.128576  0.989288 0.023408 0
0  -6.730529 134.761108 13.939909  -0.187027 0.973943 0.128283  0.989288 0.979492 0
0  -6.592890 134.678528 13.981201  0.407591 0.829033 -0.382851  0.982452 0.981445 0
plate
0  -6.496543 134.623474 14.325297  -0.213541 0.757999 0.616310  0.979522 0.999023 0
0  -6.482780 134.761108 14.160131  -0.155223 0.962427 0.222803  0.978545 0.991211 0
0  -6.730529 134.761108 13.939909  -0.186889 0.973966 0.128305  0.989288 0.979492 0
plate
0  -6.730529 134.761108 13.939909  -0.186889 0.973966 0.128305  0.989288 0.979492 0
0  -6.868167 134.623474 13.994966  -0.582061 0.769136 0.263883  0.995148 0.982421 0
0  -6.496543 134.623474 14.325297  -0.213541 0.757999 0.616310  0.979522 0.999023 0
plate
0  6.702985 134.761108 8.227911  0.186574 0.973673 -0.130965  0.007813 0.023408 0
0  6.702986 134.761108 13.939907  0.186627 0.973629 0.131215  0.007813 0.979492 0
0  6.868152 134.623474 13.994964  0.580946 0.769157 0.266270  0.000977 0.982421 0
plate
0  6.868152 134.623474 13.994964  0.580962 0.769143 0.266274  0.000977 0.982421 0
0  6.868152 134.623474 8.172856  0.581047 0.769156 -0.266050  0.000977 0.020478 0
0  6.702985 134.761108 8.227911  0.186573 0.973672 -0.130973  0.007813 0.023408 0
plate
0  6.482763 134.623474 7.842524  0.209744 0.754513 -0.621866  0.017579 0.001923 0
0  6.455236 134.761108 7.993927  0.163509 0.960037 -0.227141  0.018555 0.010712 0
0  6.702985 134.761108 8.227911  0.186600 0.973666 -0.130974  0.007813 0.023408 0
plate
0  6.702985 134.761108 8.227911  0.186578 0.973671 -0.130971  0.007813 0.023408 0
0  6.868152 134.623474 8.172856  0.580972 0.769131 -0.266288  0.000977 0.020478 0
0  6.482763 134.623474 7.842524  0.209784 0.754527 -0.621836  0.017579 0.001923 0
plate
0  -6.730529 134.761108 13.939909  -0.186872 0.973969 0.128311  0.989288 0.979492 0
0  -6.730530 134.761108 8.227913  -0.186906 0.973935 -0.128520  0.989288 0.023408 0
0  -6.868168 134.623474 8.172858  -0.582043 0.769126 -0.263955  0.995148 0.020478 0
plate
0  -6.868168 134.623474 8.172858  -0.582005 0.769143 -0.263987  0.995148 0.020478 0
0  -6.868167 134.623474 13.994966  -0.582142 0.769126 0.263734  0.995148 0.982421 0
0  -6.730529 134.761108 13.939909  -0.186877 0.973963 0.128347  0.989288 0.979492 0
plate
0  6.482764 134.623474 14.325295  0.209350 0.754540 0.621966  0.017579 0.999023 0
0  6.455236 134.761108 14.160129  0.163065 0.960173 0.226886  0.018555 0.991211 0
0  -6.482780 134.761108 14.160131  -0.155117 0.962440 0.222816  0.978545 0.991211 0
plate
0  -6.482780 134.761108 14.160131  -0.155117 0.962440 0.222816  0.978545 0.991211 0
0  -6.496543 134.623474 14.325297  -0.213357 0.757997 0.616377  0.979522 0.999023 0
0  6.482764 134.623474 14.325295  0.209350 0.754540 0.621966  0.017579 0.999023 0
plate
0  6.482764 134.623474 14.325295  0.209530 0.754516 0.621935  0.017579 0.999023 0
0  6.868152 134.623474 13.994964  0.580869 0.769163 0.266422  0.000977 0.982421 0
0  6.702986 134.761108 13.939907  0.186630 0.973634 0.131176  0.007813 0.979492 0
plate
0  6.702986 134.761108 13.939907  0.186581 0.973634 0.131243  0.007813 0.979492 0
0  6.455236 134.761108 14.160129  0.163139 0.960136 0.226990  0.018555 0.991211 0
0  6.482764 134.623474 14.325295  0.209520 0.754529 0.621923  0.017579 0.999023 0
plate
0  -6.496544 134.623474 7.842525  -0.213068 0.757976 -0.616502  0.979522 0.001923 0
0  -6.482780 134.761108 7.993927  -0.154755 0.962557 -0.222563  0.978545 0.010712 0
0  6.455236 134.761108 7.993927  0.163479 0.960050 -0.227107  0.018555 0.010712 0
plate
0  6.455236 134.761108 7.993927  0.163479 0.960050 -0.227107  0.018555 0.010712 0
0  6.482763 134.623474 7.842524  0.209651 0.754513 -0.621898  0.017579 0.001923 0
0  -6.496544 134.623474 7.842525  -0.213068 0.757976 -0.616502  0.979522 0.001923 0
plate
0  -6.496544 134.623474 7.842525  -0.213266 0.757912 -0.616512  0.979522 0.001923 0
0  -6.868168 134.623474 8.172858  -0.581939 0.769140 -0.264140  0.995148 0.020478 0
0  -6.730530 134.761108 8.227913  -0.186860 0.973938 -0.128566  0.989288 0.023408 0
plate
0  -6.730530 134.761108 8.227913  -0.186860 0.973938 -0.128566  0.989288 0.023408 0
0  -6.482780 134.761108 7.993927  -0.154775 0.962526 -0.222685  0.978545 0.010712 0
0  -6.496544 134.623474 7.842525  -0.213266 0.757912 -0.616512  0.979522 0.001923 0
plate
0  -6.592891 134.678528 8.172858  0.407885 0.828980 0.382650  0.982452 0.020478 0
0  6.565347 134.678528 8.172856  -0.407436 0.829286 0.382467  0.013672 0.020478 0
0  6.455236 134.761108 7.993927  0.163479 0.960050 -0.227107  0.018555 0.010712 0
plate
0  6.455236 134.761108 7.993927  0.163479 0.960050 -0.227107  0.018555 0.010712 0
0  -6.482780 134.761108 7.993927  -0.154755 0.962557 -0.222563  0.978545 0.010712 0
0  -6.592891 134.678528 8.172858  0.407885 0.828980 0.382650  0.982452 0.020478 0
plate
0  -6.482780 134.761108 7.993927  -0.154872 0.962523 -0.222630  0.978545 0.010712 0
0  -6.730530 134.761108 8.227913  -0.186870 0.973945 -0.128498  0.989288 0.023408 0
0  -6.592891 134.678528 8.172858  0.407990 0.828391 0.383813  0.982452 0.020478 0
plate
0  6.565347 134.678528 13.981199  -0.407754 0.829033 -0.382678  0.013672 0.981445 0
0  -6.592890 134.678528 13.981201  0.407479 0.829087 -0.382852  0.982452 0.981445 0
0  -6.482780 134.761108 14.160131  -0.155117 0.962440 0.222816  0.978545 0.991211 0
plate
0  -6.482780 134.761108 14.160131  -0.155117 0.962440 0.222816  0.978545 0.991211 0
0  6.455236 134.761108 14.160129  0.163065 0.960173 0.226886  0.018555 0.991211 0
0  6.565347 134.678528 13.981199  -0.407754 0.829033 -0.382678  0.013672 0.981445 0
plate
0  6.455236 134.761108 14.160129  0.163081 0.960146 0.226989  0.018555 0.991211 0
0  6.702986 134.761108 13.939907  0.186580 0.973652 0.131111  0.007813 0.979492 0
0  6.565347 134.678528 13.981199  -0.407859 0.828641 -0.383412  0.013672 0.981445 0
end
