version 1
nodes
0 "blender_implicit" -1
1 "root" -1
2 "steering_wheel" 1
end
skeleton
time 0
0  0.000000 0.000000 0.000000  0.000000 -0.000000 0.000000
1  0.000000 0.000000 0.000000  1.570796 -0.000000 0.000000
2  18.487606 30.459389 10.889965  0.000000 -0.000000 0.000000
end
triangles
exhaustchrome
0  35.400616 35.538261 -0.289043  0.930005 -0.115818 0.348821  0.029298 0.175756 1 1 1.000000
0  35.386848 35.469440 -0.399154  0.984419 -0.175828 0.001980  0.046876 0.175756 1 1 1.000000
0  35.496960 36.116341 -0.701959  0.983962 -0.178357 0.002725  0.071291 0.175756 1 1 1.000000
exhaustchrome
0  35.496960 36.116341 -0.701959  0.983962 -0.178357 0.002725  0.071291 0.175756 1 1 1.000000
0  35.524490 36.253979 -0.646904  0.981089 -0.031789 0.190932  0.050783 0.175756 1 1 1.000000
0  35.400616 35.538261 -0.289043  0.930005 -0.115818 0.348821  0.029298 0.175756 1 1 1.000000
exhaustchrome
0  35.496960 36.377853 -0.591848  0.508648 0.611509 0.606081  0.041017 0.176733 1 1 1.000000
0  35.565781 36.708187 -1.266277  0.488168 0.848214 0.205488  0.176763 0.176733 1 1 1.000000
0  29.950132 35.180401 -1.032291  -0.271584 0.961905 -0.031329  0.236335 0.183569 1 1 1.000000
exhaustchrome
0  29.950132 35.180401 -1.032291  -0.271584 0.961905 -0.031329  0.236335 0.183569 1 1 1.000000
0  29.936369 34.850071 0.233983  -0.060751 0.522314 0.850586  0.041017 0.183569 1 1 1.000000
0  35.496960 36.377853 -0.591848  0.508648 0.611509 0.606081  0.041017 0.176733 1 1 1.000000
exhaustchrome
0  35.524490 36.253979 -0.646904  0.981089 -0.031789 0.190932  0.050783 0.175756 1 1 1.000000
0  35.496960 36.377853 -0.591848  0.508648 0.611509 0.606081  0.041017 0.176733 1 1 1.000000
0  35.359322 35.607079 -0.233988  0.484980 0.159161 0.859920  0.020508 0.176733 1 1 1.000000
exhaustchrome
0  35.359322 35.607079 -0.233988  0.484980 0.159161 0.859920  0.020508 0.176733 1 1 1.000000
0  35.400616 35.538261 -0.289043  0.930005 -0.115818 0.348821  0.029298 0.175756 1 1 1.000000
0  35.524490 36.253979 -0.646904  0.981089 -0.031789 0.190932  0.050783 0.175756 1 1 1.000000
exhaustchrome
0  29.922606 30.170357 0.233983  0.014291 -0.511174 0.859358  0.041017 0.183569 1 1 1.000000
0  34.258217 29.385820 -0.591848  0.446669 -0.687613 0.572429  0.041017 0.176733 1 1 1.000000
0  34.395851 30.156593 -0.233988  0.463999 -0.281435 0.839940  0.020508 0.176733 1 1 1.000000
exhaustchrome
0  29.922606 30.170357 0.233983  0.014291 -0.511174 0.859358  0.041017 0.183569 1 1 1.000000
0  34.395851 30.156593 -0.233988  0.463999 -0.281435 0.839940  0.020508 0.176733 1 1 1.000000
0  35.359322 35.607079 -0.233988  0.484980 0.159161 0.859920  0.020508 0.176733 1 1 1.000000
exhaustchrome
0  35.359322 35.607079 -0.233988  0.484980 0.159161 0.859920  0.020508 0.176733 1 1 1.000000
0  35.496960 36.377853 -0.591848  0.508648 0.611509 0.606081  0.041017 0.176733 1 1 1.000000
0  29.936369 34.850071 0.233983  -0.060751 0.522314 0.850586  0.041017 0.183569 1 1 1.000000
exhaustchrome
0  29.922606 30.170357 0.233983  0.014291 -0.511174 0.859358  0.041017 0.183569 1 1 1.000000
0  35.359322 35.607079 -0.233988  0.484980 0.159161 0.859920  0.020508 0.176733 1 1 1.000000
0  29.936369 34.850071 0.233983  -0.060751 0.522314 0.850586  0.041017 0.183569 1 1 1.000000
exhaustchrome
0  35.593307 36.598076 -1.293805  0.997328 0.045383 0.057251  0.179693 0.175756 1 1 1.000000
0  35.524490 36.253979 -0.646904  0.981089 -0.031789 0.190932  0.050783 0.175756 1 1 1.000000
0  35.496960 36.116341 -0.701959  0.983962 -0.178357 0.002725  0.071291 0.175756 1 1 1.000000
exhaustchrome
0  35.496960 36.116341 -0.701959  0.983962 -0.178357 0.002725  0.071291 0.175756 1 1 1.000000
0  35.565781 36.474201 -1.335096  0.983875 -0.178843 0.002414  0.186529 0.175756 1 1 1.000000
0  35.593307 36.598076 -1.293805  0.997328 0.045383 0.057251  0.179693 0.175756 1 1 1.000000
exhaustchrome
0  35.496960 36.377853 -0.591848  0.508648 0.611509 0.606081  0.041017 0.176733 1 1 1.000000
0  35.524490 36.253979 -0.646904  0.981089 -0.031789 0.190932  0.050783 0.175756 1 1 1.000000
0  35.593307 36.598076 -1.293805  0.997328 0.045383 0.057251  0.179693 0.175756 1 1 1.000000
exhaustchrome
0  35.593307 36.598076 -1.293805  0.997328 0.045383 0.057251  0.179693 0.175756 1 1 1.000000
0  35.565781 36.708187 -1.266277  0.488168 0.848214 0.205488  0.176763 0.176733 1 1 1.000000
0  35.496960 36.377853 -0.591848  0.508648 0.611509 0.606081  0.041017 0.176733 1 1 1.000000
exhaustchrome
0  35.386848 35.469440 -0.399154  0.984419 -0.175828 0.001980  0.046876 0.175756 1 1 1.000000
0  35.400616 35.538261 -0.289043  0.930005 -0.115818 0.348821  0.029298 0.175756 1 1 1.000000
0  34.450909 30.197884 -0.289043  0.911181 -0.218226 0.349466  0.029298 0.175756 1 1 1.000000
exhaustchrome
0  34.450909 30.197884 -0.289043  0.911181 -0.218226 0.349466  0.029298 0.175756 1 1 1.000000
0  34.464672 30.280470 -0.399154  0.984361 -0.176128 0.003554  0.046876 0.175756 1 1 1.000000
0  35.386848 35.469440 -0.399154  0.984419 -0.175828 0.001980  0.046876 0.175756 1 1 1.000000
exhaustchrome
0  35.400616 35.538261 -0.289043  0.930005 -0.115818 0.348821  0.029298 0.175756 1 1 1.000000
0  35.359322 35.607079 -0.233988  0.484980 0.159161 0.859920  0.020508 0.176733 1 1 1.000000
0  34.395851 30.156593 -0.233988  0.463999 -0.281435 0.839940  0.020508 0.176733 1 1 1.000000
exhaustchrome
0  34.395851 30.156593 -0.233988  0.463999 -0.281435 0.839940  0.020508 0.176733 1 1 1.000000
0  34.450909 30.197884 -0.289043  0.911181 -0.218226 0.349466  0.029298 0.175756 1 1 1.000000
0  35.400616 35.538261 -0.289043  0.930005 -0.115818 0.348821  0.029298 0.175756 1 1 1.000000
exhaustchrome
0  34.450909 30.197884 -0.289043  0.911181 -0.218226 0.349466  0.029298 0.175756 1 1 1.000000
0  34.327034 29.495930 -0.646903  0.929038 -0.316148 0.192197  0.050783 0.175756 1 1 1.000000
0  34.340797 29.619802 -0.701959  0.983558 -0.180526 0.004979  0.071291 0.175756 1 1 1.000000
exhaustchrome
0  34.340797 29.619802 -0.701959  0.983558 -0.180526 0.004979  0.071291 0.175756 1 1 1.000000
0  34.464672 30.280470 -0.399154  0.984361 -0.176128 0.003554  0.046876 0.175756 1 1 1.000000
0  34.450909 30.197884 -0.289043  0.911181 -0.218226 0.349466  0.029298 0.175756 1 1 1.000000
exhaustchrome
0  29.922606 29.826263 -0.619375  -0.162054 -0.981725 0.099769  0.236335 0.183569 1 1 1.000000
0  34.203163 29.055487 -1.266277  0.371007 -0.910313 0.183530  0.176763 0.176733 1 1 1.000000
0  34.258217 29.385820 -0.591848  0.446669 -0.687613 0.572429  0.041017 0.176733 1 1 1.000000
exhaustchrome
0  34.258217 29.385820 -0.591848  0.446669 -0.687613 0.572429  0.041017 0.176733 1 1 1.000000
0  29.922606 30.170357 0.233983  0.014291 -0.511174 0.859358  0.041017 0.183569 1 1 1.000000
0  29.922606 29.826263 -0.619375  -0.162054 -0.981725 0.099769  0.236335 0.183569 1 1 1.000000
exhaustchrome
0  34.327034 29.495930 -0.646903  0.929038 -0.316148 0.192197  0.050783 0.175756 1 1 1.000000
0  34.450909 30.197884 -0.289043  0.911181 -0.218226 0.349466  0.029298 0.175756 1 1 1.000000
0  34.395851 30.156593 -0.233988  0.463999 -0.281435 0.839940  0.020508 0.176733 1 1 1.000000
exhaustchrome
0  34.395851 30.156593 -0.233988  0.463999 -0.281435 0.839940  0.020508 0.176733 1 1 1.000000
0  34.258217 29.385820 -0.591848  0.446669 -0.687613 0.572429  0.041017 0.176733 1 1 1.000000
0  34.327034 29.495930 -0.646903  0.929038 -0.316148 0.192197  0.050783 0.175756 1 1 1.000000
exhaustchrome
0  34.258217 29.151833 -1.293804  0.916502 -0.395632 0.059147  0.179693 0.175756 1 1 1.000000
0  34.285744 29.261944 -1.335096  0.983865 -0.178865 0.004041  0.186529 0.175756 1 1 1.000000
0  34.340797 29.619802 -0.701959  0.983558 -0.180526 0.004979  0.071291 0.175756 1 1 1.000000
exhaustchrome
0  34.340797 29.619802 -0.701959  0.983558 -0.180526 0.004979  0.071291 0.175756 1 1 1.000000
0  34.327034 29.495930 -0.646903  0.929038 -0.316148 0.192197  0.050783 0.175756 1 1 1.000000
0  34.258217 29.151833 -1.293804  0.916502 -0.395632 0.059147  0.179693 0.175756 1 1 1.000000
exhaustchrome
0  34.258217 29.151833 -1.293804  0.916502 -0.395632 0.059147  0.179693 0.175756 1 1 1.000000
0  34.327034 29.495930 -0.646903  0.929038 -0.316148 0.192197  0.050783 0.175756 1 1 1.000000
0  34.258217 29.385820 -0.591848  0.446669 -0.687613 0.572429  0.041017 0.176733 1 1 1.000000
exhaustchrome
0  34.258217 29.385820 -0.591848  0.446669 -0.687613 0.572429  0.041017 0.176733 1 1 1.000000
0  34.203163 29.055487 -1.266277  0.371007 -0.910313 0.183530  0.176763 0.176733 1 1 1.000000
0  34.258217 29.151833 -1.293804  0.916502 -0.395632 0.059147  0.179693 0.175756 1 1 1.000000
exhaustchrome
0  29.922606 29.826263 -0.619375  -0.162054 -0.981725 0.099769  0.236335 0.183569 1 1 1.000000
0  34.203163 29.055487 -2.009525  0.318077 -0.920066 -0.228704  0.296884 0.176733 1 1 1.000000
0  34.203163 29.055487 -1.266277  0.371007 -0.910313 0.183530  0.176763 0.176733 1 1 1.000000
exhaustchrome
0  35.565781 36.474201 -1.335096  0.983875 -0.178843 0.002414  0.186529 0.175756 1 1 1.000000
0  35.565781 36.474201 -1.940705  0.983896 -0.178698 0.003995  0.286142 0.175756 1 1 1.000000
0  35.593307 36.598076 -1.981997  0.997729 0.045199 -0.049941  0.292978 0.175756 1 1 1.000000
exhaustchrome
0  35.593307 36.598076 -1.981997  0.997729 0.045199 -0.049941  0.292978 0.175756 1 1 1.000000
0  35.593307 36.598076 -1.293805  0.997328 0.045383 0.057251  0.179693 0.175756 1 1 1.000000
0  35.565781 36.474201 -1.335096  0.983875 -0.178843 0.002414  0.186529 0.175756 1 1 1.000000
exhaustchrome
0  34.285744 29.261944 -1.335096  0.983865 -0.178865 0.004041  0.186529 0.175756 1 1 1.000000
0  34.258217 29.151833 -1.293804  0.916502 -0.395632 0.059147  0.179693 0.175756 1 1 1.000000
0  34.271980 29.151833 -1.981997  0.916912 -0.395607 -0.052603  0.292978 0.175756 1 1 1.000000
exhaustchrome
0  34.271980 29.151833 -1.981997  0.916912 -0.395607 -0.052603  0.292978 0.175756 1 1 1.000000
0  34.285744 29.261944 -1.940705  0.983862 -0.178913 0.002443  0.286142 0.175756 1 1 1.000000
0  34.285744 29.261944 -1.335096  0.983865 -0.178865 0.004041  0.186529 0.175756 1 1 1.000000
exhaustchrome
0  34.258217 29.151833 -1.293804  0.916502 -0.395632 0.059147  0.179693 0.175756 1 1 1.000000
0  34.203163 29.055487 -1.266277  0.371007 -0.910313 0.183530  0.176763 0.176733 1 1 1.000000
0  34.203163 29.055487 -2.009525  0.318077 -0.920066 -0.228704  0.296884 0.176733 1 1 1.000000
exhaustchrome
0  34.203163 29.055487 -2.009525  0.318077 -0.920066 -0.228704  0.296884 0.176733 1 1 1.000000
0  34.271980 29.151833 -1.981997  0.916912 -0.395607 -0.052603  0.292978 0.175756 1 1 1.000000
0  34.258217 29.151833 -1.293804  0.916502 -0.395632 0.059147  0.179693 0.175756 1 1 1.000000
exhaustchrome
0  35.510727 36.116341 -2.573842  0.983580 -0.180410 0.004806  0.402356 0.175756 1 1 1.000000
0  35.386848 35.469440 -2.876647  0.984345 -0.176218 0.003619  0.426771 0.175756 1 1 1.000000
0  35.400616 35.538261 -2.986758  0.932343 -0.117207 -0.342052  0.443373 0.175756 1 1 1.000000
exhaustchrome
0  35.400616 35.538261 -2.986758  0.932343 -0.117207 -0.342052  0.443373 0.175756 1 1 1.000000
0  35.538254 36.253979 -2.628898  0.982298 -0.033272 -0.184345  0.422864 0.175756 1 1 1.000000
0  35.510727 36.116341 -2.573842  0.983580 -0.180410 0.004806  0.402356 0.175756 1 1 1.000000
exhaustchrome
0  29.950132 35.180401 -1.032291  -0.271584 0.961905 -0.031329  0.236335 0.183569 1 1 1.000000
0  35.565781 36.708187 -2.009525  0.471116 0.853831 -0.221408  0.296884 0.176733 1 1 1.000000
0  35.510727 36.377853 -2.683953  0.446453 0.617629 -0.647467  0.432630 0.176733 1 1 1.000000
exhaustchrome
0  35.510727 36.377853 -2.683953  0.446453 0.617629 -0.647467  0.432630 0.176733 1 1 1.000000
0  29.950132 34.850071 -1.858122  -0.309726 0.514705 -0.799468  0.432630 0.183569 1 1 1.000000
0  29.950132 35.180401 -1.032291  -0.271584 0.961905 -0.031329  0.236335 0.183569 1 1 1.000000
exhaustchrome
0  35.538254 36.253979 -2.628898  0.982298 -0.033272 -0.184345  0.422864 0.175756 1 1 1.000000
0  35.400616 35.538261 -2.986758  0.932343 -0.117207 -0.342052  0.443373 0.175756 1 1 1.000000
0  35.373085 35.607079 -3.041813  0.358521 0.187087 -0.914583  0.453139 0.176733 1 1 1.000000
exhaustchrome
0  35.373085 35.607079 -3.041813  0.358521 0.187087 -0.914583  0.453139 0.176733 1 1 1.000000
0  35.510727 36.377853 -2.683953  0.446453 0.617629 -0.647467  0.432630 0.176733 1 1 1.000000
0  35.538254 36.253979 -2.628898  0.982298 -0.033272 -0.184345  0.422864 0.175756 1 1 1.000000
exhaustchrome
0  34.395851 30.156593 -3.041813  0.311328 -0.271346 -0.910739  0.453139 0.176733 1 1 1.000000
0  34.258217 29.385820 -2.683953  0.328213 -0.695407 -0.639285  0.432630 0.176733 1 1 1.000000
0  29.936369 30.170357 -1.858122  -0.289768 -0.591957 -0.752078  0.432630 0.183569 1 1 1.000000
exhaustchrome
0  34.395851 30.156593 -3.041813  0.311328 -0.271346 -0.910739  0.453139 0.176733 1 1 1.000000
0  29.936369 30.170357 -1.858122  -0.289768 -0.591957 -0.752078  0.432630 0.183569 1 1 1.000000
0  29.950132 34.850071 -1.858122  -0.309726 0.514705 -0.799468  0.432630 0.183569 1 1 1.000000
exhaustchrome
0  29.950132 34.850071 -1.858122  -0.309726 0.514705 -0.799468  0.432630 0.183569 1 1 1.000000
0  35.510727 36.377853 -2.683953  0.446453 0.617629 -0.647467  0.432630 0.176733 1 1 1.000000
0  35.373085 35.607079 -3.041813  0.358521 0.187087 -0.914583  0.453139 0.176733 1 1 1.000000
exhaustchrome
0  34.395851 30.156593 -3.041813  0.311328 -0.271346 -0.910739  0.453139 0.176733 1 1 1.000000
0  29.950132 34.850071 -1.858122  -0.309726 0.514705 -0.799468  0.432630 0.183569 1 1 1.000000
0  35.373085 35.607079 -3.041813  0.358521 0.187087 -0.914583  0.453139 0.176733 1 1 1.000000
exhaustchrome
0  35.593307 36.598076 -1.981997  0.997729 0.045199 -0.049941  0.292978 0.175756 1 1 1.000000
0  35.565781 36.474201 -1.940705  0.983896 -0.178698 0.003995  0.286142 0.175756 1 1 1.000000
0  35.510727 36.116341 -2.573842  0.983580 -0.180410 0.004806  0.402356 0.175756 1 1 1.000000
exhaustchrome
0  35.510727 36.116341 -2.573842  0.983580 -0.180410 0.004806  0.402356 0.175756 1 1 1.000000
0  35.538254 36.253979 -2.628898  0.982298 -0.033272 -0.184345  0.422864 0.175756 1 1 1.000000
0  35.593307 36.598076 -1.981997  0.997729 0.045199 -0.049941  0.292978 0.175756 1 1 1.000000
exhaustchrome
0  35.593307 36.598076 -1.981997  0.997729 0.045199 -0.049941  0.292978 0.175756 1 1 1.000000
0  35.538254 36.253979 -2.628898  0.982298 -0.033272 -0.184345  0.422864 0.175756 1 1 1.000000
0  35.510727 36.377853 -2.683953  0.446453 0.617629 -0.647467  0.432630 0.176733 1 1 1.000000
exhaustchrome
0  35.510727 36.377853 -2.683953  0.446453 0.617629 -0.647467  0.432630 0.176733 1 1 1.000000
0  35.565781 36.708187 -2.009525  0.471116 0.853831 -0.221408  0.296884 0.176733 1 1 1.000000
0  35.593307 36.598076 -1.981997  0.997729 0.045199 -0.049941  0.292978 0.175756 1 1 1.000000
exhaustchrome
0  34.464672 30.197884 -2.986758  0.914013 -0.216739 -0.342934  0.443373 0.175756 1 1 1.000000
0  35.400616 35.538261 -2.986758  0.932343 -0.117207 -0.342052  0.443373 0.175756 1 1 1.000000
0  35.386848 35.469440 -2.876647  0.984345 -0.176218 0.003619  0.426771 0.175756 1 1 1.000000
exhaustchrome
0  35.386848 35.469440 -2.876647  0.984345 -0.176218 0.003619  0.426771 0.175756 1 1 1.000000
0  34.478436 30.280470 -2.876647  0.984434 -0.175747 0.001932  0.426771 0.175756 1 1 1.000000
0  34.464672 30.197884 -2.986758  0.914013 -0.216739 -0.342934  0.443373 0.175756 1 1 1.000000
exhaustchrome
0  34.395851 30.156593 -3.041813  0.311328 -0.271346 -0.910739  0.453139 0.176733 1 1 1.000000
0  35.373085 35.607079 -3.041813  0.358521 0.187087 -0.914583  0.453139 0.176733 1 1 1.000000
0  35.400616 35.538261 -2.986758  0.932343 -0.117207 -0.342052  0.443373 0.175756 1 1 1.000000
exhaustchrome
0  35.400616 35.538261 -2.986758  0.932343 -0.117207 -0.342052  0.443373 0.175756 1 1 1.000000
0  34.464672 30.197884 -2.986758  0.914013 -0.216739 -0.342934  0.443373 0.175756 1 1 1.000000
0  34.395851 30.156593 -3.041813  0.311328 -0.271346 -0.910739  0.453139 0.176733 1 1 1.000000
exhaustchrome
0  35.565781 36.708187 -2.009525  0.471116 0.853831 -0.221408  0.296884 0.176733 1 1 1.000000
0  29.950132 35.180401 -1.032291  -0.271584 0.961905 -0.031329  0.236335 0.183569 1 1 1.000000
0  35.565781 36.708187 -1.266277  0.488168 0.848214 0.205488  0.176763 0.176733 1 1 1.000000
exhaustchrome
0  34.464672 30.197884 -2.986758  0.914013 -0.216739 -0.342934  0.443373 0.175756 1 1 1.000000
0  34.478436 30.280470 -2.876647  0.984434 -0.175747 0.001932  0.426771 0.175756 1 1 1.000000
0  34.354561 29.619802 -2.573842  0.983936 -0.178504 0.002563  0.402356 0.175756 1 1 1.000000
exhaustchrome
0  34.354561 29.619802 -2.573842  0.983936 -0.178504 0.002563  0.402356 0.175756 1 1 1.000000
0  34.327034 29.495930 -2.628898  0.930708 -0.314766 -0.186294  0.422864 0.175756 1 1 1.000000
0  34.464672 30.197884 -2.986758  0.914013 -0.216739 -0.342934  0.443373 0.175756 1 1 1.000000
exhaustchrome
0  34.258217 29.385820 -2.683953  0.328213 -0.695407 -0.639285  0.432630 0.176733 1 1 1.000000
0  34.203163 29.055487 -2.009525  0.318077 -0.920066 -0.228704  0.296884 0.176733 1 1 1.000000
0  29.922606 29.826263 -0.619375  -0.162054 -0.981725 0.099769  0.236335 0.183569 1 1 1.000000
exhaustchrome
0  29.922606 29.826263 -0.619375  -0.162054 -0.981725 0.099769  0.236335 0.183569 1 1 1.000000
0  29.936369 30.170357 -1.858122  -0.289768 -0.591957 -0.752078  0.432630 0.183569 1 1 1.000000
0  34.258217 29.385820 -2.683953  0.328213 -0.695407 -0.639285  0.432630 0.176733 1 1 1.000000
exhaustchrome
0  34.327034 29.495930 -2.628898  0.930708 -0.314766 -0.186294  0.422864 0.175756 1 1 1.000000
0  34.258217 29.385820 -2.683953  0.328213 -0.695407 -0.639285  0.432630 0.176733 1 1 1.000000
0  34.395851 30.156593 -3.041813  0.311328 -0.271346 -0.910739  0.453139 0.176733 1 1 1.000000
exhaustchrome
0  34.395851 30.156593 -3.041813  0.311328 -0.271346 -0.910739  0.453139 0.176733 1 1 1.000000
0  34.464672 30.197884 -2.986758  0.914013 -0.216739 -0.342934  0.443373 0.175756 1 1 1.000000
0  34.327034 29.495930 -2.628898  0.930708 -0.314766 -0.186294  0.422864 0.175756 1 1 1.000000
exhaustchrome
0  34.271980 29.151833 -1.981997  0.916912 -0.395607 -0.052603  0.292978 0.175756 1 1 1.000000
0  34.327034 29.495930 -2.628898  0.930708 -0.314766 -0.186294  0.422864 0.175756 1 1 1.000000
0  34.354561 29.619802 -2.573842  0.983936 -0.178504 0.002563  0.402356 0.175756 1 1 1.000000
exhaustchrome
0  34.354561 29.619802 -2.573842  0.983936 -0.178504 0.002563  0.402356 0.175756 1 1 1.000000
0  34.285744 29.261944 -1.940705  0.983862 -0.178913 0.002443  0.286142 0.175756 1 1 1.000000
0  34.271980 29.151833 -1.981997  0.916912 -0.395607 -0.052603  0.292978 0.175756 1 1 1.000000
exhaustchrome
0  34.258217 29.385820 -2.683953  0.328213 -0.695407 -0.639285  0.432630 0.176733 1 1 1.000000
0  34.327034 29.495930 -2.628898  0.930708 -0.314766 -0.186294  0.422864 0.175756 1 1 1.000000
0  34.271980 29.151833 -1.981997  0.916912 -0.395607 -0.052603  0.292978 0.175756 1 1 1.000000
exhaustchrome
0  34.271980 29.151833 -1.981997  0.916912 -0.395607 -0.052603  0.292978 0.175756 1 1 1.000000
0  34.203163 29.055487 -2.009525  0.318077 -0.920066 -0.228704  0.296884 0.176733 1 1 1.000000
0  34.258217 29.385820 -2.683953  0.328213 -0.695407 -0.639285  0.432630 0.176733 1 1 1.000000
exhaustchrome
0  35.593307 36.598076 -1.293805  0.997328 0.045383 0.057251  0.179693 0.175756 1 1 1.000000
0  35.593307 36.598076 -1.981997  0.997729 0.045199 -0.049941  0.292978 0.175756 1 1 1.000000
0  35.565781 36.708187 -2.009525  0.471116 0.853831 -0.221408  0.296884 0.176733 1 1 1.000000
exhaustchrome
0  35.565781 36.708187 -2.009525  0.471116 0.853831 -0.221408  0.296884 0.176733 1 1 1.000000
0  35.565781 36.708187 -1.266277  0.488168 0.848214 0.205488  0.176763 0.176733 1 1 1.000000
0  35.593307 36.598076 -1.293805  0.997328 0.045383 0.057251  0.179693 0.175756 1 1 1.000000
exhaust
0  35.565781 36.474201 -1.335096  0.251140 -0.949012 -0.190537  0.024415 0.157201 1 1 1.000000
0  35.496960 36.116341 -0.701959  0.115865 -0.728772 -0.674882  0.024415 0.158177 1 1 1.000000
0  31.918362 35.331802 -0.481737  0.194224 -0.621362 -0.759070  0.392590 0.158177 1 1 1.000000
exhaust
0  31.918362 35.331802 -2.037052  0.346394 -0.645564 0.680631  0.392590 0.158177 1 1 1.000000
0  35.510727 36.116341 -2.573842  0.250798 -0.703727 0.664732  0.024415 0.158177 1 1 1.000000
0  35.565781 36.474201 -1.940705  0.285249 -0.934264 0.213973  0.024415 0.157201 1 1 1.000000
exhaust
0  31.918362 35.331802 -0.481737  0.194224 -0.621362 -0.759070  0.392590 0.158177 1 1 1.000000
0  31.918362 35.331802 -2.037052  0.346394 -0.645564 0.680631  0.392590 0.158177 1 1 1.000000
0  35.565781 36.474201 -1.940705  0.285249 -0.934264 0.213973  0.024415 0.157201 1 1 1.000000
exhaust
0  35.565781 36.474201 -1.335096  0.251140 -0.949012 -0.190537  0.024415 0.157201 1 1 1.000000
0  31.918362 35.331802 -0.481737  0.194224 -0.621362 -0.759070  0.392590 0.158177 1 1 1.000000
0  35.565781 36.474201 -1.940705  0.285249 -0.934264 0.213973  0.024415 0.157201 1 1 1.000000
exhaust
0  34.464672 30.280470 -0.399154  0.046350 0.199566 -0.978788  0.024415 0.158177 1 1 1.000000
0  34.340797 29.619802 -0.701959  0.175674 0.680256 -0.711611  0.024415 0.158177 1 1 1.000000
0  31.904598 30.486925 -0.481737  0.274267 0.558898 -0.782567  0.392590 0.158177 1 1 1.000000
exhaust
0  34.464672 30.280470 -0.399154  0.046350 0.199566 -0.978788  0.024415 0.158177 1 1 1.000000
0  31.904598 30.486925 -0.481737  0.274267 0.558898 -0.782567  0.392590 0.158177 1 1 1.000000
0  31.918362 35.331802 -0.481737  0.194224 -0.621362 -0.759070  0.392590 0.158177 1 1 1.000000
exhaust
0  31.918362 35.331802 -0.481737  0.194224 -0.621362 -0.759070  0.392590 0.158177 1 1 1.000000
0  35.496960 36.116341 -0.701959  0.115865 -0.728772 -0.674882  0.024415 0.158177 1 1 1.000000
0  35.386848 35.469440 -0.399154  0.032196 -0.252572 -0.967042  0.024415 0.158177 1 1 1.000000
exhaust
0  34.464672 30.280470 -0.399154  0.046350 0.199566 -0.978788  0.024415 0.158177 1 1 1.000000
0  31.918362 35.331802 -0.481737  0.194224 -0.621362 -0.759070  0.392590 0.158177 1 1 1.000000
0  35.386848 35.469440 -0.399154  0.032196 -0.252572 -0.967042  0.024415 0.158177 1 1 1.000000
exhaust
0  31.904598 30.486925 -0.481737  0.274267 0.558898 -0.782567  0.392590 0.158177 1 1 1.000000
0  34.340797 29.619802 -0.701959  0.175674 0.680256 -0.711611  0.024415 0.158177 1 1 1.000000
0  34.285744 29.261944 -1.335096  0.393234 0.898924 -0.193138  0.024415 0.157201 1 1 1.000000
exhaust
0  31.904598 30.486925 -0.481737  0.274267 0.558898 -0.782567  0.392590 0.158177 1 1 1.000000
0  34.285744 29.261944 -1.335096  0.393234 0.898924 -0.193138  0.024415 0.157201 1 1 1.000000
0  34.285744 29.261944 -1.940705  0.437344 0.868478 0.233401  0.024415 0.157201 1 1 1.000000
exhaust
0  34.285744 29.261944 -1.940705  0.437344 0.868478 0.233401  0.024415 0.157201 1 1 1.000000
0  34.354561 29.619802 -2.573842  0.365464 0.594535 0.716215  0.024415 0.158177 1 1 1.000000
0  31.904598 30.486925 -2.037052  0.469388 0.562917 0.680294  0.392590 0.158177 1 1 1.000000
exhaust
0  31.904598 30.486925 -0.481737  0.274267 0.558898 -0.782567  0.392590 0.158177 1 1 1.000000
0  34.285744 29.261944 -1.940705  0.437344 0.868478 0.233401  0.024415 0.157201 1 1 1.000000
0  31.904598 30.486925 -2.037052  0.469388 0.562917 0.680294  0.392590 0.158177 1 1 1.000000
exhaust
0  31.904598 30.486925 -2.037052  0.469388 0.562917 0.680294  0.392590 0.158177 1 1 1.000000
0  34.354561 29.619802 -2.573842  0.365464 0.594535 0.716215  0.024415 0.158177 1 1 1.000000
0  34.478436 30.280470 -2.876647  0.315885 0.132440 0.939509  0.024415 0.158177 1 1 1.000000
exhaust
0  31.904598 30.486925 -2.037052  0.469388 0.562917 0.680294  0.392590 0.158177 1 1 1.000000
0  34.478436 30.280470 -2.876647  0.315885 0.132440 0.939509  0.024415 0.158177 1 1 1.000000
0  35.386848 35.469440 -2.876647  0.245001 -0.261365 0.933629  0.024415 0.158177 1 1 1.000000
exhaust
0  35.386848 35.469440 -2.876647  0.245001 -0.261365 0.933629  0.024415 0.158177 1 1 1.000000
0  35.510727 36.116341 -2.573842  0.250798 -0.703727 0.664732  0.024415 0.158177 1 1 1.000000
0  31.918362 35.331802 -2.037052  0.346394 -0.645564 0.680631  0.392590 0.158177 1 1 1.000000
exhaust
0  31.904598 30.486925 -2.037052  0.469388 0.562917 0.680294  0.392590 0.158177 1 1 1.000000
0  35.386848 35.469440 -2.876647  0.245001 -0.261365 0.933629  0.024415 0.158177 1 1 1.000000
0  31.918362 35.331802 -2.037052  0.346394 -0.645564 0.680631  0.392590 0.158177 1 1 1.000000
exhaust
0  31.987185 30.307997 -2.202218  0.999990 -0.002874 0.003305  0.565447 0.029267 1 1 1.000000
0  32.014709 35.441914 -2.202218  0.999990 -0.002872 0.003332  0.705100 0.029267 1 1 1.000000
0  32.000946 35.428150 -0.316571  0.999990 -0.002850 0.003303  0.705100 0.150365 1 1 1.000000
exhaust
0  32.000946 35.428150 -0.316571  0.999990 -0.002850 0.003303  0.705100 0.150365 1 1 1.000000
0  31.987185 30.307997 -0.316571  0.999990 -0.002870 0.003351  0.565447 0.150365 1 1 1.000000
0  31.987185 30.307997 -2.202218  0.999990 -0.002874 0.003305  0.565447 0.029267 1 1 1.000000
exhaustchrome
0  -35.428150 35.538254 -0.289038  -0.930019 -0.115827 0.348781  0.029298 0.175756 1 1 1.000000
0  -35.552025 36.253971 -0.646898  -0.981096 -0.031870 0.190879  0.050783 0.175756 1 1 1.000000
0  -35.524498 36.116333 -0.701954  -0.983963 -0.178350 0.002751  0.071291 0.175756 1 1 1.000000
exhaustchrome
0  -35.524498 36.116333 -0.701954  -0.983963 -0.178350 0.002751  0.071291 0.175756 1 1 1.000000
0  -35.414387 35.469433 -0.399149  -0.984421 -0.175813 0.002011  0.046876 0.175756 1 1 1.000000
0  -35.428150 35.538254 -0.289038  -0.930019 -0.115827 0.348781  0.029298 0.175756 1 1 1.000000
exhaustchrome
0  -35.524498 36.377846 -0.591843  -0.508710 0.611487 0.606051  0.041017 0.176733 1 1 1.000000
0  -29.963900 34.850063 0.233988  0.060520 0.522838 0.850281  0.041017 0.183569 1 1 1.000000
0  -29.977663 35.180393 -1.032286  0.271498 0.961931 -0.031272  0.236335 0.183569 1 1 1.000000
exhaustchrome
0  -29.977663 35.180393 -1.032286  0.271498 0.961931 -0.031272  0.236335 0.183569 1 1 1.000000
0  -35.593315 36.708179 -1.266271  -0.488220 0.848181 0.205501  0.176763 0.176733 1 1 1.000000
0  -35.524498 36.377846 -0.591843  -0.508710 0.611487 0.606051  0.041017 0.176733 1 1 1.000000
exhaustchrome
0  -35.552025 36.253971 -0.646898  -0.981096 -0.031870 0.190879  0.050783 0.175756 1 1 1.000000
0  -35.428150 35.538254 -0.289038  -0.930019 -0.115827 0.348781  0.029298 0.175756 1 1 1.000000
0  -35.386856 35.607071 -0.233983  -0.485031 0.159144 0.859894  0.020508 0.176733 1 1 1.000000
exhaustchrome
0  -35.386856 35.607071 -0.233983  -0.485031 0.159144 0.859894  0.020508 0.176733 1 1 1.000000
0  -35.524498 36.377846 -0.591843  -0.508710 0.611487 0.606051  0.041017 0.176733 1 1 1.000000
0  -35.552025 36.253971 -0.646898  -0.981096 -0.031870 0.190879  0.050783 0.175756 1 1 1.000000
exhaustchrome
0  -34.423389 30.156590 -0.233983  -0.464003 -0.281445 0.839935  0.020508 0.176733 1 1 1.000000
0  -34.285751 29.385817 -0.591843  -0.446664 -0.687606 0.572442  0.041017 0.176733 1 1 1.000000
0  -29.950136 30.170353 0.233988  -0.013999 -0.511180 0.859360  0.041017 0.183569 1 1 1.000000
exhaustchrome
0  -29.963900 34.850063 0.233988  0.060520 0.522838 0.850281  0.041017 0.183569 1 1 1.000000
0  -35.524498 36.377846 -0.591843  -0.508710 0.611487 0.606051  0.041017 0.176733 1 1 1.000000
0  -35.386856 35.607071 -0.233983  -0.485031 0.159144 0.859894  0.020508 0.176733 1 1 1.000000
exhaustchrome
0  -29.950136 30.170353 0.233988  -0.013999 -0.511180 0.859360  0.041017 0.183569 1 1 1.000000
0  -29.963900 34.850063 0.233988  0.060520 0.522838 0.850281  0.041017 0.183569 1 1 1.000000
0  -35.386856 35.607071 -0.233983  -0.485031 0.159144 0.859894  0.020508 0.176733 1 1 1.000000
exhaustchrome
0  -34.423389 30.156590 -0.233983  -0.464003 -0.281445 0.839935  0.020508 0.176733 1 1 1.000000
0  -29.950136 30.170353 0.233988  -0.013999 -0.511180 0.859360  0.041017 0.183569 1 1 1.000000
0  -35.386856 35.607071 -0.233983  -0.485031 0.159144 0.859894  0.020508 0.176733 1 1 1.000000
exhaustchrome
0  -35.620846 36.598068 -1.293799  -0.997328 0.045377 0.057252  0.179693 0.175756 1 1 1.000000
0  -35.593315 36.474194 -1.335091  -0.983871 -0.178863 0.002403  0.186529 0.175756 1 1 1.000000
0  -35.524498 36.116333 -0.701954  -0.983963 -0.178350 0.002751  0.071291 0.175756 1 1 1.000000
exhaustchrome
0  -35.524498 36.116333 -0.701954  -0.983963 -0.178350 0.002751  0.071291 0.175756 1 1 1.000000
0  -35.552025 36.253971 -0.646898  -0.981096 -0.031870 0.190879  0.050783 0.175756 1 1 1.000000
0  -35.620846 36.598068 -1.293799  -0.997328 0.045377 0.057252  0.179693 0.175756 1 1 1.000000
exhaustchrome
0  -35.524498 36.377846 -0.591843  -0.508710 0.611487 0.606051  0.041017 0.176733 1 1 1.000000
0  -35.593315 36.708179 -1.266271  -0.488220 0.848181 0.205501  0.176763 0.176733 1 1 1.000000
0  -35.620846 36.598068 -1.293799  -0.997328 0.045377 0.057252  0.179693 0.175756 1 1 1.000000
exhaustchrome
0  -35.620846 36.598068 -1.293799  -0.997328 0.045377 0.057252  0.179693 0.175756 1 1 1.000000
0  -35.552025 36.253971 -0.646898  -0.981096 -0.031870 0.190879  0.050783 0.175756 1 1 1.000000
0  -35.524498 36.377846 -0.591843  -0.508710 0.611487 0.606051  0.041017 0.176733 1 1 1.000000
exhaustchrome
0  -35.414387 35.469433 -0.399149  -0.984421 -0.175813 0.002011  0.046876 0.175756 1 1 1.000000
0  -34.492207 30.280466 -0.399149  -0.984362 -0.176122 0.003542  0.046876 0.175756 1 1 1.000000
0  -34.478443 30.197880 -0.289038  -0.911228 -0.217603 0.349733  0.029298 0.175756 1 1 1.000000
exhaustchrome
0  -34.478443 30.197880 -0.289038  -0.911228 -0.217603 0.349733  0.029298 0.175756 1 1 1.000000
0  -35.428150 35.538254 -0.289038  -0.930019 -0.115827 0.348781  0.029298 0.175756 1 1 1.000000
0  -35.414387 35.469433 -0.399149  -0.984421 -0.175813 0.002011  0.046876 0.175756 1 1 1.000000
exhaustchrome
0  -35.428150 35.538254 -0.289038  -0.930019 -0.115827 0.348781  0.029298 0.175756 1 1 1.000000
0  -34.478443 30.197880 -0.289038  -0.911228 -0.217603 0.349733  0.029298 0.175756 1 1 1.000000
0  -34.423389 30.156590 -0.233983  -0.464003 -0.281445 0.839935  0.020508 0.176733 1 1 1.000000
exhaustchrome
0  -34.423389 30.156590 -0.233983  -0.464003 -0.281445 0.839935  0.020508 0.176733 1 1 1.000000
0  -35.386856 35.607071 -0.233983  -0.485031 0.159144 0.859894  0.020508 0.176733 1 1 1.000000
0  -35.428150 35.538254 -0.289038  -0.930019 -0.115827 0.348781  0.029298 0.175756 1 1 1.000000
exhaustchrome
0  -34.478443 30.197880 -0.289038  -0.911228 -0.217603 0.349733  0.029298 0.175756 1 1 1.000000
0  -34.492207 30.280466 -0.399149  -0.984362 -0.176122 0.003542  0.046876 0.175756 1 1 1.000000
0  -34.368332 29.619799 -0.701954  -0.983551 -0.180562 0.005019  0.071291 0.175756 1 1 1.000000
exhaustchrome
0  -34.368332 29.619799 -0.701954  -0.983551 -0.180562 0.005019  0.071291 0.175756 1 1 1.000000
0  -34.354568 29.495926 -0.646898  -0.929053 -0.316121 0.192166  0.050783 0.175756 1 1 1.000000
0  -34.478443 30.197880 -0.289038  -0.911228 -0.217603 0.349733  0.029298 0.175756 1 1 1.000000
exhaustchrome
0  -29.950136 29.826260 -0.619371  0.161854 -0.981721 0.100135  0.236335 0.183569 1 1 1.000000
0  -29.950136 30.170353 0.233988  -0.013999 -0.511180 0.859360  0.041017 0.183569 1 1 1.000000
0  -34.285751 29.385817 -0.591843  -0.446664 -0.687606 0.572442  0.041017 0.176733 1 1 1.000000
exhaustchrome
0  -34.285751 29.385817 -0.591843  -0.446664 -0.687606 0.572442  0.041017 0.176733 1 1 1.000000
0  -34.230698 29.055483 -1.266271  -0.371010 -0.910312 0.183531  0.176763 0.176733 1 1 1.000000
0  -29.950136 29.826260 -0.619371  0.161854 -0.981721 0.100135  0.236335 0.183569 1 1 1.000000
exhaustchrome
0  -34.354568 29.495926 -0.646898  -0.929053 -0.316121 0.192166  0.050783 0.175756 1 1 1.000000
0  -34.285751 29.385817 -0.591843  -0.446664 -0.687606 0.572442  0.041017 0.176733 1 1 1.000000
0  -34.423389 30.156590 -0.233983  -0.464003 -0.281445 0.839935  0.020508 0.176733 1 1 1.000000
exhaustchrome
0  -34.423389 30.156590 -0.233983  -0.464003 -0.281445 0.839935  0.020508 0.176733 1 1 1.000000
0  -34.478443 30.197880 -0.289038  -0.911228 -0.217603 0.349733  0.029298 0.175756 1 1 1.000000
0  -34.354568 29.495926 -0.646898  -0.929053 -0.316121 0.192166  0.050783 0.175756 1 1 1.000000
exhaustchrome
0  -34.285751 29.151829 -1.293799  -0.916524 -0.395585 0.059136  0.179693 0.175756 1 1 1.000000
0  -34.354568 29.495926 -0.646898  -0.929053 -0.316121 0.192166  0.050783 0.175756 1 1 1.000000
0  -34.368332 29.619799 -0.701954  -0.983551 -0.180562 0.005019  0.071291 0.175756 1 1 1.000000
exhaustchrome
0  -34.368332 29.619799 -0.701954  -0.983551 -0.180562 0.005019  0.071291 0.175756 1 1 1.000000
0  -34.313278 29.261940 -1.335091  -0.983866 -0.178861 0.004048  0.186529 0.175756 1 1 1.000000
0  -34.285751 29.151829 -1.293799  -0.916524 -0.395585 0.059136  0.179693 0.175756 1 1 1.000000
exhaustchrome
0  -34.285751 29.151829 -1.293799  -0.916524 -0.395585 0.059136  0.179693 0.175756 1 1 1.000000
0  -34.230698 29.055483 -1.266271  -0.371010 -0.910312 0.183531  0.176763 0.176733 1 1 1.000000
0  -34.285751 29.385817 -0.591843  -0.446664 -0.687606 0.572442  0.041017 0.176733 1 1 1.000000
exhaustchrome
0  -34.285751 29.385817 -0.591843  -0.446664 -0.687606 0.572442  0.041017 0.176733 1 1 1.000000
0  -34.354568 29.495926 -0.646898  -0.929053 -0.316121 0.192166  0.050783 0.175756 1 1 1.000000
0  -34.285751 29.151829 -1.293799  -0.916524 -0.395585 0.059136  0.179693 0.175756 1 1 1.000000
exhaustchrome
0  -29.950136 29.826260 -0.619371  0.161854 -0.981721 0.100135  0.236335 0.183569 1 1 1.000000
0  -34.230698 29.055483 -1.266271  -0.371010 -0.910312 0.183531  0.176763 0.176733 1 1 1.000000
0  -34.230698 29.055483 -2.009519  -0.318035 -0.920090 -0.228666  0.296884 0.176733 1 1 1.000000
exhaustchrome
0  -35.593315 36.474194 -1.335091  -0.983871 -0.178863 0.002403  0.186529 0.175756 1 1 1.000000
0  -35.620846 36.598068 -1.293799  -0.997328 0.045377 0.057252  0.179693 0.175756 1 1 1.000000
0  -35.620846 36.598068 -1.981991  -0.997726 0.045244 -0.049962  0.292978 0.175756 1 1 1.000000
exhaustchrome
0  -35.620846 36.598068 -1.981991  -0.997726 0.045244 -0.049962  0.292978 0.175756 1 1 1.000000
0  -35.593315 36.474194 -1.940700  -0.983902 -0.178666 0.003996  0.286142 0.175756 1 1 1.000000
0  -35.593315 36.474194 -1.335091  -0.983871 -0.178863 0.002403  0.186529 0.175756 1 1 1.000000
exhaustchrome
0  -34.313278 29.261940 -1.335091  -0.983866 -0.178861 0.004048  0.186529 0.175756 1 1 1.000000
0  -34.313278 29.261940 -1.940700  -0.983871 -0.178863 0.002453  0.286142 0.175756 1 1 1.000000
0  -34.299515 29.151829 -1.981992  -0.916919 -0.395589 -0.052619  0.292978 0.175756 1 1 1.000000
exhaustchrome
0  -34.299515 29.151829 -1.981992  -0.916919 -0.395589 -0.052619  0.292978 0.175756 1 1 1.000000
0  -34.285751 29.151829 -1.293799  -0.916524 -0.395585 0.059136  0.179693 0.175756 1 1 1.000000
0  -34.313278 29.261940 -1.335091  -0.983866 -0.178861 0.004048  0.186529 0.175756 1 1 1.000000
exhaustchrome
0  -34.285751 29.151829 -1.293799  -0.916524 -0.395585 0.059136  0.179693 0.175756 1 1 1.000000
0  -34.299515 29.151829 -1.981992  -0.916919 -0.395589 -0.052619  0.292978 0.175756 1 1 1.000000
0  -34.230698 29.055483 -2.009519  -0.318035 -0.920090 -0.228666  0.296884 0.176733 1 1 1.000000
exhaustchrome
0  -34.230698 29.055483 -2.009519  -0.318035 -0.920090 -0.228666  0.296884 0.176733 1 1 1.000000
0  -34.230698 29.055483 -1.266271  -0.371010 -0.910312 0.183531  0.176763 0.176733 1 1 1.000000
0  -34.285751 29.151829 -1.293799  -0.916524 -0.395585 0.059136  0.179693 0.175756 1 1 1.000000
exhaustchrome
0  -35.538261 36.116333 -2.573837  -0.983574 -0.180440 0.004814  0.402356 0.175756 1 1 1.000000
0  -35.565788 36.253971 -2.628892  -0.982288 -0.033268 -0.184399  0.422864 0.175756 1 1 1.000000
0  -35.428150 35.538254 -2.986753  -0.932336 -0.117191 -0.342075  0.443373 0.175756 1 1 1.000000
exhaustchrome
0  -35.428150 35.538254 -2.986753  -0.932336 -0.117191 -0.342075  0.443373 0.175756 1 1 1.000000
0  -35.414387 35.469433 -2.876642  -0.984342 -0.176229 0.003632  0.426771 0.175756 1 1 1.000000
0  -35.538261 36.116333 -2.573837  -0.983574 -0.180440 0.004814  0.402356 0.175756 1 1 1.000000
exhaustchrome
0  -29.977663 35.180393 -1.032286  0.271498 0.961931 -0.031272  0.236335 0.183569 1 1 1.000000
0  -29.977663 34.850063 -1.858117  0.309672 0.514722 -0.799478  0.432630 0.183569 1 1 1.000000
0  -35.538261 36.377846 -2.683948  -0.446847 0.617576 -0.647247  0.432630 0.176733 1 1 1.000000
exhaustchrome
0  -35.538261 36.377846 -2.683948  -0.446847 0.617576 -0.647247  0.432630 0.176733 1 1 1.000000
0  -35.593315 36.708179 -2.009519  -0.471276 0.853758 -0.221351  0.296884 0.176733 1 1 1.000000
0  -29.977663 35.180393 -1.032286  0.271498 0.961931 -0.031272  0.236335 0.183569 1 1 1.000000
exhaustchrome
0  -35.565788 36.253971 -2.628892  -0.982288 -0.033268 -0.184399  0.422864 0.175756 1 1 1.000000
0  -35.538261 36.377846 -2.683948  -0.446847 0.617576 -0.647247  0.432630 0.176733 1 1 1.000000
0  -35.400623 35.607071 -3.041808  -0.358612 0.187076 -0.914549  0.453139 0.176733 1 1 1.000000
exhaustchrome
0  -35.400623 35.607071 -3.041808  -0.358612 0.187076 -0.914549  0.453139 0.176733 1 1 1.000000
0  -35.428150 35.538254 -2.986753  -0.932336 -0.117191 -0.342075  0.443373 0.175756 1 1 1.000000
0  -35.565788 36.253971 -2.628892  -0.982288 -0.033268 -0.184399  0.422864 0.175756 1 1 1.000000
exhaustchrome
0  -29.963900 30.170353 -1.858117  0.289839 -0.591873 -0.752117  0.432630 0.183569 1 1 1.000000
0  -34.285751 29.385817 -2.683948  -0.328195 -0.695416 -0.639285  0.432630 0.176733 1 1 1.000000
0  -34.423389 30.156590 -3.041808  -0.311341 -0.271339 -0.910737  0.453139 0.176733 1 1 1.000000
exhaustchrome
0  -35.400623 35.607071 -3.041808  -0.358612 0.187076 -0.914549  0.453139 0.176733 1 1 1.000000
0  -35.538261 36.377846 -2.683948  -0.446847 0.617576 -0.647247  0.432630 0.176733 1 1 1.000000
0  -29.977663 34.850063 -1.858117  0.309672 0.514722 -0.799478  0.432630 0.183569 1 1 1.000000
exhaustchrome
0  -34.423389 30.156590 -3.041808  -0.311341 -0.271339 -0.910737  0.453139 0.176733 1 1 1.000000
0  -35.400623 35.607071 -3.041808  -0.358612 0.187076 -0.914549  0.453139 0.176733 1 1 1.000000
0  -29.977663 34.850063 -1.858117  0.309672 0.514722 -0.799478  0.432630 0.183569 1 1 1.000000
exhaustchrome
0  -29.963900 30.170353 -1.858117  0.289839 -0.591873 -0.752117  0.432630 0.183569 1 1 1.000000
0  -34.423389 30.156590 -3.041808  -0.311341 -0.271339 -0.910737  0.453139 0.176733 1 1 1.000000
0  -29.977663 34.850063 -1.858117  0.309672 0.514722 -0.799478  0.432630 0.183569 1 1 1.000000
exhaustchrome
0  -35.620846 36.598068 -1.981991  -0.997726 0.045244 -0.049962  0.292978 0.175756 1 1 1.000000
0  -35.565788 36.253971 -2.628892  -0.982288 -0.033268 -0.184399  0.422864 0.175756 1 1 1.000000
0  -35.538261 36.116333 -2.573837  -0.983574 -0.180440 0.004814  0.402356 0.175756 1 1 1.000000
exhaustchrome
0  -35.538261 36.116333 -2.573837  -0.983574 -0.180440 0.004814  0.402356 0.175756 1 1 1.000000
0  -35.593315 36.474194 -1.940700  -0.983902 -0.178666 0.003996  0.286142 0.175756 1 1 1.000000
0  -35.620846 36.598068 -1.981991  -0.997726 0.045244 -0.049962  0.292978 0.175756 1 1 1.000000
exhaustchrome
0  -35.620846 36.598068 -1.981991  -0.997726 0.045244 -0.049962  0.292978 0.175756 1 1 1.000000
0  -35.593315 36.708179 -2.009519  -0.471276 0.853758 -0.221351  0.296884 0.176733 1 1 1.000000
0  -35.538261 36.377846 -2.683948  -0.446847 0.617576 -0.647247  0.432630 0.176733 1 1 1.000000
exhaustchrome
0  -35.538261 36.377846 -2.683948  -0.446847 0.617576 -0.647247  0.432630 0.176733 1 1 1.000000
0  -35.565788 36.253971 -2.628892  -0.982288 -0.033268 -0.184399  0.422864 0.175756 1 1 1.000000
0  -35.620846 36.598068 -1.981991  -0.997726 0.045244 -0.049962  0.292978 0.175756 1 1 1.000000
exhaustchrome
0  -34.492207 30.197880 -2.986753  -0.914019 -0.216734 -0.342921  0.443373 0.175756 1 1 1.000000
0  -34.505970 30.280466 -2.876642  -0.984432 -0.175758 0.001942  0.426771 0.175756 1 1 1.000000
0  -35.414387 35.469433 -2.876642  -0.984342 -0.176229 0.003632  0.426771 0.175756 1 1 1.000000
exhaustchrome
0  -35.414387 35.469433 -2.876642  -0.984342 -0.176229 0.003632  0.426771 0.175756 1 1 1.000000
0  -35.428150 35.538254 -2.986753  -0.932336 -0.117191 -0.342075  0.443373 0.175756 1 1 1.000000
0  -34.492207 30.197880 -2.986753  -0.914019 -0.216734 -0.342921  0.443373 0.175756 1 1 1.000000
exhaustchrome
0  -34.423389 30.156590 -3.041808  -0.311341 -0.271339 -0.910737  0.453139 0.176733 1 1 1.000000
0  -34.492207 30.197880 -2.986753  -0.914019 -0.216734 -0.342921  0.443373 0.175756 1 1 1.000000
0  -35.428150 35.538254 -2.986753  -0.932336 -0.117191 -0.342075  0.443373 0.175756 1 1 1.000000
exhaustchrome
0  -35.428150 35.538254 -2.986753  -0.932336 -0.117191 -0.342075  0.443373 0.175756 1 1 1.000000
0  -35.400623 35.607071 -3.041808  -0.358612 0.187076 -0.914549  0.453139 0.176733 1 1 1.000000
0  -34.423389 30.156590 -3.041808  -0.311341 -0.271339 -0.910737  0.453139 0.176733 1 1 1.000000
exhaustchrome
0  -35.593315 36.708179 -2.009519  -0.471276 0.853758 -0.221351  0.296884 0.176733 1 1 1.000000
0  -35.593315 36.708179 -1.266271  -0.488220 0.848181 0.205501  0.176763 0.176733 1 1 1.000000
0  -29.977663 35.180393 -1.032286  0.271498 0.961931 -0.031272  0.236335 0.183569 1 1 1.000000
exhaustchrome
0  -34.492207 30.197880 -2.986753  -0.914019 -0.216734 -0.342921  0.443373 0.175756 1 1 1.000000
0  -34.354568 29.495926 -2.628892  -0.930703 -0.314787 -0.186281  0.422864 0.175756 1 1 1.000000
0  -34.382095 29.619799 -2.573837  -0.983940 -0.178482 0.002535  0.402356 0.175756 1 1 1.000000
exhaustchrome
0  -34.382095 29.619799 -2.573837  -0.983940 -0.178482 0.002535  0.402356 0.175756 1 1 1.000000
0  -34.505970 30.280466 -2.876642  -0.984432 -0.175758 0.001942  0.426771 0.175756 1 1 1.000000
0  -34.492207 30.197880 -2.986753  -0.914019 -0.216734 -0.342921  0.443373 0.175756 1 1 1.000000
exhaustchrome
0  -34.285751 29.385817 -2.683948  -0.328195 -0.695416 -0.639285  0.432630 0.176733 1 1 1.000000
0  -29.963900 30.170353 -1.858117  0.289839 -0.591873 -0.752117  0.432630 0.183569 1 1 1.000000
0  -29.950136 29.826260 -0.619371  0.161854 -0.981721 0.100135  0.236335 0.183569 1 1 1.000000
exhaustchrome
0  -29.950136 29.826260 -0.619371  0.161854 -0.981721 0.100135  0.236335 0.183569 1 1 1.000000
0  -34.230698 29.055483 -2.009519  -0.318035 -0.920090 -0.228666  0.296884 0.176733 1 1 1.000000
0  -34.285751 29.385817 -2.683948  -0.328195 -0.695416 -0.639285  0.432630 0.176733 1 1 1.000000
exhaustchrome
0  -34.354568 29.495926 -2.628892  -0.930703 -0.314787 -0.186281  0.422864 0.175756 1 1 1.000000
0  -34.492207 30.197880 -2.986753  -0.914019 -0.216734 -0.342921  0.443373 0.175756 1 1 1.000000
0  -34.423389 30.156590 -3.041808  -0.311341 -0.271339 -0.910737  0.453139 0.176733 1 1 1.000000
exhaustchrome
0  -34.423389 30.156590 -3.041808  -0.311341 -0.271339 -0.910737  0.453139 0.176733 1 1 1.000000
0  -34.285751 29.385817 -2.683948  -0.328195 -0.695416 -0.639285  0.432630 0.176733 1 1 1.000000
0  -34.354568 29.495926 -2.628892  -0.930703 -0.314787 -0.186281  0.422864 0.175756 1 1 1.000000
exhaustchrome
0  -34.299515 29.151829 -1.981992  -0.916919 -0.395589 -0.052619  0.292978 0.175756 1 1 1.000000
0  -34.313278 29.261940 -1.940700  -0.983871 -0.178863 0.002453  0.286142 0.175756 1 1 1.000000
0  -34.382095 29.619799 -2.573837  -0.983940 -0.178482 0.002535  0.402356 0.175756 1 1 1.000000
exhaustchrome
0  -34.382095 29.619799 -2.573837  -0.983940 -0.178482 0.002535  0.402356 0.175756 1 1 1.000000
0  -34.354568 29.495926 -2.628892  -0.930703 -0.314787 -0.186281  0.422864 0.175756 1 1 1.000000
0  -34.299515 29.151829 -1.981992  -0.916919 -0.395589 -0.052619  0.292978 0.175756 1 1 1.000000
exhaustchrome
0  -34.285751 29.385817 -2.683948  -0.328195 -0.695416 -0.639285  0.432630 0.176733 1 1 1.000000
0  -34.230698 29.055483 -2.009519  -0.318035 -0.920090 -0.228666  0.296884 0.176733 1 1 1.000000
0  -34.299515 29.151829 -1.981992  -0.916919 -0.395589 -0.052619  0.292978 0.175756 1 1 1.000000
exhaustchrome
0  -34.299515 29.151829 -1.981992  -0.916919 -0.395589 -0.052619  0.292978 0.175756 1 1 1.000000
0  -34.354568 29.495926 -2.628892  -0.930703 -0.314787 -0.186281  0.422864 0.175756 1 1 1.000000
0  -34.285751 29.385817 -2.683948  -0.328195 -0.695416 -0.639285  0.432630 0.176733 1 1 1.000000
exhaustchrome
0  -35.620846 36.598068 -1.293799  -0.997328 0.045377 0.057252  0.179693 0.175756 1 1 1.000000
0  -35.593315 36.708179 -1.266271  -0.488220 0.848181 0.205501  0.176763 0.176733 1 1 1.000000
0  -35.593315 36.708179 -2.009519  -0.471276 0.853758 -0.221351  0.296884 0.176733 1 1 1.000000
exhaustchrome
0  -35.593315 36.708179 -2.009519  -0.471276 0.853758 -0.221351  0.296884 0.176733 1 1 1.000000
0  -35.620846 36.598068 -1.981991  -0.997726 0.045244 -0.049962  0.292978 0.175756 1 1 1.000000
0  -35.620846 36.598068 -1.293799  -0.997328 0.045377 0.057252  0.179693 0.175756 1 1 1.000000
exhaust
0  -31.945892 35.331795 -0.481732  -0.195543 -0.621412 -0.758690  0.392590 0.158177 1 1 1.000000
0  -35.524498 36.116333 -0.701954  -0.115823 -0.728778 -0.674884  0.024415 0.158177 1 1 1.000000
0  -35.593315 36.474194 -1.335091  -0.251105 -0.949015 -0.190569  0.024415 0.157201 1 1 1.000000
exhaust
0  -31.945892 35.331795 -0.481732  -0.195543 -0.621412 -0.758690  0.392590 0.158177 1 1 1.000000
0  -35.593315 36.474194 -1.335091  -0.251105 -0.949015 -0.190569  0.024415 0.157201 1 1 1.000000
0  -35.593315 36.474194 -1.940700  -0.286458 -0.933800 0.214380  0.024415 0.157201 1 1 1.000000
exhaust
0  -35.593315 36.474194 -1.940700  -0.286458 -0.933800 0.214380  0.024415 0.157201 1 1 1.000000
0  -35.538261 36.116333 -2.573837  -0.250361 -0.703883 0.664732  0.024415 0.158177 1 1 1.000000
0  -31.945892 35.331795 -2.037047  -0.346361 -0.645580 0.680633  0.392590 0.158177 1 1 1.000000
exhaust
0  -31.945892 35.331795 -0.481732  -0.195543 -0.621412 -0.758690  0.392590 0.158177 1 1 1.000000
0  -35.593315 36.474194 -1.940700  -0.286458 -0.933800 0.214380  0.024415 0.157201 1 1 1.000000
0  -31.945892 35.331795 -2.037047  -0.346361 -0.645580 0.680633  0.392590 0.158177 1 1 1.000000
exhaust
0  -31.932129 30.486921 -0.481732  -0.274267 0.558898 -0.782567  0.392590 0.158177 1 1 1.000000
0  -34.368332 29.619799 -0.701954  -0.175730 0.680254 -0.711600  0.024415 0.158177 1 1 1.000000
0  -34.492207 30.280466 -0.399149  -0.046415 0.199600 -0.978778  0.024415 0.158177 1 1 1.000000
exhaust
0  -35.414387 35.469433 -0.399149  -0.032167 -0.252696 -0.967011  0.024415 0.158177 1 1 1.000000
0  -35.524498 36.116333 -0.701954  -0.115823 -0.728778 -0.674884  0.024415 0.158177 1 1 1.000000
0  -31.945892 35.331795 -0.481732  -0.195543 -0.621412 -0.758690  0.392590 0.158177 1 1 1.000000
exhaust
0  -34.492207 30.280466 -0.399149  -0.046415 0.199600 -0.978778  0.024415 0.158177 1 1 1.000000
0  -35.414387 35.469433 -0.399149  -0.032167 -0.252696 -0.967011  0.024415 0.158177 1 1 1.000000
0  -31.945892 35.331795 -0.481732  -0.195543 -0.621412 -0.758690  0.392590 0.158177 1 1 1.000000
exhaust
0  -31.932129 30.486921 -0.481732  -0.274267 0.558898 -0.782567  0.392590 0.158177 1 1 1.000000
0  -34.492207 30.280466 -0.399149  -0.046415 0.199600 -0.978778  0.024415 0.158177 1 1 1.000000
0  -31.945892 35.331795 -0.481732  -0.195543 -0.621412 -0.758690  0.392590 0.158177 1 1 1.000000
exhaust
0  -34.313278 29.261940 -1.335091  -0.393233 0.898924 -0.193140  0.024415 0.157201 1 1 1.000000
0  -34.368332 29.619799 -0.701954  -0.175730 0.680254 -0.711600  0.024415 0.158177 1 1 1.000000
0  -31.932129 30.486921 -0.481732  -0.274267 0.558898 -0.782567  0.392590 0.158177 1 1 1.000000
exhaust
0  -31.932129 30.486921 -2.037047  -0.469398 0.562897 0.680303  0.392590 0.158177 1 1 1.000000
0  -34.382095 29.619799 -2.573837  -0.365515 0.594527 0.716196  0.024415 0.158177 1 1 1.000000
0  -34.313278 29.261940 -1.940700  -0.437007 0.868787 0.232884  0.024415 0.157201 1 1 1.000000
exhaust
0  -31.932129 30.486921 -0.481732  -0.274267 0.558898 -0.782567  0.392590 0.158177 1 1 1.000000
0  -31.932129 30.486921 -2.037047  -0.469398 0.562897 0.680303  0.392590 0.158177 1 1 1.000000
0  -34.313278 29.261940 -1.940700  -0.437007 0.868787 0.232884  0.024415 0.157201 1 1 1.000000
exhaust
0  -34.313278 29.261940 -1.335091  -0.393233 0.898924 -0.193140  0.024415 0.157201 1 1 1.000000
0  -31.932129 30.486921 -0.481732  -0.274267 0.558898 -0.782567  0.392590 0.158177 1 1 1.000000
0  -34.313278 29.261940 -1.940700  -0.437007 0.868787 0.232884  0.024415 0.157201 1 1 1.000000
exhaust
0  -34.505970 30.280466 -2.876642  -0.315953 0.132365 0.939496  0.024415 0.158177 1 1 1.000000
0  -34.382095 29.619799 -2.573837  -0.365515 0.594527 0.716196  0.024415 0.158177 1 1 1.000000
0  -31.932129 30.486921 -2.037047  -0.469398 0.562897 0.680303  0.392590 0.158177 1 1 1.000000
exhaust
0  -31.945892 35.331795 -2.037047  -0.346361 -0.645580 0.680633  0.392590 0.158177 1 1 1.000000
0  -35.538261 36.116333 -2.573837  -0.250361 -0.703883 0.664732  0.024415 0.158177 1 1 1.000000
0  -35.414387 35.469433 -2.876642  -0.245334 -0.261388 0.933535  0.024415 0.158177 1 1 1.000000
exhaust
0  -31.932129 30.486921 -2.037047  -0.469398 0.562897 0.680303  0.392590 0.158177 1 1 1.000000
0  -31.945892 35.331795 -2.037047  -0.346361 -0.645580 0.680633  0.392590 0.158177 1 1 1.000000
0  -35.414387 35.469433 -2.876642  -0.245334 -0.261388 0.933535  0.024415 0.158177 1 1 1.000000
exhaust
0  -34.505970 30.280466 -2.876642  -0.315953 0.132365 0.939496  0.024415 0.158177 1 1 1.000000
0  -31.932129 30.486921 -2.037047  -0.469398 0.562897 0.680303  0.392590 0.158177 1 1 1.000000
0  -35.414387 35.469433 -2.876642  -0.245334 -0.261388 0.933535  0.024415 0.158177 1 1 1.000000
exhaust
0  -32.014717 30.307993 -2.202213  -0.999990 -0.002874 0.003305  0.565447 0.029267 1 1 1.000000
0  -32.014717 30.307993 -0.316566  -0.999990 -0.002867 0.003303  0.565447 0.150365 1 1 1.000000
0  -32.028481 35.428143 -0.316566  -0.999990 -0.002880 0.003341  0.705100 0.150365 1 1 1.000000
exhaust
0  -32.028481 35.428143 -0.316566  -0.999990 -0.002880 0.003341  0.705100 0.150365 1 1 1.000000
0  -32.042244 35.441906 -2.202213  -0.999990 -0.002872 0.003332  0.705100 0.029267 1 1 1.000000
0  -32.014717 30.307993 -2.202213  -0.999990 -0.002874 0.003305  0.565447 0.029267 1 1 1.000000
end
