version 1
nodes
0 "blender_implicit" -1
1 "root" -1
2 "steering_wheel" 1
end
skeleton
time 0
0  0.000000 0.000000 0.000000  0.000000 -0.000000 0.000000
1  0.000000 0.000000 0.000000  1.570796 -0.000000 0.000000
2  18.487606 30.459389 10.889965  0.000000 -0.000000 0.000000
end
triangles
headlightglass
0  35.441917 -89.506310 23.260902  0.524592 -0.849627 -0.054193  0.832057 0.552721 1 1 1.000000
0  33.721436 -90.621185 24.320719  0.531650 -0.844941 -0.058501  0.721702 0.550768 1 1 1.000000
0  34.423393 -89.726524 17.796654  0.530318 -0.845391 -0.063846  0.774438 0.231422 1 1 1.000000
headlightglass
0  34.423393 -89.726524 17.796654  0.530318 -0.845391 -0.063846  0.774438 0.231422 1 1 1.000000
0  36.873360 -88.129921 17.810419  0.542716 -0.837208 -0.067394  0.946318 0.232398 1 1 1.000000
0  35.441917 -89.506310 23.260902  0.524592 -0.849627 -0.054193  0.832057 0.552721 1 1 1.000000
headlightglass
0  35.441917 -89.506310 23.260902  0.524592 -0.849627 -0.054193  0.832057 0.552721 1 1 1.000000
0  35.152878 -89.698997 23.880276  0.532589 -0.845850 -0.029800  0.811548 0.589831 1 1 1.000000
0  33.721436 -90.621185 24.320719  0.531650 -0.844941 -0.058501  0.721702 0.550768 1 1 1.000000
headlightglass
0  25.187853 -96.346947 25.490644  0.549968 -0.828361 -0.106554  0.126957 0.678701 1 1 1.000000
0  24.362022 -96.966309 26.027437  0.550961 -0.827607 -0.107277  0.045900 0.715812 1 1 1.000000
0  25.160326 -95.562401 19.200567  0.553217 -0.826252 -0.106106  0.129887 0.313456 1 1 1.000000
headlightglass
0  25.160326 -95.562401 19.200567  0.553217 -0.826252 -0.106106  0.129887 0.313456 1 1 1.000000
0  25.903572 -95.011841 18.773888  0.535065 -0.835882 -0.122498  0.425794 0.432600 1 1 1.000000
0  25.187853 -96.346947 25.490644  0.549968 -0.828361 -0.106554  0.126957 0.678701 1 1 1.000000
headlightglass
0  30.707155 -91.997559 17.755363  0.522035 -0.849830 -0.072581  0.518571 0.229469 1 1 1.000000
0  34.423393 -89.726524 17.796654  0.530318 -0.845391 -0.063846  0.774438 0.231422 1 1 1.000000
0  33.721436 -90.621185 24.320719  0.531650 -0.844941 -0.058501  0.721702 0.550768 1 1 1.000000
headlightglass
0  33.721436 -90.621185 24.320719  0.531650 -0.844941 -0.058501  0.721702 0.550768 1 1 1.000000
0  31.092541 -92.369186 24.926329  0.541239 -0.836469 -0.085904  0.603534 0.503891 1 1 1.000000
0  30.707155 -91.997559 17.755363  0.522035 -0.849830 -0.072581  0.518571 0.229469 1 1 1.000000
headlightglass
0  34.450920 -90.222023 25.077730  0.523235 -0.850359 -0.055812  0.759789 0.660146 1 1 1.000000
0  33.583797 -90.772583 25.504408  0.542372 -0.838796 -0.047479  0.700217 0.685537 1 1 1.000000
0  33.721436 -90.621185 24.320719  0.531650 -0.844941 -0.058501  0.721702 0.550768 1 1 1.000000
headlightglass
0  35.152878 -89.698997 23.880276  0.532589 -0.845850 -0.029800  0.811548 0.589831 1 1 1.000000
0  34.450920 -90.222023 25.077730  0.523235 -0.850359 -0.055812  0.759789 0.660146 1 1 1.000000
0  33.721436 -90.621185 24.320719  0.531650 -0.844941 -0.058501  0.721702 0.550768 1 1 1.000000
headlightglass
0  25.903572 -95.011841 18.773888  0.535065 -0.835882 -0.122498  0.425794 0.432600 1 1 1.000000
0  25.435600 -95.232063 18.374737  0.546360 -0.823145 -0.154670  0.154302 0.265603 1 1 1.000000
0  25.944860 -94.819153 17.879238  0.513935 -0.844623 -0.149945  0.192389 0.236305 1 1 1.000000
headlightglass
0  25.903572 -95.011841 18.773888  0.535065 -0.835882 -0.122498  0.425794 0.432600 1 1 1.000000
0  25.160326 -95.562401 19.200567  0.553217 -0.826252 -0.106106  0.129887 0.313456 1 1 1.000000
0  25.201616 -95.466057 18.746361  0.552904 -0.823791 -0.125161  0.135746 0.287088 1 1 1.000000
headlightglass
0  25.903572 -95.011841 18.773888  0.535065 -0.835882 -0.122498  0.425794 0.432600 1 1 1.000000
0  25.201616 -95.466057 18.746361  0.552904 -0.823791 -0.125161  0.135746 0.287088 1 1 1.000000
0  25.435600 -95.232063 18.374737  0.546360 -0.823145 -0.154670  0.154302 0.265603 1 1 1.000000
headlightglass
0  25.903572 -95.011841 18.773888  0.535065 -0.835882 -0.122498  0.425794 0.432600 1 1 1.000000
0  25.944860 -94.819153 17.879238  0.513935 -0.844623 -0.149945  0.192389 0.236305 1 1 1.000000
0  30.707155 -91.997559 17.755363  0.522035 -0.849830 -0.072581  0.518571 0.229469 1 1 1.000000
headlightglass
0  31.133837 -92.424240 25.642048  0.546714 -0.833104 -0.083917  0.508805 0.694327 1 1 1.000000
0  31.092541 -92.369186 24.926329  0.541239 -0.836469 -0.085904  0.603534 0.503891 1 1 1.000000
0  33.721436 -90.621185 24.320719  0.531650 -0.844941 -0.058501  0.721702 0.550768 1 1 1.000000
headlightglass
0  33.721436 -90.621185 24.320719  0.531650 -0.844941 -0.058501  0.721702 0.550768 1 1 1.000000
0  33.583797 -90.772583 25.504408  0.542372 -0.838796 -0.047479  0.700217 0.685537 1 1 1.000000
0  31.133837 -92.424240 25.642048  0.546714 -0.833104 -0.083917  0.508805 0.694327 1 1 1.000000
headlightglass
0  31.092541 -92.369186 24.926329  0.541239 -0.836469 -0.085904  0.603534 0.503891 1 1 1.000000
0  25.187853 -96.346947 25.490644  0.549968 -0.828361 -0.106554  0.126957 0.678701 1 1 1.000000
0  25.903572 -95.011841 18.773888  0.535065 -0.835882 -0.122498  0.425794 0.432600 1 1 1.000000
headlightglass
0  25.903572 -95.011841 18.773888  0.535065 -0.835882 -0.122498  0.425794 0.432600 1 1 1.000000
0  30.707155 -91.997559 17.755363  0.522035 -0.849830 -0.072581  0.518571 0.229469 1 1 1.000000
0  31.092541 -92.369186 24.926329  0.541239 -0.836469 -0.085904  0.603534 0.503891 1 1 1.000000
headlightglass
0  31.133837 -92.424240 25.642048  0.546714 -0.833104 -0.083917  0.508805 0.694327 1 1 1.000000
0  24.362022 -96.966309 26.027437  0.550961 -0.827607 -0.107277  0.045900 0.715812 1 1 1.000000
0  25.187853 -96.346947 25.490644  0.549968 -0.828361 -0.106554  0.126957 0.678701 1 1 1.000000
headlightglass
0  25.187853 -96.346947 25.490644  0.549968 -0.828361 -0.106554  0.126957 0.678701 1 1 1.000000
0  31.092541 -92.369186 24.926329  0.541239 -0.836469 -0.085904  0.603534 0.503891 1 1 1.000000
0  31.133837 -92.424240 25.642048  0.546714 -0.833104 -0.083917  0.508805 0.694327 1 1 1.000000
headlightglass
0  -35.441902 -89.506310 23.260906  -0.524885 -0.849473 -0.053776  0.832057 0.552721 1 1 1.000000
0  -36.873344 -88.129921 17.810423  -0.542715 -0.837209 -0.067394  0.946318 0.232398 1 1 1.000000
0  -34.423378 -89.726524 17.796658  -0.530158 -0.845494 -0.063813  0.774438 0.231422 1 1 1.000000
headlightglass
0  -34.423378 -89.726524 17.796658  -0.530158 -0.845494 -0.063813  0.774438 0.231422 1 1 1.000000
0  -33.721420 -90.621185 24.320723  -0.531484 -0.844997 -0.059195  0.721702 0.550768 1 1 1.000000
0  -35.441902 -89.506310 23.260906  -0.524885 -0.849473 -0.053776  0.832057 0.552721 1 1 1.000000
headlightglass
0  -35.441902 -89.506310 23.260906  -0.524885 -0.849473 -0.053776  0.832057 0.552721 1 1 1.000000
0  -33.721420 -90.621185 24.320723  -0.531484 -0.844997 -0.059195  0.721702 0.550768 1 1 1.000000
0  -35.152863 -89.698997 23.880280  -0.532588 -0.845850 -0.029800  0.811548 0.589831 1 1 1.000000
headlightglass
0  -25.187834 -96.346947 25.490648  -0.550003 -0.828259 -0.107161  0.126957 0.678701 1 1 1.000000
0  -25.903553 -95.011841 18.773891  -0.535066 -0.835882 -0.122496  0.425794 0.432600 1 1 1.000000
0  -25.160307 -95.562401 19.200571  -0.553217 -0.826252 -0.106106  0.129887 0.313456 1 1 1.000000
headlightglass
0  -25.160307 -95.562401 19.200571  -0.553217 -0.826252 -0.106106  0.129887 0.313456 1 1 1.000000
0  -24.362003 -96.966309 26.027441  -0.550963 -0.827606 -0.107272  0.045900 0.715812 1 1 1.000000
0  -25.187834 -96.346947 25.490648  -0.550003 -0.828259 -0.107161  0.126957 0.678701 1 1 1.000000
headlightglass
0  -30.707140 -91.997559 17.755367  -0.522035 -0.849830 -0.072580  0.518571 0.229469 1 1 1.000000
0  -31.092522 -92.369186 24.926332  -0.541180 -0.836489 -0.086085  0.603534 0.503891 1 1 1.000000
0  -33.721420 -90.621185 24.320723  -0.531484 -0.844997 -0.059195  0.721702 0.550768 1 1 1.000000
headlightglass
0  -33.721420 -90.621185 24.320723  -0.531484 -0.844997 -0.059195  0.721702 0.550768 1 1 1.000000
0  -34.423378 -89.726524 17.796658  -0.530158 -0.845494 -0.063813  0.774438 0.231422 1 1 1.000000
0  -30.707140 -91.997559 17.755367  -0.522035 -0.849830 -0.072580  0.518571 0.229469 1 1 1.000000
headlightglass
0  -34.450905 -90.222023 25.077734  -0.523234 -0.850360 -0.055812  0.759789 0.660146 1 1 1.000000
0  -33.721420 -90.621185 24.320723  -0.531484 -0.844997 -0.059195  0.721702 0.550768 1 1 1.000000
0  -33.583782 -90.772583 25.504412  -0.542346 -0.838805 -0.047616  0.700217 0.685537 1 1 1.000000
headlightglass
0  -35.152863 -89.698997 23.880280  -0.532588 -0.845850 -0.029800  0.811548 0.589831 1 1 1.000000
0  -33.721420 -90.621185 24.320723  -0.531484 -0.844997 -0.059195  0.721702 0.550768 1 1 1.000000
0  -34.450905 -90.222023 25.077734  -0.523234 -0.850360 -0.055812  0.759789 0.660146 1 1 1.000000
headlightglass
0  -25.903553 -95.011841 18.773891  -0.535066 -0.835882 -0.122496  0.425794 0.432600 1 1 1.000000
0  -25.944845 -94.819153 17.879242  -0.513942 -0.844617 -0.149951  0.192389 0.236305 1 1 1.000000
0  -25.435585 -95.232063 18.374741  -0.546366 -0.823141 -0.154669  0.154302 0.265603 1 1 1.000000
headlightglass
0  -25.903553 -95.011841 18.773891  -0.535066 -0.835882 -0.122496  0.425794 0.432600 1 1 1.000000
0  -25.201597 -95.466057 18.746365  -0.552919 -0.823780 -0.125169  0.135746 0.287088 1 1 1.000000
0  -25.160307 -95.562401 19.200571  -0.553217 -0.826252 -0.106106  0.129887 0.313456 1 1 1.000000
headlightglass
0  -25.903553 -95.011841 18.773891  -0.535066 -0.835882 -0.122496  0.425794 0.432600 1 1 1.000000
0  -25.435585 -95.232063 18.374741  -0.546366 -0.823141 -0.154669  0.154302 0.265603 1 1 1.000000
0  -25.201597 -95.466057 18.746365  -0.552919 -0.823780 -0.125169  0.135746 0.287088 1 1 1.000000
headlightglass
0  -25.903553 -95.011841 18.773891  -0.535066 -0.835882 -0.122496  0.425794 0.432600 1 1 1.000000
0  -30.707140 -91.997559 17.755367  -0.522035 -0.849830 -0.072580  0.518571 0.229469 1 1 1.000000
0  -25.944845 -94.819153 17.879242  -0.513942 -0.844617 -0.149951  0.192389 0.236305 1 1 1.000000
headlightglass
0  -31.133818 -92.424240 25.642052  -0.546712 -0.833105 -0.083917  0.508805 0.694327 1 1 1.000000
0  -33.583782 -90.772583 25.504412  -0.542346 -0.838805 -0.047616  0.700217 0.685537 1 1 1.000000
0  -33.721420 -90.621185 24.320723  -0.531484 -0.844997 -0.059195  0.721702 0.550768 1 1 1.000000
headlightglass
0  -33.721420 -90.621185 24.320723  -0.531484 -0.844997 -0.059195  0.721702 0.550768 1 1 1.000000
0  -31.092522 -92.369186 24.926332  -0.541180 -0.836489 -0.086085  0.603534 0.503891 1 1 1.000000
0  -31.133818 -92.424240 25.642052  -0.546712 -0.833105 -0.083917  0.508805 0.694327 1 1 1.000000
headlightglass
0  -31.092522 -92.369186 24.926332  -0.541180 -0.836489 -0.086085  0.603534 0.503891 1 1 1.000000
0  -30.707140 -91.997559 17.755367  -0.522035 -0.849830 -0.072580  0.518571 0.229469 1 1 1.000000
0  -25.903553 -95.011841 18.773891  -0.535066 -0.835882 -0.122496  0.425794 0.432600 1 1 1.000000
headlightglass
0  -25.903553 -95.011841 18.773891  -0.535066 -0.835882 -0.122496  0.425794 0.432600 1 1 1.000000
0  -25.187834 -96.346947 25.490648  -0.550003 -0.828259 -0.107161  0.126957 0.678701 1 1 1.000000
0  -31.092522 -92.369186 24.926332  -0.541180 -0.836489 -0.086085  0.603534 0.503891 1 1 1.000000
headlightglass
0  -31.133818 -92.424240 25.642052  -0.546712 -0.833105 -0.083917  0.508805 0.694327 1 1 1.000000
0  -31.092522 -92.369186 24.926332  -0.541180 -0.836489 -0.086085  0.603534 0.503891 1 1 1.000000
0  -25.187834 -96.346947 25.490648  -0.550003 -0.828259 -0.107161  0.126957 0.678701 1 1 1.000000
headlightglass
0  -25.187834 -96.346947 25.490648  -0.550003 -0.828259 -0.107161  0.126957 0.678701 1 1 1.000000
0  -24.362003 -96.966309 26.027441  -0.550963 -0.827606 -0.107272  0.045900 0.715812 1 1 1.000000
0  -31.133818 -92.424240 25.642052  -0.546712 -0.833105 -0.083917  0.508805 0.694327 1 1 1.000000
headlightlit
0  27.637815 -89.547600 18.016876  0.270884 -0.113993 0.955839  0.463881 0.193335 1 1 1.000000
0  25.944860 -94.819153 17.879238  0.633179 -0.196383 0.748677  0.458022 0.191382 1 1 1.000000
0  30.707155 -91.997559 17.755363  0.039267 -0.045198 0.998206  0.460952 0.194311 1 1 1.000000
headlightlit
0  30.707155 -91.997559 17.755363  0.039267 -0.045198 0.998206  0.460952 0.194311 1 1 1.000000
0  30.803501 -89.588890 17.865475  0.033709 -0.046908 0.998330  0.464858 0.196265 1 1 1.000000
0  27.637815 -89.547600 18.016876  0.270884 -0.113993 0.955839  0.463881 0.193335 1 1 1.000000
headlightlit
0  25.201616 -95.466057 18.746361  0.946009 -0.270454 0.178667  0.320322 0.054659 1 1 1.000000
0  26.922096 -89.547600 18.787651  0.915272 -0.268499 0.300308  0.017579 0.053682 1 1 1.000000
0  26.853277 -89.547600 19.214331  0.958055 -0.274247 0.083183  0.019532 0.101535 1 1 1.000000
headlightlit
0  26.853277 -89.547600 19.214331  0.958055 -0.274247 0.083183  0.019532 0.101535 1 1 1.000000
0  25.160326 -95.562401 19.200567  0.958457 -0.281957 0.043138  0.327158 0.101535 1 1 1.000000
0  25.201616 -95.466057 18.746361  0.946009 -0.270454 0.178667  0.320322 0.054659 1 1 1.000000
headlightlit
0  24.362022 -96.966309 26.027437  0.833643 -0.352058 -0.425552  0.463881 0.207984 1 1 1.000000
0  26.770693 -89.671471 23.949095  0.898040 -0.356953 -0.257118  0.439467 0.201147 1 1 1.000000
0  27.513941 -89.671471 24.885035  0.338059 -0.286171 -0.896561  0.438490 0.202124 1 1 1.000000
headlightlit
0  30.803501 -89.588890 17.865475  0.033709 -0.046908 0.998330  0.461928 0.193335 1 1 1.000000
0  30.707155 -91.997559 17.755363  0.039267 -0.045198 0.998206  0.461928 0.193335 1 1 1.000000
0  34.423393 -89.726524 17.796654  0.264028 -0.922975 0.280013  0.461928 0.193335 1 1 1.000000
headlightlit
0  29.413353 -89.588890 18.154514  -0.017238 -0.997162 -0.073288  0.461928 0.193335 1 1 1.000000
0  27.637815 -89.547600 18.016876  -0.021338 -0.999238 -0.032670  0.461928 0.193335 1 1 1.000000
0  30.803501 -89.588890 17.865475  -0.025923 -0.997709 0.062488  0.461928 0.193335 1 1 1.000000
headlightlit
0  25.944860 -94.819153 17.879238  0.633179 -0.196383 0.748677  0.462905 0.192358 1 1 1.000000
0  27.637815 -89.547600 18.016876  0.270884 -0.113993 0.955839  0.444349 0.189428 1 1 1.000000
0  27.114790 -89.547600 18.374737  0.724302 -0.233744 0.648653  0.443373 0.190405 1 1 1.000000
headlightlit
0  27.114790 -89.547600 18.374737  0.724302 -0.233744 0.648653  0.443373 0.190405 1 1 1.000000
0  25.435600 -95.232063 18.374737  0.855368 -0.251469 0.452890  0.462905 0.193335 1 1 1.000000
0  25.944860 -94.819153 17.879238  0.633179 -0.196383 0.748677  0.462905 0.192358 1 1 1.000000
headlightlit
0  25.435600 -95.232063 18.374737  0.855368 -0.251469 0.452890  0.312510 0.013642 1 1 1.000000
0  27.114790 -89.547600 18.374737  0.724302 -0.233744 0.648653  0.023438 0.012665 1 1 1.000000
0  26.922096 -89.547600 18.787651  0.915272 -0.268499 0.300308  0.017579 0.053682 1 1 1.000000
headlightlit
0  26.922096 -89.547600 18.787651  0.915272 -0.268499 0.300308  0.017579 0.053682 1 1 1.000000
0  25.201616 -95.466057 18.746361  0.946009 -0.270454 0.178667  0.320322 0.054659 1 1 1.000000
0  25.435600 -95.232063 18.374737  0.855368 -0.251469 0.452890  0.312510 0.013642 1 1 1.000000
headlightlit
0  25.160326 -95.562401 19.200567  0.958457 -0.281957 0.043138  0.327158 0.101535 1 1 1.000000
0  26.853277 -89.547600 19.214331  0.958055 -0.274247 0.083183  0.019532 0.101535 1 1 1.000000
0  26.770693 -89.671471 23.949095  0.898040 -0.356953 -0.257118  0.049806 0.855464 1 1 1.000000
headlightlit
0  26.770693 -89.671471 23.949095  0.898040 -0.356953 -0.257118  0.049806 0.855464 1 1 1.000000
0  24.362022 -96.966309 26.027437  0.833643 -0.352058 -0.425552  0.431654 0.991211 1 1 1.000000
0  25.160326 -95.562401 19.200567  0.958457 -0.281957 0.043138  0.327158 0.101535 1 1 1.000000
headlightlit
0  35.441917 -89.506310 23.260902  0.171843 -0.973735 -0.149368  0.461928 0.193335 1 1 1.000000
0  34.175644 -89.588890 22.916805  0.024114 -0.998563 -0.047857  0.461928 0.193335 1 1 1.000000
0  34.464684 -89.588890 21.526657  0.304336 -0.947294 -0.100063  0.461928 0.193335 1 1 1.000000
headlightlit
0  34.423393 -89.726524 17.796654  0.264095 -0.923424 0.278463  0.461928 0.193335 1 1 1.000000
0  32.207413 -89.588890 18.154514  -0.035274 -0.989242 0.141970  0.461928 0.193335 1 1 1.000000
0  30.803501 -89.588890 17.865475  -0.026036 -0.997611 0.063982  0.449232 0.204077 1 1 1.000000
headlightlit
0  34.175644 -89.588890 22.916805  0.024114 -0.998563 -0.047857  0.461928 0.193335 1 1 1.000000
0  35.441917 -89.506310 23.260902  0.171843 -0.973735 -0.149368  0.461928 0.193335 1 1 1.000000
0  35.152878 -89.698997 23.880276  -0.003926 -0.966508 -0.256608  0.461928 0.193335 1 1 1.000000
headlightlit
0  28.229662 -89.588890 24.100498  0.053218 -0.996907 -0.057828  0.461928 0.193335 1 1 1.000000
0  27.513941 -89.671471 24.885035  0.055300 -0.996658 -0.060117  0.461928 0.193335 1 1 1.000000
0  26.770693 -89.671471 23.949095  0.065066 -0.997071 -0.040194  0.461928 0.193335 1 1 1.000000
headlightlit
0  26.770693 -89.671471 23.949095  0.065066 -0.997071 -0.040194  0.461928 0.193335 1 1 1.000000
0  27.431356 -89.588890 22.916805  0.081488 -0.996352 -0.025362  0.461928 0.193335 1 1 1.000000
0  28.229662 -89.588890 24.100498  0.053218 -0.996907 -0.057828  0.461928 0.193335 1 1 1.000000
headlightlit
0  27.156080 -89.588890 21.526657  0.047774 -0.998602 -0.022615  0.461928 0.193335 1 1 1.000000
0  27.431356 -89.588890 22.916805  0.081488 -0.996352 -0.025362  0.461928 0.193335 1 1 1.000000
0  26.770693 -89.671471 23.949095  0.065066 -0.997071 -0.040194  0.461928 0.193335 1 1 1.000000
headlightlit
0  27.156080 -89.588890 21.526657  0.047774 -0.998602 -0.022615  0.461928 0.193335 1 1 1.000000
0  26.770693 -89.671471 23.949095  0.065066 -0.997071 -0.040194  0.461928 0.193335 1 1 1.000000
0  26.853277 -89.547600 19.214331  -0.031066 -0.999412 -0.014481  0.461928 0.193335 1 1 1.000000
headlightlit
0  27.156080 -89.588890 21.526657  0.047774 -0.998602 -0.022615  0.461928 0.193335 1 1 1.000000
0  26.853277 -89.547600 19.214331  -0.031066 -0.999412 -0.014481  0.461928 0.193335 1 1 1.000000
0  27.431356 -89.588890 20.122746  -0.046099 -0.998834 -0.014358  0.461928 0.193335 1 1 1.000000
headlightlit
0  26.922096 -89.547600 18.787651  -0.030070 -0.999487 -0.011027  0.461928 0.193335 1 1 1.000000
0  27.114790 -89.547600 18.374737  -0.026390 -0.999431 -0.021001  0.461928 0.193335 1 1 1.000000
0  28.229660 -89.588890 18.939054  -0.025747 -0.999343 -0.025501  0.461928 0.193335 1 1 1.000000
headlightlit
0  32.207413 -89.588890 24.898798  -0.021550 -0.462600 -0.886305  0.446303 0.195288 1 1 1.000000
0  33.391106 -89.588890 24.100498  -0.162395 -0.938627 -0.304313  0.461928 0.193335 1 1 1.000000
0  34.450920 -90.222023 25.077730  -0.133487 -0.802350 -0.581735  0.461928 0.193335 1 1 1.000000
headlightlit
0  34.450920 -90.222023 25.077730  -0.133487 -0.802350 -0.581735  0.461928 0.193335 1 1 1.000000
0  33.583797 -90.772583 25.504408  0.020492 -0.438256 -0.898617  0.461928 0.193335 1 1 1.000000
0  32.207413 -89.588890 24.898798  -0.021550 -0.462600 -0.886305  0.446303 0.195288 1 1 1.000000
headlightlit
0  26.853277 -89.547600 19.214331  -0.031066 -0.999412 -0.014481  0.461928 0.193335 1 1 1.000000
0  26.922096 -89.547600 18.787651  -0.030070 -0.999487 -0.011027  0.461928 0.193335 1 1 1.000000
0  28.229660 -89.588890 18.939054  -0.025747 -0.999343 -0.025501  0.461928 0.193335 1 1 1.000000
headlightlit
0  28.229660 -89.588890 18.939054  -0.025747 -0.999343 -0.025501  0.461928 0.193335 1 1 1.000000
0  27.431356 -89.588890 20.122746  -0.046099 -0.998834 -0.014358  0.461928 0.193335 1 1 1.000000
0  26.853277 -89.547600 19.214331  -0.031066 -0.999412 -0.014481  0.461928 0.193335 1 1 1.000000
headlightlit
0  28.229660 -89.588890 18.939054  -0.025747 -0.999343 -0.025501  0.461928 0.193335 1 1 1.000000
0  27.114790 -89.547600 18.374737  -0.026390 -0.999431 -0.021001  0.461928 0.193335 1 1 1.000000
0  27.637815 -89.547600 18.016876  -0.021338 -0.999238 -0.032670  0.461928 0.193335 1 1 1.000000
headlightlit
0  27.637815 -89.547600 18.016876  -0.021338 -0.999238 -0.032670  0.461928 0.193335 1 1 1.000000
0  29.413353 -89.588890 18.154514  -0.017238 -0.997162 -0.073288  0.461928 0.193335 1 1 1.000000
0  28.229660 -89.588890 18.939054  -0.025747 -0.999343 -0.025501  0.461928 0.193335 1 1 1.000000
headlightlit
0  29.413355 -89.588890 24.898798  0.045860 -0.996591 -0.068583  0.461928 0.193335 1 1 1.000000
0  27.513941 -89.671471 24.885035  0.055300 -0.996658 -0.060117  0.461928 0.193335 1 1 1.000000
0  28.229662 -89.588890 24.100498  0.053218 -0.996907 -0.057828  0.461928 0.193335 1 1 1.000000
headlightlit
0  33.583797 -90.772583 25.504408  0.020492 -0.438256 -0.898617  0.461928 0.193335 1 1 1.000000
0  31.133837 -92.424240 25.642048  0.073669 -0.236412 -0.968856  0.461928 0.193335 1 1 1.000000
0  32.207413 -89.588890 24.898798  -0.021550 -0.462600 -0.886305  0.446303 0.195288 1 1 1.000000
headlightlit
0  29.413355 -89.588890 24.898798  0.044670 -0.202903 -0.978179  0.461928 0.193335 1 1 1.000000
0  24.362022 -96.966309 26.027437  0.833643 -0.352058 -0.425552  0.461928 0.193335 1 1 1.000000
0  27.513941 -89.671471 24.885035  0.338059 -0.286171 -0.896561  0.461928 0.193335 1 1 1.000000
headlightlit
0  32.207413 -89.588890 18.154514  -0.035274 -0.989242 0.141970  0.461928 0.193335 1 1 1.000000
0  34.423393 -89.726524 17.796654  0.264095 -0.923424 0.278463  0.461928 0.193335 1 1 1.000000
0  33.391106 -89.588890 18.939054  -0.060084 -0.996440 0.059135  0.461928 0.193335 1 1 1.000000
headlightlit
0  33.391106 -89.588890 18.939054  -0.060084 -0.996440 0.059135  0.461928 0.193335 1 1 1.000000
0  34.423393 -89.726524 17.796654  0.264095 -0.923424 0.278463  0.461928 0.193335 1 1 1.000000
0  34.175644 -89.588890 20.122746  0.361769 -0.932172 -0.013373  0.461928 0.193335 1 1 1.000000
headlightlit
0  34.175644 -89.588890 20.122746  0.361769 -0.932172 -0.013373  0.461928 0.193335 1 1 1.000000
0  34.423393 -89.726524 17.796654  0.264095 -0.923424 0.278463  0.461928 0.193335 1 1 1.000000
0  36.873360 -88.129921 17.810419  0.467911 -0.883775 0.000152  0.461928 0.193335 1 1 1.000000
headlightlit
0  36.873360 -88.129921 17.810419  0.467911 -0.883775 0.000152  0.461928 0.193335 1 1 1.000000
0  35.441917 -89.506310 23.260902  0.171843 -0.973735 -0.149368  0.461928 0.193335 1 1 1.000000
0  34.464684 -89.588890 21.526657  0.304336 -0.947294 -0.100063  0.461928 0.193335 1 1 1.000000
headlightlit
0  34.464684 -89.588890 21.526657  0.304336 -0.947294 -0.100063  0.461928 0.193335 1 1 1.000000
0  34.175644 -89.588890 20.122746  0.361769 -0.932172 -0.013373  0.461928 0.193335 1 1 1.000000
0  36.873360 -88.129921 17.810419  0.467911 -0.883775 0.000152  0.461928 0.193335 1 1 1.000000
headlightlit
0  33.391106 -89.588890 24.100498  -0.162395 -0.938627 -0.304313  0.461928 0.193335 1 1 1.000000
0  34.175644 -89.588890 22.916805  0.024114 -0.998563 -0.047857  0.461928 0.193335 1 1 1.000000
0  35.152878 -89.698997 23.880276  -0.003926 -0.966508 -0.256608  0.461928 0.193335 1 1 1.000000
headlightlit
0  35.152878 -89.698997 23.880276  -0.003926 -0.966508 -0.256608  0.461928 0.193335 1 1 1.000000
0  34.450920 -90.222023 25.077730  -0.133487 -0.802350 -0.581735  0.461928 0.193335 1 1 1.000000
0  33.391106 -89.588890 24.100498  -0.162395 -0.938627 -0.304313  0.461928 0.193335 1 1 1.000000
headlightlit
0  29.413355 -89.588890 24.898798  0.044670 -0.202903 -0.978179  0.461928 0.193335 1 1 1.000000
0  30.803503 -89.437492 24.912565  0.002189 -0.238112 -0.971235  0.454115 0.194311 1 1 1.000000
0  31.133837 -92.424240 25.642048  0.073669 -0.236412 -0.968856  0.461928 0.193335 1 1 1.000000
headlightlit
0  31.133837 -92.424240 25.642048  0.073669 -0.236412 -0.968856  0.461928 0.193335 1 1 1.000000
0  24.362022 -96.966309 26.027437  0.833643 -0.352058 -0.425552  0.461928 0.193335 1 1 1.000000
0  29.413355 -89.588890 24.898798  0.044670 -0.202903 -0.978179  0.461928 0.193335 1 1 1.000000
headlightlit
0  32.207413 -89.588890 24.898798  -0.021550 -0.462600 -0.886305  0.446303 0.195288 1 1 1.000000
0  31.133837 -92.424240 25.642048  0.073669 -0.236412 -0.968856  0.461928 0.193335 1 1 1.000000
0  30.803503 -89.437492 24.912565  0.002189 -0.238112 -0.971235  0.454115 0.194311 1 1 1.000000
headlightlit
0  25.944860 -94.819153 17.879238  -0.417501 -0.103856 -0.902722  0.261727 0.598621 1 1 1.000000
0  24.472130 -87.097633 17.672779  -0.699395 -0.051840 -0.712853  0.261727 0.598621 1 1 1.000000
0  30.707155 -91.997559 17.755363  -0.000187 -0.027127 -0.999632  0.261727 0.598621 1 1 1.000000
headlightlit
0  25.160326 -95.562401 19.200567  -0.985303 -0.104067 -0.135454  0.261727 0.598621 1 1 1.000000
0  24.472130 -87.097633 17.672779  -0.699395 -0.051840 -0.712853  0.261727 0.598621 1 1 1.000000
0  25.201616 -95.466057 18.746361  -0.944680 -0.122193 -0.304383  0.261727 0.598621 1 1 1.000000
headlightlit
0  36.873360 -87.070107 17.659016  0.785908 -0.042146 -0.616906  0.261727 0.598621 1 1 1.000000
0  34.423393 -89.726524 17.796654  0.087083 -0.129322 -0.987771  0.261727 0.598621 1 1 1.000000
0  30.707155 -91.997559 17.755363  -0.000187 -0.027127 -0.999632  0.261727 0.598621 1 1 1.000000
headlightlit
0  30.707155 -91.997559 17.755363  -0.000187 -0.027127 -0.999632  0.261727 0.598621 1 1 1.000000
0  24.472130 -87.097633 17.672779  -0.699395 -0.051840 -0.712853  0.261727 0.598621 1 1 1.000000
0  36.873360 -87.070107 17.659016  0.785908 -0.042146 -0.616906  0.261727 0.598621 1 1 1.000000
headlightlit
0  25.435600 -95.232063 18.374737  -0.743602 -0.144857 -0.652742  0.261727 0.598621 1 1 1.000000
0  24.472130 -87.097633 17.672779  -0.699395 -0.051840 -0.712853  0.261727 0.598621 1 1 1.000000
0  25.944860 -94.819153 17.879238  -0.417501 -0.103856 -0.902722  0.261727 0.598621 1 1 1.000000
headlightlit
0  25.201616 -95.466057 18.746361  -0.944680 -0.122193 -0.304383  0.261727 0.598621 1 1 1.000000
0  24.472130 -87.097633 17.672779  -0.699395 -0.051840 -0.712853  0.261727 0.598621 1 1 1.000000
0  25.435600 -95.232063 18.374737  -0.743602 -0.144857 -0.652742  0.261727 0.598621 1 1 1.000000
headlightlit
0  24.472130 -87.097633 17.672779  -0.699395 -0.051840 -0.712853  0.261727 0.598621 1 1 1.000000
0  25.160326 -95.562401 19.200567  -0.985303 -0.104067 -0.135454  0.261727 0.598621 1 1 1.000000
0  24.362022 -96.966309 26.027437  -0.826672 -0.002732 0.562677  0.261727 0.598621 1 1 1.000000
headlightlit
0  24.362022 -96.966309 26.027437  -0.826672 -0.002732 0.562677  0.261727 0.598621 1 1 1.000000
0  24.362020 -87.111397 25.353008  -0.724439 0.043877 0.687941  0.261727 0.598621 1 1 1.000000
0  24.472130 -87.097633 17.672779  -0.699395 -0.051840 -0.712853  0.261727 0.598621 1 1 1.000000
headlightlit
0  35.441917 -89.506310 23.260902  0.942881 0.068456 0.326019  0.261727 0.598621 1 1 1.000000
0  34.547268 -87.083870 25.325481  0.592548 0.037871 0.804644  0.261727 0.598621 1 1 1.000000
0  35.152878 -89.698997 23.880276  0.894947 -0.037952 0.444555  0.261727 0.598621 1 1 1.000000
headlightlit
0  34.450920 -90.222023 25.077730  0.655892 -0.082199 0.750366  0.261727 0.598621 1 1 1.000000
0  34.547268 -87.083870 25.325481  0.592548 0.037871 0.804644  0.261727 0.598621 1 1 1.000000
0  33.583797 -90.772583 25.504408  0.148358 0.008345 0.988898  0.261727 0.598621 1 1 1.000000
headlightlit
0  33.583797 -90.772583 25.504408  0.148358 0.008345 0.988898  0.261727 0.598621 1 1 1.000000
0  34.547268 -87.083870 25.325481  0.592548 0.037871 0.804644  0.261727 0.598621 1 1 1.000000
0  31.133837 -92.424240 25.642048  0.009298 0.059702 0.998173  0.261727 0.598621 1 1 1.000000
headlightlit
0  34.423393 -89.726524 17.796654  0.087083 -0.129322 -0.987771  0.261727 0.598621 1 1 1.000000
0  36.873360 -87.070107 17.659016  0.785908 -0.042146 -0.616906  0.261727 0.598621 1 1 1.000000
0  36.873360 -88.129921 17.810419  0.798579 -0.074600 -0.597249  0.261727 0.598621 1 1 1.000000
headlightlit
0  34.547268 -87.083870 25.325481  0.592548 0.037871 0.804644  0.261727 0.598621 1 1 1.000000
0  35.441917 -89.506310 23.260902  0.942881 0.068456 0.326019  0.261727 0.598621 1 1 1.000000
0  36.873360 -88.129921 17.810419  0.798579 -0.074600 -0.597249  0.261727 0.598621 1 1 1.000000
headlightlit
0  36.873360 -88.129921 17.810419  0.798579 -0.074600 -0.597249  0.261727 0.598621 1 1 1.000000
0  36.873360 -87.070107 17.659016  0.785908 -0.042146 -0.616906  0.261727 0.598621 1 1 1.000000
0  34.547268 -87.083870 25.325481  0.592548 0.037871 0.804644  0.261727 0.598621 1 1 1.000000
headlightlit
0  35.152878 -89.698997 23.880276  0.894947 -0.037952 0.444555  0.261727 0.598621 1 1 1.000000
0  34.547268 -87.083870 25.325481  0.592548 0.037871 0.804644  0.261727 0.598621 1 1 1.000000
0  34.450920 -90.222023 25.077730  0.655892 -0.082199 0.750366  0.261727 0.598621 1 1 1.000000
headlightlit
0  31.133837 -92.424240 25.642048  0.009298 0.059702 0.998173  0.261727 0.598621 1 1 1.000000
0  34.547268 -87.083870 25.325481  0.592548 0.037871 0.804644  0.261727 0.598621 1 1 1.000000
0  24.362020 -87.111397 25.353008  -0.724439 0.043877 0.687941  0.261727 0.598621 1 1 1.000000
headlightlit
0  31.133837 -92.424240 25.642048  0.009298 0.059702 0.998173  0.261727 0.598621 1 1 1.000000
0  24.362020 -87.111397 25.353008  -0.724439 0.043877 0.687941  0.261727 0.598621 1 1 1.000000
0  24.362022 -96.966309 26.027437  -0.826672 -0.002732 0.562677  0.261727 0.598621 1 1 1.000000
headlightlit
0  24.472130 -87.097633 17.672779  -0.001989 0.999998 0.000742  0.261727 0.598621 1 1 1.000000
0  24.362020 -87.111397 25.353008  -0.002698 0.999995 0.001754  0.261727 0.598621 1 1 1.000000
0  34.547268 -87.083870 25.325481  -0.002386 0.999996 0.001343  0.261727 0.598621 1 1 1.000000
headlightlit
0  34.547268 -87.083870 25.325481  -0.002386 0.999996 0.001343  0.261727 0.598621 1 1 1.000000
0  36.873360 -87.070107 17.659016  -0.001902 0.999998 0.000642  0.261727 0.598621 1 1 1.000000
0  24.472130 -87.097633 17.672779  -0.001989 0.999998 0.000742  0.261727 0.598621 1 1 1.000000
headlightlit
0  30.294239 -87.744537 21.017395  -0.609229 -0.491333 -0.622440  0.731468 0.578112 1 1 1.000000
0  31.312761 -87.744537 21.017395  0.602588 -0.536908 -0.590438  0.731468 0.492172 1 1 1.000000
0  30.748446 -88.928223 21.526657  -0.041311 -0.999146 -0.000000  0.754906 0.535142 1 1 1.000000
headlightlit
0  31.312761 -87.744537 21.017395  0.602588 -0.536908 -0.590438  0.731468 0.492172 1 1 1.000000
0  31.312761 -87.744537 22.035919  0.602588 -0.536908 0.590438  0.777367 0.492172 1 1 1.000000
0  30.748446 -88.928223 21.526657  -0.041311 -0.999146 -0.000000  0.754906 0.535142 1 1 1.000000
headlightlit
0  31.312761 -87.744537 22.035919  0.602588 -0.536908 0.590438  0.777367 0.492172 1 1 1.000000
0  30.294239 -87.744537 22.035919  -0.609229 -0.491333 0.622440  0.777367 0.578112 1 1 1.000000
0  30.748446 -88.928223 21.526657  -0.041311 -0.999146 -0.000000  0.754906 0.535142 1 1 1.000000
headlightlit
0  30.294239 -87.744537 22.035919  -0.609229 -0.491333 0.622440  0.777367 0.578112 1 1 1.000000
0  30.294239 -87.744537 21.017395  -0.609229 -0.491333 -0.622440  0.731468 0.578112 1 1 1.000000
0  30.748446 -88.928223 21.526657  -0.041311 -0.999146 -0.000000  0.754906 0.535142 1 1 1.000000
headlightlit
0  32.207413 -89.588890 18.154514  -0.192205 -0.865322 0.462899  0.843776 0.038057 1 1 1.000000
0  32.097305 -89.423729 18.416029  -0.191801 -0.865398 0.462924  0.835963 0.074190 1 1 1.000000
0  30.803501 -89.423729 18.154514  -0.000003 -0.865488 0.500930  0.748070 0.039033 1 1 1.000000
headlightlit
0  30.803501 -89.423729 18.154514  -0.000003 -0.865488 0.500930  0.748070 0.039033 1 1 1.000000
0  30.803501 -89.588890 17.865475  -0.000004 -0.865500 0.500910  0.748070 -0.000031 1 1 1.000000
0  32.207413 -89.588890 18.154514  -0.192205 -0.865322 0.462899  0.843776 0.038057 1 1 1.000000
headlightlit
0  30.803501 -89.588890 17.865475  -0.000004 -0.865500 0.500910  0.748070 -0.000031 1 1 1.000000
0  30.803501 -89.423729 18.154514  -0.000003 -0.865488 0.500930  0.748070 0.039033 1 1 1.000000
0  29.523462 -89.423729 18.416029  0.192077 -0.865223 0.463137  0.660176 0.074190 1 1 1.000000
headlightlit
0  29.523462 -89.423729 18.416029  0.192077 -0.865223 0.463137  0.660176 0.074190 1 1 1.000000
0  29.413353 -89.588890 18.154514  0.191754 -0.865443 0.462859  0.652364 0.038057 1 1 1.000000
0  30.803501 -89.588890 17.865475  -0.000004 -0.865500 0.500910  0.748070 -0.000031 1 1 1.000000
headlightlit
0  29.413353 -89.588890 18.154514  0.191754 -0.865443 0.462859  0.652364 0.038057 1 1 1.000000
0  29.523462 -89.423729 18.416029  0.192077 -0.865223 0.463137  0.660176 0.074190 1 1 1.000000
0  28.422354 -89.423729 19.145512  0.354275 -0.865432 0.354284  0.584979 0.174779 1 1 1.000000
headlightlit
0  28.422354 -89.423729 19.145512  0.354275 -0.865432 0.354284  0.584979 0.174779 1 1 1.000000
0  28.229660 -89.588890 18.939054  0.354256 -0.865413 0.354348  0.571307 0.146458 1 1 1.000000
0  29.413353 -89.588890 18.154514  0.191754 -0.865443 0.462859  0.652364 0.038057 1 1 1.000000
headlightlit
0  28.229660 -89.588890 18.939054  0.354256 -0.865413 0.354348  0.571307 0.146458 1 1 1.000000
0  28.422354 -89.423729 19.145512  0.354275 -0.865432 0.354284  0.584979 0.174779 1 1 1.000000
0  27.692869 -89.423729 20.232857  0.463326 -0.865211 0.191674  0.535173 0.324198 1 1 1.000000
headlightlit
0  27.692869 -89.423729 20.232857  0.463326 -0.865211 0.191674  0.535173 0.324198 1 1 1.000000
0  27.431356 -89.588890 20.122746  0.464235 -0.864631 0.192093  0.516617 0.308573 1 1 1.000000
0  28.229660 -89.588890 18.939054  0.354256 -0.865413 0.354348  0.571307 0.146458 1 1 1.000000
headlightlit
0  27.431356 -89.588890 20.122746  0.464235 -0.864631 0.192093  0.516617 0.308573 1 1 1.000000
0  27.692869 -89.423729 20.232857  0.463326 -0.865211 0.191674  0.535173 0.324198 1 1 1.000000
0  27.445122 -89.423729 21.526657  0.500986 -0.865456 -0.000004  0.517594 0.499985 1 1 1.000000
headlightlit
0  27.445122 -89.423729 21.526657  0.500986 -0.865456 -0.000004  0.517594 0.499985 1 1 1.000000
0  27.156080 -89.588890 21.526657  0.500983 -0.865457 -0.000002  0.498062 0.499985 1 1 1.000000
0  27.431356 -89.588890 20.122746  0.464235 -0.864631 0.192093  0.516617 0.308573 1 1 1.000000
headlightlit
0  27.156080 -89.588890 21.526657  0.500983 -0.865457 -0.000002  0.498062 0.499985 1 1 1.000000
0  27.445122 -89.423729 21.526657  0.500986 -0.865456 -0.000004  0.517594 0.499985 1 1 1.000000
0  27.692869 -89.423729 22.806696  0.462829 -0.865465 -0.191730  0.535173 0.676748 1 1 1.000000
headlightlit
0  27.692869 -89.423729 22.806696  0.462829 -0.865465 -0.191730  0.535173 0.676748 1 1 1.000000
0  27.431356 -89.588890 22.916805  0.462887 -0.865433 -0.191729  0.516617 0.691397 1 1 1.000000
0  27.156080 -89.588890 21.526657  0.500983 -0.865457 -0.000002  0.498062 0.499985 1 1 1.000000
headlightlit
0  27.431356 -89.588890 22.916805  0.462887 -0.865433 -0.191729  0.516617 0.691397 1 1 1.000000
0  27.692869 -89.423729 22.806696  0.462829 -0.865465 -0.191730  0.535173 0.676748 1 1 1.000000
0  28.422354 -89.423729 23.907803  0.354253 -0.865459 -0.354239  0.584979 0.826167 1 1 1.000000
headlightlit
0  28.422354 -89.423729 23.907803  0.354253 -0.865459 -0.354239  0.584979 0.826167 1 1 1.000000
0  28.229662 -89.588890 24.100498  0.354265 -0.865448 -0.354254  0.571307 0.853511 1 1 1.000000
0  27.431356 -89.588890 22.916805  0.462887 -0.865433 -0.191729  0.516617 0.691397 1 1 1.000000
headlightlit
0  28.229662 -89.588890 24.100498  0.354265 -0.865448 -0.354254  0.571307 0.853511 1 1 1.000000
0  28.422354 -89.423729 23.907803  0.354253 -0.865459 -0.354239  0.584979 0.826167 1 1 1.000000
0  29.523464 -89.423729 24.637287  0.181144 -0.865395 -0.467203  0.660176 0.925779 1 1 1.000000
headlightlit
0  29.523464 -89.423729 24.637287  0.181144 -0.865395 -0.467203  0.660176 0.925779 1 1 1.000000
0  29.413355 -89.588890 24.898798  0.196008 -0.867008 -0.458125  0.652364 0.961913 1 1 1.000000
0  28.229662 -89.588890 24.100498  0.354265 -0.865448 -0.354254  0.571307 0.853511 1 1 1.000000
headlightlit
0  30.803503 -89.437492 24.912565  0.004302 -0.883590 -0.468241  0.748070 1.000000 1 1 1.000000
0  30.803503 -89.286079 24.637287  0.003874 -0.883524 -0.468370  0.748070 0.925779 1 1 1.000000
0  32.097305 -89.423729 24.637287  -0.185761 -0.866682 -0.462985  0.835963 0.925779 1 1 1.000000
headlightlit
0  32.097305 -89.423729 24.637287  -0.185761 -0.866682 -0.462985  0.835963 0.925779 1 1 1.000000
0  32.207413 -89.588890 24.898798  -0.199718 -0.864959 -0.460390  0.843776 0.961913 1 1 1.000000
0  30.803503 -89.437492 24.912565  0.004302 -0.883590 -0.468241  0.748070 1.000000 1 1 1.000000
headlightlit
0  32.207413 -89.588890 24.898798  -0.199718 -0.864959 -0.460390  0.843776 0.961913 1 1 1.000000
0  32.097305 -89.423729 24.637287  -0.185761 -0.866682 -0.462985  0.835963 0.925779 1 1 1.000000
0  33.184643 -89.423729 23.907803  -0.354257 -0.865457 -0.354241  0.911161 0.826167 1 1 1.000000
headlightlit
0  33.184643 -89.423729 23.907803  -0.354257 -0.865457 -0.354241  0.911161 0.826167 1 1 1.000000
0  33.391106 -89.588890 24.100498  -0.354321 -0.865429 -0.354245  0.924833 0.853511 1 1 1.000000
0  32.207413 -89.588890 24.898798  -0.199718 -0.864959 -0.460390  0.843776 0.961913 1 1 1.000000
headlightlit
0  33.391106 -89.588890 24.100498  -0.354321 -0.865429 -0.354245  0.924833 0.853511 1 1 1.000000
0  33.184643 -89.423729 23.907803  -0.354257 -0.865457 -0.354241  0.911161 0.826167 1 1 1.000000
0  33.914131 -89.423729 22.806696  -0.463288 -0.865179 -0.191913  0.960967 0.676748 1 1 1.000000
headlightlit
0  33.914131 -89.423729 22.806696  -0.463288 -0.865179 -0.191913  0.960967 0.676748 1 1 1.000000
0  34.175644 -89.588890 22.916805  -0.462833 -0.865465 -0.191717  0.979522 0.691397 1 1 1.000000
0  33.391106 -89.588890 24.100498  -0.354321 -0.865429 -0.354245  0.924833 0.853511 1 1 1.000000
headlightlit
0  34.175644 -89.588890 22.916805  -0.462833 -0.865465 -0.191717  0.979522 0.691397 1 1 1.000000
0  33.914131 -89.423729 22.806696  -0.463288 -0.865179 -0.191913  0.960967 0.676748 1 1 1.000000
0  34.175644 -89.423729 21.526657  -0.500984 -0.865457 0.000005  0.978545 0.499985 1 1 1.000000
headlightlit
0  34.175644 -89.423729 21.526657  -0.500984 -0.865457 0.000005  0.978545 0.499985 1 1 1.000000
0  34.464684 -89.588890 21.526657  -0.500983 -0.865457 0.000008  0.998077 0.499985 1 1 1.000000
0  34.175644 -89.588890 22.916805  -0.462833 -0.865465 -0.191717  0.979522 0.691397 1 1 1.000000
headlightlit
0  34.464684 -89.588890 21.526657  -0.500983 -0.865457 0.000008  0.998077 0.499985 1 1 1.000000
0  34.175644 -89.423729 21.526657  -0.500984 -0.865457 0.000005  0.978545 0.499985 1 1 1.000000
0  33.914131 -89.423729 20.232857  -0.462839 -0.865470 0.191682  0.960967 0.324198 1 1 1.000000
headlightlit
0  33.914131 -89.423729 20.232857  -0.462839 -0.865470 0.191682  0.960967 0.324198 1 1 1.000000
0  34.175644 -89.588890 20.122746  -0.462855 -0.865442 0.191768  0.979522 0.308573 1 1 1.000000
0  34.464684 -89.588890 21.526657  -0.500983 -0.865457 0.000008  0.998077 0.499985 1 1 1.000000
headlightlit
0  34.175644 -89.588890 20.122746  -0.462855 -0.865442 0.191768  0.979522 0.308573 1 1 1.000000
0  33.914131 -89.423729 20.232857  -0.462839 -0.865470 0.191682  0.960967 0.324198 1 1 1.000000
0  33.184643 -89.423729 19.145512  -0.354242 -0.865464 0.354238  0.911161 0.174779 1 1 1.000000
headlightlit
0  33.184643 -89.423729 19.145512  -0.354242 -0.865464 0.354238  0.911161 0.174779 1 1 1.000000
0  33.391106 -89.588890 18.939054  -0.354245 -0.865462 0.354241  0.924833 0.146458 1 1 1.000000
0  34.175644 -89.588890 20.122746  -0.462855 -0.865442 0.191768  0.979522 0.308573 1 1 1.000000
headlightlit
0  32.207413 -89.588890 18.154514  -0.192205 -0.865322 0.462899  0.843776 0.038057 1 1 1.000000
0  33.391106 -89.588890 18.939054  -0.354245 -0.865462 0.354241  0.924833 0.146458 1 1 1.000000
0  33.184643 -89.423729 19.145512  -0.354242 -0.865464 0.354238  0.911161 0.174779 1 1 1.000000
headlightlit
0  33.184643 -89.423729 19.145512  -0.354242 -0.865464 0.354238  0.911161 0.174779 1 1 1.000000
0  32.097305 -89.423729 18.416029  -0.191801 -0.865398 0.462924  0.835963 0.074190 1 1 1.000000
0  32.207413 -89.588890 18.154514  -0.192205 -0.865322 0.462899  0.843776 0.038057 1 1 1.000000
headlightlit
0  32.097305 -89.423729 24.637287  -0.308973 -0.881292 -0.357576  0.835963 0.925779 1 1 1.000000
0  32.097305 -87.923462 21.526657  -0.470104 -0.882249 -0.025285  0.835963 0.499985 1 1 1.000000
0  33.184643 -88.542831 21.526657  -0.471846 -0.880809 -0.039196  0.911161 0.499985 1 1 1.000000
headlightlit
0  33.184643 -88.542831 21.526657  -0.471846 -0.880809 -0.039196  0.911161 0.499985 1 1 1.000000
0  33.184643 -89.423729 23.907803  -0.225856 -0.913724 -0.337783  0.911161 0.826167 1 1 1.000000
0  32.097305 -89.423729 24.637287  -0.308973 -0.881292 -0.357576  0.835963 0.925779 1 1 1.000000
headlightlit
0  28.422354 -89.423729 23.907803  0.318421 -0.860791 -0.397048  0.584979 0.826167 1 1 1.000000
0  28.422354 -88.542831 21.526657  0.471628 -0.880913 0.039489  0.584979 0.499985 1 1 1.000000
0  29.523462 -87.923462 21.526657  0.469916 -0.882344 0.025451  0.660176 0.499985 1 1 1.000000
headlightlit
0  29.523462 -87.923462 21.526657  0.469916 -0.882344 0.025451  0.660176 0.499985 1 1 1.000000
0  29.523464 -89.423729 24.637287  0.279058 -0.864707 -0.417623  0.660176 0.925779 1 1 1.000000
0  28.422354 -89.423729 23.907803  0.318421 -0.860791 -0.397048  0.584979 0.826167 1 1 1.000000
headlightlit
0  27.692869 -89.423729 22.806696  0.525934 -0.811043 -0.256132  0.535173 0.676748 1 1 1.000000
0  27.445122 -89.423729 21.526657  0.665895 -0.746046 -0.000012  0.517594 0.499985 1 1 1.000000
0  28.422354 -88.542831 21.526657  0.604116 -0.796896 0.000002  0.584979 0.499985 1 1 1.000000
headlightlit
0  28.422354 -88.542831 21.526657  0.604116 -0.796896 0.000002  0.584979 0.499985 1 1 1.000000
0  28.422354 -89.423729 23.907803  0.460594 -0.832553 -0.307748  0.584979 0.826167 1 1 1.000000
0  27.692869 -89.423729 22.806696  0.525934 -0.811043 -0.256132  0.535173 0.676748 1 1 1.000000
headlightlit
0  33.914131 -89.423729 22.806696  -0.525899 -0.811043 -0.256202  0.960967 0.676748 1 1 1.000000
0  33.184643 -89.423729 23.907803  -0.460591 -0.832553 -0.307753  0.911161 0.826167 1 1 1.000000
0  33.184643 -88.542831 21.526657  -0.603453 -0.797398 -0.000588  0.911161 0.499985 1 1 1.000000
headlightlit
0  33.184643 -88.542831 21.526657  -0.603453 -0.797398 -0.000588  0.911161 0.499985 1 1 1.000000
0  34.175644 -89.423729 21.526657  -0.665778 -0.746150 -0.000011  0.978545 0.499985 1 1 1.000000
0  33.914131 -89.423729 22.806696  -0.525899 -0.811043 -0.256202  0.960967 0.676748 1 1 1.000000
headlightlit
0  33.914131 -89.423729 20.232857  -0.524900 -0.811527 0.256717  0.960967 0.324198 1 1 1.000000
0  34.175644 -89.423729 21.526657  -0.665778 -0.746150 -0.000011  0.978545 0.499985 1 1 1.000000
0  33.184643 -88.542831 21.526657  -0.603453 -0.797398 -0.000588  0.911161 0.499985 1 1 1.000000
headlightlit
0  33.184643 -88.542831 21.526657  -0.603453 -0.797398 -0.000588  0.911161 0.499985 1 1 1.000000
0  33.184643 -89.423729 19.145512  -0.460379 -0.832643 0.307826  0.911161 0.174779 1 1 1.000000
0  33.914131 -89.423729 20.232857  -0.524900 -0.811527 0.256717  0.960967 0.324198 1 1 1.000000
headlightlit
0  33.184643 -89.423729 19.145512  -0.318855 -0.860775 0.396734  0.911161 0.174779 1 1 1.000000
0  33.184643 -88.542831 21.526657  -0.471846 -0.880809 -0.039196  0.911161 0.499985 1 1 1.000000
0  32.097305 -87.923462 21.526657  -0.470104 -0.882249 -0.025285  0.835963 0.499985 1 1 1.000000
headlightlit
0  32.097305 -87.923462 21.526657  -0.470104 -0.882249 -0.025285  0.835963 0.499985 1 1 1.000000
0  32.097305 -89.423729 18.416029  -0.279103 -0.864720 0.417565  0.835963 0.074190 1 1 1.000000
0  33.184643 -89.423729 19.145512  -0.318855 -0.860775 0.396734  0.911161 0.174779 1 1 1.000000
headlightlit
0  30.803501 -87.661957 21.526657  -0.185948 -0.982497 -0.011134  0.748070 0.499985 1 1 1.000000
0  30.803501 -89.423729 18.154514  -0.092343 -0.882481 0.461194  0.748070 0.039033 1 1 1.000000
0  32.097305 -89.423729 18.416029  -0.109894 -0.883828 0.454722  0.835963 0.074190 1 1 1.000000
headlightlit
0  32.097305 -89.423729 18.416029  -0.109894 -0.883828 0.454722  0.835963 0.074190 1 1 1.000000
0  32.097305 -87.923462 21.526657  -0.186504 -0.982368 -0.013033  0.835963 0.499985 1 1 1.000000
0  30.803501 -87.661957 21.526657  -0.185948 -0.982497 -0.011134  0.748070 0.499985 1 1 1.000000
headlightlit
0  30.803501 -89.423729 18.154514  0.108094 -0.891877 0.439172  0.748070 0.039033 1 1 1.000000
0  30.803501 -87.661957 21.526657  0.185462 -0.982588 0.011141  0.748070 0.499985 1 1 1.000000
0  29.523462 -87.923462 21.526657  0.185938 -0.982471 0.013307  0.660176 0.499985 1 1 1.000000
headlightlit
0  29.523462 -87.923462 21.526657  0.185938 -0.982471 0.013307  0.660176 0.499985 1 1 1.000000
0  29.523462 -89.423729 18.416029  0.086173 -0.897137 0.433265  0.660176 0.074190 1 1 1.000000
0  30.803501 -89.423729 18.154514  0.108094 -0.891877 0.439172  0.748070 0.039033 1 1 1.000000
headlightlit
0  28.422354 -88.542831 21.526657  0.471628 -0.880913 0.039489  0.584979 0.499985 1 1 1.000000
0  28.422354 -89.423729 19.145512  0.225635 -0.913785 0.337765  0.584979 0.174779 1 1 1.000000
0  29.523462 -89.423729 18.416029  0.308410 -0.881438 0.357701  0.660176 0.074190 1 1 1.000000
headlightlit
0  29.523462 -89.423729 18.416029  0.308410 -0.881438 0.357701  0.660176 0.074190 1 1 1.000000
0  29.523462 -87.923462 21.526657  0.469916 -0.882344 0.025451  0.660176 0.499985 1 1 1.000000
0  28.422354 -88.542831 21.526657  0.471628 -0.880913 0.039489  0.584979 0.499985 1 1 1.000000
headlightlit
0  28.422354 -88.542831 21.526657  0.604116 -0.796896 0.000002  0.584979 0.499985 1 1 1.000000
0  27.445122 -89.423729 21.526657  0.665895 -0.746046 -0.000012  0.517594 0.499985 1 1 1.000000
0  27.692869 -89.423729 20.232857  0.526056 -0.811114 0.255653  0.535173 0.324198 1 1 1.000000
headlightlit
0  27.692869 -89.423729 20.232857  0.526056 -0.811114 0.255653  0.535173 0.324198 1 1 1.000000
0  28.422354 -89.423729 19.145512  0.459376 -0.833061 0.308194  0.584979 0.174779 1 1 1.000000
0  28.422354 -88.542831 21.526657  0.604116 -0.796896 0.000002  0.584979 0.499985 1 1 1.000000
headlightlit
0  30.803503 -89.286079 24.637287  0.003874 -0.883524 -0.468370  0.748070 0.925779 1 1 1.000000
0  30.803503 -89.437492 24.912565  0.004302 -0.883590 -0.468241  0.748070 1.000000 1 1 1.000000
0  29.413355 -89.588890 24.898798  0.196008 -0.867008 -0.458125  0.652364 0.961913 1 1 1.000000
headlightlit
0  29.413355 -89.588890 24.898798  0.196008 -0.867008 -0.458125  0.652364 0.961913 1 1 1.000000
0  29.523464 -89.423729 24.637287  0.181144 -0.865395 -0.467203  0.660176 0.925779 1 1 1.000000
0  30.803503 -89.286079 24.637287  0.003874 -0.883524 -0.468370  0.748070 0.925779 1 1 1.000000
headlightlit
0  32.097305 -87.923462 21.526657  -0.186504 -0.982368 -0.013033  0.835963 0.499985 1 1 1.000000
0  32.097305 -89.423729 24.637287  -0.093164 -0.896562 -0.433010  0.835963 0.925779 1 1 1.000000
0  30.803503 -89.286079 24.637287  -0.111981 -0.891725 -0.438506  0.748070 0.925779 1 1 1.000000
headlightlit
0  30.803503 -89.286079 24.637287  -0.111981 -0.891725 -0.438506  0.748070 0.925779 1 1 1.000000
0  30.803501 -87.661957 21.526657  -0.185948 -0.982497 -0.011134  0.748070 0.499985 1 1 1.000000
0  32.097305 -87.923462 21.526657  -0.186504 -0.982368 -0.013033  0.835963 0.499985 1 1 1.000000
headlightlit
0  29.523464 -89.423729 24.637287  0.111588 -0.884007 -0.453960  0.660176 0.925779 1 1 1.000000
0  29.523462 -87.923462 21.526657  0.185938 -0.982471 0.013307  0.660176 0.499985 1 1 1.000000
0  30.803501 -87.661957 21.526657  0.185462 -0.982588 0.011141  0.748070 0.499985 1 1 1.000000
headlightlit
0  30.803501 -87.661957 21.526657  0.185462 -0.982588 0.011141  0.748070 0.499985 1 1 1.000000
0  30.803503 -89.286079 24.637287  0.091967 -0.882487 -0.461258  0.748070 0.925779 1 1 1.000000
0  29.523464 -89.423729 24.637287  0.111588 -0.884007 -0.453960  0.660176 0.925779 1 1 1.000000
headlightlit
0  -27.637800 -89.547600 18.016880  -0.270898 -0.113976 0.955837  0.463881 0.193335 1 1 1.000000
0  -30.803486 -89.588890 17.865479  -0.033804 -0.046935 0.998326  0.464858 0.196265 1 1 1.000000
0  -30.707140 -91.997559 17.755367  -0.039267 -0.045198 0.998206  0.460952 0.194311 1 1 1.000000
headlightlit
0  -30.707140 -91.997559 17.755367  -0.039267 -0.045198 0.998206  0.460952 0.194311 1 1 1.000000
0  -25.944845 -94.819153 17.879242  -0.633187 -0.196356 0.748678  0.458022 0.191382 1 1 1.000000
0  -27.637800 -89.547600 18.016880  -0.270898 -0.113976 0.955837  0.463881 0.193335 1 1 1.000000
headlightlit
0  -25.201597 -95.466057 18.746365  -0.946009 -0.270455 0.178667  0.320322 0.054659 1 1 1.000000
0  -25.160307 -95.562401 19.200571  -0.958457 -0.281958 0.043136  0.327158 0.101535 1 1 1.000000
0  -26.853262 -89.547600 19.214334  -0.958066 -0.274265 0.082996  0.019532 0.101535 1 1 1.000000
headlightlit
0  -26.853262 -89.547600 19.214334  -0.958066 -0.274265 0.082996  0.019532 0.101535 1 1 1.000000
0  -26.922081 -89.547600 18.787655  -0.915272 -0.268503 0.300305  0.017579 0.053682 1 1 1.000000
0  -25.201597 -95.466057 18.746365  -0.946009 -0.270455 0.178667  0.320322 0.054659 1 1 1.000000
headlightlit
0  -24.362003 -96.966309 26.027441  -0.833643 -0.352058 -0.425552  0.463881 0.207984 1 1 1.000000
0  -27.513922 -89.671471 24.885038  -0.337643 -0.285687 -0.896872  0.438490 0.202124 1 1 1.000000
0  -26.770678 -89.671471 23.949099  -0.898401 -0.356828 -0.256025  0.439467 0.201147 1 1 1.000000
headlightlit
0  -30.803486 -89.588890 17.865479  -0.033804 -0.046935 0.998326  0.461928 0.193335 1 1 1.000000
0  -34.423378 -89.726524 17.796658  -0.264011 -0.922979 0.280013  0.461928 0.193335 1 1 1.000000
0  -30.707140 -91.997559 17.755367  -0.039267 -0.045198 0.998206  0.461928 0.193335 1 1 1.000000
headlightlit
0  -29.413338 -89.588890 18.154518  0.017214 -0.997156 -0.073379  0.461928 0.193335 1 1 1.000000
0  -30.803486 -89.588890 17.865479  0.025928 -0.997709 0.062487  0.461928 0.193335 1 1 1.000000
0  -27.637800 -89.547600 18.016880  0.020894 -0.999216 -0.033618  0.461928 0.193335 1 1 1.000000
headlightlit
0  -25.944845 -94.819153 17.879242  -0.633187 -0.196356 0.748678  0.462905 0.192358 1 1 1.000000
0  -25.435585 -95.232063 18.374741  -0.855436 -0.251433 0.452781  0.462905 0.193335 1 1 1.000000
0  -27.114775 -89.547600 18.374741  -0.724309 -0.233720 0.648654  0.443373 0.190405 1 1 1.000000
headlightlit
0  -27.114775 -89.547600 18.374741  -0.724309 -0.233720 0.648654  0.443373 0.190405 1 1 1.000000
0  -27.637800 -89.547600 18.016880  -0.270898 -0.113976 0.955837  0.444349 0.189428 1 1 1.000000
0  -25.944845 -94.819153 17.879242  -0.633187 -0.196356 0.748678  0.462905 0.192358 1 1 1.000000
headlightlit
0  -25.435585 -95.232063 18.374741  -0.855436 -0.251433 0.452781  0.312510 0.013642 1 1 1.000000
0  -25.201597 -95.466057 18.746365  -0.946009 -0.270455 0.178667  0.320322 0.054659 1 1 1.000000
0  -26.922081 -89.547600 18.787655  -0.915272 -0.268503 0.300305  0.017579 0.053682 1 1 1.000000
headlightlit
0  -26.922081 -89.547600 18.787655  -0.915272 -0.268503 0.300305  0.017579 0.053682 1 1 1.000000
0  -27.114775 -89.547600 18.374741  -0.724309 -0.233720 0.648654  0.023438 0.012665 1 1 1.000000
0  -25.435585 -95.232063 18.374741  -0.855436 -0.251433 0.452781  0.312510 0.013642 1 1 1.000000
headlightlit
0  -25.160307 -95.562401 19.200571  -0.958457 -0.281958 0.043136  0.327158 0.101535 1 1 1.000000
0  -24.362003 -96.966309 26.027441  -0.833643 -0.352058 -0.425552  0.431654 0.991211 1 1 1.000000
0  -26.770678 -89.671471 23.949099  -0.898401 -0.356828 -0.256025  0.049806 0.855464 1 1 1.000000
headlightlit
0  -26.770678 -89.671471 23.949099  -0.898401 -0.356828 -0.256025  0.049806 0.855464 1 1 1.000000
0  -26.853262 -89.547600 19.214334  -0.958066 -0.274265 0.082996  0.019532 0.101535 1 1 1.000000
0  -25.160307 -95.562401 19.200571  -0.958457 -0.281958 0.043136  0.327158 0.101535 1 1 1.000000
headlightlit
0  -35.441902 -89.506310 23.260906  -0.171890 -0.973726 -0.149372  0.461928 0.193335 1 1 1.000000
0  -34.464668 -89.588890 21.526661  -0.304773 -0.947195 -0.099680  0.461928 0.193335 1 1 1.000000
0  -34.175629 -89.588890 22.916809  -0.024114 -0.998563 -0.047858  0.461928 0.193335 1 1 1.000000
headlightlit
0  -34.423378 -89.726524 17.796658  -0.264115 -0.923419 0.278463  0.461928 0.193335 1 1 1.000000
0  -30.803486 -89.588890 17.865479  0.026032 -0.997611 0.063983  0.449232 0.204077 1 1 1.000000
0  -32.207397 -89.588890 18.154518  0.035274 -0.989242 0.141970  0.461928 0.193335 1 1 1.000000
headlightlit
0  -34.175629 -89.588890 22.916809  -0.024114 -0.998563 -0.047858  0.461928 0.193335 1 1 1.000000
0  -35.152863 -89.698997 23.880280  0.003618 -0.966478 -0.256723  0.461928 0.193335 1 1 1.000000
0  -35.441902 -89.506310 23.260906  -0.171890 -0.973726 -0.149372  0.461928 0.193335 1 1 1.000000
headlightlit
0  -28.229643 -89.588890 24.100502  -0.053219 -0.996907 -0.057826  0.461928 0.193335 1 1 1.000000
0  -27.431341 -89.588890 22.916809  -0.081398 -0.996360 -0.025325  0.461928 0.193335 1 1 1.000000
0  -26.770678 -89.671471 23.949099  -0.065311 -0.997065 -0.039960  0.461928 0.193335 1 1 1.000000
headlightlit
0  -26.770678 -89.671471 23.949099  -0.065311 -0.997065 -0.039960  0.461928 0.193335 1 1 1.000000
0  -27.513922 -89.671471 24.885038  -0.055293 -0.996658 -0.060125  0.461928 0.193335 1 1 1.000000
0  -28.229643 -89.588890 24.100502  -0.053219 -0.996907 -0.057826  0.461928 0.193335 1 1 1.000000
headlightlit
0  -27.156065 -89.588890 21.526661  -0.047775 -0.998602 -0.022614  0.461928 0.193335 1 1 1.000000
0  -27.431341 -89.588890 20.122749  0.046098 -0.998834 -0.014360  0.461928 0.193335 1 1 1.000000
0  -26.853262 -89.547600 19.214334  0.031605 -0.999400 -0.014177  0.461928 0.193335 1 1 1.000000
headlightlit
0  -27.156065 -89.588890 21.526661  -0.047775 -0.998602 -0.022614  0.461928 0.193335 1 1 1.000000
0  -26.853262 -89.547600 19.214334  0.031605 -0.999400 -0.014177  0.461928 0.193335 1 1 1.000000
0  -26.770678 -89.671471 23.949099  -0.065311 -0.997065 -0.039960  0.461928 0.193335 1 1 1.000000
headlightlit
0  -27.156065 -89.588890 21.526661  -0.047775 -0.998602 -0.022614  0.461928 0.193335 1 1 1.000000
0  -26.770678 -89.671471 23.949099  -0.065311 -0.997065 -0.039960  0.461928 0.193335 1 1 1.000000
0  -27.431341 -89.588890 22.916809  -0.081398 -0.996360 -0.025325  0.461928 0.193335 1 1 1.000000
headlightlit
0  -26.922081 -89.547600 18.787655  0.030088 -0.999487 -0.010937  0.461928 0.193335 1 1 1.000000
0  -28.229645 -89.588890 18.939058  0.025747 -0.999343 -0.025495  0.461928 0.193335 1 1 1.000000
0  -27.114775 -89.547600 18.374741  0.026390 -0.999431 -0.020997  0.461928 0.193335 1 1 1.000000
headlightlit
0  -32.207397 -89.588890 24.898802  0.021551 -0.462600 -0.886305  0.446303 0.195288 1 1 1.000000
0  -33.583782 -90.772583 25.504412  -0.020346 -0.438676 -0.898415  0.461928 0.193335 1 1 1.000000
0  -34.450905 -90.222023 25.077734  0.133585 -0.802538 -0.581453  0.461928 0.193335 1 1 1.000000
headlightlit
0  -34.450905 -90.222023 25.077734  0.133585 -0.802538 -0.581453  0.461928 0.193335 1 1 1.000000
0  -33.391090 -89.588890 24.100502  0.162423 -0.938665 -0.304182  0.461928 0.193335 1 1 1.000000
0  -32.207397 -89.588890 24.898802  0.021551 -0.462600 -0.886305  0.446303 0.195288 1 1 1.000000
headlightlit
0  -26.853262 -89.547600 19.214334  0.031605 -0.999400 -0.014177  0.461928 0.193335 1 1 1.000000
0  -27.431341 -89.588890 20.122749  0.046098 -0.998834 -0.014360  0.461928 0.193335 1 1 1.000000
0  -28.229645 -89.588890 18.939058  0.025747 -0.999343 -0.025495  0.461928 0.193335 1 1 1.000000
headlightlit
0  -28.229645 -89.588890 18.939058  0.025747 -0.999343 -0.025495  0.461928 0.193335 1 1 1.000000
0  -26.922081 -89.547600 18.787655  0.030088 -0.999487 -0.010937  0.461928 0.193335 1 1 1.000000
0  -26.853262 -89.547600 19.214334  0.031605 -0.999400 -0.014177  0.461928 0.193335 1 1 1.000000
headlightlit
0  -28.229645 -89.588890 18.939058  0.025747 -0.999343 -0.025495  0.461928 0.193335 1 1 1.000000
0  -29.413338 -89.588890 18.154518  0.017214 -0.997156 -0.073379  0.461928 0.193335 1 1 1.000000
0  -27.637800 -89.547600 18.016880  0.020894 -0.999216 -0.033618  0.461928 0.193335 1 1 1.000000
headlightlit
0  -27.637800 -89.547600 18.016880  0.020894 -0.999216 -0.033618  0.461928 0.193335 1 1 1.000000
0  -27.114775 -89.547600 18.374741  0.026390 -0.999431 -0.020997  0.461928 0.193335 1 1 1.000000
0  -28.229645 -89.588890 18.939058  0.025747 -0.999343 -0.025495  0.461928 0.193335 1 1 1.000000
headlightlit
0  -29.413336 -89.588890 24.898802  -0.045884 -0.996587 -0.068625  0.461928 0.193335 1 1 1.000000
0  -28.229643 -89.588890 24.100502  -0.053219 -0.996907 -0.057826  0.461928 0.193335 1 1 1.000000
0  -27.513922 -89.671471 24.885038  -0.055293 -0.996658 -0.060125  0.461928 0.193335 1 1 1.000000
headlightlit
0  -33.583782 -90.772583 25.504412  -0.020346 -0.438676 -0.898415  0.461928 0.193335 1 1 1.000000
0  -32.207397 -89.588890 24.898802  0.021551 -0.462600 -0.886305  0.446303 0.195288 1 1 1.000000
0  -31.133818 -92.424240 25.642052  -0.073638 -0.236325 -0.968880  0.461928 0.193335 1 1 1.000000
headlightlit
0  -29.413336 -89.588890 24.898802  -0.045689 -0.202618 -0.978192  0.461928 0.193335 1 1 1.000000
0  -27.513922 -89.671471 24.885038  -0.337643 -0.285687 -0.896872  0.461928 0.193335 1 1 1.000000
0  -24.362003 -96.966309 26.027441  -0.833643 -0.352058 -0.425552  0.461928 0.193335 1 1 1.000000
headlightlit
0  -32.207397 -89.588890 18.154518  0.035274 -0.989242 0.141970  0.461928 0.193335 1 1 1.000000
0  -33.391090 -89.588890 18.939058  0.060084 -0.996440 0.059135  0.461928 0.193335 1 1 1.000000
0  -34.423378 -89.726524 17.796658  -0.264115 -0.923419 0.278463  0.461928 0.193335 1 1 1.000000
headlightlit
0  -33.391090 -89.588890 18.939058  0.060084 -0.996440 0.059135  0.461928 0.193335 1 1 1.000000
0  -34.175629 -89.588890 20.122749  -0.361769 -0.932172 -0.013375  0.461928 0.193335 1 1 1.000000
0  -34.423378 -89.726524 17.796658  -0.264115 -0.923419 0.278463  0.461928 0.193335 1 1 1.000000
headlightlit
0  -34.175629 -89.588890 20.122749  -0.361769 -0.932172 -0.013375  0.461928 0.193335 1 1 1.000000
0  -36.873344 -88.129921 17.810423  -0.467910 -0.883776 0.000151  0.461928 0.193335 1 1 1.000000
0  -34.423378 -89.726524 17.796658  -0.264115 -0.923419 0.278463  0.461928 0.193335 1 1 1.000000
headlightlit
0  -36.873344 -88.129921 17.810423  -0.467910 -0.883776 0.000151  0.461928 0.193335 1 1 1.000000
0  -34.175629 -89.588890 20.122749  -0.361769 -0.932172 -0.013375  0.461928 0.193335 1 1 1.000000
0  -34.464668 -89.588890 21.526661  -0.304773 -0.947195 -0.099680  0.461928 0.193335 1 1 1.000000
headlightlit
0  -34.464668 -89.588890 21.526661  -0.304773 -0.947195 -0.099680  0.461928 0.193335 1 1 1.000000
0  -35.441902 -89.506310 23.260906  -0.171890 -0.973726 -0.149372  0.461928 0.193335 1 1 1.000000
0  -36.873344 -88.129921 17.810423  -0.467910 -0.883776 0.000151  0.461928 0.193335 1 1 1.000000
headlightlit
0  -33.391090 -89.588890 24.100502  0.162423 -0.938665 -0.304182  0.461928 0.193335 1 1 1.000000
0  -34.450905 -90.222023 25.077734  0.133585 -0.802538 -0.581453  0.461928 0.193335 1 1 1.000000
0  -35.152863 -89.698997 23.880280  0.003618 -0.966478 -0.256723  0.461928 0.193335 1 1 1.000000
headlightlit
0  -35.152863 -89.698997 23.880280  0.003618 -0.966478 -0.256723  0.461928 0.193335 1 1 1.000000
0  -34.175629 -89.588890 22.916809  -0.024114 -0.998563 -0.047858  0.461928 0.193335 1 1 1.000000
0  -33.391090 -89.588890 24.100502  0.162423 -0.938665 -0.304182  0.461928 0.193335 1 1 1.000000
headlightlit
0  -29.413336 -89.588890 24.898802  -0.045689 -0.202618 -0.978192  0.461928 0.193335 1 1 1.000000
0  -24.362003 -96.966309 26.027441  -0.833643 -0.352058 -0.425552  0.461928 0.193335 1 1 1.000000
0  -31.133818 -92.424240 25.642052  -0.073638 -0.236325 -0.968880  0.461928 0.193335 1 1 1.000000
headlightlit
0  -31.133818 -92.424240 25.642052  -0.073638 -0.236325 -0.968880  0.461928 0.193335 1 1 1.000000
0  -30.803484 -89.437492 24.912569  -0.002244 -0.237703 -0.971335  0.454115 0.194311 1 1 1.000000
0  -29.413336 -89.588890 24.898802  -0.045689 -0.202618 -0.978192  0.461928 0.193335 1 1 1.000000
headlightlit
0  -32.207397 -89.588890 24.898802  0.021551 -0.462600 -0.886305  0.446303 0.195288 1 1 1.000000
0  -30.803484 -89.437492 24.912569  -0.002244 -0.237703 -0.971335  0.454115 0.194311 1 1 1.000000
0  -31.133818 -92.424240 25.642052  -0.073638 -0.236325 -0.968880  0.461928 0.193335 1 1 1.000000
headlightlit
0  -25.944845 -94.819153 17.879242  0.417501 -0.103857 -0.902722  0.261727 0.598621 1 1 1.000000
0  -30.707140 -91.997559 17.755367  0.000187 -0.027127 -0.999632  0.261727 0.598621 1 1 1.000000
0  -24.472115 -87.097633 17.672783  0.699395 -0.051840 -0.712853  0.261727 0.598621 1 1 1.000000
headlightlit
0  -25.160307 -95.562401 19.200571  0.985304 -0.104065 -0.135452  0.261727 0.598621 1 1 1.000000
0  -25.201597 -95.466057 18.746365  0.944679 -0.122196 -0.304384  0.261727 0.598621 1 1 1.000000
0  -24.472115 -87.097633 17.672783  0.699395 -0.051840 -0.712853  0.261727 0.598621 1 1 1.000000
headlightlit
0  -36.873344 -87.070107 17.659019  -0.785860 -0.042261 -0.616959  0.261727 0.598621 1 1 1.000000
0  -24.472115 -87.097633 17.672783  0.699395 -0.051840 -0.712853  0.261727 0.598621 1 1 1.000000
0  -30.707140 -91.997559 17.755367  0.000187 -0.027127 -0.999632  0.261727 0.598621 1 1 1.000000
headlightlit
0  -30.707140 -91.997559 17.755367  0.000187 -0.027127 -0.999632  0.261727 0.598621 1 1 1.000000
0  -34.423378 -89.726524 17.796658  -0.087082 -0.129322 -0.987771  0.261727 0.598621 1 1 1.000000
0  -36.873344 -87.070107 17.659019  -0.785860 -0.042261 -0.616959  0.261727 0.598621 1 1 1.000000
headlightlit
0  -25.435585 -95.232063 18.374741  0.743940 -0.144970 -0.652331  0.261727 0.598621 1 1 1.000000
0  -25.944845 -94.819153 17.879242  0.417501 -0.103857 -0.902722  0.261727 0.598621 1 1 1.000000
0  -24.472115 -87.097633 17.672783  0.699395 -0.051840 -0.712853  0.261727 0.598621 1 1 1.000000
headlightlit
0  -25.201597 -95.466057 18.746365  0.944679 -0.122196 -0.304384  0.261727 0.598621 1 1 1.000000
0  -25.435585 -95.232063 18.374741  0.743940 -0.144970 -0.652331  0.261727 0.598621 1 1 1.000000
0  -24.472115 -87.097633 17.672783  0.699395 -0.051840 -0.712853  0.261727 0.598621 1 1 1.000000
headlightlit
0  -24.472115 -87.097633 17.672783  0.699395 -0.051840 -0.712853  0.261727 0.598621 1 1 1.000000
0  -24.362005 -87.111397 25.353012  0.724439 0.043877 0.687941  0.261727 0.598621 1 1 1.000000
0  -24.362003 -96.966309 26.027441  0.826673 -0.002732 0.562677  0.261727 0.598621 1 1 1.000000
headlightlit
0  -24.362003 -96.966309 26.027441  0.826673 -0.002732 0.562677  0.261727 0.598621 1 1 1.000000
0  -25.160307 -95.562401 19.200571  0.985304 -0.104065 -0.135452  0.261727 0.598621 1 1 1.000000
0  -24.472115 -87.097633 17.672783  0.699395 -0.051840 -0.712853  0.261727 0.598621 1 1 1.000000
headlightlit
0  -35.441902 -89.506310 23.260906  -0.942913 0.068470 0.325925  0.261727 0.598621 1 1 1.000000
0  -35.152863 -89.698997 23.880280  -0.894947 -0.037952 0.444555  0.261727 0.598621 1 1 1.000000
0  -34.547253 -87.083870 25.325485  -0.592394 0.036936 0.804801  0.261727 0.598621 1 1 1.000000
headlightlit
0  -34.450905 -90.222023 25.077734  -0.655836 -0.082128 0.750423  0.261727 0.598621 1 1 1.000000
0  -33.583782 -90.772583 25.504412  -0.148413 0.008346 0.988890  0.261727 0.598621 1 1 1.000000
0  -34.547253 -87.083870 25.325485  -0.592394 0.036936 0.804801  0.261727 0.598621 1 1 1.000000
headlightlit
0  -33.583782 -90.772583 25.504412  -0.148413 0.008346 0.988890  0.261727 0.598621 1 1 1.000000
0  -31.133818 -92.424240 25.642052  -0.009297 0.059702 0.998173  0.261727 0.598621 1 1 1.000000
0  -34.547253 -87.083870 25.325485  -0.592394 0.036936 0.804801  0.261727 0.598621 1 1 1.000000
headlightlit
0  -34.423378 -89.726524 17.796658  -0.087082 -0.129322 -0.987771  0.261727 0.598621 1 1 1.000000
0  -36.873344 -88.129921 17.810423  -0.798579 -0.074601 -0.597249  0.261727 0.598621 1 1 1.000000
0  -36.873344 -87.070107 17.659019  -0.785860 -0.042261 -0.616959  0.261727 0.598621 1 1 1.000000
headlightlit
0  -34.547253 -87.083870 25.325485  -0.592394 0.036936 0.804801  0.261727 0.598621 1 1 1.000000
0  -36.873344 -87.070107 17.659019  -0.785860 -0.042261 -0.616959  0.261727 0.598621 1 1 1.000000
0  -36.873344 -88.129921 17.810423  -0.798579 -0.074601 -0.597249  0.261727 0.598621 1 1 1.000000
headlightlit
0  -36.873344 -88.129921 17.810423  -0.798579 -0.074601 -0.597249  0.261727 0.598621 1 1 1.000000
0  -35.441902 -89.506310 23.260906  -0.942913 0.068470 0.325925  0.261727 0.598621 1 1 1.000000
0  -34.547253 -87.083870 25.325485  -0.592394 0.036936 0.804801  0.261727 0.598621 1 1 1.000000
headlightlit
0  -35.152863 -89.698997 23.880280  -0.894947 -0.037952 0.444555  0.261727 0.598621 1 1 1.000000
0  -34.450905 -90.222023 25.077734  -0.655836 -0.082128 0.750423  0.261727 0.598621 1 1 1.000000
0  -34.547253 -87.083870 25.325485  -0.592394 0.036936 0.804801  0.261727 0.598621 1 1 1.000000
headlightlit
0  -31.133818 -92.424240 25.642052  -0.009297 0.059702 0.998173  0.261727 0.598621 1 1 1.000000
0  -24.362005 -87.111397 25.353012  0.724439 0.043877 0.687941  0.261727 0.598621 1 1 1.000000
0  -34.547253 -87.083870 25.325485  -0.592394 0.036936 0.804801  0.261727 0.598621 1 1 1.000000
headlightlit
0  -31.133818 -92.424240 25.642052  -0.009297 0.059702 0.998173  0.261727 0.598621 1 1 1.000000
0  -24.362003 -96.966309 26.027441  0.826673 -0.002732 0.562677  0.261727 0.598621 1 1 1.000000
0  -24.362005 -87.111397 25.353012  0.724439 0.043877 0.687941  0.261727 0.598621 1 1 1.000000
headlightlit
0  -24.472115 -87.097633 17.672783  0.001950 0.999998 0.000769  0.261727 0.598621 1 1 1.000000
0  -36.873344 -87.070107 17.659019  0.001755 0.999998 0.000510  0.261727 0.598621 1 1 1.000000
0  -34.547253 -87.083870 25.325485  0.002386 0.999996 0.001342  0.261727 0.598621 1 1 1.000000
headlightlit
0  -34.547253 -87.083870 25.325485  0.002386 0.999996 0.001342  0.261727 0.598621 1 1 1.000000
0  -24.362005 -87.111397 25.353012  0.002698 0.999995 0.001754  0.261727 0.598621 1 1 1.000000
0  -24.472115 -87.097633 17.672783  0.001950 0.999998 0.000769  0.261727 0.598621 1 1 1.000000
headlightlit
0  -30.294224 -87.744537 21.017399  0.609229 -0.491333 -0.622440  0.731468 0.578112 1 1 1.000000
0  -30.748430 -88.928223 21.526661  0.041310 -0.999146 -0.000000  0.754906 0.535142 1 1 1.000000
0  -31.312746 -87.744537 21.017399  -0.602589 -0.536906 -0.590439  0.731468 0.492172 1 1 1.000000
headlightlit
0  -31.312746 -87.744537 21.017399  -0.602589 -0.536906 -0.590439  0.731468 0.492172 1 1 1.000000
0  -30.748430 -88.928223 21.526661  0.041310 -0.999146 -0.000000  0.754906 0.535142 1 1 1.000000
0  -31.312746 -87.744537 22.035923  -0.602589 -0.536907 0.590439  0.777367 0.492172 1 1 1.000000
headlightlit
0  -31.312746 -87.744537 22.035923  -0.602589 -0.536907 0.590439  0.777367 0.492172 1 1 1.000000
0  -30.748430 -88.928223 21.526661  0.041310 -0.999146 -0.000000  0.754906 0.535142 1 1 1.000000
0  -30.294224 -87.744537 22.035923  0.609229 -0.491333 0.622440  0.777367 0.578112 1 1 1.000000
headlightlit
0  -30.294224 -87.744537 22.035923  0.609229 -0.491333 0.622440  0.777367 0.578112 1 1 1.000000
0  -30.748430 -88.928223 21.526661  0.041310 -0.999146 -0.000000  0.754906 0.535142 1 1 1.000000
0  -30.294224 -87.744537 21.017399  0.609229 -0.491333 -0.622440  0.731468 0.578112 1 1 1.000000
headlightlit
0  -32.207397 -89.588890 18.154518  0.193211 -0.865039 0.463008  0.843776 0.038057 1 1 1.000000
0  -30.803486 -89.588890 17.865479  0.000004 -0.865523 0.500870  0.748070 -0.000031 1 1 1.000000
0  -30.803486 -89.423729 18.154518  0.000003 -0.865487 0.500931  0.748070 0.039033 1 1 1.000000
headlightlit
0  -30.803486 -89.423729 18.154518  0.000003 -0.865487 0.500931  0.748070 0.039033 1 1 1.000000
0  -32.097290 -89.423729 18.416033  0.191739 -0.865440 0.462871  0.835963 0.074190 1 1 1.000000
0  -32.207397 -89.588890 18.154518  0.193211 -0.865039 0.463008  0.843776 0.038057 1 1 1.000000
headlightlit
0  -30.803486 -89.588890 17.865479  0.000004 -0.865523 0.500870  0.748070 -0.000031 1 1 1.000000
0  -29.413338 -89.588890 18.154518  -0.191880 -0.865363 0.462957  0.652364 0.038057 1 1 1.000000
0  -29.523447 -89.423729 18.416033  -0.191728 -0.865452 0.462853  0.660176 0.074190 1 1 1.000000
headlightlit
0  -29.523447 -89.423729 18.416033  -0.191728 -0.865452 0.462853  0.660176 0.074190 1 1 1.000000
0  -30.803486 -89.423729 18.154518  0.000003 -0.865487 0.500931  0.748070 0.039033 1 1 1.000000
0  -30.803486 -89.588890 17.865479  0.000004 -0.865523 0.500870  0.748070 -0.000031 1 1 1.000000
headlightlit
0  -29.413338 -89.588890 18.154518  -0.191880 -0.865363 0.462957  0.652364 0.038057 1 1 1.000000
0  -28.229645 -89.588890 18.939058  -0.354250 -0.865453 0.354258  0.571307 0.146458 1 1 1.000000
0  -28.422338 -89.423729 19.145515  -0.354243 -0.865456 0.354256  0.584979 0.174779 1 1 1.000000
headlightlit
0  -28.422338 -89.423729 19.145515  -0.354243 -0.865456 0.354256  0.584979 0.174779 1 1 1.000000
0  -29.523447 -89.423729 18.416033  -0.191728 -0.865452 0.462853  0.660176 0.074190 1 1 1.000000
0  -29.413338 -89.588890 18.154518  -0.191880 -0.865363 0.462957  0.652364 0.038057 1 1 1.000000
headlightlit
0  -28.229645 -89.588890 18.939058  -0.354250 -0.865453 0.354258  0.571307 0.146458 1 1 1.000000
0  -27.431341 -89.588890 20.122749  -0.463015 -0.865358 0.191762  0.516617 0.308573 1 1 1.000000
0  -27.692854 -89.423729 20.232861  -0.462925 -0.865418 0.191706  0.535173 0.324198 1 1 1.000000
headlightlit
0  -27.692854 -89.423729 20.232861  -0.462925 -0.865418 0.191706  0.535173 0.324198 1 1 1.000000
0  -28.422338 -89.423729 19.145515  -0.354243 -0.865456 0.354256  0.584979 0.174779 1 1 1.000000
0  -28.229645 -89.588890 18.939058  -0.354250 -0.865453 0.354258  0.571307 0.146458 1 1 1.000000
headlightlit
0  -27.431341 -89.588890 20.122749  -0.463015 -0.865358 0.191762  0.516617 0.308573 1 1 1.000000
0  -27.156065 -89.588890 21.526661  -0.500903 -0.865503 0.000004  0.498062 0.499985 1 1 1.000000
0  -27.445107 -89.423729 21.526661  -0.500986 -0.865456 -0.000003  0.517594 0.499985 1 1 1.000000
headlightlit
0  -27.445107 -89.423729 21.526661  -0.500986 -0.865456 -0.000003  0.517594 0.499985 1 1 1.000000
0  -27.692854 -89.423729 20.232861  -0.462925 -0.865418 0.191706  0.535173 0.324198 1 1 1.000000
0  -27.431341 -89.588890 20.122749  -0.463015 -0.865358 0.191762  0.516617 0.308573 1 1 1.000000
headlightlit
0  -27.156065 -89.588890 21.526661  -0.500903 -0.865503 0.000004  0.498062 0.499985 1 1 1.000000
0  -27.431341 -89.588890 22.916809  -0.462846 -0.865455 -0.191732  0.516617 0.691397 1 1 1.000000
0  -27.692854 -89.423729 22.806700  -0.463397 -0.865226 -0.191435  0.535173 0.676748 1 1 1.000000
headlightlit
0  -27.692854 -89.423729 22.806700  -0.463397 -0.865226 -0.191435  0.535173 0.676748 1 1 1.000000
0  -27.445107 -89.423729 21.526661  -0.500986 -0.865456 -0.000003  0.517594 0.499985 1 1 1.000000
0  -27.156065 -89.588890 21.526661  -0.500903 -0.865503 0.000004  0.498062 0.499985 1 1 1.000000
headlightlit
0  -27.431341 -89.588890 22.916809  -0.462846 -0.865455 -0.191732  0.516617 0.691397 1 1 1.000000
0  -28.229643 -89.588890 24.100502  -0.354241 -0.865472 -0.354220  0.571307 0.853511 1 1 1.000000
0  -28.422338 -89.423729 23.907806  -0.354248 -0.865462 -0.354237  0.584979 0.826167 1 1 1.000000
headlightlit
0  -28.422338 -89.423729 23.907806  -0.354248 -0.865462 -0.354237  0.584979 0.826167 1 1 1.000000
0  -27.692854 -89.423729 22.806700  -0.463397 -0.865226 -0.191435  0.535173 0.676748 1 1 1.000000
0  -27.431341 -89.588890 22.916809  -0.462846 -0.865455 -0.191732  0.516617 0.691397 1 1 1.000000
headlightlit
0  -28.229643 -89.588890 24.100502  -0.354241 -0.865472 -0.354220  0.571307 0.853511 1 1 1.000000
0  -29.413336 -89.588890 24.898802  -0.195976 -0.867029 -0.458098  0.652364 0.961913 1 1 1.000000
0  -29.523445 -89.423729 24.637291  -0.181110 -0.865417 -0.467175  0.660176 0.925779 1 1 1.000000
headlightlit
0  -29.523445 -89.423729 24.637291  -0.181110 -0.865417 -0.467175  0.660176 0.925779 1 1 1.000000
0  -28.422338 -89.423729 23.907806  -0.354248 -0.865462 -0.354237  0.584979 0.826167 1 1 1.000000
0  -28.229643 -89.588890 24.100502  -0.354241 -0.865472 -0.354220  0.571307 0.853511 1 1 1.000000
headlightlit
0  -30.803484 -89.437492 24.912569  -0.004300 -0.883596 -0.468230  0.748070 1.000000 1 1 1.000000
0  -32.207397 -89.588890 24.898802  0.199524 -0.865320 -0.459795  0.843776 0.961913 1 1 1.000000
0  -32.097290 -89.423729 24.637291  0.185761 -0.866699 -0.462954  0.835963 0.925779 1 1 1.000000
headlightlit
0  -32.097290 -89.423729 24.637291  0.185761 -0.866699 -0.462954  0.835963 0.925779 1 1 1.000000
0  -30.803484 -89.286079 24.637291  -0.003872 -0.883532 -0.468354  0.748070 0.925779 1 1 1.000000
0  -30.803484 -89.437492 24.912569  -0.004300 -0.883596 -0.468230  0.748070 1.000000 1 1 1.000000
headlightlit
0  -32.207397 -89.588890 24.898802  0.199524 -0.865320 -0.459795  0.843776 0.961913 1 1 1.000000
0  -33.391090 -89.588890 24.100502  0.354317 -0.865430 -0.354248  0.924833 0.853511 1 1 1.000000
0  -33.184628 -89.423729 23.907806  0.354251 -0.865457 -0.354245  0.911161 0.826167 1 1 1.000000
headlightlit
0  -33.184628 -89.423729 23.907806  0.354251 -0.865457 -0.354245  0.911161 0.826167 1 1 1.000000
0  -32.097290 -89.423729 24.637291  0.185761 -0.866699 -0.462954  0.835963 0.925779 1 1 1.000000
0  -32.207397 -89.588890 24.898802  0.199524 -0.865320 -0.459795  0.843776 0.961913 1 1 1.000000
headlightlit
0  -33.391090 -89.588890 24.100502  0.354317 -0.865430 -0.354248  0.924833 0.853511 1 1 1.000000
0  -34.175629 -89.588890 22.916809  0.462839 -0.865463 -0.191711  0.979522 0.691397 1 1 1.000000
0  -33.914116 -89.423729 22.806700  0.463400 -0.865109 -0.191956  0.960967 0.676748 1 1 1.000000
headlightlit
0  -33.914116 -89.423729 22.806700  0.463400 -0.865109 -0.191956  0.960967 0.676748 1 1 1.000000
0  -33.184628 -89.423729 23.907806  0.354251 -0.865457 -0.354245  0.911161 0.826167 1 1 1.000000
0  -33.391090 -89.588890 24.100502  0.354317 -0.865430 -0.354248  0.924833 0.853511 1 1 1.000000
headlightlit
0  -34.175629 -89.588890 22.916809  0.462839 -0.865463 -0.191711  0.979522 0.691397 1 1 1.000000
0  -34.464668 -89.588890 21.526661  0.500945 -0.865479 -0.000004  0.998077 0.499985 1 1 1.000000
0  -34.175629 -89.423729 21.526661  0.500945 -0.865479 -0.000004  0.978545 0.499985 1 1 1.000000
headlightlit
0  -34.175629 -89.423729 21.526661  0.500945 -0.865479 -0.000004  0.978545 0.499985 1 1 1.000000
0  -33.914116 -89.423729 22.806700  0.463400 -0.865109 -0.191956  0.960967 0.676748 1 1 1.000000
0  -34.175629 -89.588890 22.916809  0.462839 -0.865463 -0.191711  0.979522 0.691397 1 1 1.000000
headlightlit
0  -34.464668 -89.588890 21.526661  0.500945 -0.865479 -0.000004  0.998077 0.499985 1 1 1.000000
0  -34.175629 -89.588890 20.122749  0.462841 -0.865468 0.191687  0.979522 0.308573 1 1 1.000000
0  -33.914116 -89.423729 20.232861  0.462852 -0.865452 0.191730  0.960967 0.324198 1 1 1.000000
headlightlit
0  -33.914116 -89.423729 20.232861  0.462852 -0.865452 0.191730  0.960967 0.324198 1 1 1.000000
0  -34.175629 -89.423729 21.526661  0.500945 -0.865479 -0.000004  0.978545 0.499985 1 1 1.000000
0  -34.464668 -89.588890 21.526661  0.500945 -0.865479 -0.000004  0.998077 0.499985 1 1 1.000000
headlightlit
0  -34.175629 -89.588890 20.122749  0.462841 -0.865468 0.191687  0.979522 0.308573 1 1 1.000000
0  -33.391090 -89.588890 18.939058  0.354238 -0.865463 0.354244  0.924833 0.146458 1 1 1.000000
0  -33.184628 -89.423729 19.145515  0.354264 -0.865442 0.354270  0.911161 0.174779 1 1 1.000000
headlightlit
0  -33.184628 -89.423729 19.145515  0.354264 -0.865442 0.354270  0.911161 0.174779 1 1 1.000000
0  -33.914116 -89.423729 20.232861  0.462852 -0.865452 0.191730  0.960967 0.324198 1 1 1.000000
0  -34.175629 -89.588890 20.122749  0.462841 -0.865468 0.191687  0.979522 0.308573 1 1 1.000000
headlightlit
0  -32.207397 -89.588890 18.154518  0.193211 -0.865039 0.463008  0.843776 0.038057 1 1 1.000000
0  -32.097290 -89.423729 18.416033  0.191739 -0.865440 0.462871  0.835963 0.074190 1 1 1.000000
0  -33.184628 -89.423729 19.145515  0.354264 -0.865442 0.354270  0.911161 0.174779 1 1 1.000000
headlightlit
0  -33.184628 -89.423729 19.145515  0.354264 -0.865442 0.354270  0.911161 0.174779 1 1 1.000000
0  -33.391090 -89.588890 18.939058  0.354238 -0.865463 0.354244  0.924833 0.146458 1 1 1.000000
0  -32.207397 -89.588890 18.154518  0.193211 -0.865039 0.463008  0.843776 0.038057 1 1 1.000000
headlightlit
0  -32.097290 -89.423729 24.637291  0.308508 -0.881411 -0.357684  0.835963 0.925779 1 1 1.000000
0  -33.184628 -89.423729 23.907806  0.225676 -0.913780 -0.337751  0.911161 0.826167 1 1 1.000000
0  -33.184628 -88.542831 21.526661  0.471846 -0.880809 -0.039196  0.911161 0.499985 1 1 1.000000
headlightlit
0  -33.184628 -88.542831 21.526661  0.471846 -0.880809 -0.039196  0.911161 0.499985 1 1 1.000000
0  -32.097290 -87.923462 21.526661  0.470104 -0.882249 -0.025284  0.835963 0.499985 1 1 1.000000
0  -32.097290 -89.423729 24.637291  0.308508 -0.881411 -0.357684  0.835963 0.925779 1 1 1.000000
headlightlit
0  -28.422338 -89.423729 23.907806  -0.318334 -0.860823 -0.397048  0.584979 0.826167 1 1 1.000000
0  -29.523445 -89.423729 24.637291  -0.278968 -0.864738 -0.417619  0.660176 0.925779 1 1 1.000000
0  -29.523447 -87.923462 21.526661  -0.469916 -0.882344 0.025452  0.660176 0.499985 1 1 1.000000
headlightlit
0  -29.523447 -87.923462 21.526661  -0.469916 -0.882344 0.025452  0.660176 0.499985 1 1 1.000000
0  -28.422338 -88.542831 21.526661  -0.471664 -0.880894 0.039492  0.584979 0.499985 1 1 1.000000
0  -28.422338 -89.423729 23.907806  -0.318334 -0.860823 -0.397048  0.584979 0.826167 1 1 1.000000
headlightlit
0  -27.692854 -89.423729 22.806700  -0.525779 -0.811128 -0.256178  0.535173 0.676748 1 1 1.000000
0  -28.422338 -89.423729 23.907806  -0.460552 -0.832574 -0.307753  0.584979 0.826167 1 1 1.000000
0  -28.422338 -88.542831 21.526661  -0.604117 -0.796895 -0.000002  0.584979 0.499985 1 1 1.000000
headlightlit
0  -28.422338 -88.542831 21.526661  -0.604117 -0.796895 -0.000002  0.584979 0.499985 1 1 1.000000
0  -27.445107 -89.423729 21.526661  -0.665795 -0.746135 -0.000001  0.517594 0.499985 1 1 1.000000
0  -27.692854 -89.423729 22.806700  -0.525779 -0.811128 -0.256178  0.535173 0.676748 1 1 1.000000
headlightlit
0  -33.914116 -89.423729 22.806700  0.525900 -0.811042 -0.256203  0.960967 0.676748 1 1 1.000000
0  -34.175629 -89.423729 21.526661  0.665713 -0.746208 -0.000041  0.978545 0.499985 1 1 1.000000
0  -33.184628 -88.542831 21.526661  0.604085 -0.796920 -0.000027  0.911161 0.499985 1 1 1.000000
headlightlit
0  -33.184628 -88.542831 21.526661  0.604085 -0.796920 -0.000027  0.911161 0.499985 1 1 1.000000
0  -33.184628 -89.423729 23.907806  0.460550 -0.832574 -0.307758  0.911161 0.826167 1 1 1.000000
0  -33.914116 -89.423729 22.806700  0.525900 -0.811042 -0.256203  0.960967 0.676748 1 1 1.000000
headlightlit
0  -33.914116 -89.423729 20.232861  0.525592 -0.811211 0.256300  0.960967 0.324198 1 1 1.000000
0  -33.184628 -89.423729 19.145515  0.460381 -0.832642 0.307826  0.911161 0.174779 1 1 1.000000
0  -33.184628 -88.542831 21.526661  0.604085 -0.796920 -0.000027  0.911161 0.499985 1 1 1.000000
headlightlit
0  -33.184628 -88.542831 21.526661  0.604085 -0.796920 -0.000027  0.911161 0.499985 1 1 1.000000
0  -34.175629 -89.423729 21.526661  0.665713 -0.746208 -0.000041  0.978545 0.499985 1 1 1.000000
0  -33.914116 -89.423729 20.232861  0.525592 -0.811211 0.256300  0.960967 0.324198 1 1 1.000000
headlightlit
0  -33.184628 -89.423729 19.145515  0.318855 -0.860775 0.396735  0.911161 0.174779 1 1 1.000000
0  -32.097290 -89.423729 18.416033  0.279804 -0.864736 0.417062  0.835963 0.074190 1 1 1.000000
0  -32.097290 -87.923462 21.526661  0.470104 -0.882249 -0.025284  0.835963 0.499985 1 1 1.000000
headlightlit
0  -32.097290 -87.923462 21.526661  0.470104 -0.882249 -0.025284  0.835963 0.499985 1 1 1.000000
0  -33.184628 -88.542831 21.526661  0.471846 -0.880809 -0.039196  0.911161 0.499985 1 1 1.000000
0  -33.184628 -89.423729 19.145515  0.318855 -0.860775 0.396735  0.911161 0.174779 1 1 1.000000
headlightlit
0  -30.803486 -87.661957 21.526661  0.185617 -0.982559 -0.011137  0.748070 0.499985 1 1 1.000000
0  -32.097290 -87.923462 21.526661  0.186132 -0.982438 -0.013031  0.835963 0.499985 1 1 1.000000
0  -32.097290 -89.423729 18.416033  0.110125 -0.883825 0.454672  0.835963 0.074190 1 1 1.000000
headlightlit
0  -32.097290 -89.423729 18.416033  0.110125 -0.883825 0.454672  0.835963 0.074190 1 1 1.000000
0  -30.803486 -89.423729 18.154518  0.091964 -0.882486 0.461261  0.748070 0.039033 1 1 1.000000
0  -30.803486 -87.661957 21.526661  0.185617 -0.982559 -0.011137  0.748070 0.499985 1 1 1.000000
headlightlit
0  -30.803486 -89.423729 18.154518  -0.108044 -0.891886 0.439166  0.748070 0.039033 1 1 1.000000
0  -29.523447 -89.423729 18.416033  -0.086126 -0.897137 0.433276  0.660176 0.074190 1 1 1.000000
0  -29.523447 -87.923462 21.526661  -0.185975 -0.982464 0.013308  0.660176 0.499985 1 1 1.000000
headlightlit
0  -29.523447 -87.923462 21.526661  -0.185975 -0.982464 0.013308  0.660176 0.499985 1 1 1.000000
0  -30.803486 -87.661957 21.526661  -0.185462 -0.982588 0.011142  0.748070 0.499985 1 1 1.000000
0  -30.803486 -89.423729 18.154518  -0.108044 -0.891886 0.439166  0.748070 0.039033 1 1 1.000000
headlightlit
0  -28.422338 -88.542831 21.526661  -0.471664 -0.880894 0.039492  0.584979 0.499985 1 1 1.000000
0  -29.523447 -87.923462 21.526661  -0.469916 -0.882344 0.025452  0.660176 0.499985 1 1 1.000000
0  -29.523447 -89.423729 18.416033  -0.308268 -0.881479 0.357723  0.660176 0.074190 1 1 1.000000
headlightlit
0  -29.523447 -89.423729 18.416033  -0.308268 -0.881479 0.357723  0.660176 0.074190 1 1 1.000000
0  -28.422338 -89.423729 19.145515  -0.225634 -0.913786 0.337764  0.584979 0.174779 1 1 1.000000
0  -28.422338 -88.542831 21.526661  -0.471664 -0.880894 0.039492  0.584979 0.499985 1 1 1.000000
headlightlit
0  -28.422338 -88.542831 21.526661  -0.604117 -0.796895 -0.000002  0.584979 0.499985 1 1 1.000000
0  -28.422338 -89.423729 19.145515  -0.460298 -0.832679 0.307849  0.584979 0.174779 1 1 1.000000
0  -27.692854 -89.423729 20.232861  -0.526058 -0.811114 0.255651  0.535173 0.324198 1 1 1.000000
headlightlit
0  -27.692854 -89.423729 20.232861  -0.526058 -0.811114 0.255651  0.535173 0.324198 1 1 1.000000
0  -27.445107 -89.423729 21.526661  -0.665795 -0.746135 -0.000001  0.517594 0.499985 1 1 1.000000
0  -28.422338 -88.542831 21.526661  -0.604117 -0.796895 -0.000002  0.584979 0.499985 1 1 1.000000
headlightlit
0  -30.803484 -89.286079 24.637291  -0.003872 -0.883532 -0.468354  0.748070 0.925779 1 1 1.000000
0  -29.523445 -89.423729 24.637291  -0.181110 -0.865417 -0.467175  0.660176 0.925779 1 1 1.000000
0  -29.413336 -89.588890 24.898802  -0.195976 -0.867029 -0.458098  0.652364 0.961913 1 1 1.000000
headlightlit
0  -29.413336 -89.588890 24.898802  -0.195976 -0.867029 -0.458098  0.652364 0.961913 1 1 1.000000
0  -30.803484 -89.437492 24.912569  -0.004300 -0.883596 -0.468230  0.748070 1.000000 1 1 1.000000
0  -30.803484 -89.286079 24.637291  -0.003872 -0.883532 -0.468354  0.748070 0.925779 1 1 1.000000
headlightlit
0  -32.097290 -87.923462 21.526661  0.186132 -0.982438 -0.013031  0.835963 0.499985 1 1 1.000000
0  -30.803486 -87.661957 21.526661  0.185617 -0.982559 -0.011137  0.748070 0.499985 1 1 1.000000
0  -30.803484 -89.286079 24.637291  0.111838 -0.891726 -0.438540  0.748070 0.925779 1 1 1.000000
headlightlit
0  -30.803484 -89.286079 24.637291  0.111838 -0.891726 -0.438540  0.748070 0.925779 1 1 1.000000
0  -32.097290 -89.423729 24.637291  0.093255 -0.896563 -0.432987  0.835963 0.925779 1 1 1.000000
0  -32.097290 -87.923462 21.526661  0.186132 -0.982438 -0.013031  0.835963 0.499985 1 1 1.000000
headlightlit
0  -29.523445 -89.423729 24.637291  -0.111588 -0.884007 -0.453960  0.660176 0.925779 1 1 1.000000
0  -30.803484 -89.286079 24.637291  -0.091637 -0.882490 -0.461317  0.748070 0.925779 1 1 1.000000
0  -30.803486 -87.661957 21.526661  -0.185462 -0.982588 0.011142  0.748070 0.499985 1 1 1.000000
headlightlit
0  -30.803486 -87.661957 21.526661  -0.185462 -0.982588 0.011142  0.748070 0.499985 1 1 1.000000
0  -29.523447 -87.923462 21.526661  -0.185975 -0.982464 0.013308  0.660176 0.499985 1 1 1.000000
0  -29.523445 -89.423729 24.637291  -0.111588 -0.884007 -0.453960  0.660176 0.925779 1 1 1.000000
end
