version 1
nodes
0 "blender_implicit" -1
1 "root" -1
2 "steering_wheel" 1
end
skeleton
time 0
0  0.000000 0.000000 0.000000  0.000000 -0.000000 0.000000
1  0.000000 0.000000 0.000000  1.570796 -0.000000 0.000000
2  18.487606 30.459389 10.889965  0.000000 -0.000000 0.000000
end
triangles
chromemisc
0  43.548820 -13.461041 40.796047  -0.350853 0.935281 0.046383  0.382824 0.837886 1 1 1.000000
0  44.140667 -13.227057 40.658401  -0.350888 0.935269 0.046357  0.374035 0.842769 1 1 1.000000
0  44.415943 -13.116944 40.507004  -0.351566 0.935069 0.045261  0.368175 0.844722 1 1 1.000000
chromemisc
0  44.044319 -13.048125 36.391613  -0.350831 0.935291 0.046363  0.378918 0.913083 1 1 1.000000
0  37.657894 -15.429271 36.047516  -0.350874 0.935275 0.046339  0.471694 0.913083 1 1 1.000000
0  36.969700 -15.704548 36.171391  -0.350865 0.935281 0.046303  0.485366 0.912107 1 1 1.000000
chromemisc
0  44.360889 -12.938014 36.543015  -0.350879 0.935274 0.046327  0.373058 0.907224 1 1 1.000000
0  44.044319 -13.048125 36.391613  -0.350831 0.935291 0.046363  0.378918 0.913083 1 1 1.000000
0  36.969700 -15.704548 36.171391  -0.350865 0.935281 0.046303  0.485366 0.912107 1 1 1.000000
chromemisc
0  44.539818 -12.882957 36.777000  -0.350868 0.935279 0.046319  0.368175 0.899411 1 1 1.000000
0  44.360889 -12.938014 36.543015  -0.350879 0.935274 0.046327  0.373058 0.907224 1 1 1.000000
0  36.969700 -15.704548 36.171391  -0.350865 0.935281 0.046303  0.485366 0.912107 1 1 1.000000
chromemisc
0  44.539818 -12.882957 36.777000  -0.350868 0.935279 0.046319  0.368175 0.899411 1 1 1.000000
0  36.969700 -15.704548 36.171391  -0.350865 0.935281 0.046303  0.485366 0.912107 1 1 1.000000
0  36.639370 -15.842187 36.680653  -0.350863 0.935280 0.046325  0.492203 0.898434 1 1 1.000000
chromemisc
0  44.732513 -12.855431 37.478954  -0.350862 0.935280 0.046337  0.368175 0.893551 1 1 1.000000
0  44.539818 -12.882957 36.777000  -0.350868 0.935279 0.046319  0.368175 0.899411 1 1 1.000000
0  36.639370 -15.842187 36.680653  -0.350863 0.935280 0.046325  0.492203 0.898434 1 1 1.000000
chromemisc
0  44.732513 -12.855431 37.478954  -0.350862 0.935280 0.046337  0.368175 0.893551 1 1 1.000000
0  36.639370 -15.842187 36.680653  -0.350863 0.935280 0.046325  0.492203 0.898434 1 1 1.000000
0  36.212688 -16.144991 39.474716  -0.350861 0.935280 0.046346  0.495132 0.860347 1 1 1.000000
chromemisc
0  44.746277 -12.882957 38.249729  -0.350866 0.935280 0.046305  0.367199 0.879879 1 1 1.000000
0  44.732513 -12.855431 37.478954  -0.350862 0.935280 0.046337  0.368175 0.893551 1 1 1.000000
0  36.212688 -16.144991 39.474716  -0.350861 0.935280 0.046346  0.495132 0.860347 1 1 1.000000
chromemisc
0  44.746277 -12.882957 38.249729  -0.350866 0.935280 0.046305  0.367199 0.879879 1 1 1.000000
0  36.212688 -16.144991 39.474716  -0.350861 0.935280 0.046346  0.495132 0.860347 1 1 1.000000
0  36.143867 -16.213812 40.217960  -0.351420 0.935088 0.045987  0.493179 0.846675 1 1 1.000000
chromemisc
0  44.691223 -12.951777 39.323311  -0.350864 0.935280 0.046325  0.366222 0.867183 1 1 1.000000
0  44.746277 -12.882957 38.249729  -0.350866 0.935280 0.046305  0.367199 0.879879 1 1 1.000000
0  36.143867 -16.213812 40.217960  -0.351420 0.935088 0.045987  0.493179 0.846675 1 1 1.000000
chromemisc
0  44.691223 -12.951777 39.323311  -0.350864 0.935280 0.046325  0.366222 0.867183 1 1 1.000000
0  36.143867 -16.213812 40.217960  -0.351420 0.935088 0.045987  0.493179 0.846675 1 1 1.000000
0  36.171398 -16.227575 40.782276  -0.350857 0.935281 0.046348  0.493179 0.834956 1 1 1.000000
chromemisc
0  44.594872 -13.034361 40.190434  -0.350895 0.935231 0.047078  0.364269 0.849605 1 1 1.000000
0  44.691223 -12.951777 39.323311  -0.350864 0.935280 0.046325  0.366222 0.867183 1 1 1.000000
0  36.171398 -16.227575 40.782276  -0.350857 0.935281 0.046348  0.493179 0.834956 1 1 1.000000
chromemisc
0  44.594872 -13.034361 40.190434  -0.350895 0.935231 0.047078  0.364269 0.849605 1 1 1.000000
0  36.171398 -16.227575 40.782276  -0.350857 0.935281 0.046348  0.493179 0.834956 1 1 1.000000
0  36.295273 -16.186285 40.974972  -0.350861 0.935280 0.046344  0.488296 0.833979 1 1 1.000000
chromemisc
0  44.415943 -13.116944 40.507004  -0.351566 0.935069 0.045261  0.368175 0.844722 1 1 1.000000
0  44.594872 -13.034361 40.190434  -0.350895 0.935231 0.047078  0.364269 0.849605 1 1 1.000000
0  36.295273 -16.186285 40.974972  -0.350861 0.935280 0.046344  0.488296 0.833979 1 1 1.000000
chromemisc
0  36.295273 -16.186285 40.974972  -0.350861 0.935280 0.046344  0.488296 0.833979 1 1 1.000000
0  36.487965 -16.117464 41.071320  -0.350888 0.935272 0.046310  0.486343 0.830073 1 1 1.000000
0  41.924686 -14.080415 40.947445  -0.350857 0.935282 0.046338  0.408216 0.835932 1 1 1.000000
chromemisc
0  44.415943 -13.116944 40.507004  -0.351566 0.935069 0.045261  0.368175 0.844722 1 1 1.000000
0  36.295273 -16.186285 40.974972  -0.350861 0.935280 0.046344  0.488296 0.833979 1 1 1.000000
0  41.924686 -14.080415 40.947445  -0.350857 0.935282 0.046338  0.408216 0.835932 1 1 1.000000
chromemisc
0  44.415943 -13.116944 40.507004  -0.351566 0.935069 0.045261  0.368175 0.844722 1 1 1.000000
0  41.924686 -14.080415 40.947445  -0.350857 0.935282 0.046338  0.408216 0.835932 1 1 1.000000
0  42.626644 -13.805138 40.892391  -0.350980 0.935260 0.045846  0.396496 0.836909 1 1 1.000000
chromemisc
0  43.548820 -13.461041 40.796047  -0.350853 0.935281 0.046383  0.382824 0.837886 1 1 1.000000
0  44.415943 -13.116944 40.507004  -0.351566 0.935069 0.045261  0.368175 0.844722 1 1 1.000000
0  42.626644 -13.805138 40.892391  -0.350980 0.935260 0.045846  0.396496 0.836909 1 1 1.000000
misc
0  38.717712 -21.044920 37.231205  0.507033 -0.826609 0.244201  0.078127 0.654286 1 1 1.000000
0  43.383652 -18.140749 37.286263  0.607133 -0.784750 0.124724  0.078127 0.654286 1 1 1.000000
0  43.259781 -18.003111 37.988216  0.570821 -0.781528 0.251748  0.078127 0.654286 1 1 1.000000
misc
0  43.259781 -18.003111 37.988216  0.570821 -0.781528 0.251748  0.078127 0.654286 1 1 1.000000
0  38.580070 -20.824697 37.905636  0.478904 -0.797530 0.366874  0.078127 0.654286 1 1 1.000000
0  38.717712 -21.044920 37.231205  0.507033 -0.826609 0.244201  0.078127 0.654286 1 1 1.000000
misc
0  37.644131 -19.544662 38.690174  0.129474 -0.281321 0.950839  0.078127 0.654286 1 1 1.000000
0  34.340805 -20.989866 38.703941  0.114044 -0.255018 0.960187  0.078127 0.654286 1 1 1.000000
0  34.437153 -21.636768 38.483719  0.157515 -0.337814 0.927939  0.078127 0.654286 1 1 1.000000
misc
0  34.437153 -21.636768 38.483719  0.157515 -0.337814 0.927939  0.078127 0.654286 1 1 1.000000
0  38.112099 -19.613480 38.593830  0.200932 -0.398788 0.894759  0.078127 0.654286 1 1 1.000000
0  37.644131 -19.544662 38.690174  0.129474 -0.281321 0.950839  0.078127 0.654286 1 1 1.000000
misc
0  43.025795 -17.493849 38.483719  0.381828 -0.532448 0.755451  0.078127 0.654286 1 1 1.000000
0  38.112099 -19.613480 38.593830  0.200966 -0.398819 0.894738  0.078127 0.654286 1 1 1.000000
0  38.580070 -20.824697 37.905636  0.226569 -0.426420 0.875690  0.078127 0.654286 1 1 1.000000
misc
0  38.580070 -20.824697 37.905636  0.226569 -0.426420 0.875690  0.078127 0.654286 1 1 1.000000
0  43.259781 -18.003111 37.988216  0.372761 -0.546355 0.750030  0.078127 0.654286 1 1 1.000000
0  43.025795 -17.493849 38.483719  0.381828 -0.532448 0.755451  0.078127 0.654286 1 1 1.000000
misc
0  43.259781 -18.003111 37.988216  0.372761 -0.546355 0.750030  0.078127 0.654286 1 1 1.000000
0  44.374653 -17.025875 38.057037  0.421915 -0.440558 0.792399  0.078127 0.654286 1 1 1.000000
0  43.892918 -16.764364 38.469952  0.431017 -0.454100 0.779755  0.078127 0.654286 1 1 1.000000
misc
0  43.892918 -16.764364 38.469952  0.431017 -0.454100 0.779755  0.078127 0.654286 1 1 1.000000
0  43.025795 -17.493849 38.483719  0.381828 -0.532448 0.755451  0.078127 0.654286 1 1 1.000000
0  43.259781 -18.003111 37.988216  0.372761 -0.546355 0.750030  0.078127 0.654286 1 1 1.000000
misc
0  44.443470 -17.108461 37.341316  0.785549 -0.616194 0.056730  0.078127 0.654286 1 1 1.000000
0  43.383652 -18.140749 37.286263  0.607133 -0.784750 0.124724  0.078127 0.654286 1 1 1.000000
0  43.369888 -18.168276 36.639362  0.619880 -0.784561 0.014598  0.078127 0.654286 1 1 1.000000
misc
0  43.369888 -18.168276 36.639362  0.619880 -0.784561 0.014598  0.078127 0.654286 1 1 1.000000
0  44.374653 -17.163515 36.611835  0.790943 -0.610910 -0.034621  0.078127 0.654286 1 1 1.000000
0  44.443470 -17.108461 37.341316  0.785549 -0.616194 0.056730  0.078127 0.654286 1 1 1.000000
misc
0  45.117897 -13.075652 37.437664  0.986515 0.109163 -0.121951  0.078127 0.654286 1 1 1.000000
0  45.241776 -14.864953 37.492722  0.995412 -0.062502 -0.072445  0.078127 0.654286 1 1 1.000000
0  45.076607 -14.906245 36.625599  0.980182 -0.053176 -0.190828  0.078127 0.654286 1 1 1.000000
misc
0  45.076607 -14.906245 36.625599  0.980182 -0.053176 -0.190828  0.078127 0.654286 1 1 1.000000
0  44.911442 -13.089417 36.570541  0.963779 0.122488 -0.236911  0.078127 0.654286 1 1 1.000000
0  45.117897 -13.075652 37.437664  0.986515 0.109163 -0.121951  0.078127 0.654286 1 1 1.000000
misc
0  35.909885 -17.177280 39.199436  -0.952840 -0.297308 0.060861  0.076174 0.662099 1 1 1.000000
0  37.217449 -19.145512 38.814049  -0.720238 -0.689783 0.073864  0.082034 0.662099 1 1 1.000000
0  37.052284 -18.883999 39.557297  -0.745977 -0.655865 0.115581  0.080081 0.660146 1 1 1.000000
misc
0  37.052284 -18.883999 39.557297  -0.745977 -0.655865 0.115581  0.080081 0.660146 1 1 1.000000
0  36.185162 -17.548906 39.887627  -0.870637 -0.473060 0.134926  0.076174 0.662099 1 1 1.000000
0  35.909885 -17.177280 39.199436  -0.952840 -0.297308 0.060861  0.076174 0.662099 1 1 1.000000
misc
0  36.804535 -18.003113 40.933681  -0.493292 -0.533513 0.687042  0.078127 0.660146 1 1 1.000000
0  37.148628 -17.920530 41.057556  -0.023214 -0.417430 0.908412  0.078127 0.658193 1 1 1.000000
0  36.364090 -16.227575 41.456707  -0.107387 -0.193842 0.975138  0.074221 0.658193 1 1 1.000000
misc
0  36.364090 -16.227575 41.456707  -0.107387 -0.193842 0.975138  0.074221 0.658193 1 1 1.000000
0  36.019997 -16.337687 41.319069  -0.571785 -0.379469 0.727368  0.074221 0.660146 1 1 1.000000
0  36.804535 -18.003113 40.933681  -0.493292 -0.533513 0.687042  0.078127 0.660146 1 1 1.000000
misc
0  37.148628 -17.920530 41.057556  -0.023214 -0.417430 0.908412  0.078127 0.658193 1 1 1.000000
0  42.544056 -15.952297 40.906155  0.199276 -0.379335 0.903545  0.078127 0.656240 1 1 1.000000
0  42.007271 -14.369454 41.346600  0.093286 -0.141619 0.985516  0.074221 0.656240 1 1 1.000000
misc
0  42.007271 -14.369454 41.346600  0.093286 -0.141619 0.985516  0.074221 0.656240 1 1 1.000000
0  36.364090 -16.227575 41.456707  -0.107387 -0.193842 0.975138  0.074221 0.658193 1 1 1.000000
0  37.148628 -17.920530 41.057556  -0.023214 -0.417430 0.908412  0.078127 0.658193 1 1 1.000000
misc
0  44.140667 -14.975064 40.796047  0.417294 -0.351026 0.838240  0.076174 0.654286 1 1 1.000000
0  44.691223 -14.300635 40.754749  0.655862 -0.197306 0.728639  0.076174 0.654286 1 1 1.000000
0  44.429707 -13.543624 40.988735  0.403921 -0.071399 0.912004  0.074221 0.654286 1 1 1.000000
misc
0  44.429707 -13.543624 40.988735  0.403921 -0.071399 0.912004  0.074221 0.654286 1 1 1.000000
0  43.713985 -13.791373 41.167667  0.229428 -0.129022 0.964736  0.074221 0.654286 1 1 1.000000
0  44.140667 -14.975064 40.796047  0.417294 -0.351026 0.838240  0.076174 0.654286 1 1 1.000000
misc
0  44.429707 -13.543624 40.988735  0.403921 -0.071399 0.912004  0.074221 0.654286 1 1 1.000000
0  44.691223 -14.300635 40.754749  0.655862 -0.197306 0.728639  0.076174 0.654286 1 1 1.000000
0  44.718750 -13.433513 40.809811  0.730551 -0.010814 0.682773  0.074221 0.654286 1 1 1.000000
misc
0  37.148628 -17.920530 41.057556  -0.023214 -0.417430 0.908412  0.078127 0.654286 1 1 1.000000
0  36.804535 -18.003113 40.933681  -0.493292 -0.533513 0.687042  0.078127 0.654286 1 1 1.000000
0  37.134865 -18.677540 40.451946  -0.425570 -0.735564 0.527102  0.078127 0.654286 1 1 1.000000
misc
0  37.134865 -18.677540 40.451946  -0.425570 -0.735564 0.527102  0.078127 0.654286 1 1 1.000000
0  37.602840 -18.760124 40.479477  0.055446 -0.717171 0.694688  0.078127 0.654286 1 1 1.000000
0  37.148628 -17.920530 41.057556  -0.023214 -0.417430 0.908412  0.078127 0.654286 1 1 1.000000
misc
0  42.544056 -15.952297 40.906155  0.199276 -0.379335 0.903545  0.078127 0.654286 1 1 1.000000
0  37.148628 -17.920530 41.057556  -0.023214 -0.417430 0.908412  0.078127 0.654286 1 1 1.000000
0  37.602840 -18.760124 40.479477  0.055446 -0.717171 0.694688  0.078127 0.654286 1 1 1.000000
misc
0  37.602840 -18.760124 40.479477  0.055446 -0.717171 0.694688  0.078127 0.654286 1 1 1.000000
0  42.791809 -16.736835 40.328072  0.357264 -0.663063 0.657807  0.078127 0.654286 1 1 1.000000
0  42.544056 -15.952297 40.906155  0.199276 -0.379335 0.903545  0.078127 0.654286 1 1 1.000000
misc
0  44.347126 -15.498090 40.286781  0.675587 -0.539405 0.502617  0.078127 0.654286 1 1 1.000000
0  44.856384 -14.617204 40.355602  0.872398 -0.288210 0.394786  0.078127 0.654286 1 1 1.000000
0  44.691223 -14.300635 40.754749  0.655862 -0.197306 0.728639  0.078127 0.654286 1 1 1.000000
misc
0  44.691223 -14.300635 40.754749  0.655862 -0.197306 0.728639  0.078127 0.654286 1 1 1.000000
0  44.140667 -14.975064 40.796047  0.417294 -0.351026 0.838240  0.078127 0.654286 1 1 1.000000
0  44.347126 -15.498090 40.286781  0.675587 -0.539405 0.502617  0.078127 0.654286 1 1 1.000000
misc
0  43.369888 -18.168276 36.639362  0.364361 -0.454844 -0.812624  0.078127 0.654286 1 1 1.000000
0  38.800293 -21.086212 36.584305  0.342383 -0.513802 -0.786627  0.078127 0.654286 1 1 1.000000
0  38.635128 -20.466839 36.102570  0.278163 -0.399284 -0.873612  0.078127 0.654286 1 1 1.000000
misc
0  38.635128 -20.466839 36.102570  0.278163 -0.399284 -0.873612  0.078127 0.654286 1 1 1.000000
0  42.998268 -17.727833 36.240208  0.285258 -0.344053 -0.894570  0.078127 0.654286 1 1 1.000000
0  43.369888 -18.168276 36.639362  0.364361 -0.454844 -0.812624  0.078127 0.654286 1 1 1.000000
misc
0  45.076607 -14.906245 36.625599  0.671297 -0.061022 -0.738672  0.078127 0.654286 1 1 1.000000
0  44.842621 -16.268866 36.611835  0.540487 -0.193606 -0.818774  0.078127 0.654286 1 1 1.000000
0  44.374653 -15.952296 36.226444  0.430006 -0.147535 -0.890690  0.078127 0.654286 1 1 1.000000
misc
0  44.374653 -15.952296 36.226444  0.430006 -0.147535 -0.890690  0.078127 0.654286 1 1 1.000000
0  44.677460 -14.823660 36.240208  0.541838 -0.061588 -0.838224  0.078127 0.654286 1 1 1.000000
0  45.076607 -14.906245 36.625599  0.671297 -0.061022 -0.738672  0.078127 0.654286 1 1 1.000000
misc
0  44.085609 -14.741079 36.019989  0.234102 -0.059319 -0.970401  0.078127 0.654286 1 1 1.000000
0  44.085609 -13.309638 35.951172  0.243308 0.024966 -0.969628  0.078127 0.654286 1 1 1.000000
0  44.581108 -13.158236 36.185154  0.597262 0.065937 -0.799331  0.078127 0.654286 1 1 1.000000
misc
0  44.581108 -13.158236 36.185154  0.597262 0.065937 -0.799331  0.078127 0.654286 1 1 1.000000
0  44.677460 -14.823660 36.240208  0.541838 -0.061588 -0.838224  0.078127 0.654286 1 1 1.000000
0  44.085609 -14.741079 36.019989  0.234102 -0.059319 -0.970401  0.078127 0.654286 1 1 1.000000
misc
0  37.878117 -17.562670 35.662128  0.021930 -0.039750 -0.998969  0.078127 0.654286 1 1 1.000000
0  42.062325 -17.287390 35.951172  0.131276 -0.134286 -0.982209  0.078127 0.654286 1 1 1.000000
0  38.373615 -19.544661 35.772240  0.125467 -0.151492 -0.980463  0.078127 0.654286 1 1 1.000000
misc
0  44.085609 -13.309638 35.951172  0.243308 0.024966 -0.969628  0.078127 0.654286 1 1 1.000000
0  44.085609 -14.741079 36.019989  0.234102 -0.059319 -0.970401  0.078127 0.654286 1 1 1.000000
0  37.589073 -15.429271 35.552017  -0.033581 0.011877 -0.999365  0.078127 0.654286 1 1 1.000000
misc
0  44.085609 -14.741079 36.019989  0.234102 -0.059319 -0.970401  0.078127 0.654286 1 1 1.000000
0  43.727749 -15.621965 36.006226  0.183549 -0.078150 -0.979899  0.078127 0.654286 1 1 1.000000
0  37.589073 -15.429271 35.552017  -0.033581 0.011877 -0.999365  0.078127 0.654286 1 1 1.000000
misc
0  36.501732 -15.773369 35.675892  -0.850056 0.096705 -0.517739  0.078127 0.654286 1 1 1.000000
0  35.937412 -18.126986 35.703419  -0.981392 0.086489 -0.171434  0.078127 0.654286 1 1 1.000000
0  36.102577 -15.966061 36.309029  -0.942704 0.054704 -0.329114  0.078127 0.654286 1 1 1.000000
misc
0  35.909885 -17.177280 39.199436  0.116854 0.966094 -0.230232  0.078127 0.654286 1 1 1.000000
0  35.937412 -18.126986 35.703419  0.342300 0.907965 -0.241724  0.078127 0.654286 1 1 1.000000
0  35.538261 -17.975586 35.703419  0.287682 0.927110 -0.240223  0.078127 0.654286 1 1 1.000000
misc
0  35.538261 -17.975586 35.703419  0.287682 0.927110 -0.240223  0.078127 0.654286 1 1 1.000000
0  34.161877 -16.998350 39.254494  0.098687 0.968457 -0.228804  0.078127 0.654286 1 1 1.000000
0  35.909885 -17.177280 39.199436  0.116854 0.966094 -0.230232  0.078127 0.654286 1 1 1.000000
misc
0  35.937412 -18.126986 35.703419  -0.981392 0.086489 -0.171434  0.078127 0.654286 1 1 1.000000
0  35.909885 -17.177280 39.199436  -0.952840 -0.297308 0.060861  0.078127 0.654286 1 1 1.000000
0  35.772247 -16.282631 39.337074  -0.974474 -0.214161 -0.067348  0.078127 0.654286 1 1 1.000000
misc
0  35.772247 -16.282631 39.337074  -0.974474 -0.214161 -0.067348  0.078127 0.654286 1 1 1.000000
0  36.102577 -15.966061 36.309029  -0.942704 0.054704 -0.329114  0.078127 0.654286 1 1 1.000000
0  35.937412 -18.126986 35.703419  -0.981392 0.086489 -0.171434  0.078127 0.654286 1 1 1.000000
misc
0  37.217449 -19.145512 38.814049  -0.720238 -0.689783 0.073864  0.078127 0.654286 1 1 1.000000
0  37.644131 -19.544662 38.690174  -0.307289 -0.927473 0.212996  0.078127 0.654286 1 1 1.000000
0  37.465199 -19.255623 39.571060  -0.403840 -0.862685 0.304447  0.078127 0.654286 1 1 1.000000
misc
0  37.465199 -19.255623 39.571060  -0.403840 -0.862685 0.304447  0.078127 0.654286 1 1 1.000000
0  37.052284 -18.883999 39.557297  -0.745977 -0.655865 0.115581  0.078127 0.654286 1 1 1.000000
0  37.217449 -19.145512 38.814049  -0.720238 -0.689783 0.073864  0.078127 0.654286 1 1 1.000000
misc
0  38.112099 -19.613480 38.593830  0.190404 -0.939078 0.286146  0.078127 0.654286 1 1 1.000000
0  43.025795 -17.493849 38.483719  0.501101 -0.823000 0.267526  0.078127 0.654286 1 1 1.000000
0  42.943211 -17.246098 39.405895  0.474156 -0.798482 0.370948  0.078127 0.654286 1 1 1.000000
misc
0  42.943211 -17.246098 39.405895  0.474156 -0.798482 0.370948  0.078127 0.654286 1 1 1.000000
0  37.946934 -19.351969 39.529770  0.115535 -0.900652 0.418900  0.078127 0.654286 1 1 1.000000
0  38.112099 -19.613480 38.593830  0.190404 -0.939078 0.286146  0.078127 0.654286 1 1 1.000000
misc
0  44.484760 -15.814658 39.337074  0.790070 -0.565847 0.235812  0.078127 0.654286 1 1 1.000000
0  45.035316 -14.809896 39.350838  0.943408 -0.266910 0.196827  0.078127 0.654286 1 1 1.000000
0  44.856384 -14.617204 40.355602  0.872398 -0.288210 0.394786  0.078127 0.654286 1 1 1.000000
misc
0  44.856384 -14.617204 40.355602  0.872398 -0.288210 0.394786  0.078127 0.654286 1 1 1.000000
0  44.347126 -15.498090 40.286781  0.675587 -0.539405 0.502617  0.078127 0.654286 1 1 1.000000
0  44.484760 -15.814658 39.337074  0.790070 -0.565847 0.235812  0.078127 0.654286 1 1 1.000000
misc
0  45.049080 -13.227056 39.405895  0.991172 0.057853 0.119298  0.074221 0.650380 1 1 1.000000
0  45.035316 -14.809896 39.350838  0.943408 -0.266910 0.196827  0.078127 0.650380 1 1 1.000000
0  45.200485 -14.837426 38.456188  0.980712 -0.161326 0.110352  0.078127 0.646474 1 1 1.000000
misc
0  45.200485 -14.837426 38.456188  0.980712 -0.161326 0.110352  0.078127 0.646474 1 1 1.000000
0  45.131660 -13.116944 38.332314  0.994793 0.093069 0.041536  0.074221 0.646474 1 1 1.000000
0  45.049080 -13.227056 39.405895  0.991172 0.057853 0.119298  0.074221 0.650380 1 1 1.000000
misc
0  44.883915 -16.172520 38.208439  0.441031 -0.338568 0.831182  0.078127 0.654286 1 1 1.000000
0  45.200485 -14.837426 38.456188  0.480920 -0.272039 0.833493  0.078127 0.654286 1 1 1.000000
0  44.553581 -15.979823 38.469952  0.455696 -0.332746 0.825604  0.078127 0.654286 1 1 1.000000
misc
0  45.241776 -14.864953 37.492722  0.995412 -0.062502 -0.072445  0.078127 0.654286 1 1 1.000000
0  44.980263 -16.200047 37.410137  0.936998 -0.349196 -0.009865  0.078127 0.654286 1 1 1.000000
0  44.842621 -16.268866 36.611835  0.933977 -0.331879 -0.132451  0.078127 0.654286 1 1 1.000000
misc
0  44.842621 -16.268866 36.611835  0.933977 -0.331879 -0.132451  0.078127 0.654286 1 1 1.000000
0  45.076607 -14.906245 36.625599  0.980182 -0.053176 -0.190828  0.078127 0.654286 1 1 1.000000
0  45.241776 -14.864953 37.492722  0.995412 -0.062502 -0.072445  0.078127 0.654286 1 1 1.000000
misc
0  42.544056 -15.952297 40.906155  0.199276 -0.379335 0.903545  0.078127 0.656240 1 1 1.000000
0  43.342361 -15.594438 40.851101  0.294872 -0.376467 0.878250  0.078127 0.656240 1 1 1.000000
0  42.764278 -14.121706 41.291542  0.141928 -0.138060 0.980202  0.074221 0.656240 1 1 1.000000
misc
0  42.764278 -14.121706 41.291542  0.141928 -0.138060 0.980202  0.074221 0.656240 1 1 1.000000
0  42.007271 -14.369454 41.346600  0.093286 -0.141619 0.985516  0.074221 0.656240 1 1 1.000000
0  42.544056 -15.952297 40.906155  0.199276 -0.379335 0.903545  0.078127 0.656240 1 1 1.000000
misc
0  42.791809 -16.736835 40.328072  0.357264 -0.663063 0.657807  0.078127 0.654286 1 1 1.000000
0  43.603874 -16.213810 40.300545  0.515358 -0.620242 0.591359  0.078127 0.654286 1 1 1.000000
0  43.342361 -15.594438 40.851101  0.294872 -0.376467 0.878250  0.078127 0.654286 1 1 1.000000
misc
0  43.342361 -15.594438 40.851101  0.294872 -0.376467 0.878250  0.078127 0.654286 1 1 1.000000
0  42.544056 -15.952297 40.906155  0.199276 -0.379335 0.903545  0.078127 0.654286 1 1 1.000000
0  42.791809 -16.736835 40.328072  0.357264 -0.663063 0.657807  0.078127 0.654286 1 1 1.000000
misc
0  42.998268 -17.727833 36.240208  0.285258 -0.344053 -0.894570  0.078127 0.654286 1 1 1.000000
0  43.920444 -16.819420 36.226444  0.346873 -0.256968 -0.902023  0.078127 0.654286 1 1 1.000000
0  44.374653 -17.163515 36.611835  0.447961 -0.338600 -0.827455  0.078127 0.654286 1 1 1.000000
misc
0  44.374653 -17.163515 36.611835  0.447961 -0.338600 -0.827455  0.078127 0.654286 1 1 1.000000
0  43.369888 -18.168276 36.639362  0.364361 -0.454844 -0.812624  0.078127 0.654286 1 1 1.000000
0  42.998268 -17.727833 36.240208  0.285258 -0.344053 -0.894570  0.078127 0.654286 1 1 1.000000
misc
0  42.943211 -17.246098 39.405895  0.474156 -0.798482 0.370948  0.078127 0.654286 1 1 1.000000
0  43.769047 -16.585432 39.364605  0.652084 -0.694638 0.303751  0.078127 0.654286 1 1 1.000000
0  43.603874 -16.213810 40.300545  0.515358 -0.620242 0.591359  0.078127 0.654286 1 1 1.000000
misc
0  43.603874 -16.213810 40.300545  0.515358 -0.620242 0.591359  0.078127 0.654286 1 1 1.000000
0  42.791809 -16.736835 40.328072  0.357264 -0.663063 0.657807  0.078127 0.654286 1 1 1.000000
0  42.943211 -17.246098 39.405895  0.474156 -0.798482 0.370948  0.078127 0.654286 1 1 1.000000
misc
0  44.374653 -17.025875 38.057037  0.421915 -0.440558 0.792399  0.078127 0.654286 1 1 1.000000
0  44.883915 -16.172520 38.208439  0.441031 -0.338568 0.831182  0.078127 0.654286 1 1 1.000000
0  44.553581 -15.979823 38.469952  0.455696 -0.332746 0.825604  0.078127 0.654286 1 1 1.000000
misc
0  44.553581 -15.979823 38.469952  0.455696 -0.332746 0.825604  0.078127 0.654286 1 1 1.000000
0  43.892918 -16.764364 38.469952  0.431017 -0.454100 0.779755  0.078127 0.654286 1 1 1.000000
0  44.374653 -17.025875 38.057037  0.421915 -0.440558 0.792399  0.078127 0.654286 1 1 1.000000
misc
0  44.980263 -16.200047 37.410137  0.936998 -0.349196 -0.009865  0.078127 0.654286 1 1 1.000000
0  44.443470 -17.108461 37.341316  0.785549 -0.616194 0.056730  0.078127 0.654286 1 1 1.000000
0  44.374653 -17.163515 36.611835  0.790943 -0.610910 -0.034621  0.078127 0.654286 1 1 1.000000
misc
0  44.374653 -17.163515 36.611835  0.790943 -0.610910 -0.034621  0.078127 0.654286 1 1 1.000000
0  44.842621 -16.268866 36.611835  0.933977 -0.331879 -0.132451  0.078127 0.654286 1 1 1.000000
0  44.980263 -16.200047 37.410137  0.936998 -0.349196 -0.009865  0.078127 0.654286 1 1 1.000000
misc
0  43.342361 -15.594438 40.851101  0.294872 -0.376467 0.878250  0.078127 0.656240 1 1 1.000000
0  44.140667 -14.975064 40.796047  0.417294 -0.351026 0.838240  0.076174 0.654286 1 1 1.000000
0  43.713985 -13.791373 41.167667  0.229428 -0.129022 0.964736  0.078127 0.654286 1 1 1.000000
misc
0  43.713985 -13.791373 41.167667  0.229428 -0.129022 0.964736  0.078127 0.654286 1 1 1.000000
0  42.764278 -14.121706 41.291542  0.141928 -0.138060 0.980202  0.078127 0.658193 1 1 1.000000
0  43.342361 -15.594438 40.851101  0.294872 -0.376467 0.878250  0.078127 0.656240 1 1 1.000000
misc
0  44.140667 -14.975064 40.796047  0.417294 -0.351026 0.838240  0.076174 0.654286 1 1 1.000000
0  43.342361 -15.594438 40.851101  0.294872 -0.376467 0.878250  0.078127 0.656240 1 1 1.000000
0  43.603874 -16.213810 40.300545  0.515358 -0.620242 0.591359  0.078127 0.654286 1 1 1.000000
misc
0  43.603874 -16.213810 40.300545  0.515358 -0.620242 0.591359  0.078127 0.654286 1 1 1.000000
0  44.347126 -15.498090 40.286781  0.675587 -0.539405 0.502617  0.078127 0.654286 1 1 1.000000
0  44.140667 -14.975064 40.796047  0.417294 -0.351026 0.838240  0.076174 0.654286 1 1 1.000000
misc
0  44.842621 -16.268866 36.611835  0.540487 -0.193606 -0.818774  0.078127 0.654286 1 1 1.000000
0  44.374653 -17.163515 36.611835  0.447961 -0.338600 -0.827455  0.078127 0.654286 1 1 1.000000
0  43.920444 -16.819420 36.226444  0.346873 -0.256968 -0.902023  0.078127 0.654286 1 1 1.000000
misc
0  43.920444 -16.819420 36.226444  0.346873 -0.256968 -0.902023  0.078127 0.654286 1 1 1.000000
0  44.374653 -15.952296 36.226444  0.430006 -0.147535 -0.890690  0.078127 0.654286 1 1 1.000000
0  44.842621 -16.268866 36.611835  0.540487 -0.193606 -0.818774  0.078127 0.654286 1 1 1.000000
misc
0  43.769047 -16.585432 39.364605  0.652084 -0.694638 0.303751  0.078127 0.654286 1 1 1.000000
0  44.484760 -15.814658 39.337074  0.790070 -0.565847 0.235812  0.078127 0.654286 1 1 1.000000
0  44.347126 -15.498090 40.286781  0.675587 -0.539405 0.502617  0.078127 0.654286 1 1 1.000000
misc
0  44.347126 -15.498090 40.286781  0.675587 -0.539405 0.502617  0.078127 0.654286 1 1 1.000000
0  43.603874 -16.213810 40.300545  0.515358 -0.620242 0.591359  0.078127 0.654286 1 1 1.000000
0  43.769047 -16.585432 39.364605  0.652084 -0.694638 0.303751  0.078127 0.654286 1 1 1.000000
misc
0  44.787567 -12.346169 36.611835  0.957214 0.154675 -0.244575  0.078127 0.654286 1 1 1.000000
0  45.021553 -12.318641 37.465191  0.981492 0.138991 -0.131740  0.078127 0.654286 1 1 1.000000
0  45.117897 -13.075652 37.437664  0.986515 0.109163 -0.121951  0.078127 0.654286 1 1 1.000000
misc
0  45.117897 -13.075652 37.437664  0.986515 0.109163 -0.121951  0.078127 0.654286 1 1 1.000000
0  44.911442 -13.089417 36.570541  0.963779 0.122488 -0.236911  0.078127 0.654286 1 1 1.000000
0  44.787567 -12.346169 36.611835  0.957214 0.154675 -0.244575  0.078127 0.654286 1 1 1.000000
misc
0  44.581108 -13.158236 36.185154  0.597262 0.065937 -0.799331  0.078127 0.654286 1 1 1.000000
0  44.085609 -13.309638 35.951172  0.243308 0.024966 -0.969628  0.078127 0.654286 1 1 1.000000
0  44.003029 -12.566392 36.006226  0.242160 0.101166 -0.964948  0.078127 0.654286 1 1 1.000000
misc
0  44.003029 -12.566392 36.006226  0.242160 0.101166 -0.964948  0.078127 0.654286 1 1 1.000000
0  44.484760 -12.414988 36.226444  0.605522 0.142036 -0.783051  0.078127 0.654286 1 1 1.000000
0  44.581108 -13.158236 36.185154  0.597262 0.065937 -0.799331  0.078127 0.654286 1 1 1.000000
misc
0  45.035316 -12.373696 38.318550  0.992034 0.122195 0.030623  0.070315 0.646474 1 1 1.000000
0  44.966496 -12.470043 39.405895  0.990426 0.093882 0.101205  0.070315 0.650380 1 1 1.000000
0  45.049080 -13.227056 39.405895  0.991172 0.057853 0.119298  0.074221 0.650380 1 1 1.000000
misc
0  45.049080 -13.227056 39.405895  0.991172 0.057853 0.119298  0.074221 0.650380 1 1 1.000000
0  45.131660 -13.116944 38.332314  0.994793 0.093069 0.041536  0.074221 0.646474 1 1 1.000000
0  45.035316 -12.373696 38.318550  0.992034 0.122195 0.030623  0.070315 0.646474 1 1 1.000000
misc
0  44.856384 -14.617204 40.355602  0.872398 -0.288210 0.394786  0.078127 0.652333 1 1 1.000000
0  44.897678 -13.350929 40.465714  0.950297 0.011235 0.311143  0.074221 0.652333 1 1 1.000000
0  44.718750 -13.433513 40.809811  0.730551 -0.010814 0.682773  0.074221 0.654286 1 1 1.000000
misc
0  44.718750 -13.433513 40.809811  0.730551 -0.010814 0.682773  0.074221 0.654286 1 1 1.000000
0  44.691223 -14.300635 40.754749  0.655862 -0.197306 0.728639  0.076174 0.654286 1 1 1.000000
0  44.856384 -14.617204 40.355602  0.872398 -0.288210 0.394786  0.078127 0.652333 1 1 1.000000
misc
0  44.842621 -12.580154 40.507004  0.944467 0.070770 0.320895  0.072268 0.652333 1 1 1.000000
0  44.636162 -12.676501 40.837337  0.709217 0.056590 0.702716  0.072268 0.654286 1 1 1.000000
0  44.718750 -13.433513 40.809811  0.730551 -0.010814 0.682773  0.074221 0.654286 1 1 1.000000
misc
0  44.718750 -13.433513 40.809811  0.730551 -0.010814 0.682773  0.074221 0.654286 1 1 1.000000
0  44.897678 -13.350929 40.465714  0.950297 0.011235 0.311143  0.074221 0.652333 1 1 1.000000
0  44.842621 -12.580154 40.507004  0.944467 0.070770 0.320895  0.072268 0.652333 1 1 1.000000
misc
0  42.998268 -17.727833 36.240208  0.285258 -0.344053 -0.894570  0.078127 0.654286 1 1 1.000000
0  38.635128 -20.466839 36.102570  0.278163 -0.399284 -0.873612  0.078127 0.654286 1 1 1.000000
0  38.373615 -19.544661 35.772240  0.125467 -0.151492 -0.980463  0.078127 0.654286 1 1 1.000000
misc
0  38.373615 -19.544661 35.772240  0.125467 -0.151492 -0.980463  0.078127 0.654286 1 1 1.000000
0  42.062325 -17.287390 35.951172  0.131276 -0.134286 -0.982209  0.078127 0.654286 1 1 1.000000
0  42.998268 -17.727833 36.240208  0.285258 -0.344053 -0.894570  0.078127 0.654286 1 1 1.000000
misc
0  43.727749 -15.621965 36.006226  0.183549 -0.078150 -0.979899  0.078127 0.654286 1 1 1.000000
0  44.085609 -14.741079 36.019989  0.234102 -0.059319 -0.970401  0.078127 0.654286 1 1 1.000000
0  44.677460 -14.823660 36.240208  0.541838 -0.061588 -0.838224  0.078127 0.654286 1 1 1.000000
misc
0  44.677460 -14.823660 36.240208  0.541838 -0.061588 -0.838224  0.078127 0.654286 1 1 1.000000
0  44.374653 -15.952296 36.226444  0.430006 -0.147535 -0.890690  0.078127 0.654286 1 1 1.000000
0  43.727749 -15.621965 36.006226  0.183549 -0.078150 -0.979899  0.078127 0.654286 1 1 1.000000
misc
0  44.911442 -13.089417 36.570541  0.753129 0.091744 -0.651444  0.078127 0.654286 1 1 1.000000
0  45.076607 -14.906245 36.625599  0.671297 -0.061022 -0.738672  0.078127 0.654286 1 1 1.000000
0  44.677460 -14.823660 36.240208  0.541838 -0.061588 -0.838224  0.078127 0.654286 1 1 1.000000
misc
0  44.677460 -14.823660 36.240208  0.541838 -0.061588 -0.838224  0.078127 0.654286 1 1 1.000000
0  44.581108 -13.158236 36.185154  0.597262 0.065937 -0.799331  0.078127 0.654286 1 1 1.000000
0  44.911442 -13.089417 36.570541  0.753129 0.091744 -0.651444  0.078127 0.654286 1 1 1.000000
misc
0  42.062325 -17.287390 35.951172  0.131276 -0.134286 -0.982209  0.078127 0.654286 1 1 1.000000
0  43.135906 -16.461559 35.992462  0.150029 -0.117524 -0.981672  0.078127 0.654286 1 1 1.000000
0  43.920444 -16.819420 36.226444  0.346873 -0.256968 -0.902023  0.078127 0.654286 1 1 1.000000
misc
0  43.920444 -16.819420 36.226444  0.346873 -0.256968 -0.902023  0.078127 0.654286 1 1 1.000000
0  42.998268 -17.727833 36.240208  0.285258 -0.344053 -0.894570  0.078127 0.654286 1 1 1.000000
0  42.062325 -17.287390 35.951172  0.131276 -0.134286 -0.982209  0.078127 0.654286 1 1 1.000000
misc
0  43.135906 -16.461559 35.992462  0.150029 -0.117524 -0.981672  0.078127 0.654286 1 1 1.000000
0  43.727749 -15.621965 36.006226  0.183549 -0.078150 -0.979899  0.078127 0.654286 1 1 1.000000
0  44.374653 -15.952296 36.226444  0.430006 -0.147535 -0.890690  0.078127 0.654286 1 1 1.000000
misc
0  44.374653 -15.952296 36.226444  0.430006 -0.147535 -0.890690  0.078127 0.654286 1 1 1.000000
0  43.920444 -16.819420 36.226444  0.346873 -0.256968 -0.902023  0.078127 0.654286 1 1 1.000000
0  43.135906 -16.461559 35.992462  0.150029 -0.117524 -0.981672  0.078127 0.654286 1 1 1.000000
misc
0  44.911442 -13.089417 36.570541  0.753129 0.091744 -0.651444  0.078127 0.654286 1 1 1.000000
0  44.581108 -13.158236 36.185154  0.597262 0.065937 -0.799331  0.078127 0.654286 1 1 1.000000
0  44.484760 -12.414988 36.226444  0.605522 0.142036 -0.783051  0.078127 0.654286 1 1 1.000000
misc
0  44.484760 -12.414988 36.226444  0.605522 0.142036 -0.783051  0.078127 0.654286 1 1 1.000000
0  44.787567 -12.346169 36.611835  0.751803 0.156906 -0.640448  0.078127 0.654286 1 1 1.000000
0  44.911442 -13.089417 36.570541  0.753129 0.091744 -0.651444  0.078127 0.654286 1 1 1.000000
misc
0  36.777008 -18.360973 40.314308  -0.767535 -0.594674 0.239277  0.078127 0.654286 1 1 1.000000
0  37.134865 -18.677540 40.451946  -0.425570 -0.735564 0.527102  0.078127 0.654286 1 1 1.000000
0  36.804535 -18.003113 40.933681  -0.493292 -0.533513 0.687042  0.078127 0.654286 1 1 1.000000
misc
0  36.804535 -18.003113 40.933681  -0.493292 -0.533513 0.687042  0.078127 0.654286 1 1 1.000000
0  36.570549 -17.920530 40.575821  -0.810835 -0.497882 0.307669  0.078127 0.654286 1 1 1.000000
0  36.777008 -18.360973 40.314308  -0.767535 -0.594674 0.239277  0.078127 0.654286 1 1 1.000000
misc
0  37.644131 -19.544662 38.690174  -0.307289 -0.927473 0.212996  0.078127 0.654286 1 1 1.000000
0  38.112099 -19.613480 38.593830  0.190404 -0.939078 0.286146  0.078127 0.654286 1 1 1.000000
0  37.946934 -19.351969 39.529770  0.115535 -0.900652 0.418900  0.078127 0.654286 1 1 1.000000
misc
0  37.946934 -19.351969 39.529770  0.115535 -0.900652 0.418900  0.078127 0.654286 1 1 1.000000
0  37.465199 -19.255623 39.571060  -0.403840 -0.862685 0.304447  0.078127 0.654286 1 1 1.000000
0  37.644131 -19.544662 38.690174  -0.307289 -0.927473 0.212996  0.078127 0.654286 1 1 1.000000
misc
0  36.019997 -16.337687 41.319069  -0.571785 -0.379469 0.727368  0.074221 0.660146 1 1 1.000000
0  35.854832 -16.365213 40.933681  -0.858864 -0.438283 0.265066  0.074221 0.660146 1 1 1.000000
0  36.570549 -17.920530 40.575821  -0.810835 -0.497882 0.307669  0.078127 0.660146 1 1 1.000000
misc
0  36.570549 -17.920530 40.575821  -0.810835 -0.497882 0.307669  0.078127 0.660146 1 1 1.000000
0  36.804535 -18.003113 40.933681  -0.493292 -0.533513 0.687042  0.078127 0.660146 1 1 1.000000
0  36.019997 -16.337687 41.319069  -0.571785 -0.379469 0.727368  0.074221 0.660146 1 1 1.000000
misc
0  35.854832 -16.365213 40.933681  -0.858864 -0.438283 0.265066  0.074221 0.660146 1 1 1.000000
0  35.758484 -16.337687 40.135380  -0.934023 -0.354804 0.041410  0.074221 0.662099 1 1 1.000000
0  36.185162 -17.548906 39.887627  -0.870637 -0.473060 0.134926  0.076174 0.662099 1 1 1.000000
misc
0  36.185162 -17.548906 39.887627  -0.870637 -0.473060 0.134926  0.076174 0.662099 1 1 1.000000
0  36.570549 -17.920530 40.575821  -0.810835 -0.497882 0.307669  0.078127 0.660146 1 1 1.000000
0  35.854832 -16.365213 40.933681  -0.858864 -0.438283 0.265066  0.074221 0.660146 1 1 1.000000
misc
0  44.429707 -13.543624 40.988735  0.403921 -0.071399 0.912004  0.074221 0.654286 1 1 1.000000
0  44.718750 -13.433513 40.809811  0.730551 -0.010814 0.682773  0.074221 0.654286 1 1 1.000000
0  44.636162 -12.676501 40.837337  0.709217 0.056590 0.702716  0.072268 0.654286 1 1 1.000000
misc
0  44.636162 -12.676501 40.837337  0.709217 0.056590 0.702716  0.072268 0.654286 1 1 1.000000
0  44.209484 -12.827904 41.085083  0.381021 -0.006746 0.924542  0.072268 0.654286 1 1 1.000000
0  44.429707 -13.543624 40.988735  0.403921 -0.071399 0.912004  0.074221 0.654286 1 1 1.000000
misc
0  44.209484 -12.827904 41.085083  0.381021 -0.006746 0.924542  0.072268 0.654286 1 1 1.000000
0  43.466240 -13.089418 41.264015  0.187913 -0.050459 0.980889  0.072268 0.654286 1 1 1.000000
0  43.713985 -13.791373 41.167667  0.229428 -0.129022 0.964736  0.074221 0.654286 1 1 1.000000
misc
0  43.713985 -13.791373 41.167667  0.229428 -0.129022 0.964736  0.074221 0.654286 1 1 1.000000
0  44.429707 -13.543624 40.988735  0.403921 -0.071399 0.912004  0.074221 0.654286 1 1 1.000000
0  44.209484 -12.827904 41.085083  0.381021 -0.006746 0.924542  0.072268 0.654286 1 1 1.000000
misc
0  43.466240 -13.089418 41.264015  0.187913 -0.050459 0.980889  0.082034 0.658193 1 1 1.000000
0  42.502766 -13.405985 41.360363  0.103146 -0.054849 0.993153  0.078127 0.658193 1 1 1.000000
0  42.764278 -14.121706 41.291542  0.141928 -0.138060 0.980202  0.078127 0.658193 1 1 1.000000
misc
0  42.764278 -14.121706 41.291542  0.141928 -0.138060 0.980202  0.078127 0.658193 1 1 1.000000
0  43.713985 -13.791373 41.167667  0.229428 -0.129022 0.964736  0.078127 0.654286 1 1 1.000000
0  43.466240 -13.089418 41.264015  0.187913 -0.050459 0.980889  0.082034 0.658193 1 1 1.000000
misc
0  42.502766 -13.405985 41.360363  0.103146 -0.054849 0.993153  0.072268 0.656240 1 1 1.000000
0  41.773285 -13.653735 41.401653  0.061145 -0.061727 0.996218  0.072268 0.656240 1 1 1.000000
0  42.007271 -14.369454 41.346600  0.093286 -0.141619 0.985516  0.074221 0.656240 1 1 1.000000
misc
0  42.007271 -14.369454 41.346600  0.093286 -0.141619 0.985516  0.074221 0.656240 1 1 1.000000
0  42.764278 -14.121706 41.291542  0.141928 -0.138060 0.980202  0.074221 0.656240 1 1 1.000000
0  42.502766 -13.405985 41.360363  0.103146 -0.054849 0.993153  0.072268 0.656240 1 1 1.000000
misc
0  41.773285 -13.653735 41.401653  0.061145 -0.061727 0.996218  0.072268 0.656240 1 1 1.000000
0  36.019997 -15.553147 41.497997  -0.146545 -0.131439 0.980433  0.070315 0.660146 1 1 1.000000
0  36.364090 -16.227575 41.456707  -0.107387 -0.193842 0.975138  0.074221 0.658193 1 1 1.000000
misc
0  36.364090 -16.227575 41.456707  -0.107387 -0.193842 0.975138  0.074221 0.658193 1 1 1.000000
0  42.007271 -14.369454 41.346600  0.093286 -0.141619 0.985516  0.074221 0.656240 1 1 1.000000
0  41.773285 -13.653735 41.401653  0.061145 -0.061727 0.996218  0.072268 0.656240 1 1 1.000000
misc
0  36.019997 -15.553147 41.497997  -0.146545 -0.131439 0.980433  0.070315 0.660146 1 1 1.000000
0  35.689663 -15.649492 41.360363  -0.612129 -0.350906 0.708635  0.070315 0.660146 1 1 1.000000
0  36.019997 -16.337687 41.319069  -0.571785 -0.379469 0.727368  0.074221 0.660146 1 1 1.000000
misc
0  36.019997 -16.337687 41.319069  -0.571785 -0.379469 0.727368  0.074221 0.660146 1 1 1.000000
0  36.364090 -16.227575 41.456707  -0.107387 -0.193842 0.975138  0.074221 0.658193 1 1 1.000000
0  36.019997 -15.553147 41.497997  -0.146545 -0.131439 0.980433  0.070315 0.660146 1 1 1.000000
misc
0  35.689663 -15.649492 41.360363  -0.612129 -0.350906 0.708635  0.070315 0.660146 1 1 1.000000
0  35.510735 -15.677021 40.988735  -0.868707 -0.436302 0.234497  0.070315 0.660146 1 1 1.000000
0  35.854832 -16.365213 40.933681  -0.858864 -0.438283 0.265066  0.074221 0.660146 1 1 1.000000
misc
0  35.854832 -16.365213 40.933681  -0.858864 -0.438283 0.265066  0.074221 0.660146 1 1 1.000000
0  36.019997 -16.337687 41.319069  -0.571785 -0.379469 0.727368  0.074221 0.660146 1 1 1.000000
0  35.689663 -15.649492 41.360363  -0.612129 -0.350906 0.708635  0.070315 0.660146 1 1 1.000000
misc
0  35.510735 -15.677021 40.988735  -0.868707 -0.436302 0.234497  0.070315 0.660146 1 1 1.000000
0  35.455677 -15.649492 40.190434  -0.925941 -0.376844 -0.024932  0.070315 0.662099 1 1 1.000000
0  35.758484 -16.337687 40.135380  -0.934023 -0.354804 0.041410  0.074221 0.662099 1 1 1.000000
misc
0  35.758484 -16.337687 40.135380  -0.934023 -0.354804 0.041410  0.074221 0.662099 1 1 1.000000
0  35.854832 -16.365213 40.933681  -0.858864 -0.438283 0.265066  0.074221 0.660146 1 1 1.000000
0  35.510735 -15.677021 40.988735  -0.868707 -0.436302 0.234497  0.070315 0.660146 1 1 1.000000
misc
0  35.552025 -15.566911 39.392132  -0.949307 -0.284815 -0.133029  0.078127 0.654286 1 1 1.000000
0  35.992470 -15.222814 36.501724  -0.937687 -0.042552 -0.344865  0.078127 0.654286 1 1 1.000000
0  36.102577 -15.966061 36.309029  -0.942704 0.054704 -0.329114  0.078127 0.654286 1 1 1.000000
misc
0  36.102577 -15.966061 36.309029  -0.942704 0.054704 -0.329114  0.078127 0.654286 1 1 1.000000
0  35.772247 -16.282631 39.337074  -0.974474 -0.214161 -0.067348  0.078127 0.654286 1 1 1.000000
0  35.552025 -15.566911 39.392132  -0.949307 -0.284815 -0.133029  0.078127 0.654286 1 1 1.000000
misc
0  36.501732 -15.773369 35.675892  -0.850056 0.096705 -0.517739  0.078127 0.654286 1 1 1.000000
0  36.102577 -15.966061 36.309029  -0.942704 0.054704 -0.329114  0.078127 0.654286 1 1 1.000000
0  35.992470 -15.222814 36.501724  -0.937687 -0.042552 -0.344865  0.078127 0.654286 1 1 1.000000
misc
0  35.992470 -15.222814 36.501724  -0.937687 -0.042552 -0.344865  0.078127 0.654286 1 1 1.000000
0  36.474201 -15.016356 35.758476  -0.841356 0.030539 -0.539617  0.078127 0.654286 1 1 1.000000
0  36.501732 -15.773369 35.675892  -0.850056 0.096705 -0.517739  0.078127 0.654286 1 1 1.000000
misc
0  36.474201 -15.016356 35.758476  -0.151521 0.071112 -0.985893  0.078127 0.654286 1 1 1.000000
0  37.396381 -14.699788 35.607071  -0.063142 0.063115 -0.996007  0.078127 0.654286 1 1 1.000000
0  37.589073 -15.429271 35.552017  -0.033581 0.011877 -0.999365  0.078127 0.654286 1 1 1.000000
misc
0  37.589073 -15.429271 35.552017  -0.033581 0.011877 -0.999365  0.078127 0.654286 1 1 1.000000
0  36.501732 -15.773369 35.675892  -0.094654 0.011419 -0.995445  0.078127 0.654286 1 1 1.000000
0  36.474201 -15.016356 35.758476  -0.151521 0.071112 -0.985893  0.078127 0.654286 1 1 1.000000
misc
0  37.396381 -14.699788 35.607071  -0.063142 0.063115 -0.996007  0.078127 0.654286 1 1 1.000000
0  44.003029 -12.566392 36.006226  0.242160 0.101166 -0.964948  0.078127 0.654286 1 1 1.000000
0  44.085609 -13.309638 35.951172  0.243308 0.024966 -0.969628  0.078127 0.654286 1 1 1.000000
misc
0  44.085609 -13.309638 35.951172  0.243308 0.024966 -0.969628  0.078127 0.654286 1 1 1.000000
0  37.589073 -15.429271 35.552017  -0.033581 0.011877 -0.999365  0.078127 0.654286 1 1 1.000000
0  37.396381 -14.699788 35.607071  -0.063142 0.063115 -0.996007  0.078127 0.654286 1 1 1.000000
misc
0  43.383652 -18.140749 37.286263  0.607133 -0.784750 0.124724  0.078127 0.654286 1 1 1.000000
0  38.717712 -21.044920 37.231205  0.507033 -0.826609 0.244201  0.078127 0.654286 1 1 1.000000
0  38.800293 -21.086212 36.584305  0.526019 -0.842057 0.119345  0.078127 0.654286 1 1 1.000000
misc
0  38.800293 -21.086212 36.584305  0.526019 -0.842057 0.119345  0.078127 0.654286 1 1 1.000000
0  43.369888 -18.168276 36.639362  0.619880 -0.784561 0.014598  0.078127 0.654286 1 1 1.000000
0  43.383652 -18.140749 37.286263  0.607133 -0.784750 0.124724  0.078127 0.654286 1 1 1.000000
misc
0  44.374653 -17.025875 38.057037  0.768705 -0.620792 0.153978  0.078127 0.654286 1 1 1.000000
0  43.259781 -18.003111 37.988216  0.570821 -0.781528 0.251748  0.078127 0.654286 1 1 1.000000
0  43.383652 -18.140749 37.286263  0.607133 -0.784750 0.124724  0.078127 0.654286 1 1 1.000000
misc
0  43.383652 -18.140749 37.286263  0.607133 -0.784750 0.124724  0.078127 0.654286 1 1 1.000000
0  44.443470 -17.108461 37.341316  0.785549 -0.616194 0.056730  0.078127 0.654286 1 1 1.000000
0  44.374653 -17.025875 38.057037  0.768705 -0.620792 0.153978  0.078127 0.654286 1 1 1.000000
misc
0  45.131660 -13.116944 38.332314  0.994793 0.093069 0.041536  0.078127 0.654286 1 1 1.000000
0  45.200485 -14.837426 38.456188  0.980712 -0.161326 0.110352  0.078127 0.654286 1 1 1.000000
0  45.241776 -14.864953 37.492722  0.995412 -0.062502 -0.072445  0.078127 0.654286 1 1 1.000000
misc
0  45.241776 -14.864953 37.492722  0.995412 -0.062502 -0.072445  0.078127 0.654286 1 1 1.000000
0  45.117897 -13.075652 37.437664  0.986515 0.109163 -0.121951  0.078127 0.654286 1 1 1.000000
0  45.131660 -13.116944 38.332314  0.994793 0.093069 0.041536  0.078127 0.654286 1 1 1.000000
misc
0  45.200485 -14.837426 38.456188  0.980712 -0.161326 0.110352  0.078127 0.654286 1 1 1.000000
0  44.883915 -16.172520 38.208439  0.920459 -0.372911 0.117016  0.078127 0.654286 1 1 1.000000
0  44.980263 -16.200047 37.410137  0.936998 -0.349196 -0.009865  0.078127 0.654286 1 1 1.000000
misc
0  44.980263 -16.200047 37.410137  0.936998 -0.349196 -0.009865  0.078127 0.654286 1 1 1.000000
0  45.241776 -14.864953 37.492722  0.995412 -0.062502 -0.072445  0.078127 0.654286 1 1 1.000000
0  45.200485 -14.837426 38.456188  0.980712 -0.161326 0.110352  0.078127 0.654286 1 1 1.000000
misc
0  44.883915 -16.172520 38.208439  0.920459 -0.372911 0.117016  0.078127 0.654286 1 1 1.000000
0  44.374653 -17.025875 38.057037  0.768705 -0.620792 0.153978  0.078127 0.654286 1 1 1.000000
0  44.443470 -17.108461 37.341316  0.785549 -0.616194 0.056730  0.078127 0.654286 1 1 1.000000
misc
0  44.443470 -17.108461 37.341316  0.785549 -0.616194 0.056730  0.078127 0.654286 1 1 1.000000
0  44.980263 -16.200047 37.410137  0.936998 -0.349196 -0.009865  0.078127 0.654286 1 1 1.000000
0  44.883915 -16.172520 38.208439  0.920459 -0.372911 0.117016  0.078127 0.654286 1 1 1.000000
misc
0  45.131660 -13.116944 38.332314  0.994793 0.093069 0.041536  0.078127 0.654286 1 1 1.000000
0  45.117897 -13.075652 37.437664  0.986515 0.109163 -0.121951  0.078127 0.654286 1 1 1.000000
0  45.021553 -12.318641 37.465191  0.981492 0.138991 -0.131740  0.078127 0.654286 1 1 1.000000
misc
0  45.021553 -12.318641 37.465191  0.981492 0.138991 -0.131740  0.078127 0.654286 1 1 1.000000
0  45.035316 -12.373696 38.318550  0.992034 0.122195 0.030623  0.078127 0.654286 1 1 1.000000
0  45.131660 -13.116944 38.332314  0.994793 0.093069 0.041536  0.078127 0.654286 1 1 1.000000
misc
0  36.777008 -18.360973 40.314308  -0.767535 -0.594674 0.239277  0.080081 0.660146 1 1 1.000000
0  36.570549 -17.920530 40.575821  -0.810835 -0.497882 0.307669  0.078127 0.660146 1 1 1.000000
0  36.185162 -17.548906 39.887627  -0.870637 -0.473060 0.134926  0.076174 0.662099 1 1 1.000000
misc
0  36.185162 -17.548906 39.887627  -0.870637 -0.473060 0.134926  0.076174 0.662099 1 1 1.000000
0  37.052284 -18.883999 39.557297  -0.745977 -0.655865 0.115581  0.080081 0.660146 1 1 1.000000
0  36.777008 -18.360973 40.314308  -0.767535 -0.594674 0.239277  0.080081 0.660146 1 1 1.000000
misc
0  37.134865 -18.677540 40.451946  -0.425570 -0.735564 0.527102  0.078127 0.654286 1 1 1.000000
0  36.777008 -18.360973 40.314308  -0.767535 -0.594674 0.239277  0.078127 0.654286 1 1 1.000000
0  37.052284 -18.883999 39.557297  -0.745977 -0.655865 0.115581  0.078127 0.654286 1 1 1.000000
misc
0  37.052284 -18.883999 39.557297  -0.745977 -0.655865 0.115581  0.078127 0.654286 1 1 1.000000
0  37.465199 -19.255623 39.571060  -0.403840 -0.862685 0.304447  0.078127 0.654286 1 1 1.000000
0  37.134865 -18.677540 40.451946  -0.425570 -0.735564 0.527102  0.078127 0.654286 1 1 1.000000
misc
0  42.791809 -16.736835 40.328072  0.357264 -0.663063 0.657807  0.078127 0.654286 1 1 1.000000
0  37.602840 -18.760124 40.479477  0.055446 -0.717171 0.694688  0.078127 0.654286 1 1 1.000000
0  37.946934 -19.351969 39.529770  0.115535 -0.900652 0.418900  0.078127 0.654286 1 1 1.000000
misc
0  37.946934 -19.351969 39.529770  0.115535 -0.900652 0.418900  0.078127 0.654286 1 1 1.000000
0  42.943211 -17.246098 39.405895  0.474156 -0.798482 0.370948  0.078127 0.654286 1 1 1.000000
0  42.791809 -16.736835 40.328072  0.357264 -0.663063 0.657807  0.078127 0.654286 1 1 1.000000
misc
0  44.553581 -15.979823 38.469952  0.807169 -0.563582 0.175655  0.078127 0.654286 1 1 1.000000
0  45.200485 -14.837426 38.456188  0.980712 -0.161326 0.110352  0.078127 0.654286 1 1 1.000000
0  45.035316 -14.809896 39.350838  0.943408 -0.266910 0.196827  0.078127 0.654286 1 1 1.000000
misc
0  45.035316 -14.809896 39.350838  0.943408 -0.266910 0.196827  0.078127 0.654286 1 1 1.000000
0  44.484760 -15.814658 39.337074  0.790070 -0.565847 0.235812  0.078127 0.654286 1 1 1.000000
0  44.553581 -15.979823 38.469952  0.807169 -0.563582 0.175655  0.078127 0.654286 1 1 1.000000
misc
0  44.897678 -13.350929 40.465714  0.950297 0.011235 0.311143  0.074221 0.652333 1 1 1.000000
0  44.856384 -14.617204 40.355602  0.872398 -0.288210 0.394786  0.078127 0.652333 1 1 1.000000
0  45.035316 -14.809896 39.350838  0.943408 -0.266910 0.196827  0.078127 0.650380 1 1 1.000000
misc
0  45.035316 -14.809896 39.350838  0.943408 -0.266910 0.196827  0.078127 0.650380 1 1 1.000000
0  45.049080 -13.227056 39.405895  0.991172 0.057853 0.119298  0.074221 0.650380 1 1 1.000000
0  44.897678 -13.350929 40.465714  0.950297 0.011235 0.311143  0.074221 0.652333 1 1 1.000000
misc
0  43.025795 -17.493849 38.483719  0.501101 -0.823000 0.267526  0.078127 0.654286 1 1 1.000000
0  43.892918 -16.764364 38.469952  0.684993 -0.694598 0.219815  0.078127 0.654286 1 1 1.000000
0  43.769047 -16.585432 39.364605  0.652084 -0.694638 0.303751  0.078127 0.654286 1 1 1.000000
misc
0  43.769047 -16.585432 39.364605  0.652084 -0.694638 0.303751  0.078127 0.654286 1 1 1.000000
0  42.943211 -17.246098 39.405895  0.474156 -0.798482 0.370948  0.078127 0.654286 1 1 1.000000
0  43.025795 -17.493849 38.483719  0.501101 -0.823000 0.267526  0.078127 0.654286 1 1 1.000000
misc
0  43.892918 -16.764364 38.469952  0.684993 -0.694598 0.219815  0.078127 0.654286 1 1 1.000000
0  44.553581 -15.979823 38.469952  0.807169 -0.563582 0.175655  0.078127 0.654286 1 1 1.000000
0  44.484760 -15.814658 39.337074  0.790070 -0.565847 0.235812  0.078127 0.654286 1 1 1.000000
misc
0  44.484760 -15.814658 39.337074  0.790070 -0.565847 0.235812  0.078127 0.654286 1 1 1.000000
0  43.769047 -16.585432 39.364605  0.652084 -0.694638 0.303751  0.078127 0.654286 1 1 1.000000
0  43.892918 -16.764364 38.469952  0.684993 -0.694598 0.219815  0.078127 0.654286 1 1 1.000000
misc
0  44.897678 -13.350929 40.465714  0.950297 0.011235 0.311143  0.074221 0.652333 1 1 1.000000
0  45.049080 -13.227056 39.405895  0.991172 0.057853 0.119298  0.074221 0.650380 1 1 1.000000
0  44.966496 -12.470043 39.405895  0.990426 0.093882 0.101205  0.070315 0.650380 1 1 1.000000
misc
0  44.966496 -12.470043 39.405895  0.990426 0.093882 0.101205  0.070315 0.650380 1 1 1.000000
0  44.842621 -12.580154 40.507004  0.944467 0.070770 0.320895  0.072268 0.652333 1 1 1.000000
0  44.897678 -13.350929 40.465714  0.950297 0.011235 0.311143  0.074221 0.652333 1 1 1.000000
misc
0  37.602840 -18.760124 40.479477  0.055446 -0.717171 0.694688  0.078127 0.654286 1 1 1.000000
0  37.134865 -18.677540 40.451946  -0.425570 -0.735564 0.527102  0.078127 0.654286 1 1 1.000000
0  37.465199 -19.255623 39.571060  -0.403840 -0.862685 0.304447  0.078127 0.654286 1 1 1.000000
misc
0  37.465199 -19.255623 39.571060  -0.403840 -0.862685 0.304447  0.078127 0.654286 1 1 1.000000
0  37.946934 -19.351969 39.529770  0.115535 -0.900652 0.418900  0.078127 0.654286 1 1 1.000000
0  37.602840 -18.760124 40.479477  0.055446 -0.717171 0.694688  0.078127 0.654286 1 1 1.000000
misc
0  35.758484 -16.337687 40.135380  -0.934023 -0.354804 0.041410  0.074221 0.662099 1 1 1.000000
0  35.772247 -16.282631 39.337074  -0.974474 -0.214161 -0.067348  0.074221 0.662099 1 1 1.000000
0  35.909885 -17.177280 39.199436  -0.952840 -0.297308 0.060861  0.076174 0.662099 1 1 1.000000
misc
0  35.909885 -17.177280 39.199436  -0.952840 -0.297308 0.060861  0.076174 0.662099 1 1 1.000000
0  36.185162 -17.548906 39.887627  -0.870637 -0.473060 0.134926  0.076174 0.662099 1 1 1.000000
0  35.758484 -16.337687 40.135380  -0.934023 -0.354804 0.041410  0.074221 0.662099 1 1 1.000000
misc
0  35.772247 -16.282631 39.337074  -0.974474 -0.214161 -0.067348  0.074221 0.662099 1 1 1.000000
0  35.758484 -16.337687 40.135380  -0.934023 -0.354804 0.041410  0.074221 0.662099 1 1 1.000000
0  35.455677 -15.649492 40.190434  -0.925941 -0.376844 -0.024932  0.070315 0.662099 1 1 1.000000
misc
0  35.455677 -15.649492 40.190434  -0.925941 -0.376844 -0.024932  0.070315 0.662099 1 1 1.000000
0  35.552025 -15.566911 39.392132  -0.949307 -0.284815 -0.133029  0.070315 0.662099 1 1 1.000000
0  35.772247 -16.282631 39.337074  -0.974474 -0.214161 -0.067348  0.074221 0.662099 1 1 1.000000
misc
0  42.062325 -17.287390 35.951172  0.131276 -0.134286 -0.982209  0.078127 0.654286 1 1 1.000000
0  37.878117 -17.562670 35.662128  0.021930 -0.039750 -0.998969  0.078127 0.654286 1 1 1.000000
0  37.589073 -15.429271 35.552017  -0.033581 0.011877 -0.999365  0.078127 0.654286 1 1 1.000000
misc
0  37.589073 -15.429271 35.552017  -0.033581 0.011877 -0.999365  0.078127 0.654286 1 1 1.000000
0  43.135906 -16.461559 35.992462  0.150029 -0.117524 -0.981672  0.078127 0.654286 1 1 1.000000
0  42.062325 -17.287390 35.951172  0.131276 -0.134286 -0.982209  0.078127 0.654286 1 1 1.000000
misc
0  37.589073 -15.429271 35.552017  -0.033581 0.011877 -0.999365  0.078127 0.654286 1 1 1.000000
0  43.727749 -15.621965 36.006226  0.183549 -0.078150 -0.979899  0.078127 0.654286 1 1 1.000000
0  43.135906 -16.461559 35.992462  0.150029 -0.117524 -0.981672  0.078127 0.654286 1 1 1.000000
misc
0  36.501732 -15.773369 35.675892  -0.094654 0.011419 -0.995445  0.078127 0.654286 1 1 1.000000
0  37.589073 -15.429271 35.552017  -0.033581 0.011877 -0.999365  0.078127 0.654286 1 1 1.000000
0  37.878117 -17.562670 35.662128  0.021930 -0.039750 -0.998969  0.078127 0.654286 1 1 1.000000
misc
0  37.878117 -17.562670 35.662128  0.021930 -0.039750 -0.998969  0.078127 0.654286 1 1 1.000000
0  35.937412 -18.126986 35.703419  0.007349 -0.012152 -0.999899  0.078127 0.654286 1 1 1.000000
0  36.501732 -15.773369 35.675892  -0.094654 0.011419 -0.995445  0.078127 0.654286 1 1 1.000000
misc
0  38.580070 -20.824697 37.905636  0.478904 -0.797530 0.366874  0.078127 0.654286 1 1 1.000000
0  34.684902 -23.164555 37.836819  0.458802 -0.776484 0.431941  0.078127 0.654286 1 1 1.000000
0  34.918888 -23.384779 37.189915  0.487465 -0.809931 0.326174  0.078127 0.654286 1 1 1.000000
misc
0  34.918888 -23.384779 37.189915  0.487465 -0.809931 0.326174  0.078127 0.654286 1 1 1.000000
0  38.717712 -21.044920 37.231205  0.507033 -0.826609 0.244201  0.078127 0.654286 1 1 1.000000
0  38.580070 -20.824697 37.905636  0.478904 -0.797530 0.366874  0.078127 0.654286 1 1 1.000000
misc
0  38.717712 -21.044920 37.231205  0.507033 -0.826609 0.244201  0.078127 0.654286 1 1 1.000000
0  34.918888 -23.384779 37.189915  0.487465 -0.809931 0.326174  0.078127 0.654286 1 1 1.000000
0  35.194164 -23.357248 36.529251  0.514520 -0.838494 0.179436  0.078127 0.654286 1 1 1.000000
misc
0  35.194164 -23.357248 36.529251  0.515006 -0.838092 0.179921  0.078127 0.654286 1 1 1.000000
0  38.800293 -21.086212 36.584305  0.526019 -0.842057 0.119345  0.078127 0.654286 1 1 1.000000
0  38.717712 -21.044920 37.231205  0.507033 -0.826609 0.244201  0.078127 0.654286 1 1 1.000000
misc
0  38.800293 -21.086212 36.584305  0.342383 -0.513802 -0.786627  0.078127 0.654286 1 1 1.000000
0  35.194164 -23.357248 36.529251  0.353045 -0.543569 -0.761506  0.078127 0.654286 1 1 1.000000
0  35.373093 -22.517654 36.006226  0.314977 -0.473699 -0.822435  0.078127 0.654286 1 1 1.000000
misc
0  35.373093 -22.517654 36.006226  0.314977 -0.473699 -0.822435  0.078127 0.654286 1 1 1.000000
0  38.635128 -20.466839 36.102570  0.278163 -0.399284 -0.873612  0.078127 0.654286 1 1 1.000000
0  38.800293 -21.086212 36.584305  0.342383 -0.513802 -0.786627  0.078127 0.654286 1 1 1.000000
misc
0  38.635128 -20.466839 36.102570  0.278163 -0.399284 -0.873612  0.078127 0.654286 1 1 1.000000
0  35.373093 -22.517654 36.006226  0.314977 -0.473699 -0.822435  0.078127 0.654286 1 1 1.000000
0  35.469440 -21.333963 35.634602  0.170036 -0.214750 -0.961754  0.078127 0.654286 1 1 1.000000
misc
0  35.469440 -21.333963 35.634602  0.170036 -0.214750 -0.961754  0.078127 0.654286 1 1 1.000000
0  38.373615 -19.544661 35.772240  0.125467 -0.151492 -0.980463  0.078127 0.654286 1 1 1.000000
0  38.635128 -20.466839 36.102570  0.278163 -0.399284 -0.873612  0.078127 0.654286 1 1 1.000000
misc
0  35.937412 -18.126986 35.703419  0.007349 -0.012152 -0.999899  0.078127 0.654286 1 1 1.000000
0  37.878117 -17.562670 35.662128  0.021930 -0.039750 -0.998969  0.078127 0.654286 1 1 1.000000
0  38.373615 -19.544661 35.772240  0.125467 -0.151492 -0.980463  0.078127 0.654286 1 1 1.000000
misc
0  38.373615 -19.544661 35.772240  0.125467 -0.151492 -0.980463  0.078127 0.654286 1 1 1.000000
0  35.469440 -21.333963 35.634602  0.170036 -0.214750 -0.961754  0.078127 0.654286 1 1 1.000000
0  35.937412 -18.126986 35.703419  0.007359 -0.012128 -0.999899  0.078127 0.654286 1 1 1.000000
misc
0  34.684902 -23.164555 37.836819  0.186871 -0.374633 0.908146  0.078127 0.654286 1 1 1.000000
0  38.580070 -20.824697 37.905636  0.226569 -0.426420 0.875690  0.078127 0.654286 1 1 1.000000
0  38.112099 -19.613480 38.593830  0.200966 -0.398819 0.894738  0.078127 0.654286 1 1 1.000000
misc
0  38.112099 -19.613480 38.593830  0.200932 -0.398788 0.894759  0.078127 0.654286 1 1 1.000000
0  34.437153 -21.636768 38.483719  0.157515 -0.337814 0.927939  0.078127 0.654286 1 1 1.000000
0  34.684902 -23.164555 37.836819  0.186860 -0.374628 0.908150  0.078127 0.654286 1 1 1.000000
misc
0  37.217449 -19.145512 38.814049  0.068983 -0.169660 0.983085  0.078127 0.654286 1 1 1.000000
0  35.909885 -17.177280 39.199436  0.004767 -0.192652 0.981255  0.078127 0.654286 1 1 1.000000
0  34.161877 -16.998350 39.254494  0.039280 -0.145096 0.988637  0.078127 0.654286 1 1 1.000000
misc
0  34.161877 -16.998350 39.254494  0.039280 -0.145096 0.988637  0.078127 0.654286 1 1 1.000000
0  34.299515 -20.260384 38.855339  0.075170 -0.161842 0.983949  0.078127 0.654286 1 1 1.000000
0  37.217449 -19.145512 38.814049  0.068983 -0.169660 0.983085  0.078127 0.654286 1 1 1.000000
misc
0  37.217449 -19.145512 38.814049  0.068983 -0.169660 0.983085  0.078127 0.654286 1 1 1.000000
0  34.299515 -20.260384 38.855339  0.075170 -0.161842 0.983949  0.078127 0.654286 1 1 1.000000
0  34.340805 -20.989866 38.703941  0.114044 -0.255018 0.960187  0.078127 0.654286 1 1 1.000000
misc
0  34.340805 -20.989866 38.703941  0.114044 -0.255018 0.960187  0.078127 0.654286 1 1 1.000000
0  37.644131 -19.544662 38.690174  0.129474 -0.281321 0.950839  0.078127 0.654286 1 1 1.000000
0  37.217449 -19.145512 38.814049  0.068983 -0.169660 0.983085  0.078127 0.654286 1 1 1.000000
misc
0  36.047523 -15.525618 41.346600  -0.311668 0.948111 0.062842  0.078127 0.652333 1 1 1.000000
0  35.772247 -15.608202 41.250252  -0.311662 0.948116 0.062786  0.078127 0.652333 1 1 1.000000
0  35.689663 -15.649492 41.360363  -0.311690 0.948108 0.062765  0.078127 0.654286 1 1 1.000000
misc
0  35.689663 -15.649492 41.360363  -0.311690 0.948108 0.062765  0.078127 0.654286 1 1 1.000000
0  36.019997 -15.553147 41.497997  -0.311667 0.948112 0.062825  0.078127 0.654286 1 1 1.000000
0  36.047523 -15.525618 41.346600  -0.311668 0.948111 0.062842  0.078127 0.652333 1 1 1.000000
misc
0  41.759521 -13.639972 41.264015  -0.311645 0.948122 0.062784  0.078127 0.652333 1 1 1.000000
0  36.047523 -15.525618 41.346600  -0.311668 0.948111 0.062842  0.078127 0.652333 1 1 1.000000
0  36.019997 -15.553147 41.497997  -0.311667 0.948112 0.062825  0.078127 0.654286 1 1 1.000000
misc
0  36.019997 -15.553147 41.497997  -0.311667 0.948112 0.062825  0.078127 0.654286 1 1 1.000000
0  41.773285 -13.653735 41.401653  -0.311647 0.948121 0.062798  0.078127 0.654286 1 1 1.000000
0  41.759521 -13.639972 41.264015  -0.311645 0.948122 0.062784  0.078127 0.652333 1 1 1.000000
misc
0  42.489002 -13.405985 41.222721  -0.311648 0.948121 0.062784  0.078127 0.652333 1 1 1.000000
0  41.759521 -13.639972 41.264015  -0.311645 0.948122 0.062784  0.078127 0.652333 1 1 1.000000
0  41.773285 -13.653735 41.401653  -0.311647 0.948121 0.062798  0.078127 0.654286 1 1 1.000000
misc
0  41.773285 -13.653735 41.401653  -0.311647 0.948121 0.062798  0.078127 0.654286 1 1 1.000000
0  42.502766 -13.405985 41.360363  -0.311644 0.948120 0.062820  0.078127 0.654286 1 1 1.000000
0  42.489002 -13.405985 41.222721  -0.311648 0.948121 0.062784  0.078127 0.652333 1 1 1.000000
misc
0  43.438713 -13.089418 41.126377  -0.311639 0.948124 0.062793  0.078127 0.652333 1 1 1.000000
0  42.489002 -13.405985 41.222721  -0.311648 0.948121 0.062784  0.078127 0.652333 1 1 1.000000
0  42.502766 -13.405985 41.360363  -0.311644 0.948120 0.062820  0.078127 0.654286 1 1 1.000000
misc
0  42.502766 -13.405985 41.360363  -0.311644 0.948120 0.062820  0.078127 0.654286 1 1 1.000000
0  43.466240 -13.089418 41.264015  -0.311629 0.948128 0.062771  0.078127 0.654286 1 1 1.000000
0  43.438713 -13.089418 41.126377  -0.311639 0.948124 0.062793  0.078127 0.652333 1 1 1.000000
misc
0  44.154430 -12.841668 40.947445  -0.311665 0.948115 0.062797  0.078127 0.652333 1 1 1.000000
0  43.438713 -13.089418 41.126377  -0.311639 0.948124 0.062793  0.078127 0.652333 1 1 1.000000
0  43.466240 -13.089418 41.264015  -0.311629 0.948128 0.062771  0.078127 0.654286 1 1 1.000000
misc
0  43.466240 -13.089418 41.264015  -0.311629 0.948128 0.062771  0.078127 0.654286 1 1 1.000000
0  44.209484 -12.827904 41.085083  -0.311646 0.948120 0.062818  0.078127 0.654286 1 1 1.000000
0  44.154430 -12.841668 40.947445  -0.311665 0.948115 0.062797  0.078127 0.652333 1 1 1.000000
misc
0  44.539818 -12.690265 40.727222  -0.311699 0.948101 0.062829  0.078127 0.652333 1 1 1.000000
0  44.154430 -12.841668 40.947445  -0.311665 0.948115 0.062797  0.078127 0.652333 1 1 1.000000
0  44.209484 -12.827904 41.085083  -0.311646 0.948120 0.062818  0.078127 0.654286 1 1 1.000000
misc
0  44.209484 -12.827904 41.085083  -0.311646 0.948120 0.062818  0.078127 0.654286 1 1 1.000000
0  44.636162 -12.676501 40.837337  -0.311695 0.948106 0.062779  0.078127 0.654286 1 1 1.000000
0  44.539818 -12.690265 40.727222  -0.311699 0.948101 0.062829  0.078127 0.652333 1 1 1.000000
misc
0  44.704987 -12.621446 40.451946  -0.311650 0.948119 0.062802  0.078127 0.652333 1 1 1.000000
0  44.539818 -12.690265 40.727222  -0.311699 0.948101 0.062829  0.078127 0.652333 1 1 1.000000
0  44.636162 -12.676501 40.837337  -0.311695 0.948106 0.062779  0.078127 0.654286 1 1 1.000000
misc
0  44.636162 -12.676501 40.837337  -0.311695 0.948106 0.062779  0.078127 0.654286 1 1 1.000000
0  44.842621 -12.580154 40.507004  -0.311733 0.948086 0.062887  0.078127 0.654286 1 1 1.000000
0  44.704987 -12.621446 40.451946  -0.311650 0.948119 0.062802  0.078127 0.652333 1 1 1.000000
misc
0  44.842621 -12.511334 39.392132  -0.311671 0.948114 0.062778  0.078127 0.652333 1 1 1.000000
0  44.704987 -12.621446 40.451946  -0.311650 0.948119 0.062802  0.078127 0.652333 1 1 1.000000
0  44.842621 -12.580154 40.507004  -0.311733 0.948086 0.062887  0.078127 0.654286 1 1 1.000000
misc
0  44.842621 -12.580154 40.507004  -0.311733 0.948086 0.062887  0.078127 0.654286 1 1 1.000000
0  44.966496 -12.470043 39.405895  -0.311699 0.948105 0.062779  0.078127 0.654286 1 1 1.000000
0  44.842621 -12.511334 39.392132  -0.311671 0.948114 0.062778  0.078127 0.652333 1 1 1.000000
misc
0  44.897678 -12.414988 38.304787  -0.311616 0.948133 0.062770  0.078127 0.652333 1 1 1.000000
0  44.842621 -12.511334 39.392132  -0.311671 0.948114 0.062778  0.078127 0.652333 1 1 1.000000
0  44.966496 -12.470043 39.405895  -0.311699 0.948105 0.062779  0.078127 0.654286 1 1 1.000000
misc
0  44.966496 -12.470043 39.405895  -0.311699 0.948105 0.062779  0.078127 0.654286 1 1 1.000000
0  45.035316 -12.373696 38.318550  -0.311618 0.948132 0.062772  0.078127 0.654286 1 1 1.000000
0  44.897678 -12.414988 38.304787  -0.311616 0.948133 0.062770  0.078127 0.652333 1 1 1.000000
misc
0  44.883915 -12.373696 37.478954  -0.311697 0.948105 0.062776  0.078127 0.652333 1 1 1.000000
0  44.897678 -12.414988 38.304787  -0.311616 0.948133 0.062770  0.078127 0.652333 1 1 1.000000
0  45.035316 -12.373696 38.318550  -0.311618 0.948132 0.062772  0.078127 0.654286 1 1 1.000000
misc
0  45.035316 -12.373696 38.318550  -0.311618 0.948132 0.062772  0.078127 0.654286 1 1 1.000000
0  45.021553 -12.318641 37.465191  -0.311686 0.948109 0.062771  0.078127 0.654286 1 1 1.000000
0  44.883915 -12.373696 37.478954  -0.311697 0.948105 0.062776  0.078127 0.652333 1 1 1.000000
misc
0  44.677460 -12.387460 36.680653  -0.311693 0.948107 0.062772  0.078127 0.652333 1 1 1.000000
0  44.883915 -12.373696 37.478954  -0.311697 0.948105 0.062776  0.078127 0.652333 1 1 1.000000
0  45.021553 -12.318641 37.465191  -0.311686 0.948109 0.062771  0.078127 0.654286 1 1 1.000000
misc
0  45.021553 -12.318641 37.465191  -0.311686 0.948109 0.062771  0.078127 0.654286 1 1 1.000000
0  44.787567 -12.346169 36.611835  -0.311704 0.948102 0.062788  0.078127 0.654286 1 1 1.000000
0  44.677460 -12.387460 36.680653  -0.311693 0.948107 0.062772  0.078127 0.652333 1 1 1.000000
misc
0  44.402180 -12.456280 36.350319  -0.311658 0.948118 0.062777  0.078127 0.652333 1 1 1.000000
0  44.677460 -12.387460 36.680653  -0.311693 0.948107 0.062772  0.078127 0.652333 1 1 1.000000
0  44.787567 -12.346169 36.611835  -0.311704 0.948102 0.062788  0.078127 0.654286 1 1 1.000000
misc
0  44.787567 -12.346169 36.611835  -0.311704 0.948102 0.062788  0.078127 0.654286 1 1 1.000000
0  44.484760 -12.414988 36.226444  -0.311658 0.948118 0.062775  0.078127 0.654286 1 1 1.000000
0  44.402180 -12.456280 36.350319  -0.311658 0.948118 0.062777  0.078127 0.652333 1 1 1.000000
misc
0  43.975498 -12.580155 36.143860  -0.311656 0.948120 0.062754  0.078127 0.652333 1 1 1.000000
0  44.402180 -12.456280 36.350319  -0.311658 0.948118 0.062777  0.078127 0.652333 1 1 1.000000
0  44.484760 -12.414988 36.226444  -0.311658 0.948118 0.062775  0.078127 0.654286 1 1 1.000000
misc
0  44.484760 -12.414988 36.226444  -0.311658 0.948118 0.062775  0.078127 0.654286 1 1 1.000000
0  44.003029 -12.566392 36.006226  -0.311660 0.948120 0.062745  0.078127 0.654286 1 1 1.000000
0  43.975498 -12.580155 36.143860  -0.311656 0.948120 0.062754  0.078127 0.652333 1 1 1.000000
misc
0  37.410145 -14.713552 35.744713  -0.311636 0.948123 0.062814  0.078127 0.652333 1 1 1.000000
0  43.975498 -12.580155 36.143860  -0.311656 0.948120 0.062754  0.078127 0.652333 1 1 1.000000
0  44.003029 -12.566392 36.006226  -0.311660 0.948120 0.062745  0.078127 0.654286 1 1 1.000000
misc
0  44.003029 -12.566392 36.006226  -0.311660 0.948120 0.062745  0.078127 0.654286 1 1 1.000000
0  37.396381 -14.699788 35.607071  -0.311646 0.948119 0.062824  0.078127 0.654286 1 1 1.000000
0  37.410145 -14.713552 35.744713  -0.311636 0.948123 0.062814  0.078127 0.652333 1 1 1.000000
misc
0  36.556786 -15.002592 35.882351  -0.311660 0.948118 0.062773  0.078127 0.652333 1 1 1.000000
0  37.410145 -14.713552 35.744713  -0.311636 0.948123 0.062814  0.078127 0.652333 1 1 1.000000
0  37.396381 -14.699788 35.607071  -0.311646 0.948119 0.062824  0.078127 0.654286 1 1 1.000000
misc
0  37.396381 -14.699788 35.607071  -0.311646 0.948119 0.062824  0.078127 0.654286 1 1 1.000000
0  36.474201 -15.016356 35.758476  -0.311642 0.948122 0.062797  0.078127 0.654286 1 1 1.000000
0  36.556786 -15.002592 35.882351  -0.311660 0.948118 0.062773  0.078127 0.652333 1 1 1.000000
misc
0  36.116341 -15.195286 36.556778  -0.311634 0.948123 0.062828  0.078127 0.652333 1 1 1.000000
0  36.556786 -15.002592 35.882351  -0.311660 0.948118 0.062773  0.078127 0.652333 1 1 1.000000
0  36.474201 -15.016356 35.758476  -0.311642 0.948122 0.062797  0.078127 0.654286 1 1 1.000000
misc
0  36.474201 -15.016356 35.758476  -0.311642 0.948122 0.062797  0.078127 0.654286 1 1 1.000000
0  35.992470 -15.222814 36.501724  -0.311655 0.948117 0.062817  0.078127 0.654286 1 1 1.000000
0  36.116341 -15.195286 36.556778  -0.311634 0.948123 0.062828  0.078127 0.652333 1 1 1.000000
misc
0  35.675900 -15.525618 39.405895  -0.311694 0.948106 0.062781  0.078127 0.652333 1 1 1.000000
0  36.116341 -15.195286 36.556778  -0.311634 0.948123 0.062828  0.078127 0.652333 1 1 1.000000
0  35.992470 -15.222814 36.501724  -0.311655 0.948117 0.062817  0.078127 0.654286 1 1 1.000000
misc
0  35.992470 -15.222814 36.501724  -0.311655 0.948117 0.062817  0.078127 0.654286 1 1 1.000000
0  35.552025 -15.566911 39.392132  -0.311651 0.948121 0.062773  0.078127 0.654286 1 1 1.000000
0  35.675900 -15.525618 39.405895  -0.311694 0.948106 0.062781  0.078127 0.652333 1 1 1.000000
misc
0  35.593315 -15.608202 40.190434  -0.311646 0.948122 0.062776  0.078127 0.652333 1 1 1.000000
0  35.675900 -15.525618 39.405895  -0.311694 0.948106 0.062781  0.078127 0.652333 1 1 1.000000
0  35.552025 -15.566911 39.392132  -0.311651 0.948121 0.062773  0.078127 0.654286 1 1 1.000000
misc
0  35.552025 -15.566911 39.392132  -0.311651 0.948121 0.062773  0.078127 0.654286 1 1 1.000000
0  35.455677 -15.649492 40.190434  -0.311655 0.948119 0.062776  0.078127 0.654286 1 1 1.000000
0  35.593315 -15.608202 40.190434  -0.311646 0.948122 0.062776  0.078127 0.652333 1 1 1.000000
misc
0  35.634609 -15.635729 40.961208  -0.311649 0.948121 0.062785  0.078127 0.652333 1 1 1.000000
0  35.593315 -15.608202 40.190434  -0.311646 0.948122 0.062776  0.078127 0.652333 1 1 1.000000
0  35.455677 -15.649492 40.190434  -0.311655 0.948119 0.062776  0.078127 0.654286 1 1 1.000000
misc
0  35.455677 -15.649492 40.190434  -0.311655 0.948119 0.062776  0.078127 0.654286 1 1 1.000000
0  35.510735 -15.677021 40.988735  -0.311639 0.948127 0.062739  0.078127 0.654286 1 1 1.000000
0  35.634609 -15.635729 40.961208  -0.311649 0.948121 0.062785  0.078127 0.652333 1 1 1.000000
misc
0  35.772247 -15.608202 41.250252  -0.311662 0.948116 0.062786  0.078127 0.652333 1 1 1.000000
0  35.634609 -15.635729 40.961208  -0.311649 0.948121 0.062785  0.078127 0.652333 1 1 1.000000
0  35.510735 -15.677021 40.988735  -0.311639 0.948127 0.062739  0.078127 0.654286 1 1 1.000000
misc
0  35.510735 -15.677021 40.988735  -0.311639 0.948127 0.062739  0.078127 0.654286 1 1 1.000000
0  35.689663 -15.649492 41.360363  -0.311690 0.948108 0.062765  0.078127 0.654286 1 1 1.000000
0  35.772247 -15.608202 41.250252  -0.311662 0.948116 0.062786  0.078127 0.652333 1 1 1.000000
misc
0  36.487965 -16.117464 41.071320  -0.003390 0.437384 -0.899268  0.078127 0.654286 1 1 1.000000
0  36.295273 -16.186285 40.974972  0.400894 0.641652 -0.653886  0.078127 0.654286 1 1 1.000000
0  35.772247 -15.608202 41.250252  0.427869 0.663363 -0.613904  0.078127 0.654286 1 1 1.000000
misc
0  35.772247 -15.608202 41.250252  0.427869 0.663363 -0.613904  0.078127 0.654286 1 1 1.000000
0  36.047523 -15.525618 41.346600  0.026986 0.456339 -0.889397  0.078127 0.654286 1 1 1.000000
0  36.487965 -16.117464 41.071320  -0.003390 0.437384 -0.899268  0.078127 0.654286 1 1 1.000000
misc
0  41.924686 -14.080415 40.947445  -0.219816 0.516454 -0.827621  0.078127 0.654286 1 1 1.000000
0  36.487965 -16.117464 41.071320  -0.003390 0.437384 -0.899268  0.078127 0.654286 1 1 1.000000
0  36.047523 -15.525618 41.346600  0.026986 0.456339 -0.889397  0.078127 0.654286 1 1 1.000000
misc
0  36.047523 -15.525618 41.346600  0.026986 0.456339 -0.889397  0.078127 0.654286 1 1 1.000000
0  41.759521 -13.639972 41.264015  -0.216341 0.532408 -0.818376  0.078127 0.654286 1 1 1.000000
0  41.924686 -14.080415 40.947445  -0.219816 0.516454 -0.827621  0.078127 0.654286 1 1 1.000000
misc
0  42.626644 -13.805138 40.892391  -0.267125 0.533784 -0.802321  0.078127 0.654286 1 1 1.000000
0  41.924686 -14.080415 40.947445  -0.219816 0.516454 -0.827621  0.078127 0.654286 1 1 1.000000
0  41.759521 -13.639972 41.264015  -0.216341 0.532408 -0.818376  0.078127 0.654286 1 1 1.000000
misc
0  41.759521 -13.639972 41.264015  -0.216341 0.532408 -0.818376  0.078127 0.654286 1 1 1.000000
0  42.489002 -13.405985 41.222721  -0.259888 0.550614 -0.793273  0.078127 0.654286 1 1 1.000000
0  42.626644 -13.805138 40.892391  -0.267125 0.533784 -0.802321  0.078127 0.654286 1 1 1.000000
misc
0  43.548820 -13.461041 40.796047  -0.337404 0.553919 -0.761139  0.078127 0.654286 1 1 1.000000
0  42.626644 -13.805138 40.892391  -0.267125 0.533784 -0.802321  0.078127 0.654286 1 1 1.000000
0  42.489002 -13.405985 41.222721  -0.259888 0.550614 -0.793273  0.078127 0.654286 1 1 1.000000
misc
0  42.489002 -13.405985 41.222721  -0.259888 0.550614 -0.793273  0.078127 0.654286 1 1 1.000000
0  43.438713 -13.089418 41.126377  -0.327127 0.571467 -0.752605  0.078127 0.654286 1 1 1.000000
0  43.548820 -13.461041 40.796047  -0.337404 0.553919 -0.761139  0.078127 0.654286 1 1 1.000000
misc
0  44.140667 -13.227057 40.658401  -0.464848 0.547771 -0.695603  0.078127 0.654286 1 1 1.000000
0  43.548820 -13.461041 40.796047  -0.337404 0.553919 -0.761139  0.078127 0.654286 1 1 1.000000
0  43.438713 -13.089418 41.126377  -0.327127 0.571467 -0.752605  0.078127 0.654286 1 1 1.000000
misc
0  43.438713 -13.089418 41.126377  -0.327127 0.571467 -0.752605  0.078127 0.654286 1 1 1.000000
0  44.154430 -12.841668 40.947445  -0.474639 0.549322 -0.687723  0.078127 0.654286 1 1 1.000000
0  44.140667 -13.227057 40.658401  -0.464848 0.547771 -0.695603  0.078127 0.654286 1 1 1.000000
misc
0  44.415943 -13.116944 40.507004  -0.704816 0.487662 -0.515189  0.078127 0.654286 1 1 1.000000
0  44.140667 -13.227057 40.658401  -0.464848 0.547771 -0.695603  0.078127 0.654286 1 1 1.000000
0  44.154430 -12.841668 40.947445  -0.474639 0.549322 -0.687723  0.078127 0.654286 1 1 1.000000
misc
0  44.154430 -12.841668 40.947445  -0.474639 0.549322 -0.687723  0.078127 0.654286 1 1 1.000000
0  44.539818 -12.690265 40.727222  -0.712905 0.490408 -0.501266  0.078127 0.654286 1 1 1.000000
0  44.415943 -13.116944 40.507004  -0.704816 0.487662 -0.515189  0.078127 0.654286 1 1 1.000000
misc
0  44.594872 -13.034361 40.190434  -0.903919 0.379681 -0.196907  0.078127 0.654286 1 1 1.000000
0  44.415943 -13.116944 40.507004  -0.704816 0.487662 -0.515189  0.078127 0.654286 1 1 1.000000
0  44.539818 -12.690265 40.727222  -0.712905 0.490408 -0.501266  0.078127 0.654286 1 1 1.000000
misc
0  44.539818 -12.690265 40.727222  -0.712905 0.490408 -0.501266  0.078127 0.654286 1 1 1.000000
0  44.704987 -12.621446 40.451946  -0.870800 0.418747 -0.257601  0.078127 0.654286 1 1 1.000000
0  44.594872 -13.034361 40.190434  -0.903919 0.379681 -0.196907  0.078127 0.654286 1 1 1.000000
misc
0  44.691223 -12.951777 39.323311  -0.945398 0.321442 -0.053833  0.078127 0.654286 1 1 1.000000
0  44.594872 -13.034361 40.190434  -0.903919 0.379681 -0.196907  0.078127 0.654286 1 1 1.000000
0  44.704987 -12.621446 40.451946  -0.870800 0.418747 -0.257601  0.078127 0.654286 1 1 1.000000
misc
0  44.704987 -12.621446 40.451946  -0.870800 0.418747 -0.257601  0.078127 0.654286 1 1 1.000000
0  44.842621 -12.511334 39.392132  -0.945351 0.321346 -0.055210  0.078127 0.654286 1 1 1.000000
0  44.691223 -12.951777 39.323311  -0.945398 0.321442 -0.053833  0.078127 0.654286 1 1 1.000000
misc
0  44.746277 -12.882957 38.249729  -0.950022 0.312152 0.004277  0.078127 0.654286 1 1 1.000000
0  44.691223 -12.951777 39.323311  -0.945398 0.321442 -0.053833  0.078127 0.654286 1 1 1.000000
0  44.842621 -12.511334 39.392132  -0.945351 0.321346 -0.055210  0.078127 0.654286 1 1 1.000000
misc
0  44.842621 -12.511334 39.392132  -0.945351 0.321346 -0.055210  0.078127 0.654286 1 1 1.000000
0  44.897678 -12.414988 38.304787  -0.950419 0.310953 0.003325  0.078127 0.654286 1 1 1.000000
0  44.746277 -12.882957 38.249729  -0.950022 0.312152 0.004277  0.078127 0.654286 1 1 1.000000
misc
0  44.732513 -12.855431 37.478954  -0.943969 0.300580 0.136288  0.078127 0.654286 1 1 1.000000
0  44.746277 -12.882957 38.249729  -0.950022 0.312152 0.004277  0.078127 0.654286 1 1 1.000000
0  44.897678 -12.414988 38.304787  -0.950419 0.310953 0.003325  0.078127 0.654286 1 1 1.000000
misc
0  44.897678 -12.414988 38.304787  -0.950419 0.310953 0.003325  0.078127 0.654286 1 1 1.000000
0  44.883915 -12.373696 37.478954  -0.944832 0.298908 0.133964  0.078127 0.654286 1 1 1.000000
0  44.732513 -12.855431 37.478954  -0.943969 0.300580 0.136288  0.078127 0.654286 1 1 1.000000
misc
0  44.539818 -12.882957 36.777000  -0.864288 0.299211 0.404325  0.078127 0.654286 1 1 1.000000
0  44.732513 -12.855431 37.478954  -0.943969 0.300580 0.136288  0.078127 0.654286 1 1 1.000000
0  44.883915 -12.373696 37.478954  -0.944832 0.298908 0.133964  0.078127 0.654286 1 1 1.000000
misc
0  44.883915 -12.373696 37.478954  -0.944832 0.298908 0.133964  0.078127 0.654286 1 1 1.000000
0  44.677460 -12.387460 36.680653  -0.866703 0.294061 0.402931  0.078127 0.654286 1 1 1.000000
0  44.539818 -12.882957 36.777000  -0.864288 0.299211 0.404325  0.078127 0.654286 1 1 1.000000
misc
0  44.360889 -12.938014 36.543015  -0.644581 0.338259 0.685635  0.078127 0.654286 1 1 1.000000
0  44.539818 -12.882957 36.777000  -0.864288 0.299211 0.404325  0.078127 0.654286 1 1 1.000000
0  44.677460 -12.387460 36.680653  -0.866703 0.294061 0.402931  0.078127 0.654286 1 1 1.000000
misc
0  44.677460 -12.387460 36.680653  -0.866703 0.294061 0.402931  0.078127 0.654286 1 1 1.000000
0  44.402180 -12.456280 36.350319  -0.644772 0.331750 0.688630  0.078127 0.654286 1 1 1.000000
0  44.360889 -12.938014 36.543015  -0.644581 0.338259 0.685635  0.078127 0.654286 1 1 1.000000
misc
0  44.044319 -13.048125 36.391613  -0.352036 0.404844 0.843903  0.078127 0.654286 1 1 1.000000
0  44.360889 -12.938014 36.543015  -0.644581 0.338259 0.685635  0.078127 0.654286 1 1 1.000000
0  44.402180 -12.456280 36.350319  -0.644772 0.331750 0.688630  0.078127 0.654286 1 1 1.000000
misc
0  44.402180 -12.456280 36.350319  -0.644772 0.331750 0.688630  0.078127 0.654286 1 1 1.000000
0  43.975498 -12.580155 36.143860  -0.352188 0.396477 0.847803  0.078127 0.654286 1 1 1.000000
0  44.044319 -13.048125 36.391613  -0.352036 0.404844 0.843903  0.078127 0.654286 1 1 1.000000
misc
0  37.657894 -15.429271 36.047516  -0.079145 0.364257 0.927929  0.078127 0.654286 1 1 1.000000
0  44.044319 -13.048125 36.391613  -0.352036 0.404844 0.843903  0.078127 0.654286 1 1 1.000000
0  43.975498 -12.580155 36.143860  -0.352188 0.396477 0.847803  0.078127 0.654286 1 1 1.000000
misc
0  43.975498 -12.580155 36.143860  -0.352188 0.396477 0.847803  0.078127 0.654286 1 1 1.000000
0  37.410145 -14.713552 35.744713  -0.077968 0.359911 0.929723  0.078127 0.654286 1 1 1.000000
0  37.657894 -15.429271 36.047516  -0.079145 0.364257 0.927929  0.078127 0.654286 1 1 1.000000
misc
0  36.969700 -15.704548 36.171391  0.340163 0.518723 0.784357  0.078127 0.654286 1 1 1.000000
0  37.657894 -15.429271 36.047516  -0.079145 0.364257 0.927929  0.078127 0.654286 1 1 1.000000
0  37.410145 -14.713552 35.744713  -0.077968 0.359911 0.929723  0.078127 0.654286 1 1 1.000000
misc
0  37.410145 -14.713552 35.744713  -0.077968 0.359911 0.929723  0.078127 0.654286 1 1 1.000000
0  36.556786 -15.002592 35.882351  0.322230 0.511778 0.796399  0.078127 0.654286 1 1 1.000000
0  36.969700 -15.704548 36.171391  0.340163 0.518723 0.784357  0.078127 0.654286 1 1 1.000000
misc
0  36.639370 -15.842187 36.680653  0.697870 0.615707 0.365899  0.078127 0.654286 1 1 1.000000
0  36.969700 -15.704548 36.171391  0.340163 0.518723 0.784357  0.078127 0.654286 1 1 1.000000
0  36.556786 -15.002592 35.882351  0.322230 0.511778 0.796399  0.078127 0.654286 1 1 1.000000
misc
0  36.556786 -15.002592 35.882351  0.322230 0.511778 0.796399  0.078127 0.654286 1 1 1.000000
0  36.116341 -15.195286 36.556778  0.687593 0.616762 0.383172  0.078127 0.654286 1 1 1.000000
0  36.639370 -15.842187 36.680653  0.697870 0.615707 0.365899  0.078127 0.654286 1 1 1.000000
misc
0  36.212688 -16.144991 39.474716  0.738555 0.655396 0.158089  0.078127 0.654286 1 1 1.000000
0  36.639370 -15.842187 36.680653  0.697870 0.615707 0.365899  0.078127 0.654286 1 1 1.000000
0  36.116341 -15.195286 36.556778  0.687593 0.616762 0.383172  0.078127 0.654286 1 1 1.000000
misc
0  36.116341 -15.195286 36.556778  0.687593 0.616762 0.383172  0.078127 0.654286 1 1 1.000000
0  35.675900 -15.525618 39.405895  0.733443 0.659344 0.165310  0.078127 0.654286 1 1 1.000000
0  36.212688 -16.144991 39.474716  0.738555 0.655396 0.158089  0.078127 0.654286 1 1 1.000000
misc
0  36.143867 -16.213812 40.217960  0.741979 0.668462 0.051237  0.078127 0.654286 1 1 1.000000
0  36.212688 -16.144991 39.474716  0.738555 0.655396 0.158089  0.078127 0.654286 1 1 1.000000
0  35.675900 -15.525618 39.405895  0.733443 0.659344 0.165310  0.078127 0.654286 1 1 1.000000
misc
0  35.675900 -15.525618 39.405895  0.733443 0.659344 0.165310  0.078127 0.654286 1 1 1.000000
0  35.593315 -15.608202 40.190434  0.736970 0.672632 0.066642  0.078127 0.654286 1 1 1.000000
0  36.143867 -16.213812 40.217960  0.741979 0.668462 0.051237  0.078127 0.654286 1 1 1.000000
misc
0  36.171398 -16.227575 40.782276  0.684354 0.690404 -0.234527  0.078127 0.654286 1 1 1.000000
0  36.143867 -16.213812 40.217960  0.741979 0.668462 0.051237  0.078127 0.654286 1 1 1.000000
0  35.593315 -15.608202 40.190434  0.736970 0.672632 0.066642  0.078127 0.654286 1 1 1.000000
misc
0  35.593315 -15.608202 40.190434  0.736970 0.672632 0.066642  0.078127 0.654286 1 1 1.000000
0  35.634609 -15.635729 40.961208  0.683263 0.702707 -0.198382  0.078127 0.654286 1 1 1.000000
0  36.171398 -16.227575 40.782276  0.684354 0.690404 -0.234527  0.078127 0.654286 1 1 1.000000
misc
0  36.295273 -16.186285 40.974972  0.400894 0.641652 -0.653886  0.078127 0.654286 1 1 1.000000
0  36.171398 -16.227575 40.782276  0.684354 0.690404 -0.234527  0.078127 0.654286 1 1 1.000000
0  35.634609 -15.635729 40.961208  0.683263 0.702707 -0.198382  0.078127 0.654286 1 1 1.000000
misc
0  35.634609 -15.635729 40.961208  0.683263 0.702707 -0.198382  0.078127 0.654286 1 1 1.000000
0  35.772247 -15.608202 41.250252  0.427869 0.663363 -0.613904  0.078127 0.654286 1 1 1.000000
0  36.295273 -16.186285 40.974972  0.400894 0.641652 -0.653886  0.078127 0.654286 1 1 1.000000
end
