version 1
nodes
0 "blender_implicit" -1
1 "root" -1
2 "steering_wheel" 1
end
skeleton
time 0
0  0.000000 0.000000 0.000000  0.000000 -0.000000 0.000000
1  0.000000 0.000000 0.000000  1.570796 -0.000000 0.000000
2  18.487606 30.459389 10.889965  0.000000 -0.000000 0.000000
end
triangles
chassis
0  31.725668 33.625084 -2.009524  -0.272922 0.185924 -0.943899  0.447279 0.160131 1 1 1.000000
0  25.710867 27.472643 -1.637900  0.060873 -0.131884 -0.989394  0.447279 0.160131 1 1 1.000000
0  25.201605 28.436111 0.784537  -0.477324 0.775429 -0.413366  0.447279 0.164037 1 1 1.000000
chassis
0  25.201605 28.436111 0.784537  -0.477324 0.775429 -0.413366  0.447279 0.164037 1 1 1.000000
0  31.422863 34.671139 -0.110113  -0.667121 0.602649 -0.437909  0.447279 0.164037 1 1 1.000000
0  31.725668 33.625084 -2.009524  -0.272922 0.185924 -0.943899  0.447279 0.160131 1 1 1.000000
chassis
0  32.014709 32.579033 -0.110113  0.625894 -0.642684 -0.441830  0.447279 0.164037 1 1 1.000000
0  26.220131 26.509174 0.784537  0.453026 -0.791443 -0.410349  0.447279 0.164037 1 1 1.000000
0  25.710867 27.472643 -1.637900  0.060873 -0.131884 -0.989394  0.447279 0.160131 1 1 1.000000
chassis
0  25.710867 27.472643 -1.637900  0.060873 -0.131884 -0.989394  0.447279 0.160131 1 1 1.000000
0  31.725668 33.625084 -2.009524  -0.272922 0.185924 -0.943899  0.447279 0.160131 1 1 1.000000
0  32.014709 32.579033 -0.110113  0.625894 -0.642684 -0.441830  0.447279 0.164037 1 1 1.000000
chassis
0  25.710867 27.472643 -1.637900  0.060873 -0.131884 -0.989394  0.447279 0.160131 1 1 1.000000
0  10.488050 22.834225 -1.789301  -0.236469 -0.242416 -0.940913  0.447279 0.160131 1 1 1.000000
0  10.061372 23.825224 0.633136  0.286601 0.901735 -0.323626  0.447279 0.164037 1 1 1.000000
chassis
0  10.061372 23.825224 0.633136  0.286601 0.901735 -0.323626  0.447279 0.164037 1 1 1.000000
0  25.201605 28.436111 0.784537  -0.477324 0.775429 -0.413366  0.447279 0.164037 1 1 1.000000
0  25.710867 27.472643 -1.637900  0.060873 -0.131884 -0.989394  0.447279 0.160131 1 1 1.000000
chassis
0  26.220131 26.509174 0.784537  0.453026 -0.791443 -0.410349  0.447279 0.164037 1 1 1.000000
0  10.914730 21.829464 0.633136  -0.130189 -0.919976 -0.369722  0.447279 0.164037 1 1 1.000000
0  10.488050 22.834225 -1.789301  -0.236469 -0.242416 -0.940913  0.447279 0.160131 1 1 1.000000
chassis
0  10.488050 22.834225 -1.789301  -0.236469 -0.242416 -0.940913  0.447279 0.160131 1 1 1.000000
0  25.710867 27.472643 -1.637900  0.060873 -0.131884 -0.989394  0.447279 0.160131 1 1 1.000000
0  26.220131 26.509174 0.784537  0.453026 -0.791443 -0.410349  0.447279 0.164037 1 1 1.000000
chassis
0  10.488050 22.834225 -1.789301  -0.236469 -0.242416 -0.940913  0.447279 0.160131 1 1 1.000000
0  6.152438 26.481646 -1.624135  0.382994 0.450673 -0.806355  0.447279 0.160131 1 1 1.000000
0  5.932217 27.541458 0.798303  0.625334 0.739629 -0.248810  0.447279 0.164037 1 1 1.000000
chassis
0  5.932217 27.541458 0.798303  0.625334 0.739629 -0.248810  0.447279 0.164037 1 1 1.000000
0  10.061372 23.825224 0.633136  0.286601 0.901735 -0.323626  0.447279 0.164037 1 1 1.000000
0  10.488050 22.834225 -1.789301  -0.236469 -0.242416 -0.940913  0.447279 0.160131 1 1 1.000000
chassis
0  10.914730 21.829464 0.633136  -0.130189 -0.919976 -0.369722  0.447279 0.164037 1 1 1.000000
0  6.358896 25.408066 0.798303  -0.601259 -0.749346 -0.277431  0.447279 0.164037 1 1 1.000000
0  6.152438 26.481646 -1.624135  0.382994 0.450673 -0.806355  0.447279 0.160131 1 1 1.000000
chassis
0  6.152438 26.481646 -1.624135  0.382994 0.450673 -0.806355  0.447279 0.160131 1 1 1.000000
0  10.488050 22.834225 -1.789301  -0.236469 -0.242416 -0.940913  0.447279 0.160131 1 1 1.000000
0  10.914730 21.829464 0.633136  -0.130189 -0.919976 -0.369722  0.447279 0.164037 1 1 1.000000
chassis
0  -25.229136 28.436108 0.784541  0.477324 0.775429 -0.413366  0.447279 0.164037 1 1 1.000000
0  -25.738398 27.472639 -1.637896  -0.060873 -0.131885 -0.989394  0.447279 0.160131 1 1 1.000000
0  -31.753199 33.625076 -2.009520  0.272922 0.185925 -0.943899  0.447279 0.160131 1 1 1.000000
chassis
0  -31.753199 33.625076 -2.009520  0.272922 0.185925 -0.943899  0.447279 0.160131 1 1 1.000000
0  -31.450397 34.671131 -0.110108  0.667260 0.602714 -0.437608  0.447279 0.164037 1 1 1.000000
0  -25.229136 28.436108 0.784541  0.477324 0.775429 -0.413366  0.447279 0.164037 1 1 1.000000
chassis
0  -25.738398 27.472639 -1.637896  -0.060873 -0.131885 -0.989394  0.447279 0.160131 1 1 1.000000
0  -26.247662 26.509171 0.784541  -0.453026 -0.791443 -0.410348  0.447279 0.164037 1 1 1.000000
0  -32.042244 32.579025 -0.110108  -0.625916 -0.642692 -0.441788  0.447279 0.164037 1 1 1.000000
chassis
0  -32.042244 32.579025 -0.110108  -0.625916 -0.642692 -0.441788  0.447279 0.164037 1 1 1.000000
0  -31.753199 33.625076 -2.009520  0.272922 0.185925 -0.943899  0.447279 0.160131 1 1 1.000000
0  -25.738398 27.472639 -1.637896  -0.060873 -0.131885 -0.989394  0.447279 0.160131 1 1 1.000000
chassis
0  -10.088903 23.825224 0.633138  -0.286656 0.901717 -0.323627  0.447279 0.164037 1 1 1.000000
0  -10.515582 22.834225 -1.789299  0.236741 -0.241983 -0.940956  0.447279 0.160131 1 1 1.000000
0  -25.738398 27.472639 -1.637896  -0.060873 -0.131885 -0.989394  0.447279 0.160131 1 1 1.000000
chassis
0  -25.738398 27.472639 -1.637896  -0.060873 -0.131885 -0.989394  0.447279 0.160131 1 1 1.000000
0  -25.229136 28.436108 0.784541  0.477324 0.775429 -0.413366  0.447279 0.164037 1 1 1.000000
0  -10.088903 23.825224 0.633138  -0.286656 0.901717 -0.323627  0.447279 0.164037 1 1 1.000000
chassis
0  -10.515582 22.834225 -1.789299  0.236741 -0.241983 -0.940956  0.447279 0.160131 1 1 1.000000
0  -10.942263 21.829464 0.633138  0.130189 -0.919976 -0.369722  0.447279 0.164037 1 1 1.000000
0  -26.247662 26.509171 0.784541  -0.453026 -0.791443 -0.410348  0.447279 0.164037 1 1 1.000000
chassis
0  -26.247662 26.509171 0.784541  -0.453026 -0.791443 -0.410348  0.447279 0.164037 1 1 1.000000
0  -25.738398 27.472639 -1.637896  -0.060873 -0.131885 -0.989394  0.447279 0.160131 1 1 1.000000
0  -10.515582 22.834225 -1.789299  0.236741 -0.241983 -0.940956  0.447279 0.160131 1 1 1.000000
chassis
0  -5.959749 27.541458 0.798304  -0.625395 0.739625 -0.248670  0.447279 0.164037 1 1 1.000000
0  -6.179970 26.481646 -1.624134  -0.383536 0.450770 -0.806044  0.447279 0.160131 1 1 1.000000
0  -10.515582 22.834225 -1.789299  0.236741 -0.241983 -0.940956  0.447279 0.160131 1 1 1.000000
chassis
0  -10.515582 22.834225 -1.789299  0.236741 -0.241983 -0.940956  0.447279 0.160131 1 1 1.000000
0  -10.088903 23.825224 0.633138  -0.286656 0.901717 -0.323627  0.447279 0.164037 1 1 1.000000
0  -5.959749 27.541458 0.798304  -0.625395 0.739625 -0.248670  0.447279 0.164037 1 1 1.000000
chassis
0  -6.179970 26.481646 -1.624134  -0.383536 0.450770 -0.806044  0.447279 0.160131 1 1 1.000000
0  -6.386427 25.408066 0.798304  0.601258 -0.749347 -0.277431  0.447279 0.164037 1 1 1.000000
0  -10.942263 21.829464 0.633138  0.130189 -0.919976 -0.369722  0.447279 0.164037 1 1 1.000000
chassis
0  -10.942263 21.829464 0.633138  0.130189 -0.919976 -0.369722  0.447279 0.164037 1 1 1.000000
0  -10.515582 22.834225 -1.789299  0.236741 -0.241983 -0.940956  0.447279 0.160131 1 1 1.000000
0  -6.179970 26.481646 -1.624134  -0.383536 0.450770 -0.806044  0.447279 0.160131 1 1 1.000000
end
