version 1
nodes
0 "blender_implicit" -1
1 "root" -1
2 "steering_wheel" 1
end
skeleton
time 0
0  0.000000 0.000000 0.000000  0.000000 -0.000000 0.000000
1  0.000000 0.000000 0.000000  1.570796 -0.000000 0.000000
2  18.487606 30.459389 10.889965  0.000000 -0.000000 0.000000
end
triangles
skin_0
0  -32.689144 89.630180 39.956455  -0.858227 -0.189930 0.476837  0.013688 0.019516 1 1 1.000000
0  -31.987190 96.787384 40.369373  -0.825756 0.246413 0.507354  0.013688 0.019516 1 1 1.000000
0  -32.606560 94.075905 39.543541  -0.911887 0.076576 0.403235  0.013688 0.019516 1 1 1.000000
skin_0
0  -32.606560 94.075905 39.543541  -0.911887 0.076576 0.403235  0.013688 0.019516 1 1 1.000000
0  -32.909367 89.588890 39.502251  -0.878084 -0.171674 0.446651  0.013688 0.019516 1 1 1.000000
0  -32.689144 89.630180 39.956455  -0.858227 -0.189930 0.476837  0.013688 0.019516 1 1 1.000000
skin_0
0  -0.013768 91.763580 40.782280  -0.000092 -0.999588 -0.028714  0.013688 0.019516 1 1 1.000000
0  -0.013768 91.749817 41.140144  -0.000093 -0.999588 -0.028695  0.013688 0.019516 1 1 1.000000
0  -8.616173 91.488297 40.974976  0.054873 -0.998193 -0.024485  0.013688 0.019516 1 1 1.000000
skin_0
0  -8.616173 91.488297 40.974976  0.054873 -0.998193 -0.024485  0.013688 0.019516 1 1 1.000000
0  -8.616173 91.488297 40.617115  0.055613 -0.998160 -0.024177  0.013688 0.019516 1 1 1.000000
0  -0.013768 91.763580 40.782280  -0.000092 -0.999588 -0.028714  0.013688 0.019516 1 1 1.000000
skin_0
0  -6.881928 100.214577 41.663166  -0.033437 0.506502 0.861590  0.013688 0.019516 1 1 1.000000
0  -0.013768 100.283394 41.704464  0.000008 0.505621 0.862756  0.013688 0.019516 1 1 1.000000
0  -0.013768 100.365982 41.566822  -0.000002 0.897344 0.441333  0.013688 0.019516 1 1 1.000000
skin_0
0  -0.013768 100.365982 41.566822  -0.000002 0.897344 0.441333  0.013688 0.019516 1 1 1.000000
0  -6.881928 100.283394 41.511765  -0.039604 0.897093 0.440064  0.013688 0.019516 1 1 1.000000
0  -6.881928 100.214577 41.663166  -0.033437 0.506502 0.861590  0.013688 0.019516 1 1 1.000000
skin_0
0  -5.945987 98.700554 39.130619  0.396144 0.692033 -0.603456  0.013688 0.019516 1 1 1.000000
0  -6.069862 99.430038 39.983978  -0.041814 0.770253 -0.636366  0.013688 0.019516 1 1 1.000000
0  -5.945987 99.374985 39.901394  0.131656 0.675300 -0.725697  0.013688 0.019516 1 1 1.000000
skin_0
0  -5.560599 99.430038 40.080326  0.170887 0.409293 -0.896257  0.013688 0.019516 1 1 1.000000
0  -5.629418 99.608963 40.149147  0.033039 0.670336 -0.741322  0.013688 0.019516 1 1 1.000000
0  -0.013768 99.719086 40.190437  -0.000299 0.621947 -0.783059  0.013688 0.019516 1 1 1.000000
skin_0
0  -0.013768 99.719086 40.190437  -0.000299 0.621947 -0.783059  0.013688 0.019516 1 1 1.000000
0  -0.013768 99.540146 40.121616  -0.000006 0.361644 -0.932316  0.013688 0.019516 1 1 1.000000
0  -5.560599 99.430038 40.080326  0.170887 0.409293 -0.896257  0.013688 0.019516 1 1 1.000000
skin_0
0  -5.945987 98.700554 39.130619  0.396144 0.692033 -0.603456  0.013688 0.019516 1 1 1.000000
0  -5.890932 99.196053 39.818813  0.624797 0.456462 -0.633460  0.013688 0.019516 1 1 1.000000
0  -5.698238 98.535385 39.529774  0.603752 0.455709 -0.654074  0.013688 0.019516 1 1 1.000000
skin_0
0  -5.890932 99.196053 39.818813  0.624797 0.456462 -0.633460  0.013688 0.019516 1 1 1.000000
0  -5.945987 99.374985 39.901394  0.131656 0.675300 -0.725697  0.013688 0.019516 1 1 1.000000
0  -5.629418 99.608963 40.149147  0.033039 0.670336 -0.741322  0.013688 0.019516 1 1 1.000000
skin_0
0  -5.629418 99.608963 40.149147  0.033039 0.670336 -0.741322  0.013688 0.019516 1 1 1.000000
0  -5.560599 99.430038 40.080326  0.170887 0.409293 -0.896257  0.013688 0.019516 1 1 1.000000
0  -5.890932 99.196053 39.818813  0.624797 0.456462 -0.633460  0.013688 0.019516 1 1 1.000000
skin_0
0  -21.044928 99.223587 41.043797  -0.119048 0.895150 0.429574  0.013688 0.019516 1 1 1.000000
0  -14.066657 99.856720 41.305309  -0.081634 0.896194 0.436086  0.013688 0.019516 1 1 1.000000
0  -14.066657 99.980598 41.030033  -0.081958 0.908425 0.409936  0.013688 0.019516 1 1 1.000000
skin_0
0  -14.066657 99.980598 41.030033  -0.081958 0.908425 0.409936  0.013688 0.019516 1 1 1.000000
0  -21.044928 99.347458 40.768517  -0.119238 0.908826 0.399771  0.013688 0.019516 1 1 1.000000
0  -21.044928 99.223587 41.043797  -0.119048 0.895150 0.429574  0.013688 0.019516 1 1 1.000000
skin_0
0  -17.094706 98.012360 38.855343  -0.055542 0.763286 -0.643669  0.013688 0.019516 1 1 1.000000
0  -21.044928 99.347458 40.768517  -0.072245 0.729694 -0.679946  0.013688 0.019516 1 1 1.000000
0  -14.066657 99.980598 41.030033  -0.044621 0.778466 -0.626098  0.013688 0.019516 1 1 1.000000
skin_0
0  -31.698147 96.622215 40.534538  -0.086904 -0.050550 0.994933  0.013688 0.019516 1 1 1.000000
0  -28.078255 96.429527 40.796055  -0.066063 -0.037981 0.997092  0.013688 0.019516 1 1 1.000000
0  -31.271467 97.241592 40.603355  -0.083409 -0.056754 0.994898  0.013688 0.019516 1 1 1.000000
skin_0
0  -30.913609 97.792145 40.520775  -0.319469 0.833937 0.449988  0.013688 0.019516 1 1 1.000000
0  -27.156076 98.411514 40.740993  -0.156135 0.889125 0.430207  0.013688 0.019516 1 1 1.000000
0  -27.156076 98.535385 40.451954  -0.157552 0.910894 0.381378  0.013688 0.019516 1 1 1.000000
skin_0
0  -27.156076 98.535385 40.451954  -0.157552 0.910894 0.381378  0.013688 0.019516 1 1 1.000000
0  -31.051245 97.888489 40.204205  -0.359051 0.832664 0.421607  0.013688 0.019516 1 1 1.000000
0  -30.913609 97.792145 40.520775  -0.319469 0.833937 0.449988  0.013688 0.019516 1 1 1.000000
skin_0
0  -31.904604 95.135719 38.593838  -0.510277 0.482399 -0.711975  0.013688 0.019516 1 1 1.000000
0  -32.358814 94.832916 38.882874  -0.854611 0.321098 -0.408089  0.013688 0.019516 1 1 1.000000
0  -32.138592 96.883728 40.039040  -0.907463 0.414803 -0.066713  0.013688 0.019516 1 1 1.000000
skin_0
0  -32.138592 96.883728 40.039040  -0.907463 0.414803 -0.066713  0.013688 0.019516 1 1 1.000000
0  -31.725674 97.530632 40.121620  -0.298207 0.541253 -0.786205  0.013688 0.019516 1 1 1.000000
0  -31.904604 95.135719 38.593838  -0.510277 0.482399 -0.711975  0.013688 0.019516 1 1 1.000000
skin_0
0  -6.881928 100.407272 41.250256  -0.021612 0.792001 -0.610137  0.013688 0.019516 1 1 1.000000
0  -10.763334 98.576683 39.048038  -0.030673 0.785437 -0.618181  0.013688 0.019516 1 1 1.000000
0  -14.066657 99.980598 41.030033  -0.044621 0.778466 -0.626098  0.013688 0.019516 1 1 1.000000
skin_0
0  -27.156076 98.535385 40.451954  -0.083059 0.652528 -0.753199  0.013688 0.019516 1 1 1.000000
0  -21.044928 99.347458 40.768517  -0.072245 0.729694 -0.679946  0.013688 0.019516 1 1 1.000000
0  -23.756407 96.980072 38.621361  -0.079714 0.695643 -0.713951  0.013688 0.019516 1 1 1.000000
skin_0
0  -14.066657 99.856720 41.305309  -0.081634 0.896194 0.436086  0.013688 0.019516 1 1 1.000000
0  -6.881928 100.283394 41.511765  -0.039604 0.897093 0.440064  0.013688 0.019516 1 1 1.000000
0  -6.881928 100.407272 41.250256  -0.039654 0.907714 0.417712  0.013688 0.019516 1 1 1.000000
skin_0
0  -6.881928 100.407272 41.250256  -0.039654 0.907714 0.417712  0.013688 0.019516 1 1 1.000000
0  -14.066657 99.980598 41.030033  -0.081958 0.908425 0.409936  0.013688 0.019516 1 1 1.000000
0  -14.066657 99.856720 41.305309  -0.081634 0.896194 0.436086  0.013688 0.019516 1 1 1.000000
skin_0
0  -27.156076 98.411514 40.740993  -0.156135 0.889125 0.430207  0.013688 0.019516 1 1 1.000000
0  -21.044928 99.223587 41.043797  -0.119048 0.895150 0.429574  0.013688 0.019516 1 1 1.000000
0  -21.044928 99.347458 40.768517  -0.119238 0.908826 0.399771  0.013688 0.019516 1 1 1.000000
skin_0
0  -21.044928 99.347458 40.768517  -0.119238 0.908826 0.399771  0.013688 0.019516 1 1 1.000000
0  -27.156076 98.535385 40.451954  -0.157552 0.910894 0.381378  0.013688 0.019516 1 1 1.000000
0  -27.156076 98.411514 40.740993  -0.156135 0.889125 0.430207  0.013688 0.019516 1 1 1.000000
skin_0
0  -5.698238 99.691559 40.259258  -0.032051 0.794164 -0.606858  0.013688 0.019516 1 1 1.000000
0  -6.881928 100.407272 41.250256  -0.021612 0.792001 -0.610137  0.013688 0.019516 1 1 1.000000
0  -0.013768 100.489853 41.305309  -0.002426 0.820684 -0.571377  0.013688 0.019516 1 1 1.000000
skin_0
0  -0.013768 100.489853 41.305309  -0.002426 0.820684 -0.571377  0.013688 0.019516 1 1 1.000000
0  -0.013768 99.801666 40.314312  -0.001553 0.821190 -0.570653  0.013688 0.019516 1 1 1.000000
0  -5.698238 99.691559 40.259258  -0.032051 0.794164 -0.606858  0.013688 0.019516 1 1 1.000000
skin_0
0  -6.881928 100.407272 41.250256  -0.021612 0.792001 -0.610137  0.013688 0.019516 1 1 1.000000
0  -5.698238 99.691559 40.259258  -0.032051 0.794164 -0.606858  0.013688 0.019516 1 1 1.000000
0  -6.069862 99.430038 39.983978  -0.041814 0.770253 -0.636366  0.013688 0.019516 1 1 1.000000
skin_0
0  -17.672785 91.061630 40.961212  0.014102 -0.481803 0.876166  0.013688 0.019516 1 1 1.000000
0  -17.893007 90.717529 40.672169  0.031916 -0.645366 0.763206  0.013688 0.019516 1 1 1.000000
0  -16.089943 90.896454 40.754753  0.033568 -0.638910 0.768548  0.013688 0.019516 1 1 1.000000
skin_0
0  -16.089943 90.896454 40.754753  0.033568 -0.638910 0.768548  0.013688 0.019516 1 1 1.000000
0  -16.323929 91.185501 41.002502  0.013054 -0.462352 0.886600  0.013688 0.019516 1 1 1.000000
0  -17.672785 91.061630 40.961212  0.014102 -0.481803 0.876166  0.013688 0.019516 1 1 1.000000
skin_0
0  -17.576439 97.737091 41.222725  -0.034550 -0.018704 0.999228  0.013688 0.019516 1 1 1.000000
0  -17.617729 91.474533 41.043797  -0.024131 -0.117303 0.992803  0.013688 0.019516 1 1 1.000000
0  -16.406511 91.598412 41.085087  -0.025784 -0.110466 0.993545  0.013688 0.019516 1 1 1.000000
skin_0
0  -16.406511 91.598412 41.085087  -0.025784 -0.110466 0.993545  0.013688 0.019516 1 1 1.000000
0  -16.282637 97.888489 41.277782  -0.036019 -0.029402 0.998919  0.013688 0.019516 1 1 1.000000
0  -17.576439 97.737091 41.222725  -0.034550 -0.018704 0.999228  0.013688 0.019516 1 1 1.000000
skin_0
0  -14.066657 99.980598 41.030033  -0.044621 0.778466 -0.626098  0.013688 0.019516 1 1 1.000000
0  -10.763334 98.576683 39.048038  -0.030673 0.785437 -0.618181  0.013688 0.019516 1 1 1.000000
0  -17.094706 98.012360 38.855343  -0.055542 0.763286 -0.643669  0.013688 0.019516 1 1 1.000000
skin_0
0  -17.094706 98.012360 38.855343  -0.055542 0.763286 -0.643669  0.013688 0.019516 1 1 1.000000
0  -23.756407 96.980072 38.621361  -0.079714 0.695643 -0.713951  0.013688 0.019516 1 1 1.000000
0  -21.044928 99.347458 40.768517  -0.072245 0.729694 -0.679946  0.013688 0.019516 1 1 1.000000
skin_0
0  -32.138592 96.883728 40.039040  -0.907463 0.414803 -0.066713  0.013688 0.019516 1 1 1.000000
0  -32.358814 94.832916 38.882874  -0.854611 0.321098 -0.408089  0.013688 0.019516 1 1 1.000000
0  -32.565269 94.447525 39.350845  -0.983806 0.178171 -0.019499  0.013688 0.019516 1 1 1.000000
skin_0
0  -23.756407 96.980072 38.621361  -0.079714 0.695643 -0.713951  0.013688 0.019516 1 1 1.000000
0  -28.394823 95.906494 38.401142  -0.126016 0.684896 -0.717661  0.013688 0.019516 1 1 1.000000
0  -28.422350 96.085419 38.580070  -0.107254 0.635986 -0.764211  0.013688 0.019516 1 1 1.000000
skin_0
0  -27.156076 98.535385 40.451954  -0.083059 0.652528 -0.753199  0.013688 0.019516 1 1 1.000000
0  -23.756407 96.980072 38.621361  -0.079714 0.695643 -0.713951  0.013688 0.019516 1 1 1.000000
0  -28.422350 96.085419 38.580070  -0.107254 0.635986 -0.764211  0.013688 0.019516 1 1 1.000000
skin_0
0  -31.574274 97.434280 40.438190  -0.614095 0.597876 0.515201  0.013688 0.019516 1 1 1.000000
0  -30.913609 97.792145 40.520775  -0.319469 0.833937 0.449988  0.013688 0.019516 1 1 1.000000
0  -31.051245 97.888489 40.204205  -0.359051 0.832664 0.421607  0.013688 0.019516 1 1 1.000000
skin_0
0  -31.051245 97.888489 40.204205  -0.359051 0.832664 0.421607  0.013688 0.019516 1 1 1.000000
0  -31.725674 97.530632 40.121620  -0.650335 0.588480 0.480370  0.013688 0.019516 1 1 1.000000
0  -31.574274 97.434280 40.438190  -0.614095 0.597876 0.515201  0.013688 0.019516 1 1 1.000000
skin_0
0  -31.987190 96.787384 40.369373  -0.825756 0.246413 0.507354  0.013688 0.019516 1 1 1.000000
0  -31.574274 97.434280 40.438190  -0.614095 0.597876 0.515201  0.013688 0.019516 1 1 1.000000
0  -31.725674 97.530632 40.121620  -0.650335 0.588480 0.480370  0.013688 0.019516 1 1 1.000000
skin_0
0  -31.725674 97.530632 40.121620  -0.650335 0.588480 0.480370  0.013688 0.019516 1 1 1.000000
0  -32.138592 96.883728 40.039040  -0.907463 0.414803 -0.066713  0.013688 0.019516 1 1 1.000000
0  -31.987190 96.787384 40.369373  -0.825756 0.246413 0.507354  0.013688 0.019516 1 1 1.000000
skin_0
0  -31.051245 97.888489 40.204205  -0.128619 0.578610 -0.805399  0.013688 0.019516 1 1 1.000000
0  -28.422350 96.085419 38.580070  -0.107254 0.635986 -0.764211  0.013688 0.019516 1 1 1.000000
0  -31.326525 95.342186 38.538780  -0.206242 0.546040 -0.811976  0.013688 0.019516 1 1 1.000000
skin_0
0  -31.051245 97.888489 40.204205  -0.128619 0.578610 -0.805399  0.013688 0.019516 1 1 1.000000
0  -27.156076 98.535385 40.451954  -0.083059 0.652528 -0.753199  0.013688 0.019516 1 1 1.000000
0  -28.422350 96.085419 38.580070  -0.107254 0.635986 -0.764211  0.013688 0.019516 1 1 1.000000
skin_0
0  -31.725674 97.530632 40.121620  -0.298207 0.541253 -0.786205  0.013688 0.019516 1 1 1.000000
0  -31.051245 97.888489 40.204205  -0.128619 0.578610 -0.805399  0.013688 0.019516 1 1 1.000000
0  -31.326525 95.342186 38.538780  -0.206242 0.546040 -0.811976  0.013688 0.019516 1 1 1.000000
skin_0
0  -31.326525 95.342186 38.538780  -0.206242 0.546040 -0.811976  0.013688 0.019516 1 1 1.000000
0  -31.904604 95.135719 38.593838  -0.510277 0.482399 -0.711975  0.013688 0.019516 1 1 1.000000
0  -31.725674 97.530632 40.121620  -0.298207 0.541253 -0.786205  0.013688 0.019516 1 1 1.000000
skin_0
0  -32.441395 89.341148 40.094093  -0.388328 -0.437240 0.811186  0.013688 0.019516 1 1 1.000000
0  -32.510212 89.258553 39.942692  -0.568232 -0.688218 0.451074  0.013688 0.019516 1 1 1.000000
0  -32.111065 89.120918 39.970219  -0.103601 -0.949069 0.297549  0.013688 0.019516 1 1 1.000000
skin_0
0  -32.111065 89.120918 39.970219  -0.103601 -0.949069 0.297549  0.013688 0.019516 1 1 1.000000
0  -32.028481 89.189735 40.121620  -0.091151 -0.596860 0.797151  0.013688 0.019516 1 1 1.000000
0  -32.441395 89.341148 40.094093  -0.388328 -0.437240 0.811186  0.013688 0.019516 1 1 1.000000
skin_0
0  -32.510212 89.258553 39.942692  -0.568232 -0.688218 0.451074  0.013688 0.019516 1 1 1.000000
0  -32.441395 89.341148 40.094093  -0.388328 -0.437240 0.811186  0.013688 0.019516 1 1 1.000000
0  -32.620323 89.698997 40.107857  -0.591080 -0.101571 0.800192  0.013688 0.019516 1 1 1.000000
skin_0
0  -32.620323 89.698997 40.107857  -0.591080 -0.101571 0.800192  0.013688 0.019516 1 1 1.000000
0  -32.689144 89.630180 39.956455  -0.858227 -0.189930 0.476837  0.013688 0.019516 1 1 1.000000
0  -32.510212 89.258553 39.942692  -0.568232 -0.688218 0.451074  0.013688 0.019516 1 1 1.000000
skin_0
0  -0.013768 99.182289 41.649403  0.001326 -0.068714 0.997635  0.013688 0.019516 1 1 1.000000
0  -0.013768 100.104469 41.704464  0.000152 -0.049460 0.998776  0.013688 0.019516 1 1 1.000000
0  -6.881928 100.035652 41.649403  -0.016446 -0.053006 0.998459  0.013688 0.019516 1 1 1.000000
skin_0
0  -6.881928 100.035652 41.649403  -0.016446 -0.053006 0.998459  0.013688 0.019516 1 1 1.000000
0  -6.868165 99.085945 41.580585  -0.017675 -0.070805 0.997334  0.013688 0.019516 1 1 1.000000
0  -0.013768 99.182289 41.649403  0.001326 -0.068714 0.997635  0.013688 0.019516 1 1 1.000000
skin_0
0  -6.868165 99.085945 41.580585  -0.017675 -0.070805 0.997334  0.013688 0.019516 1 1 1.000000
0  -6.881928 100.035652 41.649403  -0.016446 -0.053006 0.998459  0.013688 0.019516 1 1 1.000000
0  -14.025367 99.595200 41.442947  -0.027680 -0.064599 0.997527  0.013688 0.019516 1 1 1.000000
skin_0
0  -14.025367 99.595200 41.442947  -0.027680 -0.064599 0.997527  0.013688 0.019516 1 1 1.000000
0  -15.360460 98.590446 41.319073  -0.029199 -0.072501 0.996941  0.013688 0.019516 1 1 1.000000
0  -6.868165 99.085945 41.580585  -0.017675 -0.070805 0.997334  0.013688 0.019516 1 1 1.000000
skin_0
0  -15.360460 98.590446 41.319073  -0.029199 -0.072501 0.996941  0.013688 0.019516 1 1 1.000000
0  -14.025367 99.595200 41.442947  -0.027680 -0.064599 0.997527  0.013688 0.019516 1 1 1.000000
0  -21.044928 98.989601 41.195198  -0.039036 -0.060741 0.997390  0.013688 0.019516 1 1 1.000000
skin_0
0  -21.044928 98.989601 41.195198  -0.039036 -0.060741 0.997390  0.013688 0.019516 1 1 1.000000
0  -18.539907 98.260117 41.208961  -0.030649 -0.074474 0.996752  0.013688 0.019516 1 1 1.000000
0  -15.360460 98.590446 41.319073  -0.029199 -0.072501 0.996941  0.013688 0.019516 1 1 1.000000
skin_0
0  -18.539907 98.260117 41.208961  -0.030649 -0.074474 0.996752  0.013688 0.019516 1 1 1.000000
0  -21.044928 98.989601 41.195198  -0.039036 -0.060741 0.997390  0.013688 0.019516 1 1 1.000000
0  -27.142313 98.177536 40.878635  -0.049967 -0.006782 0.998728  0.013688 0.019516 1 1 1.000000
skin_0
0  -27.142313 98.177536 40.878635  -0.049967 -0.006782 0.998728  0.013688 0.019516 1 1 1.000000
0  -27.114786 97.200302 40.851109  -0.037509 -0.026317 0.998950  0.013688 0.019516 1 1 1.000000
0  -18.539907 98.260117 41.208961  -0.030649 -0.074474 0.996752  0.013688 0.019516 1 1 1.000000
skin_0
0  -16.282637 97.888489 41.277782  -0.036019 -0.029402 0.998919  0.013688 0.019516 1 1 1.000000
0  -15.924777 98.287643 41.305309  -0.035468 -0.024393 0.999073  0.013688 0.019516 1 1 1.000000
0  -17.934299 98.081177 41.222725  -0.034702 -0.053480 0.997966  0.013688 0.019516 1 1 1.000000
skin_0
0  -17.934299 98.081177 41.222725  -0.034702 -0.053480 0.997966  0.013688 0.019516 1 1 1.000000
0  -17.576439 97.737091 41.222725  -0.034550 -0.018704 0.999228  0.013688 0.019516 1 1 1.000000
0  -16.282637 97.888489 41.277782  -0.036019 -0.029402 0.998919  0.013688 0.019516 1 1 1.000000
skin_0
0  -28.078255 96.429527 40.796055  -0.066063 -0.037981 0.997092  0.013688 0.019516 1 1 1.000000
0  -27.720396 96.883728 40.823582  -0.051842 -0.021625 0.998421  0.013688 0.019516 1 1 1.000000
0  -30.583277 97.626976 40.685940  -0.069554 -0.027790 0.997191  0.013688 0.019516 1 1 1.000000
skin_0
0  -30.583277 97.626976 40.685940  -0.069554 -0.027790 0.997191  0.013688 0.019516 1 1 1.000000
0  -31.271467 97.241592 40.603355  -0.083409 -0.056754 0.994898  0.013688 0.019516 1 1 1.000000
0  -28.078255 96.429527 40.796055  -0.066063 -0.037981 0.997092  0.013688 0.019516 1 1 1.000000
skin_0
0  -28.628809 89.520073 40.424427  -0.078979 -0.051445 0.995548  0.013688 0.019516 1 1 1.000000
0  -28.078255 96.429527 40.796055  -0.066063 -0.037981 0.997092  0.013688 0.019516 1 1 1.000000
0  -31.698147 96.622215 40.534538  -0.086904 -0.050550 0.994933  0.013688 0.019516 1 1 1.000000
skin_0
0  -28.628809 89.520073 40.424427  -0.078979 -0.051445 0.995548  0.013688 0.019516 1 1 1.000000
0  -31.698147 96.622215 40.534538  -0.086904 -0.050550 0.994933  0.013688 0.019516 1 1 1.000000
0  -32.386341 89.602654 40.121620  -0.077454 -0.060765 0.995142  0.013688 0.019516 1 1 1.000000
skin_0
0  -28.628809 89.520073 40.424427  -0.078979 -0.051445 0.995548  0.013688 0.019516 1 1 1.000000
0  -32.386341 89.602654 40.121620  -0.077454 -0.060765 0.995142  0.013688 0.019516 1 1 1.000000
0  -32.097301 89.382439 40.135387  -0.080223 -0.081231 0.993461  0.013688 0.019516 1 1 1.000000
skin_0
0  -32.028481 89.189735 40.121620  -0.091151 -0.596860 0.797151  0.013688 0.019516 1 1 1.000000
0  -28.628809 89.520073 40.424427  -0.078979 -0.051445 0.995548  0.013688 0.019516 1 1 1.000000
0  -32.097301 89.382439 40.135387  -0.080223 -0.081231 0.993461  0.013688 0.019516 1 1 1.000000
skin_0
0  -16.089943 90.896454 40.754753  0.082370 -0.996466 -0.016442  0.013688 0.019516 1 1 1.000000
0  -16.929539 90.827637 40.355606  0.099915 -0.993773 -0.049312  0.013688 0.019516 1 1 1.000000
0  -8.616173 91.488297 40.617115  0.055613 -0.998160 -0.024177  0.013688 0.019516 1 1 1.000000
skin_0
0  -8.616173 91.488297 40.617115  0.055613 -0.998160 -0.024177  0.013688 0.019516 1 1 1.000000
0  -8.616173 91.488297 40.974976  0.054873 -0.998193 -0.024485  0.013688 0.019516 1 1 1.000000
0  -16.089943 90.896454 40.754753  0.082370 -0.996466 -0.016442  0.013688 0.019516 1 1 1.000000
skin_0
0  -17.893007 90.717529 40.672169  0.110699 -0.993417 -0.029466  0.013688 0.019516 1 1 1.000000
0  -16.929539 90.827637 40.355606  0.099915 -0.993773 -0.049312  0.013688 0.019516 1 1 1.000000
0  -16.089943 90.896454 40.754753  0.082370 -0.996466 -0.016442  0.013688 0.019516 1 1 1.000000
skin_0
0  -28.243422 89.561363 40.080330  0.060723 -0.992138 -0.109429  0.013688 0.019516 1 1 1.000000
0  -28.367296 89.602654 39.667416  0.074741 -0.991415 -0.107283  0.013688 0.019516 1 1 1.000000
0  -16.929539 90.827637 40.355606  0.099915 -0.993773 -0.049312  0.013688 0.019516 1 1 1.000000
skin_0
0  -16.929539 90.827637 40.355606  0.099915 -0.993773 -0.049312  0.013688 0.019516 1 1 1.000000
0  -17.893007 90.717529 40.672169  0.110699 -0.993417 -0.029466  0.013688 0.019516 1 1 1.000000
0  -28.243422 89.561363 40.080330  0.060723 -0.992138 -0.109429  0.013688 0.019516 1 1 1.000000
skin_0
0  -28.367296 89.602654 39.667416  0.074741 -0.991415 -0.107283  0.013688 0.019516 1 1 1.000000
0  -28.243422 89.561363 40.080330  0.060723 -0.992138 -0.109429  0.013688 0.019516 1 1 1.000000
0  -28.628809 89.520073 40.424427  0.084013 -0.992865 -0.084620  0.013688 0.019516 1 1 1.000000
skin_0
0  -28.628809 89.520073 40.424427  0.084013 -0.992865 -0.084620  0.013688 0.019516 1 1 1.000000
0  -28.738918 89.561363 39.942692  0.090760 -0.992122 -0.086351  0.013688 0.019516 1 1 1.000000
0  -28.367296 89.602654 39.667416  0.074741 -0.991415 -0.107283  0.013688 0.019516 1 1 1.000000
skin_0
0  -16.089943 90.896454 40.754753  0.690670 -0.015013 0.723014  0.013688 0.019516 1 1 1.000000
0  -15.993597 97.516869 41.208961  0.054928 -0.084189 0.994935  0.013688 0.019516 1 1 1.000000
0  -16.282637 97.888489 41.277782  0.105473 -0.109955 0.988325  0.013688 0.019516 1 1 1.000000
skin_0
0  -16.089943 90.896454 40.754753  0.690670 -0.015013 0.723014  0.013688 0.019516 1 1 1.000000
0  -16.282637 97.888489 41.277782  0.105473 -0.109955 0.988325  0.013688 0.019516 1 1 1.000000
0  -16.406511 91.598412 41.085087  0.693766 -0.028686 0.719629  0.013688 0.019516 1 1 1.000000
skin_0
0  -16.089943 90.896454 40.754753  0.690670 -0.015013 0.723014  0.013688 0.019516 1 1 1.000000
0  -16.406511 91.598412 41.085087  0.693766 -0.028686 0.719629  0.013688 0.019516 1 1 1.000000
0  -16.323929 91.185501 41.002502  0.755422 0.029298 0.654583  0.013688 0.019516 1 1 1.000000
skin_0
0  -28.078255 96.429527 40.796055  0.149087 -0.143699 0.978327  0.013688 0.019516 1 1 1.000000
0  -28.628809 89.520073 40.424427  0.669733 -0.091748 0.736912  0.013688 0.019516 1 1 1.000000
0  -28.243422 89.561363 40.080330  0.660769 -0.092246 0.744900  0.013688 0.019516 1 1 1.000000
skin_0
0  -28.243422 89.561363 40.080330  0.660769 -0.092246 0.744900  0.013688 0.019516 1 1 1.000000
0  -27.844269 96.099182 40.713467  0.072774 -0.110067 0.991256  0.013688 0.019516 1 1 1.000000
0  -28.078255 96.429527 40.796055  0.149087 -0.143699 0.978327  0.013688 0.019516 1 1 1.000000
skin_0
0  -17.576439 97.737091 41.222725  -0.170862 -0.094465 0.980756  0.013688 0.019516 1 1 1.000000
0  -17.934299 98.081177 41.222725  -0.069971 -0.108839 0.991594  0.013688 0.019516 1 1 1.000000
0  -17.837952 97.324173 41.140144  -0.149646 -0.065315 0.986580  0.013688 0.019516 1 1 1.000000
skin_0
0  -15.360460 98.590446 41.319073  -0.016243 -0.101246 0.994729  0.013688 0.019516 1 1 1.000000
0  -15.924777 98.287643 41.305309  0.029512 -0.122329 0.992051  0.013688 0.019516 1 1 1.000000
0  -15.993597 97.516869 41.208961  0.054928 -0.084189 0.994935  0.013688 0.019516 1 1 1.000000
skin_0
0  -17.837952 97.324173 41.140144  -0.149646 -0.065315 0.986580  0.013688 0.019516 1 1 1.000000
0  -17.893007 90.717529 40.672169  -0.767424 -0.038786 0.639966  0.013688 0.019516 1 1 1.000000
0  -17.672785 91.061630 40.961212  -0.762635 -0.038817 0.645663  0.013688 0.019516 1 1 1.000000
skin_0
0  -17.837952 97.324173 41.140144  -0.149646 -0.065315 0.986580  0.013688 0.019516 1 1 1.000000
0  -17.672785 91.061630 40.961212  -0.762635 -0.038817 0.645663  0.013688 0.019516 1 1 1.000000
0  -17.617729 91.474533 41.043797  -0.704961 -0.038962 0.708175  0.013688 0.019516 1 1 1.000000
skin_0
0  -17.837952 97.324173 41.140144  -0.149646 -0.065315 0.986580  0.013688 0.019516 1 1 1.000000
0  -17.617729 91.474533 41.043797  -0.704961 -0.038962 0.708175  0.013688 0.019516 1 1 1.000000
0  -17.576439 97.737091 41.222725  -0.170862 -0.094465 0.980756  0.013688 0.019516 1 1 1.000000
skin_0
0  -27.114786 97.200302 40.851109  -0.019522 -0.115604 0.993104  0.013688 0.019516 1 1 1.000000
0  -27.720396 96.883728 40.823582  0.041453 -0.148091 0.988105  0.013688 0.019516 1 1 1.000000
0  -27.844269 96.099182 40.713467  0.072774 -0.110067 0.991256  0.013688 0.019516 1 1 1.000000
skin_0
0  -17.893007 90.717529 40.672169  -0.038412 -0.078671 0.996160  0.013688 0.019516 1 1 1.000000
0  -17.837952 97.324173 41.140144  -0.149646 -0.065315 0.986580  0.013688 0.019516 1 1 1.000000
0  -27.844269 96.099182 40.713467  0.072774 -0.110067 0.991256  0.013688 0.019516 1 1 1.000000
skin_0
0  -27.844269 96.099182 40.713467  0.072774 -0.110067 0.991256  0.013688 0.019516 1 1 1.000000
0  -28.243422 89.561363 40.080330  -0.046426 -0.093479 0.994538  0.013688 0.019516 1 1 1.000000
0  -17.893007 90.717529 40.672169  -0.038412 -0.078671 0.996160  0.013688 0.019516 1 1 1.000000
skin_0
0  -28.738918 89.561363 39.942692  0.090760 -0.992122 -0.086351  0.013688 0.019516 1 1 1.000000
0  -28.628809 89.520073 40.424427  0.084013 -0.992865 -0.084620  0.013688 0.019516 1 1 1.000000
0  -32.111065 89.120918 39.970219  -0.103601 -0.949069 0.297549  0.013688 0.019516 1 1 1.000000
skin_0
0  -32.111065 89.120918 39.970219  -0.103601 -0.949069 0.297549  0.013688 0.019516 1 1 1.000000
0  -32.317524 89.079628 39.557304  -0.188972 -0.964316 0.185432  0.013688 0.019516 1 1 1.000000
0  -28.738918 89.561363 39.942692  0.090760 -0.992122 -0.086351  0.013688 0.019516 1 1 1.000000
skin_0
0  -0.013768 100.104469 41.704464  0.000152 -0.049460 0.998776  0.013688 0.019516 1 1 1.000000
0  -0.013768 100.283394 41.704464  0.000008 0.505621 0.862756  0.013688 0.019516 1 1 1.000000
0  -6.881928 100.214577 41.663166  -0.033437 0.506502 0.861590  0.013688 0.019516 1 1 1.000000
skin_0
0  -6.881928 100.214577 41.663166  -0.033437 0.506502 0.861590  0.013688 0.019516 1 1 1.000000
0  -6.881928 100.035652 41.649403  -0.016446 -0.053006 0.998459  0.013688 0.019516 1 1 1.000000
0  -0.013768 100.104469 41.704464  0.000152 -0.049460 0.998776  0.013688 0.019516 1 1 1.000000
skin_0
0  -6.881928 100.035652 41.649403  -0.016446 -0.053006 0.998459  0.013688 0.019516 1 1 1.000000
0  -6.881928 100.214577 41.663166  -0.033437 0.506502 0.861590  0.013688 0.019516 1 1 1.000000
0  -14.066657 99.787903 41.456711  -0.066029 0.499065 0.864045  0.013688 0.019516 1 1 1.000000
skin_0
0  -14.066657 99.787903 41.456711  -0.066029 0.499065 0.864045  0.013688 0.019516 1 1 1.000000
0  -14.025367 99.595200 41.442947  -0.027680 -0.064599 0.997527  0.013688 0.019516 1 1 1.000000
0  -6.881928 100.035652 41.649403  -0.016446 -0.053006 0.998459  0.013688 0.019516 1 1 1.000000
skin_0
0  -14.025367 99.595200 41.442947  -0.027680 -0.064599 0.997527  0.013688 0.019516 1 1 1.000000
0  -14.066657 99.787903 41.456711  -0.066029 0.499065 0.864045  0.013688 0.019516 1 1 1.000000
0  -21.044928 99.154762 41.195198  -0.094735 0.509173 0.855434  0.013688 0.019516 1 1 1.000000
skin_0
0  -21.044928 99.154762 41.195198  -0.094735 0.509173 0.855434  0.013688 0.019516 1 1 1.000000
0  -21.044928 98.989601 41.195198  -0.039036 -0.060741 0.997390  0.013688 0.019516 1 1 1.000000
0  -14.025367 99.595200 41.442947  -0.027680 -0.064599 0.997527  0.013688 0.019516 1 1 1.000000
skin_0
0  -21.044928 98.989601 41.195198  -0.039036 -0.060741 0.997390  0.013688 0.019516 1 1 1.000000
0  -21.044928 99.154762 41.195198  -0.094735 0.509173 0.855434  0.013688 0.019516 1 1 1.000000
0  -27.156076 98.342697 40.878635  -0.122148 0.510365 0.851239  0.013688 0.019516 1 1 1.000000
skin_0
0  -27.156076 98.342697 40.878635  -0.122148 0.510365 0.851239  0.013688 0.019516 1 1 1.000000
0  -27.142313 98.177536 40.878635  -0.049967 -0.006782 0.998728  0.013688 0.019516 1 1 1.000000
0  -21.044928 98.989601 41.195198  -0.039036 -0.060741 0.997390  0.013688 0.019516 1 1 1.000000
skin_0
0  -27.142313 98.177536 40.878635  -0.049967 -0.006782 0.998728  0.013688 0.019516 1 1 1.000000
0  -27.156076 98.342697 40.878635  -0.122148 0.510365 0.851239  0.013688 0.019516 1 1 1.000000
0  -30.817261 97.737091 40.658409  -0.216252 0.502018 0.837385  0.013688 0.019516 1 1 1.000000
skin_0
0  -30.817261 97.737091 40.658409  -0.216252 0.502018 0.837385  0.013688 0.019516 1 1 1.000000
0  -30.583277 97.626976 40.685940  -0.069554 -0.027790 0.997191  0.013688 0.019516 1 1 1.000000
0  -27.142313 98.177536 40.878635  -0.049967 -0.006782 0.998728  0.013688 0.019516 1 1 1.000000
skin_0
0  -31.491690 97.379227 40.589592  -0.408461 0.350926 0.842621  0.013688 0.019516 1 1 1.000000
0  -31.271467 97.241592 40.603355  -0.083409 -0.056754 0.994898  0.013688 0.019516 1 1 1.000000
0  -30.583277 97.626976 40.685940  -0.069554 -0.027790 0.997191  0.013688 0.019516 1 1 1.000000
skin_0
0  -30.583277 97.626976 40.685940  -0.069554 -0.027790 0.997191  0.013688 0.019516 1 1 1.000000
0  -30.817261 97.737091 40.658409  -0.216252 0.502018 0.837385  0.013688 0.019516 1 1 1.000000
0  -31.491690 97.379227 40.589592  -0.408461 0.350926 0.842621  0.013688 0.019516 1 1 1.000000
skin_0
0  -31.904604 96.732323 40.520775  -0.548133 0.117035 0.828163  0.013688 0.019516 1 1 1.000000
0  -31.698147 96.622215 40.534538  -0.086904 -0.050550 0.994933  0.013688 0.019516 1 1 1.000000
0  -31.271467 97.241592 40.603355  -0.083409 -0.056754 0.994898  0.013688 0.019516 1 1 1.000000
skin_0
0  -31.271467 97.241592 40.603355  -0.083409 -0.056754 0.994898  0.013688 0.019516 1 1 1.000000
0  -31.491690 97.379227 40.589592  -0.408461 0.350926 0.842621  0.013688 0.019516 1 1 1.000000
0  -31.904604 96.732323 40.520775  -0.548133 0.117035 0.828163  0.013688 0.019516 1 1 1.000000
skin_0
0  -31.698147 96.622215 40.534538  -0.086904 -0.050550 0.994933  0.013688 0.019516 1 1 1.000000
0  -31.904604 96.732323 40.520775  -0.548133 0.117035 0.828163  0.013688 0.019516 1 1 1.000000
0  -32.620323 89.698997 40.107857  -0.591080 -0.101571 0.800192  0.013688 0.019516 1 1 1.000000
skin_0
0  -32.620323 89.698997 40.107857  -0.591080 -0.101571 0.800192  0.013688 0.019516 1 1 1.000000
0  -32.386341 89.602654 40.121620  -0.077454 -0.060765 0.995142  0.013688 0.019516 1 1 1.000000
0  -31.698147 96.622215 40.534538  -0.086904 -0.050550 0.994933  0.013688 0.019516 1 1 1.000000
skin_0
0  -32.097301 89.382439 40.135387  -0.080223 -0.081231 0.993461  0.013688 0.019516 1 1 1.000000
0  -32.441395 89.341148 40.094093  -0.388328 -0.437240 0.811186  0.013688 0.019516 1 1 1.000000
0  -32.028481 89.189735 40.121620  -0.091151 -0.596860 0.797151  0.013688 0.019516 1 1 1.000000
skin_0
0  -32.138592 96.883728 40.039040  -0.907463 0.414803 -0.066713  0.013688 0.019516 1 1 1.000000
0  -32.565269 94.447525 39.350845  -0.983806 0.178171 -0.019499  0.013688 0.019516 1 1 1.000000
0  -32.606560 94.075905 39.543541  -0.911887 0.076576 0.403235  0.013688 0.019516 1 1 1.000000
skin_0
0  -32.689144 89.630180 39.956455  -0.858227 -0.189930 0.476837  0.013688 0.019516 1 1 1.000000
0  -32.620323 89.698997 40.107857  -0.591080 -0.101571 0.800192  0.013688 0.019516 1 1 1.000000
0  -31.904604 96.732323 40.520775  -0.548133 0.117035 0.828163  0.013688 0.019516 1 1 1.000000
skin_0
0  -31.904604 96.732323 40.520775  -0.548133 0.117035 0.828163  0.013688 0.019516 1 1 1.000000
0  -31.987190 96.787384 40.369373  -0.825756 0.246413 0.507354  0.013688 0.019516 1 1 1.000000
0  -32.689144 89.630180 39.956455  -0.858227 -0.189930 0.476837  0.013688 0.019516 1 1 1.000000
skin_0
0  -6.881928 100.283394 41.511765  -0.039604 0.897093 0.440064  0.013688 0.019516 1 1 1.000000
0  -0.013768 100.365982 41.566822  -0.000002 0.897344 0.441333  0.013688 0.019516 1 1 1.000000
0  -0.013768 100.489853 41.305309  0.000001 0.907609 0.419817  0.013688 0.019516 1 1 1.000000
skin_0
0  -0.013768 100.489853 41.305309  0.000001 0.907609 0.419817  0.013688 0.019516 1 1 1.000000
0  -6.881928 100.407272 41.250256  -0.039654 0.907714 0.417712  0.013688 0.019516 1 1 1.000000
0  -6.881928 100.283394 41.511765  -0.039604 0.897093 0.440064  0.013688 0.019516 1 1 1.000000
skin_0
0  -14.066657 99.856720 41.305309  -0.081634 0.896194 0.436086  0.013688 0.019516 1 1 1.000000
0  -21.044928 99.223587 41.043797  -0.119048 0.895150 0.429574  0.013688 0.019516 1 1 1.000000
0  -21.044928 99.154762 41.195198  -0.094735 0.509173 0.855434  0.013688 0.019516 1 1 1.000000
skin_0
0  -21.044928 99.154762 41.195198  -0.094735 0.509173 0.855434  0.013688 0.019516 1 1 1.000000
0  -14.066657 99.787903 41.456711  -0.066029 0.499065 0.864045  0.013688 0.019516 1 1 1.000000
0  -14.066657 99.856720 41.305309  -0.081634 0.896194 0.436086  0.013688 0.019516 1 1 1.000000
skin_0
0  -27.156076 98.411514 40.740993  -0.156135 0.889125 0.430207  0.013688 0.019516 1 1 1.000000
0  -30.913609 97.792145 40.520775  -0.319469 0.833937 0.449988  0.013688 0.019516 1 1 1.000000
0  -30.817261 97.737091 40.658409  -0.216252 0.502018 0.837385  0.013688 0.019516 1 1 1.000000
skin_0
0  -30.817261 97.737091 40.658409  -0.216252 0.502018 0.837385  0.013688 0.019516 1 1 1.000000
0  -27.156076 98.342697 40.878635  -0.122148 0.510365 0.851239  0.013688 0.019516 1 1 1.000000
0  -27.156076 98.411514 40.740993  -0.156135 0.889125 0.430207  0.013688 0.019516 1 1 1.000000
skin_0
0  -6.881928 100.283394 41.511765  -0.039604 0.897093 0.440064  0.013688 0.019516 1 1 1.000000
0  -14.066657 99.856720 41.305309  -0.081634 0.896194 0.436086  0.013688 0.019516 1 1 1.000000
0  -14.066657 99.787903 41.456711  -0.066029 0.499065 0.864045  0.013688 0.019516 1 1 1.000000
skin_0
0  -14.066657 99.787903 41.456711  -0.066029 0.499065 0.864045  0.013688 0.019516 1 1 1.000000
0  -6.881928 100.214577 41.663166  -0.033437 0.506502 0.861590  0.013688 0.019516 1 1 1.000000
0  -6.881928 100.283394 41.511765  -0.039604 0.897093 0.440064  0.013688 0.019516 1 1 1.000000
skin_0
0  -21.044928 99.223587 41.043797  -0.119048 0.895150 0.429574  0.013688 0.019516 1 1 1.000000
0  -27.156076 98.411514 40.740993  -0.156135 0.889125 0.430207  0.013688 0.019516 1 1 1.000000
0  -27.156076 98.342697 40.878635  -0.122148 0.510365 0.851239  0.013688 0.019516 1 1 1.000000
skin_0
0  -27.156076 98.342697 40.878635  -0.122148 0.510365 0.851239  0.013688 0.019516 1 1 1.000000
0  -21.044928 99.154762 41.195198  -0.094735 0.509173 0.855434  0.013688 0.019516 1 1 1.000000
0  -21.044928 99.223587 41.043797  -0.119048 0.895150 0.429574  0.013688 0.019516 1 1 1.000000
skin_0
0  -30.913609 97.792145 40.520775  -0.319469 0.833937 0.449988  0.013688 0.019516 1 1 1.000000
0  -31.574274 97.434280 40.438190  -0.614095 0.597876 0.515201  0.013688 0.019516 1 1 1.000000
0  -31.491690 97.379227 40.589592  -0.408461 0.350926 0.842621  0.013688 0.019516 1 1 1.000000
skin_0
0  -31.491690 97.379227 40.589592  -0.408461 0.350926 0.842621  0.013688 0.019516 1 1 1.000000
0  -30.817261 97.737091 40.658409  -0.216252 0.502018 0.837385  0.013688 0.019516 1 1 1.000000
0  -30.913609 97.792145 40.520775  -0.319469 0.833937 0.449988  0.013688 0.019516 1 1 1.000000
skin_0
0  -31.574274 97.434280 40.438190  -0.614095 0.597876 0.515201  0.013688 0.019516 1 1 1.000000
0  -31.987190 96.787384 40.369373  -0.825756 0.246413 0.507354  0.013688 0.019516 1 1 1.000000
0  -31.904604 96.732323 40.520775  -0.548133 0.117035 0.828163  0.013688 0.019516 1 1 1.000000
skin_0
0  -31.904604 96.732323 40.520775  -0.548133 0.117035 0.828163  0.013688 0.019516 1 1 1.000000
0  -31.491690 97.379227 40.589592  -0.408461 0.350926 0.842621  0.013688 0.019516 1 1 1.000000
0  -31.574274 97.434280 40.438190  -0.614095 0.597876 0.515201  0.013688 0.019516 1 1 1.000000
skin_0
0  -32.317524 89.079628 39.557304  -0.188972 -0.964316 0.185432  0.013688 0.019516 1 1 1.000000
0  -32.111065 89.120918 39.970219  -0.103601 -0.949069 0.297549  0.013688 0.019516 1 1 1.000000
0  -32.510212 89.258553 39.942692  -0.568232 -0.688218 0.451074  0.013688 0.019516 1 1 1.000000
skin_0
0  -32.510212 89.258553 39.942692  -0.568232 -0.688218 0.451074  0.013688 0.019516 1 1 1.000000
0  -32.716671 89.217262 39.516014  -0.665832 -0.635528 0.390861  0.013688 0.019516 1 1 1.000000
0  -32.317524 89.079628 39.557304  -0.188972 -0.964316 0.185432  0.013688 0.019516 1 1 1.000000
skin_0
0  -32.716671 89.217262 39.516014  -0.665832 -0.635528 0.390861  0.013688 0.019516 1 1 1.000000
0  -32.510212 89.258553 39.942692  -0.568232 -0.688218 0.451074  0.013688 0.019516 1 1 1.000000
0  -32.689144 89.630180 39.956455  -0.858227 -0.189930 0.476837  0.013688 0.019516 1 1 1.000000
skin_0
0  -32.689144 89.630180 39.956455  -0.858227 -0.189930 0.476837  0.013688 0.019516 1 1 1.000000
0  -32.909367 89.588890 39.502251  -0.878084 -0.171674 0.446651  0.013688 0.019516 1 1 1.000000
0  -32.716671 89.217262 39.516014  -0.665832 -0.635528 0.390861  0.013688 0.019516 1 1 1.000000
skin_0
0  -31.987190 96.787384 40.369373  -0.825756 0.246413 0.507354  0.013688 0.019516 1 1 1.000000
0  -32.138592 96.883728 40.039040  -0.907463 0.414803 -0.066713  0.013688 0.019516 1 1 1.000000
0  -32.606560 94.075905 39.543541  -0.911887 0.076576 0.403235  0.013688 0.019516 1 1 1.000000
skin_0
0  -28.628809 89.520073 40.424427  0.084013 -0.992865 -0.084620  0.013688 0.019516 1 1 1.000000
0  -32.028481 89.189735 40.121620  -0.091151 -0.596860 0.797151  0.013688 0.019516 1 1 1.000000
0  -32.111065 89.120918 39.970219  -0.103601 -0.949069 0.297549  0.013688 0.019516 1 1 1.000000
skin_0
0  -15.924777 98.287643 41.305309  -0.035468 -0.024393 0.999073  0.013688 0.019516 1 1 1.000000
0  -15.360460 98.590446 41.319073  -0.029199 -0.072501 0.996941  0.013688 0.019516 1 1 1.000000
0  -18.539907 98.260117 41.208961  -0.030649 -0.074474 0.996752  0.013688 0.019516 1 1 1.000000
skin_0
0  -18.539907 98.260117 41.208961  -0.030649 -0.074474 0.996752  0.013688 0.019516 1 1 1.000000
0  -17.934299 98.081177 41.222725  -0.034702 -0.053480 0.997966  0.013688 0.019516 1 1 1.000000
0  -15.924777 98.287643 41.305309  -0.035468 -0.024393 0.999073  0.013688 0.019516 1 1 1.000000
skin_0
0  -17.934299 98.081177 41.222725  -0.069971 -0.108839 0.991594  0.013688 0.019516 1 1 1.000000
0  -18.539907 98.260117 41.208961  -0.033502 -0.096821 0.994738  0.013688 0.019516 1 1 1.000000
0  -17.837952 97.324173 41.140144  -0.149646 -0.065315 0.986580  0.013688 0.019516 1 1 1.000000
skin_0
0  -15.924777 98.287643 41.305309  0.029512 -0.122329 0.992051  0.013688 0.019516 1 1 1.000000
0  -16.282637 97.888489 41.277782  0.105473 -0.109955 0.988325  0.013688 0.019516 1 1 1.000000
0  -15.993597 97.516869 41.208961  0.054928 -0.084189 0.994935  0.013688 0.019516 1 1 1.000000
skin_0
0  -27.720396 96.883728 40.823582  0.041453 -0.148091 0.988105  0.013688 0.019516 1 1 1.000000
0  -28.078255 96.429527 40.796055  0.149087 -0.143699 0.978327  0.013688 0.019516 1 1 1.000000
0  -27.844269 96.099182 40.713467  0.072774 -0.110067 0.991256  0.013688 0.019516 1 1 1.000000
skin_0
0  -17.837952 97.324173 41.140144  -0.149646 -0.065315 0.986580  0.013688 0.019516 1 1 1.000000
0  -18.539907 98.260117 41.208961  -0.033502 -0.096821 0.994738  0.013688 0.019516 1 1 1.000000
0  -27.114786 97.200302 40.851109  -0.019522 -0.115604 0.993104  0.013688 0.019516 1 1 1.000000
skin_0
0  -27.114786 97.200302 40.851109  -0.019522 -0.115604 0.993104  0.013688 0.019516 1 1 1.000000
0  -27.844269 96.099182 40.713467  0.072774 -0.110067 0.991256  0.013688 0.019516 1 1 1.000000
0  -17.837952 97.324173 41.140144  -0.149646 -0.065315 0.986580  0.013688 0.019516 1 1 1.000000
skin_0
0  -6.868165 99.085945 41.580585  -0.017675 -0.070805 0.997334  0.013688 0.019516 1 1 1.000000
0  -15.360460 98.590446 41.319073  -0.016243 -0.101246 0.994729  0.013688 0.019516 1 1 1.000000
0  -15.993597 97.516869 41.208961  0.054928 -0.084189 0.994935  0.013688 0.019516 1 1 1.000000
skin_0
0  -27.720396 96.883728 40.823582  -0.051842 -0.021625 0.998421  0.013688 0.019516 1 1 1.000000
0  -27.114786 97.200302 40.851109  -0.037509 -0.026317 0.998950  0.013688 0.019516 1 1 1.000000
0  -27.142313 98.177536 40.878635  -0.049967 -0.006782 0.998728  0.013688 0.019516 1 1 1.000000
skin_0
0  -27.142313 98.177536 40.878635  -0.049967 -0.006782 0.998728  0.013688 0.019516 1 1 1.000000
0  -30.583277 97.626976 40.685940  -0.069554 -0.027790 0.997191  0.013688 0.019516 1 1 1.000000
0  -27.720396 96.883728 40.823582  -0.051842 -0.021625 0.998421  0.013688 0.019516 1 1 1.000000
skin_0
0  -32.620323 89.698997 40.107857  -0.591080 -0.101571 0.800192  0.013688 0.019516 1 1 1.000000
0  -32.441395 89.341148 40.094093  -0.388328 -0.437240 0.811186  0.013688 0.019516 1 1 1.000000
0  -32.386341 89.602654 40.121620  -0.077454 -0.060765 0.995142  0.013688 0.019516 1 1 1.000000
skin_0
0  -32.441395 89.341148 40.094093  -0.388328 -0.437240 0.811186  0.013688 0.019516 1 1 1.000000
0  -32.097301 89.382439 40.135387  -0.080223 -0.081231 0.993461  0.013688 0.019516 1 1 1.000000
0  -32.386341 89.602654 40.121620  -0.077454 -0.060765 0.995142  0.013688 0.019516 1 1 1.000000
skin_0
0  -32.565269 94.447525 39.350845  0.167301 -0.596991 -0.784610  0.013688 0.019516 1 1 1.000000
0  -32.358814 94.832916 38.882874  0.203308 -0.805850 -0.556122  0.013688 0.019516 1 1 1.000000
0  -28.353533 95.397240 39.529778  0.045980 -0.531980 -0.845508  0.013688 0.019516 1 1 1.000000
skin_0
0  -32.606560 94.075905 39.543541  0.087990 -0.201814 -0.975463  0.013688 0.019516 1 1 1.000000
0  -32.565269 94.447525 39.350845  0.167301 -0.596991 -0.784610  0.013688 0.019516 1 1 1.000000
0  -28.353533 95.397240 39.529778  0.045980 -0.531980 -0.845508  0.013688 0.019516 1 1 1.000000
skin_0
0  -31.904604 95.135719 38.593838  0.203682 -0.815083 -0.542359  0.013688 0.019516 1 1 1.000000
0  -31.326525 95.342186 38.538780  0.212328 -0.783561 -0.583908  0.013688 0.019516 1 1 1.000000
0  -28.353533 95.397240 39.529778  0.045980 -0.531980 -0.845508  0.013688 0.019516 1 1 1.000000
skin_0
0  -32.358814 94.832916 38.882874  0.203308 -0.805850 -0.556122  0.013688 0.019516 1 1 1.000000
0  -31.904604 95.135719 38.593838  0.203682 -0.815083 -0.542359  0.013688 0.019516 1 1 1.000000
0  -28.353533 95.397240 39.529778  0.045980 -0.531980 -0.845508  0.013688 0.019516 1 1 1.000000
skin_0
0  -28.422350 96.085419 38.580070  -0.641701 -0.642390 -0.418993  0.013688 0.019516 1 1 1.000000
0  -28.394823 95.906494 38.401142  -0.991433 -0.127721 -0.027350  0.013688 0.019516 1 1 1.000000
0  -28.353533 95.397240 39.529778  0.045980 -0.531980 -0.845508  0.013688 0.019516 1 1 1.000000
skin_0
0  -31.326525 95.342186 38.538780  0.212328 -0.783561 -0.583908  0.013688 0.019516 1 1 1.000000
0  -28.422350 96.085419 38.580070  -0.641701 -0.642390 -0.418993  0.013688 0.019516 1 1 1.000000
0  -28.353533 95.397240 39.529778  0.045980 -0.531980 -0.845508  0.013688 0.019516 1 1 1.000000
skin_0
0  -28.738918 89.561363 39.942692  -0.243165 -0.026370 -0.969626  0.013688 0.019516 1 1 1.000000
0  -32.716671 89.217262 39.516014  0.099511 0.010610 -0.994980  0.013688 0.019516 1 1 1.000000
0  -32.606560 94.075905 39.543541  0.087990 -0.201814 -0.975463  0.013688 0.019516 1 1 1.000000
skin_0
0  -32.606560 94.075905 39.543541  0.087990 -0.201814 -0.975463  0.013688 0.019516 1 1 1.000000
0  -28.353533 95.397240 39.529778  0.045980 -0.531980 -0.845508  0.013688 0.019516 1 1 1.000000
0  -28.738918 89.561363 39.942692  -0.243165 -0.026370 -0.969626  0.013688 0.019516 1 1 1.000000
skin_0
0  -28.367296 89.602654 39.667416  -0.604609 -0.018190 -0.796315  0.013688 0.019516 1 1 1.000000
0  -28.738918 89.561363 39.942692  -0.243165 -0.026370 -0.969626  0.013688 0.019516 1 1 1.000000
0  -28.353533 95.397240 39.529778  0.045980 -0.531980 -0.845508  0.013688 0.019516 1 1 1.000000
skin_0
0  -32.716671 89.217262 39.516014  0.099511 0.010610 -0.994980  0.013688 0.019516 1 1 1.000000
0  -32.909367 89.588890 39.502251  0.079801 0.001806 -0.996809  0.013688 0.019516 1 1 1.000000
0  -32.606560 94.075905 39.543541  0.087990 -0.201814 -0.975463  0.013688 0.019516 1 1 1.000000
skin_0
0  -28.738918 89.561363 39.942692  -0.243165 -0.026370 -0.969626  0.013688 0.019516 1 1 1.000000
0  -32.317524 89.079628 39.557304  0.100882 0.055936 -0.993325  0.013688 0.019516 1 1 1.000000
0  -32.716671 89.217262 39.516014  0.099511 0.010610 -0.994980  0.013688 0.019516 1 1 1.000000
skin_0
0  32.661610 89.630180 39.956448  0.858219 -0.189944 0.476845  0.013688 0.019516 1 1 1.000000
0  32.881832 89.588890 39.502243  0.878085 -0.171673 0.446649  0.013688 0.019516 1 1 1.000000
0  32.579025 94.075905 39.543533  0.911844 0.076582 0.403331  0.013688 0.019516 1 1 1.000000
skin_0
0  32.579025 94.075905 39.543533  0.911844 0.076582 0.403331  0.013688 0.019516 1 1 1.000000
0  31.959650 96.787384 40.369366  0.825752 0.246416 0.507358  0.013688 0.019516 1 1 1.000000
0  32.661610 89.630180 39.956448  0.858219 -0.189944 0.476845  0.013688 0.019516 1 1 1.000000
skin_0
0  -0.013768 91.749817 41.140144  -0.000093 -0.999588 -0.028695  0.013688 0.019516 1 1 1.000000
0  -0.013768 91.763580 40.782280  -0.000092 -0.999588 -0.028714  0.013688 0.019516 1 1 1.000000
0  8.588637 91.488297 40.617115  -0.055879 -0.998137 -0.024475  0.013688 0.019516 1 1 1.000000
skin_0
0  8.588637 91.488297 40.617115  -0.055879 -0.998137 -0.024475  0.013688 0.019516 1 1 1.000000
0  8.588637 91.488297 40.974976  -0.055118 -0.998186 -0.024204  0.013688 0.019516 1 1 1.000000
0  -0.013768 91.749817 41.140144  -0.000093 -0.999588 -0.028695  0.013688 0.019516 1 1 1.000000
skin_0
0  6.854392 100.283394 41.511765  0.039522 0.897162 0.439931  0.013688 0.019516 1 1 1.000000
0  -0.013768 100.365982 41.566822  -0.000002 0.897344 0.441333  0.013688 0.019516 1 1 1.000000
0  -0.013768 100.283394 41.704464  0.000008 0.505621 0.862756  0.013688 0.019516 1 1 1.000000
skin_0
0  -0.013768 100.283394 41.704464  0.000008 0.505621 0.862756  0.013688 0.019516 1 1 1.000000
0  6.854392 100.214577 41.663166  0.033363 0.506507 0.861590  0.013688 0.019516 1 1 1.000000
0  6.854392 100.283394 41.511765  0.039522 0.897162 0.439931  0.013688 0.019516 1 1 1.000000
skin_0
0  5.918451 99.374985 39.901394  -0.133298 0.673308 -0.727246  0.013688 0.019516 1 1 1.000000
0  6.042325 99.430038 39.983978  0.043602 0.769965 -0.636595  0.013688 0.019516 1 1 1.000000
0  5.918451 98.700554 39.130619  -0.396205 0.691937 -0.603527  0.013688 0.019516 1 1 1.000000
skin_0
0  5.601882 99.608963 40.149147  -0.036371 0.669570 -0.741858  0.013688 0.019516 1 1 1.000000
0  5.533062 99.430038 40.080326  -0.168764 0.408372 -0.897079  0.013688 0.019516 1 1 1.000000
0  -0.013768 99.540146 40.121616  -0.000006 0.361644 -0.932316  0.013688 0.019516 1 1 1.000000
skin_0
0  -0.013768 99.540146 40.121616  -0.000006 0.361644 -0.932316  0.013688 0.019516 1 1 1.000000
0  -0.013768 99.719086 40.190437  -0.000299 0.621947 -0.783059  0.013688 0.019516 1 1 1.000000
0  5.601882 99.608963 40.149147  -0.036371 0.669570 -0.741858  0.013688 0.019516 1 1 1.000000
skin_0
0  5.918451 98.700554 39.130619  -0.396205 0.691937 -0.603527  0.013688 0.019516 1 1 1.000000
0  5.863395 99.196053 39.818813  -0.627748 0.454495 -0.631954  0.013688 0.019516 1 1 1.000000
0  5.918451 99.374985 39.901394  -0.133298 0.673308 -0.727246  0.013688 0.019516 1 1 1.000000
skin_0
0  5.918451 99.374985 39.901394  -0.133298 0.673308 -0.727246  0.013688 0.019516 1 1 1.000000
0  5.863395 99.196053 39.818813  -0.627748 0.454495 -0.631954  0.013688 0.019516 1 1 1.000000
0  5.533062 99.430038 40.080326  -0.168764 0.408372 -0.897079  0.013688 0.019516 1 1 1.000000
skin_0
0  5.533062 99.430038 40.080326  -0.168764 0.408372 -0.897079  0.013688 0.019516 1 1 1.000000
0  5.601882 99.608963 40.149147  -0.036371 0.669570 -0.741858  0.013688 0.019516 1 1 1.000000
0  5.918451 99.374985 39.901394  -0.133298 0.673308 -0.727246  0.013688 0.019516 1 1 1.000000
skin_0
0  21.017393 99.223587 41.043797  0.118993 0.895166 0.429556  0.013688 0.019516 1 1 1.000000
0  21.017393 99.347458 40.768517  0.119188 0.908833 0.399772  0.013688 0.019516 1 1 1.000000
0  14.039121 99.980598 41.030033  0.081789 0.908147 0.410584  0.013688 0.019516 1 1 1.000000
skin_0
0  14.039121 99.980598 41.030033  0.081789 0.908147 0.410584  0.013688 0.019516 1 1 1.000000
0  14.039121 99.856720 41.305309  0.081582 0.896189 0.436108  0.013688 0.019516 1 1 1.000000
0  21.017393 99.223587 41.043797  0.118993 0.895166 0.429556  0.013688 0.019516 1 1 1.000000
skin_0
0  17.067169 98.012360 38.855343  0.055475 0.763283 -0.643678  0.013688 0.019516 1 1 1.000000
0  14.039121 99.980598 41.030033  0.044488 0.778309 -0.626303  0.013688 0.019516 1 1 1.000000
0  21.017393 99.347458 40.768517  0.072136 0.729920 -0.679715  0.013688 0.019516 1 1 1.000000
skin_0
0  31.670612 96.622215 40.534531  0.086819 -0.050488 0.994944  0.013688 0.019516 1 1 1.000000
0  31.243933 97.241592 40.603348  0.083264 -0.056949 0.994899  0.013688 0.019516 1 1 1.000000
0  28.050720 96.429527 40.796047  0.066061 -0.037982 0.997092  0.013688 0.019516 1 1 1.000000
skin_0
0  30.886074 97.792145 40.520767  0.319426 0.833953 0.449988  0.013688 0.019516 1 1 1.000000
0  31.023710 97.888489 40.204197  0.359001 0.832691 0.421597  0.013688 0.019516 1 1 1.000000
0  27.128542 98.535385 40.451946  0.157474 0.910891 0.381418  0.013688 0.019516 1 1 1.000000
skin_0
0  27.128542 98.535385 40.451946  0.157474 0.910891 0.381418  0.013688 0.019516 1 1 1.000000
0  27.128542 98.411514 40.740986  0.156074 0.889135 0.430210  0.013688 0.019516 1 1 1.000000
0  30.886074 97.792145 40.520767  0.319426 0.833953 0.449988  0.013688 0.019516 1 1 1.000000
skin_0
0  31.877069 95.135719 38.593830  0.510241 0.482429 -0.711981  0.013688 0.019516 1 1 1.000000
0  31.698139 97.530632 40.121613  0.298179 0.541201 -0.786251  0.013688 0.019516 1 1 1.000000
0  32.111057 96.883728 40.039032  0.907438 0.414872 -0.066620  0.013688 0.019516 1 1 1.000000
skin_0
0  32.111057 96.883728 40.039032  0.907438 0.414872 -0.066620  0.013688 0.019516 1 1 1.000000
0  32.331280 94.832916 38.882866  0.854581 0.321123 -0.408131  0.013688 0.019516 1 1 1.000000
0  31.877069 95.135719 38.593830  0.510241 0.482429 -0.711981  0.013688 0.019516 1 1 1.000000
skin_0
0  6.854392 100.407272 41.250256  0.022726 0.792177 -0.609868  0.013688 0.019516 1 1 1.000000
0  14.039121 99.980598 41.030033  0.044488 0.778309 -0.626303  0.013688 0.019516 1 1 1.000000
0  10.735797 98.576683 39.048038  0.031181 0.785703 -0.617817  0.013688 0.019516 1 1 1.000000
skin_0
0  27.128542 98.535385 40.451946  0.083000 0.652561 -0.753177  0.013688 0.019516 1 1 1.000000
0  23.728870 96.980072 38.621361  0.079668 0.695654 -0.713945  0.013688 0.019516 1 1 1.000000
0  21.017393 99.347458 40.768517  0.072136 0.729920 -0.679715  0.013688 0.019516 1 1 1.000000
skin_0
0  14.039121 99.856720 41.305309  0.081582 0.896189 0.436108  0.013688 0.019516 1 1 1.000000
0  14.039121 99.980598 41.030033  0.081789 0.908147 0.410584  0.013688 0.019516 1 1 1.000000
0  6.854392 100.407272 41.250256  0.039563 0.907761 0.417617  0.013688 0.019516 1 1 1.000000
skin_0
0  6.854392 100.407272 41.250256  0.039563 0.907761 0.417617  0.013688 0.019516 1 1 1.000000
0  6.854392 100.283394 41.511765  0.039522 0.897162 0.439931  0.013688 0.019516 1 1 1.000000
0  14.039121 99.856720 41.305309  0.081582 0.896189 0.436108  0.013688 0.019516 1 1 1.000000
skin_0
0  27.128542 98.411514 40.740986  0.156074 0.889135 0.430210  0.013688 0.019516 1 1 1.000000
0  27.128542 98.535385 40.451946  0.157474 0.910891 0.381418  0.013688 0.019516 1 1 1.000000
0  21.017393 99.347458 40.768517  0.119188 0.908833 0.399772  0.013688 0.019516 1 1 1.000000
skin_0
0  21.017393 99.347458 40.768517  0.119188 0.908833 0.399772  0.013688 0.019516 1 1 1.000000
0  21.017393 99.223587 41.043797  0.118993 0.895166 0.429556  0.013688 0.019516 1 1 1.000000
0  27.128542 98.411514 40.740986  0.156074 0.889135 0.430210  0.013688 0.019516 1 1 1.000000
skin_0
0  -0.013768 99.801666 40.314312  -0.001553 0.821190 -0.570653  0.013688 0.019516 1 1 1.000000
0  -0.013768 100.489853 41.305309  -0.002426 0.820684 -0.571377  0.013688 0.019516 1 1 1.000000
0  6.854392 100.407272 41.250256  0.022726 0.792177 -0.609868  0.013688 0.019516 1 1 1.000000
skin_0
0  6.854392 100.407272 41.250256  0.022726 0.792177 -0.609868  0.013688 0.019516 1 1 1.000000
0  5.670702 99.691559 40.259258  0.033582 0.793299 -0.607906  0.013688 0.019516 1 1 1.000000
0  -0.013768 99.801666 40.314312  -0.001553 0.821190 -0.570653  0.013688 0.019516 1 1 1.000000
skin_0
0  6.854392 100.407272 41.250256  0.022726 0.792177 -0.609868  0.013688 0.019516 1 1 1.000000
0  6.042325 99.430038 39.983978  0.043602 0.769965 -0.636595  0.013688 0.019516 1 1 1.000000
0  5.670702 99.691559 40.259258  0.033582 0.793299 -0.607906  0.013688 0.019516 1 1 1.000000
skin_0
0  17.645250 91.061630 40.961212  -0.014137 -0.481803 0.876165  0.013688 0.019516 1 1 1.000000
0  16.296392 91.185501 41.002502  -0.013162 -0.462450 0.886548  0.013688 0.019516 1 1 1.000000
0  16.062408 90.896454 40.754753  -0.033449 -0.638404 0.768975  0.013688 0.019516 1 1 1.000000
skin_0
0  16.062408 90.896454 40.754753  -0.033449 -0.638404 0.768975  0.013688 0.019516 1 1 1.000000
0  17.865473 90.717529 40.672169  -0.031920 -0.645332 0.763235  0.013688 0.019516 1 1 1.000000
0  17.645250 91.061630 40.961212  -0.014137 -0.481803 0.876165  0.013688 0.019516 1 1 1.000000
skin_0
0  17.548904 97.737091 41.222725  0.034547 -0.018705 0.999228  0.013688 0.019516 1 1 1.000000
0  16.255100 97.888489 41.277782  0.035983 -0.029366 0.998921  0.013688 0.019516 1 1 1.000000
0  16.378977 91.598412 41.085087  0.025790 -0.110470 0.993545  0.013688 0.019516 1 1 1.000000
skin_0
0  16.378977 91.598412 41.085087  0.025790 -0.110470 0.993545  0.013688 0.019516 1 1 1.000000
0  17.590195 91.474533 41.043797  0.024200 -0.117233 0.992810  0.013688 0.019516 1 1 1.000000
0  17.548904 97.737091 41.222725  0.034547 -0.018705 0.999228  0.013688 0.019516 1 1 1.000000
skin_0
0  14.039121 99.980598 41.030033  0.044488 0.778309 -0.626303  0.013688 0.019516 1 1 1.000000
0  17.067169 98.012360 38.855343  0.055475 0.763283 -0.643678  0.013688 0.019516 1 1 1.000000
0  10.735797 98.576683 39.048038  0.031181 0.785703 -0.617817  0.013688 0.019516 1 1 1.000000
skin_0
0  17.067169 98.012360 38.855343  0.055475 0.763283 -0.643678  0.013688 0.019516 1 1 1.000000
0  21.017393 99.347458 40.768517  0.072136 0.729920 -0.679715  0.013688 0.019516 1 1 1.000000
0  23.728870 96.980072 38.621361  0.079668 0.695654 -0.713945  0.013688 0.019516 1 1 1.000000
skin_0
0  32.111057 96.883728 40.039032  0.907438 0.414872 -0.066620  0.013688 0.019516 1 1 1.000000
0  32.537735 94.447525 39.350838  0.983775 0.178362 -0.019337  0.013688 0.019516 1 1 1.000000
0  32.331280 94.832916 38.882866  0.854581 0.321123 -0.408131  0.013688 0.019516 1 1 1.000000
skin_0
0  23.728870 96.980072 38.621361  0.079668 0.695654 -0.713945  0.013688 0.019516 1 1 1.000000
0  28.394815 96.085419 38.580063  0.107179 0.636050 -0.764168  0.013688 0.019516 1 1 1.000000
0  28.367289 95.906494 38.401134  0.125955 0.684869 -0.717698  0.013688 0.019516 1 1 1.000000
skin_0
0  27.128542 98.535385 40.451946  0.083000 0.652561 -0.753177  0.013688 0.019516 1 1 1.000000
0  28.394815 96.085419 38.580063  0.107179 0.636050 -0.764168  0.013688 0.019516 1 1 1.000000
0  23.728870 96.980072 38.621361  0.079668 0.695654 -0.713945  0.013688 0.019516 1 1 1.000000
skin_0
0  31.546740 97.434280 40.438183  0.614069 0.597906 0.515196  0.013688 0.019516 1 1 1.000000
0  31.698139 97.530632 40.121613  0.650289 0.588495 0.480414  0.013688 0.019516 1 1 1.000000
0  31.023710 97.888489 40.204197  0.359001 0.832691 0.421597  0.013688 0.019516 1 1 1.000000
skin_0
0  31.023710 97.888489 40.204197  0.359001 0.832691 0.421597  0.013688 0.019516 1 1 1.000000
0  30.886074 97.792145 40.520767  0.319426 0.833953 0.449988  0.013688 0.019516 1 1 1.000000
0  31.546740 97.434280 40.438183  0.614069 0.597906 0.515196  0.013688 0.019516 1 1 1.000000
skin_0
0  31.959650 96.787384 40.369366  0.825752 0.246416 0.507358  0.013688 0.019516 1 1 1.000000
0  32.111057 96.883728 40.039032  0.907438 0.414872 -0.066620  0.013688 0.019516 1 1 1.000000
0  31.698139 97.530632 40.121613  0.650289 0.588495 0.480414  0.013688 0.019516 1 1 1.000000
skin_0
0  31.698139 97.530632 40.121613  0.650289 0.588495 0.480414  0.013688 0.019516 1 1 1.000000
0  31.546740 97.434280 40.438183  0.614069 0.597906 0.515196  0.013688 0.019516 1 1 1.000000
0  31.959650 96.787384 40.369366  0.825752 0.246416 0.507358  0.013688 0.019516 1 1 1.000000
skin_0
0  31.023710 97.888489 40.204197  0.128565 0.578493 -0.805492  0.013688 0.019516 1 1 1.000000
0  31.298986 95.342186 38.538773  0.206192 0.546124 -0.811932  0.013688 0.019516 1 1 1.000000
0  28.394815 96.085419 38.580063  0.107179 0.636050 -0.764168  0.013688 0.019516 1 1 1.000000
skin_0
0  31.023710 97.888489 40.204197  0.128565 0.578493 -0.805492  0.013688 0.019516 1 1 1.000000
0  28.394815 96.085419 38.580063  0.107179 0.636050 -0.764168  0.013688 0.019516 1 1 1.000000
0  27.128542 98.535385 40.451946  0.083000 0.652561 -0.753177  0.013688 0.019516 1 1 1.000000
skin_0
0  31.698139 97.530632 40.121613  0.298179 0.541201 -0.786251  0.013688 0.019516 1 1 1.000000
0  31.877069 95.135719 38.593830  0.510241 0.482429 -0.711981  0.013688 0.019516 1 1 1.000000
0  31.298986 95.342186 38.538773  0.206192 0.546124 -0.811932  0.013688 0.019516 1 1 1.000000
skin_0
0  31.298986 95.342186 38.538773  0.206192 0.546124 -0.811932  0.013688 0.019516 1 1 1.000000
0  31.023710 97.888489 40.204197  0.128565 0.578493 -0.805492  0.013688 0.019516 1 1 1.000000
0  31.698139 97.530632 40.121613  0.298179 0.541201 -0.786251  0.013688 0.019516 1 1 1.000000
skin_0
0  32.413860 89.341148 40.094086  0.388343 -0.437302 0.811145  0.013688 0.019516 1 1 1.000000
0  32.000946 89.189735 40.121613  0.091195 -0.596896 0.797119  0.013688 0.019516 1 1 1.000000
0  32.083527 89.120918 39.970211  0.103600 -0.949070 0.297544  0.013688 0.019516 1 1 1.000000
skin_0
0  32.083527 89.120918 39.970211  0.103600 -0.949070 0.297544  0.013688 0.019516 1 1 1.000000
0  32.482677 89.258553 39.942684  0.568229 -0.688227 0.451064  0.013688 0.019516 1 1 1.000000
0  32.413860 89.341148 40.094086  0.388343 -0.437302 0.811145  0.013688 0.019516 1 1 1.000000
skin_0
0  32.482677 89.258553 39.942684  0.568229 -0.688227 0.451064  0.013688 0.019516 1 1 1.000000
0  32.661610 89.630180 39.956448  0.858219 -0.189944 0.476845  0.013688 0.019516 1 1 1.000000
0  32.592789 89.698997 40.107849  0.591070 -0.101591 0.800197  0.013688 0.019516 1 1 1.000000
skin_0
0  32.592789 89.698997 40.107849  0.591070 -0.101591 0.800197  0.013688 0.019516 1 1 1.000000
0  32.413860 89.341148 40.094086  0.388343 -0.437302 0.811145  0.013688 0.019516 1 1 1.000000
0  32.482677 89.258553 39.942684  0.568229 -0.688227 0.451064  0.013688 0.019516 1 1 1.000000
skin_0
0  -0.013768 100.104469 41.704464  0.000152 -0.049460 0.998776  0.013688 0.019516 1 1 1.000000
0  -0.013768 99.182289 41.649403  0.001326 -0.068714 0.997635  0.013688 0.019516 1 1 1.000000
0  6.840629 99.085945 41.580585  0.013622 -0.071839 0.997323  0.013688 0.019516 1 1 1.000000
skin_0
0  6.840629 99.085945 41.580585  0.013622 -0.071839 0.997323  0.013688 0.019516 1 1 1.000000
0  6.854392 100.035652 41.649403  0.016665 -0.053343 0.998437  0.013688 0.019516 1 1 1.000000
0  -0.013768 100.104469 41.704464  0.000152 -0.049460 0.998776  0.013688 0.019516 1 1 1.000000
skin_0
0  6.854392 100.035652 41.649403  0.016665 -0.053343 0.998437  0.013688 0.019516 1 1 1.000000
0  6.840629 99.085945 41.580585  0.013622 -0.071839 0.997323  0.013688 0.019516 1 1 1.000000
0  15.332924 98.590446 41.319073  0.028840 -0.072592 0.996945  0.013688 0.019516 1 1 1.000000
skin_0
0  15.332924 98.590446 41.319073  0.028840 -0.072592 0.996945  0.013688 0.019516 1 1 1.000000
0  13.997829 99.595200 41.442947  0.026944 -0.065845 0.997466  0.013688 0.019516 1 1 1.000000
0  6.854392 100.035652 41.649403  0.016665 -0.053343 0.998437  0.013688 0.019516 1 1 1.000000
skin_0
0  15.332924 98.590446 41.319073  0.028840 -0.072592 0.996945  0.013688 0.019516 1 1 1.000000
0  18.512371 98.260117 41.208961  0.030662 -0.074571 0.996744  0.013688 0.019516 1 1 1.000000
0  21.017393 98.989601 41.195198  0.039038 -0.060742 0.997390  0.013688 0.019516 1 1 1.000000
skin_0
0  21.017393 98.989601 41.195198  0.039038 -0.060742 0.997390  0.013688 0.019516 1 1 1.000000
0  13.997829 99.595200 41.442947  0.026944 -0.065845 0.997466  0.013688 0.019516 1 1 1.000000
0  15.332924 98.590446 41.319073  0.028840 -0.072592 0.996945  0.013688 0.019516 1 1 1.000000
skin_0
0  18.512371 98.260117 41.208961  0.030662 -0.074571 0.996744  0.013688 0.019516 1 1 1.000000
0  27.087252 97.200302 40.851101  0.037459 -0.026328 0.998951  0.013688 0.019516 1 1 1.000000
0  27.114779 98.177536 40.878628  0.049957 -0.006830 0.998728  0.013688 0.019516 1 1 1.000000
skin_0
0  27.114779 98.177536 40.878628  0.049957 -0.006830 0.998728  0.013688 0.019516 1 1 1.000000
0  21.017393 98.989601 41.195198  0.039038 -0.060742 0.997390  0.013688 0.019516 1 1 1.000000
0  18.512371 98.260117 41.208961  0.030662 -0.074571 0.996744  0.013688 0.019516 1 1 1.000000
skin_0
0  16.255100 97.888489 41.277782  0.035983 -0.029366 0.998921  0.013688 0.019516 1 1 1.000000
0  17.548904 97.737091 41.222725  0.034547 -0.018705 0.999228  0.013688 0.019516 1 1 1.000000
0  17.906763 98.081177 41.222725  0.034705 -0.053481 0.997966  0.013688 0.019516 1 1 1.000000
skin_0
0  17.906763 98.081177 41.222725  0.034705 -0.053481 0.997966  0.013688 0.019516 1 1 1.000000
0  15.897241 98.287643 41.305309  0.035446 -0.024392 0.999074  0.013688 0.019516 1 1 1.000000
0  16.255100 97.888489 41.277782  0.035983 -0.029366 0.998921  0.013688 0.019516 1 1 1.000000
skin_0
0  28.050720 96.429527 40.796047  0.066061 -0.037982 0.997092  0.013688 0.019516 1 1 1.000000
0  31.243933 97.241592 40.603348  0.083264 -0.056949 0.994899  0.013688 0.019516 1 1 1.000000
0  30.555742 97.626976 40.685932  0.069554 -0.027842 0.997190  0.013688 0.019516 1 1 1.000000
skin_0
0  30.555742 97.626976 40.685932  0.069554 -0.027842 0.997190  0.013688 0.019516 1 1 1.000000
0  27.692858 96.883728 40.823574  0.051572 -0.021520 0.998437  0.013688 0.019516 1 1 1.000000
0  28.050720 96.429527 40.796047  0.066061 -0.037982 0.997092  0.013688 0.019516 1 1 1.000000
skin_0
0  28.601274 89.520073 40.424419  0.078997 -0.051465 0.995545  0.013688 0.019516 1 1 1.000000
0  32.069763 89.382439 40.135380  0.080224 -0.081260 0.993459  0.013688 0.019516 1 1 1.000000
0  32.358807 89.602654 40.121613  0.077491 -0.060791 0.995138  0.013688 0.019516 1 1 1.000000
skin_0
0  28.601274 89.520073 40.424419  0.078997 -0.051465 0.995545  0.013688 0.019516 1 1 1.000000
0  32.358807 89.602654 40.121613  0.077491 -0.060791 0.995138  0.013688 0.019516 1 1 1.000000
0  31.670612 96.622215 40.534531  0.086819 -0.050488 0.994944  0.013688 0.019516 1 1 1.000000
skin_0
0  28.601274 89.520073 40.424419  0.078997 -0.051465 0.995545  0.013688 0.019516 1 1 1.000000
0  31.670612 96.622215 40.534531  0.086819 -0.050488 0.994944  0.013688 0.019516 1 1 1.000000
0  28.050720 96.429527 40.796047  0.066061 -0.037982 0.997092  0.013688 0.019516 1 1 1.000000
skin_0
0  32.000946 89.189735 40.121613  0.091195 -0.596896 0.797119  0.013688 0.019516 1 1 1.000000
0  32.069763 89.382439 40.135380  0.080224 -0.081260 0.993459  0.013688 0.019516 1 1 1.000000
0  28.601274 89.520073 40.424419  0.078997 -0.051465 0.995545  0.013688 0.019516 1 1 1.000000
skin_0
0  16.902002 90.827637 40.355606  -0.099860 -0.993779 -0.049304  0.013688 0.019516 1 1 1.000000
0  16.062408 90.896454 40.754753  -0.081759 -0.996541 -0.014875  0.013688 0.019516 1 1 1.000000
0  8.588637 91.488297 40.974976  -0.055118 -0.998186 -0.024204  0.013688 0.019516 1 1 1.000000
skin_0
0  8.588637 91.488297 40.974976  -0.055118 -0.998186 -0.024204  0.013688 0.019516 1 1 1.000000
0  8.588637 91.488297 40.617115  -0.055879 -0.998137 -0.024475  0.013688 0.019516 1 1 1.000000
0  16.902002 90.827637 40.355606  -0.099860 -0.993779 -0.049304  0.013688 0.019516 1 1 1.000000
skin_0
0  17.865473 90.717529 40.672169  -0.110700 -0.993417 -0.029476  0.013688 0.019516 1 1 1.000000
0  16.062408 90.896454 40.754753  -0.081759 -0.996541 -0.014875  0.013688 0.019516 1 1 1.000000
0  16.902002 90.827637 40.355606  -0.099860 -0.993779 -0.049304  0.013688 0.019516 1 1 1.000000
skin_0
0  28.215885 89.561363 40.080322  -0.060692 -0.992168 -0.109178  0.013688 0.019516 1 1 1.000000
0  17.865473 90.717529 40.672169  -0.110700 -0.993417 -0.029476  0.013688 0.019516 1 1 1.000000
0  16.902002 90.827637 40.355606  -0.099860 -0.993779 -0.049304  0.013688 0.019516 1 1 1.000000
skin_0
0  16.902002 90.827637 40.355606  -0.099860 -0.993779 -0.049304  0.013688 0.019516 1 1 1.000000
0  28.339758 89.602654 39.667408  -0.074752 -0.991414 -0.107283  0.013688 0.019516 1 1 1.000000
0  28.215885 89.561363 40.080322  -0.060692 -0.992168 -0.109178  0.013688 0.019516 1 1 1.000000
skin_0
0  28.339758 89.602654 39.667408  -0.074699 -0.991418 -0.107291  0.013688 0.019516 1 1 1.000000
0  28.711384 89.561363 39.942684  -0.090769 -0.992121 -0.086356  0.013688 0.019516 1 1 1.000000
0  28.601274 89.520073 40.424419  -0.084012 -0.992861 -0.084675  0.013688 0.019516 1 1 1.000000
skin_0
0  28.601274 89.520073 40.424419  -0.084012 -0.992861 -0.084675  0.013688 0.019516 1 1 1.000000
0  28.215885 89.561363 40.080322  -0.060642 -0.992167 -0.109209  0.013688 0.019516 1 1 1.000000
0  28.339758 89.602654 39.667408  -0.074699 -0.991418 -0.107291  0.013688 0.019516 1 1 1.000000
skin_0
0  16.062408 90.896454 40.754753  -0.690707 -0.015003 0.722979  0.013688 0.019516 1 1 1.000000
0  16.296392 91.185501 41.002502  -0.755432 0.029291 0.654572  0.013688 0.019516 1 1 1.000000
0  16.378977 91.598412 41.085087  -0.693768 -0.028693 0.719627  0.013688 0.019516 1 1 1.000000
skin_0
0  16.062408 90.896454 40.754753  -0.690707 -0.015003 0.722979  0.013688 0.019516 1 1 1.000000
0  16.378977 91.598412 41.085087  -0.693768 -0.028693 0.719627  0.013688 0.019516 1 1 1.000000
0  16.255100 97.888489 41.277782  -0.105481 -0.109907 0.988329  0.013688 0.019516 1 1 1.000000
skin_0
0  16.062408 90.896454 40.754753  -0.690707 -0.015003 0.722979  0.013688 0.019516 1 1 1.000000
0  16.255100 97.888489 41.277782  -0.105481 -0.109907 0.988329  0.013688 0.019516 1 1 1.000000
0  15.966060 97.516869 41.208961  -0.054092 -0.083459 0.995042  0.013688 0.019516 1 1 1.000000
skin_0
0  28.050720 96.429527 40.796047  -0.149099 -0.143702 0.978325  0.013688 0.019516 1 1 1.000000
0  27.816734 96.099182 40.713459  -0.072742 -0.110064 0.991259  0.013688 0.019516 1 1 1.000000
0  28.215885 89.561363 40.080322  -0.660611 -0.092398 0.745021  0.013688 0.019516 1 1 1.000000
skin_0
0  28.215885 89.561363 40.080322  -0.660611 -0.092398 0.745021  0.013688 0.019516 1 1 1.000000
0  28.601274 89.520073 40.424419  -0.669525 -0.091966 0.737075  0.013688 0.019516 1 1 1.000000
0  28.050720 96.429527 40.796047  -0.149099 -0.143702 0.978325  0.013688 0.019516 1 1 1.000000
skin_0
0  17.548904 97.737091 41.222725  0.170862 -0.094461 0.980757  0.013688 0.019516 1 1 1.000000
0  17.810417 97.324173 41.140144  0.149732 -0.065282 0.986569  0.013688 0.019516 1 1 1.000000
0  17.906763 98.081177 41.222725  0.069973 -0.108838 0.991594  0.013688 0.019516 1 1 1.000000
skin_0
0  15.332924 98.590446 41.319073  0.016214 -0.101212 0.994733  0.013688 0.019516 1 1 1.000000
0  15.966060 97.516869 41.208961  -0.054092 -0.083459 0.995042  0.013688 0.019516 1 1 1.000000
0  15.897241 98.287643 41.305309  -0.029502 -0.122359 0.992047  0.013688 0.019516 1 1 1.000000
skin_0
0  17.810417 97.324173 41.140144  0.149732 -0.065282 0.986569  0.013688 0.019516 1 1 1.000000
0  17.548904 97.737091 41.222725  0.170862 -0.094461 0.980757  0.013688 0.019516 1 1 1.000000
0  17.590195 91.474533 41.043797  0.704961 -0.038967 0.708175  0.013688 0.019516 1 1 1.000000
skin_0
0  17.810417 97.324173 41.140144  0.149732 -0.065282 0.986569  0.013688 0.019516 1 1 1.000000
0  17.590195 91.474533 41.043797  0.704961 -0.038967 0.708175  0.013688 0.019516 1 1 1.000000
0  17.645250 91.061630 40.961212  0.762635 -0.038819 0.645663  0.013688 0.019516 1 1 1.000000
skin_0
0  17.810417 97.324173 41.140144  0.149732 -0.065282 0.986569  0.013688 0.019516 1 1 1.000000
0  17.645250 91.061630 40.961212  0.762635 -0.038819 0.645663  0.013688 0.019516 1 1 1.000000
0  17.865473 90.717529 40.672169  0.767393 -0.038789 0.640003  0.013688 0.019516 1 1 1.000000
skin_0
0  27.087252 97.200302 40.851101  0.019553 -0.115743 0.993087  0.013688 0.019516 1 1 1.000000
0  27.816734 96.099182 40.713459  -0.072742 -0.110064 0.991259  0.013688 0.019516 1 1 1.000000
0  27.692858 96.883728 40.823574  -0.041493 -0.148079 0.988105  0.013688 0.019516 1 1 1.000000
skin_0
0  17.865473 90.717529 40.672169  0.038413 -0.078671 0.996160  0.013688 0.019516 1 1 1.000000
0  28.215885 89.561363 40.080322  0.046427 -0.093479 0.994538  0.013688 0.019516 1 1 1.000000
0  27.816734 96.099182 40.713459  -0.072742 -0.110064 0.991259  0.013688 0.019516 1 1 1.000000
skin_0
0  27.816734 96.099182 40.713459  -0.072742 -0.110064 0.991259  0.013688 0.019516 1 1 1.000000
0  17.810417 97.324173 41.140144  0.149732 -0.065282 0.986569  0.013688 0.019516 1 1 1.000000
0  17.865473 90.717529 40.672169  0.038413 -0.078671 0.996160  0.013688 0.019516 1 1 1.000000
skin_0
0  28.711384 89.561363 39.942684  -0.090769 -0.992121 -0.086356  0.013688 0.019516 1 1 1.000000
0  32.289982 89.079628 39.557297  0.188980 -0.964309 0.185459  0.013688 0.019516 1 1 1.000000
0  32.083527 89.120918 39.970211  0.103600 -0.949070 0.297544  0.013688 0.019516 1 1 1.000000
skin_0
0  32.083527 89.120918 39.970211  0.103600 -0.949070 0.297544  0.013688 0.019516 1 1 1.000000
0  28.601274 89.520073 40.424419  -0.084012 -0.992861 -0.084675  0.013688 0.019516 1 1 1.000000
0  28.711384 89.561363 39.942684  -0.090769 -0.992121 -0.086356  0.013688 0.019516 1 1 1.000000
skin_0
0  -0.013768 100.283394 41.704464  0.000008 0.505621 0.862756  0.013688 0.019516 1 1 1.000000
0  -0.013768 100.104469 41.704464  0.000152 -0.049460 0.998776  0.013688 0.019516 1 1 1.000000
0  6.854392 100.035652 41.649403  0.016665 -0.053343 0.998437  0.013688 0.019516 1 1 1.000000
skin_0
0  6.854392 100.035652 41.649403  0.016665 -0.053343 0.998437  0.013688 0.019516 1 1 1.000000
0  6.854392 100.214577 41.663166  0.033363 0.506507 0.861590  0.013688 0.019516 1 1 1.000000
0  -0.013768 100.283394 41.704464  0.000008 0.505621 0.862756  0.013688 0.019516 1 1 1.000000
skin_0
0  6.854392 100.035652 41.649403  0.016665 -0.053343 0.998437  0.013688 0.019516 1 1 1.000000
0  13.997829 99.595200 41.442947  0.026944 -0.065845 0.997466  0.013688 0.019516 1 1 1.000000
0  14.039121 99.787903 41.456711  0.066002 0.499001 0.864085  0.013688 0.019516 1 1 1.000000
skin_0
0  14.039121 99.787903 41.456711  0.066002 0.499001 0.864085  0.013688 0.019516 1 1 1.000000
0  6.854392 100.214577 41.663166  0.033363 0.506507 0.861590  0.013688 0.019516 1 1 1.000000
0  6.854392 100.035652 41.649403  0.016665 -0.053343 0.998437  0.013688 0.019516 1 1 1.000000
skin_0
0  13.997829 99.595200 41.442947  0.026944 -0.065845 0.997466  0.013688 0.019516 1 1 1.000000
0  21.017393 98.989601 41.195198  0.039038 -0.060742 0.997390  0.013688 0.019516 1 1 1.000000
0  21.017393 99.154762 41.195198  0.094653 0.509202 0.855427  0.013688 0.019516 1 1 1.000000
skin_0
0  21.017393 99.154762 41.195198  0.094653 0.509202 0.855427  0.013688 0.019516 1 1 1.000000
0  14.039121 99.787903 41.456711  0.066002 0.499001 0.864085  0.013688 0.019516 1 1 1.000000
0  13.997829 99.595200 41.442947  0.026944 -0.065845 0.997466  0.013688 0.019516 1 1 1.000000
skin_0
0  21.017393 98.989601 41.195198  0.039038 -0.060742 0.997390  0.013688 0.019516 1 1 1.000000
0  27.114779 98.177536 40.878628  0.049957 -0.006830 0.998728  0.013688 0.019516 1 1 1.000000
0  27.128542 98.342697 40.878628  0.122113 0.510374 0.851239  0.013688 0.019516 1 1 1.000000
skin_0
0  27.128542 98.342697 40.878628  0.122113 0.510374 0.851239  0.013688 0.019516 1 1 1.000000
0  21.017393 99.154762 41.195198  0.094653 0.509202 0.855427  0.013688 0.019516 1 1 1.000000
0  21.017393 98.989601 41.195198  0.039038 -0.060742 0.997390  0.013688 0.019516 1 1 1.000000
skin_0
0  27.114779 98.177536 40.878628  0.049957 -0.006830 0.998728  0.013688 0.019516 1 1 1.000000
0  30.555742 97.626976 40.685932  0.069554 -0.027842 0.997190  0.013688 0.019516 1 1 1.000000
0  30.789726 97.737091 40.658401  0.216181 0.502056 0.837380  0.013688 0.019516 1 1 1.000000
skin_0
0  30.789726 97.737091 40.658401  0.216181 0.502056 0.837380  0.013688 0.019516 1 1 1.000000
0  27.128542 98.342697 40.878628  0.122113 0.510374 0.851239  0.013688 0.019516 1 1 1.000000
0  27.114779 98.177536 40.878628  0.049957 -0.006830 0.998728  0.013688 0.019516 1 1 1.000000
skin_0
0  31.464155 97.379227 40.589584  0.408378 0.350950 0.842651  0.013688 0.019516 1 1 1.000000
0  30.789726 97.737091 40.658401  0.216181 0.502056 0.837380  0.013688 0.019516 1 1 1.000000
0  30.555742 97.626976 40.685932  0.069554 -0.027842 0.997190  0.013688 0.019516 1 1 1.000000
skin_0
0  30.555742 97.626976 40.685932  0.069554 -0.027842 0.997190  0.013688 0.019516 1 1 1.000000
0  31.243933 97.241592 40.603348  0.083264 -0.056949 0.994899  0.013688 0.019516 1 1 1.000000
0  31.464155 97.379227 40.589584  0.408378 0.350950 0.842651  0.013688 0.019516 1 1 1.000000
skin_0
0  31.877069 96.732323 40.520767  0.548085 0.117038 0.828194  0.013688 0.019516 1 1 1.000000
0  31.464155 97.379227 40.589584  0.408378 0.350950 0.842651  0.013688 0.019516 1 1 1.000000
0  31.243933 97.241592 40.603348  0.083264 -0.056949 0.994899  0.013688 0.019516 1 1 1.000000
skin_0
0  31.243933 97.241592 40.603348  0.083264 -0.056949 0.994899  0.013688 0.019516 1 1 1.000000
0  31.670612 96.622215 40.534531  0.086819 -0.050488 0.994944  0.013688 0.019516 1 1 1.000000
0  31.877069 96.732323 40.520767  0.548085 0.117038 0.828194  0.013688 0.019516 1 1 1.000000
skin_0
0  31.670612 96.622215 40.534531  0.086819 -0.050488 0.994944  0.013688 0.019516 1 1 1.000000
0  32.358807 89.602654 40.121613  0.077491 -0.060791 0.995138  0.013688 0.019516 1 1 1.000000
0  32.592789 89.698997 40.107849  0.591070 -0.101591 0.800197  0.013688 0.019516 1 1 1.000000
skin_0
0  32.592789 89.698997 40.107849  0.591070 -0.101591 0.800197  0.013688 0.019516 1 1 1.000000
0  31.877069 96.732323 40.520767  0.548085 0.117038 0.828194  0.013688 0.019516 1 1 1.000000
0  31.670612 96.622215 40.534531  0.086819 -0.050488 0.994944  0.013688 0.019516 1 1 1.000000
skin_0
0  32.069763 89.382439 40.135380  0.080224 -0.081260 0.993459  0.013688 0.019516 1 1 1.000000
0  32.000946 89.189735 40.121613  0.091195 -0.596896 0.797119  0.013688 0.019516 1 1 1.000000
0  32.413860 89.341148 40.094086  0.388343 -0.437302 0.811145  0.013688 0.019516 1 1 1.000000
skin_0
0  32.111057 96.883728 40.039032  0.907438 0.414872 -0.066620  0.013688 0.019516 1 1 1.000000
0  32.579025 94.075905 39.543533  0.911844 0.076582 0.403331  0.013688 0.019516 1 1 1.000000
0  32.537735 94.447525 39.350838  0.983775 0.178362 -0.019337  0.013688 0.019516 1 1 1.000000
skin_0
0  32.661610 89.630180 39.956448  0.858219 -0.189944 0.476845  0.013688 0.019516 1 1 1.000000
0  31.959650 96.787384 40.369366  0.825752 0.246416 0.507358  0.013688 0.019516 1 1 1.000000
0  31.877069 96.732323 40.520767  0.548085 0.117038 0.828194  0.013688 0.019516 1 1 1.000000
skin_0
0  31.877069 96.732323 40.520767  0.548085 0.117038 0.828194  0.013688 0.019516 1 1 1.000000
0  32.592789 89.698997 40.107849  0.591070 -0.101591 0.800197  0.013688 0.019516 1 1 1.000000
0  32.661610 89.630180 39.956448  0.858219 -0.189944 0.476845  0.013688 0.019516 1 1 1.000000
skin_0
0  6.854392 100.407272 41.250256  0.039563 0.907761 0.417617  0.013688 0.019516 1 1 1.000000
0  -0.013768 100.489853 41.305309  0.000001 0.907609 0.419817  0.013688 0.019516 1 1 1.000000
0  -0.013768 100.365982 41.566822  -0.000002 0.897344 0.441333  0.013688 0.019516 1 1 1.000000
skin_0
0  -0.013768 100.365982 41.566822  -0.000002 0.897344 0.441333  0.013688 0.019516 1 1 1.000000
0  6.854392 100.283394 41.511765  0.039522 0.897162 0.439931  0.013688 0.019516 1 1 1.000000
0  6.854392 100.407272 41.250256  0.039563 0.907761 0.417617  0.013688 0.019516 1 1 1.000000
skin_0
0  14.039121 99.856720 41.305309  0.081582 0.896189 0.436108  0.013688 0.019516 1 1 1.000000
0  14.039121 99.787903 41.456711  0.066002 0.499001 0.864085  0.013688 0.019516 1 1 1.000000
0  21.017393 99.154762 41.195198  0.094653 0.509202 0.855427  0.013688 0.019516 1 1 1.000000
skin_0
0  21.017393 99.154762 41.195198  0.094653 0.509202 0.855427  0.013688 0.019516 1 1 1.000000
0  21.017393 99.223587 41.043797  0.118993 0.895166 0.429556  0.013688 0.019516 1 1 1.000000
0  14.039121 99.856720 41.305309  0.081582 0.896189 0.436108  0.013688 0.019516 1 1 1.000000
skin_0
0  27.128542 98.411514 40.740986  0.156074 0.889135 0.430210  0.013688 0.019516 1 1 1.000000
0  27.128542 98.342697 40.878628  0.122113 0.510374 0.851239  0.013688 0.019516 1 1 1.000000
0  30.789726 97.737091 40.658401  0.216181 0.502056 0.837380  0.013688 0.019516 1 1 1.000000
skin_0
0  30.789726 97.737091 40.658401  0.216181 0.502056 0.837380  0.013688 0.019516 1 1 1.000000
0  30.886074 97.792145 40.520767  0.319426 0.833953 0.449988  0.013688 0.019516 1 1 1.000000
0  27.128542 98.411514 40.740986  0.156074 0.889135 0.430210  0.013688 0.019516 1 1 1.000000
skin_0
0  6.854392 100.283394 41.511765  0.039522 0.897162 0.439931  0.013688 0.019516 1 1 1.000000
0  6.854392 100.214577 41.663166  0.033363 0.506507 0.861590  0.013688 0.019516 1 1 1.000000
0  14.039121 99.787903 41.456711  0.066002 0.499001 0.864085  0.013688 0.019516 1 1 1.000000
skin_0
0  14.039121 99.787903 41.456711  0.066002 0.499001 0.864085  0.013688 0.019516 1 1 1.000000
0  14.039121 99.856720 41.305309  0.081582 0.896189 0.436108  0.013688 0.019516 1 1 1.000000
0  6.854392 100.283394 41.511765  0.039522 0.897162 0.439931  0.013688 0.019516 1 1 1.000000
skin_0
0  21.017393 99.223587 41.043797  0.118993 0.895166 0.429556  0.013688 0.019516 1 1 1.000000
0  21.017393 99.154762 41.195198  0.094653 0.509202 0.855427  0.013688 0.019516 1 1 1.000000
0  27.128542 98.342697 40.878628  0.122113 0.510374 0.851239  0.013688 0.019516 1 1 1.000000
skin_0
0  27.128542 98.342697 40.878628  0.122113 0.510374 0.851239  0.013688 0.019516 1 1 1.000000
0  27.128542 98.411514 40.740986  0.156074 0.889135 0.430210  0.013688 0.019516 1 1 1.000000
0  21.017393 99.223587 41.043797  0.118993 0.895166 0.429556  0.013688 0.019516 1 1 1.000000
skin_0
0  30.886074 97.792145 40.520767  0.319426 0.833953 0.449988  0.013688 0.019516 1 1 1.000000
0  30.789726 97.737091 40.658401  0.216181 0.502056 0.837380  0.013688 0.019516 1 1 1.000000
0  31.464155 97.379227 40.589584  0.408378 0.350950 0.842651  0.013688 0.019516 1 1 1.000000
skin_0
0  31.464155 97.379227 40.589584  0.408378 0.350950 0.842651  0.013688 0.019516 1 1 1.000000
0  31.546740 97.434280 40.438183  0.614069 0.597906 0.515196  0.013688 0.019516 1 1 1.000000
0  30.886074 97.792145 40.520767  0.319426 0.833953 0.449988  0.013688 0.019516 1 1 1.000000
skin_0
0  31.546740 97.434280 40.438183  0.614069 0.597906 0.515196  0.013688 0.019516 1 1 1.000000
0  31.464155 97.379227 40.589584  0.408378 0.350950 0.842651  0.013688 0.019516 1 1 1.000000
0  31.877069 96.732323 40.520767  0.548085 0.117038 0.828194  0.013688 0.019516 1 1 1.000000
skin_0
0  31.877069 96.732323 40.520767  0.548085 0.117038 0.828194  0.013688 0.019516 1 1 1.000000
0  31.959650 96.787384 40.369366  0.825752 0.246416 0.507358  0.013688 0.019516 1 1 1.000000
0  31.546740 97.434280 40.438183  0.614069 0.597906 0.515196  0.013688 0.019516 1 1 1.000000
skin_0
0  32.289982 89.079628 39.557297  0.188980 -0.964309 0.185459  0.013688 0.019516 1 1 1.000000
0  32.689137 89.217262 39.516006  0.665818 -0.635517 0.390902  0.013688 0.019516 1 1 1.000000
0  32.482677 89.258553 39.942684  0.568229 -0.688227 0.451064  0.013688 0.019516 1 1 1.000000
skin_0
0  32.482677 89.258553 39.942684  0.568229 -0.688227 0.451064  0.013688 0.019516 1 1 1.000000
0  32.083527 89.120918 39.970211  0.103600 -0.949070 0.297544  0.013688 0.019516 1 1 1.000000
0  32.289982 89.079628 39.557297  0.188980 -0.964309 0.185459  0.013688 0.019516 1 1 1.000000
skin_0
0  32.689137 89.217262 39.516006  0.665818 -0.635517 0.390902  0.013688 0.019516 1 1 1.000000
0  32.881832 89.588890 39.502243  0.878085 -0.171673 0.446649  0.013688 0.019516 1 1 1.000000
0  32.661610 89.630180 39.956448  0.858219 -0.189944 0.476845  0.013688 0.019516 1 1 1.000000
skin_0
0  32.661610 89.630180 39.956448  0.858219 -0.189944 0.476845  0.013688 0.019516 1 1 1.000000
0  32.482677 89.258553 39.942684  0.568229 -0.688227 0.451064  0.013688 0.019516 1 1 1.000000
0  32.689137 89.217262 39.516006  0.665818 -0.635517 0.390902  0.013688 0.019516 1 1 1.000000
skin_0
0  31.959650 96.787384 40.369366  0.825752 0.246416 0.507358  0.013688 0.019516 1 1 1.000000
0  32.579025 94.075905 39.543533  0.911844 0.076582 0.403331  0.013688 0.019516 1 1 1.000000
0  32.111057 96.883728 40.039032  0.907438 0.414872 -0.066620  0.013688 0.019516 1 1 1.000000
skin_0
0  28.601274 89.520073 40.424419  -0.084012 -0.992861 -0.084675  0.013688 0.019516 1 1 1.000000
0  32.083527 89.120918 39.970211  0.103600 -0.949070 0.297544  0.013688 0.019516 1 1 1.000000
0  32.000946 89.189735 40.121613  0.091195 -0.596896 0.797119  0.013688 0.019516 1 1 1.000000
skin_0
0  15.897241 98.287643 41.305309  0.035446 -0.024392 0.999074  0.013688 0.019516 1 1 1.000000
0  17.906763 98.081177 41.222725  0.034705 -0.053481 0.997966  0.013688 0.019516 1 1 1.000000
0  18.512371 98.260117 41.208961  0.030662 -0.074571 0.996744  0.013688 0.019516 1 1 1.000000
skin_0
0  18.512371 98.260117 41.208961  0.030662 -0.074571 0.996744  0.013688 0.019516 1 1 1.000000
0  15.332924 98.590446 41.319073  0.028840 -0.072592 0.996945  0.013688 0.019516 1 1 1.000000
0  15.897241 98.287643 41.305309  0.035446 -0.024392 0.999074  0.013688 0.019516 1 1 1.000000
skin_0
0  17.906763 98.081177 41.222725  0.069973 -0.108838 0.991594  0.013688 0.019516 1 1 1.000000
0  17.810417 97.324173 41.140144  0.149732 -0.065282 0.986569  0.013688 0.019516 1 1 1.000000
0  18.512371 98.260117 41.208961  0.033480 -0.096779 0.994743  0.013688 0.019516 1 1 1.000000
skin_0
0  15.897241 98.287643 41.305309  -0.029502 -0.122359 0.992047  0.013688 0.019516 1 1 1.000000
0  15.966060 97.516869 41.208961  -0.054092 -0.083459 0.995042  0.013688 0.019516 1 1 1.000000
0  16.255100 97.888489 41.277782  -0.105481 -0.109907 0.988329  0.013688 0.019516 1 1 1.000000
skin_0
0  27.692858 96.883728 40.823574  -0.041493 -0.148079 0.988105  0.013688 0.019516 1 1 1.000000
0  27.816734 96.099182 40.713459  -0.072742 -0.110064 0.991259  0.013688 0.019516 1 1 1.000000
0  28.050720 96.429527 40.796047  -0.149099 -0.143702 0.978325  0.013688 0.019516 1 1 1.000000
skin_0
0  17.810417 97.324173 41.140144  0.149732 -0.065282 0.986569  0.013688 0.019516 1 1 1.000000
0  27.816734 96.099182 40.713459  -0.072742 -0.110064 0.991259  0.013688 0.019516 1 1 1.000000
0  27.087252 97.200302 40.851101  0.019553 -0.115743 0.993087  0.013688 0.019516 1 1 1.000000
skin_0
0  27.087252 97.200302 40.851101  0.019553 -0.115743 0.993087  0.013688 0.019516 1 1 1.000000
0  18.512371 98.260117 41.208961  0.033480 -0.096779 0.994743  0.013688 0.019516 1 1 1.000000
0  17.810417 97.324173 41.140144  0.149732 -0.065282 0.986569  0.013688 0.019516 1 1 1.000000
skin_0
0  6.840629 99.085945 41.580585  0.013622 -0.071839 0.997323  0.013688 0.019516 1 1 1.000000
0  15.966060 97.516869 41.208961  -0.054092 -0.083459 0.995042  0.013688 0.019516 1 1 1.000000
0  15.332924 98.590446 41.319073  0.016214 -0.101212 0.994733  0.013688 0.019516 1 1 1.000000
skin_0
0  27.692858 96.883728 40.823574  0.051572 -0.021520 0.998437  0.013688 0.019516 1 1 1.000000
0  30.555742 97.626976 40.685932  0.069554 -0.027842 0.997190  0.013688 0.019516 1 1 1.000000
0  27.114779 98.177536 40.878628  0.049957 -0.006830 0.998728  0.013688 0.019516 1 1 1.000000
skin_0
0  27.114779 98.177536 40.878628  0.049957 -0.006830 0.998728  0.013688 0.019516 1 1 1.000000
0  27.087252 97.200302 40.851101  0.037459 -0.026328 0.998951  0.013688 0.019516 1 1 1.000000
0  27.692858 96.883728 40.823574  0.051572 -0.021520 0.998437  0.013688 0.019516 1 1 1.000000
skin_0
0  32.592789 89.698997 40.107849  0.591070 -0.101591 0.800197  0.013688 0.019516 1 1 1.000000
0  32.358807 89.602654 40.121613  0.077491 -0.060791 0.995138  0.013688 0.019516 1 1 1.000000
0  32.413860 89.341148 40.094086  0.388343 -0.437302 0.811145  0.013688 0.019516 1 1 1.000000
skin_0
0  32.413860 89.341148 40.094086  0.388343 -0.437302 0.811145  0.013688 0.019516 1 1 1.000000
0  32.358807 89.602654 40.121613  0.077491 -0.060791 0.995138  0.013688 0.019516 1 1 1.000000
0  32.069763 89.382439 40.135380  0.080224 -0.081260 0.993459  0.013688 0.019516 1 1 1.000000
skin_0
0  32.537735 94.447525 39.350838  -0.167300 -0.596991 -0.784609  0.013688 0.019516 1 1 1.000000
0  28.325994 95.397240 39.529770  -0.045983 -0.532012 -0.845487  0.013688 0.019516 1 1 1.000000
0  32.331280 94.832916 38.882866  -0.203318 -0.805795 -0.556198  0.013688 0.019516 1 1 1.000000
skin_0
0  32.579025 94.075905 39.543533  -0.087960 -0.201821 -0.975465  0.013688 0.019516 1 1 1.000000
0  28.325994 95.397240 39.529770  -0.045983 -0.532012 -0.845487  0.013688 0.019516 1 1 1.000000
0  32.537735 94.447525 39.350838  -0.167300 -0.596991 -0.784609  0.013688 0.019516 1 1 1.000000
skin_0
0  31.877069 95.135719 38.593830  -0.203696 -0.815054 -0.542398  0.013688 0.019516 1 1 1.000000
0  28.325994 95.397240 39.529770  -0.045983 -0.532012 -0.845487  0.013688 0.019516 1 1 1.000000
0  31.298986 95.342186 38.538773  -0.212302 -0.783565 -0.583912  0.013688 0.019516 1 1 1.000000
skin_0
0  32.331280 94.832916 38.882866  -0.203318 -0.805795 -0.556198  0.013688 0.019516 1 1 1.000000
0  28.325994 95.397240 39.529770  -0.045983 -0.532012 -0.845487  0.013688 0.019516 1 1 1.000000
0  31.877069 95.135719 38.593830  -0.203696 -0.815054 -0.542398  0.013688 0.019516 1 1 1.000000
skin_0
0  28.394815 96.085419 38.580063  0.641701 -0.642391 -0.418992  0.013688 0.019516 1 1 1.000000
0  28.325994 95.397240 39.529770  -0.045983 -0.532012 -0.845487  0.013688 0.019516 1 1 1.000000
0  28.367289 95.906494 38.401134  0.991437 -0.127680 -0.027380  0.013688 0.019516 1 1 1.000000
skin_0
0  31.298986 95.342186 38.538773  -0.212302 -0.783565 -0.583912  0.013688 0.019516 1 1 1.000000
0  28.325994 95.397240 39.529770  -0.045983 -0.532012 -0.845487  0.013688 0.019516 1 1 1.000000
0  28.394815 96.085419 38.580063  0.641701 -0.642391 -0.418992  0.013688 0.019516 1 1 1.000000
skin_0
0  28.711384 89.561363 39.942684  0.243163 -0.026370 -0.969627  0.013688 0.019516 1 1 1.000000
0  28.325994 95.397240 39.529770  -0.045983 -0.532012 -0.845487  0.013688 0.019516 1 1 1.000000
0  32.579025 94.075905 39.543533  -0.087960 -0.201821 -0.975465  0.013688 0.019516 1 1 1.000000
skin_0
0  32.579025 94.075905 39.543533  -0.087960 -0.201821 -0.975465  0.013688 0.019516 1 1 1.000000
0  32.689137 89.217262 39.516006  -0.099550 0.010618 -0.994976  0.013688 0.019516 1 1 1.000000
0  28.711384 89.561363 39.942684  0.243163 -0.026370 -0.969627  0.013688 0.019516 1 1 1.000000
skin_0
0  28.339758 89.602654 39.667408  0.604604 -0.018183 -0.796319  0.013688 0.019516 1 1 1.000000
0  28.325994 95.397240 39.529770  -0.045983 -0.532012 -0.845487  0.013688 0.019516 1 1 1.000000
0  28.711384 89.561363 39.942684  0.243163 -0.026370 -0.969627  0.013688 0.019516 1 1 1.000000
skin_0
0  32.689137 89.217262 39.516006  -0.099550 0.010618 -0.994976  0.013688 0.019516 1 1 1.000000
0  32.579025 94.075905 39.543533  -0.087960 -0.201821 -0.975465  0.013688 0.019516 1 1 1.000000
0  32.881832 89.588890 39.502243  -0.079793 0.001763 -0.996810  0.013688 0.019516 1 1 1.000000
skin_0
0  28.711384 89.561363 39.942684  0.243163 -0.026370 -0.969627  0.013688 0.019516 1 1 1.000000
0  32.689137 89.217262 39.516006  -0.099550 0.010618 -0.994976  0.013688 0.019516 1 1 1.000000
0  32.289982 89.079628 39.557297  -0.100993 0.055902 -0.993315  0.013688 0.019516 1 1 1.000000
skin_0
0  -6.868165 99.085945 41.580585  -0.017675 -0.070805 0.997334  0.013688 0.019516 1 1 1.000000
0  -8.616173 91.488297 40.974976  -0.022463 -0.072893 0.997087  0.013688 0.019516 1 1 1.000000
0  -0.013768 91.749817 41.140144  0.001939 -0.070284 0.997525  0.013688 0.019516 1 1 1.000000
skin_0
0  -0.013768 91.749817 41.140144  0.001939 -0.070284 0.997525  0.013688 0.019516 1 1 1.000000
0  -0.013768 99.182289 41.649403  0.001326 -0.068714 0.997635  0.013688 0.019516 1 1 1.000000
0  -6.868165 99.085945 41.580585  -0.017675 -0.070805 0.997334  0.013688 0.019516 1 1 1.000000
skin_0
0  -0.013768 99.182289 41.649403  0.001326 -0.068714 0.997635  0.013688 0.019516 1 1 1.000000
0  -0.013768 91.749817 41.140144  0.001939 -0.070284 0.997525  0.013688 0.019516 1 1 1.000000
0  8.588637 91.488297 40.974976  0.019294 -0.073454 0.997112  0.013688 0.019516 1 1 1.000000
skin_0
0  8.588637 91.488297 40.974976  0.019294 -0.073454 0.997112  0.013688 0.019516 1 1 1.000000
0  6.840629 99.085945 41.580585  0.013622 -0.071839 0.997323  0.013688 0.019516 1 1 1.000000
0  -0.013768 99.182289 41.649403  0.001326 -0.068714 0.997635  0.013688 0.019516 1 1 1.000000
skin_0
0  -15.993597 97.516869 41.208961  0.054928 -0.084189 0.994935  0.013688 0.019516 1 1 1.000000
0  -16.089943 90.896454 40.754753  -0.024763 -0.068130 0.997369  0.013688 0.019516 1 1 1.000000
0  -8.616173 91.488297 40.974976  -0.022463 -0.072893 0.997087  0.013688 0.019516 1 1 1.000000
skin_0
0  -8.616173 91.488297 40.974976  -0.022463 -0.072893 0.997087  0.013688 0.019516 1 1 1.000000
0  -6.868165 99.085945 41.580585  -0.017675 -0.070805 0.997334  0.013688 0.019516 1 1 1.000000
0  -15.993597 97.516869 41.208961  0.054928 -0.084189 0.994935  0.013688 0.019516 1 1 1.000000
skin_0
0  6.840629 99.085945 41.580585  0.013622 -0.071839 0.997323  0.013688 0.019516 1 1 1.000000
0  8.588637 91.488297 40.974976  0.019294 -0.073454 0.997112  0.013688 0.019516 1 1 1.000000
0  16.062408 90.896454 40.754753  0.027015 -0.070765 0.997127  0.013688 0.019516 1 1 1.000000
skin_0
0  16.062408 90.896454 40.754753  0.027015 -0.070765 0.997127  0.013688 0.019516 1 1 1.000000
0  15.966060 97.516869 41.208961  -0.054092 -0.083459 0.995042  0.013688 0.019516 1 1 1.000000
0  6.840629 99.085945 41.580585  0.013622 -0.071839 0.997323  0.013688 0.019516 1 1 1.000000
skin_0
0  -10.763334 98.576683 39.048038  -0.030673 0.785437 -0.618181  0.013688 0.019516 1 1 1.000000
0  -6.881928 100.407272 41.250256  -0.021612 0.792001 -0.610137  0.013688 0.019516 1 1 1.000000
0  -6.069862 99.430038 39.983978  -0.041814 0.770253 -0.636366  0.013688 0.019516 1 1 1.000000
skin_0
0  -6.069862 99.430038 39.983978  -0.041814 0.770253 -0.636366  0.013688 0.019516 1 1 1.000000
0  -5.945987 98.700554 39.130619  0.396144 0.692033 -0.603456  0.013688 0.019516 1 1 1.000000
0  -10.763334 98.576683 39.048038  -0.030673 0.785437 -0.618181  0.013688 0.019516 1 1 1.000000
skin_0
0  -0.013768 99.801666 40.314312  -0.001553 0.821190 -0.570653  0.013688 0.019516 1 1 1.000000
0  -0.013768 99.719086 40.190437  -0.000299 0.621947 -0.783059  0.013688 0.019516 1 1 1.000000
0  -5.629418 99.608963 40.149147  0.033039 0.670336 -0.741322  0.013688 0.019516 1 1 1.000000
skin_0
0  -5.629418 99.608963 40.149147  0.033039 0.670336 -0.741322  0.013688 0.019516 1 1 1.000000
0  -5.698238 99.691559 40.259258  -0.032051 0.794164 -0.606858  0.013688 0.019516 1 1 1.000000
0  -0.013768 99.801666 40.314312  -0.001553 0.821190 -0.570653  0.013688 0.019516 1 1 1.000000
skin_0
0  -5.945987 99.374985 39.901394  0.131656 0.675300 -0.725697  0.013688 0.019516 1 1 1.000000
0  -6.069862 99.430038 39.983978  -0.041814 0.770253 -0.636366  0.013688 0.019516 1 1 1.000000
0  -5.698238 99.691559 40.259258  -0.032051 0.794164 -0.606858  0.013688 0.019516 1 1 1.000000
skin_0
0  -5.698238 99.691559 40.259258  -0.032051 0.794164 -0.606858  0.013688 0.019516 1 1 1.000000
0  -5.629418 99.608963 40.149147  0.033039 0.670336 -0.741322  0.013688 0.019516 1 1 1.000000
0  -5.945987 99.374985 39.901394  0.131656 0.675300 -0.725697  0.013688 0.019516 1 1 1.000000
skin_0
0  6.042325 99.430038 39.983978  0.043602 0.769965 -0.636595  0.013688 0.019516 1 1 1.000000
0  6.854392 100.407272 41.250256  0.022726 0.792177 -0.609868  0.013688 0.019516 1 1 1.000000
0  10.735797 98.576683 39.048038  0.031181 0.785703 -0.617817  0.013688 0.019516 1 1 1.000000
skin_0
0  10.735797 98.576683 39.048038  0.031181 0.785703 -0.617817  0.013688 0.019516 1 1 1.000000
0  5.918451 98.700554 39.130619  -0.396205 0.691937 -0.603527  0.013688 0.019516 1 1 1.000000
0  6.042325 99.430038 39.983978  0.043602 0.769965 -0.636595  0.013688 0.019516 1 1 1.000000
skin_0
0  5.670702 99.691559 40.259258  0.033582 0.793299 -0.607906  0.013688 0.019516 1 1 1.000000
0  5.601882 99.608963 40.149147  -0.036371 0.669570 -0.741858  0.013688 0.019516 1 1 1.000000
0  -0.013768 99.719086 40.190437  -0.000299 0.621947 -0.783059  0.013688 0.019516 1 1 1.000000
skin_0
0  -0.013768 99.719086 40.190437  -0.000299 0.621947 -0.783059  0.013688 0.019516 1 1 1.000000
0  -0.013768 99.801666 40.314312  -0.001553 0.821190 -0.570653  0.013688 0.019516 1 1 1.000000
0  5.670702 99.691559 40.259258  0.033582 0.793299 -0.607906  0.013688 0.019516 1 1 1.000000
skin_0
0  6.042325 99.430038 39.983978  0.043602 0.769965 -0.636595  0.013688 0.019516 1 1 1.000000
0  5.918451 99.374985 39.901394  -0.133298 0.673308 -0.727246  0.013688 0.019516 1 1 1.000000
0  5.601882 99.608963 40.149147  -0.036371 0.669570 -0.741858  0.013688 0.019516 1 1 1.000000
skin_0
0  5.601882 99.608963 40.149147  -0.036371 0.669570 -0.741858  0.013688 0.019516 1 1 1.000000
0  5.670702 99.691559 40.259258  0.033582 0.793299 -0.607906  0.013688 0.019516 1 1 1.000000
0  6.042325 99.430038 39.983978  0.043602 0.769965 -0.636595  0.013688 0.019516 1 1 1.000000
skin_0
0  -0.013768 99.540146 40.121616  -0.000006 0.361644 -0.932316  0.013688 0.019516 1 1 1.000000
0  -0.013768 98.590446 39.749992  -0.000428 0.362466 -0.931997  0.013688 0.019516 1 1 1.000000
0  -5.202739 98.480331 39.708702  0.141435 0.400331 -0.905390  0.013688 0.019516 1 1 1.000000
skin_0
0  -5.202739 98.480331 39.708702  0.141435 0.400331 -0.905390  0.013688 0.019516 1 1 1.000000
0  -5.560599 99.430038 40.080326  0.170887 0.409293 -0.896257  0.013688 0.019516 1 1 1.000000
0  -0.013768 99.540146 40.121616  -0.000006 0.361644 -0.932316  0.013688 0.019516 1 1 1.000000
skin_0
0  -5.560599 99.430038 40.080326  0.170887 0.409293 -0.896257  0.013688 0.019516 1 1 1.000000
0  -5.202739 98.480331 39.708702  0.141435 0.400331 -0.905390  0.013688 0.019516 1 1 1.000000
0  -5.698238 98.535385 39.529774  0.603752 0.455709 -0.654074  0.013688 0.019516 1 1 1.000000
skin_0
0  -5.698238 98.535385 39.529774  0.603752 0.455709 -0.654074  0.013688 0.019516 1 1 1.000000
0  -5.890932 99.196053 39.818813  0.624797 0.456462 -0.633460  0.013688 0.019516 1 1 1.000000
0  -5.560599 99.430038 40.080326  0.170887 0.409293 -0.896257  0.013688 0.019516 1 1 1.000000
skin_0
0  5.533062 99.430038 40.080326  -0.168764 0.408372 -0.897079  0.013688 0.019516 1 1 1.000000
0  5.175203 98.480331 39.708702  -0.138942 0.401265 -0.905363  0.013688 0.019516 1 1 1.000000
0  -0.013768 98.590446 39.749992  -0.000428 0.362466 -0.931997  0.013688 0.019516 1 1 1.000000
skin_0
0  -0.013768 98.590446 39.749992  -0.000428 0.362466 -0.931997  0.013688 0.019516 1 1 1.000000
0  -0.013768 99.540146 40.121616  -0.000006 0.361644 -0.932316  0.013688 0.019516 1 1 1.000000
0  5.533062 99.430038 40.080326  -0.168764 0.408372 -0.897079  0.013688 0.019516 1 1 1.000000
skin_0
0  5.863395 99.196053 39.818813  -0.627748 0.454495 -0.631954  0.013688 0.019516 1 1 1.000000
0  5.670702 98.535385 39.529774  -0.605486 0.458807 -0.650294  0.013688 0.019516 1 1 1.000000
0  5.175203 98.480331 39.708702  -0.138942 0.401265 -0.905363  0.013688 0.019516 1 1 1.000000
skin_0
0  5.175203 98.480331 39.708702  -0.138942 0.401265 -0.905363  0.013688 0.019516 1 1 1.000000
0  5.533062 99.430038 40.080326  -0.168764 0.408372 -0.897079  0.013688 0.019516 1 1 1.000000
0  5.863395 99.196053 39.818813  -0.627748 0.454495 -0.631954  0.013688 0.019516 1 1 1.000000
skin_0
0  -5.945987 98.700554 39.130619  0.396144 0.692033 -0.603456  0.013688 0.019516 1 1 1.000000
0  -5.945987 99.374985 39.901394  0.131656 0.675300 -0.725697  0.013688 0.019516 1 1 1.000000
0  -5.890932 99.196053 39.818813  0.624797 0.456462 -0.633460  0.013688 0.019516 1 1 1.000000
skin_0
0  5.918451 98.700554 39.130619  -0.396205 0.691937 -0.603527  0.013688 0.019516 1 1 1.000000
0  5.670702 98.535385 39.529774  -0.605486 0.458807 -0.650294  0.013688 0.019516 1 1 1.000000
0  5.863395 99.196053 39.818813  -0.627748 0.454495 -0.631954  0.013688 0.019516 1 1 1.000000
skin_0
0  -17.617729 91.474533 41.043797  -0.024131 -0.117303 0.992803  0.013688 0.019516 1 1 1.000000
0  -17.672785 91.061630 40.961212  0.014102 -0.481803 0.876166  0.013688 0.019516 1 1 1.000000
0  -16.323929 91.185501 41.002502  0.013054 -0.462352 0.886600  0.013688 0.019516 1 1 1.000000
skin_0
0  -16.323929 91.185501 41.002502  0.013054 -0.462352 0.886600  0.013688 0.019516 1 1 1.000000
0  -16.406511 91.598412 41.085087  -0.025784 -0.110466 0.993545  0.013688 0.019516 1 1 1.000000
0  -17.617729 91.474533 41.043797  -0.024131 -0.117303 0.992803  0.013688 0.019516 1 1 1.000000
skin_0
0  16.296392 91.185501 41.002502  -0.013162 -0.462450 0.886548  0.013688 0.019516 1 1 1.000000
0  17.645250 91.061630 40.961212  -0.014137 -0.481803 0.876165  0.013688 0.019516 1 1 1.000000
0  17.590195 91.474533 41.043797  0.024200 -0.117233 0.992810  0.013688 0.019516 1 1 1.000000
skin_0
0  17.590195 91.474533 41.043797  0.024200 -0.117233 0.992810  0.013688 0.019516 1 1 1.000000
0  16.378977 91.598412 41.085087  0.025790 -0.110470 0.993545  0.013688 0.019516 1 1 1.000000
0  16.296392 91.185501 41.002502  -0.013162 -0.462450 0.886548  0.013688 0.019516 1 1 1.000000
end
