version 1
nodes
0 "blender_implicit" -1
1 "root" -1
2 "steering_wheel" 1
end
skeleton
time 0
0  0.000000 0.000000 0.000000  0.000000 -0.000000 0.000000
1  0.000000 0.000000 0.000000  1.570796 -0.000000 0.000000
2  18.487606 30.459389 10.889965  0.000000 -0.000000 0.000000
end
triangles
skin_0
0  -32.689144 89.570900 41.035263  -0.858227 -0.230774 0.458464  0.013688 0.019516 1 1 1.000000
0  -31.987190 96.664879 42.070404  -0.825753 0.201257 0.526903  0.013688 0.019516 1 1 1.000000
0  -32.606560 94.035698 41.011391  -0.911926 0.041165 0.408286  0.013688 0.019516 1 1 1.000000
skin_0
0  -32.606560 94.035698 41.011391  -0.911926 0.041165 0.408286  0.013688 0.019516 1 1 1.000000
0  -32.909367 89.569359 40.579189  -0.878132 -0.210028 0.429851  0.013688 0.019516 1 1 1.000000
0  -32.689144 89.570900 41.035263  -0.858227 -0.230774 0.458464  0.013688 0.019516 1 1 1.000000
skin_0
0  -0.013768 91.624207 42.043884  -0.000092 -0.993280 -0.115733  0.013688 0.019516 1 1 1.000000
0  -0.013768 91.579308 42.399185  -0.000092 -0.993282 -0.115715  0.013688 0.019516 1 1 1.000000
0  -8.616173 91.333176 42.211853  0.054873 -0.992260 -0.111400  0.013688 0.019516 1 1 1.000000
skin_0
0  -8.616173 91.333176 42.211853  0.054873 -0.992260 -0.111400  0.013688 0.019516 1 1 1.000000
0  -8.616173 91.364365 41.855354  0.055613 -0.992253 -0.111091  0.013688 0.019516 1 1 1.000000
0  -0.013768 91.624207 42.043884  -0.000092 -0.993280 -0.115733  0.013688 0.019516 1 1 1.000000
skin_0
0  -6.881928 99.966270 43.657970  -0.033440 0.429503 0.902446  0.013688 0.019516 1 1 1.000000
0  -0.013768 100.031227 43.705109  0.000008 0.428537 0.903524  0.013688 0.019516 1 1 1.000000
0  -0.013768 100.125496 43.575188  -0.000003 0.855474 0.517847  0.013688 0.019516 1 1 1.000000
skin_0
0  -0.013768 100.125496 43.575188  -0.000003 0.855474 0.517847  0.013688 0.019516 1 1 1.000000
0  -6.881928 100.048027 43.513145  -0.039603 0.855321 0.516582  0.013688 0.019516 1 1 1.000000
0  -6.881928 99.966270 43.657970  -0.033440 0.429503 0.902446  0.013688 0.019516 1 1 1.000000
skin_0
0  -5.945987 98.678734 41.003105  0.396131 0.741903 -0.540980  0.013688 0.019516 1 1 1.000000
0  -6.069862 99.331070 41.916798  -0.041817 0.822780 -0.566819  0.013688 0.019516 1 1 1.000000
0  -5.945987 99.283424 41.829727  0.131609 0.735977 -0.664091  0.013688 0.019516 1 1 1.000000
skin_0
0  -5.560599 99.322670 42.012779  0.170881 0.485756 -0.857228  0.013688 0.019516 1 1 1.000000
0  -5.629418 99.494919 42.096931  0.033045 0.732410 -0.680062  0.013688 0.019516 1 1 1.000000
0  -0.013768 99.601021 42.147663  -0.000300 0.687880 -0.725824  0.013688 0.019516 1 1 1.000000
skin_0
0  -0.013768 99.601021 42.147663  -0.000300 0.687880 -0.725824  0.013688 0.019516 1 1 1.000000
0  -0.013768 99.428764 42.063507  -0.000005 0.441531 -0.897246  0.013688 0.019516 1 1 1.000000
0  -5.560599 99.322670 42.012779  0.170881 0.485756 -0.857228  0.013688 0.019516 1 1 1.000000
skin_0
0  -5.945987 98.678734 41.003105  0.396131 0.741903 -0.540980  0.013688 0.019516 1 1 1.000000
0  -5.890932 99.112373 41.731865  0.624789 0.509940 -0.591269  0.013688 0.019516 1 1 1.000000
0  -5.698238 98.479408 41.386345  0.603671 0.510848 -0.612059  0.013688 0.019516 1 1 1.000000
skin_0
0  -5.890932 99.112373 41.731865  0.624789 0.509940 -0.591269  0.013688 0.019516 1 1 1.000000
0  -5.945987 99.283424 41.829727  0.131609 0.735977 -0.664091  0.013688 0.019516 1 1 1.000000
0  -5.629418 99.494919 42.096931  0.033045 0.732410 -0.680062  0.013688 0.019516 1 1 1.000000
skin_0
0  -5.629418 99.494919 42.096931  0.033045 0.732410 -0.680062  0.013688 0.019516 1 1 1.000000
0  -5.560599 99.322670 42.012779  0.170881 0.485756 -0.857228  0.013688 0.019516 1 1 1.000000
0  -5.890932 99.112373 41.731865  0.624789 0.509940 -0.591269  0.013688 0.019516 1 1 1.000000
skin_0
0  -21.044928 99.033035 42.954590  -0.119048 0.854309 0.505948  0.013688 0.019516 1 1 1.000000
0  -14.066657 99.640968 43.270287  -0.081634 0.854785 0.512521  0.013688 0.019516 1 1 1.000000
0  -14.066657 99.788368 43.006855  -0.081837 0.868923 0.488135  0.013688 0.019516 1 1 1.000000
skin_0
0  -14.066657 99.788368 43.006855  -0.081837 0.868923 0.488135  0.013688 0.019516 1 1 1.000000
0  -21.044928 99.180428 42.691151  -0.119237 0.870543 0.477429  0.013688 0.019516 1 1 1.000000
0  -21.044928 99.033035 42.954590  -0.119048 0.854309 0.505948  0.013688 0.019516 1 1 1.000000
skin_0
0  -17.094706 98.017151 40.668896  -0.055641 0.815836 -0.575600  0.013688 0.019516 1 1 1.000000
0  -21.044928 99.180428 42.691151  -0.072215 0.786326 -0.613576  0.013688 0.019516 1 1 1.000000
0  -14.066657 99.788368 43.006855  -0.044258 0.829476 -0.556785  0.013688 0.019516 1 1 1.000000
skin_0
0  -31.698147 96.485947 42.220543  -0.086164 -0.136869 0.986835  0.013688 0.019516 1 1 1.000000
0  -28.078255 96.271202 42.464272  -0.066064 -0.124738 0.989988  0.013688 0.019516 1 1 1.000000
0  -31.271467 97.096970 42.343082  -0.083282 -0.143398 0.986155  0.013688 0.019516 1 1 1.000000
skin_0
0  -30.913609 97.652626 42.308800  -0.319476 0.791559 0.520932  0.013688 0.019516 1 1 1.000000
0  -27.156076 98.250443 42.582161  -0.156134 0.848248 0.506061  0.013688 0.019516 1 1 1.000000
0  -27.156076 98.399033 42.305016  -0.157553 0.874182 0.459329  0.013688 0.019516 1 1 1.000000
skin_0
0  -27.156076 98.399033 42.305016  -0.157553 0.874182 0.459329  0.013688 0.019516 1 1 1.000000
0  -31.051245 97.776192 42.001831  -0.359042 0.792756 0.492573  0.013688 0.019516 1 1 1.000000
0  -30.913609 97.652626 42.308800  -0.319476 0.791559 0.520932  0.013688 0.019516 1 1 1.000000
skin_0
0  -31.904604 95.174248 40.157669  -0.510057 0.542347 -0.667608  0.013688 0.019516 1 1 1.000000
0  -32.358814 94.847412 40.419216  -0.854814 0.355320 -0.378207  0.013688 0.019516 1 1 1.000000
0  -32.138592 96.789650 41.749722  -0.907465 0.419035 -0.030297  0.013688 0.019516 1 1 1.000000
skin_0
0  -32.138592 96.789650 41.749722  -0.907465 0.419035 -0.030297  0.013688 0.019516 1 1 1.000000
0  -31.725674 97.426895 41.888371  -0.298131 0.607913 -0.735907  0.013688 0.019516 1 1 1.000000
0  -31.904604 95.174248 40.157669  -0.510057 0.542347 -0.667608  0.013688 0.019516 1 1 1.000000
skin_0
0  -6.881928 100.194221 43.263428  -0.021648 0.842119 -0.538858  0.013688 0.019516 1 1 1.000000
0  -10.763334 98.562538 40.910042  -0.031315 0.836594 -0.546928  0.013688 0.019516 1 1 1.000000
0  -14.066657 99.788368 43.006855  -0.044258 0.829476 -0.556785  0.013688 0.019516 1 1 1.000000
skin_0
0  -27.156076 98.399033 42.305016  -0.083087 0.715717 -0.693430  0.013688 0.019516 1 1 1.000000
0  -21.044928 99.180428 42.691151  -0.072215 0.786326 -0.613576  0.013688 0.019516 1 1 1.000000
0  -23.756407 97.009186 40.345837  -0.079577 0.754925 -0.650965  0.013688 0.019516 1 1 1.000000
skin_0
0  -14.066657 99.640968 43.270287  -0.081634 0.854785 0.512521  0.013688 0.019516 1 1 1.000000
0  -6.881928 100.048027 43.513145  -0.039603 0.855321 0.516582  0.013688 0.019516 1 1 1.000000
0  -6.881928 100.194221 43.263428  -0.039653 0.867875 0.495197  0.013688 0.019516 1 1 1.000000
skin_0
0  -6.881928 100.194221 43.263428  -0.039653 0.867875 0.495197  0.013688 0.019516 1 1 1.000000
0  -14.066657 99.788368 43.006855  -0.081837 0.868923 0.488135  0.013688 0.019516 1 1 1.000000
0  -14.066657 99.640968 43.270287  -0.081634 0.854785 0.512521  0.013688 0.019516 1 1 1.000000
skin_0
0  -27.156076 98.250443 42.582161  -0.156134 0.848248 0.506061  0.013688 0.019516 1 1 1.000000
0  -21.044928 99.033035 42.954590  -0.119048 0.854309 0.505948  0.013688 0.019516 1 1 1.000000
0  -21.044928 99.180428 42.691151  -0.119237 0.870543 0.477429  0.013688 0.019516 1 1 1.000000
skin_0
0  -21.044928 99.180428 42.691151  -0.119237 0.870543 0.477429  0.013688 0.019516 1 1 1.000000
0  -27.156076 98.399033 42.305016  -0.157553 0.874182 0.459329  0.013688 0.019516 1 1 1.000000
0  -27.156076 98.250443 42.582161  -0.156134 0.848248 0.506061  0.013688 0.019516 1 1 1.000000
skin_0
0  -5.698238 99.567604 42.213821  -0.032044 0.844044 -0.535316  0.013688 0.019516 1 1 1.000000
0  -6.881928 100.194221 43.263428  -0.021648 0.842119 -0.538858  0.013688 0.019516 1 1 1.000000
0  -0.013768 100.271690 43.325470  -0.002170 0.867162 -0.498022  0.013688 0.019516 1 1 1.000000
skin_0
0  -0.013768 100.271690 43.325470  -0.002170 0.867162 -0.498022  0.013688 0.019516 1 1 1.000000
0  -0.013768 99.672493 42.278263  -0.001553 0.867809 -0.496896  0.013688 0.019516 1 1 1.000000
0  -5.698238 99.567604 42.213821  -0.032044 0.844044 -0.535316  0.013688 0.019516 1 1 1.000000
skin_0
0  -6.881928 100.194221 43.263428  -0.021648 0.842119 -0.538858  0.013688 0.019516 1 1 1.000000
0  -5.698238 99.567604 42.213821  -0.032044 0.844044 -0.535316  0.013688 0.019516 1 1 1.000000
0  -6.069862 99.331070 41.916798  -0.041817 0.822780 -0.566819  0.013688 0.019516 1 1 1.000000
skin_0
0  -17.672785 90.909332 42.160957  0.014106 -0.556333 0.830839  0.013688 0.019516 1 1 1.000000
0  -17.893007 90.591736 41.843021  0.031920 -0.709432 0.704050  0.013688 0.019516 1 1 1.000000
0  -16.089943 90.762779 41.940887  0.033569 -0.703469 0.709933  0.013688 0.019516 1 1 1.000000
skin_0
0  -16.089943 90.762779 41.940887  0.033569 -0.703469 0.709933  0.013688 0.019516 1 1 1.000000
0  -16.323929 91.029137 42.212887  0.013052 -0.537866 0.842929  0.013688 0.019516 1 1 1.000000
0  -17.672785 90.909332 42.160957  0.014106 -0.556333 0.830839  0.013688 0.019516 1 1 1.000000
skin_0
0  -17.576439 97.536598 43.003281  -0.034551 -0.105716 0.993796  0.013688 0.019516 1 1 1.000000
0  -17.617729 91.313469 42.279213  -0.024162 -0.203344 0.978809  0.013688 0.019516 1 1 1.000000
0  -16.406511 91.433281 42.331142  -0.025713 -0.196700 0.980127  0.013688 0.019516 1 1 1.000000
skin_0
0  -16.406511 91.433281 42.331142  -0.025713 -0.196700 0.980127  0.013688 0.019516 1 1 1.000000
0  -16.282637 97.682625 43.071323  -0.035999 -0.116307 0.992561  0.013688 0.019516 1 1 1.000000
0  -17.576439 97.536598 43.003281  -0.034551 -0.105716 0.993796  0.013688 0.019516 1 1 1.000000
skin_0
0  -14.066657 99.788368 43.006855  -0.044258 0.829476 -0.556785  0.013688 0.019516 1 1 1.000000
0  -10.763334 98.562538 40.910042  -0.031315 0.836594 -0.546928  0.013688 0.019516 1 1 1.000000
0  -17.094706 98.017151 40.668896  -0.055641 0.815836 -0.575600  0.013688 0.019516 1 1 1.000000
skin_0
0  -17.094706 98.017151 40.668896  -0.055641 0.815836 -0.575600  0.013688 0.019516 1 1 1.000000
0  -23.756407 97.009186 40.345837  -0.079577 0.754925 -0.650965  0.013688 0.019516 1 1 1.000000
0  -21.044928 99.180428 42.691151  -0.072215 0.786326 -0.613576  0.013688 0.019516 1 1 1.000000
skin_0
0  -32.138592 96.789650 41.749722  -0.907465 0.419035 -0.030297  0.013688 0.019516 1 1 1.000000
0  -32.358814 94.847412 40.419216  -0.854814 0.355320 -0.378207  0.013688 0.019516 1 1 1.000000
0  -32.565269 94.422699 40.851818  -0.983855 0.178921 -0.004129  0.013688 0.019516 1 1 1.000000
skin_0
0  -23.756407 97.009186 40.345837  -0.079577 0.754925 -0.650965  0.013688 0.019516 1 1 1.000000
0  -28.394823 95.958885 40.032887  -0.126015 0.744850 -0.655225  0.013688 0.019516 1 1 1.000000
0  -28.422350 96.121536 40.226727  -0.107215 0.700275 -0.705776  0.013688 0.019516 1 1 1.000000
skin_0
0  -27.156076 98.399033 42.305016  -0.083087 0.715717 -0.693430  0.013688 0.019516 1 1 1.000000
0  -23.756407 97.009186 40.345837  -0.079577 0.754925 -0.650965  0.013688 0.019516 1 1 1.000000
0  -28.422350 96.121536 40.226727  -0.107215 0.700275 -0.705776  0.013688 0.019516 1 1 1.000000
skin_0
0  -31.574274 97.303322 42.195339  -0.614102 0.550697 0.565342  0.013688 0.019516 1 1 1.000000
0  -30.913609 97.652626 42.308800  -0.319476 0.791559 0.520932  0.013688 0.019516 1 1 1.000000
0  -31.051245 97.776192 42.001831  -0.359042 0.792756 0.492573  0.013688 0.019516 1 1 1.000000
skin_0
0  -31.051245 97.776192 42.001831  -0.359042 0.792756 0.492573  0.013688 0.019516 1 1 1.000000
0  -31.725674 97.426895 41.888371  -0.650281 0.544269 0.530006  0.013688 0.019516 1 1 1.000000
0  -31.574274 97.303322 42.195339  -0.614102 0.550697 0.565342  0.013688 0.019516 1 1 1.000000
skin_0
0  -31.987190 96.664879 42.070404  -0.825753 0.201257 0.526903  0.013688 0.019516 1 1 1.000000
0  -31.574274 97.303322 42.195339  -0.614102 0.550697 0.565342  0.013688 0.019516 1 1 1.000000
0  -31.725674 97.426895 41.888371  -0.650281 0.544269 0.530006  0.013688 0.019516 1 1 1.000000
skin_0
0  -31.725674 97.426895 41.888371  -0.650281 0.544269 0.530006  0.013688 0.019516 1 1 1.000000
0  -32.138592 96.789650 41.749722  -0.907465 0.419035 -0.030297  0.013688 0.019516 1 1 1.000000
0  -31.987190 96.664879 42.070404  -0.825753 0.201257 0.526903  0.013688 0.019516 1 1 1.000000
skin_0
0  -31.051245 97.776192 42.001831  -0.128610 0.646526 -0.751973  0.013688 0.019516 1 1 1.000000
0  -28.422350 96.121536 40.226727  -0.107215 0.700275 -0.705776  0.013688 0.019516 1 1 1.000000
0  -31.326525 95.384727 40.120819  -0.206230 0.614769 -0.761267  0.013688 0.019516 1 1 1.000000
skin_0
0  -31.051245 97.776192 42.001831  -0.128610 0.646526 -0.751973  0.013688 0.019516 1 1 1.000000
0  -27.156076 98.399033 42.305016  -0.083087 0.715717 -0.693430  0.013688 0.019516 1 1 1.000000
0  -28.422350 96.121536 40.226727  -0.107215 0.700275 -0.705776  0.013688 0.019516 1 1 1.000000
skin_0
0  -31.725674 97.426895 41.888371  -0.298131 0.607913 -0.735907  0.013688 0.019516 1 1 1.000000
0  -31.051245 97.776192 42.001831  -0.128610 0.646526 -0.751973  0.013688 0.019516 1 1 1.000000
0  -31.326525 95.384727 40.120819  -0.206230 0.614769 -0.761267  0.013688 0.019516 1 1 1.000000
skin_0
0  -31.326525 95.384727 40.120819  -0.206230 0.614769 -0.761267  0.013688 0.019516 1 1 1.000000
0  -31.904604 95.174248 40.157669  -0.510057 0.542347 -0.667608  0.013688 0.019516 1 1 1.000000
0  -31.725674 97.426895 41.888371  -0.298131 0.607913 -0.735907  0.013688 0.019516 1 1 1.000000
skin_0
0  -32.441395 89.270973 41.147186  -0.388338 -0.506282 0.769982  0.013688 0.019516 1 1 1.000000
0  -32.510212 89.201889 40.989162  -0.568192 -0.724951 0.389365  0.013688 0.019516 1 1 1.000000
0  -32.111065 89.062378 41.004589  -0.103602 -0.971396 0.213673  0.013688 0.019516 1 1 1.000000
skin_0
0  -32.111065 89.062378 41.004589  -0.103602 -0.971396 0.213673  0.013688 0.019516 1 1 1.000000
0  -32.028481 89.117737 41.161411  -0.091153 -0.664064 0.742098  0.013688 0.019516 1 1 1.000000
0  -32.441395 89.270973 41.147186  -0.388338 -0.506282 0.769982  0.013688 0.019516 1 1 1.000000
skin_0
0  -32.510212 89.201889 40.989162  -0.568192 -0.724951 0.389365  0.013688 0.019516 1 1 1.000000
0  -32.441395 89.270973 41.147186  -0.388338 -0.506282 0.769982  0.013688 0.019516 1 1 1.000000
0  -32.620323 89.626259 41.192085  -0.591094 -0.170930 0.788284  0.013688 0.019516 1 1 1.000000
skin_0
0  -32.620323 89.626259 41.192085  -0.591094 -0.170930 0.788284  0.013688 0.019516 1 1 1.000000
0  -32.689144 89.570900 41.035263  -0.858227 -0.230774 0.458464  0.013688 0.019516 1 1 1.000000
0  -32.510212 89.201889 40.989162  -0.568192 -0.724951 0.389365  0.013688 0.019516 1 1 1.000000
skin_0
0  -0.013768 98.939110 43.554291  0.001346 -0.154925 0.987925  0.013688 0.019516 1 1 1.000000
0  -0.013768 99.852982 43.689514  0.000152 -0.136319 0.990665  0.013688 0.019516 1 1 1.000000
0  -6.881928 99.789230 43.628666  -0.016446 -0.139829 0.990039  0.013688 0.019516 1 1 1.000000
skin_0
0  -6.881928 99.789230 43.628666  -0.016446 -0.139829 0.990039  0.013688 0.019516 1 1 1.000000
0  -6.868165 98.849136 43.477337  -0.017675 -0.157459 0.987367  0.013688 0.019516 1 1 1.000000
0  -0.013768 98.939110 43.554291  0.001346 -0.154925 0.987925  0.013688 0.019516 1 1 1.000000
skin_0
0  -6.868165 98.849136 43.477337  -0.017675 -0.157459 0.987367  0.013688 0.019516 1 1 1.000000
0  -6.881928 99.789230 43.628666  -0.016446 -0.139829 0.990039  0.013688 0.019516 1 1 1.000000
0  -14.025367 99.368446 43.384609  -0.027681 -0.151294 0.988101  0.013688 0.019516 1 1 1.000000
skin_0
0  -14.025367 99.368446 43.384609  -0.027681 -0.151294 0.988101  0.013688 0.019516 1 1 1.000000
0  -15.360460 98.378311 43.173634  -0.029198 -0.159117 0.986828  0.013688 0.019516 1 1 1.000000
0  -6.868165 98.849136 43.477337  -0.017675 -0.157459 0.987367  0.013688 0.019516 1 1 1.000000
skin_0
0  -15.360460 98.378311 43.173634  -0.029198 -0.159117 0.986828  0.013688 0.019516 1 1 1.000000
0  -14.025367 99.368446 43.384609  -0.027681 -0.151294 0.988101  0.013688 0.019516 1 1 1.000000
0  -21.044928 98.786743 43.085022  -0.039037 -0.147431 0.988302  0.013688 0.019516 1 1 1.000000
skin_0
0  -21.044928 98.786743 43.085022  -0.039037 -0.147431 0.988302  0.013688 0.019516 1 1 1.000000
0  -18.539907 98.058838 43.035152  -0.030616 -0.160977 0.986483  0.013688 0.019516 1 1 1.000000
0  -15.360460 98.378311 43.173634  -0.029198 -0.159117 0.986828  0.013688 0.019516 1 1 1.000000
skin_0
0  -18.539907 98.058838 43.035152  -0.030616 -0.160977 0.986483  0.013688 0.019516 1 1 1.000000
0  -21.044928 98.786743 43.085022  -0.039037 -0.147431 0.988302  0.013688 0.019516 1 1 1.000000
0  -27.142313 98.005363 42.698887  -0.049967 -0.093798 0.994337  0.013688 0.019516 1 1 1.000000
skin_0
0  -27.142313 98.005363 42.698887  -0.049967 -0.093798 0.994337  0.013688 0.019516 1 1 1.000000
0  -27.114786 97.034241 42.586292  -0.037523 -0.113281 0.992854  0.013688 0.019516 1 1 1.000000
0  -18.539907 98.058838 43.035152  -0.030616 -0.160977 0.986483  0.013688 0.019516 1 1 1.000000
skin_0
0  -16.282637 97.682625 43.071323  -0.035999 -0.116307 0.992561  0.013688 0.019516 1 1 1.000000
0  -15.924777 98.077858 43.133533  -0.035466 -0.111372 0.993146  0.013688 0.019516 1 1 1.000000
0  -17.934299 97.879379 43.033268  -0.034705 -0.140260 0.989506  0.013688 0.019516 1 1 1.000000
skin_0
0  -17.934299 97.879379 43.033268  -0.034705 -0.140260 0.989506  0.013688 0.019516 1 1 1.000000
0  -17.576439 97.536598 43.003281  -0.034551 -0.105716 0.993796  0.013688 0.019516 1 1 1.000000
0  -16.282637 97.682625 43.071323  -0.035999 -0.116307 0.992561  0.013688 0.019516 1 1 1.000000
skin_0
0  -28.078255 96.271202 42.464272  -0.066064 -0.124738 0.989988  0.013688 0.019516 1 1 1.000000
0  -27.720396 96.721275 42.531281  -0.051755 -0.108535 0.992745  0.013688 0.019516 1 1 1.000000
0  -30.583277 97.473686 42.458939  -0.069555 -0.114593 0.990975  0.013688 0.019516 1 1 1.000000
skin_0
0  -30.583277 97.473686 42.458939  -0.069555 -0.114593 0.990975  0.013688 0.019516 1 1 1.000000
0  -31.271467 97.096970 42.343082  -0.083282 -0.143398 0.986155  0.013688 0.019516 1 1 1.000000
0  -28.078255 96.271202 42.464272  -0.066064 -0.124738 0.989988  0.013688 0.019516 1 1 1.000000
skin_0
0  -28.628809 89.420425 41.491859  -0.079336 -0.137698 0.987292  0.013688 0.019516 1 1 1.000000
0  -28.078255 96.271202 42.464272  -0.066064 -0.124738 0.989988  0.013688 0.019516 1 1 1.000000
0  -31.698147 96.485947 42.220543  -0.086164 -0.136869 0.986835  0.013688 0.019516 1 1 1.000000
skin_0
0  -28.628809 89.420425 41.491859  -0.079336 -0.137698 0.987292  0.013688 0.019516 1 1 1.000000
0  -31.698147 96.485947 42.220543  -0.086164 -0.136869 0.986835  0.013688 0.019516 1 1 1.000000
0  -32.386341 89.529083 41.197403  -0.077462 -0.147272 0.986058  0.013688 0.019516 1 1 1.000000
skin_0
0  -28.628809 89.420425 41.491859  -0.079336 -0.137698 0.987292  0.013688 0.019516 1 1 1.000000
0  -32.386341 89.529083 41.197403  -0.077462 -0.147272 0.986058  0.013688 0.019516 1 1 1.000000
0  -32.097301 89.308510 41.191925  -0.080229 -0.167523 0.982598  0.013688 0.019516 1 1 1.000000
skin_0
0  -32.028481 89.117737 41.161411  -0.091153 -0.664064 0.742098  0.013688 0.019516 1 1 1.000000
0  -28.628809 89.420425 41.491859  -0.079336 -0.137698 0.987292  0.013688 0.019516 1 1 1.000000
0  -32.097301 89.308510 41.191925  -0.080229 -0.167523 0.982598  0.013688 0.019516 1 1 1.000000
skin_0
0  -16.089943 90.762779 41.940887  0.082369 -0.991238 -0.103259  0.013688 0.019516 1 1 1.000000
0  -16.929539 90.729012 41.537262  0.099911 -0.985696 -0.135727  0.013688 0.019516 1 1 1.000000
0  -8.616173 91.364365 41.855354  0.055613 -0.992253 -0.111091  0.013688 0.019516 1 1 1.000000
skin_0
0  -8.616173 91.364365 41.855354  0.055613 -0.992253 -0.111091  0.013688 0.019516 1 1 1.000000
0  -8.616173 91.333176 42.211853  0.054873 -0.992260 -0.111400  0.013688 0.019516 1 1 1.000000
0  -16.089943 90.762779 41.940887  0.082369 -0.991238 -0.103259  0.013688 0.019516 1 1 1.000000
skin_0
0  -17.893007 90.591736 41.843021  0.110697 -0.987065 -0.115968  0.013688 0.019516 1 1 1.000000
0  -16.929539 90.729012 41.537262  0.099911 -0.985696 -0.135727  0.013688 0.019516 1 1 1.000000
0  -16.089943 90.762779 41.940887  0.082369 -0.991238 -0.103259  0.013688 0.019516 1 1 1.000000
skin_0
0  -28.243422 89.491554 41.152668  0.060699 -0.978855 -0.195343  0.013688 0.019516 1 1 1.000000
0  -28.367296 89.568672 40.744926  0.074744 -0.978291 -0.193289  0.013688 0.019516 1 1 1.000000
0  -16.929539 90.729012 41.537262  0.099911 -0.985696 -0.135727  0.013688 0.019516 1 1 1.000000
skin_0
0  -16.929539 90.729012 41.537262  0.099911 -0.985696 -0.135727  0.013688 0.019516 1 1 1.000000
0  -17.893007 90.591736 41.843021  0.110697 -0.987065 -0.115968  0.013688 0.019516 1 1 1.000000
0  -28.243422 89.491554 41.152668  0.060699 -0.978855 -0.195343  0.013688 0.019516 1 1 1.000000
skin_0
0  -28.367296 89.568672 40.744926  0.074744 -0.978291 -0.193289  0.013688 0.019516 1 1 1.000000
0  -28.243422 89.491554 41.152668  0.060699 -0.978855 -0.195343  0.013688 0.019516 1 1 1.000000
0  -28.628809 89.420425 41.491859  0.084017 -0.981712 -0.170827  0.013688 0.019516 1 1 1.000000
skin_0
0  -28.628809 89.420425 41.491859  0.084017 -0.981712 -0.170827  0.013688 0.019516 1 1 1.000000
0  -28.738918 89.503548 41.015556  0.090758 -0.980820 -0.172498  0.013688 0.019516 1 1 1.000000
0  -28.367296 89.568672 40.744926  0.074744 -0.978291 -0.193289  0.013688 0.019516 1 1 1.000000
skin_0
0  -16.089943 90.762779 41.940887  0.690683 -0.077969 0.718942  0.013688 0.019516 1 1 1.000000
0  -15.993597 97.318413 42.970375  0.054979 -0.170576 0.983810  0.013688 0.019516 1 1 1.000000
0  -16.282637 97.682625 43.071323  0.105452 -0.195855 0.974946  0.013688 0.019516 1 1 1.000000
skin_0
0  -16.089943 90.762779 41.940887  0.690683 -0.077969 0.718942  0.013688 0.019516 1 1 1.000000
0  -16.282637 97.682625 43.071323  0.105452 -0.195855 0.974946  0.013688 0.019516 1 1 1.000000
0  -16.406511 91.433281 42.331142  0.693761 -0.091297 0.714395  0.013688 0.019516 1 1 1.000000
skin_0
0  -16.089943 90.762779 41.940887  0.690683 -0.077969 0.718942  0.013688 0.019516 1 1 1.000000
0  -16.406511 91.433281 42.331142  0.693761 -0.091297 0.714395  0.013688 0.019516 1 1 1.000000
0  -16.323929 91.029137 42.212887  0.755475 -0.027871 0.654585  0.013688 0.019516 1 1 1.000000
skin_0
0  -28.078255 96.271202 42.464272  0.149087 -0.228424 0.962079  0.013688 0.019516 1 1 1.000000
0  -28.628809 89.420425 41.491859  0.669769 -0.155590 0.726086  0.013688 0.019516 1 1 1.000000
0  -28.243422 89.491554 41.152668  0.660777 -0.156816 0.734018  0.013688 0.019516 1 1 1.000000
skin_0
0  -28.243422 89.491554 41.152668  0.660777 -0.156816 0.734018  0.013688 0.019516 1 1 1.000000
0  -27.844269 95.949310 42.353207  0.072777 -0.196042 0.977891  0.013688 0.019516 1 1 1.000000
0  -28.078255 96.271202 42.464272  0.149087 -0.228424 0.962079  0.013688 0.019516 1 1 1.000000
skin_0
0  -17.576439 97.536598 43.003281  -0.170899 -0.179585 0.968784  0.013688 0.019516 1 1 1.000000
0  -17.934299 97.879379 43.033268  -0.069972 -0.194847 0.978335  0.013688 0.019516 1 1 1.000000
0  -17.837952 97.132454 42.885025  -0.149650 -0.151052 0.977133  0.013688 0.019516 1 1 1.000000
skin_0
0  -15.360460 98.378311 43.173634  -0.016242 -0.187553 0.982120  0.013688 0.019516 1 1 1.000000
0  -15.924777 98.077858 43.133533  0.029509 -0.208322 0.977615  0.013688 0.019516 1 1 1.000000
0  -15.993597 97.318413 42.970375  0.054979 -0.170576 0.983810  0.013688 0.019516 1 1 1.000000
skin_0
0  -17.837952 97.132454 42.885025  -0.149650 -0.151052 0.977133  0.013688 0.019516 1 1 1.000000
0  -17.893007 90.591736 41.843021  -0.767426 -0.094416 0.634148  0.013688 0.019516 1 1 1.000000
0  -17.672785 90.909332 42.160957  -0.762637 -0.094943 0.639820  0.013688 0.019516 1 1 1.000000
skin_0
0  -17.837952 97.132454 42.885025  -0.149650 -0.151052 0.977133  0.013688 0.019516 1 1 1.000000
0  -17.672785 90.909332 42.160957  -0.762637 -0.094943 0.639820  0.013688 0.019516 1 1 1.000000
0  -17.617729 91.313469 42.279213  -0.704968 -0.100534 0.702078  0.013688 0.019516 1 1 1.000000
skin_0
0  -17.837952 97.132454 42.885025  -0.149650 -0.151052 0.977133  0.013688 0.019516 1 1 1.000000
0  -17.617729 91.313469 42.279213  -0.704968 -0.100534 0.702078  0.013688 0.019516 1 1 1.000000
0  -17.576439 97.536598 43.003281  -0.170899 -0.179585 0.968784  0.013688 0.019516 1 1 1.000000
skin_0
0  -27.114786 97.034241 42.586292  -0.019516 -0.201671 0.979259  0.013688 0.019516 1 1 1.000000
0  -27.720396 96.721275 42.531281  0.041444 -0.233645 0.971438  0.013688 0.019516 1 1 1.000000
0  -27.844269 95.949310 42.353207  0.072777 -0.196042 0.977891  0.013688 0.019516 1 1 1.000000
skin_0
0  -17.893007 90.591736 41.843021  -0.038608 -0.164759 0.985578  0.013688 0.019516 1 1 1.000000
0  -17.837952 97.132454 42.885025  -0.149650 -0.151052 0.977133  0.013688 0.019516 1 1 1.000000
0  -27.844269 95.949310 42.353207  0.072777 -0.196042 0.977891  0.013688 0.019516 1 1 1.000000
skin_0
0  -27.844269 95.949310 42.353207  0.072777 -0.196042 0.977891  0.013688 0.019516 1 1 1.000000
0  -28.243422 89.491554 41.152668  -0.046426 -0.179803 0.982606  0.013688 0.019516 1 1 1.000000
0  -17.893007 90.591736 41.843021  -0.038608 -0.164759 0.985578  0.013688 0.019516 1 1 1.000000
skin_0
0  -28.738918 89.503548 41.015556  0.090758 -0.980820 -0.172498  0.013688 0.019516 1 1 1.000000
0  -28.628809 89.420425 41.491859  0.084017 -0.981712 -0.170827  0.013688 0.019516 1 1 1.000000
0  -32.111065 89.062378 41.004589  -0.103602 -0.971396 0.213673  0.013688 0.019516 1 1 1.000000
skin_0
0  -32.111065 89.062378 41.004589  -0.103602 -0.971396 0.213673  0.013688 0.019516 1 1 1.000000
0  -32.317524 89.057236 40.589649  -0.188926 -0.976837 0.100480  0.013688 0.019516 1 1 1.000000
0  -28.738918 89.503548 41.015556  0.090758 -0.980820 -0.172498  0.013688 0.019516 1 1 1.000000
skin_0
0  -0.013768 99.852982 43.689514  0.000152 -0.136319 0.990665  0.013688 0.019516 1 1 1.000000
0  -0.013768 100.031227 43.705109  0.000008 0.428537 0.903524  0.013688 0.019516 1 1 1.000000
0  -6.881928 99.966270 43.657970  -0.033440 0.429503 0.902446  0.013688 0.019516 1 1 1.000000
skin_0
0  -6.881928 99.966270 43.657970  -0.033440 0.429503 0.902446  0.013688 0.019516 1 1 1.000000
0  -6.881928 99.789230 43.628666  -0.016446 -0.139829 0.990039  0.013688 0.019516 1 1 1.000000
0  -0.013768 99.852982 43.689514  0.000152 -0.136319 0.990665  0.013688 0.019516 1 1 1.000000
skin_0
0  -6.881928 99.789230 43.628666  -0.016446 -0.139829 0.990039  0.013688 0.019516 1 1 1.000000
0  -6.881928 99.966270 43.657970  -0.033440 0.429503 0.902446  0.013688 0.019516 1 1 1.000000
0  -14.066657 99.559219 43.415115  -0.066028 0.421855 0.904256  0.013688 0.019516 1 1 1.000000
skin_0
0  -14.066657 99.559219 43.415115  -0.066028 0.421855 0.904256  0.013688 0.019516 1 1 1.000000
0  -14.025367 99.368446 43.384609  -0.027681 -0.151294 0.988101  0.013688 0.019516 1 1 1.000000
0  -6.881928 99.789230 43.628666  -0.016446 -0.139829 0.990039  0.013688 0.019516 1 1 1.000000
skin_0
0  -14.025367 99.368446 43.384609  -0.027681 -0.151294 0.988101  0.013688 0.019516 1 1 1.000000
0  -14.066657 99.559219 43.415115  -0.066028 0.421855 0.904256  0.013688 0.019516 1 1 1.000000
0  -21.044928 98.951279 43.099415  -0.094734 0.432680 0.896557  0.013688 0.019516 1 1 1.000000
skin_0
0  -21.044928 98.951279 43.099415  -0.094734 0.432680 0.896557  0.013688 0.019516 1 1 1.000000
0  -21.044928 98.786743 43.085022  -0.039037 -0.147431 0.988302  0.013688 0.019516 1 1 1.000000
0  -14.025367 99.368446 43.384609  -0.027681 -0.151294 0.988101  0.013688 0.019516 1 1 1.000000
skin_0
0  -21.044928 98.786743 43.085022  -0.039037 -0.147431 0.988302  0.013688 0.019516 1 1 1.000000
0  -21.044928 98.951279 43.099415  -0.094734 0.432680 0.896557  0.013688 0.019516 1 1 1.000000
0  -27.156076 98.169891 42.713280  -0.122146 0.434242 0.892477  0.013688 0.019516 1 1 1.000000
skin_0
0  -27.156076 98.169891 42.713280  -0.122146 0.434242 0.892477  0.013688 0.019516 1 1 1.000000
0  -27.142313 98.005363 42.698887  -0.049967 -0.093798 0.994337  0.013688 0.019516 1 1 1.000000
0  -21.044928 98.786743 43.085022  -0.039037 -0.147431 0.988302  0.013688 0.019516 1 1 1.000000
skin_0
0  -27.142313 98.005363 42.698887  -0.049967 -0.093798 0.994337  0.013688 0.019516 1 1 1.000000
0  -27.156076 98.169891 42.713280  -0.122146 0.434242 0.892477  0.013688 0.019516 1 1 1.000000
0  -30.817261 97.585785 42.441109  -0.216276 0.427148 0.877935  0.013688 0.019516 1 1 1.000000
skin_0
0  -30.817261 97.585785 42.441109  -0.216276 0.427148 0.877935  0.013688 0.019516 1 1 1.000000
0  -30.583277 97.473686 42.458939  -0.069555 -0.114593 0.990975  0.013688 0.019516 1 1 1.000000
0  -27.142313 98.005363 42.698887  -0.049967 -0.093798 0.994337  0.013688 0.019516 1 1 1.000000
skin_0
0  -31.491690 97.235283 42.341366  -0.408460 0.276158 0.869998  0.013688 0.019516 1 1 1.000000
0  -31.271467 97.096970 42.343082  -0.083282 -0.143398 0.986155  0.013688 0.019516 1 1 1.000000
0  -30.583277 97.473686 42.458939  -0.069555 -0.114593 0.990975  0.013688 0.019516 1 1 1.000000
skin_0
0  -30.583277 97.473686 42.458939  -0.069555 -0.114593 0.990975  0.013688 0.019516 1 1 1.000000
0  -30.817261 97.585785 42.441109  -0.216276 0.427148 0.877935  0.013688 0.019516 1 1 1.000000
0  -31.491690 97.235283 42.341366  -0.408460 0.276158 0.869998  0.013688 0.019516 1 1 1.000000
skin_0
0  -31.904604 96.596832 42.216431  -0.548125 0.044409 0.835217  0.013688 0.019516 1 1 1.000000
0  -31.698147 96.485947 42.220543  -0.086164 -0.136869 0.986835  0.013688 0.019516 1 1 1.000000
0  -31.271467 97.096970 42.343082  -0.083282 -0.143398 0.986155  0.013688 0.019516 1 1 1.000000
skin_0
0  -31.271467 97.096970 42.343082  -0.083282 -0.143398 0.986155  0.013688 0.019516 1 1 1.000000
0  -31.491690 97.235283 42.341366  -0.408460 0.276158 0.869998  0.013688 0.019516 1 1 1.000000
0  -31.904604 96.596832 42.216431  -0.548125 0.044409 0.835217  0.013688 0.019516 1 1 1.000000
skin_0
0  -31.698147 96.485947 42.220543  -0.086164 -0.136869 0.986835  0.013688 0.019516 1 1 1.000000
0  -31.904604 96.596832 42.216431  -0.548125 0.044409 0.835217  0.013688 0.019516 1 1 1.000000
0  -32.620323 89.626259 41.192085  -0.591094 -0.170930 0.788284  0.013688 0.019516 1 1 1.000000
skin_0
0  -32.620323 89.626259 41.192085  -0.591094 -0.170930 0.788284  0.013688 0.019516 1 1 1.000000
0  -32.386341 89.529083 41.197403  -0.077462 -0.147272 0.986058  0.013688 0.019516 1 1 1.000000
0  -31.698147 96.485947 42.220543  -0.086164 -0.136869 0.986835  0.013688 0.019516 1 1 1.000000
skin_0
0  -32.097301 89.308510 41.191925  -0.080229 -0.167523 0.982598  0.013688 0.019516 1 1 1.000000
0  -32.441395 89.270973 41.147186  -0.388338 -0.506282 0.769982  0.013688 0.019516 1 1 1.000000
0  -32.028481 89.117737 41.161411  -0.091153 -0.664064 0.742098  0.013688 0.019516 1 1 1.000000
skin_0
0  -32.138592 96.789650 41.749722  -0.907465 0.419035 -0.030297  0.013688 0.019516 1 1 1.000000
0  -32.565269 94.422699 40.851818  -0.983855 0.178921 -0.004129  0.013688 0.019516 1 1 1.000000
0  -32.606560 94.035698 41.011391  -0.911926 0.041165 0.408286  0.013688 0.019516 1 1 1.000000
skin_0
0  -32.689144 89.570900 41.035263  -0.858227 -0.230774 0.458464  0.013688 0.019516 1 1 1.000000
0  -32.620323 89.626259 41.192085  -0.591094 -0.170930 0.788284  0.013688 0.019516 1 1 1.000000
0  -31.904604 96.596832 42.216431  -0.548125 0.044409 0.835217  0.013688 0.019516 1 1 1.000000
skin_0
0  -31.904604 96.596832 42.216431  -0.548125 0.044409 0.835217  0.013688 0.019516 1 1 1.000000
0  -31.987190 96.664879 42.070404  -0.825753 0.201257 0.526903  0.013688 0.019516 1 1 1.000000
0  -32.689144 89.570900 41.035263  -0.858227 -0.230774 0.458464  0.013688 0.019516 1 1 1.000000
skin_0
0  -6.881928 100.048027 43.513145  -0.039603 0.855321 0.516582  0.013688 0.019516 1 1 1.000000
0  -0.013768 100.125496 43.575188  -0.000003 0.855474 0.517847  0.013688 0.019516 1 1 1.000000
0  -0.013768 100.271690 43.325470  0.000002 0.867546 0.497356  0.013688 0.019516 1 1 1.000000
skin_0
0  -0.013768 100.271690 43.325470  0.000002 0.867546 0.497356  0.013688 0.019516 1 1 1.000000
0  -6.881928 100.194221 43.263428  -0.039653 0.867875 0.495197  0.013688 0.019516 1 1 1.000000
0  -6.881928 100.048027 43.513145  -0.039603 0.855321 0.516582  0.013688 0.019516 1 1 1.000000
skin_0
0  -14.066657 99.640968 43.270287  -0.081634 0.854785 0.512521  0.013688 0.019516 1 1 1.000000
0  -21.044928 99.033035 42.954590  -0.119048 0.854309 0.505948  0.013688 0.019516 1 1 1.000000
0  -21.044928 98.951279 43.099415  -0.094734 0.432680 0.896557  0.013688 0.019516 1 1 1.000000
skin_0
0  -21.044928 98.951279 43.099415  -0.094734 0.432680 0.896557  0.013688 0.019516 1 1 1.000000
0  -14.066657 99.559219 43.415115  -0.066028 0.421855 0.904256  0.013688 0.019516 1 1 1.000000
0  -14.066657 99.640968 43.270287  -0.081634 0.854785 0.512521  0.013688 0.019516 1 1 1.000000
skin_0
0  -27.156076 98.250443 42.582161  -0.156134 0.848248 0.506061  0.013688 0.019516 1 1 1.000000
0  -30.913609 97.652626 42.308800  -0.319476 0.791559 0.520932  0.013688 0.019516 1 1 1.000000
0  -30.817261 97.585785 42.441109  -0.216276 0.427148 0.877935  0.013688 0.019516 1 1 1.000000
skin_0
0  -30.817261 97.585785 42.441109  -0.216276 0.427148 0.877935  0.013688 0.019516 1 1 1.000000
0  -27.156076 98.169891 42.713280  -0.122146 0.434242 0.892477  0.013688 0.019516 1 1 1.000000
0  -27.156076 98.250443 42.582161  -0.156134 0.848248 0.506061  0.013688 0.019516 1 1 1.000000
skin_0
0  -6.881928 100.048027 43.513145  -0.039603 0.855321 0.516582  0.013688 0.019516 1 1 1.000000
0  -14.066657 99.640968 43.270287  -0.081634 0.854785 0.512521  0.013688 0.019516 1 1 1.000000
0  -14.066657 99.559219 43.415115  -0.066028 0.421855 0.904256  0.013688 0.019516 1 1 1.000000
skin_0
0  -14.066657 99.559219 43.415115  -0.066028 0.421855 0.904256  0.013688 0.019516 1 1 1.000000
0  -6.881928 99.966270 43.657970  -0.033440 0.429503 0.902446  0.013688 0.019516 1 1 1.000000
0  -6.881928 100.048027 43.513145  -0.039603 0.855321 0.516582  0.013688 0.019516 1 1 1.000000
skin_0
0  -21.044928 99.033035 42.954590  -0.119048 0.854309 0.505948  0.013688 0.019516 1 1 1.000000
0  -27.156076 98.250443 42.582161  -0.156134 0.848248 0.506061  0.013688 0.019516 1 1 1.000000
0  -27.156076 98.169891 42.713280  -0.122146 0.434242 0.892477  0.013688 0.019516 1 1 1.000000
skin_0
0  -27.156076 98.169891 42.713280  -0.122146 0.434242 0.892477  0.013688 0.019516 1 1 1.000000
0  -21.044928 98.951279 43.099415  -0.094734 0.432680 0.896557  0.013688 0.019516 1 1 1.000000
0  -21.044928 99.033035 42.954590  -0.119048 0.854309 0.505948  0.013688 0.019516 1 1 1.000000
skin_0
0  -30.913609 97.652626 42.308800  -0.319476 0.791559 0.520932  0.013688 0.019516 1 1 1.000000
0  -31.574274 97.303322 42.195339  -0.614102 0.550697 0.565342  0.013688 0.019516 1 1 1.000000
0  -31.491690 97.235283 42.341366  -0.408460 0.276158 0.869998  0.013688 0.019516 1 1 1.000000
skin_0
0  -31.491690 97.235283 42.341366  -0.408460 0.276158 0.869998  0.013688 0.019516 1 1 1.000000
0  -30.817261 97.585785 42.441109  -0.216276 0.427148 0.877935  0.013688 0.019516 1 1 1.000000
0  -30.913609 97.652626 42.308800  -0.319476 0.791559 0.520932  0.013688 0.019516 1 1 1.000000
skin_0
0  -31.574274 97.303322 42.195339  -0.614102 0.550697 0.565342  0.013688 0.019516 1 1 1.000000
0  -31.987190 96.664879 42.070404  -0.825753 0.201257 0.526903  0.013688 0.019516 1 1 1.000000
0  -31.904604 96.596832 42.216431  -0.548125 0.044409 0.835217  0.013688 0.019516 1 1 1.000000
skin_0
0  -31.904604 96.596832 42.216431  -0.548125 0.044409 0.835217  0.013688 0.019516 1 1 1.000000
0  -31.491690 97.235283 42.341366  -0.408460 0.276158 0.869998  0.013688 0.019516 1 1 1.000000
0  -31.574274 97.303322 42.195339  -0.614102 0.550697 0.565342  0.013688 0.019516 1 1 1.000000
skin_0
0  -32.317524 89.057236 40.589649  -0.188926 -0.976837 0.100480  0.013688 0.019516 1 1 1.000000
0  -32.111065 89.062378 41.004589  -0.103602 -0.971396 0.213673  0.013688 0.019516 1 1 1.000000
0  -32.510212 89.201889 40.989162  -0.568192 -0.724951 0.389365  0.013688 0.019516 1 1 1.000000
skin_0
0  -32.510212 89.201889 40.989162  -0.568192 -0.724951 0.389365  0.013688 0.019516 1 1 1.000000
0  -32.716671 89.197945 40.560509  -0.665857 -0.667190 0.333903  0.013688 0.019516 1 1 1.000000
0  -32.317524 89.057236 40.589649  -0.188926 -0.976837 0.100480  0.013688 0.019516 1 1 1.000000
skin_0
0  -32.716671 89.197945 40.560509  -0.665857 -0.667190 0.333903  0.013688 0.019516 1 1 1.000000
0  -32.510212 89.201889 40.989162  -0.568192 -0.724951 0.389365  0.013688 0.019516 1 1 1.000000
0  -32.689144 89.570900 41.035263  -0.858227 -0.230774 0.458464  0.013688 0.019516 1 1 1.000000
skin_0
0  -32.689144 89.570900 41.035263  -0.858227 -0.230774 0.458464  0.013688 0.019516 1 1 1.000000
0  -32.909367 89.569359 40.579189  -0.878132 -0.210028 0.429851  0.013688 0.019516 1 1 1.000000
0  -32.716671 89.197945 40.560509  -0.665857 -0.667190 0.333903  0.013688 0.019516 1 1 1.000000
skin_0
0  -31.987190 96.664879 42.070404  -0.825753 0.201257 0.526903  0.013688 0.019516 1 1 1.000000
0  -32.138592 96.789650 41.749722  -0.907465 0.419035 -0.030297  0.013688 0.019516 1 1 1.000000
0  -32.606560 94.035698 41.011391  -0.911926 0.041165 0.408286  0.013688 0.019516 1 1 1.000000
skin_0
0  -28.628809 89.420425 41.491859  0.084017 -0.981712 -0.170827  0.013688 0.019516 1 1 1.000000
0  -32.028481 89.117737 41.161411  -0.091153 -0.664064 0.742098  0.013688 0.019516 1 1 1.000000
0  -32.111065 89.062378 41.004589  -0.103602 -0.971396 0.213673  0.013688 0.019516 1 1 1.000000
skin_0
0  -15.924777 98.077858 43.133533  -0.035466 -0.111372 0.993146  0.013688 0.019516 1 1 1.000000
0  -15.360460 98.378311 43.173634  -0.029198 -0.159117 0.986828  0.013688 0.019516 1 1 1.000000
0  -18.539907 98.058838 43.035152  -0.030616 -0.160977 0.986483  0.013688 0.019516 1 1 1.000000
skin_0
0  -18.539907 98.058838 43.035152  -0.030616 -0.160977 0.986483  0.013688 0.019516 1 1 1.000000
0  -17.934299 97.879379 43.033268  -0.034705 -0.140260 0.989506  0.013688 0.019516 1 1 1.000000
0  -15.924777 98.077858 43.133533  -0.035466 -0.111372 0.993146  0.013688 0.019516 1 1 1.000000
skin_0
0  -17.934299 97.879379 43.033268  -0.069972 -0.194847 0.978335  0.013688 0.019516 1 1 1.000000
0  -18.539907 98.058838 43.035152  -0.033497 -0.183146 0.982515  0.013688 0.019516 1 1 1.000000
0  -17.837952 97.132454 42.885025  -0.149650 -0.151052 0.977133  0.013688 0.019516 1 1 1.000000
skin_0
0  -15.924777 98.077858 43.133533  0.029509 -0.208322 0.977615  0.013688 0.019516 1 1 1.000000
0  -16.282637 97.682625 43.071323  0.105452 -0.195855 0.974946  0.013688 0.019516 1 1 1.000000
0  -15.993597 97.318413 42.970375  0.054979 -0.170576 0.983810  0.013688 0.019516 1 1 1.000000
skin_0
0  -27.720396 96.721275 42.531281  0.041444 -0.233645 0.971438  0.013688 0.019516 1 1 1.000000
0  -28.078255 96.271202 42.464272  0.149087 -0.228424 0.962079  0.013688 0.019516 1 1 1.000000
0  -27.844269 95.949310 42.353207  0.072777 -0.196042 0.977891  0.013688 0.019516 1 1 1.000000
skin_0
0  -17.837952 97.132454 42.885025  -0.149650 -0.151052 0.977133  0.013688 0.019516 1 1 1.000000
0  -18.539907 98.058838 43.035152  -0.033497 -0.183146 0.982515  0.013688 0.019516 1 1 1.000000
0  -27.114786 97.034241 42.586292  -0.019516 -0.201671 0.979259  0.013688 0.019516 1 1 1.000000
skin_0
0  -27.114786 97.034241 42.586292  -0.019516 -0.201671 0.979259  0.013688 0.019516 1 1 1.000000
0  -27.844269 95.949310 42.353207  0.072777 -0.196042 0.977891  0.013688 0.019516 1 1 1.000000
0  -17.837952 97.132454 42.885025  -0.149650 -0.151052 0.977133  0.013688 0.019516 1 1 1.000000
skin_0
0  -6.868165 98.849136 43.477337  -0.017675 -0.157459 0.987367  0.013688 0.019516 1 1 1.000000
0  -15.360460 98.378311 43.173634  -0.016242 -0.187553 0.982120  0.013688 0.019516 1 1 1.000000
0  -15.993597 97.318413 42.970375  0.054979 -0.170576 0.983810  0.013688 0.019516 1 1 1.000000
skin_0
0  -27.720396 96.721275 42.531281  -0.051755 -0.108535 0.992745  0.013688 0.019516 1 1 1.000000
0  -27.114786 97.034241 42.586292  -0.037523 -0.113281 0.992854  0.013688 0.019516 1 1 1.000000
0  -27.142313 98.005363 42.698887  -0.049967 -0.093798 0.994337  0.013688 0.019516 1 1 1.000000
skin_0
0  -27.142313 98.005363 42.698887  -0.049967 -0.093798 0.994337  0.013688 0.019516 1 1 1.000000
0  -30.583277 97.473686 42.458939  -0.069555 -0.114593 0.990975  0.013688 0.019516 1 1 1.000000
0  -27.720396 96.721275 42.531281  -0.051755 -0.108535 0.992745  0.013688 0.019516 1 1 1.000000
skin_0
0  -32.620323 89.626259 41.192085  -0.591094 -0.170930 0.788284  0.013688 0.019516 1 1 1.000000
0  -32.441395 89.270973 41.147186  -0.388338 -0.506282 0.769982  0.013688 0.019516 1 1 1.000000
0  -32.386341 89.529083 41.197403  -0.077462 -0.147272 0.986058  0.013688 0.019516 1 1 1.000000
skin_0
0  -32.441395 89.270973 41.147186  -0.388338 -0.506282 0.769982  0.013688 0.019516 1 1 1.000000
0  -32.097301 89.308510 41.191925  -0.080229 -0.167523 0.982598  0.013688 0.019516 1 1 1.000000
0  -32.386341 89.529083 41.197403  -0.077462 -0.147272 0.986058  0.013688 0.019516 1 1 1.000000
skin_0
0  -32.565269 94.422699 40.851818  0.167301 -0.526329 -0.833659  0.013688 0.019516 1 1 1.000000
0  -32.358814 94.847412 40.419216  0.203311 -0.754290 -0.624268  0.013688 0.019516 1 1 1.000000
0  -28.353533 95.353203 41.112843  0.045981 -0.456268 -0.888654  0.013688 0.019516 1 1 1.000000
skin_0
0  -32.606560 94.035698 41.011391  0.087988 -0.116019 -0.989342  0.013688 0.019516 1 1 1.000000
0  -32.565269 94.422699 40.851818  0.167301 -0.526329 -0.833659  0.013688 0.019516 1 1 1.000000
0  -28.353533 95.353203 41.112843  0.045981 -0.456268 -0.888654  0.013688 0.019516 1 1 1.000000
skin_0
0  -31.904604 95.174248 40.157669  0.203676 -0.764701 -0.611350  0.013688 0.019516 1 1 1.000000
0  -31.326525 95.384727 40.120819  0.212330 -0.729700 -0.649964  0.013688 0.019516 1 1 1.000000
0  -28.353533 95.353203 41.112843  0.045981 -0.456268 -0.888654  0.013688 0.019516 1 1 1.000000
skin_0
0  -32.358814 94.847412 40.419216  0.203311 -0.754290 -0.624268  0.013688 0.019516 1 1 1.000000
0  -31.904604 95.174248 40.157669  0.203676 -0.764701 -0.611350  0.013688 0.019516 1 1 1.000000
0  -28.353533 95.353203 41.112843  0.045981 -0.456268 -0.888654  0.013688 0.019516 1 1 1.000000
skin_0
0  -28.422350 96.121536 40.226727  -0.641477 -0.603681 -0.473367  0.013688 0.019516 1 1 1.000000
0  -28.394823 95.958885 40.032887  -0.991435 -0.124837 -0.038374  0.013688 0.019516 1 1 1.000000
0  -28.353533 95.353203 41.112843  0.045981 -0.456268 -0.888654  0.013688 0.019516 1 1 1.000000
skin_0
0  -31.326525 95.384727 40.120819  0.212330 -0.729700 -0.649964  0.013688 0.019516 1 1 1.000000
0  -28.422350 96.121536 40.226727  -0.641477 -0.603681 -0.473367  0.013688 0.019516 1 1 1.000000
0  -28.353533 95.353203 41.112843  0.045981 -0.456268 -0.888654  0.013688 0.019516 1 1 1.000000
skin_0
0  -28.738918 89.503548 41.015556  -0.243042 0.058251 -0.968265  0.013688 0.019516 1 1 1.000000
0  -32.716671 89.197945 40.560509  0.099512 0.097240 -0.990273  0.013688 0.019516 1 1 1.000000
0  -32.606560 94.035698 41.011391  0.087988 -0.116019 -0.989342  0.013688 0.019516 1 1 1.000000
skin_0
0  -32.606560 94.035698 41.011391  0.087988 -0.116019 -0.989342  0.013688 0.019516 1 1 1.000000
0  -28.353533 95.353203 41.112843  0.045981 -0.456268 -0.888654  0.013688 0.019516 1 1 1.000000
0  -28.738918 89.503548 41.015556  -0.243042 0.058251 -0.968265  0.013688 0.019516 1 1 1.000000
skin_0
0  -28.367296 89.568672 40.744926  -0.604595 0.051283 -0.794880  0.013688 0.019516 1 1 1.000000
0  -28.738918 89.503548 41.015556  -0.243042 0.058251 -0.968265  0.013688 0.019516 1 1 1.000000
0  -28.353533 95.353203 41.112843  0.045981 -0.456268 -0.888654  0.013688 0.019516 1 1 1.000000
skin_0
0  -32.716671 89.197945 40.560509  0.099512 0.097240 -0.990273  0.013688 0.019516 1 1 1.000000
0  -32.909367 89.569359 40.579189  0.079839 0.088555 -0.992866  0.013688 0.019516 1 1 1.000000
0  -32.606560 94.035698 41.011391  0.087988 -0.116019 -0.989342  0.013688 0.019516 1 1 1.000000
skin_0
0  -28.738918 89.503548 41.015556  -0.243042 0.058251 -0.968265  0.013688 0.019516 1 1 1.000000
0  -32.317524 89.057236 40.589649  0.100898 0.142291 -0.984669  0.013688 0.019516 1 1 1.000000
0  -32.716671 89.197945 40.560509  0.099512 0.097240 -0.990273  0.013688 0.019516 1 1 1.000000
skin_0
0  32.661610 89.570900 41.035255  0.858213 -0.230793 0.458482  0.013688 0.019516 1 1 1.000000
0  32.881832 89.569359 40.579182  0.878087 -0.209950 0.429981  0.013688 0.019516 1 1 1.000000
0  32.579025 94.035698 41.011383  0.911843 0.041138 0.408472  0.013688 0.019516 1 1 1.000000
skin_0
0  32.579025 94.035698 41.011383  0.911843 0.041138 0.408472  0.013688 0.019516 1 1 1.000000
0  31.959650 96.664886 42.070396  0.825752 0.201270 0.526901  0.013688 0.019516 1 1 1.000000
0  32.661610 89.570900 41.035255  0.858213 -0.230793 0.458482  0.013688 0.019516 1 1 1.000000
skin_0
0  -0.013768 91.579308 42.399185  -0.000092 -0.993282 -0.115715  0.013688 0.019516 1 1 1.000000
0  -0.013768 91.624207 42.043884  -0.000092 -0.993280 -0.115733  0.013688 0.019516 1 1 1.000000
0  8.588637 91.364365 41.855354  -0.055878 -0.992206 -0.111374  0.013688 0.019516 1 1 1.000000
skin_0
0  8.588637 91.364365 41.855354  -0.055878 -0.992206 -0.111374  0.013688 0.019516 1 1 1.000000
0  8.588637 91.333176 42.211853  -0.055118 -0.992279 -0.111109  0.013688 0.019516 1 1 1.000000
0  -0.013768 91.579308 42.399185  -0.000092 -0.993282 -0.115715  0.013688 0.019516 1 1 1.000000
skin_0
0  6.854392 100.048027 43.513145  0.039521 0.855376 0.516498  0.013688 0.019516 1 1 1.000000
0  -0.013768 100.125496 43.575188  -0.000003 0.855474 0.517847  0.013688 0.019516 1 1 1.000000
0  -0.013768 100.031227 43.705109  0.000008 0.428537 0.903524  0.013688 0.019516 1 1 1.000000
skin_0
0  -0.013768 100.031227 43.705109  0.000008 0.428537 0.903524  0.013688 0.019516 1 1 1.000000
0  6.854392 99.966270 43.657970  0.033360 0.429439 0.902479  0.013688 0.019516 1 1 1.000000
0  6.854392 100.048027 43.513145  0.039521 0.855376 0.516498  0.013688 0.019516 1 1 1.000000
skin_0
0  5.918451 99.283424 41.829727  -0.133268 0.734149 -0.665782  0.013688 0.019516 1 1 1.000000
0  6.042325 99.331070 41.916798  0.043606 0.822524 -0.567057  0.013688 0.019516 1 1 1.000000
0  5.918451 98.678734 41.003105  -0.396205 0.741901 -0.540929  0.013688 0.019516 1 1 1.000000
skin_0
0  5.601882 99.494919 42.096931  -0.036373 0.731706 -0.680649  0.013688 0.019516 1 1 1.000000
0  5.533062 99.322670 42.012779  -0.168833 0.484893 -0.858123  0.013688 0.019516 1 1 1.000000
0  -0.013768 99.428764 42.063507  -0.000005 0.441531 -0.897246  0.013688 0.019516 1 1 1.000000
skin_0
0  -0.013768 99.428764 42.063507  -0.000005 0.441531 -0.897246  0.013688 0.019516 1 1 1.000000
0  -0.013768 99.601021 42.147663  -0.000300 0.687880 -0.725824  0.013688 0.019516 1 1 1.000000
0  5.601882 99.494919 42.096931  -0.036373 0.731706 -0.680649  0.013688 0.019516 1 1 1.000000
skin_0
0  5.918451 98.678734 41.003105  -0.396205 0.741901 -0.540929  0.013688 0.019516 1 1 1.000000
0  5.863395 99.112373 41.731865  -0.627742 0.507859 -0.589931  0.013688 0.019516 1 1 1.000000
0  5.918451 99.283424 41.829727  -0.133268 0.734149 -0.665782  0.013688 0.019516 1 1 1.000000
skin_0
0  5.918451 99.283424 41.829727  -0.133268 0.734149 -0.665782  0.013688 0.019516 1 1 1.000000
0  5.863395 99.112373 41.731865  -0.627742 0.507859 -0.589931  0.013688 0.019516 1 1 1.000000
0  5.533062 99.322670 42.012779  -0.168833 0.484893 -0.858123  0.013688 0.019516 1 1 1.000000
skin_0
0  5.533062 99.322670 42.012779  -0.168833 0.484893 -0.858123  0.013688 0.019516 1 1 1.000000
0  5.601882 99.494919 42.096931  -0.036373 0.731706 -0.680649  0.013688 0.019516 1 1 1.000000
0  5.918451 99.283424 41.829727  -0.133268 0.734149 -0.665782  0.013688 0.019516 1 1 1.000000
skin_0
0  21.017393 99.033035 42.954590  0.118992 0.854315 0.505951  0.013688 0.019516 1 1 1.000000
0  21.017393 99.180428 42.691151  0.119191 0.870548 0.477429  0.013688 0.019516 1 1 1.000000
0  14.039121 99.788368 43.006855  0.081799 0.868941 0.488109  0.013688 0.019516 1 1 1.000000
skin_0
0  14.039121 99.788368 43.006855  0.081799 0.868941 0.488109  0.013688 0.019516 1 1 1.000000
0  14.039121 99.640968 43.270287  0.081582 0.854795 0.512514  0.013688 0.019516 1 1 1.000000
0  21.017393 99.033035 42.954590  0.118992 0.854315 0.505951  0.013688 0.019516 1 1 1.000000
skin_0
0  17.067169 98.017151 40.668896  0.055641 0.815836 -0.575600  0.013688 0.019516 1 1 1.000000
0  14.039121 99.788368 43.006855  0.044501 0.829958 -0.556047  0.013688 0.019516 1 1 1.000000
0  21.017393 99.180428 42.691151  0.072235 0.786028 -0.613956  0.013688 0.019516 1 1 1.000000
skin_0
0  31.670612 96.485947 42.220535  0.086963 -0.137050 0.986739  0.013688 0.019516 1 1 1.000000
0  31.243933 97.096970 42.343075  0.083256 -0.143437 0.986151  0.013688 0.019516 1 1 1.000000
0  28.050720 96.271202 42.464264  0.066062 -0.124739 0.989988  0.013688 0.019516 1 1 1.000000
skin_0
0  30.886074 97.652626 42.308792  0.319421 0.791571 0.520946  0.013688 0.019516 1 1 1.000000
0  31.023710 97.776192 42.001823  0.358999 0.792799 0.492535  0.013688 0.019516 1 1 1.000000
0  27.128542 98.399033 42.305008  0.157474 0.874175 0.459369  0.013688 0.019516 1 1 1.000000
skin_0
0  27.128542 98.399033 42.305008  0.157474 0.874175 0.459369  0.013688 0.019516 1 1 1.000000
0  27.128542 98.250443 42.582153  0.156072 0.848256 0.506066  0.013688 0.019516 1 1 1.000000
0  30.886074 97.652626 42.308792  0.319421 0.791571 0.520946  0.013688 0.019516 1 1 1.000000
skin_0
0  31.877069 95.174255 40.157661  0.510224 0.542617 -0.667261  0.013688 0.019516 1 1 1.000000
0  31.698139 97.426895 41.888363  0.298087 0.607910 -0.735928  0.013688 0.019516 1 1 1.000000
0  32.111057 96.789650 41.749714  0.907437 0.419102 -0.030201  0.013688 0.019516 1 1 1.000000
skin_0
0  32.111057 96.789650 41.749714  0.907437 0.419102 -0.030201  0.013688 0.019516 1 1 1.000000
0  32.331280 94.847412 40.419209  0.854582 0.355472 -0.378589  0.013688 0.019516 1 1 1.000000
0  31.877069 95.174255 40.157661  0.510224 0.542617 -0.667261  0.013688 0.019516 1 1 1.000000
skin_0
0  6.854392 100.194221 43.263428  0.022709 0.842341 -0.538467  0.013688 0.019516 1 1 1.000000
0  14.039121 99.788368 43.006855  0.044501 0.829958 -0.556047  0.013688 0.019516 1 1 1.000000
0  10.735797 98.562538 40.910042  0.030673 0.836328 -0.547370  0.013688 0.019516 1 1 1.000000
skin_0
0  27.128542 98.399033 42.305008  0.082451 0.715165 -0.694075  0.013688 0.019516 1 1 1.000000
0  23.728870 97.009186 40.345837  0.079667 0.755232 -0.650598  0.013688 0.019516 1 1 1.000000
0  21.017393 99.180428 42.691151  0.072235 0.786028 -0.613956  0.013688 0.019516 1 1 1.000000
skin_0
0  14.039121 99.640968 43.270287  0.081582 0.854795 0.512514  0.013688 0.019516 1 1 1.000000
0  14.039121 99.788368 43.006855  0.081799 0.868941 0.488109  0.013688 0.019516 1 1 1.000000
0  6.854392 100.194221 43.263428  0.039562 0.867904 0.495154  0.013688 0.019516 1 1 1.000000
skin_0
0  6.854392 100.194221 43.263428  0.039562 0.867904 0.495154  0.013688 0.019516 1 1 1.000000
0  6.854392 100.048027 43.513145  0.039521 0.855376 0.516498  0.013688 0.019516 1 1 1.000000
0  14.039121 99.640968 43.270287  0.081582 0.854795 0.512514  0.013688 0.019516 1 1 1.000000
skin_0
0  27.128542 98.250443 42.582153  0.156072 0.848256 0.506066  0.013688 0.019516 1 1 1.000000
0  27.128542 98.399033 42.305008  0.157474 0.874175 0.459369  0.013688 0.019516 1 1 1.000000
0  21.017393 99.180428 42.691151  0.119191 0.870548 0.477429  0.013688 0.019516 1 1 1.000000
skin_0
0  21.017393 99.180428 42.691151  0.119191 0.870548 0.477429  0.013688 0.019516 1 1 1.000000
0  21.017393 99.033035 42.954590  0.118992 0.854315 0.505951  0.013688 0.019516 1 1 1.000000
0  27.128542 98.250443 42.582153  0.156072 0.848256 0.506066  0.013688 0.019516 1 1 1.000000
skin_0
0  -0.013768 99.672493 42.278263  -0.001553 0.867809 -0.496896  0.013688 0.019516 1 1 1.000000
0  -0.013768 100.271690 43.325470  -0.002170 0.867162 -0.498022  0.013688 0.019516 1 1 1.000000
0  6.854392 100.194221 43.263428  0.022709 0.842341 -0.538467  0.013688 0.019516 1 1 1.000000
skin_0
0  6.854392 100.194221 43.263428  0.022709 0.842341 -0.538467  0.013688 0.019516 1 1 1.000000
0  5.670702 99.567604 42.213821  0.033576 0.843275 -0.536433  0.013688 0.019516 1 1 1.000000
0  -0.013768 99.672493 42.278263  -0.001553 0.867809 -0.496896  0.013688 0.019516 1 1 1.000000
skin_0
0  6.854392 100.194221 43.263428  0.022709 0.842341 -0.538467  0.013688 0.019516 1 1 1.000000
0  6.042325 99.331070 41.916798  0.043606 0.822524 -0.567057  0.013688 0.019516 1 1 1.000000
0  5.670702 99.567604 42.213821  0.033576 0.843275 -0.536433  0.013688 0.019516 1 1 1.000000
skin_0
0  17.645250 90.909332 42.160957  -0.014139 -0.556333 0.830839  0.013688 0.019516 1 1 1.000000
0  16.296392 91.029137 42.212887  -0.013018 -0.537826 0.842955  0.013688 0.019516 1 1 1.000000
0  16.062408 90.762779 41.940887  -0.033450 -0.702995 0.710407  0.013688 0.019516 1 1 1.000000
skin_0
0  16.062408 90.762779 41.940887  -0.033450 -0.702995 0.710407  0.013688 0.019516 1 1 1.000000
0  17.865473 90.591736 41.843021  -0.031925 -0.709396 0.704087  0.013688 0.019516 1 1 1.000000
0  17.645250 90.909332 42.160957  -0.014139 -0.556333 0.830839  0.013688 0.019516 1 1 1.000000
skin_0
0  17.548904 97.536598 43.003281  0.034548 -0.105717 0.993796  0.013688 0.019516 1 1 1.000000
0  16.255100 97.682625 43.071323  0.036007 -0.116355 0.992555  0.013688 0.019516 1 1 1.000000
0  16.378977 91.433281 42.331142  0.025794 -0.196637 0.980137  0.013688 0.019516 1 1 1.000000
skin_0
0  16.378977 91.433281 42.331142  0.025794 -0.196637 0.980137  0.013688 0.019516 1 1 1.000000
0  17.590195 91.313469 42.279213  0.024137 -0.203389 0.978800  0.013688 0.019516 1 1 1.000000
0  17.548904 97.536598 43.003281  0.034548 -0.105717 0.993796  0.013688 0.019516 1 1 1.000000
skin_0
0  14.039121 99.788368 43.006855  0.044501 0.829958 -0.556047  0.013688 0.019516 1 1 1.000000
0  17.067169 98.017151 40.668896  0.055641 0.815836 -0.575600  0.013688 0.019516 1 1 1.000000
0  10.735797 98.562538 40.910042  0.030673 0.836328 -0.547370  0.013688 0.019516 1 1 1.000000
skin_0
0  17.067169 98.017151 40.668896  0.055641 0.815836 -0.575600  0.013688 0.019516 1 1 1.000000
0  21.017393 99.180428 42.691151  0.072235 0.786028 -0.613956  0.013688 0.019516 1 1 1.000000
0  23.728870 97.009186 40.345837  0.079667 0.755232 -0.650598  0.013688 0.019516 1 1 1.000000
skin_0
0  32.111057 96.789650 41.749714  0.907437 0.419102 -0.030201  0.013688 0.019516 1 1 1.000000
0  32.537735 94.422699 40.851810  0.983855 0.178922 -0.004128  0.013688 0.019516 1 1 1.000000
0  32.331280 94.847412 40.419209  0.854582 0.355472 -0.378589  0.013688 0.019516 1 1 1.000000
skin_0
0  23.728870 97.009186 40.345837  0.079667 0.755232 -0.650598  0.013688 0.019516 1 1 1.000000
0  28.394815 96.121536 40.226719  0.107142 0.700336 -0.705727  0.013688 0.019516 1 1 1.000000
0  28.367289 95.958885 40.032879  0.125953 0.744825 -0.655264  0.013688 0.019516 1 1 1.000000
skin_0
0  27.128542 98.399033 42.305008  0.082451 0.715165 -0.694075  0.013688 0.019516 1 1 1.000000
0  28.394815 96.121536 40.226719  0.107142 0.700336 -0.705727  0.013688 0.019516 1 1 1.000000
0  23.728870 97.009186 40.345837  0.079667 0.755232 -0.650598  0.013688 0.019516 1 1 1.000000
skin_0
0  31.546740 97.303322 42.195332  0.614080 0.550731 0.565333  0.013688 0.019516 1 1 1.000000
0  31.698139 97.426895 41.888363  0.650290 0.544373 0.529888  0.013688 0.019516 1 1 1.000000
0  31.023710 97.776192 42.001823  0.358999 0.792799 0.492535  0.013688 0.019516 1 1 1.000000
skin_0
0  31.023710 97.776192 42.001823  0.358999 0.792799 0.492535  0.013688 0.019516 1 1 1.000000
0  30.886074 97.652626 42.308792  0.319421 0.791571 0.520946  0.013688 0.019516 1 1 1.000000
0  31.546740 97.303322 42.195332  0.614080 0.550731 0.565333  0.013688 0.019516 1 1 1.000000
skin_0
0  31.959650 96.664886 42.070396  0.825752 0.201270 0.526901  0.013688 0.019516 1 1 1.000000
0  32.111057 96.789650 41.749714  0.907437 0.419102 -0.030201  0.013688 0.019516 1 1 1.000000
0  31.698139 97.426895 41.888363  0.650290 0.544373 0.529888  0.013688 0.019516 1 1 1.000000
skin_0
0  31.698139 97.426895 41.888363  0.650290 0.544373 0.529888  0.013688 0.019516 1 1 1.000000
0  31.546740 97.303322 42.195332  0.614080 0.550731 0.565333  0.013688 0.019516 1 1 1.000000
0  31.959650 96.664886 42.070396  0.825752 0.201270 0.526901  0.013688 0.019516 1 1 1.000000
skin_0
0  31.023710 97.776192 42.001823  0.128560 0.646494 -0.752009  0.013688 0.019516 1 1 1.000000
0  31.298986 95.384735 40.120811  0.206213 0.614693 -0.761334  0.013688 0.019516 1 1 1.000000
0  28.394815 96.121536 40.226719  0.107142 0.700336 -0.705727  0.013688 0.019516 1 1 1.000000
skin_0
0  31.023710 97.776192 42.001823  0.128560 0.646494 -0.752009  0.013688 0.019516 1 1 1.000000
0  28.394815 96.121536 40.226719  0.107142 0.700336 -0.705727  0.013688 0.019516 1 1 1.000000
0  27.128542 98.399033 42.305008  0.082451 0.715165 -0.694075  0.013688 0.019516 1 1 1.000000
skin_0
0  31.698139 97.426895 41.888363  0.298087 0.607910 -0.735928  0.013688 0.019516 1 1 1.000000
0  31.877069 95.174255 40.157661  0.510224 0.542617 -0.667261  0.013688 0.019516 1 1 1.000000
0  31.298986 95.384735 40.120811  0.206213 0.614693 -0.761334  0.013688 0.019516 1 1 1.000000
skin_0
0  31.298986 95.384735 40.120811  0.206213 0.614693 -0.761334  0.013688 0.019516 1 1 1.000000
0  31.023710 97.776192 42.001823  0.128560 0.646494 -0.752009  0.013688 0.019516 1 1 1.000000
0  31.698139 97.426895 41.888363  0.298087 0.607910 -0.735928  0.013688 0.019516 1 1 1.000000
skin_0
0  32.413860 89.270973 41.147179  0.388373 -0.506344 0.769924  0.013688 0.019516 1 1 1.000000
0  32.000946 89.117737 41.161404  0.091187 -0.664063 0.742095  0.013688 0.019516 1 1 1.000000
0  32.083527 89.062378 41.004581  0.103593 -0.971390 0.213704  0.013688 0.019516 1 1 1.000000
skin_0
0  32.083527 89.062378 41.004581  0.103593 -0.971390 0.213704  0.013688 0.019516 1 1 1.000000
0  32.482677 89.201889 40.989155  0.568101 -0.725017 0.389373  0.013688 0.019516 1 1 1.000000
0  32.413860 89.270973 41.147179  0.388373 -0.506344 0.769924  0.013688 0.019516 1 1 1.000000
skin_0
0  32.482677 89.201889 40.989155  0.568101 -0.725017 0.389373  0.013688 0.019516 1 1 1.000000
0  32.661610 89.570900 41.035255  0.858213 -0.230793 0.458482  0.013688 0.019516 1 1 1.000000
0  32.592789 89.626266 41.192078  0.591079 -0.170946 0.788291  0.013688 0.019516 1 1 1.000000
skin_0
0  32.592789 89.626266 41.192078  0.591079 -0.170946 0.788291  0.013688 0.019516 1 1 1.000000
0  32.413860 89.270973 41.147179  0.388373 -0.506344 0.769924  0.013688 0.019516 1 1 1.000000
0  32.482677 89.201889 40.989155  0.568101 -0.725017 0.389373  0.013688 0.019516 1 1 1.000000
skin_0
0  -0.013768 99.852982 43.689514  0.000152 -0.136319 0.990665  0.013688 0.019516 1 1 1.000000
0  -0.013768 98.939110 43.554291  0.001346 -0.154925 0.987925  0.013688 0.019516 1 1 1.000000
0  6.840629 98.849136 43.477337  0.013704 -0.158540 0.987257  0.013688 0.019516 1 1 1.000000
skin_0
0  6.840629 98.849136 43.477337  0.013704 -0.158540 0.987257  0.013688 0.019516 1 1 1.000000
0  6.854392 99.789230 43.628666  0.016664 -0.140160 0.989989  0.013688 0.019516 1 1 1.000000
0  -0.013768 99.852982 43.689514  0.000152 -0.136319 0.990665  0.013688 0.019516 1 1 1.000000
skin_0
0  6.854392 99.789230 43.628666  0.016664 -0.140160 0.989989  0.013688 0.019516 1 1 1.000000
0  6.840629 98.849136 43.477337  0.013704 -0.158540 0.987257  0.013688 0.019516 1 1 1.000000
0  15.332924 98.378311 43.173634  0.028689 -0.159451 0.986789  0.013688 0.019516 1 1 1.000000
skin_0
0  15.332924 98.378311 43.173634  0.028689 -0.159451 0.986789  0.013688 0.019516 1 1 1.000000
0  13.997829 99.368446 43.384609  0.026945 -0.152529 0.987932  0.013688 0.019516 1 1 1.000000
0  6.854392 99.789230 43.628666  0.016664 -0.140160 0.989989  0.013688 0.019516 1 1 1.000000
skin_0
0  15.332924 98.378311 43.173634  0.028689 -0.159451 0.986789  0.013688 0.019516 1 1 1.000000
0  18.512371 98.058838 43.035152  0.030660 -0.161162 0.986452  0.013688 0.019516 1 1 1.000000
0  21.017393 98.786743 43.085022  0.039040 -0.147434 0.988301  0.013688 0.019516 1 1 1.000000
skin_0
0  21.017393 98.786743 43.085022  0.039040 -0.147434 0.988301  0.013688 0.019516 1 1 1.000000
0  13.997829 99.368446 43.384609  0.026945 -0.152529 0.987932  0.013688 0.019516 1 1 1.000000
0  15.332924 98.378311 43.173634  0.028689 -0.159451 0.986789  0.013688 0.019516 1 1 1.000000
skin_0
0  18.512371 98.058838 43.035152  0.030660 -0.161162 0.986452  0.013688 0.019516 1 1 1.000000
0  27.087252 97.034241 42.586285  0.037428 -0.113320 0.992853  0.013688 0.019516 1 1 1.000000
0  27.114779 98.005363 42.698879  0.049952 -0.093892 0.994328  0.013688 0.019516 1 1 1.000000
skin_0
0  27.114779 98.005363 42.698879  0.049952 -0.093892 0.994328  0.013688 0.019516 1 1 1.000000
0  21.017393 98.786743 43.085022  0.039040 -0.147434 0.988301  0.013688 0.019516 1 1 1.000000
0  18.512371 98.058838 43.035152  0.030660 -0.161162 0.986452  0.013688 0.019516 1 1 1.000000
skin_0
0  16.255100 97.682625 43.071323  0.036007 -0.116355 0.992555  0.013688 0.019516 1 1 1.000000
0  17.548904 97.536598 43.003281  0.034548 -0.105717 0.993796  0.013688 0.019516 1 1 1.000000
0  17.906763 97.879379 43.033268  0.034708 -0.140262 0.989506  0.013688 0.019516 1 1 1.000000
skin_0
0  17.906763 97.879379 43.033268  0.034708 -0.140262 0.989506  0.013688 0.019516 1 1 1.000000
0  15.897241 98.077858 43.133533  0.035436 -0.111370 0.993147  0.013688 0.019516 1 1 1.000000
0  16.255100 97.682625 43.071323  0.036007 -0.116355 0.992555  0.013688 0.019516 1 1 1.000000
skin_0
0  28.050720 96.271202 42.464264  0.066062 -0.124739 0.989988  0.013688 0.019516 1 1 1.000000
0  31.243933 97.096970 42.343075  0.083256 -0.143437 0.986151  0.013688 0.019516 1 1 1.000000
0  30.555742 97.473686 42.458931  0.069550 -0.114641 0.990969  0.013688 0.019516 1 1 1.000000
skin_0
0  30.555742 97.473686 42.458931  0.069550 -0.114641 0.990969  0.013688 0.019516 1 1 1.000000
0  27.692858 96.721275 42.531273  0.051714 -0.108493 0.992751  0.013688 0.019516 1 1 1.000000
0  28.050720 96.271202 42.464264  0.066062 -0.124739 0.989988  0.013688 0.019516 1 1 1.000000
skin_0
0  28.601274 89.420425 41.491852  0.079336 -0.137698 0.987292  0.013688 0.019516 1 1 1.000000
0  32.069763 89.308510 41.191917  0.080236 -0.167551 0.982593  0.013688 0.019516 1 1 1.000000
0  32.358807 89.529083 41.197395  0.077512 -0.147294 0.986051  0.013688 0.019516 1 1 1.000000
skin_0
0  28.601274 89.420425 41.491852  0.079336 -0.137698 0.987292  0.013688 0.019516 1 1 1.000000
0  32.358807 89.529083 41.197395  0.077512 -0.147294 0.986051  0.013688 0.019516 1 1 1.000000
0  31.670612 96.485947 42.220535  0.086963 -0.137050 0.986739  0.013688 0.019516 1 1 1.000000
skin_0
0  28.601274 89.420425 41.491852  0.079336 -0.137698 0.987292  0.013688 0.019516 1 1 1.000000
0  31.670612 96.485947 42.220535  0.086963 -0.137050 0.986739  0.013688 0.019516 1 1 1.000000
0  28.050720 96.271202 42.464264  0.066062 -0.124739 0.989988  0.013688 0.019516 1 1 1.000000
skin_0
0  32.000946 89.117737 41.161404  0.091187 -0.664063 0.742095  0.013688 0.019516 1 1 1.000000
0  32.069763 89.308510 41.191917  0.080236 -0.167551 0.982593  0.013688 0.019516 1 1 1.000000
0  28.601274 89.420425 41.491852  0.079336 -0.137698 0.987292  0.013688 0.019516 1 1 1.000000
skin_0
0  16.902002 90.729012 41.537262  -0.099858 -0.985703 -0.135713  0.013688 0.019516 1 1 1.000000
0  16.062408 90.762779 41.940887  -0.081760 -0.991451 -0.101691  0.013688 0.019516 1 1 1.000000
0  8.588637 91.333176 42.211853  -0.055118 -0.992279 -0.111109  0.013688 0.019516 1 1 1.000000
skin_0
0  8.588637 91.333176 42.211853  -0.055118 -0.992279 -0.111109  0.013688 0.019516 1 1 1.000000
0  8.588637 91.364365 41.855354  -0.055878 -0.992206 -0.111374  0.013688 0.019516 1 1 1.000000
0  16.902002 90.729012 41.537262  -0.099858 -0.985703 -0.135713  0.013688 0.019516 1 1 1.000000
skin_0
0  17.865473 90.591736 41.843021  -0.110698 -0.987069 -0.115934  0.013688 0.019516 1 1 1.000000
0  16.062408 90.762779 41.940887  -0.081760 -0.991451 -0.101691  0.013688 0.019516 1 1 1.000000
0  16.902002 90.729012 41.537262  -0.099858 -0.985703 -0.135713  0.013688 0.019516 1 1 1.000000
skin_0
0  28.215885 89.491554 41.152660  -0.060692 -0.978868 -0.195278  0.013688 0.019516 1 1 1.000000
0  17.865473 90.591736 41.843021  -0.110698 -0.987069 -0.115934  0.013688 0.019516 1 1 1.000000
0  16.902002 90.729012 41.537262  -0.099858 -0.985703 -0.135713  0.013688 0.019516 1 1 1.000000
skin_0
0  16.902002 90.729012 41.537262  -0.099858 -0.985703 -0.135713  0.013688 0.019516 1 1 1.000000
0  28.339758 89.568672 40.744919  -0.074752 -0.978283 -0.193325  0.013688 0.019516 1 1 1.000000
0  28.215885 89.491554 41.152660  -0.060692 -0.978868 -0.195278  0.013688 0.019516 1 1 1.000000
skin_0
0  28.339758 89.568672 40.744919  -0.074704 -0.978292 -0.193298  0.013688 0.019516 1 1 1.000000
0  28.711384 89.503548 41.015549  -0.090766 -0.980816 -0.172518  0.013688 0.019516 1 1 1.000000
0  28.601274 89.420425 41.491852  -0.084014 -0.981700 -0.170900  0.013688 0.019516 1 1 1.000000
skin_0
0  28.601274 89.420425 41.491852  -0.084014 -0.981700 -0.170900  0.013688 0.019516 1 1 1.000000
0  28.215885 89.491554 41.152660  -0.060656 -0.978873 -0.195264  0.013688 0.019516 1 1 1.000000
0  28.339758 89.568672 40.744919  -0.074704 -0.978292 -0.193298  0.013688 0.019516 1 1 1.000000
skin_0
0  16.062408 90.762779 41.940887  -0.690718 -0.077958 0.718910  0.013688 0.019516 1 1 1.000000
0  16.296392 91.029137 42.212887  -0.755476 -0.027867 0.654584  0.013688 0.019516 1 1 1.000000
0  16.378977 91.433281 42.331142  -0.693762 -0.091305 0.714393  0.013688 0.019516 1 1 1.000000
skin_0
0  16.062408 90.762779 41.940887  -0.690718 -0.077958 0.718910  0.013688 0.019516 1 1 1.000000
0  16.378977 91.433281 42.331142  -0.693762 -0.091305 0.714393  0.013688 0.019516 1 1 1.000000
0  16.255100 97.682625 43.071323  -0.105474 -0.195670 0.974981  0.013688 0.019516 1 1 1.000000
skin_0
0  16.062408 90.762779 41.940887  -0.690718 -0.077958 0.718910  0.013688 0.019516 1 1 1.000000
0  16.255100 97.682625 43.071323  -0.105474 -0.195670 0.974981  0.013688 0.019516 1 1 1.000000
0  15.966060 97.318413 42.970375  -0.053958 -0.169879 0.983987  0.013688 0.019516 1 1 1.000000
skin_0
0  28.050720 96.271202 42.464264  -0.149061 -0.228421 0.962083  0.013688 0.019516 1 1 1.000000
0  27.816734 95.949310 42.353199  -0.072849 -0.196025 0.977889  0.013688 0.019516 1 1 1.000000
0  28.215885 89.491554 41.152660  -0.660210 -0.157639 0.734352  0.013688 0.019516 1 1 1.000000
skin_0
0  28.215885 89.491554 41.152660  -0.660210 -0.157639 0.734352  0.013688 0.019516 1 1 1.000000
0  28.601274 89.420425 41.491852  -0.669648 -0.155720 0.726170  0.013688 0.019516 1 1 1.000000
0  28.050720 96.271202 42.464264  -0.149061 -0.228421 0.962083  0.013688 0.019516 1 1 1.000000
skin_0
0  17.548904 97.536598 43.003281  0.170896 -0.179574 0.968787  0.013688 0.019516 1 1 1.000000
0  17.810417 97.132454 42.885025  0.149648 -0.151047 0.977134  0.013688 0.019516 1 1 1.000000
0  17.906763 97.879379 43.033268  0.069970 -0.194840 0.978336  0.013688 0.019516 1 1 1.000000
skin_0
0  15.332924 98.378311 43.173634  0.016211 -0.187521 0.982127  0.013688 0.019516 1 1 1.000000
0  15.966060 97.318413 42.970375  -0.053958 -0.169879 0.983987  0.013688 0.019516 1 1 1.000000
0  15.897241 98.077858 43.133533  -0.029499 -0.208351 0.977609  0.013688 0.019516 1 1 1.000000
skin_0
0  17.810417 97.132454 42.885025  0.149648 -0.151047 0.977134  0.013688 0.019516 1 1 1.000000
0  17.548904 97.536598 43.003281  0.170896 -0.179574 0.968787  0.013688 0.019516 1 1 1.000000
0  17.590195 91.313469 42.279213  0.704968 -0.100539 0.702077  0.013688 0.019516 1 1 1.000000
skin_0
0  17.810417 97.132454 42.885025  0.149648 -0.151047 0.977134  0.013688 0.019516 1 1 1.000000
0  17.590195 91.313469 42.279213  0.704968 -0.100539 0.702077  0.013688 0.019516 1 1 1.000000
0  17.645250 90.909332 42.160957  0.762637 -0.094947 0.639820  0.013688 0.019516 1 1 1.000000
skin_0
0  17.810417 97.132454 42.885025  0.149648 -0.151047 0.977134  0.013688 0.019516 1 1 1.000000
0  17.645250 90.909332 42.160957  0.762637 -0.094947 0.639820  0.013688 0.019516 1 1 1.000000
0  17.865473 90.591736 41.843021  0.767395 -0.094420 0.634184  0.013688 0.019516 1 1 1.000000
skin_0
0  27.087252 97.034241 42.586285  0.019549 -0.201854 0.979221  0.013688 0.019516 1 1 1.000000
0  27.816734 95.949310 42.353199  -0.072849 -0.196025 0.977889  0.013688 0.019516 1 1 1.000000
0  27.692858 96.721275 42.531273  -0.041501 -0.233633 0.971439  0.013688 0.019516 1 1 1.000000
skin_0
0  17.865473 90.591736 41.843021  0.038609 -0.164759 0.985578  0.013688 0.019516 1 1 1.000000
0  28.215885 89.491554 41.152660  0.046426 -0.179803 0.982606  0.013688 0.019516 1 1 1.000000
0  27.816734 95.949310 42.353199  -0.072849 -0.196025 0.977889  0.013688 0.019516 1 1 1.000000
skin_0
0  27.816734 95.949310 42.353199  -0.072849 -0.196025 0.977889  0.013688 0.019516 1 1 1.000000
0  17.810417 97.132454 42.885025  0.149648 -0.151047 0.977134  0.013688 0.019516 1 1 1.000000
0  17.865473 90.591736 41.843021  0.038609 -0.164759 0.985578  0.013688 0.019516 1 1 1.000000
skin_0
0  28.711384 89.503548 41.015549  -0.090766 -0.980816 -0.172518  0.013688 0.019516 1 1 1.000000
0  32.289982 89.057236 40.589642  0.188912 -0.976839 0.100490  0.013688 0.019516 1 1 1.000000
0  32.083527 89.062378 41.004581  0.103593 -0.971390 0.213704  0.013688 0.019516 1 1 1.000000
skin_0
0  32.083527 89.062378 41.004581  0.103593 -0.971390 0.213704  0.013688 0.019516 1 1 1.000000
0  28.601274 89.420425 41.491852  -0.084014 -0.981700 -0.170900  0.013688 0.019516 1 1 1.000000
0  28.711384 89.503548 41.015549  -0.090766 -0.980816 -0.172518  0.013688 0.019516 1 1 1.000000
skin_0
0  -0.013768 100.031227 43.705109  0.000008 0.428537 0.903524  0.013688 0.019516 1 1 1.000000
0  -0.013768 99.852982 43.689514  0.000152 -0.136319 0.990665  0.013688 0.019516 1 1 1.000000
0  6.854392 99.789230 43.628666  0.016664 -0.140160 0.989989  0.013688 0.019516 1 1 1.000000
skin_0
0  6.854392 99.789230 43.628666  0.016664 -0.140160 0.989989  0.013688 0.019516 1 1 1.000000
0  6.854392 99.966270 43.657970  0.033360 0.429439 0.902479  0.013688 0.019516 1 1 1.000000
0  -0.013768 100.031227 43.705109  0.000008 0.428537 0.903524  0.013688 0.019516 1 1 1.000000
skin_0
0  6.854392 99.789230 43.628666  0.016664 -0.140160 0.989989  0.013688 0.019516 1 1 1.000000
0  13.997829 99.368446 43.384609  0.026945 -0.152529 0.987932  0.013688 0.019516 1 1 1.000000
0  14.039121 99.559219 43.415115  0.066005 0.421827 0.904271  0.013688 0.019516 1 1 1.000000
skin_0
0  14.039121 99.559219 43.415115  0.066005 0.421827 0.904271  0.013688 0.019516 1 1 1.000000
0  6.854392 99.966270 43.657970  0.033360 0.429439 0.902479  0.013688 0.019516 1 1 1.000000
0  6.854392 99.789230 43.628666  0.016664 -0.140160 0.989989  0.013688 0.019516 1 1 1.000000
skin_0
0  13.997829 99.368446 43.384609  0.026945 -0.152529 0.987932  0.013688 0.019516 1 1 1.000000
0  21.017393 98.786743 43.085022  0.039040 -0.147434 0.988301  0.013688 0.019516 1 1 1.000000
0  21.017393 98.951279 43.099415  0.094648 0.432689 0.896561  0.013688 0.019516 1 1 1.000000
skin_0
0  21.017393 98.951279 43.099415  0.094648 0.432689 0.896561  0.013688 0.019516 1 1 1.000000
0  14.039121 99.559219 43.415115  0.066005 0.421827 0.904271  0.013688 0.019516 1 1 1.000000
0  13.997829 99.368446 43.384609  0.026945 -0.152529 0.987932  0.013688 0.019516 1 1 1.000000
skin_0
0  21.017393 98.786743 43.085022  0.039040 -0.147434 0.988301  0.013688 0.019516 1 1 1.000000
0  27.114779 98.005363 42.698879  0.049952 -0.093892 0.994328  0.013688 0.019516 1 1 1.000000
0  27.128542 98.169891 42.713272  0.122112 0.434251 0.892477  0.013688 0.019516 1 1 1.000000
skin_0
0  27.128542 98.169891 42.713272  0.122112 0.434251 0.892477  0.013688 0.019516 1 1 1.000000
0  21.017393 98.951279 43.099415  0.094648 0.432689 0.896561  0.013688 0.019516 1 1 1.000000
0  21.017393 98.786743 43.085022  0.039040 -0.147434 0.988301  0.013688 0.019516 1 1 1.000000
skin_0
0  27.114779 98.005363 42.698879  0.049952 -0.093892 0.994328  0.013688 0.019516 1 1 1.000000
0  30.555742 97.473686 42.458931  0.069550 -0.114641 0.990969  0.013688 0.019516 1 1 1.000000
0  30.789726 97.585785 42.441101  0.216187 0.427187 0.877937  0.013688 0.019516 1 1 1.000000
skin_0
0  30.789726 97.585785 42.441101  0.216187 0.427187 0.877937  0.013688 0.019516 1 1 1.000000
0  27.128542 98.169891 42.713272  0.122112 0.434251 0.892477  0.013688 0.019516 1 1 1.000000
0  27.114779 98.005363 42.698879  0.049952 -0.093892 0.994328  0.013688 0.019516 1 1 1.000000
skin_0
0  31.464155 97.235283 42.341358  0.408397 0.276195 0.870016  0.013688 0.019516 1 1 1.000000
0  30.789726 97.585785 42.441101  0.216187 0.427187 0.877937  0.013688 0.019516 1 1 1.000000
0  30.555742 97.473686 42.458931  0.069550 -0.114641 0.990969  0.013688 0.019516 1 1 1.000000
skin_0
0  30.555742 97.473686 42.458931  0.069550 -0.114641 0.990969  0.013688 0.019516 1 1 1.000000
0  31.243933 97.096970 42.343075  0.083256 -0.143437 0.986151  0.013688 0.019516 1 1 1.000000
0  31.464155 97.235283 42.341358  0.408397 0.276195 0.870016  0.013688 0.019516 1 1 1.000000
skin_0
0  31.877069 96.596832 42.216423  0.548092 0.044412 0.835238  0.013688 0.019516 1 1 1.000000
0  31.464155 97.235283 42.341358  0.408397 0.276195 0.870016  0.013688 0.019516 1 1 1.000000
0  31.243933 97.096970 42.343075  0.083256 -0.143437 0.986151  0.013688 0.019516 1 1 1.000000
skin_0
0  31.243933 97.096970 42.343075  0.083256 -0.143437 0.986151  0.013688 0.019516 1 1 1.000000
0  31.670612 96.485947 42.220535  0.086963 -0.137050 0.986739  0.013688 0.019516 1 1 1.000000
0  31.877069 96.596832 42.216423  0.548092 0.044412 0.835238  0.013688 0.019516 1 1 1.000000
skin_0
0  31.670612 96.485947 42.220535  0.086963 -0.137050 0.986739  0.013688 0.019516 1 1 1.000000
0  32.358807 89.529083 41.197395  0.077512 -0.147294 0.986051  0.013688 0.019516 1 1 1.000000
0  32.592789 89.626266 41.192078  0.591079 -0.170946 0.788291  0.013688 0.019516 1 1 1.000000
skin_0
0  32.592789 89.626266 41.192078  0.591079 -0.170946 0.788291  0.013688 0.019516 1 1 1.000000
0  31.877069 96.596832 42.216423  0.548092 0.044412 0.835238  0.013688 0.019516 1 1 1.000000
0  31.670612 96.485947 42.220535  0.086963 -0.137050 0.986739  0.013688 0.019516 1 1 1.000000
skin_0
0  32.069763 89.308510 41.191917  0.080236 -0.167551 0.982593  0.013688 0.019516 1 1 1.000000
0  32.000946 89.117737 41.161404  0.091187 -0.664063 0.742095  0.013688 0.019516 1 1 1.000000
0  32.413860 89.270973 41.147179  0.388373 -0.506344 0.769924  0.013688 0.019516 1 1 1.000000
skin_0
0  32.111057 96.789650 41.749714  0.907437 0.419102 -0.030201  0.013688 0.019516 1 1 1.000000
0  32.579025 94.035698 41.011383  0.911843 0.041138 0.408472  0.013688 0.019516 1 1 1.000000
0  32.537735 94.422699 40.851810  0.983855 0.178922 -0.004128  0.013688 0.019516 1 1 1.000000
skin_0
0  32.661610 89.570900 41.035255  0.858213 -0.230793 0.458482  0.013688 0.019516 1 1 1.000000
0  31.959650 96.664886 42.070396  0.825752 0.201270 0.526901  0.013688 0.019516 1 1 1.000000
0  31.877069 96.596832 42.216423  0.548092 0.044412 0.835238  0.013688 0.019516 1 1 1.000000
skin_0
0  31.877069 96.596832 42.216423  0.548092 0.044412 0.835238  0.013688 0.019516 1 1 1.000000
0  32.592789 89.626266 41.192078  0.591079 -0.170946 0.788291  0.013688 0.019516 1 1 1.000000
0  32.661610 89.570900 41.035255  0.858213 -0.230793 0.458482  0.013688 0.019516 1 1 1.000000
skin_0
0  6.854392 100.194221 43.263428  0.039562 0.867904 0.495154  0.013688 0.019516 1 1 1.000000
0  -0.013768 100.271690 43.325470  0.000002 0.867546 0.497356  0.013688 0.019516 1 1 1.000000
0  -0.013768 100.125496 43.575188  -0.000003 0.855474 0.517847  0.013688 0.019516 1 1 1.000000
skin_0
0  -0.013768 100.125496 43.575188  -0.000003 0.855474 0.517847  0.013688 0.019516 1 1 1.000000
0  6.854392 100.048027 43.513145  0.039521 0.855376 0.516498  0.013688 0.019516 1 1 1.000000
0  6.854392 100.194221 43.263428  0.039562 0.867904 0.495154  0.013688 0.019516 1 1 1.000000
skin_0
0  14.039121 99.640968 43.270287  0.081582 0.854795 0.512514  0.013688 0.019516 1 1 1.000000
0  14.039121 99.559219 43.415115  0.066005 0.421827 0.904271  0.013688 0.019516 1 1 1.000000
0  21.017393 98.951279 43.099415  0.094648 0.432689 0.896561  0.013688 0.019516 1 1 1.000000
skin_0
0  21.017393 98.951279 43.099415  0.094648 0.432689 0.896561  0.013688 0.019516 1 1 1.000000
0  21.017393 99.033035 42.954590  0.118992 0.854315 0.505951  0.013688 0.019516 1 1 1.000000
0  14.039121 99.640968 43.270287  0.081582 0.854795 0.512514  0.013688 0.019516 1 1 1.000000
skin_0
0  27.128542 98.250443 42.582153  0.156072 0.848256 0.506066  0.013688 0.019516 1 1 1.000000
0  27.128542 98.169891 42.713272  0.122112 0.434251 0.892477  0.013688 0.019516 1 1 1.000000
0  30.789726 97.585785 42.441101  0.216187 0.427187 0.877937  0.013688 0.019516 1 1 1.000000
skin_0
0  30.789726 97.585785 42.441101  0.216187 0.427187 0.877937  0.013688 0.019516 1 1 1.000000
0  30.886074 97.652626 42.308792  0.319421 0.791571 0.520946  0.013688 0.019516 1 1 1.000000
0  27.128542 98.250443 42.582153  0.156072 0.848256 0.506066  0.013688 0.019516 1 1 1.000000
skin_0
0  6.854392 100.048027 43.513145  0.039521 0.855376 0.516498  0.013688 0.019516 1 1 1.000000
0  6.854392 99.966270 43.657970  0.033360 0.429439 0.902479  0.013688 0.019516 1 1 1.000000
0  14.039121 99.559219 43.415115  0.066005 0.421827 0.904271  0.013688 0.019516 1 1 1.000000
skin_0
0  14.039121 99.559219 43.415115  0.066005 0.421827 0.904271  0.013688 0.019516 1 1 1.000000
0  14.039121 99.640968 43.270287  0.081582 0.854795 0.512514  0.013688 0.019516 1 1 1.000000
0  6.854392 100.048027 43.513145  0.039521 0.855376 0.516498  0.013688 0.019516 1 1 1.000000
skin_0
0  21.017393 99.033035 42.954590  0.118992 0.854315 0.505951  0.013688 0.019516 1 1 1.000000
0  21.017393 98.951279 43.099415  0.094648 0.432689 0.896561  0.013688 0.019516 1 1 1.000000
0  27.128542 98.169891 42.713272  0.122112 0.434251 0.892477  0.013688 0.019516 1 1 1.000000
skin_0
0  27.128542 98.169891 42.713272  0.122112 0.434251 0.892477  0.013688 0.019516 1 1 1.000000
0  27.128542 98.250443 42.582153  0.156072 0.848256 0.506066  0.013688 0.019516 1 1 1.000000
0  21.017393 99.033035 42.954590  0.118992 0.854315 0.505951  0.013688 0.019516 1 1 1.000000
skin_0
0  30.886074 97.652626 42.308792  0.319421 0.791571 0.520946  0.013688 0.019516 1 1 1.000000
0  30.789726 97.585785 42.441101  0.216187 0.427187 0.877937  0.013688 0.019516 1 1 1.000000
0  31.464155 97.235283 42.341358  0.408397 0.276195 0.870016  0.013688 0.019516 1 1 1.000000
skin_0
0  31.464155 97.235283 42.341358  0.408397 0.276195 0.870016  0.013688 0.019516 1 1 1.000000
0  31.546740 97.303322 42.195332  0.614080 0.550731 0.565333  0.013688 0.019516 1 1 1.000000
0  30.886074 97.652626 42.308792  0.319421 0.791571 0.520946  0.013688 0.019516 1 1 1.000000
skin_0
0  31.546740 97.303322 42.195332  0.614080 0.550731 0.565333  0.013688 0.019516 1 1 1.000000
0  31.464155 97.235283 42.341358  0.408397 0.276195 0.870016  0.013688 0.019516 1 1 1.000000
0  31.877069 96.596832 42.216423  0.548092 0.044412 0.835238  0.013688 0.019516 1 1 1.000000
skin_0
0  31.877069 96.596832 42.216423  0.548092 0.044412 0.835238  0.013688 0.019516 1 1 1.000000
0  31.959650 96.664886 42.070396  0.825752 0.201270 0.526901  0.013688 0.019516 1 1 1.000000
0  31.546740 97.303322 42.195332  0.614080 0.550731 0.565333  0.013688 0.019516 1 1 1.000000
skin_0
0  32.289982 89.057236 40.589642  0.188912 -0.976839 0.100490  0.013688 0.019516 1 1 1.000000
0  32.689137 89.197945 40.560505  0.665819 -0.667172 0.334015  0.013688 0.019516 1 1 1.000000
0  32.482677 89.201889 40.989155  0.568101 -0.725017 0.389373  0.013688 0.019516 1 1 1.000000
skin_0
0  32.482677 89.201889 40.989155  0.568101 -0.725017 0.389373  0.013688 0.019516 1 1 1.000000
0  32.083527 89.062378 41.004581  0.103593 -0.971390 0.213704  0.013688 0.019516 1 1 1.000000
0  32.289982 89.057236 40.589642  0.188912 -0.976839 0.100490  0.013688 0.019516 1 1 1.000000
skin_0
0  32.689137 89.197945 40.560505  0.665819 -0.667172 0.334015  0.013688 0.019516 1 1 1.000000
0  32.881832 89.569359 40.579182  0.878087 -0.209950 0.429981  0.013688 0.019516 1 1 1.000000
0  32.661610 89.570900 41.035255  0.858213 -0.230793 0.458482  0.013688 0.019516 1 1 1.000000
skin_0
0  32.661610 89.570900 41.035255  0.858213 -0.230793 0.458482  0.013688 0.019516 1 1 1.000000
0  32.482677 89.201889 40.989155  0.568101 -0.725017 0.389373  0.013688 0.019516 1 1 1.000000
0  32.689137 89.197945 40.560505  0.665819 -0.667172 0.334015  0.013688 0.019516 1 1 1.000000
skin_0
0  31.959650 96.664886 42.070396  0.825752 0.201270 0.526901  0.013688 0.019516 1 1 1.000000
0  32.579025 94.035698 41.011383  0.911843 0.041138 0.408472  0.013688 0.019516 1 1 1.000000
0  32.111057 96.789650 41.749714  0.907437 0.419102 -0.030201  0.013688 0.019516 1 1 1.000000
skin_0
0  28.601274 89.420425 41.491852  -0.084014 -0.981700 -0.170900  0.013688 0.019516 1 1 1.000000
0  32.083527 89.062378 41.004581  0.103593 -0.971390 0.213704  0.013688 0.019516 1 1 1.000000
0  32.000946 89.117737 41.161404  0.091187 -0.664063 0.742095  0.013688 0.019516 1 1 1.000000
skin_0
0  15.897241 98.077858 43.133533  0.035436 -0.111370 0.993147  0.013688 0.019516 1 1 1.000000
0  17.906763 97.879379 43.033268  0.034708 -0.140262 0.989506  0.013688 0.019516 1 1 1.000000
0  18.512371 98.058838 43.035152  0.030660 -0.161162 0.986452  0.013688 0.019516 1 1 1.000000
skin_0
0  18.512371 98.058838 43.035152  0.030660 -0.161162 0.986452  0.013688 0.019516 1 1 1.000000
0  15.332924 98.378311 43.173634  0.028689 -0.159451 0.986789  0.013688 0.019516 1 1 1.000000
0  15.897241 98.077858 43.133533  0.035436 -0.111370 0.993147  0.013688 0.019516 1 1 1.000000
skin_0
0  17.906763 97.879379 43.033268  0.069970 -0.194840 0.978336  0.013688 0.019516 1 1 1.000000
0  17.810417 97.132454 42.885025  0.149648 -0.151047 0.977134  0.013688 0.019516 1 1 1.000000
0  18.512371 98.058838 43.035152  0.033503 -0.183141 0.982516  0.013688 0.019516 1 1 1.000000
skin_0
0  15.897241 98.077858 43.133533  -0.029499 -0.208351 0.977609  0.013688 0.019516 1 1 1.000000
0  15.966060 97.318413 42.970375  -0.053958 -0.169879 0.983987  0.013688 0.019516 1 1 1.000000
0  16.255100 97.682625 43.071323  -0.105474 -0.195670 0.974981  0.013688 0.019516 1 1 1.000000
skin_0
0  27.692858 96.721275 42.531273  -0.041501 -0.233633 0.971439  0.013688 0.019516 1 1 1.000000
0  27.816734 95.949310 42.353199  -0.072849 -0.196025 0.977889  0.013688 0.019516 1 1 1.000000
0  28.050720 96.271202 42.464264  -0.149061 -0.228421 0.962083  0.013688 0.019516 1 1 1.000000
skin_0
0  17.810417 97.132454 42.885025  0.149648 -0.151047 0.977134  0.013688 0.019516 1 1 1.000000
0  27.816734 95.949310 42.353199  -0.072849 -0.196025 0.977889  0.013688 0.019516 1 1 1.000000
0  27.087252 97.034241 42.586285  0.019549 -0.201854 0.979221  0.013688 0.019516 1 1 1.000000
skin_0
0  27.087252 97.034241 42.586285  0.019549 -0.201854 0.979221  0.013688 0.019516 1 1 1.000000
0  18.512371 98.058838 43.035152  0.033503 -0.183141 0.982516  0.013688 0.019516 1 1 1.000000
0  17.810417 97.132454 42.885025  0.149648 -0.151047 0.977134  0.013688 0.019516 1 1 1.000000
skin_0
0  6.840629 98.849136 43.477337  0.013704 -0.158540 0.987257  0.013688 0.019516 1 1 1.000000
0  15.966060 97.318413 42.970375  -0.053958 -0.169879 0.983987  0.013688 0.019516 1 1 1.000000
0  15.332924 98.378311 43.173634  0.016211 -0.187521 0.982127  0.013688 0.019516 1 1 1.000000
skin_0
0  27.692858 96.721275 42.531273  0.051714 -0.108493 0.992751  0.013688 0.019516 1 1 1.000000
0  30.555742 97.473686 42.458931  0.069550 -0.114641 0.990969  0.013688 0.019516 1 1 1.000000
0  27.114779 98.005363 42.698879  0.049952 -0.093892 0.994328  0.013688 0.019516 1 1 1.000000
skin_0
0  27.114779 98.005363 42.698879  0.049952 -0.093892 0.994328  0.013688 0.019516 1 1 1.000000
0  27.087252 97.034241 42.586285  0.037428 -0.113320 0.992853  0.013688 0.019516 1 1 1.000000
0  27.692858 96.721275 42.531273  0.051714 -0.108493 0.992751  0.013688 0.019516 1 1 1.000000
skin_0
0  32.592789 89.626266 41.192078  0.591079 -0.170946 0.788291  0.013688 0.019516 1 1 1.000000
0  32.358807 89.529083 41.197395  0.077512 -0.147294 0.986051  0.013688 0.019516 1 1 1.000000
0  32.413860 89.270973 41.147179  0.388373 -0.506344 0.769924  0.013688 0.019516 1 1 1.000000
skin_0
0  32.413860 89.270973 41.147179  0.388373 -0.506344 0.769924  0.013688 0.019516 1 1 1.000000
0  32.358807 89.529083 41.197395  0.077512 -0.147294 0.986051  0.013688 0.019516 1 1 1.000000
0  32.069763 89.308510 41.191917  0.080236 -0.167551 0.982593  0.013688 0.019516 1 1 1.000000
skin_0
0  32.537735 94.422699 40.851810  -0.167303 -0.526329 -0.833659  0.013688 0.019516 1 1 1.000000
0  28.325994 95.353203 41.112835  -0.045977 -0.456272 -0.888652  0.013688 0.019516 1 1 1.000000
0  32.331280 94.847412 40.419209  -0.203316 -0.754255 -0.624310  0.013688 0.019516 1 1 1.000000
skin_0
0  32.579025 94.035698 41.011383  -0.087959 -0.116026 -0.989344  0.013688 0.019516 1 1 1.000000
0  28.325994 95.353203 41.112835  -0.045977 -0.456272 -0.888652  0.013688 0.019516 1 1 1.000000
0  32.537735 94.422699 40.851810  -0.167303 -0.526329 -0.833659  0.013688 0.019516 1 1 1.000000
skin_0
0  31.877069 95.174255 40.157661  -0.203692 -0.764655 -0.611402  0.013688 0.019516 1 1 1.000000
0  28.325994 95.353203 41.112835  -0.045977 -0.456272 -0.888652  0.013688 0.019516 1 1 1.000000
0  31.298986 95.384735 40.120811  -0.212301 -0.729705 -0.649968  0.013688 0.019516 1 1 1.000000
skin_0
0  32.331280 94.847412 40.419209  -0.203316 -0.754255 -0.624310  0.013688 0.019516 1 1 1.000000
0  28.325994 95.353203 41.112835  -0.045977 -0.456272 -0.888652  0.013688 0.019516 1 1 1.000000
0  31.877069 95.174255 40.157661  -0.203692 -0.764655 -0.611402  0.013688 0.019516 1 1 1.000000
skin_0
0  28.394815 96.121536 40.226719  0.641703 -0.603432 -0.473378  0.013688 0.019516 1 1 1.000000
0  28.325994 95.353203 41.112835  -0.045977 -0.456272 -0.888652  0.013688 0.019516 1 1 1.000000
0  28.367289 95.958885 40.032879  0.991439 -0.124793 -0.038403  0.013688 0.019516 1 1 1.000000
skin_0
0  31.298986 95.384735 40.120811  -0.212301 -0.729705 -0.649968  0.013688 0.019516 1 1 1.000000
0  28.325994 95.353203 41.112835  -0.045977 -0.456272 -0.888652  0.013688 0.019516 1 1 1.000000
0  28.394815 96.121536 40.226719  0.641703 -0.603432 -0.473378  0.013688 0.019516 1 1 1.000000
skin_0
0  28.711384 89.503548 41.015549  0.243156 0.058238 -0.968237  0.013688 0.019516 1 1 1.000000
0  28.325994 95.353203 41.112835  -0.045977 -0.456272 -0.888652  0.013688 0.019516 1 1 1.000000
0  32.579025 94.035698 41.011383  -0.087959 -0.116026 -0.989344  0.013688 0.019516 1 1 1.000000
skin_0
0  32.579025 94.035698 41.011383  -0.087959 -0.116026 -0.989344  0.013688 0.019516 1 1 1.000000
0  32.689137 89.197945 40.560505  -0.099565 0.097250 -0.990267  0.013688 0.019516 1 1 1.000000
0  28.711384 89.503548 41.015549  0.243156 0.058238 -0.968237  0.013688 0.019516 1 1 1.000000
skin_0
0  28.339758 89.568672 40.744919  0.604590 0.051292 -0.794884  0.013688 0.019516 1 1 1.000000
0  28.325994 95.353203 41.112835  -0.045977 -0.456272 -0.888652  0.013688 0.019516 1 1 1.000000
0  28.711384 89.503548 41.015549  0.243156 0.058238 -0.968237  0.013688 0.019516 1 1 1.000000
skin_0
0  32.689137 89.197945 40.560505  -0.099565 0.097250 -0.990267  0.013688 0.019516 1 1 1.000000
0  32.579025 94.035698 41.011383  -0.087959 -0.116026 -0.989344  0.013688 0.019516 1 1 1.000000
0  32.881832 89.569359 40.579182  -0.079893 0.088510 -0.992866  0.013688 0.019516 1 1 1.000000
skin_0
0  28.711384 89.503548 41.015549  0.243156 0.058238 -0.968237  0.013688 0.019516 1 1 1.000000
0  32.689137 89.197945 40.560505  -0.099565 0.097250 -0.990267  0.013688 0.019516 1 1 1.000000
0  32.289982 89.057236 40.589642  -0.101001 0.142278 -0.984660  0.013688 0.019516 1 1 1.000000
skin_0
0  -6.868165 98.849136 43.477337  -0.017675 -0.157459 0.987367  0.013688 0.019516 1 1 1.000000
0  -8.616173 91.333176 42.211853  -0.022463 -0.159517 0.986940  0.013688 0.019516 1 1 1.000000
0  -0.013768 91.579308 42.399185  0.001939 -0.156957 0.987603  0.013688 0.019516 1 1 1.000000
skin_0
0  -0.013768 91.579308 42.399185  0.001939 -0.156957 0.987603  0.013688 0.019516 1 1 1.000000
0  -0.013768 98.939110 43.554291  0.001346 -0.154925 0.987925  0.013688 0.019516 1 1 1.000000
0  -6.868165 98.849136 43.477337  -0.017675 -0.157459 0.987367  0.013688 0.019516 1 1 1.000000
skin_0
0  -0.013768 98.939110 43.554291  0.001346 -0.154925 0.987925  0.013688 0.019516 1 1 1.000000
0  -0.013768 91.579308 42.399185  0.001939 -0.156957 0.987603  0.013688 0.019516 1 1 1.000000
0  8.588637 91.333176 42.211853  0.019294 -0.160079 0.986916  0.013688 0.019516 1 1 1.000000
skin_0
0  8.588637 91.333176 42.211853  0.019294 -0.160079 0.986916  0.013688 0.019516 1 1 1.000000
0  6.840629 98.849136 43.477337  0.013704 -0.158540 0.987257  0.013688 0.019516 1 1 1.000000
0  -0.013768 98.939110 43.554291  0.001346 -0.154925 0.987925  0.013688 0.019516 1 1 1.000000
skin_0
0  -15.993597 97.318413 42.970375  0.054979 -0.170576 0.983810  0.013688 0.019516 1 1 1.000000
0  -16.089943 90.762779 41.940887  -0.023999 -0.154749 0.987662  0.013688 0.019516 1 1 1.000000
0  -8.616173 91.333176 42.211853  -0.022463 -0.159517 0.986940  0.013688 0.019516 1 1 1.000000
skin_0
0  -8.616173 91.333176 42.211853  -0.022463 -0.159517 0.986940  0.013688 0.019516 1 1 1.000000
0  -6.868165 98.849136 43.477337  -0.017675 -0.157459 0.987367  0.013688 0.019516 1 1 1.000000
0  -15.993597 97.318413 42.970375  0.054979 -0.170576 0.983810  0.013688 0.019516 1 1 1.000000
skin_0
0  6.840629 98.849136 43.477337  0.013704 -0.158540 0.987257  0.013688 0.019516 1 1 1.000000
0  8.588637 91.333176 42.211853  0.019294 -0.160079 0.986916  0.013688 0.019516 1 1 1.000000
0  16.062408 90.762779 41.940887  0.026548 -0.157297 0.987194  0.013688 0.019516 1 1 1.000000
skin_0
0  16.062408 90.762779 41.940887  0.026548 -0.157297 0.987194  0.013688 0.019516 1 1 1.000000
0  15.966060 97.318413 42.970375  -0.053958 -0.169879 0.983987  0.013688 0.019516 1 1 1.000000
0  6.840629 98.849136 43.477337  0.013704 -0.158540 0.987257  0.013688 0.019516 1 1 1.000000
skin_0
0  -10.763334 98.562538 40.910042  -0.031315 0.836594 -0.546928  0.013688 0.019516 1 1 1.000000
0  -6.881928 100.194221 43.263428  -0.021648 0.842119 -0.538858  0.013688 0.019516 1 1 1.000000
0  -6.069862 99.331070 41.916798  -0.041817 0.822780 -0.566819  0.013688 0.019516 1 1 1.000000
skin_0
0  -6.069862 99.331070 41.916798  -0.041817 0.822780 -0.566819  0.013688 0.019516 1 1 1.000000
0  -5.945987 98.678734 41.003105  0.396131 0.741903 -0.540980  0.013688 0.019516 1 1 1.000000
0  -10.763334 98.562538 40.910042  -0.031315 0.836594 -0.546928  0.013688 0.019516 1 1 1.000000
skin_0
0  -0.013768 99.672493 42.278263  -0.001553 0.867809 -0.496896  0.013688 0.019516 1 1 1.000000
0  -0.013768 99.601021 42.147663  -0.000300 0.687880 -0.725824  0.013688 0.019516 1 1 1.000000
0  -5.629418 99.494919 42.096931  0.033045 0.732410 -0.680062  0.013688 0.019516 1 1 1.000000
skin_0
0  -5.629418 99.494919 42.096931  0.033045 0.732410 -0.680062  0.013688 0.019516 1 1 1.000000
0  -5.698238 99.567604 42.213821  -0.032044 0.844044 -0.535316  0.013688 0.019516 1 1 1.000000
0  -0.013768 99.672493 42.278263  -0.001553 0.867809 -0.496896  0.013688 0.019516 1 1 1.000000
skin_0
0  -5.945987 99.283424 41.829727  0.131609 0.735977 -0.664091  0.013688 0.019516 1 1 1.000000
0  -6.069862 99.331070 41.916798  -0.041817 0.822780 -0.566819  0.013688 0.019516 1 1 1.000000
0  -5.698238 99.567604 42.213821  -0.032044 0.844044 -0.535316  0.013688 0.019516 1 1 1.000000
skin_0
0  -5.698238 99.567604 42.213821  -0.032044 0.844044 -0.535316  0.013688 0.019516 1 1 1.000000
0  -5.629418 99.494919 42.096931  0.033045 0.732410 -0.680062  0.013688 0.019516 1 1 1.000000
0  -5.945987 99.283424 41.829727  0.131609 0.735977 -0.664091  0.013688 0.019516 1 1 1.000000
skin_0
0  6.042325 99.331070 41.916798  0.043606 0.822524 -0.567057  0.013688 0.019516 1 1 1.000000
0  6.854392 100.194221 43.263428  0.022709 0.842341 -0.538467  0.013688 0.019516 1 1 1.000000
0  10.735797 98.562538 40.910042  0.030673 0.836328 -0.547370  0.013688 0.019516 1 1 1.000000
skin_0
0  10.735797 98.562538 40.910042  0.030673 0.836328 -0.547370  0.013688 0.019516 1 1 1.000000
0  5.918451 98.678734 41.003105  -0.396205 0.741901 -0.540929  0.013688 0.019516 1 1 1.000000
0  6.042325 99.331070 41.916798  0.043606 0.822524 -0.567057  0.013688 0.019516 1 1 1.000000
skin_0
0  5.670702 99.567604 42.213821  0.033576 0.843275 -0.536433  0.013688 0.019516 1 1 1.000000
0  5.601882 99.494919 42.096931  -0.036373 0.731706 -0.680649  0.013688 0.019516 1 1 1.000000
0  -0.013768 99.601021 42.147663  -0.000300 0.687880 -0.725824  0.013688 0.019516 1 1 1.000000
skin_0
0  -0.013768 99.601021 42.147663  -0.000300 0.687880 -0.725824  0.013688 0.019516 1 1 1.000000
0  -0.013768 99.672493 42.278263  -0.001553 0.867809 -0.496896  0.013688 0.019516 1 1 1.000000
0  5.670702 99.567604 42.213821  0.033576 0.843275 -0.536433  0.013688 0.019516 1 1 1.000000
skin_0
0  6.042325 99.331070 41.916798  0.043606 0.822524 -0.567057  0.013688 0.019516 1 1 1.000000
0  5.918451 99.283424 41.829727  -0.133268 0.734149 -0.665782  0.013688 0.019516 1 1 1.000000
0  5.601882 99.494919 42.096931  -0.036373 0.731706 -0.680649  0.013688 0.019516 1 1 1.000000
skin_0
0  5.601882 99.494919 42.096931  -0.036373 0.731706 -0.680649  0.013688 0.019516 1 1 1.000000
0  5.670702 99.567604 42.213821  0.033576 0.843275 -0.536433  0.013688 0.019516 1 1 1.000000
0  6.042325 99.331070 41.916798  0.043606 0.822524 -0.567057  0.013688 0.019516 1 1 1.000000
skin_0
0  -0.013768 99.428764 42.063507  -0.000005 0.441531 -0.897246  0.013688 0.019516 1 1 1.000000
0  -0.013768 98.515068 41.610527  -0.000457 0.442191 -0.896921  0.013688 0.019516 1 1 1.000000
0  -5.202739 98.408966 41.559795  0.141433 0.477717 -0.867054  0.013688 0.019516 1 1 1.000000
skin_0
0  -5.202739 98.408966 41.559795  0.141433 0.477717 -0.867054  0.013688 0.019516 1 1 1.000000
0  -5.560599 99.322670 42.012779  0.170881 0.485756 -0.857228  0.013688 0.019516 1 1 1.000000
0  -0.013768 99.428764 42.063507  -0.000005 0.441531 -0.897246  0.013688 0.019516 1 1 1.000000
skin_0
0  -5.560599 99.322670 42.012779  0.170881 0.485756 -0.857228  0.013688 0.019516 1 1 1.000000
0  -5.202739 98.408966 41.559795  0.141433 0.477717 -0.867054  0.013688 0.019516 1 1 1.000000
0  -5.698238 98.479408 41.386345  0.603671 0.510848 -0.612059  0.013688 0.019516 1 1 1.000000
skin_0
0  -5.698238 98.479408 41.386345  0.603671 0.510848 -0.612059  0.013688 0.019516 1 1 1.000000
0  -5.890932 99.112373 41.731865  0.624789 0.509940 -0.591269  0.013688 0.019516 1 1 1.000000
0  -5.560599 99.322670 42.012779  0.170881 0.485756 -0.857228  0.013688 0.019516 1 1 1.000000
skin_0
0  5.533062 99.322670 42.012779  -0.168833 0.484893 -0.858123  0.013688 0.019516 1 1 1.000000
0  5.175203 98.408966 41.559795  -0.138955 0.478682 -0.866923  0.013688 0.019516 1 1 1.000000
0  -0.013768 98.515068 41.610527  -0.000457 0.442191 -0.896921  0.013688 0.019516 1 1 1.000000
skin_0
0  -0.013768 98.515068 41.610527  -0.000457 0.442191 -0.896921  0.013688 0.019516 1 1 1.000000
0  -0.013768 99.428764 42.063507  -0.000005 0.441531 -0.897246  0.013688 0.019516 1 1 1.000000
0  5.533062 99.322670 42.012779  -0.168833 0.484893 -0.858123  0.013688 0.019516 1 1 1.000000
skin_0
0  5.863395 99.112373 41.731865  -0.627742 0.507859 -0.589931  0.013688 0.019516 1 1 1.000000
0  5.670702 98.479408 41.386345  -0.605418 0.513596 -0.608020  0.013688 0.019516 1 1 1.000000
0  5.175203 98.408966 41.559795  -0.138955 0.478682 -0.866923  0.013688 0.019516 1 1 1.000000
skin_0
0  5.175203 98.408966 41.559795  -0.138955 0.478682 -0.866923  0.013688 0.019516 1 1 1.000000
0  5.533062 99.322670 42.012779  -0.168833 0.484893 -0.858123  0.013688 0.019516 1 1 1.000000
0  5.863395 99.112373 41.731865  -0.627742 0.507859 -0.589931  0.013688 0.019516 1 1 1.000000
skin_0
0  -5.945987 98.678734 41.003105  0.396131 0.741903 -0.540980  0.013688 0.019516 1 1 1.000000
0  -5.945987 99.283424 41.829727  0.131609 0.735977 -0.664091  0.013688 0.019516 1 1 1.000000
0  -5.890932 99.112373 41.731865  0.624789 0.509940 -0.591269  0.013688 0.019516 1 1 1.000000
skin_0
0  5.918451 98.678734 41.003105  -0.396205 0.741901 -0.540929  0.013688 0.019516 1 1 1.000000
0  5.670702 98.479408 41.386345  -0.605418 0.513596 -0.608020  0.013688 0.019516 1 1 1.000000
0  5.863395 99.112373 41.731865  -0.627742 0.507859 -0.589931  0.013688 0.019516 1 1 1.000000
skin_0
0  -17.617729 91.313469 42.279213  -0.024162 -0.203344 0.978809  0.013688 0.019516 1 1 1.000000
0  -17.672785 90.909332 42.160957  0.014106 -0.556333 0.830839  0.013688 0.019516 1 1 1.000000
0  -16.323929 91.029137 42.212887  0.013052 -0.537866 0.842929  0.013688 0.019516 1 1 1.000000
skin_0
0  -16.323929 91.029137 42.212887  0.013052 -0.537866 0.842929  0.013688 0.019516 1 1 1.000000
0  -16.406511 91.433281 42.331142  -0.025713 -0.196700 0.980127  0.013688 0.019516 1 1 1.000000
0  -17.617729 91.313469 42.279213  -0.024162 -0.203344 0.978809  0.013688 0.019516 1 1 1.000000
skin_0
0  16.296392 91.029137 42.212887  -0.013018 -0.537826 0.842955  0.013688 0.019516 1 1 1.000000
0  17.645250 90.909332 42.160957  -0.014139 -0.556333 0.830839  0.013688 0.019516 1 1 1.000000
0  17.590195 91.313469 42.279213  0.024137 -0.203389 0.978800  0.013688 0.019516 1 1 1.000000
skin_0
0  17.590195 91.313469 42.279213  0.024137 -0.203389 0.978800  0.013688 0.019516 1 1 1.000000
0  16.378977 91.433281 42.331142  0.025794 -0.196637 0.980137  0.013688 0.019516 1 1 1.000000
0  16.296392 91.029137 42.212887  -0.013018 -0.537826 0.842955  0.013688 0.019516 1 1 1.000000
end
