version 1
nodes
0 "blender_implicit" -1
1 "root" -1
2 "steering_wheel" 1
end
skeleton
time 0
0  0.000000 0.000000 0.000000  0.000000 -0.000000 0.000000
1  0.000000 0.000000 0.000000  1.570796 -0.000000 0.000000
2  14.039128 25.848495 17.617727  0.000000 -0.000000 0.000000
end
triangles
litoff
0  33.446159 -78.591576 21.333963  -0.526715 -0.850042 -0.000000  0.988311 0.487289 1 1 1.000000
0  33.143353 -78.591576 22.462599  -0.455815 -0.850529 -0.262361  0.962920 0.724601 1 1 1.000000
0  31.202652 -77.201431 21.333963  -0.000001 -1.000000 -0.000001  0.798853 0.487289 1 1 1.000000
litoff
0  33.143353 -78.591576 22.462599  -0.455815 -0.850529 -0.262361  0.962920 0.724601 1 1 1.000000
0  32.331291 -78.591576 23.288429  -0.263154 -0.851091 -0.454307  0.893582 0.898434 1 1 1.000000
0  31.202652 -77.201431 21.333963  -0.000001 -1.000000 -0.000001  0.798853 0.487289 1 1 1.000000
litoff
0  32.331291 -78.591576 23.288429  -0.263154 -0.851091 -0.454307  0.893582 0.898434 1 1 1.000000
0  31.202652 -78.591576 23.591234  -0.000000 -0.851478 -0.524390  0.798853 0.961913 1 1 1.000000
0  31.202652 -77.201431 21.333963  -0.000001 -1.000000 -0.000001  0.798853 0.487289 1 1 1.000000
litoff
0  31.202652 -78.591576 23.591234  -0.000000 -0.851478 -0.524390  0.798853 0.961913 1 1 1.000000
0  30.074015 -78.591576 23.288429  0.263291 -0.851166 -0.454087  0.704123 0.898434 1 1 1.000000
0  31.202652 -77.201431 21.333963  -0.000001 -1.000000 -0.000001  0.798853 0.487289 1 1 1.000000
litoff
0  30.074015 -78.591576 23.288429  0.263291 -0.851166 -0.454087  0.704123 0.898434 1 1 1.000000
0  29.261950 -78.591576 22.462599  0.455962 -0.850479 -0.262266  0.633808 0.724601 1 1 1.000000
0  31.202652 -77.201431 21.333963  -0.000001 -1.000000 -0.000001  0.798853 0.487289 1 1 1.000000
litoff
0  29.261950 -78.591576 22.462599  0.455962 -0.850479 -0.262266  0.633808 0.724601 1 1 1.000000
0  28.959145 -78.591576 21.333963  0.526714 -0.850043 -0.000000  0.608417 0.487289 1 1 1.000000
0  31.202652 -77.201431 21.333963  -0.000001 -1.000000 -0.000001  0.798853 0.487289 1 1 1.000000
litoff
0  28.959145 -78.591576 21.333963  0.526714 -0.850043 -0.000000  0.608417 0.487289 1 1 1.000000
0  29.261950 -78.591576 20.205328  0.455962 -0.850480 0.262263  0.633808 0.249977 1 1 1.000000
0  31.202652 -77.201431 21.333963  -0.000001 -1.000000 -0.000001  0.798853 0.487289 1 1 1.000000
litoff
0  29.261950 -78.591576 20.205328  0.455962 -0.850480 0.262263  0.633808 0.249977 1 1 1.000000
0  30.074015 -78.591576 19.379498  0.263972 -0.851444 0.453169  0.704123 0.076144 1 1 1.000000
0  31.202652 -77.201431 21.333963  -0.000001 -1.000000 -0.000001  0.798853 0.487289 1 1 1.000000
litoff
0  30.074015 -78.591576 19.379498  0.263972 -0.851444 0.453169  0.704123 0.076144 1 1 1.000000
0  31.202652 -78.591576 19.076693  -0.000000 -0.851479 0.524389  0.798853 0.012665 1 1 1.000000
0  31.202652 -77.201431 21.333963  -0.000001 -1.000000 -0.000001  0.798853 0.487289 1 1 1.000000
litoff
0  31.202652 -78.591576 19.076693  -0.000000 -0.851479 0.524389  0.798853 0.012665 1 1 1.000000
0  32.331291 -78.591576 19.379498  -0.263186 -0.851125 0.454223  0.893582 0.076144 1 1 1.000000
0  31.202652 -77.201431 21.333963  -0.000001 -1.000000 -0.000001  0.798853 0.487289 1 1 1.000000
litoff
0  32.331291 -78.591576 19.379498  -0.263186 -0.851125 0.454223  0.893582 0.076144 1 1 1.000000
0  33.143353 -78.591576 20.205328  -0.456775 -0.850197 0.261765  0.962920 0.249977 1 1 1.000000
0  31.202652 -77.201431 21.333963  -0.000001 -1.000000 -0.000001  0.798853 0.487289 1 1 1.000000
litoff
0  33.143353 -78.591576 20.205328  -0.456775 -0.850197 0.261765  0.962920 0.249977 1 1 1.000000
0  33.446159 -78.591576 21.333963  -0.526715 -0.850042 -0.000000  0.988311 0.487289 1 1 1.000000
0  31.202652 -77.201431 21.333963  -0.000001 -1.000000 -0.000001  0.798853 0.487289 1 1 1.000000
litoff
0  -33.143337 -78.591568 22.462601  0.456221 -0.850390 -0.262107  0.962920 0.724601 1 1 1.000000
0  -33.446144 -78.591568 21.333967  0.526712 -0.850044 -0.000000  0.988311 0.487289 1 1 1.000000
0  -31.202633 -77.201424 21.333967  -0.000000 -1.000000 -0.000001  0.798853 0.487289 1 1 1.000000
litoff
0  -33.446144 -78.591568 21.333967  0.526712 -0.850044 -0.000000  0.988311 0.487289 1 1 1.000000
0  -33.143337 -78.591568 20.205330  0.456368 -0.850340 0.262013  0.962920 0.249977 1 1 1.000000
0  -31.202633 -77.201424 21.333967  -0.000000 -1.000000 -0.000001  0.798853 0.487289 1 1 1.000000
litoff
0  -33.143337 -78.591568 20.205330  0.456368 -0.850340 0.262013  0.962920 0.249977 1 1 1.000000
0  -32.331272 -78.591568 19.379499  0.263162 -0.851115 0.454257  0.893582 0.076144 1 1 1.000000
0  -31.202633 -77.201424 21.333967  -0.000000 -1.000000 -0.000001  0.798853 0.487289 1 1 1.000000
litoff
0  -32.331272 -78.591568 19.379499  0.263162 -0.851115 0.454257  0.893582 0.076144 1 1 1.000000
0  -31.202633 -78.591568 19.076696  -0.000000 -0.851483 0.524382  0.798853 0.012665 1 1 1.000000
0  -31.202633 -77.201424 21.333967  -0.000000 -1.000000 -0.000001  0.798853 0.487289 1 1 1.000000
litoff
0  -31.202633 -78.591568 19.076696  -0.000000 -0.851483 0.524382  0.798853 0.012665 1 1 1.000000
0  -30.073997 -78.591568 19.379499  -0.263395 -0.851211 0.453942  0.704123 0.076144 1 1 1.000000
0  -31.202633 -77.201424 21.333967  -0.000000 -1.000000 -0.000001  0.798853 0.487289 1 1 1.000000
litoff
0  -30.073997 -78.591568 19.379499  -0.263395 -0.851211 0.453942  0.704123 0.076144 1 1 1.000000
0  -29.261930 -78.591568 20.205330  -0.456775 -0.850199 0.261759  0.633808 0.249977 1 1 1.000000
0  -31.202633 -77.201424 21.333967  -0.000000 -1.000000 -0.000001  0.798853 0.487289 1 1 1.000000
litoff
0  -29.261930 -78.591568 20.205330  -0.456775 -0.850199 0.261759  0.633808 0.249977 1 1 1.000000
0  -28.959127 -78.591568 21.333967  -0.526713 -0.850043 -0.000000  0.608417 0.487289 1 1 1.000000
0  -31.202633 -77.201424 21.333967  -0.000000 -1.000000 -0.000001  0.798853 0.487289 1 1 1.000000
litoff
0  -28.959127 -78.591568 21.333967  -0.526713 -0.850043 -0.000000  0.608417 0.487289 1 1 1.000000
0  -29.261930 -78.591568 22.462601  -0.456775 -0.850199 -0.261760  0.633808 0.724601 1 1 1.000000
0  -31.202633 -77.201424 21.333967  -0.000000 -1.000000 -0.000001  0.798853 0.487289 1 1 1.000000
litoff
0  -29.261930 -78.591568 22.462601  -0.456775 -0.850199 -0.261760  0.633808 0.724601 1 1 1.000000
0  -30.073997 -78.591568 23.288429  -0.263972 -0.851444 -0.453169  0.704123 0.898434 1 1 1.000000
0  -31.202633 -77.201424 21.333967  -0.000000 -1.000000 -0.000001  0.798853 0.487289 1 1 1.000000
litoff
0  -30.073997 -78.591568 23.288429  -0.263972 -0.851444 -0.453169  0.704123 0.898434 1 1 1.000000
0  -31.202633 -78.591568 23.591236  -0.000000 -0.851483 -0.524382  0.798853 0.961913 1 1 1.000000
0  -31.202633 -77.201424 21.333967  -0.000000 -1.000000 -0.000001  0.798853 0.487289 1 1 1.000000
litoff
0  -31.202633 -78.591568 23.591236  -0.000000 -0.851483 -0.524382  0.798853 0.961913 1 1 1.000000
0  -32.331272 -78.591568 23.288429  0.263384 -0.851191 -0.453985  0.893582 0.898434 1 1 1.000000
0  -31.202633 -77.201424 21.333967  -0.000000 -1.000000 -0.000001  0.798853 0.487289 1 1 1.000000
litoff
0  -32.331272 -78.591568 23.288429  0.263384 -0.851191 -0.453985  0.893582 0.898434 1 1 1.000000
0  -33.143337 -78.591568 22.462601  0.456221 -0.850390 -0.262107  0.962920 0.724601 1 1 1.000000
0  -31.202633 -77.201424 21.333967  -0.000000 -1.000000 -0.000001  0.798853 0.487289 1 1 1.000000
end
