version 1
nodes
0 "blender_implicit" -1
1 "root" -1
2 "steering_wheel" 1
end
skeleton
time 0
0  0.000000 0.000000 0.000000  0.000000 -0.000000 0.000000
1  0.000000 0.000000 0.000000  1.570796 -0.000000 0.000000
2  14.039128 25.848495 17.617727  0.000000 -0.000000 0.000000
end
triangles
aluminium
0  22.985622 72.989685 34.024231  0.012066 -0.898223 0.439375  0.045900 0.916013 1 1 1.000000
0  22.971859 71.902351 29.812496  0.010785 -0.968170 0.250062  0.045900 0.916013 1 1 1.000000
0  23.715107 71.902351 29.812496  -0.010834 -0.968183 0.250009  0.045900 0.916013 1 1 1.000000
aluminium
0  23.715107 71.902351 29.812496  -0.010834 -0.968183 0.250009  0.045900 0.916013 1 1 1.000000
0  23.701344 72.989685 34.024231  -0.013280 -0.898855 0.438045  0.045900 0.916013 1 1 1.000000
0  22.985622 72.989685 34.024231  0.012066 -0.898223 0.439375  0.045900 0.916013 1 1 1.000000
aluminium
0  23.701344 79.376114 33.817776  -0.000027 0.249336 0.968417  0.044923 0.916013 1 1 1.000000
0  23.701344 73.622826 34.423386  -0.000949 -0.146763 0.989171  0.044923 0.916013 1 1 1.000000
0  23.880274 73.622826 34.423386  0.000000 -0.146356 0.989232  0.044923 0.916013 1 1 1.000000
aluminium
0  23.880274 73.622826 34.423386  0.000000 -0.146356 0.989232  0.044923 0.916013 1 1 1.000000
0  23.880274 79.376114 33.817776  -0.000974 0.248866 0.968537  0.044923 0.916013 1 1 1.000000
0  23.701344 79.376114 33.817776  -0.000027 0.249336 0.968417  0.044923 0.916013 1 1 1.000000
aluminium
0  22.985622 80.009247 33.432388  -0.000010 0.084349 0.996436  0.044923 0.916013 1 1 1.000000
0  22.985622 72.989685 34.024231  -0.000010 0.084350 0.996436  0.045900 0.916013 1 1 1.000000
0  23.701344 72.989685 34.024231  -0.000010 0.084350 0.996436  0.045900 0.916013 1 1 1.000000
aluminium
0  23.701344 72.989685 34.024231  -0.000010 0.084350 0.996436  0.045900 0.916013 1 1 1.000000
0  23.701344 80.009247 33.432388  -0.000010 0.084349 0.996436  0.044923 0.916013 1 1 1.000000
0  22.985622 80.009247 33.432388  -0.000010 0.084349 0.996436  0.044923 0.916013 1 1 1.000000
aluminium
0  23.701344 73.622826 34.423386  -0.000949 -0.146763 0.989171  0.044923 0.916013 1 1 1.000000
0  23.701344 73.278732 34.271984  -0.008417 -0.523972 0.851694  0.045900 0.916013 1 1 1.000000
0  23.880274 73.278732 34.271984  -0.005908 -0.523196 0.852192  0.045900 0.916013 1 1 1.000000
aluminium
0  23.880274 73.278732 34.271984  -0.005908 -0.523196 0.852192  0.045900 0.916013 1 1 1.000000
0  23.880274 73.622826 34.423386  0.000000 -0.146356 0.989232  0.044923 0.916013 1 1 1.000000
0  23.701344 73.622826 34.423386  -0.000949 -0.146763 0.989171  0.044923 0.916013 1 1 1.000000
aluminium
0  23.880274 72.989685 34.037994  -0.018191 -0.847465 0.530540  0.045900 0.916013 1 1 1.000000
0  23.880274 73.278732 34.271984  -0.005908 -0.523196 0.852192  0.045900 0.916013 1 1 1.000000
0  23.701344 73.278732 34.271984  -0.008417 -0.523972 0.851694  0.045900 0.916013 1 1 1.000000
aluminium
0  23.701344 73.278732 34.271984  -0.008417 -0.523972 0.851694  0.045900 0.916013 1 1 1.000000
0  23.701344 72.989685 34.024231  -0.013288 -0.898779 0.438200  0.045900 0.916013 1 1 1.000000
0  23.880274 72.989685 34.037994  -0.018191 -0.847465 0.530540  0.045900 0.916013 1 1 1.000000
aluminium
0  23.880274 79.720207 33.680138  1.000000 0.000001 0.000000  0.044923 0.916013 1 1 1.000000
0  23.880274 79.376114 33.817776  1.000000 0.000000 0.000000  0.044923 0.916013 1 1 1.000000
0  23.880274 73.622826 34.423386  1.000000 -0.000002 0.000000  0.044923 0.916013 1 1 1.000000
aluminium
0  23.880274 73.622826 34.423386  1.000000 -0.000002 0.000000  0.044923 0.916013 1 1 1.000000
0  23.880274 73.278732 34.271984  1.000000 -0.000001 0.000000  0.045900 0.916013 1 1 1.000000
0  23.880274 79.720207 33.680138  1.000000 0.000001 0.000000  0.044923 0.916013 1 1 1.000000
aluminium
0  22.985622 72.989685 34.024231  1.000000 0.000000 0.000000  0.045900 0.916013 1 1 1.000000
0  22.985622 80.009247 33.432388  1.000000 -0.000001 0.000000  0.044923 0.916013 1 1 1.000000
0  22.985622 79.720207 33.680138  1.000000 -0.000001 0.000000  0.044923 0.916013 1 1 1.000000
aluminium
0  22.985622 79.720207 33.680138  1.000000 -0.000001 0.000000  0.044923 0.916013 1 1 1.000000
0  22.985622 73.278732 34.271984  1.000000 0.000000 0.000000  0.045900 0.916013 1 1 1.000000
0  22.985622 72.989685 34.024231  1.000000 0.000000 0.000000  0.045900 0.916013 1 1 1.000000
aluminium
0  22.985622 73.622826 34.423386  0.000000 -0.147901 0.989002  0.044923 0.916013 1 1 1.000000
0  22.985622 79.376114 33.817776  0.000916 0.248277 0.968689  0.044923 0.916013 1 1 1.000000
0  22.806694 79.376114 33.817776  -0.000030 0.247802 0.968811  0.044923 0.916013 1 1 1.000000
aluminium
0  22.806694 79.376114 33.817776  -0.000030 0.247802 0.968811  0.044923 0.916013 1 1 1.000000
0  22.806694 73.622826 34.423386  0.000942 -0.147459 0.989068  0.044923 0.916013 1 1 1.000000
0  22.985622 73.622826 34.423386  0.000000 -0.147901 0.989002  0.044923 0.916013 1 1 1.000000
aluminium
0  22.806694 72.989685 34.037994  0.020077 -0.846355 0.532241  0.045900 0.916013 1 1 1.000000
0  22.806694 71.902351 29.812496  0.021551 -0.967997 0.250034  0.045900 0.916013 1 1 1.000000
0  22.971859 71.902351 29.812496  0.010785 -0.968170 0.250062  0.045900 0.916013 1 1 1.000000
aluminium
0  22.971859 71.902351 29.812496  0.010785 -0.968170 0.250062  0.045900 0.916013 1 1 1.000000
0  22.985622 72.989685 34.024231  0.012066 -0.898223 0.439375  0.045900 0.916013 1 1 1.000000
0  22.806694 72.989685 34.037994  0.020077 -0.846355 0.532241  0.045900 0.916013 1 1 1.000000
aluminium
0  22.985622 73.278732 34.271984  0.005916 -0.524680 0.851279  0.045900 0.916013 1 1 1.000000
0  22.985622 73.622826 34.423386  0.000000 -0.147901 0.989002  0.044923 0.916013 1 1 1.000000
0  22.806694 73.622826 34.423386  0.000942 -0.147459 0.989068  0.044923 0.916013 1 1 1.000000
aluminium
0  22.806694 73.622826 34.423386  0.000942 -0.147459 0.989068  0.044923 0.916013 1 1 1.000000
0  22.806694 73.278732 34.271984  0.008637 -0.524059 0.851638  0.045900 0.916013 1 1 1.000000
0  22.985622 73.278732 34.271984  0.005916 -0.524680 0.851279  0.045900 0.916013 1 1 1.000000
aluminium
0  22.985622 72.989685 34.024231  0.012066 -0.898223 0.439375  0.045900 0.916013 1 1 1.000000
0  22.985622 73.278732 34.271984  0.005916 -0.524680 0.851279  0.045900 0.916013 1 1 1.000000
0  22.806694 73.278732 34.271984  0.008637 -0.524059 0.851638  0.045900 0.916013 1 1 1.000000
aluminium
0  22.806694 73.278732 34.271984  0.008637 -0.524059 0.851638  0.045900 0.916013 1 1 1.000000
0  22.806694 72.989685 34.037994  0.020077 -0.846355 0.532241  0.045900 0.916013 1 1 1.000000
0  22.985622 72.989685 34.024231  0.012066 -0.898223 0.439375  0.045900 0.916013 1 1 1.000000
aluminium
0  22.806694 73.278732 34.271984  -1.000000 -0.000000 0.000000  0.045900 0.916013 1 1 1.000000
0  22.806694 73.622826 34.423386  -1.000000 -0.000002 0.000000  0.044923 0.916013 1 1 1.000000
0  22.806694 79.376114 33.817776  -1.000000 -0.000000 0.000000  0.044923 0.916013 1 1 1.000000
aluminium
0  22.806694 79.376114 33.817776  -1.000000 -0.000000 0.000000  0.044923 0.916013 1 1 1.000000
0  22.806694 79.720207 33.680138  -1.000000 0.000000 0.000000  0.044923 0.916013 1 1 1.000000
0  22.806694 73.278732 34.271984  -1.000000 -0.000000 0.000000  0.045900 0.916013 1 1 1.000000
aluminium
0  23.701344 72.989685 34.024231  -0.013280 -0.898855 0.438045  0.045900 0.916013 1 1 1.000000
0  23.715107 71.902351 29.812496  -0.010834 -0.968183 0.250009  0.045900 0.916013 1 1 1.000000
0  23.880274 71.902351 29.812496  -0.021475 -0.968029 0.249916  0.045900 0.916013 1 1 1.000000
aluminium
0  23.880274 71.902351 29.812496  -0.021385 -0.968040 0.249884  0.045900 0.916013 1 1 1.000000
0  23.880274 72.989685 34.037994  -0.018191 -0.847465 0.530540  0.045900 0.916013 1 1 1.000000
0  23.701344 72.989685 34.024231  -0.013288 -0.898779 0.438200  0.045900 0.916013 1 1 1.000000
aluminium
0  23.701344 80.009247 33.432388  -1.000000 0.000001 0.000000  0.044923 0.916013 1 1 1.000000
0  23.701344 72.989685 34.024231  -1.000000 -0.000000 0.000000  0.045900 0.916013 1 1 1.000000
0  23.701344 73.278732 34.271984  -1.000000 -0.000000 0.000000  0.045900 0.916013 1 1 1.000000
aluminium
0  23.701344 73.278732 34.271984  -1.000000 -0.000000 0.000000  0.045900 0.916013 1 1 1.000000
0  23.701344 79.720207 33.680138  -1.000000 0.000001 0.000000  0.044923 0.916013 1 1 1.000000
0  23.701344 80.009247 33.432388  -1.000000 0.000001 0.000000  0.044923 0.916013 1 1 1.000000
aluminium
0  23.742634 80.587334 29.812496  -0.010065 0.987403 0.157903  0.044923 0.916013 1 1 1.000000
0  22.944332 80.587334 29.812496  0.010016 0.987399 0.157934  0.044923 0.916013 1 1 1.000000
0  22.985622 80.009247 33.432388  0.013172 0.925166 0.379334  0.044923 0.916013 1 1 1.000000
aluminium
0  22.985622 80.009247 33.432388  0.013172 0.925166 0.379334  0.044923 0.916013 1 1 1.000000
0  23.701344 80.009247 33.432388  -0.012006 0.924652 0.380624  0.044923 0.916013 1 1 1.000000
0  23.742634 80.587334 29.812496  -0.010065 0.987403 0.157903  0.044923 0.916013 1 1 1.000000
aluminium
0  23.701344 79.720207 33.680138  -0.005960 0.524667 0.851287  0.044923 0.916013 1 1 1.000000
0  23.701344 79.376114 33.817776  -0.000027 0.249336 0.968417  0.044923 0.916013 1 1 1.000000
0  23.880274 79.376114 33.817776  -0.000974 0.248866 0.968537  0.044923 0.916013 1 1 1.000000
aluminium
0  23.880274 79.376114 33.817776  -0.000974 0.248866 0.968537  0.044923 0.916013 1 1 1.000000
0  23.880274 79.720207 33.680138  -0.008649 0.524010 0.851668  0.044923 0.916013 1 1 1.000000
0  23.701344 79.720207 33.680138  -0.005960 0.524667 0.851287  0.044923 0.916013 1 1 1.000000
aluminium
0  23.701344 80.009247 33.432388  -0.012006 0.924652 0.380624  0.044923 0.916013 1 1 1.000000
0  23.701344 79.720207 33.680138  -0.005960 0.524667 0.851287  0.044923 0.916013 1 1 1.000000
0  23.880274 79.720207 33.680138  -0.008649 0.524010 0.851668  0.044923 0.916013 1 1 1.000000
aluminium
0  23.880274 79.720207 33.680138  -0.008649 0.524010 0.851668  0.044923 0.916013 1 1 1.000000
0  23.880274 80.009247 33.432388  -0.019985 0.870341 0.492043  0.044923 0.916013 1 1 1.000000
0  23.701344 80.009247 33.432388  -0.012006 0.924652 0.380624  0.044923 0.916013 1 1 1.000000
aluminium
0  22.944332 80.587334 29.812496  0.010016 0.987399 0.157934  0.044923 0.916013 1 1 1.000000
0  22.806694 80.587334 29.812496  0.019940 0.987264 0.157838  0.044923 0.916013 1 1 1.000000
0  22.806694 80.009247 33.432388  0.018063 0.871431 0.490185  0.044923 0.916013 1 1 1.000000
aluminium
0  22.806694 80.009247 33.432388  0.018063 0.871431 0.490185  0.044923 0.916013 1 1 1.000000
0  22.985622 80.009247 33.432388  0.013172 0.925166 0.379334  0.044923 0.916013 1 1 1.000000
0  22.944332 80.587334 29.812496  0.010016 0.987399 0.157934  0.044923 0.916013 1 1 1.000000
aluminium
0  22.806694 79.720207 33.680138  0.005870 0.523170 0.852208  0.044923 0.916013 1 1 1.000000
0  22.806694 79.376114 33.817776  -0.000030 0.247802 0.968811  0.044923 0.916013 1 1 1.000000
0  22.985622 79.376114 33.817776  0.000916 0.248277 0.968689  0.044923 0.916013 1 1 1.000000
aluminium
0  22.985622 79.376114 33.817776  0.000916 0.248277 0.968689  0.044923 0.916013 1 1 1.000000
0  22.985622 79.720207 33.680138  0.008584 0.523800 0.851798  0.044923 0.916013 1 1 1.000000
0  22.806694 79.720207 33.680138  0.005870 0.523170 0.852208  0.044923 0.916013 1 1 1.000000
aluminium
0  22.806694 80.009247 33.432388  0.018063 0.871431 0.490185  0.044923 0.916013 1 1 1.000000
0  22.806694 79.720207 33.680138  0.005870 0.523170 0.852208  0.044923 0.916013 1 1 1.000000
0  22.985622 79.720207 33.680138  0.008584 0.523800 0.851798  0.044923 0.916013 1 1 1.000000
aluminium
0  22.985622 79.720207 33.680138  0.008584 0.523800 0.851798  0.044923 0.916013 1 1 1.000000
0  22.985622 80.009247 33.432388  0.013172 0.925166 0.379334  0.044923 0.916013 1 1 1.000000
0  22.806694 80.009247 33.432388  0.018063 0.871431 0.490185  0.044923 0.916013 1 1 1.000000
aluminium
0  23.880274 80.587334 29.812496  -0.019845 0.987293 0.157665  0.044923 0.916013 1 1 1.000000
0  23.742634 80.587334 29.812496  -0.010065 0.987403 0.157903  0.044923 0.916013 1 1 1.000000
0  23.701344 80.009247 33.432388  -0.012006 0.924652 0.380624  0.044923 0.916013 1 1 1.000000
aluminium
0  23.701344 80.009247 33.432388  -0.012006 0.924652 0.380624  0.044923 0.916013 1 1 1.000000
0  23.880274 80.009247 33.432388  -0.019985 0.870341 0.492043  0.044923 0.916013 1 1 1.000000
0  23.880274 80.587334 29.812496  -0.019845 0.987293 0.157665  0.044923 0.916013 1 1 1.000000
aluminium
0  22.985622 73.278732 34.271984  1.000000 0.000000 0.000000  0.045900 0.916013 1 1 1.000000
0  22.985622 79.720207 33.680138  1.000000 -0.000001 0.000000  0.044923 0.916013 1 1 1.000000
0  22.985622 79.376114 33.817776  1.000000 -0.000000 0.000000  0.044923 0.916013 1 1 1.000000
aluminium
0  22.985622 79.376114 33.817776  1.000000 -0.000000 0.000000  0.044923 0.916013 1 1 1.000000
0  22.985622 73.622826 34.423386  1.000000 -0.000001 0.000000  0.044923 0.916013 1 1 1.000000
0  22.985622 73.278732 34.271984  1.000000 0.000000 0.000000  0.045900 0.916013 1 1 1.000000
aluminium
0  23.701344 79.720207 33.680138  -1.000000 0.000001 0.000000  0.044923 0.916013 1 1 1.000000
0  23.701344 73.278732 34.271984  -1.000000 -0.000000 0.000000  0.045900 0.916013 1 1 1.000000
0  23.701344 73.622826 34.423386  -1.000000 0.000001 0.000000  0.044923 0.916013 1 1 1.000000
aluminium
0  23.701344 73.622826 34.423386  -1.000000 0.000001 0.000000  0.044923 0.916013 1 1 1.000000
0  23.701344 79.376114 33.817776  -1.000000 -0.000001 0.000000  0.044923 0.916013 1 1 1.000000
0  23.701344 79.720207 33.680138  -1.000000 0.000001 0.000000  0.044923 0.916013 1 1 1.000000
aluminium
0  22.806694 72.989685 34.037994  -1.000000 0.000000 0.000000  0.045900 0.916013 1 1 1.000000
0  22.806694 73.278732 34.271984  -1.000000 -0.000000 0.000000  0.045900 0.916013 1 1 1.000000
0  22.806694 79.720207 33.680138  -1.000000 0.000000 0.000000  0.044923 0.916013 1 1 1.000000
aluminium
0  22.806694 79.720207 33.680138  -1.000000 0.000000 0.000000  0.044923 0.916013 1 1 1.000000
0  22.806694 80.009247 33.432388  -1.000000 0.000000 0.000000  0.044923 0.916013 1 1 1.000000
0  22.806694 72.989685 34.037994  -1.000000 0.000000 0.000000  0.045900 0.916013 1 1 1.000000
aluminium
0  22.806694 72.989685 34.037994  -1.000000 0.000000 0.000000  0.045900 0.916013 1 1 1.000000
0  22.806694 80.009247 33.432388  -1.000000 0.000000 0.000000  0.044923 0.916013 1 1 1.000000
0  22.806694 80.587334 29.812496  -1.000000 0.000000 0.000000  0.044923 0.916013 1 1 1.000000
aluminium
0  22.806694 80.587334 29.812496  -1.000000 0.000000 0.000000  0.044923 0.916013 1 1 1.000000
0  22.806694 71.902351 29.812496  -1.000000 0.000000 0.000000  0.045900 0.916013 1 1 1.000000
0  22.806694 72.989685 34.037994  -1.000000 0.000000 0.000000  0.045900 0.916013 1 1 1.000000
aluminium
0  23.880274 80.009247 33.432388  1.000000 0.000000 0.000000  0.044923 0.916013 1 1 1.000000
0  23.880274 79.720207 33.680138  1.000000 0.000001 0.000000  0.044923 0.916013 1 1 1.000000
0  23.880274 73.278732 34.271984  1.000000 -0.000001 0.000000  0.045900 0.916013 1 1 1.000000
aluminium
0  23.880274 73.278732 34.271984  1.000000 -0.000001 0.000000  0.045900 0.916013 1 1 1.000000
0  23.880274 72.989685 34.037994  1.000000 -0.000001 0.000000  0.045900 0.916013 1 1 1.000000
0  23.880274 80.009247 33.432388  1.000000 0.000000 0.000000  0.044923 0.916013 1 1 1.000000
aluminium
0  23.880274 80.587334 29.812496  1.000000 -0.000000 0.000000  0.044923 0.916013 1 1 1.000000
0  23.880274 80.009247 33.432388  1.000000 0.000000 0.000000  0.044923 0.916013 1 1 1.000000
0  23.880274 72.989685 34.037994  1.000000 -0.000001 0.000000  0.045900 0.916013 1 1 1.000000
aluminium
0  23.880274 72.989685 34.037994  1.000000 0.000000 0.000000  0.045900 0.916013 1 1 1.000000
0  23.880274 71.902351 29.812496  1.000000 0.000000 0.000000  0.045900 0.916013 1 1 1.000000
0  23.880274 80.587334 29.812496  1.000000 0.000000 0.000000  0.044923 0.916013 1 1 1.000000
aluminium
0  -23.013157 72.989685 34.024231  -0.012068 -0.898224 0.439373  0.045900 0.916013 1 1 1.000000
0  -23.728878 72.989685 34.024231  0.013288 -0.898782 0.438195  0.045900 0.916013 1 1 1.000000
0  -23.742641 71.902351 29.812500  0.010834 -0.968197 0.249954  0.045900 0.916013 1 1 1.000000
aluminium
0  -23.742641 71.902351 29.812500  0.010834 -0.968197 0.249954  0.045900 0.916013 1 1 1.000000
0  -22.999393 71.902351 29.812500  -0.010785 -0.968169 0.250066  0.045900 0.916013 1 1 1.000000
0  -23.013157 72.989685 34.024231  -0.012068 -0.898224 0.439373  0.045900 0.916013 1 1 1.000000
aluminium
0  -23.728878 79.376114 33.817776  0.000000 0.249339 0.968416  0.044923 0.916013 1 1 1.000000
0  -23.907808 79.376114 33.817776  0.000914 0.248874 0.968535  0.044923 0.916013 1 1 1.000000
0  -23.907808 73.622826 34.423386  -0.000000 -0.146356 0.989232  0.044923 0.916013 1 1 1.000000
aluminium
0  -23.907808 73.622826 34.423386  -0.000000 -0.146356 0.989232  0.044923 0.916013 1 1 1.000000
0  -23.728878 73.622826 34.423386  0.000942 -0.146816 0.989163  0.044923 0.916013 1 1 1.000000
0  -23.728878 79.376114 33.817776  0.000000 0.249339 0.968416  0.044923 0.916013 1 1 1.000000
aluminium
0  -23.013157 80.009247 33.432388  -0.000010 0.084350 0.996436  0.044923 0.916013 1 1 1.000000
0  -23.728878 80.009247 33.432388  -0.000010 0.084350 0.996436  0.044923 0.916013 1 1 1.000000
0  -23.728878 72.989685 34.024231  -0.000010 0.084349 0.996436  0.045900 0.916013 1 1 1.000000
aluminium
0  -23.728878 72.989685 34.024231  -0.000010 0.084349 0.996436  0.045900 0.916013 1 1 1.000000
0  -23.013157 72.989685 34.024231  -0.000010 0.084349 0.996436  0.045900 0.916013 1 1 1.000000
0  -23.013157 80.009247 33.432388  -0.000010 0.084350 0.996436  0.044923 0.916013 1 1 1.000000
aluminium
0  -23.728878 73.622826 34.423386  0.000942 -0.146816 0.989163  0.044923 0.916013 1 1 1.000000
0  -23.907808 73.622826 34.423386  -0.000000 -0.146356 0.989232  0.044923 0.916013 1 1 1.000000
0  -23.907808 73.278732 34.271984  0.005909 -0.523194 0.852193  0.045900 0.916013 1 1 1.000000
aluminium
0  -23.907808 73.278732 34.271984  0.005909 -0.523194 0.852193  0.045900 0.916013 1 1 1.000000
0  -23.728878 73.278732 34.271984  0.008417 -0.523971 0.851695  0.045900 0.916013 1 1 1.000000
0  -23.728878 73.622826 34.423386  0.000942 -0.146816 0.989163  0.044923 0.916013 1 1 1.000000
aluminium
0  -23.907808 72.989685 34.037994  0.018196 -0.847462 0.530544  0.045900 0.916013 1 1 1.000000
0  -23.728878 72.989685 34.024231  0.013288 -0.898782 0.438195  0.045900 0.916013 1 1 1.000000
0  -23.728878 73.278732 34.271984  0.008417 -0.523971 0.851695  0.045900 0.916013 1 1 1.000000
aluminium
0  -23.728878 73.278732 34.271984  0.008417 -0.523971 0.851695  0.045900 0.916013 1 1 1.000000
0  -23.907808 73.278732 34.271984  0.005909 -0.523194 0.852193  0.045900 0.916013 1 1 1.000000
0  -23.907808 72.989685 34.037994  0.018196 -0.847462 0.530544  0.045900 0.916013 1 1 1.000000
aluminium
0  -23.907808 79.720207 33.680138  -1.000000 -0.000000 0.000000  0.044923 0.916013 1 1 1.000000
0  -23.907808 73.278732 34.271984  -1.000000 0.000000 0.000000  0.045900 0.916013 1 1 1.000000
0  -23.907808 73.622826 34.423386  -1.000000 -0.000000 0.000000  0.044923 0.916013 1 1 1.000000
aluminium
0  -23.907808 73.622826 34.423386  -1.000000 -0.000000 0.000000  0.044923 0.916013 1 1 1.000000
0  -23.907808 79.376114 33.817776  -1.000000 -0.000002 0.000000  0.044923 0.916013 1 1 1.000000
0  -23.907808 79.720207 33.680138  -1.000000 -0.000000 0.000000  0.044923 0.916013 1 1 1.000000
aluminium
0  -23.013157 72.989685 34.024231  -1.000000 0.000000 0.000000  0.045900 0.916013 1 1 1.000000
0  -23.013157 73.278732 34.271984  -1.000000 0.000000 0.000000  0.045900 0.916013 1 1 1.000000
0  -23.013157 79.720207 33.680138  -1.000000 0.000000 0.000000  0.044923 0.916013 1 1 1.000000
aluminium
0  -23.013157 79.720207 33.680138  -1.000000 0.000000 0.000000  0.044923 0.916013 1 1 1.000000
0  -23.013157 80.009247 33.432388  -1.000000 0.000000 0.000000  0.044923 0.916013 1 1 1.000000
0  -23.013157 72.989685 34.024231  -1.000000 0.000000 0.000000  0.045900 0.916013 1 1 1.000000
aluminium
0  -23.013157 73.622826 34.423386  0.000002 -0.147901 0.989002  0.044923 0.916013 1 1 1.000000
0  -22.834229 73.622826 34.423386  -0.000934 -0.147511 0.989060  0.044923 0.916013 1 1 1.000000
0  -22.834229 79.376114 33.817776  0.000000 0.247799 0.968812  0.044923 0.916013 1 1 1.000000
aluminium
0  -22.834229 79.376114 33.817776  0.000000 0.247799 0.968812  0.044923 0.916013 1 1 1.000000
0  -23.013157 79.376114 33.817776  -0.000977 0.248267 0.968691  0.044923 0.916013 1 1 1.000000
0  -23.013157 73.622826 34.423386  0.000002 -0.147901 0.989002  0.044923 0.916013 1 1 1.000000
aluminium
0  -22.834229 72.989685 34.037994  -0.020082 -0.846356 0.532239  0.045900 0.916013 1 1 1.000000
0  -23.013157 72.989685 34.024231  -0.012068 -0.898224 0.439373  0.045900 0.916013 1 1 1.000000
0  -22.999393 71.902351 29.812500  -0.010785 -0.968169 0.250066  0.045900 0.916013 1 1 1.000000
aluminium
0  -22.999393 71.902351 29.812500  -0.010785 -0.968169 0.250066  0.045900 0.916013 1 1 1.000000
0  -22.834229 71.902351 29.812500  -0.021551 -0.967997 0.250034  0.045900 0.916013 1 1 1.000000
0  -22.834229 72.989685 34.037994  -0.020082 -0.846356 0.532239  0.045900 0.916013 1 1 1.000000
aluminium
0  -23.013157 73.278732 34.271984  -0.005914 -0.524674 0.851283  0.045900 0.916013 1 1 1.000000
0  -22.834229 73.278732 34.271984  -0.008639 -0.524013 0.851667  0.045900 0.916013 1 1 1.000000
0  -22.834229 73.622826 34.423386  -0.000934 -0.147511 0.989060  0.044923 0.916013 1 1 1.000000
aluminium
0  -22.834229 73.622826 34.423386  -0.000934 -0.147511 0.989060  0.044923 0.916013 1 1 1.000000
0  -23.013157 73.622826 34.423386  0.000002 -0.147901 0.989002  0.044923 0.916013 1 1 1.000000
0  -23.013157 73.278732 34.271984  -0.005914 -0.524674 0.851283  0.045900 0.916013 1 1 1.000000
aluminium
0  -23.013157 72.989685 34.024231  -0.012068 -0.898224 0.439373  0.045900 0.916013 1 1 1.000000
0  -22.834229 72.989685 34.037994  -0.020082 -0.846356 0.532239  0.045900 0.916013 1 1 1.000000
0  -22.834229 73.278732 34.271984  -0.008639 -0.524013 0.851667  0.045900 0.916013 1 1 1.000000
aluminium
0  -22.834229 73.278732 34.271984  -0.008639 -0.524013 0.851667  0.045900 0.916013 1 1 1.000000
0  -23.013157 73.278732 34.271984  -0.005914 -0.524674 0.851283  0.045900 0.916013 1 1 1.000000
0  -23.013157 72.989685 34.024231  -0.012068 -0.898224 0.439373  0.045900 0.916013 1 1 1.000000
aluminium
0  -22.834229 73.278732 34.271984  1.000000 -0.000000 0.000000  0.045900 0.916013 1 1 1.000000
0  -22.834229 79.720207 33.680138  1.000000 0.000000 0.000000  0.044923 0.916013 1 1 1.000000
0  -22.834229 79.376114 33.817776  1.000000 0.000001 0.000000  0.044923 0.916013 1 1 1.000000
aluminium
0  -22.834229 79.376114 33.817776  1.000000 0.000001 0.000000  0.044923 0.916013 1 1 1.000000
0  -22.834229 73.622826 34.423386  1.000000 -0.000001 0.000000  0.044923 0.916013 1 1 1.000000
0  -22.834229 73.278732 34.271984  1.000000 -0.000000 0.000000  0.045900 0.916013 1 1 1.000000
aluminium
0  -23.728878 72.989685 34.024231  0.013288 -0.898782 0.438195  0.045900 0.916013 1 1 1.000000
0  -23.907808 72.989685 34.037994  0.018196 -0.847462 0.530544  0.045900 0.916013 1 1 1.000000
0  -23.907808 71.902351 29.812500  0.021491 -0.968036 0.249890  0.045900 0.916013 1 1 1.000000
aluminium
0  -23.907808 71.902351 29.812500  0.021491 -0.968036 0.249890  0.045900 0.916013 1 1 1.000000
0  -23.742641 71.902351 29.812500  0.010834 -0.968197 0.249954  0.045900 0.916013 1 1 1.000000
0  -23.728878 72.989685 34.024231  0.013288 -0.898782 0.438195  0.045900 0.916013 1 1 1.000000
aluminium
0  -23.728878 80.009247 33.432388  1.000000 0.000000 0.000000  0.044923 0.916013 1 1 1.000000
0  -23.728878 79.720207 33.680138  1.000000 -0.000000 0.000000  0.044923 0.916013 1 1 1.000000
0  -23.728878 73.278732 34.271984  1.000000 -0.000000 0.000000  0.045900 0.916013 1 1 1.000000
aluminium
0  -23.728878 73.278732 34.271984  1.000000 -0.000000 0.000000  0.045900 0.916013 1 1 1.000000
0  -23.728878 72.989685 34.024231  1.000000 0.000000 0.000000  0.045900 0.916013 1 1 1.000000
0  -23.728878 80.009247 33.432388  1.000000 0.000000 0.000000  0.044923 0.916013 1 1 1.000000
aluminium
0  -23.770170 80.587334 29.812500  0.010017 0.987405 0.157896  0.044923 0.916013 1 1 1.000000
0  -23.728878 80.009247 33.432388  0.011935 0.924721 0.380458  0.044923 0.916013 1 1 1.000000
0  -23.013157 80.009247 33.432388  -0.013226 0.925167 0.379330  0.044923 0.916013 1 1 1.000000
aluminium
0  -23.013157 80.009247 33.432388  -0.013226 0.925167 0.379330  0.044923 0.916013 1 1 1.000000
0  -22.971867 80.587334 29.812500  -0.010064 0.987399 0.157933  0.044923 0.916013 1 1 1.000000
0  -23.770170 80.587334 29.812500  0.010017 0.987405 0.157896  0.044923 0.916013 1 1 1.000000
aluminium
0  -23.728878 79.720207 33.680138  0.005887 0.524658 0.851293  0.044923 0.916013 1 1 1.000000
0  -23.907808 79.720207 33.680138  0.008624 0.524033 0.851654  0.044923 0.916013 1 1 1.000000
0  -23.907808 79.376114 33.817776  0.000914 0.248874 0.968535  0.044923 0.916013 1 1 1.000000
aluminium
0  -23.907808 79.376114 33.817776  0.000914 0.248874 0.968535  0.044923 0.916013 1 1 1.000000
0  -23.728878 79.376114 33.817776  0.000000 0.249339 0.968416  0.044923 0.916013 1 1 1.000000
0  -23.728878 79.720207 33.680138  0.005887 0.524658 0.851293  0.044923 0.916013 1 1 1.000000
aluminium
0  -23.728878 80.009247 33.432388  0.011926 0.924578 0.380805  0.044923 0.916013 1 1 1.000000
0  -23.907808 80.009247 33.432388  0.019928 0.870341 0.492045  0.044923 0.916013 1 1 1.000000
0  -23.907808 79.720207 33.680138  0.008624 0.524033 0.851654  0.044923 0.916013 1 1 1.000000
aluminium
0  -23.907808 79.720207 33.680138  0.008624 0.524033 0.851654  0.044923 0.916013 1 1 1.000000
0  -23.728878 79.720207 33.680138  0.005887 0.524658 0.851293  0.044923 0.916013 1 1 1.000000
0  -23.728878 80.009247 33.432388  0.011926 0.924578 0.380805  0.044923 0.916013 1 1 1.000000
aluminium
0  -22.971867 80.587334 29.812500  -0.010064 0.987399 0.157933  0.044923 0.916013 1 1 1.000000
0  -23.013157 80.009247 33.432388  -0.013226 0.925167 0.379330  0.044923 0.916013 1 1 1.000000
0  -22.834229 80.009247 33.432388  -0.018120 0.871433 0.490180  0.044923 0.916013 1 1 1.000000
aluminium
0  -22.834229 80.009247 33.432388  -0.018120 0.871433 0.490180  0.044923 0.916013 1 1 1.000000
0  -22.834229 80.587334 29.812500  -0.020037 0.987289 0.157666  0.044923 0.916013 1 1 1.000000
0  -22.971867 80.587334 29.812500  -0.010064 0.987399 0.157933  0.044923 0.916013 1 1 1.000000
aluminium
0  -22.834229 79.720207 33.680138  -0.005936 0.523175 0.852205  0.044923 0.916013 1 1 1.000000
0  -23.013157 79.720207 33.680138  -0.008646 0.523804 0.851795  0.044923 0.916013 1 1 1.000000
0  -23.013157 79.376114 33.817776  -0.000977 0.248267 0.968691  0.044923 0.916013 1 1 1.000000
aluminium
0  -23.013157 79.376114 33.817776  -0.000977 0.248267 0.968691  0.044923 0.916013 1 1 1.000000
0  -22.834229 79.376114 33.817776  0.000000 0.247799 0.968812  0.044923 0.916013 1 1 1.000000
0  -22.834229 79.720207 33.680138  -0.005936 0.523175 0.852205  0.044923 0.916013 1 1 1.000000
aluminium
0  -22.834229 80.009247 33.432388  -0.018120 0.871433 0.490180  0.044923 0.916013 1 1 1.000000
0  -23.013157 80.009247 33.432388  -0.013226 0.925167 0.379330  0.044923 0.916013 1 1 1.000000
0  -23.013157 79.720207 33.680138  -0.008646 0.523804 0.851795  0.044923 0.916013 1 1 1.000000
aluminium
0  -23.013157 79.720207 33.680138  -0.008646 0.523804 0.851795  0.044923 0.916013 1 1 1.000000
0  -22.834229 79.720207 33.680138  -0.005936 0.523175 0.852205  0.044923 0.916013 1 1 1.000000
0  -22.834229 80.009247 33.432388  -0.018120 0.871433 0.490180  0.044923 0.916013 1 1 1.000000
aluminium
0  -23.907808 80.587334 29.812500  0.019749 0.987284 0.157737  0.044923 0.916013 1 1 1.000000
0  -23.907808 80.009247 33.432388  0.019928 0.870341 0.492045  0.044923 0.916013 1 1 1.000000
0  -23.728878 80.009247 33.432388  0.011926 0.924578 0.380805  0.044923 0.916013 1 1 1.000000
aluminium
0  -23.728878 80.009247 33.432388  0.011935 0.924721 0.380458  0.044923 0.916013 1 1 1.000000
0  -23.770170 80.587334 29.812500  0.010017 0.987405 0.157896  0.044923 0.916013 1 1 1.000000
0  -23.907808 80.587334 29.812500  0.019749 0.987284 0.157733  0.044923 0.916013 1 1 1.000000
aluminium
0  -23.013157 73.278732 34.271984  -1.000000 0.000000 0.000000  0.045900 0.916013 1 1 1.000000
0  -23.013157 73.622826 34.423386  -1.000000 0.000000 0.000000  0.044923 0.916013 1 1 1.000000
0  -23.013157 79.376114 33.817776  -1.000000 0.000000 0.000000  0.044923 0.916013 1 1 1.000000
aluminium
0  -23.013157 79.376114 33.817776  -1.000000 0.000000 0.000000  0.044923 0.916013 1 1 1.000000
0  -23.013157 79.720207 33.680138  -1.000000 0.000000 0.000000  0.044923 0.916013 1 1 1.000000
0  -23.013157 73.278732 34.271984  -1.000000 0.000000 0.000000  0.045900 0.916013 1 1 1.000000
aluminium
0  -23.728878 79.720207 33.680138  1.000000 -0.000000 0.000000  0.044923 0.916013 1 1 1.000000
0  -23.728878 79.376114 33.817776  1.000000 0.000000 0.000000  0.044923 0.916013 1 1 1.000000
0  -23.728878 73.622826 34.423386  1.000000 -0.000002 0.000000  0.044923 0.916013 1 1 1.000000
aluminium
0  -23.728878 73.622826 34.423386  1.000000 -0.000002 0.000000  0.044923 0.916013 1 1 1.000000
0  -23.728878 73.278732 34.271984  1.000000 -0.000000 0.000000  0.045900 0.916013 1 1 1.000000
0  -23.728878 79.720207 33.680138  1.000000 -0.000000 0.000000  0.044923 0.916013 1 1 1.000000
aluminium
0  -22.834229 72.989685 34.037994  1.000000 0.000000 0.000000  0.045900 0.916013 1 1 1.000000
0  -22.834229 80.009247 33.432388  1.000000 0.000000 0.000000  0.044923 0.916013 1 1 1.000000
0  -22.834229 79.720207 33.680138  1.000000 0.000000 0.000000  0.044923 0.916013 1 1 1.000000
aluminium
0  -22.834229 79.720207 33.680138  1.000000 0.000000 0.000000  0.044923 0.916013 1 1 1.000000
0  -22.834229 73.278732 34.271984  1.000000 -0.000000 0.000000  0.045900 0.916013 1 1 1.000000
0  -22.834229 72.989685 34.037994  1.000000 0.000000 0.000000  0.045900 0.916013 1 1 1.000000
aluminium
0  -22.834229 72.989685 34.037994  1.000000 0.000000 0.000000  0.045900 0.916013 1 1 1.000000
0  -22.834229 71.902351 29.812500  1.000000 0.000000 0.000000  0.045900 0.916013 1 1 1.000000
0  -22.834229 80.587334 29.812500  1.000000 0.000000 0.000000  0.044923 0.916013 1 1 1.000000
aluminium
0  -22.834229 80.587334 29.812500  1.000000 0.000000 0.000000  0.044923 0.916013 1 1 1.000000
0  -22.834229 80.009247 33.432388  1.000000 0.000000 0.000000  0.044923 0.916013 1 1 1.000000
0  -22.834229 72.989685 34.037994  1.000000 0.000000 0.000000  0.045900 0.916013 1 1 1.000000
aluminium
0  -23.907808 80.009247 33.432388  -1.000000 0.000000 0.000000  0.044923 0.916013 1 1 1.000000
0  -23.907808 72.989685 34.037994  -1.000000 0.000000 0.000000  0.045900 0.916013 1 1 1.000000
0  -23.907808 73.278732 34.271984  -1.000000 0.000000 0.000000  0.045900 0.916013 1 1 1.000000
aluminium
0  -23.907808 73.278732 34.271984  -1.000000 0.000000 0.000000  0.045900 0.916013 1 1 1.000000
0  -23.907808 79.720207 33.680138  -1.000000 -0.000000 0.000000  0.044923 0.916013 1 1 1.000000
0  -23.907808 80.009247 33.432388  -1.000000 0.000000 0.000000  0.044923 0.916013 1 1 1.000000
aluminium
0  -23.907808 80.587334 29.812500  -1.000000 0.000000 0.000000  0.044923 0.916013 1 1 1.000000
0  -23.907808 71.902351 29.812500  -1.000000 0.000000 0.000000  0.045900 0.916013 1 1 1.000000
0  -23.907808 72.989685 34.037994  -1.000000 0.000000 0.000000  0.045900 0.916013 1 1 1.000000
aluminium
0  -23.907808 72.989685 34.037994  -1.000000 0.000000 0.000000  0.045900 0.916013 1 1 1.000000
0  -23.907808 80.009247 33.432388  -1.000000 0.000000 0.000000  0.044923 0.916013 1 1 1.000000
0  -23.907808 80.587334 29.812500  -1.000000 0.000000 0.000000  0.044923 0.916013 1 1 1.000000
aluminium
0  36.653126 81.279625 41.466610  0.000000 0.000000 1.000000  0.046876 0.860347 1 1 1.000000
0  36.666889 70.474998 41.466610  0.000000 0.000000 1.000000  0.046876 0.860347 1 1 1.000000
0  37.217442 70.474998 41.466610  0.000000 0.000000 1.000000  0.046876 0.860347 1 1 1.000000
aluminium
0  37.217442 70.474998 41.466610  0.000000 0.000000 1.000000  0.046876 0.860347 1 1 1.000000
0  37.203678 81.279625 41.466610  0.000000 0.000000 1.000000  0.046876 0.860347 1 1 1.000000
0  36.653126 81.279625 41.466610  0.000000 0.000000 1.000000  0.046876 0.860347 1 1 1.000000
aluminium
0  36.653126 80.384979 36.607967  0.000000 0.189194 -0.981940  0.046876 0.860347 1 1 1.000000
0  36.653126 81.004349 36.855717  -0.000024 0.681880 -0.731464  0.046876 0.860347 1 1 1.000000
0  37.203678 81.004349 36.855717  0.000000 0.681827 -0.731513  0.046876 0.860347 1 1 1.000000
aluminium
0  37.203678 81.004349 36.855717  0.000000 0.681827 -0.731513  0.046876 0.860347 1 1 1.000000
0  37.203678 80.384979 36.607967  -0.000032 0.188669 -0.982041  0.046876 0.860347 1 1 1.000000
0  36.653126 80.384979 36.607967  0.000000 0.189194 -0.981940  0.046876 0.860347 1 1 1.000000
aluminium
0  37.203678 81.279625 37.447563  0.000000 0.974821 -0.222989  0.046876 0.860347 1 1 1.000000
0  37.203678 81.004349 36.855717  0.000000 0.681827 -0.731513  0.046876 0.860347 1 1 1.000000
0  36.653126 81.004349 36.855717  -0.000024 0.681880 -0.731464  0.046876 0.860347 1 1 1.000000
aluminium
0  36.653126 81.004349 36.855717  -0.000024 0.681880 -0.731464  0.046876 0.860347 1 1 1.000000
0  36.653126 81.279625 37.447563  -0.000008 0.974826 -0.222966  0.046876 0.860347 1 1 1.000000
0  37.203678 81.279625 37.447563  0.000000 0.974821 -0.222989  0.046876 0.860347 1 1 1.000000
aluminium
0  37.203678 81.279625 41.466610  1.000000 0.000152 -0.000017  0.046876 0.860347 1 1 1.000000
0  37.217442 70.474998 41.466610  1.000000 0.000219 -0.000000  0.046876 0.860347 1 1 1.000000
0  37.217442 70.474998 36.607967  1.000000 0.000061 0.000005  0.046876 0.860347 1 1 1.000000
aluminium
0  37.217442 70.474998 36.607967  1.000000 0.000061 0.000005  0.046876 0.860347 1 1 1.000000
0  37.203678 80.384979 36.607967  1.000000 0.000411 -0.000076  0.046876 0.860347 1 1 1.000000
0  37.203678 81.279625 41.466610  1.000000 0.000152 -0.000017  0.046876 0.860347 1 1 1.000000
aluminium
0  36.653126 81.279625 37.447563  -1.000000 -0.000005 0.000000  0.000000 0.944334 1 1 1.000000
0  36.653126 81.004349 36.855717  -1.000000 0.000013 0.000000  0.001953 0.941404 1 1 1.000000
0  36.653126 80.384979 36.607967  -1.000000 0.000028 -0.000003  0.004883 0.940428 1 1 1.000000
aluminium
0  36.653126 80.384979 36.607967  0.000000 0.189194 -0.981940  0.046876 0.860347 1 1 1.000000
0  37.203678 80.384979 36.607967  -0.000032 0.188669 -0.982041  0.046876 0.860347 1 1 1.000000
0  37.217442 70.474998 36.607967  0.000000 0.000000 -1.000000  0.046876 0.860347 1 1 1.000000
aluminium
0  37.217442 70.474998 36.607967  0.000000 0.000000 -1.000000  0.046876 0.860347 1 1 1.000000
0  36.666889 70.474998 36.607967  0.000000 0.000000 -1.000000  0.046876 0.860347 1 1 1.000000
0  36.653126 80.384979 36.607967  0.000000 0.189194 -0.981940  0.046876 0.860347 1 1 1.000000
aluminium
0  37.203678 80.384979 36.607967  1.000000 0.000411 -0.000076  0.046876 0.860347 1 1 1.000000
0  37.203678 81.004349 36.855717  1.000000 0.000000 0.000000  0.046876 0.860347 1 1 1.000000
0  37.203678 81.279625 37.447563  1.000000 0.000000 0.000000  0.046876 0.860347 1 1 1.000000
aluminium
0  37.203678 81.279625 37.447563  0.000000 0.974821 -0.222989  0.046876 0.860347 1 1 1.000000
0  36.653126 81.279625 37.447563  -0.000008 0.974826 -0.222966  0.046876 0.860347 1 1 1.000000
0  36.653126 81.279625 41.466610  0.000000 1.000000 0.000000  0.046876 0.860347 1 1 1.000000
aluminium
0  36.653126 81.279625 41.466610  0.000000 1.000000 0.000000  0.046876 0.860347 1 1 1.000000
0  37.203678 81.279625 41.466610  0.000000 1.000000 0.000000  0.046876 0.860347 1 1 1.000000
0  37.203678 81.279625 37.447563  0.000000 0.974821 -0.222989  0.046876 0.860347 1 1 1.000000
aluminium
0  36.666889 70.474998 36.607967  0.000000 -1.000000 0.000000  0.046876 0.860347 1 1 1.000000
0  37.217442 70.474998 36.607967  0.000000 -1.000000 0.000000  0.046876 0.860347 1 1 1.000000
0  37.217442 70.474998 41.466610  0.000000 -1.000000 0.000000  0.046876 0.860347 1 1 1.000000
aluminium
0  37.217442 70.474998 41.466610  0.000000 -1.000000 0.000000  0.046876 0.860347 1 1 1.000000
0  36.666889 70.474998 41.466610  0.000000 -1.000000 0.000000  0.046876 0.860347 1 1 1.000000
0  36.666889 70.474998 36.607967  0.000000 -1.000000 0.000000  0.046876 0.860347 1 1 1.000000
aluminium
0  36.653126 81.279625 37.447563  -1.000000 -0.000005 0.000000  0.000000 0.944334 1 1 1.000000
0  36.653126 80.384979 36.607967  -1.000000 0.000028 -0.000003  0.004883 0.940428 1 1 1.000000
0  36.653126 81.279625 41.466610  -1.000000 -0.000090 0.000016  0.000000 1.000000 1 1 1.000000
aluminium
0  37.203678 80.384979 36.607967  1.000000 0.000411 -0.000076  0.046876 0.860347 1 1 1.000000
0  37.203678 81.279625 37.447563  1.000000 0.000000 0.000000  0.046876 0.860347 1 1 1.000000
0  37.203678 81.279625 41.466610  1.000000 0.000152 -0.000017  0.046876 0.860347 1 1 1.000000
aluminium
0  36.653126 80.384979 36.607967  -1.000000 0.000028 -0.000003  0.004883 0.940428 1 1 1.000000
0  36.666889 70.474998 36.607967  -1.000000 0.000002 0.000000  0.059572 0.944334 1 1 1.000000
0  36.666889 70.474998 41.466610  -1.000000 -0.000015 0.000001  0.059572 1.000000 1 1 1.000000
aluminium
0  36.666889 70.474998 41.466610  -1.000000 -0.000015 0.000001  0.059572 1.000000 1 1 1.000000
0  36.653126 81.279625 41.466610  -1.000000 -0.000090 0.000016  0.000000 1.000000 1 1 1.000000
0  36.653126 80.384979 36.607967  -1.000000 0.000028 -0.000003  0.004883 0.940428 1 1 1.000000
aluminium
0  23.260902 74.356415 37.681553  0.000005 -0.953776 0.300519  0.077151 0.922849 1 1 1.000000
0  23.274664 73.227776 34.116718  -0.000000 -0.953747 0.300610  0.077151 0.922849 1 1 1.000000
0  23.398540 73.227776 34.116718  0.000000 -0.953790 0.300473  0.077151 0.922849 1 1 1.000000
aluminium
0  23.398540 73.227776 34.116718  -0.000000 -0.953795 0.300460  0.077151 0.922849 1 1 1.000000
0  23.384779 74.356415 37.681553  0.000000 -0.953809 0.300414  0.077151 0.922849 1 1 1.000000
0  23.260902 74.356415 37.681553  -0.000000 -0.953795 0.300460  0.077151 0.922849 1 1 1.000000
aluminium
0  23.384777 79.283867 33.387234  0.000000 0.996771 0.080297  0.077151 0.922849 1 1 1.000000
0  23.260900 79.283867 33.387234  0.000000 0.996771 0.080297  0.077151 0.922849 1 1 1.000000
0  23.260900 78.884712 38.342216  0.000000 0.996771 0.080295  0.077151 0.922849 1 1 1.000000
aluminium
0  23.260900 78.884712 38.342216  0.000000 0.996771 0.080295  0.077151 0.922849 1 1 1.000000
0  23.384777 78.884712 38.342216  0.000000 0.996771 0.080295  0.077151 0.922849 1 1 1.000000
0  23.384777 79.283867 33.387234  0.000000 0.996771 0.080297  0.077151 0.922849 1 1 1.000000
aluminium
0  23.384777 76.613678 37.998123  1.000000 0.000000 -0.000000  0.077151 0.922849 1 1 1.000000
0  23.384777 76.159477 33.758858  1.000000 -0.000000 -0.000000  0.077151 0.922849 1 1 1.000000
0  23.384777 79.283867 33.387234  1.000000 -0.000000 0.000000  0.077151 0.922849 1 1 1.000000
aluminium
0  23.384777 79.283867 33.387234  1.000000 -0.000000 0.000000  0.077151 0.922849 1 1 1.000000
0  23.384777 78.884712 38.342216  1.000000 -0.000000 0.000000  0.077151 0.922849 1 1 1.000000
0  23.384777 76.613678 37.998123  1.000000 -0.000000 0.000000  0.077151 0.922849 1 1 1.000000
aluminium
0  23.260900 76.159477 33.758858  -1.000000 -0.000001 -0.000000  0.077151 0.922849 1 1 1.000000
0  23.274664 73.227776 34.116718  -1.000000 -0.000007 -0.000004  0.077151 0.922849 1 1 1.000000
0  23.260902 74.356415 37.681553  -1.000000 0.000012 0.000005  0.077151 0.922849 1 1 1.000000
aluminium
0  23.260902 74.356415 37.681553  -1.000000 0.000012 0.000005  0.077151 0.922849 1 1 1.000000
0  23.260900 76.613678 37.998123  -1.000000 -0.000001 0.000000  0.077151 0.922849 1 1 1.000000
0  23.260900 76.159477 33.758858  -1.000000 -0.000001 -0.000000  0.077151 0.922849 1 1 1.000000
aluminium
0  36.777000 72.030319 37.309925  -0.000000 -0.171566 -0.985173  0.077151 0.922849 1 1 1.000000
0  36.777000 71.039322 37.832951  -0.000000 -0.857471 -0.514533  0.077151 0.922849 1 1 1.000000
0  -36.680660 71.039322 37.832958  0.000002 -0.857612 -0.514297  0.077151 0.922849 1 1 1.000000
aluminium
0  -36.680660 71.039322 37.832958  0.000002 -0.857612 -0.514297  0.077151 0.922849 1 1 1.000000
0  -36.680660 72.030319 37.309933  -0.000000 -0.171623 -0.985163  0.077151 0.922849 1 1 1.000000
0  36.777000 72.030319 37.309925  -0.000000 -0.171566 -0.985173  0.077151 0.922849 1 1 1.000000
aluminium
0  36.763237 79.118706 38.342213  -0.000001 0.756304 -0.654220  0.077151 0.922849 1 1 1.000000
0  -36.694424 79.118706 38.342220  -0.000000 0.756686 -0.653778  0.077151 0.922849 1 1 1.000000
0  -36.694424 79.118706 38.631264  -0.000012 0.656848 0.754023  0.077151 0.922849 1 1 1.000000
aluminium
0  -36.694424 79.118706 38.631264  -0.000012 0.656848 0.754023  0.077151 0.922849 1 1 1.000000
0  36.763237 79.118706 38.631256  0.000000 0.656899 0.753979  0.077151 0.922849 1 1 1.000000
0  36.763237 79.118706 38.342213  -0.000001 0.756304 -0.654220  0.077151 0.922849 1 1 1.000000
aluminium
0  -36.680660 71.039322 38.273403  -0.000001 -0.841457 0.540324  0.077151 0.922849 1 1 1.000000
0  36.777000 71.039322 38.273396  0.000000 -0.841490 0.540273  0.077151 0.922849 1 1 1.000000
0  36.777000 71.961502 38.700073  -0.000007 -0.147607 0.989046  0.077151 0.922849 1 1 1.000000
aluminium
0  36.777000 71.961502 38.700073  -0.000007 -0.147607 0.989046  0.077151 0.922849 1 1 1.000000
0  -36.680660 71.961502 38.700081  -0.000000 -0.147836 0.989012  0.077151 0.922849 1 1 1.000000
0  -36.680660 71.039322 38.273403  -0.000001 -0.841457 0.540324  0.077151 0.922849 1 1 1.000000
aluminium
0  36.777000 71.039322 38.273396  0.000000 -0.841490 0.540273  0.077151 0.922849 1 1 1.000000
0  -36.680660 71.039322 38.273403  -0.000001 -0.841457 0.540324  0.077151 0.922849 1 1 1.000000
0  -36.680660 71.039322 37.832958  0.000002 -0.857612 -0.514297  0.077151 0.922849 1 1 1.000000
aluminium
0  -36.680660 71.039322 37.832958  0.000002 -0.857612 -0.514297  0.077151 0.922849 1 1 1.000000
0  36.777000 71.039322 37.832951  -0.000000 -0.857471 -0.514533  0.077151 0.922849 1 1 1.000000
0  36.777000 71.039322 38.273396  0.000000 -0.841490 0.540273  0.077151 0.922849 1 1 1.000000
aluminium
0  -36.694424 79.118706 38.342220  -0.000000 0.756686 -0.653778  0.077151 0.922849 1 1 1.000000
0  36.763237 79.118706 38.342213  -0.000001 0.756304 -0.654220  0.077151 0.922849 1 1 1.000000
0  36.777000 72.030319 37.309925  -0.000000 -0.171566 -0.985173  0.077151 0.922849 1 1 1.000000
aluminium
0  36.777000 72.030319 37.309925  -0.000000 -0.171566 -0.985173  0.077151 0.922849 1 1 1.000000
0  -36.680660 72.030319 37.309933  -0.000000 -0.171623 -0.985163  0.077151 0.922849 1 1 1.000000
0  -36.694424 79.118706 38.342220  -0.000000 0.756686 -0.653778  0.077151 0.922849 1 1 1.000000
aluminium
0  36.763237 75.842903 38.177048  0.000000 -0.002170 0.999998  0.077151 0.922849 1 1 1.000000
0  -36.694424 75.842903 38.177055  0.000005 -0.001925 0.999998  0.077151 0.922849 1 1 1.000000
0  -36.680660 71.961502 38.700081  -0.000000 -0.147836 0.989012  0.077151 0.922849 1 1 1.000000
aluminium
0  -36.680660 71.961502 38.700081  -0.000000 -0.147836 0.989012  0.077151 0.922849 1 1 1.000000
0  36.777000 71.961502 38.700073  -0.000007 -0.147607 0.989046  0.077151 0.922849 1 1 1.000000
0  36.763237 75.842903 38.177048  0.000000 -0.002170 0.999998  0.077151 0.922849 1 1 1.000000
aluminium
0  -36.694424 78.884712 38.589973  -0.000007 -0.136974 0.990575  0.077151 0.922849 1 1 1.000000
0  36.763237 78.884712 38.589966  0.000000 -0.137023 0.990568  0.077151 0.922849 1 1 1.000000
0  36.763237 79.118706 38.631256  0.000000 0.656899 0.753979  0.077151 0.922849 1 1 1.000000
aluminium
0  36.763237 79.118706 38.631256  0.000000 0.656899 0.753979  0.077151 0.922849 1 1 1.000000
0  -36.694424 79.118706 38.631264  -0.000012 0.656848 0.754023  0.077151 0.922849 1 1 1.000000
0  -36.694424 78.884712 38.589973  -0.000007 -0.136974 0.990575  0.077151 0.922849 1 1 1.000000
aluminium
0  36.763237 78.127701 39.457088  -0.000015 0.113166 -0.993576  0.077151 0.922849 1 1 1.000000
0  36.763237 77.618439 39.498379  -0.000000 -0.638664 -0.769486  0.077151 0.922849 1 1 1.000000
0  -36.694424 77.618439 39.498386  -0.000000 -0.638632 -0.769512  0.077151 0.922849 1 1 1.000000
aluminium
0  -36.694424 77.618439 39.498386  -0.000000 -0.638632 -0.769512  0.077151 0.922849 1 1 1.000000
0  -36.694424 78.127701 39.457096  -0.000000 0.113225 -0.993569  0.077151 0.922849 1 1 1.000000
0  36.763237 78.127701 39.457088  -0.000015 0.113166 -0.993576  0.077151 0.922849 1 1 1.000000
aluminium
0  36.763237 81.018112 40.351738  -0.000000 0.873936 -0.486042  0.077151 0.922849 1 1 1.000000
0  -36.694424 81.018112 40.351746  -0.000013 0.873982 -0.485958  0.077151 0.922849 1 1 1.000000
0  -36.694424 80.976822 40.503143  -0.000036 0.482273 0.876021  0.077151 0.922849 1 1 1.000000
aluminium
0  -36.694424 80.976822 40.503143  -0.000036 0.482273 0.876021  0.077151 0.922849 1 1 1.000000
0  36.763237 80.976822 40.503136  0.000000 0.482325 0.875992  0.077151 0.922849 1 1 1.000000
0  36.763237 81.018112 40.351738  -0.000000 0.873936 -0.486042  0.077151 0.922849 1 1 1.000000
aluminium
0  -36.694424 77.577148 39.649788  -0.000000 -0.951792 0.306745  0.077151 0.922849 1 1 1.000000
0  -36.694424 77.618439 39.498386  -0.000000 -0.638632 -0.769512  0.077151 0.922849 1 1 1.000000
0  36.763237 77.618439 39.498379  -0.000000 -0.638664 -0.769486  0.077151 0.922849 1 1 1.000000
aluminium
0  36.763237 77.618439 39.498379  -0.000000 -0.638664 -0.769486  0.077151 0.922849 1 1 1.000000
0  36.763237 77.577148 39.649780  0.000002 -0.951791 0.306746  0.077151 0.922849 1 1 1.000000
0  -36.694424 77.577148 39.649788  -0.000000 -0.951792 0.306745  0.077151 0.922849 1 1 1.000000
aluminium
0  -36.694424 81.018112 40.351746  -0.000013 0.873982 -0.485958  0.077151 0.922849 1 1 1.000000
0  36.763237 81.018112 40.351738  -0.000000 0.873936 -0.486042  0.077151 0.922849 1 1 1.000000
0  36.763237 78.127701 39.457088  -0.000015 0.113166 -0.993576  0.077151 0.922849 1 1 1.000000
aluminium
0  36.763237 78.127701 39.457088  -0.000015 0.113166 -0.993576  0.077151 0.922849 1 1 1.000000
0  -36.694424 78.127701 39.457096  -0.000000 0.113225 -0.993569  0.077151 0.922849 1 1 1.000000
0  -36.694424 81.018112 40.351746  -0.000013 0.873982 -0.485958  0.077151 0.922849 1 1 1.000000
aluminium
0  36.763237 79.462799 40.021404  0.000001 -0.183105 0.983093  0.077151 0.922849 1 1 1.000000
0  -36.694424 79.462799 40.021412  0.000000 -0.183103 0.983094  0.077151 0.922849 1 1 1.000000
0  -36.694424 77.921249 39.925064  0.000000 -0.366904 0.930259  0.077151 0.922849 1 1 1.000000
aluminium
0  -36.694424 77.921249 39.925064  0.000000 -0.366904 0.930259  0.077151 0.922849 1 1 1.000000
0  36.763237 77.921249 39.925056  0.000000 -0.366910 0.930257  0.077151 0.922849 1 1 1.000000
0  36.763237 79.462799 40.021404  0.000001 -0.183105 0.983093  0.077151 0.922849 1 1 1.000000
aluminium
0  -36.694424 80.880478 40.461853  0.000000 -0.302235 0.953233  0.077151 0.922849 1 1 1.000000
0  -36.694424 79.462799 40.021412  0.000000 -0.183103 0.983094  0.077151 0.922849 1 1 1.000000
0  36.763237 79.462799 40.021404  0.000001 -0.183105 0.983093  0.077151 0.922849 1 1 1.000000
aluminium
0  36.763237 79.462799 40.021404  0.000001 -0.183105 0.983093  0.077151 0.922849 1 1 1.000000
0  36.763237 80.880478 40.461845  0.000000 -0.302218 0.953239  0.077151 0.922849 1 1 1.000000
0  -36.694424 80.880478 40.461853  0.000000 -0.302235 0.953233  0.077151 0.922849 1 1 1.000000
aluminium
0  -36.570549 81.279625 41.466618  0.000000 0.000000 1.000000  0.046876 0.860347 1 1 1.000000
0  -37.134865 81.279625 41.466618  0.000000 0.000000 1.000000  0.046876 0.860347 1 1 1.000000
0  -37.121101 70.474998 41.466618  0.000000 0.000000 1.000000  0.046876 0.860347 1 1 1.000000
aluminium
0  -37.121101 70.474998 41.466618  0.000000 0.000000 1.000000  0.046876 0.860347 1 1 1.000000
0  -36.556786 70.474998 41.466618  0.000000 0.000000 1.000000  0.046876 0.860347 1 1 1.000000
0  -36.570549 81.279625 41.466618  0.000000 0.000000 1.000000  0.046876 0.860347 1 1 1.000000
aluminium
0  -36.570549 80.384979 36.607975  0.000000 0.189029 -0.981972  0.046876 0.860347 1 1 1.000000
0  -37.134865 80.384979 36.607975  -0.000071 0.188535 -0.982066  0.046876 0.860347 1 1 1.000000
0  -37.134865 81.004349 36.855724  -0.000024 0.681827 -0.731513  0.046876 0.860347 1 1 1.000000
aluminium
0  -37.134865 81.004349 36.855724  -0.000024 0.681827 -0.731513  0.046876 0.860347 1 1 1.000000
0  -36.570549 81.004349 36.855724  0.000000 0.681885 -0.731460  0.046876 0.860347 1 1 1.000000
0  -36.570549 80.384979 36.607975  0.000000 0.189029 -0.981972  0.046876 0.860347 1 1 1.000000
aluminium
0  -37.134865 81.279625 37.447571  -0.000019 0.974822 -0.222986  0.046876 0.860347 1 1 1.000000
0  -36.570549 81.279625 37.447571  0.000000 0.974828 -0.222960  0.046876 0.860347 1 1 1.000000
0  -36.570549 81.004349 36.855724  0.000000 0.681885 -0.731460  0.046876 0.860347 1 1 1.000000
aluminium
0  -36.570549 81.004349 36.855724  0.000000 0.681885 -0.731460  0.046876 0.860347 1 1 1.000000
0  -37.134865 81.004349 36.855724  -0.000024 0.681827 -0.731513  0.046876 0.860347 1 1 1.000000
0  -37.134865 81.279625 37.447571  -0.000019 0.974822 -0.222986  0.046876 0.860347 1 1 1.000000
aluminium
0  -37.134865 81.279625 41.466618  -1.000000 -0.000104 0.000012  0.046876 0.860347 1 1 1.000000
0  -37.134865 80.384979 36.607975  -1.000000 -0.000410 0.000075  0.046876 0.860347 1 1 1.000000
0  -37.121101 70.474998 36.607975  -1.000000 -0.000012 -0.000002  0.046876 0.860347 1 1 1.000000
aluminium
0  -37.121101 70.474998 36.607975  -1.000000 -0.000012 -0.000002  0.046876 0.860347 1 1 1.000000
0  -37.121101 70.474998 41.466618  -1.000000 -0.000219 0.000000  0.046876 0.860347 1 1 1.000000
0  -37.134865 81.279625 41.466618  -1.000000 -0.000104 0.000012  0.046876 0.860347 1 1 1.000000
aluminium
0  -36.570549 81.279625 37.447571  1.000000 0.000000 0.000000  0.000000 0.944334 1 1 1.000000
0  -36.570549 80.384979 36.607975  1.000000 -0.000027 0.000005  0.004883 0.944334 1 1 1.000000
0  -36.570549 81.004349 36.855724  1.000000 0.000000 0.000000  0.001953 0.941404 1 1 1.000000
aluminium
0  -36.570549 80.384979 36.607975  0.000000 0.189029 -0.981972  0.046876 0.860347 1 1 1.000000
0  -36.556786 70.474998 36.607975  0.000000 0.000000 -1.000000  0.046876 0.860347 1 1 1.000000
0  -37.121101 70.474998 36.607975  0.000000 0.000000 -1.000000  0.046876 0.860347 1 1 1.000000
aluminium
0  -37.121101 70.474998 36.607975  0.000000 0.000000 -1.000000  0.046876 0.860347 1 1 1.000000
0  -37.134865 80.384979 36.607975  -0.000071 0.188535 -0.982066  0.046876 0.860347 1 1 1.000000
0  -36.570549 80.384979 36.607975  0.000000 0.189029 -0.981972  0.046876 0.860347 1 1 1.000000
aluminium
0  -37.134865 81.279625 37.447571  -1.000000 0.000000 0.000000  0.046876 0.860347 1 1 1.000000
0  -37.134865 81.004349 36.855724  -1.000000 0.000000 0.000000  0.046876 0.860347 1 1 1.000000
0  -37.134865 80.384979 36.607975  -1.000000 -0.000410 0.000075  0.046876 0.860347 1 1 1.000000
aluminium
0  -37.134865 81.279625 37.447571  -0.000019 0.974822 -0.222986  0.046876 0.860347 1 1 1.000000
0  -37.134865 81.279625 41.466618  0.000000 1.000000 0.000000  0.046876 0.860347 1 1 1.000000
0  -36.570549 81.279625 41.466618  0.000000 1.000000 0.000000  0.046876 0.860347 1 1 1.000000
aluminium
0  -36.570549 81.279625 41.466618  0.000000 1.000000 0.000000  0.046876 0.860347 1 1 1.000000
0  -36.570549 81.279625 37.447571  0.000000 0.974828 -0.222960  0.046876 0.860347 1 1 1.000000
0  -37.134865 81.279625 37.447571  -0.000019 0.974822 -0.222986  0.046876 0.860347 1 1 1.000000
aluminium
0  -36.556786 70.474998 36.607975  0.000000 -1.000000 0.000000  0.046876 0.860347 1 1 1.000000
0  -36.556786 70.474998 41.466618  0.000000 -1.000000 0.000000  0.046876 0.860347 1 1 1.000000
0  -37.121101 70.474998 41.466618  0.000000 -1.000000 0.000000  0.046876 0.860347 1 1 1.000000
aluminium
0  -37.121101 70.474998 41.466618  0.000000 -1.000000 0.000000  0.046876 0.860347 1 1 1.000000
0  -37.121101 70.474998 36.607975  0.000000 -1.000000 0.000000  0.046876 0.860347 1 1 1.000000
0  -36.556786 70.474998 36.607975  0.000000 -1.000000 0.000000  0.046876 0.860347 1 1 1.000000
aluminium
0  -36.570549 81.279625 37.447571  1.000000 0.000000 0.000000  0.000000 0.944334 1 1 1.000000
0  -36.570549 81.279625 41.466618  1.000000 0.000042 -0.000008  0.004883 1.000000 1 1 1.000000
0  -36.570549 80.384979 36.607975  1.000000 -0.000027 0.000005  0.004883 0.944334 1 1 1.000000
aluminium
0  -37.134865 80.384979 36.607975  -1.000000 -0.000410 0.000075  0.046876 0.860347 1 1 1.000000
0  -37.134865 81.279625 41.466618  -1.000000 -0.000104 0.000012  0.046876 0.860347 1 1 1.000000
0  -37.134865 81.279625 37.447571  -1.000000 0.000000 0.000000  0.046876 0.860347 1 1 1.000000
aluminium
0  -36.570549 80.384979 36.607975  1.000000 -0.000027 0.000005  0.004883 0.944334 1 1 1.000000
0  -36.570549 81.279625 41.466618  1.000000 0.000042 -0.000008  0.004883 1.000000 1 1 1.000000
0  -36.556786 70.474998 41.466618  1.000000 -0.000032 0.000008  0.059572 1.000000 1 1 1.000000
aluminium
0  -36.556786 70.474998 41.466618  1.000000 -0.000032 0.000008  0.059572 1.000000 1 1 1.000000
0  -36.556786 70.474998 36.607975  1.000000 -0.000001 0.000000  0.059572 0.940428 1 1 1.000000
0  -36.570549 80.384979 36.607975  1.000000 -0.000027 0.000005  0.004883 0.944334 1 1 1.000000
aluminium
0  -23.288433 74.356415 37.681553  0.000000 -0.953780 0.300505  0.077151 0.922849 1 1 1.000000
0  -23.412310 74.356415 37.681553  0.000005 -0.953795 0.300460  0.077151 0.922849 1 1 1.000000
0  -23.398548 73.227776 34.116718  -0.000000 -0.953779 0.300509  0.077151 0.922849 1 1 1.000000
aluminium
0  -23.398548 73.227776 34.116718  -0.000000 -0.953779 0.300509  0.077151 0.922849 1 1 1.000000
0  -23.274672 73.227776 34.116718  0.000000 -0.953779 0.300509  0.077151 0.922849 1 1 1.000000
0  -23.288433 74.356415 37.681553  0.000000 -0.953780 0.300505  0.077151 0.922849 1 1 1.000000
aluminium
0  -23.412312 79.283867 33.387234  0.000000 0.996771 0.080295  0.077151 0.922849 1 1 1.000000
0  -23.412312 78.884712 38.342216  0.000000 0.996771 0.080295  0.077151 0.922849 1 1 1.000000
0  -23.288435 78.884712 38.342216  0.000000 0.996771 0.080295  0.077151 0.922849 1 1 1.000000
aluminium
0  -23.288435 78.884712 38.342216  0.000000 0.996771 0.080297  0.077151 0.922849 1 1 1.000000
0  -23.288435 79.283867 33.387234  0.000000 0.996771 0.080297  0.077151 0.922849 1 1 1.000000
0  -23.412312 79.283867 33.387234  0.000000 0.996771 0.080297  0.077151 0.922849 1 1 1.000000
aluminium
0  -23.412312 76.159477 33.758858  -1.000000 -0.000001 0.000000  0.077151 0.922849 1 1 1.000000
0  -23.398548 73.227776 34.116718  -1.000000 -0.000009 -0.000003  0.077151 0.922849 1 1 1.000000
0  -23.412310 74.356415 37.681553  -1.000000 0.000012 0.000006  0.077151 0.922849 1 1 1.000000
aluminium
0  -23.412310 74.356415 37.681553  -1.000000 0.000012 0.000006  0.077151 0.922849 1 1 1.000000
0  -23.412312 76.613678 37.998123  -1.000000 0.000000 0.000000  0.077151 0.922849 1 1 1.000000
0  -23.412312 76.159477 33.758858  -1.000000 -0.000001 0.000000  0.077151 0.922849 1 1 1.000000
aluminium
0  -23.288435 76.613678 37.998123  1.000000 0.000002 -0.000000  0.077151 0.922849 1 1 1.000000
0  -23.288435 76.159477 33.758858  1.000000 0.000001 -0.000000  0.077151 0.922849 1 1 1.000000
0  -23.288435 79.283867 33.387234  1.000000 0.000000 0.000000  0.077151 0.922849 1 1 1.000000
aluminium
0  -23.288435 79.283867 33.387234  1.000000 -0.000001 0.000000  0.077151 0.922849 1 1 1.000000
0  -23.288435 78.884712 38.342216  1.000000 -0.000001 0.000000  0.077151 0.922849 1 1 1.000000
0  -23.288435 76.613678 37.998123  1.000000 -0.000001 0.000000  0.077151 0.922849 1 1 1.000000
aluminium
0  -23.412312 79.283867 33.387234  -1.000000 0.000001 0.000000  0.077151 0.922849 1 1 1.000000
0  -23.412312 76.159477 33.758858  -1.000000 -0.000001 0.000000  0.077151 0.922849 1 1 1.000000
0  -23.412312 76.613678 37.998123  -1.000000 0.000000 0.000000  0.077151 0.922849 1 1 1.000000
aluminium
0  -23.412312 76.613678 37.998123  -1.000000 0.000000 0.000000  0.077151 0.922849 1 1 1.000000
0  -23.412312 78.884712 38.342216  -1.000000 0.000000 0.000000  0.077151 0.922849 1 1 1.000000
0  -23.412312 79.283867 33.387234  -1.000000 0.000001 0.000000  0.077151 0.922849 1 1 1.000000
aluminium
0  -23.288435 76.159477 33.758858  1.000000 0.000001 -0.000000  0.077151 0.922849 1 1 1.000000
0  -23.288435 76.613678 37.998123  1.000000 0.000002 -0.000000  0.077151 0.922849 1 1 1.000000
0  -23.288433 74.356415 37.681553  1.000000 0.000002 -0.000000  0.077151 0.922849 1 1 1.000000
aluminium
0  -23.288433 74.356415 37.681553  1.000000 0.000008 0.000003  0.077151 0.922849 1 1 1.000000
0  -23.274672 73.227776 34.116718  1.000000 0.000008 0.000003  0.077151 0.922849 1 1 1.000000
0  -23.288435 76.159477 33.758858  1.000000 0.000008 0.000004  0.077151 0.922849 1 1 1.000000
aluminium
0  23.384777 76.159477 33.758858  1.000000 -0.000000 -0.000000  0.077151 0.922849 1 1 1.000000
0  23.384777 76.613678 37.998123  1.000000 0.000000 -0.000000  0.077151 0.922849 1 1 1.000000
0  23.384779 74.356415 37.681553  1.000000 0.000000 -0.000000  0.077151 0.922849 1 1 1.000000
aluminium
0  23.384779 74.356415 37.681553  1.000000 0.000008 0.000004  0.077151 0.922849 1 1 1.000000
0  23.398540 73.227776 34.116718  1.000000 0.000008 0.000004  0.077151 0.922849 1 1 1.000000
0  23.384777 76.159477 33.758858  1.000000 0.000009 0.000003  0.077151 0.922849 1 1 1.000000
aluminium
0  23.260900 79.283867 33.387234  -1.000000 0.000000 0.000000  0.077151 0.922849 1 1 1.000000
0  23.260900 76.159477 33.758858  -1.000000 -0.000001 -0.000000  0.077151 0.922849 1 1 1.000000
0  23.260900 76.613678 37.998123  -1.000000 -0.000001 0.000000  0.077151 0.922849 1 1 1.000000
aluminium
0  23.260900 76.613678 37.998123  -1.000000 -0.000001 0.000000  0.077151 0.922849 1 1 1.000000
0  23.260900 78.884712 38.342216  -1.000000 0.000000 0.000000  0.077151 0.922849 1 1 1.000000
0  23.260900 79.283867 33.387234  -1.000000 0.000000 0.000000  0.077151 0.922849 1 1 1.000000
aluminium
0  -36.694424 80.880478 40.461853  0.000000 -0.302235 0.953233  0.077151 0.922849 1 1 1.000000
0  36.763237 80.880478 40.461845  0.000000 -0.302218 0.953239  0.077151 0.922849 1 1 1.000000
0  36.763237 80.976822 40.503136  0.000000 0.482325 0.875992  0.077151 0.922849 1 1 1.000000
aluminium
0  36.763237 80.976822 40.503136  0.000000 0.482325 0.875992  0.077151 0.922849 1 1 1.000000
0  -36.694424 80.976822 40.503143  -0.000036 0.482273 0.876021  0.077151 0.922849 1 1 1.000000
0  -36.694424 80.880478 40.461853  0.000000 -0.302235 0.953233  0.077151 0.922849 1 1 1.000000
aluminium
0  -36.694424 77.577148 39.649788  -0.000000 -0.951792 0.306745  0.077151 0.922849 1 1 1.000000
0  36.763237 77.577148 39.649780  0.000002 -0.951791 0.306746  0.077151 0.922849 1 1 1.000000
0  36.763237 77.921249 39.925056  0.000000 -0.366910 0.930257  0.077151 0.922849 1 1 1.000000
aluminium
0  36.763237 77.921249 39.925056  0.000000 -0.366910 0.930257  0.077151 0.922849 1 1 1.000000
0  -36.694424 77.921249 39.925064  0.000000 -0.366904 0.930259  0.077151 0.922849 1 1 1.000000
0  -36.694424 77.577148 39.649788  -0.000000 -0.951792 0.306745  0.077151 0.922849 1 1 1.000000
aluminium
0  36.763237 78.884712 38.589966  0.000000 -0.137023 0.990568  0.077151 0.922849 1 1 1.000000
0  -36.694424 78.884712 38.589973  -0.000007 -0.136974 0.990575  0.077151 0.922849 1 1 1.000000
0  -36.694424 75.842903 38.177055  0.000005 -0.001925 0.999998  0.077151 0.922849 1 1 1.000000
aluminium
0  -36.694424 75.842903 38.177055  0.000005 -0.001925 0.999998  0.077151 0.922849 1 1 1.000000
0  36.763237 75.842903 38.177048  0.000000 -0.002170 0.999998  0.077151 0.922849 1 1 1.000000
0  36.763237 78.884712 38.589966  0.000000 -0.137023 0.990568  0.077151 0.922849 1 1 1.000000
universal
0  37.258732 72.401939 38.411034  1.000000 0.000000 0.000000  0.068361 0.928709 1 1 1.000000
0  37.258732 71.727516 38.438560  1.000000 0.000000 0.000000  0.525407 0.928709 1 1 1.000000
0  37.258732 71.686218 37.681549  1.000000 0.000000 0.000000  0.525407 0.471664 1 1 1.000000
universal
0  37.258732 71.686218 37.681549  1.000000 0.000000 0.000000  0.525407 0.471664 1 1 1.000000
0  37.258732 72.360649 37.654022  1.000000 0.000000 0.000000  0.068361 0.471664 1 1 1.000000
0  37.258732 72.401939 38.411034  1.000000 0.000000 0.000000  0.068361 0.928709 1 1 1.000000
universal
0  37.244968 77.301872 38.576202  1.000000 0.000000 0.000000  0.068361 0.928709 1 1 1.000000
0  37.244968 76.613678 38.603729  1.000000 0.000000 0.000000  0.525407 0.928709 1 1 1.000000
0  37.244968 76.586151 37.846714  1.000000 0.000000 0.000000  0.525407 0.471664 1 1 1.000000
universal
0  37.244968 76.586151 37.846714  1.000000 0.000000 0.000000  0.525407 0.471664 1 1 1.000000
0  37.244968 77.260582 37.819187  1.000000 0.000000 0.000000  0.068361 0.471664 1 1 1.000000
0  37.244968 77.301872 38.576202  1.000000 0.000000 0.000000  0.068361 0.928709 1 1 1.000000
universal
0  37.244968 78.402985 39.814945  1.000000 0.000000 0.000000  0.068361 0.928709 1 1 1.000000
0  37.244968 78.003830 40.021404  1.000000 0.000000 0.000000  0.525407 0.928709 1 1 1.000000
0  37.244968 77.769844 39.567196  1.000000 0.000000 0.000000  0.525407 0.471664 1 1 1.000000
universal
0  37.244968 77.769844 39.567196  1.000000 0.000000 0.000000  0.525407 0.471664 1 1 1.000000
0  37.244968 78.168991 39.360741  1.000000 0.000000 0.000000  0.068361 0.471664 1 1 1.000000
0  37.244968 78.402985 39.814945  1.000000 0.000000 0.000000  0.068361 0.928709 1 1 1.000000
universal
0  37.244968 80.646484 40.310444  1.000000 0.000000 0.000000  0.068361 0.928709 1 1 1.000000
0  37.244968 80.247337 40.516903  1.000000 0.000000 0.000000  0.525407 0.928709 1 1 1.000000
0  37.244968 80.013351 40.076462  1.000000 0.000000 0.000000  0.525407 0.471664 1 1 1.000000
universal
0  37.244968 80.013351 40.076462  1.000000 0.000000 0.000000  0.525407 0.471664 1 1 1.000000
0  37.244968 80.412506 39.869999  1.000000 0.000000 0.000000  0.068361 0.471664 1 1 1.000000
0  37.244968 80.646484 40.310444  1.000000 0.000000 0.000000  0.068361 0.928709 1 1 1.000000
universal
0  -37.162395 72.401939 38.411041  -1.000000 -0.000000 0.000000  0.068361 0.928709 1 1 1.000000
0  -37.162395 72.360649 37.654030  -1.000000 0.000005 0.000000  0.068361 0.471664 1 1 1.000000
0  -37.162395 71.686218 37.681557  -1.000000 0.000000 0.000000  0.525407 0.471664 1 1 1.000000
universal
0  -37.162395 71.686218 37.681557  -1.000000 0.000000 0.000000  0.525407 0.471664 1 1 1.000000
0  -37.162395 71.727516 38.438568  -1.000000 -0.000005 0.000000  0.525407 0.928709 1 1 1.000000
0  -37.162395 72.401939 38.411041  -1.000000 -0.000000 0.000000  0.068361 0.928709 1 1 1.000000
universal
0  -37.176159 77.301872 38.576210  -1.000000 -0.000000 0.000000  0.068361 0.928709 1 1 1.000000
0  -37.176159 77.260582 37.819195  -1.000000 0.000002 0.000000  0.068361 0.471664 1 1 1.000000
0  -37.176159 76.586151 37.846722  -1.000000 0.000000 0.000000  0.525407 0.471664 1 1 1.000000
universal
0  -37.176159 76.586151 37.846722  -1.000000 0.000000 0.000000  0.525407 0.471664 1 1 1.000000
0  -37.176159 76.613678 38.603737  -1.000000 -0.000002 0.000000  0.525407 0.928709 1 1 1.000000
0  -37.176159 77.301872 38.576210  -1.000000 -0.000000 0.000000  0.068361 0.928709 1 1 1.000000
universal
0  -37.176159 78.402985 39.814953  -1.000000 0.000004 0.000000  0.068361 0.928709 1 1 1.000000
0  -37.176159 78.168991 39.360748  -1.000000 0.000004 0.000000  0.068361 0.471664 1 1 1.000000
0  -37.176159 77.769844 39.567204  -1.000000 0.000004 0.000000  0.525407 0.471664 1 1 1.000000
universal
0  -37.176159 77.769844 39.567204  -1.000000 0.000004 0.000000  0.525407 0.471664 1 1 1.000000
0  -37.176159 78.003830 40.021412  -1.000000 0.000004 0.000000  0.525407 0.928709 1 1 1.000000
0  -37.176159 78.402985 39.814953  -1.000000 0.000004 0.000000  0.068361 0.928709 1 1 1.000000
universal
0  -37.176159 80.646484 40.310452  -1.000000 -0.000004 0.000000  0.068361 0.928709 1 1 1.000000
0  -37.176159 80.412506 39.870007  -1.000000 -0.000009 0.000000  0.068361 0.471664 1 1 1.000000
0  -37.176159 80.013351 40.076469  -1.000000 -0.000005 0.000000  0.525407 0.471664 1 1 1.000000
universal
0  -37.176159 80.646484 40.310452  -1.000000 -0.000004 0.000000  0.068361 0.928709 1 1 1.000000
0  -37.176159 80.013351 40.076469  -1.000000 -0.000005 0.000000  0.525407 0.471664 1 1 1.000000
0  -37.176159 80.137222 40.310452  -1.000000 0.000000 0.000000  0.525407 0.712882 1 1 1.000000
universal
0  -37.176159 80.646484 40.310452  -1.000000 -0.000004 0.000000  0.068361 0.928709 1 1 1.000000
0  -37.176159 80.137222 40.310452  -1.000000 0.000000 0.000000  0.525407 0.712882 1 1 1.000000
0  -37.176159 80.247337 40.516911  -1.000000 0.000000 0.000000  0.525407 0.928709 1 1 1.000000
universal
0  37.217442 71.865150 38.259632  0.884024 -0.310163 0.349715  0.018555 0.009735 1 1 1.000000
0  37.217442 71.851387 37.846714  0.884056 -0.340748 -0.319899  0.018555 0.009735 1 1 1.000000
0  37.368843 72.044083 38.053173  1.000000 0.000033 -0.000019  0.018555 0.165014 1 1 1.000000
universal
0  37.217442 72.236771 38.245869  0.884033 0.340763 0.319946  0.018555 0.009735 1 1 1.000000
0  37.368843 72.044083 38.053173  1.000000 0.000033 -0.000019  0.018555 0.165014 1 1 1.000000
0  37.217442 72.223007 37.832951  0.884033 0.310120 -0.349731  0.018555 0.009735 1 1 1.000000
universal
0  37.217442 71.851387 37.846714  0.884056 -0.340748 -0.319899  0.018555 0.009735 1 1 1.000000
0  37.217442 72.223007 37.832951  0.884033 0.310120 -0.349731  0.018555 0.009735 1 1 1.000000
0  37.368843 72.044083 38.053173  1.000000 0.000033 -0.000019  0.018555 0.165014 1 1 1.000000
universal
0  37.217442 72.236771 38.245869  0.884033 0.340763 0.319946  0.018555 0.009735 1 1 1.000000
0  37.217442 71.865150 38.259632  0.884024 -0.310163 0.349715  0.018555 0.009735 1 1 1.000000
0  37.368843 72.044083 38.053173  1.000000 0.000033 -0.000019  0.018555 0.165014 1 1 1.000000
universal
0  37.203678 76.765083 38.424797  0.884048 -0.310110 0.349702  0.018555 0.009735 1 1 1.000000
0  37.203678 76.751320 38.025646  0.884025 -0.340765 -0.319967  0.018555 0.009735 1 1 1.000000
0  37.355080 76.944008 38.218338  1.000000 0.000035 0.000009  0.018555 0.165014 1 1 1.000000
universal
0  37.203678 77.136703 38.411034  0.884039 0.340743 0.319953  0.018555 0.009735 1 1 1.000000
0  37.355080 76.944008 38.218338  1.000000 0.000035 0.000009  0.018555 0.165014 1 1 1.000000
0  37.203678 77.109177 37.998119  0.884020 0.310143 -0.349743  0.018555 0.009735 1 1 1.000000
universal
0  37.203678 76.751320 38.025646  0.884025 -0.340765 -0.319967  0.018555 0.009735 1 1 1.000000
0  37.203678 77.109177 37.998119  0.884020 0.310143 -0.349743  0.018555 0.009735 1 1 1.000000
0  37.355080 76.944008 38.218338  1.000000 0.000035 0.000009  0.018555 0.165014 1 1 1.000000
universal
0  37.203678 77.136703 38.411034  0.884039 0.340743 0.319953  0.018555 0.009735 1 1 1.000000
0  37.203678 76.765083 38.424797  0.884048 -0.310110 0.349702  0.018555 0.009735 1 1 1.000000
0  37.355080 76.944008 38.218338  1.000000 0.000035 0.000009  0.018555 0.165014 1 1 1.000000
universal
0  37.203678 78.045120 39.869999  0.782458 -0.178203 0.596660  0.018555 0.009735 1 1 1.000000
0  37.203678 77.907486 39.622250  0.782558 -0.591662 -0.193748  0.018555 0.009735 1 1 1.000000
0  37.355080 78.086411 39.691071  1.000000 0.000009 -0.000028  0.018555 0.165014 1 1 1.000000
universal
0  37.203678 78.251579 39.759892  0.782446 0.591788 0.193820  0.018555 0.009735 1 1 1.000000
0  37.355080 78.086411 39.691071  1.000000 0.000009 -0.000028  0.018555 0.165014 1 1 1.000000
0  37.203678 78.127701 39.512142  0.782450 0.178206 -0.596670  0.018555 0.009735 1 1 1.000000
universal
0  37.203678 77.907486 39.622250  0.782558 -0.591662 -0.193748  0.018555 0.009735 1 1 1.000000
0  37.203678 78.127701 39.512142  0.782450 0.178206 -0.596670  0.018555 0.009735 1 1 1.000000
0  37.355080 78.086411 39.691071  1.000000 0.000009 -0.000028  0.018555 0.165014 1 1 1.000000
universal
0  37.203678 78.251579 39.759892  0.782446 0.591788 0.193820  0.018555 0.009735 1 1 1.000000
0  37.203678 78.045120 39.869999  0.782458 -0.178203 0.596660  0.018555 0.009735 1 1 1.000000
0  37.355080 78.086411 39.691071  1.000000 0.000009 -0.000028  0.018555 0.165014 1 1 1.000000
universal
0  37.203678 80.288628 40.365501  0.782469 -0.178154 0.596661  0.018555 0.009735 1 1 1.000000
0  37.203678 80.164757 40.131516  0.782427 -0.591805 -0.193843  0.018555 0.009735 1 1 1.000000
0  37.355080 80.329918 40.200333  1.000000 -0.000020 -0.000033  0.018555 0.165014 1 1 1.000000
universal
0  37.203678 80.495087 40.255390  0.782436 0.591811 0.193786  0.018555 0.009735 1 1 1.000000
0  37.355080 80.329918 40.200333  1.000000 -0.000020 -0.000033  0.018555 0.165014 1 1 1.000000
0  37.203678 80.371216 40.021404  0.782433 0.178203 -0.596692  0.018555 0.009735 1 1 1.000000
universal
0  37.203678 80.164757 40.131516  0.782427 -0.591805 -0.193843  0.018555 0.009735 1 1 1.000000
0  37.203678 80.371216 40.021404  0.782433 0.178203 -0.596692  0.018555 0.009735 1 1 1.000000
0  37.355080 80.329918 40.200333  1.000000 -0.000020 -0.000033  0.018555 0.165014 1 1 1.000000
universal
0  37.203678 80.495087 40.255390  0.782436 0.591811 0.193786  0.018555 0.009735 1 1 1.000000
0  37.203678 80.288628 40.365501  0.782469 -0.178154 0.596661  0.018555 0.009735 1 1 1.000000
0  37.355080 80.329918 40.200333  1.000000 -0.000020 -0.000033  0.018555 0.165014 1 1 1.000000
universal
0  -37.121101 71.865150 38.259640  -0.884052 -0.310117 0.349686  0.018555 0.009735 1 1 1.000000
0  -37.258739 72.044083 38.053181  -1.000000 0.000036 -0.000001  0.018555 0.165014 1 1 1.000000
0  -37.121101 71.851387 37.846722  -0.884062 -0.340718 -0.319915  0.018555 0.009735 1 1 1.000000
universal
0  -37.121101 72.236771 38.245876  -0.884032 0.340757 0.319957  0.018555 0.009735 1 1 1.000000
0  -37.121101 72.223007 37.832958  -0.884063 0.310076 -0.349694  0.018555 0.009735 1 1 1.000000
0  -37.258739 72.044083 38.053181  -1.000000 0.000036 -0.000001  0.018555 0.165014 1 1 1.000000
universal
0  -37.121101 71.851387 37.846722  -0.884062 -0.340718 -0.319915  0.018555 0.009735 1 1 1.000000
0  -37.258739 72.044083 38.053181  -1.000000 0.000036 -0.000001  0.018555 0.165014 1 1 1.000000
0  -37.121101 72.223007 37.832958  -0.884063 0.310076 -0.349694  0.018555 0.009735 1 1 1.000000
universal
0  -37.121101 72.236771 38.245876  -0.884032 0.340757 0.319957  0.018555 0.009735 1 1 1.000000
0  -37.258739 72.044083 38.053181  -1.000000 0.000036 -0.000001  0.018555 0.165014 1 1 1.000000
0  -37.121101 71.865150 38.259640  -0.884052 -0.310117 0.349686  0.018555 0.009735 1 1 1.000000
universal
0  -37.134865 76.765083 38.424805  -0.884041 -0.310109 0.349719  0.018555 0.009735 1 1 1.000000
0  -37.272507 76.944008 38.218346  -1.000000 0.000036 0.000003  0.018555 0.165014 1 1 1.000000
0  -37.134865 76.751320 38.025654  -0.884042 -0.340729 -0.319958  0.018555 0.009735 1 1 1.000000
universal
0  -37.134865 77.136703 38.411041  -0.884042 0.340731 0.319955  0.018555 0.009735 1 1 1.000000
0  -37.134865 77.109177 37.998127  -0.884031 0.310154 -0.349704  0.018555 0.009735 1 1 1.000000
0  -37.272507 76.944008 38.218346  -1.000000 0.000036 0.000003  0.018555 0.165014 1 1 1.000000
universal
0  -37.134865 76.751320 38.025654  -0.884042 -0.340729 -0.319958  0.018555 0.009735 1 1 1.000000
0  -37.272507 76.944008 38.218346  -1.000000 0.000036 0.000003  0.018555 0.165014 1 1 1.000000
0  -37.134865 77.109177 37.998127  -0.884031 0.310154 -0.349704  0.018555 0.009735 1 1 1.000000
universal
0  -37.134865 77.136703 38.411041  -0.884042 0.340731 0.319955  0.018555 0.009735 1 1 1.000000
0  -37.272507 76.944008 38.218346  -1.000000 0.000036 0.000003  0.018555 0.165014 1 1 1.000000
0  -37.134865 76.765083 38.424805  -0.884041 -0.310109 0.349719  0.018555 0.009735 1 1 1.000000
universal
0  -37.134865 78.045120 39.870007  -0.782466 -0.178218 0.596645  0.018555 0.009735 1 1 1.000000
0  -37.272507 78.086411 39.691078  -1.000000 0.000063 -0.000030  0.018555 0.165014 1 1 1.000000
0  -37.134865 77.907486 39.622257  -0.782455 -0.591778 -0.193814  0.018555 0.009735 1 1 1.000000
universal
0  -37.134865 78.251579 39.759899  -0.782465 0.591770 0.193796  0.018555 0.009735 1 1 1.000000
0  -37.134865 78.127701 39.512150  -0.782469 0.178202 -0.596646  0.018555 0.009735 1 1 1.000000
0  -37.272507 78.086411 39.691078  -1.000000 0.000063 -0.000030  0.018555 0.165014 1 1 1.000000
universal
0  -37.134865 77.907486 39.622257  -0.782455 -0.591778 -0.193814  0.018555 0.009735 1 1 1.000000
0  -37.272507 78.086411 39.691078  -1.000000 0.000063 -0.000030  0.018555 0.165014 1 1 1.000000
0  -37.134865 78.127701 39.512150  -0.782469 0.178202 -0.596646  0.018555 0.009735 1 1 1.000000
universal
0  -37.134865 78.251579 39.759899  -0.782465 0.591770 0.193796  0.018555 0.009735 1 1 1.000000
0  -37.272507 78.086411 39.691078  -1.000000 0.000063 -0.000030  0.018555 0.165014 1 1 1.000000
0  -37.134865 78.045120 39.870007  -0.782466 -0.178218 0.596645  0.018555 0.009735 1 1 1.000000
universal
0  -37.134865 80.288628 40.365509  -0.782461 -0.178161 0.596668  0.018555 0.009735 1 1 1.000000
0  -37.272507 80.329918 40.200340  -1.000000 0.000013 -0.000014  0.018555 0.165014 1 1 1.000000
0  -37.134865 80.164757 40.131523  -0.782445 -0.591781 -0.193845  0.018555 0.009735 1 1 1.000000
universal
0  -37.134865 80.495087 40.255398  -0.782476 0.591773 0.193745  0.018555 0.009735 1 1 1.000000
0  -37.134865 80.371216 40.021412  -0.782472 0.178190 -0.596645  0.018555 0.009735 1 1 1.000000
0  -37.272507 80.329918 40.200340  -1.000000 0.000013 -0.000014  0.018555 0.165014 1 1 1.000000
universal
0  -37.134865 80.164757 40.131523  -0.782445 -0.591781 -0.193845  0.018555 0.009735 1 1 1.000000
0  -37.272507 80.329918 40.200340  -1.000000 0.000013 -0.000014  0.018555 0.165014 1 1 1.000000
0  -37.134865 80.371216 40.021412  -0.782472 0.178190 -0.596645  0.018555 0.009735 1 1 1.000000
universal
0  -37.134865 80.495087 40.255398  -0.782476 0.591773 0.193745  0.018555 0.009735 1 1 1.000000
0  -37.272507 80.329918 40.200340  -1.000000 0.000013 -0.000014  0.018555 0.165014 1 1 1.000000
0  -37.134865 80.288628 40.365509  -0.782461 -0.178161 0.596668  0.018555 0.009735 1 1 1.000000
end
