version 1
nodes
0 "root" -1
end
skeleton
time 0
0  0.000000 0.000000 0.000000  0.000000 -0.000000 0.000000
end
triangles
aluminiummisc
0  19.090452 98.934547 11.974546  -0.807576 0.022808 0.589322  0.028321 0.037080 1 0 1.000000
0  20.012630 98.728081 12.786614  -0.354473 0.043261 0.934065  0.028321 0.037080 1 0 1.000000
0  19.861225 103.641777 12.387462  -0.341209 0.701671 0.625486  0.028321 0.244118 1 0 1.000000
aluminiummisc
0  19.861225 103.641777 12.387462  -0.341209 0.701671 0.625486  0.028321 0.244118 1 0 1.000000
0  18.939049 103.531670 11.575396  -0.677603 0.669756 0.303779  0.028321 0.244118 1 0 1.000000
0  19.090452 98.934547 11.974546  -0.807576 0.022808 0.589322  0.028321 0.037080 1 0 1.000000
aluminiummisc
0  18.718826 102.623253 9.373180  -0.774495 0.348735 -0.527770  0.028321 0.244118 1 0 1.000000
0  19.489601 102.058929 8.574876  -0.458807 0.193155 -0.867287  0.028321 0.244118 1 0 1.000000
0  19.351965 98.824440 8.740043  -0.653989 -0.038738 -0.755512  0.028321 0.037080 1 0 1.000000
aluminiummisc
0  19.351965 98.824440 8.740043  -0.653989 -0.038738 -0.755512  0.028321 0.037080 1 0 1.000000
0  18.773882 98.975838 9.744803  -0.959006 -0.057477 -0.277496  0.028321 0.037080 1 0 1.000000
0  18.718826 102.623253 9.373180  -0.774495 0.348735 -0.527770  0.028321 0.244118 1 0 1.000000
aluminiummisc
0  21.705580 98.260117 8.340891  0.453604 0.041907 -0.890218  0.028321 0.037080 1 0 1.000000
0  20.480598 98.549156 8.189488  -0.106003 0.011696 -0.994297  0.028321 0.037080 1 0 1.000000
0  20.618238 101.632263 8.299600  0.015754 0.121165 -0.992507  0.028321 0.244118 1 0 1.000000
aluminiummisc
0  20.618238 101.632263 8.299600  0.015754 0.121165 -0.992507  0.028321 0.244118 1 0 1.000000
0  21.801928 101.453331 8.602404  0.476473 0.122878 -0.870560  0.028321 0.244118 1 0 1.000000
0  21.705580 98.260117 8.340891  0.453604 0.041907 -0.890218  0.028321 0.037080 1 0 1.000000
aluminiummisc
0  21.801928 101.453331 8.602404  0.476473 0.122878 -0.870560  0.028321 0.244118 1 0 1.000000
0  22.724106 101.563438 9.414471  0.808449 0.155133 -0.567753  0.028321 0.244118 1 0 1.000000
0  22.586466 98.067413 9.111666  0.828542 0.015993 -0.559698  0.028321 0.037080 1 0 1.000000
aluminiummisc
0  22.586466 98.067413 9.111666  0.828542 0.015993 -0.559698  0.028321 0.037080 1 0 1.000000
0  21.705580 98.260117 8.340891  0.453604 0.041907 -0.890218  0.028321 0.037080 1 0 1.000000
0  21.801928 101.453331 8.602404  0.476473 0.122878 -0.870560  0.028321 0.244118 1 0 1.000000
aluminiummisc
0  22.724106 101.563438 9.414471  0.808449 0.155133 -0.567753  0.028321 0.244118 1 0 1.000000
0  23.150785 101.935059 10.515578  0.962685 0.222830 -0.153571  0.028321 0.244118 1 0 1.000000
0  22.999384 97.984833 10.240301  0.984883 -0.024449 -0.171487  0.028321 0.037080 1 0 1.000000
aluminiummisc
0  22.999384 97.984833 10.240301  0.984883 -0.024449 -0.171487  0.028321 0.037080 1 0 1.000000
0  22.586466 98.067413 9.111666  0.828542 0.015993 -0.559698  0.028321 0.037080 1 0 1.000000
0  22.724106 101.563438 9.414471  0.808449 0.155133 -0.567753  0.028321 0.244118 1 0 1.000000
aluminiummisc
0  22.173553 103.022400 12.414989  0.592822 0.430697 0.680487  0.028321 0.244118 1 0 1.000000
0  21.044916 103.449089 12.704031  0.116247 0.576847 0.808538  0.028321 0.244118 1 0 1.000000
0  21.237612 98.439041 12.896725  0.200747 0.025029 0.979323  0.028321 0.037080 1 0 1.000000
aluminiummisc
0  21.237612 98.439041 12.896725  0.200747 0.025029 0.979323  0.028321 0.037080 1 0 1.000000
0  22.366249 98.163773 12.387462  0.690117 -0.006853 0.723665  0.028321 0.037080 1 0 1.000000
0  22.173553 103.022400 12.414989  0.592822 0.430697 0.680487  0.028321 0.244118 1 0 1.000000
aluminiummisc
0  18.760118 103.228867 10.460524  -0.331874 0.893881 -0.301391  0.032228 0.120090 1 0 1.000000
0  18.939049 102.774658 9.400708  -0.452962 0.671981 -0.585890  0.032228 0.120090 1 0 1.000000
0  18.718826 102.623253 9.373180  -0.774495 0.348735 -0.527770  0.032228 0.244118 1 0 1.000000
aluminiummisc
0  18.718826 102.623253 9.373180  -0.774495 0.348735 -0.527770  0.032228 0.244118 1 0 1.000000
0  18.526133 103.160034 10.474288  -0.841096 0.531248 -0.101650  0.032228 0.244118 1 0 1.000000
0  18.760118 103.228867 10.460524  -0.331874 0.893881 -0.301391  0.032228 0.120090 1 0 1.000000
aluminiummisc
0  19.131742 103.545433 11.520340  -0.132346 0.984930 -0.111341  0.032228 0.120090 1 0 1.000000
0  18.760118 103.228867 10.460524  -0.331874 0.893881 -0.301391  0.032228 0.120090 1 0 1.000000
0  18.526133 103.160034 10.474288  -0.841096 0.531248 -0.101650  0.032228 0.244118 1 0 1.000000
aluminiummisc
0  18.526133 103.160034 10.474288  -0.841096 0.531248 -0.101650  0.032228 0.244118 1 0 1.000000
0  18.939049 103.531670 11.575396  -0.677603 0.669756 0.303779  0.032228 0.244118 1 0 1.000000
0  19.131742 103.545433 11.520340  -0.132346 0.984930 -0.111341  0.032228 0.120090 1 0 1.000000
aluminiummisc
0  19.985100 103.641777 12.304878  0.038923 0.997178 0.064191  0.032228 0.120090 1 0 1.000000
0  19.131742 103.545433 11.520340  -0.132346 0.984930 -0.111341  0.032228 0.120090 1 0 1.000000
0  18.939049 103.531670 11.575396  -0.677603 0.669756 0.303779  0.032228 0.244118 1 0 1.000000
aluminiummisc
0  18.939049 103.531670 11.575396  -0.677603 0.669756 0.303779  0.032228 0.244118 1 0 1.000000
0  19.861225 103.641777 12.387462  -0.341209 0.701671 0.625486  0.032228 0.244118 1 0 1.000000
0  19.985100 103.641777 12.304878  0.038923 0.997178 0.064191  0.032228 0.120090 1 0 1.000000
aluminiummisc
0  21.072445 103.490379 12.593920  0.237104 0.920399 0.310881  0.032228 0.120090 1 0 1.000000
0  19.985100 103.641777 12.304878  0.038923 0.997178 0.064191  0.032228 0.120090 1 0 1.000000
0  19.861225 103.641777 12.387462  -0.341209 0.701671 0.625486  0.032228 0.244118 1 0 1.000000
aluminiummisc
0  19.861225 103.641777 12.387462  -0.341209 0.701671 0.625486  0.032228 0.244118 1 0 1.000000
0  21.044916 103.449089 12.704031  0.116247 0.576847 0.808538  0.032228 0.244118 1 0 1.000000
0  21.072445 103.490379 12.593920  0.237104 0.920399 0.310881  0.032228 0.120090 1 0 1.000000
aluminiummisc
0  22.090969 103.118744 12.332406  0.522968 0.770886 0.363648  0.032228 0.120090 1 0 1.000000
0  21.072445 103.490379 12.593920  0.237104 0.920399 0.310881  0.032228 0.120090 1 0 1.000000
0  21.044916 103.449089 12.704031  0.116247 0.576847 0.808538  0.032228 0.244118 1 0 1.000000
aluminiummisc
0  21.044916 103.449089 12.704031  0.116247 0.576847 0.808538  0.032228 0.244118 1 0 1.000000
0  22.173553 103.022400 12.414989  0.592822 0.430697 0.680487  0.032228 0.244118 1 0 1.000000
0  22.090969 103.118744 12.332406  0.522968 0.770886 0.363648  0.032228 0.120090 1 0 1.000000
aluminiummisc
0  22.792927 102.664543 11.561630  0.761424 0.640556 0.099601  0.032228 0.120090 1 0 1.000000
0  22.090969 103.118744 12.332406  0.522968 0.770886 0.363648  0.032228 0.120090 1 0 1.000000
0  22.173553 103.022400 12.414989  0.592822 0.430697 0.680487  0.032228 0.244118 1 0 1.000000
aluminiummisc
0  22.173553 103.022400 12.414989  0.592822 0.430697 0.680487  0.032228 0.244118 1 0 1.000000
0  22.944328 102.471855 11.616687  0.896464 0.322018 0.304394  0.032228 0.244118 1 0 1.000000
0  22.792927 102.664543 11.561630  0.761424 0.640556 0.099601  0.032228 0.120090 1 0 1.000000
aluminiummisc
0  22.985619 102.210335 10.501815  0.831993 0.498809 -0.242852  0.032228 0.120090 1 0 1.000000
0  22.792927 102.664543 11.561630  0.761424 0.640556 0.099601  0.032228 0.120090 1 0 1.000000
0  22.944328 102.471855 11.616687  0.896464 0.322018 0.304394  0.032228 0.244118 1 0 1.000000
aluminiummisc
0  22.944328 102.471855 11.616687  0.896464 0.322018 0.304394  0.032228 0.244118 1 0 1.000000
0  23.150785 101.935059 10.515578  0.962685 0.222830 -0.153571  0.032228 0.244118 1 0 1.000000
0  22.985619 102.210335 10.501815  0.831993 0.498809 -0.242852  0.032228 0.120090 1 0 1.000000
aluminiummisc
0  22.600233 101.893768 9.441998  0.738745 0.341886 -0.580835  0.032228 0.120090 1 0 1.000000
0  22.985619 102.210335 10.501815  0.831993 0.498809 -0.242852  0.032228 0.120090 1 0 1.000000
0  23.150785 101.935059 10.515578  0.962685 0.222830 -0.153571  0.032228 0.244118 1 0 1.000000
aluminiummisc
0  23.150785 101.935059 10.515578  0.962685 0.222830 -0.153571  0.032228 0.244118 1 0 1.000000
0  22.724106 101.563438 9.414471  0.808449 0.155133 -0.567753  0.032228 0.244118 1 0 1.000000
0  22.600233 101.893768 9.441998  0.738745 0.341886 -0.580835  0.032228 0.120090 1 0 1.000000
aluminiummisc
0  21.746874 101.797424 8.657459  0.459344 0.212299 -0.862515  0.032228 0.120090 1 0 1.000000
0  22.600233 101.893768 9.441998  0.738745 0.341886 -0.580835  0.032228 0.120090 1 0 1.000000
0  22.724106 101.563438 9.414471  0.808449 0.155133 -0.567753  0.032228 0.244118 1 0 1.000000
aluminiummisc
0  22.724106 101.563438 9.414471  0.808449 0.155133 -0.567753  0.032228 0.244118 1 0 1.000000
0  21.801928 101.453331 8.602404  0.476473 0.122878 -0.870560  0.032228 0.244118 1 0 1.000000
0  21.746874 101.797424 8.657459  0.459344 0.212299 -0.862515  0.032228 0.120090 1 0 1.000000
aluminiummisc
0  20.673294 101.948822 8.368418  0.041415 0.203463 -0.978206  0.032228 0.120090 1 0 1.000000
0  21.746874 101.797424 8.657459  0.459344 0.212299 -0.862515  0.032228 0.120090 1 0 1.000000
0  21.801928 101.453331 8.602404  0.476473 0.122878 -0.870560  0.032228 0.244118 1 0 1.000000
aluminiummisc
0  21.801928 101.453331 8.602404  0.476473 0.122878 -0.870560  0.032228 0.244118 1 0 1.000000
0  20.618238 101.632263 8.299600  0.015754 0.121165 -0.992507  0.032228 0.244118 1 0 1.000000
0  20.673294 101.948822 8.368418  0.041415 0.203463 -0.978206  0.032228 0.120090 1 0 1.000000
aluminiummisc
0  19.641005 102.306694 8.643695  -0.326128 0.382027 -0.864694  0.032228 0.120090 1 0 1.000000
0  20.673294 101.948822 8.368418  0.041415 0.203463 -0.978206  0.032228 0.120090 1 0 1.000000
0  20.618238 101.632263 8.299600  0.015754 0.121165 -0.992507  0.032228 0.244118 1 0 1.000000
aluminiummisc
0  20.618238 101.632263 8.299600  0.015754 0.121165 -0.992507  0.032228 0.244118 1 0 1.000000
0  19.489601 102.058929 8.574876  -0.458807 0.193155 -0.867287  0.032228 0.244118 1 0 1.000000
0  19.641005 102.306694 8.643695  -0.326128 0.382027 -0.864694  0.032228 0.120090 1 0 1.000000
aluminiummisc
0  18.939049 102.774658 9.400708  -0.452962 0.671981 -0.585890  0.032228 0.120090 1 0 1.000000
0  19.641005 102.306694 8.643695  -0.326128 0.382027 -0.864694  0.032228 0.120090 1 0 1.000000
0  19.489601 102.058929 8.574876  -0.458807 0.193155 -0.867287  0.032228 0.244118 1 0 1.000000
aluminiummisc
0  19.489601 102.058929 8.574876  -0.458807 0.193155 -0.867287  0.032228 0.244118 1 0 1.000000
0  18.718826 102.623253 9.373180  -0.774495 0.348735 -0.527770  0.032228 0.244118 1 0 1.000000
0  18.939049 102.774658 9.400708  -0.452962 0.671981 -0.585890  0.032228 0.120090 1 0 1.000000
aluminiummisc
0  20.012630 98.728081 12.786614  -0.354473 0.043261 0.934065  0.028321 0.037080 1 0 1.000000
0  21.237612 98.439041 12.896725  0.200747 0.025029 0.979323  0.028321 0.037080 1 0 1.000000
0  21.044916 103.449089 12.704031  0.116247 0.576847 0.808538  0.028321 0.244118 1 0 1.000000
aluminiummisc
0  21.044916 103.449089 12.704031  0.116247 0.576847 0.808538  0.028321 0.244118 1 0 1.000000
0  19.861225 103.641777 12.387462  -0.341209 0.701671 0.625486  0.028321 0.244118 1 0 1.000000
0  20.012630 98.728081 12.786614  -0.354473 0.043261 0.934065  0.028321 0.037080 1 0 1.000000
aluminiummisc
0  23.150785 101.935059 10.515578  0.962685 0.222830 -0.153571  0.028321 0.244118 1 0 1.000000
0  22.944328 102.471855 11.616687  0.896464 0.322018 0.304394  0.028321 0.244118 1 0 1.000000
0  22.971857 97.998596 11.327646  0.964455 -0.031928 0.262313  0.028321 0.037080 1 0 1.000000
aluminiummisc
0  22.971857 97.998596 11.327646  0.964455 -0.031928 0.262313  0.028321 0.037080 1 0 1.000000
0  22.999384 97.984833 10.240301  0.984883 -0.024449 -0.171487  0.028321 0.037080 1 0 1.000000
0  23.150785 101.935059 10.515578  0.962685 0.222830 -0.153571  0.028321 0.244118 1 0 1.000000
aluminiummisc
0  18.773882 98.975838 9.744803  -0.959006 -0.057477 -0.277496  0.028321 0.037080 1 0 1.000000
0  18.732592 99.003365 10.956023  -0.984407 -0.026734 0.173862  0.028321 0.037080 1 0 1.000000
0  18.526133 103.160034 10.474288  -0.841096 0.531248 -0.101650  0.028321 0.244118 1 0 1.000000
aluminiummisc
0  18.526133 103.160034 10.474288  -0.841096 0.531248 -0.101650  0.028321 0.244118 1 0 1.000000
0  18.718826 102.623253 9.373180  -0.774495 0.348735 -0.527770  0.028321 0.244118 1 0 1.000000
0  18.773882 98.975838 9.744803  -0.959006 -0.057477 -0.277496  0.028321 0.037080 1 0 1.000000
aluminiummisc
0  20.480598 98.549156 8.189488  -0.106003 0.011696 -0.994297  0.028321 0.037080 1 0 1.000000
0  19.351965 98.824440 8.740043  -0.653989 -0.038738 -0.755512  0.028321 0.037080 1 0 1.000000
0  19.489601 102.058929 8.574876  -0.458807 0.193155 -0.867287  0.028321 0.244118 1 0 1.000000
aluminiummisc
0  19.489601 102.058929 8.574876  -0.458807 0.193155 -0.867287  0.028321 0.244118 1 0 1.000000
0  20.618238 101.632263 8.299600  0.015754 0.121165 -0.992507  0.028321 0.244118 1 0 1.000000
0  20.480598 98.549156 8.189488  -0.106003 0.011696 -0.994297  0.028321 0.037080 1 0 1.000000
aluminiummisc
0  22.366249 98.163773 12.387462  0.690117 -0.006853 0.723665  0.028321 0.037080 1 0 1.000000
0  22.971857 97.998596 11.327646  0.964455 -0.031928 0.262313  0.028321 0.037080 1 0 1.000000
0  22.944328 102.471855 11.616687  0.896464 0.322018 0.304394  0.028321 0.244118 1 0 1.000000
aluminiummisc
0  22.944328 102.471855 11.616687  0.896464 0.322018 0.304394  0.028321 0.244118 1 0 1.000000
0  22.173553 103.022400 12.414989  0.592822 0.430697 0.680487  0.028321 0.244118 1 0 1.000000
0  22.366249 98.163773 12.387462  0.690117 -0.006853 0.723665  0.028321 0.037080 1 0 1.000000
aluminiummisc
0  18.732592 99.003365 10.956023  -0.984407 -0.026734 0.173862  0.028321 0.037080 1 0 1.000000
0  19.090452 98.934547 11.974546  -0.807576 0.022808 0.589322  0.028321 0.037080 1 0 1.000000
0  18.939049 103.531670 11.575396  -0.677603 0.669756 0.303779  0.028321 0.244118 1 0 1.000000
aluminiummisc
0  18.939049 103.531670 11.575396  -0.677603 0.669756 0.303779  0.028321 0.244118 1 0 1.000000
0  18.526133 103.160034 10.474288  -0.841096 0.531248 -0.101650  0.028321 0.244118 1 0 1.000000
0  18.732592 99.003365 10.956023  -0.984407 -0.026734 0.173862  0.028321 0.037080 1 0 1.000000
aluminiummisc
0  -20.040169 98.728081 12.786618  0.338856 0.066212 0.938505  0.028321 0.037080 1 0 1.000000
0  -19.117990 98.934547 11.974550  0.805778 0.022110 0.591805  0.028321 0.037080 1 0 1.000000
0  -18.966591 103.531670 11.575398  0.688240 0.643966 0.334116  0.028321 0.244118 1 0 1.000000
aluminiummisc
0  -18.966591 103.531670 11.575398  0.688240 0.643966 0.334116  0.028321 0.244118 1 0 1.000000
0  -19.888767 103.641777 12.387465  0.317252 0.695532 0.644660  0.028321 0.244118 1 0 1.000000
0  -20.040169 98.728081 12.786618  0.338856 0.066212 0.938505  0.028321 0.037080 1 0 1.000000
aluminiummisc
0  -19.517145 102.058929 8.574880  0.480866 0.115640 -0.869135  0.028321 0.244118 1 0 1.000000
0  -18.746370 102.623253 9.373182  0.816723 0.259901 -0.515185  0.028321 0.244118 1 0 1.000000
0  -18.801426 98.975838 9.744805  0.956475 -0.011606 -0.291582  0.028321 0.037080 1 0 1.000000
aluminiummisc
0  -18.801426 98.975838 9.744805  0.956475 -0.011606 -0.291582  0.028321 0.037080 1 0 1.000000
0  -19.379507 98.824440 8.740047  0.644677 0.023132 -0.764105  0.028321 0.037080 1 0 1.000000
0  -19.517145 102.058929 8.574880  0.480866 0.115640 -0.869135  0.028321 0.244118 1 0 1.000000
aluminiummisc
0  -20.508142 98.549156 8.189492  0.101214 0.060568 -0.993019  0.028321 0.037080 1 0 1.000000
0  -21.733126 98.260117 8.340895  -0.443116 0.058731 -0.894538  0.028321 0.037080 1 0 1.000000
0  -21.829472 101.453331 8.602407  -0.475469 0.163060 -0.864489  0.028321 0.244118 1 0 1.000000
aluminiummisc
0  -21.829472 101.453331 8.602407  -0.475469 0.163060 -0.864489  0.028321 0.244118 1 0 1.000000
0  -20.645781 101.632263 8.299603  -0.019215 0.099529 -0.994849  0.028321 0.244118 1 0 1.000000
0  -20.508142 98.549156 8.189492  0.101214 0.060568 -0.993019  0.028321 0.037080 1 0 1.000000
aluminiummisc
0  -22.751648 101.563438 9.414474  -0.792889 0.223492 -0.566903  0.028321 0.244118 1 0 1.000000
0  -21.829472 101.453331 8.602407  -0.475469 0.163060 -0.864489  0.028321 0.244118 1 0 1.000000
0  -21.733126 98.260117 8.340895  -0.443116 0.058731 -0.894538  0.028321 0.037080 1 0 1.000000
aluminiummisc
0  -21.733126 98.260117 8.340895  -0.443116 0.058731 -0.894538  0.028321 0.037080 1 0 1.000000
0  -22.614012 98.067413 9.111670  -0.828229 0.013691 -0.560223  0.028321 0.037080 1 0 1.000000
0  -22.751648 101.563438 9.414474  -0.792889 0.223492 -0.566903  0.028321 0.244118 1 0 1.000000
aluminiummisc
0  -23.178328 101.935059 10.515582  -0.944789 0.284442 -0.162685  0.028321 0.244118 1 0 1.000000
0  -22.751648 101.563438 9.414474  -0.792889 0.223492 -0.566903  0.028321 0.244118 1 0 1.000000
0  -22.614012 98.067413 9.111670  -0.828229 0.013691 -0.560223  0.028321 0.037080 1 0 1.000000
aluminiummisc
0  -22.614012 98.067413 9.111670  -0.828229 0.013691 -0.560223  0.028321 0.037080 1 0 1.000000
0  -23.026922 97.984833 10.240305  -0.987536 -0.007962 -0.157193  0.028321 0.037080 1 0 1.000000
0  -23.178328 101.935059 10.515582  -0.944789 0.284442 -0.162685  0.028321 0.244118 1 0 1.000000
aluminiummisc
0  -21.072460 103.449089 12.704035  -0.159295 0.625252 0.763993  0.028321 0.244118 1 0 1.000000
0  -22.201096 103.022400 12.414993  -0.601218 0.509621 0.615485  0.028321 0.244118 1 0 1.000000
0  -22.393787 98.163773 12.387465  -0.699123 0.038104 0.713986  0.028321 0.037080 1 0 1.000000
aluminiummisc
0  -22.393787 98.163773 12.387465  -0.699123 0.038104 0.713986  0.028321 0.037080 1 0 1.000000
0  -21.265150 98.439041 12.910492  -0.210365 0.061709 0.975673  0.028321 0.037080 1 0 1.000000
0  -21.072460 103.449089 12.704035  -0.159295 0.625252 0.763993  0.028321 0.244118 1 0 1.000000
aluminiummisc
0  -18.897772 102.774658 9.400710  0.553838 0.601407 -0.575823  0.032228 0.120090 1 0 1.000000
0  -18.705078 103.228867 10.460526  0.429413 0.862108 -0.269024  0.032228 0.120090 1 0 1.000000
0  -18.553675 103.160034 10.474290  0.877263 0.473193 -0.080612  0.032228 0.244118 1 0 1.000000
aluminiummisc
0  -18.553675 103.160034 10.474290  0.877263 0.473193 -0.080612  0.032228 0.244118 1 0 1.000000
0  -18.746370 102.623253 9.373182  0.816723 0.259901 -0.515185  0.032228 0.244118 1 0 1.000000
0  -18.897772 102.774658 9.400710  0.553838 0.601407 -0.575823  0.032228 0.120090 1 0 1.000000
aluminiummisc
0  -18.705078 103.228867 10.460526  0.429413 0.862108 -0.269024  0.032228 0.120090 1 0 1.000000
0  -19.090466 103.545433 11.520344  0.175644 0.981136 -0.080758  0.032228 0.120090 1 0 1.000000
0  -18.966591 103.531670 11.575398  0.688240 0.643966 0.334116  0.032228 0.244118 1 0 1.000000
aluminiummisc
0  -18.966591 103.531670 11.575398  0.688240 0.643966 0.334116  0.032228 0.244118 1 0 1.000000
0  -18.553675 103.160034 10.474290  0.877263 0.473193 -0.080612  0.032228 0.244118 1 0 1.000000
0  -18.705078 103.228867 10.460526  0.429413 0.862108 -0.269024  0.032228 0.120090 1 0 1.000000
aluminiummisc
0  -19.090466 103.545433 11.520344  0.175644 0.981136 -0.080758  0.032228 0.120090 1 0 1.000000
0  -19.943823 103.641777 12.304882  -0.025221 0.999372 0.024903  0.032228 0.120090 1 0 1.000000
0  -19.888767 103.641777 12.387465  0.317252 0.695532 0.644660  0.032228 0.244118 1 0 1.000000
aluminiummisc
0  -19.888767 103.641777 12.387465  0.317252 0.695532 0.644660  0.032228 0.244118 1 0 1.000000
0  -18.966591 103.531670 11.575398  0.688240 0.643966 0.334116  0.032228 0.244118 1 0 1.000000
0  -19.090466 103.545433 11.520344  0.175644 0.981136 -0.080758  0.032228 0.120090 1 0 1.000000
aluminiummisc
0  -19.943823 103.641777 12.304882  -0.025221 0.999372 0.024903  0.032228 0.120090 1 0 1.000000
0  -21.017405 103.490379 12.593924  -0.174802 0.963864 0.201024  0.032228 0.120090 1 0 1.000000
0  -21.072460 103.449089 12.704035  -0.159295 0.625252 0.763993  0.032228 0.244118 1 0 1.000000
aluminiummisc
0  -21.072460 103.449089 12.704035  -0.159295 0.625252 0.763993  0.032228 0.244118 1 0 1.000000
0  -19.888767 103.641777 12.387465  0.317252 0.695532 0.644660  0.032228 0.244118 1 0 1.000000
0  -19.943823 103.641777 12.304882  -0.025221 0.999372 0.024903  0.032228 0.120090 1 0 1.000000
aluminiummisc
0  -21.017405 103.490379 12.593924  -0.174802 0.963864 0.201024  0.032228 0.120090 1 0 1.000000
0  -22.049694 103.118744 12.332410  -0.451966 0.869429 0.199550  0.032228 0.120090 1 0 1.000000
0  -22.201096 103.022400 12.414993  -0.601218 0.509621 0.615485  0.032228 0.244118 1 0 1.000000
aluminiummisc
0  -22.201096 103.022400 12.414993  -0.601218 0.509621 0.615485  0.032228 0.244118 1 0 1.000000
0  -21.072460 103.449089 12.704035  -0.159295 0.625252 0.763993  0.032228 0.244118 1 0 1.000000
0  -21.017405 103.490379 12.593924  -0.174802 0.963864 0.201024  0.032228 0.120090 1 0 1.000000
aluminiummisc
0  -22.049694 103.118744 12.332410  -0.451966 0.869429 0.199550  0.032228 0.120090 1 0 1.000000
0  -22.751648 102.664543 11.561634  -0.657951 0.752864 -0.017209  0.032228 0.120090 1 0 1.000000
0  -22.971870 102.471855 11.616691  -0.882498 0.382971 0.273003  0.032228 0.244118 1 0 1.000000
aluminiummisc
0  -22.971870 102.471855 11.616691  -0.882498 0.382971 0.273003  0.032228 0.244118 1 0 1.000000
0  -22.201096 103.022400 12.414993  -0.601218 0.509621 0.615485  0.032228 0.244118 1 0 1.000000
0  -22.049694 103.118744 12.332410  -0.451966 0.869429 0.199550  0.032228 0.120090 1 0 1.000000
aluminiummisc
0  -22.751648 102.664543 11.561634  -0.657951 0.752864 -0.017209  0.032228 0.120090 1 0 1.000000
0  -22.930580 102.210335 10.501819  -0.737918 0.611244 -0.286108  0.032228 0.120090 1 0 1.000000
0  -23.178328 101.935059 10.515582  -0.944789 0.284442 -0.162685  0.032228 0.244118 1 0 1.000000
aluminiummisc
0  -23.178328 101.935059 10.515582  -0.944789 0.284442 -0.162685  0.032228 0.244118 1 0 1.000000
0  -22.971870 102.471855 11.616691  -0.882498 0.382971 0.273003  0.032228 0.244118 1 0 1.000000
0  -22.751648 102.664543 11.561634  -0.657951 0.752864 -0.017209  0.032228 0.120090 1 0 1.000000
aluminiummisc
0  -22.930580 102.210335 10.501819  -0.737918 0.611244 -0.286108  0.032228 0.120090 1 0 1.000000
0  -22.558954 101.893768 9.442002  -0.680652 0.446487 -0.580828  0.032228 0.120090 1 0 1.000000
0  -22.751648 101.563438 9.414474  -0.792889 0.223492 -0.566903  0.032228 0.244118 1 0 1.000000
aluminiummisc
0  -22.751648 101.563438 9.414474  -0.792889 0.223492 -0.566903  0.032228 0.244118 1 0 1.000000
0  -23.178328 101.935059 10.515582  -0.944789 0.284442 -0.162685  0.032228 0.244118 1 0 1.000000
0  -22.930580 102.210335 10.501819  -0.737918 0.611244 -0.286108  0.032228 0.120090 1 0 1.000000
aluminiummisc
0  -22.558954 101.893768 9.442002  -0.680652 0.446487 -0.580828  0.032228 0.120090 1 0 1.000000
0  -21.705595 101.797424 8.657463  -0.436880 0.285248 -0.853094  0.032228 0.120090 1 0 1.000000
0  -21.829472 101.453331 8.602407  -0.475469 0.163060 -0.864489  0.032228 0.244118 1 0 1.000000
aluminiummisc
0  -21.829472 101.453331 8.602407  -0.475469 0.163060 -0.864489  0.032228 0.244118 1 0 1.000000
0  -22.751648 101.563438 9.414474  -0.792889 0.223492 -0.566903  0.032228 0.244118 1 0 1.000000
0  -22.558954 101.893768 9.442002  -0.680652 0.446487 -0.580828  0.032228 0.120090 1 0 1.000000
aluminiummisc
0  -21.705595 101.797424 8.657463  -0.436880 0.285248 -0.853094  0.032228 0.120090 1 0 1.000000
0  -20.632017 101.948822 8.368422  -0.022049 0.213106 -0.976780  0.032228 0.120090 1 0 1.000000
0  -20.645781 101.632263 8.299603  -0.019215 0.099529 -0.994849  0.032228 0.244118 1 0 1.000000
aluminiummisc
0  -20.645781 101.632263 8.299603  -0.019215 0.099529 -0.994849  0.032228 0.244118 1 0 1.000000
0  -21.829472 101.453331 8.602407  -0.475469 0.163060 -0.864489  0.032228 0.244118 1 0 1.000000
0  -21.705595 101.797424 8.657463  -0.436880 0.285248 -0.853094  0.032228 0.120090 1 0 1.000000
aluminiummisc
0  -20.632017 101.948822 8.368422  -0.022049 0.213106 -0.976780  0.032228 0.120090 1 0 1.000000
0  -19.599728 102.306694 8.643699  0.381576 0.326630 -0.864704  0.032228 0.120090 1 0 1.000000
0  -19.517145 102.058929 8.574880  0.480866 0.115640 -0.869135  0.032228 0.244118 1 0 1.000000
aluminiummisc
0  -19.517145 102.058929 8.574880  0.480866 0.115640 -0.869135  0.032228 0.244118 1 0 1.000000
0  -20.645781 101.632263 8.299603  -0.019215 0.099529 -0.994849  0.032228 0.244118 1 0 1.000000
0  -20.632017 101.948822 8.368422  -0.022049 0.213106 -0.976780  0.032228 0.120090 1 0 1.000000
aluminiummisc
0  -19.599728 102.306694 8.643699  0.381576 0.326630 -0.864704  0.032228 0.120090 1 0 1.000000
0  -18.897772 102.774658 9.400710  0.553838 0.601407 -0.575823  0.032228 0.120090 1 0 1.000000
0  -18.746370 102.623253 9.373182  0.816723 0.259901 -0.515185  0.032228 0.244118 1 0 1.000000
aluminiummisc
0  -18.746370 102.623253 9.373182  0.816723 0.259901 -0.515185  0.032228 0.244118 1 0 1.000000
0  -19.517145 102.058929 8.574880  0.480866 0.115640 -0.869135  0.032228 0.244118 1 0 1.000000
0  -19.599728 102.306694 8.643699  0.381576 0.326630 -0.864704  0.032228 0.120090 1 0 1.000000
aluminiummisc
0  -21.265150 98.439041 12.910492  -0.210365 0.061709 0.975673  0.028321 0.037080 1 0 1.000000
0  -20.040169 98.728081 12.786618  0.338856 0.066212 0.938505  0.028321 0.037080 1 0 1.000000
0  -19.888767 103.641777 12.387465  0.317252 0.695532 0.644660  0.028321 0.244118 1 0 1.000000
aluminiummisc
0  -19.888767 103.641777 12.387465  0.317252 0.695532 0.644660  0.028321 0.244118 1 0 1.000000
0  -21.072460 103.449089 12.704035  -0.159295 0.625252 0.763993  0.028321 0.244118 1 0 1.000000
0  -21.265150 98.439041 12.910492  -0.210365 0.061709 0.975673  0.028321 0.037080 1 0 1.000000
aluminiummisc
0  -22.971870 102.471855 11.616691  -0.882498 0.382971 0.273003  0.028321 0.244118 1 0 1.000000
0  -23.178328 101.935059 10.515582  -0.944789 0.284442 -0.162685  0.028321 0.244118 1 0 1.000000
0  -23.026922 97.984833 10.240305  -0.987536 -0.007962 -0.157193  0.028321 0.037080 1 0 1.000000
aluminiummisc
0  -23.026922 97.984833 10.240305  -0.987536 -0.007962 -0.157193  0.028321 0.037080 1 0 1.000000
0  -22.999395 97.998596 11.327650  -0.965173 0.012015 0.261338  0.028321 0.037080 1 0 1.000000
0  -22.971870 102.471855 11.616691  -0.882498 0.382971 0.273003  0.028321 0.244118 1 0 1.000000
aluminiummisc
0  -18.760132 99.003365 10.956025  0.986960 -0.017177 0.160046  0.028321 0.037080 1 0 1.000000
0  -18.801426 98.975838 9.744805  0.956475 -0.011606 -0.291582  0.028321 0.037080 1 0 1.000000
0  -18.746370 102.623253 9.373182  0.816723 0.259901 -0.515185  0.028321 0.244118 1 0 1.000000
aluminiummisc
0  -18.746370 102.623253 9.373182  0.816723 0.259901 -0.515185  0.028321 0.244118 1 0 1.000000
0  -18.553675 103.160034 10.474290  0.877263 0.473193 -0.080612  0.028321 0.244118 1 0 1.000000
0  -18.760132 99.003365 10.956025  0.986960 -0.017177 0.160046  0.028321 0.037080 1 0 1.000000
aluminiummisc
0  -19.379507 98.824440 8.740047  0.644677 0.023132 -0.764105  0.028321 0.037080 1 0 1.000000
0  -20.508142 98.549156 8.189492  0.101214 0.060568 -0.993019  0.028321 0.037080 1 0 1.000000
0  -20.645781 101.632263 8.299603  -0.019215 0.099529 -0.994849  0.028321 0.244118 1 0 1.000000
aluminiummisc
0  -20.645781 101.632263 8.299603  -0.019215 0.099529 -0.994849  0.028321 0.244118 1 0 1.000000
0  -19.517145 102.058929 8.574880  0.480866 0.115640 -0.869135  0.028321 0.244118 1 0 1.000000
0  -19.379507 98.824440 8.740047  0.644677 0.023132 -0.764105  0.028321 0.037080 1 0 1.000000
aluminiummisc
0  -22.999395 97.998596 11.327650  -0.965173 0.012015 0.261338  0.028321 0.037080 1 0 1.000000
0  -22.393787 98.163773 12.387465  -0.699123 0.038104 0.713986  0.028321 0.037080 1 0 1.000000
0  -22.201096 103.022400 12.414993  -0.601218 0.509621 0.615485  0.028321 0.244118 1 0 1.000000
aluminiummisc
0  -22.201096 103.022400 12.414993  -0.601218 0.509621 0.615485  0.028321 0.244118 1 0 1.000000
0  -22.971870 102.471855 11.616691  -0.882498 0.382971 0.273003  0.028321 0.244118 1 0 1.000000
0  -22.999395 97.998596 11.327650  -0.965173 0.012015 0.261338  0.028321 0.037080 1 0 1.000000
aluminiummisc
0  -19.117990 98.934547 11.974550  0.805778 0.022110 0.591805  0.028321 0.037080 1 0 1.000000
0  -18.760132 99.003365 10.956025  0.986960 -0.017177 0.160046  0.028321 0.037080 1 0 1.000000
0  -18.553675 103.160034 10.474290  0.877263 0.473193 -0.080612  0.028321 0.244118 1 0 1.000000
aluminiummisc
0  -18.553675 103.160034 10.474290  0.877263 0.473193 -0.080612  0.028321 0.244118 1 0 1.000000
0  -18.966591 103.531670 11.575398  0.688240 0.643966 0.334116  0.028321 0.244118 1 0 1.000000
0  -19.117990 98.934547 11.974550  0.805778 0.022110 0.591805  0.028321 0.037080 1 0 1.000000
misc
0  18.939049 102.774658 9.400708  0.933470 0.153911 0.323954  0.053713 0.243141 1 0 1.000000
0  18.760118 103.228867 10.460524  0.983883 0.088752 -0.155231  0.053713 0.243141 1 0 1.000000
0  19.049158 100.489853 10.790855  0.989198 0.096023 -0.110759  0.053713 0.177709 1 0 1.000000
misc
0  19.049158 100.489853 10.790855  0.989198 0.096023 -0.110759  0.053713 0.177709 1 0 1.000000
0  19.200562 100.324692 9.841150  0.911259 0.161153 0.378994  0.053713 0.177709 1 0 1.000000
0  18.939049 102.774658 9.400708  0.933470 0.153911 0.323954  0.053713 0.243141 1 0 1.000000
misc
0  18.760118 103.228867 10.460524  0.983883 0.088752 -0.155231  0.053713 0.243141 1 0 1.000000
0  19.131742 103.545433 11.520340  0.817074 0.045090 -0.574767  0.053713 0.243141 1 0 1.000000
0  19.379492 100.668793 11.685507  0.818008 0.037221 -0.574001  0.053713 0.177709 1 0 1.000000
misc
0  19.379492 100.668793 11.685507  0.818008 0.037221 -0.574001  0.053713 0.177709 1 0 1.000000
0  19.049158 100.489853 10.790855  0.989198 0.096023 -0.110759  0.053713 0.177709 1 0 1.000000
0  18.760118 103.228867 10.460524  0.983883 0.088752 -0.155231  0.053713 0.243141 1 0 1.000000
misc
0  19.131742 103.545433 11.520340  0.817074 0.045090 -0.574767  0.053713 0.243141 1 0 1.000000
0  19.985100 103.641777 12.304878  0.485085 0.040380 -0.873534  0.053713 0.243141 1 0 1.000000
0  20.108974 100.778900 12.291115  0.426722 0.015574 -0.904249  0.053713 0.177709 1 0 1.000000
misc
0  20.108974 100.778900 12.291115  0.426722 0.015574 -0.904249  0.053713 0.177709 1 0 1.000000
0  19.379492 100.668793 11.685507  0.818008 0.037221 -0.574001  0.053713 0.177709 1 0 1.000000
0  19.131742 103.545433 11.520340  0.817074 0.045090 -0.574767  0.053713 0.243141 1 0 1.000000
misc
0  19.985100 103.641777 12.304878  0.485085 0.040380 -0.873534  0.053713 0.243141 1 0 1.000000
0  21.072445 103.490379 12.593920  0.047115 0.075768 -0.996012  0.053713 0.243141 1 0 1.000000
0  21.031155 100.806427 12.442516  -0.093031 0.043677 -0.994705  0.053713 0.177709 1 0 1.000000
misc
0  21.031155 100.806427 12.442516  -0.093031 0.043677 -0.994705  0.053713 0.177709 1 0 1.000000
0  20.108974 100.778900 12.291115  0.426722 0.015574 -0.904249  0.053713 0.177709 1 0 1.000000
0  19.985100 103.641777 12.304878  0.485085 0.040380 -0.873534  0.053713 0.243141 1 0 1.000000
misc
0  21.072445 103.490379 12.593920  0.047115 0.075768 -0.996012  0.053713 0.243141 1 0 1.000000
0  22.090969 103.118744 12.332406  -0.418663 0.135923 -0.897912  0.053713 0.243141 1 0 1.000000
0  21.898277 100.737610 12.098421  -0.582414 0.105001 -0.806082  0.053713 0.177709 1 0 1.000000
misc
0  21.898277 100.737610 12.098421  -0.582414 0.105001 -0.806082  0.053713 0.177709 1 0 1.000000
0  21.031155 100.806427 12.442516  -0.093031 0.043677 -0.994705  0.053713 0.177709 1 0 1.000000
0  21.072445 103.490379 12.593920  0.047115 0.075768 -0.996012  0.053713 0.243141 1 0 1.000000
misc
0  22.090969 103.118744 12.332406  -0.418663 0.135923 -0.897912  0.053713 0.243141 1 0 1.000000
0  22.792927 102.664543 11.561630  -0.804485 0.187388 -0.563640  0.053713 0.243141 1 0 1.000000
0  22.490122 100.599976 11.355173  -0.900752 0.159513 -0.403982  0.053713 0.177709 1 0 1.000000
misc
0  22.490122 100.599976 11.355173  -0.900752 0.159513 -0.403982  0.053713 0.177709 1 0 1.000000
0  21.898277 100.737610 12.098421  -0.582414 0.105001 -0.806082  0.053713 0.177709 1 0 1.000000
0  22.090969 103.118744 12.332406  -0.418663 0.135923 -0.897912  0.053713 0.243141 1 0 1.000000
misc
0  22.792927 102.664543 11.561630  -0.804485 0.187388 -0.563640  0.053713 0.243141 1 0 1.000000
0  22.985619 102.210335 10.501815  -0.978919 0.198615 -0.047647  0.053713 0.243141 1 0 1.000000
0  22.627760 100.434799 10.405467  -0.979326 0.176124 0.099502  0.053713 0.177709 1 0 1.000000
misc
0  22.627760 100.434799 10.405467  -0.979326 0.176124 0.099502  0.053713 0.177709 1 0 1.000000
0  22.490122 100.599976 11.355173  -0.900752 0.159513 -0.403982  0.053713 0.177709 1 0 1.000000
0  22.792927 102.664543 11.561630  -0.804485 0.187388 -0.563640  0.053713 0.243141 1 0 1.000000
misc
0  22.985619 102.210335 10.501815  -0.978919 0.198615 -0.047647  0.053713 0.243141 1 0 1.000000
0  22.600233 101.893768 9.441998  -0.852917 0.183471 0.488744  0.053713 0.243141 1 0 1.000000
0  22.297426 100.255867 9.510818  -0.800844 0.164332 0.575886  0.053713 0.177709 1 0 1.000000
misc
0  22.297426 100.255867 9.510818  -0.800844 0.164332 0.575886  0.053713 0.177709 1 0 1.000000
0  22.627760 100.434799 10.405467  -0.979326 0.176124 0.099502  0.053713 0.177709 1 0 1.000000
0  22.985619 102.210335 10.501815  -0.978919 0.198615 -0.047647  0.053713 0.243141 1 0 1.000000
misc
0  22.600233 101.893768 9.441998  -0.852917 0.183471 0.488744  0.053713 0.243141 1 0 1.000000
0  21.746874 101.797424 8.657459  -0.460347 0.190545 0.867048  0.053713 0.243141 1 0 1.000000
0  21.581707 100.145760 8.905209  -0.411320 0.166750 0.896108  0.053713 0.177709 1 0 1.000000
misc
0  21.581707 100.145760 8.905209  -0.411320 0.166750 0.896108  0.053713 0.177709 1 0 1.000000
0  22.297426 100.255867 9.510818  -0.800844 0.164332 0.575886  0.053713 0.177709 1 0 1.000000
0  22.600233 101.893768 9.441998  -0.852917 0.183471 0.488744  0.053713 0.243141 1 0 1.000000
misc
0  21.746874 101.797424 8.657459  -0.460347 0.190545 0.867048  0.053713 0.243141 1 0 1.000000
0  20.673294 101.948822 8.368418  0.093804 0.216764 0.971707  0.053713 0.243141 1 0 1.000000
0  20.659529 100.118233 8.753806  0.097272 0.190673 0.976822  0.053713 0.177709 1 0 1.000000
misc
0  20.659529 100.118233 8.753806  0.097272 0.190673 0.976822  0.053713 0.177709 1 0 1.000000
0  21.581707 100.145760 8.905209  -0.411320 0.166750 0.896108  0.053713 0.177709 1 0 1.000000
0  21.746874 101.797424 8.657459  -0.460347 0.190545 0.867048  0.053713 0.243141 1 0 1.000000
misc
0  20.673294 101.948822 8.368418  0.093804 0.216764 0.971707  0.053713 0.243141 1 0 1.000000
0  19.641005 102.306694 8.643695  0.621858 0.208314 0.754916  0.053713 0.243141 1 0 1.000000
0  19.792408 100.187050 9.097902  0.589114 0.197678 0.783497  0.053713 0.177709 1 0 1.000000
misc
0  19.792408 100.187050 9.097902  0.589114 0.197678 0.783497  0.053713 0.177709 1 0 1.000000
0  20.659529 100.118233 8.753806  0.097272 0.190673 0.976822  0.053713 0.177709 1 0 1.000000
0  20.673294 101.948822 8.368418  0.093804 0.216764 0.971707  0.053713 0.243141 1 0 1.000000
misc
0  19.641005 102.306694 8.643695  0.621858 0.208314 0.754916  0.053713 0.243141 1 0 1.000000
0  18.939049 102.774658 9.400708  0.933470 0.153911 0.323954  0.053713 0.243141 1 0 1.000000
0  19.200562 100.324692 9.841150  0.911259 0.161153 0.378994  0.053713 0.177709 1 0 1.000000
misc
0  19.200562 100.324692 9.841150  0.911259 0.161153 0.378994  0.053713 0.177709 1 0 1.000000
0  19.792408 100.187050 9.097902  0.589114 0.197678 0.783497  0.053713 0.177709 1 0 1.000000
0  19.641005 102.306694 8.643695  0.621858 0.208314 0.754916  0.053713 0.243141 1 0 1.000000
misc
0  -18.705078 103.228867 10.460526  -0.983918 0.090044 -0.154263  0.053713 0.243141 1 0 1.000000
0  -18.897772 102.774658 9.400710  -0.934620 0.153994 0.320578  0.053713 0.243141 1 0 1.000000
0  -19.159285 100.324692 9.841154  -0.912789 0.161668 0.375074  0.053713 0.177709 1 0 1.000000
misc
0  -19.159285 100.324692 9.841154  -0.912789 0.161668 0.375074  0.053713 0.177709 1 0 1.000000
0  -19.007881 100.489853 10.790859  -0.989507 0.095260 -0.108637  0.053713 0.177709 1 0 1.000000
0  -18.705078 103.228867 10.460526  -0.983918 0.090044 -0.154263  0.053713 0.243141 1 0 1.000000
misc
0  -19.090466 103.545433 11.520344  -0.820265 0.038020 -0.570718  0.053713 0.243141 1 0 1.000000
0  -18.705078 103.228867 10.460526  -0.983918 0.090044 -0.154263  0.053713 0.243141 1 0 1.000000
0  -19.007881 100.489853 10.790859  -0.989507 0.095260 -0.108637  0.053713 0.177709 1 0 1.000000
misc
0  -19.007881 100.489853 10.790859  -0.989507 0.095260 -0.108637  0.053713 0.177709 1 0 1.000000
0  -19.338215 100.668793 11.685511  -0.820070 0.045659 -0.570439  0.053713 0.177709 1 0 1.000000
0  -19.090466 103.545433 11.520344  -0.820265 0.038020 -0.570718  0.053713 0.243141 1 0 1.000000
misc
0  -19.943823 103.641777 12.304882  -0.489462 0.019372 -0.871809  0.053713 0.243141 1 0 1.000000
0  -19.090466 103.545433 11.520344  -0.820265 0.038020 -0.570718  0.053713 0.243141 1 0 1.000000
0  -19.338215 100.668793 11.685511  -0.820070 0.045659 -0.570439  0.053713 0.177709 1 0 1.000000
misc
0  -19.338215 100.668793 11.685511  -0.820070 0.045659 -0.570439  0.053713 0.177709 1 0 1.000000
0  -20.067699 100.778900 12.291119  -0.431208 0.040890 -0.901325  0.053713 0.177709 1 0 1.000000
0  -19.943823 103.641777 12.304882  -0.489462 0.019372 -0.871809  0.053713 0.243141 1 0 1.000000
misc
0  -21.017405 103.490379 12.593924  -0.041442 0.041966 -0.998259  0.053713 0.243141 1 0 1.000000
0  -19.943823 103.641777 12.304882  -0.489462 0.019372 -0.871809  0.053713 0.243141 1 0 1.000000
0  -20.067699 100.778900 12.291119  -0.431208 0.040890 -0.901325  0.053713 0.177709 1 0 1.000000
misc
0  -20.067699 100.778900 12.291119  -0.431208 0.040890 -0.901325  0.053713 0.177709 1 0 1.000000
0  -20.989874 100.806427 12.442520  0.087119 0.083811 -0.992666  0.053713 0.177709 1 0 1.000000
0  -21.017405 103.490379 12.593924  -0.041442 0.041966 -0.998259  0.053713 0.243141 1 0 1.000000
misc
0  -22.049694 103.118744 12.332410  0.438632 0.096826 -0.893435  0.053713 0.243141 1 0 1.000000
0  -21.017405 103.490379 12.593924  -0.041442 0.041966 -0.998259  0.053713 0.243141 1 0 1.000000
0  -20.989874 100.806427 12.442520  0.087119 0.083811 -0.992666  0.053713 0.177709 1 0 1.000000
misc
0  -20.989874 100.806427 12.442520  0.087119 0.083811 -0.992666  0.053713 0.177709 1 0 1.000000
0  -21.856998 100.737610 12.098425  0.575483 0.147772 -0.804353  0.053713 0.177709 1 0 1.000000
0  -22.049694 103.118744 12.332410  0.438632 0.096826 -0.893435  0.053713 0.243141 1 0 1.000000
misc
0  -22.751648 102.664543 11.561634  0.823402 0.154942 -0.545896  0.053713 0.243141 1 0 1.000000
0  -22.049694 103.118744 12.332410  0.438632 0.096826 -0.893435  0.053713 0.243141 1 0 1.000000
0  -21.856998 100.737610 12.098425  0.575483 0.147772 -0.804353  0.053713 0.177709 1 0 1.000000
misc
0  -21.856998 100.737610 12.098425  0.575483 0.147772 -0.804353  0.053713 0.177709 1 0 1.000000
0  -22.435081 100.599976 11.355177  0.895454 0.190578 -0.402296  0.053713 0.177709 1 0 1.000000
0  -22.751648 102.664543 11.561634  0.823402 0.154942 -0.545896  0.053713 0.243141 1 0 1.000000
misc
0  -22.930580 102.210335 10.501819  0.983135 0.179777 -0.033545  0.053713 0.243141 1 0 1.000000
0  -22.751648 102.664543 11.561634  0.823402 0.154942 -0.545896  0.053713 0.243141 1 0 1.000000
0  -22.435081 100.599976 11.355177  0.895454 0.190578 -0.402296  0.053713 0.177709 1 0 1.000000
misc
0  -22.435081 100.599976 11.355177  0.895454 0.190578 -0.402296  0.053713 0.177709 1 0 1.000000
0  -22.586481 100.434799 10.405471  0.976195 0.192732 0.099484  0.053713 0.177709 1 0 1.000000
0  -22.930580 102.210335 10.501819  0.983135 0.179777 -0.033545  0.053713 0.243141 1 0 1.000000
misc
0  -22.558954 101.893768 9.442002  0.854743 0.169621 0.490554  0.053713 0.243141 1 0 1.000000
0  -22.930580 102.210335 10.501819  0.983135 0.179777 -0.033545  0.053713 0.243141 1 0 1.000000
0  -22.586481 100.434799 10.405471  0.976195 0.192732 0.099484  0.053713 0.177709 1 0 1.000000
misc
0  -22.586481 100.434799 10.405471  0.976195 0.192732 0.099484  0.053713 0.177709 1 0 1.000000
0  -22.256149 100.255867 9.510821  0.802596 0.180954 0.568415  0.053713 0.177709 1 0 1.000000
0  -22.558954 101.893768 9.442002  0.854743 0.169621 0.490554  0.053713 0.243141 1 0 1.000000
misc
0  -21.705595 101.797424 8.657463  0.466646 0.168976 0.868153  0.053713 0.243141 1 0 1.000000
0  -22.558954 101.893768 9.442002  0.854743 0.169621 0.490554  0.053713 0.243141 1 0 1.000000
0  -22.256149 100.255867 9.510821  0.802596 0.180954 0.568415  0.053713 0.177709 1 0 1.000000
misc
0  -22.256149 100.255867 9.510821  0.802596 0.180954 0.568415  0.053713 0.177709 1 0 1.000000
0  -21.526667 100.145760 8.905212  0.415965 0.192019 0.888877  0.053713 0.177709 1 0 1.000000
0  -21.705595 101.797424 8.657463  0.466646 0.168976 0.868153  0.053713 0.243141 1 0 1.000000
misc
0  -20.632017 101.948822 8.368422  -0.090146 0.194612 0.976729  0.053713 0.243141 1 0 1.000000
0  -21.705595 101.797424 8.657463  0.466646 0.168976 0.868153  0.053713 0.243141 1 0 1.000000
0  -21.526667 100.145760 8.905212  0.415965 0.192019 0.888877  0.053713 0.177709 1 0 1.000000
misc
0  -21.526667 100.145760 8.905212  0.415965 0.192019 0.888877  0.053713 0.177709 1 0 1.000000
0  -20.618254 100.118233 8.753810  -0.099924 0.215839 0.971303  0.053713 0.177709 1 0 1.000000
0  -20.632017 101.948822 8.368422  -0.090146 0.194612 0.976729  0.053713 0.243141 1 0 1.000000
misc
0  -19.599728 102.306694 8.643699  -0.623850 0.197789 0.756102  0.053713 0.243141 1 0 1.000000
0  -20.632017 101.948822 8.368422  -0.090146 0.194612 0.976729  0.053713 0.243141 1 0 1.000000
0  -20.618254 100.118233 8.753810  -0.099924 0.215839 0.971303  0.053713 0.177709 1 0 1.000000
misc
0  -20.618254 100.118233 8.753810  -0.099924 0.215839 0.971303  0.053713 0.177709 1 0 1.000000
0  -19.737368 100.187050 9.097906  -0.594752 0.209806 0.776049  0.053713 0.177709 1 0 1.000000
0  -19.599728 102.306694 8.643699  -0.623850 0.197789 0.756102  0.053713 0.243141 1 0 1.000000
misc
0  -18.897772 102.774658 9.400710  -0.934620 0.153994 0.320578  0.053713 0.243141 1 0 1.000000
0  -19.599728 102.306694 8.643699  -0.623850 0.197789 0.756102  0.053713 0.243141 1 0 1.000000
0  -19.737368 100.187050 9.097906  -0.594752 0.209806 0.776049  0.053713 0.177709 1 0 1.000000
misc
0  -19.737368 100.187050 9.097906  -0.594752 0.209806 0.776049  0.053713 0.177709 1 0 1.000000
0  -19.159285 100.324692 9.841154  -0.912789 0.161668 0.375074  0.053713 0.177709 1 0 1.000000
0  -18.897772 102.774658 9.400710  -0.934620 0.153994 0.320578  0.053713 0.243141 1 0 1.000000
black
0  20.108974 100.778900 12.291115  -0.001825 0.983119 -0.182960  0.005860 0.007782 1 0 1.000000
0  21.031155 100.806427 12.442516  -0.001839 0.983131 -0.182891  0.005860 0.007782 1 0 1.000000
0  21.898277 100.737610 12.098421  -0.001819 0.983116 -0.182974  0.005860 0.007782 1 0 1.000000
black
0  20.108974 100.778900 12.291115  -0.001825 0.983119 -0.182960  0.005860 0.007782 1 0 1.000000
0  21.898277 100.737610 12.098421  -0.001819 0.983116 -0.182974  0.005860 0.007782 1 0 1.000000
0  22.490122 100.599976 11.355173  -0.001827 0.983113 -0.182990  0.005860 0.007782 1 0 1.000000
black
0  21.581707 100.145760 8.905209  -0.001809 0.983112 -0.182998  0.005860 0.007782 1 0 1.000000
0  20.659529 100.118233 8.753806  -0.001834 0.983103 -0.183045  0.005860 0.007782 1 0 1.000000
0  19.792408 100.187050 9.097902  -0.001838 0.983114 -0.182983  0.005860 0.007782 1 0 1.000000
black
0  21.581707 100.145760 8.905209  -0.001809 0.983112 -0.182998  0.005860 0.007782 1 0 1.000000
0  19.792408 100.187050 9.097902  -0.001838 0.983114 -0.182983  0.005860 0.007782 1 0 1.000000
0  19.200562 100.324692 9.841150  -0.001835 0.983113 -0.182992  0.005860 0.007782 1 0 1.000000
black
0  22.297426 100.255867 9.510818  -0.001835 0.983112 -0.182993  0.005860 0.007782 1 0 1.000000
0  21.581707 100.145760 8.905209  -0.001809 0.983112 -0.182998  0.005860 0.007782 1 0 1.000000
0  19.200562 100.324692 9.841150  -0.001835 0.983113 -0.182992  0.005860 0.007782 1 0 1.000000
black
0  22.297426 100.255867 9.510818  -0.001835 0.983112 -0.182993  0.005860 0.007782 1 0 1.000000
0  19.200562 100.324692 9.841150  -0.001835 0.983113 -0.182992  0.005860 0.007782 1 0 1.000000
0  19.049158 100.489853 10.790855  -0.001839 0.983106 -0.183030  0.005860 0.007782 1 0 1.000000
black
0  22.627760 100.434799 10.405467  -0.001879 0.983046 -0.183352  0.005860 0.007782 1 0 1.000000
0  22.297426 100.255867 9.510818  -0.001835 0.983112 -0.182993  0.005860 0.007782 1 0 1.000000
0  19.049158 100.489853 10.790855  -0.001839 0.983106 -0.183030  0.005860 0.007782 1 0 1.000000
black
0  22.627760 100.434799 10.405467  -0.001879 0.983046 -0.183352  0.005860 0.007782 1 0 1.000000
0  19.049158 100.489853 10.790855  -0.001839 0.983106 -0.183030  0.005860 0.007782 1 0 1.000000
0  19.379492 100.668793 11.685507  -0.001835 0.983113 -0.182993  0.005860 0.007782 1 0 1.000000
black
0  22.490122 100.599976 11.355173  -0.001827 0.983113 -0.182990  0.005860 0.007782 1 0 1.000000
0  22.627760 100.434799 10.405467  -0.001879 0.983046 -0.183352  0.005860 0.007782 1 0 1.000000
0  19.379492 100.668793 11.685507  -0.001835 0.983113 -0.182993  0.005860 0.007782 1 0 1.000000
black
0  20.108974 100.778900 12.291115  -0.001825 0.983119 -0.182960  0.005860 0.007782 1 0 1.000000
0  22.490122 100.599976 11.355173  -0.001827 0.983113 -0.182990  0.005860 0.007782 1 0 1.000000
0  19.379492 100.668793 11.685507  -0.001835 0.983113 -0.182993  0.005860 0.007782 1 0 1.000000
black
0  -19.737368 100.187050 9.097906  0.001757 0.983109 -0.183015  0.005860 0.007782 1 0 1.000000
0  -20.618254 100.118233 8.753810  0.001762 0.983098 -0.183072  0.005860 0.007782 1 0 1.000000
0  -21.526667 100.145760 8.905212  0.001699 0.983110 -0.183007  0.005860 0.007782 1 0 1.000000
black
0  -19.737368 100.187050 9.097906  0.001757 0.983109 -0.183015  0.005860 0.007782 1 0 1.000000
0  -21.526667 100.145760 8.905212  0.001699 0.983110 -0.183007  0.005860 0.007782 1 0 1.000000
0  -22.256149 100.255867 9.510821  0.001779 0.983126 -0.182922  0.005860 0.007782 1 0 1.000000
black
0  -21.856998 100.737610 12.098425  0.001771 0.983121 -0.182947  0.005860 0.007782 1 0 1.000000
0  -20.989874 100.806427 12.442520  0.001769 0.983134 -0.182880  0.005860 0.007782 1 0 1.000000
0  -20.067699 100.778900 12.291119  0.001738 0.983117 -0.182969  0.005860 0.007782 1 0 1.000000
black
0  -21.856998 100.737610 12.098425  0.001771 0.983121 -0.182947  0.005860 0.007782 1 0 1.000000
0  -20.067699 100.778900 12.291119  0.001738 0.983117 -0.182969  0.005860 0.007782 1 0 1.000000
0  -19.338215 100.668793 11.685511  0.001768 0.983115 -0.182983  0.005860 0.007782 1 0 1.000000
black
0  -22.435081 100.599976 11.355177  0.001773 0.983117 -0.182970  0.005860 0.007782 1 0 1.000000
0  -21.856998 100.737610 12.098425  0.001771 0.983121 -0.182947  0.005860 0.007782 1 0 1.000000
0  -19.338215 100.668793 11.685511  0.001768 0.983115 -0.182983  0.005860 0.007782 1 0 1.000000
black
0  -22.435081 100.599976 11.355177  0.001773 0.983117 -0.182970  0.005860 0.007782 1 0 1.000000
0  -19.338215 100.668793 11.685511  0.001768 0.983115 -0.182983  0.005860 0.007782 1 0 1.000000
0  -19.007881 100.489853 10.790859  0.001723 0.983228 -0.182371  0.005860 0.007782 1 0 1.000000
black
0  -22.586481 100.434799 10.405471  0.001710 0.983263 -0.182186  0.005860 0.007782 1 0 1.000000
0  -22.435081 100.599976 11.355177  0.001773 0.983117 -0.182970  0.005860 0.007782 1 0 1.000000
0  -19.007881 100.489853 10.790859  0.001723 0.983228 -0.182371  0.005860 0.007782 1 0 1.000000
black
0  -22.586481 100.434799 10.405471  0.001710 0.983263 -0.182186  0.005860 0.007782 1 0 1.000000
0  -19.007881 100.489853 10.790859  0.001723 0.983228 -0.182371  0.005860 0.007782 1 0 1.000000
0  -19.159285 100.324692 9.841154  0.001772 0.983112 -0.182996  0.005860 0.007782 1 0 1.000000
black
0  -22.256149 100.255867 9.510821  0.001779 0.983126 -0.182922  0.005860 0.007782 1 0 1.000000
0  -22.586481 100.434799 10.405471  0.001710 0.983263 -0.182186  0.005860 0.007782 1 0 1.000000
0  -19.159285 100.324692 9.841154  0.001772 0.983112 -0.182996  0.005860 0.007782 1 0 1.000000
black
0  -19.737368 100.187050 9.097906  0.001757 0.983109 -0.183015  0.005860 0.007782 1 0 1.000000
0  -22.256149 100.255867 9.510821  0.001779 0.983126 -0.182922  0.005860 0.007782 1 0 1.000000
0  -19.159285 100.324692 9.841154  0.001772 0.983112 -0.182996  0.005860 0.007782 1 0 1.000000
exhaust
0  20.783403 99.774139 8.671223  0.001113 0.165897 -0.986142  0.092776 0.523423 1 0 1.000000
0  20.783403 96.897491 8.189488  0.000869 0.165962 -0.986132  0.092776 0.558580 1 0 1.000000
0  18.966578 97.021378 10.116427  -0.996540 -0.020948 0.080426  0.013672 0.558580 1 0 1.000000
exhaust
0  20.783405 99.774139 12.525100  0.002196 -0.182228 0.983254  0.092776 0.523423 1 0 1.000000
0  18.966576 99.774139 10.598162  -0.997136 -0.013029 0.074495  0.013672 0.523423 1 0 1.000000
0  18.966578 97.021378 10.116427  -0.996540 -0.020948 0.080426  0.013672 0.558580 1 0 1.000000
exhaust
0  18.966578 97.021378 10.116427  -0.996540 -0.020948 0.080426  0.013672 0.558580 1 0 1.000000
0  20.783405 95.355949 11.685507  0.001736 -0.182405 0.983222  0.092776 0.558580 1 0 1.000000
0  20.783405 99.774139 12.525100  0.002196 -0.182228 0.983254  0.092776 0.523423 1 0 1.000000
exhaust
0  20.783405 95.355949 11.685507  0.001736 -0.182405 0.983222  0.092776 0.558580 1 0 1.000000
0  22.613998 97.021378 10.116427  0.996113 -0.015039 0.086791  0.166997 0.558580 1 0 1.000000
0  22.613997 99.774139 10.598162  0.996813 -0.020426 0.077121  0.166997 0.523423 1 0 1.000000
exhaust
0  22.613997 99.774139 10.598162  0.996813 -0.020426 0.077121  0.166997 0.523423 1 0 1.000000
0  20.783405 99.774139 12.525100  0.002196 -0.182228 0.983254  0.092776 0.523423 1 0 1.000000
0  20.783405 95.355949 11.685507  0.001736 -0.182405 0.983222  0.092776 0.558580 1 0 1.000000
exhaust
0  22.613997 99.774139 10.598162  0.996813 -0.020426 0.077121  0.166997 0.523423 1 0 1.000000
0  22.613998 97.021378 10.116427  0.996113 -0.015039 0.086791  0.166997 0.558580 1 0 1.000000
0  20.783403 96.897491 8.189488  0.000869 0.165962 -0.986132  0.092776 0.558580 1 0 1.000000
exhaust
0  20.783403 96.897491 8.189488  0.000869 0.165962 -0.986132  0.092776 0.558580 1 0 1.000000
0  20.783403 99.774139 8.671223  0.001113 0.165897 -0.986142  0.092776 0.523423 1 0 1.000000
0  22.613997 99.774139 10.598162  0.996813 -0.020426 0.077121  0.166997 0.523423 1 0 1.000000
exhaust
0  18.966578 97.021378 10.116427  -0.996540 -0.020948 0.080426  0.013672 0.558580 1 0 1.000000
0  18.966576 99.774139 10.598162  -0.997136 -0.013029 0.074495  0.013672 0.523423 1 0 1.000000
0  20.783403 99.774139 8.671223  0.001113 0.165897 -0.986142  0.092776 0.523423 1 0 1.000000
exhaust
0  -20.810946 99.774139 8.671227  -0.001128 0.165923 -0.986138  0.092776 0.523423 1 0 1.000000
0  -18.994118 99.774139 10.598166  0.997131 -0.013040 0.074557  0.013672 0.523423 1 0 1.000000
0  -18.994116 97.021378 10.116431  0.996499 -0.021159 0.080880  0.013672 0.558580 1 0 1.000000
exhaust
0  -20.810944 99.774139 12.525104  -0.001676 -0.182466 0.983211  0.092776 0.523423 1 0 1.000000
0  -20.810944 95.355949 11.685511  -0.001683 -0.182437 0.983216  0.092776 0.558580 1 0 1.000000
0  -18.994116 97.021378 10.116431  0.996499 -0.021159 0.080880  0.013672 0.558580 1 0 1.000000
exhaust
0  -18.994116 97.021378 10.116431  0.996499 -0.021159 0.080880  0.013672 0.558580 1 0 1.000000
0  -18.994118 99.774139 10.598166  0.997131 -0.013040 0.074557  0.013672 0.523423 1 0 1.000000
0  -20.810944 99.774139 12.525104  -0.001676 -0.182466 0.983211  0.092776 0.523423 1 0 1.000000
exhaust
0  -20.810944 95.355949 11.685511  -0.001683 -0.182437 0.983216  0.092776 0.558580 1 0 1.000000
0  -20.810944 99.774139 12.525104  -0.001676 -0.182466 0.983211  0.092776 0.523423 1 0 1.000000
0  -22.641539 99.774139 10.598166  -0.996812 -0.020427 0.077121  0.166997 0.523423 1 0 1.000000
exhaust
0  -22.641539 99.774139 10.598166  -0.996812 -0.020427 0.077121  0.166997 0.523423 1 0 1.000000
0  -22.641537 97.021378 10.116431  -0.996166 -0.015079 0.086169  0.166997 0.558580 1 0 1.000000
0  -20.810944 95.355949 11.685511  -0.001683 -0.182437 0.983216  0.092776 0.558580 1 0 1.000000
exhaust
0  -22.641539 99.774139 10.598166  -0.996812 -0.020427 0.077121  0.166997 0.523423 1 0 1.000000
0  -20.810946 99.774139 8.671227  -0.001128 0.165923 -0.986138  0.092776 0.523423 1 0 1.000000
0  -20.810946 96.897491 8.189492  -0.000887 0.165985 -0.986128  0.092776 0.558580 1 0 1.000000
exhaust
0  -20.810946 96.897491 8.189492  -0.000887 0.165985 -0.986128  0.092776 0.558580 1 0 1.000000
0  -22.641537 97.021378 10.116431  -0.996166 -0.015079 0.086169  0.166997 0.558580 1 0 1.000000
0  -22.641539 99.774139 10.598166  -0.996812 -0.020427 0.077121  0.166997 0.523423 1 0 1.000000
exhaust
0  -18.994116 97.021378 10.116431  0.996499 -0.021159 0.080880  0.013672 0.558580 1 0 1.000000
0  -20.810946 96.897491 8.189492  -0.000887 0.165985 -0.986128  0.092776 0.558580 1 0 1.000000
0  -20.810946 99.774139 8.671227  -0.001128 0.165923 -0.986138  0.092776 0.523423 1 0 1.000000
end
