version 1
nodes
0 "root" -1
end
skeleton
time 0
0  0.000000 0.000000 0.000000  0.000000 -0.000000 0.000000
end
triangles
lit
0  33.790257 -85.982758 23.371016  0.722706 -0.551003 0.417243  0.412122 0.699210 1 0 1.000000
0  33.336052 -86.767296 23.123262  0.459369 -0.847710 0.265269  0.382824 0.679678 1 0 1.000000
0  33.501213 -86.767296 22.517654  0.530450 -0.847716 -0.000010  0.393567 0.635731 1 0 1.000000
lit
0  33.501213 -86.767296 22.517654  0.530450 -0.847716 -0.000010  0.393567 0.635731 1 0 1.000000
0  34.010475 -85.982758 22.517654  0.834546 -0.550938 -0.000052  0.426771 0.635731 1 0 1.000000
0  33.790257 -85.982758 23.371016  0.722706 -0.551003 0.417243  0.412122 0.699210 1 0 1.000000
lit
0  33.157116 -85.982758 24.004148  0.417210 -0.551009 0.722720  0.372082 0.745109 1 0 1.000000
0  32.895607 -86.767296 23.549944  0.265229 -0.847709 0.459395  0.355480 0.711905 1 0 1.000000
0  33.336052 -86.767296 23.123262  0.459369 -0.847710 0.265269  0.382824 0.679678 1 0 1.000000
lit
0  33.336052 -86.767296 23.123262  0.459369 -0.847710 0.265269  0.382824 0.679678 1 0 1.000000
0  33.790257 -85.982758 23.371016  0.722706 -0.551003 0.417243  0.412122 0.699210 1 0 1.000000
0  33.157116 -85.982758 24.004148  0.417210 -0.551009 0.722720  0.372082 0.745109 1 0 1.000000
lit
0  32.303757 -85.982758 24.224371  0.000001 -0.551008 0.834500  0.317392 0.761711 1 0 1.000000
0  32.303757 -86.767296 23.715109  0.000003 -0.847710 0.530460  0.317392 0.723624 1 0 1.000000
0  32.895607 -86.767296 23.549944  0.265229 -0.847709 0.459395  0.355480 0.711905 1 0 1.000000
lit
0  32.895607 -86.767296 23.549944  0.265229 -0.847709 0.459395  0.355480 0.711905 1 0 1.000000
0  33.157116 -85.982758 24.004148  0.417210 -0.551009 0.722720  0.372082 0.745109 1 0 1.000000
0  32.303757 -85.982758 24.224371  0.000001 -0.551008 0.834500  0.317392 0.761711 1 0 1.000000
lit
0  31.450403 -85.982758 24.004148  -0.417261 -0.551015 0.722687  0.262703 0.745109 1 0 1.000000
0  31.711914 -86.767296 23.549944  -0.265238 -0.847706 0.459394  0.279305 0.711905 1 0 1.000000
0  32.303757 -86.767296 23.715109  0.000003 -0.847710 0.530460  0.317392 0.723624 1 0 1.000000
lit
0  32.303757 -86.767296 23.715109  0.000003 -0.847710 0.530460  0.317392 0.723624 1 0 1.000000
0  32.303757 -85.982758 24.224371  0.000001 -0.551008 0.834500  0.317392 0.761711 1 0 1.000000
0  31.450403 -85.982758 24.004148  -0.417261 -0.551015 0.722687  0.262703 0.745109 1 0 1.000000
lit
0  30.831028 -85.982758 23.371016  -0.722709 -0.550988 0.417258  0.222663 0.699210 1 0 1.000000
0  31.271471 -86.767296 23.123262  -0.459377 -0.847723 0.265212  0.250984 0.679678 1 0 1.000000
0  31.711914 -86.767296 23.549944  -0.265238 -0.847706 0.459394  0.279305 0.711905 1 0 1.000000
lit
0  31.711914 -86.767296 23.549944  -0.265238 -0.847706 0.459394  0.279305 0.711905 1 0 1.000000
0  31.450403 -85.982758 24.004148  -0.417261 -0.551015 0.722687  0.262703 0.745109 1 0 1.000000
0  30.831028 -85.982758 23.371016  -0.722709 -0.550988 0.417258  0.222663 0.699210 1 0 1.000000
lit
0  30.597044 -85.982758 22.517654  -0.834441 -0.551097 -0.000800  0.208014 0.635731 1 0 1.000000
0  31.120071 -86.767296 22.517654  -0.530453 -0.847714 0.000014  0.241218 0.635731 1 0 1.000000
0  31.271471 -86.767296 23.123262  -0.459377 -0.847723 0.265212  0.250984 0.679678 1 0 1.000000
lit
0  31.271471 -86.767296 23.123262  -0.459377 -0.847723 0.265212  0.250984 0.679678 1 0 1.000000
0  30.831028 -85.982758 23.371016  -0.722709 -0.550988 0.417258  0.222663 0.699210 1 0 1.000000
0  30.597044 -85.982758 22.517654  -0.834441 -0.551097 -0.000800  0.208014 0.635731 1 0 1.000000
lit
0  30.831028 -85.982758 21.664295  -0.722744 -0.550886 -0.417332  0.222663 0.573229 1 0 1.000000
0  31.271471 -86.767296 21.925810  -0.459480 -0.847659 -0.265241  0.250984 0.592761 1 0 1.000000
0  31.120071 -86.767296 22.517654  -0.530453 -0.847714 0.000014  0.241218 0.635731 1 0 1.000000
lit
0  31.120071 -86.767296 22.517654  -0.530453 -0.847714 0.000014  0.241218 0.635731 1 0 1.000000
0  30.597044 -85.982758 22.517654  -0.834441 -0.551097 -0.000800  0.208014 0.635731 1 0 1.000000
0  30.831028 -85.982758 21.664295  -0.722744 -0.550886 -0.417332  0.222663 0.573229 1 0 1.000000
lit
0  31.450403 -85.982758 21.044922  -0.417214 -0.551093 -0.722654  0.262703 0.527329 1 0 1.000000
0  31.711914 -86.767296 21.499130  -0.265243 -0.847704 -0.459395  0.279305 0.560533 1 0 1.000000
0  31.271471 -86.767296 21.925810  -0.459480 -0.847659 -0.265241  0.250984 0.592761 1 0 1.000000
lit
0  31.271471 -86.767296 21.925810  -0.459480 -0.847659 -0.265241  0.250984 0.592761 1 0 1.000000
0  30.831028 -85.982758 21.664295  -0.722744 -0.550886 -0.417332  0.222663 0.573229 1 0 1.000000
0  31.450403 -85.982758 21.044922  -0.417214 -0.551093 -0.722654  0.262703 0.527329 1 0 1.000000
lit
0  32.303757 -85.982758 20.810936  -0.000005 -0.551000 -0.834506  0.317392 0.510727 1 0 1.000000
0  32.303757 -86.767296 21.333963  -0.000115 -0.847752 -0.530392  0.317392 0.548814 1 0 1.000000
0  31.711914 -86.767296 21.499130  -0.265243 -0.847704 -0.459395  0.279305 0.560533 1 0 1.000000
lit
0  31.711914 -86.767296 21.499130  -0.265243 -0.847704 -0.459395  0.279305 0.560533 1 0 1.000000
0  31.450403 -85.982758 21.044922  -0.417214 -0.551093 -0.722654  0.262703 0.527329 1 0 1.000000
0  32.303757 -85.982758 20.810936  -0.000005 -0.551000 -0.834506  0.317392 0.510727 1 0 1.000000
lit
0  33.157116 -85.982758 21.044922  0.417223 -0.551036 -0.722692  0.372082 0.527329 1 0 1.000000
0  32.895607 -86.767296 21.499130  0.265235 -0.847721 -0.459369  0.355480 0.560533 1 0 1.000000
0  32.303757 -86.767296 21.333963  -0.000115 -0.847752 -0.530392  0.317392 0.548814 1 0 1.000000
lit
0  32.303757 -86.767296 21.333963  -0.000115 -0.847752 -0.530392  0.317392 0.548814 1 0 1.000000
0  32.303757 -85.982758 20.810936  -0.000005 -0.551000 -0.834506  0.317392 0.510727 1 0 1.000000
0  33.157116 -85.982758 21.044922  0.417223 -0.551036 -0.722692  0.372082 0.527329 1 0 1.000000
lit
0  33.790257 -85.982758 21.664295  0.722706 -0.551001 -0.417246  0.412122 0.573229 1 0 1.000000
0  33.336052 -86.767296 21.925810  0.459377 -0.847708 -0.265262  0.382824 0.592761 1 0 1.000000
0  32.895607 -86.767296 21.499130  0.265235 -0.847721 -0.459369  0.355480 0.560533 1 0 1.000000
lit
0  32.895607 -86.767296 21.499130  0.265235 -0.847721 -0.459369  0.355480 0.560533 1 0 1.000000
0  33.157116 -85.982758 21.044922  0.417223 -0.551036 -0.722692  0.372082 0.527329 1 0 1.000000
0  33.790257 -85.982758 21.664295  0.722706 -0.551001 -0.417246  0.412122 0.573229 1 0 1.000000
lit
0  34.010475 -85.982758 22.517654  0.834546 -0.550938 -0.000052  0.426771 0.635731 1 0 1.000000
0  33.501213 -86.767296 22.517654  0.530450 -0.847716 -0.000010  0.393567 0.635731 1 0 1.000000
0  33.336052 -86.767296 21.925810  0.459377 -0.847708 -0.265262  0.382824 0.592761 1 0 1.000000
lit
0  33.336052 -86.767296 21.925810  0.459377 -0.847708 -0.265262  0.382824 0.592761 1 0 1.000000
0  33.790257 -85.982758 21.664295  0.722706 -0.551001 -0.417246  0.412122 0.573229 1 0 1.000000
0  34.010475 -85.982758 22.517654  0.834546 -0.550938 -0.000052  0.426771 0.635731 1 0 1.000000
lit
0  33.336052 -86.767296 23.123262  0.459369 -0.847710 0.265269  0.382824 0.679678 1 0 1.000000
0  31.271471 -86.767296 23.123262  -0.459377 -0.847723 0.265212  0.250984 0.679678 1 0 1.000000
0  31.120071 -86.767296 22.517654  -0.530453 -0.847714 0.000014  0.241218 0.635731 1 0 1.000000
lit
0  31.120071 -86.767296 22.517654  -0.530453 -0.847714 0.000014  0.241218 0.635731 1 0 1.000000
0  33.501213 -86.767296 22.517654  0.530450 -0.847716 -0.000010  0.393567 0.635731 1 0 1.000000
0  33.336052 -86.767296 23.123262  0.459369 -0.847710 0.265269  0.382824 0.679678 1 0 1.000000
lit
0  31.711914 -86.767296 23.549944  -0.265238 -0.847706 0.459394  0.279305 0.711905 1 0 1.000000
0  32.895607 -86.767296 23.549944  0.265229 -0.847709 0.459395  0.355480 0.711905 1 0 1.000000
0  32.303757 -86.767296 23.715109  0.000003 -0.847710 0.530460  0.317392 0.723624 1 0 1.000000
lit
0  32.895607 -86.767296 23.549944  0.265229 -0.847709 0.459395  0.355480 0.711905 1 0 1.000000
0  31.711914 -86.767296 23.549944  -0.265238 -0.847706 0.459394  0.279305 0.711905 1 0 1.000000
0  31.271471 -86.767296 23.123262  -0.459377 -0.847723 0.265212  0.250984 0.679678 1 0 1.000000
lit
0  31.271471 -86.767296 23.123262  -0.459377 -0.847723 0.265212  0.250984 0.679678 1 0 1.000000
0  33.336052 -86.767296 23.123262  0.459369 -0.847710 0.265269  0.382824 0.679678 1 0 1.000000
0  32.895607 -86.767296 23.549944  0.265229 -0.847709 0.459395  0.355480 0.711905 1 0 1.000000
lit
0  31.271471 -86.767296 21.925810  -0.459480 -0.847659 -0.265241  0.250984 0.592761 1 0 1.000000
0  33.336052 -86.767296 21.925810  0.459377 -0.847708 -0.265262  0.382824 0.592761 1 0 1.000000
0  33.501213 -86.767296 22.517654  0.530450 -0.847716 -0.000010  0.393567 0.635731 1 0 1.000000
lit
0  33.501213 -86.767296 22.517654  0.530450 -0.847716 -0.000010  0.393567 0.635731 1 0 1.000000
0  31.120071 -86.767296 22.517654  -0.530453 -0.847714 0.000014  0.241218 0.635731 1 0 1.000000
0  31.271471 -86.767296 21.925810  -0.459480 -0.847659 -0.265241  0.250984 0.592761 1 0 1.000000
lit
0  31.711914 -86.767296 21.499130  -0.265243 -0.847704 -0.459395  0.279305 0.560533 1 0 1.000000
0  32.895607 -86.767296 21.499130  0.265235 -0.847721 -0.459369  0.355480 0.560533 1 0 1.000000
0  33.336052 -86.767296 21.925810  0.459377 -0.847708 -0.265262  0.382824 0.592761 1 0 1.000000
lit
0  33.336052 -86.767296 21.925810  0.459377 -0.847708 -0.265262  0.382824 0.592761 1 0 1.000000
0  31.271471 -86.767296 21.925810  -0.459480 -0.847659 -0.265241  0.250984 0.592761 1 0 1.000000
0  31.711914 -86.767296 21.499130  -0.265243 -0.847704 -0.459395  0.279305 0.560533 1 0 1.000000
lit
0  32.895607 -86.767296 21.499130  0.265235 -0.847721 -0.459369  0.355480 0.560533 1 0 1.000000
0  31.711914 -86.767296 21.499130  -0.265243 -0.847704 -0.459395  0.279305 0.560533 1 0 1.000000
0  32.303757 -86.767296 21.333963  -0.000115 -0.847752 -0.530392  0.317392 0.548814 1 0 1.000000
lit
0  -33.790241 -85.982758 23.371019  -0.722706 -0.551001 0.417245  0.412122 0.699210 1 0 1.000000
0  -34.010460 -85.982758 22.517658  -0.834499 -0.551009 0.000002  0.426771 0.635731 1 0 1.000000
0  -33.501198 -86.767296 22.517658  -0.530452 -0.847715 -0.000010  0.393567 0.635731 1 0 1.000000
lit
0  -33.501198 -86.767296 22.517658  -0.530452 -0.847715 -0.000010  0.393567 0.635731 1 0 1.000000
0  -33.336037 -86.767296 23.123266  -0.459370 -0.847709 0.265270  0.382824 0.679678 1 0 1.000000
0  -33.790241 -85.982758 23.371019  -0.722706 -0.551001 0.417245  0.412122 0.699210 1 0 1.000000
lit
0  -33.157101 -85.982758 24.004152  -0.417212 -0.551011 0.722718  0.372082 0.745109 1 0 1.000000
0  -33.790241 -85.982758 23.371019  -0.722706 -0.551001 0.417245  0.412122 0.699210 1 0 1.000000
0  -33.336037 -86.767296 23.123266  -0.459370 -0.847709 0.265270  0.382824 0.679678 1 0 1.000000
lit
0  -33.336037 -86.767296 23.123266  -0.459370 -0.847709 0.265270  0.382824 0.679678 1 0 1.000000
0  -32.895592 -86.767296 23.549948  -0.265229 -0.847708 0.459396  0.355480 0.711905 1 0 1.000000
0  -33.157101 -85.982758 24.004152  -0.417212 -0.551011 0.722718  0.372082 0.745109 1 0 1.000000
lit
0  -32.303741 -85.982758 24.224375  0.000002 -0.551008 0.834500  0.317392 0.761711 1 0 1.000000
0  -33.157101 -85.982758 24.004152  -0.417212 -0.551011 0.722718  0.372082 0.745109 1 0 1.000000
0  -32.895592 -86.767296 23.549948  -0.265229 -0.847708 0.459396  0.355480 0.711905 1 0 1.000000
lit
0  -32.895592 -86.767296 23.549948  -0.265229 -0.847708 0.459396  0.355480 0.711905 1 0 1.000000
0  -32.303741 -86.767296 23.715113  -0.000002 -0.847710 0.530460  0.317392 0.723624 1 0 1.000000
0  -32.303741 -85.982758 24.224375  0.000002 -0.551008 0.834500  0.317392 0.761711 1 0 1.000000
lit
0  -31.450388 -85.982758 24.004152  0.417261 -0.551015 0.722686  0.262703 0.745109 1 0 1.000000
0  -32.303741 -85.982758 24.224375  0.000002 -0.551008 0.834500  0.317392 0.761711 1 0 1.000000
0  -32.303741 -86.767296 23.715113  -0.000002 -0.847710 0.530460  0.317392 0.723624 1 0 1.000000
lit
0  -32.303741 -86.767296 23.715113  -0.000002 -0.847710 0.530460  0.317392 0.723624 1 0 1.000000
0  -31.711899 -86.767296 23.549948  0.265248 -0.847727 0.459350  0.279305 0.711905 1 0 1.000000
0  -31.450388 -85.982758 24.004152  0.417261 -0.551015 0.722686  0.262703 0.745109 1 0 1.000000
lit
0  -30.831013 -85.982758 23.371019  0.722710 -0.550989 0.417254  0.222663 0.699210 1 0 1.000000
0  -31.450388 -85.982758 24.004152  0.417261 -0.551015 0.722686  0.262703 0.745109 1 0 1.000000
0  -31.711899 -86.767296 23.549948  0.265248 -0.847727 0.459350  0.279305 0.711905 1 0 1.000000
lit
0  -31.711899 -86.767296 23.549948  0.265248 -0.847727 0.459350  0.279305 0.711905 1 0 1.000000
0  -31.271456 -86.767296 23.123266  0.459375 -0.847724 0.265214  0.250984 0.679678 1 0 1.000000
0  -30.831013 -85.982758 23.371019  0.722710 -0.550989 0.417254  0.222663 0.699210 1 0 1.000000
lit
0  -30.597029 -85.982758 22.517658  0.834483 -0.551033 -0.000180  0.208014 0.635731 1 0 1.000000
0  -30.831013 -85.982758 23.371019  0.722710 -0.550989 0.417254  0.222663 0.699210 1 0 1.000000
0  -31.271456 -86.767296 23.123266  0.459375 -0.847724 0.265214  0.250984 0.679678 1 0 1.000000
lit
0  -31.271456 -86.767296 23.123266  0.459375 -0.847724 0.265214  0.250984 0.679678 1 0 1.000000
0  -31.120056 -86.767296 22.517658  0.530453 -0.847714 0.000016  0.241218 0.635731 1 0 1.000000
0  -30.597029 -85.982758 22.517658  0.834483 -0.551033 -0.000180  0.208014 0.635731 1 0 1.000000
lit
0  -30.831013 -85.982758 21.664299  0.722727 -0.550929 -0.417304  0.222663 0.573229 1 0 1.000000
0  -30.597029 -85.982758 22.517658  0.834483 -0.551033 -0.000180  0.208014 0.635731 1 0 1.000000
0  -31.120056 -86.767296 22.517658  0.530453 -0.847714 0.000016  0.241218 0.635731 1 0 1.000000
lit
0  -31.120056 -86.767296 22.517658  0.530453 -0.847714 0.000016  0.241218 0.635731 1 0 1.000000
0  -31.271456 -86.767296 21.925814  0.459378 -0.847716 -0.265236  0.250984 0.592761 1 0 1.000000
0  -30.831013 -85.982758 21.664299  0.722727 -0.550929 -0.417304  0.222663 0.573229 1 0 1.000000
lit
0  -31.450388 -85.982758 21.044926  0.416965 -0.551875 -0.722201  0.262703 0.527329 1 0 1.000000
0  -30.831013 -85.982758 21.664299  0.722727 -0.550929 -0.417304  0.222663 0.573229 1 0 1.000000
0  -31.271456 -86.767296 21.925814  0.459378 -0.847716 -0.265236  0.250984 0.592761 1 0 1.000000
lit
0  -31.271456 -86.767296 21.925814  0.459378 -0.847716 -0.265236  0.250984 0.592761 1 0 1.000000
0  -31.711899 -86.767296 21.499134  0.265243 -0.847702 -0.459400  0.279305 0.560533 1 0 1.000000
0  -31.450388 -85.982758 21.044926  0.416965 -0.551875 -0.722201  0.262703 0.527329 1 0 1.000000
lit
0  -32.303741 -85.982758 20.810940  0.000004 -0.550999 -0.834506  0.317392 0.510727 1 0 1.000000
0  -31.450388 -85.982758 21.044926  0.416965 -0.551875 -0.722201  0.262703 0.527329 1 0 1.000000
0  -31.711899 -86.767296 21.499134  0.265243 -0.847702 -0.459400  0.279305 0.560533 1 0 1.000000
lit
0  -31.711899 -86.767296 21.499134  0.265243 -0.847702 -0.459400  0.279305 0.560533 1 0 1.000000
0  -32.303741 -86.767296 21.333967  -0.000024 -0.847700 -0.530475  0.317392 0.548814 1 0 1.000000
0  -32.303741 -85.982758 20.810940  0.000004 -0.550999 -0.834506  0.317392 0.510727 1 0 1.000000
lit
0  -33.157101 -85.982758 21.044926  -0.417226 -0.551035 -0.722692  0.372082 0.527329 1 0 1.000000
0  -32.303741 -85.982758 20.810940  0.000004 -0.550999 -0.834506  0.317392 0.510727 1 0 1.000000
0  -32.303741 -86.767296 21.333967  -0.000024 -0.847700 -0.530475  0.317392 0.548814 1 0 1.000000
lit
0  -32.303741 -86.767296 21.333967  -0.000024 -0.847700 -0.530475  0.317392 0.548814 1 0 1.000000
0  -32.895592 -86.767296 21.499134  -0.265230 -0.847721 -0.459372  0.355480 0.560533 1 0 1.000000
0  -33.157101 -85.982758 21.044926  -0.417226 -0.551035 -0.722692  0.372082 0.527329 1 0 1.000000
lit
0  -33.790241 -85.982758 21.664299  -0.722676 -0.551042 -0.417244  0.412122 0.573229 1 0 1.000000
0  -33.157101 -85.982758 21.044926  -0.417226 -0.551035 -0.722692  0.372082 0.527329 1 0 1.000000
0  -32.895592 -86.767296 21.499134  -0.265230 -0.847721 -0.459372  0.355480 0.560533 1 0 1.000000
lit
0  -32.895592 -86.767296 21.499134  -0.265230 -0.847721 -0.459372  0.355480 0.560533 1 0 1.000000
0  -33.336037 -86.767296 21.925814  -0.459407 -0.847706 -0.265217  0.382824 0.592761 1 0 1.000000
0  -33.790241 -85.982758 21.664299  -0.722676 -0.551042 -0.417244  0.412122 0.573229 1 0 1.000000
lit
0  -34.010460 -85.982758 22.517658  -0.834499 -0.551009 0.000002  0.426771 0.635731 1 0 1.000000
0  -33.790241 -85.982758 21.664299  -0.722676 -0.551042 -0.417244  0.412122 0.573229 1 0 1.000000
0  -33.336037 -86.767296 21.925814  -0.459407 -0.847706 -0.265217  0.382824 0.592761 1 0 1.000000
lit
0  -33.336037 -86.767296 21.925814  -0.459407 -0.847706 -0.265217  0.382824 0.592761 1 0 1.000000
0  -33.501198 -86.767296 22.517658  -0.530452 -0.847715 -0.000010  0.393567 0.635731 1 0 1.000000
0  -34.010460 -85.982758 22.517658  -0.834499 -0.551009 0.000002  0.426771 0.635731 1 0 1.000000
lit
0  -33.336037 -86.767296 23.123266  -0.459370 -0.847709 0.265270  0.382824 0.679678 1 0 1.000000
0  -33.501198 -86.767296 22.517658  -0.530452 -0.847715 -0.000010  0.393567 0.635731 1 0 1.000000
0  -31.120056 -86.767296 22.517658  0.530453 -0.847714 0.000016  0.241218 0.635731 1 0 1.000000
lit
0  -31.120056 -86.767296 22.517658  0.530453 -0.847714 0.000016  0.241218 0.635731 1 0 1.000000
0  -31.271456 -86.767296 23.123266  0.459375 -0.847724 0.265214  0.250984 0.679678 1 0 1.000000
0  -33.336037 -86.767296 23.123266  -0.459370 -0.847709 0.265270  0.382824 0.679678 1 0 1.000000
lit
0  -31.711899 -86.767296 23.549948  0.265248 -0.847727 0.459350  0.279305 0.711905 1 0 1.000000
0  -32.303741 -86.767296 23.715113  -0.000002 -0.847710 0.530460  0.317392 0.723624 1 0 1.000000
0  -32.895592 -86.767296 23.549948  -0.265229 -0.847708 0.459396  0.355480 0.711905 1 0 1.000000
lit
0  -32.895592 -86.767296 23.549948  -0.265229 -0.847708 0.459396  0.355480 0.711905 1 0 1.000000
0  -33.336037 -86.767296 23.123266  -0.459370 -0.847709 0.265270  0.382824 0.679678 1 0 1.000000
0  -31.271456 -86.767296 23.123266  0.459375 -0.847724 0.265214  0.250984 0.679678 1 0 1.000000
lit
0  -31.271456 -86.767296 23.123266  0.459375 -0.847724 0.265214  0.250984 0.679678 1 0 1.000000
0  -31.711899 -86.767296 23.549948  0.265248 -0.847727 0.459350  0.279305 0.711905 1 0 1.000000
0  -32.895592 -86.767296 23.549948  -0.265229 -0.847708 0.459396  0.355480 0.711905 1 0 1.000000
lit
0  -31.271456 -86.767296 21.925814  0.459378 -0.847716 -0.265236  0.250984 0.592761 1 0 1.000000
0  -31.120056 -86.767296 22.517658  0.530453 -0.847714 0.000016  0.241218 0.635731 1 0 1.000000
0  -33.501198 -86.767296 22.517658  -0.530452 -0.847715 -0.000010  0.393567 0.635731 1 0 1.000000
lit
0  -33.501198 -86.767296 22.517658  -0.530452 -0.847715 -0.000010  0.393567 0.635731 1 0 1.000000
0  -33.336037 -86.767296 21.925814  -0.459407 -0.847706 -0.265217  0.382824 0.592761 1 0 1.000000
0  -31.271456 -86.767296 21.925814  0.459378 -0.847716 -0.265236  0.250984 0.592761 1 0 1.000000
lit
0  -31.711899 -86.767296 21.499134  0.265243 -0.847702 -0.459400  0.279305 0.560533 1 0 1.000000
0  -31.271456 -86.767296 21.925814  0.459378 -0.847716 -0.265236  0.250984 0.592761 1 0 1.000000
0  -33.336037 -86.767296 21.925814  -0.459407 -0.847706 -0.265217  0.382824 0.592761 1 0 1.000000
lit
0  -33.336037 -86.767296 21.925814  -0.459407 -0.847706 -0.265217  0.382824 0.592761 1 0 1.000000
0  -32.895592 -86.767296 21.499134  -0.265230 -0.847721 -0.459372  0.355480 0.560533 1 0 1.000000
0  -31.711899 -86.767296 21.499134  0.265243 -0.847702 -0.459400  0.279305 0.560533 1 0 1.000000
lit
0  -32.895592 -86.767296 21.499134  -0.265230 -0.847721 -0.459372  0.355480 0.560533 1 0 1.000000
0  -32.303741 -86.767296 21.333967  -0.000024 -0.847700 -0.530475  0.317392 0.548814 1 0 1.000000
0  -31.711899 -86.767296 21.499134  0.265243 -0.847702 -0.459400  0.279305 0.560533 1 0 1.000000
end
