version 1
nodes
0 "root" -1
end
skeleton
time 0
0  0.000000 0.000000 0.000000  0.000000 -0.000000 0.000000
end
triangles
headlight
0  28.711395 -87.675720 22.283669  0.530366 -0.847769 0.000060  0.391614 0.878903 1 0 1.000000
0  29.275713 -86.822350 22.283669  0.834624 -0.550820 0.000038  0.424818 0.878903 1 0 1.000000
0  29.027966 -86.822350 23.219612  0.723252 -0.551093 0.416177  0.410169 0.940428 1 0 1.000000
headlight
0  29.027966 -86.822350 23.219612  0.723252 -0.551093 0.416177  0.410169 0.940428 1 0 1.000000
0  28.546228 -87.675720 22.930571  0.459382 -0.847710 0.265246  0.381848 0.921873 1 0 1.000000
0  28.711395 -87.675720 22.283669  0.530366 -0.847769 0.000060  0.391614 0.878903 1 0 1.000000
headlight
0  28.546228 -87.675720 22.930571  0.459382 -0.847710 0.265246  0.381848 0.921873 1 0 1.000000
0  29.027966 -86.822350 23.219612  0.723252 -0.551093 0.416177  0.410169 0.940428 1 0 1.000000
0  28.353537 -86.822350 23.894039  0.417615 -0.549810 0.723399  0.370128 0.984375 1 0 1.000000
headlight
0  28.353537 -86.822350 23.894039  0.417615 -0.549810 0.723399  0.370128 0.984375 1 0 1.000000
0  28.064495 -87.675720 23.412306  0.265260 -0.847714 0.459367  0.353526 0.952147 1 0 1.000000
0  28.546228 -87.675720 22.930571  0.459382 -0.847710 0.265246  0.381848 0.921873 1 0 1.000000
headlight
0  28.064495 -87.675720 23.412306  0.265260 -0.847714 0.459367  0.353526 0.952147 1 0 1.000000
0  28.353537 -86.822350 23.894039  0.417615 -0.549810 0.723399  0.370128 0.984375 1 0 1.000000
0  27.417593 -86.822350 24.141788  -0.000375 -0.550904 0.834568  0.315439 1.000000 1 0 1.000000
headlight
0  27.417593 -86.822350 24.141788  -0.000375 -0.550904 0.834568  0.315439 1.000000 1 0 1.000000
0  27.417593 -87.675720 23.577471  -0.000094 -0.847770 0.530364  0.315439 0.963866 1 0 1.000000
0  28.064495 -87.675720 23.412306  0.265260 -0.847714 0.459367  0.353526 0.952147 1 0 1.000000
headlight
0  27.417593 -87.675720 23.577471  -0.000094 -0.847770 0.530364  0.315439 0.963866 1 0 1.000000
0  27.417593 -86.822350 24.141788  -0.000375 -0.550904 0.834568  0.315439 1.000000 1 0 1.000000
0  26.495417 -86.822350 23.894039  -0.417229 -0.550983 0.722729  0.260750 0.984375 1 0 1.000000
headlight
0  26.495417 -86.822350 23.894039  -0.417229 -0.550983 0.722729  0.260750 0.984375 1 0 1.000000
0  26.770693 -87.675720 23.412306  -0.265233 -0.847697 0.459413  0.277352 0.952147 1 0 1.000000
0  27.417593 -87.675720 23.577471  -0.000094 -0.847770 0.530364  0.315439 0.963866 1 0 1.000000
headlight
0  26.770693 -87.675720 23.412306  -0.265233 -0.847697 0.459413  0.277352 0.952147 1 0 1.000000
0  26.495417 -86.822350 23.894039  -0.417229 -0.550983 0.722729  0.260750 0.984375 1 0 1.000000
0  25.807224 -86.822350 23.219612  -0.722699 -0.551011 0.417244  0.220710 0.940428 1 0 1.000000
headlight
0  25.807224 -86.822350 23.219612  -0.722699 -0.551011 0.417244  0.220710 0.940428 1 0 1.000000
0  26.302723 -87.675720 22.930571  -0.459391 -0.847710 0.265229  0.249031 0.921873 1 0 1.000000
0  26.770693 -87.675720 23.412306  -0.265233 -0.847697 0.459413  0.277352 0.952147 1 0 1.000000
headlight
0  26.302723 -87.675720 22.930571  -0.459391 -0.847710 0.265229  0.249031 0.921873 1 0 1.000000
0  25.807224 -86.822350 23.219612  -0.722699 -0.551011 0.417244  0.220710 0.940428 1 0 1.000000
0  25.559473 -86.822350 22.283669  -0.834389 -0.551176 0.000004  0.206061 0.878903 1 0 1.000000
headlight
0  25.559473 -86.822350 22.283669  -0.834389 -0.551176 0.000004  0.206061 0.878903 1 0 1.000000
0  26.123793 -87.675720 22.283669  -0.530421 -0.847734 -0.000048  0.239265 0.878903 1 0 1.000000
0  26.302723 -87.675720 22.930571  -0.459391 -0.847710 0.265229  0.249031 0.921873 1 0 1.000000
headlight
0  26.123793 -87.675720 22.283669  -0.530421 -0.847734 -0.000048  0.239265 0.878903 1 0 1.000000
0  25.559473 -86.822350 22.283669  -0.834389 -0.551176 0.000004  0.206061 0.878903 1 0 1.000000
0  25.807224 -86.822350 21.361490  -0.722609 -0.551150 -0.417218  0.220710 0.818354 1 0 1.000000
headlight
0  25.807224 -86.822350 21.361490  -0.722609 -0.551150 -0.417218  0.220710 0.818354 1 0 1.000000
0  26.302723 -87.675720 21.636768  -0.459375 -0.847715 -0.265244  0.249031 0.836909 1 0 1.000000
0  26.123793 -87.675720 22.283669  -0.530421 -0.847734 -0.000048  0.239265 0.878903 1 0 1.000000
headlight
0  26.302723 -87.675720 21.636768  -0.459375 -0.847715 -0.265244  0.249031 0.836909 1 0 1.000000
0  25.807224 -86.822350 21.361490  -0.722609 -0.551150 -0.417218  0.220710 0.818354 1 0 1.000000
0  26.495417 -86.822350 20.673300  -0.417105 -0.551215 -0.722624  0.260750 0.774407 1 0 1.000000
headlight
0  26.495417 -86.822350 20.673300  -0.417105 -0.551215 -0.722624  0.260750 0.774407 1 0 1.000000
0  26.770693 -87.675720 21.168798  -0.265555 -0.847946 -0.458769  0.277352 0.806635 1 0 1.000000
0  26.302723 -87.675720 21.636768  -0.459375 -0.847715 -0.265244  0.249031 0.836909 1 0 1.000000
headlight
0  26.770693 -87.675720 21.168798  -0.265555 -0.847946 -0.458769  0.277352 0.806635 1 0 1.000000
0  26.495417 -86.822350 20.673300  -0.417105 -0.551215 -0.722624  0.260750 0.774407 1 0 1.000000
0  27.417593 -86.822350 20.425550  -0.000126 -0.551093 -0.834444  0.315439 0.757805 1 0 1.000000
headlight
0  27.417593 -86.822350 20.425550  -0.000126 -0.551093 -0.834444  0.315439 0.757805 1 0 1.000000
0  27.417593 -87.675720 20.989866  -0.000035 -0.847702 -0.530473  0.315439 0.794916 1 0 1.000000
0  26.770693 -87.675720 21.168798  -0.265555 -0.847946 -0.458769  0.277352 0.806635 1 0 1.000000
headlight
0  27.417593 -87.675720 20.989866  -0.000035 -0.847702 -0.530473  0.315439 0.794916 1 0 1.000000
0  27.417593 -86.822350 20.425550  -0.000126 -0.551093 -0.834444  0.315439 0.757805 1 0 1.000000
0  28.353537 -86.822350 20.673300  0.417253 -0.551018 -0.722689  0.370128 0.774407 1 0 1.000000
headlight
0  28.353537 -86.822350 20.673300  0.417253 -0.551018 -0.722689  0.370128 0.774407 1 0 1.000000
0  28.064495 -87.675720 21.168798  0.265240 -0.847703 -0.459400  0.353526 0.806635 1 0 1.000000
0  27.417593 -87.675720 20.989866  -0.000035 -0.847702 -0.530473  0.315439 0.794916 1 0 1.000000
headlight
0  28.064495 -87.675720 21.168798  0.265240 -0.847703 -0.459400  0.353526 0.806635 1 0 1.000000
0  28.353537 -86.822350 20.673300  0.417253 -0.551018 -0.722689  0.370128 0.774407 1 0 1.000000
0  29.027966 -86.822350 21.361490  0.722737 -0.550957 -0.417250  0.410169 0.818354 1 0 1.000000
headlight
0  29.027966 -86.822350 21.361490  0.722737 -0.550957 -0.417250  0.410169 0.818354 1 0 1.000000
0  28.546228 -87.675720 21.636768  0.459391 -0.847710 -0.265229  0.381848 0.836909 1 0 1.000000
0  28.064495 -87.675720 21.168798  0.265240 -0.847703 -0.459400  0.353526 0.806635 1 0 1.000000
headlight
0  28.546228 -87.675720 21.636768  0.459391 -0.847710 -0.265229  0.381848 0.836909 1 0 1.000000
0  29.027966 -86.822350 21.361490  0.722737 -0.550957 -0.417250  0.410169 0.818354 1 0 1.000000
0  29.275713 -86.822350 22.283669  0.834624 -0.550820 0.000038  0.424818 0.878903 1 0 1.000000
headlight
0  29.275713 -86.822350 22.283669  0.834624 -0.550820 0.000038  0.424818 0.878903 1 0 1.000000
0  28.711395 -87.675720 22.283669  0.530366 -0.847769 0.000060  0.391614 0.878903 1 0 1.000000
0  28.546228 -87.675720 21.636768  0.459391 -0.847710 -0.265229  0.381848 0.836909 1 0 1.000000
headlight
0  28.546228 -87.675720 22.930571  0.459382 -0.847710 0.265246  0.381848 0.921873 1 0 1.000000
0  26.302723 -87.675720 22.930571  -0.459391 -0.847710 0.265229  0.249031 0.921873 1 0 1.000000
0  26.123793 -87.675720 22.283669  -0.530421 -0.847734 -0.000048  0.239265 0.878903 1 0 1.000000
headlight
0  26.123793 -87.675720 22.283669  -0.530421 -0.847734 -0.000048  0.239265 0.878903 1 0 1.000000
0  28.711395 -87.675720 22.283669  0.530366 -0.847769 0.000060  0.391614 0.878903 1 0 1.000000
0  28.546228 -87.675720 22.930571  0.459382 -0.847710 0.265246  0.381848 0.921873 1 0 1.000000
headlight
0  26.770693 -87.675720 23.412306  -0.265233 -0.847697 0.459413  0.277352 0.952147 1 0 1.000000
0  28.064495 -87.675720 23.412306  0.265260 -0.847714 0.459367  0.353526 0.952147 1 0 1.000000
0  27.417593 -87.675720 23.577471  -0.000094 -0.847770 0.530364  0.315439 0.963866 1 0 1.000000
headlight
0  28.064495 -87.675720 23.412306  0.265260 -0.847714 0.459367  0.353526 0.952147 1 0 1.000000
0  26.770693 -87.675720 23.412306  -0.265233 -0.847697 0.459413  0.277352 0.952147 1 0 1.000000
0  26.302723 -87.675720 22.930571  -0.459391 -0.847710 0.265229  0.249031 0.921873 1 0 1.000000
headlight
0  26.302723 -87.675720 22.930571  -0.459391 -0.847710 0.265229  0.249031 0.921873 1 0 1.000000
0  28.546228 -87.675720 22.930571  0.459382 -0.847710 0.265246  0.381848 0.921873 1 0 1.000000
0  28.064495 -87.675720 23.412306  0.265260 -0.847714 0.459367  0.353526 0.952147 1 0 1.000000
headlight
0  26.302723 -87.675720 21.636768  -0.459375 -0.847715 -0.265244  0.249031 0.836909 1 0 1.000000
0  28.546228 -87.675720 21.636768  0.459391 -0.847710 -0.265229  0.381848 0.836909 1 0 1.000000
0  28.711395 -87.675720 22.283669  0.530366 -0.847769 0.000060  0.391614 0.878903 1 0 1.000000
headlight
0  28.711395 -87.675720 22.283669  0.530366 -0.847769 0.000060  0.391614 0.878903 1 0 1.000000
0  26.123793 -87.675720 22.283669  -0.530421 -0.847734 -0.000048  0.239265 0.878903 1 0 1.000000
0  26.302723 -87.675720 21.636768  -0.459375 -0.847715 -0.265244  0.249031 0.836909 1 0 1.000000
headlight
0  26.770693 -87.675720 21.168798  -0.265555 -0.847946 -0.458769  0.277352 0.806635 1 0 1.000000
0  28.064495 -87.675720 21.168798  0.265240 -0.847703 -0.459400  0.353526 0.806635 1 0 1.000000
0  28.546228 -87.675720 21.636768  0.459391 -0.847710 -0.265229  0.381848 0.836909 1 0 1.000000
headlight
0  28.546228 -87.675720 21.636768  0.459391 -0.847710 -0.265229  0.381848 0.836909 1 0 1.000000
0  26.302723 -87.675720 21.636768  -0.459375 -0.847715 -0.265244  0.249031 0.836909 1 0 1.000000
0  26.770693 -87.675720 21.168798  -0.265555 -0.847946 -0.458769  0.277352 0.806635 1 0 1.000000
headlight
0  28.064495 -87.675720 21.168798  0.265240 -0.847703 -0.459400  0.353526 0.806635 1 0 1.000000
0  26.770693 -87.675720 21.168798  -0.265555 -0.847946 -0.458769  0.277352 0.806635 1 0 1.000000
0  27.417593 -87.675720 20.989866  -0.000035 -0.847702 -0.530473  0.315439 0.794916 1 0 1.000000
headlight
0  -28.711380 -87.675720 22.283672  -0.530453 -0.847715 -0.000003  0.391614 0.878903 1 0 1.000000
0  -28.546213 -87.675720 22.930574  -0.459381 -0.847710 0.265247  0.381848 0.921873 1 0 1.000000
0  -29.027950 -86.822350 23.219616  -0.723252 -0.551094 0.416176  0.410169 0.940428 1 0 1.000000
headlight
0  -29.027950 -86.822350 23.219616  -0.723252 -0.551094 0.416176  0.410169 0.940428 1 0 1.000000
0  -29.275698 -86.822350 22.283672  -0.835331 -0.549748 0.000262  0.424818 0.878903 1 0 1.000000
0  -28.711380 -87.675720 22.283672  -0.530453 -0.847715 -0.000003  0.391614 0.878903 1 0 1.000000
headlight
0  -28.546213 -87.675720 22.930574  -0.459381 -0.847710 0.265247  0.381848 0.921873 1 0 1.000000
0  -28.064480 -87.675720 23.412310  -0.265259 -0.847714 0.459368  0.353526 0.952147 1 0 1.000000
0  -28.353521 -86.822350 23.894043  -0.417616 -0.549812 0.723397  0.370128 0.984375 1 0 1.000000
headlight
0  -28.353521 -86.822350 23.894043  -0.417616 -0.549812 0.723397  0.370128 0.984375 1 0 1.000000
0  -29.027950 -86.822350 23.219616  -0.723252 -0.551094 0.416176  0.410169 0.940428 1 0 1.000000
0  -28.546213 -87.675720 22.930574  -0.459381 -0.847710 0.265247  0.381848 0.921873 1 0 1.000000
headlight
0  -28.064480 -87.675720 23.412310  -0.265259 -0.847714 0.459368  0.353526 0.952147 1 0 1.000000
0  -27.417578 -87.675720 23.577475  -0.000026 -0.847707 0.530465  0.315439 0.963866 1 0 1.000000
0  -27.417578 -86.822350 24.141792  0.000325 -0.550916 0.834561  0.315439 1.000000 1 0 1.000000
headlight
0  -27.417578 -86.822350 24.141792  0.000325 -0.550916 0.834561  0.315439 1.000000 1 0 1.000000
0  -28.353521 -86.822350 23.894043  -0.417616 -0.549812 0.723397  0.370128 0.984375 1 0 1.000000
0  -28.064480 -87.675720 23.412310  -0.265259 -0.847714 0.459368  0.353526 0.952147 1 0 1.000000
headlight
0  -27.417578 -87.675720 23.577475  -0.000026 -0.847707 0.530465  0.315439 0.963866 1 0 1.000000
0  -26.770678 -87.675720 23.412310  0.265234 -0.847699 0.459409  0.277352 0.952147 1 0 1.000000
0  -26.495401 -86.822350 23.894043  0.417251 -0.551013 0.722694  0.260750 0.984375 1 0 1.000000
headlight
0  -26.495401 -86.822350 23.894043  0.417251 -0.551013 0.722694  0.260750 0.984375 1 0 1.000000
0  -27.417578 -86.822350 24.141792  0.000325 -0.550916 0.834561  0.315439 1.000000 1 0 1.000000
0  -27.417578 -87.675720 23.577475  -0.000026 -0.847707 0.530465  0.315439 0.963866 1 0 1.000000
headlight
0  -26.770678 -87.675720 23.412310  0.265234 -0.847699 0.459409  0.277352 0.952147 1 0 1.000000
0  -26.302708 -87.675720 22.930574  0.459391 -0.847710 0.265232  0.249031 0.921873 1 0 1.000000
0  -25.807209 -86.822350 23.219616  0.722699 -0.551011 0.417244  0.220710 0.940428 1 0 1.000000
headlight
0  -25.807209 -86.822350 23.219616  0.722699 -0.551011 0.417244  0.220710 0.940428 1 0 1.000000
0  -26.495401 -86.822350 23.894043  0.417251 -0.551013 0.722694  0.260750 0.984375 1 0 1.000000
0  -26.770678 -87.675720 23.412310  0.265234 -0.847699 0.459409  0.277352 0.952147 1 0 1.000000
headlight
0  -26.302708 -87.675720 22.930574  0.459391 -0.847710 0.265232  0.249031 0.921873 1 0 1.000000
0  -26.123777 -87.675720 22.283672  0.530422 -0.847734 -0.000048  0.239265 0.878903 1 0 1.000000
0  -25.559458 -86.822350 22.283672  0.834359 -0.551221 0.000005  0.206061 0.878903 1 0 1.000000
headlight
0  -25.559458 -86.822350 22.283672  0.834359 -0.551221 0.000005  0.206061 0.878903 1 0 1.000000
0  -25.807209 -86.822350 23.219616  0.722699 -0.551011 0.417244  0.220710 0.940428 1 0 1.000000
0  -26.302708 -87.675720 22.930574  0.459391 -0.847710 0.265232  0.249031 0.921873 1 0 1.000000
headlight
0  -26.123777 -87.675720 22.283672  0.530422 -0.847734 -0.000048  0.239265 0.878903 1 0 1.000000
0  -26.302708 -87.675720 21.636772  0.459375 -0.847714 -0.265245  0.249031 0.836909 1 0 1.000000
0  -25.807209 -86.822350 21.361494  0.722692 -0.551018 -0.417248  0.220710 0.818354 1 0 1.000000
headlight
0  -25.807209 -86.822350 21.361494  0.722692 -0.551018 -0.417248  0.220710 0.818354 1 0 1.000000
0  -25.559458 -86.822350 22.283672  0.834359 -0.551221 0.000005  0.206061 0.878903 1 0 1.000000
0  -26.123777 -87.675720 22.283672  0.530422 -0.847734 -0.000048  0.239265 0.878903 1 0 1.000000
headlight
0  -26.302708 -87.675720 21.636772  0.459375 -0.847714 -0.265245  0.249031 0.836909 1 0 1.000000
0  -26.770678 -87.675720 21.168802  0.265317 -0.847789 -0.459196  0.277352 0.806635 1 0 1.000000
0  -26.495401 -86.822350 20.673304  0.417052 -0.551297 -0.722592  0.260750 0.774407 1 0 1.000000
headlight
0  -26.495401 -86.822350 20.673304  0.417052 -0.551297 -0.722592  0.260750 0.774407 1 0 1.000000
0  -25.807209 -86.822350 21.361494  0.722692 -0.551018 -0.417248  0.220710 0.818354 1 0 1.000000
0  -26.302708 -87.675720 21.636772  0.459375 -0.847714 -0.265245  0.249031 0.836909 1 0 1.000000
headlight
0  -26.770678 -87.675720 21.168802  0.265317 -0.847789 -0.459196  0.277352 0.806635 1 0 1.000000
0  -27.417578 -87.675720 20.989870  0.000035 -0.847702 -0.530472  0.315439 0.794916 1 0 1.000000
0  -27.417578 -86.822350 20.425554  0.000165 -0.551121 -0.834425  0.315439 0.757805 1 0 1.000000
headlight
0  -27.417578 -86.822350 20.425554  0.000165 -0.551121 -0.834425  0.315439 0.757805 1 0 1.000000
0  -26.495401 -86.822350 20.673304  0.417052 -0.551297 -0.722592  0.260750 0.774407 1 0 1.000000
0  -26.770678 -87.675720 21.168802  0.265317 -0.847789 -0.459196  0.277352 0.806635 1 0 1.000000
headlight
0  -27.417578 -87.675720 20.989870  0.000035 -0.847702 -0.530472  0.315439 0.794916 1 0 1.000000
0  -28.064480 -87.675720 21.168802  -0.265238 -0.847701 -0.459404  0.353526 0.806635 1 0 1.000000
0  -28.353521 -86.822350 20.673304  -0.417250 -0.551018 -0.722691  0.370128 0.774407 1 0 1.000000
headlight
0  -28.353521 -86.822350 20.673304  -0.417250 -0.551018 -0.722691  0.370128 0.774407 1 0 1.000000
0  -27.417578 -86.822350 20.425554  0.000165 -0.551121 -0.834425  0.315439 0.757805 1 0 1.000000
0  -27.417578 -87.675720 20.989870  0.000035 -0.847702 -0.530472  0.315439 0.794916 1 0 1.000000
headlight
0  -28.064480 -87.675720 21.168802  -0.265238 -0.847701 -0.459404  0.353526 0.806635 1 0 1.000000
0  -28.546213 -87.675720 21.636772  -0.459394 -0.847709 -0.265229  0.381848 0.836909 1 0 1.000000
0  -29.027950 -86.822350 21.361494  -0.722736 -0.550955 -0.417254  0.410169 0.818354 1 0 1.000000
headlight
0  -29.027950 -86.822350 21.361494  -0.722736 -0.550955 -0.417254  0.410169 0.818354 1 0 1.000000
0  -28.353521 -86.822350 20.673304  -0.417250 -0.551018 -0.722691  0.370128 0.774407 1 0 1.000000
0  -28.064480 -87.675720 21.168802  -0.265238 -0.847701 -0.459404  0.353526 0.806635 1 0 1.000000
headlight
0  -28.546213 -87.675720 21.636772  -0.459394 -0.847709 -0.265229  0.381848 0.836909 1 0 1.000000
0  -28.711380 -87.675720 22.283672  -0.530453 -0.847715 -0.000003  0.391614 0.878903 1 0 1.000000
0  -29.275698 -86.822350 22.283672  -0.835331 -0.549748 0.000262  0.424818 0.878903 1 0 1.000000
headlight
0  -29.275698 -86.822350 22.283672  -0.835331 -0.549748 0.000262  0.424818 0.878903 1 0 1.000000
0  -29.027950 -86.822350 21.361494  -0.722736 -0.550955 -0.417254  0.410169 0.818354 1 0 1.000000
0  -28.546213 -87.675720 21.636772  -0.459394 -0.847709 -0.265229  0.381848 0.836909 1 0 1.000000
headlight
0  -28.546213 -87.675720 22.930574  -0.459381 -0.847710 0.265247  0.381848 0.921873 1 0 1.000000
0  -28.711380 -87.675720 22.283672  -0.530453 -0.847715 -0.000003  0.391614 0.878903 1 0 1.000000
0  -26.123777 -87.675720 22.283672  0.530422 -0.847734 -0.000048  0.239265 0.878903 1 0 1.000000
headlight
0  -26.123777 -87.675720 22.283672  0.530422 -0.847734 -0.000048  0.239265 0.878903 1 0 1.000000
0  -26.302708 -87.675720 22.930574  0.459391 -0.847710 0.265232  0.249031 0.921873 1 0 1.000000
0  -28.546213 -87.675720 22.930574  -0.459381 -0.847710 0.265247  0.381848 0.921873 1 0 1.000000
headlight
0  -26.770678 -87.675720 23.412310  0.265234 -0.847699 0.459409  0.277352 0.952147 1 0 1.000000
0  -27.417578 -87.675720 23.577475  -0.000026 -0.847707 0.530465  0.315439 0.963866 1 0 1.000000
0  -28.064480 -87.675720 23.412310  -0.265259 -0.847714 0.459368  0.353526 0.952147 1 0 1.000000
headlight
0  -28.064480 -87.675720 23.412310  -0.265259 -0.847714 0.459368  0.353526 0.952147 1 0 1.000000
0  -28.546213 -87.675720 22.930574  -0.459381 -0.847710 0.265247  0.381848 0.921873 1 0 1.000000
0  -26.302708 -87.675720 22.930574  0.459391 -0.847710 0.265232  0.249031 0.921873 1 0 1.000000
headlight
0  -26.302708 -87.675720 22.930574  0.459391 -0.847710 0.265232  0.249031 0.921873 1 0 1.000000
0  -26.770678 -87.675720 23.412310  0.265234 -0.847699 0.459409  0.277352 0.952147 1 0 1.000000
0  -28.064480 -87.675720 23.412310  -0.265259 -0.847714 0.459368  0.353526 0.952147 1 0 1.000000
headlight
0  -26.302708 -87.675720 21.636772  0.459375 -0.847714 -0.265245  0.249031 0.836909 1 0 1.000000
0  -26.123777 -87.675720 22.283672  0.530422 -0.847734 -0.000048  0.239265 0.878903 1 0 1.000000
0  -28.711380 -87.675720 22.283672  -0.530453 -0.847715 -0.000003  0.391614 0.878903 1 0 1.000000
headlight
0  -28.711380 -87.675720 22.283672  -0.530453 -0.847715 -0.000003  0.391614 0.878903 1 0 1.000000
0  -28.546213 -87.675720 21.636772  -0.459394 -0.847709 -0.265229  0.381848 0.836909 1 0 1.000000
0  -26.302708 -87.675720 21.636772  0.459375 -0.847714 -0.265245  0.249031 0.836909 1 0 1.000000
headlight
0  -26.770678 -87.675720 21.168802  0.265317 -0.847789 -0.459196  0.277352 0.806635 1 0 1.000000
0  -26.302708 -87.675720 21.636772  0.459375 -0.847714 -0.265245  0.249031 0.836909 1 0 1.000000
0  -28.546213 -87.675720 21.636772  -0.459394 -0.847709 -0.265229  0.381848 0.836909 1 0 1.000000
headlight
0  -28.546213 -87.675720 21.636772  -0.459394 -0.847709 -0.265229  0.381848 0.836909 1 0 1.000000
0  -28.064480 -87.675720 21.168802  -0.265238 -0.847701 -0.459404  0.353526 0.806635 1 0 1.000000
0  -26.770678 -87.675720 21.168802  0.265317 -0.847789 -0.459196  0.277352 0.806635 1 0 1.000000
headlight
0  -28.064480 -87.675720 21.168802  -0.265238 -0.847701 -0.459404  0.353526 0.806635 1 0 1.000000
0  -27.417578 -87.675720 20.989870  0.000035 -0.847702 -0.530472  0.315439 0.794916 1 0 1.000000
0  -26.770678 -87.675720 21.168802  0.265317 -0.847789 -0.459196  0.277352 0.806635 1 0 1.000000
end
