version 1
nodes
0 "root" -1
end
skeleton
time 0
0  0.000000 0.000000 0.000000  0.000000 -0.000000 0.000000
end
triangles
exhaust
0  -25.848515 91.777344 6.441483  0.029383 0.567415 -0.822908  0.092776 0.377911 1 0 1.000000
0  -23.894047 93.649231 8.093145  -0.146569 0.734483 -0.662610  0.092776 0.266579 1 0 1.000000
0  -23.894047 91.378189 8.960268  0.717170 -0.693269 -0.071027  0.013672 0.266579 1 0 1.000000
exhaust
0  -23.894047 91.378189 8.960268  0.717170 -0.693269 -0.071027  0.013672 0.266579 1 0 1.000000
0  -24.692352 90.414726 7.831632  0.945713 -0.321669 -0.046426  0.013672 0.377911 1 0 1.000000
0  -25.848515 91.777344 6.441483  0.029383 0.567415 -0.822908  0.092776 0.377911 1 0 1.000000
exhaust
0  -26.013681 90.690002 9.662224  -0.340476 -0.480778 0.808040  0.092776 0.377911 1 0 1.000000
0  -24.692352 90.414726 7.831632  0.945713 -0.321669 -0.046426  0.013672 0.377911 1 0 1.000000
0  -23.894047 91.378189 8.960268  0.717170 -0.693269 -0.071027  0.013672 0.266579 1 0 1.000000
exhaust
0  -23.894047 91.378189 8.960268  0.717170 -0.693269 -0.071027  0.013672 0.266579 1 0 1.000000
0  -23.894047 92.162735 11.066135  -0.443012 -0.153495 0.883278  0.092776 0.266579 1 0 1.000000
0  -26.013681 90.690002 9.662224  -0.340476 -0.480778 0.808040  0.092776 0.377911 1 0 1.000000
exhaust
0  -27.169844 92.038849 8.272075  -0.897738 0.429499 0.097965  0.166997 0.377911 1 0 1.000000
0  -26.013681 90.690002 9.662224  -0.340476 -0.480778 0.808040  0.092776 0.377911 1 0 1.000000
0  -23.894047 92.162735 11.066135  -0.443012 -0.153495 0.883278  0.092776 0.266579 1 0 1.000000
exhaust
0  -23.894047 92.162735 11.066135  -0.443012 -0.153495 0.883278  0.092776 0.266579 1 0 1.000000
0  -23.894047 94.433762 10.185249  -0.690806 0.647074 0.322618  0.166997 0.266579 1 0 1.000000
0  -27.169844 92.038849 8.272075  -0.897738 0.429499 0.097965  0.166997 0.377911 1 0 1.000000
exhaust
0  -25.848515 91.777344 6.441483  0.029383 0.567415 -0.822908  0.092776 0.377911 1 0 1.000000
0  -27.169844 92.038849 8.272075  -0.897738 0.429499 0.097965  0.166997 0.377911 1 0 1.000000
0  -23.894047 94.433762 10.185249  -0.690806 0.647074 0.322618  0.166997 0.266579 1 0 1.000000
exhaust
0  -23.894047 94.433762 10.185249  -0.690806 0.647074 0.322618  0.166997 0.266579 1 0 1.000000
0  -23.894047 93.649231 8.093145  -0.146569 0.734483 -0.662610  0.092776 0.266579 1 0 1.000000
0  -25.848515 91.777344 6.441483  0.029383 0.567415 -0.822908  0.092776 0.377911 1 0 1.000000
exhaust
0  -8.451006 43.067081 1.871884  -0.166060 -0.104740 -0.980537  0.092776 0.625965 1 0 1.000000
0  -10.942266 58.042152 0.674429  0.070455 -0.022872 -0.997253  0.092776 0.558580 1 0 1.000000
0  -10.006323 58.771637 1.913176  0.954299 0.298070 -0.021627  0.013672 0.558580 1 0 1.000000
exhaust
0  -10.006323 58.771637 1.913176  0.954299 0.298070 -0.021627  0.013672 0.558580 1 0 1.000000
0  -7.487536 43.700218 3.110630  0.984843 0.168278 0.042029  0.013672 0.625965 1 0 1.000000
0  -8.451006 43.067081 1.871884  -0.166060 -0.104740 -0.980537  0.092776 0.625965 1 0 1.000000
exhaust
0  -10.006323 58.771637 1.913176  0.954299 0.298070 -0.021627  0.013672 0.558580 1 0 1.000000
0  -10.942265 58.042152 3.151922  0.057279 0.015164 0.998243  0.092776 0.558580 1 0 1.000000
0  -8.451006 43.067081 4.335613  -0.234211 0.038670 0.971416  0.092776 0.625965 1 0 1.000000
exhaust
0  -8.451006 43.067081 4.335613  -0.234211 0.038670 0.971416  0.092776 0.625965 1 0 1.000000
0  -7.487536 43.700218 3.110630  0.984843 0.168278 0.042029  0.013672 0.625965 1 0 1.000000
0  -10.006323 58.771637 1.913176  0.954299 0.298070 -0.021627  0.013672 0.558580 1 0 1.000000
exhaust
0  -10.942265 58.042152 3.151922  0.057279 0.015164 0.998243  0.092776 0.558580 1 0 1.000000
0  -11.878205 57.326427 1.913176  -0.964294 -0.262890 -0.032015  0.166997 0.558580 1 0 1.000000
0  -9.428240 42.433945 3.110630  -0.986506 -0.161825 0.024892  0.166997 0.625965 1 0 1.000000
exhaust
0  -9.428240 42.433945 3.110630  -0.986506 -0.161825 0.024892  0.166997 0.625965 1 0 1.000000
0  -8.451006 43.067081 4.335613  -0.234211 0.038670 0.971416  0.092776 0.625965 1 0 1.000000
0  -10.942265 58.042152 3.151922  0.057279 0.015164 0.998243  0.092776 0.558580 1 0 1.000000
exhaust
0  -9.428240 42.433945 3.110630  -0.986506 -0.161825 0.024892  0.166997 0.625965 1 0 1.000000
0  -11.878205 57.326427 1.913176  -0.964294 -0.262890 -0.032015  0.166997 0.558580 1 0 1.000000
0  -10.942266 58.042152 0.674429  0.070455 -0.022872 -0.997253  0.092776 0.558580 1 0 1.000000
exhaust
0  -10.942266 58.042152 0.674429  0.070455 -0.022872 -0.997253  0.092776 0.558580 1 0 1.000000
0  -8.451006 43.067081 1.871884  -0.166060 -0.104740 -0.980537  0.092776 0.625965 1 0 1.000000
0  -9.428240 42.433945 3.110630  -0.986506 -0.161825 0.024892  0.166997 0.625965 1 0 1.000000
exhaust
0  -17.025885 72.246437 1.293803  -0.010311 0.087713 -0.996092  0.092776 0.523423 1 0 1.000000
0  -15.979833 72.810760 2.518785  0.889044 0.457182 -0.024176  0.013672 0.523423 1 0 1.000000
0  -10.006323 58.771637 1.913176  0.954299 0.298070 -0.021627  0.013672 0.558580 1 0 1.000000
exhaust
0  -10.006323 58.771637 1.913176  0.954299 0.298070 -0.021627  0.013672 0.558580 1 0 1.000000
0  -10.942266 58.042152 0.674429  0.070455 -0.022872 -0.997253  0.092776 0.558580 1 0 1.000000
0  -17.025885 72.246437 1.293803  -0.010311 0.087713 -0.996092  0.092776 0.523423 1 0 1.000000
exhaust
0  -10.006323 58.771637 1.913176  0.954299 0.298070 -0.021627  0.013672 0.558580 1 0 1.000000
0  -15.979833 72.810760 2.518785  0.889044 0.457182 -0.024176  0.013672 0.523423 1 0 1.000000
0  -17.025885 72.246437 3.757532  0.078455 -0.073259 0.994222  0.092776 0.523423 1 0 1.000000
exhaust
0  -17.025885 72.246437 3.757532  0.078455 -0.073259 0.994222  0.092776 0.523423 1 0 1.000000
0  -10.942265 58.042152 3.151922  0.057279 0.015164 0.998243  0.092776 0.558580 1 0 1.000000
0  -10.006323 58.771637 1.913176  0.954299 0.298070 -0.021627  0.013672 0.558580 1 0 1.000000
exhaust
0  -17.025885 72.246437 3.757532  0.078455 -0.073259 0.994222  0.092776 0.523423 1 0 1.000000
0  -26.165081 86.891182 6.579122  -0.096262 -0.421319 0.901789  0.092776 0.489242 1 0 1.000000
0  -27.513937 86.684715 5.092626  -0.969968 -0.223282 -0.096472  0.166997 0.489242 1 0 1.000000
exhaust
0  -27.513937 86.684715 5.092626  -0.969968 -0.223282 -0.096472  0.166997 0.489242 1 0 1.000000
0  -18.071938 71.682129 2.518786  -0.887489 -0.460276 -0.022571  0.166997 0.523423 1 0 1.000000
0  -17.025885 72.246437 3.757532  0.078455 -0.073259 0.994222  0.092776 0.523423 1 0 1.000000
exhaust
0  -17.025885 72.246437 1.293803  -0.010311 0.087713 -0.996092  0.092776 0.523423 1 0 1.000000
0  -18.071938 71.682129 2.518786  -0.887489 -0.460276 -0.022571  0.166997 0.523423 1 0 1.000000
0  -27.513937 86.684715 5.092626  -0.969968 -0.223282 -0.096472  0.166997 0.489242 1 0 1.000000
exhaust
0  -27.513937 86.684715 5.092626  -0.969968 -0.223282 -0.096472  0.166997 0.489242 1 0 1.000000
0  -26.165081 87.386673 3.743769  -0.154544 0.330717 -0.930990  0.092776 0.489242 1 0 1.000000
0  -17.025885 72.246437 1.293803  -0.010311 0.087713 -0.996092  0.092776 0.523423 1 0 1.000000
exhaust
0  -24.692352 90.414726 7.831632  0.945713 -0.321669 -0.046426  0.013672 0.377911 1 0 1.000000
0  -24.802462 87.606903 5.230264  0.925749 0.368729 -0.083828  0.013672 0.489242 1 0 1.000000
0  -26.165081 87.386673 3.743769  -0.154544 0.330717 -0.930990  0.092776 0.489242 1 0 1.000000
exhaust
0  -26.165081 87.386673 3.743769  -0.154544 0.330717 -0.930990  0.092776 0.489242 1 0 1.000000
0  -25.848515 91.777344 6.441483  0.029383 0.567415 -0.822908  0.092776 0.377911 1 0 1.000000
0  -24.692352 90.414726 7.831632  0.945713 -0.321669 -0.046426  0.013672 0.377911 1 0 1.000000
exhaust
0  -26.013681 90.690002 9.662224  -0.340476 -0.480778 0.808040  0.092776 0.377911 1 0 1.000000
0  -26.165081 86.891182 6.579122  -0.096262 -0.421319 0.901789  0.092776 0.489242 1 0 1.000000
0  -24.802462 87.606903 5.230264  0.925749 0.368729 -0.083828  0.013672 0.489242 1 0 1.000000
exhaust
0  -24.802462 87.606903 5.230264  0.925749 0.368729 -0.083828  0.013672 0.489242 1 0 1.000000
0  -24.692352 90.414726 7.831632  0.945713 -0.321669 -0.046426  0.013672 0.377911 1 0 1.000000
0  -26.013681 90.690002 9.662224  -0.340476 -0.480778 0.808040  0.092776 0.377911 1 0 1.000000
exhaust
0  -27.169844 92.038849 8.272075  -0.897738 0.429499 0.097965  0.166997 0.377911 1 0 1.000000
0  -27.513937 86.684715 5.092626  -0.969968 -0.223282 -0.096472  0.166997 0.489242 1 0 1.000000
0  -26.165081 86.891182 6.579122  -0.096262 -0.421319 0.901789  0.092776 0.489242 1 0 1.000000
exhaust
0  -26.165081 86.891182 6.579122  -0.096262 -0.421319 0.901789  0.092776 0.489242 1 0 1.000000
0  -26.013681 90.690002 9.662224  -0.340476 -0.480778 0.808040  0.092776 0.377911 1 0 1.000000
0  -27.169844 92.038849 8.272075  -0.897738 0.429499 0.097965  0.166997 0.377911 1 0 1.000000
exhaust
0  -26.165081 87.386673 3.743769  -0.154544 0.330717 -0.930990  0.092776 0.489242 1 0 1.000000
0  -27.513937 86.684715 5.092626  -0.969968 -0.223282 -0.096472  0.166997 0.489242 1 0 1.000000
0  -27.169844 92.038849 8.272075  -0.897738 0.429499 0.097965  0.166997 0.377911 1 0 1.000000
exhaust
0  -27.169844 92.038849 8.272075  -0.897738 0.429499 0.097965  0.166997 0.377911 1 0 1.000000
0  -25.848515 91.777344 6.441483  0.029383 0.567415 -0.822908  0.092776 0.377911 1 0 1.000000
0  -26.165081 87.386673 3.743769  -0.154544 0.330717 -0.930990  0.092776 0.489242 1 0 1.000000
exhaust
0  -26.165081 87.386673 3.743769  -0.154544 0.330717 -0.930990  0.092776 0.489242 1 0 1.000000
0  -24.802462 87.606903 5.230264  0.925749 0.368729 -0.083828  0.013672 0.489242 1 0 1.000000
0  -15.979833 72.810760 2.518785  0.889044 0.457182 -0.024176  0.013672 0.523423 1 0 1.000000
exhaust
0  -15.979833 72.810760 2.518785  0.889044 0.457182 -0.024176  0.013672 0.523423 1 0 1.000000
0  -17.025885 72.246437 1.293803  -0.010311 0.087713 -0.996092  0.092776 0.523423 1 0 1.000000
0  -26.165081 87.386673 3.743769  -0.154544 0.330717 -0.930990  0.092776 0.489242 1 0 1.000000
exhaust
0  -15.979833 72.810760 2.518785  0.889044 0.457182 -0.024176  0.013672 0.523423 1 0 1.000000
0  -24.802462 87.606903 5.230264  0.925749 0.368729 -0.083828  0.013672 0.489242 1 0 1.000000
0  -26.165081 86.891182 6.579122  -0.096262 -0.421319 0.901789  0.092776 0.489242 1 0 1.000000
exhaust
0  -26.165081 86.891182 6.579122  -0.096262 -0.421319 0.901789  0.092776 0.489242 1 0 1.000000
0  -17.025885 72.246437 3.757532  0.078455 -0.073259 0.994222  0.092776 0.523423 1 0 1.000000
0  -15.979833 72.810760 2.518785  0.889044 0.457182 -0.024176  0.013672 0.523423 1 0 1.000000
exhaust
0  -18.071938 71.682129 2.518786  -0.887489 -0.460276 -0.022571  0.166997 0.523423 1 0 1.000000
0  -11.878205 57.326427 1.913176  -0.964294 -0.262890 -0.032015  0.166997 0.558580 1 0 1.000000
0  -10.942265 58.042152 3.151922  0.057279 0.015164 0.998243  0.092776 0.558580 1 0 1.000000
exhaust
0  -10.942265 58.042152 3.151922  0.057279 0.015164 0.998243  0.092776 0.558580 1 0 1.000000
0  -17.025885 72.246437 3.757532  0.078455 -0.073259 0.994222  0.092776 0.523423 1 0 1.000000
0  -18.071938 71.682129 2.518786  -0.887489 -0.460276 -0.022571  0.166997 0.523423 1 0 1.000000
exhaust
0  -10.942266 58.042152 0.674429  0.070455 -0.022872 -0.997253  0.092776 0.558580 1 0 1.000000
0  -11.878205 57.326427 1.913176  -0.964294 -0.262890 -0.032015  0.166997 0.558580 1 0 1.000000
0  -18.071938 71.682129 2.518786  -0.887489 -0.460276 -0.022571  0.166997 0.523423 1 0 1.000000
exhaust
0  -18.071938 71.682129 2.518786  -0.887489 -0.460276 -0.022571  0.166997 0.523423 1 0 1.000000
0  -17.025885 72.246437 1.293803  -0.010311 0.087713 -0.996092  0.092776 0.523423 1 0 1.000000
0  -10.942266 58.042152 0.674429  0.070455 -0.022872 -0.997253  0.092776 0.558580 1 0 1.000000
exhaust
0  25.820974 91.777344 6.441479  -0.029807 0.567319 -0.822958  0.092776 0.377911 1 0 1.000000
0  24.664810 90.414726 7.831628  -0.945735 -0.321606 -0.046417  0.013672 0.377911 1 0 1.000000
0  23.866508 91.378189 8.960264  -0.717241 -0.693190 -0.071087  0.013672 0.266579 1 0 1.000000
exhaust
0  23.866508 91.378189 8.960264  -0.717241 -0.693190 -0.071087  0.013672 0.266579 1 0 1.000000
0  23.866508 93.649231 8.093142  0.146500 0.734497 -0.662609  0.092776 0.266579 1 0 1.000000
0  25.820974 91.777344 6.441479  -0.029807 0.567319 -0.822958  0.092776 0.377911 1 0 1.000000
exhaust
0  25.986139 90.690002 9.662220  0.340576 -0.480701 0.808043  0.092776 0.377911 1 0 1.000000
0  23.866508 92.162735 11.066132  0.443132 -0.153363 0.883241  0.092776 0.266579 1 0 1.000000
0  23.866508 91.378189 8.960264  -0.717241 -0.693190 -0.071087  0.013672 0.266579 1 0 1.000000
exhaust
0  23.866508 91.378189 8.960264  -0.717241 -0.693190 -0.071087  0.013672 0.266579 1 0 1.000000
0  24.664810 90.414726 7.831628  -0.945735 -0.321606 -0.046417  0.013672 0.377911 1 0 1.000000
0  25.986139 90.690002 9.662220  0.340576 -0.480701 0.808043  0.092776 0.377911 1 0 1.000000
exhaust
0  27.142303 92.038849 8.272071  0.897739 0.429497 0.097964  0.166997 0.377911 1 0 1.000000
0  23.866508 94.433762 10.185246  0.690868 0.646923 0.322789  0.166997 0.266579 1 0 1.000000
0  23.866508 92.162735 11.066132  0.443132 -0.153363 0.883241  0.092776 0.266579 1 0 1.000000
exhaust
0  23.866508 92.162735 11.066132  0.443132 -0.153363 0.883241  0.092776 0.266579 1 0 1.000000
0  25.986139 90.690002 9.662220  0.340576 -0.480701 0.808043  0.092776 0.377911 1 0 1.000000
0  27.142303 92.038849 8.272071  0.897739 0.429497 0.097964  0.166997 0.377911 1 0 1.000000
exhaust
0  25.820974 91.777344 6.441479  -0.029807 0.567319 -0.822958  0.092776 0.377911 1 0 1.000000
0  23.866508 93.649231 8.093142  0.146500 0.734497 -0.662609  0.092776 0.266579 1 0 1.000000
0  23.866508 94.433762 10.185246  0.690868 0.646923 0.322789  0.166997 0.266579 1 0 1.000000
exhaust
0  23.866508 94.433762 10.185246  0.690868 0.646923 0.322789  0.166997 0.266579 1 0 1.000000
0  27.142303 92.038849 8.272071  0.897739 0.429497 0.097964  0.166997 0.377911 1 0 1.000000
0  25.820974 91.777344 6.441479  -0.029807 0.567319 -0.822958  0.092776 0.377911 1 0 1.000000
exhaust
0  8.423472 43.067081 1.871883  0.166060 -0.104740 -0.980537  0.092776 0.625965 1 0 1.000000
0  7.460003 43.700218 3.110629  -0.984847 0.168270 0.041967  0.013672 0.625965 1 0 1.000000
0  9.978786 58.771637 1.913174  -0.954299 0.298070 -0.021627  0.013672 0.558580 1 0 1.000000
exhaust
0  9.978786 58.771637 1.913174  -0.954299 0.298070 -0.021627  0.013672 0.558580 1 0 1.000000
0  10.914727 58.042152 0.674428  -0.070456 -0.022871 -0.997253  0.092776 0.558580 1 0 1.000000
0  8.423472 43.067081 1.871883  0.166060 -0.104740 -0.980537  0.092776 0.625965 1 0 1.000000
exhaust
0  9.978786 58.771637 1.913174  -0.954299 0.298070 -0.021627  0.013672 0.558580 1 0 1.000000
0  7.460003 43.700218 3.110629  -0.984847 0.168270 0.041967  0.013672 0.625965 1 0 1.000000
0  8.423472 43.067081 4.335612  0.234152 0.038670 0.971431  0.092776 0.625965 1 0 1.000000
exhaust
0  8.423472 43.067081 4.335612  0.234152 0.038670 0.971431  0.092776 0.625965 1 0 1.000000
0  10.914728 58.042152 3.151921  -0.057279 0.015164 0.998243  0.092776 0.558580 1 0 1.000000
0  9.978786 58.771637 1.913174  -0.954299 0.298070 -0.021627  0.013672 0.558580 1 0 1.000000
exhaust
0  10.914728 58.042152 3.151921  -0.057279 0.015164 0.998243  0.092776 0.558580 1 0 1.000000
0  8.423472 43.067081 4.335612  0.234152 0.038670 0.971431  0.092776 0.625965 1 0 1.000000
0  9.400706 42.433945 3.110629  0.986505 -0.161825 0.024891  0.166997 0.625965 1 0 1.000000
exhaust
0  9.400706 42.433945 3.110629  0.986505 -0.161825 0.024891  0.166997 0.625965 1 0 1.000000
0  11.850670 57.326427 1.913174  0.964294 -0.262890 -0.032016  0.166997 0.558580 1 0 1.000000
0  10.914728 58.042152 3.151921  -0.057279 0.015164 0.998243  0.092776 0.558580 1 0 1.000000
exhaust
0  9.400706 42.433945 3.110629  0.986505 -0.161825 0.024891  0.166997 0.625965 1 0 1.000000
0  8.423472 43.067081 1.871883  0.166060 -0.104740 -0.980537  0.092776 0.625965 1 0 1.000000
0  10.914727 58.042152 0.674428  -0.070456 -0.022871 -0.997253  0.092776 0.558580 1 0 1.000000
exhaust
0  10.914727 58.042152 0.674428  -0.070456 -0.022871 -0.997253  0.092776 0.558580 1 0 1.000000
0  11.850670 57.326427 1.913174  0.964294 -0.262890 -0.032016  0.166997 0.558580 1 0 1.000000
0  9.400706 42.433945 3.110629  0.986505 -0.161825 0.024891  0.166997 0.625965 1 0 1.000000
exhaust
0  16.998346 72.246437 1.293800  0.010770 0.087192 -0.996133  0.092776 0.523423 1 0 1.000000
0  10.914727 58.042152 0.674428  -0.070456 -0.022871 -0.997253  0.092776 0.558580 1 0 1.000000
0  9.978786 58.771637 1.913174  -0.954299 0.298070 -0.021627  0.013672 0.558580 1 0 1.000000
exhaust
0  9.978786 58.771637 1.913174  -0.954299 0.298070 -0.021627  0.013672 0.558580 1 0 1.000000
0  15.952294 72.810760 2.518783  -0.889091 0.457109 -0.023839  0.013672 0.523423 1 0 1.000000
0  16.998346 72.246437 1.293800  0.010770 0.087192 -0.996133  0.092776 0.523423 1 0 1.000000
exhaust
0  9.978786 58.771637 1.913174  -0.954299 0.298070 -0.021627  0.013672 0.558580 1 0 1.000000
0  10.914728 58.042152 3.151921  -0.057279 0.015164 0.998243  0.092776 0.558580 1 0 1.000000
0  16.998346 72.246437 3.757529  -0.078455 -0.073259 0.994222  0.092776 0.523423 1 0 1.000000
exhaust
0  16.998346 72.246437 3.757529  -0.078455 -0.073259 0.994222  0.092776 0.523423 1 0 1.000000
0  15.952294 72.810760 2.518783  -0.889091 0.457109 -0.023839  0.013672 0.523423 1 0 1.000000
0  9.978786 58.771637 1.913174  -0.954299 0.298070 -0.021627  0.013672 0.558580 1 0 1.000000
exhaust
0  16.998346 72.246437 3.757529  -0.078455 -0.073259 0.994222  0.092776 0.523423 1 0 1.000000
0  18.044399 71.682129 2.518783  0.887492 -0.460267 -0.022625  0.166997 0.523423 1 0 1.000000
0  27.486399 86.684715 5.092622  0.970006 -0.223385 -0.095854  0.166997 0.489242 1 0 1.000000
exhaust
0  27.486399 86.684715 5.092622  0.970006 -0.223385 -0.095854  0.166997 0.489242 1 0 1.000000
0  26.137543 86.891182 6.579118  0.096542 -0.421163 0.901832  0.092776 0.489242 1 0 1.000000
0  16.998346 72.246437 3.757529  -0.078455 -0.073259 0.994222  0.092776 0.523423 1 0 1.000000
exhaust
0  16.998346 72.246437 1.293800  0.010770 0.087192 -0.996133  0.092776 0.523423 1 0 1.000000
0  26.137543 87.386673 3.743765  0.154423 0.330759 -0.930995  0.092776 0.489242 1 0 1.000000
0  27.486399 86.684715 5.092622  0.970006 -0.223385 -0.095854  0.166997 0.489242 1 0 1.000000
exhaust
0  27.486399 86.684715 5.092622  0.970006 -0.223385 -0.095854  0.166997 0.489242 1 0 1.000000
0  18.044399 71.682129 2.518783  0.887492 -0.460267 -0.022625  0.166997 0.523423 1 0 1.000000
0  16.998346 72.246437 1.293800  0.010770 0.087192 -0.996133  0.092776 0.523423 1 0 1.000000
exhaust
0  24.664810 90.414726 7.831628  -0.945735 -0.321606 -0.046417  0.013672 0.377911 1 0 1.000000
0  25.820974 91.777344 6.441479  -0.029807 0.567319 -0.822958  0.092776 0.377911 1 0 1.000000
0  26.137543 87.386673 3.743765  0.154423 0.330759 -0.930995  0.092776 0.489242 1 0 1.000000
exhaust
0  26.137543 87.386673 3.743765  0.154423 0.330759 -0.930995  0.092776 0.489242 1 0 1.000000
0  24.774921 87.606903 5.230260  -0.925733 0.368760 -0.083872  0.013672 0.489242 1 0 1.000000
0  24.664810 90.414726 7.831628  -0.945735 -0.321606 -0.046417  0.013672 0.377911 1 0 1.000000
exhaust
0  25.986139 90.690002 9.662220  0.340576 -0.480701 0.808043  0.092776 0.377911 1 0 1.000000
0  24.664810 90.414726 7.831628  -0.945735 -0.321606 -0.046417  0.013672 0.377911 1 0 1.000000
0  24.774921 87.606903 5.230260  -0.925733 0.368760 -0.083872  0.013672 0.489242 1 0 1.000000
exhaust
0  24.774921 87.606903 5.230260  -0.925733 0.368760 -0.083872  0.013672 0.489242 1 0 1.000000
0  26.137543 86.891182 6.579118  0.096542 -0.421163 0.901832  0.092776 0.489242 1 0 1.000000
0  25.986139 90.690002 9.662220  0.340576 -0.480701 0.808043  0.092776 0.377911 1 0 1.000000
exhaust
0  27.142303 92.038849 8.272071  0.897739 0.429497 0.097964  0.166997 0.377911 1 0 1.000000
0  25.986139 90.690002 9.662220  0.340576 -0.480701 0.808043  0.092776 0.377911 1 0 1.000000
0  26.137543 86.891182 6.579118  0.096542 -0.421163 0.901832  0.092776 0.489242 1 0 1.000000
exhaust
0  26.137543 86.891182 6.579118  0.096542 -0.421163 0.901832  0.092776 0.489242 1 0 1.000000
0  27.486399 86.684715 5.092622  0.970006 -0.223385 -0.095854  0.166997 0.489242 1 0 1.000000
0  27.142303 92.038849 8.272071  0.897739 0.429497 0.097964  0.166997 0.377911 1 0 1.000000
exhaust
0  26.137543 87.386673 3.743765  0.154423 0.330759 -0.930995  0.092776 0.489242 1 0 1.000000
0  25.820974 91.777344 6.441479  -0.029807 0.567319 -0.822958  0.092776 0.377911 1 0 1.000000
0  27.142303 92.038849 8.272071  0.897739 0.429497 0.097964  0.166997 0.377911 1 0 1.000000
exhaust
0  27.142303 92.038849 8.272071  0.897739 0.429497 0.097964  0.166997 0.377911 1 0 1.000000
0  27.486399 86.684715 5.092622  0.970006 -0.223385 -0.095854  0.166997 0.489242 1 0 1.000000
0  26.137543 87.386673 3.743765  0.154423 0.330759 -0.930995  0.092776 0.489242 1 0 1.000000
exhaust
0  26.137543 87.386673 3.743765  0.154423 0.330759 -0.930995  0.092776 0.489242 1 0 1.000000
0  16.998346 72.246437 1.293800  0.010770 0.087192 -0.996133  0.092776 0.523423 1 0 1.000000
0  15.952294 72.810760 2.518783  -0.889091 0.457109 -0.023839  0.013672 0.523423 1 0 1.000000
exhaust
0  15.952294 72.810760 2.518783  -0.889091 0.457109 -0.023839  0.013672 0.523423 1 0 1.000000
0  24.774921 87.606903 5.230260  -0.925733 0.368760 -0.083872  0.013672 0.489242 1 0 1.000000
0  26.137543 87.386673 3.743765  0.154423 0.330759 -0.930995  0.092776 0.489242 1 0 1.000000
exhaust
0  15.952294 72.810760 2.518783  -0.889091 0.457109 -0.023839  0.013672 0.523423 1 0 1.000000
0  16.998346 72.246437 3.757529  -0.078455 -0.073259 0.994222  0.092776 0.523423 1 0 1.000000
0  26.137543 86.891182 6.579118  0.096542 -0.421163 0.901832  0.092776 0.489242 1 0 1.000000
exhaust
0  26.137543 86.891182 6.579118  0.096542 -0.421163 0.901832  0.092776 0.489242 1 0 1.000000
0  24.774921 87.606903 5.230260  -0.925733 0.368760 -0.083872  0.013672 0.489242 1 0 1.000000
0  15.952294 72.810760 2.518783  -0.889091 0.457109 -0.023839  0.013672 0.523423 1 0 1.000000
exhaust
0  18.044399 71.682129 2.518783  0.887492 -0.460267 -0.022625  0.166997 0.523423 1 0 1.000000
0  16.998346 72.246437 3.757529  -0.078455 -0.073259 0.994222  0.092776 0.523423 1 0 1.000000
0  10.914728 58.042152 3.151921  -0.057279 0.015164 0.998243  0.092776 0.558580 1 0 1.000000
exhaust
0  10.914728 58.042152 3.151921  -0.057279 0.015164 0.998243  0.092776 0.558580 1 0 1.000000
0  11.850670 57.326427 1.913174  0.964294 -0.262890 -0.032016  0.166997 0.558580 1 0 1.000000
0  18.044399 71.682129 2.518783  0.887492 -0.460267 -0.022625  0.166997 0.523423 1 0 1.000000
exhaust
0  10.914727 58.042152 0.674428  -0.070456 -0.022871 -0.997253  0.092776 0.558580 1 0 1.000000
0  16.998346 72.246437 1.293800  0.010770 0.087192 -0.996133  0.092776 0.523423 1 0 1.000000
0  18.044399 71.682129 2.518783  0.887492 -0.460267 -0.022625  0.166997 0.523423 1 0 1.000000
exhaust
0  18.044399 71.682129 2.518783  0.887492 -0.460267 -0.022625  0.166997 0.523423 1 0 1.000000
0  11.850670 57.326427 1.913174  0.964294 -0.262890 -0.032016  0.166997 0.558580 1 0 1.000000
0  10.914727 58.042152 0.674428  -0.070456 -0.022871 -0.997253  0.092776 0.558580 1 0 1.000000
exhaust
0  -23.894047 89.065857 11.534107  0.000000 -0.601056 0.799207  0.074221 0.970702 1 0 1.000000
0  -23.894047 88.198746 9.565877  0.000000 -1.000000 -0.000004  0.115238 0.970702 1 0 1.000000
0  23.866508 88.198746 9.565873  -0.000000 -1.000000 0.000004  0.115238 0.275369 1 0 1.000000
exhaust
0  23.866508 88.198746 9.565873  -0.000000 -1.000000 0.000004  0.115238 0.275369 1 0 1.000000
0  23.866508 89.065857 11.534103  0.000000 -0.601048 0.799213  0.074221 0.275369 1 0 1.000000
0  -23.894047 89.065857 11.534107  0.000000 -0.601056 0.799207  0.074221 0.970702 1 0 1.000000
exhaust
0  -23.894047 92.644463 12.015841  0.000000 -0.000001 1.000000  0.005860 0.970702 1 0 1.000000
0  -23.894047 89.065857 11.534107  0.000000 -0.601056 0.799207  0.074221 0.970702 1 0 1.000000
0  23.866508 89.065857 11.534103  0.000000 -0.601048 0.799213  0.074221 0.275369 1 0 1.000000
exhaust
0  23.866508 89.065857 11.534103  0.000000 -0.601048 0.799213  0.074221 0.275369 1 0 1.000000
0  23.866508 92.644463 12.015838  0.000000 0.000001 1.000000  0.005860 0.275369 1 0 1.000000
0  -23.894047 92.644463 12.015841  0.000000 -0.000001 1.000000  0.005860 0.970702 1 0 1.000000
exhaust
0  -23.894047 96.223061 11.534107  0.000000 0.447112 0.894478  0.064455 0.970702 1 0 1.000000
0  -23.894047 92.644463 12.015841  0.000000 -0.000001 1.000000  0.005860 0.970702 1 0 1.000000
0  23.866508 92.644463 12.015838  0.000000 0.000001 1.000000  0.005860 0.275369 1 0 1.000000
exhaust
0  23.866508 92.644463 12.015838  0.000000 0.000001 1.000000  0.005860 0.275369 1 0 1.000000
0  23.866508 96.223061 11.534103  -0.000026 0.446125 0.894971  0.064455 0.275369 1 0 1.000000
0  -23.894047 96.223061 11.534107  0.000000 0.447112 0.894478  0.064455 0.970702 1 0 1.000000
exhaust
0  -23.894047 97.090195 10.653221  -0.000029 0.866345 0.499446  0.085940 0.970702 1 0 1.000000
0  -23.894047 96.223061 11.534107  0.000000 0.447112 0.894478  0.064455 0.970702 1 0 1.000000
0  23.866508 96.223061 11.534103  -0.000026 0.446125 0.894971  0.064455 0.275369 1 0 1.000000
exhaust
0  23.866508 96.223061 11.534103  -0.000026 0.446125 0.894971  0.064455 0.275369 1 0 1.000000
0  23.866508 97.090195 10.653217  -0.000025 0.866246 0.499618  0.085940 0.275369 1 0 1.000000
0  -23.894047 97.090195 10.653221  -0.000029 0.866345 0.499446  0.085940 0.970702 1 0 1.000000
exhaust
0  -23.894047 97.392990 9.565877  0.000000 1.000000 0.000010  0.108402 0.970702 1 0 1.000000
0  -23.894047 97.090195 10.653221  -0.000029 0.866345 0.499446  0.085940 0.970702 1 0 1.000000
0  23.866508 97.090195 10.653217  -0.000025 0.866246 0.499618  0.085940 0.275369 1 0 1.000000
exhaust
0  23.866508 97.090195 10.653217  -0.000025 0.866246 0.499618  0.085940 0.275369 1 0 1.000000
0  23.866508 97.392990 9.565873  -0.000000 1.000000 -0.000010  0.108402 0.275369 1 0 1.000000
0  -23.894047 97.392990 9.565877  0.000000 1.000000 0.000010  0.108402 0.970702 1 0 1.000000
exhaust
0  -23.894049 97.090195 8.478533  -0.000029 0.866353 -0.499431  0.129887 0.970702 1 0 1.000000
0  -23.894047 97.392990 9.565877  0.000000 1.000000 0.000010  0.108402 0.970702 1 0 1.000000
0  23.866508 97.392990 9.565873  -0.000000 1.000000 -0.000010  0.108402 0.275369 1 0 1.000000
exhaust
0  23.866508 97.392990 9.565873  -0.000000 1.000000 -0.000010  0.108402 0.275369 1 0 1.000000
0  23.866507 97.090195 8.478529  -0.000019 0.866082 -0.499902  0.129887 0.275369 1 0 1.000000
0  -23.894049 97.090195 8.478533  -0.000029 0.866353 -0.499431  0.129887 0.970702 1 0 1.000000
exhaust
0  -23.894049 96.223061 7.597646  -0.000022 0.446315 -0.894876  0.152348 0.970702 1 0 1.000000
0  -23.894049 97.090195 8.478533  -0.000029 0.866353 -0.499431  0.129887 0.970702 1 0 1.000000
0  23.866507 97.090195 8.478529  -0.000019 0.866082 -0.499902  0.129887 0.275369 1 0 1.000000
exhaust
0  23.866507 97.090195 8.478529  -0.000019 0.866082 -0.499902  0.129887 0.275369 1 0 1.000000
0  23.866507 96.223061 7.597642  -0.000000 0.447112 -0.894478  0.152348 0.275369 1 0 1.000000
0  -23.894049 96.223061 7.597646  -0.000022 0.446315 -0.894876  0.152348 0.970702 1 0 1.000000
exhaust
0  -23.894047 92.644463 7.115912  -0.000000 0.000001 -1.000000  0.185553 0.970702 1 0 1.000000
0  -23.894049 96.223061 7.597646  -0.000022 0.446315 -0.894876  0.152348 0.970702 1 0 1.000000
0  23.866507 96.223061 7.597642  -0.000000 0.447112 -0.894478  0.152348 0.275369 1 0 1.000000
exhaust
0  23.866507 96.223061 7.597642  -0.000000 0.447112 -0.894478  0.152348 0.275369 1 0 1.000000
0  23.866508 92.644463 7.115908  -0.000000 -0.000001 -1.000000  0.185553 0.275369 1 0 1.000000
0  -23.894047 92.644463 7.115912  -0.000000 0.000001 -1.000000  0.185553 0.970702 1 0 1.000000
exhaust
0  -23.894047 89.065857 7.597646  -0.000000 -0.601048 -0.799213  0.156255 0.970702 1 0 1.000000
0  -23.894047 92.644463 7.115912  -0.000000 0.000001 -1.000000  0.185553 0.970702 1 0 1.000000
0  23.866508 92.644463 7.115908  -0.000000 -0.000001 -1.000000  0.185553 0.275369 1 0 1.000000
exhaust
0  23.866508 92.644463 7.115908  -0.000000 -0.000001 -1.000000  0.185553 0.275369 1 0 1.000000
0  23.866508 89.065857 7.597642  -0.000000 -0.601056 -0.799207  0.156255 0.275369 1 0 1.000000
0  -23.894047 89.065857 7.597646  -0.000000 -0.601048 -0.799213  0.156255 0.970702 1 0 1.000000
exhaust
0  -23.894047 88.198746 9.565877  0.000000 -1.000000 -0.000004  0.115238 0.970702 1 0 1.000000
0  -23.894047 89.065857 7.597646  -0.000000 -0.601048 -0.799213  0.156255 0.970702 1 0 1.000000
0  23.866508 89.065857 7.597642  -0.000000 -0.601056 -0.799207  0.156255 0.275369 1 0 1.000000
exhaust
0  23.866508 89.065857 7.597642  -0.000000 -0.601056 -0.799207  0.156255 0.275369 1 0 1.000000
0  23.866508 88.198746 9.565873  -0.000000 -1.000000 0.000004  0.115238 0.275369 1 0 1.000000
0  -23.894047 88.198746 9.565877  0.000000 -1.000000 -0.000004  0.115238 0.970702 1 0 1.000000
exhaust
0  23.866508 89.065857 7.597642  1.000000 0.000000 0.000000  0.851588 0.267556 1 0 1.000000
0  23.866508 92.644463 7.115908  1.000000 0.000000 -0.000000  0.593768 0.233375 1 0 1.000000
0  23.866508 92.644463 12.015838  1.000000 0.000000 0.000000  0.593768 0.570299 1 0 1.000000
exhaust
0  23.866508 89.065857 7.597642  1.000000 0.000000 0.000000  0.851588 0.267556 1 0 1.000000
0  23.866508 92.644463 12.015838  1.000000 0.000000 0.000000  0.593768 0.570299 1 0 1.000000
0  23.866508 89.065857 11.534103  1.000000 0.000000 0.000000  0.851588 0.537095 1 0 1.000000
exhaust
0  23.866508 89.065857 7.597642  1.000000 0.000000 0.000000  0.851588 0.267556 1 0 1.000000
0  23.866508 89.065857 11.534103  1.000000 0.000000 0.000000  0.851588 0.537095 1 0 1.000000
0  23.866508 88.198746 9.565873  1.000000 0.000000 0.000000  0.965850 0.402326 1 0 1.000000
exhaust
0  -23.894047 89.065857 11.534107  -1.000000 -0.000000 0.000000  0.851588 0.537095 1 0 1.000000
0  -23.894047 92.644463 12.015841  -1.000000 0.000000 0.000000  0.593768 0.570299 1 0 1.000000
0  -23.894047 92.644463 7.115912  -1.000000 -0.000000 0.000000  0.593768 0.233375 1 0 1.000000
exhaust
0  -23.894047 89.065857 11.534107  -1.000000 -0.000000 0.000000  0.851588 0.537095 1 0 1.000000
0  -23.894047 92.644463 7.115912  -1.000000 -0.000000 0.000000  0.593768 0.233375 1 0 1.000000
0  -23.894047 89.065857 7.597646  -1.000000 -0.000001 0.000000  0.851588 0.267556 1 0 1.000000
exhaust
0  -23.894047 89.065857 11.534107  -1.000000 -0.000000 0.000000  0.851588 0.537095 1 0 1.000000
0  -23.894047 89.065857 7.597646  -1.000000 -0.000001 0.000000  0.851588 0.267556 1 0 1.000000
0  -23.894047 88.198746 9.565877  -1.000000 -0.000002 0.000000  0.965850 0.402326 1 0 1.000000
exhaust
0  -23.894047 97.090195 10.653221  -1.000000 0.000000 0.000001  0.926786 0.476547 1 0 1.000000
0  -23.894047 97.392990 9.565877  -1.000000 0.000000 0.000001  0.967803 0.402326 1 0 1.000000
0  -23.894049 97.090195 8.478533  -1.000000 0.000000 0.000001  0.926786 0.327128 1 0 1.000000
exhaust
0  -23.894049 96.223061 7.597646  -1.000000 0.000000 0.000000  0.812525 0.267556 1 0 1.000000
0  -23.894047 92.644463 7.115912  -1.000000 -0.000000 0.000000  0.593768 0.233375 1 0 1.000000
0  -23.894047 92.644463 12.015841  -1.000000 0.000000 0.000000  0.593768 0.570299 1 0 1.000000
exhaust
0  -23.894049 96.223061 7.597646  -1.000000 0.000000 0.000000  0.812525 0.267556 1 0 1.000000
0  -23.894047 92.644463 12.015841  -1.000000 0.000000 0.000000  0.593768 0.570299 1 0 1.000000
0  -23.894047 96.223061 11.534107  -1.000000 0.000000 0.000001  0.812525 0.537095 1 0 1.000000
exhaust
0  -23.894049 97.090195 8.478533  -1.000000 0.000000 0.000001  0.926786 0.327128 1 0 1.000000
0  -23.894049 96.223061 7.597646  -1.000000 0.000000 0.000000  0.812525 0.267556 1 0 1.000000
0  -23.894047 96.223061 11.534107  -1.000000 0.000000 0.000001  0.812525 0.537095 1 0 1.000000
exhaust
0  -23.894047 97.090195 10.653221  -1.000000 0.000000 0.000001  0.926786 0.476547 1 0 1.000000
0  -23.894049 97.090195 8.478533  -1.000000 0.000000 0.000001  0.926786 0.327128 1 0 1.000000
0  -23.894047 96.223061 11.534107  -1.000000 0.000000 0.000001  0.812525 0.537095 1 0 1.000000
exhaust
0  23.866507 97.090195 8.478529  1.000000 0.000000 -0.000001  0.926786 0.327128 1 0 1.000000
0  23.866508 97.392990 9.565873  1.000000 0.000000 -0.000001  0.967803 0.402326 1 0 1.000000
0  23.866508 97.090195 10.653217  1.000000 0.000000 -0.000001  0.926786 0.476547 1 0 1.000000
exhaust
0  23.866508 96.223061 11.534103  1.000000 -0.000000 -0.000000  0.812525 0.537095 1 0 1.000000
0  23.866508 92.644463 12.015838  1.000000 0.000000 0.000000  0.593768 0.570299 1 0 1.000000
0  23.866508 92.644463 7.115908  1.000000 0.000000 -0.000000  0.593768 0.233375 1 0 1.000000
exhaust
0  23.866508 96.223061 11.534103  1.000000 -0.000000 -0.000000  0.812525 0.537095 1 0 1.000000
0  23.866508 92.644463 7.115908  1.000000 0.000000 -0.000000  0.593768 0.233375 1 0 1.000000
0  23.866507 96.223061 7.597642  1.000000 -0.000000 -0.000001  0.812525 0.267556 1 0 1.000000
exhaust
0  23.866508 97.090195 10.653217  1.000000 0.000000 -0.000001  0.926786 0.476547 1 0 1.000000
0  23.866508 96.223061 11.534103  1.000000 -0.000000 -0.000000  0.812525 0.537095 1 0 1.000000
0  23.866507 96.223061 7.597642  1.000000 -0.000000 -0.000001  0.812525 0.267556 1 0 1.000000
exhaust
0  23.866507 97.090195 8.478529  1.000000 0.000000 -0.000001  0.926786 0.327128 1 0 1.000000
0  23.866508 97.090195 10.653217  1.000000 0.000000 -0.000001  0.926786 0.476547 1 0 1.000000
0  23.866507 96.223061 7.597642  1.000000 -0.000000 -0.000001  0.812525 0.267556 1 0 1.000000
exhaust
0  18.498606 96.360710 11.492812  -0.000030 0.704687 0.709518  0.436537 0.498032 1 0 1.000000
0  22.875511 96.360710 11.492811  -0.000028 0.704689 0.709517  0.716819 0.498032 1 0 1.000000
0  23.329718 97.186539 10.680744  0.000000 0.873111 0.487521  0.746117 0.435530 1 0 1.000000
exhaust
0  23.329718 97.186539 10.680744  0.000000 0.873111 0.487521  0.746117 0.435530 1 0 1.000000
0  18.099455 97.186539 10.680745  -0.000025 0.871802 0.489859  0.410169 0.435530 1 0 1.000000
0  18.498606 96.360710 11.492812  -0.000030 0.704687 0.709518  0.436537 0.498032 1 0 1.000000
exhaust
0  23.329718 97.186539 10.680744  0.000000 0.873111 0.487521  0.746117 0.435530 1 0 1.000000
0  23.068205 97.475578 9.579637  -0.000027 0.997831 0.065831  0.728538 0.351543 1 0 1.000000
0  18.347204 97.475578 9.579638  -0.000028 0.997947 0.064049  0.425794 0.351543 1 0 1.000000
exhaust
0  18.347204 97.475578 9.579638  -0.000028 0.997947 0.064049  0.425794 0.351543 1 0 1.000000
0  18.099455 97.186539 10.680745  -0.000025 0.871802 0.489859  0.410169 0.435530 1 0 1.000000
0  23.329718 97.186539 10.680744  0.000000 0.873111 0.487521  0.746117 0.435530 1 0 1.000000
exhaust
0  23.068205 97.475578 9.579637  -0.000027 0.997831 0.065831  0.728538 0.351543 1 0 1.000000
0  22.531412 97.214066 8.602404  0.000000 0.966012 -0.258497  0.694357 0.277322 1 0 1.000000
0  18.870230 97.214066 8.602405  0.000000 0.966006 -0.258521  0.459975 0.277322 1 0 1.000000
exhaust
0  18.870230 97.214066 8.602405  0.000000 0.966006 -0.258521  0.459975 0.277322 1 0 1.000000
0  18.347204 97.475578 9.579638  -0.000028 0.997947 0.064049  0.425794 0.351543 1 0 1.000000
0  23.068205 97.475578 9.579637  -0.000027 0.997831 0.065831  0.728538 0.351543 1 0 1.000000
exhaust
0  -18.526146 96.360710 11.492814  -0.000029 0.704655 0.709550  0.436537 0.498032 1 0 1.000000
0  -18.126993 97.186539 10.680747  -0.000017 0.871672 0.490089  0.410169 0.435530 1 0 1.000000
0  -23.357256 97.186539 10.680748  -0.000028 0.873337 0.487116  0.746117 0.435530 1 0 1.000000
exhaust
0  -23.357256 97.186539 10.680748  -0.000028 0.873337 0.487116  0.746117 0.435530 1 0 1.000000
0  -22.903049 96.360710 11.492815  -0.000030 0.704722 0.709483  0.716819 0.498032 1 0 1.000000
0  -18.526146 96.360710 11.492814  -0.000029 0.704655 0.709550  0.436537 0.498032 1 0 1.000000
exhaust
0  -23.357256 97.186539 10.680748  -0.000028 0.873337 0.487116  0.746117 0.435530 1 0 1.000000
0  -18.126993 97.186539 10.680747  -0.000017 0.871672 0.490089  0.410169 0.435530 1 0 1.000000
0  -18.374744 97.475578 9.579639  -0.000027 0.997943 0.064102  0.425794 0.351543 1 0 1.000000
exhaust
0  -18.374744 97.475578 9.579639  -0.000027 0.997943 0.064102  0.425794 0.351543 1 0 1.000000
0  -23.095743 97.475578 9.579640  -0.000030 0.997817 0.066038  0.728538 0.351543 1 0 1.000000
0  -23.357256 97.186539 10.680748  -0.000028 0.873337 0.487116  0.746117 0.435530 1 0 1.000000
exhaust
0  -23.095743 97.475578 9.579640  -0.000030 0.997817 0.066038  0.728538 0.351543 1 0 1.000000
0  -18.374744 97.475578 9.579639  -0.000027 0.997943 0.064102  0.425794 0.351543 1 0 1.000000
0  -18.897772 97.214066 8.602407  -0.000045 0.966129 -0.258058  0.459975 0.277322 1 0 1.000000
exhaust
0  -18.897772 97.214066 8.602407  -0.000045 0.966129 -0.258058  0.459975 0.277322 1 0 1.000000
0  -22.558954 97.214066 8.602407  0.000000 0.966011 -0.258503  0.694357 0.277322 1 0 1.000000
0  -23.095743 97.475578 9.579640  -0.000030 0.997817 0.066038  0.728538 0.351543 1 0 1.000000
end
