version 1
nodes
0 "root" -1
end
skeleton
time 0
0 0 0 0 0 0 0
end
triangles
phy
0  19.822533 96.251137 20.591780  0.430115 0.642495 0.634193  0.498047 0.500000 0
0  20.185507 90.242577 26.943100  0.465688 0.655992 0.593977  0.498047 0.500000 0
0  30.632952 83.725548 25.949572  0.634136 0.530919 0.562136  0.498047 0.500000 0
phy
0  30.632952 83.725548 25.949572  0.634157 0.530889 0.562141  0.498047 0.500000 0
0  30.563559 89.747437 20.375227  0.616683 0.538576 0.574141  0.498047 0.500000 0
0  19.822533 96.251137 20.591780  0.430112 0.642492 0.634198  0.498047 0.500000 0
phy
0  30.632952 83.725548 25.949572  0.634144 0.530904 0.562141  0.503906 0.500000 0
0  33.996403 76.521248 25.762590  0.801445 0.361809 0.476214  0.503906 0.500000 0
0  35.301956 80.126488 20.826292  0.800438 0.387991 0.456904  0.503906 0.500000 0
phy
0  30.632952 83.725548 25.949572  0.634158 0.530901 0.562128  0.503906 0.500000 0
0  35.301956 80.126488 20.826292  0.800436 0.388028 0.456876  0.503906 0.500000 0
0  30.563559 89.747437 20.375227  0.616705 0.538569 0.574124  0.503906 0.500000 0
phy
0  33.596130 -73.380753 25.692329  0.207233 -0.602530 0.770722  0.503906 0.501953 0
0  29.577524 -71.354912 28.373631  0.206238 -0.606843 0.767599  0.503906 0.501953 0
0  26.085365 -73.209976 27.845335  0.222075 -0.598590 0.769658  0.503906 0.501953 0
phy
0  26.085365 -73.209976 27.845335  0.222117 -0.598579 0.769654  0.503906 0.501953 0
0  23.621574 -77.068611 25.650761  0.256279 -0.596310 0.760747  0.503906 0.501953 0
0  23.052532 -81.705269 22.208033  0.230853 -0.561939 0.794312  0.503906 0.501953 0
phy
0  23.052532 -81.705269 22.208033  0.230860 -0.561946 0.794305  0.503906 0.501953 0
0  27.506464 -83.392143 20.067596  0.217534 -0.493880 0.841880  0.503906 0.501953 0
0  32.243134 -80.567703 20.500614  0.214759 -0.562428 0.798469  0.503906 0.501953 0
phy
0  26.085365 -73.209976 27.845335  0.222089 -0.598566 0.769672  0.503906 0.501953 0
0  23.052532 -81.705269 22.208033  0.230859 -0.561939 0.794310  0.503906 0.501953 0
0  32.243134 -80.567703 20.500614  0.214753 -0.562412 0.798482  0.503906 0.501953 0
phy
0  33.596130 -73.380753 25.692329  0.207233 -0.602526 0.770725  0.503906 0.501953 0
0  26.085365 -73.209976 27.845335  0.222081 -0.598578 0.769665  0.503906 0.501953 0
0  32.243134 -80.567703 20.500614  0.214641 -0.562442 0.798491  0.503906 0.501953 0
phy
0  -19.822538 96.251114 20.591789  -0.430114 0.642493 0.634196  0.501953 0.500000 0
0  -30.563566 89.747398 20.375240  -0.616684 0.538577 0.574139  0.501953 0.500000 0
0  -30.632952 83.725533 25.949581  -0.634158 0.530889 0.562139  0.501953 0.500000 0
phy
0  -30.632952 83.725533 25.949581  -0.634137 0.530919 0.562134  0.501953 0.500000 0
0  -20.185513 90.242584 26.943110  -0.465690 0.655993 0.593975  0.501953 0.500000 0
0  -19.822538 96.251114 20.591789  -0.430117 0.642496 0.634191  0.501953 0.500000 0
phy
0  -30.632952 83.725533 25.949581  -0.634143 0.530903 0.562143  0.496094 0.500000 0
0  -35.301960 80.126480 20.826305  -0.800437 0.387990 0.456907  0.496094 0.500000 0
0  -33.996399 76.521233 25.762602  -0.801444 0.361808 0.476217  0.496094 0.500000 0
phy
0  -30.632952 83.725533 25.949581  -0.634158 0.530901 0.562127  0.496094 0.500000 0
0  -30.563566 89.747398 20.375240  -0.616705 0.538570 0.574123  0.496094 0.500000 0
0  -35.301960 80.126480 20.826305  -0.800438 0.387991 0.456904  0.496094 0.500000 0
phy
0  -26.085367 -73.209969 27.845345  -0.222116 -0.598568 0.769663  0.503906 0.498047 0
0  -29.577528 -71.354897 28.373644  -0.206238 -0.606844 0.767597  0.503906 0.498047 0
0  -33.596130 -73.380737 25.692341  -0.207233 -0.602532 0.770721  0.503906 0.498047 0
phy
0  -26.085367 -73.209969 27.845345  -0.222112 -0.598449 0.769756  0.503906 0.498047 0
0  -33.596130 -73.380737 25.692341  -0.207234 -0.602526 0.770725  0.503906 0.498047 0
0  -32.243134 -80.567696 20.500624  -0.214751 -0.562442 0.798462  0.503906 0.498047 0
phy
0  -32.243134 -80.567696 20.500624  -0.214757 -0.562426 0.798471  0.503906 0.498047 0
0  -27.506468 -83.392136 20.067604  -0.217532 -0.493878 0.841882  0.503906 0.498047 0
0  -23.052534 -81.705254 22.208040  -0.230858 -0.561944 0.794307  0.503906 0.498047 0
phy
0  -26.085367 -73.209969 27.845345  -0.222089 -0.598566 0.769672  0.503906 0.498047 0
0  -32.243134 -80.567696 20.500624  -0.214752 -0.562413 0.798482  0.503906 0.498047 0
0  -23.052534 -81.705254 22.208040  -0.230859 -0.561940 0.794309  0.503906 0.498047 0
phy
0  -26.085367 -73.209969 27.845345  -0.222119 -0.598578 0.769654  0.503906 0.498047 0
0  -23.052534 -81.705254 22.208040  -0.230855 -0.561938 0.794312  0.503906 0.498047 0
0  -23.621572 -77.068604 25.650766  -0.256281 -0.596309 0.760747  0.503906 0.498047 0
phy
0  21.504339 42.363911 44.646461  0.069641 0.313952 0.946881  0.498047 0.501953 0
0  21.930126 71.496277 34.851074  0.074492 0.316840 0.945549  0.496094 0.501953 0
0  0.000001 74.330658 35.629021  -0.000011 0.314708 0.949189  0.496094 0.500000 0
phy
0  0.000001 74.330658 35.629021  0.000016 0.314705 0.949189  0.496094 0.500000 0
0  0.000003 40.710415 46.657421  -0.000014 0.311685 0.950185  0.498047 0.500000 0
0  21.504339 42.363911 44.646461  0.069606 0.313932 0.946890  0.498047 0.501953 0
phy
0  0.000001 74.330658 35.629021  0.000011 0.314708 0.949188  0.496094 0.500000 0
0  -21.930119 71.496262 34.851074  -0.074493 0.316841 0.945549  0.496094 0.498047 0
0  -21.504333 42.363926 44.646469  -0.069601 0.313929 0.946892  0.498047 0.498047 0
phy
0  -21.504333 42.363926 44.646469  -0.069606 0.313932 0.946890  0.498047 0.498047 0
0  0.000003 40.710415 46.657421  0.000015 0.311685 0.950185  0.498047 0.500000 0
0  0.000001 74.330658 35.629021  -0.000015 0.314706 0.949189  0.496094 0.500000 0
phy
0  -24.101423 -5.032784 46.691124  -0.340517 -0.360667 0.868313  0.500000 0.498047 0
0  -32.358376 -30.142685 31.384981  -0.573263 -0.280726 0.769781  0.501953 0.498047 0
0  -29.954960 -34.025471 31.758844  -0.453513 -0.334013 0.826294  0.501953 0.498047 0
phy
0  23.601501 -38.029099 32.380806  0.174164 -0.395713 0.901708  0.501953 0.501953 0
0  29.954967 -34.025475 31.758837  0.453525 -0.334007 0.826290  0.501953 0.501953 0
0  24.101416 -5.032795 46.691124  0.340514 -0.360685 0.868307  0.500000 0.501953 0
phy
0  -0.000004 -6.455885 48.750961  0.000013 -0.401671 0.915784  0.500000 0.500000 0
0  -24.101423 -5.032784 46.691124  -0.340530 -0.360666 0.868309  0.500000 0.498047 0
0  -23.601475 -38.029099 32.380814  -0.174168 -0.395718 0.901705  0.501953 0.498047 0
phy
0  -0.000004 -6.455885 48.750961  -0.000002 -0.401676 0.915782  0.500000 0.500000 0
0  -23.601475 -38.029099 32.380814  -0.174152 -0.395725 0.901706  0.501953 0.498047 0
0  0.000006 -41.815079 33.127338  -0.000011 -0.404154 0.914691  0.501953 0.500000 0
phy
0  -0.000004 -6.455885 48.750961  0.000002 -0.401676 0.915782  0.500000 0.500000 0
0  0.000006 -41.815079 33.127338  0.000011 -0.404154 0.914691  0.501953 0.500000 0
0  23.601501 -38.029099 32.380806  0.174152 -0.395724 0.901706  0.501953 0.501953 0
phy
0  -0.000004 -6.455885 48.750961  -0.000013 -0.401672 0.915784  0.500000 0.500000 0
0  23.601501 -38.029099 32.380806  0.174168 -0.395718 0.901705  0.501953 0.501953 0
0  24.101416 -5.032795 46.691124  0.340530 -0.360666 0.868309  0.500000 0.501953 0
phy
0  29.954967 -34.025475 31.758837  0.453514 -0.334014 0.826293  0.501953 0.501953 0
0  32.358353 -30.142704 31.384991  0.573264 -0.280725 0.769781  0.501953 0.501953 0
0  24.101416 -5.032795 46.691124  0.340519 -0.360666 0.868313  0.500000 0.501953 0
phy
0  26.412262 55.062782 36.995346  0.890329 0.101841 0.443782  0.501953 0.500000 0
0  25.555897 42.058479 42.073711  0.956469 0.049339 0.287632  0.501953 0.501953 0
0  25.511923 16.121830 46.668938  0.914233 0.069312 0.399216  0.500000 0.501953 0
phy
0  27.213562 -3.228449 44.884312  0.914053 0.044705 0.403125  0.500000 0.501953 0
0  33.474220 -24.234653 31.002186  0.924483 0.024101 0.380461  0.498047 0.500000 0
0  31.994555 24.595240 31.504442  0.908452 0.043799 0.415689  0.501953 0.500000 0
phy
0  27.213562 -3.228449 44.884312  0.914042 0.044722 0.403146  0.500000 0.501953 0
0  31.994555 24.595240 31.504442  0.908431 0.043818 0.415732  0.501953 0.500000 0
0  29.333004 52.496143 32.838970  0.879739 0.091201 0.466629  0.501953 0.500000 0
phy
0  25.511923 16.121830 46.668938  0.914225 0.069327 0.399232  0.500000 0.501953 0
0  27.213562 -3.228449 44.884312  0.914044 0.044708 0.403142  0.500000 0.501953 0
0  29.333004 52.496143 32.838970  0.879738 0.091188 0.466631  0.501953 0.500000 0
phy
0  26.412262 55.062782 36.995346  0.890328 0.101856 0.443782  0.501953 0.500000 0
0  25.511923 16.121830 46.668938  0.914226 0.069336 0.399229  0.500000 0.501953 0
0  29.333004 52.496143 32.838970  0.879745 0.091192 0.466619  0.501953 0.500000 0
phy
0  26.412262 55.062782 36.995346  0.890330 0.101852 0.443777  0.501953 0.500000 0
0  29.333004 52.496143 32.838970  0.879739 0.091197 0.466629  0.501953 0.500000 0
0  28.161123 55.962040 33.821548  0.849155 0.142977 0.508422  0.501953 0.500000 0
phy
0  -25.511915 16.121828 46.668941  -0.914233 0.069311 0.399216  0.500000 0.501953 0
0  -25.555891 42.058468 42.073727  -0.956469 0.049338 0.287632  0.498047 0.501953 0
0  -26.412258 55.062759 36.995358  -0.890331 0.101872 0.443772  0.498047 0.500000 0
phy
0  -26.412258 55.062759 36.995358  -0.890330 0.101852 0.443778  0.498047 0.500000 0
0  -28.161121 55.962021 33.821556  -0.849155 0.142978 0.508422  0.498047 0.500000 0
0  -29.333002 52.496120 32.838982  -0.836112 0.071905 0.543826  0.498047 0.500000 0
phy
0  -25.511915 16.121828 46.668941  -0.914226 0.069336 0.399229  0.500000 0.501953 0
0  -26.412258 55.062759 36.995358  -0.890328 0.101856 0.443781  0.498047 0.500000 0
0  -29.333002 52.496120 32.838982  -0.836112 0.071897 0.543827  0.498047 0.500000 0
phy
0  -29.333002 52.496120 32.838982  -0.836093 0.071935 0.543851  0.498047 0.500000 0
0  -31.994556 24.595234 31.504456  -0.499640 0.006230 0.866211  0.498047 0.500000 0
0  -33.474213 -24.234652 31.002199  -0.760120 0.025460 0.649284  0.501953 0.500000 0
phy
0  -29.333002 52.496120 32.838982  -0.836123 0.071877 0.543812  0.498047 0.500000 0
0  -33.474213 -24.234652 31.002199  -0.760114 0.025498 0.649289  0.501953 0.500000 0
0  -27.213554 -3.228454 44.884319  -0.928915 0.044141 0.367654  0.500000 0.501953 0
phy
0  -25.511915 16.121828 46.668941  -0.914225 0.069327 0.399233  0.500000 0.501953 0
0  -29.333002 52.496120 32.838982  -0.836098 0.071888 0.543850  0.498047 0.500000 0
0  -27.213554 -3.228454 44.884319  -0.928914 0.044142 0.367656  0.500000 0.501953 0
phy
0  -24.101423 -5.032784 46.691124  -0.340514 -0.360685 0.868307  0.500000 0.498047 0
0  -29.954960 -34.025471 31.758844  -0.453525 -0.334007 0.826290  0.501953 0.498047 0
0  -23.601475 -38.029099 32.380814  -0.174164 -0.395713 0.901708  0.501953 0.498047 0
phy
0  32.427353 -87.026375 0.297383  -0.007770 -0.050516 -0.998693  0.066406 0.898438 0
0  23.852354 -93.436615 0.729290  -0.055242 0.006624 -0.998451  0.033203 0.792969 0
0  16.978607 -96.430862 1.089732  -0.019325 -0.052368 -0.998441  0.019531 0.708984 0
phy
0  32.427353 -87.026375 0.297383  -0.007758 -0.050520 -0.998693  0.066406 0.898438 0
0  16.978607 -96.430862 1.089732  -0.019308 -0.052405 -0.998439  0.019531 0.708984 0
0  -0.000005 -98.981651 1.089734  -0.003563 -0.119312 -0.992850  0.005859 0.500000 0
phy
0  -0.000005 -98.981651 1.089734  -0.003553 -0.119316 -0.992850  0.005859 0.500000 0
0  -16.978615 -96.430847 1.089740  -0.027142 -0.180658 -0.983171  0.019531 0.291016 0
0  -23.852360 -93.436592 0.729300  -0.009120 -0.104693 -0.994463  0.033203 0.207031 0
phy
0  32.427353 -87.026375 0.297383  -0.007751 -0.050530 -0.998692  0.066406 0.898438 0
0  -0.000005 -98.981651 1.089734  -0.003545 -0.119325 -0.992849  0.005859 0.500000 0
0  -23.852360 -93.436592 0.729300  -0.009123 -0.104657 -0.994466  0.033203 0.207031 0
phy
0  32.427353 -87.026375 0.297383  -0.007763 -0.050508 -0.998693  0.066406 0.898438 0
0  -23.852360 -93.436592 0.729300  -0.009122 -0.104675 -0.994465  0.033203 0.207031 0
0  -32.427361 -87.026367 0.297398  -0.000002 -0.032371 -0.999476  0.066406 0.101562 0
phy
0  28.061525 91.907379 1.284309  0.010504 0.043226 -0.999010  0.970703 0.845703 0
0  33.336128 82.452682 0.370659  -0.000001 0.114445 -0.993430  0.923828 0.910156 0
0  -33.336143 82.452675 0.370674  -0.004342 0.084857 -0.996384  0.923828 0.089844 0
phy
0  -28.061541 91.907356 1.284320  -0.024435 0.070603 -0.997205  0.970703 0.154297 0
0  -17.892036 95.268227 1.199076  -0.017498 0.027597 -0.999466  0.988281 0.279297 0
0  -0.000007 96.454353 0.918579  -0.004352 0.043655 -0.999037  0.994141 0.500000 0
phy
0  -33.336143 82.452675 0.370674  -0.004336 0.084857 -0.996384  0.923828 0.089844 0
0  -28.061541 91.907356 1.284320  -0.024431 0.070567 -0.997208  0.970703 0.154297 0
0  -0.000007 96.454353 0.918579  -0.004336 0.043660 -0.999037  0.994141 0.500000 0
phy
0  28.061525 91.907379 1.284309  0.010499 0.043255 -0.999009  0.970703 0.845703 0
0  -33.336143 82.452675 0.370674  -0.004341 0.084859 -0.996383  0.923828 0.089844 0
0  -0.000007 96.454353 0.918579  -0.004344 0.043671 -0.999037  0.994141 0.500000 0
phy
0  28.061525 91.907379 1.284309  0.010492 0.043257 -0.999009  0.970703 0.845703 0
0  -0.000007 96.454353 0.918579  -0.004354 0.043674 -0.999036  0.994141 0.500000 0
0  17.892021 95.268227 1.199068  0.017498 0.027597 -0.999466  0.988281 0.720703 0
phy
0  33.336128 82.452682 0.370659  -0.000000 0.114463 -0.993428  0.923828 0.910156 0
0  37.314835 70.299278 -1.142537  0.000002 0.056487 -0.998403  0.861328 0.958984 0
0  -37.314850 70.299263 -1.142520  -0.000003 0.056487 -0.998403  0.861328 0.041016 0
phy
0  -37.314850 70.299263 -1.142520  -0.000004 0.056487 -0.998403  0.861328 0.041016 0
0  -33.336143 82.452675 0.370674  -0.004344 0.084843 -0.996385  0.923828 0.089844 0
0  33.336128 82.452682 0.370659  0.000001 0.114463 -0.993427  0.923828 0.910156 0
phy
0  37.593143 -67.704185 0.350556  0.000001 0.008899 -0.999960  0.164062 0.962891 0
0  36.650459 -75.546066 0.125829  0.000001 -0.000401 -1.000000  0.125000 0.951172 0
0  -36.650475 -75.546059 0.125846  0.000001 0.014124 -0.999900  0.125000 0.048828 0
phy
0  37.593143 -67.704185 0.350556  -0.000000 0.008899 -0.999960  0.164062 0.962891 0
0  -36.650475 -75.546059 0.125846  -0.000001 0.014123 -0.999900  0.125000 0.048828 0
0  -37.593159 -67.704178 0.350573  -0.000000 0.008899 -0.999960  0.164062 0.037109 0
phy
0  37.593143 -67.704185 0.350556  0.000001 0.008932 -0.999960  0.164062 0.962891 0
0  -37.593159 -67.704178 0.350573  0.000040 0.008932 -0.999960  0.164062 0.037109 0
0  -37.314850 70.299263 -1.142520  -0.000005 0.056504 -0.998402  0.861328 0.041016 0
phy
0  37.593143 -67.704185 0.350556  -0.000002 0.008884 -0.999961  0.164062 0.962891 0
0  -37.314850 70.299263 -1.142520  -0.000003 0.056504 -0.998402  0.861328 0.041016 0
0  37.314835 70.299278 -1.142537  -0.000000 0.056504 -0.998402  0.861328 0.958984 0
phy
0  36.650459 -75.546066 0.125829  -0.000001 -0.000417 -1.000000  0.125000 0.951172 0
0  32.427353 -87.026375 0.297383  -0.007755 -0.050518 -0.998693  0.066406 0.898438 0
0  -32.427361 -87.026367 0.297398  0.000001 -0.032386 -0.999475  0.066406 0.101562 0
phy
0  -32.427361 -87.026367 0.297398  0.000001 -0.032386 -0.999475  0.066406 0.101562 0
0  -36.650475 -75.546059 0.125846  0.000001 0.014108 -0.999901  0.125000 0.048828 0
0  36.650459 -75.546066 0.125829  -0.000001 -0.000417 -1.000000  0.125000 0.951172 0
phy
0  21.930126 71.496277 34.851074  0.510038 0.332418 0.793322  0.373047 0.257812 0
0  28.161123 55.962040 33.821548  0.790107 0.217480 0.573091  0.335938 0.318359 0
0  29.877748 55.451309 31.727211  0.699790 0.147434 0.698968  0.326172 0.320312 0
phy
0  21.930126 71.496277 34.851074  0.510006 0.332460 0.793325  0.373047 0.257812 0
0  29.877748 55.451309 31.727211  0.699790 0.147447 0.698966  0.326172 0.320312 0
0  23.667410 82.869881 29.051628  0.444570 0.255000 0.858681  0.363281 0.214844 0
phy
0  21.930126 71.496277 34.851074  0.510002 0.332432 0.793339  0.373047 0.257812 0
0  23.667410 82.869881 29.051628  0.444556 0.255027 0.858680  0.363281 0.214844 0
0  20.185507 90.242577 26.943100  0.177658 0.547578 0.817677  0.382812 0.185547 0
phy
0  31.994555 24.595240 31.504442  0.724765 0.022711 0.688622  0.304688 0.441406 0
0  33.474220 -24.234653 31.002186  0.736545 -0.119461 0.665756  0.302734 0.628906 0
0  36.612015 -39.405766 26.471201  0.802026 -0.041736 0.595829  0.275391 0.689453 0
phy
0  31.994555 24.595240 31.504442  0.724783 0.022725 0.688602  0.304688 0.441406 0
0  36.612015 -39.405766 26.471201  0.802030 -0.041752 0.595822  0.275391 0.689453 0
0  37.478176 54.955986 27.330702  0.650267 0.086358 0.754782  0.281250 0.322266 0
phy
0  31.994555 24.595240 31.504442  0.724792 0.022702 0.688594  0.304688 0.441406 0
0  37.478176 54.955986 27.330702  0.650265 0.086355 0.754784  0.281250 0.322266 0
0  29.877748 55.451309 31.727211  0.699790 0.147461 0.698963  0.306641 0.320312 0
phy
0  41.008442 57.410343 16.911404  0.993466 0.097151 0.059896  0.220703 0.312500 0
0  37.982014 -67.704185 17.861794  0.977493 -0.092112 0.189799  0.226562 0.798828 0
0  37.593143 -67.704185 0.350556  0.993655 -0.063304 -0.092966  0.125000 0.798828 0
phy
0  37.593143 -67.704185 0.350556  0.993653 -0.063316 -0.092973  0.125000 0.798828 0
0  39.014587 70.043793 5.747620  0.986357 0.129241 -0.101964  0.156250 0.263672 0
0  41.008442 57.410343 16.911404  0.993463 0.097168 0.059917  0.220703 0.312500 0
phy
0  23.667410 82.869881 29.051628  0.444543 0.255024 0.858688  0.291016 0.214844 0
0  33.996403 76.521248 25.762590  0.664346 0.177984 0.725924  0.271484 0.238281 0
0  30.632952 83.725548 25.949572  0.361428 0.280920 0.889075  0.273438 0.210938 0
phy
0  30.632952 83.725548 25.949572  0.361437 0.280908 0.889075  0.273438 0.210938 0
0  20.185507 90.242577 26.943100  0.177651 0.547572 0.817683  0.279297 0.185547 0
0  23.667410 82.869881 29.051628  0.444536 0.255032 0.858689  0.291016 0.214844 0
phy
0  40.357082 56.884865 21.871592  0.943211 0.091802 0.319257  0.250000 0.314453 0
0  35.301956 80.126488 20.826292  0.917149 0.298681 0.263871  0.244141 0.224609 0
0  33.996403 76.521248 25.762590  0.664358 0.177961 0.725919  0.271484 0.238281 0
phy
0  33.996403 76.521248 25.762590  0.664345 0.177962 0.725931  0.271484 0.238281 0
0  37.478176 54.955986 27.330702  0.650269 0.086360 0.754780  0.281250 0.322266 0
0  40.357082 56.884865 21.871592  0.943199 0.091805 0.319293  0.250000 0.314453 0
phy
0  36.628281 -75.546074 16.646883  0.937861 -0.281164 0.203381  0.218750 0.828125 0
0  36.650459 -75.546066 0.125829  0.960928 -0.276747 0.005370  0.123047 0.828125 0
0  37.593143 -67.704185 0.350556  0.993653 -0.063314 -0.092976  0.125000 0.798828 0
phy
0  37.593143 -67.704185 0.350556  0.993655 -0.063287 -0.092980  0.125000 0.798828 0
0  37.982014 -67.704185 17.861794  0.977498 -0.092114 0.189771  0.226562 0.798828 0
0  36.628281 -75.546074 16.646883  0.937859 -0.281173 0.203374  0.218750 0.828125 0
phy
0  32.358353 -30.142704 31.384991  0.551108 -0.102043 0.828171  0.312500 0.652344 0
0  29.954967 -34.025475 31.758837  0.299417 -0.093915 0.949489  0.326172 0.667969 0
0  29.700809 -41.777519 31.072220  0.030805 -0.085147 0.995892  0.328125 0.697266 0
phy
0  29.700809 -41.777519 31.072220  0.030802 -0.085146 0.995892  0.328125 0.697266 0
0  26.085365 -73.209976 27.845335  -0.360332 -0.073900 0.929892  0.347656 0.820312 0
0  29.577524 -71.354912 28.373631  0.442406 -0.092874 0.891993  0.328125 0.812500 0
phy
0  32.358353 -30.142704 31.384991  0.551142 -0.102060 0.828146  0.312500 0.652344 0
0  29.700809 -41.777519 31.072220  0.030792 -0.085142 0.995893  0.328125 0.697266 0
0  29.577524 -71.354912 28.373631  0.442404 -0.092905 0.891991  0.328125 0.812500 0
phy
0  32.358353 -30.142704 31.384991  0.551120 -0.102041 0.828163  0.312500 0.652344 0
0  29.577524 -71.354912 28.373631  0.442382 -0.092873 0.892005  0.328125 0.812500 0
0  33.474220 -24.234653 31.002186  0.736538 -0.119470 0.665762  0.304688 0.628906 0
phy
0  39.014587 70.043793 5.747620  0.986358 0.129240 -0.101955  0.156250 0.263672 0
0  34.898163 82.939766 6.600429  0.908926 0.415131 -0.038971  0.160156 0.214844 0
0  36.166698 80.381599 16.828257  0.943881 0.317370 0.091463  0.220703 0.224609 0
phy
0  36.166698 80.381599 16.828257  0.943886 0.317357 0.091453  0.220703 0.224609 0
0  41.008442 57.410343 16.911404  0.993464 0.097165 0.059908  0.220703 0.312500 0
0  39.014587 70.043793 5.747620  0.986360 0.129214 -0.101963  0.156250 0.263672 0
phy
0  37.314835 70.299278 -1.142537  0.917822 0.319670 -0.235403  0.115234 0.263672 0
0  33.336128 82.452682 0.370659  0.863306 0.438682 -0.249520  0.125000 0.216797 0
0  34.898163 82.939766 6.600429  0.893783 0.378564 -0.240500  0.160156 0.214844 0
phy
0  34.898163 82.939766 6.600429  0.893792 0.378549 -0.240493  0.160156 0.214844 0
0  39.014587 70.043793 5.747620  0.925724 0.309835 -0.216880  0.156250 0.263672 0
0  37.314835 70.299278 -1.142537  0.917830 0.319659 -0.235383  0.115234 0.263672 0
phy
0  30.132627 92.815346 17.455355  0.770149 0.637467 -0.022501  0.224609 0.175781 0
0  36.166698 80.381599 16.828257  0.948004 0.318219 0.005058  0.220703 0.224609 0
0  34.898163 82.939766 6.600429  0.908926 0.415130 -0.038990  0.160156 0.214844 0
phy
0  34.898163 82.939766 6.600429  0.908918 0.415150 -0.038968  0.160156 0.214844 0
0  28.840250 93.577499 7.301445  0.576682 0.814945 -0.057456  0.164062 0.173828 0
0  30.132627 92.815346 17.455355  0.770155 0.637459 -0.022514  0.224609 0.175781 0
phy
0  33.336128 82.452682 0.370659  0.863309 0.438680 -0.249515  0.125000 0.216797 0
0  28.061525 91.907379 1.284309  0.512184 0.804193 -0.301565  0.130859 0.179688 0
0  28.840250 93.577499 7.301445  0.698949 0.660251 -0.274844  0.164062 0.173828 0
phy
0  28.840250 93.577499 7.301445  0.698935 0.660258 -0.274864  0.164062 0.173828 0
0  34.898163 82.939766 6.600429  0.893785 0.378568 -0.240489  0.160156 0.214844 0
0  33.336128 82.452682 0.370659  0.863310 0.438675 -0.249519  0.125000 0.216797 0
phy
0  -0.000006 98.600822 7.472160  0.022704 0.951033 -0.308254  0.500000 0.056641 0
0  18.900776 97.178795 7.457821  0.232420 0.922781 -0.307338  0.390625 0.056641 0
0  17.892021 95.268227 1.199068  0.147097 0.938124 -0.313505  0.396484 0.033203 0
phy
0  17.892021 95.268227 1.199068  0.147076 0.938131 -0.313495  0.396484 0.033203 0
0  -0.000007 96.454353 0.918579  -0.023774 0.951065 -0.308074  0.500000 0.031250 0
0  -0.000006 98.600822 7.472160  0.022721 0.951033 -0.308254  0.500000 0.056641 0
phy
0  -0.000004 99.800186 17.323536  0.024869 0.993782 -0.108529  0.500000 0.095703 0
0  19.835907 97.938667 17.534473  0.296156 0.953311 -0.059067  0.384766 0.095703 0
0  18.900776 97.178795 7.457821  0.169904 0.980088 -0.102760  0.390625 0.056641 0
phy
0  18.900776 97.178795 7.457821  0.169913 0.980087 -0.102760  0.390625 0.056641 0
0  -0.000006 98.600822 7.472160  -0.031554 0.993662 -0.107889  0.500000 0.056641 0
0  -0.000004 99.800186 17.323536  0.024869 0.993783 -0.108521  0.500000 0.095703 0
phy
0  19.835907 97.938667 17.534473  0.296154 0.953312 -0.059070  0.384766 0.095703 0
0  30.132627 92.815346 17.455355  0.770149 0.637466 -0.022520  0.324219 0.095703 0
0  28.840250 93.577499 7.301445  0.576714 0.814923 -0.057458  0.332031 0.056641 0
phy
0  28.840250 93.577499 7.301445  0.576689 0.814941 -0.057444  0.332031 0.056641 0
0  18.900776 97.178795 7.457821  0.169896 0.980088 -0.102777  0.390625 0.056641 0
0  19.835907 97.938667 17.534473  0.296144 0.953315 -0.059071  0.384766 0.095703 0
phy
0  19.822533 96.251137 20.591780  0.250737 0.780998 0.571991  0.384766 0.107422 0
0  30.563559 89.747437 20.375227  0.653838 0.567815 0.500083  0.322266 0.107422 0
0  30.132627 92.815346 17.455355  0.669099 0.608180 0.427111  0.324219 0.095703 0
phy
0  30.132627 92.815346 17.455355  0.669072 0.608191 0.427138  0.324219 0.095703 0
0  19.835907 97.938667 17.534473  0.194377 0.872689 0.447918  0.384766 0.095703 0
0  19.822533 96.251137 20.591780  0.250757 0.780977 0.572010  0.384766 0.107422 0
phy
0  30.132627 92.815346 17.455355  0.669103 0.608177 0.427108  0.224609 0.175781 0
0  30.563559 89.747437 20.375227  0.653819 0.567809 0.500114  0.240234 0.187500 0
0  35.301956 80.126488 20.826292  0.917144 0.298685 0.263882  0.244141 0.224609 0
phy
0  35.301956 80.126488 20.826292  0.917149 0.298689 0.263863  0.244141 0.224609 0
0  36.166698 80.381599 16.828257  0.951343 0.285957 0.114784  0.220703 0.224609 0
0  30.132627 92.815346 17.455355  0.669094 0.608171 0.427131  0.224609 0.175781 0
phy
0  36.612015 -39.405766 26.471201  0.802028 -0.041749 0.595825  0.275391 0.689453 0
0  33.474220 -24.234653 31.002186  0.736561 -0.119449 0.665740  0.302734 0.628906 0
0  29.577524 -71.354912 28.373631  0.442364 -0.092903 0.892011  0.287109 0.812500 0
phy
0  29.577524 -71.354912 28.373631  0.442375 -0.092899 0.892006  0.287109 0.812500 0
0  33.596130 -73.380753 25.692329  0.824518 -0.207755 0.526316  0.271484 0.820312 0
0  36.612015 -39.405766 26.471201  0.802028 -0.041770 0.595824  0.275391 0.689453 0
phy
0  -0.000002 -97.958374 15.854997  0.049907 -0.995853 0.076061  0.500000 0.910156 0
0  -0.000005 -98.981651 1.089734  -0.055826 -0.995539 0.076059  0.500000 0.968750 0
0  16.978607 -96.430862 1.089732  0.240282 -0.967355 0.080554  0.400391 0.968750 0
phy
0  16.978607 -96.430862 1.089732  0.240279 -0.967356 0.080552  0.400391 0.968750 0
0  16.978611 -95.093842 15.854959  0.307167 -0.948592 0.076296  0.400391 0.910156 0
0  -0.000002 -97.958374 15.854997  0.049887 -0.995855 0.076054  0.500000 0.910156 0
phy
0  16.978611 -95.093842 15.854959  0.307155 -0.948596 0.076293  0.400391 0.910156 0
0  16.978607 -96.430862 1.089732  0.240259 -0.967361 0.080544  0.400391 0.968750 0
0  23.852354 -93.436615 0.729290  0.453556 -0.889022 0.062661  0.361328 0.968750 0
phy
0  23.852354 -93.436615 0.729290  0.453576 -0.889012 0.062659  0.361328 0.968750 0
0  23.852358 -92.530067 15.854933  0.513819 -0.856687 0.045593  0.361328 0.910156 0
0  16.978611 -95.093842 15.854959  0.307153 -0.948597 0.076294  0.400391 0.910156 0
phy
0  32.427353 -86.421638 15.821680  0.508399 -0.504330 0.697984  0.310547 0.910156 0
0  32.243134 -80.567703 20.500614  0.673343 -0.480858 0.561591  0.312500 0.892578 0
0  27.506464 -83.392143 20.067596  0.292174 -0.528454 0.797101  0.339844 0.894531 0
phy
0  27.506464 -83.392143 20.067596  0.292178 -0.528442 0.797108  0.339844 0.894531 0
0  23.852358 -92.530067 15.854933  0.265122 -0.505822 0.820886  0.361328 0.910156 0
0  32.427353 -86.421638 15.821680  0.508420 -0.504318 0.697977  0.310547 0.910156 0
phy
0  32.243134 -80.567703 20.500614  0.673347 -0.480851 0.561592  0.242188 0.847656 0
0  32.427353 -86.421638 15.821680  0.508395 -0.504310 0.698002  0.214844 0.871094 0
0  36.628281 -75.546074 16.646883  0.933398 -0.263171 0.243943  0.218750 0.828125 0
phy
0  36.628281 -75.546074 16.646883  0.933409 -0.263154 0.243921  0.218750 0.828125 0
0  33.596130 -73.380753 25.692329  0.824525 -0.207797 0.526287  0.271484 0.820312 0
0  32.243134 -80.567703 20.500614  0.673345 -0.480856 0.561590  0.242188 0.847656 0
phy
0  20.690273 -78.553177 23.758671  -0.217421 -0.358059 0.908032  0.378906 0.839844 0
0  23.621574 -77.068611 25.650761  -0.463459 -0.250587 0.849948  0.363281 0.833984 0
0  25.093563 -60.927704 28.195543  -0.490235 -0.072156 0.868599  0.353516 0.771484 0
phy
0  23.052532 -81.705269 22.208033  0.096656 -0.481231 0.871249  0.365234 0.851562 0
0  23.621574 -77.068611 25.650761  -0.463423 -0.250570 0.849973  0.363281 0.833984 0
0  20.690273 -78.553177 23.758671  -0.217417 -0.358051 0.908036  0.378906 0.839844 0
phy
0  20.690273 -78.553177 23.758671  -0.217411 -0.358065 0.908032  0.378906 0.839844 0
0  15.941650 -89.310272 20.128830  0.172501 -0.497458 0.850164  0.408203 0.882812 0
0  23.052532 -81.705269 22.208033  0.096647 -0.481237 0.871246  0.365234 0.851562 0
phy
0  16.978611 -95.093842 15.854959  0.134038 -0.572352 0.808979  0.400391 0.910156 0
0  15.941650 -89.310272 20.128830  0.172492 -0.497450 0.850171  0.408203 0.894531 0
0  0.000038 -92.036163 20.072645  0.032761 -0.580757 0.813418  0.500000 0.894531 0
phy
0  0.000038 -92.036163 20.072645  0.032755 -0.580762 0.813414  0.500000 0.894531 0
0  -0.000002 -97.958374 15.854997  -0.032245 -0.580716 0.813468  0.500000 0.910156 0
0  16.978611 -95.093842 15.854959  0.134037 -0.572355 0.808977  0.400391 0.910156 0
phy
0  19.835907 97.938667 17.534473  0.194368 0.872690 0.447922  0.384766 0.095703 0
0  -0.000004 99.800186 17.323536  -0.030959 0.902369 0.429852  0.500000 0.095703 0
0  -0.000003 98.395920 20.515192  0.011132 0.818638 0.574202  0.500000 0.107422 0
phy
0  -0.000003 98.395920 20.515192  0.011119 0.818628 0.574217  0.500000 0.107422 0
0  19.822533 96.251137 20.591780  0.250748 0.780977 0.572014  0.384766 0.107422 0
0  19.835907 97.938667 17.534473  0.194386 0.872684 0.447925  0.384766 0.095703 0
phy
0  32.427353 -86.421638 15.821680  0.849845 -0.526787 0.016085  0.214844 0.871094 0
0  32.427353 -87.026375 0.297383  0.733950 -0.678439 0.032225  0.125000 0.873047 0
0  36.650459 -75.546066 0.125829  0.960928 -0.276748 0.005383  0.123047 0.828125 0
phy
0  36.650459 -75.546066 0.125829  0.960930 -0.276738 0.005375  0.123047 0.828125 0
0  36.628281 -75.546074 16.646883  0.976199 -0.216780 -0.006472  0.218750 0.828125 0
0  32.427353 -86.421638 15.821680  0.849848 -0.526782 0.016101  0.214844 0.871094 0
phy
0  18.900776 97.178795 7.457821  0.232428 0.922777 -0.307343  0.390625 0.056641 0
0  28.840250 93.577499 7.301445  0.698958 0.660245 -0.274837  0.332031 0.056641 0
0  28.061525 91.907379 1.284309  0.512144 0.804209 -0.301589  0.335938 0.033203 0
phy
0  28.061525 91.907379 1.284309  0.512184 0.804180 -0.301599  0.335938 0.033203 0
0  17.892021 95.268227 1.199068  0.147080 0.938129 -0.313498  0.396484 0.033203 0
0  18.900776 97.178795 7.457821  0.232430 0.922773 -0.307353  0.390625 0.056641 0
phy
0  37.478176 54.955986 27.330702  0.650268 0.086344 0.754782  0.281250 0.322266 0
0  33.996403 76.521248 25.762590  0.664372 0.177977 0.725902  0.271484 0.238281 0
0  23.667410 82.869881 29.051628  0.444553 0.254998 0.858690  0.291016 0.214844 0
phy
0  23.667410 82.869881 29.051628  0.444544 0.255024 0.858687  0.291016 0.214844 0
0  29.877748 55.451309 31.727211  0.699778 0.147462 0.698974  0.306641 0.320312 0
0  37.478176 54.955986 27.330702  0.650253 0.086383 0.754791  0.281250 0.322266 0
phy
0  37.982014 -67.704185 17.861794  0.977494 -0.092118 0.189786  0.226562 0.798828 0
0  33.596130 -73.380753 25.692329  0.824524 -0.207782 0.526296  0.271484 0.820312 0
0  36.628281 -75.546074 16.646883  0.933403 -0.263168 0.243930  0.218750 0.828125 0
phy
0  26.085365 -73.209976 27.845335  -0.360334 -0.073883 0.929893  0.347656 0.820312 0
0  29.700809 -41.777519 31.072220  0.030775 -0.085142 0.995893  0.328125 0.697266 0
0  25.093563 -60.927704 28.195543  -0.490253 -0.072162 0.868588  0.353516 0.771484 0
phy
0  25.093563 -60.927704 28.195543  -0.490257 -0.072163 0.868585  0.353516 0.771484 0
0  23.621574 -77.068611 25.650761  -0.463452 -0.250558 0.849960  0.363281 0.833984 0
0  26.085365 -73.209976 27.845335  -0.360309 -0.073879 0.929903  0.347656 0.820312 0
phy
0  29.333004 52.496143 32.838970  0.808082 0.071037 0.584771  0.330078 0.332031 0
0  31.994555 24.595240 31.504442  0.724780 0.022722 0.688605  0.314453 0.441406 0
0  29.877748 55.451309 31.727211  0.699791 0.147438 0.698967  0.326172 0.320312 0
phy
0  29.877748 55.451309 31.727211  0.699774 0.147455 0.698980  0.326172 0.320312 0
0  28.161123 55.962040 33.821548  0.790106 0.217463 0.573098  0.335938 0.318359 0
0  29.333004 52.496143 32.838970  0.808085 0.071037 0.584767  0.330078 0.332031 0
phy
0  32.427353 -87.026375 0.297383  0.733953 -0.678435 0.032242  0.310547 0.970703 0
0  32.427353 -86.421638 15.821680  0.849848 -0.526783 0.016078  0.310547 0.910156 0
0  23.852358 -92.530067 15.854933  0.513830 -0.856679 0.045609  0.361328 0.910156 0
phy
0  23.852358 -92.530067 15.854933  0.513839 -0.856674 0.045599  0.361328 0.910156 0
0  23.852354 -93.436615 0.729290  0.453556 -0.889022 0.062657  0.361328 0.968750 0
0  32.427353 -87.026375 0.297383  0.733953 -0.678434 0.032236  0.310547 0.970703 0
phy
0  40.357082 56.884865 21.871592  0.943208 0.091834 0.319258  0.250000 0.314453 0
0  37.478176 54.955986 27.330702  0.650267 0.086360 0.754781  0.281250 0.322266 0
0  36.612015 -39.405766 26.471201  0.802002 -0.041751 0.595860  0.275391 0.689453 0
phy
0  40.357082 56.884865 21.871592  0.943201 0.091821 0.319281  0.250000 0.314453 0
0  36.612015 -39.405766 26.471201  0.802009 -0.041733 0.595853  0.275391 0.689453 0
0  37.982014 -67.704185 17.861794  0.977497 -0.092104 0.189782  0.226562 0.798828 0
phy
0  40.357082 56.884865 21.871592  0.943207 0.091799 0.319271  0.250000 0.314453 0
0  37.982014 -67.704185 17.861794  0.977502 -0.092105 0.189755  0.226562 0.798828 0
0  41.008442 57.410343 16.911404  0.993465 0.097142 0.059923  0.220703 0.312500 0
phy
0  37.982014 -67.704185 17.861794  0.977497 -0.092112 0.189777  0.226562 0.798828 0
0  36.612015 -39.405766 26.471201  0.802002 -0.041750 0.595860  0.275391 0.689453 0
0  33.596130 -73.380753 25.692329  0.824512 -0.207785 0.526313  0.271484 0.820312 0
phy
0  23.852358 -92.530067 15.854933  0.265149 -0.505838 0.820868  0.361328 0.910156 0
0  27.506464 -83.392143 20.067596  0.292162 -0.528444 0.797112  0.339844 0.894531 0
0  23.052532 -81.705269 22.208033  0.096647 -0.481212 0.871260  0.365234 0.886719 0
phy
0  23.852358 -92.530067 15.854933  0.265132 -0.505846 0.820868  0.361328 0.910156 0
0  23.052532 -81.705269 22.208033  0.096665 -0.481216 0.871256  0.365234 0.886719 0
0  15.941650 -89.310272 20.128830  0.172494 -0.497442 0.850175  0.408203 0.894531 0
phy
0  23.852358 -92.530067 15.854933  0.265144 -0.505816 0.820883  0.361328 0.910156 0
0  15.941650 -89.310272 20.128830  0.172496 -0.497450 0.850170  0.408203 0.894531 0
0  16.978611 -95.093842 15.854959  0.134050 -0.572351 0.808978  0.400391 0.910156 0
phy
0  39.014587 70.043793 5.747620  0.986360 0.129209 -0.101978  0.156250 0.263672 0
0  37.593143 -67.704185 0.350556  0.993656 -0.063310 -0.092947  0.125000 0.798828 0
0  37.314835 70.299278 -1.142537  0.970888 -0.000634 -0.239535  0.115234 0.263672 0
phy
0  35.301956 80.126488 20.826292  0.917150 0.298681 0.263867  0.244141 0.224609 0
0  40.357082 56.884865 21.871592  0.943202 0.091809 0.319282  0.250000 0.314453 0
0  41.008442 57.410343 16.911404  0.993466 0.097144 0.059908  0.220703 0.312500 0
phy
0  41.008442 57.410343 16.911404  0.993465 0.097159 0.059894  0.220703 0.312500 0
0  36.166698 80.381599 16.828257  0.951343 0.285949 0.114799  0.220703 0.224609 0
0  35.301956 80.126488 20.826292  0.917146 0.298691 0.263868  0.244141 0.224609 0
phy
0  -21.930119 71.496262 34.851074  -0.567906 0.313002 0.761257  0.626953 0.257812 0
0  -20.185513 90.242584 26.943110  -0.162506 0.527609 0.833799  0.617188 0.185547 0
0  -23.667416 82.869881 29.051638  -0.437122 0.276879 0.855723  0.636719 0.214844 0
phy
0  -21.930119 71.496262 34.851074  -0.567894 0.312984 0.761274  0.626953 0.257812 0
0  -23.667416 82.869881 29.051638  -0.437128 0.276864 0.855725  0.636719 0.214844 0
0  -29.877745 55.451290 31.727219  -0.661369 0.145397 0.735834  0.673828 0.320312 0
phy
0  -21.930119 71.496262 34.851074  -0.567905 0.312993 0.761262  0.626953 0.257812 0
0  -29.877745 55.451290 31.727219  -0.661364 0.145402 0.735837  0.673828 0.320312 0
0  -28.161121 55.962021 33.821556  -0.790104 0.217480 0.573095  0.664062 0.318359 0
phy
0  -31.994556 24.595234 31.504456  -0.724792 0.022702 0.688594  0.695312 0.441406 0
0  -29.877745 55.451290 31.727219  -0.661392 0.145398 0.735813  0.693359 0.320312 0
0  -37.478176 54.955963 27.330717  -0.743457 0.091008 0.662563  0.718750 0.322266 0
phy
0  -31.994556 24.595234 31.504456  -0.724783 0.022725 0.688602  0.695312 0.441406 0
0  -37.478176 54.955963 27.330717  -0.743470 0.090971 0.662553  0.718750 0.322266 0
0  -36.612022 -39.405769 26.471214  -0.802002 -0.041745 0.595861  0.724609 0.689453 0
phy
0  -31.994556 24.595234 31.504456  -0.724795 0.022710 0.688590  0.695312 0.441406 0
0  -36.612022 -39.405769 26.471214  -0.802024 -0.041737 0.595832  0.724609 0.689453 0
0  -33.474213 -24.234652 31.002199  -0.736543 -0.119461 0.665758  0.697266 0.628906 0
phy
0  -41.008457 57.410343 16.911421  -0.993516 0.110173 0.028064  0.779297 0.312500 0
0  -39.014603 70.043785 5.747638  -0.991243 0.098071 -0.088424  0.843750 0.263672 0
0  -37.593159 -67.704178 0.350573  -0.992512 -0.036908 -0.116441  0.875000 0.798828 0
phy
0  -37.593159 -67.704178 0.350573  -0.992514 -0.036916 -0.116420  0.875000 0.798828 0
0  -37.982021 -67.704178 17.861811  -0.981914 -0.096726 0.162753  0.773438 0.798828 0
0  -41.008457 57.410343 16.911421  -0.993514 0.110185 0.028079  0.779297 0.312500 0
phy
0  -23.667416 82.869881 29.051638  -0.437102 0.276879 0.855733  0.708984 0.214844 0
0  -20.185513 90.242584 26.943110  -0.162522 0.527606 0.833798  0.720703 0.185547 0
0  -30.632952 83.725533 25.949581  -0.361438 0.280909 0.889074  0.726562 0.210938 0
phy
0  -30.632952 83.725533 25.949581  -0.361428 0.280920 0.889075  0.726562 0.210938 0
0  -33.996399 76.521233 25.762602  -0.578189 0.171420 0.797692  0.728516 0.238281 0
0  -23.667416 82.869881 29.051638  -0.437117 0.276884 0.855724  0.708984 0.214844 0
phy
0  -35.301960 80.126480 20.826305  -0.896289 0.292338 0.333474  0.755859 0.224609 0
0  -40.357086 56.884853 21.871613  -0.951922 0.095877 0.290952  0.750000 0.314453 0
0  -37.478176 54.955963 27.330717  -0.743462 0.090999 0.662558  0.718750 0.322266 0
phy
0  -37.478176 54.955963 27.330717  -0.743474 0.090995 0.662545  0.718750 0.322266 0
0  -33.996399 76.521233 25.762602  -0.578190 0.171405 0.797695  0.728516 0.238281 0
0  -35.301960 80.126480 20.826305  -0.896289 0.292354 0.333459  0.755859 0.224609 0
phy
0  -36.650475 -75.546059 0.125846  -0.977145 -0.212473 -0.006515  0.876953 0.828125 0
0  -36.628281 -75.546059 16.646896  -0.943175 -0.295447 0.152091  0.781250 0.828125 0
0  -37.982021 -67.704178 17.861811  -0.981914 -0.096695 0.162771  0.773438 0.798828 0
phy
0  -37.982021 -67.704178 17.861811  -0.981918 -0.096712 0.162742  0.773438 0.798828 0
0  -37.593159 -67.704178 0.350573  -0.992511 -0.036923 -0.116442  0.875000 0.798828 0
0  -36.650475 -75.546059 0.125846  -0.977143 -0.212482 -0.006524  0.876953 0.828125 0
phy
0  -29.700804 -41.777515 31.072227  -0.030809 -0.085147 0.995892  0.671875 0.697266 0
0  -29.954960 -34.025471 31.758844  -0.299421 -0.093915 0.949488  0.673828 0.667969 0
0  -32.358376 -30.142685 31.384981  -0.551111 -0.102043 0.828169  0.687500 0.652344 0
phy
0  -32.358376 -30.142685 31.384981  -0.551120 -0.102041 0.828163  0.687500 0.652344 0
0  -33.474213 -24.234652 31.002199  -0.736535 -0.119468 0.665765  0.695312 0.628906 0
0  -29.577528 -71.354897 28.373644  -0.442382 -0.092875 0.892005  0.671875 0.812500 0
phy
0  -29.700804 -41.777515 31.072227  -0.030792 -0.085142 0.995893  0.671875 0.697266 0
0  -32.358376 -30.142685 31.384981  -0.551142 -0.102060 0.828146  0.687500 0.652344 0
0  -29.577528 -71.354897 28.373644  -0.442404 -0.092904 0.891991  0.671875 0.812500 0
phy
0  -29.700804 -41.777515 31.072227  -0.030801 -0.085146 0.995892  0.671875 0.697266 0
0  -29.577528 -71.354897 28.373644  -0.442405 -0.092873 0.891993  0.671875 0.812500 0
0  -26.085367 -73.209969 27.845345  0.360333 -0.073900 0.929892  0.652344 0.820312 0
phy
0  -34.898178 82.939758 6.600443  -0.941768 0.334341 0.035909  0.839844 0.214844 0
0  -39.014603 70.043785 5.747638  -0.991244 0.098060 -0.088425  0.843750 0.263672 0
0  -41.008457 57.410343 16.911421  -0.993515 0.110177 0.028078  0.779297 0.312500 0
phy
0  -41.008457 57.410343 16.911421  -0.993516 0.110174 0.028056  0.779297 0.312500 0
0  -36.166706 80.381592 16.828268  -0.939131 0.334957 0.076396  0.779297 0.224609 0
0  -34.898178 82.939758 6.600443  -0.941778 0.334311 0.035916  0.839844 0.214844 0
phy
0  -33.336143 82.452675 0.370674  -0.894445 0.377389 -0.239887  0.875000 0.216797 0
0  -37.314850 70.299263 -1.142520  -0.919966 0.327916 -0.214790  0.884766 0.263672 0
0  -39.014603 70.043785 5.747638  -0.918409 0.318689 -0.234440  0.843750 0.263672 0
phy
0  -39.014603 70.043785 5.747638  -0.918411 0.318694 -0.234426  0.843750 0.263672 0
0  -34.898178 82.939758 6.600443  -0.866353 0.432394 -0.249935  0.839844 0.214844 0
0  -33.336143 82.452675 0.370674  -0.894448 0.377385 -0.239884  0.875000 0.216797 0
phy
0  -36.166706 80.381592 16.828268  -0.922584 0.383111 -0.045440  0.779297 0.224609 0
0  -30.132637 92.815323 17.455362  -0.593729 0.802621 -0.057318  0.775391 0.175781 0
0  -28.840265 93.577484 7.301457  -0.747200 0.664461 -0.013530  0.835938 0.173828 0
phy
0  -28.840265 93.577484 7.301457  -0.747186 0.664478 -0.013520  0.835938 0.173828 0
0  -34.898178 82.939758 6.600443  -0.941774 0.334323 0.035924  0.839844 0.214844 0
0  -36.166706 80.381592 16.828268  -0.922596 0.383084 -0.045426  0.779297 0.224609 0
phy
0  -28.061541 91.907356 1.284320  -0.694298 0.664805 -0.275655  0.869141 0.179688 0
0  -33.336143 82.452675 0.370674  -0.894451 0.377376 -0.239884  0.875000 0.216797 0
0  -34.898178 82.939758 6.600443  -0.866367 0.432364 -0.249940  0.839844 0.214844 0
phy
0  -34.898178 82.939758 6.600443  -0.866371 0.432360 -0.249935  0.839844 0.214844 0
0  -28.840265 93.577484 7.301457  -0.511330 0.804675 -0.301728  0.835938 0.173828 0
0  -28.061541 91.907356 1.284320  -0.694302 0.664794 -0.275669  0.869141 0.179688 0
phy
0  -18.900793 97.178802 7.457829  -0.153383 0.936959 -0.313976  0.609375 0.056641 0
0  -0.000006 98.600822 7.472160  0.022716 0.951034 -0.308252  0.500000 0.056641 0
0  -0.000007 96.454353 0.918579  -0.023745 0.951066 -0.308074  0.500000 0.031250 0
phy
0  -0.000007 96.454353 0.918579  -0.023769 0.951066 -0.308072  0.500000 0.031250 0
0  -17.892036 95.268227 1.199076  -0.230959 0.923142 -0.307355  0.603516 0.033203 0
0  -18.900793 97.178802 7.457829  -0.153338 0.936967 -0.313975  0.609375 0.056641 0
phy
0  -19.835915 97.938652 17.534481  -0.206886 0.972704 -0.105099  0.615234 0.095703 0
0  -0.000004 99.800186 17.323536  0.024895 0.993782 -0.108526  0.500000 0.095703 0
0  -0.000006 98.600822 7.472160  -0.031538 0.993662 -0.107890  0.500000 0.056641 0
phy
0  -0.000006 98.600822 7.472160  -0.031566 0.993662 -0.107884  0.500000 0.056641 0
0  -18.900793 97.178802 7.457829  -0.290221 0.955371 -0.055113  0.609375 0.056641 0
0  -19.835915 97.938652 17.534481  -0.206882 0.972705 -0.105090  0.615234 0.095703 0
phy
0  -30.132637 92.815323 17.455362  -0.593732 0.802617 -0.057348  0.675781 0.095703 0
0  -19.835915 97.938652 17.534481  -0.206897 0.972703 -0.105087  0.615234 0.095703 0
0  -18.900793 97.178802 7.457829  -0.290214 0.955374 -0.055100  0.609375 0.056641 0
phy
0  -18.900793 97.178802 7.457829  -0.290199 0.955378 -0.055119  0.609375 0.056641 0
0  -28.840265 93.577484 7.301457  -0.747201 0.664459 -0.013555  0.667969 0.056641 0
0  -30.132637 92.815323 17.455362  -0.593749 0.802604 -0.057345  0.675781 0.095703 0
phy
0  -30.563566 89.747398 20.375240  -0.576898 0.652293 0.491632  0.677734 0.107422 0
0  -19.822538 96.251114 20.591789  -0.185460 0.839810 0.510220  0.615234 0.107422 0
0  -19.835915 97.938652 17.534481  -0.303808 0.789194 0.533736  0.615234 0.095703 0
phy
0  -19.835915 97.938652 17.534481  -0.303803 0.789200 0.533729  0.615234 0.095703 0
0  -30.132637 92.815323 17.455362  -0.729029 0.536918 0.424542  0.675781 0.095703 0
0  -30.563566 89.747398 20.375240  -0.576883 0.652303 0.491637  0.677734 0.107422 0
phy
0  -30.132637 92.815323 17.455362  -0.729013 0.536929 0.424556  0.775391 0.175781 0
0  -36.166706 80.381592 16.828268  -0.955611 0.264121 0.130565  0.779297 0.224609 0
0  -35.301960 80.126480 20.826305  -0.896281 0.292351 0.333483  0.755859 0.224609 0
phy
0  -35.301960 80.126480 20.826305  -0.896288 0.292347 0.333469  0.755859 0.224609 0
0  -30.563566 89.747398 20.375240  -0.576920 0.652278 0.491626  0.759766 0.187500 0
0  -30.132637 92.815323 17.455362  -0.729025 0.536935 0.424527  0.775391 0.175781 0
phy
0  -36.612022 -39.405769 26.471214  -0.802028 -0.041770 0.595824  0.724609 0.689453 0
0  -33.596130 -73.380737 25.692341  -0.747893 -0.286475 0.598823  0.728516 0.820312 0
0  -29.577528 -71.354897 28.373644  -0.442374 -0.092899 0.892006  0.712891 0.812500 0
phy
0  -29.577528 -71.354897 28.373644  -0.442408 -0.092904 0.891989  0.712891 0.812500 0
0  -33.474213 -24.234652 31.002199  -0.736561 -0.119448 0.665740  0.697266 0.628906 0
0  -36.612022 -39.405769 26.471214  -0.802028 -0.041748 0.595825  0.724609 0.689453 0
phy
0  -0.000005 -98.981651 1.089734  -0.055820 -0.995540 0.076053  0.500000 0.968750 0
0  -0.000002 -97.958374 15.854997  0.049894 -0.995854 0.076065  0.500000 0.910156 0
0  -16.978615 -95.093826 15.854964  -0.221700 -0.971746 0.080993  0.599609 0.910156 0
phy
0  -16.978615 -95.093826 15.854964  -0.221697 -0.971746 0.081001  0.599609 0.910156 0
0  -16.978615 -96.430847 1.089740  -0.301108 -0.950502 0.076684  0.599609 0.968750 0
0  -0.000005 -98.981651 1.089734  -0.055823 -0.995540 0.076049  0.500000 0.968750 0
phy
0  -16.978615 -96.430847 1.089740  -0.301102 -0.950504 0.076682  0.599609 0.968750 0
0  -16.978615 -95.093826 15.854964  -0.221720 -0.971740 0.080999  0.599609 0.910156 0
0  -23.852364 -92.530060 15.854944  -0.445863 -0.892874 0.063096  0.638672 0.910156 0
phy
0  -23.852364 -92.530060 15.854944  -0.445870 -0.892871 0.063104  0.638672 0.910156 0
0  -23.852360 -93.436592 0.729300  -0.529599 -0.847046 0.045140  0.638672 0.968750 0
0  -16.978615 -96.430847 1.089740  -0.301106 -0.950503 0.076678  0.599609 0.968750 0
phy
0  -32.427357 -86.421631 15.821697  -0.465258 -0.540429 0.701050  0.689453 0.910156 0
0  -23.852364 -92.530060 15.854944  -0.265122 -0.505822 0.820887  0.638672 0.910156 0
0  -27.506468 -83.392136 20.067604  -0.292177 -0.528442 0.797108  0.660156 0.894531 0
phy
0  -27.506468 -83.392136 20.067604  -0.292175 -0.528452 0.797103  0.660156 0.894531 0
0  -32.243134 -80.567696 20.500624  -0.274915 -0.595000 0.755246  0.687500 0.892578 0
0  -32.427357 -86.421631 15.821697  -0.465256 -0.540436 0.701047  0.689453 0.910156 0
phy
0  -32.427357 -86.421631 15.821697  -0.465285 -0.540426 0.701034  0.785156 0.871094 0
0  -32.243134 -80.567696 20.500624  -0.274897 -0.595003 0.755250  0.757812 0.847656 0
0  -33.596130 -73.380737 25.692341  -0.747883 -0.286438 0.598852  0.728516 0.820312 0
phy
0  -33.596130 -73.380737 25.692341  -0.747904 -0.286461 0.598816  0.728516 0.820312 0
0  -36.628281 -75.546059 16.646896  -0.935357 -0.252044 0.248157  0.781250 0.828125 0
0  -32.427357 -86.421631 15.821697  -0.465291 -0.540413 0.701041  0.785156 0.871094 0
phy
0  -20.690262 -78.553169 23.758675  0.217421 -0.358060 0.908032  0.621094 0.839844 0
0  -25.093555 -60.927696 28.195551  0.490266 -0.072185 0.868578  0.646484 0.771484 0
0  -23.621572 -77.068604 25.650766  0.463458 -0.250587 0.849948  0.636719 0.833984 0
phy
0  -23.052534 -81.705254 22.208040  -0.096645 -0.481237 0.871247  0.634766 0.851562 0
0  -15.941651 -89.310265 20.128839  -0.157567 -0.514048 0.843165  0.591797 0.882812 0
0  -20.690262 -78.553169 23.758675  0.217412 -0.358065 0.908032  0.621094 0.839844 0
phy
0  -20.690262 -78.553169 23.758675  0.217416 -0.358051 0.908036  0.621094 0.839844 0
0  -23.621572 -77.068604 25.650766  0.463469 -0.250598 0.849939  0.636719 0.833984 0
0  -23.052534 -81.705254 22.208040  -0.096656 -0.481230 0.871249  0.634766 0.851562 0
phy
0  -15.941651 -89.310265 20.128839  -0.157560 -0.514027 0.843179  0.591797 0.894531 0
0  -16.978615 -95.093826 15.854964  -0.153064 -0.569407 0.807680  0.599609 0.910156 0
0  -0.000002 -97.958374 15.854997  -0.032235 -0.580711 0.813472  0.500000 0.910156 0
phy
0  -0.000002 -97.958374 15.854997  -0.032223 -0.580712 0.813471  0.500000 0.910156 0
0  0.000038 -92.036163 20.072645  0.032774 -0.580768 0.813409  0.500000 0.894531 0
0  -15.941651 -89.310265 20.128839  -0.157545 -0.514054 0.843165  0.591797 0.894531 0
phy
0  -0.000004 99.800186 17.323536  -0.030939 0.902371 0.429849  0.500000 0.095703 0
0  -19.835915 97.938652 17.534481  -0.303780 0.789199 0.533744  0.615234 0.095703 0
0  -19.822538 96.251114 20.591789  -0.185500 0.839796 0.510229  0.615234 0.107422 0
phy
0  -19.822538 96.251114 20.591789  -0.185487 0.839792 0.510240  0.615234 0.107422 0
0  -0.000003 98.395920 20.515192  0.011127 0.818628 0.574217  0.500000 0.107422 0
0  -0.000004 99.800186 17.323536  -0.030929 0.902363 0.429866  0.500000 0.095703 0
phy
0  -32.427361 -87.026367 0.297398  -0.853708 -0.520504 0.016058  0.875000 0.873047 0
0  -32.427357 -86.421631 15.821697  -0.730024 -0.682649 0.032472  0.785156 0.871094 0
0  -36.628281 -75.546059 16.646896  -0.955964 -0.293430 0.005579  0.781250 0.828125 0
phy
0  -36.628281 -75.546059 16.646896  -0.955968 -0.293417 0.005575  0.781250 0.828125 0
0  -36.650475 -75.546059 0.125846  -0.977146 -0.212467 -0.006518  0.876953 0.828125 0
0  -32.427361 -87.026367 0.297398  -0.853687 -0.520539 0.016057  0.875000 0.873047 0
phy
0  -28.840265 93.577484 7.301457  -0.511356 0.804651 -0.301747  0.667969 0.056641 0
0  -18.900793 97.178802 7.457829  -0.153352 0.936965 -0.313975  0.609375 0.056641 0
0  -17.892036 95.268227 1.199076  -0.230945 0.923144 -0.307360  0.603516 0.033203 0
phy
0  -17.892036 95.268227 1.199076  -0.230949 0.923143 -0.307360  0.603516 0.033203 0
0  -28.061541 91.907356 1.284320  -0.694297 0.664812 -0.275638  0.664062 0.033203 0
0  -28.840265 93.577484 7.301457  -0.511330 0.804675 -0.301728  0.667969 0.056641 0
phy
0  -33.996399 76.521233 25.762602  -0.578210 0.171425 0.797676  0.728516 0.238281 0
0  -37.478176 54.955963 27.330717  -0.743472 0.090984 0.662549  0.718750 0.322266 0
0  -29.877745 55.451290 31.727219  -0.661383 0.145406 0.735819  0.693359 0.320312 0
phy
0  -29.877745 55.451290 31.727219  -0.661362 0.145408 0.735838  0.693359 0.320312 0
0  -23.667416 82.869881 29.051638  -0.437104 0.276869 0.855736  0.708984 0.214844 0
0  -33.996399 76.521233 25.762602  -0.578185 0.171427 0.797693  0.728516 0.238281 0
phy
0  -37.982021 -67.704178 17.861811  -0.981912 -0.096728 0.162765  0.773438 0.798828 0
0  -36.628281 -75.546059 16.646896  -0.935350 -0.252050 0.248175  0.781250 0.828125 0
0  -33.596130 -73.380737 25.692341  -0.747899 -0.286483 0.598811  0.728516 0.820312 0
phy
0  -26.085367 -73.209969 27.845345  0.360310 -0.073879 0.929902  0.652344 0.820312 0
0  -23.621572 -77.068604 25.650766  0.463453 -0.250559 0.849960  0.636719 0.833984 0
0  -25.093555 -60.927696 28.195551  0.490257 -0.072163 0.868585  0.646484 0.771484 0
phy
0  -25.093555 -60.927696 28.195551  0.490252 -0.072162 0.868588  0.646484 0.771484 0
0  -29.700804 -41.777515 31.072227  -0.030776 -0.085141 0.995893  0.671875 0.697266 0
0  -26.085367 -73.209969 27.845345  0.360333 -0.073883 0.929893  0.652344 0.820312 0
phy
0  -29.333002 52.496120 32.838982  -0.808083 0.071038 0.584770  0.669922 0.332031 0
0  -28.161121 55.962021 33.821556  -0.790105 0.217464 0.573100  0.664062 0.318359 0
0  -29.877745 55.451290 31.727219  -0.661381 0.145400 0.735822  0.673828 0.320312 0
phy
0  -29.877745 55.451290 31.727219  -0.661393 0.145387 0.735814  0.673828 0.320312 0
0  -31.994556 24.595234 31.504456  -0.724781 0.022722 0.688605  0.685547 0.441406 0
0  -29.333002 52.496120 32.838982  -0.808082 0.071038 0.584771  0.669922 0.332031 0
phy
0  -32.427357 -86.421631 15.821697  -0.730021 -0.682652 0.032487  0.689453 0.910156 0
0  -32.427361 -87.026367 0.297398  -0.853692 -0.520531 0.016047  0.689453 0.970703 0
0  -23.852360 -93.436592 0.729300  -0.529592 -0.847050 0.045148  0.638672 0.968750 0
phy
0  -23.852360 -93.436592 0.729300  -0.529597 -0.847048 0.045145  0.638672 0.968750 0
0  -23.852364 -92.530060 15.854944  -0.445890 -0.892861 0.063090  0.638672 0.910156 0
0  -32.427357 -86.421631 15.821697  -0.730020 -0.682653 0.032499  0.689453 0.910156 0
phy
0  -40.357086 56.884853 21.871613  -0.951928 0.095850 0.290939  0.750000 0.314453 0
0  -41.008457 57.410343 16.911421  -0.993515 0.110180 0.028060  0.779297 0.312500 0
0  -37.982021 -67.704178 17.861811  -0.981916 -0.096709 0.162755  0.773438 0.798828 0
phy
0  -40.357086 56.884853 21.871613  -0.951930 0.095859 0.290928  0.750000 0.314453 0
0  -37.982021 -67.704178 17.861811  -0.981916 -0.096723 0.162741  0.773438 0.798828 0
0  -36.612022 -39.405769 26.471214  -0.802009 -0.041733 0.595853  0.724609 0.689453 0
phy
0  -40.357086 56.884853 21.871613  -0.951927 0.095888 0.290931  0.750000 0.314453 0
0  -36.612022 -39.405769 26.471214  -0.802002 -0.041752 0.595861  0.724609 0.689453 0
0  -37.478176 54.955963 27.330717  -0.743483 0.090995 0.662535  0.718750 0.322266 0
phy
0  -37.982021 -67.704178 17.861811  -0.981916 -0.096735 0.162736  0.773438 0.798828 0
0  -33.596130 -73.380737 25.692341  -0.747882 -0.286456 0.598845  0.728516 0.820312 0
0  -36.612022 -39.405769 26.471214  -0.802002 -0.041750 0.595861  0.724609 0.689453 0
phy
0  -23.852364 -92.530060 15.854944  -0.265143 -0.505818 0.820882  0.638672 0.910156 0
0  -16.978615 -95.093826 15.854964  -0.153027 -0.569413 0.807682  0.599609 0.910156 0
0  -15.941651 -89.310265 20.128839  -0.157557 -0.514036 0.843174  0.591797 0.894531 0
phy
0  -23.852364 -92.530060 15.854944  -0.265132 -0.505845 0.820869  0.638672 0.910156 0
0  -15.941651 -89.310265 20.128839  -0.157577 -0.514030 0.843174  0.591797 0.894531 0
0  -23.052534 -81.705254 22.208040  -0.096665 -0.481214 0.871257  0.634766 0.886719 0
phy
0  -23.852364 -92.530060 15.854944  -0.265149 -0.505838 0.820868  0.638672 0.910156 0
0  -23.052534 -81.705254 22.208040  -0.096646 -0.481230 0.871250  0.634766 0.886719 0
0  -27.506468 -83.392136 20.067604  -0.292162 -0.528444 0.797112  0.660156 0.894531 0
phy
0  -39.014603 70.043785 5.747638  -0.991241 0.098082 -0.088440  0.843750 0.263672 0
0  -37.314850 70.299263 -1.142520  -0.970888 -0.000634 -0.239535  0.884766 0.263672 0
0  -37.593159 -67.704178 0.350573  -0.992513 -0.036930 -0.116426  0.875000 0.798828 0
phy
0  -40.357086 56.884853 21.871613  -0.951927 0.095869 0.290938  0.750000 0.314453 0
0  -35.301960 80.126480 20.826305  -0.896282 0.292362 0.333470  0.755859 0.224609 0
0  -36.166706 80.381592 16.828268  -0.955613 0.264115 0.130562  0.779297 0.224609 0
phy
0  -36.166706 80.381592 16.828268  -0.955617 0.264100 0.130566  0.779297 0.224609 0
0  -41.008457 57.410343 16.911421  -0.993515 0.110178 0.028073  0.779297 0.312500 0
0  -40.357086 56.884853 21.871613  -0.951927 0.095866 0.290938  0.750000 0.314453 0
phy
0  25.093563 -60.927704 28.195543  0.066170 -0.203070 0.976926  0.353516 0.771484 0
0  23.601501 -38.029099 32.380806  0.106154 -0.146940 0.983433  0.363281 0.683594 0
0  0.000006 -41.815079 33.127338  0.010627 -0.195349 0.980676  0.500000 0.697266 0
phy
0  0.000006 -41.815079 33.127338  0.010611 -0.195357 0.980675  0.500000 0.697266 0
0  0.000005 -73.715919 26.446003  0.000087 -0.263113 0.964765  0.500000 0.822266 0
0  25.093563 -60.927704 28.195543  0.066185 -0.203088 0.976921  0.353516 0.771484 0
phy
0  0.000005 -73.715919 26.446003  0.000080 -0.263124 0.964762  0.500000 0.822266 0
0  20.690273 -78.553177 23.758671  0.054132 -0.297924 0.953054  0.378906 0.839844 0
0  25.093563 -60.927704 28.195543  0.066178 -0.203090 0.976921  0.353516 0.771484 0
phy
0  -23.601475 -38.029099 32.380814  -0.086359 -0.162183 0.982974  0.636719 0.683594 0
0  -29.954960 -34.025471 31.758844  -0.154392 -0.092190 0.983699  0.673828 0.667969 0
0  -29.700804 -41.777515 31.072227  -0.129495 -0.132352 0.982708  0.671875 0.697266 0
phy
0  -29.700804 -41.777515 31.072227  -0.129489 -0.132368 0.982706  0.671875 0.697266 0
0  -25.093555 -60.927696 28.195551  -0.063831 -0.203404 0.977012  0.646484 0.771484 0
0  -23.601475 -38.029099 32.380814  -0.086364 -0.162179 0.982975  0.636719 0.683594 0
phy
0  0.000005 -73.715919 26.446003  0.000064 -0.263122 0.964763  0.500000 0.822266 0
0  -25.093555 -60.927696 28.195551  -0.063850 -0.203394 0.977013  0.646484 0.771484 0
0  -20.690262 -78.553169 23.758675  -0.055199 -0.309535 0.949285  0.621094 0.839844 0
phy
0  0.000038 -92.036163 20.072645  -0.016016 -0.332837 0.942848  0.500000 0.892578 0
0  0.000005 -73.715919 26.446003  0.000075 -0.263133 0.964760  0.500000 0.822266 0
0  -20.690262 -78.553169 23.758675  -0.055208 -0.309530 0.949286  0.621094 0.839844 0
phy
0  -20.690262 -78.553169 23.758675  -0.055203 -0.309539 0.949283  0.621094 0.839844 0
0  -15.941651 -89.310265 20.128839  -0.054992 -0.340950 0.938472  0.591797 0.882812 0
0  0.000038 -92.036163 20.072645  -0.016042 -0.332836 0.942848  0.500000 0.892578 0
phy
0  0.000005 -73.715919 26.446003  0.000090 -0.263127 0.964761  0.500000 0.822266 0
0  0.000038 -92.036163 20.072645  -0.016026 -0.332836 0.942848  0.500000 0.892578 0
0  15.941650 -89.310272 20.128830  0.048198 -0.332302 0.941941  0.408203 0.882812 0
phy
0  15.941650 -89.310272 20.128830  0.048133 -0.332363 0.941923  0.408203 0.882812 0
0  20.690273 -78.553177 23.758671  0.054134 -0.297927 0.953053  0.378906 0.839844 0
0  0.000005 -73.715919 26.446003  0.000065 -0.263105 0.964767  0.500000 0.822266 0
phy
0  21.930126 71.496277 34.851074  0.510022 0.332460 0.793314  0.373047 0.257812 0
0  20.185507 90.242577 26.943100  0.177678 0.547570 0.817678  0.382812 0.185547 0
0  0.000009 92.661003 27.071129  0.017005 0.560800 0.827777  0.500000 0.175781 0
phy
0  0.000009 92.661003 27.071129  0.017023 0.560793 0.827781  0.500000 0.175781 0
0  0.000001 74.330658 35.629021  -0.017797 0.413771 0.910207  0.500000 0.248047 0
0  21.930126 71.496277 34.851074  0.510024 0.332411 0.793334  0.373047 0.257812 0
phy
0  -0.000003 98.395920 20.515192  0.011112 0.818645 0.574192  0.500000 0.107422 0
0  0.000009 92.661003 27.071129  0.017012 0.560785 0.827787  0.500000 0.132812 0
0  20.185507 90.242577 26.943100  0.177677 0.547579 0.817672  0.382812 0.132812 0
phy
0  20.185507 90.242577 26.943100  0.177658 0.547540 0.817703  0.382812 0.132812 0
0  19.822533 96.251137 20.591780  0.250743 0.780984 0.572007  0.384766 0.107422 0
0  -0.000003 98.395920 20.515192  0.011111 0.818639 0.574201  0.500000 0.107422 0
phy
0  -20.185513 90.242584 26.943110  -0.162524 0.527591 0.833807  0.617188 0.185547 0
0  -21.930119 71.496262 34.851074  -0.567912 0.313013 0.761248  0.626953 0.257812 0
0  0.000001 74.330658 35.629021  -0.017789 0.413768 0.910208  0.500000 0.248047 0
phy
0  0.000001 74.330658 35.629021  -0.017794 0.413762 0.910211  0.500000 0.248047 0
0  0.000009 92.661003 27.071129  0.017002 0.560795 0.827780  0.500000 0.175781 0
0  -20.185513 90.242584 26.943110  -0.162521 0.527594 0.833805  0.617188 0.185547 0
phy
0  -0.000003 98.395920 20.515192  0.011130 0.818623 0.574224  0.500000 0.107422 0
0  -19.822538 96.251114 20.591789  -0.185473 0.839796 0.510237  0.615234 0.107422 0
0  -20.185513 90.242584 26.943110  -0.162516 0.527587 0.833811  0.617188 0.132812 0
phy
0  -20.185513 90.242584 26.943110  -0.162515 0.527619 0.833791  0.617188 0.132812 0
0  0.000009 92.661003 27.071129  0.016994 0.560817 0.827765  0.500000 0.132812 0
0  -0.000003 98.395920 20.515192  0.011119 0.818628 0.574217  0.500000 0.107422 0
phy
0  -0.000004 -6.455885 48.750961  -0.031836 -0.101827 0.994293  0.500000 0.560547 0
0  0.000005 12.800347 50.757221  0.001614 0.022664 0.999742  0.500000 0.486328 0
0  -22.431370 14.498672 48.774277  -0.278779 0.010925 0.960293  0.630859 0.480469 0
phy
0  -22.431370 14.498672 48.774277  -0.278796 0.010917 0.960288  0.630859 0.480469 0
0  -24.101423 -5.032784 46.691124  -0.537194 -0.121902 0.834603  0.640625 0.554688 0
0  -0.000004 -6.455885 48.750961  -0.031794 -0.101825 0.994294  0.500000 0.560547 0
phy
0  0.000005 12.800347 50.757221  0.001629 0.022655 0.999742  0.500000 0.486328 0
0  0.000003 40.710415 46.657421  0.025389 0.146565 0.988875  0.500000 0.378906 0
0  -21.504333 42.363926 44.646469  -0.356658 0.174084 0.917873  0.625000 0.371094 0
phy
0  -21.504333 42.363926 44.646469  -0.356701 0.174054 0.917861  0.625000 0.371094 0
0  -22.431370 14.498672 48.774277  -0.278770 0.010932 0.960296  0.630859 0.480469 0
0  0.000005 12.800347 50.757221  0.001630 0.022662 0.999742  0.500000 0.486328 0
phy
0  -21.504333 42.363926 44.646469  -0.356687 0.174075 0.917863  0.625000 0.371094 0
0  -25.555891 42.058468 42.073727  -0.553679 0.223632 0.802140  0.648438 0.373047 0
0  -25.511915 16.121828 46.668941  -0.536888 0.054720 0.841877  0.648438 0.472656 0
phy
0  -25.511915 16.121828 46.668941  -0.536888 0.054699 0.841879  0.648438 0.472656 0
0  -22.431370 14.498672 48.774277  -0.278769 0.010891 0.960297  0.630859 0.480469 0
0  -21.504333 42.363926 44.646469  -0.356681 0.174062 0.917868  0.625000 0.371094 0
phy
0  -25.511915 16.121828 46.668941  -0.536883 0.054715 0.841881  0.648438 0.472656 0
0  -27.213554 -3.228454 44.884319  -0.567224 -0.171818 0.805441  0.658203 0.548828 0
0  -24.101423 -5.032784 46.691124  -0.537205 -0.121898 0.834597  0.640625 0.554688 0
phy
0  -24.101423 -5.032784 46.691124  -0.537214 -0.121914 0.834588  0.640625 0.554688 0
0  -22.431370 14.498672 48.774277  -0.278785 0.010929 0.960291  0.630859 0.480469 0
0  -25.511915 16.121828 46.668941  -0.536905 0.054694 0.841868  0.648438 0.472656 0
phy
0  -24.101423 -5.032784 46.691124  -0.537211 -0.121906 0.834592  0.640625 0.554688 0
0  -27.213554 -3.228454 44.884319  -0.567227 -0.171839 0.805435  0.658203 0.548828 0
0  -33.474213 -24.234652 31.002199  -0.736552 -0.119467 0.665747  0.695312 0.628906 0
phy
0  -33.474213 -24.234652 31.002199  -0.736551 -0.119454 0.665750  0.695312 0.628906 0
0  -32.358376 -30.142685 31.384981  -0.551149 -0.102020 0.828147  0.687500 0.652344 0
0  -24.101423 -5.032784 46.691124  -0.537200 -0.121910 0.834598  0.640625 0.554688 0
phy
0  -21.930119 71.496262 34.851074  -0.567922 0.312967 0.761260  0.626953 0.257812 0
0  -26.412258 55.062759 36.995358  -0.704509 0.277385 0.653242  0.654297 0.322266 0
0  -25.555891 42.058468 42.073727  -0.553671 0.223641 0.802143  0.648438 0.373047 0
phy
0  -25.555891 42.058468 42.073727  -0.553682 0.223649 0.802133  0.648438 0.373047 0
0  -21.504333 42.363926 44.646469  -0.356668 0.174078 0.917870  0.625000 0.371094 0
0  -21.930119 71.496262 34.851074  -0.567911 0.312981 0.761262  0.626953 0.257812 0
phy
0  -28.161121 55.962021 33.821556  -0.790108 0.217463 0.573097  0.664062 0.318359 0
0  -26.412258 55.062759 36.995358  -0.704499 0.277395 0.653248  0.654297 0.322266 0
0  -21.930119 71.496262 34.851074  -0.567914 0.312989 0.761257  0.626953 0.257812 0
phy
0  23.601501 -38.029099 32.380806  0.106150 -0.146955 0.983431  0.363281 0.683594 0
0  25.093563 -60.927704 28.195543  0.066163 -0.203096 0.976921  0.353516 0.771484 0
0  29.700809 -41.777519 31.072220  0.129490 -0.132368 0.982706  0.328125 0.697266 0
phy
0  29.700809 -41.777519 31.072220  0.129495 -0.132352 0.982708  0.328125 0.697266 0
0  29.954967 -34.025475 31.758837  0.154393 -0.092190 0.983699  0.326172 0.667969 0
0  23.601501 -38.029099 32.380806  0.106138 -0.146958 0.983432  0.363281 0.683594 0
phy
0  0.000005 -73.715919 26.446003  0.000075 -0.263123 0.964762  0.500000 0.822266 0
0  0.000006 -41.815079 33.127338  0.010622 -0.195357 0.980675  0.500000 0.697266 0
0  -23.601475 -38.029099 32.380814  -0.086357 -0.162183 0.982975  0.636719 0.683594 0
phy
0  -23.601475 -38.029099 32.380814  -0.086337 -0.162181 0.982977  0.636719 0.683594 0
0  -25.093555 -60.927696 28.195551  -0.063860 -0.203401 0.977011  0.646484 0.771484 0
0  0.000005 -73.715919 26.446003  0.000076 -0.263126 0.964761  0.500000 0.822266 0
phy
0  0.000005 12.800347 50.757221  0.001633 0.022666 0.999742  0.500000 0.486328 0
0  -0.000004 -6.455885 48.750961  -0.031832 -0.101831 0.994292  0.500000 0.560547 0
0  24.101416 -5.032795 46.691124  0.468395 -0.120515 0.875261  0.359375 0.554688 0
phy
0  24.101416 -5.032795 46.691124  0.468368 -0.120517 0.875276  0.359375 0.554688 0
0  22.431379 14.498672 48.774277  0.276621 0.062411 0.958950  0.369141 0.480469 0
0  0.000005 12.800347 50.757221  0.001635 0.022647 0.999742  0.500000 0.486328 0
phy
0  0.000003 40.710415 46.657421  0.025365 0.146562 0.988876  0.500000 0.378906 0
0  0.000005 12.800347 50.757221  0.001617 0.022660 0.999742  0.500000 0.486328 0
0  22.431379 14.498672 48.774277  0.276626 0.062419 0.958948  0.369141 0.480469 0
phy
0  22.431379 14.498672 48.774277  0.276609 0.062406 0.958954  0.369141 0.480469 0
0  21.504339 42.363911 44.646461  0.423592 0.179206 0.887950  0.375000 0.371094 0
0  0.000003 40.710415 46.657421  0.025366 0.146568 0.988875  0.500000 0.378906 0
phy
0  21.504339 42.363911 44.646461  0.423597 0.179221 0.887944  0.375000 0.371094 0
0  22.431379 14.498672 48.774277  0.276625 0.062408 0.958950  0.369141 0.480469 0
0  25.511923 16.121830 46.668938  0.536889 0.054699 0.841878  0.351562 0.472656 0
phy
0  25.511923 16.121830 46.668938  0.536889 0.054720 0.841876  0.351562 0.472656 0
0  25.555897 42.058479 42.073711  0.553680 0.223633 0.802139  0.351562 0.373047 0
0  21.504339 42.363911 44.646461  0.423603 0.179215 0.887943  0.375000 0.371094 0
phy
0  25.511923 16.121830 46.668938  0.536894 0.054686 0.841875  0.351562 0.472656 0
0  22.431379 14.498672 48.774277  0.276643 0.062421 0.958943  0.369141 0.480469 0
0  24.101416 -5.032795 46.691124  0.468364 -0.120515 0.875278  0.359375 0.554688 0
phy
0  24.101416 -5.032795 46.691124  0.468378 -0.120521 0.875269  0.359375 0.554688 0
0  27.213562 -3.228449 44.884312  0.567223 -0.171818 0.805442  0.341797 0.548828 0
0  25.511923 16.121830 46.668938  0.536882 0.054715 0.841882  0.351562 0.472656 0
phy
0  24.101416 -5.032795 46.691124  0.468363 -0.120544 0.875274  0.359375 0.554688 0
0  32.358353 -30.142704 31.384991  0.551147 -0.102021 0.828148  0.312500 0.652344 0
0  33.474220 -24.234653 31.002186  0.736549 -0.119455 0.665752  0.304688 0.628906 0
phy
0  33.474220 -24.234653 31.002186  0.736553 -0.119467 0.665745  0.304688 0.628906 0
0  27.213562 -3.228449 44.884312  0.567228 -0.171839 0.805434  0.341797 0.548828 0
0  24.101416 -5.032795 46.691124  0.468355 -0.120518 0.875282  0.359375 0.554688 0
phy
0  21.930126 71.496277 34.851074  0.510023 0.332436 0.793324  0.373047 0.257812 0
0  21.504339 42.363911 44.646461  0.423604 0.179213 0.887943  0.375000 0.371094 0
0  25.555897 42.058479 42.073711  0.553677 0.223646 0.802137  0.351562 0.373047 0
phy
0  25.555897 42.058479 42.073711  0.553671 0.223641 0.802143  0.351562 0.373047 0
0  26.412262 55.062782 36.995346  0.704509 0.277384 0.653242  0.345703 0.322266 0
0  21.930126 71.496277 34.851074  0.510002 0.332449 0.793332  0.373047 0.257812 0
phy
0  21.930126 71.496277 34.851074  0.510014 0.332446 0.793326  0.373047 0.257812 0
0  26.412262 55.062782 36.995346  0.704499 0.277395 0.653248  0.345703 0.322266 0
0  28.161123 55.962040 33.821548  0.790108 0.217463 0.573097  0.335938 0.318359 0
end
