version 1
nodes
0 "root" -1
end
skeleton
time 0
0  0.000000 0.000000 0.000000  0.000000 -0.000000 0.000000
end
triangles
skin_0
0  14.300634 101.370750 35.813534  0.190527 0.886171 0.422375  0.411145 0.156224 1 0 1.000000
0  18.278385 100.407272 35.496964  0.287572 0.814340 0.504135  0.385754 0.155248 1 0 1.000000
0  18.237093 100.641266 35.139107  0.278195 0.819002 0.501840  0.386731 0.152318 1 0 1.000000
skin_0
0  18.237093 100.641266 35.139107  0.278195 0.819002 0.501840  0.386731 0.152318 1 0 1.000000
0  14.273106 101.535912 35.455673  0.186252 0.887906 0.420634  0.411145 0.154271 1 0 1.000000
0  14.300634 101.370750 35.813534  0.190527 0.886171 0.422375  0.411145 0.156224 1 0 1.000000
skin_0
0  5.656937 102.444328 35.854828  0.061440 0.866975 0.494549  0.464858 0.155248 1 0 1.000000
0  -0.013769 102.650780 35.951176  -0.000433 0.868102 0.496385  0.500015 0.155248 1 0 1.000000
0  -0.013769 102.485619 36.240211  -0.000435 0.868102 0.496385  0.500015 0.157201 1 0 1.000000
skin_0
0  -0.013769 102.485619 36.240211  -0.000435 0.868102 0.496385  0.500015 0.157201 1 0 1.000000
0  5.656937 102.265388 36.157627  0.061561 0.867317 0.493934  0.464858 0.157201 1 0 1.000000
0  5.656937 102.444328 35.854828  0.061440 0.866975 0.494549  0.464858 0.155248 1 0 1.000000
skin_0
0  18.278385 100.407272 35.496964  0.287572 0.814340 0.504135  0.385754 0.155248 1 0 1.000000
0  21.980860 99.127235 35.111580  0.358569 0.776851 0.517620  0.363292 0.153294 1 0 1.000000
0  21.884516 99.416275 34.753719  0.347102 0.781294 0.518749  0.364269 0.151341 1 0 1.000000
skin_0
0  21.884516 99.416275 34.753719  0.347102 0.781294 0.518749  0.364269 0.151341 1 0 1.000000
0  18.237093 100.641266 35.139107  0.278195 0.819002 0.501840  0.386731 0.152318 1 0 1.000000
0  18.278385 100.407272 35.496964  0.287572 0.814340 0.504135  0.385754 0.155248 1 0 1.000000
skin_0
0  14.273106 101.535912 35.455673  0.186252 0.887906 0.420634  0.411145 0.154271 1 0 1.000000
0  10.130188 102.100227 35.689659  0.113163 0.875890 0.469053  0.436537 0.154271 1 0 1.000000
0  10.130188 101.935059 36.006229  0.113495 0.876830 0.467212  0.436537 0.157201 1 0 1.000000
skin_0
0  10.130188 101.935059 36.006229  0.113495 0.876830 0.467212  0.436537 0.157201 1 0 1.000000
0  14.300634 101.370750 35.813534  0.190527 0.886171 0.422375  0.411145 0.156224 1 0 1.000000
0  14.273106 101.535912 35.455673  0.186252 0.887906 0.420634  0.411145 0.154271 1 0 1.000000
skin_0
0  5.656937 102.265388 36.157627  0.061561 0.867317 0.493934  0.464858 0.157201 1 0 1.000000
0  10.130188 101.935059 36.006229  0.113495 0.876830 0.467212  0.436537 0.157201 1 0 1.000000
0  10.130188 102.100227 35.689659  0.113163 0.875890 0.469053  0.436537 0.154271 1 0 1.000000
skin_0
0  10.130188 102.100227 35.689659  0.113163 0.875890 0.469053  0.436537 0.154271 1 0 1.000000
0  5.656937 102.444328 35.854828  0.061440 0.866975 0.494549  0.464858 0.155248 1 0 1.000000
0  5.656937 102.265388 36.157627  0.061561 0.867317 0.493934  0.464858 0.157201 1 0 1.000000
skin_0
0  24.458353 98.356461 34.437149  0.376421 0.747199 0.547724  0.346690 0.150365 1 0 1.000000
0  24.141785 98.480331 34.478439  0.378648 0.749791 0.542622  0.355480 0.150365 1 0 1.000000
0  24.251898 98.163773 34.836300  0.379709 0.746520 0.546378  0.354503 0.153294 1 0 1.000000
skin_0
0  24.251898 98.163773 34.836300  0.379709 0.746520 0.546378  0.354503 0.153294 1 0 1.000000
0  24.568464 98.026123 34.795010  0.381067 0.744125 0.548694  0.344737 0.152318 1 0 1.000000
0  24.458353 98.356461 34.437149  0.376421 0.747199 0.547724  0.346690 0.150365 1 0 1.000000
skin_0
0  -18.305925 100.407272 35.496964  -0.285991 0.817278 0.500265  0.613300 0.155248 1 0 1.000000
0  -14.328171 101.370750 35.813534  -0.198282 0.886051 0.419044  0.588885 0.156224 1 0 1.000000
0  -14.300644 101.535912 35.455673  -0.193458 0.885723 0.421983  0.587909 0.154271 1 0 1.000000
skin_0
0  -14.300644 101.535912 35.455673  -0.193458 0.885723 0.421983  0.587909 0.154271 1 0 1.000000
0  -18.264633 100.641266 35.139107  -0.274292 0.817042 0.507155  0.613300 0.152318 1 0 1.000000
0  -18.305925 100.407272 35.496964  -0.285991 0.817278 0.500265  0.613300 0.155248 1 0 1.000000
skin_0
0  -0.013769 102.650780 35.951176  -0.000433 0.868102 0.496385  0.500015 0.155248 1 0 1.000000
0  -5.684474 102.444328 35.854828  -0.060486 0.867339 0.494029  0.535173 0.155248 1 0 1.000000
0  -5.684474 102.265388 36.157627  -0.060577 0.866992 0.494626  0.535173 0.157201 1 0 1.000000
skin_0
0  -5.684474 102.265388 36.157627  -0.060577 0.866992 0.494626  0.535173 0.157201 1 0 1.000000
0  -0.013769 102.485619 36.240211  -0.000435 0.868102 0.496385  0.500015 0.157201 1 0 1.000000
0  -0.013769 102.650780 35.951176  -0.000433 0.868102 0.496385  0.500015 0.155248 1 0 1.000000
skin_0
0  -22.008400 99.127235 35.111580  -0.357123 0.777851 0.517118  0.636738 0.153294 1 0 1.000000
0  -18.305925 100.407272 35.496964  -0.285991 0.817278 0.500265  0.613300 0.155248 1 0 1.000000
0  -18.264633 100.641266 35.139107  -0.274292 0.817042 0.507155  0.613300 0.152318 1 0 1.000000
skin_0
0  -18.264633 100.641266 35.139107  -0.274292 0.817042 0.507155  0.613300 0.152318 1 0 1.000000
0  -21.912054 99.416275 34.753719  -0.344455 0.780885 0.521122  0.635762 0.151341 1 0 1.000000
0  -22.008400 99.127235 35.111580  -0.357123 0.777851 0.517118  0.636738 0.153294 1 0 1.000000
skin_0
0  -10.157724 102.100227 35.689659  -0.112220 0.876976 0.467246  0.562517 0.154271 1 0 1.000000
0  -14.300644 101.535912 35.455673  -0.193458 0.885723 0.421983  0.587909 0.154271 1 0 1.000000
0  -14.328171 101.370750 35.813534  -0.198282 0.886051 0.419044  0.588885 0.156224 1 0 1.000000
skin_0
0  -14.328171 101.370750 35.813534  -0.198282 0.886051 0.419044  0.588885 0.156224 1 0 1.000000
0  -10.157724 101.935059 36.006229  -0.112462 0.876003 0.469010  0.562517 0.157201 1 0 1.000000
0  -10.157724 102.100227 35.689659  -0.112220 0.876976 0.467246  0.562517 0.154271 1 0 1.000000
skin_0
0  -10.157724 101.935059 36.006229  -0.112462 0.876003 0.469010  0.562517 0.157201 1 0 1.000000
0  -5.684474 102.265388 36.157627  -0.060577 0.866992 0.494626  0.535173 0.157201 1 0 1.000000
0  -5.684474 102.444328 35.854828  -0.060486 0.867339 0.494029  0.535173 0.155248 1 0 1.000000
skin_0
0  -5.684474 102.444328 35.854828  -0.060486 0.867339 0.494029  0.535173 0.155248 1 0 1.000000
0  -10.157724 102.100227 35.689659  -0.112220 0.876976 0.467246  0.562517 0.154271 1 0 1.000000
0  -10.157724 101.935059 36.006229  -0.112462 0.876003 0.469010  0.562517 0.157201 1 0 1.000000
skin_0
0  -24.169323 98.480331 34.478439  -0.378483 0.749755 0.542787  0.644551 0.150365 1 0 1.000000
0  -24.279436 98.163773 34.836300  -0.379746 0.746519 0.546353  0.645528 0.153294 1 0 1.000000
0  -22.008400 99.127235 35.111580  -0.357123 0.777851 0.517118  0.636738 0.153294 1 0 1.000000
skin_0
0  -22.008400 99.127235 35.111580  -0.357123 0.777851 0.517118  0.636738 0.153294 1 0 1.000000
0  -21.912054 99.416275 34.753719  -0.344455 0.780885 0.521122  0.635762 0.151341 1 0 1.000000
0  -24.169323 98.480331 34.478439  -0.378483 0.749755 0.542787  0.644551 0.150365 1 0 1.000000
skin_0
0  14.273106 101.150520 35.235451  0.033514 0.500534 -0.865068  0.411145 0.154271 1 0 1.000000
0  14.273106 101.425804 35.400620  0.032072 0.500534 -0.865123  0.411145 0.154271 1 0 1.000000
0  18.237093 100.517380 35.070290  0.059349 0.499899 -0.864048  0.386731 0.152318 1 0 1.000000
skin_0
0  18.237093 100.517380 35.070290  0.059349 0.499899 -0.864048  0.386731 0.152318 1 0 1.000000
0  18.237093 100.242104 34.918884  0.061989 0.499862 -0.863884  0.386731 0.152318 1 0 1.000000
0  14.273106 101.150520 35.235451  0.033514 0.500534 -0.865068  0.411145 0.154271 1 0 1.000000
skin_0
0  10.130188 101.714844 35.469437  0.013857 0.500807 -0.865448  0.436537 0.154271 1 0 1.000000
0  10.130188 101.990112 35.634605  0.013399 0.500804 -0.865457  0.436537 0.154271 1 0 1.000000
0  14.273106 101.425804 35.400620  0.032072 0.500534 -0.865123  0.411145 0.154271 1 0 1.000000
skin_0
0  14.273106 101.425804 35.400620  0.032072 0.500534 -0.865123  0.411145 0.154271 1 0 1.000000
0  14.273106 101.150520 35.235451  0.033514 0.500534 -0.865068  0.411145 0.154271 1 0 1.000000
0  10.130188 101.714844 35.469437  0.013857 0.500807 -0.865448  0.436537 0.154271 1 0 1.000000
skin_0
0  5.656937 102.045166 35.634605  0.005859 0.500777 -0.865557  0.464858 0.155248 1 0 1.000000
0  5.656937 102.334221 35.786007  0.005832 0.500630 -0.865642  0.464858 0.155248 1 0 1.000000
0  10.130188 101.990112 35.634605  0.013399 0.500804 -0.865457  0.436537 0.154271 1 0 1.000000
skin_0
0  10.130188 101.990112 35.634605  0.013399 0.500804 -0.865457  0.436537 0.154271 1 0 1.000000
0  10.130188 101.714844 35.469437  0.013857 0.500807 -0.865448  0.436537 0.154271 1 0 1.000000
0  5.656937 102.045166 35.634605  0.005859 0.500777 -0.865557  0.464858 0.155248 1 0 1.000000
skin_0
0  -0.013769 102.265388 35.717186  -0.000032 0.500806 -0.865560  0.500015 0.155248 1 0 1.000000
0  -0.013769 102.540672 35.882355  -0.000034 0.500864 -0.865526  0.500015 0.155248 1 0 1.000000
0  5.656937 102.334221 35.786007  0.005832 0.500630 -0.865642  0.464858 0.155248 1 0 1.000000
skin_0
0  5.656937 102.334221 35.786007  0.005832 0.500630 -0.865642  0.464858 0.155248 1 0 1.000000
0  5.656937 102.045166 35.634605  0.005859 0.500777 -0.865557  0.464858 0.155248 1 0 1.000000
0  -0.013769 102.265388 35.717186  -0.000032 0.500806 -0.865560  0.500015 0.155248 1 0 1.000000
skin_0
0  -5.684474 102.045166 35.634605  -0.005920 0.500813 -0.865535  0.535173 0.155248 1 0 1.000000
0  -5.684474 102.334221 35.786007  -0.005843 0.500668 -0.865620  0.535173 0.155248 1 0 1.000000
0  -0.013769 102.540672 35.882355  -0.000034 0.500864 -0.865526  0.500015 0.155248 1 0 1.000000
skin_0
0  -0.013769 102.540672 35.882355  -0.000034 0.500864 -0.865526  0.500015 0.155248 1 0 1.000000
0  -0.013769 102.265388 35.717186  -0.000032 0.500806 -0.865560  0.500015 0.155248 1 0 1.000000
0  -5.684474 102.045166 35.634605  -0.005920 0.500813 -0.865535  0.535173 0.155248 1 0 1.000000
skin_0
0  -5.684474 102.045166 35.634605  -0.005920 0.500813 -0.865535  0.535173 0.155248 1 0 1.000000
0  -10.157724 101.714844 35.469437  -0.013915 0.500763 -0.865473  0.562517 0.154271 1 0 1.000000
0  -10.157724 101.990112 35.634605  -0.013450 0.500725 -0.865502  0.562517 0.154271 1 0 1.000000
skin_0
0  -10.157724 101.990112 35.634605  -0.013450 0.500725 -0.865502  0.562517 0.154271 1 0 1.000000
0  -5.684474 102.334221 35.786007  -0.005843 0.500668 -0.865620  0.535173 0.155248 1 0 1.000000
0  -5.684474 102.045166 35.634605  -0.005920 0.500813 -0.865535  0.535173 0.155248 1 0 1.000000
skin_0
0  -10.157724 101.714844 35.469437  -0.013915 0.500763 -0.865473  0.562517 0.154271 1 0 1.000000
0  -14.300644 101.150520 35.235451  -0.033567 0.500516 -0.865076  0.587909 0.154271 1 0 1.000000
0  -14.300644 101.425804 35.400620  -0.032135 0.500558 -0.865106  0.587909 0.154271 1 0 1.000000
skin_0
0  -14.300644 101.425804 35.400620  -0.032135 0.500558 -0.865106  0.587909 0.154271 1 0 1.000000
0  -10.157724 101.990112 35.634605  -0.013450 0.500725 -0.865502  0.562517 0.154271 1 0 1.000000
0  -10.157724 101.714844 35.469437  -0.013915 0.500763 -0.865473  0.562517 0.154271 1 0 1.000000
skin_0
0  -14.300644 101.150520 35.235451  -0.033567 0.500516 -0.865076  0.587909 0.154271 1 0 1.000000
0  -18.264633 100.242104 34.918884  -0.062047 0.499849 -0.863887  0.613300 0.152318 1 0 1.000000
0  -18.264633 100.517380 35.070290  -0.059408 0.499909 -0.864038  0.613300 0.152318 1 0 1.000000
skin_0
0  -18.264633 100.517380 35.070290  -0.059408 0.499909 -0.864038  0.613300 0.152318 1 0 1.000000
0  -14.300644 101.425804 35.400620  -0.032135 0.500558 -0.865106  0.587909 0.154271 1 0 1.000000
0  -14.300644 101.150520 35.235451  -0.033567 0.500516 -0.865076  0.587909 0.154271 1 0 1.000000
skin_0
0  -18.264633 100.242104 34.918884  -0.062047 0.499849 -0.863887  0.613300 0.152318 1 0 1.000000
0  -21.912054 99.017128 34.519733  -0.090315 0.498818 -0.861988  0.635762 0.151341 1 0 1.000000
0  -21.912054 99.292404 34.684898  -0.087366 0.498887 -0.862252  0.635762 0.151341 1 0 1.000000
skin_0
0  -21.912054 99.292404 34.684898  -0.087366 0.498887 -0.862252  0.635762 0.151341 1 0 1.000000
0  -18.264633 100.517380 35.070290  -0.059408 0.499909 -0.864038  0.613300 0.152318 1 0 1.000000
0  -18.264633 100.242104 34.918884  -0.062047 0.499849 -0.863887  0.613300 0.152318 1 0 1.000000
skin_0
0  -21.912054 99.017128 34.519733  -0.090315 0.498818 -0.861988  0.635762 0.151341 1 0 1.000000
0  -24.169323 98.094940 34.244457  -0.100305 0.498304 -0.861181  0.644551 0.150365 1 0 1.000000
0  -24.169323 98.370224 34.409622  -0.100307 0.498304 -0.861180  0.644551 0.150365 1 0 1.000000
skin_0
0  -24.169323 98.370224 34.409622  -0.100307 0.498304 -0.861180  0.644551 0.150365 1 0 1.000000
0  -21.912054 99.292404 34.684898  -0.087366 0.498887 -0.862252  0.635762 0.151341 1 0 1.000000
0  -21.912054 99.017128 34.519733  -0.090315 0.498818 -0.861988  0.635762 0.151341 1 0 1.000000
skin_0
0  -24.485891 97.957306 34.203167  -0.757004 0.327217 -0.565574  0.653340 0.150365 1 0 1.000000
0  -24.596001 97.640739 34.574787  -0.819750 -0.286808 0.495732  0.654317 0.152318 1 0 1.000000
0  -24.596003 97.916016 34.726189  -0.751428 -0.330463 0.571096  0.654317 0.152318 1 0 1.000000
skin_0
0  -24.596003 97.916016 34.726189  -0.751428 -0.330463 0.571096  0.654317 0.152318 1 0 1.000000
0  -24.485891 98.232590 34.368328  -0.657001 0.377563 -0.652530  0.653340 0.150365 1 0 1.000000
0  -24.485891 97.957306 34.203167  -0.757004 0.327217 -0.565574  0.653340 0.150365 1 0 1.000000
skin_0
0  -24.279436 97.778381 34.602314  0.107754 -0.497922 0.860502  0.645528 0.153294 1 0 1.000000
0  -24.279436 98.053650 34.767483  0.107735 -0.497889 0.860523  0.645528 0.153294 1 0 1.000000
0  -24.596003 97.916016 34.726189  -0.751428 -0.330463 0.571096  0.654317 0.152318 1 0 1.000000
skin_0
0  -24.596003 97.916016 34.726189  -0.751428 -0.330463 0.571096  0.654317 0.152318 1 0 1.000000
0  -24.596001 97.640739 34.574787  -0.819750 -0.286808 0.495732  0.654317 0.152318 1 0 1.000000
0  -24.279436 97.778381 34.602314  0.107754 -0.497922 0.860502  0.645528 0.153294 1 0 1.000000
skin_0
0  -18.305925 100.008125 35.276741  0.069186 -0.499645 0.863463  0.613300 0.155248 1 0 1.000000
0  -18.305925 100.283394 35.428146  0.066770 -0.499707 0.863617  0.613300 0.155248 1 0 1.000000
0  -22.008400 99.017128 35.042759  0.094001 -0.498606 0.861717  0.636738 0.153294 1 0 1.000000
skin_0
0  -22.008400 99.017128 35.042759  0.094001 -0.498606 0.861717  0.636738 0.153294 1 0 1.000000
0  -22.008400 98.741844 34.877594  0.097172 -0.498460 0.861449  0.636738 0.153294 1 0 1.000000
0  -18.305925 100.008125 35.276741  0.069186 -0.499645 0.863463  0.613300 0.155248 1 0 1.000000
skin_0
0  -14.328171 100.971596 35.579548  0.041748 -0.500359 0.864811  0.588885 0.156224 1 0 1.000000
0  -14.328171 101.246880 35.744717  0.039870 -0.500068 0.865068  0.588885 0.156224 1 0 1.000000
0  -18.305925 100.283394 35.428146  0.066770 -0.499707 0.863617  0.613300 0.155248 1 0 1.000000
skin_0
0  -18.305925 100.283394 35.428146  0.066770 -0.499707 0.863617  0.613300 0.155248 1 0 1.000000
0  -18.305925 100.008125 35.276741  0.069186 -0.499645 0.863463  0.613300 0.155248 1 0 1.000000
0  -14.328171 100.971596 35.579548  0.041748 -0.500359 0.864811  0.588885 0.156224 1 0 1.000000
skin_0
0  -10.157724 101.549675 35.786007  0.018889 -0.500732 0.865396  0.562517 0.157201 1 0 1.000000
0  -10.157724 101.824951 35.951176  0.018281 -0.500743 0.865403  0.562517 0.157201 1 0 1.000000
0  -14.328171 101.246880 35.744717  0.039870 -0.500068 0.865068  0.588885 0.156224 1 0 1.000000
skin_0
0  -14.328171 101.246880 35.744717  0.039870 -0.500068 0.865068  0.588885 0.156224 1 0 1.000000
0  -14.328171 100.971596 35.579548  0.041748 -0.500359 0.864811  0.588885 0.156224 1 0 1.000000
0  -10.157724 101.549675 35.786007  0.018889 -0.500732 0.865396  0.562517 0.157201 1 0 1.000000
skin_0
0  -5.684474 101.880005 35.923645  0.007205 -0.500844 0.865507  0.535173 0.157201 1 0 1.000000
0  -5.684474 102.155281 36.088810  0.007112 -0.500787 0.865541  0.535173 0.157201 1 0 1.000000
0  -10.157724 101.824951 35.951176  0.018281 -0.500743 0.865403  0.562517 0.157201 1 0 1.000000
skin_0
0  -10.157724 101.824951 35.951176  0.018281 -0.500743 0.865403  0.562517 0.157201 1 0 1.000000
0  -10.157724 101.549675 35.786007  0.018889 -0.500732 0.865396  0.562517 0.157201 1 0 1.000000
0  -5.684474 101.880005 35.923645  0.007205 -0.500844 0.865507  0.535173 0.157201 1 0 1.000000
skin_0
0  -0.013769 102.086464 36.019993  0.000003 -0.500788 0.865570  0.500015 0.157201 1 0 1.000000
0  -0.013769 102.361748 36.185158  -0.000002 -0.500760 0.865586  0.500015 0.157201 1 0 1.000000
0  -5.684474 102.155281 36.088810  0.007112 -0.500787 0.865541  0.535173 0.157201 1 0 1.000000
skin_0
0  -5.684474 102.155281 36.088810  0.007112 -0.500787 0.865541  0.535173 0.157201 1 0 1.000000
0  -5.684474 101.880005 35.923645  0.007205 -0.500844 0.865507  0.535173 0.157201 1 0 1.000000
0  -0.013769 102.086464 36.019993  0.000003 -0.500788 0.865570  0.500015 0.157201 1 0 1.000000
skin_0
0  5.656937 101.880005 35.923645  -0.007205 -0.500832 0.865515  0.464858 0.157201 1 0 1.000000
0  5.656937 102.155281 36.088810  -0.007111 -0.500832 0.865515  0.464858 0.157201 1 0 1.000000
0  -0.013769 102.361748 36.185158  -0.000002 -0.500760 0.865586  0.500015 0.157201 1 0 1.000000
skin_0
0  -0.013769 102.361748 36.185158  -0.000002 -0.500760 0.865586  0.500015 0.157201 1 0 1.000000
0  -0.013769 102.086464 36.019993  0.000003 -0.500788 0.865570  0.500015 0.157201 1 0 1.000000
0  5.656937 101.880005 35.923645  -0.007205 -0.500832 0.865515  0.464858 0.157201 1 0 1.000000
skin_0
0  5.656937 101.880005 35.923645  -0.007205 -0.500832 0.865515  0.464858 0.157201 1 0 1.000000
0  10.130188 101.549675 35.786007  -0.018893 -0.500765 0.865377  0.436537 0.157201 1 0 1.000000
0  10.130188 101.824951 35.951176  -0.018281 -0.500738 0.865406  0.436537 0.157201 1 0 1.000000
skin_0
0  10.130188 101.824951 35.951176  -0.018281 -0.500738 0.865406  0.436537 0.157201 1 0 1.000000
0  5.656937 102.155281 36.088810  -0.007111 -0.500832 0.865515  0.464858 0.157201 1 0 1.000000
0  5.656937 101.880005 35.923645  -0.007205 -0.500832 0.865515  0.464858 0.157201 1 0 1.000000
skin_0
0  10.130188 101.549675 35.786007  -0.018893 -0.500765 0.865377  0.436537 0.157201 1 0 1.000000
0  14.300634 100.971596 35.579548  -0.041756 -0.500400 0.864787  0.411145 0.156224 1 0 1.000000
0  14.300634 101.246880 35.744717  -0.040018 -0.500229 0.864968  0.411145 0.156224 1 0 1.000000
skin_0
0  14.300634 101.246880 35.744717  -0.040018 -0.500229 0.864968  0.411145 0.156224 1 0 1.000000
0  10.130188 101.824951 35.951176  -0.018281 -0.500738 0.865406  0.436537 0.157201 1 0 1.000000
0  10.130188 101.549675 35.786007  -0.018893 -0.500765 0.865377  0.436537 0.157201 1 0 1.000000
skin_0
0  14.300634 100.971596 35.579548  -0.041756 -0.500400 0.864787  0.411145 0.156224 1 0 1.000000
0  18.278385 100.008125 35.276741  -0.069187 -0.499653 0.863458  0.385754 0.155248 1 0 1.000000
0  18.278385 100.283394 35.428146  -0.066769 -0.499703 0.863620  0.385754 0.155248 1 0 1.000000
skin_0
0  18.278385 100.283394 35.428146  -0.066769 -0.499703 0.863620  0.385754 0.155248 1 0 1.000000
0  14.300634 101.246880 35.744717  -0.040018 -0.500229 0.864968  0.411145 0.156224 1 0 1.000000
0  14.300634 100.971596 35.579548  -0.041756 -0.500400 0.864787  0.411145 0.156224 1 0 1.000000
skin_0
0  18.278385 100.008125 35.276741  -0.069187 -0.499653 0.863458  0.385754 0.155248 1 0 1.000000
0  21.980860 98.741844 34.877594  -0.097171 -0.498471 0.861443  0.363292 0.153294 1 0 1.000000
0  21.980860 99.017128 35.042759  -0.094007 -0.498622 0.861707  0.363292 0.153294 1 0 1.000000
skin_0
0  21.980860 99.017128 35.042759  -0.094007 -0.498622 0.861707  0.363292 0.153294 1 0 1.000000
0  18.278385 100.283394 35.428146  -0.066769 -0.499703 0.863620  0.385754 0.155248 1 0 1.000000
0  18.278385 100.008125 35.276741  -0.069187 -0.499653 0.863458  0.385754 0.155248 1 0 1.000000
skin_0
0  21.980860 98.741844 34.877594  -0.097171 -0.498471 0.861443  0.363292 0.153294 1 0 1.000000
0  24.251898 97.778381 34.602314  -0.107750 -0.497919 0.860504  0.354503 0.153294 1 0 1.000000
0  24.251898 98.053650 34.767483  -0.107730 -0.497876 0.860531  0.354503 0.153294 1 0 1.000000
skin_0
0  24.251898 98.053650 34.767483  -0.107730 -0.497876 0.860531  0.354503 0.153294 1 0 1.000000
0  21.980860 99.017128 35.042759  -0.094007 -0.498622 0.861707  0.363292 0.153294 1 0 1.000000
0  21.980860 98.741844 34.877594  -0.097171 -0.498471 0.861443  0.363292 0.153294 1 0 1.000000
skin_0
0  24.458353 97.957306 34.203167  0.756989 0.327239 -0.565580  0.346690 0.150365 1 0 1.000000
0  24.458353 98.232590 34.368328  0.656960 0.377571 -0.652567  0.346690 0.150365 1 0 1.000000
0  24.568464 97.916016 34.726189  0.751433 -0.330456 0.571094  0.344737 0.152318 1 0 1.000000
skin_0
0  24.568464 97.916016 34.726189  0.751433 -0.330456 0.571094  0.344737 0.152318 1 0 1.000000
0  24.568466 97.640739 34.574787  0.819758 -0.286810 0.495719  0.344737 0.152318 1 0 1.000000
0  24.458353 97.957306 34.203167  0.756989 0.327239 -0.565580  0.346690 0.150365 1 0 1.000000
skin_0
0  24.141785 98.094940 34.244457  0.100235 0.498295 -0.861194  0.355480 0.150365 1 0 1.000000
0  24.141785 98.370224 34.409622  0.100245 0.498320 -0.861178  0.355480 0.150365 1 0 1.000000
0  24.458353 98.232590 34.368328  0.656960 0.377571 -0.652567  0.346690 0.150365 1 0 1.000000
skin_0
0  24.458353 98.232590 34.368328  0.656960 0.377571 -0.652567  0.346690 0.150365 1 0 1.000000
0  24.458353 97.957306 34.203167  0.756989 0.327239 -0.565580  0.346690 0.150365 1 0 1.000000
0  24.141785 98.094940 34.244457  0.100235 0.498295 -0.861194  0.355480 0.150365 1 0 1.000000
skin_0
0  18.237093 100.242104 34.918884  0.061989 0.499862 -0.863884  0.386731 0.152318 1 0 1.000000
0  18.237093 100.517380 35.070290  0.059349 0.499899 -0.864048  0.386731 0.152318 1 0 1.000000
0  21.884516 99.292404 34.684898  0.087167 0.498471 -0.862513  0.364269 0.151341 1 0 1.000000
skin_0
0  21.884516 99.292404 34.684898  0.087167 0.498471 -0.862513  0.364269 0.151341 1 0 1.000000
0  21.884516 99.017128 34.519733  0.090247 0.498795 -0.862009  0.364269 0.151341 1 0 1.000000
0  18.237093 100.242104 34.918884  0.061989 0.499862 -0.863884  0.386731 0.152318 1 0 1.000000
skin_0
0  14.273106 101.425804 35.400620  0.032072 0.500534 -0.865123  0.411145 0.154271 1 0 1.000000
0  14.273106 101.535912 35.455673  0.030574 0.500534 -0.865177  0.411145 0.154271 1 0 1.000000
0  18.237093 100.641266 35.139107  0.056527 0.499946 -0.864210  0.386731 0.152318 1 0 1.000000
skin_0
0  18.237093 100.641266 35.139107  0.056527 0.499946 -0.864210  0.386731 0.152318 1 0 1.000000
0  18.237093 100.517380 35.070290  0.059349 0.499899 -0.864048  0.386731 0.152318 1 0 1.000000
0  14.273106 101.425804 35.400620  0.032072 0.500534 -0.865123  0.411145 0.154271 1 0 1.000000
skin_0
0  10.130188 101.990112 35.634605  0.013399 0.500804 -0.865457  0.436537 0.154271 1 0 1.000000
0  10.130188 102.100227 35.689659  0.012917 0.500806 -0.865463  0.436537 0.154271 1 0 1.000000
0  14.273106 101.535912 35.455673  0.030574 0.500534 -0.865177  0.411145 0.154271 1 0 1.000000
skin_0
0  14.273106 101.535912 35.455673  0.030574 0.500534 -0.865177  0.411145 0.154271 1 0 1.000000
0  14.273106 101.425804 35.400620  0.032072 0.500534 -0.865123  0.411145 0.154271 1 0 1.000000
0  10.130188 101.990112 35.634605  0.013399 0.500804 -0.865457  0.436537 0.154271 1 0 1.000000
skin_0
0  5.656937 102.334221 35.786007  0.005832 0.500630 -0.865642  0.464858 0.155248 1 0 1.000000
0  5.656937 102.444328 35.854828  0.005763 0.500834 -0.865524  0.464858 0.155248 1 0 1.000000
0  10.130188 102.100227 35.689659  0.012917 0.500806 -0.865463  0.436537 0.154271 1 0 1.000000
skin_0
0  10.130188 102.100227 35.689659  0.012917 0.500806 -0.865463  0.436537 0.154271 1 0 1.000000
0  10.130188 101.990112 35.634605  0.013399 0.500804 -0.865457  0.436537 0.154271 1 0 1.000000
0  5.656937 102.334221 35.786007  0.005832 0.500630 -0.865642  0.464858 0.155248 1 0 1.000000
skin_0
0  -0.013769 102.650780 35.951176  -0.000037 0.500865 -0.865526  0.500015 0.155248 1 0 1.000000
0  5.656937 102.444328 35.854828  0.005763 0.500834 -0.865524  0.464858 0.155248 1 0 1.000000
0  5.656937 102.334221 35.786007  0.005832 0.500630 -0.865642  0.464858 0.155248 1 0 1.000000
skin_0
0  5.656937 102.334221 35.786007  0.005832 0.500630 -0.865642  0.464858 0.155248 1 0 1.000000
0  -0.013769 102.540672 35.882355  -0.000034 0.500864 -0.865526  0.500015 0.155248 1 0 1.000000
0  -0.013769 102.650780 35.951176  -0.000037 0.500865 -0.865526  0.500015 0.155248 1 0 1.000000
skin_0
0  -5.684474 102.444328 35.854828  -0.005831 0.500829 -0.865527  0.535173 0.155248 1 0 1.000000
0  -0.013769 102.650780 35.951176  -0.000037 0.500865 -0.865526  0.500015 0.155248 1 0 1.000000
0  -0.013769 102.540672 35.882355  -0.000034 0.500864 -0.865526  0.500015 0.155248 1 0 1.000000
skin_0
0  -0.013769 102.540672 35.882355  -0.000034 0.500864 -0.865526  0.500015 0.155248 1 0 1.000000
0  -5.684474 102.334221 35.786007  -0.005843 0.500668 -0.865620  0.535173 0.155248 1 0 1.000000
0  -5.684474 102.444328 35.854828  -0.005831 0.500829 -0.865527  0.535173 0.155248 1 0 1.000000
skin_0
0  -10.157724 102.100227 35.689659  -0.012966 0.500741 -0.865500  0.562517 0.154271 1 0 1.000000
0  -5.684474 102.444328 35.854828  -0.005831 0.500829 -0.865527  0.535173 0.155248 1 0 1.000000
0  -5.684474 102.334221 35.786007  -0.005843 0.500668 -0.865620  0.535173 0.155248 1 0 1.000000
skin_0
0  -5.684474 102.334221 35.786007  -0.005843 0.500668 -0.865620  0.535173 0.155248 1 0 1.000000
0  -10.157724 101.990112 35.634605  -0.013450 0.500725 -0.865502  0.562517 0.154271 1 0 1.000000
0  -10.157724 102.100227 35.689659  -0.012966 0.500741 -0.865500  0.562517 0.154271 1 0 1.000000
skin_0
0  -14.300644 101.535912 35.455673  -0.030630 0.500566 -0.865156  0.587909 0.154271 1 0 1.000000
0  -10.157724 102.100227 35.689659  -0.012966 0.500741 -0.865500  0.562517 0.154271 1 0 1.000000
0  -10.157724 101.990112 35.634605  -0.013450 0.500725 -0.865502  0.562517 0.154271 1 0 1.000000
skin_0
0  -10.157724 101.990112 35.634605  -0.013450 0.500725 -0.865502  0.562517 0.154271 1 0 1.000000
0  -14.300644 101.425804 35.400620  -0.032135 0.500558 -0.865106  0.587909 0.154271 1 0 1.000000
0  -14.300644 101.535912 35.455673  -0.030630 0.500566 -0.865156  0.587909 0.154271 1 0 1.000000
skin_0
0  -18.264633 100.641266 35.139107  -0.056594 0.500018 -0.864164  0.613300 0.152318 1 0 1.000000
0  -14.300644 101.535912 35.455673  -0.030630 0.500566 -0.865156  0.587909 0.154271 1 0 1.000000
0  -14.300644 101.425804 35.400620  -0.032135 0.500558 -0.865106  0.587909 0.154271 1 0 1.000000
skin_0
0  -14.300644 101.425804 35.400620  -0.032135 0.500558 -0.865106  0.587909 0.154271 1 0 1.000000
0  -18.264633 100.517380 35.070290  -0.059408 0.499909 -0.864038  0.613300 0.152318 1 0 1.000000
0  -18.264633 100.641266 35.139107  -0.056594 0.500018 -0.864164  0.613300 0.152318 1 0 1.000000
skin_0
0  -21.912054 99.416275 34.753719  -0.084353 0.499029 -0.862470  0.635762 0.151341 1 0 1.000000
0  -18.264633 100.641266 35.139107  -0.056594 0.500018 -0.864164  0.613300 0.152318 1 0 1.000000
0  -18.264633 100.517380 35.070290  -0.059408 0.499909 -0.864038  0.613300 0.152318 1 0 1.000000
skin_0
0  -18.264633 100.517380 35.070290  -0.059408 0.499909 -0.864038  0.613300 0.152318 1 0 1.000000
0  -21.912054 99.292404 34.684898  -0.087366 0.498887 -0.862252  0.635762 0.151341 1 0 1.000000
0  -21.912054 99.416275 34.753719  -0.084353 0.499029 -0.862470  0.635762 0.151341 1 0 1.000000
skin_0
0  -24.485891 98.356461 34.437149  -0.557090 0.415890 -0.718809  0.653340 0.150365 1 0 1.000000
0  -24.169323 98.480331 34.478439  -0.100286 0.498280 -0.861197  0.644551 0.150365 1 0 1.000000
0  -24.169323 98.370224 34.409622  -0.100307 0.498304 -0.861180  0.644551 0.150365 1 0 1.000000
skin_0
0  -24.169323 98.370224 34.409622  -0.100307 0.498304 -0.861180  0.644551 0.150365 1 0 1.000000
0  -24.485891 98.232590 34.368328  -0.657001 0.377563 -0.652530  0.653340 0.150365 1 0 1.000000
0  -24.485891 98.356461 34.437149  -0.557090 0.415890 -0.718809  0.653340 0.150365 1 0 1.000000
skin_0
0  -24.596003 98.026123 34.795010  -0.699739 -0.357763 0.618361  0.654317 0.152318 1 0 1.000000
0  -24.485891 98.356461 34.437149  -0.557090 0.415890 -0.718809  0.653340 0.150365 1 0 1.000000
0  -24.485891 98.232590 34.368328  -0.657001 0.377563 -0.652530  0.653340 0.150365 1 0 1.000000
skin_0
0  -24.485891 98.232590 34.368328  -0.657001 0.377563 -0.652530  0.653340 0.150365 1 0 1.000000
0  -24.596003 97.916016 34.726189  -0.751428 -0.330463 0.571096  0.654317 0.152318 1 0 1.000000
0  -24.596003 98.026123 34.795010  -0.699739 -0.357763 0.618361  0.654317 0.152318 1 0 1.000000
skin_0
0  -22.008400 99.017128 35.042759  0.094001 -0.498606 0.861717  0.636738 0.153294 1 0 1.000000
0  -22.008400 99.127235 35.111580  0.090712 -0.498739 0.861993  0.636738 0.153294 1 0 1.000000
0  -24.279436 98.163773 34.836300  0.107707 -0.497802 0.860577  0.645528 0.153294 1 0 1.000000
skin_0
0  -24.279436 98.163773 34.836300  0.107707 -0.497802 0.860577  0.645528 0.153294 1 0 1.000000
0  -24.279436 98.053650 34.767483  0.107735 -0.497889 0.860523  0.645528 0.153294 1 0 1.000000
0  -22.008400 99.017128 35.042759  0.094001 -0.498606 0.861717  0.636738 0.153294 1 0 1.000000
skin_0
0  -18.305925 100.283394 35.428146  0.066770 -0.499707 0.863617  0.613300 0.155248 1 0 1.000000
0  -18.305925 100.407272 35.496964  0.064218 -0.499827 0.863741  0.613300 0.155248 1 0 1.000000
0  -22.008400 99.127235 35.111580  0.090712 -0.498739 0.861993  0.636738 0.153294 1 0 1.000000
skin_0
0  -22.008400 99.127235 35.111580  0.090712 -0.498739 0.861993  0.636738 0.153294 1 0 1.000000
0  -22.008400 99.017128 35.042759  0.094001 -0.498606 0.861717  0.636738 0.153294 1 0 1.000000
0  -18.305925 100.283394 35.428146  0.066770 -0.499707 0.863617  0.613300 0.155248 1 0 1.000000
skin_0
0  -14.328171 101.246880 35.744717  0.039870 -0.500068 0.865068  0.588885 0.156224 1 0 1.000000
0  -14.328171 101.370750 35.813534  0.038511 -0.500408 0.864933  0.588885 0.156224 1 0 1.000000
0  -18.305925 100.407272 35.496964  0.064218 -0.499827 0.863741  0.613300 0.155248 1 0 1.000000
skin_0
0  -18.305925 100.407272 35.496964  0.064218 -0.499827 0.863741  0.613300 0.155248 1 0 1.000000
0  -18.305925 100.283394 35.428146  0.066770 -0.499707 0.863617  0.613300 0.155248 1 0 1.000000
0  -14.328171 101.246880 35.744717  0.039870 -0.500068 0.865068  0.588885 0.156224 1 0 1.000000
skin_0
0  -10.157724 101.824951 35.951176  0.018281 -0.500743 0.865403  0.562517 0.157201 1 0 1.000000
0  -10.157724 101.935059 36.006229  0.017669 -0.500718 0.865430  0.562517 0.157201 1 0 1.000000
0  -14.328171 101.370750 35.813534  0.038511 -0.500408 0.864933  0.588885 0.156224 1 0 1.000000
skin_0
0  -14.328171 101.370750 35.813534  0.038511 -0.500408 0.864933  0.588885 0.156224 1 0 1.000000
0  -14.328171 101.246880 35.744717  0.039870 -0.500068 0.865068  0.588885 0.156224 1 0 1.000000
0  -10.157724 101.824951 35.951176  0.018281 -0.500743 0.865403  0.562517 0.157201 1 0 1.000000
skin_0
0  -5.684474 102.155281 36.088810  0.007112 -0.500787 0.865541  0.535173 0.157201 1 0 1.000000
0  -5.684474 102.265388 36.157627  0.007021 -0.500811 0.865528  0.535173 0.157201 1 0 1.000000
0  -10.157724 101.935059 36.006229  0.017669 -0.500718 0.865430  0.562517 0.157201 1 0 1.000000
skin_0
0  -10.157724 101.935059 36.006229  0.017669 -0.500718 0.865430  0.562517 0.157201 1 0 1.000000
0  -10.157724 101.824951 35.951176  0.018281 -0.500743 0.865403  0.562517 0.157201 1 0 1.000000
0  -5.684474 102.155281 36.088810  0.007112 -0.500787 0.865541  0.535173 0.157201 1 0 1.000000
skin_0
0  -0.013769 102.485619 36.240211  -0.000004 -0.500601 0.865678  0.500015 0.157201 1 0 1.000000
0  -5.684474 102.265388 36.157627  0.007021 -0.500811 0.865528  0.535173 0.157201 1 0 1.000000
0  -5.684474 102.155281 36.088810  0.007112 -0.500787 0.865541  0.535173 0.157201 1 0 1.000000
skin_0
0  -5.684474 102.155281 36.088810  0.007112 -0.500787 0.865541  0.535173 0.157201 1 0 1.000000
0  -0.013769 102.361748 36.185158  -0.000002 -0.500760 0.865586  0.500015 0.157201 1 0 1.000000
0  -0.013769 102.485619 36.240211  -0.000004 -0.500601 0.865678  0.500015 0.157201 1 0 1.000000
skin_0
0  5.656937 102.265388 36.157627  -0.007019 -0.500857 0.865501  0.464858 0.157201 1 0 1.000000
0  -0.013769 102.485619 36.240211  -0.000004 -0.500601 0.865678  0.500015 0.157201 1 0 1.000000
0  -0.013769 102.361748 36.185158  -0.000002 -0.500760 0.865586  0.500015 0.157201 1 0 1.000000
skin_0
0  -0.013769 102.361748 36.185158  -0.000002 -0.500760 0.865586  0.500015 0.157201 1 0 1.000000
0  5.656937 102.155281 36.088810  -0.007111 -0.500832 0.865515  0.464858 0.157201 1 0 1.000000
0  5.656937 102.265388 36.157627  -0.007019 -0.500857 0.865501  0.464858 0.157201 1 0 1.000000
skin_0
0  10.130188 101.935059 36.006229  -0.017670 -0.500717 0.865430  0.436537 0.157201 1 0 1.000000
0  5.656937 102.265388 36.157627  -0.007019 -0.500857 0.865501  0.464858 0.157201 1 0 1.000000
0  5.656937 102.155281 36.088810  -0.007111 -0.500832 0.865515  0.464858 0.157201 1 0 1.000000
skin_0
0  5.656937 102.155281 36.088810  -0.007111 -0.500832 0.865515  0.464858 0.157201 1 0 1.000000
0  10.130188 101.824951 35.951176  -0.018281 -0.500738 0.865406  0.436537 0.157201 1 0 1.000000
0  10.130188 101.935059 36.006229  -0.017670 -0.500717 0.865430  0.436537 0.157201 1 0 1.000000
skin_0
0  14.300634 101.370750 35.813534  -0.038518 -0.500449 0.864909  0.411145 0.156224 1 0 1.000000
0  10.130188 101.935059 36.006229  -0.017670 -0.500717 0.865430  0.436537 0.157201 1 0 1.000000
0  10.130188 101.824951 35.951176  -0.018281 -0.500738 0.865406  0.436537 0.157201 1 0 1.000000
skin_0
0  10.130188 101.824951 35.951176  -0.018281 -0.500738 0.865406  0.436537 0.157201 1 0 1.000000
0  14.300634 101.246880 35.744717  -0.040018 -0.500229 0.864968  0.411145 0.156224 1 0 1.000000
0  14.300634 101.370750 35.813534  -0.038518 -0.500449 0.864909  0.411145 0.156224 1 0 1.000000
skin_0
0  18.278385 100.407272 35.496964  -0.064207 -0.499761 0.863780  0.385754 0.155248 1 0 1.000000
0  14.300634 101.370750 35.813534  -0.038518 -0.500449 0.864909  0.411145 0.156224 1 0 1.000000
0  14.300634 101.246880 35.744717  -0.040018 -0.500229 0.864968  0.411145 0.156224 1 0 1.000000
skin_0
0  14.300634 101.246880 35.744717  -0.040018 -0.500229 0.864968  0.411145 0.156224 1 0 1.000000
0  18.278385 100.283394 35.428146  -0.066769 -0.499703 0.863620  0.385754 0.155248 1 0 1.000000
0  18.278385 100.407272 35.496964  -0.064207 -0.499761 0.863780  0.385754 0.155248 1 0 1.000000
skin_0
0  21.980860 99.127235 35.111580  -0.090715 -0.498755 0.861983  0.363292 0.153294 1 0 1.000000
0  18.278385 100.407272 35.496964  -0.064207 -0.499761 0.863780  0.385754 0.155248 1 0 1.000000
0  18.278385 100.283394 35.428146  -0.066769 -0.499703 0.863620  0.385754 0.155248 1 0 1.000000
skin_0
0  18.278385 100.283394 35.428146  -0.066769 -0.499703 0.863620  0.385754 0.155248 1 0 1.000000
0  21.980860 99.017128 35.042759  -0.094007 -0.498622 0.861707  0.363292 0.153294 1 0 1.000000
0  21.980860 99.127235 35.111580  -0.090715 -0.498755 0.861983  0.363292 0.153294 1 0 1.000000
skin_0
0  24.568464 98.026123 34.795010  0.699736 -0.357747 0.618375  0.344737 0.152318 1 0 1.000000
0  24.251898 98.163773 34.836300  -0.107706 -0.497770 0.860595  0.354503 0.153294 1 0 1.000000
0  24.251898 98.053650 34.767483  -0.107730 -0.497876 0.860531  0.354503 0.153294 1 0 1.000000
skin_0
0  24.251898 98.053650 34.767483  -0.107730 -0.497876 0.860531  0.354503 0.153294 1 0 1.000000
0  24.568464 97.916016 34.726189  0.751433 -0.330456 0.571094  0.344737 0.152318 1 0 1.000000
0  24.568464 98.026123 34.795010  0.699736 -0.357747 0.618375  0.344737 0.152318 1 0 1.000000
skin_0
0  24.458353 98.232590 34.368328  0.656960 0.377571 -0.652567  0.346690 0.150365 1 0 1.000000
0  24.458353 98.356461 34.437149  0.557067 0.415905 -0.718818  0.346690 0.150365 1 0 1.000000
0  24.568464 98.026123 34.795010  0.699736 -0.357747 0.618375  0.344737 0.152318 1 0 1.000000
skin_0
0  24.568464 98.026123 34.795010  0.699736 -0.357747 0.618375  0.344737 0.152318 1 0 1.000000
0  24.568464 97.916016 34.726189  0.751433 -0.330456 0.571094  0.344737 0.152318 1 0 1.000000
0  24.458353 98.232590 34.368328  0.656960 0.377571 -0.652567  0.346690 0.150365 1 0 1.000000
skin_0
0  21.884516 99.292404 34.684898  0.087167 0.498471 -0.862513  0.364269 0.151341 1 0 1.000000
0  21.884516 99.416275 34.753719  0.084283 0.499046 -0.862467  0.364269 0.151341 1 0 1.000000
0  24.141785 98.480331 34.478439  0.100221 0.498293 -0.861196  0.355480 0.150365 1 0 1.000000
skin_0
0  24.141785 98.480331 34.478439  0.100221 0.498293 -0.861196  0.355480 0.150365 1 0 1.000000
0  24.141785 98.370224 34.409622  0.100245 0.498320 -0.861178  0.355480 0.150365 1 0 1.000000
0  21.884516 99.292404 34.684898  0.087167 0.498471 -0.862513  0.364269 0.151341 1 0 1.000000
skin_0
0  18.237093 100.517380 35.070290  0.059349 0.499899 -0.864048  0.386731 0.152318 1 0 1.000000
0  18.237093 100.641266 35.139107  0.056527 0.499946 -0.864210  0.386731 0.152318 1 0 1.000000
0  21.884516 99.416275 34.753719  0.084283 0.499046 -0.862467  0.364269 0.151341 1 0 1.000000
skin_0
0  21.884516 99.416275 34.753719  0.084283 0.499046 -0.862467  0.364269 0.151341 1 0 1.000000
0  21.884516 99.292404 34.684898  0.087167 0.498471 -0.862513  0.364269 0.151341 1 0 1.000000
0  18.237093 100.517380 35.070290  0.059349 0.499899 -0.864048  0.386731 0.152318 1 0 1.000000
skin_0
0  -24.485891 98.356461 34.437149  -0.376460 0.747147 0.547768  0.653340 0.150365 1 0 1.000000
0  -24.596003 98.026123 34.795010  -0.381126 0.744094 0.548696  0.654317 0.152318 1 0 1.000000
0  -24.279436 98.163773 34.836300  -0.379746 0.746519 0.546353  0.645528 0.153294 1 0 1.000000
skin_0
0  -24.279436 98.163773 34.836300  -0.379746 0.746519 0.546353  0.645528 0.153294 1 0 1.000000
0  -24.169323 98.480331 34.478439  -0.378483 0.749755 0.542787  0.644551 0.150365 1 0 1.000000
0  -24.485891 98.356461 34.437149  -0.376460 0.747147 0.547768  0.653340 0.150365 1 0 1.000000
skin_0
0  -24.169323 98.094940 34.244457  -0.100305 0.498304 -0.861181  0.644551 0.150365 1 0 1.000000
0  -24.485891 97.957306 34.203167  -0.757004 0.327217 -0.565574  0.653340 0.150365 1 0 1.000000
0  -24.485891 98.232590 34.368328  -0.657001 0.377563 -0.652530  0.653340 0.150365 1 0 1.000000
skin_0
0  -24.485891 98.232590 34.368328  -0.657001 0.377563 -0.652530  0.653340 0.150365 1 0 1.000000
0  -24.169323 98.370224 34.409622  -0.100307 0.498304 -0.861180  0.644551 0.150365 1 0 1.000000
0  -24.169323 98.094940 34.244457  -0.100305 0.498304 -0.861181  0.644551 0.150365 1 0 1.000000
skin_0
0  -22.008400 98.741844 34.877594  0.097172 -0.498460 0.861449  0.636738 0.153294 1 0 1.000000
0  -22.008400 99.017128 35.042759  0.094001 -0.498606 0.861717  0.636738 0.153294 1 0 1.000000
0  -24.279436 98.053650 34.767483  0.107735 -0.497889 0.860523  0.645528 0.153294 1 0 1.000000
skin_0
0  -24.279436 98.053650 34.767483  0.107735 -0.497889 0.860523  0.645528 0.153294 1 0 1.000000
0  -24.279436 97.778381 34.602314  0.107754 -0.497922 0.860502  0.645528 0.153294 1 0 1.000000
0  -22.008400 98.741844 34.877594  0.097172 -0.498460 0.861449  0.636738 0.153294 1 0 1.000000
skin_0
0  -24.169323 98.480331 34.478439  -0.100286 0.498280 -0.861197  0.644551 0.150365 1 0 1.000000
0  -21.912054 99.416275 34.753719  -0.084353 0.499029 -0.862470  0.635762 0.151341 1 0 1.000000
0  -21.912054 99.292404 34.684898  -0.087366 0.498887 -0.862252  0.635762 0.151341 1 0 1.000000
skin_0
0  -21.912054 99.292404 34.684898  -0.087366 0.498887 -0.862252  0.635762 0.151341 1 0 1.000000
0  -24.169323 98.370224 34.409622  -0.100307 0.498304 -0.861180  0.644551 0.150365 1 0 1.000000
0  -24.169323 98.480331 34.478439  -0.100286 0.498280 -0.861197  0.644551 0.150365 1 0 1.000000
skin_0
0  -24.596003 98.026123 34.795010  -0.699739 -0.357763 0.618361  0.654317 0.152318 1 0 1.000000
0  -24.596003 97.916016 34.726189  -0.751428 -0.330463 0.571096  0.654317 0.152318 1 0 1.000000
0  -24.279436 98.053650 34.767483  0.107735 -0.497889 0.860523  0.645528 0.153294 1 0 1.000000
skin_0
0  -24.279436 98.053650 34.767483  0.107735 -0.497889 0.860523  0.645528 0.153294 1 0 1.000000
0  -24.279436 98.163773 34.836300  0.107707 -0.497802 0.860577  0.645528 0.153294 1 0 1.000000
0  -24.596003 98.026123 34.795010  -0.699739 -0.357763 0.618361  0.654317 0.152318 1 0 1.000000
skin_0
0  24.141785 98.480331 34.478439  0.378648 0.749791 0.542622  0.355480 0.150365 1 0 1.000000
0  21.884516 99.416275 34.753719  0.347102 0.781294 0.518749  0.364269 0.151341 1 0 1.000000
0  21.980860 99.127235 35.111580  0.358569 0.776851 0.517620  0.363292 0.153294 1 0 1.000000
skin_0
0  21.980860 99.127235 35.111580  0.358569 0.776851 0.517620  0.363292 0.153294 1 0 1.000000
0  24.251898 98.163773 34.836300  0.379709 0.746520 0.546378  0.354503 0.153294 1 0 1.000000
0  24.141785 98.480331 34.478439  0.378648 0.749791 0.542622  0.355480 0.150365 1 0 1.000000
skin_0
0  24.251898 97.778381 34.602314  -0.107750 -0.497919 0.860504  0.354503 0.153294 1 0 1.000000
0  24.568466 97.640739 34.574787  0.819758 -0.286810 0.495719  0.344737 0.152318 1 0 1.000000
0  24.568464 97.916016 34.726189  0.751433 -0.330456 0.571094  0.344737 0.152318 1 0 1.000000
skin_0
0  24.568464 97.916016 34.726189  0.751433 -0.330456 0.571094  0.344737 0.152318 1 0 1.000000
0  24.251898 98.053650 34.767483  -0.107730 -0.497876 0.860531  0.354503 0.153294 1 0 1.000000
0  24.251898 97.778381 34.602314  -0.107750 -0.497919 0.860504  0.354503 0.153294 1 0 1.000000
skin_0
0  21.884516 99.017128 34.519733  0.090247 0.498795 -0.862009  0.364269 0.151341 1 0 1.000000
0  21.884516 99.292404 34.684898  0.087167 0.498471 -0.862513  0.364269 0.151341 1 0 1.000000
0  24.141785 98.370224 34.409622  0.100245 0.498320 -0.861178  0.355480 0.150365 1 0 1.000000
skin_0
0  24.141785 98.370224 34.409622  0.100245 0.498320 -0.861178  0.355480 0.150365 1 0 1.000000
0  24.141785 98.094940 34.244457  0.100235 0.498295 -0.861194  0.355480 0.150365 1 0 1.000000
0  21.884516 99.017128 34.519733  0.090247 0.498795 -0.862009  0.364269 0.151341 1 0 1.000000
skin_0
0  24.251898 98.163773 34.836300  -0.107706 -0.497770 0.860595  0.354503 0.153294 1 0 1.000000
0  21.980860 99.127235 35.111580  -0.090715 -0.498755 0.861983  0.363292 0.153294 1 0 1.000000
0  21.980860 99.017128 35.042759  -0.094007 -0.498622 0.861707  0.363292 0.153294 1 0 1.000000
skin_0
0  21.980860 99.017128 35.042759  -0.094007 -0.498622 0.861707  0.363292 0.153294 1 0 1.000000
0  24.251898 98.053650 34.767483  -0.107730 -0.497876 0.860531  0.354503 0.153294 1 0 1.000000
0  24.251898 98.163773 34.836300  -0.107706 -0.497770 0.860595  0.354503 0.153294 1 0 1.000000
skin_0
0  24.458353 98.356461 34.437149  0.557067 0.415905 -0.718818  0.346690 0.150365 1 0 1.000000
0  24.458353 98.232590 34.368328  0.656960 0.377571 -0.652567  0.346690 0.150365 1 0 1.000000
0  24.141785 98.370224 34.409622  0.100245 0.498320 -0.861178  0.355480 0.150365 1 0 1.000000
skin_0
0  24.141785 98.370224 34.409622  0.100245 0.498320 -0.861178  0.355480 0.150365 1 0 1.000000
0  24.141785 98.480331 34.478439  0.100221 0.498293 -0.861196  0.355480 0.150365 1 0 1.000000
0  24.458353 98.356461 34.437149  0.557067 0.415905 -0.718818  0.346690 0.150365 1 0 1.000000
end
