version 1
nodes
0 "root" -1
end
skeleton
time 0
0  0.000000 0.000000 0.000000  0.000000 -0.000000 0.000000
end
triangles
skin_0dam
0  14.300634 101.630478 38.029881  0.190528 0.845895 0.498158  0.411145 0.156224 1 0 1.000000
0  18.278385 100.698326 37.630367  0.287445 0.767428 0.573088  0.385754 0.155248 1 0 1.000000
0  18.237093 100.962685 37.294315  0.278212 0.771990 0.571515  0.386731 0.152318 1 0 1.000000
skin_0dam
0  18.237093 100.962685 37.294315  0.278212 0.771990 0.571515  0.386731 0.152318 1 0 1.000000
0  14.273106 101.826263 37.687813  0.186253 0.847774 0.496577  0.411145 0.154271 1 0 1.000000
0  14.300634 101.630478 38.029881  0.190528 0.845895 0.498158  0.411145 0.156224 1 0 1.000000
skin_0dam
0  5.656937 102.696342 38.164783  0.061443 0.820479 0.568365  0.464858 0.155248 1 0 1.000000
0  -0.013769 102.893593 38.278793  -0.000435 0.821456 0.570271  0.500015 0.155248 1 0 1.000000
0  -0.013769 102.703819 38.552299  -0.000437 0.821458 0.570269  0.500015 0.157201 1 0 1.000000
skin_0dam
0  -0.013769 102.703819 38.552299  -0.000437 0.821458 0.570269  0.500015 0.157201 1 0 1.000000
0  5.656937 102.491638 38.450794  0.061562 0.820873 0.567783  0.464858 0.157201 1 0 1.000000
0  5.656937 102.696342 38.164783  0.061443 0.820479 0.568365  0.464858 0.155248 1 0 1.000000
skin_0dam
0  18.278385 100.698326 37.630367  0.287445 0.767428 0.573088  0.385754 0.155248 1 0 1.000000
0  21.980860 99.456841 37.134659  0.358566 0.728656 0.583516  0.363292 0.153294 1 0 1.000000
0  21.884516 99.776031 36.803410  0.347100 0.732978 0.585034  0.364269 0.151341 1 0 1.000000
skin_0dam
0  21.884516 99.776031 36.803410  0.347100 0.732978 0.585034  0.364269 0.151341 1 0 1.000000
0  18.237093 100.962685 37.294315  0.278212 0.771990 0.571515  0.386731 0.152318 1 0 1.000000
0  18.278385 100.698326 37.630367  0.287445 0.767428 0.573088  0.385754 0.155248 1 0 1.000000
skin_0dam
0  14.273106 101.826263 37.687813  0.186253 0.847774 0.496577  0.411145 0.154271 1 0 1.000000
0  10.130188 102.367981 37.970192  0.113162 0.831575 0.543762  0.436537 0.154271 1 0 1.000000
0  10.130188 102.175797 38.271126  0.113493 0.832673 0.542011  0.436537 0.157201 1 0 1.000000
skin_0dam
0  10.130188 102.175797 38.271126  0.113493 0.832673 0.542011  0.436537 0.157201 1 0 1.000000
0  14.300634 101.630478 38.029881  0.190528 0.845895 0.498158  0.411145 0.156224 1 0 1.000000
0  14.273106 101.826263 37.687813  0.186253 0.847774 0.496577  0.411145 0.154271 1 0 1.000000
skin_0dam
0  5.656937 102.491638 38.450794  0.061562 0.820873 0.567783  0.464858 0.157201 1 0 1.000000
0  10.130188 102.175797 38.271126  0.113493 0.832673 0.542011  0.436537 0.157201 1 0 1.000000
0  10.130188 102.367981 37.970192  0.113162 0.831575 0.543762  0.436537 0.154271 1 0 1.000000
skin_0dam
0  10.130188 102.367981 37.970192  0.113162 0.831575 0.543762  0.436537 0.154271 1 0 1.000000
0  5.656937 102.696342 38.164783  0.061443 0.820479 0.568365  0.464858 0.155248 1 0 1.000000
0  5.656937 102.491638 38.450794  0.061562 0.820873 0.567783  0.464858 0.157201 1 0 1.000000
skin_0dam
0  24.458353 98.747917 36.395485  0.376406 0.696499 0.610907  0.346690 0.150365 1 0 1.000000
0  24.141785 98.867706 36.447433  0.378559 0.699509 0.606119  0.355480 0.150365 1 0 1.000000
0  24.251898 98.521103 36.776279  0.379724 0.695910 0.609523  0.354503 0.153294 1 0 1.000000
skin_0dam
0  24.251898 98.521103 36.776279  0.379724 0.695910 0.609523  0.354503 0.153294 1 0 1.000000
0  24.568464 98.387589 36.723125  0.381079 0.693375 0.611564  0.344737 0.152318 1 0 1.000000
0  24.458353 98.747917 36.395485  0.376406 0.696499 0.610907  0.346690 0.150365 1 0 1.000000
skin_0dam
0  -18.305925 100.698326 37.630367  -0.285970 0.770515 0.569673  0.613300 0.155248 1 0 1.000000
0  -14.328171 101.630478 38.029881  -0.198276 0.846048 0.494863  0.588885 0.156224 1 0 1.000000
0  -14.300644 101.826263 37.687813  -0.193454 0.845467 0.497756  0.587909 0.154271 1 0 1.000000
skin_0dam
0  -14.300644 101.826263 37.687813  -0.193454 0.845467 0.497756  0.587909 0.154271 1 0 1.000000
0  -18.264633 100.962685 37.294315  -0.274220 0.769719 0.576486  0.613300 0.152318 1 0 1.000000
0  -18.305925 100.698326 37.630367  -0.285970 0.770515 0.569673  0.613300 0.155248 1 0 1.000000
skin_0dam
0  -0.013769 102.893593 38.278793  -0.000435 0.821456 0.570271  0.500015 0.155248 1 0 1.000000
0  -5.684474 102.696342 38.164783  -0.060485 0.820874 0.567897  0.535173 0.155248 1 0 1.000000
0  -5.684474 102.491638 38.450794  -0.060575 0.820480 0.568457  0.535173 0.157201 1 0 1.000000
skin_0dam
0  -5.684474 102.491638 38.450794  -0.060575 0.820480 0.568457  0.535173 0.157201 1 0 1.000000
0  -0.013769 102.703819 38.552299  -0.000437 0.821458 0.570269  0.500015 0.157201 1 0 1.000000
0  -0.013769 102.893593 38.278793  -0.000435 0.821456 0.570271  0.500015 0.155248 1 0 1.000000
skin_0dam
0  -22.008400 99.456841 37.134659  -0.357130 0.729720 0.583067  0.636738 0.153294 1 0 1.000000
0  -18.305925 100.698326 37.630367  -0.285970 0.770515 0.569673  0.613300 0.155248 1 0 1.000000
0  -18.264633 100.962685 37.294315  -0.274220 0.769719 0.576486  0.613300 0.152318 1 0 1.000000
skin_0dam
0  -18.264633 100.962685 37.294315  -0.274220 0.769719 0.576486  0.613300 0.152318 1 0 1.000000
0  -21.912054 99.776031 36.803410  -0.344462 0.732399 0.587314  0.635762 0.151341 1 0 1.000000
0  -22.008400 99.456841 37.134659  -0.357130 0.729720 0.583067  0.636738 0.153294 1 0 1.000000
skin_0dam
0  -10.157724 102.367981 37.970192  -0.112217 0.832790 0.542096  0.562517 0.154271 1 0 1.000000
0  -14.300644 101.826263 37.687813  -0.193454 0.845467 0.497756  0.587909 0.154271 1 0 1.000000
0  -14.328171 101.630478 38.029881  -0.198276 0.846048 0.494863  0.588885 0.156224 1 0 1.000000
skin_0dam
0  -14.328171 101.630478 38.029881  -0.198276 0.846048 0.494863  0.588885 0.156224 1 0 1.000000
0  -10.157724 102.175797 38.271126  -0.112459 0.831668 0.543766  0.562517 0.157201 1 0 1.000000
0  -10.157724 102.367981 37.970192  -0.112217 0.832790 0.542096  0.562517 0.154271 1 0 1.000000
skin_0dam
0  -10.157724 102.175797 38.271126  -0.112459 0.831668 0.543766  0.562517 0.157201 1 0 1.000000
0  -5.684474 102.491638 38.450794  -0.060575 0.820480 0.568457  0.535173 0.157201 1 0 1.000000
0  -5.684474 102.696342 38.164783  -0.060485 0.820874 0.567897  0.535173 0.155248 1 0 1.000000
skin_0dam
0  -5.684474 102.696342 38.164783  -0.060485 0.820874 0.567897  0.535173 0.155248 1 0 1.000000
0  -10.157724 102.367981 37.970192  -0.112217 0.832790 0.542096  0.562517 0.154271 1 0 1.000000
0  -10.157724 102.175797 38.271126  -0.112459 0.831668 0.543766  0.562517 0.157201 1 0 1.000000
skin_0dam
0  -24.169323 98.867706 36.447433  -0.378506 0.699472 0.606194  0.644551 0.150365 1 0 1.000000
0  -24.279436 98.521103 36.776279  -0.379764 0.695912 0.609496  0.645528 0.153294 1 0 1.000000
0  -22.008400 99.456841 37.134659  -0.357130 0.729720 0.583067  0.636738 0.153294 1 0 1.000000
skin_0dam
0  -22.008400 99.456841 37.134659  -0.357130 0.729720 0.583067  0.636738 0.153294 1 0 1.000000
0  -21.912054 99.776031 36.803410  -0.344462 0.732399 0.587314  0.635762 0.151341 1 0 1.000000
0  -24.169323 98.867706 36.447433  -0.378506 0.699472 0.606194  0.644551 0.150365 1 0 1.000000
skin_0dam
0  14.273106 101.461578 37.434769  0.033513 0.574181 -0.818042  0.411145 0.154271 1 0 1.000000
0  14.273106 101.721382 37.623352  0.032072 0.574194 -0.818091  0.411145 0.154271 1 0 1.000000
0  18.237093 100.845284 37.214943  0.059345 0.573470 -0.817075  0.386731 0.152318 1 0 1.000000
skin_0dam
0  18.237093 100.845284 37.214943  0.059345 0.573470 -0.817075  0.386731 0.152318 1 0 1.000000
0  18.237093 100.584282 37.040073  0.061990 0.573405 -0.816923  0.386731 0.152318 1 0 1.000000
0  14.273106 101.461578 37.434769  0.033513 0.574181 -0.818042  0.411145 0.154271 1 0 1.000000
skin_0dam
0  10.130188 102.003304 37.717152  0.013855 0.574463 -0.818413  0.436537 0.154271 1 0 1.000000
0  10.130188 102.263100 37.905731  0.013399 0.574467 -0.818418  0.436537 0.154271 1 0 1.000000
0  14.273106 101.721382 37.623352  0.032072 0.574194 -0.818091  0.411145 0.154271 1 0 1.000000
skin_0dam
0  14.273106 101.721382 37.623352  0.032072 0.574194 -0.818091  0.411145 0.154271 1 0 1.000000
0  14.273106 101.461578 37.434769  0.033513 0.574181 -0.818042  0.411145 0.154271 1 0 1.000000
0  10.130188 102.003304 37.717152  0.013855 0.574463 -0.818413  0.436537 0.154271 1 0 1.000000
skin_0dam
0  5.656937 102.317940 37.910538  0.005859 0.574469 -0.818505  0.464858 0.155248 1 0 1.000000
0  5.656937 102.592667 38.086609  0.005838 0.574305 -0.818620  0.464858 0.155248 1 0 1.000000
0  10.130188 102.263100 37.905731  0.013399 0.574467 -0.818418  0.436537 0.154271 1 0 1.000000
skin_0dam
0  10.130188 102.263100 37.905731  0.013399 0.574467 -0.818418  0.436537 0.154271 1 0 1.000000
0  10.130188 102.003304 37.717152  0.013855 0.574463 -0.818413  0.436537 0.154271 1 0 1.000000
0  5.656937 102.317940 37.910538  0.005859 0.574469 -0.818505  0.464858 0.155248 1 0 1.000000
skin_0dam
0  -0.013769 102.530106 38.012039  -0.000031 0.574515 -0.818494  0.500015 0.155248 1 0 1.000000
0  -0.013769 102.789917 38.200619  -0.000034 0.574526 -0.818486  0.500015 0.155248 1 0 1.000000
0  5.656937 102.592667 38.086609  0.005838 0.574305 -0.818620  0.464858 0.155248 1 0 1.000000
skin_0dam
0  5.656937 102.592667 38.086609  0.005838 0.574305 -0.818620  0.464858 0.155248 1 0 1.000000
0  5.656937 102.317940 37.910538  0.005859 0.574469 -0.818505  0.464858 0.155248 1 0 1.000000
0  -0.013769 102.530106 38.012039  -0.000031 0.574515 -0.818494  0.500015 0.155248 1 0 1.000000
skin_0dam
0  -5.684474 102.317940 37.910538  -0.005921 0.574487 -0.818493  0.535173 0.155248 1 0 1.000000
0  -5.684474 102.592667 38.086609  -0.005853 0.574430 -0.818533  0.535173 0.155248 1 0 1.000000
0  -0.013769 102.789917 38.200619  -0.000034 0.574526 -0.818486  0.500015 0.155248 1 0 1.000000
skin_0dam
0  -0.013769 102.789917 38.200619  -0.000034 0.574526 -0.818486  0.500015 0.155248 1 0 1.000000
0  -0.013769 102.530106 38.012039  -0.000031 0.574515 -0.818494  0.500015 0.155248 1 0 1.000000
0  -5.684474 102.317940 37.910538  -0.005921 0.574487 -0.818493  0.535173 0.155248 1 0 1.000000
skin_0dam
0  -5.684474 102.317940 37.910538  -0.005921 0.574487 -0.818493  0.535173 0.155248 1 0 1.000000
0  -10.157724 102.003304 37.717152  -0.013915 0.574420 -0.818442  0.562517 0.154271 1 0 1.000000
0  -10.157724 102.263100 37.905731  -0.013451 0.574383 -0.818476  0.562517 0.154271 1 0 1.000000
skin_0dam
0  -10.157724 102.263100 37.905731  -0.013451 0.574383 -0.818476  0.562517 0.154271 1 0 1.000000
0  -5.684474 102.592667 38.086609  -0.005853 0.574430 -0.818533  0.535173 0.155248 1 0 1.000000
0  -5.684474 102.317940 37.910538  -0.005921 0.574487 -0.818493  0.535173 0.155248 1 0 1.000000
skin_0dam
0  -10.157724 102.003304 37.717152  -0.013915 0.574420 -0.818442  0.562517 0.154271 1 0 1.000000
0  -14.300644 101.461578 37.434769  -0.033567 0.574163 -0.818053  0.587909 0.154271 1 0 1.000000
0  -14.300644 101.721382 37.623352  -0.032137 0.574212 -0.818076  0.587909 0.154271 1 0 1.000000
skin_0dam
0  -14.300644 101.721382 37.623352  -0.032137 0.574212 -0.818076  0.587909 0.154271 1 0 1.000000
0  -10.157724 102.263100 37.905731  -0.013451 0.574383 -0.818476  0.562517 0.154271 1 0 1.000000
0  -10.157724 102.003304 37.717152  -0.013915 0.574420 -0.818442  0.562517 0.154271 1 0 1.000000
skin_0dam
0  -14.300644 101.461578 37.434769  -0.033567 0.574163 -0.818053  0.587909 0.154271 1 0 1.000000
0  -18.264633 100.584282 37.040073  -0.062047 0.573380 -0.816937  0.613300 0.152318 1 0 1.000000
0  -18.264633 100.845284 37.214943  -0.059409 0.573479 -0.817063  0.613300 0.152318 1 0 1.000000
skin_0dam
0  -18.264633 100.845284 37.214943  -0.059409 0.573479 -0.817063  0.613300 0.152318 1 0 1.000000
0  -14.300644 101.721382 37.623352  -0.032137 0.574212 -0.818076  0.587909 0.154271 1 0 1.000000
0  -14.300644 101.461578 37.434769  -0.033567 0.574163 -0.818053  0.587909 0.154271 1 0 1.000000
skin_0dam
0  -18.264633 100.584282 37.040073  -0.062047 0.573380 -0.816937  0.613300 0.152318 1 0 1.000000
0  -21.912054 99.398849 36.535454  -0.090311 0.572217 -0.815114  0.635762 0.151341 1 0 1.000000
0  -21.912054 99.658646 36.724033  -0.087345 0.572260 -0.815407  0.635762 0.151341 1 0 1.000000
skin_0dam
0  -21.912054 99.658646 36.724033  -0.087345 0.572260 -0.815407  0.635762 0.151341 1 0 1.000000
0  -18.264633 100.845284 37.214943  -0.059409 0.573479 -0.817063  0.613300 0.152318 1 0 1.000000
0  -18.264633 100.584282 37.040073  -0.062047 0.573380 -0.816937  0.613300 0.152318 1 0 1.000000
skin_0dam
0  -21.912054 99.398849 36.535454  -0.090311 0.572217 -0.815114  0.635762 0.151341 1 0 1.000000
0  -24.169323 98.504227 36.180687  -0.100303 0.571618 -0.814366  0.644551 0.150365 1 0 1.000000
0  -24.169323 98.764030 36.369263  -0.100311 0.571598 -0.814379  0.644551 0.150365 1 0 1.000000
skin_0dam
0  -24.169323 98.764030 36.369263  -0.100311 0.571598 -0.814379  0.644551 0.150365 1 0 1.000000
0  -21.912054 99.658646 36.724033  -0.087345 0.572260 -0.815407  0.635762 0.151341 1 0 1.000000
0  -21.912054 99.398849 36.535454  -0.090311 0.572217 -0.815114  0.635762 0.151341 1 0 1.000000
skin_0dam
0  -24.485891 98.370728 36.127533  -0.756995 0.375367 -0.534844  0.653340 0.150365 1 0 1.000000
0  -24.596001 98.022911 36.470085  -0.819745 -0.329006 0.468801  0.654317 0.152318 1 0 1.000000
0  -24.596003 98.283913 36.644951  -0.751430 -0.379088 0.540042  0.654317 0.152318 1 0 1.000000
skin_0dam
0  -24.596003 98.283913 36.644951  -0.751430 -0.379088 0.540042  0.654317 0.152318 1 0 1.000000
0  -24.485891 98.630531 36.316105  -0.657005 0.433123 -0.617048  0.653340 0.150365 1 0 1.000000
0  -24.485891 98.370728 36.127533  -0.756995 0.375367 -0.534844  0.653340 0.150365 1 0 1.000000
skin_0dam
0  -24.279436 98.157623 36.509525  0.107756 -0.571172 0.813726  0.645528 0.153294 1 0 1.000000
0  -24.279436 98.417412 36.698109  0.107726 -0.571138 0.813755  0.645528 0.153294 1 0 1.000000
0  -24.596003 98.283913 36.644951  -0.751430 -0.379088 0.540042  0.654317 0.152318 1 0 1.000000
skin_0dam
0  -24.596003 98.283913 36.644951  -0.751430 -0.379088 0.540042  0.654317 0.152318 1 0 1.000000
0  -24.596001 98.022911 36.470085  -0.819745 -0.329006 0.468801  0.654317 0.152318 1 0 1.000000
0  -24.279436 98.157623 36.509525  0.107756 -0.571172 0.813726  0.645528 0.153294 1 0 1.000000
skin_0dam
0  -18.305925 100.319939 37.376125  0.069194 -0.573136 0.816534  0.613300 0.155248 1 0 1.000000
0  -18.305925 100.580933 37.550995  0.066779 -0.573238 0.816663  0.613300 0.155248 1 0 1.000000
0  -22.008400 99.353165 37.056484  0.093998 -0.571977 0.814866  0.636738 0.153294 1 0 1.000000
skin_0dam
0  -22.008400 99.353165 37.056484  0.093998 -0.571977 0.814866  0.636738 0.153294 1 0 1.000000
0  -22.008400 99.093361 36.867905  0.097178 -0.571814 0.814608  0.636738 0.153294 1 0 1.000000
0  -18.305925 100.319939 37.376125  0.069194 -0.573136 0.816534  0.613300 0.155248 1 0 1.000000
skin_0dam
0  -14.328171 101.253281 37.761925  0.041742 -0.573966 0.817815  0.588885 0.156224 1 0 1.000000
0  -14.328171 101.513084 37.950504  0.039925 -0.573776 0.818039  0.588885 0.156224 1 0 1.000000
0  -18.305925 100.580933 37.550995  0.066779 -0.573238 0.816663  0.613300 0.155248 1 0 1.000000
skin_0dam
0  -18.305925 100.580933 37.550995  0.066779 -0.573238 0.816663  0.613300 0.155248 1 0 1.000000
0  -18.305925 100.319939 37.376125  0.069194 -0.573136 0.816534  0.613300 0.155248 1 0 1.000000
0  -14.328171 101.253281 37.761925  0.041742 -0.573966 0.817815  0.588885 0.156224 1 0 1.000000
skin_0dam
0  -10.157724 101.811119 38.018085  0.018890 -0.574413 0.818348  0.562517 0.157201 1 0 1.000000
0  -10.157724 102.070915 38.206665  0.018283 -0.574423 0.818355  0.562517 0.157201 1 0 1.000000
0  -14.328171 101.513084 37.950504  0.039925 -0.573776 0.818039  0.588885 0.156224 1 0 1.000000
skin_0dam
0  -14.328171 101.513084 37.950504  0.039925 -0.573776 0.818039  0.588885 0.156224 1 0 1.000000
0  -14.328171 101.253281 37.761925  0.041742 -0.573966 0.817815  0.588885 0.156224 1 0 1.000000
0  -10.157724 101.811119 38.018085  0.018890 -0.574413 0.818348  0.562517 0.157201 1 0 1.000000
skin_0dam
0  -5.684474 102.128166 38.184048  0.007204 -0.574523 0.818457  0.535173 0.157201 1 0 1.000000
0  -5.684474 102.387962 38.372623  0.007112 -0.574469 0.818496  0.535173 0.157201 1 0 1.000000
0  -10.157724 102.070915 38.206665  0.018283 -0.574423 0.818355  0.562517 0.157201 1 0 1.000000
skin_0dam
0  -10.157724 102.070915 38.206665  0.018283 -0.574423 0.818355  0.562517 0.157201 1 0 1.000000
0  -10.157724 101.811119 38.018085  0.018890 -0.574413 0.818348  0.562517 0.157201 1 0 1.000000
0  -5.684474 102.128166 38.184048  0.007204 -0.574523 0.818457  0.535173 0.157201 1 0 1.000000
skin_0dam
0  -0.013769 102.325417 38.298061  0.000003 -0.574485 0.818515  0.500015 0.157201 1 0 1.000000
0  -0.013769 102.585228 38.486637  -0.000002 -0.574411 0.818567  0.500015 0.157201 1 0 1.000000
0  -5.684474 102.387962 38.372623  0.007112 -0.574469 0.818496  0.535173 0.157201 1 0 1.000000
skin_0dam
0  -5.684474 102.387962 38.372623  0.007112 -0.574469 0.818496  0.535173 0.157201 1 0 1.000000
0  -5.684474 102.128166 38.184048  0.007204 -0.574523 0.818457  0.535173 0.157201 1 0 1.000000
0  -0.013769 102.325417 38.298061  0.000003 -0.574485 0.818515  0.500015 0.157201 1 0 1.000000
skin_0dam
0  5.656937 102.128166 38.184048  -0.007202 -0.574496 0.818476  0.464858 0.157201 1 0 1.000000
0  5.656937 102.387962 38.372623  -0.007111 -0.574503 0.818472  0.464858 0.157201 1 0 1.000000
0  -0.013769 102.585228 38.486637  -0.000002 -0.574411 0.818567  0.500015 0.157201 1 0 1.000000
skin_0dam
0  -0.013769 102.585228 38.486637  -0.000002 -0.574411 0.818567  0.500015 0.157201 1 0 1.000000
0  -0.013769 102.325417 38.298061  0.000003 -0.574485 0.818515  0.500015 0.157201 1 0 1.000000
0  5.656937 102.128166 38.184048  -0.007202 -0.574496 0.818476  0.464858 0.157201 1 0 1.000000
skin_0dam
0  5.656937 102.128166 38.184048  -0.007202 -0.574496 0.818476  0.464858 0.157201 1 0 1.000000
0  10.130188 101.811119 38.018085  -0.018894 -0.574452 0.818320  0.436537 0.157201 1 0 1.000000
0  10.130188 102.070915 38.206665  -0.018283 -0.574412 0.818362  0.436537 0.157201 1 0 1.000000
skin_0dam
0  10.130188 102.070915 38.206665  -0.018283 -0.574412 0.818362  0.436537 0.157201 1 0 1.000000
0  5.656937 102.387962 38.372623  -0.007111 -0.574503 0.818472  0.464858 0.157201 1 0 1.000000
0  5.656937 102.128166 38.184048  -0.007202 -0.574496 0.818476  0.464858 0.157201 1 0 1.000000
skin_0dam
0  10.130188 101.811119 38.018085  -0.018894 -0.574452 0.818320  0.436537 0.157201 1 0 1.000000
0  14.300634 101.253281 37.761925  -0.041746 -0.574004 0.817788  0.411145 0.156224 1 0 1.000000
0  14.300634 101.513084 37.950504  -0.039980 -0.573840 0.817991  0.411145 0.156224 1 0 1.000000
skin_0dam
0  14.300634 101.513084 37.950504  -0.039980 -0.573840 0.817991  0.411145 0.156224 1 0 1.000000
0  10.130188 102.070915 38.206665  -0.018283 -0.574412 0.818362  0.436537 0.157201 1 0 1.000000
0  10.130188 101.811119 38.018085  -0.018894 -0.574452 0.818320  0.436537 0.157201 1 0 1.000000
skin_0dam
0  14.300634 101.253281 37.761925  -0.041746 -0.574004 0.817788  0.411145 0.156224 1 0 1.000000
0  18.278385 100.319939 37.376125  -0.069199 -0.573135 0.816534  0.385754 0.155248 1 0 1.000000
0  18.278385 100.580933 37.550995  -0.066781 -0.573227 0.816670  0.385754 0.155248 1 0 1.000000
skin_0dam
0  18.278385 100.580933 37.550995  -0.066781 -0.573227 0.816670  0.385754 0.155248 1 0 1.000000
0  14.300634 101.513084 37.950504  -0.039980 -0.573840 0.817991  0.411145 0.156224 1 0 1.000000
0  14.300634 101.253281 37.761925  -0.041746 -0.574004 0.817788  0.411145 0.156224 1 0 1.000000
skin_0dam
0  18.278385 100.319939 37.376125  -0.069199 -0.573135 0.816534  0.385754 0.155248 1 0 1.000000
0  21.980860 99.093361 36.867905  -0.097173 -0.571803 0.814615  0.363292 0.153294 1 0 1.000000
0  21.980860 99.353165 37.056484  -0.094001 -0.571987 0.814858  0.363292 0.153294 1 0 1.000000
skin_0dam
0  21.980860 99.353165 37.056484  -0.094001 -0.571987 0.814858  0.363292 0.153294 1 0 1.000000
0  18.278385 100.580933 37.550995  -0.066781 -0.573227 0.816670  0.385754 0.155248 1 0 1.000000
0  18.278385 100.319939 37.376125  -0.069199 -0.573135 0.816534  0.385754 0.155248 1 0 1.000000
skin_0dam
0  21.980860 99.093361 36.867905  -0.097173 -0.571803 0.814615  0.363292 0.153294 1 0 1.000000
0  24.251898 98.157623 36.509525  -0.107759 -0.571179 0.813721  0.354503 0.153294 1 0 1.000000
0  24.251898 98.417412 36.698109  -0.107724 -0.571139 0.813754  0.354503 0.153294 1 0 1.000000
skin_0dam
0  24.251898 98.417412 36.698109  -0.107724 -0.571139 0.813754  0.354503 0.153294 1 0 1.000000
0  21.980860 99.353165 37.056484  -0.094001 -0.571987 0.814858  0.363292 0.153294 1 0 1.000000
0  21.980860 99.093361 36.867905  -0.097173 -0.571803 0.814615  0.363292 0.153294 1 0 1.000000
skin_0dam
0  24.458353 98.370728 36.127533  0.756983 0.375387 -0.534847  0.346690 0.150365 1 0 1.000000
0  24.458353 98.630531 36.316105  0.656958 0.433144 -0.617084  0.346690 0.150365 1 0 1.000000
0  24.568464 98.283913 36.644951  0.751429 -0.379090 0.540041  0.344737 0.152318 1 0 1.000000
skin_0dam
0  24.568464 98.283913 36.644951  0.751429 -0.379090 0.540041  0.344737 0.152318 1 0 1.000000
0  24.568466 98.022911 36.470085  0.819744 -0.329017 0.468794  0.344737 0.152318 1 0 1.000000
0  24.458353 98.370728 36.127533  0.756983 0.375387 -0.534847  0.346690 0.150365 1 0 1.000000
skin_0dam
0  24.141785 98.504227 36.180687  0.100230 0.571607 -0.814383  0.355480 0.150365 1 0 1.000000
0  24.141785 98.764030 36.369263  0.100250 0.571613 -0.814376  0.355480 0.150365 1 0 1.000000
0  24.458353 98.630531 36.316105  0.656958 0.433144 -0.617084  0.346690 0.150365 1 0 1.000000
skin_0dam
0  24.458353 98.630531 36.316105  0.656958 0.433144 -0.617084  0.346690 0.150365 1 0 1.000000
0  24.458353 98.370728 36.127533  0.756983 0.375387 -0.534847  0.346690 0.150365 1 0 1.000000
0  24.141785 98.504227 36.180687  0.100230 0.571607 -0.814383  0.355480 0.150365 1 0 1.000000
skin_0dam
0  18.237093 100.584282 37.040073  0.061990 0.573405 -0.816923  0.386731 0.152318 1 0 1.000000
0  18.237093 100.845284 37.214943  0.059345 0.573470 -0.817075  0.386731 0.152318 1 0 1.000000
0  21.884516 99.658646 36.724033  0.087106 0.571750 -0.815791  0.364269 0.151341 1 0 1.000000
skin_0dam
0  21.884516 99.658646 36.724033  0.087106 0.571750 -0.815791  0.364269 0.151341 1 0 1.000000
0  21.884516 99.398849 36.535454  0.090237 0.572188 -0.815143  0.364269 0.151341 1 0 1.000000
0  18.237093 100.584282 37.040073  0.061990 0.573405 -0.816923  0.386731 0.152318 1 0 1.000000
skin_0dam
0  14.273106 101.721382 37.623352  0.032072 0.574194 -0.818091  0.411145 0.154271 1 0 1.000000
0  14.273106 101.826263 37.687813  0.030575 0.574200 -0.818144  0.411145 0.154271 1 0 1.000000
0  18.237093 100.962685 37.294315  0.056520 0.573536 -0.817228  0.386731 0.152318 1 0 1.000000
skin_0dam
0  18.237093 100.962685 37.294315  0.056520 0.573536 -0.817228  0.386731 0.152318 1 0 1.000000
0  18.237093 100.845284 37.214943  0.059345 0.573470 -0.817075  0.386731 0.152318 1 0 1.000000
0  14.273106 101.721382 37.623352  0.032072 0.574194 -0.818091  0.411145 0.154271 1 0 1.000000
skin_0dam
0  10.130188 102.263100 37.905731  0.013399 0.574467 -0.818418  0.436537 0.154271 1 0 1.000000
0  10.130188 102.367981 37.970192  0.012919 0.574480 -0.818416  0.436537 0.154271 1 0 1.000000
0  14.273106 101.826263 37.687813  0.030575 0.574200 -0.818144  0.411145 0.154271 1 0 1.000000
skin_0dam
0  14.273106 101.826263 37.687813  0.030575 0.574200 -0.818144  0.411145 0.154271 1 0 1.000000
0  14.273106 101.721382 37.623352  0.032072 0.574194 -0.818091  0.411145 0.154271 1 0 1.000000
0  10.130188 102.263100 37.905731  0.013399 0.574467 -0.818418  0.436537 0.154271 1 0 1.000000
skin_0dam
0  5.656937 102.592667 38.086609  0.005838 0.574305 -0.818620  0.464858 0.155248 1 0 1.000000
0  5.656937 102.696342 38.164783  0.005762 0.574556 -0.818445  0.464858 0.155248 1 0 1.000000
0  10.130188 102.367981 37.970192  0.012919 0.574480 -0.818416  0.436537 0.154271 1 0 1.000000
skin_0dam
0  10.130188 102.367981 37.970192  0.012919 0.574480 -0.818416  0.436537 0.154271 1 0 1.000000
0  10.130188 102.263100 37.905731  0.013399 0.574467 -0.818418  0.436537 0.154271 1 0 1.000000
0  5.656937 102.592667 38.086609  0.005838 0.574305 -0.818620  0.464858 0.155248 1 0 1.000000
skin_0dam
0  -0.013769 102.893593 38.278793  -0.000041 0.574488 -0.818513  0.500015 0.155248 1 0 1.000000
0  5.656937 102.696342 38.164783  0.005762 0.574556 -0.818445  0.464858 0.155248 1 0 1.000000
0  5.656937 102.592667 38.086609  0.005838 0.574305 -0.818620  0.464858 0.155248 1 0 1.000000
skin_0dam
0  5.656937 102.592667 38.086609  0.005838 0.574305 -0.818620  0.464858 0.155248 1 0 1.000000
0  -0.013769 102.789917 38.200619  -0.000034 0.574526 -0.818486  0.500015 0.155248 1 0 1.000000
0  -0.013769 102.893593 38.278793  -0.000041 0.574488 -0.818513  0.500015 0.155248 1 0 1.000000
skin_0dam
0  -5.684474 102.696342 38.164783  -0.005830 0.574509 -0.818478  0.535173 0.155248 1 0 1.000000
0  -0.013769 102.893593 38.278793  -0.000041 0.574488 -0.818513  0.500015 0.155248 1 0 1.000000
0  -0.013769 102.789917 38.200619  -0.000034 0.574526 -0.818486  0.500015 0.155248 1 0 1.000000
skin_0dam
0  -0.013769 102.789917 38.200619  -0.000034 0.574526 -0.818486  0.500015 0.155248 1 0 1.000000
0  -5.684474 102.592667 38.086609  -0.005853 0.574430 -0.818533  0.535173 0.155248 1 0 1.000000
0  -5.684474 102.696342 38.164783  -0.005830 0.574509 -0.818478  0.535173 0.155248 1 0 1.000000
skin_0dam
0  -10.157724 102.367981 37.970192  -0.012969 0.574397 -0.818474  0.562517 0.154271 1 0 1.000000
0  -5.684474 102.696342 38.164783  -0.005830 0.574509 -0.818478  0.535173 0.155248 1 0 1.000000
0  -5.684474 102.592667 38.086609  -0.005853 0.574430 -0.818533  0.535173 0.155248 1 0 1.000000
skin_0dam
0  -5.684474 102.592667 38.086609  -0.005853 0.574430 -0.818533  0.535173 0.155248 1 0 1.000000
0  -10.157724 102.263100 37.905731  -0.013451 0.574383 -0.818476  0.562517 0.154271 1 0 1.000000
0  -10.157724 102.367981 37.970192  -0.012969 0.574397 -0.818474  0.562517 0.154271 1 0 1.000000
skin_0dam
0  -14.300644 101.826263 37.687813  -0.030633 0.574234 -0.818118  0.587909 0.154271 1 0 1.000000
0  -10.157724 102.367981 37.970192  -0.012969 0.574397 -0.818474  0.562517 0.154271 1 0 1.000000
0  -10.157724 102.263100 37.905731  -0.013451 0.574383 -0.818476  0.562517 0.154271 1 0 1.000000
skin_0dam
0  -10.157724 102.263100 37.905731  -0.013451 0.574383 -0.818476  0.562517 0.154271 1 0 1.000000
0  -14.300644 101.721382 37.623352  -0.032137 0.574212 -0.818076  0.587909 0.154271 1 0 1.000000
0  -14.300644 101.826263 37.687813  -0.030633 0.574234 -0.818118  0.587909 0.154271 1 0 1.000000
skin_0dam
0  -18.264633 100.962685 37.294315  -0.056593 0.573613 -0.817169  0.613300 0.152318 1 0 1.000000
0  -14.300644 101.826263 37.687813  -0.030633 0.574234 -0.818118  0.587909 0.154271 1 0 1.000000
0  -14.300644 101.721382 37.623352  -0.032137 0.574212 -0.818076  0.587909 0.154271 1 0 1.000000
skin_0dam
0  -14.300644 101.721382 37.623352  -0.032137 0.574212 -0.818076  0.587909 0.154271 1 0 1.000000
0  -18.264633 100.845284 37.214943  -0.059409 0.573479 -0.817063  0.613300 0.152318 1 0 1.000000
0  -18.264633 100.962685 37.294315  -0.056593 0.573613 -0.817169  0.613300 0.152318 1 0 1.000000
skin_0dam
0  -21.912054 99.776031 36.803410  -0.084355 0.572455 -0.815585  0.635762 0.151341 1 0 1.000000
0  -18.264633 100.962685 37.294315  -0.056593 0.573613 -0.817169  0.613300 0.152318 1 0 1.000000
0  -18.264633 100.845284 37.214943  -0.059409 0.573479 -0.817063  0.613300 0.152318 1 0 1.000000
skin_0dam
0  -18.264633 100.845284 37.214943  -0.059409 0.573479 -0.817063  0.613300 0.152318 1 0 1.000000
0  -21.912054 99.658646 36.724033  -0.087345 0.572260 -0.815407  0.635762 0.151341 1 0 1.000000
0  -21.912054 99.776031 36.803410  -0.084355 0.572455 -0.815585  0.635762 0.151341 1 0 1.000000
skin_0dam
0  -24.485891 98.747917 36.395485  -0.557115 0.477097 -0.679707  0.653340 0.150365 1 0 1.000000
0  -24.169323 98.867706 36.447433  -0.100285 0.571543 -0.814421  0.644551 0.150365 1 0 1.000000
0  -24.169323 98.764030 36.369263  -0.100311 0.571598 -0.814379  0.644551 0.150365 1 0 1.000000
skin_0dam
0  -24.169323 98.764030 36.369263  -0.100311 0.571598 -0.814379  0.644551 0.150365 1 0 1.000000
0  -24.485891 98.630531 36.316105  -0.657005 0.433123 -0.617048  0.653340 0.150365 1 0 1.000000
0  -24.485891 98.747917 36.395485  -0.557115 0.477097 -0.679707  0.653340 0.150365 1 0 1.000000
skin_0dam
0  -24.596003 98.387589 36.723125  -0.699748 -0.410408 0.584737  0.654317 0.152318 1 0 1.000000
0  -24.485891 98.747917 36.395485  -0.557115 0.477097 -0.679707  0.653340 0.150365 1 0 1.000000
0  -24.485891 98.630531 36.316105  -0.657005 0.433123 -0.617048  0.653340 0.150365 1 0 1.000000
skin_0dam
0  -24.485891 98.630531 36.316105  -0.657005 0.433123 -0.617048  0.653340 0.150365 1 0 1.000000
0  -24.596003 98.283913 36.644951  -0.751430 -0.379088 0.540042  0.654317 0.152318 1 0 1.000000
0  -24.596003 98.387589 36.723125  -0.699748 -0.410408 0.584737  0.654317 0.152318 1 0 1.000000
skin_0dam
0  -22.008400 99.353165 37.056484  0.093998 -0.571977 0.814866  0.636738 0.153294 1 0 1.000000
0  -22.008400 99.456841 37.134659  0.090694 -0.572120 0.815140  0.636738 0.153294 1 0 1.000000
0  -24.279436 98.521103 36.776279  0.107674 -0.571054 0.813820  0.645528 0.153294 1 0 1.000000
skin_0dam
0  -24.279436 98.521103 36.776279  0.107674 -0.571054 0.813820  0.645528 0.153294 1 0 1.000000
0  -24.279436 98.417412 36.698109  0.107726 -0.571138 0.813755  0.645528 0.153294 1 0 1.000000
0  -22.008400 99.353165 37.056484  0.093998 -0.571977 0.814866  0.636738 0.153294 1 0 1.000000
skin_0dam
0  -18.305925 100.580933 37.550995  0.066779 -0.573238 0.816663  0.613300 0.155248 1 0 1.000000
0  -18.305925 100.698326 37.630367  0.064232 -0.573374 0.816772  0.613300 0.155248 1 0 1.000000
0  -22.008400 99.456841 37.134659  0.090694 -0.572120 0.815140  0.636738 0.153294 1 0 1.000000
skin_0dam
0  -22.008400 99.456841 37.134659  0.090694 -0.572120 0.815140  0.636738 0.153294 1 0 1.000000
0  -22.008400 99.353165 37.056484  0.093998 -0.571977 0.814866  0.636738 0.153294 1 0 1.000000
0  -18.305925 100.580933 37.550995  0.066779 -0.573238 0.816663  0.613300 0.155248 1 0 1.000000
skin_0dam
0  -14.328171 101.513084 37.950504  0.039925 -0.573776 0.818039  0.588885 0.156224 1 0 1.000000
0  -14.328171 101.630478 38.029881  0.038505 -0.574062 0.817906  0.588885 0.156224 1 0 1.000000
0  -18.305925 100.698326 37.630367  0.064232 -0.573374 0.816772  0.613300 0.155248 1 0 1.000000
skin_0dam
0  -18.305925 100.698326 37.630367  0.064232 -0.573374 0.816772  0.613300 0.155248 1 0 1.000000
0  -18.305925 100.580933 37.550995  0.066779 -0.573238 0.816663  0.613300 0.155248 1 0 1.000000
0  -14.328171 101.513084 37.950504  0.039925 -0.573776 0.818039  0.588885 0.156224 1 0 1.000000
skin_0dam
0  -10.157724 102.070915 38.206665  0.018283 -0.574423 0.818355  0.562517 0.157201 1 0 1.000000
0  -10.157724 102.175797 38.271126  0.017672 -0.574403 0.818382  0.562517 0.157201 1 0 1.000000
0  -14.328171 101.630478 38.029881  0.038505 -0.574062 0.817906  0.588885 0.156224 1 0 1.000000
skin_0dam
0  -14.328171 101.630478 38.029881  0.038505 -0.574062 0.817906  0.588885 0.156224 1 0 1.000000
0  -14.328171 101.513084 37.950504  0.039925 -0.573776 0.818039  0.588885 0.156224 1 0 1.000000
0  -10.157724 102.070915 38.206665  0.018283 -0.574423 0.818355  0.562517 0.157201 1 0 1.000000
skin_0dam
0  -5.684474 102.387962 38.372623  0.007112 -0.574469 0.818496  0.535173 0.157201 1 0 1.000000
0  -5.684474 102.491638 38.450794  0.007020 -0.574492 0.818480  0.535173 0.157201 1 0 1.000000
0  -10.157724 102.175797 38.271126  0.017672 -0.574403 0.818382  0.562517 0.157201 1 0 1.000000
skin_0dam
0  -10.157724 102.175797 38.271126  0.017672 -0.574403 0.818382  0.562517 0.157201 1 0 1.000000
0  -10.157724 102.070915 38.206665  0.018283 -0.574423 0.818355  0.562517 0.157201 1 0 1.000000
0  -5.684474 102.387962 38.372623  0.007112 -0.574469 0.818496  0.535173 0.157201 1 0 1.000000
skin_0dam
0  -0.013769 102.703819 38.552299  -0.000005 -0.574099 0.818786  0.500015 0.157201 1 0 1.000000
0  -5.684474 102.491638 38.450794  0.007020 -0.574492 0.818480  0.535173 0.157201 1 0 1.000000
0  -5.684474 102.387962 38.372623  0.007112 -0.574469 0.818496  0.535173 0.157201 1 0 1.000000
skin_0dam
0  -5.684474 102.387962 38.372623  0.007112 -0.574469 0.818496  0.535173 0.157201 1 0 1.000000
0  -0.013769 102.585228 38.486637  -0.000002 -0.574411 0.818567  0.500015 0.157201 1 0 1.000000
0  -0.013769 102.703819 38.552299  -0.000005 -0.574099 0.818786  0.500015 0.157201 1 0 1.000000
skin_0dam
0  5.656937 102.491638 38.450794  -0.007019 -0.574536 0.818449  0.464858 0.157201 1 0 1.000000
0  -0.013769 102.703819 38.552299  -0.000005 -0.574099 0.818786  0.500015 0.157201 1 0 1.000000
0  -0.013769 102.585228 38.486637  -0.000002 -0.574411 0.818567  0.500015 0.157201 1 0 1.000000
skin_0dam
0  -0.013769 102.585228 38.486637  -0.000002 -0.574411 0.818567  0.500015 0.157201 1 0 1.000000
0  5.656937 102.387962 38.372623  -0.007111 -0.574503 0.818472  0.464858 0.157201 1 0 1.000000
0  5.656937 102.491638 38.450794  -0.007019 -0.574536 0.818449  0.464858 0.157201 1 0 1.000000
skin_0dam
0  10.130188 102.175797 38.271126  -0.017673 -0.574378 0.818399  0.436537 0.157201 1 0 1.000000
0  5.656937 102.491638 38.450794  -0.007019 -0.574536 0.818449  0.464858 0.157201 1 0 1.000000
0  5.656937 102.387962 38.372623  -0.007111 -0.574503 0.818472  0.464858 0.157201 1 0 1.000000
skin_0dam
0  5.656937 102.387962 38.372623  -0.007111 -0.574503 0.818472  0.464858 0.157201 1 0 1.000000
0  10.130188 102.070915 38.206665  -0.018283 -0.574412 0.818362  0.436537 0.157201 1 0 1.000000
0  10.130188 102.175797 38.271126  -0.017673 -0.574378 0.818399  0.436537 0.157201 1 0 1.000000
skin_0dam
0  14.300634 101.630478 38.029881  -0.038510 -0.574102 0.817878  0.411145 0.156224 1 0 1.000000
0  10.130188 102.175797 38.271126  -0.017673 -0.574378 0.818399  0.436537 0.157201 1 0 1.000000
0  10.130188 102.070915 38.206665  -0.018283 -0.574412 0.818362  0.436537 0.157201 1 0 1.000000
skin_0dam
0  10.130188 102.070915 38.206665  -0.018283 -0.574412 0.818362  0.436537 0.157201 1 0 1.000000
0  14.300634 101.513084 37.950504  -0.039980 -0.573840 0.817991  0.411145 0.156224 1 0 1.000000
0  14.300634 101.630478 38.029881  -0.038510 -0.574102 0.817878  0.411145 0.156224 1 0 1.000000
skin_0dam
0  18.278385 100.698326 37.630367  -0.064221 -0.573307 0.816820  0.385754 0.155248 1 0 1.000000
0  14.300634 101.630478 38.029881  -0.038510 -0.574102 0.817878  0.411145 0.156224 1 0 1.000000
0  14.300634 101.513084 37.950504  -0.039980 -0.573840 0.817991  0.411145 0.156224 1 0 1.000000
skin_0dam
0  14.300634 101.513084 37.950504  -0.039980 -0.573840 0.817991  0.411145 0.156224 1 0 1.000000
0  18.278385 100.580933 37.550995  -0.066781 -0.573227 0.816670  0.385754 0.155248 1 0 1.000000
0  18.278385 100.698326 37.630367  -0.064221 -0.573307 0.816820  0.385754 0.155248 1 0 1.000000
skin_0dam
0  21.980860 99.456841 37.134659  -0.090692 -0.572136 0.815129  0.363292 0.153294 1 0 1.000000
0  18.278385 100.698326 37.630367  -0.064221 -0.573307 0.816820  0.385754 0.155248 1 0 1.000000
0  18.278385 100.580933 37.550995  -0.066781 -0.573227 0.816670  0.385754 0.155248 1 0 1.000000
skin_0dam
0  18.278385 100.580933 37.550995  -0.066781 -0.573227 0.816670  0.385754 0.155248 1 0 1.000000
0  21.980860 99.353165 37.056484  -0.094001 -0.571987 0.814858  0.363292 0.153294 1 0 1.000000
0  21.980860 99.456841 37.134659  -0.090692 -0.572136 0.815129  0.363292 0.153294 1 0 1.000000
skin_0dam
0  24.568464 98.387589 36.723125  0.699741 -0.410394 0.584755  0.344737 0.152318 1 0 1.000000
0  24.251898 98.521103 36.776279  -0.107693 -0.571051 0.813820  0.354503 0.153294 1 0 1.000000
0  24.251898 98.417412 36.698109  -0.107724 -0.571139 0.813754  0.354503 0.153294 1 0 1.000000
skin_0dam
0  24.251898 98.417412 36.698109  -0.107724 -0.571139 0.813754  0.354503 0.153294 1 0 1.000000
0  24.568464 98.283913 36.644951  0.751429 -0.379090 0.540041  0.344737 0.152318 1 0 1.000000
0  24.568464 98.387589 36.723125  0.699741 -0.410394 0.584755  0.344737 0.152318 1 0 1.000000
skin_0dam
0  24.458353 98.630531 36.316105  0.656958 0.433144 -0.617084  0.346690 0.150365 1 0 1.000000
0  24.458353 98.747917 36.395485  0.557083 0.477134 -0.679707  0.346690 0.150365 1 0 1.000000
0  24.568464 98.387589 36.723125  0.699741 -0.410394 0.584755  0.344737 0.152318 1 0 1.000000
skin_0dam
0  24.568464 98.387589 36.723125  0.699741 -0.410394 0.584755  0.344737 0.152318 1 0 1.000000
0  24.568464 98.283913 36.644951  0.751429 -0.379090 0.540041  0.344737 0.152318 1 0 1.000000
0  24.458353 98.630531 36.316105  0.656958 0.433144 -0.617084  0.346690 0.150365 1 0 1.000000
skin_0dam
0  21.884516 99.658646 36.724033  0.087106 0.571750 -0.815791  0.364269 0.151341 1 0 1.000000
0  21.884516 99.776031 36.803410  0.084285 0.572474 -0.815579  0.364269 0.151341 1 0 1.000000
0  24.141785 98.867706 36.447433  0.100228 0.571556 -0.814419  0.355480 0.150365 1 0 1.000000
skin_0dam
0  24.141785 98.867706 36.447433  0.100228 0.571556 -0.814419  0.355480 0.150365 1 0 1.000000
0  24.141785 98.764030 36.369263  0.100250 0.571613 -0.814376  0.355480 0.150365 1 0 1.000000
0  21.884516 99.658646 36.724033  0.087106 0.571750 -0.815791  0.364269 0.151341 1 0 1.000000
skin_0dam
0  18.237093 100.845284 37.214943  0.059345 0.573470 -0.817075  0.386731 0.152318 1 0 1.000000
0  18.237093 100.962685 37.294315  0.056520 0.573536 -0.817228  0.386731 0.152318 1 0 1.000000
0  21.884516 99.776031 36.803410  0.084285 0.572474 -0.815579  0.364269 0.151341 1 0 1.000000
skin_0dam
0  21.884516 99.776031 36.803410  0.084285 0.572474 -0.815579  0.364269 0.151341 1 0 1.000000
0  21.884516 99.658646 36.724033  0.087106 0.571750 -0.815791  0.364269 0.151341 1 0 1.000000
0  18.237093 100.845284 37.214943  0.059345 0.573470 -0.817075  0.386731 0.152318 1 0 1.000000
skin_0dam
0  -24.485891 98.747917 36.395485  -0.376444 0.696443 0.610948  0.653340 0.150365 1 0 1.000000
0  -24.596003 98.387589 36.723125  -0.381146 0.693349 0.611552  0.654317 0.152318 1 0 1.000000
0  -24.279436 98.521103 36.776279  -0.379764 0.695912 0.609496  0.645528 0.153294 1 0 1.000000
skin_0dam
0  -24.279436 98.521103 36.776279  -0.379764 0.695912 0.609496  0.645528 0.153294 1 0 1.000000
0  -24.169323 98.867706 36.447433  -0.378506 0.699472 0.606194  0.644551 0.150365 1 0 1.000000
0  -24.485891 98.747917 36.395485  -0.376444 0.696443 0.610948  0.653340 0.150365 1 0 1.000000
skin_0dam
0  -24.169323 98.504227 36.180687  -0.100303 0.571618 -0.814366  0.644551 0.150365 1 0 1.000000
0  -24.485891 98.370728 36.127533  -0.756995 0.375367 -0.534844  0.653340 0.150365 1 0 1.000000
0  -24.485891 98.630531 36.316105  -0.657005 0.433123 -0.617048  0.653340 0.150365 1 0 1.000000
skin_0dam
0  -24.485891 98.630531 36.316105  -0.657005 0.433123 -0.617048  0.653340 0.150365 1 0 1.000000
0  -24.169323 98.764030 36.369263  -0.100311 0.571598 -0.814379  0.644551 0.150365 1 0 1.000000
0  -24.169323 98.504227 36.180687  -0.100303 0.571618 -0.814366  0.644551 0.150365 1 0 1.000000
skin_0dam
0  -22.008400 99.093361 36.867905  0.097178 -0.571814 0.814608  0.636738 0.153294 1 0 1.000000
0  -22.008400 99.353165 37.056484  0.093998 -0.571977 0.814866  0.636738 0.153294 1 0 1.000000
0  -24.279436 98.417412 36.698109  0.107726 -0.571138 0.813755  0.645528 0.153294 1 0 1.000000
skin_0dam
0  -24.279436 98.417412 36.698109  0.107726 -0.571138 0.813755  0.645528 0.153294 1 0 1.000000
0  -24.279436 98.157623 36.509525  0.107756 -0.571172 0.813726  0.645528 0.153294 1 0 1.000000
0  -22.008400 99.093361 36.867905  0.097178 -0.571814 0.814608  0.636738 0.153294 1 0 1.000000
skin_0dam
0  -24.169323 98.867706 36.447433  -0.100285 0.571543 -0.814421  0.644551 0.150365 1 0 1.000000
0  -21.912054 99.776031 36.803410  -0.084355 0.572455 -0.815585  0.635762 0.151341 1 0 1.000000
0  -21.912054 99.658646 36.724033  -0.087345 0.572260 -0.815407  0.635762 0.151341 1 0 1.000000
skin_0dam
0  -21.912054 99.658646 36.724033  -0.087345 0.572260 -0.815407  0.635762 0.151341 1 0 1.000000
0  -24.169323 98.764030 36.369263  -0.100311 0.571598 -0.814379  0.644551 0.150365 1 0 1.000000
0  -24.169323 98.867706 36.447433  -0.100285 0.571543 -0.814421  0.644551 0.150365 1 0 1.000000
skin_0dam
0  -24.596003 98.387589 36.723125  -0.699748 -0.410408 0.584737  0.654317 0.152318 1 0 1.000000
0  -24.596003 98.283913 36.644951  -0.751430 -0.379088 0.540042  0.654317 0.152318 1 0 1.000000
0  -24.279436 98.417412 36.698109  0.107726 -0.571138 0.813755  0.645528 0.153294 1 0 1.000000
skin_0dam
0  -24.279436 98.417412 36.698109  0.107726 -0.571138 0.813755  0.645528 0.153294 1 0 1.000000
0  -24.279436 98.521103 36.776279  0.107674 -0.571054 0.813820  0.645528 0.153294 1 0 1.000000
0  -24.596003 98.387589 36.723125  -0.699748 -0.410408 0.584737  0.654317 0.152318 1 0 1.000000
skin_0dam
0  24.141785 98.867706 36.447433  0.378559 0.699509 0.606119  0.355480 0.150365 1 0 1.000000
0  21.884516 99.776031 36.803410  0.347100 0.732978 0.585034  0.364269 0.151341 1 0 1.000000
0  21.980860 99.456841 37.134659  0.358566 0.728656 0.583516  0.363292 0.153294 1 0 1.000000
skin_0dam
0  21.980860 99.456841 37.134659  0.358566 0.728656 0.583516  0.363292 0.153294 1 0 1.000000
0  24.251898 98.521103 36.776279  0.379724 0.695910 0.609523  0.354503 0.153294 1 0 1.000000
0  24.141785 98.867706 36.447433  0.378559 0.699509 0.606119  0.355480 0.150365 1 0 1.000000
skin_0dam
0  24.251898 98.157623 36.509525  -0.107759 -0.571179 0.813721  0.354503 0.153294 1 0 1.000000
0  24.568466 98.022911 36.470085  0.819744 -0.329017 0.468794  0.344737 0.152318 1 0 1.000000
0  24.568464 98.283913 36.644951  0.751429 -0.379090 0.540041  0.344737 0.152318 1 0 1.000000
skin_0dam
0  24.568464 98.283913 36.644951  0.751429 -0.379090 0.540041  0.344737 0.152318 1 0 1.000000
0  24.251898 98.417412 36.698109  -0.107724 -0.571139 0.813754  0.354503 0.153294 1 0 1.000000
0  24.251898 98.157623 36.509525  -0.107759 -0.571179 0.813721  0.354503 0.153294 1 0 1.000000
skin_0dam
0  21.884516 99.398849 36.535454  0.090237 0.572188 -0.815143  0.364269 0.151341 1 0 1.000000
0  21.884516 99.658646 36.724033  0.087106 0.571750 -0.815791  0.364269 0.151341 1 0 1.000000
0  24.141785 98.764030 36.369263  0.100250 0.571613 -0.814376  0.355480 0.150365 1 0 1.000000
skin_0dam
0  24.141785 98.764030 36.369263  0.100250 0.571613 -0.814376  0.355480 0.150365 1 0 1.000000
0  24.141785 98.504227 36.180687  0.100230 0.571607 -0.814383  0.355480 0.150365 1 0 1.000000
0  21.884516 99.398849 36.535454  0.090237 0.572188 -0.815143  0.364269 0.151341 1 0 1.000000
skin_0dam
0  24.251898 98.521103 36.776279  -0.107693 -0.571051 0.813820  0.354503 0.153294 1 0 1.000000
0  21.980860 99.456841 37.134659  -0.090692 -0.572136 0.815129  0.363292 0.153294 1 0 1.000000
0  21.980860 99.353165 37.056484  -0.094001 -0.571987 0.814858  0.363292 0.153294 1 0 1.000000
skin_0dam
0  21.980860 99.353165 37.056484  -0.094001 -0.571987 0.814858  0.363292 0.153294 1 0 1.000000
0  24.251898 98.417412 36.698109  -0.107724 -0.571139 0.813754  0.354503 0.153294 1 0 1.000000
0  24.251898 98.521103 36.776279  -0.107693 -0.571051 0.813820  0.354503 0.153294 1 0 1.000000
skin_0dam
0  24.458353 98.747917 36.395485  0.557083 0.477134 -0.679707  0.346690 0.150365 1 0 1.000000
0  24.458353 98.630531 36.316105  0.656958 0.433144 -0.617084  0.346690 0.150365 1 0 1.000000
0  24.141785 98.764030 36.369263  0.100250 0.571613 -0.814376  0.355480 0.150365 1 0 1.000000
skin_0dam
0  24.141785 98.764030 36.369263  0.100250 0.571613 -0.814376  0.355480 0.150365 1 0 1.000000
0  24.141785 98.867706 36.447433  0.100228 0.571556 -0.814419  0.355480 0.150365 1 0 1.000000
0  24.458353 98.747917 36.395485  0.557083 0.477134 -0.679707  0.346690 0.150365 1 0 1.000000
end
