version 1
nodes
0 "blender_implicit" -1
1 "root" -1
2 "steering_wheel" 1
end
skeleton
time 0
0  0.000000 0.000000 0.000000  0.000000 -0.000000 0.000000
1  0.000000 0.000000 0.000000  1.570796 -0.000000 0.000000
2  16.207815 27.240572 20.061567  0.000000 -0.000000 0.000000
end
triangles
licenseplate
0  6.575926 91.605835 17.681204  0.000000 0.964244 0.265014  0.013672 0.021484 1 1 1.000000
0  -6.575926 91.605835 17.681204  0.000000 0.964245 0.265014  0.982422 0.021484 1 1 1.000000
0  -6.575926 90.066978 23.280273  0.000000 0.964244 0.265014  0.982422 0.982422 1 1 1.000000
licenseplate
0  -6.575926 90.066978 23.280273  0.000000 0.964244 0.265014  0.982422 0.982422 1 1 1.000000
0  6.575925 90.066978 23.280273  0.000000 0.964244 0.265015  0.013672 0.982422 1 1 1.000000
0  6.575926 91.605835 17.681204  0.000000 0.964244 0.265014  0.013672 0.021484 1 1 1.000000
licenseplate
0  -6.719587 90.153160 23.251547  -0.278165 0.893160 0.353397  0.988281 0.978516 1 1 1.000000
0  -6.473151 90.091698 23.475119  0.005866 0.930212 0.366975  0.978516 0.990234 1 1 1.000000
0  -6.575926 90.066978 23.280273  0.389251 0.921084 -0.009412  0.982422 0.982422 1 1 1.000000
licenseplate
0  6.575926 91.605835 17.681204  -0.389246 0.786967 0.478717  0.013672 0.021484 1 1 1.000000
0  6.575925 90.066978 23.280273  -0.265932 0.958226 -0.105277  0.013672 0.982422 1 1 1.000000
0  6.719587 90.153160 23.251545  0.035342 0.929029 0.368314  0.007812 0.978516 1 1 1.000000
licenseplate
0  6.719587 90.153160 23.251545  0.035342 0.929029 0.368314  0.007812 0.978516 1 1 1.000000
0  6.719587 91.665245 17.749941  0.280322 0.948318 0.148704  0.007812 0.023438 1 1 1.000000
0  6.575926 91.605835 17.681204  -0.389246 0.786967 0.478717  0.013672 0.021484 1 1 1.000000
licenseplate
0  6.719587 91.665245 17.749941  0.280322 0.948318 0.148704  0.007812 0.023438 1 1 1.000000
0  6.473444 91.726692 17.526373  -0.003639 0.987528 0.157398  0.017578 0.009766 1 1 1.000000
0  6.575926 91.605835 17.681204  -0.389246 0.786967 0.478717  0.013672 0.021484 1 1 1.000000
licenseplate
0  -6.575926 90.066978 23.280273  0.389251 0.921084 -0.009412  0.982422 0.982422 1 1 1.000000
0  -6.575926 91.605835 17.681204  0.265972 0.769616 0.580473  0.982422 0.021484 1 1 1.000000
0  -6.719585 91.665245 17.749941  -0.033810 0.986184 0.162167  0.988281 0.023438 1 1 1.000000
licenseplate
0  -6.719585 91.665245 17.749941  -0.033810 0.986184 0.162167  0.988281 0.023438 1 1 1.000000
0  -6.719587 90.153160 23.251547  -0.278165 0.893160 0.353397  0.988281 0.978516 1 1 1.000000
0  -6.575926 90.066978 23.280273  0.389251 0.921084 -0.009412  0.982422 0.982422 1 1 1.000000
licenseplate
0  -6.490476 89.925217 23.587170  -0.322620 0.565199 0.759254  0.978516 0.998047 1 1 1.000000
0  -6.473151 90.091698 23.475119  0.005866 0.930212 0.366975  0.978516 0.990234 1 1 1.000000
0  -6.719587 90.153160 23.251547  -0.278165 0.893160 0.353397  0.988281 0.978516 1 1 1.000000
licenseplate
0  -6.719587 90.153160 23.251547  -0.278165 0.893160 0.353397  0.988281 0.978516 1 1 1.000000
0  -6.864501 90.010612 23.276424  -0.580151 0.670479 0.462474  0.996094 0.982422 1 1 1.000000
0  -6.490476 89.925217 23.587170  -0.322620 0.565199 0.759254  0.978516 0.998047 1 1 1.000000
licenseplate
0  6.719587 91.665245 17.749941  0.280322 0.948318 0.148704  0.007812 0.023438 1 1 1.000000
0  6.719587 90.153160 23.251545  0.035342 0.929029 0.368314  0.007812 0.978516 1 1 1.000000
0  6.864499 90.010612 23.276424  0.615820 0.691825 0.377020  0.001953 0.982422 1 1 1.000000
licenseplate
0  6.864499 90.010612 23.276424  0.615820 0.691825 0.377020  0.001953 0.982422 1 1 1.000000
0  6.864501 91.555435 17.655716  0.578827 0.813405 -0.057717  0.001953 0.019531 1 1 1.000000
0  6.719587 91.665245 17.749941  0.280322 0.948318 0.148704  0.007812 0.023438 1 1 1.000000
licenseplate
0  6.483223 91.640839 17.344967  0.325079 0.869940 -0.370848  0.017578 0.001953 1 1 1.000000
0  6.473444 91.726692 17.526373  -0.003639 0.987528 0.157398  0.017578 0.009766 1 1 1.000000
0  6.719587 91.665245 17.749941  0.280322 0.948318 0.148704  0.007812 0.023438 1 1 1.000000
licenseplate
0  6.719587 91.665245 17.749941  0.280322 0.948318 0.148704  0.007812 0.023438 1 1 1.000000
0  6.864501 91.555435 17.655716  0.578827 0.813405 -0.057717  0.001953 0.019531 1 1 1.000000
0  6.483223 91.640839 17.344967  0.325079 0.869940 -0.370848  0.017578 0.001953 1 1 1.000000
licenseplate
0  -6.719587 90.153160 23.251547  -0.278165 0.893160 0.353397  0.988281 0.978516 1 1 1.000000
0  -6.719585 91.665245 17.749941  -0.033810 0.986184 0.162167  0.988281 0.023438 1 1 1.000000
0  -6.864499 91.555428 17.655716  -0.616624 0.786628 0.031486  0.996094 0.019531 1 1 1.000000
licenseplate
0  -6.864499 91.555428 17.655716  -0.616624 0.786628 0.031486  0.996094 0.019531 1 1 1.000000
0  -6.864501 90.010612 23.276424  -0.580151 0.670479 0.462474  0.996094 0.982422 1 1 1.000000
0  -6.719587 90.153160 23.251547  -0.278165 0.893160 0.353397  0.988281 0.978516 1 1 1.000000
licenseplate
0  6.482536 89.925217 23.587170  0.244785 0.564152 0.788551  0.017578 0.998047 1 1 1.000000
0  6.472770 90.091698 23.475119  -0.006521 0.939092 0.343603  0.019531 0.990234 1 1 1.000000
0  -6.473151 90.091698 23.475119  0.005866 0.930212 0.366975  0.978516 0.990234 1 1 1.000000
licenseplate
0  -6.473151 90.091698 23.475119  0.005866 0.930212 0.366975  0.978516 0.990234 1 1 1.000000
0  -6.490476 89.925217 23.587170  -0.322620 0.565199 0.759254  0.978516 0.998047 1 1 1.000000
0  6.482536 89.925217 23.587170  0.244785 0.564152 0.788551  0.017578 0.998047 1 1 1.000000
licenseplate
0  6.482536 89.925217 23.587170  0.244785 0.564152 0.788551  0.017578 0.998047 1 1 1.000000
0  6.864499 90.010612 23.276424  0.615820 0.691825 0.377020  0.001953 0.982422 1 1 1.000000
0  6.719587 90.153160 23.251545  0.035342 0.929029 0.368314  0.007812 0.978516 1 1 1.000000
licenseplate
0  6.719587 90.153160 23.251545  0.035342 0.929029 0.368314  0.007812 0.978516 1 1 1.000000
0  6.472770 90.091698 23.475119  -0.006521 0.939092 0.343603  0.019531 0.990234 1 1 1.000000
0  6.482536 89.925217 23.587170  0.244785 0.564152 0.788551  0.017578 0.998047 1 1 1.000000
licenseplate
0  -6.489789 91.640839 17.344969  -0.243026 0.890688 -0.384206  0.978516 0.001953 1 1 1.000000
0  -6.472478 91.726692 17.526375  0.009852 0.981995 0.188650  0.978516 0.009766 1 1 1.000000
0  6.473444 91.726692 17.526373  -0.003639 0.987528 0.157398  0.017578 0.009766 1 1 1.000000
licenseplate
0  6.473444 91.726692 17.526373  -0.003639 0.987528 0.157398  0.017578 0.009766 1 1 1.000000
0  6.483223 91.640839 17.344967  0.325079 0.869940 -0.370848  0.017578 0.001953 1 1 1.000000
0  -6.489789 91.640839 17.344969  -0.243026 0.890688 -0.384206  0.978516 0.001953 1 1 1.000000
licenseplate
0  -6.489789 91.640839 17.344969  -0.243026 0.890688 -0.384206  0.978516 0.001953 1 1 1.000000
0  -6.864499 91.555428 17.655716  -0.616624 0.786628 0.031486  0.996094 0.019531 1 1 1.000000
0  -6.719585 91.665245 17.749941  -0.033810 0.986184 0.162167  0.988281 0.023438 1 1 1.000000
licenseplate
0  -6.719585 91.665245 17.749941  -0.033810 0.986184 0.162167  0.988281 0.023438 1 1 1.000000
0  -6.472478 91.726692 17.526375  0.009852 0.981995 0.188650  0.978516 0.009766 1 1 1.000000
0  -6.489789 91.640839 17.344969  -0.243026 0.890688 -0.384206  0.978516 0.001953 1 1 1.000000
licenseplate
0  -6.575926 91.605835 17.681204  0.265972 0.769616 0.580473  0.982422 0.021484 1 1 1.000000
0  6.575926 91.605835 17.681204  -0.389246 0.786967 0.478717  0.013672 0.021484 1 1 1.000000
0  6.473444 91.726692 17.526373  -0.003639 0.987528 0.157398  0.017578 0.009766 1 1 1.000000
licenseplate
0  6.473444 91.726692 17.526373  -0.003639 0.987528 0.157398  0.017578 0.009766 1 1 1.000000
0  -6.472478 91.726692 17.526375  0.009852 0.981995 0.188650  0.978516 0.009766 1 1 1.000000
0  -6.575926 91.605835 17.681204  0.265972 0.769616 0.580473  0.982422 0.021484 1 1 1.000000
licenseplate
0  -6.472478 91.726692 17.526375  0.009852 0.981995 0.188650  0.978516 0.009766 1 1 1.000000
0  -6.719585 91.665245 17.749941  -0.033810 0.986184 0.162167  0.988281 0.023438 1 1 1.000000
0  -6.575926 91.605835 17.681204  0.265972 0.769616 0.580473  0.982422 0.021484 1 1 1.000000
licenseplate
0  6.575925 90.066978 23.280273  -0.265932 0.958226 -0.105277  0.013672 0.982422 1 1 1.000000
0  -6.575926 90.066978 23.280273  0.389251 0.921084 -0.009412  0.982422 0.982422 1 1 1.000000
0  -6.473151 90.091698 23.475119  0.005866 0.930212 0.366975  0.978516 0.990234 1 1 1.000000
licenseplate
0  -6.473151 90.091698 23.475119  0.005866 0.930212 0.366975  0.978516 0.990234 1 1 1.000000
0  6.472770 90.091698 23.475119  -0.006521 0.939092 0.343603  0.019531 0.990234 1 1 1.000000
0  6.575925 90.066978 23.280273  -0.265932 0.958226 -0.105277  0.013672 0.982422 1 1 1.000000
licenseplate
0  6.472770 90.091698 23.475119  -0.006521 0.939092 0.343603  0.019531 0.990234 1 1 1.000000
0  6.719587 90.153160 23.251545  0.035342 0.929029 0.368314  0.007812 0.978516 1 1 1.000000
0  6.575925 90.066978 23.280273  -0.265932 0.958226 -0.105277  0.013672 0.982422 1 1 1.000000
end
