version 1
nodes
0 "blender_implicit" -1
1 "root" -1
2 "steering_wheel" 1
end
skeleton
time 0
0  0.000000 0.000000 0.000000  0.000000 -0.000000 0.000000
1  0.000000 0.000000 0.000000  1.570796 -0.000000 0.000000
2  16.131233 25.153429 3.255158  -0.000002 -0.000000 0.000000
end
triangles
chromemisc
0  36.419147 2.573843 35.414379  -0.205975 0.969956 0.129462  0.028321 0.537095 1 1 1.000000
0  38.167156 2.986758 35.111576  -0.205970 0.969956 0.129470  0.012696 0.531236 1 1 1.000000
0  39.268265 3.399673 33.721424  -0.206793 0.969764 0.129595  0.002930 0.506821 1 1 1.000000
chromemisc
0  39.213207 3.633659 31.918360  -0.206038 0.969837 0.130246  0.002930 0.475570 1 1 1.000000
0  34.203171 2.449968 32.826775  -0.205934 0.969954 0.129541  0.046876 0.491195 1 1 1.000000
0  34.863834 2.353621 34.519730  -0.205964 0.969951 0.129514  0.041993 0.520493 1 1 1.000000
chromemisc
0  34.863834 2.353621 34.519730  -0.205964 0.969951 0.129514  0.041993 0.520493 1 1 1.000000
0  39.268265 3.399673 33.721424  -0.206793 0.969764 0.129595  0.002930 0.506821 1 1 1.000000
0  39.213207 3.633659 31.918360  -0.206038 0.969837 0.130246  0.002930 0.475570 1 1 1.000000
chromemisc
0  38.043282 3.564840 30.541973  -0.205946 0.969994 0.129221  0.012696 0.452132 1 1 1.000000
0  34.767487 2.794064 31.133825  -0.205983 0.969954 0.129462  0.041993 0.461898 1 1 1.000000
0  34.203171 2.449968 32.826775  -0.205934 0.969954 0.129541  0.046876 0.491195 1 1 1.000000
chromemisc
0  34.203171 2.449968 32.826775  -0.205934 0.969954 0.129541  0.046876 0.491195 1 1 1.000000
0  39.213207 3.633659 31.918360  -0.206038 0.969837 0.130246  0.002930 0.475570 1 1 1.000000
0  38.043282 3.564840 30.541973  -0.205946 0.969994 0.129221  0.012696 0.452132 1 1 1.000000
chromemisc
0  34.767487 2.794064 31.133825  -0.205983 0.969954 0.129462  0.041993 0.461898 1 1 1.000000
0  38.043282 3.564840 30.541973  -0.205946 0.969994 0.129221  0.012696 0.452132 1 1 1.000000
0  36.281509 3.234507 30.239176  -0.205802 0.969963 0.129680  0.028321 0.446272 1 1 1.000000
chromemisc
0  39.268265 3.399673 33.721424  -0.206793 0.969764 0.129595  0.002930 0.506821 1 1 1.000000
0  34.863834 2.353621 34.519730  -0.205964 0.969951 0.129514  0.041993 0.520493 1 1 1.000000
0  36.419147 2.573843 35.414379  -0.205975 0.969956 0.129462  0.028321 0.537095 1 1 1.000000
aluminium
0  34.271988 2.119635 33.762718  -0.150784 -0.988485 0.012725  0.372082 0.457015 1 1 1.000000
0  34.079296 2.215982 32.799248  -0.213527 -0.971993 -0.098157  0.372082 0.457015 1 1 1.000000
0  34.891361 2.078344 32.289982  -0.128500 -0.974634 -0.183239  0.372082 0.457015 1 1 1.000000
aluminium
0  34.891361 2.078344 32.289982  -0.128500 -0.974634 -0.183239  0.372082 0.457015 1 1 1.000000
0  35.097820 1.995761 33.294746  -0.043150 -0.999064 -0.003117  0.372082 0.457015 1 1 1.000000
0  34.271988 2.119635 33.762718  -0.150784 -0.988485 0.012725  0.372082 0.457015 1 1 1.000000
aluminium
0  35.097820 1.995761 33.294746  -0.043150 -0.999064 -0.003117  0.372082 0.457015 1 1 1.000000
0  34.767487 2.119635 34.616074  -0.020812 -0.995683 0.090456  0.372082 0.457015 1 1 1.000000
0  34.271988 2.119635 33.762718  -0.150784 -0.988485 0.012725  0.372082 0.457015 1 1 1.000000
aluminium
0  35.524498 2.202218 35.235447  0.075569 -0.990439 0.115414  0.372082 0.457015 1 1 1.000000
0  34.767487 2.119635 34.616074  -0.020812 -0.995683 0.090456  0.372082 0.457015 1 1 1.000000
0  35.097820 1.995761 33.294746  -0.043150 -0.999064 -0.003117  0.372082 0.457015 1 1 1.000000
aluminium
0  35.097820 1.995761 33.294746  -0.043150 -0.999064 -0.003117  0.372082 0.457015 1 1 1.000000
0  35.882359 2.078344 33.955410  0.122577 -0.990485 0.062564  0.372082 0.457015 1 1 1.000000
0  35.524498 2.202218 35.235447  0.075569 -0.990439 0.115414  0.372082 0.457015 1 1 1.000000
aluminium
0  35.882359 2.078344 33.955410  0.122577 -0.990485 0.062564  0.372082 0.457015 1 1 1.000000
0  36.432911 2.339857 35.565781  0.178350 -0.978581 0.102818  0.372082 0.457015 1 1 1.000000
0  35.524498 2.202218 35.235447  0.075569 -0.990439 0.115414  0.372082 0.457015 1 1 1.000000
aluminium
0  37.396381 2.546315 35.565781  0.245058 -0.966373 0.077913  0.372082 0.457015 1 1 1.000000
0  36.432911 2.339857 35.565781  0.178350 -0.978581 0.102818  0.372082 0.457015 1 1 1.000000
0  35.882359 2.078344 33.955410  0.122577 -0.990485 0.062564  0.372082 0.457015 1 1 1.000000
aluminium
0  35.882359 2.078344 33.955410  0.122577 -0.990485 0.062564  0.372082 0.457015 1 1 1.000000
0  36.887119 2.284802 33.955410  0.255265 -0.966436 0.028988  0.372082 0.457015 1 1 1.000000
0  37.396381 2.546315 35.565781  0.245058 -0.966373 0.077913  0.372082 0.457015 1 1 1.000000
aluminium
0  36.887119 2.284802 33.955410  0.255265 -0.966436 0.028988  0.372082 0.457015 1 1 1.000000
0  38.291031 2.780300 35.235447  0.304952 -0.951780 0.033441  0.372082 0.457015 1 1 1.000000
0  37.396381 2.546315 35.565781  0.245058 -0.966373 0.077913  0.372082 0.457015 1 1 1.000000
aluminium
0  39.020512 3.014286 34.616074  0.341965 -0.939649 -0.010901  0.372082 0.457015 1 1 1.000000
0  38.291031 2.780300 35.235447  0.304952 -0.951780 0.033441  0.372082 0.457015 1 1 1.000000
0  36.887119 2.284802 33.955410  0.255265 -0.966436 0.028988  0.372082 0.457015 1 1 1.000000
aluminium
0  36.887119 2.284802 33.955410  0.255265 -0.966436 0.028988  0.372082 0.457015 1 1 1.000000
0  37.630367 2.532551 33.294746  0.331267 -0.942087 -0.052293  0.372082 0.457015 1 1 1.000000
0  39.020512 3.014286 34.616074  0.341965 -0.939649 -0.010901  0.372082 0.457015 1 1 1.000000
aluminium
0  37.630367 2.532551 33.294746  0.331267 -0.942087 -0.052293  0.372082 0.457015 1 1 1.000000
0  39.474724 3.234508 33.762718  0.369157 -0.926794 -0.069117  0.372082 0.457015 1 1 1.000000
0  39.020512 3.014286 34.616074  0.341965 -0.939649 -0.010901  0.372082 0.457015 1 1 1.000000
aluminium
0  39.612362 3.385910 32.799248  0.379807 -0.916772 -0.123597  0.372082 0.457015 1 1 1.000000
0  39.474724 3.234508 33.762718  0.369157 -0.926794 -0.069117  0.372082 0.457015 1 1 1.000000
0  37.630367 2.532551 33.294746  0.331267 -0.942087 -0.052293  0.372082 0.457015 1 1 1.000000
aluminium
0  37.630367 2.532551 33.294746  0.331267 -0.942087 -0.052293  0.372082 0.457015 1 1 1.000000
0  37.781769 2.697717 32.289982  0.353186 -0.922091 -0.158140  0.372082 0.457015 1 1 1.000000
0  39.612362 3.385910 32.799248  0.379807 -0.916772 -0.123597  0.372082 0.457015 1 1 1.000000
aluminium
0  37.781769 2.697717 32.289982  0.353186 -0.922091 -0.158140  0.372082 0.457015 1 1 1.000000
0  39.419666 3.482256 31.849541  0.377280 -0.906195 -0.190975  0.372082 0.457015 1 1 1.000000
0  39.612362 3.385910 32.799248  0.379807 -0.916772 -0.123597  0.372082 0.457015 1 1 1.000000
aluminium
0  38.924168 3.482256 30.996183  0.358075 -0.899161 -0.251578  0.372082 0.457015 1 1 1.000000
0  39.419666 3.482256 31.849541  0.377280 -0.906195 -0.190975  0.372082 0.457015 1 1 1.000000
0  37.781769 2.697717 32.289982  0.353186 -0.922091 -0.158140  0.372082 0.457015 1 1 1.000000
aluminium
0  37.781769 2.697717 32.289982  0.353186 -0.922091 -0.158140  0.372082 0.457015 1 1 1.000000
0  37.258739 2.711481 31.409100  0.310547 -0.909044 -0.277850  0.372082 0.457015 1 1 1.000000
0  38.924168 3.482256 30.996183  0.358075 -0.899161 -0.251578  0.372082 0.457015 1 1 1.000000
aluminium
0  37.258739 2.711481 31.409100  0.310547 -0.909044 -0.277850  0.372082 0.457015 1 1 1.000000
0  38.167156 3.399673 30.376810  0.314550 -0.891429 -0.326211  0.372082 0.457015 1 1 1.000000
0  38.924168 3.482256 30.996183  0.358075 -0.899161 -0.251578  0.372082 0.457015 1 1 1.000000
aluminium
0  37.258739 3.262035 30.032715  0.250643 -0.889906 -0.381110  0.372082 0.457015 1 1 1.000000
0  38.167156 3.399673 30.376810  0.314550 -0.891429 -0.326211  0.372082 0.457015 1 1 1.000000
0  37.258739 2.711481 31.409100  0.310547 -0.909044 -0.277850  0.372082 0.457015 1 1 1.000000
aluminium
0  37.258739 2.711481 31.409100  0.310547 -0.909044 -0.277850  0.372082 0.457015 1 1 1.000000
0  36.309036 2.546314 31.065002  0.176019 -0.910122 -0.375093  0.372082 0.457015 1 1 1.000000
0  37.258739 3.262035 30.032715  0.250643 -0.889906 -0.381110  0.372082 0.457015 1 1 1.000000
aluminium
0  36.309036 2.546314 31.065002  0.176019 -0.910122 -0.375093  0.372082 0.457015 1 1 1.000000
0  36.295273 3.055577 30.032715  0.139094 -0.888295 -0.437704  0.372082 0.457015 1 1 1.000000
0  37.258739 3.262035 30.032715  0.250643 -0.889906 -0.381110  0.372082 0.457015 1 1 1.000000
aluminium
0  35.400623 2.821591 30.376812  0.024203 -0.896658 -0.442063  0.372082 0.457015 1 1 1.000000
0  36.295273 3.055577 30.032715  0.139094 -0.888295 -0.437704  0.372082 0.457015 1 1 1.000000
0  36.309036 2.546314 31.065002  0.176019 -0.910122 -0.375093  0.372082 0.457015 1 1 1.000000
aluminium
0  36.309036 2.546314 31.065002  0.176019 -0.910122 -0.375093  0.372082 0.457015 1 1 1.000000
0  35.373093 2.298565 31.409100  -0.024642 -0.934100 -0.356159  0.372082 0.457015 1 1 1.000000
0  35.400623 2.821591 30.376812  0.024203 -0.896658 -0.442063  0.372082 0.457015 1 1 1.000000
aluminium
0  35.373093 2.298565 31.409100  -0.024642 -0.934100 -0.356159  0.372082 0.457015 1 1 1.000000
0  34.671139 2.573842 30.996185  -0.135954 -0.913626 -0.383150  0.372082 0.457015 1 1 1.000000
0  35.400623 2.821591 30.376812  0.024203 -0.896658 -0.442063  0.372082 0.457015 1 1 1.000000
aluminium
0  34.216934 2.367385 31.849543  -0.213074 -0.937232 -0.276035  0.372082 0.457015 1 1 1.000000
0  34.671139 2.573842 30.996185  -0.135954 -0.913626 -0.383150  0.372082 0.457015 1 1 1.000000
0  35.373093 2.298565 31.409100  -0.024642 -0.934100 -0.356159  0.372082 0.457015 1 1 1.000000
aluminium
0  35.373093 2.298565 31.409100  -0.024642 -0.934100 -0.356159  0.372082 0.457015 1 1 1.000000
0  34.891361 2.078344 32.289982  -0.128500 -0.974634 -0.183239  0.372082 0.457015 1 1 1.000000
0  34.216934 2.367385 31.849543  -0.213074 -0.937232 -0.276035  0.372082 0.457015 1 1 1.000000
aluminium
0  34.891361 2.078344 32.289982  -0.128500 -0.974634 -0.183239  0.372082 0.457015 1 1 1.000000
0  34.079296 2.215982 32.799248  -0.213527 -0.971993 -0.098157  0.372082 0.457015 1 1 1.000000
0  34.216934 2.367385 31.849543  -0.213074 -0.937232 -0.276035  0.372082 0.457015 1 1 1.000000
aluminium
0  34.106823 2.546314 33.845299  -0.858109 -0.409097 0.310304  0.372082 0.457015 1 1 1.000000
0  33.900364 2.628898 32.868069  -0.925185 -0.378802 -0.023281  0.372082 0.457015 1 1 1.000000
0  34.079296 2.215982 32.799248  -0.925191 -0.378788 -0.023287  0.372082 0.457015 1 1 1.000000
aluminium
0  34.079296 2.215982 32.799248  -0.925191 -0.378788 -0.023287  0.372082 0.457015 1 1 1.000000
0  34.271988 2.119635 33.762718  -0.858091 -0.409124 0.310318  0.372082 0.457015 1 1 1.000000
0  34.106823 2.546314 33.845299  -0.858109 -0.409097 0.310304  0.372082 0.457015 1 1 1.000000
aluminium
0  34.616081 2.532551 34.726185  -0.683233 -0.410966 0.603573  0.372082 0.457015 1 1 1.000000
0  34.106823 2.546314 33.845299  -0.858109 -0.409097 0.310304  0.372082 0.457015 1 1 1.000000
0  34.271988 2.119635 33.762718  -0.858091 -0.409124 0.310318  0.372082 0.457015 1 1 1.000000
aluminium
0  34.271988 2.119635 33.762718  -0.858091 -0.409124 0.310318  0.372082 0.457015 1 1 1.000000
0  34.767487 2.119635 34.616074  -0.683060 -0.411074 0.603694  0.372082 0.457015 1 1 1.000000
0  34.616081 2.532551 34.726185  -0.683233 -0.410966 0.603573  0.372082 0.457015 1 1 1.000000
aluminium
0  35.400623 2.615134 35.373085  -0.421141 -0.384566 0.821431  0.372082 0.457015 1 1 1.000000
0  34.616081 2.532551 34.726185  -0.683233 -0.410966 0.603573  0.372082 0.457015 1 1 1.000000
0  34.767487 2.119635 34.616074  -0.683060 -0.411074 0.603694  0.372082 0.457015 1 1 1.000000
aluminium
0  34.767487 2.119635 34.616074  -0.683060 -0.411074 0.603694  0.372082 0.457015 1 1 1.000000
0  35.524498 2.202218 35.235447  -0.421146 -0.384568 0.821428  0.372082 0.457015 1 1 1.000000
0  35.400623 2.615134 35.373085  -0.421141 -0.384566 0.821431  0.372082 0.457015 1 1 1.000000
aluminium
0  36.336563 2.766536 35.703419  -0.103916 -0.332463 0.937374  0.372082 0.457015 1 1 1.000000
0  35.400623 2.615134 35.373085  -0.421141 -0.384566 0.821431  0.372082 0.457015 1 1 1.000000
0  35.524498 2.202218 35.235447  -0.421146 -0.384568 0.821428  0.372082 0.457015 1 1 1.000000
aluminium
0  35.524498 2.202218 35.235447  -0.421146 -0.384568 0.821428  0.372082 0.457015 1 1 1.000000
0  36.432911 2.339857 35.565781  -0.103977 -0.332685 0.937288  0.372082 0.457015 1 1 1.000000
0  36.336563 2.766536 35.703419  -0.103916 -0.332463 0.937374  0.372082 0.457015 1 1 1.000000
aluminium
0  37.327560 2.972994 35.703419  0.230078 -0.261881 0.937274  0.372082 0.457015 1 1 1.000000
0  36.336563 2.766536 35.703419  -0.103916 -0.332463 0.937374  0.372082 0.457015 1 1 1.000000
0  36.432911 2.339857 35.565781  -0.103977 -0.332685 0.937288  0.372082 0.457015 1 1 1.000000
aluminium
0  36.432911 2.339857 35.565781  -0.103977 -0.332685 0.937288  0.372082 0.457015 1 1 1.000000
0  37.396381 2.546315 35.565781  0.230156 -0.261797 0.937278  0.372082 0.457015 1 1 1.000000
0  37.327560 2.972994 35.703419  0.230078 -0.261881 0.937274  0.372082 0.457015 1 1 1.000000
aluminium
0  38.249737 3.220743 35.373085  0.541086 -0.180288 0.821415  0.372082 0.457015 1 1 1.000000
0  37.327560 2.972994 35.703419  0.230078 -0.261881 0.937274  0.372082 0.457015 1 1 1.000000
0  37.396381 2.546315 35.565781  0.230156 -0.261797 0.937278  0.372082 0.457015 1 1 1.000000
aluminium
0  37.396381 2.546315 35.565781  0.230156 -0.261797 0.937278  0.372082 0.457015 1 1 1.000000
0  38.291031 2.780300 35.235447  0.541062 -0.180281 0.821432  0.372082 0.457015 1 1 1.000000
0  38.249737 3.220743 35.373085  0.541086 -0.180288 0.821415  0.372082 0.457015 1 1 1.000000
aluminium
0  38.992985 3.468493 34.726185  0.791171 -0.098164 0.603665  0.372082 0.457015 1 1 1.000000
0  38.249737 3.220743 35.373085  0.541086 -0.180288 0.821415  0.372082 0.457015 1 1 1.000000
0  38.291031 2.780300 35.235447  0.541062 -0.180281 0.821432  0.372082 0.457015 1 1 1.000000
aluminium
0  38.291031 2.780300 35.235447  0.541062 -0.180281 0.821432  0.372082 0.457015 1 1 1.000000
0  39.020512 3.014286 34.616074  0.791132 -0.098106 0.603726  0.372082 0.457015 1 1 1.000000
0  38.992985 3.468493 34.726185  0.791171 -0.098164 0.603665  0.372082 0.457015 1 1 1.000000
aluminium
0  39.460957 3.674951 33.845299  0.950314 -0.025163 0.310273  0.372082 0.457015 1 1 1.000000
0  38.992985 3.468493 34.726185  0.791171 -0.098164 0.603665  0.372082 0.457015 1 1 1.000000
0  39.020512 3.014286 34.616074  0.791132 -0.098106 0.603726  0.372082 0.457015 1 1 1.000000
aluminium
0  39.020512 3.014286 34.616074  0.791132 -0.098106 0.603726  0.372082 0.457015 1 1 1.000000
0  39.474724 3.234508 33.762718  0.950300 -0.025151 0.310317  0.372082 0.457015 1 1 1.000000
0  39.460957 3.674951 33.845299  0.950314 -0.025163 0.310273  0.372082 0.457015 1 1 1.000000
aluminium
0  39.598598 3.840117 32.868069  0.999286 0.029781 -0.023263  0.372082 0.457015 1 1 1.000000
0  39.460957 3.674951 33.845299  0.950314 -0.025163 0.310273  0.372082 0.457015 1 1 1.000000
0  39.474724 3.234508 33.762718  0.950300 -0.025151 0.310317  0.372082 0.457015 1 1 1.000000
aluminium
0  39.474724 3.234508 33.762718  0.950300 -0.025151 0.310317  0.372082 0.457015 1 1 1.000000
0  39.612362 3.385910 32.799248  0.999284 0.029791 -0.023313  0.372082 0.457015 1 1 1.000000
0  39.598598 3.840117 32.868069  0.999286 0.029781 -0.023263  0.372082 0.457015 1 1 1.000000
aluminium
0  39.405903 3.936464 31.877069  0.932203 0.060067 -0.356918  0.372082 0.457015 1 1 1.000000
0  39.598598 3.840117 32.868069  0.999286 0.029781 -0.023263  0.372082 0.457015 1 1 1.000000
0  39.612362 3.385910 32.799248  0.999284 0.029791 -0.023313  0.372082 0.457015 1 1 1.000000
aluminium
0  39.612362 3.385910 32.799248  0.999284 0.029791 -0.023313  0.372082 0.457015 1 1 1.000000
0  39.419666 3.482256 31.849541  0.932202 0.060018 -0.356929  0.372082 0.457015 1 1 1.000000
0  39.405903 3.936464 31.877069  0.932203 0.060067 -0.356918  0.372082 0.457015 1 1 1.000000
aluminium
0  38.882874 3.936464 31.009947  0.757158 0.062075 -0.650276  0.372082 0.457015 1 1 1.000000
0  39.405903 3.936464 31.877069  0.932203 0.060067 -0.356918  0.372082 0.457015 1 1 1.000000
0  39.419666 3.482256 31.849541  0.932202 0.060018 -0.356929  0.372082 0.457015 1 1 1.000000
aluminium
0  39.419666 3.482256 31.849541  0.932202 0.060018 -0.356929  0.372082 0.457015 1 1 1.000000
0  38.924168 3.482256 30.996183  0.757160 0.062080 -0.650273  0.372082 0.457015 1 1 1.000000
0  38.882874 3.936464 31.009947  0.757158 0.062075 -0.650276  0.372082 0.457015 1 1 1.000000
aluminium
0  38.112099 3.853880 30.363047  0.495122 0.035680 -0.868090  0.372082 0.457015 1 1 1.000000
0  38.882874 3.936464 31.009947  0.757158 0.062075 -0.650276  0.372082 0.457015 1 1 1.000000
0  38.924168 3.482256 30.996183  0.757160 0.062080 -0.650273  0.372082 0.457015 1 1 1.000000
aluminium
0  38.924168 3.482256 30.996183  0.757160 0.062080 -0.650273  0.372082 0.457015 1 1 1.000000
0  38.167156 3.399673 30.376810  0.495077 0.035662 -0.868117  0.372082 0.457015 1 1 1.000000
0  38.112099 3.853880 30.363047  0.495122 0.035680 -0.868090  0.372082 0.457015 1 1 1.000000
aluminium
0  37.176159 3.702478 30.018951  0.178105 -0.016325 -0.983876  0.372082 0.457015 1 1 1.000000
0  38.112099 3.853880 30.363047  0.495122 0.035680 -0.868090  0.372082 0.457015 1 1 1.000000
0  38.167156 3.399673 30.376810  0.495077 0.035662 -0.868117  0.372082 0.457015 1 1 1.000000
aluminium
0  38.167156 3.399673 30.376810  0.495077 0.035662 -0.868117  0.372082 0.457015 1 1 1.000000
0  37.258739 3.262035 30.032715  0.178073 -0.016357 -0.983881  0.372082 0.457015 1 1 1.000000
0  37.176159 3.702478 30.018951  0.178105 -0.016325 -0.983876  0.372082 0.457015 1 1 1.000000
aluminium
0  36.185162 3.496020 30.018951  -0.156109 -0.087270 -0.983877  0.372082 0.457015 1 1 1.000000
0  37.176159 3.702478 30.018951  0.178105 -0.016325 -0.983876  0.372082 0.457015 1 1 1.000000
0  37.258739 3.262035 30.032715  0.178073 -0.016357 -0.983881  0.372082 0.457015 1 1 1.000000
aluminium
0  37.258739 3.262035 30.032715  0.178073 -0.016357 -0.983881  0.372082 0.457015 1 1 1.000000
0  36.295273 3.055577 30.032715  -0.156107 -0.087265 -0.983878  0.372082 0.457015 1 1 1.000000
0  36.185162 3.496020 30.018951  -0.156109 -0.087270 -0.983877  0.372082 0.457015 1 1 1.000000
aluminium
0  35.262981 3.248271 30.363049  -0.466963 -0.168756 -0.868025  0.372082 0.457015 1 1 1.000000
0  36.185162 3.496020 30.018951  -0.156109 -0.087270 -0.983877  0.372082 0.457015 1 1 1.000000
0  36.295273 3.055577 30.032715  -0.156107 -0.087265 -0.983878  0.372082 0.457015 1 1 1.000000
aluminium
0  36.295273 3.055577 30.032715  -0.156107 -0.087265 -0.983878  0.372082 0.457015 1 1 1.000000
0  35.400623 2.821591 30.376812  -0.466977 -0.168794 -0.868010  0.372082 0.457015 1 1 1.000000
0  35.262981 3.248271 30.363049  -0.466963 -0.168756 -0.868025  0.372082 0.457015 1 1 1.000000
aluminium
0  34.519737 3.014286 31.009949  -0.717071 -0.250916 -0.650269  0.372082 0.457015 1 1 1.000000
0  35.262981 3.248271 30.363049  -0.466963 -0.168756 -0.868025  0.372082 0.457015 1 1 1.000000
0  35.400623 2.821591 30.376812  -0.466977 -0.168794 -0.868010  0.372082 0.457015 1 1 1.000000
aluminium
0  35.400623 2.821591 30.376812  -0.466977 -0.168794 -0.868010  0.372082 0.457015 1 1 1.000000
0  34.671139 2.573842 30.996185  -0.717072 -0.250917 -0.650268  0.372082 0.457015 1 1 1.000000
0  34.519737 3.014286 31.009949  -0.717071 -0.250916 -0.650269  0.372082 0.457015 1 1 1.000000
aluminium
0  34.051762 2.794064 31.877071  -0.876204 -0.323878 -0.356889  0.372082 0.457015 1 1 1.000000
0  34.519737 3.014286 31.009949  -0.717071 -0.250916 -0.650269  0.372082 0.457015 1 1 1.000000
0  34.671139 2.573842 30.996185  -0.717072 -0.250917 -0.650268  0.372082 0.457015 1 1 1.000000
aluminium
0  34.671139 2.573842 30.996185  -0.717072 -0.250917 -0.650268  0.372082 0.457015 1 1 1.000000
0  34.216934 2.367385 31.849543  -0.876202 -0.323882 -0.356889  0.372082 0.457015 1 1 1.000000
0  34.051762 2.794064 31.877071  -0.876204 -0.323878 -0.356889  0.372082 0.457015 1 1 1.000000
aluminium
0  33.900364 2.628898 32.868069  -0.925185 -0.378802 -0.023281  0.372082 0.457015 1 1 1.000000
0  34.051762 2.794064 31.877071  -0.876204 -0.323878 -0.356889  0.372082 0.457015 1 1 1.000000
0  34.216934 2.367385 31.849543  -0.876202 -0.323882 -0.356889  0.372082 0.457015 1 1 1.000000
aluminium
0  34.216934 2.367385 31.849543  -0.876202 -0.323882 -0.356889  0.372082 0.457015 1 1 1.000000
0  34.079296 2.215982 32.799248  -0.925191 -0.378788 -0.023287  0.372082 0.457015 1 1 1.000000
0  33.900364 2.628898 32.868069  -0.925185 -0.378802 -0.023281  0.372082 0.457015 1 1 1.000000
aluminium
0  35.607079 2.092108 32.248692  -0.005390 -0.984216 -0.176887  0.372082 0.457015 1 1 1.000000
0  35.675900 2.050816 32.592789  0.042663 -0.997603 -0.054486  0.372082 0.457015 1 1 1.000000
0  35.097820 1.995761 33.294746  -0.043150 -0.999064 -0.003117  0.372082 0.457015 1 1 1.000000
aluminium
0  35.097820 1.995761 33.294746  -0.043150 -0.999064 -0.003117  0.372082 0.457015 1 1 1.000000
0  34.891361 2.078344 32.289982  -0.128500 -0.974634 -0.183239  0.372082 0.457015 1 1 1.000000
0  35.607079 2.092108 32.248692  -0.005390 -0.984216 -0.176887  0.372082 0.457015 1 1 1.000000
aluminium
0  35.675900 2.050816 32.592789  0.042663 -0.997603 -0.054486  0.372082 0.457015 1 1 1.000000
0  35.951180 2.078344 32.813011  0.148101 -0.988972 -0.000267  0.372082 0.457015 1 1 1.000000
0  35.882359 2.078344 33.955410  0.122577 -0.990485 0.062564  0.372082 0.457015 1 1 1.000000
aluminium
0  35.882359 2.078344 33.955410  0.122577 -0.990485 0.062564  0.372082 0.457015 1 1 1.000000
0  35.097820 1.995761 33.294746  -0.043150 -0.999064 -0.003117  0.372082 0.457015 1 1 1.000000
0  35.675900 2.050816 32.592789  0.042663 -0.997603 -0.054486  0.372082 0.457015 1 1 1.000000
aluminium
0  35.951180 2.078344 32.813011  0.148101 -0.988972 -0.000267  0.372082 0.457015 1 1 1.000000
0  36.295273 2.160927 32.813011  0.242334 -0.970066 -0.015692  0.372082 0.457015 1 1 1.000000
0  36.887119 2.284802 33.955410  0.255265 -0.966436 0.028988  0.372082 0.457015 1 1 1.000000
aluminium
0  36.887119 2.284802 33.955410  0.255265 -0.966436 0.028988  0.372082 0.457015 1 1 1.000000
0  35.882359 2.078344 33.955410  0.122577 -0.990485 0.062564  0.372082 0.457015 1 1 1.000000
0  35.951180 2.078344 32.813011  0.148101 -0.988972 -0.000267  0.372082 0.457015 1 1 1.000000
aluminium
0  36.295273 2.160927 32.813011  0.242334 -0.970066 -0.015692  0.372082 0.457015 1 1 1.000000
0  36.556786 2.243510 32.592789  0.302663 -0.950289 -0.073121  0.372082 0.457015 1 1 1.000000
0  37.630367 2.532551 33.294746  0.331267 -0.942087 -0.052293  0.372082 0.457015 1 1 1.000000
aluminium
0  37.630367 2.532551 33.294746  0.331267 -0.942087 -0.052293  0.372082 0.457015 1 1 1.000000
0  36.887119 2.284802 33.955410  0.255265 -0.966436 0.028988  0.372082 0.457015 1 1 1.000000
0  36.295273 2.160927 32.813011  0.242334 -0.970066 -0.015692  0.372082 0.457015 1 1 1.000000
aluminium
0  36.556786 2.243510 32.592789  0.302663 -0.950289 -0.073121  0.372082 0.457015 1 1 1.000000
0  36.598076 2.298566 32.248692  0.321792 -0.933648 -0.157324  0.372082 0.457015 1 1 1.000000
0  37.781769 2.697717 32.289982  0.353186 -0.922091 -0.158140  0.372082 0.457015 1 1 1.000000
aluminium
0  37.781769 2.697717 32.289982  0.353186 -0.922091 -0.158140  0.372082 0.457015 1 1 1.000000
0  37.630367 2.532551 33.294746  0.331267 -0.942087 -0.052293  0.372082 0.457015 1 1 1.000000
0  36.556786 2.243510 32.592789  0.302663 -0.950289 -0.073121  0.372082 0.457015 1 1 1.000000
aluminium
0  36.598076 2.298566 32.248692  0.321792 -0.933648 -0.157324  0.372082 0.457015 1 1 1.000000
0  36.419147 2.298566 31.945889  0.284408 -0.924744 -0.252905  0.372082 0.457015 1 1 1.000000
0  37.258739 2.711481 31.409100  0.310547 -0.909044 -0.277850  0.372082 0.457015 1 1 1.000000
aluminium
0  37.258739 2.711481 31.409100  0.310547 -0.909044 -0.277850  0.372082 0.457015 1 1 1.000000
0  37.781769 2.697717 32.289982  0.353186 -0.922091 -0.158140  0.372082 0.457015 1 1 1.000000
0  36.598076 2.298566 32.248692  0.321792 -0.933648 -0.157324  0.372082 0.457015 1 1 1.000000
aluminium
0  36.419147 2.298566 31.945889  0.284408 -0.924744 -0.252905  0.372082 0.457015 1 1 1.000000
0  36.088814 2.243510 31.835779  0.177832 -0.931472 -0.317390  0.372082 0.457015 1 1 1.000000
0  36.309036 2.546314 31.065002  0.176019 -0.910122 -0.375093  0.372082 0.457015 1 1 1.000000
aluminium
0  36.309036 2.546314 31.065002  0.176019 -0.910122 -0.375093  0.372082 0.457015 1 1 1.000000
0  37.258739 2.711481 31.409100  0.310547 -0.909044 -0.277850  0.372082 0.457015 1 1 1.000000
0  36.419147 2.298566 31.945889  0.284408 -0.924744 -0.252905  0.372082 0.457015 1 1 1.000000
aluminium
0  36.088814 2.243510 31.835779  0.177832 -0.931472 -0.317390  0.372082 0.457015 1 1 1.000000
0  35.772247 2.160927 31.945889  0.051540 -0.956044 -0.288657  0.372082 0.457015 1 1 1.000000
0  35.373093 2.298565 31.409100  -0.024642 -0.934100 -0.356159  0.372082 0.457015 1 1 1.000000
aluminium
0  35.373093 2.298565 31.409100  -0.024642 -0.934100 -0.356159  0.372082 0.457015 1 1 1.000000
0  36.309036 2.546314 31.065002  0.176019 -0.910122 -0.375093  0.372082 0.457015 1 1 1.000000
0  36.088814 2.243510 31.835779  0.177832 -0.931472 -0.317390  0.372082 0.457015 1 1 1.000000
aluminium
0  35.772247 2.160927 31.945889  0.051540 -0.956044 -0.288657  0.372082 0.457015 1 1 1.000000
0  35.607079 2.092108 32.248692  -0.005390 -0.984216 -0.176887  0.372082 0.457015 1 1 1.000000
0  34.891361 2.078344 32.289982  -0.128500 -0.974634 -0.183239  0.372082 0.457015 1 1 1.000000
aluminium
0  34.891361 2.078344 32.289982  -0.128500 -0.974634 -0.183239  0.372082 0.457015 1 1 1.000000
0  35.373093 2.298565 31.409100  -0.024642 -0.934100 -0.356159  0.372082 0.457015 1 1 1.000000
0  35.772247 2.160927 31.945889  0.051540 -0.956044 -0.288657  0.372082 0.457015 1 1 1.000000
aluminium
0  34.547264 2.408676 33.680134  0.277912 0.958832 -0.058364  0.372082 0.457015 1 1 1.000000
0  34.368332 2.477495 32.826775  0.312234 0.943394 0.111881  0.372082 0.457015 1 1 1.000000
0  33.900364 2.628898 32.868069  0.312100 0.943426 0.111985  0.372082 0.457015 1 1 1.000000
aluminium
0  33.900364 2.628898 32.868069  0.312100 0.943426 0.111985  0.372082 0.457015 1 1 1.000000
0  34.106823 2.546314 33.845299  0.277819 0.958909 -0.057536  0.372082 0.457015 1 1 1.000000
0  34.547264 2.408676 33.680134  0.277912 0.958832 -0.058364  0.372082 0.457015 1 1 1.000000
aluminium
0  34.987709 2.394912 34.409618  0.188695 0.959885 -0.207399  0.372082 0.457015 1 1 1.000000
0  34.547264 2.408676 33.680134  0.277912 0.958832 -0.058364  0.372082 0.457015 1 1 1.000000
0  34.106823 2.546314 33.845299  0.277819 0.958909 -0.057536  0.372082 0.457015 1 1 1.000000
aluminium
0  34.106823 2.546314 33.845299  0.277819 0.958909 -0.057536  0.372082 0.457015 1 1 1.000000
0  34.616081 2.532551 34.726185  0.188691 0.959880 -0.207428  0.372082 0.457015 1 1 1.000000
0  34.987709 2.394912 34.409618  0.188695 0.959885 -0.207399  0.372082 0.457015 1 1 1.000000
aluminium
0  35.648373 2.463732 34.960175  0.055087 0.946391 -0.318292  0.372082 0.457015 1 1 1.000000
0  34.987709 2.394912 34.409618  0.188695 0.959885 -0.207399  0.372082 0.457015 1 1 1.000000
0  34.616081 2.532551 34.726185  0.188691 0.959880 -0.207428  0.372082 0.457015 1 1 1.000000
aluminium
0  34.616081 2.532551 34.726185  0.188691 0.959880 -0.207428  0.372082 0.457015 1 1 1.000000
0  35.400623 2.615134 35.373085  0.055279 0.946343 -0.318401  0.372082 0.457015 1 1 1.000000
0  35.648373 2.463732 34.960175  0.055087 0.946391 -0.318292  0.372082 0.457015 1 1 1.000000
aluminium
0  36.446674 2.601370 35.262974  -0.106401 0.919940 -0.377344  0.372082 0.457015 1 1 1.000000
0  35.648373 2.463732 34.960175  0.055087 0.946391 -0.318292  0.372082 0.457015 1 1 1.000000
0  35.400623 2.615134 35.373085  0.055279 0.946343 -0.318401  0.372082 0.457015 1 1 1.000000
aluminium
0  35.400623 2.615134 35.373085  0.055279 0.946343 -0.318401  0.372082 0.457015 1 1 1.000000
0  36.336563 2.766536 35.703419  -0.106358 0.919916 -0.377415  0.372082 0.457015 1 1 1.000000
0  36.446674 2.601370 35.262974  -0.106401 0.919940 -0.377344  0.372082 0.457015 1 1 1.000000
aluminium
0  37.286270 2.780300 35.262974  -0.276648 0.883756 -0.377414  0.372082 0.457015 1 1 1.000000
0  36.446674 2.601370 35.262974  -0.106401 0.919940 -0.377344  0.372082 0.457015 1 1 1.000000
0  36.336563 2.766536 35.703419  -0.106358 0.919916 -0.377415  0.372082 0.457015 1 1 1.000000
aluminium
0  36.336563 2.766536 35.703419  -0.106358 0.919916 -0.377415  0.372082 0.457015 1 1 1.000000
0  37.327560 2.972994 35.703419  -0.276654 0.883752 -0.377418  0.372082 0.457015 1 1 1.000000
0  37.286270 2.780300 35.262974  -0.276648 0.883756 -0.377414  0.372082 0.457015 1 1 1.000000
aluminium
0  38.084572 2.986758 34.960175  -0.435034 0.842237 -0.318405  0.372082 0.457015 1 1 1.000000
0  37.286270 2.780300 35.262974  -0.276648 0.883756 -0.377414  0.372082 0.457015 1 1 1.000000
0  37.327560 2.972994 35.703419  -0.276654 0.883752 -0.377418  0.372082 0.457015 1 1 1.000000
aluminium
0  37.327560 2.972994 35.703419  -0.276654 0.883752 -0.377418  0.372082 0.457015 1 1 1.000000
0  38.249737 3.220743 35.373085  -0.435027 0.842252 -0.318375  0.372082 0.457015 1 1 1.000000
0  38.084572 2.986758 34.960175  -0.435034 0.842237 -0.318405  0.372082 0.457015 1 1 1.000000
aluminium
0  38.703949 3.193216 34.409618  -0.562477 0.800370 -0.207431  0.372082 0.457015 1 1 1.000000
0  38.084572 2.986758 34.960175  -0.435034 0.842237 -0.318405  0.372082 0.457015 1 1 1.000000
0  38.249737 3.220743 35.373085  -0.435027 0.842252 -0.318375  0.372082 0.457015 1 1 1.000000
aluminium
0  38.249737 3.220743 35.373085  -0.435027 0.842252 -0.318375  0.372082 0.457015 1 1 1.000000
0  38.992985 3.468493 34.726185  -0.562476 0.800371 -0.207431  0.372082 0.457015 1 1 1.000000
0  38.703949 3.193216 34.409618  -0.562477 0.800370 -0.207431  0.372082 0.457015 1 1 1.000000
aluminium
0  39.116859 3.372146 33.680134  -0.643559 0.763199 -0.057952  0.372082 0.457015 1 1 1.000000
0  38.703949 3.193216 34.409618  -0.562477 0.800370 -0.207431  0.372082 0.457015 1 1 1.000000
0  38.992985 3.468493 34.726185  -0.562476 0.800371 -0.207431  0.372082 0.457015 1 1 1.000000
aluminium
0  38.992985 3.468493 34.726185  -0.562476 0.800371 -0.207431  0.372082 0.457015 1 1 1.000000
0  39.460957 3.674951 33.845299  -0.643744 0.763035 -0.058067  0.372082 0.457015 1 1 1.000000
0  39.116859 3.372146 33.680134  -0.643559 0.763199 -0.057952  0.372082 0.457015 1 1 1.000000
aluminium
0  39.240734 3.509784 32.826775  -0.668503 0.735223 0.112033  0.372082 0.457015 1 1 1.000000
0  39.116859 3.372146 33.680134  -0.643559 0.763199 -0.057952  0.372082 0.457015 1 1 1.000000
0  39.460957 3.674951 33.845299  -0.643744 0.763035 -0.058067  0.372082 0.457015 1 1 1.000000
aluminium
0  39.460957 3.674951 33.845299  -0.643744 0.763035 -0.058067  0.372082 0.457015 1 1 1.000000
0  39.598598 3.840117 32.868069  -0.668528 0.735200 0.112031  0.372082 0.457015 1 1 1.000000
0  39.240734 3.509784 32.826775  -0.668503 0.735223 0.112033  0.372082 0.457015 1 1 1.000000
aluminium
0  39.061806 3.592367 31.987183  -0.634956 0.719600 0.281081  0.372082 0.457015 1 1 1.000000
0  39.240734 3.509784 32.826775  -0.668503 0.735223 0.112033  0.372082 0.457015 1 1 1.000000
0  39.598598 3.840117 32.868069  -0.668528 0.735200 0.112031  0.372082 0.457015 1 1 1.000000
aluminium
0  39.598598 3.840117 32.868069  -0.668528 0.735200 0.112031  0.372082 0.457015 1 1 1.000000
0  39.405903 3.936464 31.877069  -0.634320 0.719866 0.281836  0.372082 0.457015 1 1 1.000000
0  39.061806 3.592367 31.987183  -0.634956 0.719600 0.281081  0.372082 0.457015 1 1 1.000000
aluminium
0  38.621365 3.592367 31.243933  -0.545182 0.718729 0.431515  0.372082 0.457015 1 1 1.000000
0  39.061806 3.592367 31.987183  -0.634956 0.719600 0.281081  0.372082 0.457015 1 1 1.000000
0  39.405903 3.936464 31.877069  -0.634320 0.719866 0.281836  0.372082 0.457015 1 1 1.000000
aluminium
0  39.405903 3.936464 31.877069  -0.634320 0.719866 0.281836  0.372082 0.457015 1 1 1.000000
0  38.882874 3.936464 31.009947  -0.545173 0.718744 0.431502  0.372082 0.457015 1 1 1.000000
0  38.621365 3.592367 31.243933  -0.545182 0.718729 0.431515  0.372082 0.457015 1 1 1.000000
aluminium
0  37.960697 3.523548 30.693380  -0.411616 0.732227 0.542601  0.372082 0.457015 1 1 1.000000
0  38.621365 3.592367 31.243933  -0.545182 0.718729 0.431515  0.372082 0.457015 1 1 1.000000
0  38.882874 3.936464 31.009947  -0.545173 0.718744 0.431502  0.372082 0.457015 1 1 1.000000
aluminium
0  38.882874 3.936464 31.009947  -0.545173 0.718744 0.431502  0.372082 0.457015 1 1 1.000000
0  38.112099 3.853880 30.363047  -0.411775 0.732409 0.542235  0.372082 0.457015 1 1 1.000000
0  37.960697 3.523548 30.693380  -0.411616 0.732227 0.542601  0.372082 0.457015 1 1 1.000000
aluminium
0  37.162395 3.399673 30.404339  -0.250094 0.758752 0.601455  0.372082 0.457015 1 1 1.000000
0  37.960697 3.523548 30.693380  -0.411616 0.732227 0.542601  0.372082 0.457015 1 1 1.000000
0  38.112099 3.853880 30.363047  -0.411775 0.732409 0.542235  0.372082 0.457015 1 1 1.000000
aluminium
0  38.112099 3.853880 30.363047  -0.411775 0.732409 0.542235  0.372082 0.457015 1 1 1.000000
0  37.176159 3.702478 30.018951  -0.250093 0.758734 0.601479  0.372082 0.457015 1 1 1.000000
0  37.162395 3.399673 30.404339  -0.250094 0.758752 0.601455  0.372082 0.457015 1 1 1.000000
aluminium
0  36.322800 3.220743 30.404339  -0.079845 0.794934 0.601419  0.372082 0.457015 1 1 1.000000
0  37.162395 3.399673 30.404339  -0.250094 0.758752 0.601455  0.372082 0.457015 1 1 1.000000
0  37.176159 3.702478 30.018951  -0.250093 0.758734 0.601479  0.372082 0.457015 1 1 1.000000
aluminium
0  37.176159 3.702478 30.018951  -0.250093 0.758734 0.601479  0.372082 0.457015 1 1 1.000000
0  36.185162 3.496020 30.018951  -0.079823 0.794925 0.601434  0.372082 0.457015 1 1 1.000000
0  36.322800 3.220743 30.404339  -0.079845 0.794934 0.601419  0.372082 0.457015 1 1 1.000000
aluminium
0  35.524498 3.014286 30.693382  0.078563 0.836407 0.542449  0.372082 0.457015 1 1 1.000000
0  36.322800 3.220743 30.404339  -0.079845 0.794934 0.601419  0.372082 0.457015 1 1 1.000000
0  36.185162 3.496020 30.018951  -0.079823 0.794925 0.601434  0.372082 0.457015 1 1 1.000000
aluminium
0  36.185162 3.496020 30.018951  -0.079823 0.794925 0.601434  0.372082 0.457015 1 1 1.000000
0  35.262981 3.248271 30.363049  0.078556 0.836419 0.542431  0.372082 0.457015 1 1 1.000000
0  35.524498 3.014286 30.693382  0.078563 0.836407 0.542449  0.372082 0.457015 1 1 1.000000
aluminium
0  34.891361 2.807828 31.243935  0.206109 0.878228 0.431549  0.372082 0.457015 1 1 1.000000
0  35.524498 3.014286 30.693382  0.078563 0.836407 0.542449  0.372082 0.457015 1 1 1.000000
0  35.262981 3.248271 30.363049  0.078556 0.836419 0.542431  0.372082 0.457015 1 1 1.000000
aluminium
0  35.262981 3.248271 30.363049  0.078556 0.836419 0.542431  0.372082 0.457015 1 1 1.000000
0  34.519737 3.014286 31.009949  0.206025 0.878272 0.431500  0.372082 0.457015 1 1 1.000000
0  34.891361 2.807828 31.243935  0.206109 0.878228 0.431549  0.372082 0.457015 1 1 1.000000
aluminium
0  34.492207 2.615134 31.987185  0.287109 0.915441 0.282021  0.372082 0.457015 1 1 1.000000
0  34.891361 2.807828 31.243935  0.206109 0.878228 0.431549  0.372082 0.457015 1 1 1.000000
0  34.519737 3.014286 31.009949  0.206025 0.878272 0.431500  0.372082 0.457015 1 1 1.000000
aluminium
0  34.519737 3.014286 31.009949  0.206025 0.878272 0.431500  0.372082 0.457015 1 1 1.000000
0  34.051762 2.794064 31.877071  0.287140 0.915428 0.282034  0.372082 0.457015 1 1 1.000000
0  34.492207 2.615134 31.987185  0.287109 0.915441 0.282021  0.372082 0.457015 1 1 1.000000
aluminium
0  34.368332 2.477495 32.826775  0.312234 0.943394 0.111881  0.372082 0.457015 1 1 1.000000
0  34.492207 2.615134 31.987185  0.287109 0.915441 0.282021  0.372082 0.457015 1 1 1.000000
0  34.051762 2.794064 31.877071  0.287140 0.915428 0.282034  0.372082 0.457015 1 1 1.000000
aluminium
0  34.051762 2.794064 31.877071  0.287140 0.915428 0.282034  0.372082 0.457015 1 1 1.000000
0  33.900364 2.628898 32.868069  0.312100 0.943426 0.111985  0.372082 0.457015 1 1 1.000000
0  34.368332 2.477495 32.826775  0.312234 0.943394 0.111881  0.372082 0.457015 1 1 1.000000
aluminium
0  35.951180 2.078344 32.813011  -0.030519 -0.863478 0.503462  0.372082 0.457015 1 1 1.000000
0  36.075050 1.844358 32.427624  0.117572 -0.992998 -0.011517  0.372082 0.457015 1 1 1.000000
0  36.295273 2.160927 32.813011  0.397622 -0.814986 0.421539  0.372082 0.457015 1 1 1.000000
aluminium
0  36.075050 1.844358 32.427624  0.117572 -0.992998 -0.011517  0.372082 0.457015 1 1 1.000000
0  35.951180 2.078344 32.813011  -0.030519 -0.863478 0.503462  0.372082 0.457015 1 1 1.000000
0  35.675900 2.050816 32.592789  -0.380396 -0.901857 0.204824  0.372082 0.457015 1 1 1.000000
aluminium
0  36.075050 1.844358 32.427624  0.117572 -0.992998 -0.011517  0.372082 0.457015 1 1 1.000000
0  36.598076 2.298566 32.248692  0.601093 -0.773149 -0.202305  0.372082 0.457015 1 1 1.000000
0  36.556786 2.243510 32.592789  0.612578 -0.782208 0.113571  0.372082 0.457015 1 1 1.000000
aluminium
0  36.556786 2.243510 32.592789  0.612578 -0.782208 0.113571  0.372082 0.457015 1 1 1.000000
0  36.295273 2.160927 32.813011  0.397622 -0.814986 0.421539  0.372082 0.457015 1 1 1.000000
0  36.075050 1.844358 32.427624  0.117572 -0.992998 -0.011517  0.372082 0.457015 1 1 1.000000
aluminium
0  36.075050 1.844358 32.427624  0.117572 -0.992998 -0.011517  0.372082 0.457015 1 1 1.000000
0  36.419147 2.298566 31.945889  0.439592 -0.786448 -0.433888  0.372082 0.457015 1 1 1.000000
0  36.598076 2.298566 32.248692  0.601093 -0.773149 -0.202305  0.372082 0.457015 1 1 1.000000
aluminium
0  36.088814 2.243510 31.835779  0.183760 -0.817957 -0.545142  0.372082 0.457015 1 1 1.000000
0  36.075050 1.844358 32.427624  0.117572 -0.992998 -0.011517  0.372082 0.457015 1 1 1.000000
0  35.772247 2.160927 31.945889  -0.120034 -0.861207 -0.493877  0.372082 0.457015 1 1 1.000000
aluminium
0  36.088814 2.243510 31.835779  0.183760 -0.817957 -0.545142  0.372082 0.457015 1 1 1.000000
0  36.419147 2.298566 31.945889  0.439592 -0.786448 -0.433888  0.372082 0.457015 1 1 1.000000
0  36.075050 1.844358 32.427624  0.117572 -0.992998 -0.011517  0.372082 0.457015 1 1 1.000000
aluminium
0  35.923649 1.637901 32.634079  -0.501307 -0.000027 0.865269  0.372082 0.457015 1 1 1.000000
0  35.758484 1.637901 32.331280  -1.000000 -0.000006 0.000007  0.372082 0.457015 1 1 1.000000
0  35.758484 0.536793 32.331280  -0.962836 -0.270088 -0.000028  0.372082 0.457015 1 1 1.000000
aluminium
0  35.758484 0.536793 32.331280  -0.962836 -0.270088 -0.000028  0.372082 0.457015 1 1 1.000000
0  35.923649 0.536793 32.634079  -0.481468 -0.272404 0.833058  0.372082 0.457015 1 1 1.000000
0  35.923649 1.637901 32.634079  -0.501307 -0.000027 0.865269  0.372082 0.457015 1 1 1.000000
aluminium
0  36.253979 1.637901 32.634079  0.501286 0.000000 0.865281  0.372082 0.457015 1 1 1.000000
0  35.923649 1.637901 32.634079  -0.501307 -0.000027 0.865269  0.372082 0.457015 1 1 1.000000
0  35.923649 0.536793 32.634079  -0.481468 -0.272404 0.833058  0.372082 0.457015 1 1 1.000000
aluminium
0  35.923649 0.536793 32.634079  -0.481468 -0.272404 0.833058  0.372082 0.457015 1 1 1.000000
0  36.253979 0.536793 32.634079  0.481441 -0.272412 0.833070  0.372082 0.457015 1 1 1.000000
0  36.253979 1.637901 32.634079  0.501286 0.000000 0.865281  0.372082 0.457015 1 1 1.000000
aluminium
0  36.419147 1.637901 32.331280  1.000000 0.000000 -0.000019  0.372082 0.457015 1 1 1.000000
0  36.253979 1.637901 32.634079  0.501286 0.000000 0.865281  0.372082 0.457015 1 1 1.000000
0  36.253979 0.536793 32.634079  0.481441 -0.272412 0.833070  0.372082 0.457015 1 1 1.000000
aluminium
0  36.253979 0.536793 32.634079  0.481441 -0.272412 0.833070  0.372082 0.457015 1 1 1.000000
0  36.419147 0.536793 32.331280  0.962835 -0.270091 -0.000015  0.372082 0.457015 1 1 1.000000
0  36.419147 1.637901 32.331280  1.000000 0.000000 -0.000019  0.372082 0.457015 1 1 1.000000
aluminium
0  36.253979 1.637901 32.042236  0.501125 0.000036 -0.865375  0.372082 0.457015 1 1 1.000000
0  36.419147 1.637901 32.331280  1.000000 0.000000 -0.000019  0.372082 0.457015 1 1 1.000000
0  36.419147 0.536793 32.331280  0.962835 -0.270091 -0.000015  0.372082 0.457015 1 1 1.000000
aluminium
0  36.419147 0.536793 32.331280  0.962835 -0.270091 -0.000015  0.372082 0.457015 1 1 1.000000
0  36.253979 0.536793 32.042236  0.481422 -0.272393 -0.833087  0.372082 0.457015 1 1 1.000000
0  36.253979 1.637901 32.042236  0.501125 0.000036 -0.865375  0.372082 0.457015 1 1 1.000000
aluminium
0  35.923649 1.637901 32.042236  -0.501947 0.000000 -0.864899  0.372082 0.457015 1 1 1.000000
0  36.253979 1.637901 32.042236  0.501125 0.000036 -0.865375  0.372082 0.457015 1 1 1.000000
0  36.253979 0.536793 32.042236  0.481422 -0.272393 -0.833087  0.372082 0.457015 1 1 1.000000
aluminium
0  36.253979 0.536793 32.042236  0.481422 -0.272393 -0.833087  0.372082 0.457015 1 1 1.000000
0  35.923649 0.536793 32.042236  -0.481495 -0.272298 -0.833076  0.372082 0.457015 1 1 1.000000
0  35.923649 1.637901 32.042236  -0.501947 0.000000 -0.864899  0.372082 0.457015 1 1 1.000000
aluminium
0  35.758484 1.637901 32.331280  -1.000000 -0.000006 0.000007  0.372082 0.457015 1 1 1.000000
0  35.923649 1.637901 32.042236  -0.501947 0.000000 -0.864899  0.372082 0.457015 1 1 1.000000
0  35.923649 0.536793 32.042236  -0.481495 -0.272298 -0.833076  0.372082 0.457015 1 1 1.000000
aluminium
0  35.923649 0.536793 32.042236  -0.481495 -0.272298 -0.833076  0.372082 0.457015 1 1 1.000000
0  35.758484 0.536793 32.331280  -0.962836 -0.270088 -0.000028  0.372082 0.457015 1 1 1.000000
0  35.758484 1.637901 32.331280  -1.000000 -0.000006 0.000007  0.372082 0.457015 1 1 1.000000
aluminium
0  35.923649 0.536793 32.634079  -0.481468 -0.272404 0.833058  0.372082 0.457015 1 1 1.000000
0  35.758484 0.536793 32.331280  -0.962836 -0.270088 -0.000028  0.372082 0.457015 1 1 1.000000
0  36.088814 0.041294 32.331280  -0.000002 -1.000000 -0.000024  0.372082 0.457015 1 1 1.000000
aluminium
0  36.253979 0.536793 32.634079  0.481441 -0.272412 0.833070  0.372082 0.457015 1 1 1.000000
0  35.923649 0.536793 32.634079  -0.481468 -0.272404 0.833058  0.372082 0.457015 1 1 1.000000
0  36.088814 0.041294 32.331280  -0.000002 -1.000000 -0.000024  0.372082 0.457015 1 1 1.000000
aluminium
0  36.419147 0.536793 32.331280  0.962835 -0.270091 -0.000015  0.372082 0.457015 1 1 1.000000
0  36.253979 0.536793 32.634079  0.481441 -0.272412 0.833070  0.372082 0.457015 1 1 1.000000
0  36.088814 0.041294 32.331280  -0.000002 -1.000000 -0.000024  0.372082 0.457015 1 1 1.000000
aluminium
0  36.253979 0.536793 32.042236  0.481422 -0.272393 -0.833087  0.372082 0.457015 1 1 1.000000
0  36.419147 0.536793 32.331280  0.962835 -0.270091 -0.000015  0.372082 0.457015 1 1 1.000000
0  36.088814 0.041294 32.331280  -0.000002 -1.000000 -0.000024  0.372082 0.457015 1 1 1.000000
aluminium
0  35.923649 0.536793 32.042236  -0.481495 -0.272298 -0.833076  0.372082 0.457015 1 1 1.000000
0  36.253979 0.536793 32.042236  0.481422 -0.272393 -0.833087  0.372082 0.457015 1 1 1.000000
0  36.088814 0.041294 32.331280  -0.000002 -1.000000 -0.000024  0.372082 0.457015 1 1 1.000000
aluminium
0  35.758484 0.536793 32.331280  -0.962836 -0.270088 -0.000028  0.372082 0.457015 1 1 1.000000
0  35.923649 0.536793 32.042236  -0.481495 -0.272298 -0.833076  0.372082 0.457015 1 1 1.000000
0  36.088814 0.041294 32.331280  -0.000002 -1.000000 -0.000024  0.372082 0.457015 1 1 1.000000
aluminium
0  35.758484 1.637901 32.331280  0.000000 1.000000 0.000000  0.372082 0.457015 1 1 1.000000
0  35.923649 1.637901 32.634079  0.000000 1.000000 0.000001  0.372082 0.457015 1 1 1.000000
0  36.419147 1.637901 32.331280  0.000000 1.000000 -0.000000  0.372082 0.457015 1 1 1.000000
aluminium
0  35.923649 1.637901 32.634079  0.000000 1.000000 0.000001  0.372082 0.457015 1 1 1.000000
0  36.253979 1.637901 32.634079  0.000000 1.000000 0.000001  0.372082 0.457015 1 1 1.000000
0  36.419147 1.637901 32.331280  0.000000 1.000000 -0.000000  0.372082 0.457015 1 1 1.000000
aluminium
0  36.253979 1.637901 32.042236  0.000000 1.000000 -0.000001  0.372082 0.457015 1 1 1.000000
0  35.923649 1.637901 32.042236  0.000000 1.000000 -0.000000  0.372082 0.457015 1 1 1.000000
0  36.419147 1.637901 32.331280  0.000000 1.000000 -0.000000  0.372082 0.457015 1 1 1.000000
aluminium
0  35.923649 1.637901 32.042236  0.000000 1.000000 -0.000000  0.372082 0.457015 1 1 1.000000
0  35.758484 1.637901 32.331280  0.000000 1.000000 0.000000  0.372082 0.457015 1 1 1.000000
0  36.419147 1.637901 32.331280  0.000000 1.000000 -0.000000  0.372082 0.457015 1 1 1.000000
aluminium
0  35.951180 2.215982 32.551498  -0.567924 0.000000 0.823081  0.372082 0.457015 1 1 1.000000
0  35.854832 2.215982 32.289982  -0.966227 0.000000 -0.257691  0.372082 0.457015 1 1 1.000000
0  35.854832 1.637901 32.289982  -0.966310 0.000000 -0.257379  0.372082 0.457015 1 1 1.000000
aluminium
0  35.854832 1.637901 32.289982  -0.966310 0.000000 -0.257379  0.372082 0.457015 1 1 1.000000
0  35.951180 1.637901 32.551498  -0.567949 0.000000 0.823064  0.372082 0.457015 1 1 1.000000
0  35.951180 2.215982 32.551498  -0.567924 0.000000 0.823081  0.372082 0.457015 1 1 1.000000
aluminium
0  36.226452 2.215982 32.551498  0.567900 0.000000 0.823097  0.372082 0.457015 1 1 1.000000
0  35.951180 2.215982 32.551498  -0.567924 0.000000 0.823081  0.372082 0.457015 1 1 1.000000
0  35.951180 1.637901 32.551498  -0.567949 0.000000 0.823064  0.372082 0.457015 1 1 1.000000
aluminium
0  35.951180 1.637901 32.551498  -0.567949 0.000000 0.823064  0.372082 0.457015 1 1 1.000000
0  36.226452 1.637901 32.551498  0.567876 0.000006 0.823114  0.372082 0.457015 1 1 1.000000
0  36.226452 2.215982 32.551498  0.567900 0.000000 0.823097  0.372082 0.457015 1 1 1.000000
aluminium
0  36.322800 2.215982 32.289982  0.966309 0.000000 -0.257383  0.372082 0.457015 1 1 1.000000
0  36.226452 2.215982 32.551498  0.567900 0.000000 0.823097  0.372082 0.457015 1 1 1.000000
0  36.226452 1.637901 32.551498  0.567876 0.000006 0.823114  0.372082 0.457015 1 1 1.000000
aluminium
0  36.226452 1.637901 32.551498  0.567876 0.000006 0.823114  0.372082 0.457015 1 1 1.000000
0  36.322800 1.637901 32.289982  0.966303 -0.000000 -0.257407  0.372082 0.457015 1 1 1.000000
0  36.322800 2.215982 32.289982  0.966309 0.000000 -0.257383  0.372082 0.457015 1 1 1.000000
aluminium
0  36.088814 2.215982 32.097294  -0.000014 0.000000 -1.000000  0.372082 0.457015 1 1 1.000000
0  36.322800 2.215982 32.289982  0.966309 0.000000 -0.257383  0.372082 0.457015 1 1 1.000000
0  36.322800 1.637901 32.289982  0.966303 -0.000000 -0.257407  0.372082 0.457015 1 1 1.000000
aluminium
0  36.322800 1.637901 32.289982  0.966303 -0.000000 -0.257407  0.372082 0.457015 1 1 1.000000
0  36.088814 1.637901 32.097294  0.000006 0.000000 -1.000000  0.372082 0.457015 1 1 1.000000
0  36.088814 2.215982 32.097294  -0.000014 0.000000 -1.000000  0.372082 0.457015 1 1 1.000000
aluminium
0  35.854832 2.215982 32.289982  -0.966227 0.000000 -0.257691  0.372082 0.457015 1 1 1.000000
0  36.088814 2.215982 32.097294  -0.000014 0.000000 -1.000000  0.372082 0.457015 1 1 1.000000
0  36.088814 1.637901 32.097294  0.000006 0.000000 -1.000000  0.372082 0.457015 1 1 1.000000
aluminium
0  36.088814 1.637901 32.097294  0.000006 0.000000 -1.000000  0.372082 0.457015 1 1 1.000000
0  35.854832 1.637901 32.289982  -0.966310 0.000000 -0.257379  0.372082 0.457015 1 1 1.000000
0  35.854832 2.215982 32.289982  -0.966227 0.000000 -0.257691  0.372082 0.457015 1 1 1.000000
aluminium
0  34.010471 0.027530 26.977140  0.749830 0.050236 -0.659720  0.372082 0.457015 1 1 1.000000
0  33.941654 -1.046050 27.032196  0.781123 -0.204907 -0.589797  0.372082 0.457015 1 1 1.000000
0  33.707668 -1.046050 26.715628  0.781549 -0.205072 -0.589174  0.372082 0.457015 1 1 1.000000
aluminium
0  33.707668 -1.046050 26.715628  0.781549 -0.205072 -0.589174  0.372082 0.457015 1 1 1.000000
0  33.735195 0.013766 26.674337  0.751449 0.051350 -0.657790  0.372082 0.457015 1 1 1.000000
0  34.010471 0.027530 26.977140  0.749830 0.050236 -0.659720  0.372082 0.457015 1 1 1.000000
aluminium
0  33.473682 1.871886 27.211126  0.719591 0.541116 -0.435181  0.372082 0.457015 1 1 1.000000
0  33.845306 1.018527 27.045959  0.780945 0.270152 -0.563155  0.372082 0.457015 1 1 1.000000
0  33.611320 1.059819 26.743156  0.788417 0.295339 -0.539605  0.372082 0.457015 1 1 1.000000
aluminium
0  33.611320 1.059819 26.743156  0.788417 0.295339 -0.539605  0.372082 0.457015 1 1 1.000000
0  33.267223 1.871886 26.867031  0.721385 0.543881 -0.428716  0.372082 0.457015 1 1 1.000000
0  33.473682 1.871886 27.211126  0.719591 0.541116 -0.435181  0.372082 0.457015 1 1 1.000000
aluminium
0  33.253460 2.160927 27.348766  0.355122 0.910679 -0.211073  0.372082 0.457015 1 1 1.000000
0  33.473682 1.871886 27.211126  0.719591 0.541116 -0.435181  0.372082 0.457015 1 1 1.000000
0  33.267223 1.871886 26.867031  0.721385 0.543881 -0.428716  0.372082 0.457015 1 1 1.000000
aluminium
0  33.267223 1.871886 26.867031  0.721385 0.543881 -0.428716  0.372082 0.457015 1 1 1.000000
0  33.060764 2.160927 27.004669  0.355086 0.910693 -0.211075  0.372082 0.457015 1 1 1.000000
0  33.253460 2.160927 27.348766  0.355122 0.910679 -0.211073  0.372082 0.457015 1 1 1.000000
aluminium
0  32.813019 1.871886 27.610279  -0.730196 0.527552 0.434169  0.372082 0.457015 1 1 1.000000
0  33.033241 2.160927 27.486403  -0.355067 0.910646 0.211307  0.372082 0.457015 1 1 1.000000
0  32.826778 2.160927 27.142307  -0.355171 0.910662 0.211064  0.372082 0.457015 1 1 1.000000
aluminium
0  32.826778 2.160927 27.142307  -0.355171 0.910662 0.211064  0.372082 0.457015 1 1 1.000000
0  32.606560 1.871886 27.266180  -0.722389 0.527556 0.447033  0.372082 0.457015 1 1 1.000000
0  32.813019 1.871886 27.610279  -0.730196 0.527552 0.434169  0.372082 0.457015 1 1 1.000000
aluminium
0  32.510212 1.018527 27.789209  -0.784129 0.280977 0.553348  0.372082 0.457015 1 1 1.000000
0  32.813019 1.871886 27.610279  -0.730196 0.527552 0.434169  0.372082 0.457015 1 1 1.000000
0  32.606560 1.871886 27.266180  -0.722389 0.527556 0.447033  0.372082 0.457015 1 1 1.000000
aluminium
0  32.606560 1.871886 27.266180  -0.722389 0.527556 0.447033  0.372082 0.457015 1 1 1.000000
0  32.221172 1.059819 27.362530  -0.778040 0.289221 0.557678  0.372082 0.457015 1 1 1.000000
0  32.510212 1.018527 27.789209  -0.784129 0.280977 0.553348  0.372082 0.457015 1 1 1.000000
aluminium
0  32.042244 -0.041289 27.403820  -0.804221 0.032500 0.593441  0.372082 0.457015 1 1 1.000000
0  32.386341 -0.027525 27.871790  -0.800077 0.034186 0.598923  0.372082 0.457015 1 1 1.000000
0  32.510212 1.018527 27.789209  -0.784129 0.280977 0.553348  0.372082 0.457015 1 1 1.000000
aluminium
0  32.510212 1.018527 27.789209  -0.784129 0.280977 0.553348  0.372082 0.457015 1 1 1.000000
0  32.221172 1.059819 27.362530  -0.778040 0.289221 0.557678  0.372082 0.457015 1 1 1.000000
0  32.042244 -0.041289 27.403820  -0.804221 0.032500 0.593441  0.372082 0.457015 1 1 1.000000
aluminium
0  32.455158 -1.046050 27.816736  -0.796414 -0.199925 0.570750  0.372082 0.457015 1 1 1.000000
0  32.138592 -1.046050 27.376293  -0.793309 -0.197238 0.575985  0.372082 0.457015 1 1 1.000000
0  32.551506 -2.243505 27.279947  -0.746559 -0.483134 0.457417  0.372082 0.457015 1 1 1.000000
aluminium
0  32.551506 -2.243505 27.279947  -0.746559 -0.483134 0.457417  0.372082 0.457015 1 1 1.000000
0  32.757965 -2.243505 27.624043  -0.748859 -0.491076 0.445032  0.372082 0.457015 1 1 1.000000
0  32.455158 -1.046050 27.816736  -0.796414 -0.199925 0.570750  0.372082 0.457015 1 1 1.000000
aluminium
0  33.033241 -2.601365 27.486403  -0.344706 -0.916089 0.204838  0.372082 0.457015 1 1 1.000000
0  32.757965 -2.243505 27.624043  -0.748859 -0.491076 0.445032  0.372082 0.457015 1 1 1.000000
0  32.551506 -2.243505 27.279947  -0.746559 -0.483134 0.457417  0.372082 0.457015 1 1 1.000000
aluminium
0  32.551506 -2.243505 27.279947  -0.746559 -0.483134 0.457417  0.372082 0.457015 1 1 1.000000
0  32.840546 -2.601365 27.142307  -0.357738 -0.909300 0.212598  0.372082 0.457015 1 1 1.000000
0  33.033241 -2.601365 27.486403  -0.344706 -0.916089 0.204838  0.372082 0.457015 1 1 1.000000
aluminium
0  33.033241 -2.601365 27.486403  -0.344706 -0.916089 0.204838  0.372082 0.457015 1 1 1.000000
0  32.840546 -2.601365 27.142307  -0.357738 -0.909300 0.212598  0.372082 0.457015 1 1 1.000000
0  33.074532 -2.601365 27.004669  0.344673 -0.916103 -0.204830  0.372082 0.457015 1 1 1.000000
aluminium
0  33.074532 -2.601365 27.004669  0.344673 -0.916103 -0.204830  0.372082 0.457015 1 1 1.000000
0  33.280991 -2.601365 27.348766  0.357756 -0.909281 -0.212647  0.372082 0.457015 1 1 1.000000
0  33.033241 -2.601365 27.486403  -0.344706 -0.916089 0.204838  0.372082 0.457015 1 1 1.000000
aluminium
0  33.556267 -2.243505 27.197363  0.743440 -0.491111 -0.453991  0.372082 0.457015 1 1 1.000000
0  33.280991 -2.601365 27.348766  0.357756 -0.909281 -0.212647  0.372082 0.457015 1 1 1.000000
0  33.074532 -2.601365 27.004669  0.344673 -0.916103 -0.204830  0.372082 0.457015 1 1 1.000000
aluminium
0  33.074532 -2.601365 27.004669  0.344673 -0.916103 -0.204830  0.372082 0.457015 1 1 1.000000
0  33.349812 -2.243505 26.867031  0.744926 -0.499068 -0.442737  0.372082 0.457015 1 1 1.000000
0  33.556267 -2.243505 27.197363  0.743440 -0.491111 -0.453991  0.372082 0.457015 1 1 1.000000
aluminium
0  33.556267 -2.243505 27.197363  0.743440 -0.491111 -0.453991  0.372082 0.457015 1 1 1.000000
0  33.349812 -2.243505 26.867031  0.744926 -0.499068 -0.442737  0.372082 0.457015 1 1 1.000000
0  33.707668 -1.046050 26.715628  0.781549 -0.205072 -0.589174  0.372082 0.457015 1 1 1.000000
aluminium
0  33.707668 -1.046050 26.715628  0.781549 -0.205072 -0.589174  0.372082 0.457015 1 1 1.000000
0  33.941654 -1.046050 27.032196  0.781123 -0.204907 -0.589797  0.372082 0.457015 1 1 1.000000
0  33.556267 -2.243505 27.197363  0.743440 -0.491111 -0.453991  0.372082 0.457015 1 1 1.000000
aluminium
0  35.304276 0.206460 30.528212  0.898951 -0.067797 -0.432771  0.372082 0.457015 1 1 1.000000
0  35.359329 0.605612 30.597034  0.889071 0.053755 -0.454603  0.372082 0.457015 1 1 1.000000
0  36.088814 1.169930 32.056000  0.831185 0.220142 -0.510558  0.372082 0.457015 1 1 1.000000
aluminium
0  36.088814 1.169930 32.056000  0.831185 0.220142 -0.510558  0.372082 0.457015 1 1 1.000000
0  36.185162 0.908417 32.207401  0.894244 -0.043391 -0.445472  0.372082 0.457015 1 1 1.000000
0  35.304276 0.206460 30.528212  0.898951 -0.067797 -0.432771  0.372082 0.457015 1 1 1.000000
aluminium
0  34.863834 -0.082580 29.619799  0.906574 -0.043242 -0.419827  0.372082 0.457015 1 1 1.000000
0  34.643612 0.426682 29.206882  0.897080 0.121853 -0.424735  0.372082 0.457015 1 1 1.000000
0  35.359329 0.605612 30.597034  0.889071 0.053755 -0.454603  0.372082 0.457015 1 1 1.000000
aluminium
0  35.359329 0.605612 30.597034  0.889071 0.053755 -0.454603  0.372082 0.457015 1 1 1.000000
0  35.304276 0.206460 30.528212  0.898951 -0.067797 -0.432771  0.372082 0.457015 1 1 1.000000
0  34.863834 -0.082580 29.619799  0.906574 -0.043242 -0.419827  0.372082 0.457015 1 1 1.000000
aluminium
0  34.285751 -0.481732 28.188360  0.957314 -0.059755 -0.282804  0.372082 0.457015 1 1 1.000000
0  33.941654 -1.046050 27.032196  0.948939 -0.196401 -0.246862  0.372082 0.457015 1 1 1.000000
0  34.010471 0.027530 26.977140  0.975098 0.054804 -0.214898  0.372082 0.457015 1 1 1.000000
aluminium
0  34.643612 0.426682 29.206882  0.897080 0.121853 -0.424735  0.372082 0.457015 1 1 1.000000
0  34.863834 -0.082580 29.619799  0.906574 -0.043242 -0.419827  0.372082 0.457015 1 1 1.000000
0  34.285751 -0.481732 28.188360  0.957314 -0.059755 -0.282804  0.372082 0.457015 1 1 1.000000
aluminium
0  34.285751 -0.481732 28.188360  0.957314 -0.059755 -0.282804  0.372082 0.457015 1 1 1.000000
0  34.175640 0.426682 28.092012  0.944518 0.175468 -0.277662  0.372082 0.457015 1 1 1.000000
0  34.643612 0.426682 29.206882  0.897080 0.121853 -0.424735  0.372082 0.457015 1 1 1.000000
aluminium
0  36.019997 1.238749 32.028473  0.629292 0.592706 -0.502684  0.372082 0.457015 1 1 1.000000
0  36.088814 1.169930 32.056000  0.831185 0.220142 -0.510558  0.372082 0.457015 1 1 1.000000
0  35.359329 0.605612 30.597034  0.889071 0.053755 -0.454603  0.372082 0.457015 1 1 1.000000
aluminium
0  35.359329 0.605612 30.597034  0.889071 0.053755 -0.454603  0.372082 0.457015 1 1 1.000000
0  35.318039 0.839597 30.597034  0.757583 0.461843 -0.461268  0.372082 0.457015 1 1 1.000000
0  36.019997 1.238749 32.028473  0.629292 0.592706 -0.502684  0.372082 0.457015 1 1 1.000000
aluminium
0  34.643612 0.426682 29.206882  0.897080 0.121853 -0.424735  0.372082 0.457015 1 1 1.000000
0  34.492207 0.812070 29.083010  0.770070 0.542543 -0.335616  0.372082 0.457015 1 1 1.000000
0  35.318039 0.839597 30.597034  0.757583 0.461843 -0.461268  0.372082 0.457015 1 1 1.000000
aluminium
0  35.318039 0.839597 30.597034  0.757583 0.461843 -0.461268  0.372082 0.457015 1 1 1.000000
0  35.359329 0.605612 30.597034  0.889071 0.053755 -0.454603  0.372082 0.457015 1 1 1.000000
0  34.643612 0.426682 29.206882  0.897080 0.121853 -0.424735  0.372082 0.457015 1 1 1.000000
aluminium
0  33.955418 1.101110 28.092012  0.827809 0.552508 -0.097300  0.372082 0.457015 1 1 1.000000
0  34.175640 0.426682 28.092012  0.944518 0.175468 -0.277662  0.372082 0.457015 1 1 1.000000
0  33.845306 1.018527 27.045959  0.937678 0.309574 -0.157874  0.372082 0.457015 1 1 1.000000
aluminium
0  33.845306 1.018527 27.045959  0.937678 0.309574 -0.157874  0.372082 0.457015 1 1 1.000000
0  33.473682 1.871886 27.211126  0.842551 0.535729 0.055703  0.372082 0.457015 1 1 1.000000
0  33.955418 1.101110 28.092012  0.827809 0.552508 -0.097300  0.372082 0.457015 1 1 1.000000
aluminium
0  34.492207 0.812070 29.083010  0.770070 0.542543 -0.335616  0.372082 0.457015 1 1 1.000000
0  34.643612 0.426682 29.206882  0.897080 0.121853 -0.424735  0.372082 0.457015 1 1 1.000000
0  34.175640 0.426682 28.092012  0.944518 0.175468 -0.277662  0.372082 0.457015 1 1 1.000000
aluminium
0  34.175640 0.426682 28.092012  0.944518 0.175468 -0.277662  0.372082 0.457015 1 1 1.000000
0  33.955418 1.101110 28.092012  0.827809 0.552508 -0.097300  0.372082 0.457015 1 1 1.000000
0  34.492207 0.812070 29.083010  0.770070 0.542543 -0.335616  0.372082 0.457015 1 1 1.000000
aluminium
0  35.923649 1.293805 32.028473  0.094605 0.952350 -0.289964  0.372082 0.457015 1 1 1.000000
0  36.019997 1.238749 32.028473  0.629292 0.592706 -0.502684  0.372082 0.457015 1 1 1.000000
0  35.318039 0.839597 30.597034  0.757583 0.461843 -0.461268  0.372082 0.457015 1 1 1.000000
aluminium
0  35.318039 0.839597 30.597034  0.757583 0.461843 -0.461268  0.372082 0.457015 1 1 1.000000
0  35.207928 0.922181 30.610798  0.317869 0.904918 -0.282989  0.372082 0.457015 1 1 1.000000
0  35.923649 1.293805 32.028473  0.094605 0.952350 -0.289964  0.372082 0.457015 1 1 1.000000
aluminium
0  35.207928 0.922181 30.610798  0.317869 0.904918 -0.282989  0.372082 0.457015 1 1 1.000000
0  35.318039 0.839597 30.597034  0.757583 0.461843 -0.461268  0.372082 0.457015 1 1 1.000000
0  34.492207 0.812070 29.083010  0.770070 0.542543 -0.335616  0.372082 0.457015 1 1 1.000000
aluminium
0  34.492207 0.812070 29.083010  0.770070 0.542543 -0.335616  0.372082 0.457015 1 1 1.000000
0  34.299515 0.935944 29.124302  0.341806 0.939546 -0.020570  0.372082 0.457015 1 1 1.000000
0  35.207928 0.922181 30.610798  0.317869 0.904918 -0.282989  0.372082 0.457015 1 1 1.000000
aluminium
0  33.473682 1.871886 27.211126  0.842551 0.535729 0.055703  0.372082 0.457015 1 1 1.000000
0  33.253460 2.160927 27.348766  0.568803 0.707833 0.418850  0.372082 0.457015 1 1 1.000000
0  33.721432 1.293804 28.174597  0.472528 0.831958 0.290798  0.372082 0.457015 1 1 1.000000
aluminium
0  33.721432 1.293804 28.174597  0.472528 0.831958 0.290798  0.372082 0.457015 1 1 1.000000
0  33.955418 1.101110 28.092012  0.827809 0.552508 -0.097300  0.372082 0.457015 1 1 1.000000
0  33.473682 1.871886 27.211126  0.842551 0.535729 0.055703  0.372082 0.457015 1 1 1.000000
aluminium
0  33.955418 1.101110 28.092012  0.827809 0.552508 -0.097300  0.372082 0.457015 1 1 1.000000
0  33.721432 1.293804 28.174597  0.472528 0.831958 0.290798  0.372082 0.457015 1 1 1.000000
0  34.299515 0.935944 29.124302  0.341806 0.939546 -0.020570  0.372082 0.457015 1 1 1.000000
aluminium
0  34.299515 0.935944 29.124302  0.341806 0.939546 -0.020570  0.372082 0.457015 1 1 1.000000
0  34.492207 0.812070 29.083010  0.770070 0.542543 -0.335616  0.372082 0.457015 1 1 1.000000
0  33.955418 1.101110 28.092012  0.827809 0.552508 -0.097300  0.372082 0.457015 1 1 1.000000
aluminium
0  35.207928 0.922181 30.610798  0.317869 0.904918 -0.282989  0.372082 0.457015 1 1 1.000000
0  35.097820 0.935944 30.679619  -0.209082 0.977892 0.003623  0.372082 0.457015 1 1 1.000000
0  35.923649 1.293805 32.028473  0.094605 0.952350 -0.289964  0.372082 0.457015 1 1 1.000000
aluminium
0  34.299515 0.935944 29.124302  0.341806 0.939546 -0.020570  0.372082 0.457015 1 1 1.000000
0  34.175640 0.935944 29.193119  -0.120700 0.957273 0.262792  0.372082 0.457015 1 1 1.000000
0  35.097820 0.935944 30.679619  -0.209082 0.977892 0.003623  0.372082 0.457015 1 1 1.000000
aluminium
0  35.097820 0.935944 30.679619  -0.209082 0.977892 0.003623  0.372082 0.457015 1 1 1.000000
0  35.207928 0.922181 30.610798  0.317869 0.904918 -0.282989  0.372082 0.457015 1 1 1.000000
0  34.299515 0.935944 29.124302  0.341806 0.939546 -0.020570  0.372082 0.457015 1 1 1.000000
aluminium
0  35.097820 0.935944 30.679619  -0.209082 0.977892 0.003623  0.372082 0.457015 1 1 1.000000
0  35.015236 0.880889 30.775965  -0.687475 0.649748 0.324355  0.372082 0.457015 1 1 1.000000
0  35.854832 1.280041 32.083527  -0.574928 0.807055 0.134613  0.372082 0.457015 1 1 1.000000
aluminium
0  35.854832 1.280041 32.083527  -0.574928 0.807055 0.134613  0.372082 0.457015 1 1 1.000000
0  35.923649 1.293805 32.028473  0.094605 0.952350 -0.289964  0.372082 0.457015 1 1 1.000000
0  35.097820 0.935944 30.679619  -0.209082 0.977892 0.003623  0.372082 0.457015 1 1 1.000000
aluminium
0  35.097820 0.935944 30.679619  -0.209082 0.977892 0.003623  0.372082 0.457015 1 1 1.000000
0  34.175640 0.935944 29.193119  -0.120700 0.957273 0.262792  0.372082 0.457015 1 1 1.000000
0  34.037998 0.825833 29.330757  -0.606469 0.619997 0.497794  0.372082 0.457015 1 1 1.000000
aluminium
0  34.037998 0.825833 29.330757  -0.606469 0.619997 0.497794  0.372082 0.457015 1 1 1.000000
0  35.015236 0.880889 30.775965  -0.687475 0.649748 0.324355  0.372082 0.457015 1 1 1.000000
0  35.097820 0.935944 30.679619  -0.209082 0.977892 0.003623  0.372082 0.457015 1 1 1.000000
aluminium
0  32.813019 1.871886 27.610279  -0.355355 0.510722 0.782870  0.372082 0.457015 1 1 1.000000
0  33.363575 1.101110 28.422344  -0.485115 0.527588 0.697362  0.372082 0.457015 1 1 1.000000
0  33.570030 1.293804 28.257179  0.008024 0.816460 0.577347  0.372082 0.457015 1 1 1.000000
aluminium
0  33.570030 1.293804 28.257179  0.008024 0.816460 0.577347  0.372082 0.457015 1 1 1.000000
0  33.033241 2.160927 27.486403  0.096879 0.700582 0.706965  0.372082 0.457015 1 1 1.000000
0  32.813019 1.871886 27.610279  -0.355355 0.510722 0.782870  0.372082 0.457015 1 1 1.000000
aluminium
0  33.363575 1.101110 28.422344  -0.485115 0.527588 0.697362  0.372082 0.457015 1 1 1.000000
0  34.037998 0.825833 29.330757  -0.606469 0.619997 0.497794  0.372082 0.457015 1 1 1.000000
0  34.175640 0.935944 29.193119  -0.120700 0.957273 0.262792  0.372082 0.457015 1 1 1.000000
aluminium
0  34.175640 0.935944 29.193119  -0.120700 0.957273 0.262792  0.372082 0.457015 1 1 1.000000
0  33.570030 1.293804 28.257179  0.008024 0.816460 0.577347  0.372082 0.457015 1 1 1.000000
0  33.363575 1.101110 28.422344  -0.485115 0.527588 0.697362  0.372082 0.457015 1 1 1.000000
aluminium
0  35.015236 0.880889 30.775965  -0.687475 0.649748 0.324355  0.372082 0.457015 1 1 1.000000
0  34.960182 0.660667 30.844782  -0.830447 0.272762 0.485756  0.372082 0.457015 1 1 1.000000
0  35.827301 1.211221 32.138584  -0.828705 0.366203 0.423254  0.372082 0.457015 1 1 1.000000
aluminium
0  35.827301 1.211221 32.138584  -0.828705 0.366203 0.423254  0.372082 0.457015 1 1 1.000000
0  35.854832 1.280041 32.083527  -0.574928 0.807055 0.134613  0.372082 0.457015 1 1 1.000000
0  35.015236 0.880889 30.775965  -0.687475 0.649748 0.324355  0.372082 0.457015 1 1 1.000000
aluminium
0  35.015236 0.880889 30.775965  -0.687475 0.649748 0.324355  0.372082 0.457015 1 1 1.000000
0  34.037998 0.825833 29.330757  -0.606469 0.619997 0.497794  0.372082 0.457015 1 1 1.000000
0  34.024235 0.454210 29.537216  -0.795142 0.218510 0.565688  0.372082 0.457015 1 1 1.000000
aluminium
0  34.024235 0.454210 29.537216  -0.795142 0.218510 0.565688  0.372082 0.457015 1 1 1.000000
0  34.960182 0.660667 30.844782  -0.830447 0.272762 0.485756  0.372082 0.457015 1 1 1.000000
0  35.015236 0.880889 30.775965  -0.687475 0.649748 0.324355  0.372082 0.457015 1 1 1.000000
aluminium
0  32.510212 1.018527 27.789209  -0.611399 0.267580 0.744709  0.372082 0.457015 1 1 1.000000
0  33.267227 0.412918 28.601276  -0.701050 0.166560 0.693388  0.372082 0.457015 1 1 1.000000
0  33.363575 1.101110 28.422344  -0.485115 0.527588 0.697362  0.372082 0.457015 1 1 1.000000
aluminium
0  33.363575 1.101110 28.422344  -0.485115 0.527588 0.697362  0.372082 0.457015 1 1 1.000000
0  32.813019 1.871886 27.610279  -0.355355 0.510722 0.782870  0.372082 0.457015 1 1 1.000000
0  32.510212 1.018527 27.789209  -0.611399 0.267580 0.744709  0.372082 0.457015 1 1 1.000000
aluminium
0  33.267227 0.412918 28.601276  -0.701050 0.166560 0.693388  0.372082 0.457015 1 1 1.000000
0  34.024235 0.454210 29.537216  -0.795142 0.218510 0.565688  0.372082 0.457015 1 1 1.000000
0  34.037998 0.825833 29.330757  -0.606469 0.619997 0.497794  0.372082 0.457015 1 1 1.000000
aluminium
0  34.037998 0.825833 29.330757  -0.606469 0.619997 0.497794  0.372082 0.457015 1 1 1.000000
0  33.363575 1.101110 28.422344  -0.485115 0.527588 0.697362  0.372082 0.457015 1 1 1.000000
0  33.267227 0.412918 28.601276  -0.701050 0.166560 0.693388  0.372082 0.457015 1 1 1.000000
aluminium
0  35.827301 1.211221 32.138584  -0.828705 0.366203 0.423254  0.372082 0.457015 1 1 1.000000
0  34.960182 0.660667 30.844782  -0.830447 0.272762 0.485756  0.372082 0.457015 1 1 1.000000
0  34.822540 0.233988 30.789728  -0.823745 0.037558 0.565715  0.372082 0.457015 1 1 1.000000
aluminium
0  34.822540 0.233988 30.789728  -0.823745 0.037558 0.565715  0.372082 0.457015 1 1 1.000000
0  35.868595 0.963472 32.289982  -0.841711 0.061901 0.536368  0.372082 0.457015 1 1 1.000000
0  35.827301 1.211221 32.138584  -0.828705 0.366203 0.423254  0.372082 0.457015 1 1 1.000000
aluminium
0  34.960182 0.660667 30.844782  -0.830447 0.272762 0.485756  0.372082 0.457015 1 1 1.000000
0  34.024235 0.454210 29.537216  -0.795142 0.218510 0.565688  0.372082 0.457015 1 1 1.000000
0  34.244461 -0.055053 29.950132  -0.809967 0.011368 0.586365  0.372082 0.457015 1 1 1.000000
aluminium
0  34.244461 -0.055053 29.950132  -0.809967 0.011368 0.586365  0.372082 0.457015 1 1 1.000000
0  34.822540 0.233988 30.789728  -0.823745 0.037558 0.565715  0.372082 0.457015 1 1 1.000000
0  34.960182 0.660667 30.844782  -0.830447 0.272762 0.485756  0.372082 0.457015 1 1 1.000000
aluminium
0  33.267227 0.412918 28.601276  -0.701050 0.166560 0.693388  0.372082 0.457015 1 1 1.000000
0  32.510212 1.018527 27.789209  -0.611399 0.267580 0.744709  0.372082 0.457015 1 1 1.000000
0  32.386341 -0.027525 27.871790  -0.675585 0.037968 0.736304  0.372082 0.457015 1 1 1.000000
aluminium
0  33.322285 -0.481732 28.711386  -0.736363 -0.058939 0.674015  0.372082 0.457015 1 1 1.000000
0  34.244461 -0.055053 29.950132  -0.809967 0.011368 0.586365  0.372082 0.457015 1 1 1.000000
0  34.024235 0.454210 29.537216  -0.795142 0.218510 0.565688  0.372082 0.457015 1 1 1.000000
aluminium
0  34.024235 0.454210 29.537216  -0.795142 0.218510 0.565688  0.372082 0.457015 1 1 1.000000
0  33.267227 0.412918 28.601276  -0.701050 0.166560 0.693388  0.372082 0.457015 1 1 1.000000
0  33.322285 -0.481732 28.711386  -0.736363 -0.058939 0.674015  0.372082 0.457015 1 1 1.000000
aluminium
0  35.868595 0.963472 32.289982  -0.841711 0.061901 0.536368  0.372082 0.457015 1 1 1.000000
0  34.822540 0.233988 30.789728  -0.823745 0.037558 0.565715  0.372082 0.457015 1 1 1.000000
0  34.808777 -0.412913 30.638325  -0.628484 -0.388460 0.673874  0.372082 0.457015 1 1 1.000000
aluminium
0  34.808777 -0.412913 30.638325  -0.628484 -0.388460 0.673874  0.372082 0.457015 1 1 1.000000
0  35.923649 0.825834 32.372570  -0.667424 -0.330816 0.667163  0.372082 0.457015 1 1 1.000000
0  35.868595 0.963472 32.289982  -0.841711 0.061901 0.536368  0.372082 0.457015 1 1 1.000000
aluminium
0  34.822540 0.233988 30.789728  -0.823745 0.037558 0.565715  0.372082 0.457015 1 1 1.000000
0  34.244461 -0.055053 29.950132  -0.809967 0.011368 0.586365  0.372082 0.457015 1 1 1.000000
0  34.808777 -0.412913 30.638325  -0.628484 -0.388460 0.673874  0.372082 0.457015 1 1 1.000000
aluminium
0  32.757965 -2.243505 27.624043  -0.532145 -0.471332 0.703326  0.372082 0.457015 1 1 1.000000
0  33.570030 -1.527785 28.780203  -0.620584 -0.400977 0.673864  0.372082 0.457015 1 1 1.000000
0  33.322285 -0.481732 28.711386  -0.736363 -0.058939 0.674015  0.372082 0.457015 1 1 1.000000
aluminium
0  33.322285 -0.481732 28.711386  -0.736363 -0.058939 0.674015  0.372082 0.457015 1 1 1.000000
0  32.455158 -1.046050 27.816736  -0.635825 -0.203381 0.744556  0.372082 0.457015 1 1 1.000000
0  32.757965 -2.243505 27.624043  -0.532145 -0.471332 0.703326  0.372082 0.457015 1 1 1.000000
aluminium
0  34.244461 -0.055053 29.950132  -0.809967 0.011368 0.586365  0.372082 0.457015 1 1 1.000000
0  33.322285 -0.481732 28.711386  -0.736363 -0.058939 0.674015  0.372082 0.457015 1 1 1.000000
0  33.570030 -1.527785 28.780203  -0.620584 -0.400977 0.673864  0.372082 0.457015 1 1 1.000000
aluminium
0  33.570030 -1.527785 28.780203  -0.620584 -0.400977 0.673864  0.372082 0.457015 1 1 1.000000
0  34.808777 -0.412913 30.638325  -0.628484 -0.388460 0.673874  0.372082 0.457015 1 1 1.000000
0  34.244461 -0.055053 29.950132  -0.809967 0.011368 0.586365  0.372082 0.457015 1 1 1.000000
aluminium
0  34.808777 -0.412913 30.638325  -0.628484 -0.388460 0.673874  0.372082 0.457015 1 1 1.000000
0  34.960182 -0.591843 30.555744  -0.078926 -0.805524 0.587284  0.372082 0.457015 1 1 1.000000
0  36.102577 0.701959 32.386333  0.202445 -0.857746 0.472534  0.372082 0.457015 1 1 1.000000
aluminium
0  36.102577 0.701959 32.386333  0.202445 -0.857746 0.472534  0.372082 0.457015 1 1 1.000000
0  35.923649 0.825834 32.372570  -0.667424 -0.330816 0.667163  0.372082 0.457015 1 1 1.000000
0  34.808777 -0.412913 30.638325  -0.628484 -0.388460 0.673874  0.372082 0.457015 1 1 1.000000
aluminium
0  33.790253 -1.789298 28.670094  -0.086509 -0.807414 0.583609  0.372082 0.457015 1 1 1.000000
0  33.570030 -1.527785 28.780203  -0.620584 -0.400977 0.673864  0.372082 0.457015 1 1 1.000000
0  32.757965 -2.243505 27.624043  -0.532145 -0.471332 0.703326  0.372082 0.457015 1 1 1.000000
aluminium
0  32.757965 -2.243505 27.624043  -0.532145 -0.471332 0.703326  0.372082 0.457015 1 1 1.000000
0  33.033241 -2.601365 27.486403  -0.053856 -0.810278 0.583566  0.372082 0.457015 1 1 1.000000
0  33.790253 -1.789298 28.670094  -0.086509 -0.807414 0.583609  0.372082 0.457015 1 1 1.000000
aluminium
0  34.960182 -0.591843 30.555744  -0.078926 -0.805524 0.587284  0.372082 0.457015 1 1 1.000000
0  34.808777 -0.412913 30.638325  -0.628484 -0.388460 0.673874  0.372082 0.457015 1 1 1.000000
0  33.570030 -1.527785 28.780203  -0.620584 -0.400977 0.673864  0.372082 0.457015 1 1 1.000000
aluminium
0  33.570030 -1.527785 28.780203  -0.620584 -0.400977 0.673864  0.372082 0.457015 1 1 1.000000
0  33.790253 -1.789298 28.670094  -0.086509 -0.807414 0.583609  0.372082 0.457015 1 1 1.000000
0  34.960182 -0.591843 30.555744  -0.078926 -0.805524 0.587284  0.372082 0.457015 1 1 1.000000
aluminium
0  33.955418 -1.803062 28.559982  0.540913 -0.813173 0.214857  0.372082 0.457015 1 1 1.000000
0  33.790253 -1.789298 28.670094  -0.086509 -0.807414 0.583609  0.372082 0.457015 1 1 1.000000
0  33.033241 -2.601365 27.486403  -0.053856 -0.810278 0.583566  0.372082 0.457015 1 1 1.000000
aluminium
0  33.033241 -2.601365 27.486403  -0.053856 -0.810278 0.583566  0.372082 0.457015 1 1 1.000000
0  33.280991 -2.601365 27.348766  0.509873 -0.821357 0.255739  0.372082 0.457015 1 1 1.000000
0  33.955418 -1.803062 28.559982  0.540913 -0.813173 0.214857  0.372082 0.457015 1 1 1.000000
aluminium
0  35.056526 -0.591843 30.500685  0.596968 -0.781767 0.180190  0.372082 0.457015 1 1 1.000000
0  34.960182 -0.591843 30.555744  -0.078926 -0.805524 0.587284  0.372082 0.457015 1 1 1.000000
0  33.790253 -1.789298 28.670094  -0.086509 -0.807414 0.583609  0.372082 0.457015 1 1 1.000000
aluminium
0  33.790253 -1.789298 28.670094  -0.086509 -0.807414 0.583609  0.372082 0.457015 1 1 1.000000
0  33.955418 -1.803062 28.559982  0.540913 -0.813173 0.214857  0.372082 0.457015 1 1 1.000000
0  35.056526 -0.591843 30.500685  0.596968 -0.781767 0.180190  0.372082 0.457015 1 1 1.000000
aluminium
0  36.102577 0.701959 32.386333  0.202445 -0.857746 0.472534  0.372082 0.457015 1 1 1.000000
0  35.056526 -0.591843 30.500685  0.596968 -0.781767 0.180190  0.372082 0.457015 1 1 1.000000
0  35.207928 -0.344094 30.418102  0.901929 -0.338198 -0.268599  0.372082 0.457015 1 1 1.000000
aluminium
0  35.207928 -0.344094 30.418102  0.901929 -0.338198 -0.268599  0.372082 0.457015 1 1 1.000000
0  36.212688 0.784542 32.289982  0.852920 -0.496089 -0.162550  0.372082 0.457015 1 1 1.000000
0  36.102577 0.701959 32.386333  0.202445 -0.857746 0.472534  0.372082 0.457015 1 1 1.000000
aluminium
0  33.556267 -2.243505 27.197363  0.839952 -0.531119 -0.111330  0.372082 0.457015 1 1 1.000000
0  34.175640 -1.541548 28.449871  0.882520 -0.442902 -0.158102  0.372082 0.457015 1 1 1.000000
0  33.955418 -1.803062 28.559982  0.540913 -0.813173 0.214857  0.372082 0.457015 1 1 1.000000
aluminium
0  33.955418 -1.803062 28.559982  0.540913 -0.813173 0.214857  0.372082 0.457015 1 1 1.000000
0  33.280991 -2.601365 27.348766  0.509873 -0.821357 0.255739  0.372082 0.457015 1 1 1.000000
0  33.556267 -2.243505 27.197363  0.839952 -0.531119 -0.111330  0.372082 0.457015 1 1 1.000000
aluminium
0  34.175640 -1.541548 28.449871  0.882520 -0.442902 -0.158102  0.372082 0.457015 1 1 1.000000
0  35.207928 -0.344094 30.418102  0.901929 -0.338198 -0.268599  0.372082 0.457015 1 1 1.000000
0  35.056526 -0.591843 30.500685  0.596968 -0.781767 0.180190  0.372082 0.457015 1 1 1.000000
aluminium
0  35.056526 -0.591843 30.500685  0.596968 -0.781767 0.180190  0.372082 0.457015 1 1 1.000000
0  33.955418 -1.803062 28.559982  0.540913 -0.813173 0.214857  0.372082 0.457015 1 1 1.000000
0  34.175640 -1.541548 28.449871  0.882520 -0.442902 -0.158102  0.372082 0.457015 1 1 1.000000
aluminium
0  35.207928 -0.344094 30.418102  0.901929 -0.338198 -0.268599  0.372082 0.457015 1 1 1.000000
0  35.304276 0.206460 30.528212  0.898951 -0.067797 -0.432771  0.372082 0.457015 1 1 1.000000
0  36.185162 0.908417 32.207401  0.894244 -0.043391 -0.445472  0.372082 0.457015 1 1 1.000000
aluminium
0  36.185162 0.908417 32.207401  0.894244 -0.043391 -0.445472  0.372082 0.457015 1 1 1.000000
0  36.212688 0.784542 32.289982  0.852920 -0.496089 -0.162550  0.372082 0.457015 1 1 1.000000
0  35.207928 -0.344094 30.418102  0.901929 -0.338198 -0.268599  0.372082 0.457015 1 1 1.000000
aluminium
0  35.304276 0.206460 30.528212  0.898951 -0.067797 -0.432771  0.372082 0.457015 1 1 1.000000
0  35.207928 -0.344094 30.418102  0.901929 -0.338198 -0.268599  0.372082 0.457015 1 1 1.000000
0  34.863834 -0.082580 29.619799  0.906574 -0.043242 -0.419827  0.372082 0.457015 1 1 1.000000
aluminium
0  33.941654 -1.046050 27.032196  0.948939 -0.196401 -0.246862  0.372082 0.457015 1 1 1.000000
0  34.285751 -0.481732 28.188360  0.957314 -0.059755 -0.282804  0.372082 0.457015 1 1 1.000000
0  34.175640 -1.541548 28.449871  0.882520 -0.442902 -0.158102  0.372082 0.457015 1 1 1.000000
aluminium
0  34.175640 -1.541548 28.449871  0.882520 -0.442902 -0.158102  0.372082 0.457015 1 1 1.000000
0  33.556267 -2.243505 27.197363  0.839952 -0.531119 -0.111330  0.372082 0.457015 1 1 1.000000
0  33.941654 -1.046050 27.032196  0.948939 -0.196401 -0.246862  0.372082 0.457015 1 1 1.000000
aluminium
0  34.863834 -0.082580 29.619799  0.906574 -0.043242 -0.419827  0.372082 0.457015 1 1 1.000000
0  35.207928 -0.344094 30.418102  0.901929 -0.338198 -0.268599  0.372082 0.457015 1 1 1.000000
0  34.175640 -1.541548 28.449871  0.882520 -0.442902 -0.158102  0.372082 0.457015 1 1 1.000000
aluminium
0  34.175640 -1.541548 28.449871  0.882520 -0.442902 -0.158102  0.372082 0.457015 1 1 1.000000
0  34.285751 -0.481732 28.188360  0.957314 -0.059755 -0.282804  0.372082 0.457015 1 1 1.000000
0  34.863834 -0.082580 29.619799  0.906574 -0.043242 -0.419827  0.372082 0.457015 1 1 1.000000
aluminium
0  33.253460 2.160927 27.348766  0.355122 0.910679 -0.211073  0.372082 0.457015 1 1 1.000000
0  33.060764 2.160927 27.004669  0.355086 0.910693 -0.211075  0.372082 0.457015 1 1 1.000000
0  32.826778 2.160927 27.142307  -0.355171 0.910662 0.211064  0.372082 0.457015 1 1 1.000000
aluminium
0  32.826778 2.160927 27.142307  -0.355171 0.910662 0.211064  0.372082 0.457015 1 1 1.000000
0  33.033241 2.160927 27.486403  -0.355067 0.910646 0.211307  0.372082 0.457015 1 1 1.000000
0  33.253460 2.160927 27.348766  0.355122 0.910679 -0.211073  0.372082 0.457015 1 1 1.000000
aluminium
0  33.033241 2.160927 27.486403  0.096879 0.700582 0.706965  0.372082 0.457015 1 1 1.000000
0  33.570030 1.293804 28.257179  0.008024 0.816460 0.577347  0.372082 0.457015 1 1 1.000000
0  33.721432 1.293804 28.174597  0.472528 0.831958 0.290798  0.372082 0.457015 1 1 1.000000
aluminium
0  33.721432 1.293804 28.174597  0.472528 0.831958 0.290798  0.372082 0.457015 1 1 1.000000
0  33.253460 2.160927 27.348766  0.568803 0.707833 0.418850  0.372082 0.457015 1 1 1.000000
0  33.033241 2.160927 27.486403  0.096879 0.700582 0.706965  0.372082 0.457015 1 1 1.000000
aluminium
0  34.175640 0.935944 29.193119  -0.120700 0.957273 0.262792  0.372082 0.457015 1 1 1.000000
0  34.299515 0.935944 29.124302  0.341806 0.939546 -0.020570  0.372082 0.457015 1 1 1.000000
0  33.721432 1.293804 28.174597  0.472528 0.831958 0.290798  0.372082 0.457015 1 1 1.000000
aluminium
0  33.721432 1.293804 28.174597  0.472528 0.831958 0.290798  0.372082 0.457015 1 1 1.000000
0  33.570030 1.293804 28.257179  0.008024 0.816460 0.577347  0.372082 0.457015 1 1 1.000000
0  34.175640 0.935944 29.193119  -0.120700 0.957273 0.262792  0.372082 0.457015 1 1 1.000000
aluminium
0  36.102577 0.701959 32.386333  0.202445 -0.857746 0.472534  0.372082 0.457015 1 1 1.000000
0  34.960182 -0.591843 30.555744  -0.078926 -0.805524 0.587284  0.372082 0.457015 1 1 1.000000
0  35.056526 -0.591843 30.500685  0.596968 -0.781767 0.180190  0.372082 0.457015 1 1 1.000000
aluminium
0  36.075050 1.844358 32.427624  0.117572 -0.992998 -0.011517  0.372082 0.457015 1 1 1.000000
0  35.675900 2.050816 32.592789  -0.380396 -0.901857 0.204824  0.372082 0.457015 1 1 1.000000
0  35.607079 2.092108 32.248692  -0.374243 -0.898789 -0.228298  0.372082 0.457015 1 1 1.000000
aluminium
0  35.607079 2.092108 32.248692  -0.374243 -0.898789 -0.228298  0.372082 0.457015 1 1 1.000000
0  35.772247 2.160927 31.945889  -0.120034 -0.861207 -0.493877  0.372082 0.457015 1 1 1.000000
0  36.075050 1.844358 32.427624  0.117572 -0.992998 -0.011517  0.372082 0.457015 1 1 1.000000
aluminium
0  33.845306 1.018527 27.045959  0.780945 0.270152 -0.563155  0.372082 0.457015 1 1 1.000000
0  34.010471 0.027530 26.977140  0.749830 0.050236 -0.659720  0.372082 0.457015 1 1 1.000000
0  33.735195 0.013766 26.674337  0.751449 0.051350 -0.657790  0.372082 0.457015 1 1 1.000000
aluminium
0  33.735195 0.013766 26.674337  0.751449 0.051350 -0.657790  0.372082 0.457015 1 1 1.000000
0  33.611320 1.059819 26.743156  0.788417 0.295339 -0.539605  0.372082 0.457015 1 1 1.000000
0  33.845306 1.018527 27.045959  0.780945 0.270152 -0.563155  0.372082 0.457015 1 1 1.000000
aluminium
0  34.010471 0.027530 26.977140  0.975098 0.054804 -0.214898  0.372082 0.457015 1 1 1.000000
0  34.175640 0.426682 28.092012  0.944518 0.175468 -0.277662  0.372082 0.457015 1 1 1.000000
0  34.285751 -0.481732 28.188360  0.957314 -0.059755 -0.282804  0.372082 0.457015 1 1 1.000000
aluminium
0  32.455158 -1.046050 27.816736  -0.796414 -0.199925 0.570750  0.372082 0.457015 1 1 1.000000
0  32.386341 -0.027525 27.871790  -0.800077 0.034186 0.598923  0.372082 0.457015 1 1 1.000000
0  32.042244 -0.041289 27.403820  -0.804221 0.032500 0.593441  0.372082 0.457015 1 1 1.000000
aluminium
0  32.042244 -0.041289 27.403820  -0.804221 0.032500 0.593441  0.372082 0.457015 1 1 1.000000
0  32.138592 -1.046050 27.376293  -0.793309 -0.197238 0.575985  0.372082 0.457015 1 1 1.000000
0  32.455158 -1.046050 27.816736  -0.796414 -0.199925 0.570750  0.372082 0.457015 1 1 1.000000
aluminium
0  32.386341 -0.027525 27.871790  -0.675585 0.037968 0.736304  0.372082 0.457015 1 1 1.000000
0  33.322285 -0.481732 28.711386  -0.736363 -0.058939 0.674015  0.372082 0.457015 1 1 1.000000
0  33.267227 0.412918 28.601276  -0.701050 0.166560 0.693388  0.372082 0.457015 1 1 1.000000
aluminium
0  32.386341 -0.027525 27.871790  -0.675585 0.037968 0.736304  0.372082 0.457015 1 1 1.000000
0  32.455158 -1.046050 27.816736  -0.635825 -0.203381 0.744556  0.372082 0.457015 1 1 1.000000
0  33.322285 -0.481732 28.711386  -0.736363 -0.058939 0.674015  0.372082 0.457015 1 1 1.000000
aluminium
0  34.010471 0.027530 26.977140  0.975098 0.054804 -0.214898  0.372082 0.457015 1 1 1.000000
0  33.845306 1.018527 27.045959  0.937678 0.309574 -0.157874  0.372082 0.457015 1 1 1.000000
0  34.175640 0.426682 28.092012  0.944518 0.175468 -0.277662  0.372082 0.457015 1 1 1.000000
end
