version 1
nodes
0 "blender_implicit" -1
1 "root" -1
2 "steering_wheel" 1
end
skeleton
time 0
0  0.000000 0.000000 0.000000  0.000000 -0.000000 0.000000
1  0.000000 0.000000 0.000000  1.570796 -0.000000 0.000000
2  17.500738 28.532450 14.135482  0.000000 -0.000000 0.000000
end
triangles
misc
0  26.357761 96.677269 4.555832  0.877150 0.338473 0.340654  0.152348 0.962889 1 1 1.000000
0  25.889793 90.001808 4.789817  0.921633 -0.051058 0.384690  0.194342 0.962889 1 1 1.000000
0  25.999903 89.974281 4.266791  0.997563 -0.069715 0.002758  0.194342 0.962889 1 1 1.000000
misc
0  25.999903 89.974281 4.266791  0.997563 -0.069715 0.002758  0.194342 0.962889 1 1 1.000000
0  26.467875 96.649742 4.032805  0.946338 0.322968 -0.011709  0.152348 0.962889 1 1 1.000000
0  26.357761 96.677269 4.555832  0.877150 0.338473 0.340654  0.152348 0.962889 1 1 1.000000
misc
0  26.261415 96.787384 4.514540  0.671399 0.702882 0.234905  0.140629 0.962889 1 1 1.000000
0  26.357761 96.677269 4.555832  0.877150 0.338473 0.340654  0.140629 0.962889 1 1 1.000000
0  26.467875 96.649742 4.032805  0.946338 0.322968 -0.011709  0.137700 0.962889 1 1 1.000000
misc
0  26.467875 96.649742 4.032805  0.946338 0.322968 -0.011709  0.137700 0.962889 1 1 1.000000
0  26.371525 96.759850 4.032805  0.720515 0.693051 -0.023196  0.137700 0.962889 1 1 1.000000
0  26.261415 96.787384 4.514540  0.671399 0.702882 0.234905  0.140629 0.962889 1 1 1.000000
misc
0  26.068722 96.718559 5.010039  0.678619 0.360467 0.639953  0.152348 0.962889 1 1 1.000000
0  25.600754 90.029335 5.244024  0.705367 -0.024628 0.708415  0.194342 0.962889 1 1 1.000000
0  25.889793 90.001808 4.789817  0.921633 -0.051058 0.384690  0.194342 0.962889 1 1 1.000000
misc
0  25.889793 90.001808 4.789817  0.921633 -0.051058 0.384690  0.194342 0.962889 1 1 1.000000
0  26.357761 96.677269 4.555832  0.877150 0.338473 0.340654  0.152348 0.962889 1 1 1.000000
0  26.068722 96.718559 5.010039  0.678619 0.360467 0.639953  0.152348 0.962889 1 1 1.000000
misc
0  25.986137 96.814911 4.941220  0.527484 0.716950 0.455788  0.140629 0.962889 1 1 1.000000
0  26.068722 96.718559 5.010039  0.678619 0.360467 0.639953  0.140629 0.962889 1 1 1.000000
0  26.357761 96.677269 4.555832  0.877150 0.338473 0.340654  0.140629 0.962889 1 1 1.000000
misc
0  26.357761 96.677269 4.555832  0.877150 0.338473 0.340654  0.140629 0.962889 1 1 1.000000
0  26.261415 96.787384 4.514540  0.671399 0.702882 0.234905  0.140629 0.962889 1 1 1.000000
0  25.986137 96.814911 4.941220  0.527484 0.716950 0.455788  0.140629 0.962889 1 1 1.000000
misc
0  25.614515 96.759850 5.312843  0.380339 0.385643 0.840608  0.152348 0.962889 1 1 1.000000
0  25.146547 90.070625 5.546829  0.381724 0.005553 0.924260  0.194342 0.962889 1 1 1.000000
0  25.600754 90.029335 5.244024  0.705367 -0.024628 0.708415  0.194342 0.962889 1 1 1.000000
misc
0  25.600754 90.029335 5.244024  0.705367 -0.024628 0.708415  0.194342 0.962889 1 1 1.000000
0  26.068722 96.718559 5.010039  0.678619 0.360467 0.639953  0.152348 0.962889 1 1 1.000000
0  25.614515 96.759850 5.312843  0.380339 0.385643 0.840608  0.152348 0.962889 1 1 1.000000
misc
0  25.573225 96.856201 5.216497  0.309149 0.733131 0.605761  0.140629 0.962889 1 1 1.000000
0  25.614515 96.759850 5.312843  0.380339 0.385643 0.840608  0.140629 0.962889 1 1 1.000000
0  26.068722 96.718559 5.010039  0.678619 0.360467 0.639953  0.140629 0.962889 1 1 1.000000
misc
0  26.068722 96.718559 5.010039  0.678619 0.360467 0.639953  0.140629 0.962889 1 1 1.000000
0  25.986137 96.814911 4.941220  0.527484 0.716950 0.455788  0.140629 0.962889 1 1 1.000000
0  25.573225 96.856201 5.216497  0.309149 0.733131 0.605761  0.140629 0.962889 1 1 1.000000
misc
0  25.077724 96.801147 5.422954  0.027265 0.410132 0.911618  0.152348 0.962889 1 1 1.000000
0  24.609755 90.111916 5.656940  0.000380 0.034918 0.999390  0.194342 0.962889 1 1 1.000000
0  25.146547 90.070625 5.546829  0.381724 0.005553 0.924260  0.194342 0.962889 1 1 1.000000
misc
0  25.146547 90.070625 5.546829  0.381724 0.005553 0.924260  0.194342 0.962889 1 1 1.000000
0  25.614515 96.759850 5.312843  0.380339 0.385643 0.840608  0.152348 0.962889 1 1 1.000000
0  25.077724 96.801147 5.422954  0.027265 0.410132 0.911618  0.152348 0.962889 1 1 1.000000
misc
0  25.091488 96.897491 5.312843  0.048606 0.749278 0.660469  0.140629 0.962889 1 1 1.000000
0  25.077724 96.801147 5.422954  0.027265 0.410132 0.911618  0.140629 0.962889 1 1 1.000000
0  25.614515 96.759850 5.312843  0.380339 0.385643 0.840608  0.140629 0.962889 1 1 1.000000
misc
0  25.614515 96.759850 5.312843  0.380339 0.385643 0.840608  0.140629 0.962889 1 1 1.000000
0  25.573225 96.856201 5.216497  0.309149 0.733131 0.605761  0.140629 0.962889 1 1 1.000000
0  25.091488 96.897491 5.312843  0.048606 0.749278 0.660469  0.140629 0.962889 1 1 1.000000
misc
0  24.554699 96.828674 5.312843  -0.326771 0.430193 0.841519  0.152348 0.962889 1 1 1.000000
0  24.086731 90.153206 5.546829  -0.382068 0.058960 0.922251  0.194342 0.962889 1 1 1.000000
0  24.609755 90.111916 5.656940  0.000380 0.034918 0.999390  0.194342 0.962889 1 1 1.000000
misc
0  24.609755 90.111916 5.656940  0.000380 0.034918 0.999390  0.194342 0.962889 1 1 1.000000
0  25.077724 96.801147 5.422954  0.027265 0.410132 0.911618  0.152348 0.962889 1 1 1.000000
0  24.554699 96.828674 5.312843  -0.326771 0.430193 0.841519  0.152348 0.962889 1 1 1.000000
misc
0  24.595989 96.925018 5.202733  -0.214535 0.762055 0.610940  0.140629 0.962889 1 1 1.000000
0  24.554699 96.828674 5.312843  -0.326771 0.430193 0.841519  0.140629 0.962889 1 1 1.000000
0  25.077724 96.801147 5.422954  0.027265 0.410132 0.911618  0.140629 0.962889 1 1 1.000000
misc
0  25.077724 96.801147 5.422954  0.027265 0.410132 0.911618  0.140629 0.962889 1 1 1.000000
0  25.091488 96.897491 5.312843  0.048606 0.749278 0.660469  0.140629 0.962889 1 1 1.000000
0  24.595989 96.925018 5.202733  -0.214535 0.762055 0.610940  0.140629 0.962889 1 1 1.000000
misc
0  24.100492 96.856201 5.010039  -0.627371 0.442874 0.640522  0.152348 0.962889 1 1 1.000000
0  23.632521 90.166969 5.244024  -0.705327 0.073977 0.705012  0.194342 0.962889 1 1 1.000000
0  24.086731 90.153206 5.546829  -0.382068 0.058960 0.922251  0.194342 0.962889 1 1 1.000000
misc
0  24.086731 90.153206 5.546829  -0.382068 0.058960 0.922251  0.194342 0.962889 1 1 1.000000
0  24.554699 96.828674 5.312843  -0.326771 0.430193 0.841519  0.152348 0.962889 1 1 1.000000
0  24.100492 96.856201 5.010039  -0.627371 0.442874 0.640522  0.152348 0.962889 1 1 1.000000
misc
0  24.183073 96.938782 4.927456  -0.438832 0.770336 0.462612  0.140629 0.962889 1 1 1.000000
0  24.100492 96.856201 5.010039  -0.627371 0.442874 0.640522  0.140629 0.962889 1 1 1.000000
0  24.554699 96.828674 5.312843  -0.326771 0.430193 0.841519  0.140629 0.962889 1 1 1.000000
misc
0  24.554699 96.828674 5.312843  -0.326771 0.430193 0.841519  0.140629 0.962889 1 1 1.000000
0  24.595989 96.925018 5.202733  -0.214535 0.762055 0.610940  0.140629 0.962889 1 1 1.000000
0  24.183073 96.938782 4.927456  -0.438832 0.770336 0.462612  0.140629 0.962889 1 1 1.000000
misc
0  23.797686 96.856201 4.555832  -0.828203 0.446043 0.339301  0.152348 0.962889 1 1 1.000000
0  23.329718 90.180733 4.789817  -0.921630 0.077760 0.380199  0.194342 0.962889 1 1 1.000000
0  23.632521 90.166969 5.244024  -0.705327 0.073977 0.705012  0.194342 0.962889 1 1 1.000000
misc
0  23.632521 90.166969 5.244024  -0.705327 0.073977 0.705012  0.194342 0.962889 1 1 1.000000
0  24.100492 96.856201 5.010039  -0.627371 0.442874 0.640522  0.152348 0.962889 1 1 1.000000
0  23.797686 96.856201 4.555832  -0.828203 0.446043 0.339301  0.152348 0.962889 1 1 1.000000
misc
0  23.907797 96.952545 4.514540  -0.588615 0.772389 0.238635  0.140629 0.962889 1 1 1.000000
0  23.797686 96.856201 4.555832  -0.828203 0.446043 0.339301  0.140629 0.962889 1 1 1.000000
0  24.100492 96.856201 5.010039  -0.627371 0.442874 0.640522  0.140629 0.962889 1 1 1.000000
misc
0  24.100492 96.856201 5.010039  -0.627371 0.442874 0.640522  0.140629 0.962889 1 1 1.000000
0  24.183073 96.938782 4.927456  -0.438832 0.770336 0.462612  0.140629 0.962889 1 1 1.000000
0  23.907797 96.952545 4.514540  -0.588615 0.772389 0.238635  0.140629 0.962889 1 1 1.000000
misc
0  23.687576 96.842438 4.019042  -0.898213 0.439278 -0.015782  0.152348 0.962889 1 1 1.000000
0  23.233372 90.166969 4.253027  -0.997565 0.069703 -0.002408  0.194342 0.962889 1 1 1.000000
0  23.329718 90.180733 4.789817  -0.921630 0.077760 0.380199  0.194342 0.962889 1 1 1.000000
misc
0  23.329718 90.180733 4.789817  -0.921630 0.077760 0.380199  0.194342 0.962889 1 1 1.000000
0  23.797686 96.856201 4.555832  -0.828203 0.446043 0.339301  0.152348 0.962889 1 1 1.000000
0  23.687576 96.842438 4.019042  -0.898213 0.439278 -0.015782  0.152348 0.962889 1 1 1.000000
misc
0  23.797686 96.938782 4.019042  -0.639997 0.767946 -0.025739  0.137700 0.962889 1 1 1.000000
0  23.687576 96.842438 4.019042  -0.898213 0.439278 -0.015782  0.137700 0.962889 1 1 1.000000
0  23.797686 96.856201 4.555832  -0.828203 0.446043 0.339301  0.140629 0.962889 1 1 1.000000
misc
0  23.797686 96.856201 4.555832  -0.828203 0.446043 0.339301  0.140629 0.962889 1 1 1.000000
0  23.907797 96.952545 4.514540  -0.588615 0.772389 0.238635  0.140629 0.962889 1 1 1.000000
0  23.797686 96.938782 4.019042  -0.639997 0.767946 -0.025739  0.137700 0.962889 1 1 1.000000
misc
0  23.797686 96.814911 3.496016  -0.826815 0.423619 -0.370033  0.152348 0.962889 1 1 1.000000
0  23.329718 90.139442 3.730001  -0.921702 0.051066 -0.384524  0.194342 0.962889 1 1 1.000000
0  23.233372 90.166969 4.253027  -0.997565 0.069703 -0.002408  0.194342 0.962889 1 1 1.000000
misc
0  23.233372 90.166969 4.253027  -0.997565 0.069703 -0.002408  0.194342 0.962889 1 1 1.000000
0  23.687576 96.842438 4.019042  -0.898213 0.439278 -0.015782  0.152348 0.962889 1 1 1.000000
0  23.797686 96.814911 3.496016  -0.826815 0.423619 -0.370033  0.152348 0.962889 1 1 1.000000
misc
0  23.907797 96.911255 3.537307  -0.585221 0.757754 -0.288661  0.137700 0.962889 1 1 1.000000
0  23.797686 96.814911 3.496016  -0.826815 0.423619 -0.370033  0.137700 0.962889 1 1 1.000000
0  23.687576 96.842438 4.019042  -0.898213 0.439278 -0.015782  0.137700 0.962889 1 1 1.000000
misc
0  23.687576 96.842438 4.019042  -0.898213 0.439278 -0.015782  0.137700 0.962889 1 1 1.000000
0  23.797686 96.938782 4.019042  -0.639997 0.767946 -0.025739  0.137700 0.962889 1 1 1.000000
0  23.907797 96.911255 3.537307  -0.585221 0.757754 -0.288661  0.137700 0.962889 1 1 1.000000
misc
0  24.100492 96.787384 3.041809  -0.625369 0.401532 -0.669093  0.152348 0.962889 1 1 1.000000
0  23.632521 90.098152 3.275795  -0.705296 0.024559 -0.708488  0.194342 0.962889 1 1 1.000000
0  23.329718 90.139442 3.730001  -0.921702 0.051066 -0.384524  0.194342 0.962889 1 1 1.000000
misc
0  23.329718 90.139442 3.730001  -0.921702 0.051066 -0.384524  0.194342 0.962889 1 1 1.000000
0  23.797686 96.814911 3.496016  -0.826815 0.423619 -0.370033  0.152348 0.962889 1 1 1.000000
0  24.100492 96.787384 3.041809  -0.625369 0.401532 -0.669093  0.152348 0.962889 1 1 1.000000
misc
0  24.183073 96.883728 3.110628  -0.434060 0.743320 -0.508986  0.137700 0.962889 1 1 1.000000
0  24.100492 96.787384 3.041809  -0.625369 0.401532 -0.669093  0.137700 0.962889 1 1 1.000000
0  23.797686 96.814911 3.496016  -0.826815 0.423619 -0.370033  0.137700 0.962889 1 1 1.000000
misc
0  23.797686 96.814911 3.496016  -0.826815 0.423619 -0.370033  0.137700 0.962889 1 1 1.000000
0  23.907797 96.911255 3.537307  -0.585221 0.757754 -0.288661  0.137700 0.962889 1 1 1.000000
0  24.183073 96.883728 3.110628  -0.434060 0.743320 -0.508986  0.137700 0.962889 1 1 1.000000
misc
0  24.554699 96.746086 2.739004  -0.325166 0.376402 -0.867519  0.152348 0.962889 1 1 1.000000
0  24.086731 90.056862 2.972989  -0.381720 -0.005638 -0.924261  0.194342 0.962889 1 1 1.000000
0  23.632521 90.098152 3.275795  -0.705296 0.024559 -0.708488  0.194342 0.962889 1 1 1.000000
misc
0  23.632521 90.098152 3.275795  -0.705296 0.024559 -0.708488  0.194342 0.962889 1 1 1.000000
0  24.100492 96.787384 3.041809  -0.625369 0.401532 -0.669093  0.152348 0.962889 1 1 1.000000
0  24.554699 96.746086 2.739004  -0.325166 0.376402 -0.867519  0.152348 0.962889 1 1 1.000000
misc
0  24.595989 96.842438 2.835351  -0.210763 0.727245 -0.653218  0.137700 0.962889 1 1 1.000000
0  24.554699 96.746086 2.739004  -0.325166 0.376402 -0.867519  0.138676 0.962889 1 1 1.000000
0  24.100492 96.787384 3.041809  -0.625369 0.401532 -0.669093  0.137700 0.962889 1 1 1.000000
misc
0  24.100492 96.787384 3.041809  -0.625369 0.401532 -0.669093  0.137700 0.962889 1 1 1.000000
0  24.183073 96.883728 3.110628  -0.434060 0.743320 -0.508986  0.137700 0.962889 1 1 1.000000
0  24.595989 96.842438 2.835351  -0.210763 0.727245 -0.653218  0.137700 0.962889 1 1 1.000000
misc
0  25.077724 96.704796 2.642657  0.027668 0.351858 -0.935644  0.152348 0.962889 1 1 1.000000
0  24.609755 90.015572 2.876642  0.000052 -0.034914 -0.999390  0.194342 0.962889 1 1 1.000000
0  24.086731 90.056862 2.972989  -0.381720 -0.005638 -0.924261  0.194342 0.962889 1 1 1.000000
misc
0  24.086731 90.056862 2.972989  -0.381720 -0.005638 -0.924261  0.194342 0.962889 1 1 1.000000
0  24.554699 96.746086 2.739004  -0.325166 0.376402 -0.867519  0.152348 0.962889 1 1 1.000000
0  25.077724 96.704796 2.642657  0.027668 0.351858 -0.935644  0.152348 0.962889 1 1 1.000000
misc
0  25.091488 96.801147 2.739004  0.049334 0.711441 -0.701012  0.137700 0.962889 1 1 1.000000
0  25.077724 96.704796 2.642657  0.027668 0.351858 -0.935644  0.138676 0.962889 1 1 1.000000
0  24.554699 96.746086 2.739004  -0.325166 0.376402 -0.867519  0.138676 0.962889 1 1 1.000000
misc
0  24.554699 96.746086 2.739004  -0.325166 0.376402 -0.867519  0.138676 0.962889 1 1 1.000000
0  24.595989 96.842438 2.835351  -0.210763 0.727245 -0.653218  0.137700 0.962889 1 1 1.000000
0  25.091488 96.801147 2.739004  0.049334 0.711441 -0.701012  0.137700 0.962889 1 1 1.000000
misc
0  25.614515 96.663506 2.739004  0.379501 0.331863 -0.863623  0.152348 0.962889 1 1 1.000000
0  25.146547 89.988045 2.972989  0.381727 -0.058929 -0.922395  0.194342 0.962889 1 1 1.000000
0  24.609755 90.015572 2.876642  0.000052 -0.034914 -0.999390  0.194342 0.962889 1 1 1.000000
misc
0  24.609755 90.015572 2.876642  0.000052 -0.034914 -0.999390  0.194342 0.962889 1 1 1.000000
0  25.077724 96.704796 2.642657  0.027668 0.351858 -0.935644  0.152348 0.962889 1 1 1.000000
0  25.614515 96.663506 2.739004  0.379501 0.331863 -0.863623  0.152348 0.962889 1 1 1.000000
misc
0  25.573225 96.773613 2.835351  0.306819 0.698748 -0.646230  0.137700 0.962889 1 1 1.000000
0  25.614515 96.663506 2.739004  0.379501 0.331863 -0.863623  0.137700 0.962889 1 1 1.000000
0  25.077724 96.704796 2.642657  0.027668 0.351858 -0.935644  0.138676 0.962889 1 1 1.000000
misc
0  25.077724 96.704796 2.642657  0.027668 0.351858 -0.935644  0.138676 0.962889 1 1 1.000000
0  25.091488 96.801147 2.739004  0.049334 0.711441 -0.701012  0.137700 0.962889 1 1 1.000000
0  25.573225 96.773613 2.835351  0.306819 0.698748 -0.646230  0.137700 0.962889 1 1 1.000000
misc
0  26.068722 96.649742 3.041809  0.677231 0.319366 -0.662845  0.152348 0.962889 1 1 1.000000
0  25.600754 89.960518 3.275794  0.705389 -0.073981 -0.704949  0.194342 0.962889 1 1 1.000000
0  25.146547 89.988045 2.972989  0.381727 -0.058929 -0.922395  0.194342 0.962889 1 1 1.000000
misc
0  25.146547 89.988045 2.972989  0.381727 -0.058929 -0.922395  0.194342 0.962889 1 1 1.000000
0  25.614515 96.663506 2.739004  0.379501 0.331863 -0.863623  0.152348 0.962889 1 1 1.000000
0  26.068722 96.649742 3.041809  0.677231 0.319366 -0.662845  0.152348 0.962889 1 1 1.000000
misc
0  25.986137 96.746086 3.124392  0.523481 0.691114 -0.498325  0.137700 0.962889 1 1 1.000000
0  26.068722 96.649742 3.041809  0.677231 0.319366 -0.662845  0.137700 0.962889 1 1 1.000000
0  25.614515 96.663506 2.739004  0.379501 0.331863 -0.863623  0.137700 0.962889 1 1 1.000000
misc
0  25.614515 96.663506 2.739004  0.379501 0.331863 -0.863623  0.137700 0.962889 1 1 1.000000
0  25.573225 96.773613 2.835351  0.306819 0.698748 -0.646230  0.137700 0.962889 1 1 1.000000
0  25.986137 96.746086 3.124392  0.523481 0.691114 -0.498325  0.137700 0.962889 1 1 1.000000
misc
0  26.357761 96.635979 3.496016  0.876139 0.316207 -0.363858  0.152348 0.962889 1 1 1.000000
0  25.889793 89.960518 3.730001  0.921635 -0.077761 -0.380187  0.194342 0.962889 1 1 1.000000
0  25.600754 89.960518 3.275794  0.705389 -0.073981 -0.704949  0.194342 0.962889 1 1 1.000000
misc
0  25.600754 89.960518 3.275794  0.705389 -0.073981 -0.704949  0.194342 0.962889 1 1 1.000000
0  26.068722 96.649742 3.041809  0.677231 0.319366 -0.662845  0.152348 0.962889 1 1 1.000000
0  26.357761 96.635979 3.496016  0.876139 0.316207 -0.363858  0.152348 0.962889 1 1 1.000000
misc
0  26.261415 96.746086 3.537307  0.668617 0.688817 -0.280147  0.137700 0.962889 1 1 1.000000
0  26.357761 96.635979 3.496016  0.876139 0.316207 -0.363858  0.137700 0.962889 1 1 1.000000
0  26.068722 96.649742 3.041809  0.677231 0.319366 -0.662845  0.137700 0.962889 1 1 1.000000
misc
0  26.068722 96.649742 3.041809  0.677231 0.319366 -0.662845  0.137700 0.962889 1 1 1.000000
0  25.986137 96.746086 3.124392  0.523481 0.691114 -0.498325  0.137700 0.962889 1 1 1.000000
0  26.261415 96.746086 3.537307  0.668617 0.688817 -0.280147  0.137700 0.962889 1 1 1.000000
misc
0  26.467875 96.649742 4.032805  0.946338 0.322968 -0.011709  0.152348 0.962889 1 1 1.000000
0  25.999903 89.974281 4.266791  0.997563 -0.069715 0.002758  0.194342 0.962889 1 1 1.000000
0  25.889793 89.960518 3.730001  0.921635 -0.077761 -0.380187  0.194342 0.962889 1 1 1.000000
misc
0  25.889793 89.960518 3.730001  0.921635 -0.077761 -0.380187  0.194342 0.962889 1 1 1.000000
0  26.357761 96.635979 3.496016  0.876139 0.316207 -0.363858  0.152348 0.962889 1 1 1.000000
0  26.467875 96.649742 4.032805  0.946338 0.322968 -0.011709  0.152348 0.962889 1 1 1.000000
misc
0  26.371525 96.759850 4.032805  0.720515 0.693051 -0.023196  0.137700 0.962889 1 1 1.000000
0  26.467875 96.649742 4.032805  0.946338 0.322968 -0.011709  0.137700 0.962889 1 1 1.000000
0  26.357761 96.635979 3.496016  0.876139 0.316207 -0.363858  0.137700 0.962889 1 1 1.000000
misc
0  26.357761 96.635979 3.496016  0.876139 0.316207 -0.363858  0.137700 0.962889 1 1 1.000000
0  26.261415 96.746086 3.537307  0.668617 0.688817 -0.280147  0.137700 0.962889 1 1 1.000000
0  26.371525 96.759850 4.032805  0.720515 0.693051 -0.023196  0.137700 0.962889 1 1 1.000000
misc
0  23.907797 96.952545 4.514540  0.923965 0.021570 -0.381868  0.134770 0.965819 1 1 1.000000
0  24.183073 96.938782 4.927456  0.708809 0.025171 -0.704951  0.134770 0.968749 1 1 1.000000
0  24.183075 90.098152 4.693470  0.708797 0.039776 -0.704290  0.052736 0.971679 1 1 1.000000
misc
0  23.907797 96.952545 4.514540  0.923965 0.021570 -0.381868  0.134770 0.965819 1 1 1.000000
0  24.183075 90.098152 4.693470  0.708797 0.039776 -0.704290  0.052736 0.971679 1 1 1.000000
0  24.004145 90.098152 4.253027  0.999032 0.043975 -0.001419  0.052736 0.969726 1 1 1.000000
misc
0  23.907797 96.952545 4.514540  0.923965 0.021570 -0.381868  0.134770 0.965819 1 1 1.000000
0  24.004145 90.098152 4.253027  0.999032 0.043975 -0.001419  0.052736 0.969726 1 1 1.000000
0  23.797686 96.938782 4.019042  0.999566 0.029446 -0.000959  0.134770 0.964843 1 1 1.000000
misc
0  24.595989 96.925018 5.202733  0.386858 0.040210 -0.921262  0.134770 0.972655 1 1 1.000000
0  25.091488 96.897491 5.312843  0.006958 0.063813 -0.997938  0.134770 0.977538 1 1 1.000000
0  24.609755 90.084389 4.872400  0.007754 0.078457 -0.996887  0.052736 0.975585 1 1 1.000000
misc
0  24.595989 96.925018 5.202733  0.386858 0.040210 -0.921262  0.134770 0.972655 1 1 1.000000
0  24.609755 90.084389 4.872400  0.007754 0.078457 -0.996887  0.052736 0.975585 1 1 1.000000
0  24.183075 90.098152 4.693470  0.708797 0.039776 -0.704290  0.052736 0.971679 1 1 1.000000
misc
0  24.595989 96.925018 5.202733  0.386858 0.040210 -0.921262  0.134770 0.972655 1 1 1.000000
0  24.183075 90.098152 4.693470  0.708797 0.039776 -0.704290  0.052736 0.971679 1 1 1.000000
0  24.183073 96.938782 4.927456  0.708809 0.025171 -0.704951  0.134770 0.968749 1 1 1.000000
misc
0  25.573225 96.856201 5.216497  -0.372862 0.093540 -0.923160  0.134770 0.982421 1 1 1.000000
0  25.986137 96.814911 4.941220  -0.695089 0.122624 -0.708389  0.134770 0.986328 1 1 1.000000
0  25.036434 90.043098 4.693470  -0.693165 0.137117 -0.707617  0.052736 0.980468 1 1 1.000000
misc
0  25.573225 96.856201 5.216497  -0.372862 0.093540 -0.923160  0.134770 0.982421 1 1 1.000000
0  25.036434 90.043098 4.693470  -0.693165 0.137117 -0.707617  0.052736 0.980468 1 1 1.000000
0  24.609755 90.084389 4.872400  0.007754 0.078457 -0.996887  0.052736 0.975585 1 1 1.000000
misc
0  25.573225 96.856201 5.216497  -0.372862 0.093540 -0.923160  0.134770 0.982421 1 1 1.000000
0  24.609755 90.084389 4.872400  0.007754 0.078457 -0.996887  0.052736 0.975585 1 1 1.000000
0  25.091488 96.897491 5.312843  0.006958 0.063813 -0.997938  0.134770 0.977538 1 1 1.000000
misc
0  26.261415 96.787384 4.514540  -0.910264 0.148925 -0.386317  0.134770 0.989257 1 1 1.000000
0  26.371525 96.759850 4.032805  -0.985904 0.167209 -0.005863  0.134770 0.990234 1 1 1.000000
0  25.215364 90.015572 4.266791  -0.983351 0.181612 -0.006193  0.052736 0.982421 1 1 1.000000
misc
0  26.261415 96.787384 4.514540  -0.910264 0.148925 -0.386317  0.134770 0.989257 1 1 1.000000
0  25.215364 90.015572 4.266791  -0.983351 0.181612 -0.006193  0.052736 0.982421 1 1 1.000000
0  25.036434 90.043098 4.693470  -0.693165 0.137117 -0.707617  0.052736 0.980468 1 1 1.000000
misc
0  26.261415 96.787384 4.514540  -0.910264 0.148925 -0.386317  0.134770 0.989257 1 1 1.000000
0  25.036434 90.043098 4.693470  -0.693165 0.137117 -0.707617  0.052736 0.980468 1 1 1.000000
0  25.986137 96.814911 4.941220  -0.695089 0.122624 -0.708389  0.134770 0.986328 1 1 1.000000
misc
0  26.261415 96.746086 3.537307  -0.910324 0.175271 0.374953  0.134770 0.989257 1 1 1.000000
0  25.986137 96.746086 3.124392  -0.695155 0.171420 0.698122  0.134770 0.986328 1 1 1.000000
0  25.036434 90.015572 3.826348  -0.693087 0.185795 0.696499  0.052736 0.980468 1 1 1.000000
misc
0  26.261415 96.746086 3.537307  -0.910324 0.175271 0.374953  0.134770 0.989257 1 1 1.000000
0  25.036434 90.015572 3.826348  -0.693087 0.185795 0.696499  0.052736 0.980468 1 1 1.000000
0  25.215364 90.015572 4.266791  -0.983351 0.181612 -0.006193  0.052736 0.982421 1 1 1.000000
misc
0  26.261415 96.746086 3.537307  -0.910324 0.175271 0.374953  0.134770 0.989257 1 1 1.000000
0  25.215364 90.015572 4.266791  -0.983351 0.181612 -0.006193  0.052736 0.982421 1 1 1.000000
0  26.371525 96.759850 4.032805  -0.985904 0.167209 -0.005863  0.134770 0.990234 1 1 1.000000
misc
0  25.573225 96.773613 2.835351  -0.373020 0.156679 0.914499  0.134770 0.982421 1 1 1.000000
0  25.091488 96.801147 2.739004  0.006950 0.132818 0.991116  0.134770 0.977538 1 1 1.000000
0  24.609755 90.029335 3.647418  0.007768 0.147249 0.989069  0.052736 0.975585 1 1 1.000000
misc
0  25.573225 96.773613 2.835351  -0.373020 0.156679 0.914499  0.134770 0.982421 1 1 1.000000
0  24.609755 90.029335 3.647418  0.007768 0.147249 0.989069  0.052736 0.975585 1 1 1.000000
0  25.036434 90.015572 3.826348  -0.693087 0.185795 0.696499  0.052736 0.980468 1 1 1.000000
misc
0  25.573225 96.773613 2.835351  -0.373020 0.156679 0.914499  0.134770 0.982421 1 1 1.000000
0  25.036434 90.015572 3.826348  -0.693087 0.185795 0.696499  0.052736 0.980468 1 1 1.000000
0  25.986137 96.746086 3.124392  -0.695155 0.171420 0.698122  0.134770 0.986328 1 1 1.000000
misc
0  24.595989 96.842438 2.835351  0.387070 0.103583 0.916214  0.134770 0.972655 1 1 1.000000
0  24.183073 96.883728 3.110628  0.708870 0.073979 0.701449  0.134770 0.968749 1 1 1.000000
0  24.183075 90.070625 3.826348  0.708772 0.087273 0.700018  0.052736 0.971679 1 1 1.000000
misc
0  24.595989 96.842438 2.835351  0.387070 0.103583 0.916214  0.134770 0.972655 1 1 1.000000
0  24.183075 90.070625 3.826348  0.708772 0.087273 0.700018  0.052736 0.971679 1 1 1.000000
0  24.609755 90.029335 3.647418  0.007768 0.147249 0.989069  0.052736 0.975585 1 1 1.000000
misc
0  24.595989 96.842438 2.835351  0.387070 0.103583 0.916214  0.134770 0.972655 1 1 1.000000
0  24.609755 90.029335 3.647418  0.007768 0.147249 0.989069  0.052736 0.975585 1 1 1.000000
0  25.091488 96.801147 2.739004  0.006950 0.132818 0.991116  0.134770 0.977538 1 1 1.000000
misc
0  23.907797 96.911255 3.537307  0.924008 0.047974 0.379351  0.134770 0.965819 1 1 1.000000
0  23.797686 96.938782 4.019042  0.999566 0.029446 -0.000959  0.134770 0.964843 1 1 1.000000
0  24.004145 90.098152 4.253027  0.999032 0.043975 -0.001419  0.052736 0.969726 1 1 1.000000
misc
0  23.907797 96.911255 3.537307  0.924008 0.047974 0.379351  0.134770 0.965819 1 1 1.000000
0  24.004145 90.098152 4.253027  0.999032 0.043975 -0.001419  0.052736 0.969726 1 1 1.000000
0  24.183075 90.070625 3.826348  0.708772 0.087273 0.700018  0.052736 0.971679 1 1 1.000000
misc
0  23.907797 96.911255 3.537307  0.924008 0.047974 0.379351  0.134770 0.965819 1 1 1.000000
0  24.183075 90.070625 3.826348  0.708772 0.087273 0.700018  0.052736 0.971679 1 1 1.000000
0  24.183073 96.883728 3.110628  0.708870 0.073979 0.701449  0.134770 0.968749 1 1 1.000000
misc
0  -26.385303 96.677269 4.555836  -0.877159 0.338475 0.340627  0.152348 0.962889 1 1 1.000000
0  -26.495417 96.649742 4.032809  -0.946356 0.322915 -0.011685  0.152348 0.962889 1 1 1.000000
0  -26.027445 89.974281 4.266795  -0.997563 -0.069713 0.002707  0.194342 0.962889 1 1 1.000000
misc
0  -26.027445 89.974281 4.266795  -0.997563 -0.069713 0.002707  0.194342 0.962889 1 1 1.000000
0  -25.917332 90.001808 4.789821  -0.921651 -0.051061 0.384645  0.194342 0.962889 1 1 1.000000
0  -26.385303 96.677269 4.555836  -0.877159 0.338475 0.340627  0.152348 0.962889 1 1 1.000000
misc
0  -26.288960 96.787384 4.514544  -0.671412 0.702895 0.234827  0.140629 0.962889 1 1 1.000000
0  -26.399071 96.759850 4.032809  -0.720477 0.693091 -0.023205  0.137700 0.962889 1 1 1.000000
0  -26.495417 96.649742 4.032809  -0.946356 0.322915 -0.011685  0.137700 0.962889 1 1 1.000000
misc
0  -26.495417 96.649742 4.032809  -0.946356 0.322915 -0.011685  0.137700 0.962889 1 1 1.000000
0  -26.385303 96.677269 4.555836  -0.877159 0.338475 0.340627  0.140629 0.962889 1 1 1.000000
0  -26.288960 96.787384 4.514544  -0.671412 0.702895 0.234827  0.140629 0.962889 1 1 1.000000
misc
0  -26.096264 96.718559 5.010043  -0.678641 0.360443 0.639943  0.152348 0.962889 1 1 1.000000
0  -26.385303 96.677269 4.555836  -0.877159 0.338475 0.340627  0.152348 0.962889 1 1 1.000000
0  -25.917332 90.001808 4.789821  -0.921651 -0.051061 0.384645  0.194342 0.962889 1 1 1.000000
misc
0  -25.917332 90.001808 4.789821  -0.921651 -0.051061 0.384645  0.194342 0.962889 1 1 1.000000
0  -25.628292 90.029335 5.244028  -0.705369 -0.024587 0.708414  0.194342 0.962889 1 1 1.000000
0  -26.096264 96.718559 5.010043  -0.678641 0.360443 0.639943  0.152348 0.962889 1 1 1.000000
misc
0  -26.013683 96.814911 4.941224  -0.527527 0.716932 0.455767  0.140629 0.962889 1 1 1.000000
0  -26.288960 96.787384 4.514544  -0.671412 0.702895 0.234827  0.140629 0.962889 1 1 1.000000
0  -26.385303 96.677269 4.555836  -0.877159 0.338475 0.340627  0.140629 0.962889 1 1 1.000000
misc
0  -26.385303 96.677269 4.555836  -0.877159 0.338475 0.340627  0.140629 0.962889 1 1 1.000000
0  -26.096264 96.718559 5.010043  -0.678641 0.360443 0.639943  0.140629 0.962889 1 1 1.000000
0  -26.013683 96.814911 4.941224  -0.527527 0.716932 0.455767  0.140629 0.962889 1 1 1.000000
misc
0  -25.642057 96.759850 5.312847  -0.380399 0.385624 0.840589  0.152348 0.962889 1 1 1.000000
0  -26.096264 96.718559 5.010043  -0.678641 0.360443 0.639943  0.152348 0.962889 1 1 1.000000
0  -25.628292 90.029335 5.244028  -0.705369 -0.024587 0.708414  0.194342 0.962889 1 1 1.000000
misc
0  -25.628292 90.029335 5.244028  -0.705369 -0.024587 0.708414  0.194342 0.962889 1 1 1.000000
0  -25.174086 90.070625 5.546833  -0.381771 0.005553 0.924240  0.194342 0.962889 1 1 1.000000
0  -25.642057 96.759850 5.312847  -0.380399 0.385624 0.840589  0.152348 0.962889 1 1 1.000000
misc
0  -25.600767 96.856201 5.216501  -0.309189 0.733159 0.605707  0.140629 0.962889 1 1 1.000000
0  -26.013683 96.814911 4.941224  -0.527527 0.716932 0.455767  0.140629 0.962889 1 1 1.000000
0  -26.096264 96.718559 5.010043  -0.678641 0.360443 0.639943  0.140629 0.962889 1 1 1.000000
misc
0  -26.096264 96.718559 5.010043  -0.678641 0.360443 0.639943  0.140629 0.962889 1 1 1.000000
0  -25.642057 96.759850 5.312847  -0.380399 0.385624 0.840589  0.140629 0.962889 1 1 1.000000
0  -25.600767 96.856201 5.216501  -0.309189 0.733159 0.605707  0.140629 0.962889 1 1 1.000000
misc
0  -25.105267 96.801147 5.422958  -0.027335 0.410178 0.911596  0.152348 0.962889 1 1 1.000000
0  -25.642057 96.759850 5.312847  -0.380399 0.385624 0.840589  0.152348 0.962889 1 1 1.000000
0  -25.174086 90.070625 5.546833  -0.381771 0.005553 0.924240  0.194342 0.962889 1 1 1.000000
misc
0  -25.174086 90.070625 5.546833  -0.381771 0.005553 0.924240  0.194342 0.962889 1 1 1.000000
0  -24.637295 90.111916 5.656944  -0.000482 0.034918 0.999390  0.194342 0.962889 1 1 1.000000
0  -25.105267 96.801147 5.422958  -0.027335 0.410178 0.911596  0.152348 0.962889 1 1 1.000000
misc
0  -25.119030 96.897491 5.312847  -0.048601 0.749277 0.660471  0.140629 0.962889 1 1 1.000000
0  -25.600767 96.856201 5.216501  -0.309189 0.733159 0.605707  0.140629 0.962889 1 1 1.000000
0  -25.642057 96.759850 5.312847  -0.380399 0.385624 0.840589  0.140629 0.962889 1 1 1.000000
misc
0  -25.642057 96.759850 5.312847  -0.380399 0.385624 0.840589  0.140629 0.962889 1 1 1.000000
0  -25.105267 96.801147 5.422958  -0.027335 0.410178 0.911596  0.140629 0.962889 1 1 1.000000
0  -25.119030 96.897491 5.312847  -0.048601 0.749277 0.660471  0.140629 0.962889 1 1 1.000000
misc
0  -24.582241 96.828674 5.312847  0.326699 0.430214 0.841536  0.152348 0.962889 1 1 1.000000
0  -25.105267 96.801147 5.422958  -0.027335 0.410178 0.911596  0.152348 0.962889 1 1 1.000000
0  -24.637295 90.111916 5.656944  -0.000482 0.034918 0.999390  0.194342 0.962889 1 1 1.000000
misc
0  -24.637295 90.111916 5.656944  -0.000482 0.034918 0.999390  0.194342 0.962889 1 1 1.000000
0  -24.114269 90.153206 5.546833  0.381883 0.058948 0.922329  0.194342 0.962889 1 1 1.000000
0  -24.582241 96.828674 5.312847  0.326699 0.430214 0.841536  0.152348 0.962889 1 1 1.000000
misc
0  -24.623531 96.925018 5.202736  0.214490 0.762077 0.610927  0.140629 0.962889 1 1 1.000000
0  -25.119030 96.897491 5.312847  -0.048601 0.749277 0.660471  0.140629 0.962889 1 1 1.000000
0  -25.105267 96.801147 5.422958  -0.027335 0.410178 0.911596  0.140629 0.962889 1 1 1.000000
misc
0  -25.105267 96.801147 5.422958  -0.027335 0.410178 0.911596  0.140629 0.962889 1 1 1.000000
0  -24.582241 96.828674 5.312847  0.326699 0.430214 0.841536  0.140629 0.962889 1 1 1.000000
0  -24.623531 96.925018 5.202736  0.214490 0.762077 0.610927  0.140629 0.962889 1 1 1.000000
misc
0  -24.128035 96.856201 5.010043  0.627362 0.442868 0.640535  0.152348 0.962889 1 1 1.000000
0  -24.582241 96.828674 5.312847  0.326699 0.430214 0.841536  0.152348 0.962889 1 1 1.000000
0  -24.114269 90.153206 5.546833  0.381883 0.058948 0.922329  0.194342 0.962889 1 1 1.000000
misc
0  -24.114269 90.153206 5.546833  0.381883 0.058948 0.922329  0.194342 0.962889 1 1 1.000000
0  -23.660063 90.166969 5.244028  0.705072 0.073987 0.705266  0.194342 0.962889 1 1 1.000000
0  -24.128035 96.856201 5.010043  0.627362 0.442868 0.640535  0.152348 0.962889 1 1 1.000000
misc
0  -24.210617 96.938782 4.927460  0.438801 0.770323 0.462661  0.140629 0.962889 1 1 1.000000
0  -24.623531 96.925018 5.202736  0.214490 0.762077 0.610927  0.140629 0.962889 1 1 1.000000
0  -24.582241 96.828674 5.312847  0.326699 0.430214 0.841536  0.140629 0.962889 1 1 1.000000
misc
0  -24.582241 96.828674 5.312847  0.326699 0.430214 0.841536  0.140629 0.962889 1 1 1.000000
0  -24.128035 96.856201 5.010043  0.627362 0.442868 0.640535  0.140629 0.962889 1 1 1.000000
0  -24.210617 96.938782 4.927460  0.438801 0.770323 0.462661  0.140629 0.962889 1 1 1.000000
misc
0  -23.825232 96.856201 4.555836  0.828178 0.445723 0.339782  0.152348 0.962889 1 1 1.000000
0  -24.128035 96.856201 5.010043  0.627362 0.442868 0.640535  0.152348 0.962889 1 1 1.000000
0  -23.660063 90.166969 5.244028  0.705072 0.073987 0.705266  0.194342 0.962889 1 1 1.000000
misc
0  -23.660063 90.166969 5.244028  0.705072 0.073987 0.705266  0.194342 0.962889 1 1 1.000000
0  -23.357256 90.180733 4.789821  0.921628 0.077762 0.380203  0.194342 0.962889 1 1 1.000000
0  -23.825232 96.856201 4.555836  0.828178 0.445723 0.339782  0.152348 0.962889 1 1 1.000000
misc
0  -23.935341 96.952545 4.514544  0.588574 0.772415 0.238655  0.140629 0.962889 1 1 1.000000
0  -24.210617 96.938782 4.927460  0.438801 0.770323 0.462661  0.140629 0.962889 1 1 1.000000
0  -24.128035 96.856201 5.010043  0.627362 0.442868 0.640535  0.140629 0.962889 1 1 1.000000
misc
0  -24.128035 96.856201 5.010043  0.627362 0.442868 0.640535  0.140629 0.962889 1 1 1.000000
0  -23.825232 96.856201 4.555836  0.828178 0.445723 0.339782  0.140629 0.962889 1 1 1.000000
0  -23.935341 96.952545 4.514544  0.588574 0.772415 0.238655  0.140629 0.962889 1 1 1.000000
misc
0  -23.715118 96.842438 4.019046  0.898206 0.439292 -0.015788  0.152348 0.962889 1 1 1.000000
0  -23.825232 96.856201 4.555836  0.828178 0.445723 0.339782  0.152348 0.962889 1 1 1.000000
0  -23.357256 90.180733 4.789821  0.921628 0.077762 0.380203  0.194342 0.962889 1 1 1.000000
misc
0  -23.357256 90.180733 4.789821  0.921628 0.077762 0.380203  0.194342 0.962889 1 1 1.000000
0  -23.260910 90.166969 4.253031  0.997565 0.069706 -0.002409  0.194342 0.962889 1 1 1.000000
0  -23.715118 96.842438 4.019046  0.898206 0.439292 -0.015788  0.152348 0.962889 1 1 1.000000
misc
0  -23.825232 96.938782 4.019046  0.639975 0.767965 -0.025731  0.137700 0.962889 1 1 1.000000
0  -23.935341 96.952545 4.514544  0.588574 0.772415 0.238655  0.140629 0.962889 1 1 1.000000
0  -23.825232 96.856201 4.555836  0.828178 0.445723 0.339782  0.140629 0.962889 1 1 1.000000
misc
0  -23.825232 96.856201 4.555836  0.828178 0.445723 0.339782  0.140629 0.962889 1 1 1.000000
0  -23.715118 96.842438 4.019046  0.898206 0.439292 -0.015788  0.137700 0.962889 1 1 1.000000
0  -23.825232 96.938782 4.019046  0.639975 0.767965 -0.025731  0.137700 0.962889 1 1 1.000000
misc
0  -23.825232 96.814911 3.496020  0.826775 0.423659 -0.370075  0.152348 0.962889 1 1 1.000000
0  -23.715118 96.842438 4.019046  0.898206 0.439292 -0.015788  0.152348 0.962889 1 1 1.000000
0  -23.260910 90.166969 4.253031  0.997565 0.069706 -0.002409  0.194342 0.962889 1 1 1.000000
misc
0  -23.260910 90.166969 4.253031  0.997565 0.069706 -0.002409  0.194342 0.962889 1 1 1.000000
0  -23.357256 90.139442 3.730005  0.921663 0.051043 -0.384619  0.194342 0.962889 1 1 1.000000
0  -23.825232 96.814911 3.496020  0.826775 0.423659 -0.370075  0.152348 0.962889 1 1 1.000000
misc
0  -23.935341 96.911255 3.537311  0.585199 0.757776 -0.288648  0.137700 0.962889 1 1 1.000000
0  -23.825232 96.938782 4.019046  0.639975 0.767965 -0.025731  0.137700 0.962889 1 1 1.000000
0  -23.715118 96.842438 4.019046  0.898206 0.439292 -0.015788  0.137700 0.962889 1 1 1.000000
misc
0  -23.715118 96.842438 4.019046  0.898206 0.439292 -0.015788  0.137700 0.962889 1 1 1.000000
0  -23.825232 96.814911 3.496020  0.826775 0.423659 -0.370075  0.137700 0.962889 1 1 1.000000
0  -23.935341 96.911255 3.537311  0.585199 0.757776 -0.288648  0.137700 0.962889 1 1 1.000000
misc
0  -24.128035 96.787384 3.041812  0.625309 0.401551 -0.669138  0.152348 0.962889 1 1 1.000000
0  -23.825232 96.814911 3.496020  0.826775 0.423659 -0.370075  0.152348 0.962889 1 1 1.000000
0  -23.357256 90.139442 3.730005  0.921663 0.051043 -0.384619  0.194342 0.962889 1 1 1.000000
misc
0  -23.357256 90.139442 3.730005  0.921663 0.051043 -0.384619  0.194342 0.962889 1 1 1.000000
0  -23.660063 90.098152 3.275798  0.705295 0.024559 -0.708489  0.194342 0.962889 1 1 1.000000
0  -24.128035 96.787384 3.041812  0.625309 0.401551 -0.669138  0.152348 0.962889 1 1 1.000000
misc
0  -24.210617 96.883728 3.110631  0.433909 0.743397 -0.509002  0.137700 0.962889 1 1 1.000000
0  -23.935341 96.911255 3.537311  0.585199 0.757776 -0.288648  0.137700 0.962889 1 1 1.000000
0  -23.825232 96.814911 3.496020  0.826775 0.423659 -0.370075  0.137700 0.962889 1 1 1.000000
misc
0  -23.825232 96.814911 3.496020  0.826775 0.423659 -0.370075  0.137700 0.962889 1 1 1.000000
0  -24.128035 96.787384 3.041812  0.625309 0.401551 -0.669138  0.137700 0.962889 1 1 1.000000
0  -24.210617 96.883728 3.110631  0.433909 0.743397 -0.509002  0.137700 0.962889 1 1 1.000000
misc
0  -24.582241 96.746086 2.739008  0.325098 0.376396 -0.867547  0.152348 0.962889 1 1 1.000000
0  -24.128035 96.787384 3.041812  0.625309 0.401551 -0.669138  0.152348 0.962889 1 1 1.000000
0  -23.660063 90.098152 3.275798  0.705295 0.024559 -0.708489  0.194342 0.962889 1 1 1.000000
misc
0  -23.660063 90.098152 3.275798  0.705295 0.024559 -0.708489  0.194342 0.962889 1 1 1.000000
0  -24.114269 90.056862 2.972993  0.381714 -0.005556 -0.924264  0.194342 0.962889 1 1 1.000000
0  -24.582241 96.746086 2.739008  0.325098 0.376396 -0.867547  0.152348 0.962889 1 1 1.000000
misc
0  -24.623531 96.842438 2.835355  0.210696 0.727272 -0.653210  0.137700 0.962889 1 1 1.000000
0  -24.210617 96.883728 3.110631  0.433909 0.743397 -0.509002  0.137700 0.962889 1 1 1.000000
0  -24.128035 96.787384 3.041812  0.625309 0.401551 -0.669138  0.137700 0.962889 1 1 1.000000
misc
0  -24.128035 96.787384 3.041812  0.625309 0.401551 -0.669138  0.137700 0.962889 1 1 1.000000
0  -24.582241 96.746086 2.739008  0.325098 0.376396 -0.867547  0.138676 0.962889 1 1 1.000000
0  -24.623531 96.842438 2.835355  0.210696 0.727272 -0.653210  0.137700 0.962889 1 1 1.000000
misc
0  -25.105267 96.704796 2.642661  -0.027717 0.351886 -0.935632  0.152348 0.962889 1 1 1.000000
0  -24.582241 96.746086 2.739008  0.325098 0.376396 -0.867547  0.152348 0.962889 1 1 1.000000
0  -24.114269 90.056862 2.972993  0.381714 -0.005556 -0.924264  0.194342 0.962889 1 1 1.000000
misc
0  -24.114269 90.056862 2.972993  0.381714 -0.005556 -0.924264  0.194342 0.962889 1 1 1.000000
0  -24.637295 90.015572 2.876646  -0.000051 -0.034946 -0.999389  0.194342 0.962889 1 1 1.000000
0  -25.105267 96.704796 2.642661  -0.027717 0.351886 -0.935632  0.152348 0.962889 1 1 1.000000
misc
0  -25.119030 96.801147 2.739008  -0.049378 0.711462 -0.700988  0.137700 0.962889 1 1 1.000000
0  -24.623531 96.842438 2.835355  0.210696 0.727272 -0.653210  0.137700 0.962889 1 1 1.000000
0  -24.582241 96.746086 2.739008  0.325098 0.376396 -0.867547  0.138676 0.962889 1 1 1.000000
misc
0  -24.582241 96.746086 2.739008  0.325098 0.376396 -0.867547  0.138676 0.962889 1 1 1.000000
0  -25.105267 96.704796 2.642661  -0.027717 0.351886 -0.935632  0.138676 0.962889 1 1 1.000000
0  -25.119030 96.801147 2.739008  -0.049378 0.711462 -0.700988  0.137700 0.962889 1 1 1.000000
misc
0  -25.642057 96.663506 2.739008  -0.379542 0.331830 -0.863618  0.152348 0.962889 1 1 1.000000
0  -25.105267 96.704796 2.642661  -0.027717 0.351886 -0.935632  0.152348 0.962889 1 1 1.000000
0  -24.637295 90.015572 2.876646  -0.000051 -0.034946 -0.999389  0.194342 0.962889 1 1 1.000000
misc
0  -24.637295 90.015572 2.876646  -0.000051 -0.034946 -0.999389  0.194342 0.962889 1 1 1.000000
0  -25.174086 89.988045 2.972993  -0.381726 -0.058930 -0.922395  0.194342 0.962889 1 1 1.000000
0  -25.642057 96.663506 2.739008  -0.379542 0.331830 -0.863618  0.152348 0.962889 1 1 1.000000
misc
0  -25.600767 96.773613 2.835355  -0.306859 0.698716 -0.646245  0.137700 0.962889 1 1 1.000000
0  -25.119030 96.801147 2.739008  -0.049378 0.711462 -0.700988  0.137700 0.962889 1 1 1.000000
0  -25.105267 96.704796 2.642661  -0.027717 0.351886 -0.935632  0.138676 0.962889 1 1 1.000000
misc
0  -25.105267 96.704796 2.642661  -0.027717 0.351886 -0.935632  0.138676 0.962889 1 1 1.000000
0  -25.642057 96.663506 2.739008  -0.379542 0.331830 -0.863618  0.137700 0.962889 1 1 1.000000
0  -25.600767 96.773613 2.835355  -0.306859 0.698716 -0.646245  0.137700 0.962889 1 1 1.000000
misc
0  -26.096264 96.649742 3.041812  -0.677266 0.319356 -0.662814  0.152348 0.962889 1 1 1.000000
0  -25.642057 96.663506 2.739008  -0.379542 0.331830 -0.863618  0.152348 0.962889 1 1 1.000000
0  -25.174086 89.988045 2.972993  -0.381726 -0.058930 -0.922395  0.194342 0.962889 1 1 1.000000
misc
0  -25.174086 89.988045 2.972993  -0.381726 -0.058930 -0.922395  0.194342 0.962889 1 1 1.000000
0  -25.628292 89.960518 3.275798  -0.705424 -0.073977 -0.704914  0.194342 0.962889 1 1 1.000000
0  -26.096264 96.649742 3.041812  -0.677266 0.319356 -0.662814  0.152348 0.962889 1 1 1.000000
misc
0  -26.013683 96.746086 3.124396  -0.523520 0.691107 -0.498294  0.137700 0.962889 1 1 1.000000
0  -25.600767 96.773613 2.835355  -0.306859 0.698716 -0.646245  0.137700 0.962889 1 1 1.000000
0  -25.642057 96.663506 2.739008  -0.379542 0.331830 -0.863618  0.137700 0.962889 1 1 1.000000
misc
0  -25.642057 96.663506 2.739008  -0.379542 0.331830 -0.863618  0.137700 0.962889 1 1 1.000000
0  -26.096264 96.649742 3.041812  -0.677266 0.319356 -0.662814  0.137700 0.962889 1 1 1.000000
0  -26.013683 96.746086 3.124396  -0.523520 0.691107 -0.498294  0.137700 0.962889 1 1 1.000000
misc
0  -26.385303 96.635979 3.496020  -0.876162 0.316212 -0.363799  0.152348 0.962889 1 1 1.000000
0  -26.096264 96.649742 3.041812  -0.677266 0.319356 -0.662814  0.152348 0.962889 1 1 1.000000
0  -25.628292 89.960518 3.275798  -0.705424 -0.073977 -0.704914  0.194342 0.962889 1 1 1.000000
misc
0  -25.628292 89.960518 3.275798  -0.705424 -0.073977 -0.704914  0.194342 0.962889 1 1 1.000000
0  -25.917332 89.960518 3.730005  -0.921633 -0.077762 -0.380190  0.194342 0.962889 1 1 1.000000
0  -26.385303 96.635979 3.496020  -0.876162 0.316212 -0.363799  0.152348 0.962889 1 1 1.000000
misc
0  -26.288960 96.746086 3.537311  -0.668593 0.688850 -0.280123  0.137700 0.962889 1 1 1.000000
0  -26.013683 96.746086 3.124396  -0.523520 0.691107 -0.498294  0.137700 0.962889 1 1 1.000000
0  -26.096264 96.649742 3.041812  -0.677266 0.319356 -0.662814  0.137700 0.962889 1 1 1.000000
misc
0  -26.096264 96.649742 3.041812  -0.677266 0.319356 -0.662814  0.137700 0.962889 1 1 1.000000
0  -26.385303 96.635979 3.496020  -0.876162 0.316212 -0.363799  0.137700 0.962889 1 1 1.000000
0  -26.288960 96.746086 3.537311  -0.668593 0.688850 -0.280123  0.137700 0.962889 1 1 1.000000
misc
0  -26.495417 96.649742 4.032809  -0.946356 0.322915 -0.011685  0.152348 0.962889 1 1 1.000000
0  -26.385303 96.635979 3.496020  -0.876162 0.316212 -0.363799  0.152348 0.962889 1 1 1.000000
0  -25.917332 89.960518 3.730005  -0.921633 -0.077762 -0.380190  0.194342 0.962889 1 1 1.000000
misc
0  -25.917332 89.960518 3.730005  -0.921633 -0.077762 -0.380190  0.194342 0.962889 1 1 1.000000
0  -26.027445 89.974281 4.266795  -0.997563 -0.069713 0.002707  0.194342 0.962889 1 1 1.000000
0  -26.495417 96.649742 4.032809  -0.946356 0.322915 -0.011685  0.152348 0.962889 1 1 1.000000
misc
0  -26.399071 96.759850 4.032809  -0.720477 0.693091 -0.023205  0.137700 0.962889 1 1 1.000000
0  -26.288960 96.746086 3.537311  -0.668593 0.688850 -0.280123  0.137700 0.962889 1 1 1.000000
0  -26.385303 96.635979 3.496020  -0.876162 0.316212 -0.363799  0.137700 0.962889 1 1 1.000000
misc
0  -26.385303 96.635979 3.496020  -0.876162 0.316212 -0.363799  0.137700 0.962889 1 1 1.000000
0  -26.495417 96.649742 4.032809  -0.946356 0.322915 -0.011685  0.137700 0.962889 1 1 1.000000
0  -26.399071 96.759850 4.032809  -0.720477 0.693091 -0.023205  0.137700 0.962889 1 1 1.000000
misc
0  -23.935341 96.952545 4.514544  -0.924000 0.021575 -0.381783  0.134770 0.965819 1 1 1.000000
0  -23.825232 96.938782 4.019046  -0.999568 0.029365 -0.001113  0.134770 0.964843 1 1 1.000000
0  -24.031685 90.098152 4.253031  -0.999032 0.043972 -0.001421  0.052736 0.969726 1 1 1.000000
misc
0  -23.935341 96.952545 4.514544  -0.924000 0.021575 -0.381783  0.134770 0.965819 1 1 1.000000
0  -24.031685 90.098152 4.253031  -0.999032 0.043972 -0.001421  0.052736 0.969726 1 1 1.000000
0  -24.210615 90.098152 4.693474  -0.708769 0.039795 -0.704317  0.052736 0.971679 1 1 1.000000
misc
0  -23.935341 96.952545 4.514544  -0.924000 0.021575 -0.381783  0.134770 0.965819 1 1 1.000000
0  -24.210615 90.098152 4.693474  -0.708769 0.039795 -0.704317  0.052736 0.971679 1 1 1.000000
0  -24.210617 96.938782 4.927460  -0.708870 0.025198 -0.704889  0.134770 0.968749 1 1 1.000000
misc
0  -24.623531 96.925018 5.202736  -0.386901 0.040210 -0.921244  0.134770 0.972655 1 1 1.000000
0  -24.210617 96.938782 4.927460  -0.708870 0.025198 -0.704889  0.134770 0.968749 1 1 1.000000
0  -24.210615 90.098152 4.693474  -0.708769 0.039795 -0.704317  0.052736 0.971679 1 1 1.000000
misc
0  -24.623531 96.925018 5.202736  -0.386901 0.040210 -0.921244  0.134770 0.972655 1 1 1.000000
0  -24.210615 90.098152 4.693474  -0.708769 0.039795 -0.704317  0.052736 0.971679 1 1 1.000000
0  -24.637295 90.084389 4.872404  -0.007737 0.077990 -0.996924  0.052736 0.975585 1 1 1.000000
misc
0  -24.623531 96.925018 5.202736  -0.386901 0.040210 -0.921244  0.134770 0.972655 1 1 1.000000
0  -24.637295 90.084389 4.872404  -0.007737 0.077990 -0.996924  0.052736 0.975585 1 1 1.000000
0  -25.119030 96.897491 5.312847  -0.007001 0.063776 -0.997940  0.134770 0.977538 1 1 1.000000
misc
0  -25.600767 96.856201 5.216501  0.372861 0.093540 -0.923160  0.134770 0.982421 1 1 1.000000
0  -25.119030 96.897491 5.312847  -0.007001 0.063776 -0.997940  0.134770 0.977538 1 1 1.000000
0  -24.637295 90.084389 4.872404  -0.007737 0.077990 -0.996924  0.052736 0.975585 1 1 1.000000
misc
0  -25.600767 96.856201 5.216501  0.372861 0.093540 -0.923160  0.134770 0.982421 1 1 1.000000
0  -24.637295 90.084389 4.872404  -0.007737 0.077990 -0.996924  0.052736 0.975585 1 1 1.000000
0  -25.063972 90.043098 4.693474  0.693133 0.137123 -0.707646  0.052736 0.980468 1 1 1.000000
misc
0  -25.600767 96.856201 5.216501  0.372861 0.093540 -0.923160  0.134770 0.982421 1 1 1.000000
0  -25.063972 90.043098 4.693474  0.693133 0.137123 -0.707646  0.052736 0.980468 1 1 1.000000
0  -26.013683 96.814911 4.941224  0.695057 0.122630 -0.708419  0.134770 0.986328 1 1 1.000000
misc
0  -26.288960 96.787384 4.514544  0.910264 0.148925 -0.386316  0.134770 0.989257 1 1 1.000000
0  -26.013683 96.814911 4.941224  0.695057 0.122630 -0.708419  0.134770 0.986328 1 1 1.000000
0  -25.063972 90.043098 4.693474  0.693133 0.137123 -0.707646  0.052736 0.980468 1 1 1.000000
misc
0  -26.288960 96.787384 4.514544  0.910264 0.148925 -0.386316  0.134770 0.989257 1 1 1.000000
0  -25.063972 90.043098 4.693474  0.693133 0.137123 -0.707646  0.052736 0.980468 1 1 1.000000
0  -25.242905 90.015572 4.266795  0.983349 0.181624 -0.006192  0.052736 0.982421 1 1 1.000000
misc
0  -26.288960 96.787384 4.514544  0.910264 0.148925 -0.386316  0.134770 0.989257 1 1 1.000000
0  -25.242905 90.015572 4.266795  0.983349 0.181624 -0.006192  0.052736 0.982421 1 1 1.000000
0  -26.399071 96.759850 4.032809  0.985902 0.167218 -0.005863  0.134770 0.990234 1 1 1.000000
misc
0  -26.288960 96.746086 3.537311  0.910280 0.175338 0.375029  0.134770 0.989257 1 1 1.000000
0  -26.399071 96.759850 4.032809  0.985902 0.167218 -0.005863  0.134770 0.990234 1 1 1.000000
0  -25.242905 90.015572 4.266795  0.983349 0.181624 -0.006192  0.052736 0.982421 1 1 1.000000
misc
0  -26.288960 96.746086 3.537311  0.910280 0.175338 0.375029  0.134770 0.989257 1 1 1.000000
0  -25.242905 90.015572 4.266795  0.983349 0.181624 -0.006192  0.052736 0.982421 1 1 1.000000
0  -25.063972 90.015572 3.826352  0.693084 0.185806 0.696499  0.052736 0.980468 1 1 1.000000
misc
0  -26.288960 96.746086 3.537311  0.910280 0.175338 0.375029  0.134770 0.989257 1 1 1.000000
0  -25.063972 90.015572 3.826352  0.693084 0.185806 0.696499  0.052736 0.980468 1 1 1.000000
0  -26.013683 96.746086 3.124396  0.695122 0.171426 0.698154  0.134770 0.986328 1 1 1.000000
misc
0  -25.600767 96.773613 2.835355  0.372975 0.156681 0.914517  0.134770 0.982421 1 1 1.000000
0  -26.013683 96.746086 3.124396  0.695122 0.171426 0.698154  0.134770 0.986328 1 1 1.000000
0  -25.063972 90.015572 3.826352  0.693084 0.185806 0.696499  0.052736 0.980468 1 1 1.000000
misc
0  -25.600767 96.773613 2.835355  0.372975 0.156681 0.914517  0.134770 0.982421 1 1 1.000000
0  -25.063972 90.015572 3.826352  0.693084 0.185806 0.696499  0.052736 0.980468 1 1 1.000000
0  -24.637295 90.029335 3.647422  -0.007937 0.147251 0.989067  0.052736 0.975585 1 1 1.000000
misc
0  -25.600767 96.773613 2.835355  0.372975 0.156681 0.914517  0.134770 0.982421 1 1 1.000000
0  -24.637295 90.029335 3.647422  -0.007937 0.147251 0.989067  0.052736 0.975585 1 1 1.000000
0  -25.119030 96.801147 2.739008  -0.006733 0.132667 0.991138  0.134770 0.977538 1 1 1.000000
misc
0  -24.623531 96.842438 2.835355  -0.387071 0.103583 0.916213  0.134770 0.972655 1 1 1.000000
0  -25.119030 96.801147 2.739008  -0.006733 0.132667 0.991138  0.134770 0.977538 1 1 1.000000
0  -24.637295 90.029335 3.647422  -0.007937 0.147251 0.989067  0.052736 0.975585 1 1 1.000000
misc
0  -24.623531 96.842438 2.835355  -0.387071 0.103583 0.916213  0.134770 0.972655 1 1 1.000000
0  -24.637295 90.029335 3.647422  -0.007937 0.147251 0.989067  0.052736 0.975585 1 1 1.000000
0  -24.210615 90.070625 3.826352  -0.708697 0.087954 0.700008  0.052736 0.971679 1 1 1.000000
misc
0  -24.623531 96.842438 2.835355  -0.387071 0.103583 0.916213  0.134770 0.972655 1 1 1.000000
0  -24.210615 90.070625 3.826352  -0.708697 0.087954 0.700008  0.052736 0.971679 1 1 1.000000
0  -24.210617 96.883728 3.110631  -0.708870 0.073974 0.701450  0.134770 0.968749 1 1 1.000000
misc
0  -23.935341 96.911255 3.537311  -0.924026 0.047972 0.379308  0.134770 0.965819 1 1 1.000000
0  -24.210617 96.883728 3.110631  -0.708870 0.073974 0.701450  0.134770 0.968749 1 1 1.000000
0  -24.210615 90.070625 3.826352  -0.708697 0.087954 0.700008  0.052736 0.971679 1 1 1.000000
misc
0  -23.935341 96.911255 3.537311  -0.924026 0.047972 0.379308  0.134770 0.965819 1 1 1.000000
0  -24.210615 90.070625 3.826352  -0.708697 0.087954 0.700008  0.052736 0.971679 1 1 1.000000
0  -24.031685 90.098152 4.253031  -0.999032 0.043972 -0.001421  0.052736 0.969726 1 1 1.000000
misc
0  -23.935341 96.911255 3.537311  -0.924026 0.047972 0.379308  0.134770 0.965819 1 1 1.000000
0  -24.031685 90.098152 4.253031  -0.999032 0.043972 -0.001421  0.052736 0.969726 1 1 1.000000
0  -23.825232 96.938782 4.019046  -0.999568 0.029365 -0.001113  0.134770 0.964843 1 1 1.000000
end
