version 1
nodes
0 "blender_implicit" -1
1 "root" -1
2 "steering_wheel" 1
end
skeleton
time 0
0  0.000000 0.000000 0.000000  0.000000 -0.000000 0.000000
1  0.000000 0.000000 0.000000  1.570796 -0.000000 0.000000
2  17.500738 28.532450 14.135482  0.000000 -0.000000 0.000000
end
triangles
chromemisc
0  -38.180912 -13.199534 30.321762  -0.852799 -0.029328 -0.521415  0.649434 0.299783 1 1 1.000000
0  -38.387371 -12.359940 30.624567  -0.827393 -0.038977 -0.560269  0.538102 0.335917 1 1 1.000000
0  -38.414898 -10.047612 30.528217  -0.702895 -0.030440 -0.710642  0.186529 0.335917 1 1 1.000000
chromemisc
0  -38.414898 -10.047612 30.528217  -0.703356 -0.030442 -0.710185  0.186529 0.335917 1 1 1.000000
0  -38.167149 -9.675989 30.184122  -0.799546 -0.019851 -0.600277  0.076174 0.299783 1 1 1.000000
0  -38.180912 -13.199534 30.321762  -0.852756 -0.029322 -0.521486  0.649434 0.299783 1 1 1.000000
chromemisc
0  -38.167149 -9.675989 30.184122  -0.539333 0.763907 0.354352  0.076174 0.299783 1 1 1.000000
0  -38.414898 -10.047612 30.528217  -0.277902 0.948312 0.153218  0.186529 0.335917 1 1 1.000000
0  -38.235966 -10.047612 30.858551  -0.274576 0.944164 0.182104  0.186529 0.357402 1 1 1.000000
chromemisc
0  -38.235966 -10.047612 30.858551  -0.275026 0.943987 0.182346  0.186529 0.357402 1 1 1.000000
0  -37.506485 -9.634697 31.009953  -0.512941 0.777358 0.364150  0.076174 0.396466 1 1 1.000000
0  -38.167149 -9.675989 30.184122  -0.539283 0.763929 0.354381  0.076174 0.299783 1 1 1.000000
chromemisc
0  -37.506485 -9.634697 31.009953  -0.225197 0.031341 0.973809  0.076174 0.396466 1 1 1.000000
0  -38.235966 -10.047612 30.858551  0.117773 0.043945 0.992068  0.186529 0.357402 1 1 1.000000
0  -38.208439 -12.359940 30.941135  -0.096051 0.037601 0.994666  0.538102 0.357402 1 1 1.000000
chromemisc
0  -38.208439 -12.359940 30.941135  -0.096577 0.037650 0.994613  0.538102 0.357402 1 1 1.000000
0  -37.712944 -13.185769 31.092533  -0.245843 0.036773 0.968612  0.649434 0.396466 1 1 1.000000
0  -37.506485 -9.634697 31.009953  -0.225200 0.031346 0.973808  0.076174 0.396466 1 1 1.000000
chromemisc
0  -38.387371 -12.359940 30.624567  -0.750616 -0.492312 0.440686  0.538102 0.335917 1 1 1.000000
0  -38.180912 -13.199534 30.321762  -0.792025 -0.368091 0.487037  0.649434 0.299783 1 1 1.000000
0  -37.712944 -13.185769 31.092533  -0.793605 -0.372944 0.480734  0.649434 0.396466 1 1 1.000000
chromemisc
0  -37.712944 -13.185769 31.092533  -0.793614 -0.372964 0.480702  0.649434 0.396466 1 1 1.000000
0  -38.208439 -12.359940 30.941135  -0.755149 -0.490009 0.435478  0.538102 0.357402 1 1 1.000000
0  -38.387371 -12.359940 30.624567  -0.750487 -0.492624 0.440558  0.538102 0.335917 1 1 1.000000
chromemisc
0  -43.287300 -6.702997 31.835785  0.346727 0.916788 0.198192  0.386731 0.334941 1 1 1.000000
0  -43.576340 -6.565359 31.725674  -0.465772 0.871143 -0.155455  0.389660 0.333964 1 1 1.000000
0  -43.824093 -6.661705 32.840546  -0.520135 0.848988 0.093163  0.392590 0.344707 1 1 1.000000
chromemisc
0  -43.824093 -6.661705 32.840546  -0.520135 0.848988 0.093163  0.392590 0.344707 1 1 1.000000
0  -43.507523 -6.785581 32.826782  0.363836 0.923645 0.120429  0.388684 0.345683 1 1 1.000000
0  -43.287300 -6.702997 31.835785  0.346727 0.916788 0.198192  0.386731 0.334941 1 1 1.000000
chromemisc
0  -42.709217 -6.689234 30.996191  0.301735 0.916142 0.263894  0.380871 0.327128 1 1 1.000000
0  -42.929440 -6.551596 30.762205  -0.321474 0.873221 -0.366250  0.382824 0.324198 1 1 1.000000
0  -43.576340 -6.565359 31.725674  -0.465772 0.871143 -0.155455  0.389660 0.333964 1 1 1.000000
chromemisc
0  -43.576340 -6.565359 31.725674  -0.465772 0.871143 -0.155455  0.389660 0.333964 1 1 1.000000
0  -43.287300 -6.702997 31.835785  0.346727 0.916788 0.198192  0.386731 0.334941 1 1 1.000000
0  -42.709217 -6.689234 30.996191  0.301735 0.916142 0.263894  0.380871 0.327128 1 1 1.000000
chromemisc
0  -41.855858 -6.758053 30.431871  0.235540 0.921847 0.307765  0.372082 0.321268 1 1 1.000000
0  -41.965969 -6.634178 30.129068  -0.109162 0.854964 -0.507071  0.373058 0.318339 1 1 1.000000
0  -42.929440 -6.551596 30.762205  -0.321474 0.873221 -0.366250  0.382824 0.324198 1 1 1.000000
chromemisc
0  -42.929440 -6.551596 30.762205  -0.321474 0.873221 -0.366250  0.382824 0.324198 1 1 1.000000
0  -42.709217 -6.689234 30.996191  0.301735 0.916142 0.263894  0.380871 0.327128 1 1 1.000000
0  -41.855858 -6.758053 30.431871  0.235540 0.921847 0.307765  0.372082 0.321268 1 1 1.000000
chromemisc
0  -40.864864 -6.909455 30.225418  0.158204 0.933009 0.323213  0.362316 0.319315 1 1 1.000000
0  -40.851101 -6.799344 29.908848  0.138892 0.819128 -0.556541  0.362316 0.316385 1 1 1.000000
0  -41.965969 -6.634178 30.129068  -0.109162 0.854964 -0.507071  0.373058 0.318339 1 1 1.000000
chromemisc
0  -41.965969 -6.634178 30.129068  -0.109162 0.854964 -0.507071  0.373058 0.318339 1 1 1.000000
0  -41.855858 -6.758053 30.431871  0.235540 0.921847 0.307765  0.372082 0.321268 1 1 1.000000
0  -40.864864 -6.909455 30.225418  0.158204 0.933009 0.323213  0.362316 0.319315 1 1 1.000000
chromemisc
0  -39.873863 -7.102149 30.431871  0.081523 0.947962 0.307771  0.352550 0.322245 1 1 1.000000
0  -39.736225 -7.019566 30.129068  0.384879 0.771199 -0.507070  0.350597 0.318339 1 1 1.000000
0  -40.851101 -6.799344 29.908848  0.138892 0.819128 -0.556541  0.362316 0.316385 1 1 1.000000
chromemisc
0  -40.851101 -6.799344 29.908848  0.138892 0.819128 -0.556541  0.362316 0.316385 1 1 1.000000
0  -40.864864 -6.909455 30.225418  0.158204 0.933009 0.323213  0.362316 0.319315 1 1 1.000000
0  -39.873863 -7.102149 30.431871  0.081523 0.947962 0.307771  0.352550 0.322245 1 1 1.000000
chromemisc
0  -39.048035 -7.308607 30.996191  0.017170 0.964403 0.263877  0.343760 0.327128 1 1 1.000000
0  -38.800285 -7.253551 30.762205  0.591365 0.718431 -0.366257  0.341807 0.325175 1 1 1.000000
0  -39.736225 -7.019566 30.129068  0.384879 0.771199 -0.507070  0.350597 0.318339 1 1 1.000000
chromemisc
0  -39.736225 -7.019566 30.129068  0.384879 0.771199 -0.507070  0.350597 0.318339 1 1 1.000000
0  -39.873863 -7.102149 30.431871  0.081523 0.947962 0.307771  0.352550 0.322245 1 1 1.000000
0  -39.048035 -7.308607 30.996191  0.017170 0.964403 0.263877  0.343760 0.327128 1 1 1.000000
chromemisc
0  -38.511246 -7.515064 31.835785  -0.025126 0.979842 0.198189  0.337901 0.335917 1 1 1.000000
0  -38.194675 -7.473773 31.725674  0.726909 0.668906 -0.155461  0.334971 0.334941 1 1 1.000000
0  -38.800285 -7.253551 30.762205  0.591365 0.718431 -0.366257  0.341807 0.325175 1 1 1.000000
chromemisc
0  -38.800285 -7.253551 30.762205  0.591365 0.718431 -0.366257  0.341807 0.325175 1 1 1.000000
0  -39.048035 -7.308607 30.996191  0.017170 0.964403 0.263877  0.343760 0.327128 1 1 1.000000
0  -38.511246 -7.515064 31.835785  -0.025126 0.979842 0.198189  0.337901 0.335917 1 1 1.000000
chromemisc
0  -38.332314 -7.666467 32.826782  -0.038808 0.991934 0.120671  0.336924 0.346660 1 1 1.000000
0  -37.988216 -7.652703 32.840546  0.770890 0.630115 0.093186  0.333018 0.346660 1 1 1.000000
0  -38.194675 -7.473773 31.725674  0.726909 0.668906 -0.155461  0.334971 0.334941 1 1 1.000000
chromemisc
0  -38.194675 -7.473773 31.725674  0.726909 0.668906 -0.155461  0.334971 0.334941 1 1 1.000000
0  -38.511246 -7.515064 31.835785  -0.025126 0.979842 0.198189  0.337901 0.335917 1 1 1.000000
0  -38.332314 -7.666467 32.826782  -0.038808 0.991934 0.120671  0.336924 0.346660 1 1 1.000000
chromemisc
0  -38.552536 -7.749050 33.831543  -0.021596 0.998822 0.043456  0.338878 0.356426 1 1 1.000000
0  -38.235966 -7.749050 33.969181  0.716581 0.608016 0.341801  0.335948 0.357402 1 1 1.000000
0  -37.988216 -7.652703 32.840546  0.770890 0.630115 0.093186  0.333018 0.346660 1 1 1.000000
chromemisc
0  -37.988216 -7.652703 32.840546  0.770890 0.630115 0.093186  0.333018 0.346660 1 1 1.000000
0  -38.332314 -7.666467 32.826782  -0.038808 0.991934 0.120671  0.336924 0.346660 1 1 1.000000
0  -38.552536 -7.749050 33.831543  -0.021596 0.998822 0.043456  0.338878 0.356426 1 1 1.000000
chromemisc
0  -39.130615 -7.762813 34.671139  0.023091 0.999479 -0.022535  0.344737 0.364238 1 1 1.000000
0  -38.896629 -7.762813 34.918888  0.572291 0.605934 0.552565  0.341807 0.367168 1 1 1.000000
0  -38.235966 -7.749050 33.969181  0.716581 0.608016 0.341801  0.335948 0.357402 1 1 1.000000
chromemisc
0  -38.235966 -7.749050 33.969181  0.716581 0.608016 0.341801  0.335948 0.357402 1 1 1.000000
0  -38.552536 -7.749050 33.831543  -0.021596 0.998822 0.043456  0.338878 0.356426 1 1 1.000000
0  -39.130615 -7.762813 34.671139  0.023091 0.999479 -0.022535  0.344737 0.364238 1 1 1.000000
chromemisc
0  -39.983974 -7.693995 35.235455  0.089299 0.993783 -0.066485  0.353526 0.370098 1 1 1.000000
0  -39.846336 -7.680231 35.552025  0.359938 0.624181 0.693428  0.351573 0.373028 1 1 1.000000
0  -38.896629 -7.762813 34.918888  0.572291 0.605934 0.552565  0.341807 0.367168 1 1 1.000000
chromemisc
0  -38.896629 -7.762813 34.918888  0.572291 0.605934 0.552565  0.341807 0.367168 1 1 1.000000
0  -39.130615 -7.762813 34.671139  0.023091 0.999479 -0.022535  0.344737 0.364238 1 1 1.000000
0  -39.983974 -7.693995 35.235455  0.089299 0.993783 -0.066485  0.353526 0.370098 1 1 1.000000
chromemisc
0  -40.974972 -7.542592 35.441914  0.166622 0.982612 -0.081914  0.363292 0.372051 1 1 1.000000
0  -40.961208 -7.515064 35.772247  0.112121 0.660010 0.742843  0.363292 0.374981 1 1 1.000000
0  -39.846336 -7.680231 35.552025  0.359938 0.624181 0.693428  0.351573 0.373028 1 1 1.000000
chromemisc
0  -39.846336 -7.680231 35.552025  0.359938 0.624181 0.693428  0.351573 0.373028 1 1 1.000000
0  -39.983974 -7.693995 35.235455  0.089299 0.993783 -0.066485  0.353526 0.370098 1 1 1.000000
0  -40.974972 -7.542592 35.441914  0.166622 0.982612 -0.081914  0.363292 0.372051 1 1 1.000000
chromemisc
0  -41.952206 -7.349899 35.235455  0.243296 0.967670 -0.066494  0.373058 0.370098 1 1 1.000000
0  -42.076080 -7.294843 35.552025  -0.134076 0.707973 0.693396  0.375011 0.373028 1 1 1.000000
0  -40.961208 -7.515064 35.772247  0.112121 0.660010 0.742843  0.363292 0.374981 1 1 1.000000
chromemisc
0  -40.961208 -7.515064 35.772247  0.112121 0.660010 0.742843  0.363292 0.374981 1 1 1.000000
0  -40.974972 -7.542592 35.441914  0.166622 0.982612 -0.081914  0.363292 0.372051 1 1 1.000000
0  -41.952206 -7.349899 35.235455  0.243296 0.967670 -0.066494  0.373058 0.370098 1 1 1.000000
chromemisc
0  -42.791801 -7.143441 34.671139  0.307704 0.951215 -0.022563  0.381848 0.364238 1 1 1.000000
0  -43.012024 -7.060858 34.918888  -0.340587 0.760688 0.552589  0.383801 0.366192 1 1 1.000000
0  -42.076080 -7.294843 35.552025  -0.134076 0.707973 0.693396  0.375011 0.373028 1 1 1.000000
chromemisc
0  -42.076080 -7.294843 35.552025  -0.134076 0.707973 0.693396  0.375011 0.373028 1 1 1.000000
0  -41.952206 -7.349899 35.235455  0.243296 0.967670 -0.066494  0.373058 0.370098 1 1 1.000000
0  -42.791801 -7.143441 34.671139  0.307704 0.951215 -0.022563  0.381848 0.364238 1 1 1.000000
chromemisc
0  -43.328590 -6.936983 33.831543  0.349945 0.935776 0.043151  0.386731 0.355449 1 1 1.000000
0  -43.617630 -6.840636 33.969181  -0.476108 0.810243 0.341801  0.390637 0.356426 1 1 1.000000
0  -43.012024 -7.060858 34.918888  -0.340587 0.760688 0.552589  0.383801 0.366192 1 1 1.000000
chromemisc
0  -43.012024 -7.060858 34.918888  -0.340587 0.760688 0.552589  0.383801 0.366192 1 1 1.000000
0  -42.791801 -7.143441 34.671139  0.307704 0.951215 -0.022563  0.381848 0.364238 1 1 1.000000
0  -43.328590 -6.936983 33.831543  0.349945 0.935776 0.043151  0.386731 0.355449 1 1 1.000000
chromemisc
0  -43.507523 -6.785581 32.826782  0.363836 0.923645 0.120429  0.388684 0.345683 1 1 1.000000
0  -43.824093 -6.661705 32.840546  -0.520135 0.848988 0.093163  0.392590 0.344707 1 1 1.000000
0  -43.617630 -6.840636 33.969181  -0.476108 0.810243 0.341801  0.390637 0.356426 1 1 1.000000
chromemisc
0  -43.617630 -6.840636 33.969181  -0.476108 0.810243 0.341801  0.390637 0.356426 1 1 1.000000
0  -43.328590 -6.936983 33.831543  0.349945 0.935776 0.043151  0.386731 0.355449 1 1 1.000000
0  -43.507523 -6.785581 32.826782  0.363836 0.923645 0.120429  0.388684 0.345683 1 1 1.000000
chromemisc
0  -41.539288 -8.561117 32.661617  -0.406989 -0.905601 -0.119363  0.366222 0.345683 1 1 1.000000
0  -43.879147 -6.895691 32.813019  -0.947962 -0.313059 -0.057977  0.392590 0.344707 1 1 1.000000
0  -43.631393 -6.799345 31.684383  -0.874734 -0.283586 -0.392962  0.389660 0.333964 1 1 1.000000
chromemisc
0  -43.631393 -6.799345 31.684383  -0.874734 -0.283586 -0.392962  0.389660 0.333964 1 1 1.000000
0  -41.511761 -8.547354 32.510212  -0.386271 -0.897162 -0.214232  0.366222 0.343730 1 1 1.000000
0  -41.539288 -8.561117 32.661617  -0.406989 -0.905601 -0.119363  0.366222 0.345683 1 1 1.000000
chromemisc
0  -41.511761 -8.547354 32.510212  -0.386271 -0.897162 -0.214232  0.366222 0.343730 1 1 1.000000
0  -43.631393 -6.799345 31.684383  -0.874734 -0.283586 -0.392962  0.389660 0.333964 1 1 1.000000
0  -42.970730 -6.785581 30.720915  -0.680330 -0.280412 -0.677141  0.382824 0.324198 1 1 1.000000
chromemisc
0  -42.970730 -6.785581 30.720915  -0.680330 -0.280412 -0.677141  0.382824 0.324198 1 1 1.000000
0  -41.429180 -8.547354 32.386341  -0.331209 -0.896360 -0.294686  0.365246 0.342753 1 1 1.000000
0  -41.511761 -8.547354 32.510212  -0.386271 -0.897162 -0.214232  0.366222 0.343730 1 1 1.000000
chromemisc
0  -41.429180 -8.547354 32.386341  -0.331209 -0.896360 -0.294686  0.365246 0.342753 1 1 1.000000
0  -42.970730 -6.785581 30.720915  -0.680330 -0.280412 -0.677141  0.382824 0.324198 1 1 1.000000
0  -42.007263 -6.868164 30.087774  -0.394183 -0.304960 -0.866960  0.373058 0.318339 1 1 1.000000
chromemisc
0  -42.007263 -6.868164 30.087774  -0.394183 -0.304960 -0.866960  0.373058 0.318339 1 1 1.000000
0  -41.291542 -8.547354 32.303753  -0.250178 -0.903324 -0.348448  0.364269 0.341777 1 1 1.000000
0  -41.429180 -8.547354 32.386341  -0.331209 -0.896360 -0.294686  0.365246 0.342753 1 1 1.000000
chromemisc
0  -41.291542 -8.547354 32.303753  -0.250178 -0.903324 -0.348448  0.364269 0.341777 1 1 1.000000
0  -42.007263 -6.868164 30.087774  -0.394183 -0.304960 -0.866960  0.373058 0.318339 1 1 1.000000
0  -40.892391 -7.033329 29.853792  -0.059903 -0.353300 -0.933590  0.362316 0.316385 1 1 1.000000
chromemisc
0  -40.892391 -7.033329 29.853792  -0.059903 -0.353300 -0.933590  0.362316 0.316385 1 1 1.000000
0  -41.153904 -8.574881 32.262463  -0.155534 -0.917022 -0.367260  0.362316 0.341777 1 1 1.000000
0  -41.291542 -8.547354 32.303753  -0.250178 -0.903324 -0.348448  0.364269 0.341777 1 1 1.000000
chromemisc
0  -41.153904 -8.574881 32.262463  -0.155534 -0.917022 -0.367260  0.362316 0.341777 1 1 1.000000
0  -40.892391 -7.033329 29.853792  -0.059903 -0.353300 -0.933590  0.362316 0.316385 1 1 1.000000
0  -39.763752 -7.253551 30.087774  0.271590 -0.417907 -0.866944  0.350597 0.318339 1 1 1.000000
chromemisc
0  -39.763752 -7.253551 30.087774  0.271590 -0.417907 -0.866944  0.350597 0.318339 1 1 1.000000
0  -41.002499 -8.602408 32.303753  -0.061645 -0.935300 -0.348444  0.361339 0.341777 1 1 1.000000
0  -41.153904 -8.574881 32.262463  -0.155534 -0.917022 -0.367260  0.362316 0.341777 1 1 1.000000
chromemisc
0  -41.002499 -8.602408 32.303753  -0.061645 -0.935300 -0.348444  0.361339 0.341777 1 1 1.000000
0  -39.763752 -7.253551 30.087774  0.271590 -0.417907 -0.866944  0.350597 0.318339 1 1 1.000000
0  -38.827812 -7.487536 30.720915  0.550222 -0.489021 -0.676841  0.340831 0.325175 1 1 1.000000
chromemisc
0  -38.827812 -7.487536 30.720915  0.550222 -0.489021 -0.676841  0.340831 0.325175 1 1 1.000000
0  -40.878628 -8.629936 32.386341  0.017151 -0.955440 -0.294688  0.359386 0.342753 1 1 1.000000
0  -41.002499 -8.602408 32.303753  -0.061645 -0.935300 -0.348444  0.361339 0.341777 1 1 1.000000
chromemisc
0  -40.878628 -8.629936 32.386341  0.017151 -0.955440 -0.294688  0.359386 0.342753 1 1 1.000000
0  -38.827812 -7.487536 30.720915  0.550222 -0.489021 -0.676841  0.340831 0.325175 1 1 1.000000
0  -38.222202 -7.721522 31.684383  0.732541 -0.555765 -0.393076  0.334971 0.334941 1 1 1.000000
chromemisc
0  -38.222202 -7.721522 31.684383  0.732541 -0.555765 -0.393076  0.334971 0.334941 1 1 1.000000
0  -40.796047 -8.657464 32.510212  0.068883 -0.974349 -0.214239  0.359386 0.344707 1 1 1.000000
0  -40.878628 -8.629936 32.386341  0.017151 -0.955440 -0.294688  0.359386 0.342753 1 1 1.000000
chromemisc
0  -40.796047 -8.657464 32.510212  0.068883 -0.974349 -0.214239  0.359386 0.344707 1 1 1.000000
0  -38.222202 -7.721522 31.684383  0.732541 -0.555765 -0.393076  0.334971 0.334941 1 1 1.000000
0  -38.015743 -7.900452 32.813019  0.791808 -0.608009 -0.058011  0.333018 0.346660 1 1 1.000000
chromemisc
0  -38.015743 -7.900452 32.813019  0.791808 -0.608009 -0.058011  0.333018 0.346660 1 1 1.000000
0  -40.768513 -8.684992 32.661617  0.085675 -0.989146 -0.119378  0.358409 0.345683 1 1 1.000000
0  -40.796047 -8.657464 32.510212  0.068883 -0.974349 -0.214239  0.359386 0.344707 1 1 1.000000
chromemisc
0  -40.768513 -8.684992 32.661617  0.085675 -0.989146 -0.119378  0.358409 0.345683 1 1 1.000000
0  -38.015743 -7.900452 32.813019  0.791808 -0.608009 -0.058011  0.333018 0.346660 1 1 1.000000
0  -38.263496 -7.996799 33.941654  0.718638 -0.637812 0.277049  0.335948 0.357402 1 1 1.000000
chromemisc
0  -38.263496 -7.996799 33.941654  0.718638 -0.637812 0.277049  0.335948 0.357402 1 1 1.000000
0  -40.796047 -8.698755 32.799255  0.064947 -0.997586 -0.024596  0.359386 0.347636 1 1 1.000000
0  -40.768513 -8.684992 32.661617  0.085675 -0.989146 -0.119378  0.358409 0.345683 1 1 1.000000
chromemisc
0  -40.796047 -8.698755 32.799255  0.064947 -0.997586 -0.024596  0.359386 0.347636 1 1 1.000000
0  -38.263496 -7.996799 33.941654  0.718638 -0.637812 0.277049  0.335948 0.357402 1 1 1.000000
0  -38.924160 -8.010563 34.891361  0.524155 -0.640642 0.561105  0.341807 0.367168 1 1 1.000000
chromemisc
0  -38.924160 -8.010563 34.891361  0.524155 -0.640642 0.561105  0.341807 0.367168 1 1 1.000000
0  -40.892391 -8.698755 32.936893  0.009889 -0.998384 0.055965  0.360363 0.348613 1 1 1.000000
0  -40.796047 -8.698755 32.799255  0.064947 -0.997586 -0.024596  0.359386 0.347636 1 1 1.000000
chromemisc
0  -40.892391 -8.698755 32.936893  0.009889 -0.998384 0.055965  0.360363 0.348613 1 1 1.000000
0  -38.924160 -8.010563 34.891361  0.524155 -0.640642 0.561105  0.341807 0.367168 1 1 1.000000
0  -39.887627 -7.927979 35.538261  0.237961 -0.616038 0.750914  0.351573 0.373028 1 1 1.000000
chromemisc
0  -39.887627 -7.927979 35.538261  0.237961 -0.616038 0.750914  0.351573 0.373028 1 1 1.000000
0  -41.016266 -8.684992 33.019478  -0.071128 -0.991411 0.109748  0.361339 0.349590 1 1 1.000000
0  -40.892391 -8.698755 32.936893  0.009889 -0.998384 0.055965  0.360363 0.348613 1 1 1.000000
chromemisc
0  -41.016266 -8.684992 33.019478  -0.071128 -0.991411 0.109748  0.361339 0.349590 1 1 1.000000
0  -39.887627 -7.927979 35.538261  0.237961 -0.616038 0.750914  0.351573 0.373028 1 1 1.000000
0  -41.002499 -7.762813 35.758484  -0.096290 -0.567705 0.817581  0.363292 0.374981 1 1 1.000000
chromemisc
0  -41.002499 -7.762813 35.758484  -0.096290 -0.567705 0.817581  0.363292 0.374981 1 1 1.000000
0  -41.167667 -8.671227 33.047005  -0.165784 -0.977741 0.128602  0.362316 0.349590 1 1 1.000000
0  -41.016266 -8.684992 33.019478  -0.071128 -0.991411 0.109748  0.361339 0.349590 1 1 1.000000
chromemisc
0  -41.167667 -8.671227 33.047005  -0.165784 -0.977741 0.128602  0.362316 0.349590 1 1 1.000000
0  -41.002499 -7.762813 35.758484  -0.096290 -0.567705 0.817581  0.363292 0.374981 1 1 1.000000
0  -42.131138 -7.542592 35.538261  -0.427749 -0.503024 0.750998  0.375011 0.373028 1 1 1.000000
chromemisc
0  -42.131138 -7.542592 35.538261  -0.427749 -0.503024 0.750998  0.375011 0.373028 1 1 1.000000
0  -41.305305 -8.643700 33.019478  -0.259669 -0.959451 0.109663  0.364269 0.349590 1 1 1.000000
0  -41.167667 -8.671227 33.047005  -0.165784 -0.977741 0.128602  0.362316 0.349590 1 1 1.000000
chromemisc
0  -41.305305 -8.643700 33.019478  -0.259669 -0.959451 0.109663  0.364269 0.349590 1 1 1.000000
0  -42.131138 -7.542592 35.538261  -0.427749 -0.503024 0.750998  0.375011 0.373028 1 1 1.000000
0  -43.067078 -7.308607 34.891361  -0.706077 -0.431995 0.561102  0.383801 0.366192 1 1 1.000000
chromemisc
0  -43.067078 -7.308607 34.891361  -0.706077 -0.431995 0.561102  0.383801 0.366192 1 1 1.000000
0  -41.429180 -8.602408 32.936893  -0.338485 -0.939306 0.055967  0.365246 0.348613 1 1 1.000000
0  -41.305305 -8.643700 33.019478  -0.259669 -0.959451 0.109663  0.364269 0.349590 1 1 1.000000
chromemisc
0  -41.429180 -8.602408 32.936893  -0.338485 -0.939306 0.055967  0.365246 0.348613 1 1 1.000000
0  -43.067078 -7.308607 34.891361  -0.706077 -0.431995 0.561102  0.383801 0.366192 1 1 1.000000
0  -43.672688 -7.074621 33.941654  -0.888723 -0.365290 0.277011  0.390637 0.356426 1 1 1.000000
chromemisc
0  -43.672688 -7.074621 33.941654  -0.888723 -0.365290 0.277011  0.390637 0.356426 1 1 1.000000
0  -41.511761 -8.574881 32.799255  -0.390215 -0.920399 -0.024466  0.366222 0.347636 1 1 1.000000
0  -41.429180 -8.602408 32.936893  -0.338485 -0.939306 0.055967  0.365246 0.348613 1 1 1.000000
chromemisc
0  -41.511761 -8.574881 32.799255  -0.390215 -0.920399 -0.024466  0.366222 0.347636 1 1 1.000000
0  -43.672688 -7.074621 33.941654  -0.888723 -0.365290 0.277011  0.390637 0.356426 1 1 1.000000
0  -43.879147 -6.895691 32.813019  -0.947962 -0.313059 -0.057977  0.392590 0.344707 1 1 1.000000
chromemisc
0  -43.879147 -6.895691 32.813019  -0.947962 -0.313059 -0.057977  0.392590 0.344707 1 1 1.000000
0  -41.539288 -8.561117 32.661617  -0.406989 -0.905601 -0.119363  0.366222 0.345683 1 1 1.000000
0  -41.511761 -8.574881 32.799255  -0.390215 -0.920399 -0.024466  0.366222 0.347636 1 1 1.000000
chromemisc
0  -43.287300 -6.702997 31.835785  0.166120 0.978417 0.122897  0.158208 0.735343 1 1 1.000000
0  -38.511246 -7.515064 31.835785  0.165959 0.978379 0.123416  0.158208 0.729484 1 1 1.000000
0  -39.048035 -7.308607 30.996191  0.165901 0.978408 0.123265  0.159185 0.730461 1 1 1.000000
chromemisc
0  -39.048035 -7.308607 30.996191  0.165901 0.978408 0.123265  0.159185 0.730461 1 1 1.000000
0  -42.709217 -6.689234 30.996191  0.165901 0.978405 0.123290  0.159185 0.735343 1 1 1.000000
0  -43.287300 -6.702997 31.835785  0.166120 0.978417 0.122897  0.158208 0.735343 1 1 1.000000
chromemisc
0  -43.576340 -6.565359 31.725674  -0.465772 0.871143 -0.155455  0.389660 0.333964 1 1 1.000000
0  -43.631393 -6.799345 31.684383  -0.874734 -0.283586 -0.392962  0.389660 0.333964 1 1 1.000000
0  -43.879147 -6.895691 32.813019  -0.947962 -0.313059 -0.057977  0.392590 0.344707 1 1 1.000000
chromemisc
0  -43.879147 -6.895691 32.813019  -0.947962 -0.313059 -0.057977  0.392590 0.344707 1 1 1.000000
0  -43.824093 -6.661705 32.840546  -0.520135 0.848988 0.093163  0.392590 0.344707 1 1 1.000000
0  -43.576340 -6.565359 31.725674  -0.465772 0.871143 -0.155455  0.389660 0.333964 1 1 1.000000
chromemisc
0  -42.929440 -6.551596 30.762205  -0.321474 0.873221 -0.366250  0.382824 0.324198 1 1 1.000000
0  -42.970730 -6.785581 30.720915  -0.680330 -0.280412 -0.677141  0.382824 0.324198 1 1 1.000000
0  -43.631393 -6.799345 31.684383  -0.874734 -0.283586 -0.392962  0.389660 0.333964 1 1 1.000000
chromemisc
0  -43.631393 -6.799345 31.684383  -0.874734 -0.283586 -0.392962  0.389660 0.333964 1 1 1.000000
0  -43.576340 -6.565359 31.725674  -0.465772 0.871143 -0.155455  0.389660 0.333964 1 1 1.000000
0  -42.929440 -6.551596 30.762205  -0.321474 0.873221 -0.366250  0.382824 0.324198 1 1 1.000000
chromemisc
0  -41.965969 -6.634178 30.129068  -0.109162 0.854964 -0.507071  0.373058 0.318339 1 1 1.000000
0  -42.007263 -6.868164 30.087774  -0.394183 -0.304960 -0.866960  0.373058 0.318339 1 1 1.000000
0  -42.970730 -6.785581 30.720915  -0.680330 -0.280412 -0.677141  0.382824 0.324198 1 1 1.000000
chromemisc
0  -42.970730 -6.785581 30.720915  -0.680330 -0.280412 -0.677141  0.382824 0.324198 1 1 1.000000
0  -42.929440 -6.551596 30.762205  -0.321474 0.873221 -0.366250  0.382824 0.324198 1 1 1.000000
0  -41.965969 -6.634178 30.129068  -0.109162 0.854964 -0.507071  0.373058 0.318339 1 1 1.000000
chromemisc
0  -40.851101 -6.799344 29.908848  0.138892 0.819128 -0.556541  0.362316 0.316385 1 1 1.000000
0  -40.892391 -7.033329 29.853792  -0.059903 -0.353300 -0.933590  0.362316 0.316385 1 1 1.000000
0  -42.007263 -6.868164 30.087774  -0.394183 -0.304960 -0.866960  0.373058 0.318339 1 1 1.000000
chromemisc
0  -42.007263 -6.868164 30.087774  -0.394183 -0.304960 -0.866960  0.373058 0.318339 1 1 1.000000
0  -41.965969 -6.634178 30.129068  -0.109162 0.854964 -0.507071  0.373058 0.318339 1 1 1.000000
0  -40.851101 -6.799344 29.908848  0.138892 0.819128 -0.556541  0.362316 0.316385 1 1 1.000000
chromemisc
0  -39.736225 -7.019566 30.129068  0.384879 0.771199 -0.507070  0.350597 0.318339 1 1 1.000000
0  -39.763752 -7.253551 30.087774  0.271590 -0.417907 -0.866944  0.350597 0.318339 1 1 1.000000
0  -40.892391 -7.033329 29.853792  -0.059903 -0.353300 -0.933590  0.362316 0.316385 1 1 1.000000
chromemisc
0  -40.892391 -7.033329 29.853792  -0.059903 -0.353300 -0.933590  0.362316 0.316385 1 1 1.000000
0  -40.851101 -6.799344 29.908848  0.138892 0.819128 -0.556541  0.362316 0.316385 1 1 1.000000
0  -39.736225 -7.019566 30.129068  0.384879 0.771199 -0.507070  0.350597 0.318339 1 1 1.000000
chromemisc
0  -38.800285 -7.253551 30.762205  0.591365 0.718431 -0.366257  0.341807 0.325175 1 1 1.000000
0  -38.827812 -7.487536 30.720915  0.550222 -0.489021 -0.676841  0.340831 0.325175 1 1 1.000000
0  -39.763752 -7.253551 30.087774  0.271590 -0.417907 -0.866944  0.350597 0.318339 1 1 1.000000
chromemisc
0  -39.763752 -7.253551 30.087774  0.271590 -0.417907 -0.866944  0.350597 0.318339 1 1 1.000000
0  -39.736225 -7.019566 30.129068  0.384879 0.771199 -0.507070  0.350597 0.318339 1 1 1.000000
0  -38.800285 -7.253551 30.762205  0.591365 0.718431 -0.366257  0.341807 0.325175 1 1 1.000000
chromemisc
0  -38.194675 -7.473773 31.725674  0.726909 0.668906 -0.155461  0.334971 0.334941 1 1 1.000000
0  -38.222202 -7.721522 31.684383  0.732541 -0.555765 -0.393076  0.334971 0.334941 1 1 1.000000
0  -38.827812 -7.487536 30.720915  0.550222 -0.489021 -0.676841  0.340831 0.325175 1 1 1.000000
chromemisc
0  -38.827812 -7.487536 30.720915  0.550222 -0.489021 -0.676841  0.340831 0.325175 1 1 1.000000
0  -38.800285 -7.253551 30.762205  0.591365 0.718431 -0.366257  0.341807 0.325175 1 1 1.000000
0  -38.194675 -7.473773 31.725674  0.726909 0.668906 -0.155461  0.334971 0.334941 1 1 1.000000
chromemisc
0  -37.988216 -7.652703 32.840546  0.770890 0.630115 0.093186  0.333018 0.346660 1 1 1.000000
0  -38.015743 -7.900452 32.813019  0.791808 -0.608009 -0.058011  0.333018 0.346660 1 1 1.000000
0  -38.222202 -7.721522 31.684383  0.732541 -0.555765 -0.393076  0.334971 0.334941 1 1 1.000000
chromemisc
0  -38.222202 -7.721522 31.684383  0.732541 -0.555765 -0.393076  0.334971 0.334941 1 1 1.000000
0  -38.194675 -7.473773 31.725674  0.726909 0.668906 -0.155461  0.334971 0.334941 1 1 1.000000
0  -37.988216 -7.652703 32.840546  0.770890 0.630115 0.093186  0.333018 0.346660 1 1 1.000000
chromemisc
0  -38.235966 -7.749050 33.969181  0.716581 0.608016 0.341801  0.335948 0.357402 1 1 1.000000
0  -38.263496 -7.996799 33.941654  0.718638 -0.637812 0.277049  0.335948 0.357402 1 1 1.000000
0  -38.015743 -7.900452 32.813019  0.791808 -0.608009 -0.058011  0.333018 0.346660 1 1 1.000000
chromemisc
0  -38.015743 -7.900452 32.813019  0.791808 -0.608009 -0.058011  0.333018 0.346660 1 1 1.000000
0  -37.988216 -7.652703 32.840546  0.770890 0.630115 0.093186  0.333018 0.346660 1 1 1.000000
0  -38.235966 -7.749050 33.969181  0.716581 0.608016 0.341801  0.335948 0.357402 1 1 1.000000
chromemisc
0  -38.896629 -7.762813 34.918888  0.572291 0.605934 0.552565  0.341807 0.367168 1 1 1.000000
0  -38.924160 -8.010563 34.891361  0.524155 -0.640642 0.561105  0.341807 0.367168 1 1 1.000000
0  -38.263496 -7.996799 33.941654  0.718638 -0.637812 0.277049  0.335948 0.357402 1 1 1.000000
chromemisc
0  -38.263496 -7.996799 33.941654  0.718638 -0.637812 0.277049  0.335948 0.357402 1 1 1.000000
0  -38.235966 -7.749050 33.969181  0.716581 0.608016 0.341801  0.335948 0.357402 1 1 1.000000
0  -38.896629 -7.762813 34.918888  0.572291 0.605934 0.552565  0.341807 0.367168 1 1 1.000000
chromemisc
0  -39.846336 -7.680231 35.552025  0.359938 0.624181 0.693428  0.351573 0.373028 1 1 1.000000
0  -39.887627 -7.927979 35.538261  0.237961 -0.616038 0.750914  0.351573 0.373028 1 1 1.000000
0  -38.924160 -8.010563 34.891361  0.524155 -0.640642 0.561105  0.341807 0.367168 1 1 1.000000
chromemisc
0  -38.924160 -8.010563 34.891361  0.524155 -0.640642 0.561105  0.341807 0.367168 1 1 1.000000
0  -38.896629 -7.762813 34.918888  0.572291 0.605934 0.552565  0.341807 0.367168 1 1 1.000000
0  -39.846336 -7.680231 35.552025  0.359938 0.624181 0.693428  0.351573 0.373028 1 1 1.000000
chromemisc
0  -40.961208 -7.515064 35.772247  0.112121 0.660010 0.742843  0.363292 0.374981 1 1 1.000000
0  -41.002499 -7.762813 35.758484  -0.096290 -0.567705 0.817581  0.363292 0.374981 1 1 1.000000
0  -39.887627 -7.927979 35.538261  0.237961 -0.616038 0.750914  0.351573 0.373028 1 1 1.000000
chromemisc
0  -39.887627 -7.927979 35.538261  0.237961 -0.616038 0.750914  0.351573 0.373028 1 1 1.000000
0  -39.846336 -7.680231 35.552025  0.359938 0.624181 0.693428  0.351573 0.373028 1 1 1.000000
0  -40.961208 -7.515064 35.772247  0.112121 0.660010 0.742843  0.363292 0.374981 1 1 1.000000
chromemisc
0  -42.076080 -7.294843 35.552025  -0.134076 0.707973 0.693396  0.375011 0.373028 1 1 1.000000
0  -42.131138 -7.542592 35.538261  -0.427749 -0.503024 0.750998  0.375011 0.373028 1 1 1.000000
0  -41.002499 -7.762813 35.758484  -0.096290 -0.567705 0.817581  0.363292 0.374981 1 1 1.000000
chromemisc
0  -41.002499 -7.762813 35.758484  -0.096290 -0.567705 0.817581  0.363292 0.374981 1 1 1.000000
0  -40.961208 -7.515064 35.772247  0.112121 0.660010 0.742843  0.363292 0.374981 1 1 1.000000
0  -42.076080 -7.294843 35.552025  -0.134076 0.707973 0.693396  0.375011 0.373028 1 1 1.000000
chromemisc
0  -43.012024 -7.060858 34.918888  -0.340587 0.760688 0.552589  0.383801 0.366192 1 1 1.000000
0  -43.067078 -7.308607 34.891361  -0.706077 -0.431995 0.561102  0.383801 0.366192 1 1 1.000000
0  -42.131138 -7.542592 35.538261  -0.427749 -0.503024 0.750998  0.375011 0.373028 1 1 1.000000
chromemisc
0  -42.131138 -7.542592 35.538261  -0.427749 -0.503024 0.750998  0.375011 0.373028 1 1 1.000000
0  -42.076080 -7.294843 35.552025  -0.134076 0.707973 0.693396  0.375011 0.373028 1 1 1.000000
0  -43.012024 -7.060858 34.918888  -0.340587 0.760688 0.552589  0.383801 0.366192 1 1 1.000000
chromemisc
0  -43.617630 -6.840636 33.969181  -0.476108 0.810243 0.341801  0.390637 0.356426 1 1 1.000000
0  -43.672688 -7.074621 33.941654  -0.888723 -0.365290 0.277011  0.390637 0.356426 1 1 1.000000
0  -43.067078 -7.308607 34.891361  -0.706077 -0.431995 0.561102  0.383801 0.366192 1 1 1.000000
chromemisc
0  -43.067078 -7.308607 34.891361  -0.706077 -0.431995 0.561102  0.383801 0.366192 1 1 1.000000
0  -43.012024 -7.060858 34.918888  -0.340587 0.760688 0.552589  0.383801 0.366192 1 1 1.000000
0  -43.617630 -6.840636 33.969181  -0.476108 0.810243 0.341801  0.390637 0.356426 1 1 1.000000
chromemisc
0  -43.824093 -6.661705 32.840546  -0.520135 0.848988 0.093163  0.392590 0.344707 1 1 1.000000
0  -43.879147 -6.895691 32.813019  -0.947962 -0.313059 -0.057977  0.392590 0.344707 1 1 1.000000
0  -43.672688 -7.074621 33.941654  -0.888723 -0.365290 0.277011  0.390637 0.356426 1 1 1.000000
chromemisc
0  -43.672688 -7.074621 33.941654  -0.888723 -0.365290 0.277011  0.390637 0.356426 1 1 1.000000
0  -43.617630 -6.840636 33.969181  -0.476108 0.810243 0.341801  0.390637 0.356426 1 1 1.000000
0  -43.824093 -6.661705 32.840546  -0.520135 0.848988 0.093163  0.392590 0.344707 1 1 1.000000
chromemisc
0  -41.098846 -10.212779 32.978188  -0.000007 -0.547922 0.836529  0.231452 0.378887 1 1 1.000000
0  -40.782276 -10.226542 32.661617  0.816452 -0.577064 0.020097  0.231452 0.311502 1 1 1.000000
0  -40.782276 -8.382187 32.606560  0.999995 0.000090 0.003163  0.595721 0.311502 1 1 1.000000
chromemisc
0  -40.782276 -8.382187 32.606560  0.999995 0.000090 0.003163  0.595721 0.311502 1 1 1.000000
0  -41.098846 -8.382187 32.923130  -0.000036 0.030824 0.999525  0.595721 0.378887 1 1 1.000000
0  -41.098846 -10.212779 32.978188  -0.000007 -0.547922 0.836529  0.231452 0.378887 1 1 1.000000
chromemisc
0  -41.098846 -8.382187 32.923130  -0.000036 0.030824 0.999525  0.595721 0.378887 1 1 1.000000
0  -41.415417 -8.382187 32.606560  -0.999995 0.000090 0.003206  0.595721 0.311502 1 1 1.000000
0  -41.415417 -10.226542 32.661617  -0.816485 -0.577033 0.019612  0.231452 0.311502 1 1 1.000000
chromemisc
0  -41.415417 -10.226542 32.661617  -0.816485 -0.577033 0.019612  0.231452 0.311502 1 1 1.000000
0  -41.098846 -10.212779 32.978188  -0.000007 -0.547922 0.836529  0.231452 0.378887 1 1 1.000000
0  -41.098846 -8.382187 32.923130  -0.000036 0.030824 0.999525  0.595721 0.378887 1 1 1.000000
chromemisc
0  -41.415417 -8.382187 32.606560  -0.999995 0.000090 0.003206  0.595721 0.311502 1 1 1.000000
0  -41.098846 -8.395950 32.289989  -0.000007 -0.031430 -0.999506  0.595721 0.378887 1 1 1.000000
0  -41.098846 -10.240306 32.345051  0.000009 -0.605876 -0.795559  0.231452 0.378887 1 1 1.000000
chromemisc
0  -41.098846 -10.240306 32.345051  0.000009 -0.605876 -0.795559  0.231452 0.378887 1 1 1.000000
0  -41.415417 -10.226542 32.661617  -0.816485 -0.577033 0.019612  0.231452 0.311502 1 1 1.000000
0  -41.415417 -8.382187 32.606560  -0.999995 0.000090 0.003206  0.595721 0.311502 1 1 1.000000
chromemisc
0  -40.782276 -10.226542 32.661617  0.816452 -0.577064 0.020097  0.231452 0.311502 1 1 1.000000
0  -41.098846 -10.240306 32.345051  0.000009 -0.605876 -0.795559  0.231452 0.378887 1 1 1.000000
0  -41.098846 -8.395950 32.289989  -0.000007 -0.031430 -0.999506  0.595721 0.378887 1 1 1.000000
chromemisc
0  -41.098846 -8.395950 32.289989  -0.000007 -0.031430 -0.999506  0.595721 0.378887 1 1 1.000000
0  -40.782276 -8.382187 32.606560  0.999995 0.000090 0.003163  0.595721 0.311502 1 1 1.000000
0  -40.782276 -10.226542 32.661617  0.816452 -0.577064 0.020097  0.231452 0.311502 1 1 1.000000
chromemisc
0  -41.415417 -10.226542 32.661617  -0.816485 -0.577033 0.019612  0.143559 0.378887 1 1 1.000000
0  -41.098846 -10.240306 32.345051  0.000009 -0.605876 -0.795559  0.143559 0.311502 1 1 1.000000
0  -40.782276 -10.226542 32.661617  0.816452 -0.577064 0.020097  0.231452 0.311502 1 1 1.000000
chromemisc
0  -40.782276 -10.226542 32.661617  0.816452 -0.577064 0.020097  0.231452 0.311502 1 1 1.000000
0  -41.098846 -10.212779 32.978188  -0.000007 -0.547922 0.836529  0.231452 0.378887 1 1 1.000000
0  -41.415417 -10.226542 32.661617  -0.816485 -0.577033 0.019612  0.143559 0.378887 1 1 1.000000
chromemisc
0  -39.474716 -9.786099 31.216413  -0.623900 -0.079320 -0.777469  0.425794 0.304666 1 1 1.000000
0  -38.414898 -10.047612 30.528217  -0.702895 -0.030440 -0.710642  0.598651 0.304666 1 1 1.000000
0  -38.387371 -12.359940 30.624567  -0.827393 -0.038977 -0.560269  0.598651 0.382794 1 1 1.000000
chromemisc
0  -38.387371 -12.359940 30.624567  -0.827393 -0.038977 -0.560269  0.598651 0.382794 1 1 1.000000
0  -39.447186 -10.735805 31.298994  -0.642409 -0.096700 -0.760237  0.425794 0.382794 1 1 1.000000
0  -39.474716 -9.786099 31.216413  -0.623900 -0.079320 -0.777469  0.425794 0.304666 1 1 1.000000
chromemisc
0  -39.447186 -10.735805 31.298994  -0.569744 -0.754333 0.326149  0.425794 0.382794 1 1 1.000000
0  -38.387371 -12.359940 30.624567  -0.750487 -0.492624 0.440558  0.598651 0.382794 1 1 1.000000
0  -38.208439 -12.359940 30.941135  -0.755149 -0.490009 0.435478  0.598651 0.362285 1 1 1.000000
chromemisc
0  -38.208439 -12.359940 30.941135  -0.755149 -0.490009 0.435478  0.598651 0.362285 1 1 1.000000
0  -39.309547 -10.735805 31.519217  -0.560052 -0.763943 0.320521  0.425794 0.362285 1 1 1.000000
0  -39.447186 -10.735805 31.298994  -0.569744 -0.754333 0.326149  0.425794 0.382794 1 1 1.000000
chromemisc
0  -38.235966 -10.047612 30.858551  0.117773 0.043945 0.992068  0.598651 0.308573 1 1 1.000000
0  -39.337074 -9.786099 31.436636  0.565044 0.083055 0.820870  0.425794 0.308573 1 1 1.000000
0  -39.309547 -10.735805 31.519217  0.534354 0.062193 0.842970  0.425794 0.362285 1 1 1.000000
chromemisc
0  -39.309547 -10.735805 31.519217  0.534354 0.062193 0.842970  0.425794 0.362285 1 1 1.000000
0  -38.208439 -12.359940 30.941135  -0.096051 0.037601 0.994666  0.598651 0.362285 1 1 1.000000
0  -38.235966 -10.047612 30.858551  0.117773 0.043945 0.992068  0.598651 0.308573 1 1 1.000000
chromemisc
0  -39.337074 -9.786099 31.436636  0.235943 0.960840 -0.145320  0.425794 0.308573 1 1 1.000000
0  -38.235966 -10.047612 30.858551  -0.274576 0.944164 0.182104  0.598651 0.308573 1 1 1.000000
0  -38.414898 -10.047612 30.528217  -0.277902 0.948312 0.153218  0.598651 0.330058 1 1 1.000000
chromemisc
0  -38.414898 -10.047612 30.528217  -0.277902 0.948312 0.153218  0.598651 0.330058 1 1 1.000000
0  -39.474716 -9.786099 31.216413  0.230653 0.962583 -0.142245  0.425794 0.330058 1 1 1.000000
0  -39.337074 -9.786099 31.436636  0.235943 0.960840 -0.145320  0.425794 0.308573 1 1 1.000000
chromemisc
0  -41.181431 -8.987797 32.606560  -0.675845 -0.130242 -0.725445  0.116214 0.304666 1 1 1.000000
0  -39.474716 -9.786099 31.216413  -0.623900 -0.079320 -0.777469  0.425794 0.304666 1 1 1.000000
0  -39.447186 -10.735805 31.298994  -0.642409 -0.096700 -0.760237  0.425794 0.382794 1 1 1.000000
chromemisc
0  -39.447186 -10.735805 31.298994  -0.642456 -0.096752 -0.760190  0.425794 0.382794 1 1 1.000000
0  -41.140141 -9.552114 32.689144  -0.682417 -0.143106 -0.716818  0.116214 0.382794 1 1 1.000000
0  -41.181431 -8.987797 32.606560  -0.675854 -0.130252 -0.725435  0.116214 0.304666 1 1 1.000000
chromemisc
0  -41.140141 -9.552114 32.689144  -0.414101 -0.878359 0.238756  0.116214 0.382794 1 1 1.000000
0  -39.447186 -10.735805 31.298994  -0.569744 -0.754333 0.326149  0.425794 0.382794 1 1 1.000000
0  -39.309547 -10.735805 31.519217  -0.560052 -0.763943 0.320521  0.425794 0.362285 1 1 1.000000
chromemisc
0  -39.309547 -10.735805 31.519217  -0.559872 -0.764115 0.320423  0.425794 0.362285 1 1 1.000000
0  -41.071320 -9.552114 32.813019  -0.413997 -0.878366 0.238914  0.116214 0.362285 1 1 1.000000
0  -41.140141 -9.552114 32.689144  -0.414103 -0.878360 0.238753  0.116214 0.382794 1 1 1.000000
chromemisc
0  -41.071320 -9.552114 32.813019  0.624585 0.113094 0.772725  0.116214 0.362285 1 1 1.000000
0  -39.309547 -10.735805 31.519217  0.534354 0.062193 0.842970  0.425794 0.362285 1 1 1.000000
0  -39.337074 -9.786099 31.436636  0.565044 0.083055 0.820870  0.425794 0.308573 1 1 1.000000
chromemisc
0  -39.337074 -9.786099 31.436636  0.565054 0.083045 0.820864  0.425794 0.308573 1 1 1.000000
0  -41.098846 -8.987797 32.744198  0.624636 0.121600 0.771390  0.116214 0.308573 1 1 1.000000
0  -41.071320 -9.552114 32.813019  0.624583 0.113108 0.772724  0.116214 0.362285 1 1 1.000000
chromemisc
0  -41.098846 -8.987797 32.744198  0.299430 0.937629 -0.176615  0.116214 0.308573 1 1 1.000000
0  -39.337074 -9.786099 31.436636  0.235943 0.960840 -0.145320  0.425794 0.308573 1 1 1.000000
0  -39.474716 -9.786099 31.216413  0.230653 0.962583 -0.142245  0.425794 0.330058 1 1 1.000000
chromemisc
0  -39.474716 -9.786099 31.216413  0.230702 0.962570 -0.142254  0.425794 0.330058 1 1 1.000000
0  -41.181431 -8.987797 32.606560  0.299663 0.937612 -0.176311  0.116214 0.330058 1 1 1.000000
0  -41.098846 -8.987797 32.744198  0.299451 0.937624 -0.176609  0.116214 0.308573 1 1 1.000000
chromemisc
0  -41.952206 -7.349899 35.235455  0.165900 0.978407 0.123278  0.154302 0.734367 1 1 1.000000
0  -40.974972 -7.542592 35.441914  0.165905 0.978411 0.123235  0.153325 0.732414 1 1 1.000000
0  -39.983974 -7.693995 35.235455  0.165900 0.978409 0.123263  0.154302 0.731437 1 1 1.000000
chromemisc
0  -39.130615 -7.762813 34.671139  0.165900 0.978410 0.123255  0.154302 0.730461 1 1 1.000000
0  -42.791801 -7.143441 34.671139  0.165902 0.978404 0.123294  0.154302 0.735343 1 1 1.000000
0  -41.952206 -7.349899 35.235455  0.165900 0.978407 0.123278  0.154302 0.734367 1 1 1.000000
chromemisc
0  -41.952206 -7.349899 35.235455  0.165900 0.978407 0.123278  0.154302 0.734367 1 1 1.000000
0  -39.983974 -7.693995 35.235455  0.165900 0.978409 0.123263  0.154302 0.731437 1 1 1.000000
0  -39.130615 -7.762813 34.671139  0.165900 0.978410 0.123255  0.154302 0.730461 1 1 1.000000
chromemisc
0  -38.552536 -7.749050 33.831543  0.165906 0.978411 0.123237  0.155278 0.729484 1 1 1.000000
0  -43.328590 -6.936983 33.831543  0.166439 0.978278 0.123569  0.156255 0.735343 1 1 1.000000
0  -42.791801 -7.143441 34.671139  0.165902 0.978404 0.123294  0.154302 0.735343 1 1 1.000000
chromemisc
0  -42.791801 -7.143441 34.671139  0.165902 0.978404 0.123294  0.154302 0.735343 1 1 1.000000
0  -39.130615 -7.762813 34.671139  0.165900 0.978410 0.123255  0.154302 0.730461 1 1 1.000000
0  -38.552536 -7.749050 33.831543  0.165906 0.978411 0.123237  0.155278 0.729484 1 1 1.000000
chromemisc
0  -38.332314 -7.666467 32.826782  0.165918 0.978421 0.123140  0.157231 0.729484 1 1 1.000000
0  -43.507523 -6.785581 32.826782  0.165900 0.978407 0.123277  0.157231 0.736320 1 1 1.000000
0  -43.328590 -6.936983 33.831543  0.166439 0.978278 0.123569  0.156255 0.735343 1 1 1.000000
chromemisc
0  -43.328590 -6.936983 33.831543  0.166439 0.978278 0.123569  0.156255 0.735343 1 1 1.000000
0  -38.552536 -7.749050 33.831543  0.165906 0.978411 0.123237  0.155278 0.729484 1 1 1.000000
0  -38.332314 -7.666467 32.826782  0.165918 0.978421 0.123140  0.157231 0.729484 1 1 1.000000
chromemisc
0  -38.511246 -7.515064 31.835785  0.165959 0.978379 0.123416  0.158208 0.729484 1 1 1.000000
0  -43.287300 -6.702997 31.835785  0.166120 0.978417 0.122897  0.158208 0.735343 1 1 1.000000
0  -43.507523 -6.785581 32.826782  0.165900 0.978407 0.123277  0.157231 0.736320 1 1 1.000000
chromemisc
0  -43.507523 -6.785581 32.826782  0.165900 0.978407 0.123277  0.157231 0.736320 1 1 1.000000
0  -38.332314 -7.666467 32.826782  0.165918 0.978421 0.123140  0.157231 0.729484 1 1 1.000000
0  -38.511246 -7.515064 31.835785  0.165959 0.978379 0.123416  0.158208 0.729484 1 1 1.000000
chromemisc
0  -42.709217 -6.689234 30.996191  0.165901 0.978405 0.123290  0.159185 0.735343 1 1 1.000000
0  -39.048035 -7.308607 30.996191  0.165901 0.978408 0.123265  0.159185 0.730461 1 1 1.000000
0  -39.873863 -7.102149 30.431871  0.165904 0.978417 0.123190  0.160161 0.731437 1 1 1.000000
chromemisc
0  -39.873863 -7.102149 30.431871  0.165904 0.978417 0.123190  0.160161 0.731437 1 1 1.000000
0  -41.855858 -6.758053 30.431871  0.165897 0.978411 0.123251  0.160161 0.733390 1 1 1.000000
0  -42.709217 -6.689234 30.996191  0.165901 0.978405 0.123290  0.159185 0.735343 1 1 1.000000
chromemisc
0  -39.873863 -7.102149 30.431871  0.165904 0.978417 0.123190  0.160161 0.731437 1 1 1.000000
0  -40.864864 -6.909455 30.225418  0.165893 0.978412 0.123242  0.160161 0.732414 1 1 1.000000
0  -41.855858 -6.758053 30.431871  0.165897 0.978411 0.123251  0.160161 0.733390 1 1 1.000000
chromemisc
0  -41.511761 -8.574881 32.799255  -0.390215 -0.920399 -0.024466  0.366222 0.347636 1 1 1.000000
0  -41.539288 -8.561117 32.661617  -0.406989 -0.905601 -0.119363  0.366222 0.345683 1 1 1.000000
0  -40.768513 -8.684992 32.661617  0.085675 -0.989146 -0.119378  0.358409 0.345683 1 1 1.000000
chromemisc
0  -40.768513 -8.684992 32.661617  0.085675 -0.989146 -0.119378  0.358409 0.345683 1 1 1.000000
0  -40.796047 -8.698755 32.799255  0.064947 -0.997586 -0.024596  0.359386 0.347636 1 1 1.000000
0  -41.511761 -8.574881 32.799255  -0.390215 -0.920399 -0.024466  0.366222 0.347636 1 1 1.000000
chromemisc
0  -40.768513 -8.684992 32.661617  0.085675 -0.989146 -0.119378  0.358409 0.345683 1 1 1.000000
0  -41.539288 -8.561117 32.661617  -0.406989 -0.905601 -0.119363  0.366222 0.345683 1 1 1.000000
0  -41.511761 -8.547354 32.510212  -0.386271 -0.897162 -0.214232  0.366222 0.343730 1 1 1.000000
chromemisc
0  -41.511761 -8.547354 32.510212  -0.386271 -0.897162 -0.214232  0.366222 0.343730 1 1 1.000000
0  -40.796047 -8.657464 32.510212  0.068883 -0.974349 -0.214239  0.359386 0.344707 1 1 1.000000
0  -40.768513 -8.684992 32.661617  0.085675 -0.989146 -0.119378  0.358409 0.345683 1 1 1.000000
chromemisc
0  -41.511761 -8.574881 32.799255  -0.390215 -0.920399 -0.024466  0.366222 0.347636 1 1 1.000000
0  -40.796047 -8.698755 32.799255  0.064947 -0.997586 -0.024596  0.359386 0.347636 1 1 1.000000
0  -40.892391 -8.698755 32.936893  0.009889 -0.998384 0.055965  0.360363 0.348613 1 1 1.000000
chromemisc
0  -40.892391 -8.698755 32.936893  0.009889 -0.998384 0.055965  0.360363 0.348613 1 1 1.000000
0  -41.429180 -8.602408 32.936893  -0.338485 -0.939306 0.055967  0.365246 0.348613 1 1 1.000000
0  -41.511761 -8.574881 32.799255  -0.390215 -0.920399 -0.024466  0.366222 0.347636 1 1 1.000000
chromemisc
0  -40.796047 -8.657464 32.510212  0.068883 -0.974349 -0.214239  0.359386 0.344707 1 1 1.000000
0  -41.511761 -8.547354 32.510212  -0.386271 -0.897162 -0.214232  0.366222 0.343730 1 1 1.000000
0  -41.429180 -8.547354 32.386341  -0.331209 -0.896360 -0.294686  0.365246 0.342753 1 1 1.000000
chromemisc
0  -41.429180 -8.547354 32.386341  -0.331209 -0.896360 -0.294686  0.365246 0.342753 1 1 1.000000
0  -40.878628 -8.629936 32.386341  0.017151 -0.955440 -0.294688  0.359386 0.342753 1 1 1.000000
0  -40.796047 -8.657464 32.510212  0.068883 -0.974349 -0.214239  0.359386 0.344707 1 1 1.000000
chromemisc
0  -41.016266 -8.684992 33.019478  -0.071128 -0.991411 0.109748  0.361339 0.349590 1 1 1.000000
0  -41.167667 -8.671227 33.047005  -0.165784 -0.977741 0.128602  0.362316 0.349590 1 1 1.000000
0  -41.305305 -8.643700 33.019478  -0.259669 -0.959451 0.109663  0.364269 0.349590 1 1 1.000000
chromemisc
0  -41.016266 -8.684992 33.019478  -0.071128 -0.991411 0.109748  0.361339 0.349590 1 1 1.000000
0  -41.305305 -8.643700 33.019478  -0.259669 -0.959451 0.109663  0.364269 0.349590 1 1 1.000000
0  -41.429180 -8.602408 32.936893  -0.338485 -0.939306 0.055967  0.365246 0.348613 1 1 1.000000
chromemisc
0  -41.016266 -8.684992 33.019478  -0.071128 -0.991411 0.109748  0.361339 0.349590 1 1 1.000000
0  -41.429180 -8.602408 32.936893  -0.338485 -0.939306 0.055967  0.365246 0.348613 1 1 1.000000
0  -40.892391 -8.698755 32.936893  0.009889 -0.998384 0.055965  0.360363 0.348613 1 1 1.000000
chromemisc
0  -41.291542 -8.547354 32.303753  -0.250178 -0.903324 -0.348448  0.364269 0.341777 1 1 1.000000
0  -41.153904 -8.574881 32.262463  -0.155534 -0.917022 -0.367260  0.362316 0.341777 1 1 1.000000
0  -41.002499 -8.602408 32.303753  -0.061645 -0.935300 -0.348444  0.361339 0.341777 1 1 1.000000
chromemisc
0  -41.291542 -8.547354 32.303753  -0.250178 -0.903324 -0.348448  0.364269 0.341777 1 1 1.000000
0  -41.002499 -8.602408 32.303753  -0.061645 -0.935300 -0.348444  0.361339 0.341777 1 1 1.000000
0  -40.878628 -8.629936 32.386341  0.017151 -0.955440 -0.294688  0.359386 0.342753 1 1 1.000000
chromemisc
0  -41.291542 -8.547354 32.303753  -0.250178 -0.903324 -0.348448  0.364269 0.341777 1 1 1.000000
0  -40.878628 -8.629936 32.386341  0.017151 -0.955440 -0.294688  0.359386 0.342753 1 1 1.000000
0  -41.429180 -8.547354 32.386341  -0.331209 -0.896360 -0.294686  0.365246 0.342753 1 1 1.000000
end
