version 1
nodes
0 "blender_implicit" -1
1 "root" -1
2 "steering_wheel" 1
end
skeleton
time 0
0  0.000000 0.000000 0.000000  0.000000 -0.000000 0.000000
1  0.000000 0.000000 0.000000  1.570796 -0.000000 0.000000
2  17.500738 28.532450 14.135482  0.000000 -0.000000 0.000000
end
triangles
chromemisc
0  38.414906 -10.047606 30.528210  0.703119 -0.030383 -0.710423  0.186529 0.335917 1 1 1.000000
0  38.387379 -12.359934 30.624559  0.827390 -0.038991 -0.560272  0.538102 0.335917 1 1 1.000000
0  38.180920 -13.199529 30.321754  0.852800 -0.029326 -0.521414  0.649434 0.299783 1 1 1.000000
chromemisc
0  38.180920 -13.199529 30.321754  0.852800 -0.029326 -0.521414  0.649434 0.299783 1 1 1.000000
0  38.167156 -9.675983 30.184114  0.799549 -0.019851 -0.600273  0.076174 0.299783 1 1 1.000000
0  38.414906 -10.047606 30.528210  0.703119 -0.030383 -0.710423  0.186529 0.335917 1 1 1.000000
chromemisc
0  38.235973 -10.047606 30.858543  0.274609 0.944093 0.182426  0.186529 0.357402 1 1 1.000000
0  38.414906 -10.047606 30.528210  0.277822 0.948336 0.153210  0.186529 0.335917 1 1 1.000000
0  38.167156 -9.675983 30.184114  0.539267 0.763953 0.354353  0.076174 0.299783 1 1 1.000000
chromemisc
0  38.167156 -9.675983 30.184114  0.539267 0.763953 0.354353  0.076174 0.299783 1 1 1.000000
0  37.506493 -9.634691 31.009949  0.512899 0.777376 0.364172  0.076174 0.396466 1 1 1.000000
0  38.235973 -10.047606 30.858543  0.274609 0.944093 0.182426  0.186529 0.357402 1 1 1.000000
chromemisc
0  37.712952 -13.185763 31.092529  0.244578 0.031627 0.969114  0.649434 0.396466 1 1 1.000000
0  38.208447 -12.359934 30.941128  0.109424 0.035082 0.993376  0.538102 0.357402 1 1 1.000000
0  38.235973 -10.047606 30.858543  -0.103887 0.037494 0.993882  0.186529 0.357402 1 1 1.000000
chromemisc
0  38.235973 -10.047606 30.858543  -0.103234 0.037611 0.993946  0.186529 0.357402 1 1 1.000000
0  37.506493 -9.634691 31.009949  0.222363 0.035587 0.974314  0.076174 0.396466 1 1 1.000000
0  37.712952 -13.185763 31.092529  0.244669 0.031623 0.969091  0.649434 0.396466 1 1 1.000000
chromemisc
0  38.387379 -12.359934 30.624559  0.750506 -0.492613 0.440538  0.538102 0.335917 1 1 1.000000
0  38.208447 -12.359934 30.941128  0.755151 -0.490008 0.435476  0.538102 0.357402 1 1 1.000000
0  37.712952 -13.185763 31.092529  0.793616 -0.372865 0.480776  0.649434 0.396466 1 1 1.000000
chromemisc
0  37.712952 -13.185763 31.092529  0.793616 -0.372865 0.480776  0.649434 0.396466 1 1 1.000000
0  38.180920 -13.199529 30.321754  0.792007 -0.368132 0.487036  0.649434 0.299783 1 1 1.000000
0  38.387379 -12.359934 30.624559  0.750506 -0.492613 0.440538  0.538102 0.335917 1 1 1.000000
chromemisc
0  43.576347 -6.565352 31.725666  0.465761 0.871146 -0.155471  0.389660 0.333964 1 1 1.000000
0  43.287308 -6.702991 31.835777  -0.346805 0.916758 0.198195  0.386731 0.334941 1 1 1.000000
0  43.507530 -6.785574 32.826775  -0.363749 0.923654 0.120620  0.388684 0.345683 1 1 1.000000
chromemisc
0  43.507530 -6.785574 32.826775  -0.363749 0.923654 0.120620  0.388684 0.345683 1 1 1.000000
0  43.824100 -6.661699 32.840538  0.520039 0.849045 0.093178  0.392590 0.344707 1 1 1.000000
0  43.576347 -6.565352 31.725666  0.465761 0.871146 -0.155471  0.389660 0.333964 1 1 1.000000
chromemisc
0  42.929447 -6.551589 30.762197  0.321426 0.873235 -0.366258  0.382824 0.324198 1 1 1.000000
0  42.709225 -6.689227 30.996183  -0.301779 0.916130 0.263885  0.380871 0.327128 1 1 1.000000
0  43.287308 -6.702991 31.835777  -0.346805 0.916758 0.198195  0.386731 0.334941 1 1 1.000000
chromemisc
0  43.287308 -6.702991 31.835777  -0.346805 0.916758 0.198195  0.386731 0.334941 1 1 1.000000
0  43.576347 -6.565352 31.725666  0.465761 0.871146 -0.155471  0.389660 0.333964 1 1 1.000000
0  42.929447 -6.551589 30.762197  0.321426 0.873235 -0.366258  0.382824 0.324198 1 1 1.000000
chromemisc
0  41.965977 -6.634171 30.129061  0.109117 0.854968 -0.507074  0.373058 0.318339 1 1 1.000000
0  41.855865 -6.758046 30.431864  -0.235606 0.921825 0.307781  0.372082 0.321268 1 1 1.000000
0  42.709225 -6.689227 30.996183  -0.301779 0.916130 0.263885  0.380871 0.327128 1 1 1.000000
chromemisc
0  42.709225 -6.689227 30.996183  -0.301779 0.916130 0.263885  0.380871 0.327128 1 1 1.000000
0  42.929447 -6.551589 30.762197  0.321426 0.873235 -0.366258  0.382824 0.324198 1 1 1.000000
0  41.965977 -6.634171 30.129061  0.109117 0.854968 -0.507074  0.373058 0.318339 1 1 1.000000
chromemisc
0  40.851109 -6.799338 29.908840  -0.138942 0.819112 -0.556552  0.362316 0.316385 1 1 1.000000
0  40.864872 -6.909449 30.225410  -0.158271 0.932995 0.323219  0.362316 0.319315 1 1 1.000000
0  41.855865 -6.758046 30.431864  -0.235606 0.921825 0.307781  0.372082 0.321268 1 1 1.000000
chromemisc
0  41.855865 -6.758046 30.431864  -0.235606 0.921825 0.307781  0.372082 0.321268 1 1 1.000000
0  41.965977 -6.634171 30.129061  0.109117 0.854968 -0.507074  0.373058 0.318339 1 1 1.000000
0  40.851109 -6.799338 29.908840  -0.138942 0.819112 -0.556552  0.362316 0.316385 1 1 1.000000
chromemisc
0  39.736233 -7.019560 30.129061  -0.384931 0.771184 -0.507054  0.350597 0.318339 1 1 1.000000
0  39.873871 -7.102143 30.431864  -0.081575 0.947964 0.307749  0.352550 0.322245 1 1 1.000000
0  40.864872 -6.909449 30.225410  -0.158271 0.932995 0.323219  0.362316 0.319315 1 1 1.000000
chromemisc
0  40.864872 -6.909449 30.225410  -0.158271 0.932995 0.323219  0.362316 0.319315 1 1 1.000000
0  40.851109 -6.799338 29.908840  -0.138942 0.819112 -0.556552  0.362316 0.316385 1 1 1.000000
0  39.736233 -7.019560 30.129061  -0.384931 0.771184 -0.507054  0.350597 0.318339 1 1 1.000000
chromemisc
0  38.800293 -7.253546 30.762197  -0.591472 0.718359 -0.366226  0.341807 0.325175 1 1 1.000000
0  39.048042 -7.308601 30.996183  -0.017222 0.964401 0.263883  0.343760 0.327128 1 1 1.000000
0  39.873871 -7.102143 30.431864  -0.081575 0.947964 0.307749  0.352550 0.322245 1 1 1.000000
chromemisc
0  39.873871 -7.102143 30.431864  -0.081575 0.947964 0.307749  0.352550 0.322245 1 1 1.000000
0  39.736233 -7.019560 30.129061  -0.384931 0.771184 -0.507054  0.350597 0.318339 1 1 1.000000
0  38.800293 -7.253546 30.762197  -0.591472 0.718359 -0.366226  0.341807 0.325175 1 1 1.000000
chromemisc
0  38.194683 -7.473767 31.725666  -0.726937 0.668878 -0.155450  0.334971 0.334941 1 1 1.000000
0  38.511253 -7.515058 31.835777  0.025061 0.979842 0.198195  0.337901 0.335917 1 1 1.000000
0  39.048042 -7.308601 30.996183  -0.017222 0.964401 0.263883  0.343760 0.327128 1 1 1.000000
chromemisc
0  39.048042 -7.308601 30.996183  -0.017222 0.964401 0.263883  0.343760 0.327128 1 1 1.000000
0  38.800293 -7.253546 30.762197  -0.591472 0.718359 -0.366226  0.341807 0.325175 1 1 1.000000
0  38.194683 -7.473767 31.725666  -0.726937 0.668878 -0.155450  0.334971 0.334941 1 1 1.000000
chromemisc
0  37.988224 -7.652697 32.840538  -0.770959 0.630041 0.093116  0.333018 0.346660 1 1 1.000000
0  38.332321 -7.666461 32.826775  0.038738 0.991935 0.120682  0.336924 0.346660 1 1 1.000000
0  38.511253 -7.515058 31.835777  0.025061 0.979842 0.198195  0.337901 0.335917 1 1 1.000000
chromemisc
0  38.511253 -7.515058 31.835777  0.025061 0.979842 0.198195  0.337901 0.335917 1 1 1.000000
0  38.194683 -7.473767 31.725666  -0.726937 0.668878 -0.155450  0.334971 0.334941 1 1 1.000000
0  37.988224 -7.652697 32.840538  -0.770959 0.630041 0.093116  0.333018 0.346660 1 1 1.000000
chromemisc
0  38.235973 -7.749044 33.969173  -0.716630 0.607951 0.341816  0.335948 0.357402 1 1 1.000000
0  38.552544 -7.749044 33.831535  0.021473 0.998839 0.043113  0.338878 0.356426 1 1 1.000000
0  38.332321 -7.666461 32.826775  0.038738 0.991935 0.120682  0.336924 0.346660 1 1 1.000000
chromemisc
0  38.332321 -7.666461 32.826775  0.038738 0.991935 0.120682  0.336924 0.346660 1 1 1.000000
0  37.988224 -7.652697 32.840538  -0.770959 0.630041 0.093116  0.333018 0.346660 1 1 1.000000
0  38.235973 -7.749044 33.969173  -0.716630 0.607951 0.341816  0.335948 0.357402 1 1 1.000000
chromemisc
0  38.896637 -7.762807 34.918880  -0.572332 0.605902 0.552557  0.341807 0.367168 1 1 1.000000
0  39.130623 -7.762807 34.671131  -0.022896 0.999487 -0.022414  0.344737 0.364238 1 1 1.000000
0  38.552544 -7.749044 33.831535  0.021473 0.998839 0.043113  0.338878 0.356426 1 1 1.000000
chromemisc
0  38.552544 -7.749044 33.831535  0.021473 0.998839 0.043113  0.338878 0.356426 1 1 1.000000
0  38.235973 -7.749044 33.969173  -0.716630 0.607951 0.341816  0.335948 0.357402 1 1 1.000000
0  38.896637 -7.762807 34.918880  -0.572332 0.605902 0.552557  0.341807 0.367168 1 1 1.000000
chromemisc
0  39.846344 -7.680225 35.552017  -0.360037 0.624149 0.693405  0.351573 0.373028 1 1 1.000000
0  39.983982 -7.693989 35.235447  -0.089353 0.993779 -0.066477  0.353526 0.370098 1 1 1.000000
0  39.130623 -7.762807 34.671131  -0.022896 0.999487 -0.022414  0.344737 0.364238 1 1 1.000000
chromemisc
0  39.130623 -7.762807 34.671131  -0.022896 0.999487 -0.022414  0.344737 0.364238 1 1 1.000000
0  38.896637 -7.762807 34.918880  -0.572332 0.605902 0.552557  0.341807 0.367168 1 1 1.000000
0  39.846344 -7.680225 35.552017  -0.360037 0.624149 0.693405  0.351573 0.373028 1 1 1.000000
chromemisc
0  40.961216 -7.515058 35.772240  -0.112192 0.660043 0.742803  0.363292 0.374981 1 1 1.000000
0  40.974979 -7.542586 35.441906  -0.166697 0.982599 -0.081927  0.363292 0.372051 1 1 1.000000
0  39.983982 -7.693989 35.235447  -0.089353 0.993779 -0.066477  0.353526 0.370098 1 1 1.000000
chromemisc
0  39.983982 -7.693989 35.235447  -0.089353 0.993779 -0.066477  0.353526 0.370098 1 1 1.000000
0  39.846344 -7.680225 35.552017  -0.360037 0.624149 0.693405  0.351573 0.373028 1 1 1.000000
0  40.961216 -7.515058 35.772240  -0.112192 0.660043 0.742803  0.363292 0.374981 1 1 1.000000
chromemisc
0  42.076088 -7.294836 35.552017  0.133997 0.707977 0.693407  0.375011 0.373028 1 1 1.000000
0  41.952213 -7.349892 35.235447  -0.243367 0.967653 -0.066488  0.373058 0.370098 1 1 1.000000
0  40.974979 -7.542586 35.441906  -0.166697 0.982599 -0.081927  0.363292 0.372051 1 1 1.000000
chromemisc
0  40.974979 -7.542586 35.441906  -0.166697 0.982599 -0.081927  0.363292 0.372051 1 1 1.000000
0  40.961216 -7.515058 35.772240  -0.112192 0.660043 0.742803  0.363292 0.374981 1 1 1.000000
0  42.076088 -7.294836 35.552017  0.133997 0.707977 0.693407  0.375011 0.373028 1 1 1.000000
chromemisc
0  43.012032 -7.060851 34.918880  0.340496 0.760733 0.552583  0.383801 0.366192 1 1 1.000000
0  42.791809 -7.143435 34.671131  -0.307710 0.951213 -0.022532  0.381848 0.364238 1 1 1.000000
0  41.952213 -7.349892 35.235447  -0.243367 0.967653 -0.066488  0.373058 0.370098 1 1 1.000000
chromemisc
0  41.952213 -7.349892 35.235447  -0.243367 0.967653 -0.066488  0.373058 0.370098 1 1 1.000000
0  42.076088 -7.294836 35.552017  0.133997 0.707977 0.693407  0.375011 0.373028 1 1 1.000000
0  43.012032 -7.060851 34.918880  0.340496 0.760733 0.552583  0.383801 0.366192 1 1 1.000000
chromemisc
0  43.617638 -6.840630 33.969173  0.476027 0.810291 0.341799  0.390637 0.356426 1 1 1.000000
0  43.328598 -6.936976 33.831535  -0.349981 0.935762 0.043153  0.386731 0.355449 1 1 1.000000
0  42.791809 -7.143435 34.671131  -0.307710 0.951213 -0.022532  0.381848 0.364238 1 1 1.000000
chromemisc
0  42.791809 -7.143435 34.671131  -0.307710 0.951213 -0.022532  0.381848 0.364238 1 1 1.000000
0  43.012032 -7.060851 34.918880  0.340496 0.760733 0.552583  0.383801 0.366192 1 1 1.000000
0  43.617638 -6.840630 33.969173  0.476027 0.810291 0.341799  0.390637 0.356426 1 1 1.000000
chromemisc
0  43.824100 -6.661699 32.840538  0.520039 0.849045 0.093178  0.392590 0.344707 1 1 1.000000
0  43.507530 -6.785574 32.826775  -0.363749 0.923654 0.120620  0.388684 0.345683 1 1 1.000000
0  43.328598 -6.936976 33.831535  -0.349981 0.935762 0.043153  0.386731 0.355449 1 1 1.000000
chromemisc
0  43.328598 -6.936976 33.831535  -0.349981 0.935762 0.043153  0.386731 0.355449 1 1 1.000000
0  43.617638 -6.840630 33.969173  0.476027 0.810291 0.341799  0.390637 0.356426 1 1 1.000000
0  43.824100 -6.661699 32.840538  0.520039 0.849045 0.093178  0.392590 0.344707 1 1 1.000000
chromemisc
0  43.879154 -6.895685 32.813011  0.947984 -0.312989 -0.058011  0.392590 0.344707 1 1 1.000000
0  41.539295 -8.561111 32.661610  0.406985 -0.905605 -0.119341  0.366222 0.345683 1 1 1.000000
0  41.511768 -8.547348 32.510204  0.386280 -0.897159 -0.214228  0.366222 0.343730 1 1 1.000000
chromemisc
0  41.511768 -8.547348 32.510204  0.386280 -0.897159 -0.214228  0.366222 0.343730 1 1 1.000000
0  43.631401 -6.799338 31.684376  0.874677 -0.283197 -0.393371  0.389660 0.333964 1 1 1.000000
0  43.879154 -6.895685 32.813011  0.947984 -0.312989 -0.058011  0.392590 0.344707 1 1 1.000000
chromemisc
0  43.631401 -6.799338 31.684376  0.874677 -0.283197 -0.393371  0.389660 0.333964 1 1 1.000000
0  41.511768 -8.547348 32.510204  0.386280 -0.897159 -0.214228  0.366222 0.343730 1 1 1.000000
0  41.429188 -8.547348 32.386333  0.331225 -0.896356 -0.294680  0.365246 0.342753 1 1 1.000000
chromemisc
0  41.429188 -8.547348 32.386333  0.331225 -0.896356 -0.294680  0.365246 0.342753 1 1 1.000000
0  42.970737 -6.785574 30.720907  0.680348 -0.280368 -0.677141  0.382824 0.324198 1 1 1.000000
0  43.631401 -6.799338 31.684376  0.874677 -0.283197 -0.393371  0.389660 0.333964 1 1 1.000000
chromemisc
0  42.970737 -6.785574 30.720907  0.680348 -0.280368 -0.677141  0.382824 0.324198 1 1 1.000000
0  41.429188 -8.547348 32.386333  0.331225 -0.896356 -0.294680  0.365246 0.342753 1 1 1.000000
0  41.291550 -8.547348 32.303745  0.250311 -0.903190 -0.348700  0.364269 0.341777 1 1 1.000000
chromemisc
0  41.291550 -8.547348 32.303745  0.250311 -0.903190 -0.348700  0.364269 0.341777 1 1 1.000000
0  42.007271 -6.868157 30.087767  0.394185 -0.304979 -0.866952  0.373058 0.318339 1 1 1.000000
0  42.970737 -6.785574 30.720907  0.680348 -0.280368 -0.677141  0.382824 0.324198 1 1 1.000000
chromemisc
0  42.007271 -6.868157 30.087767  0.394185 -0.304979 -0.866952  0.373058 0.318339 1 1 1.000000
0  41.291550 -8.547348 32.303745  0.250311 -0.903190 -0.348700  0.364269 0.341777 1 1 1.000000
0  41.153912 -8.574875 32.262455  0.155527 -0.917009 -0.367296  0.362316 0.341777 1 1 1.000000
chromemisc
0  41.153912 -8.574875 32.262455  0.155527 -0.917009 -0.367296  0.362316 0.341777 1 1 1.000000
0  40.892399 -7.033323 29.853785  0.059899 -0.353254 -0.933608  0.362316 0.316385 1 1 1.000000
0  42.007271 -6.868157 30.087767  0.394185 -0.304979 -0.866952  0.373058 0.318339 1 1 1.000000
chromemisc
0  41.002506 -8.602403 32.303745  0.061629 -0.935308 -0.348428  0.361339 0.341777 1 1 1.000000
0  39.763760 -7.253546 30.087767  -0.271584 -0.417906 -0.866947  0.350597 0.318339 1 1 1.000000
0  40.892399 -7.033323 29.853785  0.059899 -0.353254 -0.933608  0.362316 0.316385 1 1 1.000000
chromemisc
0  40.892399 -7.033323 29.853785  0.059899 -0.353254 -0.933608  0.362316 0.316385 1 1 1.000000
0  41.153912 -8.574875 32.262455  0.155527 -0.917009 -0.367296  0.362316 0.341777 1 1 1.000000
0  41.002506 -8.602403 32.303745  0.061629 -0.935308 -0.348428  0.361339 0.341777 1 1 1.000000
chromemisc
0  39.763760 -7.253546 30.087767  -0.271584 -0.417906 -0.866947  0.350597 0.318339 1 1 1.000000
0  41.002506 -8.602403 32.303745  0.061629 -0.935308 -0.348428  0.361339 0.341777 1 1 1.000000
0  40.878635 -8.629930 32.386333  -0.017157 -0.955441 -0.294683  0.359386 0.342753 1 1 1.000000
chromemisc
0  40.878635 -8.629930 32.386333  -0.017157 -0.955441 -0.294683  0.359386 0.342753 1 1 1.000000
0  38.827820 -7.487531 30.720907  -0.550362 -0.489155 -0.676631  0.340831 0.325175 1 1 1.000000
0  39.763760 -7.253546 30.087767  -0.271584 -0.417906 -0.866947  0.350597 0.318339 1 1 1.000000
chromemisc
0  38.827820 -7.487531 30.720907  -0.550362 -0.489155 -0.676631  0.340831 0.325175 1 1 1.000000
0  40.878635 -8.629930 32.386333  -0.017157 -0.955441 -0.294683  0.359386 0.342753 1 1 1.000000
0  40.796055 -8.657458 32.510204  -0.068874 -0.974351 -0.214234  0.359386 0.344707 1 1 1.000000
chromemisc
0  40.796055 -8.657458 32.510204  -0.068874 -0.974351 -0.214234  0.359386 0.344707 1 1 1.000000
0  38.222210 -7.721517 31.684376  -0.732546 -0.555760 -0.393074  0.334971 0.334941 1 1 1.000000
0  38.827820 -7.487531 30.720907  -0.550362 -0.489155 -0.676631  0.340831 0.325175 1 1 1.000000
chromemisc
0  38.222210 -7.721517 31.684376  -0.732546 -0.555760 -0.393074  0.334971 0.334941 1 1 1.000000
0  40.796055 -8.657458 32.510204  -0.068874 -0.974351 -0.214234  0.359386 0.344707 1 1 1.000000
0  40.768520 -8.684986 32.661610  -0.085664 -0.989152 -0.119335  0.358409 0.345683 1 1 1.000000
chromemisc
0  40.768520 -8.684986 32.661610  -0.085664 -0.989152 -0.119335  0.358409 0.345683 1 1 1.000000
0  38.015751 -7.900446 32.813011  -0.791803 -0.608015 -0.058017  0.333018 0.346660 1 1 1.000000
0  38.222210 -7.721517 31.684376  -0.732546 -0.555760 -0.393074  0.334971 0.334941 1 1 1.000000
chromemisc
0  38.015751 -7.900446 32.813011  -0.791803 -0.608015 -0.058017  0.333018 0.346660 1 1 1.000000
0  40.768520 -8.684986 32.661610  -0.085664 -0.989152 -0.119335  0.358409 0.345683 1 1 1.000000
0  40.796055 -8.698750 32.799248  -0.064626 -0.997605 -0.024673  0.359386 0.347636 1 1 1.000000
chromemisc
0  40.796055 -8.698750 32.799248  -0.064626 -0.997605 -0.024673  0.359386 0.347636 1 1 1.000000
0  38.263504 -7.996794 33.941647  -0.718619 -0.637834 0.277048  0.335948 0.357402 1 1 1.000000
0  38.015751 -7.900446 32.813011  -0.791803 -0.608015 -0.058017  0.333018 0.346660 1 1 1.000000
chromemisc
0  38.263504 -7.996794 33.941647  -0.718619 -0.637834 0.277048  0.335948 0.357402 1 1 1.000000
0  40.796055 -8.698750 32.799248  -0.064626 -0.997605 -0.024673  0.359386 0.347636 1 1 1.000000
0  40.892399 -8.698750 32.936886  -0.009890 -0.998384 0.055966  0.360363 0.348613 1 1 1.000000
chromemisc
0  40.892399 -8.698750 32.936886  -0.009890 -0.998384 0.055966  0.360363 0.348613 1 1 1.000000
0  38.924168 -8.010557 34.891354  -0.524143 -0.640658 0.561098  0.341807 0.367168 1 1 1.000000
0  38.263504 -7.996794 33.941647  -0.718619 -0.637834 0.277048  0.335948 0.357402 1 1 1.000000
chromemisc
0  38.924168 -8.010557 34.891354  -0.524143 -0.640658 0.561098  0.341807 0.367168 1 1 1.000000
0  40.892399 -8.698750 32.936886  -0.009890 -0.998384 0.055966  0.360363 0.348613 1 1 1.000000
0  41.016273 -8.684986 33.019470  0.071156 -0.991410 0.109744  0.361339 0.349590 1 1 1.000000
chromemisc
0  41.016273 -8.684986 33.019470  0.071156 -0.991410 0.109744  0.361339 0.349590 1 1 1.000000
0  39.887634 -7.927974 35.538254  -0.237978 -0.616033 0.750913  0.351573 0.373028 1 1 1.000000
0  38.924168 -8.010557 34.891354  -0.524143 -0.640658 0.561098  0.341807 0.367168 1 1 1.000000
chromemisc
0  39.887634 -7.927974 35.538254  -0.237978 -0.616033 0.750913  0.351573 0.373028 1 1 1.000000
0  41.016273 -8.684986 33.019470  0.071156 -0.991410 0.109744  0.361339 0.349590 1 1 1.000000
0  41.167675 -8.671222 33.046997  0.165789 -0.977743 0.128581  0.362316 0.349590 1 1 1.000000
chromemisc
0  41.167675 -8.671222 33.046997  0.165789 -0.977743 0.128581  0.362316 0.349590 1 1 1.000000
0  41.002506 -7.762807 35.758476  0.096272 -0.567848 0.817484  0.363292 0.374981 1 1 1.000000
0  39.887634 -7.927974 35.538254  -0.237978 -0.616033 0.750913  0.351573 0.373028 1 1 1.000000
chromemisc
0  41.002506 -7.762807 35.758476  0.096272 -0.567848 0.817484  0.363292 0.374981 1 1 1.000000
0  41.167675 -8.671222 33.046997  0.165789 -0.977743 0.128581  0.362316 0.349590 1 1 1.000000
0  41.305313 -8.643694 33.019470  0.259706 -0.959435 0.109712  0.364269 0.349590 1 1 1.000000
chromemisc
0  41.305313 -8.643694 33.019470  0.259706 -0.959435 0.109712  0.364269 0.349590 1 1 1.000000
0  42.131145 -7.542585 35.538254  0.427798 -0.503077 0.750934  0.375011 0.373028 1 1 1.000000
0  41.002506 -7.762807 35.758476  0.096272 -0.567848 0.817484  0.363292 0.374981 1 1 1.000000
chromemisc
0  42.131145 -7.542585 35.538254  0.427798 -0.503077 0.750934  0.375011 0.373028 1 1 1.000000
0  41.305313 -8.643694 33.019470  0.259706 -0.959435 0.109712  0.364269 0.349590 1 1 1.000000
0  41.429188 -8.602403 32.936886  0.338507 -0.939298 0.055967  0.365246 0.348613 1 1 1.000000
chromemisc
0  41.429188 -8.602403 32.936886  0.338507 -0.939298 0.055967  0.365246 0.348613 1 1 1.000000
0  43.067085 -7.308600 34.891354  0.706056 -0.432000 0.561125  0.383801 0.366192 1 1 1.000000
0  42.131145 -7.542585 35.538254  0.427798 -0.503077 0.750934  0.375011 0.373028 1 1 1.000000
chromemisc
0  43.067085 -7.308600 34.891354  0.706056 -0.432000 0.561125  0.383801 0.366192 1 1 1.000000
0  41.429188 -8.602403 32.936886  0.338507 -0.939298 0.055967  0.365246 0.348613 1 1 1.000000
0  41.511768 -8.574875 32.799248  0.390195 -0.920408 -0.024450  0.366222 0.347636 1 1 1.000000
chromemisc
0  41.511768 -8.574875 32.799248  0.390195 -0.920408 -0.024450  0.366222 0.347636 1 1 1.000000
0  43.672695 -7.074615 33.941647  0.888734 -0.365210 0.277079  0.390637 0.356426 1 1 1.000000
0  43.067085 -7.308600 34.891354  0.706056 -0.432000 0.561125  0.383801 0.366192 1 1 1.000000
chromemisc
0  43.672695 -7.074615 33.941647  0.888734 -0.365210 0.277079  0.390637 0.356426 1 1 1.000000
0  41.511768 -8.574875 32.799248  0.390195 -0.920408 -0.024450  0.366222 0.347636 1 1 1.000000
0  41.539295 -8.561111 32.661610  0.406985 -0.905605 -0.119341  0.366222 0.345683 1 1 1.000000
chromemisc
0  41.539295 -8.561111 32.661610  0.406985 -0.905605 -0.119341  0.366222 0.345683 1 1 1.000000
0  43.879154 -6.895685 32.813011  0.947984 -0.312989 -0.058011  0.392590 0.344707 1 1 1.000000
0  43.672695 -7.074615 33.941647  0.888734 -0.365210 0.277079  0.390637 0.356426 1 1 1.000000
chromemisc
0  41.855865 -6.758046 30.431864  -0.165962 0.978387 0.123348  0.160161 0.733390 1 1 1.000000
0  39.873871 -7.102143 30.431864  -0.165968 0.978399 0.123248  0.160161 0.731437 1 1 1.000000
0  39.048042 -7.308601 30.996183  -0.165962 0.978389 0.123338  0.159185 0.730461 1 1 1.000000
chromemisc
0  39.048042 -7.308601 30.996183  -0.165962 0.978389 0.123338  0.159185 0.730461 1 1 1.000000
0  42.709225 -6.689227 30.996183  -0.165960 0.978391 0.123322  0.159185 0.735343 1 1 1.000000
0  41.855865 -6.758046 30.431864  -0.165962 0.978387 0.123348  0.160161 0.733390 1 1 1.000000
chromemisc
0  43.631401 -6.799338 31.684376  0.874677 -0.283197 -0.393371  0.389660 0.333964 1 1 1.000000
0  43.576347 -6.565352 31.725666  0.465761 0.871146 -0.155471  0.389660 0.333964 1 1 1.000000
0  43.824100 -6.661699 32.840538  0.520039 0.849045 0.093178  0.392590 0.344707 1 1 1.000000
chromemisc
0  43.824100 -6.661699 32.840538  0.520039 0.849045 0.093178  0.392590 0.344707 1 1 1.000000
0  43.879154 -6.895685 32.813011  0.947984 -0.312989 -0.058011  0.392590 0.344707 1 1 1.000000
0  43.631401 -6.799338 31.684376  0.874677 -0.283197 -0.393371  0.389660 0.333964 1 1 1.000000
chromemisc
0  42.970737 -6.785574 30.720907  0.680348 -0.280368 -0.677141  0.382824 0.324198 1 1 1.000000
0  42.929447 -6.551589 30.762197  0.321426 0.873235 -0.366258  0.382824 0.324198 1 1 1.000000
0  43.576347 -6.565352 31.725666  0.465761 0.871146 -0.155471  0.389660 0.333964 1 1 1.000000
chromemisc
0  43.576347 -6.565352 31.725666  0.465761 0.871146 -0.155471  0.389660 0.333964 1 1 1.000000
0  43.631401 -6.799338 31.684376  0.874677 -0.283197 -0.393371  0.389660 0.333964 1 1 1.000000
0  42.970737 -6.785574 30.720907  0.680348 -0.280368 -0.677141  0.382824 0.324198 1 1 1.000000
chromemisc
0  42.007271 -6.868157 30.087767  0.394185 -0.304979 -0.866952  0.373058 0.318339 1 1 1.000000
0  41.965977 -6.634171 30.129061  0.109117 0.854968 -0.507074  0.373058 0.318339 1 1 1.000000
0  42.929447 -6.551589 30.762197  0.321426 0.873235 -0.366258  0.382824 0.324198 1 1 1.000000
chromemisc
0  42.929447 -6.551589 30.762197  0.321426 0.873235 -0.366258  0.382824 0.324198 1 1 1.000000
0  42.970737 -6.785574 30.720907  0.680348 -0.280368 -0.677141  0.382824 0.324198 1 1 1.000000
0  42.007271 -6.868157 30.087767  0.394185 -0.304979 -0.866952  0.373058 0.318339 1 1 1.000000
chromemisc
0  40.892399 -7.033323 29.853785  0.059899 -0.353254 -0.933608  0.362316 0.316385 1 1 1.000000
0  40.851109 -6.799338 29.908840  -0.138942 0.819112 -0.556552  0.362316 0.316385 1 1 1.000000
0  41.965977 -6.634171 30.129061  0.109117 0.854968 -0.507074  0.373058 0.318339 1 1 1.000000
chromemisc
0  41.965977 -6.634171 30.129061  0.109117 0.854968 -0.507074  0.373058 0.318339 1 1 1.000000
0  42.007271 -6.868157 30.087767  0.394185 -0.304979 -0.866952  0.373058 0.318339 1 1 1.000000
0  40.892399 -7.033323 29.853785  0.059899 -0.353254 -0.933608  0.362316 0.316385 1 1 1.000000
chromemisc
0  39.763760 -7.253546 30.087767  -0.271584 -0.417906 -0.866947  0.350597 0.318339 1 1 1.000000
0  39.736233 -7.019560 30.129061  -0.384931 0.771184 -0.507054  0.350597 0.318339 1 1 1.000000
0  40.851109 -6.799338 29.908840  -0.138942 0.819112 -0.556552  0.362316 0.316385 1 1 1.000000
chromemisc
0  40.851109 -6.799338 29.908840  -0.138942 0.819112 -0.556552  0.362316 0.316385 1 1 1.000000
0  40.892399 -7.033323 29.853785  0.059899 -0.353254 -0.933608  0.362316 0.316385 1 1 1.000000
0  39.763760 -7.253546 30.087767  -0.271584 -0.417906 -0.866947  0.350597 0.318339 1 1 1.000000
chromemisc
0  38.827820 -7.487531 30.720907  -0.550362 -0.489155 -0.676631  0.340831 0.325175 1 1 1.000000
0  38.800293 -7.253546 30.762197  -0.591472 0.718359 -0.366226  0.341807 0.325175 1 1 1.000000
0  39.736233 -7.019560 30.129061  -0.384931 0.771184 -0.507054  0.350597 0.318339 1 1 1.000000
chromemisc
0  39.736233 -7.019560 30.129061  -0.384931 0.771184 -0.507054  0.350597 0.318339 1 1 1.000000
0  39.763760 -7.253546 30.087767  -0.271584 -0.417906 -0.866947  0.350597 0.318339 1 1 1.000000
0  38.827820 -7.487531 30.720907  -0.550362 -0.489155 -0.676631  0.340831 0.325175 1 1 1.000000
chromemisc
0  38.222210 -7.721517 31.684376  -0.732546 -0.555760 -0.393074  0.334971 0.334941 1 1 1.000000
0  38.194683 -7.473767 31.725666  -0.726937 0.668878 -0.155450  0.334971 0.334941 1 1 1.000000
0  38.800293 -7.253546 30.762197  -0.591472 0.718359 -0.366226  0.341807 0.325175 1 1 1.000000
chromemisc
0  38.800293 -7.253546 30.762197  -0.591472 0.718359 -0.366226  0.341807 0.325175 1 1 1.000000
0  38.827820 -7.487531 30.720907  -0.550362 -0.489155 -0.676631  0.340831 0.325175 1 1 1.000000
0  38.222210 -7.721517 31.684376  -0.732546 -0.555760 -0.393074  0.334971 0.334941 1 1 1.000000
chromemisc
0  38.015751 -7.900446 32.813011  -0.791803 -0.608015 -0.058017  0.333018 0.346660 1 1 1.000000
0  37.988224 -7.652697 32.840538  -0.770959 0.630041 0.093116  0.333018 0.346660 1 1 1.000000
0  38.194683 -7.473767 31.725666  -0.726937 0.668878 -0.155450  0.334971 0.334941 1 1 1.000000
chromemisc
0  38.194683 -7.473767 31.725666  -0.726937 0.668878 -0.155450  0.334971 0.334941 1 1 1.000000
0  38.222210 -7.721517 31.684376  -0.732546 -0.555760 -0.393074  0.334971 0.334941 1 1 1.000000
0  38.015751 -7.900446 32.813011  -0.791803 -0.608015 -0.058017  0.333018 0.346660 1 1 1.000000
chromemisc
0  38.263504 -7.996794 33.941647  -0.718619 -0.637834 0.277048  0.335948 0.357402 1 1 1.000000
0  38.235973 -7.749044 33.969173  -0.716630 0.607951 0.341816  0.335948 0.357402 1 1 1.000000
0  37.988224 -7.652697 32.840538  -0.770959 0.630041 0.093116  0.333018 0.346660 1 1 1.000000
chromemisc
0  37.988224 -7.652697 32.840538  -0.770959 0.630041 0.093116  0.333018 0.346660 1 1 1.000000
0  38.015751 -7.900446 32.813011  -0.791803 -0.608015 -0.058017  0.333018 0.346660 1 1 1.000000
0  38.263504 -7.996794 33.941647  -0.718619 -0.637834 0.277048  0.335948 0.357402 1 1 1.000000
chromemisc
0  38.924168 -8.010557 34.891354  -0.524143 -0.640658 0.561098  0.341807 0.367168 1 1 1.000000
0  38.896637 -7.762807 34.918880  -0.572332 0.605902 0.552557  0.341807 0.367168 1 1 1.000000
0  38.235973 -7.749044 33.969173  -0.716630 0.607951 0.341816  0.335948 0.357402 1 1 1.000000
chromemisc
0  38.235973 -7.749044 33.969173  -0.716630 0.607951 0.341816  0.335948 0.357402 1 1 1.000000
0  38.263504 -7.996794 33.941647  -0.718619 -0.637834 0.277048  0.335948 0.357402 1 1 1.000000
0  38.924168 -8.010557 34.891354  -0.524143 -0.640658 0.561098  0.341807 0.367168 1 1 1.000000
chromemisc
0  39.887634 -7.927974 35.538254  -0.237978 -0.616033 0.750913  0.351573 0.373028 1 1 1.000000
0  39.846344 -7.680225 35.552017  -0.360037 0.624149 0.693405  0.351573 0.373028 1 1 1.000000
0  38.896637 -7.762807 34.918880  -0.572332 0.605902 0.552557  0.341807 0.367168 1 1 1.000000
chromemisc
0  38.896637 -7.762807 34.918880  -0.572332 0.605902 0.552557  0.341807 0.367168 1 1 1.000000
0  38.924168 -8.010557 34.891354  -0.524143 -0.640658 0.561098  0.341807 0.367168 1 1 1.000000
0  39.887634 -7.927974 35.538254  -0.237978 -0.616033 0.750913  0.351573 0.373028 1 1 1.000000
chromemisc
0  41.002506 -7.762807 35.758476  0.096272 -0.567848 0.817484  0.363292 0.374981 1 1 1.000000
0  40.961216 -7.515058 35.772240  -0.112192 0.660043 0.742803  0.363292 0.374981 1 1 1.000000
0  39.846344 -7.680225 35.552017  -0.360037 0.624149 0.693405  0.351573 0.373028 1 1 1.000000
chromemisc
0  39.846344 -7.680225 35.552017  -0.360037 0.624149 0.693405  0.351573 0.373028 1 1 1.000000
0  39.887634 -7.927974 35.538254  -0.237978 -0.616033 0.750913  0.351573 0.373028 1 1 1.000000
0  41.002506 -7.762807 35.758476  0.096272 -0.567848 0.817484  0.363292 0.374981 1 1 1.000000
chromemisc
0  42.131145 -7.542585 35.538254  0.427798 -0.503077 0.750934  0.375011 0.373028 1 1 1.000000
0  42.076088 -7.294836 35.552017  0.133997 0.707977 0.693407  0.375011 0.373028 1 1 1.000000
0  40.961216 -7.515058 35.772240  -0.112192 0.660043 0.742803  0.363292 0.374981 1 1 1.000000
chromemisc
0  40.961216 -7.515058 35.772240  -0.112192 0.660043 0.742803  0.363292 0.374981 1 1 1.000000
0  41.002506 -7.762807 35.758476  0.096272 -0.567848 0.817484  0.363292 0.374981 1 1 1.000000
0  42.131145 -7.542585 35.538254  0.427798 -0.503077 0.750934  0.375011 0.373028 1 1 1.000000
chromemisc
0  43.067085 -7.308600 34.891354  0.706056 -0.432000 0.561125  0.383801 0.366192 1 1 1.000000
0  43.012032 -7.060851 34.918880  0.340496 0.760733 0.552583  0.383801 0.366192 1 1 1.000000
0  42.076088 -7.294836 35.552017  0.133997 0.707977 0.693407  0.375011 0.373028 1 1 1.000000
chromemisc
0  42.076088 -7.294836 35.552017  0.133997 0.707977 0.693407  0.375011 0.373028 1 1 1.000000
0  42.131145 -7.542585 35.538254  0.427798 -0.503077 0.750934  0.375011 0.373028 1 1 1.000000
0  43.067085 -7.308600 34.891354  0.706056 -0.432000 0.561125  0.383801 0.366192 1 1 1.000000
chromemisc
0  43.672695 -7.074615 33.941647  0.888734 -0.365210 0.277079  0.390637 0.356426 1 1 1.000000
0  43.617638 -6.840630 33.969173  0.476027 0.810291 0.341799  0.390637 0.356426 1 1 1.000000
0  43.012032 -7.060851 34.918880  0.340496 0.760733 0.552583  0.383801 0.366192 1 1 1.000000
chromemisc
0  43.012032 -7.060851 34.918880  0.340496 0.760733 0.552583  0.383801 0.366192 1 1 1.000000
0  43.067085 -7.308600 34.891354  0.706056 -0.432000 0.561125  0.383801 0.366192 1 1 1.000000
0  43.672695 -7.074615 33.941647  0.888734 -0.365210 0.277079  0.390637 0.356426 1 1 1.000000
chromemisc
0  43.879154 -6.895685 32.813011  0.947984 -0.312989 -0.058011  0.392590 0.344707 1 1 1.000000
0  43.824100 -6.661699 32.840538  0.520039 0.849045 0.093178  0.392590 0.344707 1 1 1.000000
0  43.617638 -6.840630 33.969173  0.476027 0.810291 0.341799  0.390637 0.356426 1 1 1.000000
chromemisc
0  43.617638 -6.840630 33.969173  0.476027 0.810291 0.341799  0.390637 0.356426 1 1 1.000000
0  43.672695 -7.074615 33.941647  0.888734 -0.365210 0.277079  0.390637 0.356426 1 1 1.000000
0  43.879154 -6.895685 32.813011  0.947984 -0.312989 -0.058011  0.392590 0.344707 1 1 1.000000
chromemisc
0  40.782284 -10.226537 32.661610  -0.816472 -0.577034 0.020104  0.231452 0.311502 1 1 1.000000
0  41.098854 -10.212773 32.978180  -0.000007 -0.547921 0.836530  0.231452 0.378887 1 1 1.000000
0  41.098854 -8.382181 32.923122  -0.000035 0.030886 0.999523  0.595721 0.378887 1 1 1.000000
chromemisc
0  41.098854 -8.382181 32.923122  -0.000035 0.030886 0.999523  0.595721 0.378887 1 1 1.000000
0  40.782284 -8.382181 32.606552  -0.999995 0.000088 0.003210  0.595721 0.311502 1 1 1.000000
0  40.782284 -10.226537 32.661610  -0.816472 -0.577034 0.020104  0.231452 0.311502 1 1 1.000000
chromemisc
0  41.098854 -10.212773 32.978180  -0.000007 -0.547921 0.836530  0.231452 0.378887 1 1 1.000000
0  41.415424 -10.226537 32.661610  0.816452 -0.577064 0.020098  0.231452 0.311502 1 1 1.000000
0  41.415424 -8.382181 32.606552  0.999995 0.000094 0.003169  0.595721 0.311502 1 1 1.000000
chromemisc
0  41.415424 -8.382181 32.606552  0.999995 0.000094 0.003169  0.595721 0.311502 1 1 1.000000
0  41.098854 -8.382181 32.923122  -0.000035 0.030886 0.999523  0.595721 0.378887 1 1 1.000000
0  41.098854 -10.212773 32.978180  -0.000007 -0.547921 0.836530  0.231452 0.378887 1 1 1.000000
chromemisc
0  41.415424 -10.226537 32.661610  0.816452 -0.577064 0.020098  0.231452 0.311502 1 1 1.000000
0  41.098854 -10.240300 32.345043  0.000021 -0.605931 -0.795517  0.231452 0.378887 1 1 1.000000
0  41.098854 -8.395945 32.289982  -0.000004 -0.031431 -0.999506  0.595721 0.378887 1 1 1.000000
chromemisc
0  41.098854 -8.395945 32.289982  -0.000004 -0.031431 -0.999506  0.595721 0.378887 1 1 1.000000
0  41.415424 -8.382181 32.606552  0.999995 0.000094 0.003169  0.595721 0.311502 1 1 1.000000
0  41.415424 -10.226537 32.661610  0.816452 -0.577064 0.020098  0.231452 0.311502 1 1 1.000000
chromemisc
0  41.098854 -10.240300 32.345043  0.000021 -0.605931 -0.795517  0.231452 0.378887 1 1 1.000000
0  40.782284 -10.226537 32.661610  -0.816472 -0.577034 0.020104  0.231452 0.311502 1 1 1.000000
0  40.782284 -8.382181 32.606552  -0.999995 0.000088 0.003210  0.595721 0.311502 1 1 1.000000
chromemisc
0  40.782284 -8.382181 32.606552  -0.999995 0.000088 0.003210  0.595721 0.311502 1 1 1.000000
0  41.098854 -8.395945 32.289982  -0.000004 -0.031431 -0.999506  0.595721 0.378887 1 1 1.000000
0  41.098854 -10.240300 32.345043  0.000021 -0.605931 -0.795517  0.231452 0.378887 1 1 1.000000
chromemisc
0  41.415424 -10.226537 32.661610  0.816452 -0.577064 0.020098  0.143559 0.378887 1 1 1.000000
0  41.098854 -10.212773 32.978180  -0.000007 -0.547921 0.836530  0.231452 0.378887 1 1 1.000000
0  40.782284 -10.226537 32.661610  -0.816472 -0.577034 0.020104  0.231452 0.311502 1 1 1.000000
chromemisc
0  40.782284 -10.226537 32.661610  -0.816472 -0.577034 0.020104  0.231452 0.311502 1 1 1.000000
0  41.098854 -10.240300 32.345043  0.000021 -0.605931 -0.795517  0.143559 0.311502 1 1 1.000000
0  41.415424 -10.226537 32.661610  0.816452 -0.577064 0.020098  0.143559 0.378887 1 1 1.000000
chromemisc
0  38.387379 -12.359934 30.624559  0.827390 -0.038991 -0.560272  0.598651 0.382794 1 1 1.000000
0  38.414906 -10.047606 30.528210  0.703119 -0.030383 -0.710423  0.598651 0.304666 1 1 1.000000
0  39.474724 -9.786094 31.216406  0.623897 -0.079322 -0.777470  0.425794 0.304666 1 1 1.000000
chromemisc
0  39.474724 -9.786094 31.216406  0.623897 -0.079322 -0.777470  0.425794 0.304666 1 1 1.000000
0  39.447193 -10.735799 31.298986  0.642398 -0.096699 -0.760246  0.425794 0.382794 1 1 1.000000
0  38.387379 -12.359934 30.624559  0.827390 -0.038991 -0.560272  0.598651 0.382794 1 1 1.000000
chromemisc
0  38.208447 -12.359934 30.941128  0.755151 -0.490008 0.435476  0.598651 0.362285 1 1 1.000000
0  38.387379 -12.359934 30.624559  0.750506 -0.492613 0.440538  0.598651 0.382794 1 1 1.000000
0  39.447193 -10.735799 31.298986  0.569738 -0.754338 0.326150  0.425794 0.382794 1 1 1.000000
chromemisc
0  39.447193 -10.735799 31.298986  0.569738 -0.754338 0.326150  0.425794 0.382794 1 1 1.000000
0  39.309555 -10.735799 31.519209  0.560048 -0.763940 0.320533  0.425794 0.362285 1 1 1.000000
0  38.208447 -12.359934 30.941128  0.755151 -0.490008 0.435476  0.598651 0.362285 1 1 1.000000
chromemisc
0  38.208447 -12.359934 30.941128  0.109424 0.035082 0.993376  0.598651 0.362285 1 1 1.000000
0  39.309555 -10.735799 31.519209  -0.572008 0.081805 0.816158  0.425794 0.362285 1 1 1.000000
0  39.337082 -9.786094 31.436628  -0.567386 0.066718 0.820745  0.425794 0.308573 1 1 1.000000
chromemisc
0  39.337082 -9.786094 31.436628  -0.567386 0.066718 0.820745  0.425794 0.308573 1 1 1.000000
0  38.235973 -10.047606 30.858543  -0.103887 0.037494 0.993882  0.598651 0.308573 1 1 1.000000
0  38.208447 -12.359934 30.941128  0.109424 0.035082 0.993376  0.598651 0.362285 1 1 1.000000
chromemisc
0  38.414906 -10.047606 30.528210  0.277822 0.948336 0.153210  0.598651 0.330058 1 1 1.000000
0  38.235973 -10.047606 30.858543  0.274609 0.944093 0.182426  0.598651 0.308573 1 1 1.000000
0  39.337082 -9.786094 31.436628  -0.235996 0.960827 -0.145317  0.425794 0.308573 1 1 1.000000
chromemisc
0  39.337082 -9.786094 31.436628  -0.235996 0.960827 -0.145317  0.425794 0.308573 1 1 1.000000
0  39.474724 -9.786094 31.216406  -0.230407 0.962606 -0.142487  0.425794 0.330058 1 1 1.000000
0  38.414906 -10.047606 30.528210  0.277822 0.948336 0.153210  0.598651 0.330058 1 1 1.000000
chromemisc
0  41.181438 -8.987791 32.606552  0.675821 -0.130206 -0.725474  0.116214 0.304666 1 1 1.000000
0  41.140148 -9.552108 32.689137  0.682419 -0.143101 -0.716816  0.116214 0.382794 1 1 1.000000
0  39.447193 -10.735799 31.298986  0.642398 -0.096699 -0.760246  0.425794 0.382794 1 1 1.000000
chromemisc
0  39.447193 -10.735799 31.298986  0.642398 -0.096699 -0.760246  0.425794 0.382794 1 1 1.000000
0  39.474724 -9.786094 31.216406  0.623897 -0.079322 -0.777470  0.425794 0.304666 1 1 1.000000
0  41.181438 -8.987791 32.606552  0.675821 -0.130206 -0.725474  0.116214 0.304666 1 1 1.000000
chromemisc
0  39.309555 -10.735799 31.519209  0.560048 -0.763940 0.320533  0.425794 0.362285 1 1 1.000000
0  39.447193 -10.735799 31.298986  0.569738 -0.754338 0.326150  0.425794 0.382794 1 1 1.000000
0  41.140148 -9.552108 32.689137  0.414130 -0.878350 0.238743  0.116214 0.382794 1 1 1.000000
chromemisc
0  41.140148 -9.552108 32.689137  0.414130 -0.878350 0.238743  0.116214 0.382794 1 1 1.000000
0  41.071327 -9.552108 32.813011  0.414004 -0.878365 0.238906  0.116214 0.362285 1 1 1.000000
0  39.309555 -10.735799 31.519209  0.560048 -0.763940 0.320533  0.425794 0.362285 1 1 1.000000
chromemisc
0  39.309555 -10.735799 31.519209  -0.572183 0.081900 0.816026  0.425794 0.362285 1 1 1.000000
0  41.071327 -9.552108 32.813011  -0.639271 0.120681 0.759452  0.116214 0.362285 1 1 1.000000
0  41.098854 -8.987791 32.744190  -0.633027 0.109619 0.766329  0.116214 0.308573 1 1 1.000000
chromemisc
0  41.098854 -8.987791 32.744190  -0.633037 0.109635 0.766319  0.116214 0.308573 1 1 1.000000
0  39.337082 -9.786094 31.436628  -0.567386 0.066718 0.820745  0.425794 0.308573 1 1 1.000000
0  39.309555 -10.735799 31.519209  -0.572008 0.081805 0.816158  0.425794 0.362285 1 1 1.000000
chromemisc
0  39.474724 -9.786094 31.216406  -0.230407 0.962606 -0.142487  0.425794 0.330058 1 1 1.000000
0  39.337082 -9.786094 31.436628  -0.235996 0.960827 -0.145317  0.425794 0.308573 1 1 1.000000
0  41.098854 -8.987791 32.744190  -0.299481 0.937621 -0.176574  0.116214 0.308573 1 1 1.000000
chromemisc
0  41.098854 -8.987791 32.744190  -0.299481 0.937621 -0.176574  0.116214 0.308573 1 1 1.000000
0  41.181438 -8.987791 32.606552  -0.299756 0.937585 -0.176297  0.116214 0.330058 1 1 1.000000
0  39.474724 -9.786094 31.216406  -0.230407 0.962606 -0.142487  0.425794 0.330058 1 1 1.000000
chromemisc
0  39.983982 -7.693989 35.235447  -0.165972 0.978376 0.123426  0.154302 0.731437 1 1 1.000000
0  40.974979 -7.542586 35.441906  -0.165967 0.978398 0.123255  0.153325 0.732414 1 1 1.000000
0  41.952213 -7.349892 35.235447  -0.165957 0.978397 0.123278  0.154302 0.734367 1 1 1.000000
chromemisc
0  39.983982 -7.693989 35.235447  -0.165972 0.978376 0.123426  0.154302 0.731437 1 1 1.000000
0  41.952213 -7.349892 35.235447  -0.165957 0.978397 0.123278  0.154302 0.734367 1 1 1.000000
0  42.791809 -7.143435 34.671131  -0.165960 0.978397 0.123277  0.154302 0.735343 1 1 1.000000
chromemisc
0  42.791809 -7.143435 34.671131  -0.165960 0.978397 0.123277  0.154302 0.735343 1 1 1.000000
0  39.130623 -7.762807 34.671131  -0.165962 0.978397 0.123270  0.154302 0.730461 1 1 1.000000
0  39.983982 -7.693989 35.235447  -0.165972 0.978376 0.123426  0.154302 0.731437 1 1 1.000000
chromemisc
0  39.130623 -7.762807 34.671131  -0.165962 0.978397 0.123270  0.154302 0.730461 1 1 1.000000
0  42.791809 -7.143435 34.671131  -0.165960 0.978397 0.123277  0.154302 0.735343 1 1 1.000000
0  43.328598 -6.936976 33.831535  -0.166105 0.978337 0.123556  0.156255 0.735343 1 1 1.000000
chromemisc
0  43.328598 -6.936976 33.831535  -0.166105 0.978337 0.123556  0.156255 0.735343 1 1 1.000000
0  38.552544 -7.749044 33.831535  -0.166047 0.978413 0.123029  0.155278 0.729484 1 1 1.000000
0  39.130623 -7.762807 34.671131  -0.165962 0.978397 0.123270  0.154302 0.730461 1 1 1.000000
chromemisc
0  38.552544 -7.749044 33.831535  -0.166047 0.978413 0.123029  0.155278 0.729484 1 1 1.000000
0  43.328598 -6.936976 33.831535  -0.166105 0.978337 0.123556  0.156255 0.735343 1 1 1.000000
0  43.507530 -6.785574 32.826775  -0.165963 0.978401 0.123240  0.157231 0.736320 1 1 1.000000
chromemisc
0  43.507530 -6.785574 32.826775  -0.165963 0.978401 0.123240  0.157231 0.736320 1 1 1.000000
0  38.332321 -7.666461 32.826775  -0.165963 0.978400 0.123244  0.157231 0.729484 1 1 1.000000
0  38.552544 -7.749044 33.831535  -0.166047 0.978413 0.123029  0.155278 0.729484 1 1 1.000000
chromemisc
0  38.332321 -7.666461 32.826775  -0.165963 0.978400 0.123244  0.157231 0.729484 1 1 1.000000
0  43.507530 -6.785574 32.826775  -0.165963 0.978401 0.123240  0.157231 0.736320 1 1 1.000000
0  43.287308 -6.702991 31.835777  -0.166453 0.978362 0.122886  0.158208 0.735343 1 1 1.000000
chromemisc
0  43.287308 -6.702991 31.835777  -0.166453 0.978362 0.122886  0.158208 0.735343 1 1 1.000000
0  38.511253 -7.515058 31.835777  -0.166005 0.978331 0.123739  0.158208 0.729484 1 1 1.000000
0  38.332321 -7.666461 32.826775  -0.165963 0.978400 0.123244  0.157231 0.729484 1 1 1.000000
chromemisc
0  38.511253 -7.515058 31.835777  -0.166005 0.978331 0.123739  0.158208 0.729484 1 1 1.000000
0  43.287308 -6.702991 31.835777  -0.166453 0.978362 0.122886  0.158208 0.735343 1 1 1.000000
0  42.709225 -6.689227 30.996183  -0.165960 0.978391 0.123322  0.159185 0.735343 1 1 1.000000
chromemisc
0  42.709225 -6.689227 30.996183  -0.165960 0.978391 0.123322  0.159185 0.735343 1 1 1.000000
0  39.048042 -7.308601 30.996183  -0.165962 0.978389 0.123338  0.159185 0.730461 1 1 1.000000
0  38.511253 -7.515058 31.835777  -0.166005 0.978331 0.123739  0.158208 0.729484 1 1 1.000000
chromemisc
0  41.855865 -6.758046 30.431864  -0.165962 0.978387 0.123348  0.160161 0.733390 1 1 1.000000
0  40.864872 -6.909449 30.225410  -0.165955 0.978401 0.123250  0.160161 0.732414 1 1 1.000000
0  39.873871 -7.102143 30.431864  -0.165968 0.978399 0.123248  0.160161 0.731437 1 1 1.000000
chromemisc
0  40.768520 -8.684986 32.661610  -0.085664 -0.989152 -0.119335  0.358409 0.345683 1 1 1.000000
0  40.796055 -8.657458 32.510204  -0.068874 -0.974351 -0.214234  0.359386 0.344707 1 1 1.000000
0  41.511768 -8.547348 32.510204  0.386280 -0.897159 -0.214228  0.366222 0.343730 1 1 1.000000
chromemisc
0  41.511768 -8.547348 32.510204  0.386280 -0.897159 -0.214228  0.366222 0.343730 1 1 1.000000
0  41.539295 -8.561111 32.661610  0.406985 -0.905605 -0.119341  0.366222 0.345683 1 1 1.000000
0  40.768520 -8.684986 32.661610  -0.085664 -0.989152 -0.119335  0.358409 0.345683 1 1 1.000000
chromemisc
0  41.511768 -8.574875 32.799248  0.390195 -0.920408 -0.024450  0.366222 0.347636 1 1 1.000000
0  40.796055 -8.698750 32.799248  -0.064626 -0.997605 -0.024673  0.359386 0.347636 1 1 1.000000
0  40.768520 -8.684986 32.661610  -0.085664 -0.989152 -0.119335  0.358409 0.345683 1 1 1.000000
chromemisc
0  40.768520 -8.684986 32.661610  -0.085664 -0.989152 -0.119335  0.358409 0.345683 1 1 1.000000
0  41.539295 -8.561111 32.661610  0.406985 -0.905605 -0.119341  0.366222 0.345683 1 1 1.000000
0  41.511768 -8.574875 32.799248  0.390195 -0.920408 -0.024450  0.366222 0.347636 1 1 1.000000
chromemisc
0  40.878635 -8.629930 32.386333  -0.017157 -0.955441 -0.294683  0.359386 0.342753 1 1 1.000000
0  41.429188 -8.547348 32.386333  0.331225 -0.896356 -0.294680  0.365246 0.342753 1 1 1.000000
0  41.511768 -8.547348 32.510204  0.386280 -0.897159 -0.214228  0.366222 0.343730 1 1 1.000000
chromemisc
0  41.511768 -8.547348 32.510204  0.386280 -0.897159 -0.214228  0.366222 0.343730 1 1 1.000000
0  40.796055 -8.657458 32.510204  -0.068874 -0.974351 -0.214234  0.359386 0.344707 1 1 1.000000
0  40.878635 -8.629930 32.386333  -0.017157 -0.955441 -0.294683  0.359386 0.342753 1 1 1.000000
chromemisc
0  41.429188 -8.602403 32.936886  0.338507 -0.939298 0.055967  0.365246 0.348613 1 1 1.000000
0  40.892399 -8.698750 32.936886  -0.009890 -0.998384 0.055966  0.360363 0.348613 1 1 1.000000
0  40.796055 -8.698750 32.799248  -0.064626 -0.997605 -0.024673  0.359386 0.347636 1 1 1.000000
chromemisc
0  40.796055 -8.698750 32.799248  -0.064626 -0.997605 -0.024673  0.359386 0.347636 1 1 1.000000
0  41.511768 -8.574875 32.799248  0.390195 -0.920408 -0.024450  0.366222 0.347636 1 1 1.000000
0  41.429188 -8.602403 32.936886  0.338507 -0.939298 0.055967  0.365246 0.348613 1 1 1.000000
chromemisc
0  41.429188 -8.547348 32.386333  0.331225 -0.896356 -0.294680  0.365246 0.342753 1 1 1.000000
0  40.878635 -8.629930 32.386333  -0.017157 -0.955441 -0.294683  0.359386 0.342753 1 1 1.000000
0  41.002506 -8.602403 32.303745  0.061629 -0.935308 -0.348428  0.361339 0.341777 1 1 1.000000
chromemisc
0  41.429188 -8.547348 32.386333  0.331225 -0.896356 -0.294680  0.365246 0.342753 1 1 1.000000
0  41.002506 -8.602403 32.303745  0.061629 -0.935308 -0.348428  0.361339 0.341777 1 1 1.000000
0  41.153912 -8.574875 32.262455  0.155527 -0.917009 -0.367296  0.362316 0.341777 1 1 1.000000
chromemisc
0  41.429188 -8.547348 32.386333  0.331225 -0.896356 -0.294680  0.365246 0.342753 1 1 1.000000
0  41.153912 -8.574875 32.262455  0.155527 -0.917009 -0.367296  0.362316 0.341777 1 1 1.000000
0  41.291550 -8.547348 32.303745  0.250311 -0.903190 -0.348700  0.364269 0.341777 1 1 1.000000
chromemisc
0  40.892399 -8.698750 32.936886  -0.009890 -0.998384 0.055966  0.360363 0.348613 1 1 1.000000
0  41.429188 -8.602403 32.936886  0.338507 -0.939298 0.055967  0.365246 0.348613 1 1 1.000000
0  41.305313 -8.643694 33.019470  0.259706 -0.959435 0.109712  0.364269 0.349590 1 1 1.000000
chromemisc
0  40.892399 -8.698750 32.936886  -0.009890 -0.998384 0.055966  0.360363 0.348613 1 1 1.000000
0  41.305313 -8.643694 33.019470  0.259706 -0.959435 0.109712  0.364269 0.349590 1 1 1.000000
0  41.167675 -8.671222 33.046997  0.165789 -0.977743 0.128581  0.362316 0.349590 1 1 1.000000
chromemisc
0  40.892399 -8.698750 32.936886  -0.009890 -0.998384 0.055966  0.360363 0.348613 1 1 1.000000
0  41.167675 -8.671222 33.046997  0.165789 -0.977743 0.128581  0.362316 0.349590 1 1 1.000000
0  41.016273 -8.684986 33.019470  0.071156 -0.991410 0.109744  0.361339 0.349590 1 1 1.000000
end
