version 1
nodes
0 "blender_implicit" -1
1 "root" -1
2 "steering_wheel" 1
end
skeleton
time 0
0  0.000000 0.000000 0.000000  0.000000 -0.000000 0.000000
1  0.000000 0.000000 0.000000  1.570796 -0.000000 0.000000
2  17.500738 28.532450 14.135482  0.000000 -0.000000 0.000000
end
triangles
exhaust
0  8.671223 22.682823 0.949705  0.025966 -0.110259 -0.993564  0.092776 0.878903 1 1 1.000000
0  7.501296 22.572710 2.174688  -0.989953 -0.134622 0.043237  0.013672 0.878903 1 1 1.000000
0  3.523541 50.871185 -0.715720  -0.978937 0.201252 -0.034339  0.013672 0.281228 1 1 1.000000
exhaust
0  3.523541 50.871185 -0.715720  -0.978937 0.201252 -0.034339  0.013672 0.281228 1 1 1.000000
0  5.065093 50.871185 -2.257272  -0.140843 0.075548 -0.987145  0.092776 0.281228 1 1 1.000000
0  8.671223 22.682823 0.949705  0.025966 -0.110259 -0.993564  0.092776 0.878903 1 1 1.000000
exhaust
0  8.671223 22.682823 3.427197  -0.000309 0.090504 0.995896  0.092776 0.878903 1 1 1.000000
0  5.065093 50.871185 0.825831  -0.147492 0.111589 0.982748  0.092776 0.281228 1 1 1.000000
0  3.523541 50.871185 -0.715720  -0.978937 0.201252 -0.034339  0.013672 0.281228 1 1 1.000000
exhaust
0  3.523541 50.871185 -0.715720  -0.978937 0.201252 -0.034339  0.013672 0.281228 1 1 1.000000
0  7.501296 22.572710 2.174688  -0.989953 -0.134622 0.043237  0.013672 0.878903 1 1 1.000000
0  8.671223 22.682823 3.427197  -0.000309 0.090504 0.995896  0.092776 0.878903 1 1 1.000000
exhaust
0  9.854914 22.806698 2.188451  0.991521 0.121400 0.046352  0.166997 0.878903 1 1 1.000000
0  6.606644 50.871185 -0.715721  0.961439 -0.272340 -0.038290  0.166997 0.281228 1 1 1.000000
0  5.065093 50.871185 0.825831  -0.147492 0.111589 0.982748  0.092776 0.281228 1 1 1.000000
exhaust
0  5.065093 50.871185 0.825831  -0.147492 0.111589 0.982748  0.092776 0.281228 1 1 1.000000
0  8.671223 22.682823 3.427197  -0.000309 0.090504 0.995896  0.092776 0.878903 1 1 1.000000
0  9.854914 22.806698 2.188451  0.991521 0.121400 0.046352  0.166997 0.878903 1 1 1.000000
exhaust
0  9.854914 22.806698 2.188451  0.991521 0.121400 0.046352  0.166997 0.878903 1 1 1.000000
0  8.671223 22.682823 0.949705  0.025966 -0.110259 -0.993564  0.092776 0.878903 1 1 1.000000
0  5.065093 50.871185 -2.257272  -0.140843 0.075548 -0.987145  0.092776 0.281228 1 1 1.000000
exhaust
0  5.065093 50.871185 -2.257272  -0.140843 0.075548 -0.987145  0.092776 0.281228 1 1 1.000000
0  6.606644 50.871185 -0.715721  0.961439 -0.272340 -0.038290  0.166997 0.281228 1 1 1.000000
0  9.854914 22.806698 2.188451  0.991521 0.121400 0.046352  0.166997 0.878903 1 1 1.000000
exhaust
0  -23.137033 72.714409 1.748011  -0.231088 0.172464 -0.957525  0.094729 0.541002 1 1 1.000000
0  -24.045448 78.949440 4.129157  -0.083909 0.329507 -0.940417  0.094729 0.641591 1 1 1.000000
0  -23.150799 78.949440 5.023807  0.981856 0.075456 0.173970  0.184576 0.641591 1 1 1.000000
exhaust
0  -23.150799 78.949440 5.023807  0.981856 0.075456 0.173970  0.184576 0.641591 1 1 1.000000
0  -22.393787 73.278732 2.711480  0.893477 0.446833 -0.045142  0.184576 0.541002 1 1 1.000000
0  -23.137033 72.714409 1.748011  -0.231088 0.172464 -0.957525  0.094729 0.541002 1 1 1.000000
exhaust
0  -23.137033 72.714409 3.523547  -0.044101 -0.288252 0.956538  0.094729 0.541002 1 1 1.000000
0  -22.393787 73.278732 2.711480  0.893477 0.446833 -0.045142  0.184576 0.541002 1 1 1.000000
0  -23.150799 78.949440 5.023807  0.981856 0.075456 0.173970  0.184576 0.641591 1 1 1.000000
exhaust
0  -23.150799 78.949440 5.023807  0.981856 0.075456 0.173970  0.184576 0.641591 1 1 1.000000
0  -24.045448 78.949440 5.904693  -0.044473 -0.358782 0.932361  0.094729 0.641591 1 1 1.000000
0  -23.137033 72.714409 3.523547  -0.044101 -0.288252 0.956538  0.094729 0.541002 1 1 1.000000
exhaust
0  -23.852757 72.163857 2.587605  -0.888462 -0.457189 -0.040177  0.006836 0.541002 1 1 1.000000
0  -23.137033 72.714409 3.523547  -0.044101 -0.288252 0.956538  0.094729 0.541002 1 1 1.000000
0  -24.045448 78.949440 5.904693  -0.044473 -0.358782 0.932361  0.094729 0.641591 1 1 1.000000
exhaust
0  -24.045448 78.949440 5.904693  -0.044473 -0.358782 0.932361  0.094729 0.641591 1 1 1.000000
0  -24.940100 78.949440 5.023807  -0.970116 -0.202625 0.133485  0.006836 0.641591 1 1 1.000000
0  -23.852757 72.163857 2.587605  -0.888462 -0.457189 -0.040177  0.006836 0.541002 1 1 1.000000
exhaust
0  -23.852757 72.163857 2.587605  -0.888462 -0.457189 -0.040177  0.006836 0.541002 1 1 1.000000
0  -24.940100 78.949440 5.023807  -0.970116 -0.202625 0.133485  0.006836 0.641591 1 1 1.000000
0  -24.045448 78.949440 4.129157  -0.083909 0.329507 -0.940417  0.094729 0.641591 1 1 1.000000
exhaust
0  -24.045448 78.949440 4.129157  -0.083909 0.329507 -0.940417  0.094729 0.641591 1 1 1.000000
0  -23.137033 72.714409 1.748011  -0.231088 0.172464 -0.957525  0.094729 0.541002 1 1 1.000000
0  -23.852757 72.163857 2.587605  -0.888462 -0.457189 -0.040177  0.006836 0.541002 1 1 1.000000
exhaust
0  3.922693 53.059635 -1.940703  0.021706 0.225426 -0.974019  0.094729 0.316385 1 1 1.000000
0  5.106384 53.610188 -0.564318  0.716976 0.697082 0.004631  0.184576 0.316385 1 1 1.000000
0  6.606644 50.871185 -0.715721  0.870433 0.491844 -0.020896  0.184576 0.281228 1 1 1.000000
exhaust
0  6.606644 50.871185 -0.715721  0.870433 0.491844 -0.020896  0.184576 0.281228 1 1 1.000000
0  5.065093 50.871185 -2.257272  0.183466 0.232089 -0.955236  0.094729 0.281228 1 1 1.000000
0  3.922693 53.059635 -1.940703  0.021706 0.225426 -0.974019  0.094729 0.316385 1 1 1.000000
exhaust
0  5.106384 53.610188 -0.564318  0.716976 0.697082 0.004631  0.184576 0.316385 1 1 1.000000
0  3.922693 53.059635 0.812067  0.076619 0.134249 0.987981  0.094729 0.316385 1 1 1.000000
0  5.065093 50.871185 0.825831  0.200358 0.095171 0.975089  0.094729 0.281228 1 1 1.000000
exhaust
0  5.065093 50.871185 0.825831  0.200358 0.095171 0.975089  0.094729 0.281228 1 1 1.000000
0  6.606644 50.871185 -0.715721  0.870433 0.491844 -0.020896  0.184576 0.281228 1 1 1.000000
0  5.106384 53.610188 -0.564318  0.716976 0.697082 0.004631  0.184576 0.316385 1 1 1.000000
exhaust
0  3.922693 53.059635 0.812067  0.076619 0.134249 0.987981  0.094729 0.316385 1 1 1.000000
0  2.752766 52.522846 -0.564318  -0.685078 -0.728465 -0.002783  0.006836 0.316385 1 1 1.000000
0  3.523541 50.871185 -0.715720  -0.911035 -0.410549 -0.038257  0.006836 0.281228 1 1 1.000000
exhaust
0  3.523541 50.871185 -0.715720  -0.911035 -0.410549 -0.038257  0.006836 0.281228 1 1 1.000000
0  5.065093 50.871185 0.825831  0.200358 0.095171 0.975089  0.094729 0.281228 1 1 1.000000
0  3.922693 53.059635 0.812067  0.076619 0.134249 0.987981  0.094729 0.316385 1 1 1.000000
exhaust
0  2.752766 52.522846 -0.564318  -0.685078 -0.728465 -0.002783  0.006836 0.316385 1 1 1.000000
0  3.922693 53.059635 -1.940703  0.021706 0.225426 -0.974019  0.094729 0.316385 1 1 1.000000
0  5.065093 50.871185 -2.257272  0.183466 0.232089 -0.955236  0.094729 0.281228 1 1 1.000000
exhaust
0  5.065093 50.871185 -2.257272  0.183466 0.232089 -0.955236  0.094729 0.281228 1 1 1.000000
0  3.523541 50.871185 -0.715720  -0.911035 -0.410549 -0.038257  0.006836 0.281228 1 1 1.000000
0  2.752766 52.522846 -0.564318  -0.685078 -0.728465 -0.002783  0.006836 0.316385 1 1 1.000000
exhaust
0  -10.171489 61.042664 0.275278  0.557083 0.830380 -0.011275  0.184576 0.423811 1 1 1.000000
0  5.106384 53.610188 -0.564318  0.716976 0.697082 0.004631  0.184576 0.316385 1 1 1.000000
0  3.922693 53.059635 -1.940703  0.021706 0.225426 -0.974019  0.094729 0.316385 1 1 1.000000
exhaust
0  3.922693 53.059635 -1.940703  0.021706 0.225426 -0.974019  0.094729 0.316385 1 1 1.000000
0  -10.804626 60.478355 -0.605609  -0.106893 -0.002054 -0.994268  0.094729 0.423811 1 1 1.000000
0  -10.171489 61.042664 0.275278  0.557083 0.830380 -0.011275  0.184576 0.423811 1 1 1.000000
exhaust
0  3.922693 53.059635 0.812067  0.076619 0.134249 0.987981  0.094729 0.316385 1 1 1.000000
0  5.106384 53.610188 -0.564318  0.716976 0.697082 0.004631  0.184576 0.316385 1 1 1.000000
0  -10.171489 61.042664 0.275278  0.557083 0.830380 -0.011275  0.184576 0.423811 1 1 1.000000
exhaust
0  -10.171489 61.042664 0.275278  0.557083 0.830380 -0.011275  0.184576 0.423811 1 1 1.000000
0  -10.804626 60.478355 1.169928  0.030997 -0.132029 0.990761  0.094729 0.423811 1 1 1.000000
0  3.922693 53.059635 0.812067  0.076619 0.134249 0.987981  0.094729 0.316385 1 1 1.000000
exhaust
0  2.752766 52.522846 -0.564318  -0.685078 -0.728465 -0.002783  0.006836 0.316385 1 1 1.000000
0  3.922693 53.059635 0.812067  0.076619 0.134249 0.987981  0.094729 0.316385 1 1 1.000000
0  -10.804626 60.478355 1.169928  0.030997 -0.132029 0.990761  0.094729 0.423811 1 1 1.000000
exhaust
0  -10.804626 60.478355 1.169928  0.030997 -0.132029 0.990761  0.094729 0.423811 1 1 1.000000
0  -11.451527 59.914032 0.275278  -0.603054 -0.797288 -0.025626  0.006836 0.423811 1 1 1.000000
0  2.752766 52.522846 -0.564318  -0.685078 -0.728465 -0.002783  0.006836 0.316385 1 1 1.000000
exhaust
0  -10.804626 60.478355 -0.605609  -0.106893 -0.002054 -0.994268  0.094729 0.423811 1 1 1.000000
0  3.922693 53.059635 -1.940703  0.021706 0.225426 -0.974019  0.094729 0.316385 1 1 1.000000
0  2.752766 52.522846 -0.564318  -0.685078 -0.728465 -0.002783  0.006836 0.316385 1 1 1.000000
exhaust
0  2.752766 52.522846 -0.564318  -0.685078 -0.728465 -0.002783  0.006836 0.316385 1 1 1.000000
0  -11.451527 59.914032 0.275278  -0.603054 -0.797288 -0.025626  0.006836 0.423811 1 1 1.000000
0  -10.804626 60.478355 -0.605609  -0.106893 -0.002054 -0.994268  0.094729 0.423811 1 1 1.000000
exhaust
0  -23.137033 72.714409 1.748011  -0.231088 0.172464 -0.957525  0.094729 0.541002 1 1 1.000000
0  -22.393787 73.278732 2.711480  0.893477 0.446833 -0.045142  0.184576 0.541002 1 1 1.000000
0  -10.171489 61.042664 0.275278  0.557083 0.830380 -0.011275  0.184576 0.423811 1 1 1.000000
exhaust
0  -10.171489 61.042664 0.275278  0.557083 0.830380 -0.011275  0.184576 0.423811 1 1 1.000000
0  -10.804626 60.478355 -0.605609  -0.106893 -0.002054 -0.994268  0.094729 0.423811 1 1 1.000000
0  -23.137033 72.714409 1.748011  -0.231088 0.172464 -0.957525  0.094729 0.541002 1 1 1.000000
exhaust
0  -22.393787 73.278732 2.711480  0.893477 0.446833 -0.045142  0.184576 0.541002 1 1 1.000000
0  -23.137033 72.714409 3.523547  -0.044101 -0.288252 0.956538  0.094729 0.541002 1 1 1.000000
0  -10.804626 60.478355 1.169928  0.030997 -0.132029 0.990761  0.094729 0.423811 1 1 1.000000
exhaust
0  -10.804626 60.478355 1.169928  0.030997 -0.132029 0.990761  0.094729 0.423811 1 1 1.000000
0  -10.171489 61.042664 0.275278  0.557083 0.830380 -0.011275  0.184576 0.423811 1 1 1.000000
0  -22.393787 73.278732 2.711480  0.893477 0.446833 -0.045142  0.184576 0.541002 1 1 1.000000
exhaust
0  -10.804626 60.478355 1.169928  0.030997 -0.132029 0.990761  0.094729 0.423811 1 1 1.000000
0  -23.137033 72.714409 3.523547  -0.044101 -0.288252 0.956538  0.094729 0.541002 1 1 1.000000
0  -23.852757 72.163857 2.587605  -0.888462 -0.457189 -0.040177  0.006836 0.541002 1 1 1.000000
exhaust
0  -23.852757 72.163857 2.587605  -0.888462 -0.457189 -0.040177  0.006836 0.541002 1 1 1.000000
0  -11.451527 59.914032 0.275278  -0.603054 -0.797288 -0.025626  0.006836 0.423811 1 1 1.000000
0  -10.804626 60.478355 1.169928  0.030997 -0.132029 0.990761  0.094729 0.423811 1 1 1.000000
exhaust
0  -11.451527 59.914032 0.275278  -0.603054 -0.797288 -0.025626  0.006836 0.423811 1 1 1.000000
0  -23.852757 72.163857 2.587605  -0.888462 -0.457189 -0.040177  0.006836 0.541002 1 1 1.000000
0  -23.137033 72.714409 1.748011  -0.231088 0.172464 -0.957525  0.094729 0.541002 1 1 1.000000
exhaust
0  -23.137033 72.714409 1.748011  -0.231088 0.172464 -0.957525  0.094729 0.541002 1 1 1.000000
0  -10.804626 60.478355 -0.605609  -0.106893 -0.002054 -0.994268  0.094729 0.423811 1 1 1.000000
0  -11.451527 59.914032 0.275278  -0.603054 -0.797288 -0.025626  0.006836 0.423811 1 1 1.000000
exhaust
0  23.398539 74.366074 1.748007  0.103025 0.270254 -0.957261  0.094729 0.541002 1 1 1.000000
0  22.435068 74.366074 2.711476  -0.929348 0.365797 0.050060  0.006836 0.541002 1 1 1.000000
0  23.123259 78.949440 5.023803  -0.974382 0.018081 0.224170  0.006836 0.641591 1 1 1.000000
exhaust
0  23.123259 78.949440 5.023803  -0.974382 0.018081 0.224170  0.006836 0.641591 1 1 1.000000
0  24.017908 78.949440 4.129153  0.064466 0.459368 -0.885904  0.094729 0.641591 1 1 1.000000
0  23.398539 74.366074 1.748007  0.103025 0.270254 -0.957261  0.094729 0.541002 1 1 1.000000
exhaust
0  23.398539 74.366074 3.523544  0.072028 -0.405784 0.911126  0.094729 0.541002 1 1 1.000000
0  24.017908 78.949440 5.904689  0.036753 -0.465608 0.884228  0.094729 0.641591 1 1 1.000000
0  23.123259 78.949440 5.023803  -0.974382 0.018081 0.224170  0.006836 0.641591 1 1 1.000000
exhaust
0  23.123259 78.949440 5.023803  -0.974382 0.018081 0.224170  0.006836 0.641591 1 1 1.000000
0  22.435068 74.366074 2.711476  -0.929348 0.365797 0.050060  0.006836 0.541002 1 1 1.000000
0  23.398539 74.366074 3.523544  0.072028 -0.405784 0.911126  0.094729 0.541002 1 1 1.000000
exhaust
0  24.320715 74.366074 2.587602  0.963954 -0.235888 -0.123083  0.184576 0.541002 1 1 1.000000
0  24.912561 78.949440 5.023803  0.956576 -0.221605 0.189352  0.184576 0.641591 1 1 1.000000
0  24.017908 78.949440 5.904689  0.036753 -0.465608 0.884228  0.094729 0.641591 1 1 1.000000
exhaust
0  24.017908 78.949440 5.904689  0.036753 -0.465608 0.884228  0.094729 0.641591 1 1 1.000000
0  23.398539 74.366074 3.523544  0.072028 -0.405784 0.911126  0.094729 0.541002 1 1 1.000000
0  24.320715 74.366074 2.587602  0.963954 -0.235888 -0.123083  0.184576 0.541002 1 1 1.000000
exhaust
0  24.320715 74.366074 2.587602  0.963954 -0.235888 -0.123083  0.184576 0.541002 1 1 1.000000
0  23.398539 74.366074 1.748007  0.103025 0.270254 -0.957261  0.094729 0.541002 1 1 1.000000
0  24.017908 78.949440 4.129153  0.064466 0.459368 -0.885904  0.094729 0.641591 1 1 1.000000
exhaust
0  24.017908 78.949440 4.129153  0.064466 0.459368 -0.885904  0.094729 0.641591 1 1 1.000000
0  24.912561 78.949440 5.023803  0.956576 -0.221605 0.189352  0.184576 0.641591 1 1 1.000000
0  24.320715 74.366074 2.587602  0.963954 -0.235888 -0.123083  0.184576 0.541002 1 1 1.000000
exhaust
0  6.537824 53.059635 -1.940703  0.015132 0.117593 -0.992947  0.094729 0.316385 1 1 1.000000
0  5.065093 50.871185 -2.257272  -0.141238 0.076453 -0.987019  0.094729 0.281228 1 1 1.000000
0  3.523541 50.871185 -0.715720  -0.978852 0.201668 -0.034325  0.006836 0.281228 1 1 1.000000
exhaust
0  3.523541 50.871185 -0.715720  -0.978852 0.201668 -0.034325  0.006836 0.281228 1 1 1.000000
0  5.367897 53.610188 -0.564318  -0.767357 0.641219 -0.001465  0.006836 0.316385 1 1 1.000000
0  6.537824 53.059635 -1.940703  0.015132 0.117593 -0.992947  0.094729 0.316385 1 1 1.000000
exhaust
0  5.367897 53.610188 -0.564318  -0.767357 0.641219 -0.001465  0.006836 0.316385 1 1 1.000000
0  3.523541 50.871185 -0.715720  -0.978852 0.201668 -0.034325  0.006836 0.281228 1 1 1.000000
0  5.065093 50.871185 0.825831  -0.147500 0.111604 0.982745  0.094729 0.281228 1 1 1.000000
exhaust
0  5.065093 50.871185 0.825831  -0.147500 0.111604 0.982745  0.094729 0.281228 1 1 1.000000
0  6.537824 53.059635 0.812067  -0.032372 0.015752 0.999352  0.094729 0.316385 1 1 1.000000
0  5.367897 53.610188 -0.564318  -0.767357 0.641219 -0.001465  0.006836 0.316385 1 1 1.000000
exhaust
0  6.537824 53.059635 0.812067  -0.032372 0.015752 0.999352  0.094729 0.316385 1 1 1.000000
0  5.065093 50.871185 0.825831  -0.147500 0.111604 0.982745  0.094729 0.281228 1 1 1.000000
0  6.606644 50.871185 -0.715721  0.961191 -0.273218 -0.038257  0.184576 0.281228 1 1 1.000000
exhaust
0  6.606644 50.871185 -0.715721  0.961191 -0.273218 -0.038257  0.184576 0.281228 1 1 1.000000
0  7.721516 52.522846 -0.564318  0.779622 -0.626249 0.001535  0.184576 0.316385 1 1 1.000000
0  6.537824 53.059635 0.812067  -0.032372 0.015752 0.999352  0.094729 0.316385 1 1 1.000000
exhaust
0  7.721516 52.522846 -0.564318  0.779622 -0.626249 0.001535  0.184576 0.316385 1 1 1.000000
0  6.606644 50.871185 -0.715721  0.961191 -0.273218 -0.038257  0.184576 0.281228 1 1 1.000000
0  5.065093 50.871185 -2.257272  -0.141238 0.076453 -0.987019  0.094729 0.281228 1 1 1.000000
exhaust
0  5.065093 50.871185 -2.257272  -0.141238 0.076453 -0.987019  0.094729 0.281228 1 1 1.000000
0  6.537824 53.059635 -1.940703  0.015132 0.117593 -0.992947  0.094729 0.316385 1 1 1.000000
0  7.721516 52.522846 -0.564318  0.779622 -0.626249 0.001535  0.184576 0.316385 1 1 1.000000
exhaust
0  16.943293 64.690094 0.275276  -0.770714 0.637033 -0.013745  0.006836 0.423811 1 1 1.000000
0  17.769123 64.469864 -0.605611  0.100442 0.068722 -0.992567  0.094729 0.423811 1 1 1.000000
0  6.537824 53.059635 -1.940703  0.015132 0.117593 -0.992947  0.094729 0.316385 1 1 1.000000
exhaust
0  6.537824 53.059635 -1.940703  0.015132 0.117593 -0.992947  0.094729 0.316385 1 1 1.000000
0  5.367897 53.610188 -0.564318  -0.767357 0.641219 -0.001465  0.006836 0.316385 1 1 1.000000
0  16.943293 64.690094 0.275276  -0.770714 0.637033 -0.013745  0.006836 0.423811 1 1 1.000000
exhaust
0  6.537824 53.059635 0.812067  -0.032372 0.015752 0.999352  0.094729 0.316385 1 1 1.000000
0  17.769123 64.469864 1.169926  -0.008490 -0.169512 0.985492  0.094729 0.423811 1 1 1.000000
0  16.943293 64.690094 0.275276  -0.770714 0.637033 -0.013745  0.006836 0.423811 1 1 1.000000
exhaust
0  16.943293 64.690094 0.275276  -0.770714 0.637033 -0.013745  0.006836 0.423811 1 1 1.000000
0  5.367897 53.610188 -0.564318  -0.767357 0.641219 -0.001465  0.006836 0.316385 1 1 1.000000
0  6.537824 53.059635 0.812067  -0.032372 0.015752 0.999352  0.094729 0.316385 1 1 1.000000
exhaust
0  7.721516 52.522846 -0.564318  0.779622 -0.626249 0.001535  0.184576 0.316385 1 1 1.000000
0  18.594954 64.249649 0.275276  0.823275 -0.565268 -0.051865  0.184576 0.423811 1 1 1.000000
0  17.769123 64.469864 1.169926  -0.008490 -0.169512 0.985492  0.094729 0.423811 1 1 1.000000
exhaust
0  17.769123 64.469864 1.169926  -0.008490 -0.169512 0.985492  0.094729 0.423811 1 1 1.000000
0  6.537824 53.059635 0.812067  -0.032372 0.015752 0.999352  0.094729 0.316385 1 1 1.000000
0  7.721516 52.522846 -0.564318  0.779622 -0.626249 0.001535  0.184576 0.316385 1 1 1.000000
exhaust
0  17.769123 64.469864 -0.605611  0.100442 0.068722 -0.992567  0.094729 0.423811 1 1 1.000000
0  18.594954 64.249649 0.275276  0.823275 -0.565268 -0.051865  0.184576 0.423811 1 1 1.000000
0  7.721516 52.522846 -0.564318  0.779622 -0.626249 0.001535  0.184576 0.316385 1 1 1.000000
exhaust
0  7.721516 52.522846 -0.564318  0.779622 -0.626249 0.001535  0.184576 0.316385 1 1 1.000000
0  6.537824 53.059635 -1.940703  0.015132 0.117593 -0.992947  0.094729 0.316385 1 1 1.000000
0  17.769123 64.469864 -0.605611  0.100442 0.068722 -0.992567  0.094729 0.423811 1 1 1.000000
exhaust
0  23.398539 74.366074 1.748007  0.103025 0.270254 -0.957261  0.094729 0.541002 1 1 1.000000
0  17.769123 64.469864 -0.605611  0.100442 0.068722 -0.992567  0.094729 0.423811 1 1 1.000000
0  16.943293 64.690094 0.275276  -0.770714 0.637033 -0.013745  0.006836 0.423811 1 1 1.000000
exhaust
0  16.943293 64.690094 0.275276  -0.770714 0.637033 -0.013745  0.006836 0.423811 1 1 1.000000
0  22.435068 74.366074 2.711476  -0.929348 0.365797 0.050060  0.006836 0.541002 1 1 1.000000
0  23.398539 74.366074 1.748007  0.103025 0.270254 -0.957261  0.094729 0.541002 1 1 1.000000
exhaust
0  22.435068 74.366074 2.711476  -0.929348 0.365797 0.050060  0.006836 0.541002 1 1 1.000000
0  16.943293 64.690094 0.275276  -0.770714 0.637033 -0.013745  0.006836 0.423811 1 1 1.000000
0  17.769123 64.469864 1.169926  -0.008490 -0.169512 0.985492  0.094729 0.423811 1 1 1.000000
exhaust
0  17.769123 64.469864 1.169926  -0.008490 -0.169512 0.985492  0.094729 0.423811 1 1 1.000000
0  23.398539 74.366074 3.523544  0.072028 -0.405784 0.911126  0.094729 0.541002 1 1 1.000000
0  22.435068 74.366074 2.711476  -0.929348 0.365797 0.050060  0.006836 0.541002 1 1 1.000000
exhaust
0  17.769123 64.469864 1.169926  -0.008490 -0.169512 0.985492  0.094729 0.423811 1 1 1.000000
0  18.594954 64.249649 0.275276  0.823275 -0.565268 -0.051865  0.184576 0.423811 1 1 1.000000
0  24.320715 74.366074 2.587602  0.963954 -0.235888 -0.123083  0.184576 0.541002 1 1 1.000000
exhaust
0  24.320715 74.366074 2.587602  0.963954 -0.235888 -0.123083  0.184576 0.541002 1 1 1.000000
0  23.398539 74.366074 3.523544  0.072028 -0.405784 0.911126  0.094729 0.541002 1 1 1.000000
0  17.769123 64.469864 1.169926  -0.008490 -0.169512 0.985492  0.094729 0.423811 1 1 1.000000
exhaust
0  18.594954 64.249649 0.275276  0.823275 -0.565268 -0.051865  0.184576 0.423811 1 1 1.000000
0  17.769123 64.469864 -0.605611  0.100442 0.068722 -0.992567  0.094729 0.423811 1 1 1.000000
0  23.398539 74.366074 1.748007  0.103025 0.270254 -0.957261  0.094729 0.541002 1 1 1.000000
exhaust
0  23.398539 74.366074 1.748007  0.103025 0.270254 -0.957261  0.094729 0.541002 1 1 1.000000
0  24.320715 74.366074 2.587602  0.963954 -0.235888 -0.123083  0.184576 0.541002 1 1 1.000000
0  18.594954 64.249649 0.275276  0.823275 -0.565268 -0.051865  0.184576 0.423811 1 1 1.000000
exhaust
0  24.582228 90.153206 6.785575  0.069834 0.996945 -0.034972  0.575213 0.596667 1 1 1.000000
0  24.582228 89.988045 1.748007  0.069668 0.996965 -0.034751  0.575213 0.199194 1 1 1.000000
0  22.324959 90.139442 1.748007  0.069738 0.996957 -0.034832  0.409192 0.199194 1 1 1.000000
exhaust
0  22.324959 90.139442 1.748007  0.069738 0.996957 -0.034832  0.409192 0.199194 1 1 1.000000
0  20.962336 90.249550 2.105867  0.069741 0.996958 -0.034788  0.299814 0.225562 1 1 1.000000
0  19.998865 90.345894 3.083101  0.069881 0.996949 -0.034766  0.221686 0.302713 1 1 1.000000
exhaust
0  19.998865 90.345894 3.083101  0.069881 0.996949 -0.034766  0.221686 0.302713 1 1 1.000000
0  19.627243 90.428490 4.445722  0.069754 0.996956 -0.034818  0.192389 0.411115 1 1 1.000000
0  19.998865 90.442253 5.808343  0.069763 0.996955 -0.034835  0.221686 0.519517 1 1 1.000000
exhaust
0  22.324959 90.139442 1.748007  0.069738 0.996957 -0.034832  0.409192 0.199194 1 1 1.000000
0  19.998865 90.345894 3.083101  0.069881 0.996949 -0.034766  0.221686 0.302713 1 1 1.000000
0  19.998865 90.442253 5.808343  0.069763 0.996955 -0.034835  0.221686 0.519517 1 1 1.000000
exhaust
0  24.582228 90.153206 6.785575  0.069834 0.996945 -0.034972  0.575213 0.596667 1 1 1.000000
0  22.324959 90.139442 1.748007  0.069738 0.996957 -0.034832  0.409192 0.199194 1 1 1.000000
0  19.998865 90.442253 5.808343  0.069763 0.996955 -0.034835  0.221686 0.519517 1 1 1.000000
exhaust
0  24.582228 90.153206 6.785575  0.069834 0.996945 -0.034972  0.575213 0.596667 1 1 1.000000
0  19.998865 90.442253 5.808343  0.069763 0.996955 -0.034835  0.221686 0.519517 1 1 1.000000
0  20.962336 90.414726 6.785576  0.069741 0.996957 -0.034825  0.299814 0.596667 1 1 1.000000
exhaust
0  20.164032 78.853088 2.505019  -0.500122 0.004737 -0.865942  0.033204 0.241188 1 1 1.000000
0  19.200563 78.949440 3.482252  -0.863380 0.042860 -0.502730  0.017579 0.241188 1 1 1.000000
0  19.998865 90.345894 3.083101  -0.863298 0.042870 -0.502870  0.017579 0.979492 1 1 1.000000
exhaust
0  19.998865 90.345894 3.083101  -0.863298 0.042870 -0.502870  0.017579 0.979492 1 1 1.000000
0  20.962336 90.249550 2.105867  -0.500485 0.004737 -0.865732  0.033204 0.979492 1 1 1.000000
0  20.164032 78.853088 2.505019  -0.500122 0.004737 -0.865942  0.033204 0.241188 1 1 1.000000
exhaust
0  19.200563 78.949440 3.482252  -0.863380 0.042860 -0.502730  0.017579 0.241188 1 1 1.000000
0  18.828939 79.018257 4.844873  -0.997564 0.069710 -0.002390  0.001953 0.241188 1 1 1.000000
0  19.627243 90.428490 4.445722  -0.997559 0.069794 -0.002185  0.001953 0.979492 1 1 1.000000
exhaust
0  19.627243 90.428490 4.445722  -0.997559 0.069794 -0.002185  0.001953 0.979492 1 1 1.000000
0  19.998865 90.345894 3.083101  -0.863298 0.042870 -0.502870  0.017579 0.979492 1 1 1.000000
0  19.200563 78.949440 3.482252  -0.863380 0.042860 -0.502730  0.017579 0.241188 1 1 1.000000
exhaust
0  28.725145 78.330063 4.858636  0.997603 -0.069147 0.002552  0.183599 0.241188 1 1 1.000000
0  28.367287 78.316299 3.496016  0.863181 -0.077719 -0.498877  0.166997 0.241188 1 1 1.000000
0  29.151825 89.712761 3.096864  0.863056 -0.077754 -0.499088  0.166997 0.979492 1 1 1.000000
exhaust
0  29.151825 89.712761 3.096864  0.863056 -0.077754 -0.499088  0.166997 0.979492 1 1 1.000000
0  29.523449 89.726524 4.459485  0.997563 -0.069747 0.001989  0.183599 0.979492 1 1 1.000000
0  28.725145 78.330063 4.858636  0.997603 -0.069147 0.002552  0.183599 0.241188 1 1 1.000000
exhaust
0  28.367287 78.316299 3.496016  0.863181 -0.077719 -0.498877  0.166997 0.241188 1 1 1.000000
0  27.390053 78.343826 2.532546  0.499111 -0.064673 -0.864121  0.151372 0.241188 1 1 1.000000
0  28.188356 89.740295 2.133394  0.499767 -0.065072 -0.863712  0.151372 0.979492 1 1 1.000000
exhaust
0  28.188356 89.740295 2.133394  0.499767 -0.065072 -0.863712  0.151372 0.979492 1 1 1.000000
0  29.151825 89.712761 3.096864  0.863056 -0.077754 -0.499088  0.166997 0.979492 1 1 1.000000
0  28.367287 78.316299 3.496016  0.863181 -0.077719 -0.498877  0.166997 0.241188 1 1 1.000000
exhaust
0  27.390053 78.343826 2.532546  0.499111 -0.064673 -0.864121  0.151372 0.241188 1 1 1.000000
0  26.027433 78.426407 2.147158  0.131497 -0.043805 -0.990348  0.128910 0.241188 1 1 1.000000
0  26.825733 89.822876 1.761771  0.131882 -0.043807 -0.990297  0.128910 0.979492 1 1 1.000000
exhaust
0  26.825733 89.822876 1.761771  0.131882 -0.043807 -0.990297  0.128910 0.979492 1 1 1.000000
0  28.188356 89.740295 2.133394  0.499767 -0.065072 -0.863712  0.151372 0.979492 1 1 1.000000
0  27.390053 78.343826 2.532546  0.499111 -0.064673 -0.864121  0.151372 0.241188 1 1 1.000000
exhaust
0  26.825733 89.822876 1.761771  0.131882 -0.043807 -0.990297  0.128910 0.979492 1 1 1.000000
0  26.027433 78.426407 2.147158  0.131497 -0.043805 -0.990348  0.128910 0.241188 1 1 1.000000
0  23.783924 78.577812 2.147158  -0.000347 -0.034811 -0.999394  0.092776 0.241188 1 1 1.000000
exhaust
0  23.783924 78.577812 2.147158  -0.000347 -0.034811 -0.999394  0.092776 0.241188 1 1 1.000000
0  24.582228 89.988045 1.748007  0.000587 -0.035020 -0.999386  0.092776 0.979492 1 1 1.000000
0  26.825733 89.822876 1.761771  0.131882 -0.043807 -0.990297  0.128910 0.979492 1 1 1.000000
exhaust
0  21.526653 78.742981 2.147159  -0.131447 -0.025402 -0.990998  0.055666 0.241188 1 1 1.000000
0  20.164032 78.853088 2.505019  -0.500122 0.004737 -0.865942  0.033204 0.241188 1 1 1.000000
0  20.962336 90.249550 2.105867  -0.500485 0.004737 -0.865732  0.033204 0.979492 1 1 1.000000
exhaust
0  20.962336 90.249550 2.105867  -0.500485 0.004737 -0.865732  0.033204 0.979492 1 1 1.000000
0  22.324959 90.139442 1.748007  -0.131309 -0.025422 -0.991015  0.055666 0.979492 1 1 1.000000
0  21.526653 78.742981 2.147159  -0.131447 -0.025402 -0.990998  0.055666 0.241188 1 1 1.000000
exhaust
0  23.783924 78.577812 2.147158  -0.069760 -0.996944 0.035149  0.588885 0.211890 1 1 1.000000
0  23.783924 78.756744 7.184727  -0.070293 -0.996906 0.035181  0.588885 0.570299 1 1 1.000000
0  20.164032 79.018257 7.184727  -0.069594 -0.996956 0.035146  0.877957 0.570299 1 1 1.000000
exhaust
0  20.164032 79.018257 7.184727  -0.069594 -0.996956 0.035146  0.877957 0.570299 1 1 1.000000
0  19.200563 79.045784 6.207494  -0.069761 -0.996955 0.034833  0.955107 0.500961 1 1 1.000000
0  18.828939 79.018257 4.844873  -0.069741 -0.996957 0.034824  0.984405 0.404279 1 1 1.000000
exhaust
0  18.828939 79.018257 4.844873  -0.069741 -0.996957 0.034824  0.984405 0.404279 1 1 1.000000
0  19.200563 78.949440 3.482252  -0.069740 -0.996959 0.034786  0.955107 0.306619 1 1 1.000000
0  20.164032 78.853088 2.505019  -0.069743 -0.996968 0.034496  0.877957 0.238258 1 1 1.000000
exhaust
0  20.164032 79.018257 7.184727  -0.069594 -0.996956 0.035146  0.877957 0.570299 1 1 1.000000
0  18.828939 79.018257 4.844873  -0.069741 -0.996957 0.034824  0.984405 0.404279 1 1 1.000000
0  20.164032 78.853088 2.505019  -0.069743 -0.996968 0.034496  0.877957 0.238258 1 1 1.000000
exhaust
0  23.783924 78.577812 2.147158  -0.069760 -0.996944 0.035149  0.588885 0.211890 1 1 1.000000
0  20.164032 79.018257 7.184727  -0.069594 -0.996956 0.035146  0.877957 0.570299 1 1 1.000000
0  20.164032 78.853088 2.505019  -0.069743 -0.996968 0.034496  0.877957 0.238258 1 1 1.000000
exhaust
0  23.783924 78.577812 2.147158  -0.069760 -0.996944 0.035149  0.588885 0.211890 1 1 1.000000
0  20.164032 78.853088 2.505019  -0.069743 -0.996968 0.034496  0.877957 0.238258 1 1 1.000000
0  21.526653 78.742981 2.147159  -0.069770 -0.996955 0.034822  0.768578 0.211890 1 1 1.000000
exhaust
0  20.164032 79.018257 7.184727  -0.382072 0.058970 0.922249  0.044923 0.241188 1 1 1.000000
0  20.962336 90.414726 6.785576  -0.381887 0.058949 0.922327  0.044923 0.979492 1 1 1.000000
0  19.998865 90.442253 5.808343  -0.863680 0.077900 0.497985  0.017579 0.979492 1 1 1.000000
exhaust
0  19.998865 90.442253 5.808343  -0.863680 0.077900 0.497985  0.017579 0.979492 1 1 1.000000
0  19.200563 79.045784 6.207494  -0.863414 0.077832 0.498455  0.017579 0.241188 1 1 1.000000
0  20.164032 79.018257 7.184727  -0.382072 0.058970 0.922249  0.044923 0.241188 1 1 1.000000
exhaust
0  19.200563 79.045784 6.207494  -0.863414 0.077832 0.498455  0.017579 0.241188 1 1 1.000000
0  19.998865 90.442253 5.808343  -0.863680 0.077900 0.497985  0.017579 0.979492 1 1 1.000000
0  19.627243 90.428490 4.445722  -0.997559 0.069794 -0.002185  0.001953 0.979492 1 1 1.000000
exhaust
0  19.627243 90.428490 4.445722  -0.997559 0.069794 -0.002185  0.001953 0.979492 1 1 1.000000
0  18.828939 79.018257 4.844873  -0.997564 0.069710 -0.002390  0.001953 0.241188 1 1 1.000000
0  19.200563 79.045784 6.207494  -0.863414 0.077832 0.498455  0.017579 0.241188 1 1 1.000000
exhaust
0  28.725145 78.330063 4.858636  0.997603 -0.069147 0.002552  0.183599 0.241188 1 1 1.000000
0  29.523449 89.726524 4.459485  0.997563 -0.069747 0.001989  0.183599 0.979492 1 1 1.000000
0  29.151825 89.809113 5.835869  0.863285 -0.042807 0.502898  0.166997 0.979492 1 1 1.000000
exhaust
0  29.151825 89.809113 5.835869  0.863285 -0.042807 0.502898  0.166997 0.979492 1 1 1.000000
0  28.367287 78.398880 6.221257  0.863270 -0.042844 0.502920  0.166997 0.241188 1 1 1.000000
0  28.725145 78.330063 4.858636  0.997603 -0.069147 0.002552  0.183599 0.241188 1 1 1.000000
exhaust
0  28.367287 78.398880 6.221257  0.863270 -0.042844 0.502920  0.166997 0.241188 1 1 1.000000
0  29.151825 89.809113 5.835869  0.863285 -0.042807 0.502898  0.166997 0.979492 1 1 1.000000
0  28.188356 89.905457 6.799339  0.381869 0.005634 0.924199  0.139653 0.979492 1 1 1.000000
exhaust
0  28.188356 89.905457 6.799339  0.381869 0.005634 0.924199  0.139653 0.979492 1 1 1.000000
0  27.390053 78.508995 7.198492  0.381684 0.005636 0.924276  0.139653 0.241188 1 1 1.000000
0  28.367287 78.398880 6.221257  0.863270 -0.042844 0.502920  0.166997 0.241188 1 1 1.000000
exhaust
0  23.783924 78.756744 7.184727  0.000556 0.034964 0.999388  0.092776 0.241188 1 1 1.000000
0  27.390053 78.508995 7.198492  0.381684 0.005636 0.924276  0.139653 0.241188 1 1 1.000000
0  28.188356 89.905457 6.799339  0.381869 0.005634 0.924199  0.139653 0.979492 1 1 1.000000
exhaust
0  28.188356 89.905457 6.799339  0.381869 0.005634 0.924199  0.139653 0.979492 1 1 1.000000
0  24.582228 90.153206 6.785575  -0.000111 0.034907 0.999391  0.092776 0.979492 1 1 1.000000
0  23.783924 78.756744 7.184727  0.000556 0.034964 0.999388  0.092776 0.241188 1 1 1.000000
exhaust
0  28.188356 89.740295 2.133394  0.070303 0.996911 -0.035015  0.299814 0.225562 1 1 1.000000
0  26.825733 89.822876 1.761771  0.069728 0.996958 -0.034836  0.409192 0.199194 1 1 1.000000
0  24.582228 89.988045 1.748007  0.069668 0.996965 -0.034751  0.575213 0.199194 1 1 1.000000
exhaust
0  24.582228 89.988045 1.748007  0.069668 0.996965 -0.034751  0.575213 0.199194 1 1 1.000000
0  24.582228 90.153206 6.785575  0.069834 0.996945 -0.034972  0.575213 0.596667 1 1 1.000000
0  28.188356 89.905457 6.799339  0.069719 0.996958 -0.034831  0.299814 0.596667 1 1 1.000000
exhaust
0  28.188356 89.740295 2.133394  0.070303 0.996911 -0.035015  0.299814 0.225562 1 1 1.000000
0  24.582228 89.988045 1.748007  0.069668 0.996965 -0.034751  0.575213 0.199194 1 1 1.000000
0  28.188356 89.905457 6.799339  0.069719 0.996958 -0.034831  0.299814 0.596667 1 1 1.000000
exhaust
0  28.188356 89.905457 6.799339  0.069719 0.996958 -0.034831  0.299814 0.596667 1 1 1.000000
0  29.151825 89.809113 5.835869  0.069742 0.996957 -0.034816  0.221686 0.519517 1 1 1.000000
0  29.523449 89.726524 4.459485  0.069330 0.996982 -0.034924  0.192389 0.411115 1 1 1.000000
exhaust
0  28.188356 89.740295 2.133394  0.070303 0.996911 -0.035015  0.299814 0.225562 1 1 1.000000
0  28.188356 89.905457 6.799339  0.069719 0.996958 -0.034831  0.299814 0.596667 1 1 1.000000
0  29.523449 89.726524 4.459485  0.069330 0.996982 -0.034924  0.192389 0.411115 1 1 1.000000
exhaust
0  28.188356 89.740295 2.133394  0.070303 0.996911 -0.035015  0.299814 0.225562 1 1 1.000000
0  29.523449 89.726524 4.459485  0.069330 0.996982 -0.034924  0.192389 0.411115 1 1 1.000000
0  29.151825 89.712761 3.096864  0.069695 0.996960 -0.034824  0.221686 0.302713 1 1 1.000000
exhaust
0  24.582228 89.988045 1.748007  0.000587 -0.035020 -0.999386  0.092776 0.979492 1 1 1.000000
0  23.783924 78.577812 2.147158  -0.000347 -0.034811 -0.999394  0.092776 0.241188 1 1 1.000000
0  21.526653 78.742981 2.147159  -0.131447 -0.025402 -0.990998  0.055666 0.241188 1 1 1.000000
exhaust
0  21.526653 78.742981 2.147159  -0.131447 -0.025402 -0.990998  0.055666 0.241188 1 1 1.000000
0  22.324959 90.139442 1.748007  -0.131309 -0.025422 -0.991015  0.055666 0.979492 1 1 1.000000
0  24.582228 89.988045 1.748007  0.000587 -0.035020 -0.999386  0.092776 0.979492 1 1 1.000000
exhaust
0  28.367287 78.398880 6.221257  -0.069575 -0.996964 0.034948  0.955107 0.500961 1 1 1.000000
0  27.390053 78.508995 7.198492  -0.069760 -0.996955 0.034838  0.877957 0.570299 1 1 1.000000
0  23.783924 78.756744 7.184727  -0.070293 -0.996906 0.035181  0.588885 0.570299 1 1 1.000000
exhaust
0  23.783924 78.756744 7.184727  -0.070293 -0.996906 0.035181  0.588885 0.570299 1 1 1.000000
0  23.783924 78.577812 2.147158  -0.069760 -0.996944 0.035149  0.588885 0.211890 1 1 1.000000
0  26.027433 78.426407 2.147158  -0.069646 -0.996964 0.034826  0.768578 0.211890 1 1 1.000000
exhaust
0  28.367287 78.398880 6.221257  -0.069575 -0.996964 0.034948  0.955107 0.500961 1 1 1.000000
0  23.783924 78.756744 7.184727  -0.070293 -0.996906 0.035181  0.588885 0.570299 1 1 1.000000
0  26.027433 78.426407 2.147158  -0.069646 -0.996964 0.034826  0.768578 0.211890 1 1 1.000000
exhaust
0  26.027433 78.426407 2.147158  -0.069646 -0.996964 0.034826  0.768578 0.211890 1 1 1.000000
0  27.390053 78.343826 2.532546  -0.069768 -0.996956 0.034813  0.877957 0.238258 1 1 1.000000
0  28.367287 78.316299 3.496016  -0.069619 -0.996970 0.034684  0.955107 0.306619 1 1 1.000000
exhaust
0  28.367287 78.398880 6.221257  -0.069575 -0.996964 0.034948  0.955107 0.500961 1 1 1.000000
0  26.027433 78.426407 2.147158  -0.069646 -0.996964 0.034826  0.768578 0.211890 1 1 1.000000
0  28.367287 78.316299 3.496016  -0.069619 -0.996970 0.034684  0.955107 0.306619 1 1 1.000000
exhaust
0  28.367287 78.398880 6.221257  -0.069575 -0.996964 0.034948  0.955107 0.500961 1 1 1.000000
0  28.367287 78.316299 3.496016  -0.069619 -0.996970 0.034684  0.955107 0.306619 1 1 1.000000
0  28.725145 78.330063 4.858636  -0.069779 -0.996955 0.034811  0.984405 0.404279 1 1 1.000000
exhaust
0  23.783924 78.756744 7.184727  0.000556 0.034964 0.999388  0.092776 0.241188 1 1 1.000000
0  24.582228 90.153206 6.785575  -0.000111 0.034907 0.999391  0.092776 0.979492 1 1 1.000000
0  20.962336 90.414726 6.785576  -0.381887 0.058949 0.922327  0.044923 0.979492 1 1 1.000000
exhaust
0  20.962336 90.414726 6.785576  -0.381887 0.058949 0.922327  0.044923 0.979492 1 1 1.000000
0  20.164032 79.018257 7.184727  -0.382072 0.058970 0.922249  0.044923 0.241188 1 1 1.000000
0  23.783924 78.756744 7.184727  0.000556 0.034964 0.999388  0.092776 0.241188 1 1 1.000000
exhaust
0  -24.609766 90.153206 6.785579  -0.069798 0.996953 -0.034824  0.575213 0.596667 1 1 1.000000
0  -20.989874 90.414726 6.785579  -0.069798 0.996953 -0.034818  0.299814 0.596667 1 1 1.000000
0  -20.026405 90.442253 5.808346  -0.069779 0.996955 -0.034810  0.221686 0.519517 1 1 1.000000
exhaust
0  -20.026405 90.442253 5.808346  -0.069779 0.996955 -0.034810  0.221686 0.519517 1 1 1.000000
0  -19.654781 90.428490 4.445724  -0.069802 0.996953 -0.034816  0.192389 0.411115 1 1 1.000000
0  -20.026405 90.345894 3.083103  -0.070288 0.996926 -0.034628  0.221686 0.302713 1 1 1.000000
exhaust
0  -20.026405 90.345894 3.083103  -0.070288 0.996926 -0.034628  0.221686 0.302713 1 1 1.000000
0  -20.989874 90.249550 2.105870  -0.069791 0.996954 -0.034826  0.299814 0.225562 1 1 1.000000
0  -22.352497 90.139442 1.748011  -0.069655 0.996973 -0.034554  0.409192 0.199194 1 1 1.000000
exhaust
0  -20.026405 90.442253 5.808346  -0.069779 0.996955 -0.034810  0.221686 0.519517 1 1 1.000000
0  -20.026405 90.345894 3.083103  -0.070288 0.996926 -0.034628  0.221686 0.302713 1 1 1.000000
0  -22.352497 90.139442 1.748011  -0.069655 0.996973 -0.034554  0.409192 0.199194 1 1 1.000000
exhaust
0  -24.609766 90.153206 6.785579  -0.069798 0.996953 -0.034824  0.575213 0.596667 1 1 1.000000
0  -20.026405 90.442253 5.808346  -0.069779 0.996955 -0.034810  0.221686 0.519517 1 1 1.000000
0  -22.352497 90.139442 1.748011  -0.069655 0.996973 -0.034554  0.409192 0.199194 1 1 1.000000
exhaust
0  -24.609766 90.153206 6.785579  -0.069798 0.996953 -0.034824  0.575213 0.596667 1 1 1.000000
0  -22.352497 90.139442 1.748011  -0.069655 0.996973 -0.034554  0.409192 0.199194 1 1 1.000000
0  -24.609766 89.988045 1.748011  -0.069697 0.996964 -0.034723  0.575213 0.199194 1 1 1.000000
exhaust
0  -20.191572 78.853088 2.505022  0.500122 0.004739 -0.865942  0.033204 0.241188 1 1 1.000000
0  -20.989874 90.249550 2.105870  0.500485 0.004737 -0.865732  0.033204 0.979492 1 1 1.000000
0  -20.026405 90.345894 3.083103  0.863299 0.042857 -0.502870  0.017579 0.979492 1 1 1.000000
exhaust
0  -20.026405 90.345894 3.083103  0.863299 0.042857 -0.502870  0.017579 0.979492 1 1 1.000000
0  -19.228102 78.949440 3.482255  0.863251 0.042834 -0.502955  0.017579 0.241188 1 1 1.000000
0  -20.191572 78.853088 2.505022  0.500122 0.004739 -0.865942  0.033204 0.241188 1 1 1.000000
exhaust
0  -19.228102 78.949440 3.482255  0.863251 0.042834 -0.502955  0.017579 0.241188 1 1 1.000000
0  -20.026405 90.345894 3.083103  0.863299 0.042857 -0.502870  0.017579 0.979492 1 1 1.000000
0  -19.654781 90.428490 4.445724  0.997559 0.069794 -0.002186  0.001953 0.979492 1 1 1.000000
exhaust
0  -19.654781 90.428490 4.445724  0.997559 0.069794 -0.002186  0.001953 0.979492 1 1 1.000000
0  -18.856480 79.018257 4.844876  0.997564 0.069710 -0.002390  0.001953 0.241188 1 1 1.000000
0  -19.228102 78.949440 3.482255  0.863251 0.042834 -0.502955  0.017579 0.241188 1 1 1.000000
exhaust
0  -28.752684 78.330063 4.858641  -0.997627 -0.068794 0.002621  0.183599 0.241188 1 1 1.000000
0  -29.550987 89.726524 4.459489  -0.997563 -0.069747 0.001989  0.183599 0.979492 1 1 1.000000
0  -29.179363 89.712761 3.096868  -0.863181 -0.077800 -0.498864  0.166997 0.979492 1 1 1.000000
exhaust
0  -29.179363 89.712761 3.096868  -0.863181 -0.077800 -0.498864  0.166997 0.979492 1 1 1.000000
0  -28.394825 78.316299 3.496020  -0.863254 -0.077847 -0.498730  0.166997 0.241188 1 1 1.000000
0  -28.752684 78.330063 4.858641  -0.997627 -0.068794 0.002621  0.183599 0.241188 1 1 1.000000
exhaust
0  -28.394825 78.316299 3.496020  -0.863254 -0.077847 -0.498730  0.166997 0.241188 1 1 1.000000
0  -29.179363 89.712761 3.096868  -0.863181 -0.077800 -0.498864  0.166997 0.979492 1 1 1.000000
0  -28.215895 89.740295 2.133399  -0.499767 -0.065073 -0.863712  0.151372 0.979492 1 1 1.000000
exhaust
0  -28.215895 89.740295 2.133399  -0.499767 -0.065073 -0.863712  0.151372 0.979492 1 1 1.000000
0  -27.417591 78.343826 2.532550  -0.499633 -0.064955 -0.863798  0.151372 0.241188 1 1 1.000000
0  -28.394825 78.316299 3.496020  -0.863254 -0.077847 -0.498730  0.166997 0.241188 1 1 1.000000
exhaust
0  -27.417591 78.343826 2.532550  -0.499633 -0.064955 -0.863798  0.151372 0.241188 1 1 1.000000
0  -28.215895 89.740295 2.133399  -0.499767 -0.065073 -0.863712  0.151372 0.979492 1 1 1.000000
0  -26.853275 89.822876 1.761775  -0.131636 -0.043797 -0.990330  0.128910 0.979492 1 1 1.000000
exhaust
0  -26.853275 89.822876 1.761775  -0.131636 -0.043797 -0.990330  0.128910 0.979492 1 1 1.000000
0  -26.054972 78.426407 2.147162  -0.131544 -0.043790 -0.990343  0.128910 0.241188 1 1 1.000000
0  -27.417591 78.343826 2.532550  -0.499633 -0.064955 -0.863798  0.151372 0.241188 1 1 1.000000
exhaust
0  -26.853275 89.822876 1.761775  -0.131636 -0.043797 -0.990330  0.128910 0.979492 1 1 1.000000
0  -24.609766 89.988045 1.748011  -0.000115 -0.034934 -0.999390  0.092776 0.979492 1 1 1.000000
0  -23.811466 78.577812 2.147162  0.000347 -0.034811 -0.999394  0.092776 0.241188 1 1 1.000000
exhaust
0  -23.811466 78.577812 2.147162  0.000347 -0.034811 -0.999394  0.092776 0.241188 1 1 1.000000
0  -26.054972 78.426407 2.147162  -0.131544 -0.043790 -0.990343  0.128910 0.241188 1 1 1.000000
0  -26.853275 89.822876 1.761775  -0.131636 -0.043797 -0.990330  0.128910 0.979492 1 1 1.000000
exhaust
0  -21.554193 78.742981 2.147162  0.131447 -0.025402 -0.990998  0.055666 0.241188 1 1 1.000000
0  -22.352497 90.139442 1.748011  0.131457 -0.025402 -0.990996  0.055666 0.979492 1 1 1.000000
0  -20.989874 90.249550 2.105870  0.500485 0.004737 -0.865732  0.033204 0.979492 1 1 1.000000
exhaust
0  -20.989874 90.249550 2.105870  0.500485 0.004737 -0.865732  0.033204 0.979492 1 1 1.000000
0  -20.191572 78.853088 2.505022  0.500122 0.004739 -0.865942  0.033204 0.241188 1 1 1.000000
0  -21.554193 78.742981 2.147162  0.131447 -0.025402 -0.990998  0.055666 0.241188 1 1 1.000000
exhaust
0  -23.811466 78.577812 2.147162  0.069760 -0.996944 0.035149  0.588885 0.211890 1 1 1.000000
0  -21.554193 78.742981 2.147162  0.069763 -0.996957 0.034798  0.768578 0.211890 1 1 1.000000
0  -20.191572 78.853088 2.505022  0.069743 -0.996968 0.034494  0.877957 0.238258 1 1 1.000000
exhaust
0  -20.191572 78.853088 2.505022  0.069743 -0.996968 0.034494  0.877957 0.238258 1 1 1.000000
0  -19.228102 78.949440 3.482255  0.069677 -0.996965 0.034715  0.955107 0.306619 1 1 1.000000
0  -18.856480 79.018257 4.844876  0.069741 -0.996957 0.034823  0.984405 0.404279 1 1 1.000000
exhaust
0  -18.856480 79.018257 4.844876  0.069741 -0.996957 0.034823  0.984405 0.404279 1 1 1.000000
0  -19.228102 79.045784 6.207497  0.069664 -0.996956 0.034995  0.955107 0.500961 1 1 1.000000
0  -20.191572 79.018257 7.184730  0.069818 -0.996955 0.034723  0.877957 0.570299 1 1 1.000000
exhaust
0  -20.191572 78.853088 2.505022  0.069743 -0.996968 0.034494  0.877957 0.238258 1 1 1.000000
0  -18.856480 79.018257 4.844876  0.069741 -0.996957 0.034823  0.984405 0.404279 1 1 1.000000
0  -20.191572 79.018257 7.184730  0.069818 -0.996955 0.034723  0.877957 0.570299 1 1 1.000000
exhaust
0  -23.811466 78.577812 2.147162  0.069760 -0.996944 0.035149  0.588885 0.211890 1 1 1.000000
0  -20.191572 78.853088 2.505022  0.069743 -0.996968 0.034494  0.877957 0.238258 1 1 1.000000
0  -20.191572 79.018257 7.184730  0.069818 -0.996955 0.034723  0.877957 0.570299 1 1 1.000000
exhaust
0  -23.811466 78.577812 2.147162  0.069760 -0.996944 0.035149  0.588885 0.211890 1 1 1.000000
0  -20.191572 79.018257 7.184730  0.069818 -0.996955 0.034723  0.877957 0.570299 1 1 1.000000
0  -23.811466 78.756744 7.184731  0.069859 -0.996947 0.034885  0.588885 0.570299 1 1 1.000000
exhaust
0  -20.191572 79.018257 7.184730  0.382170 0.058988 0.922207  0.044923 0.241188 1 1 1.000000
0  -19.228102 79.045784 6.207497  0.863232 0.077823 0.498772  0.017579 0.241188 1 1 1.000000
0  -20.026405 90.442253 5.808346  0.863218 0.077822 0.498797  0.017579 0.979492 1 1 1.000000
exhaust
0  -20.026405 90.442253 5.808346  0.863218 0.077822 0.498797  0.017579 0.979492 1 1 1.000000
0  -20.989874 90.414726 6.785579  0.381886 0.058957 0.922327  0.044923 0.979492 1 1 1.000000
0  -20.191572 79.018257 7.184730  0.382170 0.058988 0.922207  0.044923 0.241188 1 1 1.000000
exhaust
0  -19.228102 79.045784 6.207497  0.863232 0.077823 0.498772  0.017579 0.241188 1 1 1.000000
0  -18.856480 79.018257 4.844876  0.997564 0.069710 -0.002390  0.001953 0.241188 1 1 1.000000
0  -19.654781 90.428490 4.445724  0.997559 0.069794 -0.002186  0.001953 0.979492 1 1 1.000000
exhaust
0  -19.654781 90.428490 4.445724  0.997559 0.069794 -0.002186  0.001953 0.979492 1 1 1.000000
0  -20.026405 90.442253 5.808346  0.863218 0.077822 0.498797  0.017579 0.979492 1 1 1.000000
0  -19.228102 79.045784 6.207497  0.863232 0.077823 0.498772  0.017579 0.241188 1 1 1.000000
exhaust
0  -28.752684 78.330063 4.858641  -0.997627 -0.068794 0.002621  0.183599 0.241188 1 1 1.000000
0  -28.394825 78.398880 6.221261  -0.863244 -0.042847 0.502966  0.166997 0.241188 1 1 1.000000
0  -29.179363 89.809113 5.835874  -0.863285 -0.042807 0.502898  0.166997 0.979492 1 1 1.000000
exhaust
0  -29.179363 89.809113 5.835874  -0.863285 -0.042807 0.502898  0.166997 0.979492 1 1 1.000000
0  -29.550987 89.726524 4.459489  -0.997563 -0.069747 0.001989  0.183599 0.979492 1 1 1.000000
0  -28.752684 78.330063 4.858641  -0.997627 -0.068794 0.002621  0.183599 0.241188 1 1 1.000000
exhaust
0  -28.394825 78.398880 6.221261  -0.863244 -0.042847 0.502966  0.166997 0.241188 1 1 1.000000
0  -27.417591 78.508995 7.198495  -0.381684 0.005636 0.924276  0.139653 0.241188 1 1 1.000000
0  -28.215895 89.905457 6.799343  -0.381869 0.005633 0.924199  0.139653 0.979492 1 1 1.000000
exhaust
0  -28.215895 89.905457 6.799343  -0.381869 0.005633 0.924199  0.139653 0.979492 1 1 1.000000
0  -29.179363 89.809113 5.835874  -0.863285 -0.042807 0.502898  0.166997 0.979492 1 1 1.000000
0  -28.394825 78.398880 6.221261  -0.863244 -0.042847 0.502966  0.166997 0.241188 1 1 1.000000
exhaust
0  -23.811466 78.756744 7.184731  -0.000556 0.034964 0.999388  0.092776 0.241188 1 1 1.000000
0  -24.609766 90.153206 6.785579  -0.000223 0.034932 0.999390  0.092776 0.979492 1 1 1.000000
0  -28.215895 89.905457 6.799343  -0.381869 0.005633 0.924199  0.139653 0.979492 1 1 1.000000
exhaust
0  -28.215895 89.905457 6.799343  -0.381869 0.005633 0.924199  0.139653 0.979492 1 1 1.000000
0  -27.417591 78.508995 7.198495  -0.381684 0.005636 0.924276  0.139653 0.241188 1 1 1.000000
0  -23.811466 78.756744 7.184731  -0.000556 0.034964 0.999388  0.092776 0.241188 1 1 1.000000
exhaust
0  -28.215895 89.740295 2.133399  -0.070303 0.996911 -0.035015  0.299814 0.225562 1 1 1.000000
0  -29.179363 89.712761 3.096868  -0.069752 0.996956 -0.034821  0.221686 0.302713 1 1 1.000000
0  -29.550987 89.726524 4.459489  -0.069426 0.996976 -0.034912  0.192389 0.411115 1 1 1.000000
exhaust
0  -29.550987 89.726524 4.459489  -0.069426 0.996976 -0.034912  0.192389 0.411115 1 1 1.000000
0  -29.179363 89.809113 5.835874  -0.069803 0.996953 -0.034812  0.221686 0.519517 1 1 1.000000
0  -28.215895 89.905457 6.799343  -0.069860 0.996950 -0.034791  0.299814 0.596667 1 1 1.000000
exhaust
0  -28.215895 89.740295 2.133399  -0.070303 0.996911 -0.035015  0.299814 0.225562 1 1 1.000000
0  -29.550987 89.726524 4.459489  -0.069426 0.996976 -0.034912  0.192389 0.411115 1 1 1.000000
0  -28.215895 89.905457 6.799343  -0.069860 0.996950 -0.034791  0.299814 0.596667 1 1 1.000000
exhaust
0  -28.215895 89.905457 6.799343  -0.069860 0.996950 -0.034791  0.299814 0.596667 1 1 1.000000
0  -24.609766 90.153206 6.785579  -0.069798 0.996953 -0.034824  0.575213 0.596667 1 1 1.000000
0  -24.609766 89.988045 1.748011  -0.069697 0.996964 -0.034723  0.575213 0.199194 1 1 1.000000
exhaust
0  -28.215895 89.740295 2.133399  -0.070303 0.996911 -0.035015  0.299814 0.225562 1 1 1.000000
0  -28.215895 89.905457 6.799343  -0.069860 0.996950 -0.034791  0.299814 0.596667 1 1 1.000000
0  -24.609766 89.988045 1.748011  -0.069697 0.996964 -0.034723  0.575213 0.199194 1 1 1.000000
exhaust
0  -28.215895 89.740295 2.133399  -0.070303 0.996911 -0.035015  0.299814 0.225562 1 1 1.000000
0  -24.609766 89.988045 1.748011  -0.069697 0.996964 -0.034723  0.575213 0.199194 1 1 1.000000
0  -26.853275 89.822876 1.761775  -0.069800 0.996952 -0.034866  0.409192 0.199194 1 1 1.000000
exhaust
0  -24.609766 89.988045 1.748011  -0.000115 -0.034934 -0.999390  0.092776 0.979492 1 1 1.000000
0  -22.352497 90.139442 1.748011  0.131457 -0.025402 -0.990996  0.055666 0.979492 1 1 1.000000
0  -21.554193 78.742981 2.147162  0.131447 -0.025402 -0.990998  0.055666 0.241188 1 1 1.000000
exhaust
0  -21.554193 78.742981 2.147162  0.131447 -0.025402 -0.990998  0.055666 0.241188 1 1 1.000000
0  -23.811466 78.577812 2.147162  0.000347 -0.034811 -0.999394  0.092776 0.241188 1 1 1.000000
0  -24.609766 89.988045 1.748011  -0.000115 -0.034934 -0.999390  0.092776 0.979492 1 1 1.000000
exhaust
0  -28.394825 78.398880 6.221261  0.069575 -0.996964 0.034947  0.955107 0.500961 1 1 1.000000
0  -28.752684 78.330063 4.858641  0.069778 -0.996955 0.034811  0.984405 0.404279 1 1 1.000000
0  -28.394825 78.316299 3.496020  0.069759 -0.996956 0.034813  0.955107 0.306619 1 1 1.000000
exhaust
0  -28.394825 78.316299 3.496020  0.069759 -0.996956 0.034813  0.955107 0.306619 1 1 1.000000
0  -27.417591 78.343826 2.532550  0.069766 -0.996956 0.034813  0.877957 0.238258 1 1 1.000000
0  -26.054972 78.426407 2.147162  0.069551 -0.996970 0.034829  0.768578 0.211890 1 1 1.000000
exhaust
0  -28.394825 78.398880 6.221261  0.069575 -0.996964 0.034947  0.955107 0.500961 1 1 1.000000
0  -28.394825 78.316299 3.496020  0.069759 -0.996956 0.034813  0.955107 0.306619 1 1 1.000000
0  -26.054972 78.426407 2.147162  0.069551 -0.996970 0.034829  0.768578 0.211890 1 1 1.000000
exhaust
0  -26.054972 78.426407 2.147162  0.069551 -0.996970 0.034829  0.768578 0.211890 1 1 1.000000
0  -23.811466 78.577812 2.147162  0.069760 -0.996944 0.035149  0.588885 0.211890 1 1 1.000000
0  -23.811466 78.756744 7.184731  0.069859 -0.996947 0.034885  0.588885 0.570299 1 1 1.000000
exhaust
0  -28.394825 78.398880 6.221261  0.069575 -0.996964 0.034947  0.955107 0.500961 1 1 1.000000
0  -26.054972 78.426407 2.147162  0.069551 -0.996970 0.034829  0.768578 0.211890 1 1 1.000000
0  -23.811466 78.756744 7.184731  0.069859 -0.996947 0.034885  0.588885 0.570299 1 1 1.000000
exhaust
0  -28.394825 78.398880 6.221261  0.069575 -0.996964 0.034947  0.955107 0.500961 1 1 1.000000
0  -23.811466 78.756744 7.184731  0.069859 -0.996947 0.034885  0.588885 0.570299 1 1 1.000000
0  -27.417591 78.508995 7.198495  0.069764 -0.996955 0.034838  0.877957 0.570299 1 1 1.000000
exhaust
0  -23.811466 78.756744 7.184731  -0.000556 0.034964 0.999388  0.092776 0.241188 1 1 1.000000
0  -20.191572 79.018257 7.184730  0.382170 0.058988 0.922207  0.044923 0.241188 1 1 1.000000
0  -20.989874 90.414726 6.785579  0.381886 0.058957 0.922327  0.044923 0.979492 1 1 1.000000
exhaust
0  -20.989874 90.414726 6.785579  0.381886 0.058957 0.922327  0.044923 0.979492 1 1 1.000000
0  -24.609766 90.153206 6.785579  -0.000223 0.034932 0.999390  0.092776 0.979492 1 1 1.000000
0  -23.811466 78.756744 7.184731  -0.000556 0.034964 0.999388  0.092776 0.241188 1 1 1.000000
end
