version 1
nodes
0 "blender_implicit" -1
1 "root" -1
2 "steering_wheel" 1
end
skeleton
time 0
0  0.000000 0.000000 0.000000  0.000000 -0.000000 0.000000
1  0.000000 0.000000 0.000000  1.570796 -0.000000 0.000000
2  17.500738 28.532450 14.135482  0.000000 -0.000000 0.000000
end
triangles
chromemisc
0  37.671654 -10.749563 2.986752  0.879224 0.001617 -0.476406  0.504898 0.348613 1 1 1.000000
0  37.644127 -10.749563 3.110627  0.991038 0.005006 0.133484  0.138676 0.361309 1 1 1.000000
0  37.712952 -23.618761 3.165683  0.990971 0.001458 0.134067  0.123051 0.361309 1 1 1.000000
chromemisc
0  37.712952 -23.618761 3.165683  0.990971 0.001458 0.134067  0.123051 0.361309 1 1 1.000000
0  37.726715 -23.618761 3.041808  0.877514 -0.000794 -0.479551  0.123051 0.348613 1 1 1.000000
0  37.671654 -10.749563 2.986752  0.879224 0.001617 -0.476406  0.504898 0.348613 1 1 1.000000
chromemisc
0  37.492722 33.941654 2.683948  0.884366 -0.023162 -0.466219  0.484390 0.348613 1 1 1.000000
0  37.423901 33.941654 3.138155  0.988090 -0.001432 0.153870  0.484390 0.398419 1 1 1.000000
0  37.410137 30.239180 3.262029  0.991150 0.001280 0.132744  0.424818 0.398419 1 1 1.000000
chromemisc
0  37.410137 30.239180 3.262029  0.991150 0.001280 0.132744  0.424818 0.398419 1 1 1.000000
0  37.465191 30.239180 2.794059  0.887019 -0.007629 -0.461671  0.424818 0.348613 1 1 1.000000
0  37.492722 33.941654 2.683948  0.884366 -0.023162 -0.466219  0.484390 0.348613 1 1 1.000000
chromemisc
0  37.589066 40.809818 2.298560  0.874117 -0.044675 -0.483656  0.594745 0.348613 1 1 1.000000
0  37.203678 40.796055 2.174685  0.313970 -0.068604 -0.946951  0.594745 0.295877 1 1 1.000000
0  37.244968 42.626644 2.064574  0.268109 -0.075320 -0.960440  0.624043 0.295877 1 1 1.000000
chromemisc
0  37.244968 42.626644 2.064574  0.268109 -0.075320 -0.960440  0.624043 0.295877 1 1 1.000000
0  37.616596 42.626644 2.160921  0.863690 -0.047785 -0.501753  0.624043 0.348613 1 1 1.000000
0  37.589066 40.809818 2.298560  0.874117 -0.044675 -0.483656  0.594745 0.348613 1 1 1.000000
chromemisc
0  37.478958 27.734158 2.807822  0.885525 0.001738 -0.464589  0.384777 0.348613 1 1 1.000000
0  37.066044 27.734158 2.587601  0.454524 -0.002255 -0.890732  0.384777 0.295877 1 1 1.000000
0  37.052277 30.239180 2.587601  0.456130 -0.013553 -0.889810  0.424818 0.295877 1 1 1.000000
chromemisc
0  37.052277 30.239180 2.587601  0.456130 -0.013553 -0.889810  0.424818 0.295877 1 1 1.000000
0  37.465191 30.239180 2.794059  0.887019 -0.007629 -0.461671  0.424818 0.348613 1 1 1.000000
0  37.478958 27.734158 2.807822  0.885525 0.001738 -0.464589  0.384777 0.348613 1 1 1.000000
chromemisc
0  37.589066 40.809818 2.298560  0.874117 -0.044675 -0.483656  0.594745 0.348613 1 1 1.000000
0  37.492722 40.809818 2.683948  0.969311 0.005863 0.245768  0.594745 0.398419 1 1 1.000000
0  37.451427 38.001987 2.917933  0.980533 0.000758 0.196352  0.549821 0.398419 1 1 1.000000
chromemisc
0  37.451427 38.001987 2.917933  0.980533 0.000758 0.196352  0.549821 0.398419 1 1 1.000000
0  37.534012 38.001987 2.491254  0.880273 -0.036105 -0.473091  0.549821 0.348613 1 1 1.000000
0  37.589066 40.809818 2.298560  0.874117 -0.044675 -0.483656  0.594745 0.348613 1 1 1.000000
chromemisc
0  37.478958 27.734158 2.807822  0.885525 0.001738 -0.464589  0.384777 0.348613 1 1 1.000000
0  37.465195 27.734158 2.945461  0.991324 0.005313 0.131334  0.341807 0.362285 1 1 1.000000
0  37.534016 12.965548 3.000516  0.991175 0.005061 0.132462  0.124027 0.362285 1 1 1.000000
chromemisc
0  37.534016 12.965548 3.000516  0.991175 0.005061 0.132462  0.124027 0.362285 1 1 1.000000
0  37.547779 12.965548 2.876641  0.883105 0.001708 -0.469172  0.124027 0.348613 1 1 1.000000
0  37.478958 27.734158 2.807822  0.885525 0.001738 -0.464589  0.384777 0.348613 1 1 1.000000
chromemisc
0  37.602837 1.830595 2.931697  0.881281 0.001676 -0.472590  0.314463 0.348613 1 1 1.000000
0  37.176155 1.830595 2.725239  0.437420 -0.002336 -0.899255  0.314463 0.295877 1 1 1.000000
0  37.121098 12.965548 2.670184  0.444795 -0.002293 -0.895630  0.124027 0.295877 1 1 1.000000
chromemisc
0  37.121098 12.965548 2.670184  0.444795 -0.002293 -0.895630  0.124027 0.295877 1 1 1.000000
0  37.547779 12.965548 2.876641  0.883105 0.001708 -0.469172  0.124027 0.348613 1 1 1.000000
0  37.602837 1.830595 2.931697  0.881281 0.001676 -0.472590  0.314463 0.348613 1 1 1.000000
chromemisc
0  37.423901 33.941654 3.138155  0.988090 -0.001432 0.153870  0.484390 0.398419 1 1 1.000000
0  37.492722 33.941654 2.683948  0.884366 -0.023162 -0.466219  0.484390 0.348613 1 1 1.000000
0  37.534012 38.001987 2.491254  0.880273 -0.036105 -0.473091  0.549821 0.348613 1 1 1.000000
chromemisc
0  37.534012 38.001987 2.491254  0.880273 -0.036105 -0.473091  0.549821 0.348613 1 1 1.000000
0  37.451427 38.001987 2.917933  0.980533 0.000758 0.196352  0.549821 0.398419 1 1 1.000000
0  37.423901 33.941654 3.138155  0.988090 -0.001432 0.153870  0.484390 0.398419 1 1 1.000000
chromemisc
0  37.134857 38.001987 2.339851  0.377095 -0.054964 -0.924542  0.549821 0.295877 1 1 1.000000
0  37.534012 38.001987 2.491254  0.880273 -0.036105 -0.473091  0.549821 0.348613 1 1 1.000000
0  37.492722 33.941654 2.683948  0.884366 -0.023162 -0.466219  0.484390 0.348613 1 1 1.000000
chromemisc
0  37.492722 33.941654 2.683948  0.884366 -0.023162 -0.466219  0.484390 0.348613 1 1 1.000000
0  37.079803 33.941654 2.491254  0.430626 -0.035004 -0.901851  0.484390 0.295877 1 1 1.000000
0  37.134857 38.001987 2.339851  0.377095 -0.054964 -0.924542  0.549821 0.295877 1 1 1.000000
chromemisc
0  37.534012 38.001987 2.491254  0.880273 -0.036105 -0.473091  0.549821 0.348613 1 1 1.000000
0  37.134857 38.001987 2.339851  0.377095 -0.054964 -0.924542  0.549821 0.295877 1 1 1.000000
0  37.203678 40.796055 2.174685  0.313970 -0.068604 -0.946951  0.594745 0.295877 1 1 1.000000
chromemisc
0  37.203678 40.796055 2.174685  0.313970 -0.068604 -0.946951  0.594745 0.295877 1 1 1.000000
0  37.589066 40.809818 2.298560  0.874117 -0.044675 -0.483656  0.594745 0.348613 1 1 1.000000
0  37.534012 38.001987 2.491254  0.880273 -0.036105 -0.473091  0.549821 0.348613 1 1 1.000000
chromemisc
0  37.616596 42.626644 2.160921  0.863690 -0.047785 -0.501753  0.624043 0.348613 1 1 1.000000
0  37.506485 42.640408 2.518781  0.959410 0.012661 0.281730  0.624043 0.398419 1 1 1.000000
0  37.492722 40.809818 2.683948  0.969311 0.005863 0.245768  0.594745 0.398419 1 1 1.000000
chromemisc
0  37.492722 40.809818 2.683948  0.969311 0.005863 0.245768  0.594745 0.398419 1 1 1.000000
0  37.589066 40.809818 2.298560  0.874117 -0.044675 -0.483656  0.594745 0.348613 1 1 1.000000
0  37.616596 42.626644 2.160921  0.863690 -0.047785 -0.501753  0.624043 0.348613 1 1 1.000000
chromemisc
0  37.465191 30.239180 2.794059  0.887019 -0.007629 -0.461671  0.424818 0.348613 1 1 1.000000
0  37.052277 30.239180 2.587601  0.456130 -0.013553 -0.889810  0.424818 0.295877 1 1 1.000000
0  37.079803 33.941654 2.491254  0.430626 -0.035004 -0.901851  0.484390 0.295877 1 1 1.000000
chromemisc
0  37.079803 33.941654 2.491254  0.430626 -0.035004 -0.901851  0.484390 0.295877 1 1 1.000000
0  37.492722 33.941654 2.683948  0.884366 -0.023162 -0.466219  0.484390 0.348613 1 1 1.000000
0  37.465191 30.239180 2.794059  0.887019 -0.007629 -0.461671  0.424818 0.348613 1 1 1.000000
chromemisc
0  37.712952 -27.513929 3.055572  0.875864 -0.003370 -0.482546  0.208991 0.348613 1 1 1.000000
0  37.300034 -27.513929 2.862878  0.411553 -0.004032 -0.911377  0.208991 0.295877 1 1 1.000000
0  37.300034 -23.618761 2.849114  0.420235 -0.002842 -0.907411  0.123051 0.295877 1 1 1.000000
chromemisc
0  37.300034 -23.618761 2.849114  0.420235 -0.002842 -0.907411  0.123051 0.295877 1 1 1.000000
0  37.726715 -23.618761 3.041808  0.877514 -0.000794 -0.479551  0.123051 0.348613 1 1 1.000000
0  37.712952 -27.513929 3.055572  0.875864 -0.003370 -0.482546  0.208991 0.348613 1 1 1.000000
chromemisc
0  37.726715 -23.618761 3.041808  0.877514 -0.000794 -0.479551  0.123051 0.348613 1 1 1.000000
0  37.712952 -23.618761 3.165683  0.990971 0.001458 0.134067  0.123051 0.361309 1 1 1.000000
0  37.699184 -27.513929 3.165683  0.990371 -0.001921 0.138428  0.199225 0.361309 1 1 1.000000
chromemisc
0  37.699184 -27.513929 3.165683  0.990371 -0.001921 0.138428  0.199225 0.361309 1 1 1.000000
0  37.712952 -27.513929 3.055572  0.875864 -0.003370 -0.482546  0.208991 0.348613 1 1 1.000000
0  37.726715 -23.618761 3.041808  0.877514 -0.000794 -0.479551  0.123051 0.348613 1 1 1.000000
chromemisc
0  37.602837 1.830595 2.931697  0.881281 0.001676 -0.472590  0.314463 0.348613 1 1 1.000000
0  37.575306 1.830595 3.055572  0.991106 0.005037 0.132982  0.314463 0.362285 1 1 1.000000
0  37.644127 -10.749563 3.110627  0.991038 0.005006 0.133484  0.138676 0.361309 1 1 1.000000
chromemisc
0  37.644127 -10.749563 3.110627  0.991038 0.005006 0.133484  0.138676 0.361309 1 1 1.000000
0  37.671654 -10.749563 2.986752  0.879224 0.001617 -0.476406  0.504898 0.348613 1 1 1.000000
0  37.602837 1.830595 2.931697  0.881281 0.001676 -0.472590  0.314463 0.348613 1 1 1.000000
chromemisc
0  37.547779 12.965548 2.876641  0.883105 0.001708 -0.469172  0.124027 0.348613 1 1 1.000000
0  37.121098 12.965548 2.670184  0.444795 -0.002293 -0.895630  0.124027 0.295877 1 1 1.000000
0  37.066044 27.734158 2.587601  0.454524 -0.002255 -0.890732  0.384777 0.295877 1 1 1.000000
chromemisc
0  37.066044 27.734158 2.587601  0.454524 -0.002255 -0.890732  0.384777 0.295877 1 1 1.000000
0  37.478958 27.734158 2.807822  0.885525 0.001738 -0.464589  0.384777 0.348613 1 1 1.000000
0  37.547779 12.965548 2.876641  0.883105 0.001708 -0.469172  0.124027 0.348613 1 1 1.000000
chromemisc
0  37.465191 30.239180 2.794059  0.887019 -0.007629 -0.461671  0.424818 0.348613 1 1 1.000000
0  37.410137 30.239180 3.262029  0.991150 0.001280 0.132744  0.424818 0.398419 1 1 1.000000
0  37.410141 28.064489 3.275793  0.991239 0.005073 0.131983  0.341807 0.398419 1 1 1.000000
chromemisc
0  37.465191 30.239180 2.794059  0.887019 -0.007629 -0.461671  0.424818 0.348613 1 1 1.000000
0  37.410141 28.064489 3.275793  0.991239 0.005073 0.131983  0.341807 0.398419 1 1 1.000000
0  37.465195 27.734158 2.945461  0.991324 0.005313 0.131334  0.341807 0.362285 1 1 1.000000
chromemisc
0  37.465191 30.239180 2.794059  0.887019 -0.007629 -0.461671  0.424818 0.348613 1 1 1.000000
0  37.465195 27.734158 2.945461  0.991324 0.005313 0.131334  0.341807 0.362285 1 1 1.000000
0  37.478958 27.734158 2.807822  0.885525 0.001738 -0.464589  0.384777 0.348613 1 1 1.000000
chromemisc
0  37.726715 -23.618761 3.041808  0.877514 -0.000794 -0.479551  0.123051 0.348613 1 1 1.000000
0  37.300034 -23.618761 2.849114  0.420235 -0.002842 -0.907411  0.123051 0.295877 1 1 1.000000
0  37.244972 -10.749563 2.780294  0.429122 -0.002376 -0.903243  0.504898 0.295877 1 1 1.000000
chromemisc
0  37.244972 -10.749563 2.780294  0.429122 -0.002376 -0.903243  0.504898 0.295877 1 1 1.000000
0  37.671654 -10.749563 2.986752  0.879224 0.001617 -0.476406  0.504898 0.348613 1 1 1.000000
0  37.726715 -23.618761 3.041808  0.877514 -0.000794 -0.479551  0.123051 0.348613 1 1 1.000000
chromemisc
0  37.644127 -10.749563 3.110627  0.991038 0.005006 0.133484  0.138676 0.361309 1 1 1.000000
0  37.630363 -10.749563 3.275793  0.947661 0.006000 0.319223  0.128910 0.363262 1 1 1.000000
0  37.685421 -23.618761 3.330848  0.947838 0.002440 0.318745  0.127934 0.380840 1 1 1.000000
chromemisc
0  37.685421 -23.618761 3.330848  0.947838 0.002440 0.318745  0.127934 0.380840 1 1 1.000000
0  37.712952 -23.618761 3.165683  0.990971 0.001458 0.134067  0.123051 0.361309 1 1 1.000000
0  37.644127 -10.749563 3.110627  0.991038 0.005006 0.133484  0.138676 0.361309 1 1 1.000000
chromemisc
0  37.465195 27.734158 2.945461  0.991324 0.005313 0.131334  0.341807 0.362285 1 1 1.000000
0  37.437668 27.734158 3.110627  0.966581 -0.036506 0.253750  0.336924 0.369121 1 1 1.000000
0  37.506489 12.965548 3.179446  0.948139 0.005652 0.317807  0.123051 0.368145 1 1 1.000000
chromemisc
0  37.506489 12.965548 3.179446  0.948139 0.005652 0.317807  0.123051 0.368145 1 1 1.000000
0  37.534016 12.965548 3.000516  0.991175 0.005061 0.132462  0.124027 0.362285 1 1 1.000000
0  37.465195 27.734158 2.945461  0.991324 0.005313 0.131334  0.341807 0.362285 1 1 1.000000
chromemisc
0  37.712952 -23.618761 3.165683  0.990971 0.001458 0.134067  0.123051 0.361309 1 1 1.000000
0  37.685421 -23.618761 3.330848  0.947838 0.002440 0.318745  0.127934 0.380840 1 1 1.000000
0  37.671658 -27.513929 3.330848  0.955059 -0.001860 0.296409  0.191412 0.378887 1 1 1.000000
chromemisc
0  37.671658 -27.513929 3.330848  0.955059 -0.001860 0.296409  0.191412 0.378887 1 1 1.000000
0  37.699184 -27.513929 3.165683  0.990371 -0.001921 0.138428  0.199225 0.361309 1 1 1.000000
0  37.712952 -23.618761 3.165683  0.990971 0.001458 0.134067  0.123051 0.361309 1 1 1.000000
chromemisc
0  37.534016 12.965548 3.000516  0.991175 0.005061 0.132462  0.124027 0.362285 1 1 1.000000
0  37.506489 12.965548 3.179446  0.948139 0.005652 0.317807  0.123051 0.368145 1 1 1.000000
0  37.561543 1.830595 3.220737  0.948091 0.005618 0.317948  0.187506 0.368145 1 1 1.000000
chromemisc
0  37.561543 1.830595 3.220737  0.948091 0.005618 0.317948  0.187506 0.368145 1 1 1.000000
0  37.575306 1.830595 3.055572  0.991106 0.005037 0.132982  0.314463 0.362285 1 1 1.000000
0  37.534016 12.965548 3.000516  0.991175 0.005061 0.132462  0.124027 0.362285 1 1 1.000000
chromemisc
0  37.437668 27.734158 3.110627  0.966581 -0.036506 0.253750  0.336924 0.369121 1 1 1.000000
0  37.465195 27.734158 2.945461  0.991324 0.005313 0.131334  0.341807 0.362285 1 1 1.000000
0  37.410141 28.064489 3.275793  0.991239 0.005073 0.131983  0.341807 0.398419 1 1 1.000000
chromemisc
0  37.410141 28.064489 3.275793  0.991239 0.005073 0.131983  0.341807 0.398419 1 1 1.000000
0  37.410141 27.899324 3.275793  0.971449 -0.085654 0.221245  0.335948 0.397443 1 1 1.000000
0  37.437668 27.734158 3.110627  0.966581 -0.036506 0.253750  0.336924 0.369121 1 1 1.000000
chromemisc
0  37.671654 -10.749563 2.986752  0.879224 0.001617 -0.476406  0.504898 0.348613 1 1 1.000000
0  37.244972 -10.749563 2.780294  0.429122 -0.002376 -0.903243  0.504898 0.295877 1 1 1.000000
0  37.176155 1.830595 2.725239  0.437420 -0.002336 -0.899255  0.314463 0.295877 1 1 1.000000
chromemisc
0  37.176155 1.830595 2.725239  0.437420 -0.002336 -0.899255  0.314463 0.295877 1 1 1.000000
0  37.602837 1.830595 2.931697  0.881281 0.001676 -0.472590  0.314463 0.348613 1 1 1.000000
0  37.671654 -10.749563 2.986752  0.879224 0.001617 -0.476406  0.504898 0.348613 1 1 1.000000
chromemisc
0  37.547779 12.965548 2.876641  0.883105 0.001708 -0.469172  0.124027 0.348613 1 1 1.000000
0  37.534016 12.965548 3.000516  0.991175 0.005061 0.132462  0.124027 0.362285 1 1 1.000000
0  37.575306 1.830595 3.055572  0.991106 0.005037 0.132982  0.314463 0.362285 1 1 1.000000
chromemisc
0  37.575306 1.830595 3.055572  0.991106 0.005037 0.132982  0.314463 0.362285 1 1 1.000000
0  37.602837 1.830595 2.931697  0.881281 0.001676 -0.472590  0.314463 0.348613 1 1 1.000000
0  37.547779 12.965548 2.876641  0.883105 0.001708 -0.469172  0.124027 0.348613 1 1 1.000000
chromemisc
0  37.630363 -10.749563 3.275793  0.947661 0.006000 0.319223  0.128910 0.363262 1 1 1.000000
0  37.644127 -10.749563 3.110627  0.991038 0.005006 0.133484  0.138676 0.361309 1 1 1.000000
0  37.575306 1.830595 3.055572  0.991106 0.005037 0.132982  0.314463 0.362285 1 1 1.000000
chromemisc
0  37.575306 1.830595 3.055572  0.991106 0.005037 0.132982  0.314463 0.362285 1 1 1.000000
0  37.561543 1.830595 3.220737  0.948091 0.005618 0.317948  0.187506 0.368145 1 1 1.000000
0  37.630363 -10.749563 3.275793  0.947661 0.006000 0.319223  0.128910 0.363262 1 1 1.000000
chromemisc
0  37.300034 -27.513929 2.862878  0.411553 -0.004032 -0.911377  0.208991 0.295877 1 1 1.000000
0  37.712952 -27.513929 3.055572  0.875864 -0.003370 -0.482546  0.208991 0.348613 1 1 1.000000
0  37.712952 -27.692860 3.055572  0.816162 -0.365438 -0.447587  0.212897 0.348613 1 1 1.000000
chromemisc
0  37.712952 -27.692860 3.055572  0.816162 -0.365438 -0.447587  0.212897 0.348613 1 1 1.000000
0  37.300034 -27.692860 2.862878  0.377724 -0.377046 -0.845672  0.212897 0.295877 1 1 1.000000
0  37.300034 -27.513929 2.862878  0.411553 -0.004032 -0.911377  0.208991 0.295877 1 1 1.000000
chromemisc
0  37.712952 -27.513929 3.055572  0.875864 -0.003370 -0.482546  0.208991 0.348613 1 1 1.000000
0  37.699184 -27.513929 3.165683  0.990371 -0.001921 0.138428  0.199225 0.361309 1 1 1.000000
0  37.699184 -27.692860 3.165683  0.920639 -0.368535 0.128868  0.202155 0.360332 1 1 1.000000
chromemisc
0  37.699184 -27.692860 3.165683  0.920639 -0.368535 0.128868  0.202155 0.360332 1 1 1.000000
0  37.712952 -27.692860 3.055572  0.816162 -0.365438 -0.447587  0.212897 0.348613 1 1 1.000000
0  37.712952 -27.513929 3.055572  0.875864 -0.003370 -0.482546  0.208991 0.348613 1 1 1.000000
chromemisc
0  37.699184 -27.513929 3.165683  0.990371 -0.001921 0.138428  0.199225 0.361309 1 1 1.000000
0  37.671658 -27.513929 3.330848  0.955059 -0.001860 0.296409  0.191412 0.378887 1 1 1.000000
0  37.671658 -27.692860 3.330848  0.942180 -0.271197 0.196848  0.194342 0.378887 1 1 1.000000
chromemisc
0  37.671658 -27.692860 3.330848  0.942180 -0.271197 0.196848  0.194342 0.378887 1 1 1.000000
0  37.699184 -27.692860 3.165683  0.920639 -0.368535 0.128868  0.202155 0.360332 1 1 1.000000
0  37.699184 -27.513929 3.165683  0.990371 -0.001921 0.138428  0.199225 0.361309 1 1 1.000000
chromemisc
0  37.300034 -27.692860 2.862878  0.377724 -0.377046 -0.845672  0.212897 0.295877 1 1 1.000000
0  37.712952 -27.692860 3.055572  0.816162 -0.365438 -0.447587  0.212897 0.348613 1 1 1.000000
0  37.547783 -27.858027 3.138155  0.568622 -0.755518 -0.325363  0.216803 0.348613 1 1 1.000000
chromemisc
0  37.547783 -27.858027 3.138155  0.568622 -0.755518 -0.325363  0.216803 0.348613 1 1 1.000000
0  37.203686 -27.858027 3.000516  0.292742 -0.679459 -0.672783  0.216803 0.295877 1 1 1.000000
0  37.300034 -27.692860 2.862878  0.377724 -0.377046 -0.845672  0.212897 0.295877 1 1 1.000000
chromemisc
0  37.699184 -27.692860 3.165683  0.920639 -0.368535 0.128868  0.202155 0.360332 1 1 1.000000
0  37.547783 -27.858027 3.138155  0.568622 -0.755518 -0.325363  0.216803 0.348613 1 1 1.000000
0  37.712952 -27.692860 3.055572  0.816162 -0.365438 -0.447587  0.212897 0.348613 1 1 1.000000
chromemisc
0  37.699184 -27.692860 3.165683  0.920639 -0.368535 0.128868  0.202155 0.360332 1 1 1.000000
0  37.671658 -27.692860 3.330848  0.942180 -0.271197 0.196848  0.194342 0.378887 1 1 1.000000
0  37.520256 -27.858027 3.303321  0.734126 -0.662159 -0.150348  0.196295 0.378887 1 1 1.000000
chromemisc
0  37.520256 -27.858027 3.303321  0.734126 -0.662159 -0.150348  0.196295 0.378887 1 1 1.000000
0  37.547783 -27.858027 3.138155  0.568622 -0.755518 -0.325363  0.216803 0.348613 1 1 1.000000
0  37.699184 -27.692860 3.165683  0.920639 -0.368535 0.128868  0.202155 0.360332 1 1 1.000000
chromemisc
0  37.244968 42.626644 2.064574  -0.007625 0.999693 -0.023558  0.093753 0.223609 1 1 1.000000
0  37.506485 42.640408 2.518781  -0.007626 0.999693 -0.023558  0.087893 0.227515 1 1 1.000000
0  37.616596 42.626644 2.160921  -0.007621 0.999694 -0.023552  0.087893 0.227515 1 1 1.000000
skin_0
0  34.795006 30.239180 0.247747  0.718339 -0.017503 -0.695473  0.087893 0.392560 1 1 1.000000
0  37.052277 30.239180 2.587601  0.721231 -0.014851 -0.692536  0.100589 0.392560 1 1 1.000000
0  37.066044 27.734158 2.587601  0.717774 -0.000828 -0.696276  0.100589 0.401349 1 1 1.000000
skin_0
0  37.066044 27.734158 2.587601  0.717774 -0.000828 -0.696276  0.100589 0.401349 1 1 1.000000
0  34.781242 27.734158 0.247747  0.716738 -0.001952 -0.697340  0.087893 0.401349 1 1 1.000000
0  34.795006 30.239180 0.247747  0.718339 -0.017503 -0.695473  0.087893 0.392560 1 1 1.000000
skin_0
0  37.052277 30.239180 2.587601  0.721231 -0.014851 -0.692536  0.100589 0.392560 1 1 1.000000
0  34.795006 30.239180 0.247747  0.718339 -0.017503 -0.695473  0.087893 0.392560 1 1 1.000000
0  34.973938 33.941654 0.247747  0.726247 -0.042957 -0.686090  0.087893 0.379864 1 1 1.000000
skin_0
0  34.973938 33.941654 0.247747  0.726247 -0.042957 -0.686090  0.087893 0.379864 1 1 1.000000
0  37.079803 33.941654 2.491254  0.732726 -0.035711 -0.679586  0.100589 0.379864 1 1 1.000000
0  37.052277 30.239180 2.587601  0.721231 -0.014851 -0.692536  0.100589 0.392560 1 1 1.000000
skin_0
0  37.134857 38.001987 2.339851  0.755388 -0.054812 -0.652981  0.099612 0.365215 1 1 1.000000
0  35.290504 37.988224 0.247747  0.744339 -0.066908 -0.664441  0.087893 0.365215 1 1 1.000000
0  35.634602 40.796055 0.247747  0.767386 -0.084629 -0.635576  0.087893 0.355449 1 1 1.000000
skin_0
0  35.634602 40.796055 0.247747  0.767386 -0.084629 -0.635576  0.087893 0.355449 1 1 1.000000
0  37.203678 40.796055 2.174685  0.781191 -0.063620 -0.621041  0.098636 0.355449 1 1 1.000000
0  37.134857 38.001987 2.339851  0.755388 -0.054812 -0.652981  0.099612 0.365215 1 1 1.000000
skin_0
0  37.244972 -10.749563 2.780294  0.696185 -0.001507 -0.717861  0.101566 0.537095 1 1 1.000000
0  34.616077 -10.735799 0.247747  0.695171 -0.002013 -0.718842  0.087893 0.537095 1 1 1.000000
0  34.657372 1.830594 0.247747  0.701810 -0.001984 -0.712361  0.087893 0.493149 1 1 1.000000
skin_0
0  34.657372 1.830594 0.247747  0.701810 -0.001984 -0.712361  0.087893 0.493149 1 1 1.000000
0  37.176155 1.830595 2.725239  0.702930 -0.001462 -0.711258  0.101566 0.493149 1 1 1.000000
0  37.244972 -10.749563 2.780294  0.696185 -0.001507 -0.717861  0.101566 0.537095 1 1 1.000000
skin_0
0  37.079803 33.941654 2.491254  0.732726 -0.035711 -0.679586  0.100589 0.379864 1 1 1.000000
0  34.973938 33.941654 0.247747  0.726247 -0.042957 -0.686090  0.087893 0.379864 1 1 1.000000
0  35.290504 37.988224 0.247747  0.744339 -0.066908 -0.664441  0.087893 0.365215 1 1 1.000000
skin_0
0  35.290504 37.988224 0.247747  0.744339 -0.066908 -0.664441  0.087893 0.365215 1 1 1.000000
0  37.134857 38.001987 2.339851  0.755388 -0.054812 -0.652981  0.099612 0.365215 1 1 1.000000
0  37.079803 33.941654 2.491254  0.732726 -0.035711 -0.679586  0.100589 0.379864 1 1 1.000000
skin_0
0  37.203678 40.796055 2.174685  0.781191 -0.063620 -0.621041  0.098636 0.355449 1 1 1.000000
0  35.634602 40.796055 0.247747  0.767386 -0.084629 -0.635576  0.087893 0.355449 1 1 1.000000
0  35.868587 42.612881 0.247747  0.782760 -0.081353 -0.616984  0.087893 0.348613 1 1 1.000000
skin_0
0  35.868587 42.612881 0.247747  0.782760 -0.081353 -0.616984  0.087893 0.348613 1 1 1.000000
0  37.244968 42.626644 2.064574  0.796617 -0.055383 -0.601942  0.097659 0.348613 1 1 1.000000
0  37.203678 40.796055 2.174685  0.781191 -0.063620 -0.621041  0.098636 0.355449 1 1 1.000000
skin_0
0  37.300034 -27.513929 2.862878  0.689304 -0.003954 -0.724461  0.102542 0.596667 1 1 1.000000
0  34.547264 -27.513929 0.247747  0.689251 -0.003950 -0.724512  0.087893 0.596667 1 1 1.000000
0  34.561024 -23.604998 0.247747  0.689149 -0.003271 -0.724612  0.087893 0.582995 1 1 1.000000
skin_0
0  34.561024 -23.604998 0.247747  0.689149 -0.003271 -0.724612  0.087893 0.582995 1 1 1.000000
0  37.300034 -23.618761 2.849114  0.689823 -0.003134 -0.723971  0.102542 0.582995 1 1 1.000000
0  37.300034 -27.513929 2.862878  0.689304 -0.003954 -0.724461  0.102542 0.596667 1 1 1.000000
skin_0
0  34.781242 27.734158 0.247747  0.716738 -0.001952 -0.697340  0.087893 0.401349 1 1 1.000000
0  37.066044 27.734158 2.587601  0.717774 -0.000828 -0.696276  0.100589 0.401349 1 1 1.000000
0  37.121098 12.965548 2.670184  0.709564 -0.001495 -0.704640  0.101566 0.453108 1 1 1.000000
skin_0
0  37.121098 12.965548 2.670184  0.709564 -0.001495 -0.704640  0.101566 0.453108 1 1 1.000000
0  34.712425 12.951784 0.247747  0.708354 -0.001975 -0.705855  0.087893 0.453108 1 1 1.000000
0  34.781242 27.734158 0.247747  0.716738 -0.001952 -0.697340  0.087893 0.401349 1 1 1.000000
skin_0
0  34.616077 -10.735799 0.247747  0.695171 -0.002013 -0.718842  0.087893 0.537095 1 1 1.000000
0  37.244972 -10.749563 2.780294  0.696185 -0.001507 -0.717861  0.101566 0.537095 1 1 1.000000
0  37.300034 -23.618761 2.849114  0.689823 -0.003134 -0.723971  0.102542 0.582995 1 1 1.000000
skin_0
0  37.300034 -23.618761 2.849114  0.689823 -0.003134 -0.723971  0.102542 0.582995 1 1 1.000000
0  34.561024 -23.604998 0.247747  0.689149 -0.003271 -0.724612  0.087893 0.582995 1 1 1.000000
0  34.616077 -10.735799 0.247747  0.695171 -0.002013 -0.718842  0.087893 0.537095 1 1 1.000000
skin_0
0  34.712425 12.951784 0.247747  0.708354 -0.001975 -0.705855  0.087893 0.453108 1 1 1.000000
0  37.121098 12.965548 2.670184  0.709564 -0.001495 -0.704640  0.101566 0.453108 1 1 1.000000
0  37.176155 1.830595 2.725239  0.702930 -0.001462 -0.711258  0.101566 0.493149 1 1 1.000000
skin_0
0  37.176155 1.830595 2.725239  0.702930 -0.001462 -0.711258  0.101566 0.493149 1 1 1.000000
0  34.657372 1.830594 0.247747  0.701810 -0.001984 -0.712361  0.087893 0.493149 1 1 1.000000
0  34.712425 12.951784 0.247747  0.708354 -0.001975 -0.705855  0.087893 0.453108 1 1 1.000000
skin_0
0  34.547264 -27.513929 0.247747  0.689251 -0.003950 -0.724512  0.087893 0.596667 1 1 1.000000
0  37.300034 -27.513929 2.862878  0.689304 -0.003954 -0.724461  0.102542 0.596667 1 1 1.000000
0  37.300034 -27.692860 2.862878  0.637524 -0.380217 -0.670074  0.102542 0.597644 1 1 1.000000
skin_0
0  37.300034 -27.692860 2.862878  0.637524 -0.380217 -0.670074  0.102542 0.597644 1 1 1.000000
0  34.547264 -27.692860 0.247747  0.640177 -0.371632 -0.672356  0.087893 0.597644 1 1 1.000000
0  34.547264 -27.513929 0.247747  0.689251 -0.003950 -0.724512  0.087893 0.596667 1 1 1.000000
skin_0
0  34.547264 -27.692860 0.247747  0.640177 -0.371632 -0.672356  0.087893 0.597644 1 1 1.000000
0  37.300034 -27.692860 2.862878  0.637524 -0.380217 -0.670074  0.102542 0.597644 1 1 1.000000
0  37.203686 -27.858027 3.000516  0.505100 -0.680418 -0.530948  0.102542 0.597644 1 1 1.000000
skin_0
0  37.203686 -27.858027 3.000516  0.505100 -0.680418 -0.530948  0.102542 0.597644 1 1 1.000000
0  34.437153 -27.858027 0.357857  0.501485 -0.685737 -0.527520  0.088870 0.597644 1 1 1.000000
0  34.547264 -27.692860 0.247747  0.640177 -0.371632 -0.672356  0.087893 0.597644 1 1 1.000000
skin_0
0  33.198410 -27.858027 0.247747  0.005004 -0.033369 -0.999431  0.087893 0.597644 1 1 1.000000
0  33.033241 -27.692860 0.247747  0.000000 0.002205 -0.999998  0.087893 0.596667 1 1 1.000000
0  34.547264 -27.692860 0.247747  0.028440 -0.226252 -0.973654  0.087893 0.597644 1 1 1.000000
skin_0
0  34.547264 -27.692860 0.247747  0.028548 -0.226912 -0.973497  0.087893 0.597644 1 1 1.000000
0  34.437153 -27.858027 0.357857  0.074440 -0.593209 -0.801600  0.088870 0.597644 1 1 1.000000
0  33.198410 -27.858027 0.247747  0.005017 -0.033345 -0.999431  0.087893 0.597644 1 1 1.000000
skin_0
0  37.589073 -23.618761 3.482251  0.870246 0.003418 0.492606  0.990265 0.038057 1 1 1.000000
0  37.685421 -23.618761 3.330848  0.947838 0.002440 0.318745  0.009766 0.028291 1 1 1.000000
0  37.630363 -10.749563 3.275793  0.947661 0.006000 0.319223  0.009766 0.024384 1 1 1.000000
skin_0
0  37.630363 -10.749563 3.275793  0.947661 0.006000 0.319223  0.009766 0.024384 1 1 1.000000
0  37.534016 -10.749563 3.427195  0.870555 0.005951 0.492034  0.990265 0.034150 1 1 1.000000
0  37.589073 -23.618761 3.482251  0.870246 0.003418 0.492606  0.990265 0.038057 1 1 1.000000
skin_0
0  37.423904 12.965548 3.330848  0.871109 0.006011 0.491053  0.990265 0.028291 1 1 1.000000
0  37.506489 12.965548 3.179446  0.948139 0.005652 0.317807  0.009766 0.018525 1 1 1.000000
0  37.437668 27.734158 3.110627  0.966581 -0.036506 0.253750  0.009766 0.014618 1 1 1.000000
skin_0
0  37.437668 27.734158 3.110627  0.966581 -0.036506 0.253750  0.009766 0.014618 1 1 1.000000
0  37.355083 27.734158 3.289557  0.885708 -0.139202 0.442881  0.990265 0.025361 1 1 1.000000
0  37.423904 12.965548 3.330848  0.871109 0.006011 0.491053  0.990265 0.028291 1 1 1.000000
skin_0
0  37.589073 -27.913084 3.509778  0.924414 -0.380892 -0.019472  0.990265 0.039033 1 1 1.000000
0  37.671658 -27.513929 3.330848  0.955059 -0.001860 0.296409  0.009766 0.028291 1 1 1.000000
0  37.685421 -23.618761 3.330848  0.947838 0.002440 0.318745  0.009766 0.028291 1 1 1.000000
skin_0
0  37.685421 -23.618761 3.330848  0.947838 0.002440 0.318745  0.009766 0.028291 1 1 1.000000
0  37.589073 -23.618761 3.482251  0.870246 0.003418 0.492606  0.990265 0.038057 1 1 1.000000
0  37.589073 -27.913084 3.509778  0.924414 -0.380892 -0.019472  0.990265 0.039033 1 1 1.000000
skin_0
0  37.506489 12.965548 3.179446  0.948139 0.005652 0.317807  0.009766 0.018525 1 1 1.000000
0  37.423904 12.965548 3.330848  0.871109 0.006011 0.491053  0.990265 0.028291 1 1 1.000000
0  37.465195 1.830595 3.385904  0.870892 0.005982 0.491437  0.990265 0.031220 1 1 1.000000
skin_0
0  37.465195 1.830595 3.385904  0.870892 0.005982 0.491437  0.990265 0.031220 1 1 1.000000
0  37.561543 1.830595 3.220737  0.948091 0.005618 0.317948  0.009766 0.021455 1 1 1.000000
0  37.506489 12.965548 3.179446  0.948139 0.005652 0.317807  0.009766 0.018525 1 1 1.000000
skin_0
0  37.410141 27.899324 3.275793  0.971449 -0.085654 0.221245  0.009766 0.025361 1 1 1.000000
0  37.355083 27.734158 3.289557  0.885708 -0.139202 0.442881  0.990265 0.025361 1 1 1.000000
0  37.437668 27.734158 3.110627  0.966581 -0.036506 0.253750  0.009766 0.014618 1 1 1.000000
skin_0
0  37.561543 1.830595 3.220737  0.948091 0.005618 0.317948  0.009766 0.021455 1 1 1.000000
0  37.465195 1.830595 3.385904  0.870892 0.005982 0.491437  0.990265 0.031220 1 1 1.000000
0  37.534016 -10.749563 3.427195  0.870555 0.005951 0.492034  0.990265 0.034150 1 1 1.000000
skin_0
0  37.534016 -10.749563 3.427195  0.870555 0.005951 0.492034  0.990265 0.034150 1 1 1.000000
0  37.630363 -10.749563 3.275793  0.947661 0.006000 0.319223  0.009766 0.024384 1 1 1.000000
0  37.561543 1.830595 3.220737  0.948091 0.005618 0.317948  0.009766 0.021455 1 1 1.000000
skin_0
0  37.589073 -27.913084 3.509778  0.924414 -0.380892 -0.019472  0.990265 0.039033 1 1 1.000000
0  37.671658 -27.692860 3.330848  0.942180 -0.271197 0.196848  0.009766 0.028291 1 1 1.000000
0  37.671658 -27.513929 3.330848  0.955059 -0.001860 0.296409  0.009766 0.028291 1 1 1.000000
skin_0
0  37.589073 -27.913084 3.509778  0.924414 -0.380892 -0.019472  0.990265 0.039033 1 1 1.000000
0  37.520256 -27.858027 3.303321  0.734126 -0.662159 -0.150348  0.009766 0.028291 1 1 1.000000
0  37.671658 -27.692860 3.330848  0.942180 -0.271197 0.196848  0.009766 0.028291 1 1 1.000000
black
0  36.171391 43.232254 0.316566  0.000255 0.111515 -0.993763  0.935575 0.123997 1 1 1.000000
0  36.171391 42.860626 0.275274  0.000282 0.110926 -0.993829  0.931669 0.122043 1 1 1.000000
0  32.620316 43.246017 0.316566  -0.019334 0.015690 -0.999690  0.929716 0.078097 1 1 1.000000
black
0  36.171391 42.860626 0.275274  0.000282 0.110926 -0.993829  0.931669 0.122043 1 1 1.000000
0  35.868587 42.612881 0.247747  -0.008691 0.065423 -0.997820  0.929716 0.113254 1 1 1.000000
0  32.620316 43.246017 0.316566  -0.019334 0.015690 -0.999690  0.929716 0.078097 1 1 1.000000
black
0  34.795006 30.239180 0.247747  -0.030216 0.000237 -0.999543  0.811548 0.085910 1 1 1.000000
0  34.781242 27.734158 0.247747  -0.030794 0.000145 -0.999526  0.787133 0.084933 1 1 1.000000
0  32.620316 43.246017 0.316566  -0.019415 0.015326 -0.999694  0.799829 0.049776 1 1 1.000000
black
0  34.973938 33.941654 0.247747  -0.024314 0.001244 -0.999704  0.846706 0.090793 1 1 1.000000
0  34.795006 30.239180 0.247747  -0.030216 0.000237 -0.999543  0.811548 0.085910 1 1 1.000000
0  32.620316 43.246017 0.316566  -0.019415 0.015326 -0.999694  0.799829 0.049776 1 1 1.000000
black
0  35.634602 40.796055 0.247747  -0.021043 0.002466 -0.999775  0.912137 0.107395 1 1 1.000000
0  35.290504 37.988224 0.247747  -0.022359 0.001806 -0.999748  0.885769 0.098605 1 1 1.000000
0  32.620316 43.246017 0.316566  -0.019415 0.015326 -0.999694  0.799829 0.049776 1 1 1.000000
black
0  34.712425 12.951784 0.247747  -0.020545 0.000826 -0.999789  0.646504 0.081027 1 1 1.000000
0  34.657372 1.830594 0.247747  0.000478 -0.000032 -1.000000  0.540056 0.079073 1 1 1.000000
0  33.033241 -27.513929 0.247747  -0.000309 0.000013 -1.000000  0.358409 0.039033 1 1 1.000000
black
0  33.033241 -27.513929 0.247747  -0.000309 0.000013 -1.000000  0.358409 0.039033 1 1 1.000000
0  32.620316 43.246017 0.316566  -0.019415 0.015326 -0.999694  0.799829 0.049776 1 1 1.000000
0  34.712425 12.951784 0.247747  -0.020545 0.000826 -0.999789  0.646504 0.081027 1 1 1.000000
black
0  35.290504 37.988224 0.247747  -0.022359 0.001806 -0.999748  0.885769 0.098605 1 1 1.000000
0  34.973938 33.941654 0.247747  -0.024314 0.001244 -0.999704  0.846706 0.090793 1 1 1.000000
0  32.620316 43.246017 0.316566  -0.019415 0.015326 -0.999694  0.799829 0.049776 1 1 1.000000
black
0  35.868587 42.612881 0.247747  -0.008698 0.065391 -0.997822  0.929716 0.113254 1 1 1.000000
0  35.634602 40.796055 0.247747  -0.021043 0.002466 -0.999775  0.912137 0.107395 1 1 1.000000
0  32.620316 43.246017 0.316566  -0.019415 0.015326 -0.999694  0.799829 0.049776 1 1 1.000000
black
0  34.547264 -27.692860 0.247747  0.028440 -0.226252 -0.973654  0.257820 0.071261 1 1 1.000000
0  33.033241 -27.692860 0.247747  0.000000 0.002205 -0.999998  0.256844 0.036103 1 1 1.000000
0  33.033241 -27.513929 0.247747  -0.000309 0.000013 -1.000000  0.358409 0.039033 1 1 1.000000
black
0  33.033241 -27.513929 0.247747  -0.000309 0.000013 -1.000000  0.358409 0.039033 1 1 1.000000
0  34.547264 -27.513929 0.247747  0.000000 0.000000 -1.000000  0.259774 0.071261 1 1 1.000000
0  34.547264 -27.692860 0.247747  0.028440 -0.226252 -0.973654  0.257820 0.071261 1 1 1.000000
black
0  34.616077 -10.735799 0.247747  0.000478 -0.000032 -1.000000  0.419935 0.076144 1 1 1.000000
0  34.561024 -23.604998 0.247747  0.000000 0.000000 -1.000000  0.296884 0.073214 1 1 1.000000
0  33.033241 -27.513929 0.247747  -0.000309 0.000013 -1.000000  0.358409 0.039033 1 1 1.000000
black
0  33.033241 -27.692860 1.555312  -0.928743 -0.370714 0.002774  0.255867 0.041963 1 1 1.000000
0  32.647846 42.557827 1.541548  -0.999687 -0.005279 0.024467  0.799829 0.049776 1 1 1.000000
0  32.620316 43.246017 0.316566  -0.999697 -0.005280 0.024035  0.799829 0.049776 1 1 1.000000
black
0  32.620316 43.246017 0.316566  -0.999697 -0.005280 0.024025  0.799829 0.049776 1 1 1.000000
0  33.033241 -27.513929 0.247747  -0.999980 -0.005640 0.002860  0.358409 0.039033 1 1 1.000000
0  33.033241 -27.692860 1.555312  -0.928644 -0.370961 0.002779  0.255867 0.041963 1 1 1.000000
black
0  33.033241 -27.692860 0.247747  -0.928125 -0.372259 0.002676  0.256844 0.036103 1 1 1.000000
0  33.033241 -27.692860 1.555312  -0.928644 -0.370961 0.002779  0.255867 0.041963 1 1 1.000000
0  33.033241 -27.513929 0.247747  -0.999980 -0.005640 0.002860  0.358409 0.039033 1 1 1.000000
black
0  33.033241 -27.692860 1.555312  -0.928644 -0.370961 0.002779  0.255867 0.041963 1 1 1.000000
0  33.033241 -27.692860 0.247747  -0.928125 -0.372259 0.002676  0.256844 0.036103 1 1 1.000000
0  33.198410 -27.858027 0.247747  -0.727219 -0.686402 0.002092  0.255867 0.036103 1 1 1.000000
black
0  33.198410 -27.858027 0.247747  -0.727219 -0.686402 0.002092  0.255867 0.036103 1 1 1.000000
0  33.198410 -27.858027 1.555312  -0.727297 -0.686320 0.002070  0.254891 0.041963 1 1 1.000000
0  33.033241 -27.692860 1.555312  -0.928644 -0.370961 0.002779  0.255867 0.041963 1 1 1.000000
black
0  33.033241 -27.513929 0.247747  -0.000309 0.000013 -1.000000  0.358409 0.039033 1 1 1.000000
0  34.561024 -23.604998 0.247747  0.000000 0.000000 -1.000000  0.296884 0.073214 1 1 1.000000
0  34.547264 -27.513929 0.247747  0.000000 0.000000 -1.000000  0.259774 0.071261 1 1 1.000000
black
0  32.620316 43.246017 0.316566  -0.019415 0.015326 -0.999694  0.799829 0.049776 1 1 1.000000
0  34.781242 27.734158 0.247747  -0.030794 0.000145 -0.999526  0.787133 0.084933 1 1 1.000000
0  34.712425 12.951784 0.247747  -0.020545 0.000826 -0.999789  0.646504 0.081027 1 1 1.000000
black
0  34.657372 1.830594 0.247747  0.000478 -0.000032 -1.000000  0.540056 0.079073 1 1 1.000000
0  34.616077 -10.735799 0.247747  0.000478 -0.000032 -1.000000  0.419935 0.076144 1 1 1.000000
0  33.033241 -27.513929 0.247747  -0.000309 0.000013 -1.000000  0.358409 0.039033 1 1 1.000000
chromemisc
0  -37.671654 -10.749569 2.986758  -0.879214 0.001620 -0.476423  0.504898 0.348613 1 1 1.000000
0  -37.726707 -23.618765 3.041813  -0.877513 -0.000794 -0.479552  0.123051 0.348613 1 1 1.000000
0  -37.712944 -23.618765 3.165688  -0.990978 0.001463 0.134019  0.123051 0.361309 1 1 1.000000
chromemisc
0  -37.712944 -23.618765 3.165688  -0.990978 0.001463 0.134019  0.123051 0.361309 1 1 1.000000
0  -37.644127 -10.749569 3.110632  -0.991033 0.005004 0.133520  0.138676 0.361309 1 1 1.000000
0  -37.671654 -10.749569 2.986758  -0.879214 0.001620 -0.476423  0.504898 0.348613 1 1 1.000000
chromemisc
0  -37.520256 33.941647 2.683953  -0.884366 -0.023162 -0.466218  0.484390 0.348613 1 1 1.000000
0  -37.492729 30.239176 2.794064  -0.887020 -0.007628 -0.461669  0.424818 0.348613 1 1 1.000000
0  -37.437672 30.239176 3.262035  -0.991148 0.001278 0.132752  0.424818 0.398419 1 1 1.000000
chromemisc
0  -37.437672 30.239176 3.262035  -0.991148 0.001278 0.132752  0.424818 0.398419 1 1 1.000000
0  -37.451435 33.941647 3.138160  -0.988104 -0.001402 0.153781  0.484390 0.398419 1 1 1.000000
0  -37.520256 33.941647 2.683953  -0.884366 -0.023162 -0.466218  0.484390 0.348613 1 1 1.000000
chromemisc
0  -37.616604 40.809811 2.298566  -0.873966 -0.044462 -0.483950  0.594745 0.348613 1 1 1.000000
0  -37.644131 42.626637 2.160927  -0.863688 -0.047600 -0.501773  0.624043 0.348613 1 1 1.000000
0  -37.272507 42.626637 2.064580  -0.268110 -0.075319 -0.960440  0.624043 0.295877 1 1 1.000000
chromemisc
0  -37.272507 42.626637 2.064580  -0.268110 -0.075319 -0.960440  0.624043 0.295877 1 1 1.000000
0  -37.231213 40.796047 2.174691  -0.313968 -0.068604 -0.946952  0.594745 0.295877 1 1 1.000000
0  -37.616604 40.809811 2.298566  -0.873966 -0.044462 -0.483950  0.594745 0.348613 1 1 1.000000
chromemisc
0  -37.506489 27.734154 2.807828  -0.885527 0.001771 -0.464585  0.384777 0.348613 1 1 1.000000
0  -37.492729 30.239176 2.794064  -0.887020 -0.007628 -0.461669  0.424818 0.348613 1 1 1.000000
0  -37.079811 30.239176 2.587606  -0.456125 -0.013551 -0.889812  0.424818 0.295877 1 1 1.000000
chromemisc
0  -37.079811 30.239176 2.587606  -0.456125 -0.013551 -0.889812  0.424818 0.295877 1 1 1.000000
0  -37.093571 27.734154 2.587606  -0.454522 -0.002255 -0.890733  0.384777 0.295877 1 1 1.000000
0  -37.506489 27.734154 2.807828  -0.885527 0.001771 -0.464585  0.384777 0.348613 1 1 1.000000
chromemisc
0  -37.616604 40.809811 2.298566  -0.873966 -0.044462 -0.483950  0.594745 0.348613 1 1 1.000000
0  -37.561546 38.001980 2.491259  -0.880273 -0.036105 -0.473092  0.549821 0.348613 1 1 1.000000
0  -37.478962 38.001980 2.917939  -0.980533 0.000762 0.196352  0.549821 0.398419 1 1 1.000000
chromemisc
0  -37.478962 38.001980 2.917939  -0.980533 0.000762 0.196352  0.549821 0.398419 1 1 1.000000
0  -37.520256 40.809811 2.683953  -0.969309 0.005861 0.245777  0.594745 0.398419 1 1 1.000000
0  -37.616604 40.809811 2.298566  -0.873966 -0.044462 -0.483950  0.594745 0.348613 1 1 1.000000
chromemisc
0  -37.506489 27.734154 2.807828  -0.885527 0.001771 -0.464585  0.384777 0.348613 1 1 1.000000
0  -37.575306 12.965542 2.876647  -0.883131 0.001708 -0.469123  0.124027 0.348613 1 1 1.000000
0  -37.561543 12.965542 3.000522  -0.991175 0.005061 0.132463  0.124027 0.362285 1 1 1.000000
chromemisc
0  -37.561543 12.965542 3.000522  -0.991175 0.005061 0.132463  0.124027 0.362285 1 1 1.000000
0  -37.492725 27.734154 2.945467  -0.991323 0.005310 0.131345  0.341807 0.362285 1 1 1.000000
0  -37.506489 27.734154 2.807828  -0.885527 0.001771 -0.464585  0.384777 0.348613 1 1 1.000000
chromemisc
0  -37.630363 1.830589 2.931703  -0.881301 0.001676 -0.472553  0.314463 0.348613 1 1 1.000000
0  -37.575306 12.965542 2.876647  -0.883131 0.001708 -0.469123  0.124027 0.348613 1 1 1.000000
0  -37.148624 12.965542 2.670189  -0.444797 -0.002289 -0.895628  0.124027 0.295877 1 1 1.000000
chromemisc
0  -37.148624 12.965542 2.670189  -0.444797 -0.002289 -0.895628  0.124027 0.295877 1 1 1.000000
0  -37.203682 1.830589 2.725245  -0.437456 -0.002351 -0.899237  0.314463 0.295877 1 1 1.000000
0  -37.630363 1.830589 2.931703  -0.881301 0.001676 -0.472553  0.314463 0.348613 1 1 1.000000
chromemisc
0  -37.451435 33.941647 3.138160  -0.988104 -0.001402 0.153781  0.484390 0.398419 1 1 1.000000
0  -37.478962 38.001980 2.917939  -0.980533 0.000762 0.196352  0.549821 0.398419 1 1 1.000000
0  -37.561546 38.001980 2.491259  -0.880273 -0.036105 -0.473092  0.549821 0.348613 1 1 1.000000
chromemisc
0  -37.561546 38.001980 2.491259  -0.880273 -0.036105 -0.473092  0.549821 0.348613 1 1 1.000000
0  -37.520256 33.941647 2.683953  -0.884366 -0.023162 -0.466218  0.484390 0.348613 1 1 1.000000
0  -37.451435 33.941647 3.138160  -0.988104 -0.001402 0.153781  0.484390 0.398419 1 1 1.000000
chromemisc
0  -37.162395 38.001980 2.339857  -0.377095 -0.054967 -0.924542  0.549821 0.295877 1 1 1.000000
0  -37.107338 33.941647 2.491259  -0.430626 -0.035005 -0.901851  0.484390 0.295877 1 1 1.000000
0  -37.520256 33.941647 2.683953  -0.884366 -0.023162 -0.466218  0.484390 0.348613 1 1 1.000000
chromemisc
0  -37.520256 33.941647 2.683953  -0.884366 -0.023162 -0.466218  0.484390 0.348613 1 1 1.000000
0  -37.561546 38.001980 2.491259  -0.880273 -0.036105 -0.473092  0.549821 0.348613 1 1 1.000000
0  -37.162395 38.001980 2.339857  -0.377095 -0.054967 -0.924542  0.549821 0.295877 1 1 1.000000
chromemisc
0  -37.561546 38.001980 2.491259  -0.880273 -0.036105 -0.473092  0.549821 0.348613 1 1 1.000000
0  -37.616604 40.809811 2.298566  -0.873966 -0.044462 -0.483950  0.594745 0.348613 1 1 1.000000
0  -37.231213 40.796047 2.174691  -0.313968 -0.068604 -0.946952  0.594745 0.295877 1 1 1.000000
chromemisc
0  -37.231213 40.796047 2.174691  -0.313968 -0.068604 -0.946952  0.594745 0.295877 1 1 1.000000
0  -37.162395 38.001980 2.339857  -0.377095 -0.054967 -0.924542  0.549821 0.295877 1 1 1.000000
0  -37.561546 38.001980 2.491259  -0.880273 -0.036105 -0.473092  0.549821 0.348613 1 1 1.000000
chromemisc
0  -37.644131 42.626637 2.160927  -0.863688 -0.047600 -0.501773  0.624043 0.348613 1 1 1.000000
0  -37.616604 40.809811 2.298566  -0.873966 -0.044462 -0.483950  0.594745 0.348613 1 1 1.000000
0  -37.520256 40.809811 2.683953  -0.969309 0.005861 0.245777  0.594745 0.398419 1 1 1.000000
chromemisc
0  -37.520256 40.809811 2.683953  -0.969309 0.005861 0.245777  0.594745 0.398419 1 1 1.000000
0  -37.534019 42.640400 2.518787  -0.959412 0.012675 0.281723  0.624043 0.398419 1 1 1.000000
0  -37.644131 42.626637 2.160927  -0.863688 -0.047600 -0.501773  0.624043 0.348613 1 1 1.000000
chromemisc
0  -37.492729 30.239176 2.794064  -0.887020 -0.007628 -0.461669  0.424818 0.348613 1 1 1.000000
0  -37.520256 33.941647 2.683953  -0.884366 -0.023162 -0.466218  0.484390 0.348613 1 1 1.000000
0  -37.107338 33.941647 2.491259  -0.430626 -0.035005 -0.901851  0.484390 0.295877 1 1 1.000000
chromemisc
0  -37.107338 33.941647 2.491259  -0.430626 -0.035005 -0.901851  0.484390 0.295877 1 1 1.000000
0  -37.079811 30.239176 2.587606  -0.456125 -0.013551 -0.889812  0.424818 0.295877 1 1 1.000000
0  -37.492729 30.239176 2.794064  -0.887020 -0.007628 -0.461669  0.424818 0.348613 1 1 1.000000
chromemisc
0  -37.712944 -27.513933 3.055577  -0.875865 -0.003369 -0.482544  0.208991 0.348613 1 1 1.000000
0  -37.726707 -23.618765 3.041813  -0.877513 -0.000794 -0.479552  0.123051 0.348613 1 1 1.000000
0  -37.300026 -23.618765 2.849120  -0.420234 -0.002843 -0.907411  0.123051 0.295877 1 1 1.000000
chromemisc
0  -37.300026 -23.618765 2.849120  -0.420234 -0.002843 -0.907411  0.123051 0.295877 1 1 1.000000
0  -37.300026 -27.513933 2.862883  -0.411556 -0.004031 -0.911376  0.208991 0.295877 1 1 1.000000
0  -37.712944 -27.513933 3.055577  -0.875865 -0.003369 -0.482544  0.208991 0.348613 1 1 1.000000
chromemisc
0  -37.726707 -23.618765 3.041813  -0.877513 -0.000794 -0.479552  0.123051 0.348613 1 1 1.000000
0  -37.712944 -27.513933 3.055577  -0.875865 -0.003369 -0.482544  0.208991 0.348613 1 1 1.000000
0  -37.699177 -27.513933 3.165688  -0.990371 -0.001921 0.138428  0.199225 0.361309 1 1 1.000000
chromemisc
0  -37.699177 -27.513933 3.165688  -0.990371 -0.001921 0.138428  0.199225 0.361309 1 1 1.000000
0  -37.712944 -23.618765 3.165688  -0.990978 0.001463 0.134019  0.123051 0.361309 1 1 1.000000
0  -37.726707 -23.618765 3.041813  -0.877513 -0.000794 -0.479552  0.123051 0.348613 1 1 1.000000
chromemisc
0  -37.630363 1.830589 2.931703  -0.881301 0.001676 -0.472553  0.314463 0.348613 1 1 1.000000
0  -37.671654 -10.749569 2.986758  -0.879214 0.001620 -0.476423  0.504898 0.348613 1 1 1.000000
0  -37.644127 -10.749569 3.110632  -0.991033 0.005004 0.133520  0.138676 0.361309 1 1 1.000000
chromemisc
0  -37.644127 -10.749569 3.110632  -0.991033 0.005004 0.133520  0.138676 0.361309 1 1 1.000000
0  -37.602837 1.830589 3.055577  -0.991106 0.005034 0.132981  0.314463 0.362285 1 1 1.000000
0  -37.630363 1.830589 2.931703  -0.881301 0.001676 -0.472553  0.314463 0.348613 1 1 1.000000
chromemisc
0  -37.575306 12.965542 2.876647  -0.883131 0.001708 -0.469123  0.124027 0.348613 1 1 1.000000
0  -37.506489 27.734154 2.807828  -0.885527 0.001771 -0.464585  0.384777 0.348613 1 1 1.000000
0  -37.093571 27.734154 2.587606  -0.454522 -0.002255 -0.890733  0.384777 0.295877 1 1 1.000000
chromemisc
0  -37.093571 27.734154 2.587606  -0.454522 -0.002255 -0.890733  0.384777 0.295877 1 1 1.000000
0  -37.148624 12.965542 2.670189  -0.444797 -0.002289 -0.895628  0.124027 0.295877 1 1 1.000000
0  -37.575306 12.965542 2.876647  -0.883131 0.001708 -0.469123  0.124027 0.348613 1 1 1.000000
chromemisc
0  -37.492729 30.239176 2.794064  -0.887020 -0.007628 -0.461669  0.424818 0.348613 1 1 1.000000
0  -37.506489 27.734154 2.807828  -0.885527 0.001771 -0.464585  0.384777 0.348613 1 1 1.000000
0  -37.492725 27.734154 2.945467  -0.991323 0.005310 0.131345  0.341807 0.362285 1 1 1.000000
chromemisc
0  -37.492729 30.239176 2.794064  -0.887020 -0.007628 -0.461669  0.424818 0.348613 1 1 1.000000
0  -37.492725 27.734154 2.945467  -0.991323 0.005310 0.131345  0.341807 0.362285 1 1 1.000000
0  -37.437668 28.064486 3.275799  -0.991238 0.005099 0.131993  0.341807 0.398419 1 1 1.000000
chromemisc
0  -37.492729 30.239176 2.794064  -0.887020 -0.007628 -0.461669  0.424818 0.348613 1 1 1.000000
0  -37.437668 28.064486 3.275799  -0.991238 0.005099 0.131993  0.341807 0.398419 1 1 1.000000
0  -37.437672 30.239176 3.262035  -0.991148 0.001278 0.132752  0.424818 0.398419 1 1 1.000000
chromemisc
0  -37.726707 -23.618765 3.041813  -0.877513 -0.000794 -0.479552  0.123051 0.348613 1 1 1.000000
0  -37.671654 -10.749569 2.986758  -0.879214 0.001620 -0.476423  0.504898 0.348613 1 1 1.000000
0  -37.244972 -10.749569 2.780300  -0.429101 -0.002380 -0.903253  0.504898 0.295877 1 1 1.000000
chromemisc
0  -37.244972 -10.749569 2.780300  -0.429101 -0.002380 -0.903253  0.504898 0.295877 1 1 1.000000
0  -37.300026 -23.618765 2.849120  -0.420234 -0.002843 -0.907411  0.123051 0.295877 1 1 1.000000
0  -37.726707 -23.618765 3.041813  -0.877513 -0.000794 -0.479552  0.123051 0.348613 1 1 1.000000
chromemisc
0  -37.644127 -10.749569 3.110632  -0.991033 0.005004 0.133520  0.138676 0.361309 1 1 1.000000
0  -37.712944 -23.618765 3.165688  -0.990978 0.001463 0.134019  0.123051 0.361309 1 1 1.000000
0  -37.685413 -23.618765 3.330854  -0.947837 0.002440 0.318747  0.127934 0.380840 1 1 1.000000
chromemisc
0  -37.685413 -23.618765 3.330854  -0.947837 0.002440 0.318747  0.127934 0.380840 1 1 1.000000
0  -37.630363 -10.749569 3.275799  -0.947650 0.004964 0.319273  0.128910 0.363262 1 1 1.000000
0  -37.644127 -10.749569 3.110632  -0.991033 0.005004 0.133520  0.138676 0.361309 1 1 1.000000
chromemisc
0  -37.492725 27.734154 2.945467  -0.991323 0.005310 0.131345  0.341807 0.362285 1 1 1.000000
0  -37.561543 12.965542 3.000522  -0.991175 0.005061 0.132463  0.124027 0.362285 1 1 1.000000
0  -37.534016 12.965542 3.179452  -0.948186 0.005648 0.317665  0.123051 0.368145 1 1 1.000000
chromemisc
0  -37.534016 12.965542 3.179452  -0.948186 0.005648 0.317665  0.123051 0.368145 1 1 1.000000
0  -37.465195 27.734154 3.110632  -0.966573 -0.036466 0.253785  0.336924 0.369121 1 1 1.000000
0  -37.492725 27.734154 2.945467  -0.991323 0.005310 0.131345  0.341807 0.362285 1 1 1.000000
chromemisc
0  -37.712944 -23.618765 3.165688  -0.990978 0.001463 0.134019  0.123051 0.361309 1 1 1.000000
0  -37.699177 -27.513933 3.165688  -0.990371 -0.001921 0.138428  0.199225 0.361309 1 1 1.000000
0  -37.671650 -27.513933 3.330854  -0.955089 -0.001869 0.296314  0.191412 0.378887 1 1 1.000000
chromemisc
0  -37.671650 -27.513933 3.330854  -0.955089 -0.001869 0.296314  0.191412 0.378887 1 1 1.000000
0  -37.685413 -23.618765 3.330854  -0.947837 0.002440 0.318747  0.127934 0.380840 1 1 1.000000
0  -37.712944 -23.618765 3.165688  -0.990978 0.001463 0.134019  0.123051 0.361309 1 1 1.000000
chromemisc
0  -37.561543 12.965542 3.000522  -0.991175 0.005061 0.132463  0.124027 0.362285 1 1 1.000000
0  -37.602837 1.830589 3.055577  -0.991106 0.005034 0.132981  0.314463 0.362285 1 1 1.000000
0  -37.589069 1.830589 3.220743  -0.948110 0.005604 0.317893  0.187506 0.368145 1 1 1.000000
chromemisc
0  -37.589069 1.830589 3.220743  -0.948110 0.005604 0.317893  0.187506 0.368145 1 1 1.000000
0  -37.534016 12.965542 3.179452  -0.948186 0.005648 0.317665  0.123051 0.368145 1 1 1.000000
0  -37.561543 12.965542 3.000522  -0.991175 0.005061 0.132463  0.124027 0.362285 1 1 1.000000
chromemisc
0  -37.465195 27.734154 3.110632  -0.966573 -0.036466 0.253785  0.336924 0.369121 1 1 1.000000
0  -37.437668 27.899321 3.275799  -0.971454 -0.085638 0.221231  0.335948 0.397443 1 1 1.000000
0  -37.437668 28.064486 3.275799  -0.991238 0.005099 0.131993  0.341807 0.398419 1 1 1.000000
chromemisc
0  -37.437668 28.064486 3.275799  -0.991238 0.005099 0.131993  0.341807 0.398419 1 1 1.000000
0  -37.492725 27.734154 2.945467  -0.991323 0.005310 0.131345  0.341807 0.362285 1 1 1.000000
0  -37.465195 27.734154 3.110632  -0.966573 -0.036466 0.253785  0.336924 0.369121 1 1 1.000000
chromemisc
0  -37.671654 -10.749569 2.986758  -0.879214 0.001620 -0.476423  0.504898 0.348613 1 1 1.000000
0  -37.630363 1.830589 2.931703  -0.881301 0.001676 -0.472553  0.314463 0.348613 1 1 1.000000
0  -37.203682 1.830589 2.725245  -0.437456 -0.002351 -0.899237  0.314463 0.295877 1 1 1.000000
chromemisc
0  -37.203682 1.830589 2.725245  -0.437456 -0.002351 -0.899237  0.314463 0.295877 1 1 1.000000
0  -37.244972 -10.749569 2.780300  -0.429101 -0.002380 -0.903253  0.504898 0.295877 1 1 1.000000
0  -37.671654 -10.749569 2.986758  -0.879214 0.001620 -0.476423  0.504898 0.348613 1 1 1.000000
chromemisc
0  -37.575306 12.965542 2.876647  -0.883131 0.001708 -0.469123  0.124027 0.348613 1 1 1.000000
0  -37.630363 1.830589 2.931703  -0.881301 0.001676 -0.472553  0.314463 0.348613 1 1 1.000000
0  -37.602837 1.830589 3.055577  -0.991106 0.005034 0.132981  0.314463 0.362285 1 1 1.000000
chromemisc
0  -37.602837 1.830589 3.055577  -0.991106 0.005034 0.132981  0.314463 0.362285 1 1 1.000000
0  -37.561543 12.965542 3.000522  -0.991175 0.005061 0.132463  0.124027 0.362285 1 1 1.000000
0  -37.575306 12.965542 2.876647  -0.883131 0.001708 -0.469123  0.124027 0.348613 1 1 1.000000
chromemisc
0  -37.630363 -10.749569 3.275799  -0.947650 0.004964 0.319273  0.128910 0.363262 1 1 1.000000
0  -37.589069 1.830589 3.220743  -0.948110 0.005604 0.317893  0.187506 0.368145 1 1 1.000000
0  -37.602837 1.830589 3.055577  -0.991106 0.005034 0.132981  0.314463 0.362285 1 1 1.000000
chromemisc
0  -37.602837 1.830589 3.055577  -0.991106 0.005034 0.132981  0.314463 0.362285 1 1 1.000000
0  -37.644127 -10.749569 3.110632  -0.991033 0.005004 0.133520  0.138676 0.361309 1 1 1.000000
0  -37.630363 -10.749569 3.275799  -0.947650 0.004964 0.319273  0.128910 0.363262 1 1 1.000000
chromemisc
0  -37.300026 -27.513933 2.862883  -0.411556 -0.004031 -0.911376  0.208991 0.295877 1 1 1.000000
0  -37.300026 -27.692863 2.862883  -0.377727 -0.377045 -0.845671  0.212897 0.295877 1 1 1.000000
0  -37.712944 -27.692863 3.055577  -0.816168 -0.365433 -0.447580  0.212897 0.348613 1 1 1.000000
chromemisc
0  -37.712944 -27.692863 3.055577  -0.816168 -0.365433 -0.447580  0.212897 0.348613 1 1 1.000000
0  -37.712944 -27.513933 3.055577  -0.875865 -0.003369 -0.482544  0.208991 0.348613 1 1 1.000000
0  -37.300026 -27.513933 2.862883  -0.411556 -0.004031 -0.911376  0.208991 0.295877 1 1 1.000000
chromemisc
0  -37.712944 -27.513933 3.055577  -0.875865 -0.003369 -0.482544  0.208991 0.348613 1 1 1.000000
0  -37.712944 -27.692863 3.055577  -0.816168 -0.365433 -0.447580  0.212897 0.348613 1 1 1.000000
0  -37.699177 -27.692863 3.165688  -0.920640 -0.368529 0.128875  0.202155 0.360332 1 1 1.000000
chromemisc
0  -37.699177 -27.692863 3.165688  -0.920640 -0.368529 0.128875  0.202155 0.360332 1 1 1.000000
0  -37.699177 -27.513933 3.165688  -0.990371 -0.001921 0.138428  0.199225 0.361309 1 1 1.000000
0  -37.712944 -27.513933 3.055577  -0.875865 -0.003369 -0.482544  0.208991 0.348613 1 1 1.000000
chromemisc
0  -37.699177 -27.513933 3.165688  -0.990371 -0.001921 0.138428  0.199225 0.361309 1 1 1.000000
0  -37.699177 -27.692863 3.165688  -0.920640 -0.368529 0.128875  0.202155 0.360332 1 1 1.000000
0  -37.671650 -27.692863 3.330854  -0.942214 -0.271153 0.196748  0.194342 0.378887 1 1 1.000000
chromemisc
0  -37.671650 -27.692863 3.330854  -0.942214 -0.271153 0.196748  0.194342 0.378887 1 1 1.000000
0  -37.671650 -27.513933 3.330854  -0.955089 -0.001869 0.296314  0.191412 0.378887 1 1 1.000000
0  -37.699177 -27.513933 3.165688  -0.990371 -0.001921 0.138428  0.199225 0.361309 1 1 1.000000
chromemisc
0  -37.300026 -27.692863 2.862883  -0.377727 -0.377045 -0.845671  0.212897 0.295877 1 1 1.000000
0  -37.203678 -27.858030 3.000522  -0.292741 -0.679463 -0.672780  0.216803 0.295877 1 1 1.000000
0  -37.547775 -27.858030 3.138160  -0.568624 -0.755518 -0.325360  0.216803 0.348613 1 1 1.000000
chromemisc
0  -37.547775 -27.858030 3.138160  -0.568624 -0.755518 -0.325360  0.216803 0.348613 1 1 1.000000
0  -37.712944 -27.692863 3.055577  -0.816168 -0.365433 -0.447580  0.212897 0.348613 1 1 1.000000
0  -37.300026 -27.692863 2.862883  -0.377727 -0.377045 -0.845671  0.212897 0.295877 1 1 1.000000
chromemisc
0  -37.699177 -27.692863 3.165688  -0.920640 -0.368529 0.128875  0.202155 0.360332 1 1 1.000000
0  -37.712944 -27.692863 3.055577  -0.816168 -0.365433 -0.447580  0.212897 0.348613 1 1 1.000000
0  -37.547775 -27.858030 3.138160  -0.568624 -0.755518 -0.325360  0.216803 0.348613 1 1 1.000000
chromemisc
0  -37.699177 -27.692863 3.165688  -0.920640 -0.368529 0.128875  0.202155 0.360332 1 1 1.000000
0  -37.547775 -27.858030 3.138160  -0.568624 -0.755518 -0.325360  0.216803 0.348613 1 1 1.000000
0  -37.520248 -27.858030 3.303327  -0.734150 -0.662127 -0.150372  0.196295 0.378887 1 1 1.000000
chromemisc
0  -37.520248 -27.858030 3.303327  -0.734150 -0.662127 -0.150372  0.196295 0.378887 1 1 1.000000
0  -37.671650 -27.692863 3.330854  -0.942214 -0.271153 0.196748  0.194342 0.378887 1 1 1.000000
0  -37.699177 -27.692863 3.165688  -0.920640 -0.368529 0.128875  0.202155 0.360332 1 1 1.000000
chromemisc
0  -37.272507 42.626637 2.064580  0.007564 0.999694 -0.023568  0.093753 0.223609 1 1 1.000000
0  -37.644131 42.626637 2.160927  0.007568 0.999694 -0.023574  0.087893 0.227515 1 1 1.000000
0  -37.534019 42.640400 2.518787  0.007565 0.999694 -0.023570  0.087893 0.227515 1 1 1.000000
skin_0
0  -34.822540 30.239176 0.247752  -0.718339 -0.017504 -0.695473  0.911161 0.392560 1 1 1.000000
0  -34.808777 27.734154 0.247752  -0.716547 -0.002038 -0.697535  0.911161 0.401349 1 1 1.000000
0  -37.093571 27.734154 2.587606  -0.717775 -0.000829 -0.696275  0.898465 0.401349 1 1 1.000000
skin_0
0  -37.093571 27.734154 2.587606  -0.717775 -0.000829 -0.696275  0.898465 0.401349 1 1 1.000000
0  -37.079811 30.239176 2.587606  -0.721337 -0.014400 -0.692435  0.898465 0.392560 1 1 1.000000
0  -34.822540 30.239176 0.247752  -0.718339 -0.017504 -0.695473  0.911161 0.392560 1 1 1.000000
skin_0
0  -37.079811 30.239176 2.587606  -0.721337 -0.014400 -0.692435  0.898465 0.392560 1 1 1.000000
0  -37.107338 33.941647 2.491259  -0.732726 -0.035711 -0.679586  0.899442 0.379864 1 1 1.000000
0  -35.001472 33.941647 0.247752  -0.726246 -0.043005 -0.686088  0.911161 0.379864 1 1 1.000000
skin_0
0  -35.001472 33.941647 0.247752  -0.726246 -0.043005 -0.686088  0.911161 0.379864 1 1 1.000000
0  -34.822540 30.239176 0.247752  -0.718339 -0.017504 -0.695473  0.911161 0.392560 1 1 1.000000
0  -37.079811 30.239176 2.587606  -0.721337 -0.014400 -0.692435  0.898465 0.392560 1 1 1.000000
skin_0
0  -37.162395 38.001980 2.339857  -0.755419 -0.054808 -0.652946  0.900418 0.365215 1 1 1.000000
0  -37.231213 40.796047 2.174691  -0.781196 -0.063618 -0.621036  0.901395 0.355449 1 1 1.000000
0  -35.662136 40.796047 0.247752  -0.767387 -0.084629 -0.635575  0.911161 0.355449 1 1 1.000000
skin_0
0  -35.662136 40.796047 0.247752  -0.767387 -0.084629 -0.635575  0.911161 0.355449 1 1 1.000000
0  -35.318039 37.988216 0.247752  -0.744339 -0.066908 -0.664441  0.911161 0.365215 1 1 1.000000
0  -37.162395 38.001980 2.339857  -0.755419 -0.054808 -0.652946  0.900418 0.365215 1 1 1.000000
skin_0
0  -37.244972 -10.749569 2.780300  -0.696186 -0.001572 -0.717860  0.897488 0.537095 1 1 1.000000
0  -37.203682 1.830589 2.725245  -0.702955 -0.001510 -0.711233  0.898465 0.493149 1 1 1.000000
0  -34.684898 1.830589 0.247752  -0.701432 -0.002112 -0.712733  0.911161 0.493149 1 1 1.000000
skin_0
0  -34.684898 1.830589 0.247752  -0.701432 -0.002112 -0.712733  0.911161 0.493149 1 1 1.000000
0  -34.616077 -10.735805 0.247752  -0.695005 -0.002062 -0.719002  0.911161 0.537095 1 1 1.000000
0  -37.244972 -10.749569 2.780300  -0.696186 -0.001572 -0.717860  0.897488 0.537095 1 1 1.000000
skin_0
0  -37.107338 33.941647 2.491259  -0.732726 -0.035711 -0.679586  0.899442 0.379864 1 1 1.000000
0  -37.162395 38.001980 2.339857  -0.755419 -0.054808 -0.652946  0.900418 0.365215 1 1 1.000000
0  -35.318039 37.988216 0.247752  -0.744339 -0.066908 -0.664441  0.911161 0.365215 1 1 1.000000
skin_0
0  -35.318039 37.988216 0.247752  -0.744339 -0.066908 -0.664441  0.911161 0.365215 1 1 1.000000
0  -35.001472 33.941647 0.247752  -0.726246 -0.043005 -0.686088  0.911161 0.379864 1 1 1.000000
0  -37.107338 33.941647 2.491259  -0.732726 -0.035711 -0.679586  0.899442 0.379864 1 1 1.000000
skin_0
0  -37.231213 40.796047 2.174691  -0.781185 -0.063625 -0.621049  0.901395 0.355449 1 1 1.000000
0  -37.272507 42.626637 2.064580  -0.796602 -0.055344 -0.601966  0.901395 0.348613 1 1 1.000000
0  -35.896122 42.612873 0.247752  -0.782814 -0.081370 -0.616913  0.911161 0.348613 1 1 1.000000
skin_0
0  -35.896122 42.612873 0.247752  -0.782811 -0.081377 -0.616916  0.911161 0.348613 1 1 1.000000
0  -35.662136 40.796047 0.247752  -0.767387 -0.084629 -0.635575  0.911161 0.355449 1 1 1.000000
0  -37.231213 40.796047 2.174691  -0.781196 -0.063618 -0.621036  0.901395 0.355449 1 1 1.000000
skin_0
0  -37.300026 -27.513933 2.862883  -0.689310 -0.003955 -0.724456  0.897488 0.596667 1 1 1.000000
0  -37.300026 -23.618765 2.849120  -0.690035 -0.003298 -0.723768  0.897488 0.582995 1 1 1.000000
0  -34.561024 -23.605001 0.247752  -0.688669 -0.002721 -0.725070  0.911161 0.582995 1 1 1.000000
skin_0
0  -34.561024 -23.605001 0.247752  -0.688669 -0.002721 -0.725070  0.911161 0.582995 1 1 1.000000
0  -34.547256 -27.513933 0.247752  -0.689238 -0.003905 -0.724525  0.911161 0.596667 1 1 1.000000
0  -37.300026 -27.513933 2.862883  -0.689310 -0.003955 -0.724456  0.897488 0.596667 1 1 1.000000
skin_0
0  -34.808777 27.734154 0.247752  -0.716547 -0.002038 -0.697535  0.911161 0.401349 1 1 1.000000
0  -34.739956 12.951778 0.247752  -0.708354 -0.001975 -0.705855  0.911161 0.453108 1 1 1.000000
0  -37.148624 12.965542 2.670189  -0.709564 -0.001495 -0.704639  0.898465 0.453108 1 1 1.000000
skin_0
0  -37.148624 12.965542 2.670189  -0.709564 -0.001495 -0.704639  0.898465 0.453108 1 1 1.000000
0  -37.093571 27.734154 2.587606  -0.717775 -0.000829 -0.696275  0.898465 0.401349 1 1 1.000000
0  -34.808777 27.734154 0.247752  -0.716547 -0.002038 -0.697535  0.911161 0.401349 1 1 1.000000
skin_0
0  -34.616077 -10.735805 0.247752  -0.695005 -0.002062 -0.719002  0.911161 0.537095 1 1 1.000000
0  -34.561024 -23.605001 0.247752  -0.688669 -0.002721 -0.725070  0.911161 0.582995 1 1 1.000000
0  -37.300026 -23.618765 2.849120  -0.690035 -0.003298 -0.723768  0.897488 0.582995 1 1 1.000000
skin_0
0  -37.300026 -23.618765 2.849120  -0.690035 -0.003298 -0.723768  0.897488 0.582995 1 1 1.000000
0  -37.244972 -10.749569 2.780300  -0.696186 -0.001572 -0.717860  0.897488 0.537095 1 1 1.000000
0  -34.616077 -10.735805 0.247752  -0.695005 -0.002062 -0.719002  0.911161 0.537095 1 1 1.000000
skin_0
0  -34.739956 12.951778 0.247752  -0.708354 -0.001975 -0.705855  0.911161 0.453108 1 1 1.000000
0  -34.684898 1.830589 0.247752  -0.701432 -0.002112 -0.712733  0.911161 0.493149 1 1 1.000000
0  -37.203682 1.830589 2.725245  -0.702955 -0.001510 -0.711233  0.898465 0.493149 1 1 1.000000
skin_0
0  -37.203682 1.830589 2.725245  -0.702955 -0.001510 -0.711233  0.898465 0.493149 1 1 1.000000
0  -37.148624 12.965542 2.670189  -0.709564 -0.001495 -0.704639  0.898465 0.453108 1 1 1.000000
0  -34.739956 12.951778 0.247752  -0.708354 -0.001975 -0.705855  0.911161 0.453108 1 1 1.000000
skin_0
0  -34.547256 -27.513933 0.247752  -0.689238 -0.003905 -0.724525  0.911161 0.596667 1 1 1.000000
0  -34.547256 -27.692863 0.247752  -0.640231 -0.371347 -0.672462  0.911161 0.597644 1 1 1.000000
0  -37.300026 -27.692863 2.862883  -0.637532 -0.380222 -0.670064  0.897488 0.597644 1 1 1.000000
skin_0
0  -37.300026 -27.692863 2.862883  -0.637532 -0.380222 -0.670064  0.897488 0.597644 1 1 1.000000
0  -37.300026 -27.513933 2.862883  -0.689310 -0.003955 -0.724456  0.897488 0.596667 1 1 1.000000
0  -34.547256 -27.513933 0.247752  -0.689238 -0.003905 -0.724525  0.911161 0.596667 1 1 1.000000
skin_0
0  -34.547256 -27.692863 0.247752  -0.640101 -0.371889 -0.672286  0.911161 0.597644 1 1 1.000000
0  -34.437145 -27.858030 0.357863  -0.501414 -0.685724 -0.527605  0.911161 0.597644 1 1 1.000000
0  -37.203678 -27.858030 3.000522  -0.505102 -0.680429 -0.530931  0.896512 0.597644 1 1 1.000000
skin_0
0  -37.203678 -27.858030 3.000522  -0.505103 -0.680423 -0.530938  0.896512 0.597644 1 1 1.000000
0  -37.300026 -27.692863 2.862883  -0.637532 -0.380222 -0.670064  0.897488 0.597644 1 1 1.000000
0  -34.547256 -27.692863 0.247752  -0.640231 -0.371347 -0.672462  0.911161 0.597644 1 1 1.000000
skin_0
0  -33.198402 -27.858030 0.247752  -0.004994 -0.033459 -0.999428  0.911161 0.597644 1 1 1.000000
0  -34.437145 -27.858030 0.357863  -0.074439 -0.593224 -0.801589  0.911161 0.597644 1 1 1.000000
0  -34.547256 -27.692863 0.247752  -0.028474 -0.226503 -0.973594  0.911161 0.597644 1 1 1.000000
skin_0
0  -34.547256 -27.692863 0.247752  -0.028474 -0.226503 -0.973594  0.911161 0.597644 1 1 1.000000
0  -33.033234 -27.692863 0.247752  -0.000092 0.002203 -0.999998  0.911161 0.596667 1 1 1.000000
0  -33.198402 -27.858030 0.247752  -0.004994 -0.033459 -0.999428  0.911161 0.597644 1 1 1.000000
skin_0
0  -37.589066 -23.618765 3.482256  -0.870267 0.003417 0.492569  0.990265 0.038057 1 1 1.000000
0  -37.534016 -10.749569 3.427201  -0.870593 0.005952 0.491968  0.990265 0.034150 1 1 1.000000
0  -37.630363 -10.749569 3.275799  -0.947650 0.004964 0.319273  0.009766 0.024384 1 1 1.000000
skin_0
0  -37.630363 -10.749569 3.275799  -0.947650 0.004964 0.319273  0.009766 0.024384 1 1 1.000000
0  -37.685413 -23.618765 3.330854  -0.947837 0.002440 0.318747  0.009766 0.028291 1 1 1.000000
0  -37.589066 -23.618765 3.482256  -0.870267 0.003417 0.492569  0.990265 0.038057 1 1 1.000000
skin_0
0  -37.451431 12.965542 3.330854  -0.871133 0.006011 0.491011  0.990265 0.028291 1 1 1.000000
0  -37.382614 27.734154 3.289563  -0.885712 -0.139186 0.442878  0.990265 0.025361 1 1 1.000000
0  -37.465195 27.734154 3.110632  -0.966573 -0.036466 0.253785  0.009766 0.014618 1 1 1.000000
skin_0
0  -37.465195 27.734154 3.110632  -0.966573 -0.036466 0.253785  0.009766 0.014618 1 1 1.000000
0  -37.534016 12.965542 3.179452  -0.948186 0.005648 0.317665  0.009766 0.018525 1 1 1.000000
0  -37.451431 12.965542 3.330854  -0.871133 0.006011 0.491011  0.990265 0.028291 1 1 1.000000
skin_0
0  -37.589066 -27.913088 3.509784  -0.924397 -0.380935 -0.019453  0.990265 0.039033 1 1 1.000000
0  -37.589066 -23.618765 3.482256  -0.870267 0.003417 0.492569  0.990265 0.038057 1 1 1.000000
0  -37.685413 -23.618765 3.330854  -0.947837 0.002440 0.318747  0.009766 0.028291 1 1 1.000000
skin_0
0  -37.685413 -23.618765 3.330854  -0.947837 0.002440 0.318747  0.009766 0.028291 1 1 1.000000
0  -37.671650 -27.513933 3.330854  -0.955089 -0.001869 0.296314  0.009766 0.028291 1 1 1.000000
0  -37.589066 -27.913088 3.509784  -0.924397 -0.380935 -0.019453  0.990265 0.039033 1 1 1.000000
skin_0
0  -37.534016 12.965542 3.179452  -0.948186 0.005648 0.317665  0.009766 0.018525 1 1 1.000000
0  -37.589069 1.830589 3.220743  -0.948110 0.005604 0.317893  0.009766 0.021455 1 1 1.000000
0  -37.492725 1.830589 3.385910  -0.870922 0.005981 0.491386  0.990265 0.031220 1 1 1.000000
skin_0
0  -37.492725 1.830589 3.385910  -0.870922 0.005981 0.491386  0.990265 0.031220 1 1 1.000000
0  -37.451431 12.965542 3.330854  -0.871133 0.006011 0.491011  0.990265 0.028291 1 1 1.000000
0  -37.534016 12.965542 3.179452  -0.948186 0.005648 0.317665  0.009766 0.018525 1 1 1.000000
skin_0
0  -37.437668 27.899321 3.275799  -0.971454 -0.085638 0.221231  0.009766 0.025361 1 1 1.000000
0  -37.465195 27.734154 3.110632  -0.966573 -0.036466 0.253785  0.009766 0.014618 1 1 1.000000
0  -37.382614 27.734154 3.289563  -0.885712 -0.139186 0.442878  0.990265 0.025361 1 1 1.000000
skin_0
0  -37.589069 1.830589 3.220743  -0.948110 0.005604 0.317893  0.009766 0.021455 1 1 1.000000
0  -37.630363 -10.749569 3.275799  -0.947650 0.004964 0.319273  0.009766 0.024384 1 1 1.000000
0  -37.534016 -10.749569 3.427201  -0.870593 0.005952 0.491968  0.990265 0.034150 1 1 1.000000
skin_0
0  -37.534016 -10.749569 3.427201  -0.870593 0.005952 0.491968  0.990265 0.034150 1 1 1.000000
0  -37.492725 1.830589 3.385910  -0.870922 0.005981 0.491386  0.990265 0.031220 1 1 1.000000
0  -37.589069 1.830589 3.220743  -0.948110 0.005604 0.317893  0.009766 0.021455 1 1 1.000000
skin_0
0  -37.589066 -27.913088 3.509784  -0.924397 -0.380935 -0.019453  0.990265 0.039033 1 1 1.000000
0  -37.671650 -27.513933 3.330854  -0.955089 -0.001869 0.296314  0.009766 0.028291 1 1 1.000000
0  -37.671650 -27.692863 3.330854  -0.942214 -0.271153 0.196748  0.009766 0.028291 1 1 1.000000
skin_0
0  -37.589066 -27.913088 3.509784  -0.924397 -0.380935 -0.019453  0.990265 0.039033 1 1 1.000000
0  -37.671650 -27.692863 3.330854  -0.942214 -0.271153 0.196748  0.009766 0.028291 1 1 1.000000
0  -37.520248 -27.858030 3.303327  -0.734150 -0.662127 -0.150372  0.009766 0.028291 1 1 1.000000
black
0  -36.198925 43.232246 0.316571  -0.000428 0.110427 -0.993884  0.935575 0.123997 1 1 1.000000
0  -32.647854 43.246010 0.316571  0.019278 0.015687 -0.999691  0.929716 0.078097 1 1 1.000000
0  -36.198925 42.860619 0.275280  -0.000372 0.110756 -0.993848  0.931669 0.122043 1 1 1.000000
black
0  -36.198925 42.860619 0.275280  -0.000339 0.110551 -0.993870  0.931669 0.122043 1 1 1.000000
0  -32.647854 43.246010 0.316571  0.019346 0.015372 -0.999695  0.929716 0.078097 1 1 1.000000
0  -35.896122 42.612873 0.247752  0.008469 0.065015 -0.997848  0.929716 0.113254 1 1 1.000000
black
0  -34.822540 30.239176 0.247752  0.030216 0.000237 -0.999543  0.811548 0.085910 1 1 1.000000
0  -32.647854 43.246010 0.316571  0.019346 0.015372 -0.999695  0.799829 0.049776 1 1 1.000000
0  -34.808777 27.734154 0.247752  0.030794 0.000145 -0.999526  0.787133 0.084933 1 1 1.000000
black
0  -35.001472 33.941647 0.247752  0.024315 0.001244 -0.999704  0.846706 0.090793 1 1 1.000000
0  -32.647854 43.246010 0.316571  0.019346 0.015372 -0.999695  0.799829 0.049776 1 1 1.000000
0  -34.822540 30.239176 0.247752  0.030216 0.000237 -0.999543  0.811548 0.085910 1 1 1.000000
black
0  -35.662136 40.796047 0.247752  0.020728 0.002582 -0.999782  0.912137 0.107395 1 1 1.000000
0  -32.647854 43.246010 0.316571  0.019346 0.015372 -0.999695  0.799829 0.049776 1 1 1.000000
0  -35.318039 37.988216 0.247752  0.022036 0.001895 -0.999755  0.885769 0.098605 1 1 1.000000
black
0  -34.739956 12.951778 0.247752  0.020420 0.000834 -0.999791  0.646504 0.081027 1 1 1.000000
0  -32.647854 43.246010 0.316571  0.019346 0.015372 -0.999695  0.799829 0.049776 1 1 1.000000
0  -33.033234 -27.513933 0.247752  0.000309 0.000013 -1.000000  0.358409 0.039033 1 1 1.000000
black
0  -33.033234 -27.513933 0.247752  0.000309 0.000013 -1.000000  0.358409 0.039033 1 1 1.000000
0  -34.684898 1.830589 0.247752  -0.000478 -0.000032 -1.000000  0.540056 0.079073 1 1 1.000000
0  -34.739956 12.951778 0.247752  0.020420 0.000834 -0.999791  0.646504 0.081027 1 1 1.000000
black
0  -35.318039 37.988216 0.247752  0.022036 0.001895 -0.999755  0.885769 0.098605 1 1 1.000000
0  -32.647854 43.246010 0.316571  0.019346 0.015372 -0.999695  0.799829 0.049776 1 1 1.000000
0  -35.001472 33.941647 0.247752  0.024315 0.001244 -0.999704  0.846706 0.090793 1 1 1.000000
black
0  -35.896122 42.612873 0.247752  0.008469 0.065015 -0.997848  0.929716 0.113254 1 1 1.000000
0  -32.647854 43.246010 0.316571  0.019346 0.015372 -0.999695  0.799829 0.049776 1 1 1.000000
0  -35.662136 40.796047 0.247752  0.020728 0.002582 -0.999782  0.912137 0.107395 1 1 1.000000
black
0  -34.547256 -27.692863 0.247752  -0.028474 -0.226503 -0.973594  0.257820 0.071261 1 1 1.000000
0  -34.547256 -27.513933 0.247752  0.000000 0.000000 -1.000000  0.259774 0.071261 1 1 1.000000
0  -33.033234 -27.513933 0.247752  0.000309 0.000013 -1.000000  0.358409 0.039033 1 1 1.000000
black
0  -33.033234 -27.513933 0.247752  0.000309 0.000013 -1.000000  0.358409 0.039033 1 1 1.000000
0  -33.033234 -27.692863 0.247752  -0.000092 0.002203 -0.999998  0.256844 0.036103 1 1 1.000000
0  -34.547256 -27.692863 0.247752  -0.028474 -0.226503 -0.973594  0.257820 0.071261 1 1 1.000000
black
0  -34.616077 -10.735805 0.247752  -0.000478 -0.000032 -1.000000  0.419935 0.076144 1 1 1.000000
0  -33.033234 -27.513933 0.247752  0.000309 0.000013 -1.000000  0.358409 0.039033 1 1 1.000000
0  -34.561024 -23.605001 0.247752  0.000000 0.000000 -1.000000  0.296884 0.073214 1 1 1.000000
black
0  -33.033234 -27.692863 1.555317  0.928737 -0.370730 0.002765  0.255867 0.041963 1 1 1.000000
0  -33.033234 -27.513933 0.247752  0.999981 -0.005540 0.002741  0.358409 0.039033 1 1 1.000000
0  -32.647854 43.246010 0.316571  0.999697 -0.005280 0.024044  0.799829 0.049776 1 1 1.000000
black
0  -32.647854 43.246010 0.316571  0.999697 -0.005280 0.024044  0.799829 0.049776 1 1 1.000000
0  -32.675381 42.557819 1.541553  0.999687 -0.005279 0.024444  0.799829 0.049776 1 1 1.000000
0  -33.033234 -27.692863 1.555317  0.928737 -0.370730 0.002765  0.255867 0.041963 1 1 1.000000
black
0  -33.033234 -27.692863 0.247752  0.928129 -0.372250 0.002675  0.256844 0.036103 1 1 1.000000
0  -33.033234 -27.513933 0.247752  0.999981 -0.005540 0.002741  0.358409 0.039033 1 1 1.000000
0  -33.033234 -27.692863 1.555317  0.928737 -0.370730 0.002765  0.255867 0.041963 1 1 1.000000
black
0  -33.033234 -27.692863 1.555317  0.928533 -0.371239 0.002758  0.255867 0.041963 1 1 1.000000
0  -33.198402 -27.858030 1.555317  0.727285 -0.686333 0.002070  0.254891 0.041963 1 1 1.000000
0  -33.198402 -27.858030 0.247752  0.727250 -0.686369 0.002107  0.255867 0.036103 1 1 1.000000
black
0  -33.198402 -27.858030 0.247752  0.727229 -0.686391 0.002102  0.255867 0.036103 1 1 1.000000
0  -33.033234 -27.692863 0.247752  0.928129 -0.372250 0.002675  0.256844 0.036103 1 1 1.000000
0  -33.033234 -27.692863 1.555317  0.928737 -0.370730 0.002765  0.255867 0.041963 1 1 1.000000
black
0  -33.033234 -27.513933 0.247752  0.000309 0.000013 -1.000000  0.358409 0.039033 1 1 1.000000
0  -34.547256 -27.513933 0.247752  0.000000 0.000000 -1.000000  0.259774 0.071261 1 1 1.000000
0  -34.561024 -23.605001 0.247752  0.000000 0.000000 -1.000000  0.296884 0.073214 1 1 1.000000
black
0  -32.647854 43.246010 0.316571  0.019346 0.015372 -0.999695  0.799829 0.049776 1 1 1.000000
0  -34.739956 12.951778 0.247752  0.020420 0.000834 -0.999791  0.646504 0.081027 1 1 1.000000
0  -34.808777 27.734154 0.247752  0.030794 0.000145 -0.999526  0.787133 0.084933 1 1 1.000000
black
0  -34.684898 1.830589 0.247752  -0.000478 -0.000032 -1.000000  0.540056 0.079073 1 1 1.000000
0  -33.033234 -27.513933 0.247752  0.000309 0.000013 -1.000000  0.358409 0.039033 1 1 1.000000
0  -34.616077 -10.735805 0.247752  -0.000478 -0.000032 -1.000000  0.419935 0.076144 1 1 1.000000
end
