version 1
nodes
0 "blender_implicit" -1
1 "root" -1
2 "steering_wheel" 1
end
skeleton
time 0
0  0.000000 0.000000 0.000000  0.000000 -0.000000 0.000000
1  0.000000 0.000000 0.000000  1.570796 -0.000000 0.000000
2  17.500738 28.532450 14.135482  0.000000 -0.000000 0.000000
end
triangles
skin_0
0  20.012630 102.001328 30.107193  0.011927 -0.227143 0.973788  0.393567 0.139622 1 1 1.000000
0  26.977137 101.967392 30.021326  0.010336 -0.237255 0.971392  0.356456 0.140599 1 1 1.000000
0  26.977137 103.372299 30.544912  0.004071 -0.640517 0.767933  0.356456 0.134739 1 1 1.000000
skin_0
0  26.977137 103.372299 30.544912  0.004071 -0.640517 0.767933  0.356456 0.134739 1 1 1.000000
0  20.012630 103.394920 30.602160  0.005182 -0.633127 0.774030  0.393567 0.134739 1 1 1.000000
0  20.012630 102.001328 30.107193  0.011927 -0.227143 0.973788  0.393567 0.139622 1 1 1.000000
skin_0
0  -0.013769 102.097824 30.267618  0.000072 -0.214794 0.976659  0.500015 0.139622 1 1 1.000000
0  6.647933 102.085312 30.252703  0.003548 -0.213743 0.976883  0.464858 0.139622 1 1 1.000000
0  6.634169 103.455093 30.704142  0.001915 -0.623890 0.781510  0.464858 0.134739 1 1 1.000000
skin_0
0  6.634169 103.455093 30.704142  0.001915 -0.623890 0.781510  0.464858 0.134739 1 1 1.000000
0  -0.013769 103.466408 30.732763  0.000226 -0.625447 0.780267  0.500015 0.134739 1 1 1.000000
0  -0.013769 102.097824 30.267618  0.000072 -0.214794 0.976659  0.500015 0.139622 1 1 1.000000
skin_0
0  32.276218 101.932251 29.949167  0.042045 -0.246027 0.968351  0.329112 0.140599 1 1 1.000000
0  35.262974 101.896599 29.724985  0.274124 -0.173760 0.945867  0.313486 0.140599 1 1 1.000000
0  34.533493 103.321739 30.333242  0.263653 -0.525720 0.808768  0.316416 0.135716 1 1 1.000000
skin_0
0  34.533493 103.321739 30.333242  0.263653 -0.525720 0.808768  0.316416 0.135716 1 1 1.000000
0  32.069763 103.348473 30.501379  0.024756 -0.647741 0.761458  0.330088 0.134739 1 1 1.000000
0  32.276218 101.932251 29.949167  0.042045 -0.246027 0.968351  0.329112 0.140599 1 1 1.000000
skin_0
0  32.069763 103.348473 30.501379  0.024756 -0.647741 0.761458  0.330088 0.134739 1 1 1.000000
0  34.533493 103.321739 30.333242  0.263653 -0.525720 0.808768  0.316416 0.135716 1 1 1.000000
0  32.193638 104.974014 33.241085  0.272253 0.026310 0.961866  0.329112 0.128880 1 1 1.000000
skin_0
0  32.193638 104.974014 33.241085  0.272253 0.026310 0.961866  0.329112 0.128880 1 1 1.000000
0  30.252935 105.009148 33.313244  0.020161 -0.024709 0.999491  0.339854 0.128880 1 1 1.000000
0  32.069763 103.348473 30.501379  0.024756 -0.647741 0.761458  0.330088 0.134739 1 1 1.000000
skin_0
0  20.012630 103.394920 30.602160  0.005182 -0.633127 0.774030  0.393567 0.134739 1 1 1.000000
0  26.977137 103.372299 30.544912  0.004071 -0.640517 0.767933  0.356456 0.134739 1 1 1.000000
0  26.977137 105.021660 33.328156  0.007350 -0.022338 0.999723  0.356456 0.127903 1 1 1.000000
skin_0
0  26.977137 105.021660 33.328156  0.007350 -0.022338 0.999723  0.356456 0.127903 1 1 1.000000
0  20.012630 105.057991 33.386597  0.008148 -0.014398 0.999863  0.393567 0.127903 1 1 1.000000
0  20.012630 103.394920 30.602160  0.005182 -0.633127 0.774030  0.393567 0.134739 1 1 1.000000
skin_0
0  -0.013769 103.466408 30.732763  0.000226 -0.625447 0.780267  0.500015 0.134739 1 1 1.000000
0  6.634169 103.455093 30.704142  0.001915 -0.623890 0.781510  0.464858 0.134739 1 1 1.000000
0  6.634169 105.121750 33.447441  0.002228 0.003840 0.999990  0.464858 0.127903 1 1 1.000000
skin_0
0  6.634169 105.121750 33.447441  0.002228 0.003840 0.999990  0.464858 0.127903 1 1 1.000000
0  -0.013769 105.134262 33.462353  -0.000562 0.009548 0.999954  0.500015 0.127903 1 1 1.000000
0  -0.013769 103.466408 30.732763  0.000226 -0.625447 0.780267  0.500015 0.134739 1 1 1.000000
skin_0
0  20.012630 103.394920 30.602160  0.005182 -0.633127 0.774030  0.393567 0.134739 1 1 1.000000
0  13.612440 103.443787 30.675514  0.003205 -0.624980 0.780634  0.427747 0.134739 1 1 1.000000
0  13.612440 102.060287 30.222879  0.009316 -0.218231 0.975853  0.427747 0.139622 1 1 1.000000
skin_0
0  13.612440 102.060287 30.222879  0.009316 -0.218231 0.975853  0.427747 0.139622 1 1 1.000000
0  20.012630 102.001328 30.107193  0.011927 -0.227143 0.973788  0.393567 0.139622 1 1 1.000000
0  20.012630 103.394920 30.602160  0.005182 -0.633127 0.774030  0.393567 0.134739 1 1 1.000000
skin_0
0  20.012630 105.057991 33.386597  0.008148 -0.014398 0.999863  0.393567 0.127903 1 1 1.000000
0  13.612440 105.109238 33.432529  0.005098 0.000285 0.999987  0.427747 0.127903 1 1 1.000000
0  13.612440 103.443787 30.675514  0.003205 -0.624980 0.780634  0.427747 0.134739 1 1 1.000000
skin_0
0  13.612440 103.443787 30.675514  0.003205 -0.624980 0.780634  0.427747 0.134739 1 1 1.000000
0  20.012630 103.394920 30.602160  0.005182 -0.633127 0.774030  0.393567 0.134739 1 1 1.000000
0  20.012630 105.057991 33.386597  0.008148 -0.014398 0.999863  0.393567 0.127903 1 1 1.000000
skin_0
0  32.276218 101.932251 29.949167  0.042045 -0.246027 0.968351  0.329112 0.140599 1 1 1.000000
0  29.633558 101.942375 29.991505  0.011172 -0.241912 0.970234  0.342784 0.140599 1 1 1.000000
0  29.495922 98.854362 29.596991  0.015319 -0.127372 0.991737  0.343760 0.151341 1 1 1.000000
skin_0
0  29.495922 98.854362 29.596991  0.015319 -0.127372 0.991737  0.343760 0.151341 1 1 1.000000
0  32.111057 98.830544 29.553457  0.045780 -0.133171 0.990035  0.330088 0.151341 1 1 1.000000
0  32.276218 101.932251 29.949167  0.042045 -0.246027 0.968351  0.329112 0.140599 1 1 1.000000
skin_0
0  13.612440 102.060287 30.222879  0.009316 -0.218231 0.975853  0.427747 0.139622 1 1 1.000000
0  6.647933 102.085312 30.252703  0.003548 -0.213743 0.976883  0.464858 0.139622 1 1 1.000000
0  6.730517 99.006226 29.914238  0.004563 -0.109230 0.994006  0.463881 0.150365 1 1 1.000000
skin_0
0  6.730517 99.006226 29.914238  0.004563 -0.109230 0.994006  0.463881 0.150365 1 1 1.000000
0  13.626204 98.997314 29.858191  0.012451 -0.116948 0.993060  0.427747 0.150365 1 1 1.000000
0  13.612440 102.060287 30.222879  0.009316 -0.218231 0.975853  0.427747 0.139622 1 1 1.000000
skin_0
0  32.111057 98.830544 29.553457  0.045780 -0.133171 0.990035  0.330088 0.151341 1 1 1.000000
0  35.524490 98.787178 29.259518  0.108004 -0.127522 0.985938  0.311533 0.151341 1 1 1.000000
0  35.262974 101.896599 29.724985  0.274124 -0.173760 0.945867  0.313486 0.140599 1 1 1.000000
skin_0
0  35.262974 101.896599 29.724985  0.274124 -0.173760 0.945867  0.313486 0.140599 1 1 1.000000
0  32.276218 101.932251 29.949167  0.042045 -0.246027 0.968351  0.329112 0.140599 1 1 1.000000
0  32.111057 98.830544 29.553457  0.045780 -0.133171 0.990035  0.330088 0.151341 1 1 1.000000
skin_0
0  13.626204 98.997314 29.858191  0.012451 -0.116948 0.993060  0.427747 0.150365 1 1 1.000000
0  19.971338 98.924644 29.741302  0.013793 -0.116037 0.993149  0.393567 0.151341 1 1 1.000000
0  20.012630 102.001328 30.107193  0.011927 -0.227143 0.973788  0.393567 0.139622 1 1 1.000000
skin_0
0  20.012630 102.001328 30.107193  0.011927 -0.227143 0.973788  0.393567 0.139622 1 1 1.000000
0  13.612440 102.060287 30.222879  0.009316 -0.218231 0.975853  0.427747 0.139622 1 1 1.000000
0  13.626204 98.997314 29.858191  0.012451 -0.116948 0.993060  0.427747 0.150365 1 1 1.000000
skin_0
0  34.533493 103.321739 30.333242  0.263653 -0.525720 0.808768  0.316416 0.135716 1 1 1.000000
0  34.822533 103.334930 30.182419  0.654913 -0.089311 0.750408  0.315439 0.135716 1 1 1.000000
0  32.661610 104.931847 32.933437  0.629327 0.185570 0.754660  0.327158 0.128880 1 1 1.000000
skin_0
0  32.661610 104.931847 32.933437  0.629327 0.185570 0.754660  0.327158 0.128880 1 1 1.000000
0  32.193638 104.974014 33.241085  0.272253 0.026310 0.961866  0.329112 0.128880 1 1 1.000000
0  34.533493 103.321739 30.333242  0.263653 -0.525720 0.808768  0.316416 0.135716 1 1 1.000000
skin_0
0  34.822533 103.334930 30.182419  0.654913 -0.089311 0.750408  0.315439 0.135716 1 1 1.000000
0  34.533493 103.321739 30.333242  0.263653 -0.525720 0.808768  0.316416 0.135716 1 1 1.000000
0  35.262974 101.896599 29.724985  0.274124 -0.173760 0.945867  0.313486 0.140599 1 1 1.000000
skin_0
0  35.262974 101.896599 29.724985  0.274124 -0.173760 0.945867  0.313486 0.140599 1 1 1.000000
0  35.469433 101.918709 29.630203  0.559328 -0.039816 0.827990  0.311533 0.140599 1 1 1.000000
0  34.822533 103.334930 30.182419  0.654913 -0.089311 0.750408  0.315439 0.135716 1 1 1.000000
skin_0
0  32.441387 105.198524 32.569908  0.428235 0.836595 0.341647  0.328135 0.127903 1 1 1.000000
0  31.973412 105.226982 32.876358  0.166583 0.849780 0.500125  0.330088 0.127903 1 1 1.000000
0  32.193638 104.974014 33.241085  0.272253 0.026310 0.961866  0.329112 0.128880 1 1 1.000000
skin_0
0  32.193638 104.974014 33.241085  0.272253 0.026310 0.961866  0.329112 0.128880 1 1 1.000000
0  32.661610 104.931847 32.933437  0.629327 0.185570 0.754660  0.327158 0.128880 1 1 1.000000
0  32.441387 105.198524 32.569908  0.428235 0.836595 0.341647  0.328135 0.127903 1 1 1.000000
skin_0
0  35.469433 101.918709 29.630203  0.559328 -0.039816 0.827990  0.311533 0.140599 1 1 1.000000
0  35.262974 101.896599 29.724985  0.274124 -0.173760 0.945867  0.313486 0.140599 1 1 1.000000
0  35.524490 98.787178 29.259518  0.108004 -0.127522 0.985938  0.311533 0.151341 1 1 1.000000
skin_0
0  35.524490 98.787178 29.259518  0.108004 -0.127522 0.985938  0.311533 0.151341 1 1 1.000000
0  35.744713 98.856934 29.251802  0.329555 -0.086812 0.940137  0.310556 0.151341 1 1 1.000000
0  35.469433 101.918709 29.630203  0.559328 -0.039816 0.827990  0.311533 0.140599 1 1 1.000000
skin_0
0  33.900356 104.745522 31.272978  0.738896 0.491846 0.460565  0.320322 0.129856 1 1 1.000000
0  34.918877 104.516350 29.470610  0.763413 0.578310 0.287678  0.314463 0.131809 1 1 1.000000
0  34.712418 104.784225 29.093370  0.682310 0.720095 0.126160  0.316416 0.130833 1 1 1.000000
skin_0
0  34.712418 104.784225 29.093370  0.682310 0.720095 0.126160  0.316416 0.130833 1 1 1.000000
0  33.693893 105.013412 30.895739  0.548549 0.797901 0.249895  0.321299 0.128880 1 1 1.000000
0  33.900356 104.745522 31.272978  0.738896 0.491846 0.460565  0.320322 0.129856 1 1 1.000000
skin_0
0  34.918877 104.516350 29.470610  0.763413 0.578310 0.287678  0.314463 0.131809 1 1 1.000000
0  33.900356 104.745522 31.272978  0.738896 0.491846 0.460565  0.320322 0.129856 1 1 1.000000
0  35.194157 103.400742 29.746048  0.794591 0.186146 0.577906  0.313486 0.134739 1 1 1.000000
skin_0
0  35.194157 103.400742 29.746048  0.794591 0.186146 0.577906  0.313486 0.134739 1 1 1.000000
0  35.565777 103.523277 29.135033  0.894677 0.309982 0.321660  0.311533 0.134739 1 1 1.000000
0  34.918877 104.516350 29.470610  0.763413 0.578310 0.287678  0.314463 0.131809 1 1 1.000000
skin_0
0  35.565777 103.523277 29.135033  0.894677 0.309982 0.321660  0.311533 0.134739 1 1 1.000000
0  35.194157 103.400742 29.746048  0.794591 0.186146 0.577906  0.313486 0.134739 1 1 1.000000
0  35.703419 101.950417 29.425734  0.734390 0.057640 0.676276  0.310556 0.140599 1 1 1.000000
skin_0
0  35.703419 101.950417 29.425734  0.734390 0.057640 0.676276  0.310556 0.140599 1 1 1.000000
0  35.896114 101.999428 29.181328  0.966060 0.089530 0.242307  0.309580 0.140599 1 1 1.000000
0  35.565777 103.523277 29.135033  0.894677 0.309982 0.321660  0.311533 0.134739 1 1 1.000000
skin_0
0  35.786003 102.059937 28.647778  0.977224 0.036060 -0.209124  0.310556 0.140599 1 1 1.000000
0  35.896114 101.999428 29.181328  0.966060 0.089530 0.242307  0.309580 0.140599 1 1 1.000000
0  35.978699 99.024559 29.073038  0.673882 -0.033409 0.738083  0.309580 0.150365 1 1 1.000000
skin_0
0  32.661610 104.931847 32.933437  0.629327 0.185570 0.754660  0.327158 0.128880 1 1 1.000000
0  33.900356 104.745522 31.272978  0.738896 0.491846 0.460565  0.320322 0.129856 1 1 1.000000
0  33.693893 105.013412 30.895739  0.548549 0.797901 0.249895  0.321299 0.128880 1 1 1.000000
skin_0
0  33.693893 105.013412 30.895739  0.548549 0.797901 0.249895  0.321299 0.128880 1 1 1.000000
0  32.441387 105.198524 32.569908  0.428235 0.836595 0.341647  0.328135 0.127903 1 1 1.000000
0  32.661610 104.931847 32.933437  0.629327 0.185570 0.754660  0.327158 0.128880 1 1 1.000000
skin_0
0  35.194153 104.410057 27.527010  0.597873 0.800518 0.041445  0.313486 0.131809 1 1 1.000000
0  34.712418 104.784225 29.093370  0.682310 0.720095 0.126160  0.316416 0.130833 1 1 1.000000
0  34.918877 104.516350 29.470610  0.763413 0.578310 0.287678  0.314463 0.131809 1 1 1.000000
skin_0
0  34.918877 104.516350 29.470610  0.763413 0.578310 0.287678  0.314463 0.131809 1 1 1.000000
0  35.400612 104.256660 27.859003  0.695119 0.713978 0.083931  0.312510 0.132786 1 1 1.000000
0  35.194153 104.410057 27.527010  0.597588 0.800734 0.041380  0.313486 0.131809 1 1 1.000000
skin_0
0  34.822533 103.334930 30.182419  0.654913 -0.089311 0.750408  0.315439 0.135716 1 1 1.000000
0  35.194157 103.400742 29.746048  0.794591 0.186146 0.577906  0.313486 0.134739 1 1 1.000000
0  33.900356 104.745522 31.272978  0.738896 0.491846 0.460565  0.320322 0.129856 1 1 1.000000
skin_0
0  33.900356 104.745522 31.272978  0.738896 0.491846 0.460565  0.320322 0.129856 1 1 1.000000
0  32.661610 104.931847 32.933437  0.629327 0.185570 0.754660  0.327158 0.128880 1 1 1.000000
0  34.822533 103.334930 30.182419  0.654913 -0.089311 0.750408  0.315439 0.135716 1 1 1.000000
skin_0
0  35.565777 103.523277 29.135033  0.894677 0.309982 0.321660  0.311533 0.134739 1 1 1.000000
0  35.620834 103.688332 28.196138  0.932169 0.347913 0.100085  0.311533 0.134739 1 1 1.000000
0  35.400612 104.256660 27.859003  0.695119 0.713978 0.083931  0.312510 0.132786 1 1 1.000000
skin_0
0  35.400612 104.256660 27.859003  0.695119 0.713978 0.083931  0.312510 0.132786 1 1 1.000000
0  34.918877 104.516350 29.470610  0.763413 0.578310 0.287678  0.314463 0.131809 1 1 1.000000
0  35.565777 103.523277 29.135033  0.894677 0.309982 0.321660  0.311533 0.134739 1 1 1.000000
skin_0
0  35.469433 101.918709 29.630203  0.559328 -0.039816 0.827990  0.311533 0.140599 1 1 1.000000
0  35.703419 101.950417 29.425734  0.734390 0.057640 0.676276  0.310556 0.140599 1 1 1.000000
0  35.194157 103.400742 29.746048  0.794591 0.186146 0.577906  0.313486 0.134739 1 1 1.000000
skin_0
0  35.194157 103.400742 29.746048  0.794591 0.186146 0.577906  0.313486 0.134739 1 1 1.000000
0  34.822533 103.334930 30.182419  0.654913 -0.089311 0.750408  0.315439 0.135716 1 1 1.000000
0  35.469433 101.918709 29.630203  0.559328 -0.039816 0.827990  0.311533 0.140599 1 1 1.000000
skin_0
0  35.896114 101.999428 29.181328  0.966060 0.089530 0.242307  0.309580 0.140599 1 1 1.000000
0  35.786003 102.059937 28.647778  0.977224 0.036060 -0.209124  0.310556 0.140599 1 1 1.000000
0  35.620834 103.688332 28.196138  0.932169 0.347913 0.100085  0.311533 0.134739 1 1 1.000000
skin_0
0  35.620834 103.688332 28.196138  0.932169 0.347913 0.100085  0.311533 0.134739 1 1 1.000000
0  35.565777 103.523277 29.135033  0.894677 0.309982 0.321660  0.311533 0.134739 1 1 1.000000
0  35.896114 101.999428 29.181328  0.966060 0.089530 0.242307  0.309580 0.140599 1 1 1.000000
skin_0
0  35.978699 99.024559 29.073038  0.673882 -0.033409 0.738083  0.309580 0.150365 1 1 1.000000
0  35.896114 101.999428 29.181328  0.966060 0.089530 0.242307  0.309580 0.140599 1 1 1.000000
0  35.703419 101.950417 29.425734  0.734390 0.057640 0.676276  0.310556 0.140599 1 1 1.000000
skin_0
0  35.703419 101.950417 29.425734  0.734390 0.057640 0.676276  0.310556 0.140599 1 1 1.000000
0  35.469433 101.918709 29.630203  0.559328 -0.039816 0.827990  0.311533 0.140599 1 1 1.000000
0  35.744713 98.856934 29.251802  0.329555 -0.086812 0.940137  0.310556 0.151341 1 1 1.000000
skin_0
0  35.744713 98.856934 29.251802  0.329555 -0.086812 0.940137  0.310556 0.151341 1 1 1.000000
0  35.978699 99.024559 29.073038  0.673882 -0.033409 0.738083  0.309580 0.150365 1 1 1.000000
0  35.703419 101.950417 29.425734  0.734390 0.057640 0.676276  0.310556 0.140599 1 1 1.000000
skin_0
0  20.012630 105.057991 33.386597  0.008148 -0.014398 0.999863  0.393567 0.127903 1 1 1.000000
0  26.977137 105.021660 33.328156  0.007350 -0.022338 0.999723  0.356456 0.127903 1 1 1.000000
0  26.977137 105.259720 32.975941  0.008239 0.835727 0.549083  0.356456 0.127903 1 1 1.000000
skin_0
0  26.977137 105.259720 32.975941  0.008239 0.835727 0.549083  0.356456 0.127903 1 1 1.000000
0  20.012630 105.297256 33.020672  0.009094 0.843296 0.537373  0.393567 0.127903 1 1 1.000000
0  20.012630 105.057991 33.386597  0.008148 -0.014398 0.999863  0.393567 0.127903 1 1 1.000000
skin_0
0  -0.013769 105.134262 33.462353  -0.000562 0.009548 0.999954  0.500015 0.127903 1 1 1.000000
0  6.634169 105.121750 33.447441  0.002228 0.003840 0.999990  0.464858 0.127903 1 1 1.000000
0  6.634169 105.331192 33.106541  0.002106 0.858186 0.513335  0.464858 0.126926 1 1 1.000000
skin_0
0  6.634169 105.331192 33.106541  0.002106 0.858186 0.513335  0.464858 0.126926 1 1 1.000000
0  -0.013769 105.329987 33.120255  -0.000279 0.862403 0.506223  0.500015 0.126926 1 1 1.000000
0  -0.013769 105.134262 33.462353  -0.000562 0.009548 0.999954  0.500015 0.127903 1 1 1.000000
skin_0
0  30.252935 105.009148 33.313244  0.020161 -0.024709 0.999491  0.339854 0.128880 1 1 1.000000
0  32.193638 104.974014 33.241085  0.272253 0.026310 0.961866  0.329112 0.128880 1 1 1.000000
0  31.973412 105.226982 32.876358  0.166583 0.849780 0.500125  0.330088 0.127903 1 1 1.000000
skin_0
0  31.973412 105.226982 32.876358  0.166583 0.849780 0.500125  0.330088 0.127903 1 1 1.000000
0  30.280462 105.248405 32.947319  0.021938 0.830831 0.556092  0.339854 0.127903 1 1 1.000000
0  30.252935 105.009148 33.313244  0.020161 -0.024709 0.999491  0.339854 0.128880 1 1 1.000000
skin_0
0  20.012630 105.297256 33.020672  0.009094 0.843296 0.537373  0.393567 0.127903 1 1 1.000000
0  13.612440 105.333588 33.079117  0.006012 0.853793 0.520578  0.427747 0.126926 1 1 1.000000
0  13.612440 105.109238 33.432529  0.005098 0.000285 0.999987  0.427747 0.127903 1 1 1.000000
skin_0
0  13.612440 105.109238 33.432529  0.005098 0.000285 0.999987  0.427747 0.127903 1 1 1.000000
0  20.012630 105.057991 33.386597  0.008148 -0.014398 0.999863  0.393567 0.127903 1 1 1.000000
0  20.012630 105.297256 33.020672  0.009094 0.843296 0.537373  0.393567 0.127903 1 1 1.000000
skin_0
0  -0.013770 104.848869 31.986658  0.000487 0.965971 -0.258649  0.500015 0.145482 1 1 1.000000
0  6.634169 104.836365 31.971746  0.000699 0.964913 -0.262569  0.464858 0.145482 1 1 1.000000
0  6.634169 104.465958 28.941177  0.001304 0.999846 -0.017485  0.464858 0.134739 1 1 1.000000
skin_0
0  6.634169 104.465958 28.941177  0.001304 0.999846 -0.017485  0.464858 0.134739 1 1 1.000000
0  -0.013770 104.479668 28.942377  0.000078 0.999859 -0.016784  0.500015 0.134739 1 1 1.000000
0  -0.013770 104.848869 31.986658  0.000487 0.965971 -0.258649  0.500015 0.145482 1 1 1.000000
skin_0
0  20.012630 104.430809 28.869020  0.004316 0.999845 -0.017064  0.393567 0.134739 1 1 1.000000
0  13.612440 104.467155 28.927464  0.003296 0.999839 -0.017639  0.427747 0.134739 1 1 1.000000
0  13.612440 104.822647 31.970545  0.001341 0.963629 -0.267240  0.427747 0.145482 1 1 1.000000
skin_0
0  13.612440 104.822647 31.970545  0.001341 0.963629 -0.267240  0.427747 0.145482 1 1 1.000000
0  20.012630 104.787514 31.898390  0.002108 0.963602 -0.267333  0.393567 0.145482 1 1 1.000000
0  20.012630 104.430809 28.869020  0.004316 0.999845 -0.017064  0.393567 0.134739 1 1 1.000000
skin_0
0  20.012630 104.787514 31.898390  0.002108 0.963602 -0.267333  0.393567 0.145482 1 1 1.000000
0  26.977137 104.763695 31.854856  0.001976 0.963823 -0.266536  0.356456 0.145482 1 1 1.000000
0  26.977137 104.406982 28.825485  0.003784 0.999843 -0.017308  0.356456 0.134739 1 1 1.000000
skin_0
0  26.977137 104.406982 28.825485  0.003784 0.999843 -0.017308  0.356456 0.134739 1 1 1.000000
0  20.012630 104.430809 28.869020  0.004316 0.999845 -0.017064  0.393567 0.134739 1 1 1.000000
0  20.012630 104.787514 31.898390  0.002108 0.963602 -0.267333  0.393567 0.145482 1 1 1.000000
skin_0
0  33.611309 104.365852 28.821886  -0.117499 0.985783 -0.120111  0.321299 0.134739 1 1 1.000000
0  32.124817 104.383163 28.781954  0.008592 0.999816 -0.017156  0.330088 0.134739 1 1 1.000000
0  30.941126 104.752380 31.826237  -0.000571 0.963096 -0.269159  0.335948 0.145482 1 1 1.000000
skin_0
0  30.941126 104.752380 31.826237  -0.000571 0.963096 -0.269159  0.335948 0.145482 1 1 1.000000
0  32.083527 104.730957 31.755280  -0.155010 0.939421 -0.305712  0.330088 0.144505 1 1 1.000000
0  33.611309 104.365852 28.821886  -0.117499 0.985783 -0.120111  0.321299 0.134739 1 1 1.000000
skin_0
0  32.083527 104.730957 31.755280  -0.155010 0.939421 -0.305712  0.330088 0.144505 1 1 1.000000
0  33.693893 105.013412 30.895739  -0.317055 0.897212 -0.307388  0.321299 0.141575 1 1 1.000000
0  34.712418 104.784225 29.093370  -0.278001 0.918110 -0.282470  0.316416 0.135716 1 1 1.000000
skin_0
0  34.712418 104.784225 29.093370  -0.278001 0.918110 -0.282470  0.316416 0.135716 1 1 1.000000
0  33.611309 104.365852 28.821886  -0.117499 0.985783 -0.120111  0.321299 0.134739 1 1 1.000000
0  32.083527 104.730957 31.755280  -0.155010 0.939421 -0.305712  0.330088 0.144505 1 1 1.000000
skin_0
0  -0.013769 105.329987 33.120255  0.000806 0.920297 -0.391220  0.500015 0.149388 1 1 1.000000
0  6.634169 105.331192 33.106541  0.000166 0.916188 -0.400750  0.464858 0.149388 1 1 1.000000
0  6.634169 104.836365 31.971746  0.000699 0.964913 -0.262569  0.464858 0.145482 1 1 1.000000
skin_0
0  6.634169 104.836365 31.971746  0.000699 0.964913 -0.262569  0.464858 0.145482 1 1 1.000000
0  -0.013770 104.848869 31.986658  0.000487 0.965971 -0.258649  0.500015 0.145482 1 1 1.000000
0  -0.013769 105.329987 33.120255  0.000806 0.920297 -0.391220  0.500015 0.149388 1 1 1.000000
skin_0
0  13.612440 104.529007 28.062441  0.003872 0.996434 0.084287  0.427747 0.131809 1 1 1.000000
0  6.634169 104.540329 28.091064  0.001695 0.996430 0.084404  0.464858 0.131809 1 1 1.000000
0  6.634169 104.465958 28.941177  0.001304 0.999846 -0.017485  0.464858 0.134739 1 1 1.000000
skin_0
0  6.634169 104.465958 28.941177  0.001304 0.999846 -0.017485  0.464858 0.134739 1 1 1.000000
0  13.612440 104.467155 28.927464  0.003296 0.999839 -0.017639  0.427747 0.134739 1 1 1.000000
0  13.612440 104.529007 28.062441  0.003872 0.996434 0.084287  0.427747 0.131809 1 1 1.000000
skin_0
0  20.012630 104.787514 31.898390  0.002108 0.963602 -0.267333  0.393567 0.145482 1 1 1.000000
0  13.612440 104.822647 31.970545  0.001341 0.963629 -0.267240  0.427747 0.145482 1 1 1.000000
0  13.612440 105.333588 33.079117  -0.000125 0.912482 -0.409117  0.427747 0.149388 1 1 1.000000
skin_0
0  13.612440 105.333588 33.079117  -0.000125 0.912482 -0.409117  0.427747 0.149388 1 1 1.000000
0  20.012630 105.297256 33.020672  0.000719 0.912415 -0.409266  0.393567 0.149388 1 1 1.000000
0  20.012630 104.787514 31.898390  0.002108 0.963602 -0.267333  0.393567 0.145482 1 1 1.000000
skin_0
0  13.612440 104.467155 28.927464  0.003296 0.999839 -0.017639  0.427747 0.134739 1 1 1.000000
0  20.012630 104.430809 28.869020  0.004316 0.999845 -0.017064  0.393567 0.134739 1 1 1.000000
0  20.012630 104.506378 28.005198  0.005236 0.996396 0.084657  0.393567 0.131809 1 1 1.000000
skin_0
0  20.012630 104.506378 28.005198  0.005236 0.996396 0.084657  0.393567 0.131809 1 1 1.000000
0  13.612440 104.529007 28.062441  0.003872 0.996434 0.084287  0.427747 0.131809 1 1 1.000000
0  13.612440 104.467155 28.927464  0.003296 0.999839 -0.017639  0.427747 0.134739 1 1 1.000000
skin_0
0  20.012630 105.297256 33.020672  0.000719 0.912415 -0.409266  0.393567 0.149388 1 1 1.000000
0  26.977137 105.259720 32.975941  0.000798 0.912711 -0.408605  0.356456 0.149388 1 1 1.000000
0  26.977137 104.763695 31.854856  0.001976 0.963823 -0.266536  0.356456 0.145482 1 1 1.000000
skin_0
0  26.977137 104.763695 31.854856  0.001976 0.963823 -0.266536  0.356456 0.145482 1 1 1.000000
0  20.012630 104.787514 31.898390  0.002108 0.963602 -0.267333  0.393567 0.145482 1 1 1.000000
0  20.012630 105.297256 33.020672  0.000719 0.912415 -0.409266  0.393567 0.149388 1 1 1.000000
skin_0
0  32.331276 104.458733 27.918131  0.015826 0.996096 0.086848  0.328135 0.131809 1 1 1.000000
0  29.633558 104.457535 27.931841  0.004792 0.996442 0.084147  0.342784 0.131809 1 1 1.000000
0  29.633558 104.395676 28.796864  0.004066 0.999842 -0.017327  0.342784 0.134739 1 1 1.000000
skin_0
0  29.633558 104.395676 28.796864  0.004066 0.999842 -0.017327  0.342784 0.134739 1 1 1.000000
0  32.124817 104.383163 28.781954  0.008592 0.999816 -0.017156  0.330088 0.134739 1 1 1.000000
0  32.331276 104.458733 27.918131  0.015826 0.996096 0.086848  0.328135 0.131809 1 1 1.000000
skin_0
0  32.083527 104.730957 31.755280  -0.155010 0.939421 -0.305712  0.330088 0.144505 1 1 1.000000
0  30.941126 104.752380 31.826237  -0.000571 0.963096 -0.269159  0.335948 0.145482 1 1 1.000000
0  30.280462 105.248405 32.947319  -0.001962 0.912451 -0.409182  0.339854 0.148412 1 1 1.000000
skin_0
0  30.280462 105.248405 32.947319  -0.001962 0.912451 -0.409182  0.339854 0.148412 1 1 1.000000
0  31.973412 105.226982 32.876358  -0.098834 0.917887 -0.384338  0.330088 0.148412 1 1 1.000000
0  32.083527 104.730957 31.755280  -0.155010 0.939421 -0.305712  0.330088 0.144505 1 1 1.000000
skin_0
0  32.124817 104.383163 28.781954  0.008592 0.999816 -0.017156  0.330088 0.134739 1 1 1.000000
0  33.611309 104.365852 28.821886  -0.117499 0.985783 -0.120111  0.321299 0.134739 1 1 1.000000
0  34.010460 104.427200 27.804838  0.018060 0.997927 0.061764  0.319346 0.130833 1 1 1.000000
skin_0
0  34.010460 104.427200 27.804838  0.018060 0.997927 0.061764  0.319346 0.130833 1 1 1.000000
0  32.331276 104.458733 27.918131  0.015826 0.996096 0.086848  0.328135 0.131809 1 1 1.000000
0  32.124817 104.383163 28.781954  0.008592 0.999816 -0.017156  0.330088 0.134739 1 1 1.000000
skin_0
0  31.973412 105.226982 32.876358  -0.098834 0.917887 -0.384338  0.330088 0.148412 1 1 1.000000
0  32.441387 105.198524 32.569908  0.008405 0.994707 -0.102412  0.328135 0.147435 1 1 1.000000
0  33.693893 105.013412 30.895739  -0.317055 0.897212 -0.307388  0.321299 0.141575 1 1 1.000000
skin_0
0  33.693893 105.013412 30.895739  -0.317055 0.897212 -0.307388  0.321299 0.141575 1 1 1.000000
0  32.083527 104.730957 31.755280  -0.155010 0.939421 -0.305712  0.330088 0.144505 1 1 1.000000
0  31.973412 105.226982 32.876358  -0.098834 0.917887 -0.384338  0.330088 0.148412 1 1 1.000000
skin_0
0  35.194153 104.410057 27.527010  -0.151127 0.976890 -0.151152  0.313486 0.129856 1 1 1.000000
0  34.010460 104.427200 27.804838  0.018060 0.997927 0.061764  0.319346 0.130833 1 1 1.000000
0  33.611309 104.365852 28.821886  -0.117499 0.985783 -0.120111  0.321299 0.134739 1 1 1.000000
skin_0
0  33.611309 104.365852 28.821886  -0.117499 0.985783 -0.120111  0.321299 0.134739 1 1 1.000000
0  34.712418 104.784225 29.093370  -0.278001 0.918110 -0.282470  0.316416 0.135716 1 1 1.000000
0  35.194153 104.410057 27.527010  -0.151127 0.976890 -0.151152  0.313486 0.129856 1 1 1.000000
skin_0
0  29.633558 101.942375 29.991505  0.011172 -0.241912 0.970234  0.342784 0.140599 1 1 1.000000
0  32.276218 101.932251 29.949167  0.042045 -0.246027 0.968351  0.329112 0.140599 1 1 1.000000
0  32.069763 103.348473 30.501379  0.024756 -0.647741 0.761458  0.330088 0.134739 1 1 1.000000
skin_0
0  32.069763 103.348473 30.501379  0.024756 -0.647741 0.761458  0.330088 0.134739 1 1 1.000000
0  29.633558 103.360985 30.516291  0.004427 -0.643265 0.765630  0.342784 0.134739 1 1 1.000000
0  29.633558 101.942375 29.991505  0.011172 -0.241912 0.970234  0.342784 0.140599 1 1 1.000000
skin_0
0  29.633558 103.360985 30.516291  0.004427 -0.643265 0.765630  0.342784 0.134739 1 1 1.000000
0  32.069763 103.348473 30.501379  0.024756 -0.647741 0.761458  0.330088 0.134739 1 1 1.000000
0  30.252935 105.009148 33.313244  0.020161 -0.024709 0.999491  0.339854 0.128880 1 1 1.000000
skin_0
0  30.252935 105.009148 33.313244  0.020161 -0.024709 0.999491  0.339854 0.128880 1 1 1.000000
0  29.619795 105.009148 33.313244  0.007915 -0.026301 0.999623  0.342784 0.128880 1 1 1.000000
0  29.633558 103.360985 30.516291  0.004427 -0.643265 0.765630  0.342784 0.134739 1 1 1.000000
skin_0
0  29.633558 101.942375 29.991505  0.011172 -0.241912 0.970234  0.342784 0.140599 1 1 1.000000
0  26.977137 101.967392 30.021326  0.010336 -0.237255 0.971392  0.356456 0.140599 1 1 1.000000
0  26.867027 98.878197 29.640524  0.013940 -0.123857 0.992202  0.357433 0.151341 1 1 1.000000
skin_0
0  26.867027 98.878197 29.640524  0.013940 -0.123857 0.992202  0.357433 0.151341 1 1 1.000000
0  29.495922 98.854362 29.596991  0.015319 -0.127372 0.991737  0.343760 0.151341 1 1 1.000000
0  29.633558 101.942375 29.991505  0.011172 -0.241912 0.970234  0.342784 0.140599 1 1 1.000000
skin_0
0  29.619795 105.009148 33.313244  0.007915 -0.026301 0.999623  0.342784 0.128880 1 1 1.000000
0  30.252935 105.009148 33.313244  0.020161 -0.024709 0.999491  0.339854 0.128880 1 1 1.000000
0  30.280462 105.248405 32.947319  0.021938 0.830831 0.556092  0.339854 0.127903 1 1 1.000000
skin_0
0  30.280462 105.248405 32.947319  0.021938 0.830831 0.556092  0.339854 0.127903 1 1 1.000000
0  29.619795 105.248405 32.947319  0.009023 0.832467 0.554001  0.342784 0.127903 1 1 1.000000
0  29.619795 105.009148 33.313244  0.007915 -0.026301 0.999623  0.342784 0.128880 1 1 1.000000
skin_0
0  29.619795 104.752380 31.826237  0.002159 0.963853 -0.266426  0.342784 0.145482 1 1 1.000000
0  30.941126 104.752380 31.826237  -0.000571 0.963096 -0.269159  0.335948 0.145482 1 1 1.000000
0  32.124817 104.383163 28.781954  0.008592 0.999816 -0.017156  0.330088 0.134739 1 1 1.000000
skin_0
0  32.124817 104.383163 28.781954  0.008592 0.999816 -0.017156  0.330088 0.134739 1 1 1.000000
0  29.633558 104.395676 28.796864  0.004066 0.999842 -0.017327  0.342784 0.134739 1 1 1.000000
0  29.619795 104.752380 31.826237  0.002159 0.963853 -0.266426  0.342784 0.145482 1 1 1.000000
skin_0
0  29.619795 105.248405 32.947319  0.000849 0.912809 -0.408386  0.342784 0.148412 1 1 1.000000
0  30.280462 105.248405 32.947319  -0.001962 0.912451 -0.409182  0.339854 0.148412 1 1 1.000000
0  30.941126 104.752380 31.826237  -0.000571 0.963096 -0.269159  0.335948 0.145482 1 1 1.000000
skin_0
0  30.941126 104.752380 31.826237  -0.000571 0.963096 -0.269159  0.335948 0.145482 1 1 1.000000
0  29.619795 104.752380 31.826237  0.002159 0.963853 -0.266426  0.342784 0.145482 1 1 1.000000
0  29.619795 105.248405 32.947319  0.000849 0.912809 -0.408386  0.342784 0.148412 1 1 1.000000
skin_0
0  29.633558 104.457535 27.931841  0.004792 0.996442 0.084147  0.342784 0.131809 1 1 1.000000
0  26.977137 104.468849 27.960463  0.004426 0.996444 0.084143  0.356456 0.131809 1 1 1.000000
0  26.977137 104.406982 28.825485  0.003784 0.999843 -0.017308  0.356456 0.134739 1 1 1.000000
skin_0
0  26.977137 104.406982 28.825485  0.003784 0.999843 -0.017308  0.356456 0.134739 1 1 1.000000
0  29.633558 104.395676 28.796864  0.004066 0.999842 -0.017327  0.342784 0.134739 1 1 1.000000
0  29.633558 104.457535 27.931841  0.004792 0.996442 0.084147  0.342784 0.131809 1 1 1.000000
skin_0
0  26.977137 101.967392 30.021326  0.010336 -0.237255 0.971392  0.356456 0.140599 1 1 1.000000
0  29.633558 101.942375 29.991505  0.011172 -0.241912 0.970234  0.342784 0.140599 1 1 1.000000
0  29.633558 103.360985 30.516291  0.004427 -0.643265 0.765630  0.342784 0.134739 1 1 1.000000
skin_0
0  29.633558 103.360985 30.516291  0.004427 -0.643265 0.765630  0.342784 0.134739 1 1 1.000000
0  26.977137 103.372299 30.544912  0.004071 -0.640517 0.767933  0.356456 0.134739 1 1 1.000000
0  26.977137 101.967392 30.021326  0.010336 -0.237255 0.971392  0.356456 0.140599 1 1 1.000000
skin_0
0  26.977137 103.372299 30.544912  0.004071 -0.640517 0.767933  0.356456 0.134739 1 1 1.000000
0  29.633558 103.360985 30.516291  0.004427 -0.643265 0.765630  0.342784 0.134739 1 1 1.000000
0  29.619795 105.009148 33.313244  0.007915 -0.026301 0.999623  0.342784 0.128880 1 1 1.000000
skin_0
0  29.619795 105.009148 33.313244  0.007915 -0.026301 0.999623  0.342784 0.128880 1 1 1.000000
0  26.977137 105.021660 33.328156  0.007350 -0.022338 0.999723  0.356456 0.127903 1 1 1.000000
0  26.977137 103.372299 30.544912  0.004071 -0.640517 0.767933  0.356456 0.134739 1 1 1.000000
skin_0
0  26.977137 105.021660 33.328156  0.007350 -0.022338 0.999723  0.356456 0.127903 1 1 1.000000
0  29.619795 105.009148 33.313244  0.007915 -0.026301 0.999623  0.342784 0.128880 1 1 1.000000
0  29.619795 105.248405 32.947319  0.009023 0.832467 0.554001  0.342784 0.127903 1 1 1.000000
skin_0
0  29.619795 105.248405 32.947319  0.009023 0.832467 0.554001  0.342784 0.127903 1 1 1.000000
0  26.977137 105.259720 32.975941  0.008239 0.835727 0.549083  0.356456 0.127903 1 1 1.000000
0  26.977137 105.021660 33.328156  0.007350 -0.022338 0.999723  0.356456 0.127903 1 1 1.000000
skin_0
0  26.977137 104.763695 31.854856  0.001976 0.963823 -0.266536  0.356456 0.145482 1 1 1.000000
0  29.619795 104.752380 31.826237  0.002159 0.963853 -0.266426  0.342784 0.145482 1 1 1.000000
0  29.633558 104.395676 28.796864  0.004066 0.999842 -0.017327  0.342784 0.134739 1 1 1.000000
skin_0
0  29.633558 104.395676 28.796864  0.004066 0.999842 -0.017327  0.342784 0.134739 1 1 1.000000
0  26.977137 104.406982 28.825485  0.003784 0.999843 -0.017308  0.356456 0.134739 1 1 1.000000
0  26.977137 104.763695 31.854856  0.001976 0.963823 -0.266536  0.356456 0.145482 1 1 1.000000
skin_0
0  26.977137 105.259720 32.975941  0.000798 0.912711 -0.408605  0.356456 0.149388 1 1 1.000000
0  29.619795 105.248405 32.947319  0.000849 0.912809 -0.408386  0.342784 0.148412 1 1 1.000000
0  29.619795 104.752380 31.826237  0.002159 0.963853 -0.266426  0.342784 0.145482 1 1 1.000000
skin_0
0  29.619795 104.752380 31.826237  0.002159 0.963853 -0.266426  0.342784 0.145482 1 1 1.000000
0  26.977137 104.763695 31.854856  0.001976 0.963823 -0.266536  0.356456 0.145482 1 1 1.000000
0  26.977137 105.259720 32.975941  0.000798 0.912711 -0.408605  0.356456 0.149388 1 1 1.000000
skin_0
0  26.977137 101.967392 30.021326  0.010336 -0.237255 0.971392  0.356456 0.140599 1 1 1.000000
0  20.012630 102.001328 30.107193  0.011927 -0.227143 0.973788  0.393567 0.139622 1 1 1.000000
0  19.971338 98.924644 29.741302  0.013793 -0.116037 0.993149  0.393567 0.151341 1 1 1.000000
skin_0
0  19.971338 98.924644 29.741302  0.013793 -0.116037 0.993149  0.393567 0.151341 1 1 1.000000
0  26.867027 98.878197 29.640524  0.013940 -0.123857 0.992202  0.357433 0.151341 1 1 1.000000
0  26.977137 101.967392 30.021326  0.010336 -0.237255 0.971392  0.356456 0.140599 1 1 1.000000
skin_0
0  26.977137 104.468849 27.960463  0.004426 0.996444 0.084143  0.356456 0.131809 1 1 1.000000
0  20.012630 104.506378 28.005198  0.005236 0.996396 0.084657  0.393567 0.131809 1 1 1.000000
0  20.012630 104.430809 28.869020  0.004316 0.999845 -0.017064  0.393567 0.134739 1 1 1.000000
skin_0
0  20.012630 104.430809 28.869020  0.004316 0.999845 -0.017064  0.393567 0.134739 1 1 1.000000
0  26.977137 104.406982 28.825485  0.003784 0.999843 -0.017308  0.356456 0.134739 1 1 1.000000
0  26.977137 104.468849 27.960463  0.004426 0.996444 0.084143  0.356456 0.131809 1 1 1.000000
skin_0
0  6.647933 102.085312 30.252703  0.003548 -0.213743 0.976883  0.464858 0.139622 1 1 1.000000
0  13.612440 102.060287 30.222879  0.009316 -0.218231 0.975853  0.427747 0.139622 1 1 1.000000
0  13.612440 103.443787 30.675514  0.003205 -0.624980 0.780634  0.427747 0.134739 1 1 1.000000
skin_0
0  13.612440 103.443787 30.675514  0.003205 -0.624980 0.780634  0.427747 0.134739 1 1 1.000000
0  6.634169 103.455093 30.704142  0.001915 -0.623890 0.781510  0.464858 0.134739 1 1 1.000000
0  6.647933 102.085312 30.252703  0.003548 -0.213743 0.976883  0.464858 0.139622 1 1 1.000000
skin_0
0  6.634169 103.455093 30.704142  0.001915 -0.623890 0.781510  0.464858 0.134739 1 1 1.000000
0  13.612440 103.443787 30.675514  0.003205 -0.624980 0.780634  0.427747 0.134739 1 1 1.000000
0  13.612440 105.109238 33.432529  0.005098 0.000285 0.999987  0.427747 0.127903 1 1 1.000000
skin_0
0  13.612440 105.109238 33.432529  0.005098 0.000285 0.999987  0.427747 0.127903 1 1 1.000000
0  6.634169 105.121750 33.447441  0.002228 0.003840 0.999990  0.464858 0.127903 1 1 1.000000
0  6.634169 103.455093 30.704142  0.001915 -0.623890 0.781510  0.464858 0.134739 1 1 1.000000
skin_0
0  6.647933 102.085312 30.252703  0.003548 -0.213743 0.976883  0.464858 0.139622 1 1 1.000000
0  -0.013769 102.097824 30.267618  0.000072 -0.214794 0.976659  0.500015 0.139622 1 1 1.000000
0  -0.013769 99.017540 29.942860  -0.000730 -0.105447 0.994425  0.500015 0.150365 1 1 1.000000
skin_0
0  -0.013769 99.017540 29.942860  -0.000730 -0.105447 0.994425  0.500015 0.150365 1 1 1.000000
0  6.730517 99.006226 29.914238  0.004563 -0.109230 0.994006  0.463881 0.150365 1 1 1.000000
0  6.647933 102.085312 30.252703  0.003548 -0.213743 0.976883  0.464858 0.139622 1 1 1.000000
skin_0
0  6.634169 105.121750 33.447441  0.002228 0.003840 0.999990  0.464858 0.127903 1 1 1.000000
0  13.612440 105.109238 33.432529  0.005098 0.000285 0.999987  0.427747 0.127903 1 1 1.000000
0  13.612440 105.333588 33.079117  0.006012 0.853793 0.520578  0.427747 0.126926 1 1 1.000000
skin_0
0  13.612440 105.333588 33.079117  0.006012 0.853793 0.520578  0.427747 0.126926 1 1 1.000000
0  6.634169 105.331192 33.106541  0.002106 0.858186 0.513335  0.464858 0.126926 1 1 1.000000
0  6.634169 105.121750 33.447441  0.002228 0.003840 0.999990  0.464858 0.127903 1 1 1.000000
skin_0
0  6.634169 104.836365 31.971746  0.000699 0.964913 -0.262569  0.464858 0.145482 1 1 1.000000
0  13.612440 104.822647 31.970545  0.001341 0.963629 -0.267240  0.427747 0.145482 1 1 1.000000
0  13.612440 104.467155 28.927464  0.003296 0.999839 -0.017639  0.427747 0.134739 1 1 1.000000
skin_0
0  13.612440 104.467155 28.927464  0.003296 0.999839 -0.017639  0.427747 0.134739 1 1 1.000000
0  6.634169 104.465958 28.941177  0.001304 0.999846 -0.017485  0.464858 0.134739 1 1 1.000000
0  6.634169 104.836365 31.971746  0.000699 0.964913 -0.262569  0.464858 0.145482 1 1 1.000000
skin_0
0  6.634169 105.331192 33.106541  0.000166 0.916188 -0.400750  0.464858 0.149388 1 1 1.000000
0  13.612440 105.333588 33.079117  -0.000125 0.912482 -0.409117  0.427747 0.149388 1 1 1.000000
0  13.612440 104.822647 31.970545  0.001341 0.963629 -0.267240  0.427747 0.145482 1 1 1.000000
skin_0
0  13.612440 104.822647 31.970545  0.001341 0.963629 -0.267240  0.427747 0.145482 1 1 1.000000
0  6.634169 104.836365 31.971746  0.000699 0.964913 -0.262569  0.464858 0.145482 1 1 1.000000
0  6.634169 105.331192 33.106541  0.000166 0.916188 -0.400750  0.464858 0.149388 1 1 1.000000
skin_0
0  6.634169 104.540329 28.091064  0.001695 0.996430 0.084404  0.464858 0.131809 1 1 1.000000
0  -0.013770 104.552841 28.105980  -0.000028 0.996437 0.084343  0.500015 0.131809 1 1 1.000000
0  -0.013770 104.479668 28.942377  0.000078 0.999859 -0.016784  0.500015 0.134739 1 1 1.000000
skin_0
0  -0.013770 104.479668 28.942377  0.000078 0.999859 -0.016784  0.500015 0.134739 1 1 1.000000
0  6.634169 104.465958 28.941177  0.001304 0.999846 -0.017485  0.464858 0.134739 1 1 1.000000
0  6.634169 104.540329 28.091064  0.001695 0.996430 0.084404  0.464858 0.131809 1 1 1.000000
skin_0
0  -27.004677 101.967392 30.021330  -0.010036 -0.237581 0.971316  0.642598 0.140599 1 1 1.000000
0  -20.040169 102.001328 30.107197  -0.012407 -0.226317 0.973975  0.605487 0.139622 1 1 1.000000
0  -20.040169 103.394920 30.602163  -0.004468 -0.633750 0.773525  0.605487 0.134739 1 1 1.000000
skin_0
0  -20.040169 103.394920 30.602163  -0.004468 -0.633750 0.773525  0.605487 0.134739 1 1 1.000000
0  -27.004677 103.372299 30.544916  -0.004330 -0.641229 0.767338  0.642598 0.134739 1 1 1.000000
0  -27.004677 101.967392 30.021330  -0.010036 -0.237581 0.971316  0.642598 0.140599 1 1 1.000000
skin_0
0  -6.675472 102.085312 30.252703  -0.004174 -0.214586 0.976696  0.535173 0.139622 1 1 1.000000
0  -0.013769 102.097824 30.267618  0.000072 -0.214794 0.976659  0.500015 0.139622 1 1 1.000000
0  -0.013769 103.466408 30.732763  0.000226 -0.625447 0.780267  0.500015 0.134739 1 1 1.000000
skin_0
0  -0.013769 103.466408 30.732763  0.000226 -0.625447 0.780267  0.500015 0.134739 1 1 1.000000
0  -6.661708 103.455093 30.704142  -0.001979 -0.623675 0.781681  0.535173 0.134739 1 1 1.000000
0  -6.675472 102.085312 30.252703  -0.004174 -0.214586 0.976696  0.535173 0.139622 1 1 1.000000
skin_0
0  -35.290512 101.896599 29.724989  -0.272773 -0.174991 0.946030  0.686544 0.140599 1 1 1.000000
0  -32.303753 101.932251 29.949171  -0.043282 -0.246321 0.968221  0.670919 0.140599 1 1 1.000000
0  -32.097301 103.348473 30.501383  -0.027481 -0.644343 0.764243  0.669942 0.134739 1 1 1.000000
skin_0
0  -32.097301 103.348473 30.501383  -0.027481 -0.644343 0.764243  0.669942 0.134739 1 1 1.000000
0  -34.561028 103.321739 30.333246  -0.261849 -0.526195 0.809045  0.682638 0.135716 1 1 1.000000
0  -35.290512 101.896599 29.724989  -0.272773 -0.174991 0.946030  0.686544 0.140599 1 1 1.000000
skin_0
0  -34.561028 103.321739 30.333246  -0.261849 -0.526195 0.809045  0.682638 0.135716 1 1 1.000000
0  -32.097301 103.348473 30.501383  -0.027481 -0.644343 0.764243  0.669942 0.134739 1 1 1.000000
0  -30.280474 105.009148 33.313248  -0.023166 -0.025750 0.999400  0.660176 0.128880 1 1 1.000000
skin_0
0  -30.280474 105.009148 33.313248  -0.023166 -0.025750 0.999400  0.660176 0.128880 1 1 1.000000
0  -32.221172 104.974014 33.241089  -0.270560 0.020357 0.962488  0.669942 0.128880 1 1 1.000000
0  -34.561028 103.321739 30.333246  -0.261849 -0.526195 0.809045  0.682638 0.135716 1 1 1.000000
skin_0
0  -27.004677 103.372299 30.544916  -0.004330 -0.641229 0.767338  0.642598 0.134739 1 1 1.000000
0  -20.040169 103.394920 30.602163  -0.004468 -0.633750 0.773525  0.605487 0.134739 1 1 1.000000
0  -20.040169 105.057991 33.386600  -0.007661 -0.014728 0.999862  0.605487 0.127903 1 1 1.000000
skin_0
0  -20.040169 105.057991 33.386600  -0.007661 -0.014728 0.999862  0.605487 0.127903 1 1 1.000000
0  -27.004677 105.021660 33.328159  -0.007264 -0.022512 0.999720  0.642598 0.127903 1 1 1.000000
0  -27.004677 103.372299 30.544916  -0.004330 -0.641229 0.767338  0.642598 0.134739 1 1 1.000000
skin_0
0  -6.661708 103.455093 30.704142  -0.001979 -0.623675 0.781681  0.535173 0.134739 1 1 1.000000
0  -0.013769 103.466408 30.732763  0.000226 -0.625447 0.780267  0.500015 0.134739 1 1 1.000000
0  -0.013769 105.134262 33.462353  -0.000562 0.009548 0.999954  0.500015 0.127903 1 1 1.000000
skin_0
0  -0.013769 105.134262 33.462353  -0.000562 0.009548 0.999954  0.500015 0.127903 1 1 1.000000
0  -6.661708 105.121750 33.447441  -0.002308 0.003639 0.999991  0.535173 0.127903 1 1 1.000000
0  -6.661708 103.455093 30.704142  -0.001979 -0.623675 0.781681  0.535173 0.134739 1 1 1.000000
skin_0
0  -13.639980 103.443787 30.675518  -0.004719 -0.625136 0.780501  0.572283 0.134739 1 1 1.000000
0  -20.040169 103.394920 30.602163  -0.004468 -0.633750 0.773525  0.605487 0.134739 1 1 1.000000
0  -20.040169 102.001328 30.107197  -0.012407 -0.226317 0.973975  0.605487 0.139622 1 1 1.000000
skin_0
0  -20.040169 102.001328 30.107197  -0.012407 -0.226317 0.973975  0.605487 0.139622 1 1 1.000000
0  -13.639980 102.060287 30.222883  -0.009429 -0.218221 0.975854  0.572283 0.139622 1 1 1.000000
0  -13.639980 103.443787 30.675518  -0.004719 -0.625136 0.780501  0.572283 0.134739 1 1 1.000000
skin_0
0  -13.639980 105.109238 33.432533  -0.006164 0.000053 0.999981  0.572283 0.127903 1 1 1.000000
0  -20.040169 105.057991 33.386600  -0.007661 -0.014728 0.999862  0.605487 0.127903 1 1 1.000000
0  -20.040169 103.394920 30.602163  -0.004468 -0.633750 0.773525  0.605487 0.134739 1 1 1.000000
skin_0
0  -20.040169 103.394920 30.602163  -0.004468 -0.633750 0.773525  0.605487 0.134739 1 1 1.000000
0  -13.639980 103.443787 30.675518  -0.004719 -0.625136 0.780501  0.572283 0.134739 1 1 1.000000
0  -13.639980 105.109238 33.432533  -0.006164 0.000053 0.999981  0.572283 0.127903 1 1 1.000000
skin_0
0  -29.661097 101.942375 29.991508  -0.011260 -0.241873 0.970243  0.656270 0.140599 1 1 1.000000
0  -32.303753 101.932251 29.949171  -0.043282 -0.246321 0.968221  0.670919 0.140599 1 1 1.000000
0  -32.138592 98.830544 29.553461  -0.047187 -0.130159 0.990370  0.669942 0.151341 1 1 1.000000
skin_0
0  -32.138592 98.830544 29.553461  -0.047187 -0.130159 0.990370  0.669942 0.151341 1 1 1.000000
0  -29.523460 98.854362 29.596994  -0.015352 -0.125460 0.991980  0.656270 0.151341 1 1 1.000000
0  -29.661097 101.942375 29.991508  -0.011260 -0.241873 0.970243  0.656270 0.140599 1 1 1.000000
skin_0
0  -6.675472 102.085312 30.252703  -0.004174 -0.214586 0.976696  0.535173 0.139622 1 1 1.000000
0  -13.639980 102.060287 30.222883  -0.009429 -0.218221 0.975854  0.572283 0.139622 1 1 1.000000
0  -13.653744 98.997314 29.858194  -0.010978 -0.116964 0.993075  0.572283 0.150365 1 1 1.000000
skin_0
0  -13.653744 98.997314 29.858194  -0.010978 -0.116964 0.993075  0.572283 0.150365 1 1 1.000000
0  -6.758055 99.006226 29.914238  -0.005768 -0.107749 0.994161  0.535173 0.150365 1 1 1.000000
0  -6.675472 102.085312 30.252703  -0.004174 -0.214586 0.976696  0.535173 0.139622 1 1 1.000000
skin_0
0  -35.552025 98.787178 29.259521  -0.105880 -0.125545 0.986422  0.687521 0.151341 1 1 1.000000
0  -32.138592 98.830544 29.553461  -0.047187 -0.130159 0.990370  0.669942 0.151341 1 1 1.000000
0  -32.303753 101.932251 29.949171  -0.043282 -0.246321 0.968221  0.670919 0.140599 1 1 1.000000
skin_0
0  -32.303753 101.932251 29.949171  -0.043282 -0.246321 0.968221  0.670919 0.140599 1 1 1.000000
0  -35.290512 101.896599 29.724989  -0.272773 -0.174991 0.946030  0.686544 0.140599 1 1 1.000000
0  -35.552025 98.787178 29.259521  -0.105880 -0.125545 0.986422  0.687521 0.151341 1 1 1.000000
skin_0
0  -19.998877 98.924644 29.741306  -0.015498 -0.115314 0.993208  0.605487 0.151341 1 1 1.000000
0  -13.653744 98.997314 29.858194  -0.010978 -0.116964 0.993075  0.572283 0.150365 1 1 1.000000
0  -13.639980 102.060287 30.222883  -0.009429 -0.218221 0.975854  0.572283 0.139622 1 1 1.000000
skin_0
0  -13.639980 102.060287 30.222883  -0.009429 -0.218221 0.975854  0.572283 0.139622 1 1 1.000000
0  -20.040169 102.001328 30.107197  -0.012407 -0.226317 0.973975  0.605487 0.139622 1 1 1.000000
0  -19.998877 98.924644 29.741306  -0.015498 -0.115314 0.993208  0.605487 0.151341 1 1 1.000000
skin_0
0  -34.561028 103.321739 30.333246  -0.261849 -0.526195 0.809045  0.682638 0.135716 1 1 1.000000
0  -32.221172 104.974014 33.241089  -0.270560 0.020357 0.962488  0.669942 0.128880 1 1 1.000000
0  -32.689144 104.931847 32.933441  -0.628492 0.186521 0.755121  0.672872 0.128880 1 1 1.000000
skin_0
0  -32.689144 104.931847 32.933441  -0.628492 0.186521 0.755121  0.672872 0.128880 1 1 1.000000
0  -34.850071 103.334930 30.182423  -0.651972 -0.086474 0.753296  0.684591 0.135716 1 1 1.000000
0  -34.561028 103.321739 30.333246  -0.261849 -0.526195 0.809045  0.682638 0.135716 1 1 1.000000
skin_0
0  -34.850071 103.334930 30.182423  -0.651972 -0.086474 0.753296  0.684591 0.135716 1 1 1.000000
0  -35.496967 101.918709 29.630207  -0.552532 -0.058896 0.831408  0.687521 0.140599 1 1 1.000000
0  -35.290512 101.896599 29.724989  -0.272773 -0.174991 0.946030  0.686544 0.140599 1 1 1.000000
skin_0
0  -35.290512 101.896599 29.724989  -0.272773 -0.174991 0.946030  0.686544 0.140599 1 1 1.000000
0  -34.561028 103.321739 30.333246  -0.261849 -0.526195 0.809045  0.682638 0.135716 1 1 1.000000
0  -34.850071 103.334930 30.182423  -0.651972 -0.086474 0.753296  0.684591 0.135716 1 1 1.000000
skin_0
0  -32.000954 105.226982 32.876362  -0.167670 0.848756 0.501498  0.668966 0.127903 1 1 1.000000
0  -32.468922 105.198524 32.569912  -0.428176 0.835908 0.343401  0.671896 0.127903 1 1 1.000000
0  -32.689144 104.931847 32.933441  -0.628492 0.186521 0.755121  0.672872 0.128880 1 1 1.000000
skin_0
0  -32.689144 104.931847 32.933441  -0.628492 0.186521 0.755121  0.672872 0.128880 1 1 1.000000
0  -32.221172 104.974014 33.241089  -0.270560 0.020357 0.962488  0.669942 0.128880 1 1 1.000000
0  -32.000954 105.226982 32.876362  -0.167670 0.848756 0.501498  0.668966 0.127903 1 1 1.000000
skin_0
0  -35.496967 101.918709 29.630207  -0.552532 -0.058896 0.831408  0.687521 0.140599 1 1 1.000000
0  -35.772247 98.856934 29.251806  -0.328728 -0.089330 0.940191  0.689474 0.151341 1 1 1.000000
0  -35.552025 98.787178 29.259521  -0.105880 -0.125545 0.986422  0.687521 0.151341 1 1 1.000000
skin_0
0  -35.552025 98.787178 29.259521  -0.105880 -0.125545 0.986422  0.687521 0.151341 1 1 1.000000
0  -35.290512 101.896599 29.724989  -0.272773 -0.174991 0.946030  0.686544 0.140599 1 1 1.000000
0  -35.496967 101.918709 29.630207  -0.552532 -0.058896 0.831408  0.687521 0.140599 1 1 1.000000
skin_0
0  -34.946419 104.516350 29.470613  -0.761588 0.577318 0.294427  0.684591 0.131809 1 1 1.000000
0  -33.927891 104.745522 31.272982  -0.738803 0.492149 0.460391  0.679708 0.129856 1 1 1.000000
0  -33.721436 105.013412 30.895742  -0.549339 0.797361 0.249885  0.677755 0.128880 1 1 1.000000
skin_0
0  -33.721436 105.013412 30.895742  -0.549339 0.797361 0.249885  0.677755 0.128880 1 1 1.000000
0  -34.739964 104.784225 29.093374  -0.655234 0.742435 0.139495  0.683615 0.130833 1 1 1.000000
0  -34.946419 104.516350 29.470613  -0.761588 0.577318 0.294427  0.684591 0.131809 1 1 1.000000
skin_0
0  -34.946419 104.516350 29.470613  -0.761588 0.577318 0.294427  0.684591 0.131809 1 1 1.000000
0  -35.593319 103.523277 29.135036  -0.907339 0.293087 0.301391  0.688498 0.134739 1 1 1.000000
0  -35.221691 103.400742 29.746052  -0.793449 0.197655 0.575649  0.686544 0.134739 1 1 1.000000
skin_0
0  -35.221691 103.400742 29.746052  -0.793449 0.197655 0.575649  0.686544 0.134739 1 1 1.000000
0  -33.927891 104.745522 31.272982  -0.738803 0.492149 0.460391  0.679708 0.129856 1 1 1.000000
0  -34.946419 104.516350 29.470613  -0.761588 0.577318 0.294427  0.684591 0.131809 1 1 1.000000
skin_0
0  -35.221691 103.400742 29.746052  -0.793449 0.197655 0.575649  0.686544 0.134739 1 1 1.000000
0  -35.593319 103.523277 29.135036  -0.907339 0.293087 0.301391  0.688498 0.134739 1 1 1.000000
0  -35.923649 101.999428 29.181332  -0.969876 0.108116 0.218290  0.689474 0.140599 1 1 1.000000
skin_0
0  -35.923649 101.999428 29.181332  -0.969876 0.108116 0.218290  0.689474 0.140599 1 1 1.000000
0  -35.730957 101.950417 29.425737  -0.738100 0.042954 0.673322  0.688498 0.140599 1 1 1.000000
0  -35.221691 103.400742 29.746052  -0.793449 0.197655 0.575649  0.686544 0.134739 1 1 1.000000
skin_0
0  -35.813538 102.059937 28.647781  -0.981365 0.123588 -0.147136  0.689474 0.140599 1 1 1.000000
0  -36.006233 99.024559 29.073042  -0.678192 -0.037931 0.733905  0.690451 0.150365 1 1 1.000000
0  -35.923649 101.999428 29.181332  -0.969876 0.108116 0.218290  0.689474 0.140599 1 1 1.000000
skin_0
0  -33.927891 104.745522 31.272982  -0.738803 0.492149 0.460391  0.679708 0.129856 1 1 1.000000
0  -32.689144 104.931847 32.933441  -0.628492 0.186521 0.755121  0.672872 0.128880 1 1 1.000000
0  -32.468922 105.198524 32.569912  -0.428176 0.835908 0.343401  0.671896 0.127903 1 1 1.000000
skin_0
0  -32.468922 105.198524 32.569912  -0.428176 0.835908 0.343401  0.671896 0.127903 1 1 1.000000
0  -33.721436 105.013412 30.895742  -0.549339 0.797361 0.249885  0.677755 0.128880 1 1 1.000000
0  -33.927891 104.745522 31.272982  -0.738803 0.492149 0.460391  0.679708 0.129856 1 1 1.000000
skin_0
0  -34.739964 104.784225 29.093374  -0.655234 0.742435 0.139495  0.683615 0.130833 1 1 1.000000
0  -35.221695 104.410057 27.527014  -0.595760 0.803142 -0.005734  0.686544 0.131809 1 1 1.000000
0  -35.428154 104.256660 27.859007  -0.726926 0.683399 0.067411  0.687521 0.132786 1 1 1.000000
skin_0
0  -35.428154 104.256660 27.859007  -0.726926 0.683399 0.067411  0.687521 0.132786 1 1 1.000000
0  -34.946419 104.516350 29.470613  -0.761588 0.577318 0.294427  0.684591 0.131809 1 1 1.000000
0  -34.739964 104.784225 29.093374  -0.655234 0.742435 0.139495  0.683615 0.130833 1 1 1.000000
skin_0
0  -34.850071 103.334930 30.182423  -0.651972 -0.086474 0.753296  0.684591 0.135716 1 1 1.000000
0  -32.689144 104.931847 32.933441  -0.628492 0.186521 0.755121  0.672872 0.128880 1 1 1.000000
0  -33.927891 104.745522 31.272982  -0.738803 0.492149 0.460391  0.679708 0.129856 1 1 1.000000
skin_0
0  -33.927891 104.745522 31.272982  -0.738803 0.492149 0.460391  0.679708 0.129856 1 1 1.000000
0  -35.221691 103.400742 29.746052  -0.793449 0.197655 0.575649  0.686544 0.134739 1 1 1.000000
0  -34.850071 103.334930 30.182423  -0.651972 -0.086474 0.753296  0.684591 0.135716 1 1 1.000000
skin_0
0  -35.593319 103.523277 29.135036  -0.907339 0.293087 0.301391  0.688498 0.134739 1 1 1.000000
0  -34.946419 104.516350 29.470613  -0.761588 0.577318 0.294427  0.684591 0.131809 1 1 1.000000
0  -35.428154 104.256660 27.859007  -0.726926 0.683399 0.067411  0.687521 0.132786 1 1 1.000000
skin_0
0  -35.428154 104.256660 27.859007  -0.726926 0.683399 0.067411  0.687521 0.132786 1 1 1.000000
0  -35.648376 103.688332 28.196142  -0.936773 0.329332 0.118306  0.688498 0.134739 1 1 1.000000
0  -35.593319 103.523277 29.135036  -0.907339 0.293087 0.301391  0.688498 0.134739 1 1 1.000000
skin_0
0  -35.730957 101.950417 29.425737  -0.738100 0.042954 0.673322  0.688498 0.140599 1 1 1.000000
0  -35.496967 101.918709 29.630207  -0.552532 -0.058896 0.831408  0.687521 0.140599 1 1 1.000000
0  -34.850071 103.334930 30.182423  -0.651972 -0.086474 0.753296  0.684591 0.135716 1 1 1.000000
skin_0
0  -34.850071 103.334930 30.182423  -0.651972 -0.086474 0.753296  0.684591 0.135716 1 1 1.000000
0  -35.221691 103.400742 29.746052  -0.793449 0.197655 0.575649  0.686544 0.134739 1 1 1.000000
0  -35.730957 101.950417 29.425737  -0.738100 0.042954 0.673322  0.688498 0.140599 1 1 1.000000
skin_0
0  -35.813538 102.059937 28.647781  -0.981365 0.123588 -0.147136  0.689474 0.140599 1 1 1.000000
0  -35.923649 101.999428 29.181332  -0.969876 0.108116 0.218290  0.689474 0.140599 1 1 1.000000
0  -35.593319 103.523277 29.135036  -0.907339 0.293087 0.301391  0.688498 0.134739 1 1 1.000000
skin_0
0  -35.593319 103.523277 29.135036  -0.907339 0.293087 0.301391  0.688498 0.134739 1 1 1.000000
0  -35.648376 103.688332 28.196142  -0.936773 0.329332 0.118306  0.688498 0.134739 1 1 1.000000
0  -35.813538 102.059937 28.647781  -0.981365 0.123588 -0.147136  0.689474 0.140599 1 1 1.000000
skin_0
0  -36.006233 99.024559 29.073042  -0.678192 -0.037931 0.733905  0.690451 0.150365 1 1 1.000000
0  -35.730957 101.950417 29.425737  -0.738100 0.042954 0.673322  0.688498 0.140599 1 1 1.000000
0  -35.923649 101.999428 29.181332  -0.969876 0.108116 0.218290  0.689474 0.140599 1 1 1.000000
skin_0
0  -35.496967 101.918709 29.630207  -0.552532 -0.058896 0.831408  0.687521 0.140599 1 1 1.000000
0  -35.730957 101.950417 29.425737  -0.738100 0.042954 0.673322  0.688498 0.140599 1 1 1.000000
0  -36.006233 99.024559 29.073042  -0.678192 -0.037931 0.733905  0.690451 0.150365 1 1 1.000000
skin_0
0  -36.006233 99.024559 29.073042  -0.678192 -0.037931 0.733905  0.690451 0.150365 1 1 1.000000
0  -35.772247 98.856934 29.251806  -0.328728 -0.089330 0.940191  0.689474 0.151341 1 1 1.000000
0  -35.496967 101.918709 29.630207  -0.552532 -0.058896 0.831408  0.687521 0.140599 1 1 1.000000
skin_0
0  -27.004677 105.021660 33.328159  -0.007264 -0.022512 0.999720  0.642598 0.127903 1 1 1.000000
0  -20.040169 105.057991 33.386600  -0.007661 -0.014728 0.999862  0.605487 0.127903 1 1 1.000000
0  -20.040169 105.297256 33.020676  -0.008941 0.842922 0.537961  0.605487 0.127903 1 1 1.000000
skin_0
0  -20.040169 105.297256 33.020676  -0.008941 0.842922 0.537961  0.605487 0.127903 1 1 1.000000
0  -27.004677 105.259720 32.975945  -0.008361 0.835421 0.549546  0.642598 0.127903 1 1 1.000000
0  -27.004677 105.021660 33.328159  -0.007264 -0.022512 0.999720  0.642598 0.127903 1 1 1.000000
skin_0
0  -6.661708 105.121750 33.447441  -0.002308 0.003639 0.999991  0.535173 0.127903 1 1 1.000000
0  -0.013769 105.134262 33.462353  -0.000562 0.009548 0.999954  0.500015 0.127903 1 1 1.000000
0  -0.013769 105.329987 33.120255  -0.000279 0.862403 0.506223  0.500015 0.126926 1 1 1.000000
skin_0
0  -0.013769 105.329987 33.120255  -0.000279 0.862403 0.506223  0.500015 0.126926 1 1 1.000000
0  -6.661708 105.331192 33.106541  -0.002165 0.857998 0.513648  0.535173 0.126926 1 1 1.000000
0  -6.661708 105.121750 33.447441  -0.002308 0.003639 0.999991  0.535173 0.127903 1 1 1.000000
skin_0
0  -32.221172 104.974014 33.241089  -0.270560 0.020357 0.962488  0.669942 0.128880 1 1 1.000000
0  -30.280474 105.009148 33.313248  -0.023166 -0.025750 0.999400  0.660176 0.128880 1 1 1.000000
0  -30.308001 105.248405 32.947323  -0.022708 0.830260 0.556913  0.660176 0.127903 1 1 1.000000
skin_0
0  -30.308001 105.248405 32.947323  -0.022708 0.830260 0.556913  0.660176 0.127903 1 1 1.000000
0  -32.000954 105.226982 32.876362  -0.167670 0.848756 0.501498  0.668966 0.127903 1 1 1.000000
0  -32.221172 104.974014 33.241089  -0.270560 0.020357 0.962488  0.669942 0.128880 1 1 1.000000
skin_0
0  -13.639980 105.333588 33.079121  -0.006471 0.853508 0.521040  0.572283 0.126926 1 1 1.000000
0  -20.040169 105.297256 33.020676  -0.008941 0.842922 0.537961  0.605487 0.127903 1 1 1.000000
0  -20.040169 105.057991 33.386600  -0.007661 -0.014728 0.999862  0.605487 0.127903 1 1 1.000000
skin_0
0  -20.040169 105.057991 33.386600  -0.007661 -0.014728 0.999862  0.605487 0.127903 1 1 1.000000
0  -13.639980 105.109238 33.432533  -0.006164 0.000053 0.999981  0.572283 0.127903 1 1 1.000000
0  -13.639980 105.333588 33.079121  -0.006471 0.853508 0.521040  0.572283 0.126926 1 1 1.000000
skin_0
0  -6.661708 104.836365 31.971746  -0.000822 0.964953 -0.262421  0.535173 0.145482 1 1 1.000000
0  -0.013770 104.848869 31.986658  0.000487 0.965971 -0.258649  0.500015 0.145482 1 1 1.000000
0  -0.013770 104.479668 28.942377  0.000078 0.999859 -0.016784  0.500015 0.134739 1 1 1.000000
skin_0
0  -0.013770 104.479668 28.942377  0.000078 0.999859 -0.016784  0.500015 0.134739 1 1 1.000000
0  -6.661708 104.465958 28.941177  -0.001361 0.999856 -0.016889  0.535173 0.134739 1 1 1.000000
0  -6.661708 104.836365 31.971746  -0.000822 0.964953 -0.262421  0.535173 0.145482 1 1 1.000000
skin_0
0  -13.639980 104.467155 28.927467  -0.003347 0.999837 -0.017765  0.572283 0.134739 1 1 1.000000
0  -20.040169 104.430809 28.869024  -0.004338 0.999844 -0.017090  0.605487 0.134739 1 1 1.000000
0  -20.040169 104.787514 31.898394  -0.002248 0.963670 -0.267085  0.605487 0.145482 1 1 1.000000
skin_0
0  -20.040169 104.787514 31.898394  -0.002248 0.963670 -0.267085  0.605487 0.145482 1 1 1.000000
0  -13.639980 104.822647 31.970549  -0.001832 0.963576 -0.267427  0.572283 0.145482 1 1 1.000000
0  -13.639980 104.467155 28.927467  -0.003347 0.999837 -0.017765  0.572283 0.134739 1 1 1.000000
skin_0
0  -27.004677 104.763687 31.854860  -0.002009 0.963823 -0.266537  0.642598 0.145482 1 1 1.000000
0  -20.040169 104.787514 31.898394  -0.002248 0.963670 -0.267085  0.605487 0.145482 1 1 1.000000
0  -20.040169 104.430809 28.869024  -0.004338 0.999844 -0.017090  0.605487 0.134739 1 1 1.000000
skin_0
0  -20.040169 104.430809 28.869024  -0.004338 0.999844 -0.017090  0.605487 0.134739 1 1 1.000000
0  -27.004677 104.406982 28.825489  -0.003848 0.999843 -0.017286  0.642598 0.134739 1 1 1.000000
0  -27.004677 104.763687 31.854860  -0.002009 0.963823 -0.266537  0.642598 0.145482 1 1 1.000000
skin_0
0  -32.152359 104.383163 28.781958  -0.005903 0.999861 -0.015616  0.669942 0.134739 1 1 1.000000
0  -33.638855 104.365852 28.821890  0.153535 0.983281 -0.097902  0.677755 0.134739 1 1 1.000000
0  -32.111065 104.730957 31.755283  0.135896 0.948123 -0.287393  0.669942 0.144505 1 1 1.000000
skin_0
0  -32.111065 104.730957 31.755283  0.135896 0.948123 -0.287393  0.669942 0.144505 1 1 1.000000
0  -30.968664 104.752380 31.826241  -0.000104 0.963264 -0.268558  0.664083 0.145482 1 1 1.000000
0  -32.152359 104.383163 28.781958  -0.005903 0.999861 -0.015616  0.669942 0.134739 1 1 1.000000
skin_0
0  -33.721436 105.013412 30.895742  0.306159 0.908463 -0.284539  0.677755 0.141575 1 1 1.000000
0  -32.111065 104.730957 31.755283  0.135896 0.948123 -0.287393  0.669942 0.144505 1 1 1.000000
0  -33.638855 104.365852 28.821890  0.153535 0.983281 -0.097902  0.677755 0.134739 1 1 1.000000
skin_0
0  -33.638855 104.365852 28.821890  0.153535 0.983281 -0.097902  0.677755 0.134739 1 1 1.000000
0  -34.739964 104.784225 29.093374  0.233816 0.948151 -0.215268  0.683615 0.135716 1 1 1.000000
0  -33.721436 105.013412 30.895742  0.306159 0.908463 -0.284539  0.677755 0.141575 1 1 1.000000
skin_0
0  -6.661708 105.331192 33.106541  0.000632 0.916877 -0.399170  0.535173 0.149388 1 1 1.000000
0  -0.013769 105.329987 33.120255  0.000806 0.920297 -0.391220  0.500015 0.149388 1 1 1.000000
0  -0.013770 104.848869 31.986658  0.000487 0.965971 -0.258649  0.500015 0.145482 1 1 1.000000
skin_0
0  -0.013770 104.848869 31.986658  0.000487 0.965971 -0.258649  0.500015 0.145482 1 1 1.000000
0  -6.661708 104.836365 31.971746  -0.000822 0.964953 -0.262421  0.535173 0.145482 1 1 1.000000
0  -6.661708 105.331192 33.106541  0.000632 0.916877 -0.399170  0.535173 0.149388 1 1 1.000000
skin_0
0  -6.661708 104.540329 28.091064  -0.001697 0.996430 0.084404  0.535173 0.131809 1 1 1.000000
0  -13.639980 104.529007 28.062445  -0.003938 0.996433 0.084291  0.572283 0.131809 1 1 1.000000
0  -13.639980 104.467155 28.927467  -0.003347 0.999837 -0.017765  0.572283 0.134739 1 1 1.000000
skin_0
0  -13.639980 104.467155 28.927467  -0.003347 0.999837 -0.017765  0.572283 0.134739 1 1 1.000000
0  -6.661708 104.465958 28.941177  -0.001361 0.999856 -0.016889  0.535173 0.134739 1 1 1.000000
0  -6.661708 104.540329 28.091064  -0.001697 0.996430 0.084404  0.535173 0.131809 1 1 1.000000
skin_0
0  -13.639980 104.822647 31.970549  -0.001832 0.963576 -0.267427  0.572283 0.145482 1 1 1.000000
0  -20.040169 104.787514 31.898394  -0.002248 0.963670 -0.267085  0.605487 0.145482 1 1 1.000000
0  -20.040169 105.297256 33.020676  -0.000801 0.912467 -0.409150  0.605487 0.149388 1 1 1.000000
skin_0
0  -20.040169 105.297256 33.020676  -0.000801 0.912467 -0.409150  0.605487 0.149388 1 1 1.000000
0  -13.639980 105.333588 33.079121  -0.000765 0.912720 -0.408584  0.572283 0.149388 1 1 1.000000
0  -13.639980 104.822647 31.970549  -0.001832 0.963576 -0.267427  0.572283 0.145482 1 1 1.000000
skin_0
0  -20.040169 104.430809 28.869024  -0.004338 0.999844 -0.017090  0.605487 0.134739 1 1 1.000000
0  -13.639980 104.467155 28.927467  -0.003347 0.999837 -0.017765  0.572283 0.134739 1 1 1.000000
0  -13.639980 104.529007 28.062445  -0.003938 0.996433 0.084291  0.572283 0.131809 1 1 1.000000
skin_0
0  -13.639980 104.529007 28.062445  -0.003938 0.996433 0.084291  0.572283 0.131809 1 1 1.000000
0  -20.040169 104.506378 28.005201  -0.005099 0.996423 0.084355  0.605487 0.131809 1 1 1.000000
0  -20.040169 104.430809 28.869024  -0.004338 0.999844 -0.017090  0.605487 0.134739 1 1 1.000000
skin_0
0  -27.004677 105.259720 32.975945  -0.000859 0.912648 -0.408746  0.642598 0.149388 1 1 1.000000
0  -20.040169 105.297256 33.020676  -0.000801 0.912467 -0.409150  0.605487 0.149388 1 1 1.000000
0  -20.040169 104.787514 31.898394  -0.002248 0.963670 -0.267085  0.605487 0.145482 1 1 1.000000
skin_0
0  -20.040169 104.787514 31.898394  -0.002248 0.963670 -0.267085  0.605487 0.145482 1 1 1.000000
0  -27.004677 104.763687 31.854860  -0.002009 0.963823 -0.266537  0.642598 0.145482 1 1 1.000000
0  -27.004677 105.259720 32.975945  -0.000859 0.912648 -0.408746  0.642598 0.149388 1 1 1.000000
skin_0
0  -29.661097 104.457535 27.931845  -0.004851 0.996441 0.084152  0.656270 0.131809 1 1 1.000000
0  -32.358818 104.458733 27.918135  -0.008362 0.996846 0.078926  0.670919 0.131809 1 1 1.000000
0  -32.152359 104.383163 28.781958  -0.005903 0.999861 -0.015616  0.669942 0.134739 1 1 1.000000
skin_0
0  -32.152359 104.383163 28.781958  -0.005903 0.999861 -0.015616  0.669942 0.134739 1 1 1.000000
0  -29.661097 104.395668 28.796867  -0.004151 0.999844 -0.017163  0.656270 0.134739 1 1 1.000000
0  -29.661097 104.457535 27.931845  -0.004851 0.996441 0.084152  0.656270 0.131809 1 1 1.000000
skin_0
0  -30.968664 104.752380 31.826241  -0.000104 0.963264 -0.268558  0.664083 0.145482 1 1 1.000000
0  -32.111065 104.730957 31.755283  0.135896 0.948123 -0.287393  0.669942 0.144505 1 1 1.000000
0  -32.000954 105.226982 32.876362  0.078105 0.906624 -0.414647  0.668966 0.148412 1 1 1.000000
skin_0
0  -32.000954 105.226982 32.876362  0.078105 0.906624 -0.414647  0.668966 0.148412 1 1 1.000000
0  -30.308001 105.248405 32.947323  0.001455 0.912335 -0.409442  0.660176 0.148412 1 1 1.000000
0  -30.968664 104.752380 31.826241  -0.000104 0.963264 -0.268558  0.664083 0.145482 1 1 1.000000
skin_0
0  -33.638855 104.365852 28.821890  0.153535 0.983281 -0.097902  0.677755 0.134739 1 1 1.000000
0  -32.152359 104.383163 28.781958  -0.005903 0.999861 -0.015616  0.669942 0.134739 1 1 1.000000
0  -32.358818 104.458733 27.918135  -0.008362 0.996846 0.078926  0.670919 0.131809 1 1 1.000000
skin_0
0  -32.358818 104.458733 27.918135  -0.008362 0.996846 0.078926  0.670919 0.131809 1 1 1.000000
0  -34.038002 104.427200 27.804842  0.104181 0.989703 -0.098156  0.679708 0.130833 1 1 1.000000
0  -33.638855 104.365852 28.821890  0.153535 0.983281 -0.097902  0.677755 0.134739 1 1 1.000000
skin_0
0  -32.468922 105.198524 32.569912  0.258506 0.882926 -0.391938  0.671896 0.147435 1 1 1.000000
0  -32.000954 105.226982 32.876362  0.078105 0.906624 -0.414647  0.668966 0.148412 1 1 1.000000
0  -32.111065 104.730957 31.755283  0.135896 0.948123 -0.287393  0.669942 0.144505 1 1 1.000000
skin_0
0  -32.111065 104.730957 31.755283  0.135896 0.948123 -0.287393  0.669942 0.144505 1 1 1.000000
0  -33.721436 105.013412 30.895742  0.306159 0.908463 -0.284539  0.677755 0.141575 1 1 1.000000
0  -32.468922 105.198524 32.569912  0.258506 0.882926 -0.391938  0.671896 0.147435 1 1 1.000000
skin_0
0  -34.038002 104.427200 27.804842  0.104181 0.989703 -0.098156  0.679708 0.130833 1 1 1.000000
0  -35.221695 104.410057 27.527014  0.050607 0.968966 -0.241960  0.686544 0.129856 1 1 1.000000
0  -34.739964 104.784225 29.093374  0.233816 0.948151 -0.215268  0.683615 0.135716 1 1 1.000000
skin_0
0  -34.739964 104.784225 29.093374  0.233816 0.948151 -0.215268  0.683615 0.135716 1 1 1.000000
0  -33.638855 104.365852 28.821890  0.153535 0.983281 -0.097902  0.677755 0.134739 1 1 1.000000
0  -34.038002 104.427200 27.804842  0.104181 0.989703 -0.098156  0.679708 0.130833 1 1 1.000000
skin_0
0  -32.303753 101.932251 29.949171  -0.043282 -0.246321 0.968221  0.670919 0.140599 1 1 1.000000
0  -29.661097 101.942375 29.991508  -0.011260 -0.241873 0.970243  0.656270 0.140599 1 1 1.000000
0  -29.661097 103.360985 30.516294  -0.004339 -0.643727 0.765243  0.656270 0.134739 1 1 1.000000
skin_0
0  -29.661097 103.360985 30.516294  -0.004339 -0.643727 0.765243  0.656270 0.134739 1 1 1.000000
0  -32.097301 103.348473 30.501383  -0.027481 -0.644343 0.764243  0.669942 0.134739 1 1 1.000000
0  -32.303753 101.932251 29.949171  -0.043282 -0.246321 0.968221  0.670919 0.140599 1 1 1.000000
skin_0
0  -32.097301 103.348473 30.501383  -0.027481 -0.644343 0.764243  0.669942 0.134739 1 1 1.000000
0  -29.661097 103.360985 30.516294  -0.004339 -0.643727 0.765243  0.656270 0.134739 1 1 1.000000
0  -29.647333 105.009148 33.313248  -0.007731 -0.026408 0.999621  0.656270 0.128880 1 1 1.000000
skin_0
0  -29.647333 105.009148 33.313248  -0.007731 -0.026408 0.999621  0.656270 0.128880 1 1 1.000000
0  -30.280474 105.009148 33.313248  -0.023166 -0.025750 0.999400  0.660176 0.128880 1 1 1.000000
0  -32.097301 103.348473 30.501383  -0.027481 -0.644343 0.764243  0.669942 0.134739 1 1 1.000000
skin_0
0  -27.004677 101.967392 30.021330  -0.010036 -0.237581 0.971316  0.642598 0.140599 1 1 1.000000
0  -29.661097 101.942375 29.991508  -0.011260 -0.241873 0.970243  0.656270 0.140599 1 1 1.000000
0  -29.523460 98.854362 29.596994  -0.015352 -0.125460 0.991980  0.656270 0.151341 1 1 1.000000
skin_0
0  -29.523460 98.854362 29.596994  -0.015352 -0.125460 0.991980  0.656270 0.151341 1 1 1.000000
0  -26.894567 98.878197 29.640528  -0.013728 -0.122202 0.992410  0.641621 0.151341 1 1 1.000000
0  -27.004677 101.967392 30.021330  -0.010036 -0.237581 0.971316  0.642598 0.140599 1 1 1.000000
skin_0
0  -30.280474 105.009148 33.313248  -0.023166 -0.025750 0.999400  0.660176 0.128880 1 1 1.000000
0  -29.647333 105.009148 33.313248  -0.007731 -0.026408 0.999621  0.656270 0.128880 1 1 1.000000
0  -29.647333 105.248405 32.947323  -0.008963 0.832147 0.554482  0.656270 0.127903 1 1 1.000000
skin_0
0  -29.647333 105.248405 32.947323  -0.008963 0.832147 0.554482  0.656270 0.127903 1 1 1.000000
0  -30.308001 105.248405 32.947323  -0.022708 0.830260 0.556913  0.660176 0.127903 1 1 1.000000
0  -30.280474 105.009148 33.313248  -0.023166 -0.025750 0.999400  0.660176 0.128880 1 1 1.000000
skin_0
0  -30.968664 104.752380 31.826241  -0.000104 0.963264 -0.268558  0.664083 0.145482 1 1 1.000000
0  -29.647333 104.752380 31.826241  -0.002186 0.963862 -0.266392  0.656270 0.145482 1 1 1.000000
0  -29.661097 104.395668 28.796867  -0.004151 0.999844 -0.017163  0.656270 0.134739 1 1 1.000000
skin_0
0  -29.661097 104.395668 28.796867  -0.004151 0.999844 -0.017163  0.656270 0.134739 1 1 1.000000
0  -32.152359 104.383163 28.781958  -0.005903 0.999861 -0.015616  0.669942 0.134739 1 1 1.000000
0  -30.968664 104.752380 31.826241  -0.000104 0.963264 -0.268558  0.664083 0.145482 1 1 1.000000
skin_0
0  -30.308001 105.248405 32.947323  0.001455 0.912335 -0.409442  0.660176 0.148412 1 1 1.000000
0  -29.647333 105.248405 32.947323  -0.000904 0.912753 -0.408510  0.656270 0.148412 1 1 1.000000
0  -29.647333 104.752380 31.826241  -0.002186 0.963862 -0.266392  0.656270 0.145482 1 1 1.000000
skin_0
0  -29.647333 104.752380 31.826241  -0.002186 0.963862 -0.266392  0.656270 0.145482 1 1 1.000000
0  -30.968664 104.752380 31.826241  -0.000104 0.963264 -0.268558  0.664083 0.145482 1 1 1.000000
0  -30.308001 105.248405 32.947323  0.001455 0.912335 -0.409442  0.660176 0.148412 1 1 1.000000
skin_0
0  -27.004677 104.468849 27.960466  -0.004521 0.996442 0.084158  0.642598 0.131809 1 1 1.000000
0  -29.661097 104.457535 27.931845  -0.004851 0.996441 0.084152  0.656270 0.131809 1 1 1.000000
0  -29.661097 104.395668 28.796867  -0.004151 0.999844 -0.017163  0.656270 0.134739 1 1 1.000000
skin_0
0  -29.661097 104.395668 28.796867  -0.004151 0.999844 -0.017163  0.656270 0.134739 1 1 1.000000
0  -27.004677 104.406982 28.825489  -0.003848 0.999843 -0.017286  0.642598 0.134739 1 1 1.000000
0  -27.004677 104.468849 27.960466  -0.004521 0.996442 0.084158  0.642598 0.131809 1 1 1.000000
skin_0
0  -29.661097 101.942375 29.991508  -0.011260 -0.241873 0.970243  0.656270 0.140599 1 1 1.000000
0  -27.004677 101.967392 30.021330  -0.010036 -0.237581 0.971316  0.642598 0.140599 1 1 1.000000
0  -27.004677 103.372299 30.544916  -0.004330 -0.641229 0.767338  0.642598 0.134739 1 1 1.000000
skin_0
0  -27.004677 103.372299 30.544916  -0.004330 -0.641229 0.767338  0.642598 0.134739 1 1 1.000000
0  -29.661097 103.360985 30.516294  -0.004339 -0.643727 0.765243  0.656270 0.134739 1 1 1.000000
0  -29.661097 101.942375 29.991508  -0.011260 -0.241873 0.970243  0.656270 0.140599 1 1 1.000000
skin_0
0  -29.661097 103.360985 30.516294  -0.004339 -0.643727 0.765243  0.656270 0.134739 1 1 1.000000
0  -27.004677 103.372299 30.544916  -0.004330 -0.641229 0.767338  0.642598 0.134739 1 1 1.000000
0  -27.004677 105.021660 33.328159  -0.007264 -0.022512 0.999720  0.642598 0.127903 1 1 1.000000
skin_0
0  -27.004677 105.021660 33.328159  -0.007264 -0.022512 0.999720  0.642598 0.127903 1 1 1.000000
0  -29.647333 105.009148 33.313248  -0.007731 -0.026408 0.999621  0.656270 0.128880 1 1 1.000000
0  -29.661097 103.360985 30.516294  -0.004339 -0.643727 0.765243  0.656270 0.134739 1 1 1.000000
skin_0
0  -29.647333 105.009148 33.313248  -0.007731 -0.026408 0.999621  0.656270 0.128880 1 1 1.000000
0  -27.004677 105.021660 33.328159  -0.007264 -0.022512 0.999720  0.642598 0.127903 1 1 1.000000
0  -27.004677 105.259720 32.975945  -0.008361 0.835421 0.549546  0.642598 0.127903 1 1 1.000000
skin_0
0  -27.004677 105.259720 32.975945  -0.008361 0.835421 0.549546  0.642598 0.127903 1 1 1.000000
0  -29.647333 105.248405 32.947323  -0.008963 0.832147 0.554482  0.656270 0.127903 1 1 1.000000
0  -29.647333 105.009148 33.313248  -0.007731 -0.026408 0.999621  0.656270 0.128880 1 1 1.000000
skin_0
0  -29.647333 104.752380 31.826241  -0.002186 0.963862 -0.266392  0.656270 0.145482 1 1 1.000000
0  -27.004677 104.763687 31.854860  -0.002009 0.963823 -0.266537  0.642598 0.145482 1 1 1.000000
0  -27.004677 104.406982 28.825489  -0.003848 0.999843 -0.017286  0.642598 0.134739 1 1 1.000000
skin_0
0  -27.004677 104.406982 28.825489  -0.003848 0.999843 -0.017286  0.642598 0.134739 1 1 1.000000
0  -29.661097 104.395668 28.796867  -0.004151 0.999844 -0.017163  0.656270 0.134739 1 1 1.000000
0  -29.647333 104.752380 31.826241  -0.002186 0.963862 -0.266392  0.656270 0.145482 1 1 1.000000
skin_0
0  -29.647333 105.248405 32.947323  -0.000904 0.912753 -0.408510  0.656270 0.148412 1 1 1.000000
0  -27.004677 105.259720 32.975945  -0.000859 0.912648 -0.408746  0.642598 0.149388 1 1 1.000000
0  -27.004677 104.763687 31.854860  -0.002009 0.963823 -0.266537  0.642598 0.145482 1 1 1.000000
skin_0
0  -27.004677 104.763687 31.854860  -0.002009 0.963823 -0.266537  0.642598 0.145482 1 1 1.000000
0  -29.647333 104.752380 31.826241  -0.002186 0.963862 -0.266392  0.656270 0.145482 1 1 1.000000
0  -29.647333 105.248405 32.947323  -0.000904 0.912753 -0.408510  0.656270 0.148412 1 1 1.000000
skin_0
0  -20.040169 102.001328 30.107197  -0.012407 -0.226317 0.973975  0.605487 0.139622 1 1 1.000000
0  -27.004677 101.967392 30.021330  -0.010036 -0.237581 0.971316  0.642598 0.140599 1 1 1.000000
0  -26.894567 98.878197 29.640528  -0.013728 -0.122202 0.992410  0.641621 0.151341 1 1 1.000000
skin_0
0  -26.894567 98.878197 29.640528  -0.013728 -0.122202 0.992410  0.641621 0.151341 1 1 1.000000
0  -19.998877 98.924644 29.741306  -0.015498 -0.115314 0.993208  0.605487 0.151341 1 1 1.000000
0  -20.040169 102.001328 30.107197  -0.012407 -0.226317 0.973975  0.605487 0.139622 1 1 1.000000
skin_0
0  -20.040169 104.506378 28.005201  -0.005099 0.996423 0.084355  0.605487 0.131809 1 1 1.000000
0  -27.004677 104.468849 27.960466  -0.004521 0.996442 0.084158  0.642598 0.131809 1 1 1.000000
0  -27.004677 104.406982 28.825489  -0.003848 0.999843 -0.017286  0.642598 0.134739 1 1 1.000000
skin_0
0  -27.004677 104.406982 28.825489  -0.003848 0.999843 -0.017286  0.642598 0.134739 1 1 1.000000
0  -20.040169 104.430809 28.869024  -0.004338 0.999844 -0.017090  0.605487 0.134739 1 1 1.000000
0  -20.040169 104.506378 28.005201  -0.005099 0.996423 0.084355  0.605487 0.131809 1 1 1.000000
skin_0
0  -13.639980 102.060287 30.222883  -0.009429 -0.218221 0.975854  0.572283 0.139622 1 1 1.000000
0  -6.675472 102.085312 30.252703  -0.004174 -0.214586 0.976696  0.535173 0.139622 1 1 1.000000
0  -6.661708 103.455093 30.704142  -0.001979 -0.623675 0.781681  0.535173 0.134739 1 1 1.000000
skin_0
0  -6.661708 103.455093 30.704142  -0.001979 -0.623675 0.781681  0.535173 0.134739 1 1 1.000000
0  -13.639980 103.443787 30.675518  -0.004719 -0.625136 0.780501  0.572283 0.134739 1 1 1.000000
0  -13.639980 102.060287 30.222883  -0.009429 -0.218221 0.975854  0.572283 0.139622 1 1 1.000000
skin_0
0  -13.639980 103.443787 30.675518  -0.004719 -0.625136 0.780501  0.572283 0.134739 1 1 1.000000
0  -6.661708 103.455093 30.704142  -0.001979 -0.623675 0.781681  0.535173 0.134739 1 1 1.000000
0  -6.661708 105.121750 33.447441  -0.002308 0.003639 0.999991  0.535173 0.127903 1 1 1.000000
skin_0
0  -6.661708 105.121750 33.447441  -0.002308 0.003639 0.999991  0.535173 0.127903 1 1 1.000000
0  -13.639980 105.109238 33.432533  -0.006164 0.000053 0.999981  0.572283 0.127903 1 1 1.000000
0  -13.639980 103.443787 30.675518  -0.004719 -0.625136 0.780501  0.572283 0.134739 1 1 1.000000
skin_0
0  -0.013769 102.097824 30.267618  0.000072 -0.214794 0.976659  0.500015 0.139622 1 1 1.000000
0  -6.675472 102.085312 30.252703  -0.004174 -0.214586 0.976696  0.535173 0.139622 1 1 1.000000
0  -6.758055 99.006226 29.914238  -0.005768 -0.107749 0.994161  0.535173 0.150365 1 1 1.000000
skin_0
0  -6.758055 99.006226 29.914238  -0.005768 -0.107749 0.994161  0.535173 0.150365 1 1 1.000000
0  -0.013769 99.017540 29.942860  -0.000730 -0.105447 0.994425  0.500015 0.150365 1 1 1.000000
0  -0.013769 102.097824 30.267618  0.000072 -0.214794 0.976659  0.500015 0.139622 1 1 1.000000
skin_0
0  -13.639980 105.109238 33.432533  -0.006164 0.000053 0.999981  0.572283 0.127903 1 1 1.000000
0  -6.661708 105.121750 33.447441  -0.002308 0.003639 0.999991  0.535173 0.127903 1 1 1.000000
0  -6.661708 105.331192 33.106541  -0.002165 0.857998 0.513648  0.535173 0.126926 1 1 1.000000
skin_0
0  -6.661708 105.331192 33.106541  -0.002165 0.857998 0.513648  0.535173 0.126926 1 1 1.000000
0  -13.639980 105.333588 33.079121  -0.006471 0.853508 0.521040  0.572283 0.126926 1 1 1.000000
0  -13.639980 105.109238 33.432533  -0.006164 0.000053 0.999981  0.572283 0.127903 1 1 1.000000
skin_0
0  -13.639980 104.822647 31.970549  -0.001832 0.963576 -0.267427  0.572283 0.145482 1 1 1.000000
0  -6.661708 104.836365 31.971746  -0.000822 0.964953 -0.262421  0.535173 0.145482 1 1 1.000000
0  -6.661708 104.465958 28.941177  -0.001361 0.999856 -0.016889  0.535173 0.134739 1 1 1.000000
skin_0
0  -6.661708 104.465958 28.941177  -0.001361 0.999856 -0.016889  0.535173 0.134739 1 1 1.000000
0  -13.639980 104.467155 28.927467  -0.003347 0.999837 -0.017765  0.572283 0.134739 1 1 1.000000
0  -13.639980 104.822647 31.970549  -0.001832 0.963576 -0.267427  0.572283 0.145482 1 1 1.000000
skin_0
0  -13.639980 105.333588 33.079121  -0.000765 0.912720 -0.408584  0.572283 0.149388 1 1 1.000000
0  -6.661708 105.331192 33.106541  0.000632 0.916877 -0.399170  0.535173 0.149388 1 1 1.000000
0  -6.661708 104.836365 31.971746  -0.000822 0.964953 -0.262421  0.535173 0.145482 1 1 1.000000
skin_0
0  -6.661708 104.836365 31.971746  -0.000822 0.964953 -0.262421  0.535173 0.145482 1 1 1.000000
0  -13.639980 104.822647 31.970549  -0.001832 0.963576 -0.267427  0.572283 0.145482 1 1 1.000000
0  -13.639980 105.333588 33.079121  -0.000765 0.912720 -0.408584  0.572283 0.149388 1 1 1.000000
skin_0
0  -0.013770 104.552841 28.105980  -0.000028 0.996437 0.084343  0.500015 0.131809 1 1 1.000000
0  -6.661708 104.540329 28.091064  -0.001697 0.996430 0.084404  0.535173 0.131809 1 1 1.000000
0  -6.661708 104.465958 28.941177  -0.001361 0.999856 -0.016889  0.535173 0.134739 1 1 1.000000
skin_0
0  -6.661708 104.465958 28.941177  -0.001361 0.999856 -0.016889  0.535173 0.134739 1 1 1.000000
0  -0.013770 104.479668 28.942377  0.000078 0.999859 -0.016784  0.500015 0.134739 1 1 1.000000
0  -0.013770 104.552841 28.105980  -0.000028 0.996437 0.084343  0.500015 0.131809 1 1 1.000000
end
