version 1
nodes
0 "blender_implicit" -1
1 "root" -1
2 "steering_wheel" 1
end
skeleton
time 0
0  0.000000 0.000000 0.000000  0.000000 -0.000000 0.000000
1  0.000000 0.000000 0.000000  1.570796 -0.000000 0.000000
2  17.500738 28.532450 14.135482  0.000000 -0.000000 0.000000
end
triangles
skin_0
0  20.012630 101.701080 28.009430  0.011906 -0.141364 0.989886  0.393567 0.139622 1 1 1.000000
0  26.977137 101.659790 27.926847  0.010336 -0.151691 0.988374  0.356456 0.140599 1 1 1.000000
0  26.977137 103.104980 28.325996  0.004132 -0.571203 0.820799  0.356456 0.134739 1 1 1.000000
skin_0
0  26.977137 103.104980 28.325996  0.004132 -0.571203 0.820799  0.356456 0.134739 1 1 1.000000
0  20.012630 103.132507 28.381054  0.005182 -0.563255 0.826267  0.393567 0.134739 1 1 1.000000
0  20.012630 101.701080 28.009430  0.011906 -0.141364 0.989886  0.393567 0.139622 1 1 1.000000
skin_0
0  -0.013769 101.811188 28.160835  0.000073 -0.128857 0.991663  0.500015 0.139622 1 1 1.000000
0  6.647933 101.797424 28.147068  0.003547 -0.127788 0.991795  0.464858 0.139622 1 1 1.000000
0  6.634169 103.201340 28.477404  0.001960 -0.553578 0.832795  0.464858 0.134739 1 1 1.000000
skin_0
0  6.634169 103.201340 28.477404  0.001960 -0.553578 0.832795  0.464858 0.134739 1 1 1.000000
0  -0.013769 103.215103 28.504930  0.000071 -0.554687 0.832059  0.500015 0.134739 1 1 1.000000
0  -0.013769 101.811188 28.160835  0.000073 -0.128857 0.991663  0.500015 0.139622 1 1 1.000000
skin_0
0  32.276218 101.618492 27.858027  0.041985 -0.160625 0.986122  0.329112 0.140599 1 1 1.000000
0  35.262974 101.563438 27.637806  0.274121 -0.090660 0.957412  0.313486 0.140599 1 1 1.000000
0  34.533493 103.036163 28.119539  0.263666 -0.453240 0.851501  0.316416 0.135716 1 1 1.000000
skin_0
0  34.533493 103.036163 28.119539  0.263666 -0.453240 0.851501  0.316416 0.135716 1 1 1.000000
0  32.069763 103.077454 28.284706  0.024946 -0.578832 0.815065  0.330088 0.134739 1 1 1.000000
0  32.276218 101.618492 27.858027  0.041985 -0.160625 0.986122  0.329112 0.140599 1 1 1.000000
skin_0
0  32.069763 103.077454 28.284706  0.024946 -0.578832 0.815065  0.330088 0.134739 1 1 1.000000
0  34.533493 103.036163 28.119539  0.263666 -0.453240 0.851501  0.316416 0.135716 1 1 1.000000
0  32.193638 104.935585 30.872309  0.272250 0.110035 0.955914  0.329112 0.128880 1 1 1.000000
skin_0
0  32.193638 104.935585 30.872309  0.272250 0.110035 0.955914  0.329112 0.128880 1 1 1.000000
0  30.252935 104.976875 30.941130  0.020161 0.062491 0.997842  0.339854 0.128880 1 1 1.000000
0  32.069763 103.077454 28.284706  0.024946 -0.578832 0.815065  0.330088 0.134739 1 1 1.000000
skin_0
0  20.012630 103.132507 28.381054  0.005182 -0.563255 0.826267  0.393567 0.134739 1 1 1.000000
0  26.977137 103.104980 28.325996  0.004132 -0.571203 0.820799  0.356456 0.134739 1 1 1.000000
0  26.977137 104.990639 30.954893  0.007351 0.064881 0.997866  0.356456 0.127903 1 1 1.000000
skin_0
0  26.977137 104.990639 30.954893  0.007351 0.064881 0.997866  0.356456 0.127903 1 1 1.000000
0  20.012630 105.031929 31.009949  0.008148 0.072799 0.997313  0.393567 0.127903 1 1 1.000000
0  20.012630 103.132507 28.381054  0.005182 -0.563255 0.826267  0.393567 0.134739 1 1 1.000000
skin_0
0  -0.013769 103.215103 28.504930  0.000071 -0.554687 0.832059  0.500015 0.134739 1 1 1.000000
0  6.634169 103.201340 28.477404  0.001960 -0.553578 0.832795  0.464858 0.134739 1 1 1.000000
0  6.634169 105.100746 31.065004  0.002228 0.090984 0.995850  0.464858 0.127903 1 1 1.000000
skin_0
0  6.634169 105.100746 31.065004  0.002228 0.090984 0.995850  0.464858 0.127903 1 1 1.000000
0  -0.013769 105.114510 31.078768  -0.000545 0.096538 0.995329  0.500015 0.127903 1 1 1.000000
0  -0.013769 103.215103 28.504930  0.000071 -0.554687 0.832059  0.500015 0.134739 1 1 1.000000
skin_0
0  20.012630 103.132507 28.381054  0.005182 -0.563255 0.826267  0.393567 0.134739 1 1 1.000000
0  13.612440 103.187576 28.449871  0.003192 -0.554532 0.832156  0.427747 0.134739 1 1 1.000000
0  13.612440 101.769897 28.119539  0.009316 -0.132351 0.991159  0.427747 0.139622 1 1 1.000000
skin_0
0  13.612440 101.769897 28.119539  0.009316 -0.132351 0.991159  0.427747 0.139622 1 1 1.000000
0  20.012630 101.701080 28.009430  0.011906 -0.141364 0.989886  0.393567 0.139622 1 1 1.000000
0  20.012630 103.132507 28.381054  0.005182 -0.563255 0.826267  0.393567 0.134739 1 1 1.000000
skin_0
0  20.012630 105.031929 31.009949  0.008148 0.072799 0.997313  0.393567 0.127903 1 1 1.000000
0  13.612440 105.086983 31.051239  0.005098 0.087433 0.996157  0.427747 0.127903 1 1 1.000000
0  13.612440 103.187576 28.449871  0.003192 -0.554532 0.832156  0.427747 0.134739 1 1 1.000000
skin_0
0  13.612440 103.187576 28.449871  0.003192 -0.554532 0.832156  0.427747 0.134739 1 1 1.000000
0  20.012630 103.132507 28.381054  0.005182 -0.563255 0.826267  0.393567 0.134739 1 1 1.000000
0  20.012630 105.031929 31.009949  0.008148 0.072799 0.997313  0.393567 0.127903 1 1 1.000000
skin_0
0  32.276218 101.618492 27.858027  0.041985 -0.160625 0.986122  0.329112 0.140599 1 1 1.000000
0  29.633558 101.632263 27.899321  0.011172 -0.156429 0.987626  0.342784 0.140599 1 1 1.000000
0  29.495922 98.521622 27.775446  0.015319 -0.040451 0.999064  0.343760 0.151341 1 1 1.000000
skin_0
0  29.495922 98.521622 27.775446  0.015319 -0.040451 0.999064  0.343760 0.151341 1 1 1.000000
0  32.111057 98.494095 27.734154  0.045781 -0.046377 0.997874  0.330088 0.151341 1 1 1.000000
0  32.276218 101.618492 27.858027  0.041985 -0.160625 0.986122  0.329112 0.140599 1 1 1.000000
skin_0
0  13.612440 101.769897 28.119539  0.009316 -0.132351 0.991159  0.427747 0.139622 1 1 1.000000
0  6.647933 101.797424 28.147068  0.003547 -0.127788 0.991795  0.464858 0.139622 1 1 1.000000
0  6.730517 98.700554 28.078251  0.004575 -0.021990 0.999748  0.463881 0.150365 1 1 1.000000
skin_0
0  6.730517 98.700554 28.078251  0.004575 -0.021990 0.999748  0.463881 0.150365 1 1 1.000000
0  13.626204 98.686790 28.023193  0.012453 -0.029856 0.999477  0.427747 0.150365 1 1 1.000000
0  13.612440 101.769897 28.119539  0.009316 -0.132351 0.991159  0.427747 0.139622 1 1 1.000000
skin_0
0  32.111057 98.494095 27.734154  0.045781 -0.046377 0.997874  0.330088 0.151341 1 1 1.000000
0  35.524490 98.425278 27.445112  0.107994 -0.041108 0.993301  0.311533 0.151341 1 1 1.000000
0  35.262974 101.563438 27.637806  0.274121 -0.090660 0.957412  0.313486 0.140599 1 1 1.000000
skin_0
0  35.262974 101.563438 27.637806  0.274121 -0.090660 0.957412  0.313486 0.140599 1 1 1.000000
0  32.276218 101.618492 27.858027  0.041985 -0.160625 0.986122  0.329112 0.140599 1 1 1.000000
0  32.111057 98.494095 27.734154  0.045781 -0.046377 0.997874  0.330088 0.151341 1 1 1.000000
skin_0
0  13.626204 98.686790 28.023193  0.012453 -0.029856 0.999477  0.427747 0.150365 1 1 1.000000
0  19.971338 98.604210 27.913084  0.013792 -0.029036 0.999483  0.393567 0.151341 1 1 1.000000
0  20.012630 101.701080 28.009430  0.011906 -0.141364 0.989886  0.393567 0.139622 1 1 1.000000
skin_0
0  20.012630 101.701080 28.009430  0.011906 -0.141364 0.989886  0.393567 0.139622 1 1 1.000000
0  13.612440 101.769897 28.119539  0.009316 -0.132351 0.991159  0.427747 0.139622 1 1 1.000000
0  13.626204 98.686790 28.023193  0.012453 -0.029856 0.999477  0.427747 0.150365 1 1 1.000000
skin_0
0  34.533493 103.036163 28.119539  0.263666 -0.453240 0.851501  0.316416 0.135716 1 1 1.000000
0  34.822533 103.036163 27.968140  0.654941 -0.023478 0.755315  0.315439 0.135716 1 1 1.000000
0  32.661610 104.866768 30.569508  0.629318 0.250651 0.735617  0.327158 0.128880 1 1 1.000000
skin_0
0  32.661610 104.866768 30.569508  0.629318 0.250651 0.735617  0.327158 0.128880 1 1 1.000000
0  32.193638 104.935585 30.872309  0.272250 0.110035 0.955914  0.329112 0.128880 1 1 1.000000
0  34.533493 103.036163 28.119539  0.263666 -0.453240 0.851501  0.316416 0.135716 1 1 1.000000
skin_0
0  34.822533 103.036163 27.968140  0.654941 -0.023478 0.755315  0.315439 0.135716 1 1 1.000000
0  34.533493 103.036163 28.119539  0.263666 -0.453240 0.851501  0.316416 0.135716 1 1 1.000000
0  35.262974 101.563438 27.637806  0.274121 -0.090660 0.957412  0.313486 0.140599 1 1 1.000000
skin_0
0  35.262974 101.563438 27.637806  0.274121 -0.090660 0.957412  0.313486 0.140599 1 1 1.000000
0  35.469433 101.577202 27.541456  0.559327 0.032500 0.828310  0.311533 0.140599 1 1 1.000000
0  34.822533 103.036163 27.968140  0.654941 -0.023478 0.755315  0.315439 0.135716 1 1 1.000000
skin_0
0  32.441387 105.100746 30.184116  0.428235 0.863192 0.267421  0.328135 0.127903 1 1 1.000000
0  31.973412 105.155807 30.486921  0.166585 0.890128 0.424173  0.330088 0.127903 1 1 1.000000
0  32.193638 104.935585 30.872309  0.272250 0.110035 0.955914  0.329112 0.128880 1 1 1.000000
skin_0
0  32.193638 104.935585 30.872309  0.272250 0.110035 0.955914  0.329112 0.128880 1 1 1.000000
0  32.661610 104.866768 30.569508  0.629318 0.250651 0.735617  0.327158 0.128880 1 1 1.000000
0  32.441387 105.100746 30.184116  0.428235 0.863192 0.267421  0.328135 0.127903 1 1 1.000000
skin_0
0  35.469433 101.577202 27.541456  0.559327 0.032500 0.828310  0.311533 0.140599 1 1 1.000000
0  35.262974 101.563438 27.637806  0.274121 -0.090660 0.957412  0.313486 0.140599 1 1 1.000000
0  35.524490 98.425278 27.445112  0.107994 -0.041108 0.993301  0.311533 0.151341 1 1 1.000000
skin_0
0  35.524490 98.425278 27.445112  0.107994 -0.041108 0.993301  0.311533 0.151341 1 1 1.000000
0  35.744713 98.494095 27.431347  0.329548 -0.004547 0.944128  0.310556 0.151341 1 1 1.000000
0  35.469433 101.577202 27.541456  0.559327 0.032500 0.828310  0.311533 0.140599 1 1 1.000000
skin_0
0  33.900356 104.536430 28.931608  0.738912 0.530072 0.415971  0.320322 0.129856 1 1 1.000000
0  34.918877 104.151047 27.156071  0.763170 0.601438 0.236312  0.314463 0.131809 1 1 1.000000
0  34.712418 104.385025 26.756920  0.682312 0.728348 0.062929  0.316416 0.130833 1 1 1.000000
skin_0
0  34.712418 104.385025 26.756920  0.682312 0.728348 0.062929  0.316416 0.130833 1 1 1.000000
0  33.693893 104.770424 28.532455  0.548549 0.816644 0.179409  0.321299 0.128880 1 1 1.000000
0  33.900356 104.536430 28.931608  0.738912 0.530072 0.415971  0.320322 0.129856 1 1 1.000000
skin_0
0  34.918877 104.151047 27.156071  0.763170 0.601438 0.236312  0.314463 0.131809 1 1 1.000000
0  33.900356 104.536430 28.931608  0.738912 0.530072 0.415971  0.320322 0.129856 1 1 1.000000
0  35.194157 103.063690 27.527693  0.794563 0.235832 0.559511  0.313486 0.134739 1 1 1.000000
skin_0
0  35.194157 103.063690 27.527693  0.794563 0.235832 0.559511  0.313486 0.134739 1 1 1.000000
0  35.565777 103.132507 26.908323  0.894623 0.336849 0.293567  0.311533 0.134739 1 1 1.000000
0  34.918877 104.151047 27.156071  0.763170 0.601438 0.236312  0.314463 0.131809 1 1 1.000000
skin_0
0  35.565777 103.132507 26.908323  0.894623 0.336849 0.293567  0.311533 0.134739 1 1 1.000000
0  35.194157 103.063690 27.527693  0.794563 0.235832 0.559511  0.313486 0.134739 1 1 1.000000
0  35.703419 101.590965 27.335003  0.734423 0.116369 0.668642  0.310556 0.140599 1 1 1.000000
skin_0
0  35.703419 101.590965 27.335003  0.734423 0.116369 0.668642  0.310556 0.140599 1 1 1.000000
0  35.896114 101.618492 27.087254  0.966059 0.110311 0.233584  0.309580 0.140599 1 1 1.000000
0  35.565777 103.132507 26.908323  0.894623 0.336849 0.293567  0.311533 0.134739 1 1 1.000000
skin_0
0  35.786003 101.632263 26.550461  0.977225 0.017699 -0.211467  0.310556 0.140599 1 1 1.000000
0  35.896114 101.618492 27.087254  0.966059 0.110311 0.233584  0.309580 0.140599 1 1 1.000000
0  35.978699 98.645500 27.238653  0.673892 0.031043 0.738178  0.309580 0.150365 1 1 1.000000
skin_0
0  32.661610 104.866768 30.569508  0.629318 0.250651 0.735617  0.327158 0.128880 1 1 1.000000
0  33.900356 104.536430 28.931608  0.738912 0.530072 0.415971  0.320322 0.129856 1 1 1.000000
0  33.693893 104.770424 28.532455  0.548549 0.816644 0.179409  0.321299 0.128880 1 1 1.000000
skin_0
0  33.693893 104.770424 28.532455  0.548549 0.816644 0.179409  0.321299 0.128880 1 1 1.000000
0  32.441387 105.100746 30.184116  0.428235 0.863192 0.267421  0.328135 0.127903 1 1 1.000000
0  32.661610 104.866768 30.569508  0.629318 0.250651 0.735617  0.327158 0.128880 1 1 1.000000
skin_0
0  35.194153 103.875763 25.229132  0.597802 0.801137 -0.028499  0.313486 0.131809 1 1 1.000000
0  34.712418 104.385025 26.756920  0.682312 0.728348 0.062929  0.316416 0.130833 1 1 1.000000
0  34.918877 104.151047 27.156071  0.763170 0.601438 0.236312  0.314463 0.131809 1 1 1.000000
skin_0
0  34.918877 104.151047 27.156071  0.763170 0.601438 0.236312  0.314463 0.131809 1 1 1.000000
0  35.400612 103.751884 25.573231  0.695119 0.718576 0.021395  0.312510 0.132786 1 1 1.000000
0  35.194153 103.875763 25.229132  0.597588 0.801294 -0.028552  0.313486 0.131809 1 1 1.000000
skin_0
0  34.822533 103.036163 27.968140  0.654941 -0.023478 0.755315  0.315439 0.135716 1 1 1.000000
0  35.194157 103.063690 27.527693  0.794563 0.235832 0.559511  0.313486 0.134739 1 1 1.000000
0  33.900356 104.536430 28.931608  0.738912 0.530072 0.415971  0.320322 0.129856 1 1 1.000000
skin_0
0  33.900356 104.536430 28.931608  0.738912 0.530072 0.415971  0.320322 0.129856 1 1 1.000000
0  32.661610 104.866768 30.569508  0.629318 0.250651 0.735617  0.327158 0.128880 1 1 1.000000
0  34.822533 103.036163 27.968140  0.654941 -0.023478 0.755315  0.315439 0.135716 1 1 1.000000
skin_0
0  35.565777 103.132507 26.908323  0.894623 0.336849 0.293567  0.311533 0.134739 1 1 1.000000
0  35.620834 103.215103 25.958616  0.932170 0.355312 0.069379  0.311533 0.134739 1 1 1.000000
0  35.400612 103.751884 25.573231  0.695119 0.718576 0.021395  0.312510 0.132786 1 1 1.000000
skin_0
0  35.400612 103.751884 25.573231  0.695119 0.718576 0.021395  0.312510 0.132786 1 1 1.000000
0  34.918877 104.151047 27.156071  0.763170 0.601438 0.236312  0.314463 0.131809 1 1 1.000000
0  35.565777 103.132507 26.908323  0.894623 0.336849 0.293567  0.311533 0.134739 1 1 1.000000
skin_0
0  35.469433 101.577202 27.541456  0.559327 0.032500 0.828310  0.311533 0.140599 1 1 1.000000
0  35.703419 101.590965 27.335003  0.734423 0.116369 0.668642  0.310556 0.140599 1 1 1.000000
0  35.194157 103.063690 27.527693  0.794563 0.235832 0.559511  0.313486 0.134739 1 1 1.000000
skin_0
0  35.194157 103.063690 27.527693  0.794563 0.235832 0.559511  0.313486 0.134739 1 1 1.000000
0  34.822533 103.036163 27.968140  0.654941 -0.023478 0.755315  0.315439 0.135716 1 1 1.000000
0  35.469433 101.577202 27.541456  0.559327 0.032500 0.828310  0.311533 0.140599 1 1 1.000000
skin_0
0  35.896114 101.618492 27.087254  0.966059 0.110311 0.233584  0.309580 0.140599 1 1 1.000000
0  35.786003 101.632263 26.550461  0.977225 0.017699 -0.211467  0.310556 0.140599 1 1 1.000000
0  35.620834 103.215103 25.958616  0.932170 0.355312 0.069379  0.311533 0.134739 1 1 1.000000
skin_0
0  35.620834 103.215103 25.958616  0.932170 0.355312 0.069379  0.311533 0.134739 1 1 1.000000
0  35.565777 103.132507 26.908323  0.894623 0.336849 0.293567  0.311533 0.134739 1 1 1.000000
0  35.896114 101.618492 27.087254  0.966059 0.110311 0.233584  0.309580 0.140599 1 1 1.000000
skin_0
0  35.978699 98.645500 27.238653  0.673892 0.031043 0.738178  0.309580 0.150365 1 1 1.000000
0  35.896114 101.618492 27.087254  0.966059 0.110311 0.233584  0.309580 0.140599 1 1 1.000000
0  35.703419 101.590965 27.335003  0.734423 0.116369 0.668642  0.310556 0.140599 1 1 1.000000
skin_0
0  35.703419 101.590965 27.335003  0.734423 0.116369 0.668642  0.310556 0.140599 1 1 1.000000
0  35.469433 101.577202 27.541456  0.559327 0.032500 0.828310  0.311533 0.140599 1 1 1.000000
0  35.744713 98.494095 27.431347  0.329548 -0.004547 0.944128  0.310556 0.151341 1 1 1.000000
skin_0
0  35.744713 98.494095 27.431347  0.329548 -0.004547 0.944128  0.310556 0.151341 1 1 1.000000
0  35.978699 98.645500 27.238653  0.673892 0.031043 0.738178  0.309580 0.150365 1 1 1.000000
0  35.703419 101.590965 27.335003  0.734423 0.116369 0.668642  0.310556 0.140599 1 1 1.000000
skin_0
0  20.012630 105.031929 31.009949  0.008148 0.072799 0.997313  0.393567 0.127903 1 1 1.000000
0  26.977137 104.990639 30.954893  0.007351 0.064881 0.997866  0.356456 0.127903 1 1 1.000000
0  26.977137 105.197098 30.583271  0.008240 0.880409 0.474143  0.356456 0.127903 1 1 1.000000
skin_0
0  26.977137 105.197098 30.583271  0.008240 0.880409 0.474143  0.356456 0.127903 1 1 1.000000
0  20.012630 105.238388 30.624561  0.009094 0.886919 0.461835  0.393567 0.127903 1 1 1.000000
0  20.012630 105.031929 31.009949  0.008148 0.072799 0.997313  0.393567 0.127903 1 1 1.000000
skin_0
0  -0.013769 105.114510 31.078768  -0.000545 0.096538 0.995329  0.500015 0.127903 1 1 1.000000
0  6.634169 105.100746 31.065004  0.002228 0.090984 0.995850  0.464858 0.127903 1 1 1.000000
0  6.634169 105.279678 30.707148  0.002106 0.899664 0.436578  0.464858 0.126926 1 1 1.000000
skin_0
0  6.634169 105.279678 30.707148  0.002106 0.899664 0.436578  0.464858 0.126926 1 1 1.000000
0  -0.013769 105.279678 30.720911  -0.000279 0.903237 0.429142  0.500015 0.126926 1 1 1.000000
0  -0.013769 105.114510 31.078768  -0.000545 0.096538 0.995329  0.500015 0.127903 1 1 1.000000
skin_0
0  30.252935 104.976875 30.941130  0.020161 0.062491 0.997842  0.339854 0.128880 1 1 1.000000
0  32.193638 104.935585 30.872309  0.272250 0.110035 0.955914  0.329112 0.128880 1 1 1.000000
0  31.973412 105.155807 30.486921  0.166585 0.890128 0.424173  0.330088 0.127903 1 1 1.000000
skin_0
0  31.973412 105.155807 30.486921  0.166585 0.890128 0.424173  0.330088 0.127903 1 1 1.000000
0  30.280462 105.183334 30.555744  0.021940 0.876140 0.481558  0.339854 0.127903 1 1 1.000000
0  30.252935 104.976875 30.941130  0.020161 0.062491 0.997842  0.339854 0.128880 1 1 1.000000
skin_0
0  20.012630 105.238388 30.624561  0.009094 0.886919 0.461835  0.393567 0.127903 1 1 1.000000
0  13.612440 105.279678 30.679619  0.006013 0.895913 0.444190  0.427747 0.126926 1 1 1.000000
0  13.612440 105.086983 31.051239  0.005098 0.087433 0.996157  0.427747 0.127903 1 1 1.000000
skin_0
0  13.612440 105.086983 31.051239  0.005098 0.087433 0.996157  0.427747 0.127903 1 1 1.000000
0  20.012630 105.031929 31.009949  0.008148 0.072799 0.997313  0.393567 0.127903 1 1 1.000000
0  20.012630 105.238388 30.624561  0.009094 0.886919 0.461835  0.393567 0.127903 1 1 1.000000
skin_0
0  -0.013770 104.701591 29.633564  0.000487 0.939755 -0.341849  0.500015 0.145482 1 1 1.000000
0  6.634169 104.687828 29.619801  0.000699 0.938357 -0.345666  0.464858 0.145482 1 1 1.000000
0  6.634169 104.054703 26.633045  0.001304 0.994518 -0.104557  0.464858 0.134739 1 1 1.000000
skin_0
0  6.634169 104.054703 26.633045  0.001304 0.994518 -0.104557  0.464858 0.134739 1 1 1.000000
0  -0.013770 104.068466 26.633045  0.000078 0.994591 -0.103865  0.500015 0.134739 1 1 1.000000
0  -0.013770 104.701591 29.633564  0.000487 0.939755 -0.341849  0.500015 0.145482 1 1 1.000000
skin_0
0  20.012630 104.013397 26.564226  0.004304 0.994548 -0.104188  0.393567 0.134739 1 1 1.000000
0  13.612440 104.054703 26.619280  0.003296 0.994498 -0.104708  0.427747 0.134739 1 1 1.000000
0  13.612440 104.674065 29.619799  0.001341 0.936669 -0.350214  0.427747 0.145482 1 1 1.000000
skin_0
0  13.612440 104.674065 29.619799  0.001341 0.936669 -0.350214  0.427747 0.145482 1 1 1.000000
0  20.012630 104.632774 29.550980  0.002115 0.936603 -0.350386  0.393567 0.145482 1 1 1.000000
0  20.012630 104.013397 26.564226  0.004304 0.994548 -0.104188  0.393567 0.134739 1 1 1.000000
skin_0
0  20.012630 104.632774 29.550980  0.002115 0.936603 -0.350386  0.393567 0.145482 1 1 1.000000
0  26.977137 104.605247 29.509689  0.001978 0.936912 -0.349560  0.356456 0.145482 1 1 1.000000
0  26.977137 103.985870 26.522934  0.003784 0.994530 -0.104381  0.356456 0.134739 1 1 1.000000
skin_0
0  26.977137 103.985870 26.522934  0.003784 0.994530 -0.104381  0.356456 0.134739 1 1 1.000000
0  20.012630 104.013397 26.564226  0.004304 0.994548 -0.104188  0.393567 0.134739 1 1 1.000000
0  20.012630 104.632774 29.550980  0.002115 0.936603 -0.350386  0.393567 0.145482 1 1 1.000000
skin_0
0  33.611309 103.944580 26.522934  -0.117521 0.971554 -0.205601  0.321299 0.134739 1 1 1.000000
0  32.124817 103.958344 26.481644  0.008563 0.994512 -0.104276  0.330088 0.134739 1 1 1.000000
0  30.941126 104.591484 29.482162  -0.000570 0.935974 -0.352068  0.335948 0.145482 1 1 1.000000
skin_0
0  30.941126 104.591484 29.482162  -0.000570 0.935974 -0.352068  0.335948 0.145482 1 1 1.000000
0  32.083527 104.563957 29.413343  -0.155008 0.909201 -0.386428  0.330088 0.144505 1 1 1.000000
0  33.611309 103.944580 26.522934  -0.117521 0.971554 -0.205601  0.321299 0.134739 1 1 1.000000
skin_0
0  32.083527 104.563957 29.413343  -0.155008 0.909201 -0.386428  0.330088 0.144505 1 1 1.000000
0  33.693893 104.770424 28.532455  -0.317053 0.867001 -0.384431  0.321299 0.141575 1 1 1.000000
0  34.712418 104.385025 26.756920  -0.278004 0.889998 -0.361412  0.316416 0.135716 1 1 1.000000
skin_0
0  34.712418 104.385025 26.756920  -0.278004 0.889998 -0.361412  0.316416 0.135716 1 1 1.000000
0  33.611309 103.944580 26.522934  -0.117521 0.971554 -0.205601  0.321299 0.134739 1 1 1.000000
0  32.083527 104.563957 29.413343  -0.155008 0.909201 -0.386428  0.330088 0.144505 1 1 1.000000
skin_0
0  -0.013769 105.279678 30.720911  0.000806 0.882702 -0.469933  0.500015 0.149388 1 1 1.000000
0  6.634169 105.279678 30.707148  0.000166 0.877773 -0.479078  0.464858 0.149388 1 1 1.000000
0  6.634169 104.687828 29.619801  0.000699 0.938357 -0.345666  0.464858 0.145482 1 1 1.000000
skin_0
0  6.634169 104.687828 29.619801  0.000699 0.938357 -0.345666  0.464858 0.145482 1 1 1.000000
0  -0.013770 104.701591 29.633564  0.000487 0.939755 -0.341849  0.500015 0.145482 1 1 1.000000
0  -0.013769 105.279678 30.720911  0.000806 0.882702 -0.469933  0.500015 0.149388 1 1 1.000000
skin_0
0  13.612440 104.040924 25.752157  0.003873 0.999988 -0.002863  0.427747 0.131809 1 1 1.000000
0  6.634169 104.054703 25.779686  0.001690 0.999995 -0.002809  0.464858 0.131809 1 1 1.000000
0  6.634169 104.054703 26.633045  0.001304 0.994518 -0.104557  0.464858 0.134739 1 1 1.000000
skin_0
0  6.634169 104.054703 26.633045  0.001304 0.994518 -0.104557  0.464858 0.134739 1 1 1.000000
0  13.612440 104.054703 26.619280  0.003296 0.994498 -0.104708  0.427747 0.134739 1 1 1.000000
0  13.612440 104.040924 25.752157  0.003873 0.999988 -0.002863  0.427747 0.131809 1 1 1.000000
skin_0
0  20.012630 104.632774 29.550980  0.002115 0.936603 -0.350386  0.393567 0.145482 1 1 1.000000
0  13.612440 104.674065 29.619799  0.001341 0.936669 -0.350214  0.427747 0.145482 1 1 1.000000
0  13.612440 105.279678 30.679619  -0.000123 0.873349 -0.487094  0.427747 0.149388 1 1 1.000000
skin_0
0  13.612440 105.279678 30.679619  -0.000123 0.873349 -0.487094  0.427747 0.149388 1 1 1.000000
0  20.012630 105.238388 30.624561  0.000711 0.873321 -0.487144  0.393567 0.149388 1 1 1.000000
0  20.012630 104.632774 29.550980  0.002115 0.936603 -0.350386  0.393567 0.145482 1 1 1.000000
skin_0
0  13.612440 104.054703 26.619280  0.003296 0.994498 -0.104708  0.427747 0.134739 1 1 1.000000
0  20.012630 104.013397 26.564226  0.004304 0.994548 -0.104188  0.393567 0.134739 1 1 1.000000
0  20.012630 104.013397 25.697104  0.005197 0.999983 -0.002591  0.393567 0.131809 1 1 1.000000
skin_0
0  20.012630 104.013397 25.697104  0.005197 0.999983 -0.002591  0.393567 0.131809 1 1 1.000000
0  13.612440 104.040924 25.752157  0.003873 0.999988 -0.002863  0.427747 0.131809 1 1 1.000000
0  13.612440 104.054703 26.619280  0.003296 0.994498 -0.104708  0.427747 0.134739 1 1 1.000000
skin_0
0  20.012630 105.238388 30.624561  0.000711 0.873321 -0.487144  0.393567 0.149388 1 1 1.000000
0  26.977137 105.197098 30.583271  0.000795 0.873605 -0.486634  0.356456 0.149388 1 1 1.000000
0  26.977137 104.605247 29.509689  0.001978 0.936912 -0.349560  0.356456 0.145482 1 1 1.000000
skin_0
0  26.977137 104.605247 29.509689  0.001978 0.936912 -0.349560  0.356456 0.145482 1 1 1.000000
0  20.012630 104.632774 29.550980  0.002115 0.936603 -0.350386  0.393567 0.145482 1 1 1.000000
0  20.012630 105.238388 30.624561  0.000711 0.873321 -0.487144  0.393567 0.149388 1 1 1.000000
skin_0
0  32.331276 103.958344 25.614521  0.015800 0.999875 -0.000444  0.328135 0.131809 1 1 1.000000
0  29.633558 103.958344 25.628284  0.004792 0.999984 -0.003006  0.342784 0.131809 1 1 1.000000
0  29.633558 103.972107 26.495407  0.004081 0.994537 -0.104305  0.342784 0.134739 1 1 1.000000
skin_0
0  29.633558 103.972107 26.495407  0.004081 0.994537 -0.104305  0.342784 0.134739 1 1 1.000000
0  32.124817 103.958344 26.481644  0.008563 0.994512 -0.104276  0.330088 0.134739 1 1 1.000000
0  32.331276 103.958344 25.614521  0.015800 0.999875 -0.000444  0.328135 0.131809 1 1 1.000000
skin_0
0  32.083527 104.563957 29.413343  -0.155008 0.909201 -0.386428  0.330088 0.144505 1 1 1.000000
0  30.941126 104.591484 29.482162  -0.000570 0.935974 -0.352068  0.335948 0.145482 1 1 1.000000
0  30.280462 105.183334 30.555744  -0.001961 0.873319 -0.487145  0.339854 0.148412 1 1 1.000000
skin_0
0  30.280462 105.183334 30.555744  -0.001961 0.873319 -0.487145  0.339854 0.148412 1 1 1.000000
0  31.973412 105.155807 30.486921  -0.098760 0.880871 -0.462940  0.330088 0.148412 1 1 1.000000
0  32.083527 104.563957 29.413343  -0.155008 0.909201 -0.386428  0.330088 0.144505 1 1 1.000000
skin_0
0  32.124817 103.958344 26.481644  0.008563 0.994512 -0.104276  0.330088 0.134739 1 1 1.000000
0  33.611309 103.944580 26.522934  -0.117521 0.971554 -0.205601  0.321299 0.134739 1 1 1.000000
0  34.010460 103.917053 25.504408  0.018059 0.999513 -0.025435  0.319346 0.130833 1 1 1.000000
skin_0
0  34.010460 103.917053 25.504408  0.018059 0.999513 -0.025435  0.319346 0.130833 1 1 1.000000
0  32.331276 103.958344 25.614521  0.015800 0.999875 -0.000444  0.328135 0.131809 1 1 1.000000
0  32.124817 103.958344 26.481644  0.008563 0.994512 -0.104276  0.330088 0.134739 1 1 1.000000
skin_0
0  31.973412 105.155807 30.486921  -0.098760 0.880871 -0.462940  0.330088 0.148412 1 1 1.000000
0  32.441387 105.100746 30.184116  0.008411 0.982008 -0.188651  0.328135 0.147435 1 1 1.000000
0  33.693893 104.770424 28.532455  -0.317053 0.867001 -0.384431  0.321299 0.141575 1 1 1.000000
skin_0
0  33.693893 104.770424 28.532455  -0.317053 0.867001 -0.384431  0.321299 0.141575 1 1 1.000000
0  32.083527 104.563957 29.413343  -0.155008 0.909201 -0.386428  0.330088 0.144505 1 1 1.000000
0  31.973412 105.155807 30.486921  -0.098760 0.880871 -0.462940  0.330088 0.148412 1 1 1.000000
skin_0
0  35.194153 103.875763 25.229132  -0.151160 0.959987 -0.235745  0.313486 0.129856 1 1 1.000000
0  34.010460 103.917053 25.504408  0.018059 0.999513 -0.025435  0.319346 0.130833 1 1 1.000000
0  33.611309 103.944580 26.522934  -0.117521 0.971554 -0.205601  0.321299 0.134739 1 1 1.000000
skin_0
0  33.611309 103.944580 26.522934  -0.117521 0.971554 -0.205601  0.321299 0.134739 1 1 1.000000
0  34.712418 104.385025 26.756920  -0.278004 0.889998 -0.361412  0.316416 0.135716 1 1 1.000000
0  35.194153 103.875763 25.229132  -0.151160 0.959987 -0.235745  0.313486 0.129856 1 1 1.000000
skin_0
0  29.633558 101.632263 27.899321  0.011172 -0.156429 0.987626  0.342784 0.140599 1 1 1.000000
0  32.276218 101.618492 27.858027  0.041985 -0.160625 0.986122  0.329112 0.140599 1 1 1.000000
0  32.069763 103.077454 28.284706  0.024946 -0.578832 0.815065  0.330088 0.134739 1 1 1.000000
skin_0
0  32.069763 103.077454 28.284706  0.024946 -0.578832 0.815065  0.330088 0.134739 1 1 1.000000
0  29.633558 103.091217 28.298470  0.004461 -0.574150 0.818738  0.342784 0.134739 1 1 1.000000
0  29.633558 101.632263 27.899321  0.011172 -0.156429 0.987626  0.342784 0.140599 1 1 1.000000
skin_0
0  29.633558 103.091217 28.298470  0.004461 -0.574150 0.818738  0.342784 0.134739 1 1 1.000000
0  32.069763 103.077454 28.284706  0.024946 -0.578832 0.815065  0.330088 0.134739 1 1 1.000000
0  30.252935 104.976875 30.941130  0.020161 0.062491 0.997842  0.339854 0.128880 1 1 1.000000
skin_0
0  30.252935 104.976875 30.941130  0.020161 0.062491 0.997842  0.339854 0.128880 1 1 1.000000
0  29.619795 104.976875 30.941130  0.007914 0.060910 0.998112  0.342784 0.128880 1 1 1.000000
0  29.633558 103.091217 28.298470  0.004461 -0.574150 0.818738  0.342784 0.134739 1 1 1.000000
skin_0
0  29.633558 101.632263 27.899321  0.011172 -0.156429 0.987626  0.342784 0.140599 1 1 1.000000
0  26.977137 101.659790 27.926847  0.010336 -0.151691 0.988374  0.356456 0.140599 1 1 1.000000
0  26.867027 98.549156 27.816736  0.014405 -0.036791 0.999219  0.357433 0.151341 1 1 1.000000
skin_0
0  26.867027 98.549156 27.816736  0.014405 -0.036791 0.999219  0.357433 0.151341 1 1 1.000000
0  29.495922 98.521622 27.775446  0.015319 -0.040451 0.999064  0.343760 0.151341 1 1 1.000000
0  29.633558 101.632263 27.899321  0.011172 -0.156429 0.987626  0.342784 0.140599 1 1 1.000000
skin_0
0  29.619795 104.976875 30.941130  0.007914 0.060910 0.998112  0.342784 0.128880 1 1 1.000000
0  30.252935 104.976875 30.941130  0.020161 0.062491 0.997842  0.339854 0.128880 1 1 1.000000
0  30.280462 105.183334 30.555744  0.021940 0.876140 0.481558  0.339854 0.127903 1 1 1.000000
skin_0
0  30.280462 105.183334 30.555744  0.021940 0.876140 0.481558  0.339854 0.127903 1 1 1.000000
0  29.619795 105.183334 30.555744  0.009022 0.877580 0.479346  0.342784 0.127903 1 1 1.000000
0  29.619795 104.976875 30.941130  0.007914 0.060910 0.998112  0.342784 0.128880 1 1 1.000000
skin_0
0  29.619795 104.591484 29.482162  0.002158 0.936964 -0.349420  0.342784 0.145482 1 1 1.000000
0  30.941126 104.591484 29.482162  -0.000570 0.935974 -0.352068  0.335948 0.145482 1 1 1.000000
0  32.124817 103.958344 26.481644  0.008563 0.994512 -0.104276  0.330088 0.134739 1 1 1.000000
skin_0
0  32.124817 103.958344 26.481644  0.008563 0.994512 -0.104276  0.330088 0.134739 1 1 1.000000
0  29.633558 103.972107 26.495407  0.004081 0.994537 -0.104305  0.342784 0.134739 1 1 1.000000
0  29.619795 104.591484 29.482162  0.002158 0.936964 -0.349420  0.342784 0.145482 1 1 1.000000
skin_0
0  29.619795 105.183334 30.555744  0.000873 0.873693 -0.486477  0.342784 0.148412 1 1 1.000000
0  30.280462 105.183334 30.555744  -0.001961 0.873319 -0.487145  0.339854 0.148412 1 1 1.000000
0  30.941126 104.591484 29.482162  -0.000570 0.935974 -0.352068  0.335948 0.145482 1 1 1.000000
skin_0
0  30.941126 104.591484 29.482162  -0.000570 0.935974 -0.352068  0.335948 0.145482 1 1 1.000000
0  29.619795 104.591484 29.482162  0.002158 0.936964 -0.349420  0.342784 0.145482 1 1 1.000000
0  29.619795 105.183334 30.555744  0.000873 0.873693 -0.486477  0.342784 0.148412 1 1 1.000000
skin_0
0  29.633558 103.958344 25.628284  0.004792 0.999984 -0.003006  0.342784 0.131809 1 1 1.000000
0  26.977137 103.972107 25.655811  0.004425 0.999986 -0.003022  0.356456 0.131809 1 1 1.000000
0  26.977137 103.985870 26.522934  0.003784 0.994530 -0.104381  0.356456 0.134739 1 1 1.000000
skin_0
0  26.977137 103.985870 26.522934  0.003784 0.994530 -0.104381  0.356456 0.134739 1 1 1.000000
0  29.633558 103.972107 26.495407  0.004081 0.994537 -0.104305  0.342784 0.134739 1 1 1.000000
0  29.633558 103.958344 25.628284  0.004792 0.999984 -0.003006  0.342784 0.131809 1 1 1.000000
skin_0
0  26.977137 101.659790 27.926847  0.010336 -0.151691 0.988374  0.356456 0.140599 1 1 1.000000
0  29.633558 101.632263 27.899321  0.011172 -0.156429 0.987626  0.342784 0.140599 1 1 1.000000
0  29.633558 103.091217 28.298470  0.004461 -0.574150 0.818738  0.342784 0.134739 1 1 1.000000
skin_0
0  29.633558 103.091217 28.298470  0.004461 -0.574150 0.818738  0.342784 0.134739 1 1 1.000000
0  26.977137 103.104980 28.325996  0.004132 -0.571203 0.820799  0.356456 0.134739 1 1 1.000000
0  26.977137 101.659790 27.926847  0.010336 -0.151691 0.988374  0.356456 0.140599 1 1 1.000000
skin_0
0  26.977137 103.104980 28.325996  0.004132 -0.571203 0.820799  0.356456 0.134739 1 1 1.000000
0  29.633558 103.091217 28.298470  0.004461 -0.574150 0.818738  0.342784 0.134739 1 1 1.000000
0  29.619795 104.976875 30.941130  0.007914 0.060910 0.998112  0.342784 0.128880 1 1 1.000000
skin_0
0  29.619795 104.976875 30.941130  0.007914 0.060910 0.998112  0.342784 0.128880 1 1 1.000000
0  26.977137 104.990639 30.954893  0.007351 0.064881 0.997866  0.356456 0.127903 1 1 1.000000
0  26.977137 103.104980 28.325996  0.004132 -0.571203 0.820799  0.356456 0.134739 1 1 1.000000
skin_0
0  26.977137 104.990639 30.954893  0.007351 0.064881 0.997866  0.356456 0.127903 1 1 1.000000
0  29.619795 104.976875 30.941130  0.007914 0.060910 0.998112  0.342784 0.128880 1 1 1.000000
0  29.619795 105.183334 30.555744  0.009022 0.877580 0.479346  0.342784 0.127903 1 1 1.000000
skin_0
0  29.619795 105.183334 30.555744  0.009022 0.877580 0.479346  0.342784 0.127903 1 1 1.000000
0  26.977137 105.197098 30.583271  0.008240 0.880409 0.474143  0.356456 0.127903 1 1 1.000000
0  26.977137 104.990639 30.954893  0.007351 0.064881 0.997866  0.356456 0.127903 1 1 1.000000
skin_0
0  26.977137 104.605247 29.509689  0.001978 0.936912 -0.349560  0.356456 0.145482 1 1 1.000000
0  29.619795 104.591484 29.482162  0.002158 0.936964 -0.349420  0.342784 0.145482 1 1 1.000000
0  29.633558 103.972107 26.495407  0.004081 0.994537 -0.104305  0.342784 0.134739 1 1 1.000000
skin_0
0  29.633558 103.972107 26.495407  0.004081 0.994537 -0.104305  0.342784 0.134739 1 1 1.000000
0  26.977137 103.985870 26.522934  0.003784 0.994530 -0.104381  0.356456 0.134739 1 1 1.000000
0  26.977137 104.605247 29.509689  0.001978 0.936912 -0.349560  0.356456 0.145482 1 1 1.000000
skin_0
0  26.977137 105.197098 30.583271  0.000795 0.873605 -0.486634  0.356456 0.149388 1 1 1.000000
0  29.619795 105.183334 30.555744  0.000873 0.873693 -0.486477  0.342784 0.148412 1 1 1.000000
0  29.619795 104.591484 29.482162  0.002158 0.936964 -0.349420  0.342784 0.145482 1 1 1.000000
skin_0
0  29.619795 104.591484 29.482162  0.002158 0.936964 -0.349420  0.342784 0.145482 1 1 1.000000
0  26.977137 104.605247 29.509689  0.001978 0.936912 -0.349560  0.356456 0.145482 1 1 1.000000
0  26.977137 105.197098 30.583271  0.000795 0.873605 -0.486634  0.356456 0.149388 1 1 1.000000
skin_0
0  26.977137 101.659790 27.926847  0.010336 -0.151691 0.988374  0.356456 0.140599 1 1 1.000000
0  20.012630 101.701080 28.009430  0.011906 -0.141364 0.989886  0.393567 0.139622 1 1 1.000000
0  19.971338 98.604210 27.913084  0.013792 -0.029036 0.999483  0.393567 0.151341 1 1 1.000000
skin_0
0  19.971338 98.604210 27.913084  0.013792 -0.029036 0.999483  0.393567 0.151341 1 1 1.000000
0  26.867027 98.549156 27.816736  0.014405 -0.036791 0.999219  0.357433 0.151341 1 1 1.000000
0  26.977137 101.659790 27.926847  0.010336 -0.151691 0.988374  0.356456 0.140599 1 1 1.000000
skin_0
0  26.977137 103.972107 25.655811  0.004425 0.999986 -0.003022  0.356456 0.131809 1 1 1.000000
0  20.012630 104.013397 25.697104  0.005197 0.999983 -0.002591  0.393567 0.131809 1 1 1.000000
0  20.012630 104.013397 26.564226  0.004304 0.994548 -0.104188  0.393567 0.134739 1 1 1.000000
skin_0
0  20.012630 104.013397 26.564226  0.004304 0.994548 -0.104188  0.393567 0.134739 1 1 1.000000
0  26.977137 103.985870 26.522934  0.003784 0.994530 -0.104381  0.356456 0.134739 1 1 1.000000
0  26.977137 103.972107 25.655811  0.004425 0.999986 -0.003022  0.356456 0.131809 1 1 1.000000
skin_0
0  6.647933 101.797424 28.147068  0.003547 -0.127788 0.991795  0.464858 0.139622 1 1 1.000000
0  13.612440 101.769897 28.119539  0.009316 -0.132351 0.991159  0.427747 0.139622 1 1 1.000000
0  13.612440 103.187576 28.449871  0.003192 -0.554532 0.832156  0.427747 0.134739 1 1 1.000000
skin_0
0  13.612440 103.187576 28.449871  0.003192 -0.554532 0.832156  0.427747 0.134739 1 1 1.000000
0  6.634169 103.201340 28.477404  0.001960 -0.553578 0.832795  0.464858 0.134739 1 1 1.000000
0  6.647933 101.797424 28.147068  0.003547 -0.127788 0.991795  0.464858 0.139622 1 1 1.000000
skin_0
0  6.634169 103.201340 28.477404  0.001960 -0.553578 0.832795  0.464858 0.134739 1 1 1.000000
0  13.612440 103.187576 28.449871  0.003192 -0.554532 0.832156  0.427747 0.134739 1 1 1.000000
0  13.612440 105.086983 31.051239  0.005098 0.087433 0.996157  0.427747 0.127903 1 1 1.000000
skin_0
0  13.612440 105.086983 31.051239  0.005098 0.087433 0.996157  0.427747 0.127903 1 1 1.000000
0  6.634169 105.100746 31.065004  0.002228 0.090984 0.995850  0.464858 0.127903 1 1 1.000000
0  6.634169 103.201340 28.477404  0.001960 -0.553578 0.832795  0.464858 0.134739 1 1 1.000000
skin_0
0  6.647933 101.797424 28.147068  0.003547 -0.127788 0.991795  0.464858 0.139622 1 1 1.000000
0  -0.013769 101.811188 28.160835  0.000073 -0.128857 0.991663  0.500015 0.139622 1 1 1.000000
0  -0.013769 98.714317 28.105778  -0.000497 -0.018796 0.999823  0.500015 0.150365 1 1 1.000000
skin_0
0  -0.013769 98.714317 28.105778  -0.000497 -0.018796 0.999823  0.500015 0.150365 1 1 1.000000
0  6.730517 98.700554 28.078251  0.004575 -0.021990 0.999748  0.463881 0.150365 1 1 1.000000
0  6.647933 101.797424 28.147068  0.003547 -0.127788 0.991795  0.464858 0.139622 1 1 1.000000
skin_0
0  6.634169 105.100746 31.065004  0.002228 0.090984 0.995850  0.464858 0.127903 1 1 1.000000
0  13.612440 105.086983 31.051239  0.005098 0.087433 0.996157  0.427747 0.127903 1 1 1.000000
0  13.612440 105.279678 30.679619  0.006013 0.895913 0.444190  0.427747 0.126926 1 1 1.000000
skin_0
0  13.612440 105.279678 30.679619  0.006013 0.895913 0.444190  0.427747 0.126926 1 1 1.000000
0  6.634169 105.279678 30.707148  0.002106 0.899664 0.436578  0.464858 0.126926 1 1 1.000000
0  6.634169 105.100746 31.065004  0.002228 0.090984 0.995850  0.464858 0.127903 1 1 1.000000
skin_0
0  6.634169 104.687828 29.619801  0.000699 0.938357 -0.345666  0.464858 0.145482 1 1 1.000000
0  13.612440 104.674065 29.619799  0.001341 0.936669 -0.350214  0.427747 0.145482 1 1 1.000000
0  13.612440 104.054703 26.619280  0.003296 0.994498 -0.104708  0.427747 0.134739 1 1 1.000000
skin_0
0  13.612440 104.054703 26.619280  0.003296 0.994498 -0.104708  0.427747 0.134739 1 1 1.000000
0  6.634169 104.054703 26.633045  0.001304 0.994518 -0.104557  0.464858 0.134739 1 1 1.000000
0  6.634169 104.687828 29.619801  0.000699 0.938357 -0.345666  0.464858 0.145482 1 1 1.000000
skin_0
0  6.634169 105.279678 30.707148  0.000166 0.877773 -0.479078  0.464858 0.149388 1 1 1.000000
0  13.612440 105.279678 30.679619  -0.000123 0.873349 -0.487094  0.427747 0.149388 1 1 1.000000
0  13.612440 104.674065 29.619799  0.001341 0.936669 -0.350214  0.427747 0.145482 1 1 1.000000
skin_0
0  13.612440 104.674065 29.619799  0.001341 0.936669 -0.350214  0.427747 0.145482 1 1 1.000000
0  6.634169 104.687828 29.619801  0.000699 0.938357 -0.345666  0.464858 0.145482 1 1 1.000000
0  6.634169 105.279678 30.707148  0.000166 0.877773 -0.479078  0.464858 0.149388 1 1 1.000000
skin_0
0  6.634169 104.054703 25.779686  0.001690 0.999995 -0.002809  0.464858 0.131809 1 1 1.000000
0  -0.013770 104.068466 25.793453  -0.000029 0.999996 -0.002879  0.500015 0.131809 1 1 1.000000
0  -0.013770 104.068466 26.633045  0.000078 0.994591 -0.103865  0.500015 0.134739 1 1 1.000000
skin_0
0  -0.013770 104.068466 26.633045  0.000078 0.994591 -0.103865  0.500015 0.134739 1 1 1.000000
0  6.634169 104.054703 26.633045  0.001304 0.994518 -0.104557  0.464858 0.134739 1 1 1.000000
0  6.634169 104.054703 25.779686  0.001690 0.999995 -0.002809  0.464858 0.131809 1 1 1.000000
skin_0
0  -27.004677 101.659790 27.926851  -0.010261 -0.151862 0.988348  0.642598 0.140599 1 1 1.000000
0  -20.040169 101.701080 28.009434  -0.012416 -0.140431 0.990013  0.605487 0.139622 1 1 1.000000
0  -20.040169 103.132507 28.381058  -0.004468 -0.563924 0.825815  0.605487 0.134739 1 1 1.000000
skin_0
0  -20.040169 103.132507 28.381058  -0.004468 -0.563924 0.825815  0.605487 0.134739 1 1 1.000000
0  -27.004677 103.104980 28.326000  -0.004329 -0.571911 0.820304  0.642598 0.134739 1 1 1.000000
0  -27.004677 101.659790 27.926851  -0.010261 -0.151862 0.988348  0.642598 0.140599 1 1 1.000000
skin_0
0  -6.675472 101.797424 28.147068  -0.004212 -0.128778 0.991664  0.535173 0.139622 1 1 1.000000
0  -0.013769 101.811188 28.160835  0.000073 -0.128857 0.991663  0.500015 0.139622 1 1 1.000000
0  -0.013769 103.215103 28.504930  0.000071 -0.554687 0.832059  0.500015 0.134739 1 1 1.000000
skin_0
0  -0.013769 103.215103 28.504930  0.000071 -0.554687 0.832059  0.500015 0.134739 1 1 1.000000
0  -6.661708 103.201340 28.477404  -0.001982 -0.553281 0.832992  0.535173 0.134739 1 1 1.000000
0  -6.675472 101.797424 28.147068  -0.004212 -0.128778 0.991664  0.535173 0.139622 1 1 1.000000
skin_0
0  -35.290512 101.563438 27.637810  -0.272728 -0.091854 0.957696  0.686544 0.140599 1 1 1.000000
0  -32.303753 101.618492 27.858030  -0.043109 -0.161064 0.986002  0.670919 0.140599 1 1 1.000000
0  -32.097301 103.077454 28.284710  -0.027508 -0.575256 0.817511  0.669942 0.134739 1 1 1.000000
skin_0
0  -32.097301 103.077454 28.284710  -0.027508 -0.575256 0.817511  0.669942 0.134739 1 1 1.000000
0  -34.561028 103.036163 28.119543  -0.261869 -0.453684 0.851819  0.682638 0.135716 1 1 1.000000
0  -35.290512 101.563438 27.637810  -0.272728 -0.091854 0.957696  0.686544 0.140599 1 1 1.000000
skin_0
0  -34.561028 103.036163 28.119543  -0.261869 -0.453684 0.851819  0.682638 0.135716 1 1 1.000000
0  -32.097301 103.077454 28.284710  -0.027508 -0.575256 0.817511  0.669942 0.134739 1 1 1.000000
0  -30.280474 104.976875 30.941133  -0.023165 0.061459 0.997841  0.660176 0.128880 1 1 1.000000
skin_0
0  -30.280474 104.976875 30.941133  -0.023165 0.061459 0.997841  0.660176 0.128880 1 1 1.000000
0  -32.221172 104.935585 30.872313  -0.270554 0.104170 0.957052  0.669942 0.128880 1 1 1.000000
0  -34.561028 103.036163 28.119543  -0.261869 -0.453684 0.851819  0.682638 0.135716 1 1 1.000000
skin_0
0  -27.004677 103.104980 28.326000  -0.004329 -0.571911 0.820304  0.642598 0.134739 1 1 1.000000
0  -20.040169 103.132507 28.381058  -0.004468 -0.563924 0.825815  0.605487 0.134739 1 1 1.000000
0  -20.040169 105.031929 31.009953  -0.007661 0.072468 0.997341  0.605487 0.127903 1 1 1.000000
skin_0
0  -20.040169 105.031929 31.009953  -0.007661 0.072468 0.997341  0.605487 0.127903 1 1 1.000000
0  -27.004677 104.990639 30.954897  -0.007264 0.064717 0.997877  0.642598 0.127903 1 1 1.000000
0  -27.004677 103.104980 28.326000  -0.004329 -0.571911 0.820304  0.642598 0.134739 1 1 1.000000
skin_0
0  -6.661708 103.201340 28.477404  -0.001982 -0.553281 0.832992  0.535173 0.134739 1 1 1.000000
0  -0.013769 103.215103 28.504930  0.000071 -0.554687 0.832059  0.500015 0.134739 1 1 1.000000
0  -0.013769 105.114510 31.078768  -0.000545 0.096538 0.995329  0.500015 0.127903 1 1 1.000000
skin_0
0  -0.013769 105.114510 31.078768  -0.000545 0.096538 0.995329  0.500015 0.127903 1 1 1.000000
0  -6.661708 105.100746 31.065004  -0.002320 0.090904 0.995857  0.535173 0.127903 1 1 1.000000
0  -6.661708 103.201340 28.477404  -0.001982 -0.553281 0.832992  0.535173 0.134739 1 1 1.000000
skin_0
0  -13.639980 103.187576 28.449875  -0.004740 -0.554800 0.831970  0.572283 0.134739 1 1 1.000000
0  -20.040169 103.132507 28.381058  -0.004468 -0.563924 0.825815  0.605487 0.134739 1 1 1.000000
0  -20.040169 101.701080 28.009434  -0.012416 -0.140431 0.990013  0.605487 0.139622 1 1 1.000000
skin_0
0  -20.040169 101.701080 28.009434  -0.012416 -0.140431 0.990013  0.605487 0.139622 1 1 1.000000
0  -13.639980 101.769897 28.119543  -0.009429 -0.132338 0.991160  0.572283 0.139622 1 1 1.000000
0  -13.639980 103.187576 28.449875  -0.004740 -0.554800 0.831970  0.572283 0.134739 1 1 1.000000
skin_0
0  -13.639980 105.086983 31.051243  -0.006164 0.087204 0.996171  0.572283 0.127903 1 1 1.000000
0  -20.040169 105.031929 31.009953  -0.007661 0.072468 0.997341  0.605487 0.127903 1 1 1.000000
0  -20.040169 103.132507 28.381058  -0.004468 -0.563924 0.825815  0.605487 0.134739 1 1 1.000000
skin_0
0  -20.040169 103.132507 28.381058  -0.004468 -0.563924 0.825815  0.605487 0.134739 1 1 1.000000
0  -13.639980 103.187576 28.449875  -0.004740 -0.554800 0.831970  0.572283 0.134739 1 1 1.000000
0  -13.639980 105.086983 31.051243  -0.006164 0.087204 0.996171  0.572283 0.127903 1 1 1.000000
skin_0
0  -29.661097 101.632263 27.899324  -0.011260 -0.156390 0.987631  0.656270 0.140599 1 1 1.000000
0  -32.303753 101.618492 27.858030  -0.043109 -0.161064 0.986002  0.670919 0.140599 1 1 1.000000
0  -32.138592 98.494095 27.734158  -0.047037 -0.043469 0.997947  0.669942 0.151341 1 1 1.000000
skin_0
0  -32.138592 98.494095 27.734158  -0.047037 -0.043469 0.997947  0.669942 0.151341 1 1 1.000000
0  -29.523460 98.521622 27.775450  -0.015352 -0.038526 0.999140  0.656270 0.151341 1 1 1.000000
0  -29.661097 101.632263 27.899324  -0.011260 -0.156390 0.987631  0.656270 0.140599 1 1 1.000000
skin_0
0  -6.675472 101.797424 28.147068  -0.004212 -0.128778 0.991664  0.535173 0.139622 1 1 1.000000
0  -13.639980 101.769897 28.119543  -0.009429 -0.132338 0.991160  0.572283 0.139622 1 1 1.000000
0  -13.653744 98.686790 28.023197  -0.010694 -0.029579 0.999505  0.572283 0.150365 1 1 1.000000
skin_0
0  -13.653744 98.686790 28.023197  -0.010694 -0.029579 0.999505  0.572283 0.150365 1 1 1.000000
0  -6.758055 98.700554 28.078251  -0.005648 -0.020900 0.999766  0.535173 0.150365 1 1 1.000000
0  -6.675472 101.797424 28.147068  -0.004212 -0.128778 0.991664  0.535173 0.139622 1 1 1.000000
skin_0
0  -35.552025 98.425278 27.445116  -0.105887 -0.039096 0.993609  0.687521 0.151341 1 1 1.000000
0  -32.138592 98.494095 27.734158  -0.047037 -0.043469 0.997947  0.669942 0.151341 1 1 1.000000
0  -32.303753 101.618492 27.858030  -0.043109 -0.161064 0.986002  0.670919 0.140599 1 1 1.000000
skin_0
0  -32.303753 101.618492 27.858030  -0.043109 -0.161064 0.986002  0.670919 0.140599 1 1 1.000000
0  -35.290512 101.563438 27.637810  -0.272728 -0.091854 0.957696  0.686544 0.140599 1 1 1.000000
0  -35.552025 98.425278 27.445116  -0.105887 -0.039096 0.993609  0.687521 0.151341 1 1 1.000000
skin_0
0  -19.998877 98.604210 27.913088  -0.015505 -0.028215 0.999482  0.605487 0.151341 1 1 1.000000
0  -13.653744 98.686790 28.023197  -0.010694 -0.029579 0.999505  0.572283 0.150365 1 1 1.000000
0  -13.639980 101.769897 28.119543  -0.009429 -0.132338 0.991160  0.572283 0.139622 1 1 1.000000
skin_0
0  -13.639980 101.769897 28.119543  -0.009429 -0.132338 0.991160  0.572283 0.139622 1 1 1.000000
0  -20.040169 101.701080 28.009434  -0.012416 -0.140431 0.990013  0.605487 0.139622 1 1 1.000000
0  -19.998877 98.604210 27.913088  -0.015505 -0.028215 0.999482  0.605487 0.151341 1 1 1.000000
skin_0
0  -34.561028 103.036163 28.119543  -0.261869 -0.453684 0.851819  0.682638 0.135716 1 1 1.000000
0  -32.221172 104.935585 30.872313  -0.270554 0.104170 0.957052  0.669942 0.128880 1 1 1.000000
0  -32.689144 104.866768 30.569511  -0.628485 0.251633 0.735995  0.672872 0.128880 1 1 1.000000
skin_0
0  -32.689144 104.866768 30.569511  -0.628485 0.251633 0.735995  0.672872 0.128880 1 1 1.000000
0  -34.850071 103.036163 27.968143  -0.651999 -0.020397 0.757946  0.684591 0.135716 1 1 1.000000
0  -34.561028 103.036163 28.119543  -0.261869 -0.453684 0.851819  0.682638 0.135716 1 1 1.000000
skin_0
0  -34.850071 103.036163 27.968143  -0.651999 -0.020397 0.757946  0.684591 0.135716 1 1 1.000000
0  -35.496967 101.577202 27.541460  -0.552531 0.013793 0.833378  0.687521 0.140599 1 1 1.000000
0  -35.290512 101.563438 27.637810  -0.272728 -0.091854 0.957696  0.686544 0.140599 1 1 1.000000
skin_0
0  -35.290512 101.563438 27.637810  -0.272728 -0.091854 0.957696  0.686544 0.140599 1 1 1.000000
0  -34.561028 103.036163 28.119543  -0.261869 -0.453684 0.851819  0.682638 0.135716 1 1 1.000000
0  -34.850071 103.036163 27.968143  -0.651999 -0.020397 0.757946  0.684591 0.135716 1 1 1.000000
skin_0
0  -32.000954 105.155807 30.486925  -0.167671 0.889236 0.425613  0.668966 0.127903 1 1 1.000000
0  -32.468922 105.100746 30.184120  -0.428183 0.862659 0.269220  0.671896 0.127903 1 1 1.000000
0  -32.689144 104.866768 30.569511  -0.628485 0.251633 0.735995  0.672872 0.128880 1 1 1.000000
skin_0
0  -32.689144 104.866768 30.569511  -0.628485 0.251633 0.735995  0.672872 0.128880 1 1 1.000000
0  -32.221172 104.935585 30.872313  -0.270554 0.104170 0.957052  0.669942 0.128880 1 1 1.000000
0  -32.000954 105.155807 30.486925  -0.167671 0.889236 0.425613  0.668966 0.127903 1 1 1.000000
skin_0
0  -35.496967 101.577202 27.541460  -0.552531 0.013793 0.833378  0.687521 0.140599 1 1 1.000000
0  -35.772247 98.494095 27.431351  -0.328742 -0.007048 0.944393  0.689474 0.151341 1 1 1.000000
0  -35.552025 98.425278 27.445116  -0.105887 -0.039096 0.993609  0.687521 0.151341 1 1 1.000000
skin_0
0  -35.552025 98.425278 27.445116  -0.105887 -0.039096 0.993609  0.687521 0.151341 1 1 1.000000
0  -35.290512 101.563438 27.637810  -0.272728 -0.091854 0.957696  0.686544 0.140599 1 1 1.000000
0  -35.496967 101.577202 27.541460  -0.552531 0.013793 0.833378  0.687521 0.140599 1 1 1.000000
skin_0
0  -34.946419 104.151047 27.156075  -0.761588 0.600785 0.242984  0.684591 0.131809 1 1 1.000000
0  -33.927891 104.536430 28.931612  -0.738797 0.530400 0.415758  0.679708 0.129856 1 1 1.000000
0  -33.721436 104.770424 28.532459  -0.549339 0.816103 0.179450  0.677755 0.128880 1 1 1.000000
skin_0
0  -33.721436 104.770424 28.532459  -0.549339 0.816103 0.179450  0.677755 0.128880 1 1 1.000000
0  -34.739964 104.385025 26.756924  -0.655233 0.751769 0.074241  0.683615 0.130833 1 1 1.000000
0  -34.946419 104.151047 27.156075  -0.761588 0.600785 0.242984  0.684591 0.131809 1 1 1.000000
skin_0
0  -34.946419 104.151047 27.156075  -0.761588 0.600785 0.242984  0.684591 0.131809 1 1 1.000000
0  -35.593319 103.132507 26.908327  -0.907340 0.318238 0.274698  0.688498 0.134739 1 1 1.000000
0  -35.221691 103.063690 27.527697  -0.793452 0.247076 0.556226  0.686544 0.134739 1 1 1.000000
skin_0
0  -35.221691 103.063690 27.527697  -0.793452 0.247076 0.556226  0.686544 0.134739 1 1 1.000000
0  -33.927891 104.536430 28.931612  -0.738797 0.530400 0.415758  0.679708 0.129856 1 1 1.000000
0  -34.946419 104.151047 27.156075  -0.761588 0.600785 0.242984  0.684591 0.131809 1 1 1.000000
skin_0
0  -35.221691 103.063690 27.527697  -0.793452 0.247076 0.556226  0.686544 0.134739 1 1 1.000000
0  -35.593319 103.132507 26.908327  -0.907340 0.318238 0.274698  0.688498 0.134739 1 1 1.000000
0  -35.923649 101.618492 27.087257  -0.969877 0.126732 0.208032  0.689474 0.140599 1 1 1.000000
skin_0
0  -35.923649 101.618492 27.087257  -0.969877 0.126732 0.208032  0.689474 0.140599 1 1 1.000000
0  -35.730957 101.590965 27.335007  -0.738103 0.101475 0.667014  0.688498 0.140599 1 1 1.000000
0  -35.221691 103.063690 27.527697  -0.793452 0.247076 0.556226  0.686544 0.134739 1 1 1.000000
skin_0
0  -35.813538 101.632263 26.550465  -0.981365 0.110292 -0.157350  0.689474 0.140599 1 1 1.000000
0  -36.006233 98.645500 27.238657  -0.678201 0.026180 0.734410  0.690451 0.150365 1 1 1.000000
0  -35.923649 101.618492 27.087257  -0.969877 0.126732 0.208032  0.689474 0.140599 1 1 1.000000
skin_0
0  -33.927891 104.536430 28.931612  -0.738797 0.530400 0.415758  0.679708 0.129856 1 1 1.000000
0  -32.689144 104.866768 30.569511  -0.628485 0.251633 0.735995  0.672872 0.128880 1 1 1.000000
0  -32.468922 105.100746 30.184120  -0.428183 0.862659 0.269220  0.671896 0.127903 1 1 1.000000
skin_0
0  -32.468922 105.100746 30.184120  -0.428183 0.862659 0.269220  0.671896 0.127903 1 1 1.000000
0  -33.721436 104.770424 28.532459  -0.549339 0.816103 0.179450  0.677755 0.128880 1 1 1.000000
0  -33.927891 104.536430 28.931612  -0.738797 0.530400 0.415758  0.679708 0.129856 1 1 1.000000
skin_0
0  -34.739964 104.385025 26.756924  -0.655233 0.751769 0.074241  0.683615 0.130833 1 1 1.000000
0  -35.221695 103.875763 25.229136  -0.595771 0.799584 -0.075651  0.686544 0.131809 1 1 1.000000
0  -35.428154 103.751884 25.573235  -0.726930 0.686670 0.007622  0.687521 0.132786 1 1 1.000000
skin_0
0  -35.428154 103.751884 25.573235  -0.726930 0.686670 0.007622  0.687521 0.132786 1 1 1.000000
0  -34.946419 104.151047 27.156075  -0.761588 0.600785 0.242984  0.684591 0.131809 1 1 1.000000
0  -34.739964 104.385025 26.756924  -0.655233 0.751769 0.074241  0.683615 0.130833 1 1 1.000000
skin_0
0  -34.850071 103.036163 27.968143  -0.651999 -0.020397 0.757946  0.684591 0.135716 1 1 1.000000
0  -32.689144 104.866768 30.569511  -0.628485 0.251633 0.735995  0.672872 0.128880 1 1 1.000000
0  -33.927891 104.536430 28.931612  -0.738797 0.530400 0.415758  0.679708 0.129856 1 1 1.000000
skin_0
0  -33.927891 104.536430 28.931612  -0.738797 0.530400 0.415758  0.679708 0.129856 1 1 1.000000
0  -35.221691 103.063690 27.527697  -0.793452 0.247076 0.556226  0.686544 0.134739 1 1 1.000000
0  -34.850071 103.036163 27.968143  -0.651999 -0.020397 0.757946  0.684591 0.135716 1 1 1.000000
skin_0
0  -35.593319 103.132507 26.908327  -0.907340 0.318238 0.274698  0.688498 0.134739 1 1 1.000000
0  -34.946419 104.151047 27.156075  -0.761588 0.600785 0.242984  0.684591 0.131809 1 1 1.000000
0  -35.428154 103.751884 25.573235  -0.726930 0.686670 0.007622  0.687521 0.132786 1 1 1.000000
skin_0
0  -35.428154 103.751884 25.573235  -0.726930 0.686670 0.007622  0.687521 0.132786 1 1 1.000000
0  -35.648376 103.215103 25.958620  -0.936775 0.338384 0.089154  0.688498 0.134739 1 1 1.000000
0  -35.593319 103.132507 26.908327  -0.907340 0.318238 0.274698  0.688498 0.134739 1 1 1.000000
skin_0
0  -35.730957 101.590965 27.335007  -0.738103 0.101475 0.667014  0.688498 0.140599 1 1 1.000000
0  -35.496967 101.577202 27.541460  -0.552531 0.013793 0.833378  0.687521 0.140599 1 1 1.000000
0  -34.850071 103.036163 27.968143  -0.651999 -0.020397 0.757946  0.684591 0.135716 1 1 1.000000
skin_0
0  -34.850071 103.036163 27.968143  -0.651999 -0.020397 0.757946  0.684591 0.135716 1 1 1.000000
0  -35.221691 103.063690 27.527697  -0.793452 0.247076 0.556226  0.686544 0.134739 1 1 1.000000
0  -35.730957 101.590965 27.335007  -0.738103 0.101475 0.667014  0.688498 0.140599 1 1 1.000000
skin_0
0  -35.813538 101.632263 26.550465  -0.981365 0.110292 -0.157350  0.689474 0.140599 1 1 1.000000
0  -35.923649 101.618492 27.087257  -0.969877 0.126732 0.208032  0.689474 0.140599 1 1 1.000000
0  -35.593319 103.132507 26.908327  -0.907340 0.318238 0.274698  0.688498 0.134739 1 1 1.000000
skin_0
0  -35.593319 103.132507 26.908327  -0.907340 0.318238 0.274698  0.688498 0.134739 1 1 1.000000
0  -35.648376 103.215103 25.958620  -0.936775 0.338384 0.089154  0.688498 0.134739 1 1 1.000000
0  -35.813538 101.632263 26.550465  -0.981365 0.110292 -0.157350  0.689474 0.140599 1 1 1.000000
skin_0
0  -36.006233 98.645500 27.238657  -0.678201 0.026180 0.734410  0.690451 0.150365 1 1 1.000000
0  -35.730957 101.590965 27.335007  -0.738103 0.101475 0.667014  0.688498 0.140599 1 1 1.000000
0  -35.923649 101.618492 27.087257  -0.969877 0.126732 0.208032  0.689474 0.140599 1 1 1.000000
skin_0
0  -35.496967 101.577202 27.541460  -0.552531 0.013793 0.833378  0.687521 0.140599 1 1 1.000000
0  -35.730957 101.590965 27.335007  -0.738103 0.101475 0.667014  0.688498 0.140599 1 1 1.000000
0  -36.006233 98.645500 27.238657  -0.678201 0.026180 0.734410  0.690451 0.150365 1 1 1.000000
skin_0
0  -36.006233 98.645500 27.238657  -0.678201 0.026180 0.734410  0.690451 0.150365 1 1 1.000000
0  -35.772247 98.494095 27.431351  -0.328742 -0.007048 0.944393  0.689474 0.151341 1 1 1.000000
0  -35.496967 101.577202 27.541460  -0.552531 0.013793 0.833378  0.687521 0.140599 1 1 1.000000
skin_0
0  -27.004677 104.990639 30.954897  -0.007264 0.064717 0.997877  0.642598 0.127903 1 1 1.000000
0  -20.040169 105.031929 31.009953  -0.007661 0.072468 0.997341  0.605487 0.127903 1 1 1.000000
0  -20.040169 105.238388 30.624565  -0.008942 0.886600 0.462450  0.605487 0.127903 1 1 1.000000
skin_0
0  -20.040169 105.238388 30.624565  -0.008942 0.886600 0.462450  0.605487 0.127903 1 1 1.000000
0  -27.004677 105.197098 30.583275  -0.008361 0.880150 0.474621  0.642598 0.127903 1 1 1.000000
0  -27.004677 104.990639 30.954897  -0.007264 0.064717 0.997877  0.642598 0.127903 1 1 1.000000
skin_0
0  -6.661708 105.100746 31.065004  -0.002320 0.090904 0.995857  0.535173 0.127903 1 1 1.000000
0  -0.013769 105.114510 31.078768  -0.000545 0.096538 0.995329  0.500015 0.127903 1 1 1.000000
0  -0.013769 105.279678 30.720911  -0.000279 0.903237 0.429142  0.500015 0.126926 1 1 1.000000
skin_0
0  -0.013769 105.279678 30.720911  -0.000279 0.903237 0.429142  0.500015 0.126926 1 1 1.000000
0  -6.661708 105.279678 30.707148  -0.002165 0.899505 0.436905  0.535173 0.126926 1 1 1.000000
0  -6.661708 105.100746 31.065004  -0.002320 0.090904 0.995857  0.535173 0.127903 1 1 1.000000
skin_0
0  -32.221172 104.935585 30.872313  -0.270554 0.104170 0.957052  0.669942 0.128880 1 1 1.000000
0  -30.280474 104.976875 30.941133  -0.023165 0.061459 0.997841  0.660176 0.128880 1 1 1.000000
0  -30.308001 105.183334 30.555748  -0.022707 0.875643 0.482425  0.660176 0.127903 1 1 1.000000
skin_0
0  -30.308001 105.183334 30.555748  -0.022707 0.875643 0.482425  0.660176 0.127903 1 1 1.000000
0  -32.000954 105.155807 30.486925  -0.167671 0.889236 0.425613  0.668966 0.127903 1 1 1.000000
0  -32.221172 104.935585 30.872313  -0.270554 0.104170 0.957052  0.669942 0.128880 1 1 1.000000
skin_0
0  -13.639980 105.279678 30.679623  -0.006470 0.895669 0.444675  0.572283 0.126926 1 1 1.000000
0  -20.040169 105.238388 30.624565  -0.008942 0.886600 0.462450  0.605487 0.127903 1 1 1.000000
0  -20.040169 105.031929 31.009953  -0.007661 0.072468 0.997341  0.605487 0.127903 1 1 1.000000
skin_0
0  -20.040169 105.031929 31.009953  -0.007661 0.072468 0.997341  0.605487 0.127903 1 1 1.000000
0  -13.639980 105.086983 31.051243  -0.006164 0.087204 0.996171  0.572283 0.127903 1 1 1.000000
0  -13.639980 105.279678 30.679623  -0.006470 0.895669 0.444675  0.572283 0.126926 1 1 1.000000
skin_0
0  -6.661708 104.687828 29.619801  -0.000821 0.938392 -0.345573  0.535173 0.145482 1 1 1.000000
0  -0.013770 104.701591 29.633564  0.000487 0.939755 -0.341849  0.500015 0.145482 1 1 1.000000
0  -0.013770 104.068466 26.633045  0.000078 0.994591 -0.103865  0.500015 0.134739 1 1 1.000000
skin_0
0  -0.013770 104.068466 26.633045  0.000078 0.994591 -0.103865  0.500015 0.134739 1 1 1.000000
0  -6.661708 104.054703 26.633045  -0.001361 0.994580 -0.103961  0.535173 0.134739 1 1 1.000000
0  -6.661708 104.687828 29.619801  -0.000821 0.938392 -0.345573  0.535173 0.145482 1 1 1.000000
skin_0
0  -13.639980 104.054703 26.619284  -0.003358 0.994498 -0.104701  0.572283 0.134739 1 1 1.000000
0  -20.040169 104.013397 26.564230  -0.004338 0.994551 -0.104160  0.605487 0.134739 1 1 1.000000
0  -20.040169 104.632774 29.550983  -0.002201 0.936805 -0.349845  0.605487 0.145482 1 1 1.000000
skin_0
0  -20.040169 104.632774 29.550983  -0.002201 0.936805 -0.349845  0.605487 0.145482 1 1 1.000000
0  -13.639980 104.674065 29.619802  -0.001832 0.936602 -0.350391  0.572283 0.145482 1 1 1.000000
0  -13.639980 104.054703 26.619284  -0.003358 0.994498 -0.104701  0.572283 0.134739 1 1 1.000000
skin_0
0  -27.004677 104.605247 29.509693  -0.002055 0.936846 -0.349736  0.642598 0.145482 1 1 1.000000
0  -20.040169 104.632774 29.550983  -0.002201 0.936805 -0.349845  0.605487 0.145482 1 1 1.000000
0  -20.040169 104.013397 26.564230  -0.004338 0.994551 -0.104160  0.605487 0.134739 1 1 1.000000
skin_0
0  -20.040169 104.013397 26.564230  -0.004338 0.994551 -0.104160  0.605487 0.134739 1 1 1.000000
0  -27.004677 103.985870 26.522938  -0.003848 0.994532 -0.104364  0.642598 0.134739 1 1 1.000000
0  -27.004677 104.605247 29.509693  -0.002055 0.936846 -0.349736  0.642598 0.145482 1 1 1.000000
skin_0
0  -32.152359 103.958344 26.481647  -0.005727 0.994681 -0.102849  0.669942 0.134739 1 1 1.000000
0  -33.638855 103.944580 26.522938  0.153562 0.971028 -0.183096  0.677755 0.134739 1 1 1.000000
0  -32.111065 104.563957 29.413347  0.135896 0.919468 -0.368931  0.669942 0.144505 1 1 1.000000
skin_0
0  -32.111065 104.563957 29.413347  0.135896 0.919468 -0.368931  0.669942 0.144505 1 1 1.000000
0  -30.968664 104.591484 29.482166  -0.000066 0.936129 -0.351656  0.664083 0.145482 1 1 1.000000
0  -32.152359 103.958344 26.481647  -0.005727 0.994681 -0.102849  0.669942 0.134739 1 1 1.000000
skin_0
0  -33.721436 104.770424 28.532459  0.306113 0.880273 -0.362511  0.677755 0.141575 1 1 1.000000
0  -32.111065 104.563957 29.413347  0.135896 0.919468 -0.368931  0.669942 0.144505 1 1 1.000000
0  -33.638855 103.944580 26.522938  0.153562 0.971028 -0.183096  0.677755 0.134739 1 1 1.000000
skin_0
0  -33.638855 103.944580 26.522938  0.153562 0.971028 -0.183096  0.677755 0.134739 1 1 1.000000
0  -34.739964 104.385025 26.756924  0.233818 0.925781 -0.297084  0.683615 0.135716 1 1 1.000000
0  -33.721436 104.770424 28.532459  0.306113 0.880273 -0.362511  0.677755 0.141575 1 1 1.000000
skin_0
0  -6.661708 105.279678 30.707148  0.000631 0.878592 -0.477573  0.535173 0.149388 1 1 1.000000
0  -0.013769 105.279678 30.720911  0.000806 0.882702 -0.469933  0.500015 0.149388 1 1 1.000000
0  -0.013770 104.701591 29.633564  0.000487 0.939755 -0.341849  0.500015 0.145482 1 1 1.000000
skin_0
0  -0.013770 104.701591 29.633564  0.000487 0.939755 -0.341849  0.500015 0.145482 1 1 1.000000
0  -6.661708 104.687828 29.619801  -0.000821 0.938392 -0.345573  0.535173 0.145482 1 1 1.000000
0  -6.661708 105.279678 30.707148  0.000631 0.878592 -0.477573  0.535173 0.149388 1 1 1.000000
skin_0
0  -6.661708 104.054703 25.779686  -0.001723 0.999994 -0.002843  0.535173 0.131809 1 1 1.000000
0  -13.639980 104.040924 25.752161  -0.003937 0.999988 -0.002880  0.572283 0.131809 1 1 1.000000
0  -13.639980 104.054703 26.619284  -0.003358 0.994498 -0.104701  0.572283 0.134739 1 1 1.000000
skin_0
0  -13.639980 104.054703 26.619284  -0.003358 0.994498 -0.104701  0.572283 0.134739 1 1 1.000000
0  -6.661708 104.054703 26.633045  -0.001361 0.994580 -0.103961  0.535173 0.134739 1 1 1.000000
0  -6.661708 104.054703 25.779686  -0.001723 0.999994 -0.002843  0.535173 0.131809 1 1 1.000000
skin_0
0  -13.639980 104.674065 29.619802  -0.001832 0.936602 -0.350391  0.572283 0.145482 1 1 1.000000
0  -20.040169 104.632774 29.550983  -0.002201 0.936805 -0.349845  0.605487 0.145482 1 1 1.000000
0  -20.040169 105.238388 30.624565  -0.000795 0.873359 -0.487077  0.605487 0.149388 1 1 1.000000
skin_0
0  -20.040169 105.238388 30.624565  -0.000795 0.873359 -0.487077  0.605487 0.149388 1 1 1.000000
0  -13.639980 105.279678 30.679623  -0.000765 0.873636 -0.486580  0.572283 0.149388 1 1 1.000000
0  -13.639980 104.674065 29.619802  -0.001832 0.936602 -0.350391  0.572283 0.145482 1 1 1.000000
skin_0
0  -20.040169 104.013397 26.564230  -0.004338 0.994551 -0.104160  0.605487 0.134739 1 1 1.000000
0  -13.639980 104.054703 26.619284  -0.003358 0.994498 -0.104701  0.572283 0.134739 1 1 1.000000
0  -13.639980 104.040924 25.752161  -0.003937 0.999988 -0.002880  0.572283 0.131809 1 1 1.000000
skin_0
0  -13.639980 104.040924 25.752161  -0.003937 0.999988 -0.002880  0.572283 0.131809 1 1 1.000000
0  -20.040169 104.013397 25.697107  -0.005099 0.999983 -0.002798  0.605487 0.131809 1 1 1.000000
0  -20.040169 104.013397 26.564230  -0.004338 0.994551 -0.104160  0.605487 0.134739 1 1 1.000000
skin_0
0  -27.004677 105.197098 30.583275  -0.000858 0.873552 -0.486731  0.642598 0.149388 1 1 1.000000
0  -20.040169 105.238388 30.624565  -0.000795 0.873359 -0.487077  0.605487 0.149388 1 1 1.000000
0  -20.040169 104.632774 29.550983  -0.002201 0.936805 -0.349845  0.605487 0.145482 1 1 1.000000
skin_0
0  -20.040169 104.632774 29.550983  -0.002201 0.936805 -0.349845  0.605487 0.145482 1 1 1.000000
0  -27.004677 104.605247 29.509693  -0.002055 0.936846 -0.349736  0.642598 0.145482 1 1 1.000000
0  -27.004677 105.197098 30.583275  -0.000858 0.873552 -0.486731  0.642598 0.149388 1 1 1.000000
skin_0
0  -29.661097 103.958344 25.628288  -0.004852 0.999984 -0.003022  0.656270 0.131809 1 1 1.000000
0  -32.358818 103.958344 25.614525  -0.008362 0.999931 -0.008243  0.670919 0.131809 1 1 1.000000
0  -32.152359 103.958344 26.481647  -0.005727 0.994681 -0.102849  0.669942 0.134739 1 1 1.000000
skin_0
0  -32.152359 103.958344 26.481647  -0.005727 0.994681 -0.102849  0.669942 0.134739 1 1 1.000000
0  -29.661097 103.972107 26.495411  -0.004151 0.994543 -0.104243  0.656270 0.134739 1 1 1.000000
0  -29.661097 103.958344 25.628288  -0.004852 0.999984 -0.003022  0.656270 0.131809 1 1 1.000000
skin_0
0  -30.968664 104.591484 29.482166  -0.000066 0.936129 -0.351656  0.664083 0.145482 1 1 1.000000
0  -32.111065 104.563957 29.413347  0.135896 0.919468 -0.368931  0.669942 0.144505 1 1 1.000000
0  -32.000954 105.155807 30.486925  0.078131 0.867049 -0.492059  0.668966 0.148412 1 1 1.000000
skin_0
0  -32.000954 105.155807 30.486925  0.078131 0.867049 -0.492059  0.668966 0.148412 1 1 1.000000
0  -30.308001 105.183334 30.555748  0.001441 0.873104 -0.487532  0.660176 0.148412 1 1 1.000000
0  -30.968664 104.591484 29.482166  -0.000066 0.936129 -0.351656  0.664083 0.145482 1 1 1.000000
skin_0
0  -33.638855 103.944580 26.522938  0.153562 0.971028 -0.183096  0.677755 0.134739 1 1 1.000000
0  -32.152359 103.958344 26.481647  -0.005727 0.994681 -0.102849  0.669942 0.134739 1 1 1.000000
0  -32.358818 103.958344 25.614525  -0.008362 0.999931 -0.008243  0.670919 0.131809 1 1 1.000000
skin_0
0  -32.358818 103.958344 25.614525  -0.008362 0.999931 -0.008243  0.670919 0.131809 1 1 1.000000
0  -34.038002 103.917053 25.504412  0.104182 0.977383 -0.184032  0.679708 0.130833 1 1 1.000000
0  -33.638855 103.944580 26.522938  0.153562 0.971028 -0.183096  0.677755 0.134739 1 1 1.000000
skin_0
0  -32.468922 105.100746 30.184120  0.258502 0.845407 -0.467401  0.671896 0.147435 1 1 1.000000
0  -32.000954 105.155807 30.486925  0.078131 0.867049 -0.492059  0.668966 0.148412 1 1 1.000000
0  -32.111065 104.563957 29.413347  0.135896 0.919468 -0.368931  0.669942 0.144505 1 1 1.000000
skin_0
0  -32.111065 104.563957 29.413347  0.135896 0.919468 -0.368931  0.669942 0.144505 1 1 1.000000
0  -33.721436 104.770424 28.532459  0.306113 0.880273 -0.362511  0.677755 0.141575 1 1 1.000000
0  -32.468922 105.100746 30.184120  0.258502 0.845407 -0.467401  0.671896 0.147435 1 1 1.000000
skin_0
0  -34.038002 103.917053 25.504412  0.104182 0.977383 -0.184032  0.679708 0.130833 1 1 1.000000
0  -35.221695 103.875763 25.229136  0.050609 0.944190 -0.325490  0.686544 0.129856 1 1 1.000000
0  -34.739964 104.385025 26.756924  0.233818 0.925781 -0.297084  0.683615 0.135716 1 1 1.000000
skin_0
0  -34.739964 104.385025 26.756924  0.233818 0.925781 -0.297084  0.683615 0.135716 1 1 1.000000
0  -33.638855 103.944580 26.522938  0.153562 0.971028 -0.183096  0.677755 0.134739 1 1 1.000000
0  -34.038002 103.917053 25.504412  0.104182 0.977383 -0.184032  0.679708 0.130833 1 1 1.000000
skin_0
0  -32.303753 101.618492 27.858030  -0.043109 -0.161064 0.986002  0.670919 0.140599 1 1 1.000000
0  -29.661097 101.632263 27.899324  -0.011260 -0.156390 0.987631  0.656270 0.140599 1 1 1.000000
0  -29.661097 103.091217 28.298473  -0.004312 -0.574683 0.818364  0.656270 0.134739 1 1 1.000000
skin_0
0  -29.661097 103.091217 28.298473  -0.004312 -0.574683 0.818364  0.656270 0.134739 1 1 1.000000
0  -32.097301 103.077454 28.284710  -0.027508 -0.575256 0.817511  0.669942 0.134739 1 1 1.000000
0  -32.303753 101.618492 27.858030  -0.043109 -0.161064 0.986002  0.670919 0.140599 1 1 1.000000
skin_0
0  -32.097301 103.077454 28.284710  -0.027508 -0.575256 0.817511  0.669942 0.134739 1 1 1.000000
0  -29.661097 103.091217 28.298473  -0.004312 -0.574683 0.818364  0.656270 0.134739 1 1 1.000000
0  -29.647333 104.976875 30.941133  -0.007673 0.060834 0.998118  0.656270 0.128880 1 1 1.000000
skin_0
0  -29.647333 104.976875 30.941133  -0.007673 0.060834 0.998118  0.656270 0.128880 1 1 1.000000
0  -30.280474 104.976875 30.941133  -0.023165 0.061459 0.997841  0.660176 0.128880 1 1 1.000000
0  -32.097301 103.077454 28.284710  -0.027508 -0.575256 0.817511  0.669942 0.134739 1 1 1.000000
skin_0
0  -27.004677 101.659790 27.926851  -0.010261 -0.151862 0.988348  0.642598 0.140599 1 1 1.000000
0  -29.661097 101.632263 27.899324  -0.011260 -0.156390 0.987631  0.656270 0.140599 1 1 1.000000
0  -29.523460 98.521622 27.775450  -0.015352 -0.038526 0.999140  0.656270 0.151341 1 1 1.000000
skin_0
0  -29.523460 98.521622 27.775450  -0.015352 -0.038526 0.999140  0.656270 0.151341 1 1 1.000000
0  -26.894567 98.549156 27.816740  -0.013727 -0.035241 0.999285  0.641621 0.151341 1 1 1.000000
0  -27.004677 101.659790 27.926851  -0.010261 -0.151862 0.988348  0.642598 0.140599 1 1 1.000000
skin_0
0  -30.280474 104.976875 30.941133  -0.023165 0.061459 0.997841  0.660176 0.128880 1 1 1.000000
0  -29.647333 104.976875 30.941133  -0.007673 0.060834 0.998118  0.656270 0.128880 1 1 1.000000
0  -29.647333 105.183334 30.555748  -0.008963 0.877304 0.479852  0.656270 0.127903 1 1 1.000000
skin_0
0  -29.647333 105.183334 30.555748  -0.008963 0.877304 0.479852  0.656270 0.127903 1 1 1.000000
0  -30.308001 105.183334 30.555748  -0.022707 0.875643 0.482425  0.660176 0.127903 1 1 1.000000
0  -30.280474 104.976875 30.941133  -0.023165 0.061459 0.997841  0.660176 0.128880 1 1 1.000000
skin_0
0  -30.968664 104.591484 29.482166  -0.000066 0.936129 -0.351656  0.664083 0.145482 1 1 1.000000
0  -29.647333 104.591484 29.482166  -0.002225 0.936949 -0.349459  0.656270 0.145482 1 1 1.000000
0  -29.661097 103.972107 26.495411  -0.004151 0.994543 -0.104243  0.656270 0.134739 1 1 1.000000
skin_0
0  -29.661097 103.972107 26.495411  -0.004151 0.994543 -0.104243  0.656270 0.134739 1 1 1.000000
0  -32.152359 103.958344 26.481647  -0.005727 0.994681 -0.102849  0.669942 0.134739 1 1 1.000000
0  -30.968664 104.591484 29.482166  -0.000066 0.936129 -0.351656  0.664083 0.145482 1 1 1.000000
skin_0
0  -30.308001 105.183334 30.555748  0.001441 0.873104 -0.487532  0.660176 0.148412 1 1 1.000000
0  -29.647333 105.183334 30.555748  -0.000879 0.873719 -0.486430  0.656270 0.148412 1 1 1.000000
0  -29.647333 104.591484 29.482166  -0.002225 0.936949 -0.349459  0.656270 0.145482 1 1 1.000000
skin_0
0  -29.647333 104.591484 29.482166  -0.002225 0.936949 -0.349459  0.656270 0.145482 1 1 1.000000
0  -30.968664 104.591484 29.482166  -0.000066 0.936129 -0.351656  0.664083 0.145482 1 1 1.000000
0  -30.308001 105.183334 30.555748  0.001441 0.873104 -0.487532  0.660176 0.148412 1 1 1.000000
skin_0
0  -27.004677 103.972107 25.655815  -0.004521 0.999985 -0.003007  0.642598 0.131809 1 1 1.000000
0  -29.661097 103.958344 25.628288  -0.004852 0.999984 -0.003022  0.656270 0.131809 1 1 1.000000
0  -29.661097 103.972107 26.495411  -0.004151 0.994543 -0.104243  0.656270 0.134739 1 1 1.000000
skin_0
0  -29.661097 103.972107 26.495411  -0.004151 0.994543 -0.104243  0.656270 0.134739 1 1 1.000000
0  -27.004677 103.985870 26.522938  -0.003848 0.994532 -0.104364  0.642598 0.134739 1 1 1.000000
0  -27.004677 103.972107 25.655815  -0.004521 0.999985 -0.003007  0.642598 0.131809 1 1 1.000000
skin_0
0  -29.661097 101.632263 27.899324  -0.011260 -0.156390 0.987631  0.656270 0.140599 1 1 1.000000
0  -27.004677 101.659790 27.926851  -0.010261 -0.151862 0.988348  0.642598 0.140599 1 1 1.000000
0  -27.004677 103.104980 28.326000  -0.004329 -0.571911 0.820304  0.642598 0.134739 1 1 1.000000
skin_0
0  -27.004677 103.104980 28.326000  -0.004329 -0.571911 0.820304  0.642598 0.134739 1 1 1.000000
0  -29.661097 103.091217 28.298473  -0.004312 -0.574683 0.818364  0.656270 0.134739 1 1 1.000000
0  -29.661097 101.632263 27.899324  -0.011260 -0.156390 0.987631  0.656270 0.140599 1 1 1.000000
skin_0
0  -29.661097 103.091217 28.298473  -0.004312 -0.574683 0.818364  0.656270 0.134739 1 1 1.000000
0  -27.004677 103.104980 28.326000  -0.004329 -0.571911 0.820304  0.642598 0.134739 1 1 1.000000
0  -27.004677 104.990639 30.954897  -0.007264 0.064717 0.997877  0.642598 0.127903 1 1 1.000000
skin_0
0  -27.004677 104.990639 30.954897  -0.007264 0.064717 0.997877  0.642598 0.127903 1 1 1.000000
0  -29.647333 104.976875 30.941133  -0.007673 0.060834 0.998118  0.656270 0.128880 1 1 1.000000
0  -29.661097 103.091217 28.298473  -0.004312 -0.574683 0.818364  0.656270 0.134739 1 1 1.000000
skin_0
0  -29.647333 104.976875 30.941133  -0.007673 0.060834 0.998118  0.656270 0.128880 1 1 1.000000
0  -27.004677 104.990639 30.954897  -0.007264 0.064717 0.997877  0.642598 0.127903 1 1 1.000000
0  -27.004677 105.197098 30.583275  -0.008361 0.880150 0.474621  0.642598 0.127903 1 1 1.000000
skin_0
0  -27.004677 105.197098 30.583275  -0.008361 0.880150 0.474621  0.642598 0.127903 1 1 1.000000
0  -29.647333 105.183334 30.555748  -0.008963 0.877304 0.479852  0.656270 0.127903 1 1 1.000000
0  -29.647333 104.976875 30.941133  -0.007673 0.060834 0.998118  0.656270 0.128880 1 1 1.000000
skin_0
0  -29.647333 104.591484 29.482166  -0.002225 0.936949 -0.349459  0.656270 0.145482 1 1 1.000000
0  -27.004677 104.605247 29.509693  -0.002055 0.936846 -0.349736  0.642598 0.145482 1 1 1.000000
0  -27.004677 103.985870 26.522938  -0.003848 0.994532 -0.104364  0.642598 0.134739 1 1 1.000000
skin_0
0  -27.004677 103.985870 26.522938  -0.003848 0.994532 -0.104364  0.642598 0.134739 1 1 1.000000
0  -29.661097 103.972107 26.495411  -0.004151 0.994543 -0.104243  0.656270 0.134739 1 1 1.000000
0  -29.647333 104.591484 29.482166  -0.002225 0.936949 -0.349459  0.656270 0.145482 1 1 1.000000
skin_0
0  -29.647333 105.183334 30.555748  -0.000879 0.873719 -0.486430  0.656270 0.148412 1 1 1.000000
0  -27.004677 105.197098 30.583275  -0.000858 0.873552 -0.486731  0.642598 0.149388 1 1 1.000000
0  -27.004677 104.605247 29.509693  -0.002055 0.936846 -0.349736  0.642598 0.145482 1 1 1.000000
skin_0
0  -27.004677 104.605247 29.509693  -0.002055 0.936846 -0.349736  0.642598 0.145482 1 1 1.000000
0  -29.647333 104.591484 29.482166  -0.002225 0.936949 -0.349459  0.656270 0.145482 1 1 1.000000
0  -29.647333 105.183334 30.555748  -0.000879 0.873719 -0.486430  0.656270 0.148412 1 1 1.000000
skin_0
0  -20.040169 101.701080 28.009434  -0.012416 -0.140431 0.990013  0.605487 0.139622 1 1 1.000000
0  -27.004677 101.659790 27.926851  -0.010261 -0.151862 0.988348  0.642598 0.140599 1 1 1.000000
0  -26.894567 98.549156 27.816740  -0.013727 -0.035241 0.999285  0.641621 0.151341 1 1 1.000000
skin_0
0  -26.894567 98.549156 27.816740  -0.013727 -0.035241 0.999285  0.641621 0.151341 1 1 1.000000
0  -19.998877 98.604210 27.913088  -0.015505 -0.028215 0.999482  0.605487 0.151341 1 1 1.000000
0  -20.040169 101.701080 28.009434  -0.012416 -0.140431 0.990013  0.605487 0.139622 1 1 1.000000
skin_0
0  -20.040169 104.013397 25.697107  -0.005099 0.999983 -0.002798  0.605487 0.131809 1 1 1.000000
0  -27.004677 103.972107 25.655815  -0.004521 0.999985 -0.003007  0.642598 0.131809 1 1 1.000000
0  -27.004677 103.985870 26.522938  -0.003848 0.994532 -0.104364  0.642598 0.134739 1 1 1.000000
skin_0
0  -27.004677 103.985870 26.522938  -0.003848 0.994532 -0.104364  0.642598 0.134739 1 1 1.000000
0  -20.040169 104.013397 26.564230  -0.004338 0.994551 -0.104160  0.605487 0.134739 1 1 1.000000
0  -20.040169 104.013397 25.697107  -0.005099 0.999983 -0.002798  0.605487 0.131809 1 1 1.000000
skin_0
0  -13.639980 101.769897 28.119543  -0.009429 -0.132338 0.991160  0.572283 0.139622 1 1 1.000000
0  -6.675472 101.797424 28.147068  -0.004212 -0.128778 0.991664  0.535173 0.139622 1 1 1.000000
0  -6.661708 103.201340 28.477404  -0.001982 -0.553281 0.832992  0.535173 0.134739 1 1 1.000000
skin_0
0  -6.661708 103.201340 28.477404  -0.001982 -0.553281 0.832992  0.535173 0.134739 1 1 1.000000
0  -13.639980 103.187576 28.449875  -0.004740 -0.554800 0.831970  0.572283 0.134739 1 1 1.000000
0  -13.639980 101.769897 28.119543  -0.009429 -0.132338 0.991160  0.572283 0.139622 1 1 1.000000
skin_0
0  -13.639980 103.187576 28.449875  -0.004740 -0.554800 0.831970  0.572283 0.134739 1 1 1.000000
0  -6.661708 103.201340 28.477404  -0.001982 -0.553281 0.832992  0.535173 0.134739 1 1 1.000000
0  -6.661708 105.100746 31.065004  -0.002320 0.090904 0.995857  0.535173 0.127903 1 1 1.000000
skin_0
0  -6.661708 105.100746 31.065004  -0.002320 0.090904 0.995857  0.535173 0.127903 1 1 1.000000
0  -13.639980 105.086983 31.051243  -0.006164 0.087204 0.996171  0.572283 0.127903 1 1 1.000000
0  -13.639980 103.187576 28.449875  -0.004740 -0.554800 0.831970  0.572283 0.134739 1 1 1.000000
skin_0
0  -0.013769 101.811188 28.160835  0.000073 -0.128857 0.991663  0.500015 0.139622 1 1 1.000000
0  -6.675472 101.797424 28.147068  -0.004212 -0.128778 0.991664  0.535173 0.139622 1 1 1.000000
0  -6.758055 98.700554 28.078251  -0.005648 -0.020900 0.999766  0.535173 0.150365 1 1 1.000000
skin_0
0  -6.758055 98.700554 28.078251  -0.005648 -0.020900 0.999766  0.535173 0.150365 1 1 1.000000
0  -0.013769 98.714317 28.105778  -0.000497 -0.018796 0.999823  0.500015 0.150365 1 1 1.000000
0  -0.013769 101.811188 28.160835  0.000073 -0.128857 0.991663  0.500015 0.139622 1 1 1.000000
skin_0
0  -13.639980 105.086983 31.051243  -0.006164 0.087204 0.996171  0.572283 0.127903 1 1 1.000000
0  -6.661708 105.100746 31.065004  -0.002320 0.090904 0.995857  0.535173 0.127903 1 1 1.000000
0  -6.661708 105.279678 30.707148  -0.002165 0.899505 0.436905  0.535173 0.126926 1 1 1.000000
skin_0
0  -6.661708 105.279678 30.707148  -0.002165 0.899505 0.436905  0.535173 0.126926 1 1 1.000000
0  -13.639980 105.279678 30.679623  -0.006470 0.895669 0.444675  0.572283 0.126926 1 1 1.000000
0  -13.639980 105.086983 31.051243  -0.006164 0.087204 0.996171  0.572283 0.127903 1 1 1.000000
skin_0
0  -13.639980 104.674065 29.619802  -0.001832 0.936602 -0.350391  0.572283 0.145482 1 1 1.000000
0  -6.661708 104.687828 29.619801  -0.000821 0.938392 -0.345573  0.535173 0.145482 1 1 1.000000
0  -6.661708 104.054703 26.633045  -0.001361 0.994580 -0.103961  0.535173 0.134739 1 1 1.000000
skin_0
0  -6.661708 104.054703 26.633045  -0.001361 0.994580 -0.103961  0.535173 0.134739 1 1 1.000000
0  -13.639980 104.054703 26.619284  -0.003358 0.994498 -0.104701  0.572283 0.134739 1 1 1.000000
0  -13.639980 104.674065 29.619802  -0.001832 0.936602 -0.350391  0.572283 0.145482 1 1 1.000000
skin_0
0  -13.639980 105.279678 30.679623  -0.000765 0.873636 -0.486580  0.572283 0.149388 1 1 1.000000
0  -6.661708 105.279678 30.707148  0.000631 0.878592 -0.477573  0.535173 0.149388 1 1 1.000000
0  -6.661708 104.687828 29.619801  -0.000821 0.938392 -0.345573  0.535173 0.145482 1 1 1.000000
skin_0
0  -6.661708 104.687828 29.619801  -0.000821 0.938392 -0.345573  0.535173 0.145482 1 1 1.000000
0  -13.639980 104.674065 29.619802  -0.001832 0.936602 -0.350391  0.572283 0.145482 1 1 1.000000
0  -13.639980 105.279678 30.679623  -0.000765 0.873636 -0.486580  0.572283 0.149388 1 1 1.000000
skin_0
0  -0.013770 104.068466 25.793453  -0.000029 0.999996 -0.002879  0.500015 0.131809 1 1 1.000000
0  -6.661708 104.054703 25.779686  -0.001723 0.999994 -0.002843  0.535173 0.131809 1 1 1.000000
0  -6.661708 104.054703 26.633045  -0.001361 0.994580 -0.103961  0.535173 0.134739 1 1 1.000000
skin_0
0  -6.661708 104.054703 26.633045  -0.001361 0.994580 -0.103961  0.535173 0.134739 1 1 1.000000
0  -0.013770 104.068466 26.633045  0.000078 0.994591 -0.103865  0.500015 0.134739 1 1 1.000000
0  -0.013770 104.068466 25.793453  -0.000029 0.999996 -0.002879  0.500015 0.131809 1 1 1.000000
end
