version 1
nodes
0 "blender_implicit" -1
1 "root" -1
2 "steering_wheel" 1
end
skeleton
time 0
0  0.000000 0.000000 0.000000  0.000000 -0.000000 0.000000
1  0.000000 0.000000 0.000000  1.570796 -0.000000 0.000000
2  15.979831 32.936882 16.915779  0.000000 -0.000000 0.000000
end
triangles
brakelightglass
0  30.707144 92.052612 33.019470  0.695165 0.399337 0.597725  0.333995 0.901364 1 1 1.000000
0  31.698139 91.378189 32.317516  0.734421 0.293333 0.612031  0.308603 0.841792 1 1 1.000000
0  31.656849 91.612175 32.221165  0.718539 0.463683 0.518363  0.316416 0.833979 1 1 1.000000
brakelightglass
0  31.656849 91.612175 32.221165  0.718539 0.463683 0.518363  0.316416 0.833979 1 1 1.000000
0  30.707144 92.259079 32.854301  0.699942 0.512982 0.496921  0.340831 0.891598 1 1 1.000000
0  30.707144 92.052612 33.019470  0.695165 0.399337 0.597725  0.333995 0.901364 1 1 1.000000
brakelightglass
0  29.647324 93.139961 33.391094  0.610320 0.634676 0.474021  0.391614 0.948241 1 1 1.000000
0  30.707144 92.259079 32.854301  0.699942 0.512982 0.496921  0.340831 0.891598 1 1 1.000000
0  31.312750 92.782097 31.230171  0.688561 0.627860 0.362870  0.353526 0.765618 1 1 1.000000
brakelightglass
0  31.312750 92.782097 31.230171  0.688561 0.627860 0.362870  0.353526 0.765618 1 1 1.000000
0  29.757437 94.158493 31.312752  0.567057 0.759919 0.317757  0.414075 0.762688 1 1 1.000000
0  29.647324 93.139961 33.391094  0.610320 0.634676 0.474021  0.391614 0.948241 1 1 1.000000
brakelightglass
0  25.408062 95.700043 33.294746  0.117585 0.833593 0.539719  0.556658 0.963866 1 1 1.000000
0  27.692858 94.640228 33.418621  0.418220 0.761148 0.495727  0.493179 0.961913 1 1 1.000000
0  27.775442 95.314659 31.367809  0.412119 0.876696 0.248119  0.498062 0.764641 1 1 1.000000
brakelightglass
0  27.775442 95.314659 31.367809  0.412119 0.876696 0.248119  0.498062 0.764641 1 1 1.000000
0  24.651047 96.429527 31.312752  -0.001505 0.952766 0.303702  0.596698 0.764641 1 1 1.000000
0  25.408062 95.700043 33.294746  0.117585 0.833593 0.539719  0.556658 0.963866 1 1 1.000000
brakelightglass
0  30.707144 92.259079 32.854301  0.699942 0.512982 0.496921  0.340831 0.891598 1 1 1.000000
0  31.656849 91.612175 32.221165  0.718539 0.463683 0.518363  0.316416 0.833979 1 1 1.000000
0  31.312750 92.782097 31.230171  0.688561 0.627860 0.362870  0.353526 0.765618 1 1 1.000000
brakelightglass
0  31.656849 91.612175 32.221165  0.718539 0.463683 0.518363  0.316416 0.833979 1 1 1.000000
0  32.537735 91.213028 31.243935  0.797686 0.450332 0.401121  0.304697 0.766594 1 1 1.000000
0  31.312750 92.782097 31.230171  0.688561 0.627860 0.362870  0.353526 0.765618 1 1 1.000000
brakelightglass
0  30.707144 92.259079 32.854301  0.699942 0.512982 0.496921  0.340831 0.891598 1 1 1.000000
0  29.647324 93.139961 33.391094  0.610320 0.634676 0.474021  0.391614 0.948241 1 1 1.000000
0  30.060240 92.685753 33.363567  0.587974 0.408134 0.698365  0.373058 0.944334 1 1 1.000000
brakelightglass
0  30.060240 92.685753 33.363567  0.587974 0.408134 0.698365  0.373058 0.944334 1 1 1.000000
0  30.707144 92.052612 33.019470  0.695165 0.399337 0.597725  0.333995 0.901364 1 1 1.000000
0  30.707144 92.259079 32.854301  0.699942 0.512982 0.496921  0.340831 0.891598 1 1 1.000000
brakelightglass
0  27.692858 94.640228 33.418621  0.418220 0.761148 0.495727  0.493179 0.961913 1 1 1.000000
0  29.647324 93.139961 33.391094  0.610320 0.634676 0.474021  0.391614 0.948241 1 1 1.000000
0  29.757437 94.158493 31.312752  0.567057 0.759919 0.317757  0.414075 0.762688 1 1 1.000000
brakelightglass
0  29.757437 94.158493 31.312752  0.567057 0.759919 0.317757  0.414075 0.762688 1 1 1.000000
0  27.775442 95.314659 31.367809  0.412119 0.876696 0.248119  0.498062 0.764641 1 1 1.000000
0  27.692858 94.640228 33.418621  0.418220 0.761148 0.495727  0.493179 0.961913 1 1 1.000000
brakelightglass
0  31.698139 91.378189 32.317516  0.734421 0.293333 0.612031  0.308603 0.841792 1 1 1.000000
0  32.579025 91.006561 31.326519  0.811599 0.277080 0.514329  0.296884 0.774407 1 1 1.000000
0  32.537735 91.213028 31.243935  0.797686 0.450332 0.401121  0.304697 0.766594 1 1 1.000000
brakelightglass
0  32.537735 91.213028 31.243935  0.797686 0.450332 0.401121  0.304697 0.766594 1 1 1.000000
0  31.656849 91.612175 32.221165  0.718539 0.463683 0.518363  0.316416 0.833979 1 1 1.000000
0  31.698139 91.378189 32.317516  0.734421 0.293333 0.612031  0.308603 0.841792 1 1 1.000000
brakelightglass
0  -30.734674 92.052605 33.019474  -0.695162 0.399284 0.597765  0.333995 0.901364 1 1 1.000000
0  -30.734674 92.259064 32.854305  -0.699653 0.513434 0.496861  0.340831 0.891598 1 1 1.000000
0  -31.684381 91.612167 32.221172  -0.718579 0.463688 0.518304  0.316416 0.833979 1 1 1.000000
brakelightglass
0  -31.684381 91.612167 32.221172  -0.718579 0.463688 0.518304  0.316416 0.833979 1 1 1.000000
0  -31.725672 91.378174 32.317520  -0.734434 0.293243 0.612058  0.308603 0.841792 1 1 1.000000
0  -30.734674 92.052605 33.019474  -0.695162 0.399284 0.597765  0.333995 0.901364 1 1 1.000000
brakelightglass
0  -29.674862 93.139946 33.391098  -0.610346 0.634653 0.474019  0.391614 0.948241 1 1 1.000000
0  -29.784971 94.158485 31.312754  -0.567012 0.759962 0.317734  0.414075 0.762688 1 1 1.000000
0  -31.340284 92.782089 31.230173  -0.688574 0.627847 0.362868  0.353526 0.765618 1 1 1.000000
brakelightglass
0  -31.340284 92.782089 31.230173  -0.688574 0.627847 0.362868  0.353526 0.765618 1 1 1.000000
0  -30.734674 92.259064 32.854305  -0.699653 0.513434 0.496861  0.340831 0.891598 1 1 1.000000
0  -29.674862 93.139946 33.391098  -0.610346 0.634653 0.474019  0.391614 0.948241 1 1 1.000000
brakelightglass
0  -25.435595 95.700035 33.294750  -0.117647 0.833595 0.539702  0.556658 0.963866 1 1 1.000000
0  -24.678583 96.429512 31.312754  0.001468 0.952782 0.303651  0.596698 0.764641 1 1 1.000000
0  -27.802979 95.314644 31.367809  -0.412167 0.876681 0.248092  0.498062 0.764641 1 1 1.000000
brakelightglass
0  -27.802979 95.314644 31.367809  -0.412167 0.876681 0.248092  0.498062 0.764641 1 1 1.000000
0  -27.720392 94.640213 33.418629  -0.418297 0.761162 0.495642  0.493179 0.961913 1 1 1.000000
0  -25.435595 95.700035 33.294750  -0.117647 0.833595 0.539702  0.556658 0.963866 1 1 1.000000
brakelightglass
0  -30.734674 92.259064 32.854305  -0.699653 0.513434 0.496861  0.340831 0.891598 1 1 1.000000
0  -31.340284 92.782089 31.230173  -0.688574 0.627847 0.362868  0.353526 0.765618 1 1 1.000000
0  -31.684381 91.612167 32.221172  -0.718579 0.463688 0.518304  0.316416 0.833979 1 1 1.000000
brakelightglass
0  -31.684381 91.612167 32.221172  -0.718579 0.463688 0.518304  0.316416 0.833979 1 1 1.000000
0  -31.340284 92.782089 31.230173  -0.688574 0.627847 0.362868  0.353526 0.765618 1 1 1.000000
0  -32.565266 91.213013 31.243937  -0.797699 0.450348 0.401077  0.304697 0.766594 1 1 1.000000
brakelightglass
0  -30.734674 92.259064 32.854305  -0.699653 0.513434 0.496861  0.340831 0.891598 1 1 1.000000
0  -30.734674 92.052605 33.019474  -0.695162 0.399284 0.597765  0.333995 0.901364 1 1 1.000000
0  -30.087772 92.685745 33.363571  -0.587976 0.408123 0.698369  0.373058 0.944334 1 1 1.000000
brakelightglass
0  -30.087772 92.685745 33.363571  -0.587976 0.408123 0.698369  0.373058 0.944334 1 1 1.000000
0  -29.674862 93.139946 33.391098  -0.610346 0.634653 0.474019  0.391614 0.948241 1 1 1.000000
0  -30.734674 92.259064 32.854305  -0.699653 0.513434 0.496861  0.340831 0.891598 1 1 1.000000
brakelightglass
0  -27.720392 94.640213 33.418629  -0.418297 0.761162 0.495642  0.493179 0.961913 1 1 1.000000
0  -27.802979 95.314644 31.367809  -0.412167 0.876681 0.248092  0.498062 0.764641 1 1 1.000000
0  -29.784971 94.158485 31.312754  -0.567012 0.759962 0.317734  0.414075 0.762688 1 1 1.000000
brakelightglass
0  -29.784971 94.158485 31.312754  -0.567012 0.759962 0.317734  0.414075 0.762688 1 1 1.000000
0  -29.674862 93.139946 33.391098  -0.610346 0.634653 0.474019  0.391614 0.948241 1 1 1.000000
0  -27.720392 94.640213 33.418629  -0.418297 0.761162 0.495642  0.493179 0.961913 1 1 1.000000
brakelightglass
0  -31.725672 91.378174 32.317520  -0.734434 0.293243 0.612058  0.308603 0.841792 1 1 1.000000
0  -31.684381 91.612167 32.221172  -0.718579 0.463688 0.518304  0.316416 0.833979 1 1 1.000000
0  -32.565266 91.213013 31.243937  -0.797699 0.450348 0.401077  0.304697 0.766594 1 1 1.000000
brakelightglass
0  -32.565266 91.213013 31.243937  -0.797699 0.450348 0.401077  0.304697 0.766594 1 1 1.000000
0  -32.606556 91.006554 31.326519  -0.811620 0.277045 0.514313  0.296884 0.774407 1 1 1.000000
0  -31.725672 91.378174 32.317520  -0.734434 0.293243 0.612058  0.308603 0.841792 1 1 1.000000
brakelight
0  -6.441481 55.000336 50.182991  -0.029445 0.324467 0.945439  0.211921 0.000946 1 1 1.000000
0  -7.625172 52.454029 50.967529  -0.035972 0.308115 0.950669  0.166997 0.191382 1 1 1.000000
0  -0.013764 52.729301 51.160229  0.000000 0.374464 0.927242  0.959014 0.191382 1 1 1.000000
brakelight
0  6.413953 55.000336 50.182991  0.029409 0.324441 0.945449  0.211921 0.000946 1 1 1.000000
0  -0.013764 55.000336 50.182991  -0.000014 0.395704 0.918378  0.971709 0.000946 1 1 1.000000
0  -0.013764 52.729301 51.160229  0.000000 0.374464 0.927242  0.959014 0.191382 1 1 1.000000
brakelight
0  -0.013764 52.729301 51.160229  0.000000 0.374464 0.927242  0.959014 0.191382 1 1 1.000000
0  7.597644 52.454029 50.967529  0.035936 0.308093 0.950677  0.166997 0.191382 1 1 1.000000
0  6.413953 55.000336 50.182991  0.029409 0.324441 0.945449  0.211921 0.000946 1 1 1.000000
brakelight
0  -0.013764 52.729301 51.160229  0.000000 0.374464 0.927242  0.959014 0.191382 1 1 1.000000
0  -0.013764 55.000336 50.182991  -0.000014 0.395704 0.918378  0.971709 0.000946 1 1 1.000000
0  -6.441481 55.000336 50.182991  -0.029445 0.324467 0.945439  0.211921 0.000946 1 1 1.000000
end
