version 1
nodes
0 "blender_implicit" -1
1 "root" -1
2 "steering_wheel" 1
end
skeleton
time 0
0  0.000000 0.000000 0.000000  0.000000 -0.000000 0.000000
1  0.000000 0.000000 0.000000  1.570796 -0.000000 0.000000
2  15.979831 32.936882 16.915779  0.000000 -0.000000 0.000000
end
triangles
headlight
0  21.141279 -91.364426 21.086214  -0.411567 -0.911379 0.000001  0.041993 0.240211 1 1 1.000000
0  21.402792 -91.364426 22.077211  -0.356406 -0.911389 0.205781  0.068361 0.340800 1 1 1.000000
0  21.127516 -91.226791 22.228613  -0.704933 -0.580894 0.406977  0.040040 0.357402 1 1 1.000000
headlight
0  21.127516 -91.226791 22.228613  -0.704933 -0.580894 0.406977  0.040040 0.357402 1 1 1.000000
0  20.810946 -91.226791 21.086214  -0.813980 -0.580892 0.000028  0.007813 0.240211 1 1 1.000000
0  21.141279 -91.364426 21.086214  -0.411567 -0.911379 0.000001  0.041993 0.240211 1 1 1.000000
headlight
0  21.402792 -91.364426 22.077211  -0.356406 -0.911389 0.205781  0.068361 0.340800 1 1 1.000000
0  22.118513 -91.364426 22.792933  -0.205782 -0.911379 0.356429  0.142582 0.415021 1 1 1.000000
0  21.953348 -91.226791 23.068209  -0.297176 -0.850875 0.433241  0.125980 0.443342 1 1 1.000000
headlight
0  21.953348 -91.226791 23.068209  -0.297176 -0.850875 0.433241  0.125980 0.443342 1 1 1.000000
0  21.127516 -91.226791 22.228613  -0.704933 -0.580894 0.406977  0.040040 0.357402 1 1 1.000000
0  21.402792 -91.364426 22.077211  -0.356406 -0.911389 0.205781  0.068361 0.340800 1 1 1.000000
headlight
0  22.118513 -91.364426 22.792933  -0.205782 -0.911379 0.356429  0.142582 0.415021 1 1 1.000000
0  23.095747 -91.364426 23.054445  0.000000 -0.911388 0.411549  0.243171 0.441389 1 1 1.000000
0  23.095747 -91.226791 23.384779  0.075620 -0.785773 0.613875  0.243171 0.474593 1 1 1.000000
headlight
0  23.095747 -91.226791 23.384779  0.075620 -0.785773 0.613875  0.243171 0.474593 1 1 1.000000
0  21.953348 -91.226791 23.068209  -0.297176 -0.850875 0.433241  0.125980 0.443342 1 1 1.000000
0  22.118513 -91.364426 22.792933  -0.205782 -0.911379 0.356429  0.142582 0.415021 1 1 1.000000
headlight
0  23.095747 -91.364426 23.054445  0.000000 -0.911388 0.411549  0.243171 0.441389 1 1 1.000000
0  24.086746 -91.364426 22.792933  0.205776 -0.911386 0.356415  0.343760 0.415021 1 1 1.000000
0  24.238146 -91.226791 23.068209  0.406995 -0.580860 0.704951  0.361339 0.443342 1 1 1.000000
headlight
0  24.238146 -91.226791 23.068209  0.406995 -0.580860 0.704951  0.361339 0.443342 1 1 1.000000
0  23.095747 -91.226791 23.384779  0.075620 -0.785773 0.613875  0.243171 0.474593 1 1 1.000000
0  23.095747 -91.364426 23.054445  0.000000 -0.911388 0.411549  0.243171 0.441389 1 1 1.000000
headlight
0  24.086746 -91.364426 22.792933  0.205776 -0.911386 0.356415  0.343760 0.415021 1 1 1.000000
0  24.802464 -91.364426 22.077211  0.356423 -0.911385 0.205765  0.417982 0.340800 1 1 1.000000
0  25.077740 -91.226791 22.228613  0.704983 -0.580832 0.406982  0.447279 0.357402 1 1 1.000000
headlight
0  25.077740 -91.226791 22.228613  0.704983 -0.580832 0.406982  0.447279 0.357402 1 1 1.000000
0  24.238146 -91.226791 23.068209  0.406995 -0.580860 0.704951  0.361339 0.443342 1 1 1.000000
0  24.086746 -91.364426 22.792933  0.205776 -0.911386 0.356415  0.343760 0.415021 1 1 1.000000
headlight
0  24.802464 -91.364426 22.077211  0.356423 -0.911385 0.205765  0.417982 0.340800 1 1 1.000000
0  25.063974 -91.364426 21.086214  0.411579 -0.911374 -0.000005  0.445326 0.240211 1 1 1.000000
0  25.394308 -91.226791 21.086214  0.814047 -0.580798 -0.000043  0.478530 0.240211 1 1 1.000000
headlight
0  25.394308 -91.226791 21.086214  0.814047 -0.580798 -0.000043  0.478530 0.240211 1 1 1.000000
0  25.077740 -91.226791 22.228613  0.704983 -0.580832 0.406982  0.447279 0.357402 1 1 1.000000
0  24.802464 -91.364426 22.077211  0.356423 -0.911385 0.205765  0.417982 0.340800 1 1 1.000000
headlight
0  25.063974 -91.364426 21.086214  0.411579 -0.911374 -0.000005  0.445326 0.240211 1 1 1.000000
0  24.802464 -91.364426 20.108980  0.356432 -0.911377 -0.205784  0.417982 0.138646 1 1 1.000000
0  25.077740 -91.226791 19.943813  0.704964 -0.580849 -0.406990  0.447279 0.122043 1 1 1.000000
headlight
0  25.077740 -91.226791 19.943813  0.704964 -0.580849 -0.406990  0.447279 0.122043 1 1 1.000000
0  25.394308 -91.226791 21.086214  0.814047 -0.580798 -0.000043  0.478530 0.240211 1 1 1.000000
0  25.063974 -91.364426 21.086214  0.411579 -0.911374 -0.000005  0.445326 0.240211 1 1 1.000000
headlight
0  24.802464 -91.364426 20.108980  0.356432 -0.911377 -0.205784  0.417982 0.138646 1 1 1.000000
0  24.086744 -91.364426 19.393261  0.205782 -0.911381 -0.356424  0.343760 0.065401 1 1 1.000000
0  24.238144 -91.226791 19.117983  0.416780 -0.671807 -0.612348  0.361339 0.036103 1 1 1.000000
headlight
0  24.238144 -91.226791 19.117983  0.416780 -0.671807 -0.612348  0.361339 0.036103 1 1 1.000000
0  25.077740 -91.226791 19.943813  0.704964 -0.580849 -0.406990  0.447279 0.122043 1 1 1.000000
0  24.802464 -91.364426 20.108980  0.356432 -0.911377 -0.205784  0.417982 0.138646 1 1 1.000000
headlight
0  24.086744 -91.364426 19.393261  0.205782 -0.911381 -0.356424  0.343760 0.065401 1 1 1.000000
0  23.095745 -91.364426 19.131748  0.000001 -0.911368 -0.411592  0.243171 0.038057 1 1 1.000000
0  23.095745 -91.226791 18.801416  0.005719 -0.815847 -0.578240  0.243171 0.004852 1 1 1.000000
headlight
0  23.095745 -91.226791 18.801416  0.005719 -0.815847 -0.578240  0.243171 0.004852 1 1 1.000000
0  24.238144 -91.226791 19.117983  0.416780 -0.671807 -0.612348  0.361339 0.036103 1 1 1.000000
0  24.086744 -91.364426 19.393261  0.205782 -0.911381 -0.356424  0.343760 0.065401 1 1 1.000000
headlight
0  23.095745 -91.364426 19.131748  0.000001 -0.911368 -0.411592  0.243171 0.038057 1 1 1.000000
0  22.118511 -91.364426 19.393261  -0.205780 -0.911379 -0.356430  0.142582 0.065401 1 1 1.000000
0  21.953346 -91.226791 19.117983  -0.407017 -0.580828 -0.704965  0.125980 0.036103 1 1 1.000000
headlight
0  21.953346 -91.226791 19.117983  -0.407017 -0.580828 -0.704965  0.125980 0.036103 1 1 1.000000
0  23.095745 -91.226791 18.801416  0.005719 -0.815847 -0.578240  0.243171 0.004852 1 1 1.000000
0  23.095745 -91.364426 19.131748  0.000001 -0.911368 -0.411592  0.243171 0.038057 1 1 1.000000
headlight
0  22.118511 -91.364426 19.393261  -0.205780 -0.911379 -0.356430  0.142582 0.065401 1 1 1.000000
0  21.402792 -91.364426 20.108980  -0.356416 -0.911385 -0.205782  0.068361 0.138646 1 1 1.000000
0  21.127516 -91.226791 19.943813  -0.704954 -0.580837 -0.407023  0.040040 0.122043 1 1 1.000000
headlight
0  21.127516 -91.226791 19.943813  -0.704954 -0.580837 -0.407023  0.040040 0.122043 1 1 1.000000
0  21.953346 -91.226791 19.117983  -0.407017 -0.580828 -0.704965  0.125980 0.036103 1 1 1.000000
0  22.118511 -91.364426 19.393261  -0.205780 -0.911379 -0.356430  0.142582 0.065401 1 1 1.000000
headlight
0  21.141279 -91.364426 21.086214  -0.411567 -0.911379 0.000001  0.041993 0.240211 1 1 1.000000
0  20.810946 -91.226791 21.086214  -0.813980 -0.580892 0.000028  0.007813 0.240211 1 1 1.000000
0  21.127516 -91.226791 19.943813  -0.704954 -0.580837 -0.407023  0.040040 0.122043 1 1 1.000000
headlight
0  21.127516 -91.226791 19.943813  -0.704954 -0.580837 -0.407023  0.040040 0.122043 1 1 1.000000
0  21.402792 -91.364426 20.108980  -0.356416 -0.911385 -0.205782  0.068361 0.138646 1 1 1.000000
0  21.141279 -91.364426 21.086214  -0.411567 -0.911379 0.000001  0.041993 0.240211 1 1 1.000000
headlight
0  26.233904 -89.024567 21.485365  -0.718920 -0.695093 0.000023  0.016602 0.241188 1 1 1.000000
0  26.509180 -89.107155 21.485365  -0.299897 -0.953972 -0.000005  0.043947 0.241188 1 1 1.000000
0  26.784456 -89.107155 22.531418  -0.259586 -0.954001 0.149990  0.070315 0.341777 1 1 1.000000
headlight
0  26.784456 -89.107155 22.531418  -0.259586 -0.954001 0.149990  0.070315 0.341777 1 1 1.000000
0  26.550470 -89.024567 22.655294  -0.622524 -0.695159 0.359468  0.046876 0.354472 1 1 1.000000
0  26.233904 -89.024567 21.485365  -0.718920 -0.695093 0.000023  0.016602 0.241188 1 1 1.000000
headlight
0  26.550470 -89.024567 22.655294  -0.622524 -0.695159 0.359468  0.046876 0.354472 1 1 1.000000
0  26.784456 -89.107155 22.531418  -0.259586 -0.954001 0.149990  0.070315 0.341777 1 1 1.000000
0  27.541466 -89.107155 23.288429  -0.149931 -0.953976 0.259711  0.143559 0.415021 1 1 1.000000
headlight
0  27.541466 -89.107155 23.288429  -0.149931 -0.953976 0.259711  0.143559 0.415021 1 1 1.000000
0  27.403830 -89.024567 23.522415  -0.359422 -0.695132 0.622581  0.130863 0.437483 1 1 1.000000
0  26.550470 -89.024567 22.655294  -0.622524 -0.695159 0.359468  0.046876 0.354472 1 1 1.000000
headlight
0  27.403830 -89.024567 23.522415  -0.359422 -0.695132 0.622581  0.130863 0.437483 1 1 1.000000
0  27.541466 -89.107155 23.288429  -0.149931 -0.953976 0.259711  0.143559 0.415021 1 1 1.000000
0  28.587523 -89.107155 23.563707  -0.000001 -0.953956 0.299945  0.244148 0.441389 1 1 1.000000
headlight
0  28.587523 -89.107155 23.563707  -0.000001 -0.953956 0.299945  0.244148 0.441389 1 1 1.000000
0  28.587523 -89.024567 23.838985  0.000011 -0.695075 0.718937  0.244148 0.468734 1 1 1.000000
0  27.403830 -89.024567 23.522415  -0.359422 -0.695132 0.622581  0.130863 0.437483 1 1 1.000000
headlight
0  28.587523 -89.024567 23.838985  0.000011 -0.695075 0.718937  0.244148 0.468734 1 1 1.000000
0  28.587523 -89.107155 23.563707  -0.000001 -0.953956 0.299945  0.244148 0.441389 1 1 1.000000
0  29.619808 -89.107155 23.288429  0.149935 -0.953976 0.259711  0.343760 0.415021 1 1 1.000000
headlight
0  29.619808 -89.107155 23.288429  0.149935 -0.953976 0.259711  0.343760 0.415021 1 1 1.000000
0  29.757448 -89.024567 23.522415  0.359375 -0.695182 0.622553  0.357433 0.437483 1 1 1.000000
0  28.587523 -89.024567 23.838985  0.000011 -0.695075 0.718937  0.244148 0.468734 1 1 1.000000
headlight
0  29.757448 -89.024567 23.522415  0.359375 -0.695182 0.622553  0.357433 0.437483 1 1 1.000000
0  29.619808 -89.107155 23.288429  0.149935 -0.953976 0.259711  0.343760 0.415021 1 1 1.000000
0  30.376822 -89.107155 22.531418  0.259701 -0.953979 0.149929  0.417005 0.341777 1 1 1.000000
headlight
0  30.376822 -89.107155 22.531418  0.259701 -0.953979 0.149929  0.417005 0.341777 1 1 1.000000
0  30.624571 -89.024567 22.655294  0.622563 -0.695188 0.359347  0.440443 0.354472 1 1 1.000000
0  29.757448 -89.024567 23.522415  0.359375 -0.695182 0.622553  0.357433 0.437483 1 1 1.000000
headlight
0  30.624571 -89.024567 22.655294  0.622563 -0.695188 0.359347  0.440443 0.354472 1 1 1.000000
0  30.376822 -89.107155 22.531418  0.259701 -0.953979 0.149929  0.417005 0.341777 1 1 1.000000
0  30.665865 -89.107155 21.485365  0.299898 -0.953971 0.000002  0.444349 0.241188 1 1 1.000000
headlight
0  30.665865 -89.107155 21.485365  0.299898 -0.953971 0.000002  0.444349 0.241188 1 1 1.000000
0  30.941139 -89.024567 21.485365  0.718987 -0.695023 -0.000064  0.470717 0.241188 1 1 1.000000
0  30.624571 -89.024567 22.655294  0.622563 -0.695188 0.359347  0.440443 0.354472 1 1 1.000000
headlight
0  30.941139 -89.024567 21.485365  0.718987 -0.695023 -0.000064  0.470717 0.241188 1 1 1.000000
0  30.665865 -89.107155 21.485365  0.299898 -0.953971 0.000002  0.444349 0.241188 1 1 1.000000
0  30.376822 -89.107155 20.453077  0.259717 -0.953969 -0.149971  0.417005 0.141575 1 1 1.000000
headlight
0  30.376822 -89.107155 20.453077  0.259717 -0.953969 -0.149971  0.417005 0.141575 1 1 1.000000
0  30.624571 -89.024567 20.315437  0.622566 -0.695145 -0.359422  0.440443 0.127903 1 1 1.000000
0  30.941139 -89.024567 21.485365  0.718987 -0.695023 -0.000064  0.470717 0.241188 1 1 1.000000
headlight
0  30.624571 -89.024567 20.315437  0.622566 -0.695145 -0.359422  0.440443 0.127903 1 1 1.000000
0  30.376822 -89.107155 20.453077  0.259717 -0.953969 -0.149971  0.417005 0.141575 1 1 1.000000
0  29.619808 -89.107155 19.696066  0.149938 -0.953966 -0.259745  0.343760 0.068331 1 1 1.000000
headlight
0  29.619808 -89.107155 19.696066  0.149938 -0.953966 -0.259745  0.343760 0.068331 1 1 1.000000
0  29.757448 -89.024567 19.448315  0.359360 -0.695223 -0.622516  0.357433 0.044893 1 1 1.000000
0  30.624571 -89.024567 20.315437  0.622566 -0.695145 -0.359422  0.440443 0.127903 1 1 1.000000
headlight
0  29.757448 -89.024567 19.448315  0.359360 -0.695223 -0.622516  0.357433 0.044893 1 1 1.000000
0  29.619808 -89.107155 19.696066  0.149938 -0.953966 -0.259745  0.343760 0.068331 1 1 1.000000
0  28.587523 -89.107155 19.407024  0.000002 -0.953977 -0.299879  0.244148 0.040986 1 1 1.000000
headlight
0  28.587523 -89.107155 19.407024  0.000002 -0.953977 -0.299879  0.244148 0.040986 1 1 1.000000
0  28.587523 -89.024567 19.131748  0.000002 -0.695124 -0.718890  0.244148 0.014618 1 1 1.000000
0  29.757448 -89.024567 19.448315  0.359360 -0.695223 -0.622516  0.357433 0.044893 1 1 1.000000
headlight
0  28.587523 -89.024567 19.131748  0.000002 -0.695124 -0.718890  0.244148 0.014618 1 1 1.000000
0  28.587523 -89.107155 19.407024  0.000002 -0.953977 -0.299879  0.244148 0.040986 1 1 1.000000
0  27.541466 -89.107155 19.696066  -0.149936 -0.953972 -0.259723  0.143559 0.068331 1 1 1.000000
headlight
0  27.541466 -89.107155 19.696066  -0.149936 -0.953972 -0.259723  0.143559 0.068331 1 1 1.000000
0  27.403830 -89.024567 19.448315  -0.359436 -0.695143 -0.622561  0.130863 0.044893 1 1 1.000000
0  28.587523 -89.024567 19.131748  0.000002 -0.695124 -0.718890  0.244148 0.014618 1 1 1.000000
headlight
0  27.403830 -89.024567 19.448315  -0.359436 -0.695143 -0.622561  0.130863 0.044893 1 1 1.000000
0  27.541466 -89.107155 19.696066  -0.149936 -0.953972 -0.259723  0.143559 0.068331 1 1 1.000000
0  26.784456 -89.107155 20.453077  -0.259724 -0.953968 -0.149960  0.070315 0.141575 1 1 1.000000
headlight
0  26.784456 -89.107155 20.453077  -0.259724 -0.953968 -0.149960  0.070315 0.141575 1 1 1.000000
0  26.550470 -89.024567 20.315437  -0.622669 -0.695202 -0.359135  0.046876 0.127903 1 1 1.000000
0  27.403830 -89.024567 19.448315  -0.359436 -0.695143 -0.622561  0.130863 0.044893 1 1 1.000000
headlight
0  26.550470 -89.024567 20.315437  -0.622669 -0.695202 -0.359135  0.046876 0.127903 1 1 1.000000
0  26.784456 -89.107155 20.453077  -0.259724 -0.953968 -0.149960  0.070315 0.141575 1 1 1.000000
0  26.509180 -89.107155 21.485365  -0.299897 -0.953972 -0.000005  0.043947 0.241188 1 1 1.000000
headlight
0  26.509180 -89.107155 21.485365  -0.299897 -0.953972 -0.000005  0.043947 0.241188 1 1 1.000000
0  26.233904 -89.024567 21.485365  -0.718920 -0.695093 0.000023  0.016602 0.241188 1 1 1.000000
0  26.550470 -89.024567 20.315437  -0.622669 -0.695202 -0.359135  0.046876 0.127903 1 1 1.000000
headlight
0  27.252426 -89.052094 22.256140  -0.267214 -0.951196 0.154346  0.085940 0.332987 1 1 1.000000
0  27.032206 -89.052094 21.485365  -0.308659 -0.951173 -0.000006  0.060549 0.241188 1 1 1.000000
0  28.587523 -89.547600 21.485365  -0.000261 -1.000000 0.000001  0.246101 0.241188 1 1 1.000000
headlight
0  27.816746 -89.052094 22.820459  -0.154354 -0.951162 0.267332  0.153325 0.401349 1 1 1.000000
0  27.252426 -89.052094 22.256140  -0.267214 -0.951196 0.154346  0.085940 0.332987 1 1 1.000000
0  28.587523 -89.547600 21.485365  -0.000261 -1.000000 0.000001  0.246101 0.241188 1 1 1.000000
headlight
0  28.587523 -89.052094 23.026915  0.000000 -0.951158 0.308703  0.246101 0.425764 1 1 1.000000
0  27.816746 -89.052094 22.820459  -0.154354 -0.951162 0.267332  0.153325 0.401349 1 1 1.000000
0  28.587523 -89.547600 21.485365  -0.000261 -1.000000 0.000001  0.246101 0.241188 1 1 1.000000
headlight
0  29.358299 -89.052094 22.820459  0.154330 -0.951177 0.267292  0.338878 0.401349 1 1 1.000000
0  28.587523 -89.052094 23.026915  0.000000 -0.951158 0.308703  0.246101 0.425764 1 1 1.000000
0  28.587523 -89.547600 21.485365  -0.000261 -1.000000 0.000001  0.246101 0.241188 1 1 1.000000
headlight
0  29.922615 -89.052094 22.256140  0.267247 -0.951192 0.154312  0.406262 0.332987 1 1 1.000000
0  29.358299 -89.052094 22.820459  0.154330 -0.951177 0.267292  0.338878 0.401349 1 1 1.000000
0  28.587523 -89.547600 21.485365  -0.000261 -1.000000 0.000001  0.246101 0.241188 1 1 1.000000
headlight
0  30.129072 -89.052094 21.485365  0.308654 -0.951174 0.000006  0.431654 0.241188 1 1 1.000000
0  29.922615 -89.052094 22.256140  0.267247 -0.951192 0.154312  0.406262 0.332987 1 1 1.000000
0  28.587523 -89.547600 21.485365  -0.000261 -1.000000 0.000001  0.246101 0.241188 1 1 1.000000
headlight
0  29.922615 -89.052094 20.714590  0.267208 -0.951208 -0.154283  0.406262 0.148412 1 1 1.000000
0  30.129072 -89.052094 21.485365  0.308654 -0.951174 0.000006  0.431654 0.241188 1 1 1.000000
0  28.587523 -89.547600 21.485365  -0.000261 -1.000000 0.000001  0.246101 0.241188 1 1 1.000000
headlight
0  29.358299 -89.052094 20.150272  0.154307 -0.951192 -0.267251  0.338878 0.080050 1 1 1.000000
0  29.922615 -89.052094 20.714590  0.267208 -0.951208 -0.154283  0.406262 0.148412 1 1 1.000000
0  28.587523 -89.547600 21.485365  -0.000261 -1.000000 0.000001  0.246101 0.241188 1 1 1.000000
headlight
0  28.587523 -89.052094 19.943813  -0.000000 -0.951266 -0.308373  0.246101 0.055635 1 1 1.000000
0  29.358299 -89.052094 20.150272  0.154307 -0.951192 -0.267251  0.338878 0.080050 1 1 1.000000
0  28.587523 -89.547600 21.485365  -0.000261 -1.000000 0.000001  0.246101 0.241188 1 1 1.000000
headlight
0  27.816746 -89.052094 20.150272  -0.154310 -0.951192 -0.267249  0.153325 0.080050 1 1 1.000000
0  28.587523 -89.052094 19.943813  -0.000000 -0.951266 -0.308373  0.246101 0.055635 1 1 1.000000
0  28.587523 -89.547600 21.485365  -0.000261 -1.000000 0.000001  0.246101 0.241188 1 1 1.000000
headlight
0  27.252426 -89.052094 20.714590  -0.267168 -0.951208 -0.154354  0.085940 0.148412 1 1 1.000000
0  27.816746 -89.052094 20.150272  -0.154310 -0.951192 -0.267249  0.153325 0.080050 1 1 1.000000
0  28.587523 -89.547600 21.485365  -0.000261 -1.000000 0.000001  0.246101 0.241188 1 1 1.000000
headlight
0  27.032206 -89.052094 21.485365  -0.308659 -0.951173 -0.000006  0.060549 0.241188 1 1 1.000000
0  27.252426 -89.052094 20.714590  -0.267168 -0.951208 -0.154354  0.085940 0.148412 1 1 1.000000
0  28.587523 -89.547600 21.485365  -0.000261 -1.000000 0.000001  0.246101 0.241188 1 1 1.000000
headlight
0  -21.141264 -91.364426 21.086218  0.411567 -0.911379 0.000000  0.041993 0.240211 1 1 1.000000
0  -20.810930 -91.226791 21.086218  0.814009 -0.580852 -0.000028  0.007813 0.240211 1 1 1.000000
0  -21.127501 -91.226791 22.228617  0.704956 -0.580865 0.406979  0.040040 0.357402 1 1 1.000000
headlight
0  -21.127501 -91.226791 22.228617  0.704956 -0.580865 0.406979  0.040040 0.357402 1 1 1.000000
0  -21.402777 -91.364426 22.077215  0.356443 -0.911371 0.205793  0.068361 0.340800 1 1 1.000000
0  -21.141264 -91.364426 21.086218  0.411567 -0.911379 0.000000  0.041993 0.240211 1 1 1.000000
headlight
0  -21.402777 -91.364426 22.077215  0.356443 -0.911371 0.205793  0.068361 0.340800 1 1 1.000000
0  -21.127501 -91.226791 22.228617  0.704956 -0.580865 0.406979  0.040040 0.357402 1 1 1.000000
0  -21.953329 -91.226791 23.068213  0.297198 -0.850878 0.433221  0.125980 0.443342 1 1 1.000000
headlight
0  -21.953329 -91.226791 23.068213  0.297198 -0.850878 0.433221  0.125980 0.443342 1 1 1.000000
0  -22.118494 -91.364426 22.792936  0.205782 -0.911375 0.356439  0.142582 0.415021 1 1 1.000000
0  -21.402777 -91.364426 22.077215  0.356443 -0.911371 0.205793  0.068361 0.340800 1 1 1.000000
headlight
0  -22.118494 -91.364426 22.792936  0.205782 -0.911375 0.356439  0.142582 0.415021 1 1 1.000000
0  -21.953329 -91.226791 23.068213  0.297198 -0.850878 0.433221  0.125980 0.443342 1 1 1.000000
0  -23.095728 -91.226791 23.384783  -0.075592 -0.785769 0.613883  0.243171 0.474593 1 1 1.000000
headlight
0  -23.095728 -91.226791 23.384783  -0.075592 -0.785769 0.613883  0.243171 0.474593 1 1 1.000000
0  -23.095728 -91.364426 23.054449  0.000000 -0.911387 0.411551  0.243171 0.441389 1 1 1.000000
0  -22.118494 -91.364426 22.792936  0.205782 -0.911375 0.356439  0.142582 0.415021 1 1 1.000000
headlight
0  -23.095728 -91.364426 23.054449  0.000000 -0.911387 0.411551  0.243171 0.441389 1 1 1.000000
0  -23.095728 -91.226791 23.384783  -0.075592 -0.785769 0.613883  0.243171 0.474593 1 1 1.000000
0  -24.238127 -91.226791 23.068213  -0.407001 -0.580860 0.704948  0.361339 0.443342 1 1 1.000000
headlight
0  -24.238127 -91.226791 23.068213  -0.407001 -0.580860 0.704948  0.361339 0.443342 1 1 1.000000
0  -24.086727 -91.364426 22.792936  -0.205777 -0.911384 0.356420  0.343760 0.415021 1 1 1.000000
0  -23.095728 -91.364426 23.054449  0.000000 -0.911387 0.411551  0.243171 0.441389 1 1 1.000000
headlight
0  -24.086727 -91.364426 22.792936  -0.205777 -0.911384 0.356420  0.343760 0.415021 1 1 1.000000
0  -24.238127 -91.226791 23.068213  -0.407001 -0.580860 0.704948  0.361339 0.443342 1 1 1.000000
0  -25.077724 -91.226791 22.228617  -0.704983 -0.580823 0.406993  0.447279 0.357402 1 1 1.000000
headlight
0  -25.077724 -91.226791 22.228617  -0.704983 -0.580823 0.406993  0.447279 0.357402 1 1 1.000000
0  -24.802448 -91.364426 22.077215  -0.356420 -0.911379 0.205797  0.417982 0.340800 1 1 1.000000
0  -24.086727 -91.364426 22.792936  -0.205777 -0.911384 0.356420  0.343760 0.415021 1 1 1.000000
headlight
0  -24.802448 -91.364426 22.077215  -0.356420 -0.911379 0.205797  0.417982 0.340800 1 1 1.000000
0  -25.077724 -91.226791 22.228617  -0.704983 -0.580823 0.406993  0.447279 0.357402 1 1 1.000000
0  -25.394293 -91.226791 21.086218  -0.814047 -0.580799 0.000013  0.478530 0.240211 1 1 1.000000
headlight
0  -25.394293 -91.226791 21.086218  -0.814047 -0.580799 0.000013  0.478530 0.240211 1 1 1.000000
0  -25.063959 -91.364426 21.086218  -0.411579 -0.911374 -0.000004  0.445326 0.240211 1 1 1.000000
0  -24.802448 -91.364426 22.077215  -0.356420 -0.911379 0.205797  0.417982 0.340800 1 1 1.000000
headlight
0  -25.063959 -91.364426 21.086218  -0.411579 -0.911374 -0.000004  0.445326 0.240211 1 1 1.000000
0  -25.394293 -91.226791 21.086218  -0.814047 -0.580799 0.000013  0.478530 0.240211 1 1 1.000000
0  -25.077724 -91.226791 19.943817  -0.704987 -0.580810 -0.407005  0.447279 0.122043 1 1 1.000000
headlight
0  -25.077724 -91.226791 19.943817  -0.704987 -0.580810 -0.407005  0.447279 0.122043 1 1 1.000000
0  -24.802448 -91.364426 20.108984  -0.356430 -0.911378 -0.205785  0.417982 0.138646 1 1 1.000000
0  -25.063959 -91.364426 21.086218  -0.411579 -0.911374 -0.000004  0.445326 0.240211 1 1 1.000000
headlight
0  -24.802448 -91.364426 20.108984  -0.356430 -0.911378 -0.205785  0.417982 0.138646 1 1 1.000000
0  -25.077724 -91.226791 19.943817  -0.704987 -0.580810 -0.407005  0.447279 0.122043 1 1 1.000000
0  -24.238129 -91.226791 19.117987  -0.416876 -0.671692 -0.612408  0.361339 0.036103 1 1 1.000000
headlight
0  -24.238129 -91.226791 19.117987  -0.416876 -0.671692 -0.612408  0.361339 0.036103 1 1 1.000000
0  -24.086729 -91.364426 19.393265  -0.205781 -0.911378 -0.356434  0.343760 0.065401 1 1 1.000000
0  -24.802448 -91.364426 20.108984  -0.356430 -0.911378 -0.205785  0.417982 0.138646 1 1 1.000000
headlight
0  -24.086729 -91.364426 19.393265  -0.205781 -0.911378 -0.356434  0.343760 0.065401 1 1 1.000000
0  -24.238129 -91.226791 19.117987  -0.416876 -0.671692 -0.612408  0.361339 0.036103 1 1 1.000000
0  -23.095730 -91.226791 18.801420  -0.005639 -0.815962 -0.578078  0.243171 0.004852 1 1 1.000000
headlight
0  -23.095730 -91.226791 18.801420  -0.005639 -0.815962 -0.578078  0.243171 0.004852 1 1 1.000000
0  -23.095730 -91.364426 19.131752  -0.000001 -0.911369 -0.411591  0.243171 0.038057 1 1 1.000000
0  -24.086729 -91.364426 19.393265  -0.205781 -0.911378 -0.356434  0.343760 0.065401 1 1 1.000000
headlight
0  -23.095730 -91.364426 19.131752  -0.000001 -0.911369 -0.411591  0.243171 0.038057 1 1 1.000000
0  -23.095730 -91.226791 18.801420  -0.005639 -0.815962 -0.578078  0.243171 0.004852 1 1 1.000000
0  -21.953331 -91.226791 19.117987  0.406974 -0.580827 -0.704992  0.125980 0.036103 1 1 1.000000
headlight
0  -21.953331 -91.226791 19.117987  0.406974 -0.580827 -0.704992  0.125980 0.036103 1 1 1.000000
0  -22.118496 -91.364426 19.393265  0.205781 -0.911378 -0.356433  0.142582 0.065401 1 1 1.000000
0  -23.095730 -91.364426 19.131752  -0.000001 -0.911369 -0.411591  0.243171 0.038057 1 1 1.000000
headlight
0  -22.118496 -91.364426 19.393265  0.205781 -0.911378 -0.356433  0.142582 0.065401 1 1 1.000000
0  -21.953331 -91.226791 19.117987  0.406974 -0.580827 -0.704992  0.125980 0.036103 1 1 1.000000
0  -21.127501 -91.226791 19.943817  0.704957 -0.580835 -0.407021  0.040040 0.122043 1 1 1.000000
headlight
0  -21.127501 -91.226791 19.943817  0.704957 -0.580835 -0.407021  0.040040 0.122043 1 1 1.000000
0  -21.402777 -91.364426 20.108984  0.356414 -0.911383 -0.205791  0.068361 0.138646 1 1 1.000000
0  -22.118496 -91.364426 19.393265  0.205781 -0.911378 -0.356433  0.142582 0.065401 1 1 1.000000
headlight
0  -21.141264 -91.364426 21.086218  0.411567 -0.911379 0.000000  0.041993 0.240211 1 1 1.000000
0  -21.402777 -91.364426 20.108984  0.356414 -0.911383 -0.205791  0.068361 0.138646 1 1 1.000000
0  -21.127501 -91.226791 19.943817  0.704957 -0.580835 -0.407021  0.040040 0.122043 1 1 1.000000
headlight
0  -21.127501 -91.226791 19.943817  0.704957 -0.580835 -0.407021  0.040040 0.122043 1 1 1.000000
0  -20.810930 -91.226791 21.086218  0.814009 -0.580852 -0.000028  0.007813 0.240211 1 1 1.000000
0  -21.141264 -91.364426 21.086218  0.411567 -0.911379 0.000000  0.041993 0.240211 1 1 1.000000
headlight
0  -26.233889 -89.024567 21.485369  0.718990 -0.695020 -0.000030  0.016602 0.241188 1 1 1.000000
0  -26.550455 -89.024567 22.655298  0.622548 -0.695163 0.359420  0.046876 0.354472 1 1 1.000000
0  -26.784441 -89.107155 22.531422  0.259493 -0.954022 0.150017  0.070315 0.341777 1 1 1.000000
headlight
0  -26.784441 -89.107155 22.531422  0.259493 -0.954022 0.150017  0.070315 0.341777 1 1 1.000000
0  -26.509165 -89.107155 21.485369  0.299898 -0.953971 -0.000006  0.043947 0.241188 1 1 1.000000
0  -26.233889 -89.024567 21.485369  0.718990 -0.695020 -0.000030  0.016602 0.241188 1 1 1.000000
headlight
0  -26.550455 -89.024567 22.655298  0.622548 -0.695163 0.359420  0.046876 0.354472 1 1 1.000000
0  -27.403814 -89.024567 23.522419  0.359423 -0.695131 0.622582  0.130863 0.437483 1 1 1.000000
0  -27.541451 -89.107155 23.288433  0.149932 -0.953975 0.259714  0.143559 0.415021 1 1 1.000000
headlight
0  -27.541451 -89.107155 23.288433  0.149932 -0.953975 0.259714  0.143559 0.415021 1 1 1.000000
0  -26.784441 -89.107155 22.531422  0.259493 -0.954022 0.150017  0.070315 0.341777 1 1 1.000000
0  -26.550455 -89.024567 22.655298  0.622548 -0.695163 0.359420  0.046876 0.354472 1 1 1.000000
headlight
0  -27.403814 -89.024567 23.522419  0.359423 -0.695131 0.622582  0.130863 0.437483 1 1 1.000000
0  -28.587507 -89.024567 23.838989  -0.000013 -0.694968 0.719041  0.244148 0.468734 1 1 1.000000
0  -28.587507 -89.107155 23.563711  0.000001 -0.953956 0.299947  0.244148 0.441389 1 1 1.000000
headlight
0  -28.587507 -89.107155 23.563711  0.000001 -0.953956 0.299947  0.244148 0.441389 1 1 1.000000
0  -27.541451 -89.107155 23.288433  0.149932 -0.953975 0.259714  0.143559 0.415021 1 1 1.000000
0  -27.403814 -89.024567 23.522419  0.359423 -0.695131 0.622582  0.130863 0.437483 1 1 1.000000
headlight
0  -28.587507 -89.024567 23.838989  -0.000013 -0.694968 0.719041  0.244148 0.468734 1 1 1.000000
0  -29.757433 -89.024567 23.522419  -0.359424 -0.695181 0.622525  0.357433 0.437483 1 1 1.000000
0  -29.619793 -89.107155 23.288433  -0.149931 -0.953976 0.259714  0.343760 0.415021 1 1 1.000000
headlight
0  -29.619793 -89.107155 23.288433  -0.149931 -0.953976 0.259714  0.343760 0.415021 1 1 1.000000
0  -28.587507 -89.107155 23.563711  0.000001 -0.953956 0.299947  0.244148 0.441389 1 1 1.000000
0  -28.587507 -89.024567 23.838989  -0.000013 -0.694968 0.719041  0.244148 0.468734 1 1 1.000000
headlight
0  -29.757433 -89.024567 23.522419  -0.359424 -0.695181 0.622525  0.357433 0.437483 1 1 1.000000
0  -30.624556 -89.024567 22.655298  -0.622567 -0.695146 0.359419  0.440443 0.354472 1 1 1.000000
0  -30.376806 -89.107155 22.531422  -0.259703 -0.953978 0.149935  0.417005 0.341777 1 1 1.000000
headlight
0  -30.376806 -89.107155 22.531422  -0.259703 -0.953978 0.149935  0.417005 0.341777 1 1 1.000000
0  -29.619793 -89.107155 23.288433  -0.149931 -0.953976 0.259714  0.343760 0.415021 1 1 1.000000
0  -29.757433 -89.024567 23.522419  -0.359424 -0.695181 0.622525  0.357433 0.437483 1 1 1.000000
headlight
0  -30.624556 -89.024567 22.655298  -0.622567 -0.695146 0.359419  0.440443 0.354472 1 1 1.000000
0  -30.941124 -89.024567 21.485369  -0.718884 -0.695130 -0.000011  0.470717 0.241188 1 1 1.000000
0  -30.665850 -89.107155 21.485369  -0.299898 -0.953971 0.000002  0.444349 0.241188 1 1 1.000000
headlight
0  -30.665850 -89.107155 21.485369  -0.299898 -0.953971 0.000002  0.444349 0.241188 1 1 1.000000
0  -30.376806 -89.107155 22.531422  -0.259703 -0.953978 0.149935  0.417005 0.341777 1 1 1.000000
0  -30.624556 -89.024567 22.655298  -0.622567 -0.695146 0.359419  0.440443 0.354472 1 1 1.000000
headlight
0  -30.941124 -89.024567 21.485369  -0.718884 -0.695130 -0.000011  0.470717 0.241188 1 1 1.000000
0  -30.624556 -89.024567 20.315441  -0.622567 -0.695139 -0.359433  0.440443 0.127903 1 1 1.000000
0  -30.376806 -89.107155 20.453081  -0.259716 -0.953966 -0.149990  0.417005 0.141575 1 1 1.000000
headlight
0  -30.376806 -89.107155 20.453081  -0.259716 -0.953966 -0.149990  0.417005 0.141575 1 1 1.000000
0  -30.665850 -89.107155 21.485369  -0.299898 -0.953971 0.000002  0.444349 0.241188 1 1 1.000000
0  -30.941124 -89.024567 21.485369  -0.718884 -0.695130 -0.000011  0.470717 0.241188 1 1 1.000000
headlight
0  -30.624556 -89.024567 20.315441  -0.622567 -0.695139 -0.359433  0.440443 0.127903 1 1 1.000000
0  -29.757433 -89.024567 19.448318  -0.359357 -0.695223 -0.622517  0.357433 0.044893 1 1 1.000000
0  -29.619793 -89.107155 19.696070  -0.149938 -0.953966 -0.259746  0.343760 0.068331 1 1 1.000000
headlight
0  -29.619793 -89.107155 19.696070  -0.149938 -0.953966 -0.259746  0.343760 0.068331 1 1 1.000000
0  -30.376806 -89.107155 20.453081  -0.259716 -0.953966 -0.149990  0.417005 0.141575 1 1 1.000000
0  -30.624556 -89.024567 20.315441  -0.622567 -0.695139 -0.359433  0.440443 0.127903 1 1 1.000000
headlight
0  -29.757433 -89.024567 19.448318  -0.359357 -0.695223 -0.622517  0.357433 0.044893 1 1 1.000000
0  -28.587507 -89.024567 19.131752  -0.000000 -0.695159 -0.718856  0.244148 0.014618 1 1 1.000000
0  -28.587507 -89.107155 19.407028  0.000001 -0.953978 -0.299878  0.244148 0.040986 1 1 1.000000
headlight
0  -28.587507 -89.107155 19.407028  0.000001 -0.953978 -0.299878  0.244148 0.040986 1 1 1.000000
0  -29.619793 -89.107155 19.696070  -0.149938 -0.953966 -0.259746  0.343760 0.068331 1 1 1.000000
0  -29.757433 -89.024567 19.448318  -0.359357 -0.695223 -0.622517  0.357433 0.044893 1 1 1.000000
headlight
0  -28.587507 -89.024567 19.131752  -0.000000 -0.695159 -0.718856  0.244148 0.014618 1 1 1.000000
0  -27.403814 -89.024567 19.448318  0.359421 -0.695178 -0.622531  0.130863 0.044893 1 1 1.000000
0  -27.541451 -89.107155 19.696070  0.149944 -0.953972 -0.259718  0.143559 0.068331 1 1 1.000000
headlight
0  -27.541451 -89.107155 19.696070  0.149944 -0.953972 -0.259718  0.143559 0.068331 1 1 1.000000
0  -28.587507 -89.107155 19.407028  0.000001 -0.953978 -0.299878  0.244148 0.040986 1 1 1.000000
0  -28.587507 -89.024567 19.131752  -0.000000 -0.695159 -0.718856  0.244148 0.014618 1 1 1.000000
headlight
0  -27.403814 -89.024567 19.448318  0.359421 -0.695178 -0.622531  0.130863 0.044893 1 1 1.000000
0  -26.550455 -89.024567 20.315441  0.622643 -0.695206 -0.359173  0.046876 0.127903 1 1 1.000000
0  -26.784441 -89.107155 20.453081  0.259725 -0.953970 -0.149950  0.070315 0.141575 1 1 1.000000
headlight
0  -26.784441 -89.107155 20.453081  0.259725 -0.953970 -0.149950  0.070315 0.141575 1 1 1.000000
0  -27.541451 -89.107155 19.696070  0.149944 -0.953972 -0.259718  0.143559 0.068331 1 1 1.000000
0  -27.403814 -89.024567 19.448318  0.359421 -0.695178 -0.622531  0.130863 0.044893 1 1 1.000000
headlight
0  -26.550455 -89.024567 20.315441  0.622643 -0.695206 -0.359173  0.046876 0.127903 1 1 1.000000
0  -26.233889 -89.024567 21.485369  0.718990 -0.695020 -0.000030  0.016602 0.241188 1 1 1.000000
0  -26.509165 -89.107155 21.485369  0.299898 -0.953971 -0.000006  0.043947 0.241188 1 1 1.000000
headlight
0  -26.509165 -89.107155 21.485369  0.299898 -0.953971 -0.000006  0.043947 0.241188 1 1 1.000000
0  -26.784441 -89.107155 20.453081  0.259725 -0.953970 -0.149950  0.070315 0.141575 1 1 1.000000
0  -26.550455 -89.024567 20.315441  0.622643 -0.695206 -0.359173  0.046876 0.127903 1 1 1.000000
headlight
0  -27.252411 -89.052094 22.256144  0.267261 -0.951184 0.154338  0.085940 0.332987 1 1 1.000000
0  -28.587507 -89.547600 21.485369  -0.000429 -1.000000 0.000001  0.246101 0.241188 1 1 1.000000
0  -27.032190 -89.052094 21.485369  0.308658 -0.951173 -0.000006  0.060549 0.241188 1 1 1.000000
headlight
0  -27.816730 -89.052094 22.820463  0.154331 -0.951177 0.267292  0.153325 0.401349 1 1 1.000000
0  -28.587507 -89.547600 21.485369  -0.000429 -1.000000 0.000001  0.246101 0.241188 1 1 1.000000
0  -27.252411 -89.052094 22.256144  0.267261 -0.951184 0.154338  0.085940 0.332987 1 1 1.000000
headlight
0  -28.587507 -89.052094 23.026918  0.000000 -0.951158 0.308703  0.246101 0.425764 1 1 1.000000
0  -28.587507 -89.547600 21.485369  -0.000429 -1.000000 0.000001  0.246101 0.241188 1 1 1.000000
0  -27.816730 -89.052094 22.820463  0.154331 -0.951177 0.267292  0.153325 0.401349 1 1 1.000000
headlight
0  -29.358284 -89.052094 22.820463  -0.154330 -0.951177 0.267292  0.338878 0.401349 1 1 1.000000
0  -28.587507 -89.547600 21.485369  -0.000429 -1.000000 0.000001  0.246101 0.241188 1 1 1.000000
0  -28.587507 -89.052094 23.026918  0.000000 -0.951158 0.308703  0.246101 0.425764 1 1 1.000000
headlight
0  -29.922600 -89.052094 22.256144  -0.267248 -0.951192 0.154313  0.406262 0.332987 1 1 1.000000
0  -28.587507 -89.547600 21.485369  -0.000429 -1.000000 0.000001  0.246101 0.241188 1 1 1.000000
0  -29.358284 -89.052094 22.820463  -0.154330 -0.951177 0.267292  0.338878 0.401349 1 1 1.000000
headlight
0  -30.129057 -89.052094 21.485369  -0.308654 -0.951174 0.000006  0.431654 0.241188 1 1 1.000000
0  -28.587507 -89.547600 21.485369  -0.000429 -1.000000 0.000001  0.246101 0.241188 1 1 1.000000
0  -29.922600 -89.052094 22.256144  -0.267248 -0.951192 0.154313  0.406262 0.332987 1 1 1.000000
headlight
0  -29.922600 -89.052094 20.714594  -0.267249 -0.951193 -0.154307  0.406262 0.148412 1 1 1.000000
0  -28.587507 -89.547600 21.485369  -0.000429 -1.000000 0.000001  0.246101 0.241188 1 1 1.000000
0  -30.129057 -89.052094 21.485369  -0.308654 -0.951174 0.000006  0.431654 0.241188 1 1 1.000000
headlight
0  -29.358284 -89.052094 20.150276  -0.154308 -0.951192 -0.267251  0.338878 0.080050 1 1 1.000000
0  -28.587507 -89.547600 21.485369  -0.000429 -1.000000 0.000001  0.246101 0.241188 1 1 1.000000
0  -29.922600 -89.052094 20.714594  -0.267249 -0.951193 -0.154307  0.406262 0.148412 1 1 1.000000
headlight
0  -28.587507 -89.052094 19.943817  -0.000000 -0.951266 -0.308373  0.246101 0.055635 1 1 1.000000
0  -28.587507 -89.547600 21.485369  -0.000429 -1.000000 0.000001  0.246101 0.241188 1 1 1.000000
0  -29.358284 -89.052094 20.150276  -0.154308 -0.951192 -0.267251  0.338878 0.080050 1 1 1.000000
headlight
0  -27.816730 -89.052094 20.150276  0.154286 -0.951207 -0.267209  0.153325 0.080050 1 1 1.000000
0  -28.587507 -89.547600 21.485369  -0.000429 -1.000000 0.000001  0.246101 0.241188 1 1 1.000000
0  -28.587507 -89.052094 19.943817  -0.000000 -0.951266 -0.308373  0.246101 0.055635 1 1 1.000000
headlight
0  -27.252411 -89.052094 20.714594  0.267167 -0.951208 -0.154354  0.085940 0.148412 1 1 1.000000
0  -28.587507 -89.547600 21.485369  -0.000429 -1.000000 0.000001  0.246101 0.241188 1 1 1.000000
0  -27.816730 -89.052094 20.150276  0.154286 -0.951207 -0.267209  0.153325 0.080050 1 1 1.000000
headlight
0  -27.032190 -89.052094 21.485369  0.308658 -0.951173 -0.000006  0.060549 0.241188 1 1 1.000000
0  -28.587507 -89.547600 21.485369  -0.000429 -1.000000 0.000001  0.246101 0.241188 1 1 1.000000
0  -27.252411 -89.052094 20.714594  0.267167 -0.951208 -0.154354  0.085940 0.148412 1 1 1.000000
end
