version 1
nodes
0 "blender_implicit" -1
1 "root" -1
2 "steering_wheel" 1
end
skeleton
time 0
0  0.000000 0.000000 0.000000  0.000000 -0.000000 0.000000
1  0.000000 0.000000 0.000000  1.570796 -0.000000 0.000000
2  15.979831 32.936882 16.915779  0.000000 -0.000000 0.000000
end
triangles
headlight
0  21.870762 -91.047852 21.801933  -0.265747 -0.951762 0.153387  0.503922 0.240211 1 1 1.000000
0  21.691832 -91.047852 21.086214  -0.307825 -0.951443 -0.000630  0.483413 0.164037 1 1 1.000000
0  23.095745 -91.502068 21.086214  0.000032 -1.000000 0.000030  0.636738 0.164037 1 1 1.000000
headlight
0  22.393789 -91.047852 22.311195  -0.152182 -0.951948 0.265772  0.559587 0.295877 1 1 1.000000
0  21.870762 -91.047852 21.801933  -0.265747 -0.951762 0.153387  0.503922 0.240211 1 1 1.000000
0  23.095745 -91.502068 21.086214  0.000032 -1.000000 0.000030  0.636738 0.164037 1 1 1.000000
headlight
0  23.095745 -91.047852 22.503891  -0.000013 -0.951724 0.306955  0.636738 0.316385 1 1 1.000000
0  22.393789 -91.047852 22.311195  -0.152182 -0.951948 0.265772  0.559587 0.295877 1 1 1.000000
0  23.095745 -91.502068 21.086214  0.000032 -1.000000 0.000030  0.636738 0.164037 1 1 1.000000
headlight
0  23.811468 -91.047852 22.311195  0.153505 -0.951693 0.265926  0.712912 0.295877 1 1 1.000000
0  23.095745 -91.047852 22.503891  -0.000013 -0.951724 0.306955  0.636738 0.316385 1 1 1.000000
0  23.095745 -91.502068 21.086214  0.000032 -1.000000 0.000030  0.636738 0.164037 1 1 1.000000
headlight
0  24.320728 -91.047852 21.801933  0.266058 -0.951647 0.153559  0.768578 0.240211 1 1 1.000000
0  23.811468 -91.047852 22.311195  0.153505 -0.951693 0.265926  0.712912 0.295877 1 1 1.000000
0  23.095745 -91.502068 21.086214  0.000032 -1.000000 0.000030  0.636738 0.164037 1 1 1.000000
headlight
0  24.513420 -91.047852 21.086214  0.306326 -0.951927 -0.000238  0.789087 0.164037 1 1 1.000000
0  24.320728 -91.047852 21.801933  0.266058 -0.951647 0.153559  0.768578 0.240211 1 1 1.000000
0  23.095745 -91.502068 21.086214  0.000032 -1.000000 0.000030  0.636738 0.164037 1 1 1.000000
headlight
0  24.320728 -91.047852 20.384256  0.265858 -0.951688 -0.153653  0.768578 0.087863 1 1 1.000000
0  24.513420 -91.047852 21.086214  0.306326 -0.951927 -0.000238  0.789087 0.164037 1 1 1.000000
0  23.095745 -91.502068 21.086214  0.000032 -1.000000 0.000030  0.636738 0.164037 1 1 1.000000
headlight
0  23.811468 -91.047852 19.861231  0.153399 -0.951763 -0.265737  0.712912 0.032197 1 1 1.000000
0  24.320728 -91.047852 20.384256  0.265858 -0.951688 -0.153653  0.768578 0.087863 1 1 1.000000
0  23.095745 -91.502068 21.086214  0.000032 -1.000000 0.000030  0.636738 0.164037 1 1 1.000000
headlight
0  23.095745 -91.047852 19.682302  -0.000423 -0.951529 -0.307558  0.636738 0.011689 1 1 1.000000
0  23.811468 -91.047852 19.861231  0.153399 -0.951763 -0.265737  0.712912 0.032197 1 1 1.000000
0  23.095745 -91.502068 21.086214  0.000032 -1.000000 0.000030  0.636738 0.164037 1 1 1.000000
headlight
0  22.393789 -91.047852 19.861231  -0.153507 -0.951716 -0.265841  0.559587 0.032197 1 1 1.000000
0  23.095745 -91.047852 19.682302  -0.000423 -0.951529 -0.307558  0.636738 0.011689 1 1 1.000000
0  23.095745 -91.502068 21.086214  0.000032 -1.000000 0.000030  0.636738 0.164037 1 1 1.000000
headlight
0  21.870762 -91.047852 20.384256  -0.265868 -0.951740 -0.153317  0.503922 0.087863 1 1 1.000000
0  22.393789 -91.047852 19.861231  -0.153507 -0.951716 -0.265841  0.559587 0.032197 1 1 1.000000
0  23.095745 -91.502068 21.086214  0.000032 -1.000000 0.000030  0.636738 0.164037 1 1 1.000000
headlight
0  21.691832 -91.047852 21.086214  -0.307825 -0.951443 -0.000630  0.483413 0.164037 1 1 1.000000
0  21.870762 -91.047852 20.384256  -0.265868 -0.951740 -0.153317  0.503922 0.087863 1 1 1.000000
0  23.095745 -91.502068 21.086214  0.000032 -1.000000 0.000030  0.636738 0.164037 1 1 1.000000
headlight
0  -21.870747 -91.047852 21.801937  0.265746 -0.951762 0.153388  0.503922 0.240211 1 1 1.000000
0  -23.095730 -91.502068 21.086218  -0.000032 -1.000000 0.000030  0.636738 0.164037 1 1 1.000000
0  -21.691816 -91.047852 21.086218  0.307285 -0.951617 -0.000232  0.483413 0.164037 1 1 1.000000
headlight
0  -22.393774 -91.047852 22.311199  0.152864 -0.951828 0.265811  0.559587 0.295877 1 1 1.000000
0  -23.095730 -91.502068 21.086218  -0.000032 -1.000000 0.000030  0.636738 0.164037 1 1 1.000000
0  -21.870747 -91.047852 21.801937  0.265746 -0.951762 0.153388  0.503922 0.240211 1 1 1.000000
headlight
0  -23.095730 -91.047852 22.503895  -0.000002 -0.951710 0.306999  0.636738 0.316385 1 1 1.000000
0  -23.095730 -91.502068 21.086218  -0.000032 -1.000000 0.000030  0.636738 0.164037 1 1 1.000000
0  -22.393774 -91.047852 22.311199  0.152864 -0.951828 0.265811  0.559587 0.295877 1 1 1.000000
headlight
0  -23.811453 -91.047852 22.311199  -0.153472 -0.951723 0.265837  0.712912 0.295877 1 1 1.000000
0  -23.095730 -91.502068 21.086218  -0.000032 -1.000000 0.000030  0.636738 0.164037 1 1 1.000000
0  -23.095730 -91.047852 22.503895  -0.000002 -0.951710 0.306999  0.636738 0.316385 1 1 1.000000
headlight
0  -24.320713 -91.047852 21.801937  -0.265969 -0.951678 0.153527  0.768578 0.240211 1 1 1.000000
0  -23.095730 -91.502068 21.086218  -0.000032 -1.000000 0.000030  0.636738 0.164037 1 1 1.000000
0  -23.811453 -91.047852 22.311199  -0.153472 -0.951723 0.265837  0.712912 0.295877 1 1 1.000000
headlight
0  -24.513405 -91.047852 21.086218  -0.306147 -0.951984 -0.000301  0.789087 0.164037 1 1 1.000000
0  -23.095730 -91.502068 21.086218  -0.000032 -1.000000 0.000030  0.636738 0.164037 1 1 1.000000
0  -24.320713 -91.047852 21.801937  -0.265969 -0.951678 0.153527  0.768578 0.240211 1 1 1.000000
headlight
0  -24.320713 -91.047852 20.384260  -0.265851 -0.951714 -0.153507  0.768578 0.087863 1 1 1.000000
0  -23.095730 -91.502068 21.086218  -0.000032 -1.000000 0.000030  0.636738 0.164037 1 1 1.000000
0  -24.513405 -91.047852 21.086218  -0.306147 -0.951984 -0.000301  0.789087 0.164037 1 1 1.000000
headlight
0  -23.811453 -91.047852 19.861235  -0.153203 -0.951869 -0.265472  0.712912 0.032197 1 1 1.000000
0  -23.095730 -91.502068 21.086218  -0.000032 -1.000000 0.000030  0.636738 0.164037 1 1 1.000000
0  -24.320713 -91.047852 20.384260  -0.265851 -0.951714 -0.153507  0.768578 0.087863 1 1 1.000000
headlight
0  -23.095730 -91.047852 19.682306  0.000221 -0.951616 -0.307291  0.636738 0.011689 1 1 1.000000
0  -23.095730 -91.502068 21.086218  -0.000032 -1.000000 0.000030  0.636738 0.164037 1 1 1.000000
0  -23.811453 -91.047852 19.861235  -0.153203 -0.951869 -0.265472  0.712912 0.032197 1 1 1.000000
headlight
0  -22.393774 -91.047852 19.861235  0.153508 -0.951716 -0.265841  0.559587 0.032197 1 1 1.000000
0  -23.095730 -91.502068 21.086218  -0.000032 -1.000000 0.000030  0.636738 0.164037 1 1 1.000000
0  -23.095730 -91.047852 19.682306  0.000221 -0.951616 -0.307291  0.636738 0.011689 1 1 1.000000
headlight
0  -21.870747 -91.047852 20.384260  0.265968 -0.951829 -0.152585  0.503922 0.087863 1 1 1.000000
0  -23.095730 -91.502068 21.086218  -0.000032 -1.000000 0.000030  0.636738 0.164037 1 1 1.000000
0  -22.393774 -91.047852 19.861235  0.153508 -0.951716 -0.265841  0.559587 0.032197 1 1 1.000000
headlight
0  -21.691816 -91.047852 21.086218  0.307285 -0.951617 -0.000232  0.483413 0.164037 1 1 1.000000
0  -23.095730 -91.502068 21.086218  -0.000032 -1.000000 0.000030  0.636738 0.164037 1 1 1.000000
0  -21.870747 -91.047852 20.384260  0.265968 -0.951829 -0.152585  0.503922 0.087863 1 1 1.000000
end
