version 1
nodes
0 "blender_implicit" -1
1 "root" -1
2 "steering_wheel" 1
end
skeleton
time 0
0  0.000000 0.000000 0.000000  0.000000 -0.000000 0.000000
1  0.000000 0.000000 0.000000  1.570796 -0.000000 0.000000
2  15.979831 32.936882 16.915779  0.000000 -0.000000 0.000000
end
triangles
misc
0  -2.904178 85.996529 8.217018  0.458492 -0.570545 0.681368  0.768578 0.603504 1 1 1.000000
0  -0.013770 88.955750 8.217018  0.000000 -0.444322 0.895867  0.745140 0.654286 1 1 1.000000
0  -0.013770 94.034615 8.217018  0.000000 0.707085 0.707129  0.745140 0.803705 1 1 1.000000
misc
0  -17.122234 94.034615 8.217019  -0.296757 0.717354 0.630348  0.887722 0.803705 1 1 1.000000
0  -18.030647 93.139961 8.217019  -0.717273 0.297224 0.630220  0.895535 0.788080 1 1 1.000000
0  -18.030647 81.124123 8.217019  -0.713871 -0.309503 0.628169  0.895535 0.547838 1 1 1.000000
misc
0  -0.013770 94.034615 8.217018  0.000000 0.707085 0.707129  0.745140 0.803705 1 1 1.000000
0  -17.122234 94.034615 8.217019  -0.296757 0.717354 0.630348  0.887722 0.803705 1 1 1.000000
0  -18.030647 81.124123 8.217019  -0.713871 -0.309503 0.628169  0.895535 0.547838 1 1 1.000000
misc
0  -2.904178 85.996529 8.217018  0.458492 -0.570545 0.681368  0.768578 0.603504 1 1 1.000000
0  -0.013770 94.034615 8.217018  0.000000 0.707085 0.707129  0.745140 0.803705 1 1 1.000000
0  -18.030647 81.124123 8.217019  -0.713871 -0.309503 0.628169  0.895535 0.547838 1 1 1.000000
misc
0  -18.030647 81.124123 8.217019  -0.713871 -0.309503 0.628169  0.895535 0.547838 1 1 1.000000
0  -17.122234 80.284531 8.217019  -0.254185 -0.736779 0.626536  0.887722 0.533189 1 1 1.000000
0  -11.231306 80.793793 8.203255  0.239440 -0.716737 0.654948  0.834986 0.536119 1 1 1.000000
misc
0  -2.904178 85.996529 8.217018  0.458492 -0.570545 0.681368  0.768578 0.603504 1 1 1.000000
0  -18.030647 81.124123 8.217019  -0.713871 -0.309503 0.628169  0.895535 0.547838 1 1 1.000000
0  -11.231306 80.793793 8.203255  0.239440 -0.716737 0.654948  0.834986 0.536119 1 1 1.000000
misc
0  -2.904178 85.996529 4.308084  0.627857 -0.687818 -0.364283  0.768578 0.657216 1 1 1.000000
0  -0.770782 88.955750 4.308084  0.821334 -0.314991 -0.475596  0.751000 0.707999 1 1 1.000000
0  -0.013770 88.955750 8.217018  0.000000 -0.444322 0.895867  0.745140 0.654286 1 1 1.000000
misc
0  -0.013770 88.955750 8.217018  0.000000 -0.444322 0.895867  0.745140 0.654286 1 1 1.000000
0  -2.904178 85.996529 8.217018  0.458492 -0.570545 0.681368  0.768578 0.603504 1 1 1.000000
0  -2.904178 85.996529 4.308084  0.627857 -0.687818 -0.364283  0.768578 0.657216 1 1 1.000000
misc
0  -18.030647 81.124123 4.308086  -0.870501 -0.346530 -0.349493  0.888699 0.572253 1 1 1.000000
0  -18.030647 81.124123 8.217019  -0.713871 -0.309503 0.628169  0.895535 0.547838 1 1 1.000000
0  -18.030647 93.139961 8.217019  -0.717273 0.297224 0.630220  0.895535 0.788080 1 1 1.000000
misc
0  -18.030647 93.139961 8.217019  -0.717273 0.297224 0.630220  0.895535 0.788080 1 1 1.000000
0  -18.030649 93.139961 4.308086  -0.875285 0.332156 -0.351496  0.888699 0.766594 1 1 1.000000
0  -18.030647 81.124123 4.308086  -0.870501 -0.346530 -0.349493  0.888699 0.572253 1 1 1.000000
misc
0  -1.362628 94.034615 4.308084  0.250684 0.871599 -0.421275  0.755882 0.782220 1 1 1.000000
0  -17.122236 94.034615 4.308086  -0.331784 0.875327 -0.351741  0.881863 0.782220 1 1 1.000000
0  -17.122234 94.034615 8.217019  -0.296757 0.717354 0.630348  0.887722 0.803705 1 1 1.000000
misc
0  -17.122234 94.034615 8.217019  -0.296757 0.717354 0.630348  0.887722 0.803705 1 1 1.000000
0  -0.013770 94.034615 8.217018  0.000000 0.707085 0.707129  0.745140 0.803705 1 1 1.000000
0  -1.362628 94.034615 4.308084  0.250684 0.871599 -0.421275  0.755882 0.782220 1 1 1.000000
misc
0  -11.231306 80.793793 4.335613  0.291204 -0.879907 -0.375452  0.834986 0.567370 1 1 1.000000
0  -2.904178 85.996529 4.308084  0.627857 -0.687818 -0.364283  0.768578 0.657216 1 1 1.000000
0  -2.904178 85.996529 8.217018  0.458492 -0.570545 0.681368  0.768578 0.603504 1 1 1.000000
misc
0  -2.904178 85.996529 8.217018  0.458492 -0.570545 0.681368  0.768578 0.603504 1 1 1.000000
0  -11.231306 80.793793 8.203255  0.239440 -0.716737 0.654948  0.834986 0.536119 1 1 1.000000
0  -11.231306 80.793793 4.335613  0.291204 -0.879907 -0.375452  0.834986 0.567370 1 1 1.000000
misc
0  -17.122234 80.284531 4.308086  -0.281278 -0.893993 -0.348797  0.881863 0.557604 1 1 1.000000
0  -11.231306 80.793793 4.335613  0.291204 -0.879907 -0.375452  0.834986 0.567370 1 1 1.000000
0  -11.231306 80.793793 8.203255  0.239440 -0.716737 0.654948  0.834986 0.536119 1 1 1.000000
misc
0  -11.231306 80.793793 8.203255  0.239440 -0.716737 0.654948  0.834986 0.536119 1 1 1.000000
0  -17.122234 80.284531 8.217019  -0.254185 -0.736779 0.626536  0.887722 0.533189 1 1 1.000000
0  -17.122234 80.284531 4.308086  -0.281278 -0.893993 -0.348797  0.881863 0.557604 1 1 1.000000
misc
0  -17.122234 80.284531 4.308086  -0.281278 -0.893993 -0.348797  0.881863 0.557604 1 1 1.000000
0  -17.122234 80.284531 8.217019  -0.254185 -0.736779 0.626536  0.887722 0.533189 1 1 1.000000
0  -18.030647 81.124123 8.217019  -0.713871 -0.309503 0.628169  0.895535 0.547838 1 1 1.000000
misc
0  -18.030647 81.124123 8.217019  -0.713871 -0.309503 0.628169  0.895535 0.547838 1 1 1.000000
0  -18.030647 81.124123 4.308086  -0.870501 -0.346530 -0.349493  0.888699 0.572253 1 1 1.000000
0  -17.122234 80.284531 4.308086  -0.281278 -0.893993 -0.348797  0.881863 0.557604 1 1 1.000000
misc
0  -18.030649 93.139961 4.308086  -0.875285 0.332156 -0.351496  0.888699 0.766594 1 1 1.000000
0  -18.030647 93.139961 8.217019  -0.717273 0.297224 0.630220  0.895535 0.788080 1 1 1.000000
0  -17.122234 94.034615 8.217019  -0.296757 0.717354 0.630348  0.887722 0.803705 1 1 1.000000
misc
0  -17.122234 94.034615 8.217019  -0.296757 0.717354 0.630348  0.887722 0.803705 1 1 1.000000
0  -17.122236 94.034615 4.308086  -0.331784 0.875327 -0.351741  0.881863 0.782220 1 1 1.000000
0  -18.030649 93.139961 4.308086  -0.875285 0.332156 -0.351496  0.888699 0.766594 1 1 1.000000
misc
0  -1.362628 94.034615 4.308084  0.250684 0.871599 -0.421275  0.755882 0.782220 1 1 1.000000
0  -1.362628 93.373947 3.606128  0.422393 0.332328 -0.843293  0.755882 0.770501 1 1 1.000000
0  -17.259874 93.263840 3.606130  -0.345099 0.345472 -0.872671  0.882839 0.768548 1 1 1.000000
misc
0  -17.259874 93.263840 3.606130  -0.345099 0.345472 -0.872671  0.882839 0.768548 1 1 1.000000
0  -17.122236 94.034615 4.308086  -0.331784 0.875327 -0.351741  0.881863 0.782220 1 1 1.000000
0  -1.362628 94.034615 4.308084  0.250684 0.871599 -0.421275  0.755882 0.782220 1 1 1.000000
misc
0  -17.122236 94.034615 4.308086  -0.331784 0.875327 -0.351741  0.881863 0.782220 1 1 1.000000
0  -17.259874 93.263840 3.606130  -0.345099 0.345472 -0.872671  0.882839 0.768548 1 1 1.000000
0  -18.030649 93.139961 4.308086  -0.875285 0.332156 -0.351496  0.888699 0.766594 1 1 1.000000
misc
0  -18.030649 93.139961 4.308086  -0.875285 0.332156 -0.351496  0.888699 0.766594 1 1 1.000000
0  -17.259874 93.263840 3.606130  -0.345099 0.345472 -0.872671  0.882839 0.768548 1 1 1.000000
0  -17.259872 81.041542 3.606130  -0.329158 -0.357939 -0.873805  0.882839 0.571276 1 1 1.000000
misc
0  -17.259872 81.041542 3.606130  -0.329158 -0.357939 -0.873805  0.882839 0.571276 1 1 1.000000
0  -18.030647 81.124123 4.308086  -0.870501 -0.346530 -0.349493  0.888699 0.572253 1 1 1.000000
0  -18.030649 93.139961 4.308086  -0.875285 0.332156 -0.351496  0.888699 0.766594 1 1 1.000000
misc
0  -18.030647 81.124123 4.308086  -0.870501 -0.346530 -0.349493  0.888699 0.572253 1 1 1.000000
0  -17.259872 81.041542 3.606130  -0.329158 -0.357939 -0.873805  0.882839 0.571276 1 1 1.000000
0  -17.122234 80.284531 4.308086  -0.281278 -0.893993 -0.348797  0.881863 0.557604 1 1 1.000000
misc
0  -17.122234 80.284531 4.308086  -0.281278 -0.893993 -0.348797  0.881863 0.557604 1 1 1.000000
0  -17.259872 81.041542 3.606130  -0.329158 -0.357939 -0.873805  0.882839 0.571276 1 1 1.000000
0  -11.465292 81.509506 3.633657  0.128779 -0.392480 -0.910700  0.836940 0.579089 1 1 1.000000
misc
0  -11.465292 81.509506 3.633657  0.128779 -0.392480 -0.910700  0.836940 0.579089 1 1 1.000000
0  -11.231306 80.793793 4.335613  0.291204 -0.879907 -0.375452  0.834986 0.567370 1 1 1.000000
0  -17.122234 80.284531 4.308086  -0.281278 -0.893993 -0.348797  0.881863 0.557604 1 1 1.000000
misc
0  -11.231306 80.793793 4.335613  0.291204 -0.879907 -0.375452  0.834986 0.567370 1 1 1.000000
0  -11.465292 81.509506 3.633657  0.128779 -0.392480 -0.910700  0.836940 0.579089 1 1 1.000000
0  -3.454732 86.340622 3.606129  0.302377 -0.335395 -0.892232  0.772485 0.663076 1 1 1.000000
misc
0  -3.454732 86.340622 3.606129  0.302377 -0.335395 -0.892232  0.772485 0.663076 1 1 1.000000
0  -2.904178 85.996529 4.308084  0.627857 -0.687818 -0.364283  0.768578 0.657216 1 1 1.000000
0  -11.231306 80.793793 4.335613  0.291204 -0.879907 -0.375452  0.834986 0.567370 1 1 1.000000
misc
0  -2.904178 85.996529 4.308084  0.627857 -0.687818 -0.364283  0.768578 0.657216 1 1 1.000000
0  -3.454732 86.340622 3.606129  0.302377 -0.335395 -0.892232  0.772485 0.663076 1 1 1.000000
0  -1.183697 89.616417 3.606128  0.530443 -0.076269 -0.844283  0.753929 0.719718 1 1 1.000000
misc
0  -1.183697 89.616417 3.606128  0.530443 -0.076269 -0.844283  0.753929 0.719718 1 1 1.000000
0  -0.770782 88.955750 4.308084  0.821334 -0.314991 -0.475596  0.751000 0.707999 1 1 1.000000
0  -2.904178 85.996529 4.308084  0.627857 -0.687818 -0.364283  0.768578 0.657216 1 1 1.000000
misc
0  3.427192 86.340622 3.606128  -0.302376 -0.335394 -0.892233  0.717795 0.663076 1 1 1.000000
0  1.156157 89.616417 3.606128  -0.530032 -0.076685 -0.844503  0.735374 0.719718 1 1 1.000000
0  1.335086 93.373947 3.606128  -0.422319 0.332062 -0.843434  0.734397 0.770501 1 1 1.000000
misc
0  3.427192 86.340622 3.606128  -0.302376 -0.335394 -0.892233  0.717795 0.663076 1 1 1.000000
0  1.335086 93.373947 3.606128  -0.422319 0.332062 -0.843434  0.734397 0.770501 1 1 1.000000
0  17.232330 93.263840 3.606127  0.345099 0.345472 -0.872672  0.607440 0.768548 1 1 1.000000
misc
0  17.232330 93.263840 3.606127  0.345099 0.345472 -0.872672  0.607440 0.768548 1 1 1.000000
0  17.232332 81.041542 3.606127  0.329111 -0.357916 -0.873832  0.607440 0.571276 1 1 1.000000
0  11.437753 81.509506 3.633655  -0.128848 -0.392550 -0.910661  0.653340 0.579089 1 1 1.000000
misc
0  3.427192 86.340622 3.606128  -0.302376 -0.335394 -0.892233  0.717795 0.663076 1 1 1.000000
0  17.232330 93.263840 3.606127  0.345099 0.345472 -0.872672  0.607440 0.768548 1 1 1.000000
0  11.437753 81.509506 3.633655  -0.128848 -0.392550 -0.910661  0.653340 0.579089 1 1 1.000000
misc
0  -0.013770 94.034615 8.217018  0.000000 0.707085 0.707129  0.745140 0.803705 1 1 1.000000
0  -0.013770 88.955750 8.217018  0.000000 -0.444322 0.895867  0.745140 0.654286 1 1 1.000000
0  2.876638 85.996529 8.217018  -0.458393 -0.570602 0.681388  0.721702 0.603504 1 1 1.000000
misc
0  11.203767 80.793793 8.203253  -0.239261 -0.716305 0.655485  0.655293 0.536119 1 1 1.000000
0  17.094696 80.284531 8.217017  0.254128 -0.736778 0.626559  0.599628 0.533189 1 1 1.000000
0  18.003109 81.124123 8.217017  0.713871 -0.309503 0.628169  0.592792 0.547838 1 1 1.000000
misc
0  2.876638 85.996529 8.217018  -0.458393 -0.570602 0.681388  0.721702 0.603504 1 1 1.000000
0  11.203767 80.793793 8.203253  -0.239261 -0.716305 0.655485  0.655293 0.536119 1 1 1.000000
0  18.003109 81.124123 8.217017  0.713871 -0.309503 0.628169  0.592792 0.547838 1 1 1.000000
misc
0  -0.013770 94.034615 8.217018  0.000000 0.707085 0.707129  0.745140 0.803705 1 1 1.000000
0  2.876638 85.996529 8.217018  -0.458393 -0.570602 0.681388  0.721702 0.603504 1 1 1.000000
0  18.003109 81.124123 8.217017  0.713871 -0.309503 0.628169  0.592792 0.547838 1 1 1.000000
misc
0  18.003109 81.124123 8.217017  0.713871 -0.309503 0.628169  0.592792 0.547838 1 1 1.000000
0  18.003109 93.139961 8.217017  0.717199 0.297403 0.630220  0.592792 0.788080 1 1 1.000000
0  17.094696 94.034615 8.217017  0.297087 0.717283 0.630274  0.599628 0.803705 1 1 1.000000
misc
0  -0.013770 94.034615 8.217018  0.000000 0.707085 0.707129  0.745140 0.803705 1 1 1.000000
0  18.003109 81.124123 8.217017  0.713871 -0.309503 0.628169  0.592792 0.547838 1 1 1.000000
0  17.094696 94.034615 8.217017  0.297087 0.717283 0.630274  0.599628 0.803705 1 1 1.000000
misc
0  2.876638 85.996529 4.308084  -0.627857 -0.687818 -0.364283  0.721702 0.657216 1 1 1.000000
0  2.876638 85.996529 8.217018  -0.458393 -0.570602 0.681388  0.721702 0.603504 1 1 1.000000
0  -0.013770 88.955750 8.217018  0.000000 -0.444322 0.895867  0.745140 0.654286 1 1 1.000000
misc
0  -0.013770 88.955750 8.217018  0.000000 -0.444322 0.895867  0.745140 0.654286 1 1 1.000000
0  0.743241 88.955750 4.308084  -0.821383 -0.314898 -0.475573  0.739280 0.707999 1 1 1.000000
0  2.876638 85.996529 4.308084  -0.627857 -0.687818 -0.364283  0.721702 0.657216 1 1 1.000000
misc
0  18.003109 81.124123 4.308083  0.870501 -0.346529 -0.349494  0.601581 0.572253 1 1 1.000000
0  18.003107 93.139961 4.308083  0.875310 0.332043 -0.351538  0.601581 0.766594 1 1 1.000000
0  18.003109 93.139961 8.217017  0.717199 0.297403 0.630220  0.592792 0.788080 1 1 1.000000
misc
0  18.003109 93.139961 8.217017  0.717199 0.297403 0.630220  0.592792 0.788080 1 1 1.000000
0  18.003109 81.124123 8.217017  0.713871 -0.309503 0.628169  0.592792 0.547838 1 1 1.000000
0  18.003109 81.124123 4.308083  0.870501 -0.346529 -0.349494  0.601581 0.572253 1 1 1.000000
misc
0  17.094694 94.034615 4.308083  0.331798 0.875313 -0.351764  0.608417 0.782220 1 1 1.000000
0  1.335086 94.034615 4.308084  -0.250748 0.871766 -0.420891  0.734397 0.782220 1 1 1.000000
0  -0.013770 94.034615 8.217018  0.000000 0.707085 0.707129  0.745140 0.803705 1 1 1.000000
misc
0  -0.013770 94.034615 8.217018  0.000000 0.707085 0.707129  0.745140 0.803705 1 1 1.000000
0  17.094696 94.034615 8.217017  0.297087 0.717283 0.630274  0.599628 0.803705 1 1 1.000000
0  17.094694 94.034615 4.308083  0.331798 0.875313 -0.351764  0.608417 0.782220 1 1 1.000000
misc
0  11.203767 80.793793 4.335611  -0.291285 -0.879706 -0.375860  0.655293 0.567370 1 1 1.000000
0  11.203767 80.793793 8.203253  -0.239261 -0.716305 0.655485  0.655293 0.536119 1 1 1.000000
0  2.876638 85.996529 8.217018  -0.458393 -0.570602 0.681388  0.721702 0.603504 1 1 1.000000
misc
0  2.876638 85.996529 8.217018  -0.458393 -0.570602 0.681388  0.721702 0.603504 1 1 1.000000
0  2.876638 85.996529 4.308084  -0.627857 -0.687818 -0.364283  0.721702 0.657216 1 1 1.000000
0  11.203767 80.793793 4.335611  -0.291285 -0.879706 -0.375860  0.655293 0.567370 1 1 1.000000
misc
0  17.094696 80.284531 4.308083  0.280969 -0.894015 -0.348989  0.608417 0.557604 1 1 1.000000
0  17.094696 80.284531 8.217017  0.254128 -0.736778 0.626559  0.599628 0.533189 1 1 1.000000
0  11.203767 80.793793 8.203253  -0.239261 -0.716305 0.655485  0.655293 0.536119 1 1 1.000000
misc
0  11.203767 80.793793 8.203253  -0.239261 -0.716305 0.655485  0.655293 0.536119 1 1 1.000000
0  11.203767 80.793793 4.335611  -0.291285 -0.879706 -0.375860  0.655293 0.567370 1 1 1.000000
0  17.094696 80.284531 4.308083  0.280969 -0.894015 -0.348989  0.608417 0.557604 1 1 1.000000
misc
0  -0.770782 88.955750 4.308084  0.821334 -0.314991 -0.475596  0.751000 0.707999 1 1 1.000000
0  -0.013770 88.955750 5.877163  0.000000 -0.963236 -0.268658  0.745140 0.707999 1 1 1.000000
0  -0.013770 88.955750 8.217018  0.000000 -0.444322 0.895867  0.745140 0.654286 1 1 1.000000
misc
0  17.094696 80.284531 4.308083  0.280969 -0.894015 -0.348989  0.608417 0.557604 1 1 1.000000
0  18.003109 81.124123 4.308083  0.870501 -0.346529 -0.349494  0.601581 0.572253 1 1 1.000000
0  18.003109 81.124123 8.217017  0.713871 -0.309503 0.628169  0.592792 0.547838 1 1 1.000000
misc
0  18.003109 81.124123 8.217017  0.713871 -0.309503 0.628169  0.592792 0.547838 1 1 1.000000
0  17.094696 80.284531 8.217017  0.254128 -0.736778 0.626559  0.599628 0.533189 1 1 1.000000
0  17.094696 80.284531 4.308083  0.280969 -0.894015 -0.348989  0.608417 0.557604 1 1 1.000000
misc
0  18.003107 93.139961 4.308083  0.875310 0.332043 -0.351538  0.601581 0.766594 1 1 1.000000
0  17.094694 94.034615 4.308083  0.331798 0.875313 -0.351764  0.608417 0.782220 1 1 1.000000
0  17.094696 94.034615 8.217017  0.297087 0.717283 0.630274  0.599628 0.803705 1 1 1.000000
misc
0  17.094696 94.034615 8.217017  0.297087 0.717283 0.630274  0.599628 0.803705 1 1 1.000000
0  18.003109 93.139961 8.217017  0.717199 0.297403 0.630220  0.592792 0.788080 1 1 1.000000
0  18.003107 93.139961 4.308083  0.875310 0.332043 -0.351538  0.601581 0.766594 1 1 1.000000
misc
0  1.335086 94.034615 4.308084  -0.250748 0.871766 -0.420891  0.734397 0.782220 1 1 1.000000
0  17.094694 94.034615 4.308083  0.331798 0.875313 -0.351764  0.608417 0.782220 1 1 1.000000
0  17.232330 93.263840 3.606127  0.345099 0.345472 -0.872672  0.607440 0.768548 1 1 1.000000
misc
0  17.232330 93.263840 3.606127  0.345099 0.345472 -0.872672  0.607440 0.768548 1 1 1.000000
0  1.335086 93.373947 3.606128  -0.422319 0.332062 -0.843434  0.734397 0.770501 1 1 1.000000
0  1.335086 94.034615 4.308084  -0.250748 0.871766 -0.420891  0.734397 0.782220 1 1 1.000000
misc
0  17.094694 94.034615 4.308083  0.331798 0.875313 -0.351764  0.608417 0.782220 1 1 1.000000
0  18.003107 93.139961 4.308083  0.875310 0.332043 -0.351538  0.601581 0.766594 1 1 1.000000
0  17.232330 93.263840 3.606127  0.345099 0.345472 -0.872672  0.607440 0.768548 1 1 1.000000
misc
0  18.003107 93.139961 4.308083  0.875310 0.332043 -0.351538  0.601581 0.766594 1 1 1.000000
0  18.003109 81.124123 4.308083  0.870501 -0.346529 -0.349494  0.601581 0.572253 1 1 1.000000
0  17.232332 81.041542 3.606127  0.329111 -0.357916 -0.873832  0.607440 0.571276 1 1 1.000000
misc
0  17.232332 81.041542 3.606127  0.329111 -0.357916 -0.873832  0.607440 0.571276 1 1 1.000000
0  17.232330 93.263840 3.606127  0.345099 0.345472 -0.872672  0.607440 0.768548 1 1 1.000000
0  18.003107 93.139961 4.308083  0.875310 0.332043 -0.351538  0.601581 0.766594 1 1 1.000000
misc
0  18.003109 81.124123 4.308083  0.870501 -0.346529 -0.349494  0.601581 0.572253 1 1 1.000000
0  17.094696 80.284531 4.308083  0.280969 -0.894015 -0.348989  0.608417 0.557604 1 1 1.000000
0  17.232332 81.041542 3.606127  0.329111 -0.357916 -0.873832  0.607440 0.571276 1 1 1.000000
misc
0  17.094696 80.284531 4.308083  0.280969 -0.894015 -0.348989  0.608417 0.557604 1 1 1.000000
0  11.203767 80.793793 4.335611  -0.291285 -0.879706 -0.375860  0.655293 0.567370 1 1 1.000000
0  11.437753 81.509506 3.633655  -0.128848 -0.392550 -0.910661  0.653340 0.579089 1 1 1.000000
misc
0  11.437753 81.509506 3.633655  -0.128848 -0.392550 -0.910661  0.653340 0.579089 1 1 1.000000
0  17.232332 81.041542 3.606127  0.329111 -0.357916 -0.873832  0.607440 0.571276 1 1 1.000000
0  17.094696 80.284531 4.308083  0.280969 -0.894015 -0.348989  0.608417 0.557604 1 1 1.000000
misc
0  11.203767 80.793793 4.335611  -0.291285 -0.879706 -0.375860  0.655293 0.567370 1 1 1.000000
0  2.876638 85.996529 4.308084  -0.627857 -0.687818 -0.364283  0.721702 0.657216 1 1 1.000000
0  3.427192 86.340622 3.606128  -0.302376 -0.335394 -0.892233  0.717795 0.663076 1 1 1.000000
misc
0  3.427192 86.340622 3.606128  -0.302376 -0.335394 -0.892233  0.717795 0.663076 1 1 1.000000
0  11.437753 81.509506 3.633655  -0.128848 -0.392550 -0.910661  0.653340 0.579089 1 1 1.000000
0  11.203767 80.793793 4.335611  -0.291285 -0.879706 -0.375860  0.655293 0.567370 1 1 1.000000
misc
0  2.876638 85.996529 4.308084  -0.627857 -0.687818 -0.364283  0.721702 0.657216 1 1 1.000000
0  0.743241 88.955750 4.308084  -0.821383 -0.314898 -0.475573  0.739280 0.707999 1 1 1.000000
0  1.156157 89.616417 3.606128  -0.530032 -0.076685 -0.844503  0.735374 0.719718 1 1 1.000000
misc
0  1.156157 89.616417 3.606128  -0.530032 -0.076685 -0.844503  0.735374 0.719718 1 1 1.000000
0  3.427192 86.340622 3.606128  -0.302376 -0.335394 -0.892233  0.717795 0.663076 1 1 1.000000
0  2.876638 85.996529 4.308084  -0.627857 -0.687818 -0.364283  0.721702 0.657216 1 1 1.000000
misc
0  0.743241 88.955750 4.308084  -0.821383 -0.314898 -0.475573  0.739280 0.707999 1 1 1.000000
0  -0.013770 88.955750 5.877163  0.000000 -0.963236 -0.268658  0.745140 0.707999 1 1 1.000000
0  1.156157 89.616417 3.606128  -0.530032 -0.076685 -0.844503  0.735374 0.719718 1 1 1.000000
misc
0  -1.362628 94.034615 4.308084  0.250684 0.871599 -0.421275  0.755882 0.782220 1 1 1.000000
0  -0.013770 94.034615 8.217018  0.000000 0.707085 0.707129  0.745140 0.803705 1 1 1.000000
0  -0.013771 94.034615 5.877163  -0.000019 0.951645 -0.307199  0.745140 0.782220 1 1 1.000000
misc
0  1.335086 94.034615 4.308084  -0.250748 0.871766 -0.420891  0.734397 0.782220 1 1 1.000000
0  1.335086 93.373947 3.606128  -0.422319 0.332062 -0.843434  0.734397 0.770501 1 1 1.000000
0  -0.013771 94.034615 5.877163  -0.000019 0.951645 -0.307199  0.745140 0.782220 1 1 1.000000
misc
0  -1.362628 93.373947 3.606128  0.422393 0.332328 -0.843293  0.755882 0.770501 1 1 1.000000
0  -1.183697 89.616417 3.606128  0.530443 -0.076269 -0.844283  0.753929 0.719718 1 1 1.000000
0  -3.454732 86.340622 3.606129  0.302377 -0.335395 -0.892232  0.772485 0.663076 1 1 1.000000
misc
0  -11.465292 81.509506 3.633657  0.128779 -0.392480 -0.910700  0.836940 0.579089 1 1 1.000000
0  -17.259872 81.041542 3.606130  -0.329158 -0.357939 -0.873805  0.882839 0.571276 1 1 1.000000
0  -17.259874 93.263840 3.606130  -0.345099 0.345472 -0.872671  0.882839 0.768548 1 1 1.000000
misc
0  -3.454732 86.340622 3.606129  0.302377 -0.335395 -0.892232  0.772485 0.663076 1 1 1.000000
0  -11.465292 81.509506 3.633657  0.128779 -0.392480 -0.910700  0.836940 0.579089 1 1 1.000000
0  -17.259874 93.263840 3.606130  -0.345099 0.345472 -0.872671  0.882839 0.768548 1 1 1.000000
misc
0  -1.362628 93.373947 3.606128  0.422393 0.332328 -0.843293  0.755882 0.770501 1 1 1.000000
0  -3.454732 86.340622 3.606129  0.302377 -0.335395 -0.892232  0.772485 0.663076 1 1 1.000000
0  -17.259874 93.263840 3.606130  -0.345099 0.345472 -0.872671  0.882839 0.768548 1 1 1.000000
misc
0  -0.013770 88.955750 5.877163  0.000000 -0.963236 -0.268658  0.745140 0.707999 1 1 1.000000
0  -0.013771 94.034615 5.877163  -0.000019 0.951645 -0.307199  0.745140 0.782220 1 1 1.000000
0  1.335086 93.373947 3.606128  -0.422319 0.332062 -0.843434  0.734397 0.770501 1 1 1.000000
misc
0  1.335086 93.373947 3.606128  -0.422319 0.332062 -0.843434  0.734397 0.770501 1 1 1.000000
0  1.156157 89.616417 3.606128  -0.530032 -0.076685 -0.844503  0.735374 0.719718 1 1 1.000000
0  -0.013770 88.955750 5.877163  0.000000 -0.963236 -0.268658  0.745140 0.707999 1 1 1.000000
misc
0  -0.013771 94.034615 5.877163  -0.000019 0.951645 -0.307199  0.745140 0.782220 1 1 1.000000
0  -1.362628 93.373947 3.606128  0.422393 0.332328 -0.843293  0.755882 0.770501 1 1 1.000000
0  -1.362628 94.034615 4.308084  0.250684 0.871599 -0.421275  0.755882 0.782220 1 1 1.000000
misc
0  -0.013770 88.955750 5.877163  0.000000 -0.963236 -0.268658  0.745140 0.707999 1 1 1.000000
0  -1.183697 89.616417 3.606128  0.530443 -0.076269 -0.844283  0.753929 0.719718 1 1 1.000000
0  -1.362628 93.373947 3.606128  0.422393 0.332328 -0.843293  0.755882 0.770501 1 1 1.000000
misc
0  -1.362628 93.373947 3.606128  0.422393 0.332328 -0.843293  0.755882 0.770501 1 1 1.000000
0  -0.013771 94.034615 5.877163  -0.000019 0.951645 -0.307199  0.745140 0.782220 1 1 1.000000
0  -0.013770 88.955750 5.877163  0.000000 -0.963236 -0.268658  0.745140 0.707999 1 1 1.000000
misc
0  -0.013770 94.034615 8.217018  0.000000 0.707085 0.707129  0.745140 0.803705 1 1 1.000000
0  1.335086 94.034615 4.308084  -0.250748 0.871766 -0.420891  0.734397 0.782220 1 1 1.000000
0  -0.013771 94.034615 5.877163  -0.000019 0.951645 -0.307199  0.745140 0.782220 1 1 1.000000
misc
0  -0.013770 88.955750 5.877163  0.000000 -0.963236 -0.268658  0.745140 0.707999 1 1 1.000000
0  0.743241 88.955750 4.308084  -0.821383 -0.314898 -0.475573  0.739280 0.707999 1 1 1.000000
0  -0.013770 88.955750 8.217018  0.000000 -0.444322 0.895867  0.745140 0.654286 1 1 1.000000
misc
0  -0.013770 88.955750 5.877163  0.000000 -0.963236 -0.268658  0.745140 0.707999 1 1 1.000000
0  -0.770782 88.955750 4.308084  0.821334 -0.314991 -0.475596  0.751000 0.707999 1 1 1.000000
0  -1.183697 89.616417 3.606128  0.530443 -0.076269 -0.844283  0.753929 0.719718 1 1 1.000000
exhaust
0  -14.163005 76.430649 4.046573  -0.137065 -0.068691 -0.988177  0.092776 0.489242 1 1 1.000000
0  -14.754851 81.481979 4.032808  -0.056526 -0.015010 -0.998288  0.092776 0.266579 1 1 1.000000
0  -13.529870 81.481979 5.257791  0.993265 0.115764 -0.004905  0.013672 0.266579 1 1 1.000000
exhaust
0  -13.529870 81.481979 5.257791  0.993265 0.115764 -0.004905  0.013672 0.266579 1 1 1.000000
0  -12.979315 76.430649 5.285319  0.884214 0.465225 0.041612  0.013672 0.489242 1 1 1.000000
0  -14.163005 76.430649 4.046573  -0.137065 -0.068691 -0.988177  0.092776 0.489242 1 1 1.000000
exhaust
0  -14.163005 76.430649 6.524065  -0.095824 -0.167783 0.981156  0.092776 0.489242 1 1 1.000000
0  -12.979315 76.430649 5.285319  0.884214 0.465225 0.041612  0.013672 0.489242 1 1 1.000000
0  -13.529870 81.481979 5.257791  0.993265 0.115764 -0.004905  0.013672 0.266579 1 1 1.000000
exhaust
0  -13.529870 81.481979 5.257791  0.993265 0.115764 -0.004905  0.013672 0.266579 1 1 1.000000
0  -14.754851 81.481979 6.496537  -0.053250 -0.004763 0.998570  0.092776 0.266579 1 1 1.000000
0  -14.163005 76.430649 6.524065  -0.095824 -0.167783 0.981156  0.092776 0.489242 1 1 1.000000
exhaust
0  -15.346698 76.416885 5.285319  -0.929711 -0.367976 0.015201  0.166997 0.489242 1 1 1.000000
0  -14.163005 76.430649 6.524065  -0.095824 -0.167783 0.981156  0.092776 0.489242 1 1 1.000000
0  -14.754851 81.481979 6.496537  -0.053250 -0.004763 0.998570  0.092776 0.266579 1 1 1.000000
exhaust
0  -14.754851 81.481979 6.496537  -0.053250 -0.004763 0.998570  0.092776 0.266579 1 1 1.000000
0  -15.993599 81.481979 5.271555  -0.992051 -0.125839 -0.000275  0.166997 0.266579 1 1 1.000000
0  -15.346698 76.416885 5.285319  -0.929711 -0.367976 0.015201  0.166997 0.489242 1 1 1.000000
exhaust
0  -15.346698 76.416885 5.285319  -0.929711 -0.367976 0.015201  0.166997 0.489242 1 1 1.000000
0  -15.993599 81.481979 5.271555  -0.992051 -0.125839 -0.000275  0.166997 0.266579 1 1 1.000000
0  -14.754851 81.481979 4.032808  -0.056526 -0.015010 -0.998288  0.092776 0.266579 1 1 1.000000
exhaust
0  -14.754851 81.481979 4.032808  -0.056526 -0.015010 -0.998288  0.092776 0.266579 1 1 1.000000
0  -14.163005 76.430649 4.046573  -0.137065 -0.068691 -0.988177  0.092776 0.489242 1 1 1.000000
0  -15.346698 76.416885 5.285319  -0.929711 -0.367976 0.015201  0.166997 0.489242 1 1 1.000000
exhaust
0  -6.427720 40.823578 0.633138  0.128348 0.103375 -0.986327  0.092776 0.625965 1 1 1.000000
0  -5.395432 41.346603 1.858120  0.894705 0.446628 0.005183  0.013672 0.625965 1 1 1.000000
0  -4.487017 33.776485 1.555315  0.993605 0.112098 -0.013537  0.013672 0.774407 1 1 1.000000
exhaust
0  -4.487017 33.776485 1.555315  0.993605 0.112098 -0.013537  0.013672 0.774407 1 1 1.000000
0  -5.725763 33.693901 0.330333  0.004983 0.053323 -0.998565  0.092776 0.774407 1 1 1.000000
0  -6.427720 40.823578 0.633138  0.128348 0.103375 -0.986327  0.092776 0.625965 1 1 1.000000
exhaust
0  -5.395432 41.346603 1.858120  0.894705 0.446628 0.005183  0.013672 0.625965 1 1 1.000000
0  -6.427720 40.823578 3.096866  0.158416 0.046682 0.986268  0.092776 0.625965 1 1 1.000000
0  -5.725763 33.693901 2.794062  0.021852 -0.030177 0.999306  0.092776 0.774407 1 1 1.000000
exhaust
0  -5.725763 33.693901 2.794062  0.021852 -0.030177 0.999306  0.092776 0.774407 1 1 1.000000
0  -4.487017 33.776485 1.555315  0.993605 0.112098 -0.013537  0.013672 0.774407 1 1 1.000000
0  -5.395432 41.346603 1.858120  0.894705 0.446628 0.005183  0.013672 0.625965 1 1 1.000000
exhaust
0  -6.427720 40.823578 3.096866  0.158416 0.046682 0.986268  0.092776 0.625965 1 1 1.000000
0  -7.473773 40.300549 1.858120  -0.901981 -0.431765 0.003037  0.166997 0.625965 1 1 1.000000
0  -6.950746 33.611317 1.555315  -0.996148 -0.084067 -0.024953  0.166997 0.774407 1 1 1.000000
exhaust
0  -6.950746 33.611317 1.555315  -0.996148 -0.084067 -0.024953  0.166997 0.774407 1 1 1.000000
0  -5.725763 33.693901 2.794062  0.021852 -0.030177 0.999306  0.092776 0.774407 1 1 1.000000
0  -6.427720 40.823578 3.096866  0.158416 0.046682 0.986268  0.092776 0.625965 1 1 1.000000
exhaust
0  -7.473773 40.300549 1.858120  -0.901981 -0.431765 0.003037  0.166997 0.625965 1 1 1.000000
0  -6.427720 40.823578 0.633138  0.128348 0.103375 -0.986327  0.092776 0.625965 1 1 1.000000
0  -5.725763 33.693901 0.330333  0.004983 0.053323 -0.998565  0.092776 0.774407 1 1 1.000000
exhaust
0  -5.725763 33.693901 0.330333  0.004983 0.053323 -0.998565  0.092776 0.774407 1 1 1.000000
0  -6.950746 33.611317 1.555315  -0.996148 -0.084067 -0.024953  0.166997 0.774407 1 1 1.000000
0  -7.473773 40.300549 1.858120  -0.901981 -0.431765 0.003037  0.166997 0.625965 1 1 1.000000
exhaust
0  -6.427720 40.823578 0.633138  0.128348 0.103375 -0.986327  0.092776 0.625965 1 1 1.000000
0  -14.713558 48.682732 0.867124  -0.127616 -0.055480 -0.990271  0.092776 0.610340 1 1 1.000000
0  -13.708797 49.164467 2.092106  0.868848 0.495073 -0.002298  0.013672 0.610340 1 1 1.000000
exhaust
0  -13.708797 49.164467 2.092106  0.868848 0.495073 -0.002298  0.013672 0.610340 1 1 1.000000
0  -5.395432 41.346603 1.858120  0.894705 0.446628 0.005183  0.013672 0.625965 1 1 1.000000
0  -6.427720 40.823578 0.633138  0.128348 0.103375 -0.986327  0.092776 0.625965 1 1 1.000000
exhaust
0  -14.094185 51.077641 2.160925  0.979500 -0.200246 -0.021946  0.013672 0.593738 1 1 1.000000
0  -5.409197 65.598503 3.730004  0.977695 -0.209608 -0.013297  0.013672 0.561510 1 1 1.000000
0  -6.579124 65.749908 4.968750  0.117112 -0.163735 0.979528  0.092776 0.561510 1 1 1.000000
exhaust
0  -6.579124 65.749908 4.968750  0.117112 -0.163735 0.979528  0.092776 0.561510 1 1 1.000000
0  -15.209056 51.022583 3.399672  -0.174838 0.002852 0.984593  0.092776 0.593738 1 1 1.000000
0  -14.094185 51.077641 2.160925  0.979500 -0.200246 -0.021946  0.013672 0.593738 1 1 1.000000
exhaust
0  -15.209056 51.022583 3.399672  -0.174838 0.002852 0.984593  0.092776 0.593738 1 1 1.000000
0  -6.579124 65.749908 4.968750  0.117112 -0.163735 0.979528  0.092776 0.561510 1 1 1.000000
0  -7.749052 65.915070 3.730004  -0.972258 0.233423 -0.015069  0.166997 0.561510 1 1 1.000000
exhaust
0  -7.749052 65.915070 3.730004  -0.972258 0.233423 -0.015069  0.166997 0.561510 1 1 1.000000
0  -16.323929 50.981293 2.160925  -0.991578 0.129245 -0.008234  0.166997 0.593738 1 1 1.000000
0  -15.209056 51.022583 3.399672  -0.174838 0.002852 0.984593  0.092776 0.593738 1 1 1.000000
exhaust
0  -7.473773 40.300549 1.858120  -0.901981 -0.431765 0.003037  0.166997 0.625965 1 1 1.000000
0  -15.718320 48.214764 2.092106  -0.876021 -0.482270 -0.001739  0.166997 0.610340 1 1 1.000000
0  -14.713558 48.682732 0.867124  -0.127616 -0.055480 -0.990271  0.092776 0.610340 1 1 1.000000
exhaust
0  -14.713558 48.682732 0.867124  -0.127616 -0.055480 -0.990271  0.092776 0.610340 1 1 1.000000
0  -6.427720 40.823578 0.633138  0.128348 0.103375 -0.986327  0.092776 0.625965 1 1 1.000000
0  -7.473773 40.300549 1.858120  -0.901981 -0.431765 0.003037  0.166997 0.625965 1 1 1.000000
exhaust
0  -14.163005 76.430649 4.046573  -0.137065 -0.068691 -0.988177  0.092776 0.489242 1 1 1.000000
0  -12.979315 76.430649 5.285319  0.884214 0.465225 0.041612  0.013672 0.489242 1 1 1.000000
0  -5.643182 68.378807 4.101627  0.929185 0.369242 0.016622  0.013672 0.550768 1 1 1.000000
exhaust
0  -5.643182 68.378807 4.101627  0.929185 0.369242 0.016622  0.013672 0.550768 1 1 1.000000
0  -6.799346 68.144806 2.862881  0.090293 0.205134 -0.974560  0.092776 0.550768 1 1 1.000000
0  -14.163005 76.430649 4.046573  -0.137065 -0.068691 -0.988177  0.092776 0.489242 1 1 1.000000
exhaust
0  -12.979315 76.430649 5.285319  0.884214 0.465225 0.041612  0.013672 0.489242 1 1 1.000000
0  -14.163005 76.430649 6.524065  -0.095824 -0.167783 0.981156  0.092776 0.489242 1 1 1.000000
0  -6.799346 68.144806 5.326610  0.154895 -0.031506 0.987428  0.092776 0.550768 1 1 1.000000
exhaust
0  -6.799346 68.144806 5.326610  0.154895 -0.031506 0.987428  0.092776 0.550768 1 1 1.000000
0  -5.643182 68.378807 4.101627  0.929185 0.369242 0.016622  0.013672 0.550768 1 1 1.000000
0  -12.979315 76.430649 5.285319  0.884214 0.465225 0.041612  0.013672 0.489242 1 1 1.000000
exhaust
0  -6.799346 68.144806 5.326610  0.154895 -0.031506 0.987428  0.092776 0.550768 1 1 1.000000
0  -14.163005 76.430649 6.524065  -0.095824 -0.167783 0.981156  0.092776 0.489242 1 1 1.000000
0  -15.346698 76.416885 5.285319  -0.929711 -0.367976 0.015201  0.166997 0.489242 1 1 1.000000
exhaust
0  -15.346698 76.416885 5.285319  -0.929711 -0.367976 0.015201  0.166997 0.489242 1 1 1.000000
0  -7.955509 67.910828 4.101627  -0.898499 -0.438951 0.004665  0.166997 0.550768 1 1 1.000000
0  -6.799346 68.144806 5.326610  0.154895 -0.031506 0.987428  0.092776 0.550768 1 1 1.000000
exhaust
0  -7.955509 67.910828 4.101627  -0.898499 -0.438951 0.004665  0.166997 0.550768 1 1 1.000000
0  -15.346698 76.416885 5.285319  -0.929711 -0.367976 0.015201  0.166997 0.489242 1 1 1.000000
0  -14.163005 76.430649 4.046573  -0.137065 -0.068691 -0.988177  0.092776 0.489242 1 1 1.000000
exhaust
0  -14.163005 76.430649 4.046573  -0.137065 -0.068691 -0.988177  0.092776 0.489242 1 1 1.000000
0  -6.799346 68.144806 2.862881  0.090293 0.205134 -0.974560  0.092776 0.550768 1 1 1.000000
0  -7.955509 67.910828 4.101627  -0.898499 -0.438951 0.004665  0.166997 0.550768 1 1 1.000000
exhaust
0  -5.409197 65.598503 3.730004  0.977695 -0.209608 -0.013297  0.013672 0.561510 1 1 1.000000
0  -6.579124 65.749908 2.505021  0.150278 0.073322 -0.985921  0.092776 0.561510 1 1 1.000000
0  -6.799346 68.144806 2.862881  0.090293 0.205134 -0.974560  0.092776 0.550768 1 1 1.000000
exhaust
0  -6.799346 68.144806 2.862881  0.090293 0.205134 -0.974560  0.092776 0.550768 1 1 1.000000
0  -5.643182 68.378807 4.101627  0.929185 0.369242 0.016622  0.013672 0.550768 1 1 1.000000
0  -5.409197 65.598503 3.730004  0.977695 -0.209608 -0.013297  0.013672 0.561510 1 1 1.000000
exhaust
0  -6.579124 65.749908 4.968750  0.117112 -0.163735 0.979528  0.092776 0.561510 1 1 1.000000
0  -5.409197 65.598503 3.730004  0.977695 -0.209608 -0.013297  0.013672 0.561510 1 1 1.000000
0  -5.643182 68.378807 4.101627  0.929185 0.369242 0.016622  0.013672 0.550768 1 1 1.000000
exhaust
0  -5.643182 68.378807 4.101627  0.929185 0.369242 0.016622  0.013672 0.550768 1 1 1.000000
0  -6.799346 68.144806 5.326610  0.154895 -0.031506 0.987428  0.092776 0.550768 1 1 1.000000
0  -6.579124 65.749908 4.968750  0.117112 -0.163735 0.979528  0.092776 0.561510 1 1 1.000000
exhaust
0  -7.749052 65.915070 3.730004  -0.972258 0.233423 -0.015069  0.166997 0.561510 1 1 1.000000
0  -6.579124 65.749908 4.968750  0.117112 -0.163735 0.979528  0.092776 0.561510 1 1 1.000000
0  -6.799346 68.144806 5.326610  0.154895 -0.031506 0.987428  0.092776 0.550768 1 1 1.000000
exhaust
0  -6.799346 68.144806 5.326610  0.154895 -0.031506 0.987428  0.092776 0.550768 1 1 1.000000
0  -7.955509 67.910828 4.101627  -0.898499 -0.438951 0.004665  0.166997 0.550768 1 1 1.000000
0  -7.749052 65.915070 3.730004  -0.972258 0.233423 -0.015069  0.166997 0.561510 1 1 1.000000
exhaust
0  -6.579124 65.749908 2.505021  0.150278 0.073322 -0.985921  0.092776 0.561510 1 1 1.000000
0  -7.749052 65.915070 3.730004  -0.972258 0.233423 -0.015069  0.166997 0.561510 1 1 1.000000
0  -7.955509 67.910828 4.101627  -0.898499 -0.438951 0.004665  0.166997 0.550768 1 1 1.000000
exhaust
0  -7.955509 67.910828 4.101627  -0.898499 -0.438951 0.004665  0.166997 0.550768 1 1 1.000000
0  -6.799346 68.144806 2.862881  0.090293 0.205134 -0.974560  0.092776 0.550768 1 1 1.000000
0  -6.579124 65.749908 2.505021  0.150278 0.073322 -0.985921  0.092776 0.561510 1 1 1.000000
exhaust
0  -5.409197 65.598503 3.730004  0.977695 -0.209608 -0.013297  0.013672 0.561510 1 1 1.000000
0  -14.094185 51.077641 2.160925  0.979500 -0.200246 -0.021946  0.013672 0.593738 1 1 1.000000
0  -15.209056 51.022583 0.922179  -0.160694 0.117821 -0.979947  0.092776 0.593738 1 1 1.000000
exhaust
0  -15.209056 51.022583 0.922179  -0.160694 0.117821 -0.979947  0.092776 0.593738 1 1 1.000000
0  -6.579124 65.749908 2.505021  0.150278 0.073322 -0.985921  0.092776 0.561510 1 1 1.000000
0  -5.409197 65.598503 3.730004  0.977695 -0.209608 -0.013297  0.013672 0.561510 1 1 1.000000
exhaust
0  -14.094185 51.077641 2.160925  0.979500 -0.200246 -0.021946  0.013672 0.593738 1 1 1.000000
0  -15.209056 51.022583 3.399672  -0.174838 0.002852 0.984593  0.092776 0.593738 1 1 1.000000
0  -14.713558 48.682732 3.330852  -0.107049 -0.098350 0.989378  0.092776 0.610340 1 1 1.000000
exhaust
0  -14.713558 48.682732 3.330852  -0.107049 -0.098350 0.989378  0.092776 0.610340 1 1 1.000000
0  -13.708797 49.164467 2.092106  0.868848 0.495073 -0.002298  0.013672 0.610340 1 1 1.000000
0  -14.094185 51.077641 2.160925  0.979500 -0.200246 -0.021946  0.013672 0.593738 1 1 1.000000
exhaust
0  -15.209056 51.022583 3.399672  -0.174838 0.002852 0.984593  0.092776 0.593738 1 1 1.000000
0  -16.323929 50.981293 2.160925  -0.991578 0.129245 -0.008234  0.166997 0.593738 1 1 1.000000
0  -15.718320 48.214764 2.092106  -0.876021 -0.482270 -0.001739  0.166997 0.610340 1 1 1.000000
exhaust
0  -15.718320 48.214764 2.092106  -0.876021 -0.482270 -0.001739  0.166997 0.610340 1 1 1.000000
0  -14.713558 48.682732 3.330852  -0.107049 -0.098350 0.989378  0.092776 0.610340 1 1 1.000000
0  -15.209056 51.022583 3.399672  -0.174838 0.002852 0.984593  0.092776 0.593738 1 1 1.000000
exhaust
0  -6.579124 65.749908 2.505021  0.150278 0.073322 -0.985921  0.092776 0.561510 1 1 1.000000
0  -15.209056 51.022583 0.922179  -0.160694 0.117821 -0.979947  0.092776 0.593738 1 1 1.000000
0  -16.323929 50.981293 2.160925  -0.991578 0.129245 -0.008234  0.166997 0.593738 1 1 1.000000
exhaust
0  -16.323929 50.981293 2.160925  -0.991578 0.129245 -0.008234  0.166997 0.593738 1 1 1.000000
0  -7.749052 65.915070 3.730004  -0.972258 0.233423 -0.015069  0.166997 0.561510 1 1 1.000000
0  -6.579124 65.749908 2.505021  0.150278 0.073322 -0.985921  0.092776 0.561510 1 1 1.000000
exhaust
0  -14.094185 51.077641 2.160925  0.979500 -0.200246 -0.021946  0.013672 0.593738 1 1 1.000000
0  -13.708797 49.164467 2.092106  0.868848 0.495073 -0.002298  0.013672 0.610340 1 1 1.000000
0  -14.713558 48.682732 0.867124  -0.127616 -0.055480 -0.990271  0.092776 0.610340 1 1 1.000000
exhaust
0  -14.713558 48.682732 0.867124  -0.127616 -0.055480 -0.990271  0.092776 0.610340 1 1 1.000000
0  -15.209056 51.022583 0.922179  -0.160694 0.117821 -0.979947  0.092776 0.593738 1 1 1.000000
0  -14.094185 51.077641 2.160925  0.979500 -0.200246 -0.021946  0.013672 0.593738 1 1 1.000000
exhaust
0  -15.209056 51.022583 0.922179  -0.160694 0.117821 -0.979947  0.092776 0.593738 1 1 1.000000
0  -14.713558 48.682732 0.867124  -0.127616 -0.055480 -0.990271  0.092776 0.610340 1 1 1.000000
0  -15.718320 48.214764 2.092106  -0.876021 -0.482270 -0.001739  0.166997 0.610340 1 1 1.000000
exhaust
0  -15.718320 48.214764 2.092106  -0.876021 -0.482270 -0.001739  0.166997 0.610340 1 1 1.000000
0  -16.323929 50.981293 2.160925  -0.991578 0.129245 -0.008234  0.166997 0.593738 1 1 1.000000
0  -15.209056 51.022583 0.922179  -0.160694 0.117821 -0.979947  0.092776 0.593738 1 1 1.000000
exhaust
0  -13.708797 49.164467 2.092106  0.868848 0.495073 -0.002298  0.013672 0.610340 1 1 1.000000
0  -14.713558 48.682732 3.330852  -0.107049 -0.098350 0.989378  0.092776 0.610340 1 1 1.000000
0  -6.427720 40.823578 3.096866  0.158416 0.046682 0.986268  0.092776 0.625965 1 1 1.000000
exhaust
0  -6.427720 40.823578 3.096866  0.158416 0.046682 0.986268  0.092776 0.625965 1 1 1.000000
0  -5.395432 41.346603 1.858120  0.894705 0.446628 0.005183  0.013672 0.625965 1 1 1.000000
0  -13.708797 49.164467 2.092106  0.868848 0.495073 -0.002298  0.013672 0.610340 1 1 1.000000
exhaust
0  -14.713558 48.682732 3.330852  -0.107049 -0.098350 0.989378  0.092776 0.610340 1 1 1.000000
0  -15.718320 48.214764 2.092106  -0.876021 -0.482270 -0.001739  0.166997 0.610340 1 1 1.000000
0  -7.473773 40.300549 1.858120  -0.901981 -0.431765 0.003037  0.166997 0.625965 1 1 1.000000
exhaust
0  -7.473773 40.300549 1.858120  -0.901981 -0.431765 0.003037  0.166997 0.625965 1 1 1.000000
0  -6.427720 40.823578 3.096866  0.158416 0.046682 0.986268  0.092776 0.625965 1 1 1.000000
0  -14.713558 48.682732 3.330852  -0.107049 -0.098350 0.989378  0.092776 0.610340 1 1 1.000000
exhaust
0  14.135467 76.430649 4.046571  0.136809 -0.068581 -0.988221  0.092776 0.489242 1 1 1.000000
0  12.951776 76.430649 5.285317  -0.884234 0.465219 0.041254  0.013672 0.489242 1 1 1.000000
0  13.502330 81.481979 5.257789  -0.993237 0.116013 -0.004643  0.013672 0.266579 1 1 1.000000
exhaust
0  13.502330 81.481979 5.257789  -0.993237 0.116013 -0.004643  0.013672 0.266579 1 1 1.000000
0  14.727313 81.481979 4.032806  0.056426 -0.014940 -0.998295  0.092776 0.266579 1 1 1.000000
0  14.135467 76.430649 4.046571  0.136809 -0.068581 -0.988221  0.092776 0.489242 1 1 1.000000
exhaust
0  14.135467 76.430649 6.524063  0.095768 -0.167759 0.981165  0.092776 0.489242 1 1 1.000000
0  14.727313 81.481979 6.496535  0.053252 -0.004762 0.998570  0.092776 0.266579 1 1 1.000000
0  13.502330 81.481979 5.257789  -0.993237 0.116013 -0.004643  0.013672 0.266579 1 1 1.000000
exhaust
0  13.502330 81.481979 5.257789  -0.993237 0.116013 -0.004643  0.013672 0.266579 1 1 1.000000
0  12.951776 76.430649 5.285317  -0.884234 0.465219 0.041254  0.013672 0.489242 1 1 1.000000
0  14.135467 76.430649 6.524063  0.095768 -0.167759 0.981165  0.092776 0.489242 1 1 1.000000
exhaust
0  15.319158 76.416885 5.285317  0.929711 -0.367975 0.015202  0.166997 0.489242 1 1 1.000000
0  15.966058 81.481979 5.271553  0.992051 -0.125839 -0.000275  0.166997 0.266579 1 1 1.000000
0  14.727313 81.481979 6.496535  0.053252 -0.004762 0.998570  0.092776 0.266579 1 1 1.000000
exhaust
0  14.727313 81.481979 6.496535  0.053252 -0.004762 0.998570  0.092776 0.266579 1 1 1.000000
0  14.135467 76.430649 6.524063  0.095768 -0.167759 0.981165  0.092776 0.489242 1 1 1.000000
0  15.319158 76.416885 5.285317  0.929711 -0.367975 0.015202  0.166997 0.489242 1 1 1.000000
exhaust
0  15.319158 76.416885 5.285317  0.929711 -0.367975 0.015202  0.166997 0.489242 1 1 1.000000
0  14.135467 76.430649 4.046571  0.136809 -0.068581 -0.988221  0.092776 0.489242 1 1 1.000000
0  14.727313 81.481979 4.032806  0.056426 -0.014940 -0.998295  0.092776 0.266579 1 1 1.000000
exhaust
0  14.727313 81.481979 4.032806  0.056426 -0.014940 -0.998295  0.092776 0.266579 1 1 1.000000
0  15.966058 81.481979 5.271553  0.992051 -0.125839 -0.000275  0.166997 0.266579 1 1 1.000000
0  15.319158 76.416885 5.285317  0.929711 -0.367975 0.015202  0.166997 0.489242 1 1 1.000000
exhaust
0  6.400187 40.823578 0.633137  -0.128772 0.103557 -0.986252  0.092776 0.625965 1 1 1.000000
0  5.698231 33.693901 0.330332  -0.005048 0.053326 -0.998564  0.092776 0.774407 1 1 1.000000
0  4.459485 33.776485 1.555314  -0.993606 0.112082 -0.013596  0.013672 0.774407 1 1 1.000000
exhaust
0  4.459485 33.776485 1.555314  -0.993606 0.112082 -0.013596  0.013672 0.774407 1 1 1.000000
0  5.367898 41.346603 1.858119  -0.894743 0.446547 0.005494  0.013672 0.625965 1 1 1.000000
0  6.400187 40.823578 0.633137  -0.128772 0.103557 -0.986252  0.092776 0.625965 1 1 1.000000
exhaust
0  5.367898 41.346603 1.858119  -0.894743 0.446547 0.005494  0.013672 0.625965 1 1 1.000000
0  4.459485 33.776485 1.555314  -0.993606 0.112082 -0.013596  0.013672 0.774407 1 1 1.000000
0  5.698231 33.693901 2.794061  -0.021912 -0.030181 0.999304  0.092776 0.774407 1 1 1.000000
exhaust
0  5.698231 33.693901 2.794061  -0.021912 -0.030181 0.999304  0.092776 0.774407 1 1 1.000000
0  6.400187 40.823578 3.096865  -0.158301 0.046663 0.986288  0.092776 0.625965 1 1 1.000000
0  5.367898 41.346603 1.858119  -0.894743 0.446547 0.005494  0.013672 0.625965 1 1 1.000000
exhaust
0  6.400187 40.823578 3.096865  -0.158301 0.046663 0.986288  0.092776 0.625965 1 1 1.000000
0  5.698231 33.693901 2.794061  -0.021912 -0.030181 0.999304  0.092776 0.774407 1 1 1.000000
0  6.923213 33.611317 1.555314  0.996149 -0.084071 -0.024892  0.166997 0.774407 1 1 1.000000
exhaust
0  6.923213 33.611317 1.555314  0.996149 -0.084071 -0.024892  0.166997 0.774407 1 1 1.000000
0  7.446240 40.300549 1.858119  0.901994 -0.431737 0.003179  0.166997 0.625965 1 1 1.000000
0  6.400187 40.823578 3.096865  -0.158301 0.046663 0.986288  0.092776 0.625965 1 1 1.000000
exhaust
0  7.446240 40.300549 1.858119  0.901994 -0.431737 0.003179  0.166997 0.625965 1 1 1.000000
0  6.923213 33.611317 1.555314  0.996149 -0.084071 -0.024892  0.166997 0.774407 1 1 1.000000
0  5.698231 33.693901 0.330332  -0.005048 0.053326 -0.998564  0.092776 0.774407 1 1 1.000000
exhaust
0  5.698231 33.693901 0.330332  -0.005048 0.053326 -0.998564  0.092776 0.774407 1 1 1.000000
0  6.400187 40.823578 0.633137  -0.128772 0.103557 -0.986252  0.092776 0.625965 1 1 1.000000
0  7.446240 40.300549 1.858119  0.901994 -0.431737 0.003179  0.166997 0.625965 1 1 1.000000
exhaust
0  6.400187 40.823578 0.633137  -0.128772 0.103557 -0.986252  0.092776 0.625965 1 1 1.000000
0  5.367898 41.346603 1.858119  -0.894743 0.446547 0.005494  0.013672 0.625965 1 1 1.000000
0  13.681262 49.164467 2.092104  -0.868873 0.495030 -0.002325  0.013672 0.610340 1 1 1.000000
exhaust
0  13.681262 49.164467 2.092104  -0.868873 0.495030 -0.002325  0.013672 0.610340 1 1 1.000000
0  14.686024 48.682732 0.867121  0.127616 -0.055481 -0.990271  0.092776 0.610340 1 1 1.000000
0  6.400187 40.823578 0.633137  -0.128772 0.103557 -0.986252  0.092776 0.625965 1 1 1.000000
exhaust
0  14.066648 51.077641 2.160923  -0.979490 -0.200296 -0.021947  0.013672 0.593738 1 1 1.000000
0  15.181521 51.022583 3.399669  0.174773 0.002824 0.984605  0.092776 0.593738 1 1 1.000000
0  6.551588 65.749908 4.968749  -0.117110 -0.163734 0.979529  0.092776 0.561510 1 1 1.000000
exhaust
0  6.551588 65.749908 4.968749  -0.117110 -0.163734 0.979529  0.092776 0.561510 1 1 1.000000
0  5.381660 65.598503 3.730003  -0.977680 -0.209683 -0.013194  0.013672 0.561510 1 1 1.000000
0  14.066648 51.077641 2.160923  -0.979490 -0.200296 -0.021947  0.013672 0.593738 1 1 1.000000
exhaust
0  15.181521 51.022583 3.399669  0.174773 0.002824 0.984605  0.092776 0.593738 1 1 1.000000
0  16.296392 50.981293 2.160923  0.991578 0.129245 -0.008234  0.166997 0.593738 1 1 1.000000
0  7.721515 65.915070 3.730003  0.972250 0.233455 -0.015113  0.166997 0.561510 1 1 1.000000
exhaust
0  7.721515 65.915070 3.730003  0.972250 0.233455 -0.015113  0.166997 0.561510 1 1 1.000000
0  6.551588 65.749908 4.968749  -0.117110 -0.163734 0.979529  0.092776 0.561510 1 1 1.000000
0  15.181521 51.022583 3.399669  0.174773 0.002824 0.984605  0.092776 0.593738 1 1 1.000000
exhaust
0  7.446240 40.300549 1.858119  0.901994 -0.431737 0.003179  0.166997 0.625965 1 1 1.000000
0  6.400187 40.823578 0.633137  -0.128772 0.103557 -0.986252  0.092776 0.625965 1 1 1.000000
0  14.686024 48.682732 0.867121  0.127616 -0.055481 -0.990271  0.092776 0.610340 1 1 1.000000
exhaust
0  14.686024 48.682732 0.867121  0.127616 -0.055481 -0.990271  0.092776 0.610340 1 1 1.000000
0  15.690784 48.214764 2.092104  0.876038 -0.482238 -0.001793  0.166997 0.610340 1 1 1.000000
0  7.446240 40.300549 1.858119  0.901994 -0.431737 0.003179  0.166997 0.625965 1 1 1.000000
exhaust
0  14.135467 76.430649 4.046571  0.136809 -0.068581 -0.988221  0.092776 0.489242 1 1 1.000000
0  6.771809 68.144806 2.862880  -0.090114 0.204896 -0.974627  0.092776 0.550768 1 1 1.000000
0  5.615645 68.378807 4.101626  -0.929174 0.369266 0.016682  0.013672 0.550768 1 1 1.000000
exhaust
0  5.615645 68.378807 4.101626  -0.929174 0.369266 0.016682  0.013672 0.550768 1 1 1.000000
0  12.951776 76.430649 5.285317  -0.884234 0.465219 0.041254  0.013672 0.489242 1 1 1.000000
0  14.135467 76.430649 4.046571  0.136809 -0.068581 -0.988221  0.092776 0.489242 1 1 1.000000
exhaust
0  12.951776 76.430649 5.285317  -0.884234 0.465219 0.041254  0.013672 0.489242 1 1 1.000000
0  5.615645 68.378807 4.101626  -0.929174 0.369266 0.016682  0.013672 0.550768 1 1 1.000000
0  6.771809 68.144806 5.326609  -0.155053 -0.031582 0.987401  0.092776 0.550768 1 1 1.000000
exhaust
0  6.771809 68.144806 5.326609  -0.155053 -0.031582 0.987401  0.092776 0.550768 1 1 1.000000
0  14.135467 76.430649 6.524063  0.095768 -0.167759 0.981165  0.092776 0.489242 1 1 1.000000
0  12.951776 76.430649 5.285317  -0.884234 0.465219 0.041254  0.013672 0.489242 1 1 1.000000
exhaust
0  6.771809 68.144806 5.326609  -0.155053 -0.031582 0.987401  0.092776 0.550768 1 1 1.000000
0  7.927972 67.910828 4.101626  0.898491 -0.438963 0.004976  0.166997 0.550768 1 1 1.000000
0  15.319158 76.416885 5.285317  0.929711 -0.367975 0.015202  0.166997 0.489242 1 1 1.000000
exhaust
0  15.319158 76.416885 5.285317  0.929711 -0.367975 0.015202  0.166997 0.489242 1 1 1.000000
0  14.135467 76.430649 6.524063  0.095768 -0.167759 0.981165  0.092776 0.489242 1 1 1.000000
0  6.771809 68.144806 5.326609  -0.155053 -0.031582 0.987401  0.092776 0.550768 1 1 1.000000
exhaust
0  7.927972 67.910828 4.101626  0.898491 -0.438963 0.004976  0.166997 0.550768 1 1 1.000000
0  6.771809 68.144806 2.862880  -0.090114 0.204896 -0.974627  0.092776 0.550768 1 1 1.000000
0  14.135467 76.430649 4.046571  0.136809 -0.068581 -0.988221  0.092776 0.489242 1 1 1.000000
exhaust
0  14.135467 76.430649 4.046571  0.136809 -0.068581 -0.988221  0.092776 0.489242 1 1 1.000000
0  15.319158 76.416885 5.285317  0.929711 -0.367975 0.015202  0.166997 0.489242 1 1 1.000000
0  7.927972 67.910828 4.101626  0.898491 -0.438963 0.004976  0.166997 0.550768 1 1 1.000000
exhaust
0  5.381660 65.598503 3.730003  -0.977680 -0.209683 -0.013194  0.013672 0.561510 1 1 1.000000
0  5.615645 68.378807 4.101626  -0.929174 0.369266 0.016682  0.013672 0.550768 1 1 1.000000
0  6.771809 68.144806 2.862880  -0.090114 0.204896 -0.974627  0.092776 0.550768 1 1 1.000000
exhaust
0  6.771809 68.144806 2.862880  -0.090114 0.204896 -0.974627  0.092776 0.550768 1 1 1.000000
0  6.551588 65.749908 2.505020  -0.150278 0.073323 -0.985921  0.092776 0.561510 1 1 1.000000
0  5.381660 65.598503 3.730003  -0.977680 -0.209683 -0.013194  0.013672 0.561510 1 1 1.000000
exhaust
0  6.551588 65.749908 4.968749  -0.117110 -0.163734 0.979529  0.092776 0.561510 1 1 1.000000
0  6.771809 68.144806 5.326609  -0.155053 -0.031582 0.987401  0.092776 0.550768 1 1 1.000000
0  5.615645 68.378807 4.101626  -0.929174 0.369266 0.016682  0.013672 0.550768 1 1 1.000000
exhaust
0  5.615645 68.378807 4.101626  -0.929174 0.369266 0.016682  0.013672 0.550768 1 1 1.000000
0  5.381660 65.598503 3.730003  -0.977680 -0.209683 -0.013194  0.013672 0.561510 1 1 1.000000
0  6.551588 65.749908 4.968749  -0.117110 -0.163734 0.979529  0.092776 0.561510 1 1 1.000000
exhaust
0  7.721515 65.915070 3.730003  0.972250 0.233455 -0.015113  0.166997 0.561510 1 1 1.000000
0  7.927972 67.910828 4.101626  0.898491 -0.438963 0.004976  0.166997 0.550768 1 1 1.000000
0  6.771809 68.144806 5.326609  -0.155053 -0.031582 0.987401  0.092776 0.550768 1 1 1.000000
exhaust
0  6.771809 68.144806 5.326609  -0.155053 -0.031582 0.987401  0.092776 0.550768 1 1 1.000000
0  6.551588 65.749908 4.968749  -0.117110 -0.163734 0.979529  0.092776 0.561510 1 1 1.000000
0  7.721515 65.915070 3.730003  0.972250 0.233455 -0.015113  0.166997 0.561510 1 1 1.000000
exhaust
0  6.551588 65.749908 2.505020  -0.150278 0.073323 -0.985921  0.092776 0.561510 1 1 1.000000
0  6.771809 68.144806 2.862880  -0.090114 0.204896 -0.974627  0.092776 0.550768 1 1 1.000000
0  7.927972 67.910828 4.101626  0.898491 -0.438963 0.004976  0.166997 0.550768 1 1 1.000000
exhaust
0  7.927972 67.910828 4.101626  0.898491 -0.438963 0.004976  0.166997 0.550768 1 1 1.000000
0  7.721515 65.915070 3.730003  0.972250 0.233455 -0.015113  0.166997 0.561510 1 1 1.000000
0  6.551588 65.749908 2.505020  -0.150278 0.073323 -0.985921  0.092776 0.561510 1 1 1.000000
exhaust
0  5.381660 65.598503 3.730003  -0.977680 -0.209683 -0.013194  0.013672 0.561510 1 1 1.000000
0  6.551588 65.749908 2.505020  -0.150278 0.073323 -0.985921  0.092776 0.561510 1 1 1.000000
0  15.181521 51.022583 0.922177  0.160581 0.117769 -0.979971  0.092776 0.593738 1 1 1.000000
exhaust
0  15.181521 51.022583 0.922177  0.160581 0.117769 -0.979971  0.092776 0.593738 1 1 1.000000
0  14.066648 51.077641 2.160923  -0.979490 -0.200296 -0.021947  0.013672 0.593738 1 1 1.000000
0  5.381660 65.598503 3.730003  -0.977680 -0.209683 -0.013194  0.013672 0.561510 1 1 1.000000
exhaust
0  14.066648 51.077641 2.160923  -0.979490 -0.200296 -0.021947  0.013672 0.593738 1 1 1.000000
0  13.681262 49.164467 2.092104  -0.868873 0.495030 -0.002325  0.013672 0.610340 1 1 1.000000
0  14.686024 48.682732 3.330850  0.107007 -0.098310 0.989386  0.092776 0.610340 1 1 1.000000
exhaust
0  14.686024 48.682732 3.330850  0.107007 -0.098310 0.989386  0.092776 0.610340 1 1 1.000000
0  15.181521 51.022583 3.399669  0.174773 0.002824 0.984605  0.092776 0.593738 1 1 1.000000
0  14.066648 51.077641 2.160923  -0.979490 -0.200296 -0.021947  0.013672 0.593738 1 1 1.000000
exhaust
0  15.181521 51.022583 3.399669  0.174773 0.002824 0.984605  0.092776 0.593738 1 1 1.000000
0  14.686024 48.682732 3.330850  0.107007 -0.098310 0.989386  0.092776 0.610340 1 1 1.000000
0  15.690784 48.214764 2.092104  0.876038 -0.482238 -0.001793  0.166997 0.610340 1 1 1.000000
exhaust
0  15.690784 48.214764 2.092104  0.876038 -0.482238 -0.001793  0.166997 0.610340 1 1 1.000000
0  16.296392 50.981293 2.160923  0.991578 0.129245 -0.008234  0.166997 0.593738 1 1 1.000000
0  15.181521 51.022583 3.399669  0.174773 0.002824 0.984605  0.092776 0.593738 1 1 1.000000
exhaust
0  6.551588 65.749908 2.505020  -0.150278 0.073323 -0.985921  0.092776 0.561510 1 1 1.000000
0  7.721515 65.915070 3.730003  0.972250 0.233455 -0.015113  0.166997 0.561510 1 1 1.000000
0  16.296392 50.981293 2.160923  0.991578 0.129245 -0.008234  0.166997 0.593738 1 1 1.000000
exhaust
0  16.296392 50.981293 2.160923  0.991578 0.129245 -0.008234  0.166997 0.593738 1 1 1.000000
0  15.181521 51.022583 0.922177  0.160581 0.117769 -0.979971  0.092776 0.593738 1 1 1.000000
0  6.551588 65.749908 2.505020  -0.150278 0.073323 -0.985921  0.092776 0.561510 1 1 1.000000
exhaust
0  14.066648 51.077641 2.160923  -0.979490 -0.200296 -0.021947  0.013672 0.593738 1 1 1.000000
0  15.181521 51.022583 0.922177  0.160581 0.117769 -0.979971  0.092776 0.593738 1 1 1.000000
0  14.686024 48.682732 0.867121  0.127616 -0.055481 -0.990271  0.092776 0.610340 1 1 1.000000
exhaust
0  14.686024 48.682732 0.867121  0.127616 -0.055481 -0.990271  0.092776 0.610340 1 1 1.000000
0  13.681262 49.164467 2.092104  -0.868873 0.495030 -0.002325  0.013672 0.610340 1 1 1.000000
0  14.066648 51.077641 2.160923  -0.979490 -0.200296 -0.021947  0.013672 0.593738 1 1 1.000000
exhaust
0  15.181521 51.022583 0.922177  0.160581 0.117769 -0.979971  0.092776 0.593738 1 1 1.000000
0  16.296392 50.981293 2.160923  0.991578 0.129245 -0.008234  0.166997 0.593738 1 1 1.000000
0  15.690784 48.214764 2.092104  0.876038 -0.482238 -0.001793  0.166997 0.610340 1 1 1.000000
exhaust
0  15.690784 48.214764 2.092104  0.876038 -0.482238 -0.001793  0.166997 0.610340 1 1 1.000000
0  14.686024 48.682732 0.867121  0.127616 -0.055481 -0.990271  0.092776 0.610340 1 1 1.000000
0  15.181521 51.022583 0.922177  0.160581 0.117769 -0.979971  0.092776 0.593738 1 1 1.000000
exhaust
0  13.681262 49.164467 2.092104  -0.868873 0.495030 -0.002325  0.013672 0.610340 1 1 1.000000
0  5.367898 41.346603 1.858119  -0.894743 0.446547 0.005494  0.013672 0.625965 1 1 1.000000
0  6.400187 40.823578 3.096865  -0.158301 0.046663 0.986288  0.092776 0.625965 1 1 1.000000
exhaust
0  6.400187 40.823578 3.096865  -0.158301 0.046663 0.986288  0.092776 0.625965 1 1 1.000000
0  14.686024 48.682732 3.330850  0.107007 -0.098310 0.989386  0.092776 0.610340 1 1 1.000000
0  13.681262 49.164467 2.092104  -0.868873 0.495030 -0.002325  0.013672 0.610340 1 1 1.000000
exhaust
0  14.686024 48.682732 3.330850  0.107007 -0.098310 0.989386  0.092776 0.610340 1 1 1.000000
0  6.400187 40.823578 3.096865  -0.158301 0.046663 0.986288  0.092776 0.625965 1 1 1.000000
0  7.446240 40.300549 1.858119  0.901994 -0.431737 0.003179  0.166997 0.625965 1 1 1.000000
exhaust
0  7.446240 40.300549 1.858119  0.901994 -0.431737 0.003179  0.166997 0.625965 1 1 1.000000
0  15.690784 48.214764 2.092104  0.876038 -0.482238 -0.001793  0.166997 0.610340 1 1 1.000000
0  14.686024 48.682732 3.330850  0.107007 -0.098310 0.989386  0.092776 0.610340 1 1 1.000000
exhaust
0  13.763841 94.062141 6.372661  0.000000 1.000000 0.000004  0.517594 0.882809 1 1 1.000000
0  14.672257 94.062141 6.758049  0.000000 1.000000 0.000022  0.434584 0.916990 1 1 1.000000
0  15.580670 94.062141 6.372661  0.000000 1.000000 0.000004  0.351573 0.882809 1 1 1.000000
exhaust
0  13.763841 94.062141 6.372661  0.000000 1.000000 0.000004  0.517594 0.882809 1 1 1.000000
0  15.580670 94.062141 6.372661  0.000000 1.000000 0.000004  0.351573 0.882809 1 1 1.000000
0  15.952293 94.062141 5.464246  0.000000 1.000000 0.000000  0.317392 0.799799 1 1 1.000000
exhaust
0  15.580670 94.062141 4.555833  0.000000 1.000000 -0.000004  0.351573 0.716788 1 1 1.000000
0  14.672257 94.062141 4.184209  0.000000 1.000000 -0.000023  0.434584 0.682608 1 1 1.000000
0  13.763841 94.062141 4.555833  0.000000 1.000000 -0.000004  0.517594 0.716788 1 1 1.000000
exhaust
0  15.580670 94.062141 4.555833  0.000000 1.000000 -0.000004  0.351573 0.716788 1 1 1.000000
0  13.763841 94.062141 4.555833  0.000000 1.000000 -0.000004  0.517594 0.716788 1 1 1.000000
0  13.392218 94.062141 5.464247  0.000000 1.000000 0.000000  0.551775 0.799799 1 1 1.000000
exhaust
0  15.952293 94.062141 5.464246  0.000000 1.000000 0.000000  0.317392 0.799799 1 1 1.000000
0  15.580670 94.062141 4.555833  0.000000 1.000000 -0.000004  0.351573 0.716788 1 1 1.000000
0  13.392218 94.062141 5.464247  0.000000 1.000000 0.000000  0.551775 0.799799 1 1 1.000000
exhaust
0  13.763841 94.062141 6.372661  0.000000 1.000000 0.000004  0.517594 0.882809 1 1 1.000000
0  15.952293 94.062141 5.464246  0.000000 1.000000 0.000000  0.317392 0.799799 1 1 1.000000
0  13.392218 94.062141 5.464247  0.000000 1.000000 0.000000  0.551775 0.799799 1 1 1.000000
exhaust
0  10.020075 94.062141 6.372661  0.000000 1.000000 0.000000  0.517594 0.882809 1 1 1.000000
0  10.928489 94.062141 6.758049  0.000000 1.000000 0.000000  0.434584 0.916990 1 1 1.000000
0  11.836904 94.062141 6.372661  0.000000 1.000000 0.000000  0.351573 0.882809 1 1 1.000000
exhaust
0  10.020075 94.062141 6.372661  0.000000 1.000000 0.000000  0.517594 0.882809 1 1 1.000000
0  11.836904 94.062141 6.372661  0.000000 1.000000 0.000000  0.351573 0.882809 1 1 1.000000
0  12.208528 94.062141 5.464247  0.000000 1.000000 0.000000  0.317392 0.799799 1 1 1.000000
exhaust
0  11.836904 94.062141 4.555833  0.000000 1.000000 0.000000  0.351573 0.716788 1 1 1.000000
0  10.928489 94.062141 4.184209  0.000000 1.000000 0.000000  0.434584 0.682608 1 1 1.000000
0  10.020075 94.062141 4.555833  0.000000 1.000000 0.000000  0.517594 0.716788 1 1 1.000000
exhaust
0  11.836904 94.062141 4.555833  0.000000 1.000000 0.000000  0.351573 0.716788 1 1 1.000000
0  10.020075 94.062141 4.555833  0.000000 1.000000 0.000000  0.517594 0.716788 1 1 1.000000
0  9.634687 94.062141 5.464247  0.000000 1.000000 0.000000  0.551775 0.799799 1 1 1.000000
exhaust
0  12.208528 94.062141 5.464247  0.000000 1.000000 0.000000  0.317392 0.799799 1 1 1.000000
0  11.836904 94.062141 4.555833  0.000000 1.000000 0.000000  0.351573 0.716788 1 1 1.000000
0  9.634687 94.062141 5.464247  0.000000 1.000000 0.000000  0.551775 0.799799 1 1 1.000000
exhaust
0  10.020075 94.062141 6.372661  0.000000 1.000000 0.000000  0.517594 0.882809 1 1 1.000000
0  12.208528 94.062141 5.464247  0.000000 1.000000 0.000000  0.317392 0.799799 1 1 1.000000
0  9.634687 94.062141 5.464247  0.000000 1.000000 0.000000  0.551775 0.799799 1 1 1.000000
exhaust
0  -15.608212 94.062141 6.372663  0.000000 1.000000 0.000000  0.351573 0.882809 1 1 1.000000
0  -14.699798 94.062141 6.758050  0.000000 1.000000 0.000000  0.434584 0.916990 1 1 1.000000
0  -13.791383 94.062141 6.372663  0.000000 1.000000 0.000000  0.517594 0.882809 1 1 1.000000
exhaust
0  -13.791383 94.062141 4.555835  0.000000 1.000000 0.000000  0.517594 0.716788 1 1 1.000000
0  -14.699798 94.062141 4.184211  0.000000 1.000000 0.000000  0.434584 0.682608 1 1 1.000000
0  -15.608212 94.062141 4.555835  0.000000 1.000000 0.000002  0.351573 0.716788 1 1 1.000000
exhaust
0  -13.419760 94.062141 5.464249  0.000000 1.000000 0.000001  0.551775 0.799799 1 1 1.000000
0  -13.791383 94.062141 4.555835  0.000000 1.000000 0.000000  0.517594 0.716788 1 1 1.000000
0  -15.608212 94.062141 4.555835  0.000000 1.000000 0.000002  0.351573 0.716788 1 1 1.000000
exhaust
0  -13.419760 94.062141 5.464249  0.000000 1.000000 0.000001  0.551775 0.799799 1 1 1.000000
0  -15.608212 94.062141 4.555835  0.000000 1.000000 0.000002  0.351573 0.716788 1 1 1.000000
0  -15.979834 94.062141 5.464249  0.000000 1.000000 0.000002  0.317392 0.799799 1 1 1.000000
exhaust
0  -13.791383 94.062141 6.372663  0.000000 1.000000 0.000000  0.517594 0.882809 1 1 1.000000
0  -13.419760 94.062141 5.464249  0.000000 1.000000 0.000001  0.551775 0.799799 1 1 1.000000
0  -15.979834 94.062141 5.464249  0.000000 1.000000 0.000002  0.317392 0.799799 1 1 1.000000
exhaust
0  -15.608212 94.062141 6.372663  0.000000 1.000000 0.000000  0.351573 0.882809 1 1 1.000000
0  -13.791383 94.062141 6.372663  0.000000 1.000000 0.000000  0.517594 0.882809 1 1 1.000000
0  -15.979834 94.062141 5.464249  0.000000 1.000000 0.000002  0.317392 0.799799 1 1 1.000000
exhaust
0  -11.864444 94.062141 6.372663  0.000000 1.000000 0.000000  0.351573 0.882809 1 1 1.000000
0  -10.956031 94.062141 6.758050  0.000000 1.000000 0.000000  0.434584 0.916990 1 1 1.000000
0  -10.047616 94.062141 6.372663  0.000000 1.000000 0.000000  0.517594 0.882809 1 1 1.000000
exhaust
0  -10.047616 94.062141 4.555835  0.000000 1.000000 0.000000  0.517594 0.716788 1 1 1.000000
0  -10.956031 94.062141 4.184211  0.000000 1.000000 0.000000  0.434584 0.682608 1 1 1.000000
0  -11.864444 94.062141 4.555835  0.000000 1.000000 0.000000  0.351573 0.716788 1 1 1.000000
exhaust
0  -9.662229 94.062141 5.464249  0.000000 1.000000 0.000000  0.551775 0.799799 1 1 1.000000
0  -10.047616 94.062141 4.555835  0.000000 1.000000 0.000000  0.517594 0.716788 1 1 1.000000
0  -11.864444 94.062141 4.555835  0.000000 1.000000 0.000000  0.351573 0.716788 1 1 1.000000
exhaust
0  -9.662229 94.062141 5.464249  0.000000 1.000000 0.000000  0.551775 0.799799 1 1 1.000000
0  -11.864444 94.062141 4.555835  0.000000 1.000000 0.000000  0.351573 0.716788 1 1 1.000000
0  -12.236068 94.062141 5.464249  0.000000 1.000000 0.000000  0.317392 0.799799 1 1 1.000000
exhaust
0  -10.047616 94.062141 6.372663  0.000000 1.000000 0.000000  0.517594 0.882809 1 1 1.000000
0  -9.662229 94.062141 5.464249  0.000000 1.000000 0.000000  0.551775 0.799799 1 1 1.000000
0  -12.236068 94.062141 5.464249  0.000000 1.000000 0.000000  0.317392 0.799799 1 1 1.000000
exhaust
0  -11.864444 94.062141 6.372663  0.000000 1.000000 0.000000  0.351573 0.882809 1 1 1.000000
0  -10.047616 94.062141 6.372663  0.000000 1.000000 0.000000  0.517594 0.882809 1 1 1.000000
0  -12.236068 94.062141 5.464249  0.000000 1.000000 0.000000  0.317392 0.799799 1 1 1.000000
end
