version 1
nodes
0 "blender_implicit" -1
1 "root" -1
2 "steering_wheel" 1
end
skeleton
time 0
0  0.000000 0.000000 0.000000  0.000000 -0.000000 0.000000
1  0.000000 0.000000 0.000000  1.570796 -0.000000 0.000000
2  15.979831 32.936882 16.915779  0.000000 -0.000000 0.000000
end
triangles
skin_0
0  -0.013768 98.366417 39.755249  -0.000024 0.963085 -0.269199  0.500015 0.170873 1 1 1.000000
0  -7.363664 98.057045 39.659103  -0.068684 0.956789 -0.282555  0.539079 0.171850 1 1 1.000000
0  -7.294844 98.282616 40.397289  -0.065702 0.957007 -0.282526  0.539079 0.170873 1 1 1.000000
skin_0
0  -7.294844 98.282616 40.397289  -0.065702 0.957007 -0.282526  0.539079 0.170873 1 1 1.000000
0  -0.013768 98.564560 40.491039  0.000000 0.963190 -0.268822  0.500015 0.169897 1 1 1.000000
0  -0.013768 98.366417 39.755249  -0.000024 0.963085 -0.269199  0.500015 0.170873 1 1 1.000000
skin_0
0  -12.938023 97.438316 39.466805  -0.130989 0.953308 -0.272115  0.569353 0.173803 1 1 1.000000
0  -16.860718 96.738518 39.253597  -0.192742 0.951770 -0.238712  0.590838 0.176733 1 1 1.000000
0  -16.846954 96.912834 39.945854  -0.192086 0.951557 -0.240088  0.589862 0.175756 1 1 1.000000
skin_0
0  -16.846954 96.912834 39.945854  -0.192086 0.951557 -0.240088  0.589862 0.175756 1 1 1.000000
0  -12.951786 97.640053 40.161461  -0.130244 0.952791 -0.274273  0.569353 0.172826 1 1 1.000000
0  -12.938023 97.438316 39.466805  -0.130989 0.953308 -0.272115  0.569353 0.173803 1 1 1.000000
skin_0
0  -7.363664 98.057045 39.659103  -0.068684 0.956789 -0.282555  0.539079 0.171850 1 1 1.000000
0  -12.938023 97.438316 39.466805  -0.130989 0.953308 -0.272115  0.569353 0.173803 1 1 1.000000
0  -12.951786 97.640053 40.161461  -0.130244 0.952791 -0.274273  0.569353 0.172826 1 1 1.000000
skin_0
0  -12.951786 97.640053 40.161461  -0.130244 0.952791 -0.274273  0.569353 0.172826 1 1 1.000000
0  -7.294844 98.282616 40.397289  -0.065702 0.957007 -0.282526  0.539079 0.170873 1 1 1.000000
0  -7.363664 98.057045 39.659103  -0.068684 0.956789 -0.282555  0.539079 0.171850 1 1 1.000000
skin_0
0  -16.860718 96.738518 39.253597  -0.192742 0.951770 -0.238712  0.590838 0.176733 1 1 1.000000
0  -20.508139 95.835449 38.994972  -0.265642 0.937885 -0.223171  0.610370 0.179662 1 1 1.000000
0  -20.563194 95.950798 39.571545  -0.265422 0.937763 -0.223945  0.610370 0.179662 1 1 1.000000
skin_0
0  -20.563194 95.950798 39.571545  -0.265422 0.937763 -0.223945  0.610370 0.179662 1 1 1.000000
0  -16.846954 96.912834 39.945854  -0.192086 0.951557 -0.240088  0.589862 0.175756 1 1 1.000000
0  -16.860718 96.738518 39.253597  -0.192742 0.951770 -0.238712  0.590838 0.176733 1 1 1.000000
skin_0
0  -20.508139 95.835449 38.994972  -0.265642 0.937885 -0.223171  0.610370 0.179662 1 1 1.000000
0  -23.494894 94.767838 38.721958  -0.365237 0.907214 -0.208721  0.625996 0.183569 1 1 1.000000
0  -23.549950 94.842743 39.129189  -0.365339 0.907198 -0.208611  0.625996 0.183569 1 1 1.000000
skin_0
0  -23.549950 94.842743 39.129189  -0.365339 0.907198 -0.208611  0.625996 0.183569 1 1 1.000000
0  -20.563194 95.950798 39.571545  -0.265422 0.937763 -0.223945  0.610370 0.179662 1 1 1.000000
0  -20.508139 95.835449 38.994972  -0.265642 0.937885 -0.223171  0.610370 0.179662 1 1 1.000000
skin_0
0  -23.494894 94.767838 38.721958  -0.365237 0.907214 -0.208721  0.625996 0.183569 1 1 1.000000
0  -24.912571 94.064438 38.549892  -0.443225 0.869062 -0.219734  0.633808 0.186499 1 1 1.000000
0  -25.050207 94.057755 38.784184  -0.458249 0.860381 -0.223051  0.634785 0.186499 1 1 1.000000
skin_0
0  -25.050207 94.057755 38.784184  -0.458249 0.860381 -0.223051  0.634785 0.186499 1 1 1.000000
0  -23.549950 94.842743 39.129189  -0.365339 0.907198 -0.208611  0.625996 0.183569 1 1 1.000000
0  -23.494894 94.767838 38.721958  -0.365237 0.907214 -0.208721  0.625996 0.183569 1 1 1.000000
skin_0
0  -0.013768 98.321861 40.580338  0.000021 -0.633155 0.774025  0.500015 0.170873 1 1 1.000000
0  -0.013768 98.425552 40.658489  0.000001 -0.182916 0.983128  0.500015 0.169897 1 1 1.000000
0  -7.281080 98.143623 40.564743  -0.013070 -0.185996 0.982464  0.539079 0.170873 1 1 1.000000
skin_0
0  -7.281080 98.143623 40.564743  -0.013070 -0.185996 0.982464  0.539079 0.170873 1 1 1.000000
0  -7.294844 98.039917 40.486588  0.027741 -0.636297 0.770945  0.539079 0.171850 1 1 1.000000
0  -0.013768 98.321861 40.580338  0.000021 -0.633155 0.774025  0.500015 0.170873 1 1 1.000000
skin_0
0  -12.951786 97.396164 40.264469  0.056033 -0.618358 0.783897  0.569353 0.173803 1 1 1.000000
0  -12.951786 97.499863 40.342621  -0.023159 -0.175664 0.984178  0.569353 0.173803 1 1 1.000000
0  -16.846954 96.760117 40.112106  -0.040437 -0.176357 0.983495  0.589862 0.176733 1 1 1.000000
skin_0
0  -16.846954 96.760117 40.112106  -0.040437 -0.176357 0.983495  0.589862 0.176733 1 1 1.000000
0  -16.846954 96.656425 40.033951  0.076592 -0.615143 0.784687  0.589862 0.176733 1 1 1.000000
0  -12.951786 97.396164 40.264469  0.056033 -0.618358 0.783897  0.569353 0.173803 1 1 1.000000
skin_0
0  -7.294844 98.039917 40.486588  0.027741 -0.636297 0.770945  0.539079 0.171850 1 1 1.000000
0  -7.281080 98.143623 40.564743  -0.013070 -0.185996 0.982464  0.539079 0.170873 1 1 1.000000
0  -12.951786 97.499863 40.342621  -0.023159 -0.175664 0.984178  0.569353 0.173803 1 1 1.000000
skin_0
0  -12.951786 97.499863 40.342621  -0.023159 -0.175664 0.984178  0.569353 0.173803 1 1 1.000000
0  -12.951786 97.396164 40.264469  0.056033 -0.618358 0.783897  0.569353 0.173803 1 1 1.000000
0  -7.294844 98.039917 40.486588  0.027741 -0.636297 0.770945  0.539079 0.171850 1 1 1.000000
skin_0
0  -16.846954 96.656425 40.033951  0.076592 -0.615143 0.784687  0.589862 0.176733 1 1 1.000000
0  -16.846954 96.760117 40.112106  -0.040437 -0.176357 0.983495  0.589862 0.176733 1 1 1.000000
0  -20.576958 95.798088 39.737797  -0.081565 -0.138261 0.987031  0.610370 0.179662 1 1 1.000000
skin_0
0  -20.576958 95.798088 39.737797  -0.081565 -0.138261 0.987031  0.610370 0.179662 1 1 1.000000
0  -20.576958 95.680679 39.658443  0.083751 -0.555726 0.827136  0.610370 0.180639 1 1 1.000000
0  -16.846954 96.656425 40.033951  0.076592 -0.615143 0.784687  0.589862 0.176733 1 1 1.000000
skin_0
0  -20.576958 95.798088 39.737797  -0.081565 -0.138261 0.987031  0.610370 0.179662 1 1 1.000000
0  -23.577477 94.690033 39.295444  -0.165090 -0.064316 0.984179  0.625996 0.183569 1 1 1.000000
0  -23.577477 94.543999 39.227402  0.047504 -0.433025 0.900129  0.625996 0.184545 1 1 1.000000
skin_0
0  -23.577477 94.543999 39.227402  0.047504 -0.433025 0.900129  0.625996 0.184545 1 1 1.000000
0  -20.576958 95.680679 39.658443  0.083751 -0.555726 0.827136  0.610370 0.180639 1 1 1.000000
0  -20.576958 95.798088 39.737797  -0.081565 -0.138261 0.987031  0.610370 0.179662 1 1 1.000000
skin_0
0  -25.036444 93.620712 38.884109  0.010479 -0.345208 0.938468  0.634785 0.187475 1 1 1.000000
0  -23.577477 94.543999 39.227402  0.047504 -0.433025 0.900129  0.625996 0.184545 1 1 1.000000
0  -23.577477 94.690033 39.295444  -0.165090 -0.064316 0.984179  0.625996 0.183569 1 1 1.000000
skin_0
0  -23.577477 94.690033 39.295444  -0.165090 -0.064316 0.984179  0.625996 0.183569 1 1 1.000000
0  -25.091499 93.740509 38.936043  -0.188149 -0.123957 0.974287  0.634785 0.187475 1 1 1.000000
0  -25.036444 93.620712 38.884109  0.010479 -0.345208 0.938468  0.634785 0.187475 1 1 1.000000
skin_0
0  -0.013768 97.077545 39.642487  -0.000001 -0.916224 0.400666  0.500015 0.175756 1 1 1.000000
0  -0.013768 97.134109 39.785603  -0.000001 -0.916206 0.400708  0.500015 0.174779 1 1 1.000000
0  -7.322371 96.853355 39.678143  0.057783 -0.916479 0.395887  0.539079 0.175756 1 1 1.000000
skin_0
0  -7.322371 96.853355 39.678143  0.057783 -0.916479 0.395887  0.539079 0.175756 1 1 1.000000
0  -7.322371 96.795593 39.548740  0.060206 -0.916294 0.395955  0.539079 0.176733 1 1 1.000000
0  -0.013768 97.077545 39.642487  -0.000001 -0.916224 0.400666  0.500015 0.175756 1 1 1.000000
skin_0
0  -12.869203 96.176857 39.356438  0.116981 -0.905958 0.406886  0.569353 0.178686 1 1 1.000000
0  -12.882966 96.247131 39.500755  0.114477 -0.906332 0.406765  0.569353 0.178686 1 1 1.000000
0  -16.805662 95.518715 39.298859  0.167021 -0.898421 0.406132  0.589862 0.180639 1 1 1.000000
skin_0
0  -16.805662 95.518715 39.298859  0.167021 -0.898421 0.406132  0.589862 0.180639 1 1 1.000000
0  -16.805662 95.462158 39.155746  0.170786 -0.897372 0.406886  0.589862 0.181616 1 1 1.000000
0  -12.869203 96.176857 39.356438  0.116981 -0.905958 0.406886  0.569353 0.178686 1 1 1.000000
skin_0
0  -7.322371 96.795593 39.548740  0.060206 -0.916294 0.395955  0.539079 0.176733 1 1 1.000000
0  -7.322371 96.853355 39.678143  0.057783 -0.916479 0.395887  0.539079 0.175756 1 1 1.000000
0  -12.882966 96.247131 39.500755  0.114477 -0.906332 0.406765  0.569353 0.178686 1 1 1.000000
skin_0
0  -12.882966 96.247131 39.500755  0.114477 -0.906332 0.406765  0.569353 0.178686 1 1 1.000000
0  -12.869203 96.176857 39.356438  0.116981 -0.905958 0.406886  0.569353 0.178686 1 1 1.000000
0  -7.322371 96.795593 39.548740  0.060206 -0.916294 0.395955  0.539079 0.176733 1 1 1.000000
skin_0
0  -16.805662 95.462158 39.155746  0.170786 -0.897372 0.406886  0.589862 0.181616 1 1 1.000000
0  -16.805662 95.518715 39.298859  0.167021 -0.898421 0.406132  0.589862 0.180639 1 1 1.000000
0  -20.563194 94.624550 39.096283  0.208349 -0.857422 0.470551  0.610370 0.184545 1 1 1.000000
skin_0
0  -20.563194 94.624550 39.096283  0.208349 -0.857422 0.470551  0.610370 0.184545 1 1 1.000000
0  -20.549429 94.540565 38.950771  0.213435 -0.854917 0.472825  0.610370 0.184545 1 1 1.000000
0  -16.805662 95.462158 39.155746  0.170786 -0.897372 0.406886  0.589862 0.181616 1 1 1.000000
skin_0
0  -20.549429 94.540565 38.950771  0.213435 -0.854917 0.472825  0.610370 0.184545 1 1 1.000000
0  -20.563194 94.624550 39.096283  0.208349 -0.857422 0.470551  0.610370 0.184545 1 1 1.000000
0  -23.563713 93.675552 38.888908  0.219338 -0.789924 0.572635  0.625996 0.187475 1 1 1.000000
skin_0
0  -23.563713 93.675552 38.888908  0.219338 -0.789924 0.572635  0.625996 0.187475 1 1 1.000000
0  -23.563713 93.564133 38.740997  0.218409 -0.783692 0.581485  0.625996 0.188452 1 1 1.000000
0  -20.549429 94.540565 38.950771  0.213435 -0.854917 0.472825  0.610370 0.184545 1 1 1.000000
skin_0
0  -25.105263 93.810265 38.928326  -0.317360 0.078529 0.945048  0.634785 0.187475 1 1 1.000000
0  -26.247663 92.875648 38.556416  -0.576351 0.024755 0.816827  0.640645 0.190405 1 1 1.000000
0  -26.233900 92.723618 38.556931  -0.372884 -0.250985 0.893288  0.640645 0.191382 1 1 1.000000
skin_0
0  -26.233900 92.723618 38.556931  -0.372884 -0.250985 0.893288  0.640645 0.191382 1 1 1.000000
0  -25.091499 93.740509 38.936043  -0.188149 -0.123957 0.974287  0.634785 0.187475 1 1 1.000000
0  -25.105263 93.810265 38.928326  -0.317360 0.078529 0.945048  0.634785 0.187475 1 1 1.000000
skin_0
0  -0.013768 98.596092 40.604328  -0.000025 0.878029 0.478608  0.500015 0.169897 1 1 1.000000
0  -7.281080 98.314148 40.510578  -0.076674 0.878381 0.471771  0.539079 0.170873 1 1 1.000000
0  -7.281080 98.143623 40.564743  -0.013070 -0.185996 0.982464  0.539079 0.170873 1 1 1.000000
skin_0
0  -7.281080 98.143623 40.564743  -0.013070 -0.185996 0.982464  0.539079 0.170873 1 1 1.000000
0  -0.013768 98.425552 40.658489  0.000001 -0.182916 0.983128  0.500015 0.169897 1 1 1.000000
0  -0.013768 98.596092 40.604328  -0.000025 0.878029 0.478608  0.500015 0.169897 1 1 1.000000
skin_0
0  -12.951786 97.684113 40.289661  -0.152448 0.869157 0.470453  0.569353 0.172826 1 1 1.000000
0  -16.846954 96.944366 40.059143  -0.223126 0.845678 0.484813  0.589862 0.175756 1 1 1.000000
0  -16.846954 96.760117 40.112106  -0.040437 -0.176357 0.983495  0.589862 0.176733 1 1 1.000000
skin_0
0  -16.846954 96.760117 40.112106  -0.040437 -0.176357 0.983495  0.589862 0.176733 1 1 1.000000
0  -12.951786 97.499863 40.342621  -0.023159 -0.175664 0.984178  0.569353 0.173803 1 1 1.000000
0  -12.951786 97.684113 40.289661  -0.152448 0.869157 0.470453  0.569353 0.172826 1 1 1.000000
skin_0
0  -7.281080 98.314148 40.510578  -0.076674 0.878381 0.471771  0.539079 0.170873 1 1 1.000000
0  -12.951786 97.684113 40.289661  -0.152448 0.869157 0.470453  0.569353 0.172826 1 1 1.000000
0  -12.951786 97.499863 40.342621  -0.023159 -0.175664 0.984178  0.569353 0.173803 1 1 1.000000
skin_0
0  -12.951786 97.499863 40.342621  -0.023159 -0.175664 0.984178  0.569353 0.173803 1 1 1.000000
0  -7.281080 98.143623 40.564743  -0.013070 -0.185996 0.982464  0.539079 0.170873 1 1 1.000000
0  -7.281080 98.314148 40.510578  -0.076674 0.878381 0.471771  0.539079 0.170873 1 1 1.000000
skin_0
0  -16.846954 96.944366 40.059143  -0.223126 0.845678 0.484813  0.589862 0.175756 1 1 1.000000
0  -20.576958 95.968620 39.683636  -0.311067 0.821489 0.477905  0.610370 0.179662 1 1 1.000000
0  -20.576958 95.798088 39.737797  -0.081565 -0.138261 0.987031  0.610370 0.179662 1 1 1.000000
skin_0
0  -20.576958 95.798088 39.737797  -0.081565 -0.138261 0.987031  0.610370 0.179662 1 1 1.000000
0  -16.846954 96.760117 40.112106  -0.040437 -0.176357 0.983495  0.589862 0.176733 1 1 1.000000
0  -16.846954 96.944366 40.059143  -0.223126 0.845678 0.484813  0.589862 0.175756 1 1 1.000000
skin_0
0  -20.576958 95.968620 39.683636  -0.311067 0.821489 0.477905  0.610370 0.179662 1 1 1.000000
0  -23.577477 94.860565 39.241280  -0.428015 0.774934 0.465061  0.625996 0.183569 1 1 1.000000
0  -23.577477 94.690033 39.295444  -0.165090 -0.064316 0.984179  0.625996 0.183569 1 1 1.000000
skin_0
0  -23.577477 94.690033 39.295444  -0.165090 -0.064316 0.984179  0.625996 0.183569 1 1 1.000000
0  -20.576958 95.798088 39.737797  -0.081565 -0.138261 0.987031  0.610370 0.179662 1 1 1.000000
0  -20.576958 95.968620 39.683636  -0.311067 0.821489 0.477905  0.610370 0.179662 1 1 1.000000
skin_0
0  -23.577477 94.860565 39.241280  -0.428015 0.774934 0.465061  0.625996 0.183569 1 1 1.000000
0  -25.119026 94.046959 38.907585  -0.544973 0.663796 0.512230  0.634785 0.186499 1 1 1.000000
0  -25.105263 93.810265 38.928326  -0.317360 0.078529 0.945048  0.634785 0.187475 1 1 1.000000
skin_0
0  -25.105263 93.810265 38.928326  -0.317360 0.078529 0.945048  0.634785 0.187475 1 1 1.000000
0  -23.577477 94.690033 39.295444  -0.165090 -0.064316 0.984179  0.625996 0.183569 1 1 1.000000
0  -23.577477 94.860565 39.241280  -0.428015 0.774934 0.465061  0.625996 0.183569 1 1 1.000000
skin_0
0  -26.357773 93.028366 38.390167  -0.885517 0.065160 0.460015  0.641621 0.190405 1 1 1.000000
0  -26.275190 93.222038 38.545273  -0.716726 0.391195 0.577295  0.640645 0.189428 1 1 1.000000
0  -26.302719 93.222717 38.379539  -0.825346 0.555019 0.103717  0.641621 0.189428 1 1 1.000000
skin_0
0  -0.013768 98.564560 40.491039  0.000000 0.963190 -0.268822  0.500015 0.169897 1 1 1.000000
0  -7.294844 98.282616 40.397289  -0.065702 0.957007 -0.282526  0.539079 0.170873 1 1 1.000000
0  -7.281080 98.314148 40.510578  -0.076674 0.878381 0.471771  0.539079 0.170873 1 1 1.000000
skin_0
0  -7.281080 98.314148 40.510578  -0.076674 0.878381 0.471771  0.539079 0.170873 1 1 1.000000
0  -0.013768 98.596092 40.604328  -0.000025 0.878029 0.478608  0.500015 0.169897 1 1 1.000000
0  -0.013768 98.564560 40.491039  0.000000 0.963190 -0.268822  0.500015 0.169897 1 1 1.000000
skin_0
0  -12.951786 97.640053 40.161461  -0.130244 0.952791 -0.274273  0.569353 0.172826 1 1 1.000000
0  -16.846954 96.912834 39.945854  -0.192086 0.951557 -0.240088  0.589862 0.175756 1 1 1.000000
0  -16.846954 96.944366 40.059143  -0.223126 0.845678 0.484813  0.589862 0.175756 1 1 1.000000
skin_0
0  -16.846954 96.944366 40.059143  -0.223126 0.845678 0.484813  0.589862 0.175756 1 1 1.000000
0  -12.951786 97.684113 40.289661  -0.152448 0.869157 0.470453  0.569353 0.172826 1 1 1.000000
0  -12.951786 97.640053 40.161461  -0.130244 0.952791 -0.274273  0.569353 0.172826 1 1 1.000000
skin_0
0  -7.294844 98.282616 40.397289  -0.065702 0.957007 -0.282526  0.539079 0.170873 1 1 1.000000
0  -12.951786 97.640053 40.161461  -0.130244 0.952791 -0.274273  0.569353 0.172826 1 1 1.000000
0  -12.951786 97.684113 40.289661  -0.152448 0.869157 0.470453  0.569353 0.172826 1 1 1.000000
skin_0
0  -12.951786 97.684113 40.289661  -0.152448 0.869157 0.470453  0.569353 0.172826 1 1 1.000000
0  -7.281080 98.314148 40.510578  -0.076674 0.878381 0.471771  0.539079 0.170873 1 1 1.000000
0  -7.294844 98.282616 40.397289  -0.065702 0.957007 -0.282526  0.539079 0.170873 1 1 1.000000
skin_0
0  -16.846954 96.912834 39.945854  -0.192086 0.951557 -0.240088  0.589862 0.175756 1 1 1.000000
0  -20.563194 95.950798 39.571545  -0.265422 0.937763 -0.223945  0.610370 0.179662 1 1 1.000000
0  -20.576958 95.968620 39.683636  -0.311067 0.821489 0.477905  0.610370 0.179662 1 1 1.000000
skin_0
0  -20.576958 95.968620 39.683636  -0.311067 0.821489 0.477905  0.610370 0.179662 1 1 1.000000
0  -16.846954 96.944366 40.059143  -0.223126 0.845678 0.484813  0.589862 0.175756 1 1 1.000000
0  -16.846954 96.912834 39.945854  -0.192086 0.951557 -0.240088  0.589862 0.175756 1 1 1.000000
skin_0
0  -20.563194 95.950798 39.571545  -0.265422 0.937763 -0.223945  0.610370 0.179662 1 1 1.000000
0  -23.549950 94.842743 39.129189  -0.365339 0.907198 -0.208611  0.625996 0.183569 1 1 1.000000
0  -23.577477 94.860565 39.241280  -0.428015 0.774934 0.465061  0.625996 0.183569 1 1 1.000000
skin_0
0  -23.577477 94.860565 39.241280  -0.428015 0.774934 0.465061  0.625996 0.183569 1 1 1.000000
0  -20.576958 95.968620 39.683636  -0.311067 0.821489 0.477905  0.610370 0.179662 1 1 1.000000
0  -20.563194 95.950798 39.571545  -0.265422 0.937763 -0.223945  0.610370 0.179662 1 1 1.000000
skin_0
0  -23.549950 94.842743 39.129189  -0.365339 0.907198 -0.208611  0.625996 0.183569 1 1 1.000000
0  -25.050207 94.057755 38.784184  -0.458249 0.860381 -0.223051  0.634785 0.186499 1 1 1.000000
0  -25.119026 94.046959 38.907585  -0.544973 0.663796 0.512230  0.634785 0.186499 1 1 1.000000
skin_0
0  -25.119026 94.046959 38.907585  -0.544973 0.663796 0.512230  0.634785 0.186499 1 1 1.000000
0  -23.577477 94.860565 39.241280  -0.428015 0.774934 0.465061  0.625996 0.183569 1 1 1.000000
0  -23.549950 94.842743 39.129189  -0.365339 0.907198 -0.208611  0.625996 0.183569 1 1 1.000000
skin_0
0  -26.233900 92.723618 38.556931  -0.372884 -0.250985 0.893288  0.640645 0.191382 1 1 1.000000
0  -26.247663 92.875648 38.556416  -0.576351 0.024755 0.816827  0.640645 0.190405 1 1 1.000000
0  -26.385300 92.625923 38.410225  -0.622271 -0.220826 0.751009  0.641621 0.191382 1 1 1.000000
skin_0
0  -26.178846 92.511436 38.455475  -0.157083 -0.498201 0.852713  0.640645 0.192358 1 1 1.000000
0  -26.233900 92.723618 38.556931  -0.372884 -0.250985 0.893288  0.640645 0.191382 1 1 1.000000
0  -26.385300 92.625923 38.410225  -0.622271 -0.220826 0.751009  0.641621 0.191382 1 1 1.000000
skin_0
0  -25.917330 92.788582 38.604065  0.102995 -0.533179 0.839710  0.638691 0.191382 1 1 1.000000
0  -26.178846 92.511436 38.455475  -0.157083 -0.498201 0.852713  0.640645 0.192358 1 1 1.000000
0  -23.563713 93.564133 38.740997  0.218409 -0.783692 0.581485  0.625996 0.188452 1 1 1.000000
skin_0
0  -23.563713 93.564133 38.740997  0.218409 -0.783692 0.581485  0.625996 0.188452 1 1 1.000000
0  -23.563713 93.675552 38.888908  0.219338 -0.789924 0.572635  0.625996 0.187475 1 1 1.000000
0  -25.917330 92.788582 38.604065  0.102995 -0.533179 0.839710  0.638691 0.191382 1 1 1.000000
skin_0
0  -26.302719 93.222717 38.379539  -0.825346 0.555019 0.103717  0.641621 0.189428 1 1 1.000000
0  -25.050207 94.057755 38.784184  -0.458249 0.860381 -0.223051  0.634785 0.186499 1 1 1.000000
0  -24.912571 94.064438 38.549892  -0.443225 0.869062 -0.219734  0.633808 0.186499 1 1 1.000000
skin_0
0  -25.050207 94.057755 38.784184  -0.458249 0.860381 -0.223051  0.634785 0.186499 1 1 1.000000
0  -26.302719 93.222717 38.379539  -0.825346 0.555019 0.103717  0.641621 0.189428 1 1 1.000000
0  -26.275190 93.222038 38.545273  -0.716726 0.391195 0.577295  0.640645 0.189428 1 1 1.000000
skin_0
0  -26.275190 93.222038 38.545273  -0.716726 0.391195 0.577295  0.640645 0.189428 1 1 1.000000
0  -25.119026 94.046959 38.907585  -0.544973 0.663796 0.512230  0.634785 0.186499 1 1 1.000000
0  -25.050207 94.057755 38.784184  -0.458249 0.860381 -0.223051  0.634785 0.186499 1 1 1.000000
skin_0
0  -0.013768 97.754547 40.116207  0.000000 -0.556434 0.830892  0.500015 0.172826 1 1 1.000000
0  -0.013768 98.321861 40.580338  0.000021 -0.633155 0.774025  0.500015 0.170873 1 1 1.000000
0  -7.294844 98.039917 40.486588  0.027741 -0.636297 0.770945  0.539079 0.171850 1 1 1.000000
skin_0
0  -7.294844 98.039917 40.486588  0.027741 -0.636297 0.770945  0.539079 0.171850 1 1 1.000000
0  -7.308608 97.472610 40.022457  0.021300 -0.560028 0.828200  0.539079 0.173803 1 1 1.000000
0  -0.013768 97.754547 40.116207  0.000000 -0.556434 0.830892  0.500015 0.172826 1 1 1.000000
skin_0
0  -12.910495 96.827652 39.814056  0.044053 -0.545902 0.836690  0.569353 0.175756 1 1 1.000000
0  -12.951786 97.396164 40.264469  0.056033 -0.618358 0.783897  0.569353 0.173803 1 1 1.000000
0  -16.846954 96.656425 40.033951  0.076592 -0.615143 0.784687  0.589862 0.176733 1 1 1.000000
skin_0
0  -16.846954 96.656425 40.033951  0.076592 -0.615143 0.784687  0.589862 0.176733 1 1 1.000000
0  -16.819427 96.100418 39.598450  0.060745 -0.539771 0.839617  0.589862 0.178686 1 1 1.000000
0  -12.910495 96.827652 39.814056  0.044053 -0.545902 0.836690  0.569353 0.175756 1 1 1.000000
skin_0
0  -7.308608 97.472610 40.022457  0.021300 -0.560028 0.828200  0.539079 0.173803 1 1 1.000000
0  -7.294844 98.039917 40.486588  0.027741 -0.636297 0.770945  0.539079 0.171850 1 1 1.000000
0  -12.951786 97.396164 40.264469  0.056033 -0.618358 0.783897  0.569353 0.173803 1 1 1.000000
skin_0
0  -12.951786 97.396164 40.264469  0.056033 -0.618358 0.783897  0.569353 0.173803 1 1 1.000000
0  -12.910495 96.827652 39.814056  0.044053 -0.545902 0.836690  0.569353 0.175756 1 1 1.000000
0  -7.308608 97.472610 40.022457  0.021300 -0.560028 0.828200  0.539079 0.173803 1 1 1.000000
skin_0
0  -16.819427 96.100418 39.598450  0.060745 -0.539771 0.839617  0.589862 0.178686 1 1 1.000000
0  -16.846954 96.656425 40.033951  0.076592 -0.615143 0.784687  0.589862 0.176733 1 1 1.000000
0  -20.576958 95.680679 39.658443  0.083751 -0.555726 0.827136  0.610370 0.180639 1 1 1.000000
skin_0
0  -20.576958 95.680679 39.658443  0.083751 -0.555726 0.827136  0.610370 0.180639 1 1 1.000000
0  -20.563194 95.158615 39.308807  0.069849 -0.466292 0.881869  0.610370 0.182592 1 1 1.000000
0  -16.819427 96.100418 39.598450  0.060745 -0.539771 0.839617  0.589862 0.178686 1 1 1.000000
skin_0
0  -20.576958 95.680679 39.658443  0.083751 -0.555726 0.827136  0.610370 0.180639 1 1 1.000000
0  -23.577477 94.543999 39.227402  0.047504 -0.433025 0.900129  0.625996 0.184545 1 1 1.000000
0  -23.563713 94.185783 39.057896  0.037907 -0.379756 0.924310  0.625996 0.185522 1 1 1.000000
skin_0
0  -23.563713 94.185783 39.057896  0.037907 -0.379756 0.924310  0.625996 0.185522 1 1 1.000000
0  -20.563194 95.158615 39.308807  0.069849 -0.466292 0.881869  0.610370 0.182592 1 1 1.000000
0  -20.576958 95.680679 39.658443  0.083751 -0.555726 0.827136  0.610370 0.180639 1 1 1.000000
skin_0
0  -23.577477 94.543999 39.227402  0.047504 -0.433025 0.900129  0.625996 0.184545 1 1 1.000000
0  -25.036444 93.620712 38.884109  0.010479 -0.345208 0.938468  0.634785 0.187475 1 1 1.000000
0  -23.563713 94.185783 39.057896  0.037907 -0.379756 0.924310  0.625996 0.185522 1 1 1.000000
skin_0
0  -26.178846 92.511436 38.455475  -0.157083 -0.498201 0.852713  0.640645 0.192358 1 1 1.000000
0  -25.917330 92.788582 38.604065  0.102995 -0.533179 0.839710  0.638691 0.191382 1 1 1.000000
0  -26.233900 92.723618 38.556931  -0.372884 -0.250985 0.893288  0.640645 0.191382 1 1 1.000000
skin_0
0  -0.013768 97.134109 39.785603  0.000000 -0.471214 0.882019  0.500015 0.174779 1 1 1.000000
0  -0.013768 97.754547 40.116207  0.000000 -0.556434 0.830892  0.500015 0.172826 1 1 1.000000
0  -7.308608 97.472610 40.022457  0.021300 -0.560028 0.828200  0.539079 0.173803 1 1 1.000000
skin_0
0  -7.308608 97.472610 40.022457  0.021300 -0.560028 0.828200  0.539079 0.173803 1 1 1.000000
0  -7.322371 96.853355 39.678143  0.014467 -0.475164 0.879778  0.539079 0.175756 1 1 1.000000
0  -0.013768 97.134109 39.785603  0.000000 -0.471214 0.882019  0.500015 0.174779 1 1 1.000000
skin_0
0  -12.882966 96.247131 39.500755  0.030443 -0.465257 0.884652  0.569353 0.178686 1 1 1.000000
0  -12.910495 96.827652 39.814056  0.044053 -0.545902 0.836690  0.569353 0.175756 1 1 1.000000
0  -16.819427 96.100418 39.598450  0.060745 -0.539771 0.839617  0.589862 0.178686 1 1 1.000000
skin_0
0  -16.819427 96.100418 39.598450  0.060745 -0.539771 0.839617  0.589862 0.178686 1 1 1.000000
0  -16.805662 95.518715 39.298859  0.043265 -0.454799 0.889543  0.589862 0.180639 1 1 1.000000
0  -12.882966 96.247131 39.500755  0.030443 -0.465257 0.884652  0.569353 0.178686 1 1 1.000000
skin_0
0  -7.322371 96.853355 39.678143  0.014467 -0.475164 0.879778  0.539079 0.175756 1 1 1.000000
0  -7.308608 97.472610 40.022457  0.021300 -0.560028 0.828200  0.539079 0.173803 1 1 1.000000
0  -12.910495 96.827652 39.814056  0.044053 -0.545902 0.836690  0.569353 0.175756 1 1 1.000000
skin_0
0  -12.910495 96.827652 39.814056  0.044053 -0.545902 0.836690  0.569353 0.175756 1 1 1.000000
0  -12.882966 96.247131 39.500755  0.030443 -0.465257 0.884652  0.569353 0.178686 1 1 1.000000
0  -7.322371 96.853355 39.678143  0.014467 -0.475164 0.879778  0.539079 0.175756 1 1 1.000000
skin_0
0  -16.805662 95.518715 39.298859  0.043265 -0.454799 0.889543  0.589862 0.180639 1 1 1.000000
0  -16.819427 96.100418 39.598450  0.060745 -0.539771 0.839617  0.589862 0.178686 1 1 1.000000
0  -20.563194 95.158615 39.308807  0.069849 -0.466292 0.881869  0.610370 0.182592 1 1 1.000000
skin_0
0  -20.563194 95.158615 39.308807  0.069849 -0.466292 0.881869  0.610370 0.182592 1 1 1.000000
0  -20.563194 94.624550 39.096283  0.045138 -0.365719 0.929630  0.610370 0.184545 1 1 1.000000
0  -16.805662 95.518715 39.298859  0.043265 -0.454799 0.889543  0.589862 0.180639 1 1 1.000000
skin_0
0  -20.563194 95.158615 39.308807  0.069849 -0.466292 0.881869  0.610370 0.182592 1 1 1.000000
0  -23.563713 94.185783 39.057896  0.037907 -0.379756 0.924310  0.625996 0.185522 1 1 1.000000
0  -23.563713 93.675552 38.888908  0.018923 -0.321898 0.946585  0.625996 0.187475 1 1 1.000000
skin_0
0  -23.563713 93.675552 38.888908  0.018923 -0.321898 0.946585  0.625996 0.187475 1 1 1.000000
0  -20.563194 94.624550 39.096283  0.045138 -0.365719 0.929630  0.610370 0.184545 1 1 1.000000
0  -20.563194 95.158615 39.308807  0.069849 -0.466292 0.881869  0.610370 0.182592 1 1 1.000000
skin_0
0  -23.563713 93.675552 38.888908  0.018923 -0.321898 0.946585  0.625996 0.187475 1 1 1.000000
0  -23.563713 94.185783 39.057896  0.037907 -0.379756 0.924310  0.625996 0.185522 1 1 1.000000
0  -25.036444 93.620712 38.884109  0.010479 -0.345208 0.938468  0.634785 0.187475 1 1 1.000000
skin_0
0  -25.036444 93.620712 38.884109  0.010479 -0.345208 0.938468  0.634785 0.187475 1 1 1.000000
0  -25.917330 92.788582 38.604065  -0.048336 -0.292843 0.954938  0.638691 0.191382 1 1 1.000000
0  -23.563713 93.675552 38.888908  0.018923 -0.321898 0.946585  0.625996 0.187475 1 1 1.000000
skin_0
0  -25.917330 92.788582 38.604065  -0.048336 -0.292843 0.954938  0.638691 0.191382 1 1 1.000000
0  -25.036444 93.620712 38.884109  0.010479 -0.345208 0.938468  0.634785 0.187475 1 1 1.000000
0  -25.091499 93.740509 38.936043  -0.188149 -0.123957 0.974287  0.634785 0.187475 1 1 1.000000
skin_0
0  -25.091499 93.740509 38.936043  -0.188149 -0.123957 0.974287  0.634785 0.187475 1 1 1.000000
0  -26.233900 92.723618 38.556931  -0.372884 -0.250985 0.893288  0.640645 0.191382 1 1 1.000000
0  -25.917330 92.788582 38.604065  -0.048336 -0.292843 0.954938  0.638691 0.191382 1 1 1.000000
skin_0
0  -26.247663 92.875648 38.556416  -0.576351 0.024755 0.816827  0.640645 0.190405 1 1 1.000000
0  -25.105263 93.810265 38.928326  -0.317360 0.078529 0.945048  0.634785 0.187475 1 1 1.000000
0  -25.119026 94.046959 38.907585  -0.544973 0.663796 0.512230  0.634785 0.186499 1 1 1.000000
skin_0
0  -25.119026 94.046959 38.907585  -0.544973 0.663796 0.512230  0.634785 0.186499 1 1 1.000000
0  -26.275190 93.222038 38.545273  -0.716726 0.391195 0.577295  0.640645 0.189428 1 1 1.000000
0  -26.247663 92.875648 38.556416  -0.576351 0.024755 0.816827  0.640645 0.190405 1 1 1.000000
skin_0
0  -23.577477 94.690033 39.295444  -0.165090 -0.064316 0.984179  0.625996 0.183569 1 1 1.000000
0  -25.105263 93.810265 38.928326  -0.317360 0.078529 0.945048  0.634785 0.187475 1 1 1.000000
0  -25.091499 93.740509 38.936043  -0.188149 -0.123957 0.974287  0.634785 0.187475 1 1 1.000000
skin_0
0  -26.357773 93.028366 38.390167  -0.885517 0.065160 0.460015  0.641621 0.190405 1 1 1.000000
0  -26.385300 92.625923 38.410225  -0.622271 -0.220826 0.751009  0.641621 0.191382 1 1 1.000000
0  -26.247663 92.875648 38.556416  -0.576351 0.024755 0.816827  0.640645 0.190405 1 1 1.000000
skin_0
0  -26.247663 92.875648 38.556416  -0.576351 0.024755 0.816827  0.640645 0.190405 1 1 1.000000
0  -26.275190 93.222038 38.545273  -0.716726 0.391195 0.577295  0.640645 0.189428 1 1 1.000000
0  -26.357773 93.028366 38.390167  -0.885517 0.065160 0.460015  0.641621 0.190405 1 1 1.000000
skin_0
0  -0.013768 98.366417 39.755249  -0.000024 0.963085 -0.269199  0.500015 0.170873 1 1 1.000000
0  -0.013768 98.564560 40.491039  0.000000 0.963190 -0.268822  0.500015 0.169897 1 1 1.000000
0  7.267308 98.282616 40.397289  0.065652 0.957012 -0.282521  0.460952 0.170873 1 1 1.000000
skin_0
0  7.267308 98.282616 40.397289  0.065652 0.957012 -0.282521  0.460952 0.170873 1 1 1.000000
0  7.336127 98.057045 39.659103  0.068622 0.956791 -0.282562  0.459975 0.171850 1 1 1.000000
0  -0.013768 98.366417 39.755249  -0.000024 0.963085 -0.269199  0.500015 0.170873 1 1 1.000000
skin_0
0  12.910485 97.438316 39.466805  0.130932 0.953305 -0.272153  0.430677 0.173803 1 1 1.000000
0  12.924250 97.640053 40.161461  0.130184 0.952782 -0.274331  0.430677 0.172826 1 1 1.000000
0  16.819420 96.912834 39.945854  0.192021 0.951560 -0.240129  0.409192 0.175756 1 1 1.000000
skin_0
0  16.819420 96.912834 39.945854  0.192021 0.951560 -0.240129  0.409192 0.175756 1 1 1.000000
0  16.833183 96.738518 39.253597  0.192685 0.951804 -0.238625  0.409192 0.176733 1 1 1.000000
0  12.910485 97.438316 39.466805  0.130932 0.953305 -0.272153  0.430677 0.173803 1 1 1.000000
skin_0
0  7.336127 98.057045 39.659103  0.068622 0.956791 -0.282562  0.459975 0.171850 1 1 1.000000
0  7.267308 98.282616 40.397289  0.065652 0.957012 -0.282521  0.460952 0.170873 1 1 1.000000
0  12.924250 97.640053 40.161461  0.130184 0.952782 -0.274331  0.430677 0.172826 1 1 1.000000
skin_0
0  12.924250 97.640053 40.161461  0.130184 0.952782 -0.274331  0.430677 0.172826 1 1 1.000000
0  12.910485 97.438316 39.466805  0.130932 0.953305 -0.272153  0.430677 0.173803 1 1 1.000000
0  7.336127 98.057045 39.659103  0.068622 0.956791 -0.282562  0.459975 0.171850 1 1 1.000000
skin_0
0  16.833183 96.738518 39.253597  0.192685 0.951804 -0.238625  0.409192 0.176733 1 1 1.000000
0  16.819420 96.912834 39.945854  0.192021 0.951560 -0.240129  0.409192 0.175756 1 1 1.000000
0  20.535658 95.950798 39.571545  0.265373 0.937766 -0.223990  0.389660 0.179662 1 1 1.000000
skin_0
0  20.535658 95.950798 39.571545  0.265373 0.937766 -0.223990  0.389660 0.179662 1 1 1.000000
0  20.480602 95.835449 38.994972  0.265597 0.937900 -0.223163  0.389660 0.179662 1 1 1.000000
0  16.833183 96.738518 39.253597  0.192685 0.951804 -0.238625  0.409192 0.176733 1 1 1.000000
skin_0
0  20.480602 95.835449 38.994972  0.265597 0.937900 -0.223163  0.389660 0.179662 1 1 1.000000
0  20.535658 95.950798 39.571545  0.265373 0.937766 -0.223990  0.389660 0.179662 1 1 1.000000
0  23.522413 94.842743 39.129189  0.365280 0.907217 -0.208632  0.373058 0.183569 1 1 1.000000
skin_0
0  23.522413 94.842743 39.129189  0.365280 0.907217 -0.208632  0.373058 0.183569 1 1 1.000000
0  23.467358 94.767838 38.721958  0.365185 0.907228 -0.208754  0.373058 0.183569 1 1 1.000000
0  20.480602 95.835449 38.994972  0.265597 0.937900 -0.223163  0.389660 0.179662 1 1 1.000000
skin_0
0  23.467358 94.767838 38.721958  0.365185 0.907228 -0.208754  0.373058 0.183569 1 1 1.000000
0  23.522413 94.842743 39.129189  0.365280 0.907217 -0.208632  0.373058 0.183569 1 1 1.000000
0  25.022673 94.057755 38.784184  0.458181 0.860411 -0.223075  0.365246 0.186499 1 1 1.000000
skin_0
0  25.022673 94.057755 38.784184  0.458181 0.860411 -0.223075  0.365246 0.186499 1 1 1.000000
0  24.885033 94.064438 38.549892  0.443166 0.869079 -0.219784  0.366222 0.186499 1 1 1.000000
0  23.467358 94.767838 38.721958  0.365185 0.907228 -0.208754  0.373058 0.183569 1 1 1.000000
skin_0
0  -0.013768 98.321861 40.580338  0.000021 -0.633155 0.774025  0.500015 0.170873 1 1 1.000000
0  7.267308 98.039917 40.486588  -0.027735 -0.636262 0.770975  0.460952 0.171850 1 1 1.000000
0  7.253544 98.143623 40.564743  0.013072 -0.185947 0.982473  0.460952 0.170873 1 1 1.000000
skin_0
0  7.253544 98.143623 40.564743  0.013072 -0.185947 0.982473  0.460952 0.170873 1 1 1.000000
0  -0.013768 98.425552 40.658489  0.000001 -0.182916 0.983128  0.500015 0.169897 1 1 1.000000
0  -0.013768 98.321861 40.580338  0.000021 -0.633155 0.774025  0.500015 0.170873 1 1 1.000000
skin_0
0  12.924250 97.396164 40.264469  -0.056034 -0.618332 0.783917  0.430677 0.173803 1 1 1.000000
0  16.819420 96.656425 40.033951  -0.076600 -0.615167 0.784667  0.409192 0.176733 1 1 1.000000
0  16.819420 96.760117 40.112106  0.040392 -0.176438 0.983483  0.409192 0.176733 1 1 1.000000
skin_0
0  16.819420 96.760117 40.112106  0.040392 -0.176438 0.983483  0.409192 0.176733 1 1 1.000000
0  12.924250 97.499863 40.342621  0.023179 -0.175570 0.984194  0.430677 0.173803 1 1 1.000000
0  12.924250 97.396164 40.264469  -0.056034 -0.618332 0.783917  0.430677 0.173803 1 1 1.000000
skin_0
0  7.267308 98.039917 40.486588  -0.027735 -0.636262 0.770975  0.460952 0.171850 1 1 1.000000
0  12.924250 97.396164 40.264469  -0.056034 -0.618332 0.783917  0.430677 0.173803 1 1 1.000000
0  12.924250 97.499863 40.342621  0.023179 -0.175570 0.984194  0.430677 0.173803 1 1 1.000000
skin_0
0  12.924250 97.499863 40.342621  0.023179 -0.175570 0.984194  0.430677 0.173803 1 1 1.000000
0  7.253544 98.143623 40.564743  0.013072 -0.185947 0.982473  0.460952 0.170873 1 1 1.000000
0  7.267308 98.039917 40.486588  -0.027735 -0.636262 0.770975  0.460952 0.171850 1 1 1.000000
skin_0
0  16.819420 96.656425 40.033951  -0.076600 -0.615167 0.784667  0.409192 0.176733 1 1 1.000000
0  20.549421 95.680679 39.658443  -0.083748 -0.555729 0.827135  0.389660 0.180639 1 1 1.000000
0  20.549421 95.798088 39.737797  0.081535 -0.138360 0.987020  0.389660 0.179662 1 1 1.000000
skin_0
0  20.549421 95.798088 39.737797  0.081535 -0.138360 0.987020  0.389660 0.179662 1 1 1.000000
0  16.819420 96.760117 40.112106  0.040392 -0.176438 0.983483  0.409192 0.176733 1 1 1.000000
0  16.819420 96.656425 40.033951  -0.076600 -0.615167 0.784667  0.409192 0.176733 1 1 1.000000
skin_0
0  20.549421 95.798088 39.737797  0.081535 -0.138360 0.987020  0.389660 0.179662 1 1 1.000000
0  20.549421 95.680679 39.658443  -0.083748 -0.555729 0.827135  0.389660 0.180639 1 1 1.000000
0  23.549942 94.543999 39.227402  -0.047500 -0.433028 0.900128  0.373058 0.184545 1 1 1.000000
skin_0
0  23.549942 94.543999 39.227402  -0.047500 -0.433028 0.900128  0.373058 0.184545 1 1 1.000000
0  23.549942 94.690033 39.295444  0.165062 -0.064307 0.984184  0.373058 0.183569 1 1 1.000000
0  20.549421 95.798088 39.737797  0.081535 -0.138360 0.987020  0.389660 0.179662 1 1 1.000000
skin_0
0  25.008909 93.620712 38.884109  -0.010476 -0.345231 0.938459  0.365246 0.187475 1 1 1.000000
0  25.063963 93.740509 38.936043  0.188133 -0.124016 0.974282  0.365246 0.187475 1 1 1.000000
0  23.549942 94.690033 39.295444  0.165062 -0.064307 0.984184  0.373058 0.183569 1 1 1.000000
skin_0
0  23.549942 94.690033 39.295444  0.165062 -0.064307 0.984184  0.373058 0.183569 1 1 1.000000
0  23.549942 94.543999 39.227402  -0.047500 -0.433028 0.900128  0.373058 0.184545 1 1 1.000000
0  25.008909 93.620712 38.884109  -0.010476 -0.345231 0.938459  0.365246 0.187475 1 1 1.000000
skin_0
0  -0.013768 97.077545 39.642487  -0.000001 -0.916224 0.400666  0.500015 0.175756 1 1 1.000000
0  7.294835 96.795593 39.548740  -0.060210 -0.916324 0.395886  0.459975 0.176733 1 1 1.000000
0  7.294835 96.853355 39.678143  -0.057783 -0.916490 0.395862  0.459975 0.175756 1 1 1.000000
skin_0
0  7.294835 96.853355 39.678143  -0.057783 -0.916490 0.395862  0.459975 0.175756 1 1 1.000000
0  -0.013768 97.134109 39.785603  -0.000001 -0.916206 0.400708  0.500015 0.174779 1 1 1.000000
0  -0.013768 97.077545 39.642487  -0.000001 -0.916224 0.400666  0.500015 0.175756 1 1 1.000000
skin_0
0  12.841666 96.176857 39.356438  -0.116979 -0.905916 0.406980  0.430677 0.178686 1 1 1.000000
0  16.778128 95.462158 39.155746  -0.170777 -0.897373 0.406886  0.409192 0.181616 1 1 1.000000
0  16.778128 95.518715 39.298859  -0.167026 -0.898420 0.406132  0.409192 0.180639 1 1 1.000000
skin_0
0  16.778128 95.518715 39.298859  -0.167026 -0.898420 0.406132  0.409192 0.180639 1 1 1.000000
0  12.855430 96.247131 39.500755  -0.114469 -0.906291 0.406857  0.430677 0.178686 1 1 1.000000
0  12.841666 96.176857 39.356438  -0.116979 -0.905916 0.406980  0.430677 0.178686 1 1 1.000000
skin_0
0  7.294835 96.795593 39.548740  -0.060210 -0.916324 0.395886  0.459975 0.176733 1 1 1.000000
0  12.841666 96.176857 39.356438  -0.116979 -0.905916 0.406980  0.430677 0.178686 1 1 1.000000
0  12.855430 96.247131 39.500755  -0.114469 -0.906291 0.406857  0.430677 0.178686 1 1 1.000000
skin_0
0  12.855430 96.247131 39.500755  -0.114469 -0.906291 0.406857  0.430677 0.178686 1 1 1.000000
0  7.294835 96.853355 39.678143  -0.057783 -0.916490 0.395862  0.459975 0.175756 1 1 1.000000
0  7.294835 96.795593 39.548740  -0.060210 -0.916324 0.395886  0.459975 0.176733 1 1 1.000000
skin_0
0  16.778128 95.462158 39.155746  -0.170777 -0.897373 0.406886  0.409192 0.181616 1 1 1.000000
0  20.521894 94.540565 38.950771  -0.213426 -0.854946 0.472775  0.389660 0.184545 1 1 1.000000
0  20.535658 94.624550 39.096283  -0.208352 -0.857445 0.470509  0.389660 0.184545 1 1 1.000000
skin_0
0  20.535658 94.624550 39.096283  -0.208352 -0.857445 0.470509  0.389660 0.184545 1 1 1.000000
0  16.778128 95.518715 39.298859  -0.167026 -0.898420 0.406132  0.409192 0.180639 1 1 1.000000
0  16.778128 95.462158 39.155746  -0.170777 -0.897373 0.406886  0.409192 0.181616 1 1 1.000000
skin_0
0  20.521894 94.540565 38.950771  -0.213426 -0.854946 0.472775  0.389660 0.184545 1 1 1.000000
0  23.536179 93.564133 38.740997  -0.218411 -0.783692 0.581484  0.373058 0.188452 1 1 1.000000
0  23.536179 93.675552 38.888908  -0.219347 -0.789952 0.572593  0.373058 0.187475 1 1 1.000000
skin_0
0  23.536179 93.675552 38.888908  -0.219347 -0.789952 0.572593  0.373058 0.187475 1 1 1.000000
0  20.535658 94.624550 39.096283  -0.208352 -0.857445 0.470509  0.389660 0.184545 1 1 1.000000
0  20.521894 94.540565 38.950771  -0.213426 -0.854946 0.472775  0.389660 0.184545 1 1 1.000000
skin_0
0  25.077728 93.810265 38.928326  0.317314 0.078511 0.945065  0.365246 0.187475 1 1 1.000000
0  25.063963 93.740509 38.936043  0.188133 -0.124016 0.974282  0.365246 0.187475 1 1 1.000000
0  26.206366 92.723618 38.556923  0.372845 -0.250963 0.893311  0.358409 0.191382 1 1 1.000000
skin_0
0  26.206366 92.723618 38.556923  0.372845 -0.250963 0.893311  0.358409 0.191382 1 1 1.000000
0  26.220129 92.875648 38.556408  0.576304 0.024725 0.816861  0.358409 0.190405 1 1 1.000000
0  25.077728 93.810265 38.928326  0.317314 0.078511 0.945065  0.365246 0.187475 1 1 1.000000
skin_0
0  -0.013768 98.596092 40.604328  -0.000025 0.878029 0.478608  0.500015 0.169897 1 1 1.000000
0  -0.013768 98.425552 40.658489  0.000001 -0.182916 0.983128  0.500015 0.169897 1 1 1.000000
0  7.253544 98.143623 40.564743  0.013072 -0.185947 0.982473  0.460952 0.170873 1 1 1.000000
skin_0
0  7.253544 98.143623 40.564743  0.013072 -0.185947 0.982473  0.460952 0.170873 1 1 1.000000
0  7.253544 98.314148 40.510578  0.076594 0.878377 0.471791  0.460952 0.170873 1 1 1.000000
0  -0.013768 98.596092 40.604328  -0.000025 0.878029 0.478608  0.500015 0.169897 1 1 1.000000
skin_0
0  12.924250 97.684113 40.289661  0.152394 0.869198 0.470394  0.430677 0.172826 1 1 1.000000
0  12.924250 97.499863 40.342621  0.023179 -0.175570 0.984194  0.430677 0.173803 1 1 1.000000
0  16.819420 96.760117 40.112106  0.040392 -0.176438 0.983483  0.409192 0.176733 1 1 1.000000
skin_0
0  16.819420 96.760117 40.112106  0.040392 -0.176438 0.983483  0.409192 0.176733 1 1 1.000000
0  16.819420 96.944366 40.059143  0.223055 0.845725 0.484763  0.409192 0.175756 1 1 1.000000
0  12.924250 97.684113 40.289661  0.152394 0.869198 0.470394  0.430677 0.172826 1 1 1.000000
skin_0
0  7.253544 98.314148 40.510578  0.076594 0.878377 0.471791  0.460952 0.170873 1 1 1.000000
0  7.253544 98.143623 40.564743  0.013072 -0.185947 0.982473  0.460952 0.170873 1 1 1.000000
0  12.924250 97.499863 40.342621  0.023179 -0.175570 0.984194  0.430677 0.173803 1 1 1.000000
skin_0
0  12.924250 97.499863 40.342621  0.023179 -0.175570 0.984194  0.430677 0.173803 1 1 1.000000
0  12.924250 97.684113 40.289661  0.152394 0.869198 0.470394  0.430677 0.172826 1 1 1.000000
0  7.253544 98.314148 40.510578  0.076594 0.878377 0.471791  0.460952 0.170873 1 1 1.000000
skin_0
0  16.819420 96.944366 40.059143  0.223055 0.845725 0.484763  0.409192 0.175756 1 1 1.000000
0  16.819420 96.760117 40.112106  0.040392 -0.176438 0.983483  0.409192 0.176733 1 1 1.000000
0  20.549421 95.798088 39.737797  0.081535 -0.138360 0.987020  0.389660 0.179662 1 1 1.000000
skin_0
0  20.549421 95.798088 39.737797  0.081535 -0.138360 0.987020  0.389660 0.179662 1 1 1.000000
0  20.549421 95.968620 39.683636  0.311020 0.821531 0.477863  0.389660 0.179662 1 1 1.000000
0  16.819420 96.944366 40.059143  0.223055 0.845725 0.484763  0.409192 0.175756 1 1 1.000000
skin_0
0  20.549421 95.968620 39.683636  0.311020 0.821531 0.477863  0.389660 0.179662 1 1 1.000000
0  20.549421 95.798088 39.737797  0.081535 -0.138360 0.987020  0.389660 0.179662 1 1 1.000000
0  23.549942 94.690033 39.295444  0.165062 -0.064307 0.984184  0.373058 0.183569 1 1 1.000000
skin_0
0  23.549942 94.690033 39.295444  0.165062 -0.064307 0.984184  0.373058 0.183569 1 1 1.000000
0  23.549942 94.860565 39.241280  0.427960 0.774957 0.465071  0.373058 0.183569 1 1 1.000000
0  20.549421 95.968620 39.683636  0.311020 0.821531 0.477863  0.389660 0.179662 1 1 1.000000
skin_0
0  23.549942 94.860565 39.241280  0.427960 0.774957 0.465071  0.373058 0.183569 1 1 1.000000
0  23.549942 94.690033 39.295444  0.165062 -0.064307 0.984184  0.373058 0.183569 1 1 1.000000
0  25.077728 93.810265 38.928326  0.317314 0.078511 0.945065  0.365246 0.187475 1 1 1.000000
skin_0
0  25.077728 93.810265 38.928326  0.317314 0.078511 0.945065  0.365246 0.187475 1 1 1.000000
0  25.091492 94.046959 38.907585  0.544955 0.663814 0.512225  0.365246 0.186499 1 1 1.000000
0  23.549942 94.860565 39.241280  0.427960 0.774957 0.465071  0.373058 0.183569 1 1 1.000000
skin_0
0  26.330238 93.028366 38.390160  0.885522 0.065181 0.460002  0.358409 0.190405 1 1 1.000000
0  26.275183 93.222717 38.379532  0.825330 0.555048 0.103689  0.358409 0.189428 1 1 1.000000
0  26.247656 93.222038 38.545265  0.716714 0.391230 0.577286  0.358409 0.189428 1 1 1.000000
skin_0
0  -0.013768 98.564560 40.491039  0.000000 0.963190 -0.268822  0.500015 0.169897 1 1 1.000000
0  -0.013768 98.596092 40.604328  -0.000025 0.878029 0.478608  0.500015 0.169897 1 1 1.000000
0  7.253544 98.314148 40.510578  0.076594 0.878377 0.471791  0.460952 0.170873 1 1 1.000000
skin_0
0  7.253544 98.314148 40.510578  0.076594 0.878377 0.471791  0.460952 0.170873 1 1 1.000000
0  7.267308 98.282616 40.397289  0.065652 0.957012 -0.282521  0.460952 0.170873 1 1 1.000000
0  -0.013768 98.564560 40.491039  0.000000 0.963190 -0.268822  0.500015 0.169897 1 1 1.000000
skin_0
0  12.924250 97.640053 40.161461  0.130184 0.952782 -0.274331  0.430677 0.172826 1 1 1.000000
0  12.924250 97.684113 40.289661  0.152394 0.869198 0.470394  0.430677 0.172826 1 1 1.000000
0  16.819420 96.944366 40.059143  0.223055 0.845725 0.484763  0.409192 0.175756 1 1 1.000000
skin_0
0  16.819420 96.944366 40.059143  0.223055 0.845725 0.484763  0.409192 0.175756 1 1 1.000000
0  16.819420 96.912834 39.945854  0.192021 0.951560 -0.240129  0.409192 0.175756 1 1 1.000000
0  12.924250 97.640053 40.161461  0.130184 0.952782 -0.274331  0.430677 0.172826 1 1 1.000000
skin_0
0  7.267308 98.282616 40.397289  0.065652 0.957012 -0.282521  0.460952 0.170873 1 1 1.000000
0  7.253544 98.314148 40.510578  0.076594 0.878377 0.471791  0.460952 0.170873 1 1 1.000000
0  12.924250 97.684113 40.289661  0.152394 0.869198 0.470394  0.430677 0.172826 1 1 1.000000
skin_0
0  12.924250 97.684113 40.289661  0.152394 0.869198 0.470394  0.430677 0.172826 1 1 1.000000
0  12.924250 97.640053 40.161461  0.130184 0.952782 -0.274331  0.430677 0.172826 1 1 1.000000
0  7.267308 98.282616 40.397289  0.065652 0.957012 -0.282521  0.460952 0.170873 1 1 1.000000
skin_0
0  16.819420 96.912834 39.945854  0.192021 0.951560 -0.240129  0.409192 0.175756 1 1 1.000000
0  16.819420 96.944366 40.059143  0.223055 0.845725 0.484763  0.409192 0.175756 1 1 1.000000
0  20.549421 95.968620 39.683636  0.311020 0.821531 0.477863  0.389660 0.179662 1 1 1.000000
skin_0
0  20.549421 95.968620 39.683636  0.311020 0.821531 0.477863  0.389660 0.179662 1 1 1.000000
0  20.535658 95.950798 39.571545  0.265373 0.937766 -0.223990  0.389660 0.179662 1 1 1.000000
0  16.819420 96.912834 39.945854  0.192021 0.951560 -0.240129  0.409192 0.175756 1 1 1.000000
skin_0
0  20.535658 95.950798 39.571545  0.265373 0.937766 -0.223990  0.389660 0.179662 1 1 1.000000
0  20.549421 95.968620 39.683636  0.311020 0.821531 0.477863  0.389660 0.179662 1 1 1.000000
0  23.549942 94.860565 39.241280  0.427960 0.774957 0.465071  0.373058 0.183569 1 1 1.000000
skin_0
0  23.549942 94.860565 39.241280  0.427960 0.774957 0.465071  0.373058 0.183569 1 1 1.000000
0  23.522413 94.842743 39.129189  0.365280 0.907217 -0.208632  0.373058 0.183569 1 1 1.000000
0  20.535658 95.950798 39.571545  0.265373 0.937766 -0.223990  0.389660 0.179662 1 1 1.000000
skin_0
0  23.522413 94.842743 39.129189  0.365280 0.907217 -0.208632  0.373058 0.183569 1 1 1.000000
0  23.549942 94.860565 39.241280  0.427960 0.774957 0.465071  0.373058 0.183569 1 1 1.000000
0  25.091492 94.046959 38.907585  0.544955 0.663814 0.512225  0.365246 0.186499 1 1 1.000000
skin_0
0  25.091492 94.046959 38.907585  0.544955 0.663814 0.512225  0.365246 0.186499 1 1 1.000000
0  25.022673 94.057755 38.784184  0.458181 0.860411 -0.223075  0.365246 0.186499 1 1 1.000000
0  23.522413 94.842743 39.129189  0.365280 0.907217 -0.208632  0.373058 0.183569 1 1 1.000000
skin_0
0  26.206366 92.723618 38.556923  0.372845 -0.250963 0.893311  0.358409 0.191382 1 1 1.000000
0  26.357765 92.625923 38.410217  0.622281 -0.220838 0.750997  0.358409 0.191382 1 1 1.000000
0  26.220129 92.875648 38.556408  0.576304 0.024725 0.816861  0.358409 0.190405 1 1 1.000000
skin_0
0  26.151308 92.511436 38.455467  0.157086 -0.498188 0.852720  0.359386 0.192358 1 1 1.000000
0  26.357765 92.625923 38.410217  0.622281 -0.220838 0.750997  0.358409 0.191382 1 1 1.000000
0  26.206366 92.723618 38.556923  0.372845 -0.250963 0.893311  0.358409 0.191382 1 1 1.000000
skin_0
0  25.889795 92.788582 38.604057  -0.102970 -0.533136 0.839740  0.360363 0.191382 1 1 1.000000
0  23.536179 93.675552 38.888908  -0.219347 -0.789952 0.572593  0.373058 0.187475 1 1 1.000000
0  23.536179 93.564133 38.740997  -0.218411 -0.783692 0.581484  0.373058 0.188452 1 1 1.000000
skin_0
0  23.536179 93.564133 38.740997  -0.218411 -0.783692 0.581484  0.373058 0.188452 1 1 1.000000
0  26.151308 92.511436 38.455467  0.157086 -0.498188 0.852720  0.359386 0.192358 1 1 1.000000
0  25.889795 92.788582 38.604057  -0.102970 -0.533136 0.839740  0.360363 0.191382 1 1 1.000000
skin_0
0  26.275183 93.222717 38.379532  0.825330 0.555048 0.103689  0.358409 0.189428 1 1 1.000000
0  24.885033 94.064438 38.549892  0.443166 0.869079 -0.219784  0.366222 0.186499 1 1 1.000000
0  25.022673 94.057755 38.784184  0.458181 0.860411 -0.223075  0.365246 0.186499 1 1 1.000000
skin_0
0  25.022673 94.057755 38.784184  0.458181 0.860411 -0.223075  0.365246 0.186499 1 1 1.000000
0  25.091492 94.046959 38.907585  0.544955 0.663814 0.512225  0.365246 0.186499 1 1 1.000000
0  26.247656 93.222038 38.545265  0.716714 0.391230 0.577286  0.358409 0.189428 1 1 1.000000
skin_0
0  26.247656 93.222038 38.545265  0.716714 0.391230 0.577286  0.358409 0.189428 1 1 1.000000
0  26.275183 93.222717 38.379532  0.825330 0.555048 0.103689  0.358409 0.189428 1 1 1.000000
0  25.022673 94.057755 38.784184  0.458181 0.860411 -0.223075  0.365246 0.186499 1 1 1.000000
skin_0
0  -0.013768 97.754547 40.116207  0.000000 -0.556434 0.830892  0.500015 0.172826 1 1 1.000000
0  7.281072 97.472610 40.022457  -0.021318 -0.560146 0.828120  0.460952 0.173803 1 1 1.000000
0  7.267308 98.039917 40.486588  -0.027735 -0.636262 0.770975  0.460952 0.171850 1 1 1.000000
skin_0
0  7.267308 98.039917 40.486588  -0.027735 -0.636262 0.770975  0.460952 0.171850 1 1 1.000000
0  -0.013768 98.321861 40.580338  0.000021 -0.633155 0.774025  0.500015 0.170873 1 1 1.000000
0  -0.013768 97.754547 40.116207  0.000000 -0.556434 0.830892  0.500015 0.172826 1 1 1.000000
skin_0
0  12.882957 96.827652 39.814056  -0.044051 -0.545898 0.836693  0.430677 0.175756 1 1 1.000000
0  16.791891 96.100418 39.598450  -0.060827 -0.539953 0.839495  0.409192 0.178686 1 1 1.000000
0  16.819420 96.656425 40.033951  -0.076600 -0.615167 0.784667  0.409192 0.176733 1 1 1.000000
skin_0
0  16.819420 96.656425 40.033951  -0.076600 -0.615167 0.784667  0.409192 0.176733 1 1 1.000000
0  12.924250 97.396164 40.264469  -0.056034 -0.618332 0.783917  0.430677 0.173803 1 1 1.000000
0  12.882957 96.827652 39.814056  -0.044051 -0.545898 0.836693  0.430677 0.175756 1 1 1.000000
skin_0
0  7.281072 97.472610 40.022457  -0.021318 -0.560146 0.828120  0.460952 0.173803 1 1 1.000000
0  12.882957 96.827652 39.814056  -0.044051 -0.545898 0.836693  0.430677 0.175756 1 1 1.000000
0  12.924250 97.396164 40.264469  -0.056034 -0.618332 0.783917  0.430677 0.173803 1 1 1.000000
skin_0
0  12.924250 97.396164 40.264469  -0.056034 -0.618332 0.783917  0.430677 0.173803 1 1 1.000000
0  7.267308 98.039917 40.486588  -0.027735 -0.636262 0.770975  0.460952 0.171850 1 1 1.000000
0  7.281072 97.472610 40.022457  -0.021318 -0.560146 0.828120  0.460952 0.173803 1 1 1.000000
skin_0
0  16.791891 96.100418 39.598450  -0.060827 -0.539953 0.839495  0.409192 0.178686 1 1 1.000000
0  20.535658 95.158615 39.308807  -0.069849 -0.466292 0.881869  0.389660 0.182592 1 1 1.000000
0  20.549421 95.680679 39.658443  -0.083748 -0.555729 0.827135  0.389660 0.180639 1 1 1.000000
skin_0
0  20.549421 95.680679 39.658443  -0.083748 -0.555729 0.827135  0.389660 0.180639 1 1 1.000000
0  16.819420 96.656425 40.033951  -0.076600 -0.615167 0.784667  0.409192 0.176733 1 1 1.000000
0  16.791891 96.100418 39.598450  -0.060827 -0.539953 0.839495  0.409192 0.178686 1 1 1.000000
skin_0
0  20.549421 95.680679 39.658443  -0.083748 -0.555729 0.827135  0.389660 0.180639 1 1 1.000000
0  20.535658 95.158615 39.308807  -0.069849 -0.466292 0.881869  0.389660 0.182592 1 1 1.000000
0  23.536179 94.185783 39.057896  -0.037907 -0.379758 0.924309  0.373058 0.185522 1 1 1.000000
skin_0
0  23.536179 94.185783 39.057896  -0.037907 -0.379758 0.924309  0.373058 0.185522 1 1 1.000000
0  23.549942 94.543999 39.227402  -0.047500 -0.433028 0.900128  0.373058 0.184545 1 1 1.000000
0  20.549421 95.680679 39.658443  -0.083748 -0.555729 0.827135  0.389660 0.180639 1 1 1.000000
skin_0
0  23.549942 94.543999 39.227402  -0.047500 -0.433028 0.900128  0.373058 0.184545 1 1 1.000000
0  23.536179 94.185783 39.057896  -0.037907 -0.379758 0.924309  0.373058 0.185522 1 1 1.000000
0  25.008909 93.620712 38.884109  -0.010476 -0.345231 0.938459  0.365246 0.187475 1 1 1.000000
skin_0
0  26.151308 92.511436 38.455467  0.157086 -0.498188 0.852720  0.359386 0.192358 1 1 1.000000
0  26.206366 92.723618 38.556923  0.372845 -0.250963 0.893311  0.358409 0.191382 1 1 1.000000
0  25.889795 92.788582 38.604057  -0.102970 -0.533136 0.839740  0.360363 0.191382 1 1 1.000000
skin_0
0  -0.013768 97.134109 39.785603  0.000000 -0.471214 0.882019  0.500015 0.174779 1 1 1.000000
0  7.294835 96.853355 39.678143  -0.014463 -0.475172 0.879774  0.459975 0.175756 1 1 1.000000
0  7.281072 97.472610 40.022457  -0.021318 -0.560146 0.828120  0.460952 0.173803 1 1 1.000000
skin_0
0  7.281072 97.472610 40.022457  -0.021318 -0.560146 0.828120  0.460952 0.173803 1 1 1.000000
0  -0.013768 97.754547 40.116207  0.000000 -0.556434 0.830892  0.500015 0.172826 1 1 1.000000
0  -0.013768 97.134109 39.785603  0.000000 -0.471214 0.882019  0.500015 0.174779 1 1 1.000000
skin_0
0  12.855430 96.247131 39.500755  -0.030433 -0.465217 0.884674  0.430677 0.178686 1 1 1.000000
0  16.778128 95.518715 39.298859  -0.043280 -0.454839 0.889521  0.409192 0.180639 1 1 1.000000
0  16.791891 96.100418 39.598450  -0.060827 -0.539953 0.839495  0.409192 0.178686 1 1 1.000000
skin_0
0  16.791891 96.100418 39.598450  -0.060827 -0.539953 0.839495  0.409192 0.178686 1 1 1.000000
0  12.882957 96.827652 39.814056  -0.044051 -0.545898 0.836693  0.430677 0.175756 1 1 1.000000
0  12.855430 96.247131 39.500755  -0.030433 -0.465217 0.884674  0.430677 0.178686 1 1 1.000000
skin_0
0  7.294835 96.853355 39.678143  -0.014463 -0.475172 0.879774  0.459975 0.175756 1 1 1.000000
0  12.855430 96.247131 39.500755  -0.030433 -0.465217 0.884674  0.430677 0.178686 1 1 1.000000
0  12.882957 96.827652 39.814056  -0.044051 -0.545898 0.836693  0.430677 0.175756 1 1 1.000000
skin_0
0  12.882957 96.827652 39.814056  -0.044051 -0.545898 0.836693  0.430677 0.175756 1 1 1.000000
0  7.281072 97.472610 40.022457  -0.021318 -0.560146 0.828120  0.460952 0.173803 1 1 1.000000
0  7.294835 96.853355 39.678143  -0.014463 -0.475172 0.879774  0.459975 0.175756 1 1 1.000000
skin_0
0  16.778128 95.518715 39.298859  -0.043280 -0.454839 0.889521  0.409192 0.180639 1 1 1.000000
0  20.535658 94.624550 39.096283  -0.045185 -0.365838 0.929581  0.389660 0.184545 1 1 1.000000
0  20.535658 95.158615 39.308807  -0.069849 -0.466292 0.881869  0.389660 0.182592 1 1 1.000000
skin_0
0  20.535658 95.158615 39.308807  -0.069849 -0.466292 0.881869  0.389660 0.182592 1 1 1.000000
0  16.791891 96.100418 39.598450  -0.060827 -0.539953 0.839495  0.409192 0.178686 1 1 1.000000
0  16.778128 95.518715 39.298859  -0.043280 -0.454839 0.889521  0.409192 0.180639 1 1 1.000000
skin_0
0  20.535658 95.158615 39.308807  -0.069849 -0.466292 0.881869  0.389660 0.182592 1 1 1.000000
0  20.535658 94.624550 39.096283  -0.045185 -0.365838 0.929581  0.389660 0.184545 1 1 1.000000
0  23.536179 93.675552 38.888908  -0.018923 -0.321898 0.946585  0.373058 0.187475 1 1 1.000000
skin_0
0  23.536179 93.675552 38.888908  -0.018923 -0.321898 0.946585  0.373058 0.187475 1 1 1.000000
0  23.536179 94.185783 39.057896  -0.037907 -0.379758 0.924309  0.373058 0.185522 1 1 1.000000
0  20.535658 95.158615 39.308807  -0.069849 -0.466292 0.881869  0.389660 0.182592 1 1 1.000000
skin_0
0  23.536179 93.675552 38.888908  -0.018923 -0.321898 0.946585  0.373058 0.187475 1 1 1.000000
0  25.889795 92.788582 38.604057  0.048299 -0.292885 0.954927  0.360363 0.191382 1 1 1.000000
0  25.008909 93.620712 38.884109  -0.010476 -0.345231 0.938459  0.365246 0.187475 1 1 1.000000
skin_0
0  25.008909 93.620712 38.884109  -0.010476 -0.345231 0.938459  0.365246 0.187475 1 1 1.000000
0  23.536179 94.185783 39.057896  -0.037907 -0.379758 0.924309  0.373058 0.185522 1 1 1.000000
0  23.536179 93.675552 38.888908  -0.018923 -0.321898 0.946585  0.373058 0.187475 1 1 1.000000
skin_0
0  25.889795 92.788582 38.604057  0.048299 -0.292885 0.954927  0.360363 0.191382 1 1 1.000000
0  26.206366 92.723618 38.556923  0.372845 -0.250963 0.893311  0.358409 0.191382 1 1 1.000000
0  25.063963 93.740509 38.936043  0.188133 -0.124016 0.974282  0.365246 0.187475 1 1 1.000000
skin_0
0  25.063963 93.740509 38.936043  0.188133 -0.124016 0.974282  0.365246 0.187475 1 1 1.000000
0  25.008909 93.620712 38.884109  -0.010476 -0.345231 0.938459  0.365246 0.187475 1 1 1.000000
0  25.889795 92.788582 38.604057  0.048299 -0.292885 0.954927  0.360363 0.191382 1 1 1.000000
skin_0
0  26.220129 92.875648 38.556408  0.576304 0.024725 0.816861  0.358409 0.190405 1 1 1.000000
0  26.247656 93.222038 38.545265  0.716714 0.391230 0.577286  0.358409 0.189428 1 1 1.000000
0  25.091492 94.046959 38.907585  0.544955 0.663814 0.512225  0.365246 0.186499 1 1 1.000000
skin_0
0  25.091492 94.046959 38.907585  0.544955 0.663814 0.512225  0.365246 0.186499 1 1 1.000000
0  25.077728 93.810265 38.928326  0.317314 0.078511 0.945065  0.365246 0.187475 1 1 1.000000
0  26.220129 92.875648 38.556408  0.576304 0.024725 0.816861  0.358409 0.190405 1 1 1.000000
skin_0
0  23.549942 94.690033 39.295444  0.165062 -0.064307 0.984184  0.373058 0.183569 1 1 1.000000
0  25.063963 93.740509 38.936043  0.188133 -0.124016 0.974282  0.365246 0.187475 1 1 1.000000
0  25.077728 93.810265 38.928326  0.317314 0.078511 0.945065  0.365246 0.187475 1 1 1.000000
skin_0
0  26.330238 93.028366 38.390160  0.885522 0.065181 0.460002  0.358409 0.190405 1 1 1.000000
0  26.247656 93.222038 38.545265  0.716714 0.391230 0.577286  0.358409 0.189428 1 1 1.000000
0  26.220129 92.875648 38.556408  0.576304 0.024725 0.816861  0.358409 0.190405 1 1 1.000000
skin_0
0  26.220129 92.875648 38.556408  0.576304 0.024725 0.816861  0.358409 0.190405 1 1 1.000000
0  26.357765 92.625923 38.410217  0.622281 -0.220838 0.750997  0.358409 0.191382 1 1 1.000000
0  26.330238 93.028366 38.390160  0.885522 0.065181 0.460002  0.358409 0.190405 1 1 1.000000
end
