version 1
nodes
0 "blender_implicit" -1
1 "root" -1
2 "steering_wheel" 1
end
skeleton
time 0
0  0.000000 0.000000 0.000000  0.000000 -0.000000 0.000000
1  0.000000 0.000000 0.000000  1.570796 -0.000000 0.000000
2  15.979831 32.936882 16.915779  0.000000 -0.000000 0.000000
end
triangles
skin_0
0  -0.013768 98.315170 37.685417  -0.000024 0.935958 -0.352112  0.500015 0.170873 1 1 1.000000
0  -7.363664 97.998596 37.616600  -0.068691 0.928506 -0.364909  0.539079 0.171850 1 1 1.000000
0  -7.294844 98.287643 38.332317  -0.065702 0.928760 -0.364813  0.539079 0.170873 1 1 1.000000
skin_0
0  -7.294844 98.287643 38.332317  -0.065702 0.928760 -0.364813  0.539079 0.170873 1 1 1.000000
0  -0.013768 98.576683 38.401138  0.000001 0.936072 -0.351809  0.500015 0.169897 1 1 1.000000
0  -0.013768 98.315170 37.685417  -0.000024 0.935958 -0.352112  0.500015 0.170873 1 1 1.000000
skin_0
0  -12.938023 97.365463 37.478958  -0.130989 0.925958 -0.354181  0.569353 0.173803 1 1 1.000000
0  -16.860718 96.649742 37.327557  -0.192744 0.927346 -0.320748  0.590838 0.176733 1 1 1.000000
0  -16.846954 96.883728 38.001984  -0.192076 0.926999 -0.322148  0.589862 0.175756 1 1 1.000000
skin_0
0  -16.846954 96.883728 38.001984  -0.192076 0.926999 -0.322148  0.589862 0.175756 1 1 1.000000
0  -12.951786 97.626976 38.153389  -0.130248 0.925272 -0.356239  0.569353 0.172826 1 1 1.000000
0  -12.938023 97.365463 37.478958  -0.130989 0.925958 -0.354181  0.569353 0.173803 1 1 1.000000
skin_0
0  -7.363664 97.998596 37.616600  -0.068691 0.928506 -0.364909  0.539079 0.171850 1 1 1.000000
0  -12.938023 97.365463 37.478958  -0.130989 0.925958 -0.354181  0.569353 0.173803 1 1 1.000000
0  -12.951786 97.626976 38.153389  -0.130248 0.925272 -0.356239  0.569353 0.172826 1 1 1.000000
skin_0
0  -12.951786 97.626976 38.153389  -0.130248 0.925272 -0.356239  0.569353 0.172826 1 1 1.000000
0  -7.294844 98.287643 38.332317  -0.065702 0.928760 -0.364813  0.539079 0.170873 1 1 1.000000
0  -7.363664 97.998596 37.616600  -0.068691 0.928506 -0.364909  0.539079 0.171850 1 1 1.000000
skin_0
0  -16.860718 96.649742 37.327557  -0.192744 0.927346 -0.320748  0.590838 0.176733 1 1 1.000000
0  -20.508139 95.727570 37.148624  -0.265642 0.914864 -0.304069  0.610370 0.179662 1 1 1.000000
0  -20.563194 95.892731 37.712948  -0.265421 0.914688 -0.304793  0.610370 0.179662 1 1 1.000000
skin_0
0  -20.563194 95.892731 37.712948  -0.265421 0.914688 -0.304793  0.610370 0.179662 1 1 1.000000
0  -16.846954 96.883728 38.001984  -0.192076 0.926999 -0.322148  0.589862 0.175756 1 1 1.000000
0  -16.860718 96.649742 37.327557  -0.192744 0.927346 -0.320748  0.590838 0.176733 1 1 1.000000
skin_0
0  -20.508139 95.727570 37.148624  -0.265642 0.914864 -0.304069  0.610370 0.179662 1 1 1.000000
0  -23.494894 94.640228 36.969696  -0.365243 0.885572 -0.286983  0.625996 0.183569 1 1 1.000000
0  -23.549950 94.750336 37.368847  -0.365340 0.885562 -0.286890  0.625996 0.183569 1 1 1.000000
skin_0
0  -23.549950 94.750336 37.368847  -0.365340 0.885562 -0.286890  0.625996 0.183569 1 1 1.000000
0  -20.563194 95.892731 37.712948  -0.265421 0.914688 -0.304793  0.610370 0.179662 1 1 1.000000
0  -20.508139 95.727570 37.148624  -0.265642 0.914864 -0.304069  0.610370 0.179662 1 1 1.000000
skin_0
0  -23.494894 94.640228 36.969696  -0.365243 0.885572 -0.286983  0.625996 0.183569 1 1 1.000000
0  -24.912571 93.924507 36.859589  -0.443209 0.846596 -0.294688  0.633808 0.186499 1 1 1.000000
0  -25.050207 93.938271 37.093571  -0.458241 0.837671 -0.297192  0.634785 0.186499 1 1 1.000000
skin_0
0  -25.050207 93.938271 37.093571  -0.458241 0.837671 -0.297192  0.634785 0.186499 1 1 1.000000
0  -23.549950 94.750336 37.368847  -0.365340 0.885562 -0.286890  0.625996 0.183569 1 1 1.000000
0  -23.494894 94.640228 36.969696  -0.365243 0.885572 -0.286983  0.625996 0.183569 1 1 1.000000
skin_0
0  -0.013768 98.342697 38.511250  0.000021 -0.563306 0.826248  0.500015 0.170873 1 1 1.000000
0  -0.013768 98.452805 38.580067  0.000003 -0.096559 0.995327  0.500015 0.169897 1 1 1.000000
0  -7.281080 98.163773 38.511250  -0.013066 -0.099682 0.994934  0.539079 0.170873 1 1 1.000000
skin_0
0  -7.281080 98.163773 38.511250  -0.013066 -0.099682 0.994934  0.539079 0.170873 1 1 1.000000
0  -7.294844 98.053650 38.442429  0.027742 -0.566693 0.823462  0.539079 0.171850 1 1 1.000000
0  -0.013768 98.342697 38.511250  0.000021 -0.563306 0.826248  0.500015 0.170873 1 1 1.000000
skin_0
0  -12.951786 97.392990 38.277264  0.056031 -0.547673 0.834814  0.569353 0.173803 1 1 1.000000
0  -12.951786 97.503105 38.346081  -0.023164 -0.089195 0.995745  0.569353 0.173803 1 1 1.000000
0  -16.846954 96.746086 38.180916  -0.040379 -0.090082 0.995115  0.589862 0.176733 1 1 1.000000
skin_0
0  -16.846954 96.746086 38.180916  -0.040379 -0.090082 0.995115  0.589862 0.176733 1 1 1.000000
0  -16.846954 96.635979 38.112095  0.076589 -0.544406 0.835318  0.589862 0.176733 1 1 1.000000
0  -12.951786 97.392990 38.277264  0.056031 -0.547673 0.834814  0.569353 0.173803 1 1 1.000000
skin_0
0  -7.294844 98.053650 38.442429  0.027742 -0.566693 0.823462  0.539079 0.171850 1 1 1.000000
0  -7.281080 98.163773 38.511250  -0.013066 -0.099682 0.994934  0.539079 0.170873 1 1 1.000000
0  -12.951786 97.503105 38.346081  -0.023164 -0.089195 0.995745  0.569353 0.173803 1 1 1.000000
skin_0
0  -12.951786 97.503105 38.346081  -0.023164 -0.089195 0.995745  0.569353 0.173803 1 1 1.000000
0  -12.951786 97.392990 38.277264  0.056031 -0.547673 0.834814  0.569353 0.173803 1 1 1.000000
0  -7.294844 98.053650 38.442429  0.027742 -0.566693 0.823462  0.539079 0.171850 1 1 1.000000
skin_0
0  -16.846954 96.635979 38.112095  0.076589 -0.544406 0.835318  0.589862 0.176733 1 1 1.000000
0  -16.846954 96.746086 38.180916  -0.040379 -0.090082 0.995115  0.589862 0.176733 1 1 1.000000
0  -20.576958 95.755096 37.891876  -0.081534 -0.051750 0.995326  0.610370 0.179662 1 1 1.000000
skin_0
0  -20.576958 95.755096 37.891876  -0.081534 -0.051750 0.995326  0.610370 0.179662 1 1 1.000000
0  -20.576958 95.631218 37.823059  0.083854 -0.481763 0.872280  0.610370 0.180639 1 1 1.000000
0  -16.846954 96.635979 38.112095  0.076589 -0.544406 0.835318  0.589862 0.176733 1 1 1.000000
skin_0
0  -20.576958 95.755096 37.891876  -0.081534 -0.051750 0.995326  0.610370 0.179662 1 1 1.000000
0  -23.577477 94.612701 37.547779  -0.165095 0.021700 0.986039  0.625996 0.183569 1 1 1.000000
0  -23.577477 94.461288 37.492725  0.047510 -0.352938 0.934440  0.625996 0.184545 1 1 1.000000
skin_0
0  -23.577477 94.461288 37.492725  0.047510 -0.352938 0.934440  0.625996 0.184545 1 1 1.000000
0  -20.576958 95.631218 37.823059  0.083854 -0.481763 0.872280  0.610370 0.180639 1 1 1.000000
0  -20.576958 95.755096 37.891876  -0.081534 -0.051750 0.995326  0.610370 0.179662 1 1 1.000000
skin_0
0  -25.036444 93.511597 37.231209  0.010456 -0.262100 0.964984  0.634785 0.187475 1 1 1.000000
0  -23.577477 94.461288 37.492725  0.047510 -0.352938 0.934440  0.625996 0.184545 1 1 1.000000
0  -23.577477 94.612701 37.547779  -0.165095 0.021700 0.986039  0.625996 0.183569 1 1 1.000000
skin_0
0  -23.577477 94.612701 37.547779  -0.165095 0.021700 0.986039  0.625996 0.183569 1 1 1.000000
0  -25.091499 93.635468 37.272503  -0.188179 -0.038576 0.981377  0.634785 0.187475 1 1 1.000000
0  -25.036444 93.511597 37.231209  0.010456 -0.262100 0.964984  0.634785 0.187475 1 1 1.000000
skin_0
0  -0.013768 97.021378 37.685417  -0.000001 -0.877766 0.479089  0.500015 0.175756 1 1 1.000000
0  -0.013768 97.090195 37.823059  -0.000002 -0.877743 0.479131  0.500015 0.174779 1 1 1.000000
0  -7.322371 96.801147 37.740475  0.057786 -0.878488 0.474257  0.539079 0.175756 1 1 1.000000
skin_0
0  -7.322371 96.801147 37.740475  0.057786 -0.878488 0.474257  0.539079 0.175756 1 1 1.000000
0  -7.322371 96.732323 37.616600  0.060210 -0.878300 0.474303  0.539079 0.176733 1 1 1.000000
0  -0.013768 97.021378 37.685417  -0.000001 -0.877766 0.479089  0.500015 0.175756 1 1 1.000000
skin_0
0  -12.869203 96.099182 37.478958  0.116981 -0.867057 0.484281  0.569353 0.178686 1 1 1.000000
0  -12.882966 96.181770 37.616600  0.114473 -0.867441 0.484193  0.569353 0.178686 1 1 1.000000
0  -16.805662 95.438530 37.478958  0.167028 -0.859610 0.482879  0.589862 0.180639 1 1 1.000000
skin_0
0  -16.805662 95.438530 37.478958  0.167028 -0.859610 0.482879  0.589862 0.180639 1 1 1.000000
0  -16.805662 95.369713 37.341320  0.170792 -0.858496 0.483544  0.589862 0.181616 1 1 1.000000
0  -12.869203 96.099182 37.478958  0.116981 -0.867057 0.484281  0.569353 0.178686 1 1 1.000000
skin_0
0  -7.322371 96.732323 37.616600  0.060210 -0.878300 0.474303  0.539079 0.176733 1 1 1.000000
0  -7.322371 96.801147 37.740475  0.057786 -0.878488 0.474257  0.539079 0.175756 1 1 1.000000
0  -12.882966 96.181770 37.616600  0.114473 -0.867441 0.484193  0.569353 0.178686 1 1 1.000000
skin_0
0  -12.882966 96.181770 37.616600  0.114473 -0.867441 0.484193  0.569353 0.178686 1 1 1.000000
0  -12.869203 96.099182 37.478958  0.116981 -0.867057 0.484281  0.569353 0.178686 1 1 1.000000
0  -7.322371 96.732323 37.616600  0.060210 -0.878300 0.474303  0.539079 0.176733 1 1 1.000000
skin_0
0  -16.805662 95.369713 37.341320  0.170792 -0.858496 0.483544  0.589862 0.181616 1 1 1.000000
0  -16.805662 95.438530 37.478958  0.167028 -0.859610 0.482879  0.589862 0.180639 1 1 1.000000
0  -20.563194 94.530106 37.355083  0.208353 -0.813163 0.543466  0.610370 0.184545 1 1 1.000000
skin_0
0  -20.563194 94.530106 37.355083  0.208353 -0.813163 0.543466  0.610370 0.184545 1 1 1.000000
0  -20.549429 94.433762 37.217445  0.213439 -0.810472 0.545508  0.610370 0.184545 1 1 1.000000
0  -16.805662 95.369713 37.341320  0.170792 -0.858496 0.483544  0.589862 0.181616 1 1 1.000000
skin_0
0  -20.549429 94.433762 37.217445  0.213439 -0.810472 0.545508  0.610370 0.184545 1 1 1.000000
0  -20.563194 94.530106 37.355083  0.208353 -0.813163 0.543466  0.610370 0.184545 1 1 1.000000
0  -23.563713 93.566650 37.231209  0.219336 -0.736983 0.639333  0.625996 0.187475 1 1 1.000000
skin_0
0  -23.563713 93.566650 37.231209  0.219336 -0.736983 0.639333  0.625996 0.187475 1 1 1.000000
0  -23.563713 93.442764 37.093571  0.218406 -0.729999 0.647612  0.625996 0.188452 1 1 1.000000
0  -20.549429 94.433762 37.217445  0.213439 -0.810472 0.545508  0.610370 0.184545 1 1 1.000000
skin_0
0  -25.105263 93.704285 37.258736  -0.317370 0.160600 0.934604  0.634785 0.187475 1 1 1.000000
0  -26.247663 92.740807 36.969700  -0.576363 0.095852 0.811553  0.640645 0.190405 1 1 1.000000
0  -26.233900 92.589401 36.983463  -0.372899 -0.172192 0.911754  0.640645 0.191382 1 1 1.000000
skin_0
0  -26.233900 92.589401 36.983463  -0.372899 -0.172192 0.911754  0.640645 0.191382 1 1 1.000000
0  -25.091499 93.635468 37.272503  -0.188179 -0.038576 0.981377  0.634785 0.187475 1 1 1.000000
0  -25.105263 93.704285 37.258736  -0.317370 0.160600 0.934604  0.634785 0.187475 1 1 1.000000
skin_0
0  -0.013768 98.617973 38.511250  -0.000023 0.916406 0.400250  0.500015 0.169897 1 1 1.000000
0  -7.281080 98.328934 38.442429  -0.076669 0.916133 0.393476  0.539079 0.170873 1 1 1.000000
0  -7.281080 98.163773 38.511250  -0.013066 -0.099682 0.994934  0.539079 0.170873 1 1 1.000000
skin_0
0  -7.281080 98.163773 38.511250  -0.013066 -0.099682 0.994934  0.539079 0.170873 1 1 1.000000
0  -0.013768 98.452805 38.580067  0.000003 -0.096559 0.995327  0.500015 0.169897 1 1 1.000000
0  -0.013768 98.617973 38.511250  -0.000023 0.916406 0.400250  0.500015 0.169897 1 1 1.000000
skin_0
0  -12.951786 97.682037 38.277264  -0.152449 0.906840 0.392939  0.569353 0.172826 1 1 1.000000
0  -16.846954 96.925018 38.112095  -0.223129 0.884740 0.409204  0.589862 0.175756 1 1 1.000000
0  -16.846954 96.746086 38.180916  -0.040379 -0.090082 0.995115  0.589862 0.176733 1 1 1.000000
skin_0
0  -16.846954 96.746086 38.180916  -0.040379 -0.090082 0.995115  0.589862 0.176733 1 1 1.000000
0  -12.951786 97.503105 38.346081  -0.023164 -0.089195 0.995745  0.569353 0.173803 1 1 1.000000
0  -12.951786 97.682037 38.277264  -0.152449 0.906840 0.392939  0.569353 0.172826 1 1 1.000000
skin_0
0  -7.281080 98.328934 38.442429  -0.076669 0.916133 0.393476  0.539079 0.170873 1 1 1.000000
0  -12.951786 97.682037 38.277264  -0.152449 0.906840 0.392939  0.569353 0.172826 1 1 1.000000
0  -12.951786 97.503105 38.346081  -0.023164 -0.089195 0.995745  0.569353 0.173803 1 1 1.000000
skin_0
0  -12.951786 97.503105 38.346081  -0.023164 -0.089195 0.995745  0.569353 0.173803 1 1 1.000000
0  -7.281080 98.163773 38.511250  -0.013066 -0.099682 0.994934  0.539079 0.170873 1 1 1.000000
0  -7.281080 98.328934 38.442429  -0.076669 0.916133 0.393476  0.539079 0.170873 1 1 1.000000
skin_0
0  -16.846954 96.925018 38.112095  -0.223129 0.884740 0.409204  0.589862 0.175756 1 1 1.000000
0  -20.576958 95.920258 37.823059  -0.311049 0.859998 0.404540  0.610370 0.179662 1 1 1.000000
0  -20.576958 95.755096 37.891876  -0.081534 -0.051750 0.995326  0.610370 0.179662 1 1 1.000000
skin_0
0  -20.576958 95.755096 37.891876  -0.081534 -0.051750 0.995326  0.610370 0.179662 1 1 1.000000
0  -16.846954 96.746086 38.180916  -0.040379 -0.090082 0.995115  0.589862 0.176733 1 1 1.000000
0  -16.846954 96.925018 38.112095  -0.223129 0.884740 0.409204  0.589862 0.175756 1 1 1.000000
skin_0
0  -20.576958 95.920258 37.823059  -0.311049 0.859998 0.404540  0.610370 0.179662 1 1 1.000000
0  -23.577477 94.777863 37.478958  -0.428017 0.812528 0.395727  0.625996 0.183569 1 1 1.000000
0  -23.577477 94.612701 37.547779  -0.165095 0.021700 0.986039  0.625996 0.183569 1 1 1.000000
skin_0
0  -23.577477 94.612701 37.547779  -0.165095 0.021700 0.986039  0.625996 0.183569 1 1 1.000000
0  -20.576958 95.755096 37.891876  -0.081534 -0.051750 0.995326  0.610370 0.179662 1 1 1.000000
0  -20.576958 95.920258 37.823059  -0.311049 0.859998 0.404540  0.610370 0.179662 1 1 1.000000
skin_0
0  -23.577477 94.777863 37.478958  -0.428017 0.812528 0.395727  0.625996 0.183569 1 1 1.000000
0  -25.119026 93.938271 37.217445  -0.544968 0.705909 0.452440  0.634785 0.186499 1 1 1.000000
0  -25.105263 93.704285 37.258736  -0.317370 0.160600 0.934604  0.634785 0.187475 1 1 1.000000
skin_0
0  -25.105263 93.704285 37.258736  -0.317370 0.160600 0.934604  0.634785 0.187475 1 1 1.000000
0  -23.577477 94.612701 37.547779  -0.165095 0.021700 0.986039  0.625996 0.183569 1 1 1.000000
0  -23.577477 94.777863 37.478958  -0.428017 0.812528 0.395727  0.625996 0.183569 1 1 1.000000
skin_0
0  -26.357773 92.878456 36.790771  -0.885524 0.105005 0.452573  0.641621 0.190405 1 1 1.000000
0  -26.275190 93.084908 36.928410  -0.716726 0.440006 0.541017  0.640645 0.189428 1 1 1.000000
0  -26.302719 93.071144 36.763245  -0.825347 0.561945 0.054953  0.641621 0.189428 1 1 1.000000
skin_0
0  -0.013768 98.576683 38.401138  0.000001 0.936072 -0.351809  0.500015 0.169897 1 1 1.000000
0  -7.294844 98.287643 38.332317  -0.065702 0.928760 -0.364813  0.539079 0.170873 1 1 1.000000
0  -7.281080 98.328934 38.442429  -0.076669 0.916133 0.393476  0.539079 0.170873 1 1 1.000000
skin_0
0  -7.281080 98.328934 38.442429  -0.076669 0.916133 0.393476  0.539079 0.170873 1 1 1.000000
0  -0.013768 98.617973 38.511250  -0.000023 0.916406 0.400250  0.500015 0.169897 1 1 1.000000
0  -0.013768 98.576683 38.401138  0.000001 0.936072 -0.351809  0.500015 0.169897 1 1 1.000000
skin_0
0  -12.951786 97.626976 38.153389  -0.130248 0.925272 -0.356239  0.569353 0.172826 1 1 1.000000
0  -16.846954 96.883728 38.001984  -0.192076 0.926999 -0.322148  0.589862 0.175756 1 1 1.000000
0  -16.846954 96.925018 38.112095  -0.223129 0.884740 0.409204  0.589862 0.175756 1 1 1.000000
skin_0
0  -16.846954 96.925018 38.112095  -0.223129 0.884740 0.409204  0.589862 0.175756 1 1 1.000000
0  -12.951786 97.682037 38.277264  -0.152449 0.906840 0.392939  0.569353 0.172826 1 1 1.000000
0  -12.951786 97.626976 38.153389  -0.130248 0.925272 -0.356239  0.569353 0.172826 1 1 1.000000
skin_0
0  -7.294844 98.287643 38.332317  -0.065702 0.928760 -0.364813  0.539079 0.170873 1 1 1.000000
0  -12.951786 97.626976 38.153389  -0.130248 0.925272 -0.356239  0.569353 0.172826 1 1 1.000000
0  -12.951786 97.682037 38.277264  -0.152449 0.906840 0.392939  0.569353 0.172826 1 1 1.000000
skin_0
0  -12.951786 97.682037 38.277264  -0.152449 0.906840 0.392939  0.569353 0.172826 1 1 1.000000
0  -7.281080 98.328934 38.442429  -0.076669 0.916133 0.393476  0.539079 0.170873 1 1 1.000000
0  -7.294844 98.287643 38.332317  -0.065702 0.928760 -0.364813  0.539079 0.170873 1 1 1.000000
skin_0
0  -16.846954 96.883728 38.001984  -0.192076 0.926999 -0.322148  0.589862 0.175756 1 1 1.000000
0  -20.563194 95.892731 37.712948  -0.265421 0.914688 -0.304793  0.610370 0.179662 1 1 1.000000
0  -20.576958 95.920258 37.823059  -0.311049 0.859998 0.404540  0.610370 0.179662 1 1 1.000000
skin_0
0  -20.576958 95.920258 37.823059  -0.311049 0.859998 0.404540  0.610370 0.179662 1 1 1.000000
0  -16.846954 96.925018 38.112095  -0.223129 0.884740 0.409204  0.589862 0.175756 1 1 1.000000
0  -16.846954 96.883728 38.001984  -0.192076 0.926999 -0.322148  0.589862 0.175756 1 1 1.000000
skin_0
0  -20.563194 95.892731 37.712948  -0.265421 0.914688 -0.304793  0.610370 0.179662 1 1 1.000000
0  -23.549950 94.750336 37.368847  -0.365340 0.885562 -0.286890  0.625996 0.183569 1 1 1.000000
0  -23.577477 94.777863 37.478958  -0.428017 0.812528 0.395727  0.625996 0.183569 1 1 1.000000
skin_0
0  -23.577477 94.777863 37.478958  -0.428017 0.812528 0.395727  0.625996 0.183569 1 1 1.000000
0  -20.576958 95.920258 37.823059  -0.311049 0.859998 0.404540  0.610370 0.179662 1 1 1.000000
0  -20.563194 95.892731 37.712948  -0.265421 0.914688 -0.304793  0.610370 0.179662 1 1 1.000000
skin_0
0  -23.549950 94.750336 37.368847  -0.365340 0.885562 -0.286890  0.625996 0.183569 1 1 1.000000
0  -25.050207 93.938271 37.093571  -0.458241 0.837671 -0.297192  0.634785 0.186499 1 1 1.000000
0  -25.119026 93.938271 37.217445  -0.544968 0.705909 0.452440  0.634785 0.186499 1 1 1.000000
skin_0
0  -25.119026 93.938271 37.217445  -0.544968 0.705909 0.452440  0.634785 0.186499 1 1 1.000000
0  -23.577477 94.777863 37.478958  -0.428017 0.812528 0.395727  0.625996 0.183569 1 1 1.000000
0  -23.549950 94.750336 37.368847  -0.365340 0.885562 -0.286890  0.625996 0.183569 1 1 1.000000
skin_0
0  -26.233900 92.589401 36.983463  -0.372899 -0.172192 0.911754  0.640645 0.191382 1 1 1.000000
0  -26.247663 92.740807 36.969700  -0.576363 0.095852 0.811553  0.640645 0.190405 1 1 1.000000
0  -26.385300 92.479294 36.845829  -0.622302 -0.154539 0.767371  0.641621 0.191382 1 1 1.000000
skin_0
0  -26.178846 92.369186 36.900883  -0.157093 -0.422019 0.892873  0.640645 0.192358 1 1 1.000000
0  -26.233900 92.589401 36.983463  -0.372899 -0.172192 0.911754  0.640645 0.191382 1 1 1.000000
0  -26.385300 92.479294 36.845829  -0.622302 -0.154539 0.767371  0.641621 0.191382 1 1 1.000000
skin_0
0  -25.917330 92.658226 37.024754  0.103001 -0.458004 0.882963  0.638691 0.191382 1 1 1.000000
0  -26.178846 92.369186 36.900883  -0.157093 -0.422019 0.892873  0.640645 0.192358 1 1 1.000000
0  -23.563713 93.442764 37.093571  0.218406 -0.729999 0.647612  0.625996 0.188452 1 1 1.000000
skin_0
0  -23.563713 93.442764 37.093571  0.218406 -0.729999 0.647612  0.625996 0.188452 1 1 1.000000
0  -23.563713 93.566650 37.231209  0.219336 -0.736983 0.639333  0.625996 0.187475 1 1 1.000000
0  -25.917330 92.658226 37.024754  0.103001 -0.458004 0.882963  0.638691 0.191382 1 1 1.000000
skin_0
0  -26.302719 93.071144 36.763245  -0.825347 0.561945 0.054953  0.641621 0.189428 1 1 1.000000
0  -25.050207 93.938271 37.093571  -0.458241 0.837671 -0.297192  0.634785 0.186499 1 1 1.000000
0  -24.912571 93.924507 36.859589  -0.443209 0.846596 -0.294688  0.633808 0.186499 1 1 1.000000
skin_0
0  -25.050207 93.938271 37.093571  -0.458241 0.837671 -0.297192  0.634785 0.186499 1 1 1.000000
0  -26.302719 93.071144 36.763245  -0.825347 0.561945 0.054953  0.641621 0.189428 1 1 1.000000
0  -26.275190 93.084908 36.928410  -0.716726 0.440006 0.541017  0.640645 0.189428 1 1 1.000000
skin_0
0  -26.275190 93.084908 36.928410  -0.716726 0.440006 0.541017  0.640645 0.189428 1 1 1.000000
0  -25.119026 93.938271 37.217445  -0.544968 0.705909 0.452440  0.634785 0.186499 1 1 1.000000
0  -25.050207 93.938271 37.093571  -0.458241 0.837671 -0.297192  0.634785 0.186499 1 1 1.000000
skin_0
0  -0.013768 97.737091 38.098331  -0.000000 -0.481900 0.876226  0.500015 0.172826 1 1 1.000000
0  -0.013768 98.342697 38.511250  0.000021 -0.563306 0.826248  0.500015 0.170873 1 1 1.000000
0  -7.294844 98.053650 38.442429  0.027742 -0.566693 0.823462  0.539079 0.171850 1 1 1.000000
skin_0
0  -7.294844 98.053650 38.442429  0.027742 -0.566693 0.823462  0.539079 0.171850 1 1 1.000000
0  -7.308608 97.448051 38.029510  0.021300 -0.485720 0.873855  0.539079 0.173803 1 1 1.000000
0  -0.013768 97.737091 38.098331  -0.000000 -0.481900 0.876226  0.500015 0.172826 1 1 1.000000
skin_0
0  -12.910495 96.787384 37.878113  0.044055 -0.470907 0.881082  0.569353 0.175756 1 1 1.000000
0  -12.951786 97.392990 38.277264  0.056031 -0.547673 0.834814  0.569353 0.173803 1 1 1.000000
0  -16.846954 96.635979 38.112095  0.076589 -0.544406 0.835318  0.589862 0.176733 1 1 1.000000
skin_0
0  -16.846954 96.635979 38.112095  0.076589 -0.544406 0.835318  0.589862 0.176733 1 1 1.000000
0  -16.819427 96.044128 37.726711  0.060778 -0.464616 0.883424  0.589862 0.178686 1 1 1.000000
0  -12.910495 96.787384 37.878113  0.044055 -0.470907 0.881082  0.569353 0.175756 1 1 1.000000
skin_0
0  -7.308608 97.448051 38.029510  0.021300 -0.485720 0.873855  0.539079 0.173803 1 1 1.000000
0  -7.294844 98.053650 38.442429  0.027742 -0.566693 0.823462  0.539079 0.171850 1 1 1.000000
0  -12.951786 97.392990 38.277264  0.056031 -0.547673 0.834814  0.569353 0.173803 1 1 1.000000
skin_0
0  -12.951786 97.392990 38.277264  0.056031 -0.547673 0.834814  0.569353 0.173803 1 1 1.000000
0  -12.910495 96.787384 37.878113  0.044055 -0.470907 0.881082  0.569353 0.175756 1 1 1.000000
0  -7.308608 97.448051 38.029510  0.021300 -0.485720 0.873855  0.539079 0.173803 1 1 1.000000
skin_0
0  -16.819427 96.044128 37.726711  0.060778 -0.464616 0.883424  0.589862 0.178686 1 1 1.000000
0  -16.846954 96.635979 38.112095  0.076589 -0.544406 0.835318  0.589862 0.176733 1 1 1.000000
0  -20.576958 95.631218 37.823059  0.083854 -0.481763 0.872280  0.610370 0.180639 1 1 1.000000
skin_0
0  -20.576958 95.631218 37.823059  0.083854 -0.481763 0.872280  0.610370 0.180639 1 1 1.000000
0  -20.563194 95.080666 37.520252  0.070073 -0.387860 0.919051  0.610370 0.182592 1 1 1.000000
0  -16.819427 96.044128 37.726711  0.060778 -0.464616 0.883424  0.589862 0.178686 1 1 1.000000
skin_0
0  -20.576958 95.631218 37.823059  0.083854 -0.481763 0.872280  0.610370 0.180639 1 1 1.000000
0  -23.577477 94.461288 37.492725  0.047510 -0.352938 0.934440  0.625996 0.184545 1 1 1.000000
0  -23.563713 94.089668 37.355083  0.037907 -0.297756 0.953889  0.625996 0.185522 1 1 1.000000
skin_0
0  -23.563713 94.089668 37.355083  0.037907 -0.297756 0.953889  0.625996 0.185522 1 1 1.000000
0  -20.563194 95.080666 37.520252  0.070073 -0.387860 0.919051  0.610370 0.182592 1 1 1.000000
0  -20.576958 95.631218 37.823059  0.083854 -0.481763 0.872280  0.610370 0.180639 1 1 1.000000
skin_0
0  -23.577477 94.461288 37.492725  0.047510 -0.352938 0.934440  0.625996 0.184545 1 1 1.000000
0  -25.036444 93.511597 37.231209  0.010456 -0.262100 0.964984  0.634785 0.187475 1 1 1.000000
0  -23.563713 94.089668 37.355083  0.037907 -0.297756 0.953889  0.625996 0.185522 1 1 1.000000
skin_0
0  -26.178846 92.369186 36.900883  -0.157093 -0.422019 0.892873  0.640645 0.192358 1 1 1.000000
0  -25.917330 92.658226 37.024754  0.103001 -0.458004 0.882963  0.638691 0.191382 1 1 1.000000
0  -26.233900 92.589401 36.983463  -0.372899 -0.172192 0.911754  0.640645 0.191382 1 1 1.000000
skin_0
0  -0.013768 97.090195 37.823059  -0.000000 -0.392540 0.919735  0.500015 0.174779 1 1 1.000000
0  -0.013768 97.737091 38.098331  -0.000000 -0.481900 0.876226  0.500015 0.172826 1 1 1.000000
0  -7.308608 97.448051 38.029510  0.021300 -0.485720 0.873855  0.539079 0.173803 1 1 1.000000
skin_0
0  -7.308608 97.448051 38.029510  0.021300 -0.485720 0.873855  0.539079 0.173803 1 1 1.000000
0  -7.322371 96.801147 37.740475  0.014467 -0.396698 0.917835  0.539079 0.175756 1 1 1.000000
0  -0.013768 97.090195 37.823059  -0.000000 -0.392540 0.919735  0.500015 0.174779 1 1 1.000000
skin_0
0  -12.882966 96.181770 37.616600  0.030445 -0.386386 0.921834  0.569353 0.178686 1 1 1.000000
0  -12.910495 96.787384 37.878113  0.044055 -0.470907 0.881082  0.569353 0.175756 1 1 1.000000
0  -16.819427 96.044128 37.726711  0.060778 -0.464616 0.883424  0.589862 0.178686 1 1 1.000000
skin_0
0  -16.819427 96.044128 37.726711  0.060778 -0.464616 0.883424  0.589862 0.178686 1 1 1.000000
0  -16.805662 95.438530 37.478958  0.043292 -0.375634 0.925757  0.589862 0.180639 1 1 1.000000
0  -12.882966 96.181770 37.616600  0.030445 -0.386386 0.921834  0.569353 0.178686 1 1 1.000000
skin_0
0  -7.322371 96.801147 37.740475  0.014467 -0.396698 0.917835  0.539079 0.175756 1 1 1.000000
0  -7.308608 97.448051 38.029510  0.021300 -0.485720 0.873855  0.539079 0.173803 1 1 1.000000
0  -12.910495 96.787384 37.878113  0.044055 -0.470907 0.881082  0.569353 0.175756 1 1 1.000000
skin_0
0  -12.910495 96.787384 37.878113  0.044055 -0.470907 0.881082  0.569353 0.175756 1 1 1.000000
0  -12.882966 96.181770 37.616600  0.030445 -0.386386 0.921834  0.569353 0.178686 1 1 1.000000
0  -7.322371 96.801147 37.740475  0.014467 -0.396698 0.917835  0.539079 0.175756 1 1 1.000000
skin_0
0  -16.805662 95.438530 37.478958  0.043292 -0.375634 0.925757  0.589862 0.180639 1 1 1.000000
0  -16.819427 96.044128 37.726711  0.060778 -0.464616 0.883424  0.589862 0.178686 1 1 1.000000
0  -20.563194 95.080666 37.520252  0.070073 -0.387860 0.919051  0.610370 0.182592 1 1 1.000000
skin_0
0  -20.563194 95.080666 37.520252  0.070073 -0.387860 0.919051  0.610370 0.182592 1 1 1.000000
0  -20.563194 94.530106 37.355083  0.045136 -0.283299 0.957969  0.610370 0.184545 1 1 1.000000
0  -16.805662 95.438530 37.478958  0.043292 -0.375634 0.925757  0.589862 0.180639 1 1 1.000000
skin_0
0  -20.563194 95.080666 37.520252  0.070073 -0.387860 0.919051  0.610370 0.182592 1 1 1.000000
0  -23.563713 94.089668 37.355083  0.037907 -0.297756 0.953889  0.625996 0.185522 1 1 1.000000
0  -23.563713 93.566650 37.231209  0.018924 -0.238172 0.971039  0.625996 0.187475 1 1 1.000000
skin_0
0  -23.563713 93.566650 37.231209  0.018924 -0.238172 0.971039  0.625996 0.187475 1 1 1.000000
0  -20.563194 94.530106 37.355083  0.045136 -0.283299 0.957969  0.610370 0.184545 1 1 1.000000
0  -20.563194 95.080666 37.520252  0.070073 -0.387860 0.919051  0.610370 0.182592 1 1 1.000000
skin_0
0  -23.563713 93.566650 37.231209  0.018924 -0.238172 0.971039  0.625996 0.187475 1 1 1.000000
0  -23.563713 94.089668 37.355083  0.037907 -0.297756 0.953889  0.625996 0.185522 1 1 1.000000
0  -25.036444 93.511597 37.231209  0.010456 -0.262100 0.964984  0.634785 0.187475 1 1 1.000000
skin_0
0  -25.036444 93.511597 37.231209  0.010456 -0.262100 0.964984  0.634785 0.187475 1 1 1.000000
0  -25.917330 92.658226 37.024754  -0.048297 -0.208513 0.976826  0.638691 0.191382 1 1 1.000000
0  -23.563713 93.566650 37.231209  0.018924 -0.238172 0.971039  0.625996 0.187475 1 1 1.000000
skin_0
0  -25.917330 92.658226 37.024754  -0.048297 -0.208513 0.976826  0.638691 0.191382 1 1 1.000000
0  -25.036444 93.511597 37.231209  0.010456 -0.262100 0.964984  0.634785 0.187475 1 1 1.000000
0  -25.091499 93.635468 37.272503  -0.188179 -0.038576 0.981377  0.634785 0.187475 1 1 1.000000
skin_0
0  -25.091499 93.635468 37.272503  -0.188179 -0.038576 0.981377  0.634785 0.187475 1 1 1.000000
0  -26.233900 92.589401 36.983463  -0.372899 -0.172192 0.911754  0.640645 0.191382 1 1 1.000000
0  -25.917330 92.658226 37.024754  -0.048297 -0.208513 0.976826  0.638691 0.191382 1 1 1.000000
skin_0
0  -26.247663 92.740807 36.969700  -0.576363 0.095852 0.811553  0.640645 0.190405 1 1 1.000000
0  -25.105263 93.704285 37.258736  -0.317370 0.160600 0.934604  0.634785 0.187475 1 1 1.000000
0  -25.119026 93.938271 37.217445  -0.544968 0.705909 0.452440  0.634785 0.186499 1 1 1.000000
skin_0
0  -25.119026 93.938271 37.217445  -0.544968 0.705909 0.452440  0.634785 0.186499 1 1 1.000000
0  -26.275190 93.084908 36.928410  -0.716726 0.440006 0.541017  0.640645 0.189428 1 1 1.000000
0  -26.247663 92.740807 36.969700  -0.576363 0.095852 0.811553  0.640645 0.190405 1 1 1.000000
skin_0
0  -23.577477 94.612701 37.547779  -0.165095 0.021700 0.986039  0.625996 0.183569 1 1 1.000000
0  -25.105263 93.704285 37.258736  -0.317370 0.160600 0.934604  0.634785 0.187475 1 1 1.000000
0  -25.091499 93.635468 37.272503  -0.188179 -0.038576 0.981377  0.634785 0.187475 1 1 1.000000
skin_0
0  -26.357773 92.878456 36.790771  -0.885524 0.105005 0.452573  0.641621 0.190405 1 1 1.000000
0  -26.385300 92.479294 36.845829  -0.622302 -0.154539 0.767371  0.641621 0.191382 1 1 1.000000
0  -26.247663 92.740807 36.969700  -0.576363 0.095852 0.811553  0.640645 0.190405 1 1 1.000000
skin_0
0  -26.247663 92.740807 36.969700  -0.576363 0.095852 0.811553  0.640645 0.190405 1 1 1.000000
0  -26.275190 93.084908 36.928410  -0.716726 0.440006 0.541017  0.640645 0.189428 1 1 1.000000
0  -26.357773 92.878456 36.790771  -0.885524 0.105005 0.452573  0.641621 0.190405 1 1 1.000000
skin_0
0  -0.013768 98.315170 37.685417  -0.000024 0.935958 -0.352112  0.500015 0.170873 1 1 1.000000
0  -0.013768 98.576683 38.401138  0.000001 0.936072 -0.351809  0.500015 0.169897 1 1 1.000000
0  7.267308 98.287643 38.332317  0.065650 0.928748 -0.364852  0.460952 0.170873 1 1 1.000000
skin_0
0  7.267308 98.287643 38.332317  0.065650 0.928748 -0.364852  0.460952 0.170873 1 1 1.000000
0  7.336127 97.998596 37.616600  0.068615 0.928547 -0.364818  0.459975 0.171850 1 1 1.000000
0  -0.013768 98.315170 37.685417  -0.000024 0.935958 -0.352112  0.500015 0.170873 1 1 1.000000
skin_0
0  12.910485 97.365463 37.478958  0.130922 0.925933 -0.354272  0.430677 0.173803 1 1 1.000000
0  12.924250 97.626976 38.153389  0.130191 0.925280 -0.356240  0.430677 0.172826 1 1 1.000000
0  16.819420 96.883728 38.001984  0.192015 0.926998 -0.322189  0.409192 0.175756 1 1 1.000000
skin_0
0  16.819420 96.883728 38.001984  0.192015 0.926998 -0.322189  0.409192 0.175756 1 1 1.000000
0  16.833183 96.649742 37.327557  0.192691 0.927371 -0.320708  0.409192 0.176733 1 1 1.000000
0  12.910485 97.365463 37.478958  0.130922 0.925933 -0.354272  0.430677 0.173803 1 1 1.000000
skin_0
0  7.336127 97.998596 37.616600  0.068615 0.928547 -0.364818  0.459975 0.171850 1 1 1.000000
0  7.267308 98.287643 38.332317  0.065650 0.928748 -0.364852  0.460952 0.170873 1 1 1.000000
0  12.924250 97.626976 38.153389  0.130191 0.925280 -0.356240  0.430677 0.172826 1 1 1.000000
skin_0
0  12.924250 97.626976 38.153389  0.130191 0.925280 -0.356240  0.430677 0.172826 1 1 1.000000
0  12.910485 97.365463 37.478958  0.130922 0.925933 -0.354272  0.430677 0.173803 1 1 1.000000
0  7.336127 97.998596 37.616600  0.068615 0.928547 -0.364818  0.459975 0.171850 1 1 1.000000
skin_0
0  16.833183 96.649742 37.327557  0.192691 0.927371 -0.320708  0.409192 0.176733 1 1 1.000000
0  16.819420 96.883728 38.001984  0.192015 0.926998 -0.322189  0.409192 0.175756 1 1 1.000000
0  20.535658 95.892731 37.712948  0.265371 0.914689 -0.304831  0.389660 0.179662 1 1 1.000000
skin_0
0  20.535658 95.892731 37.712948  0.265371 0.914689 -0.304831  0.389660 0.179662 1 1 1.000000
0  20.480602 95.727570 37.148624  0.265598 0.914883 -0.304051  0.389660 0.179662 1 1 1.000000
0  16.833183 96.649742 37.327557  0.192691 0.927371 -0.320708  0.409192 0.176733 1 1 1.000000
skin_0
0  20.480602 95.727570 37.148624  0.265598 0.914883 -0.304051  0.389660 0.179662 1 1 1.000000
0  20.535658 95.892731 37.712948  0.265371 0.914689 -0.304831  0.389660 0.179662 1 1 1.000000
0  23.522413 94.750336 37.368847  0.365278 0.885566 -0.286958  0.373058 0.183569 1 1 1.000000
skin_0
0  23.522413 94.750336 37.368847  0.365278 0.885566 -0.286958  0.373058 0.183569 1 1 1.000000
0  23.467358 94.640228 36.969696  0.365187 0.885577 -0.287038  0.373058 0.183569 1 1 1.000000
0  20.480602 95.727570 37.148624  0.265598 0.914883 -0.304051  0.389660 0.179662 1 1 1.000000
skin_0
0  23.467358 94.640228 36.969696  0.365187 0.885577 -0.287038  0.373058 0.183569 1 1 1.000000
0  23.522413 94.750336 37.368847  0.365278 0.885566 -0.286958  0.373058 0.183569 1 1 1.000000
0  25.022673 93.938271 37.093571  0.458192 0.837713 -0.297149  0.365246 0.186499 1 1 1.000000
skin_0
0  25.022673 93.938271 37.093571  0.458192 0.837713 -0.297149  0.365246 0.186499 1 1 1.000000
0  24.885033 93.924507 36.859589  0.443177 0.846639 -0.294612  0.366222 0.186499 1 1 1.000000
0  23.467358 94.640228 36.969696  0.365187 0.885577 -0.287038  0.373058 0.183569 1 1 1.000000
skin_0
0  -0.013768 98.342697 38.511250  0.000021 -0.563306 0.826248  0.500015 0.170873 1 1 1.000000
0  7.267308 98.053650 38.442429  -0.027736 -0.566655 0.823489  0.460952 0.171850 1 1 1.000000
0  7.253544 98.163773 38.511250  0.013070 -0.099621 0.994940  0.460952 0.170873 1 1 1.000000
skin_0
0  7.253544 98.163773 38.511250  0.013070 -0.099621 0.994940  0.460952 0.170873 1 1 1.000000
0  -0.013768 98.452805 38.580067  0.000003 -0.096559 0.995327  0.500015 0.169897 1 1 1.000000
0  -0.013768 98.342697 38.511250  0.000021 -0.563306 0.826248  0.500015 0.170873 1 1 1.000000
skin_0
0  12.924250 97.392990 38.277264  -0.056031 -0.547648 0.834831  0.430677 0.173803 1 1 1.000000
0  16.819420 96.635979 38.112095  -0.076599 -0.544445 0.835291  0.409192 0.176733 1 1 1.000000
0  16.819420 96.746086 38.180916  0.040433 -0.089990 0.995122  0.409192 0.176733 1 1 1.000000
skin_0
0  16.819420 96.746086 38.180916  0.040433 -0.089990 0.995122  0.409192 0.176733 1 1 1.000000
0  12.924250 97.503105 38.346081  0.023172 -0.089166 0.995747  0.430677 0.173803 1 1 1.000000
0  12.924250 97.392990 38.277264  -0.056031 -0.547648 0.834831  0.430677 0.173803 1 1 1.000000
skin_0
0  7.267308 98.053650 38.442429  -0.027736 -0.566655 0.823489  0.460952 0.171850 1 1 1.000000
0  12.924250 97.392990 38.277264  -0.056031 -0.547648 0.834831  0.430677 0.173803 1 1 1.000000
0  12.924250 97.503105 38.346081  0.023172 -0.089166 0.995747  0.430677 0.173803 1 1 1.000000
skin_0
0  12.924250 97.503105 38.346081  0.023172 -0.089166 0.995747  0.430677 0.173803 1 1 1.000000
0  7.253544 98.163773 38.511250  0.013070 -0.099621 0.994940  0.460952 0.170873 1 1 1.000000
0  7.267308 98.053650 38.442429  -0.027736 -0.566655 0.823489  0.460952 0.171850 1 1 1.000000
skin_0
0  16.819420 96.635979 38.112095  -0.076599 -0.544445 0.835291  0.409192 0.176733 1 1 1.000000
0  20.549421 95.631218 37.823059  -0.083683 -0.481295 0.872555  0.389660 0.180639 1 1 1.000000
0  20.549421 95.755096 37.891876  0.081523 -0.051788 0.995325  0.389660 0.179662 1 1 1.000000
skin_0
0  20.549421 95.755096 37.891876  0.081523 -0.051788 0.995325  0.389660 0.179662 1 1 1.000000
0  16.819420 96.746086 38.180916  0.040433 -0.089990 0.995122  0.409192 0.176733 1 1 1.000000
0  16.819420 96.635979 38.112095  -0.076599 -0.544445 0.835291  0.409192 0.176733 1 1 1.000000
skin_0
0  20.549421 95.755096 37.891876  0.081523 -0.051788 0.995325  0.389660 0.179662 1 1 1.000000
0  20.549421 95.631218 37.823059  -0.083683 -0.481295 0.872555  0.389660 0.180639 1 1 1.000000
0  23.549942 94.461288 37.492725  -0.047507 -0.352933 0.934442  0.373058 0.184545 1 1 1.000000
skin_0
0  23.549942 94.461288 37.492725  -0.047507 -0.352933 0.934442  0.373058 0.184545 1 1 1.000000
0  23.549942 94.612701 37.547779  0.165063 0.021703 0.986044  0.373058 0.183569 1 1 1.000000
0  20.549421 95.755096 37.891876  0.081523 -0.051788 0.995325  0.389660 0.179662 1 1 1.000000
skin_0
0  25.008909 93.511597 37.231209  -0.010464 -0.262112 0.964981  0.365246 0.187475 1 1 1.000000
0  25.063963 93.635468 37.272503  0.188152 -0.038621 0.981380  0.365246 0.187475 1 1 1.000000
0  23.549942 94.612701 37.547779  0.165063 0.021703 0.986044  0.373058 0.183569 1 1 1.000000
skin_0
0  23.549942 94.612701 37.547779  0.165063 0.021703 0.986044  0.373058 0.183569 1 1 1.000000
0  23.549942 94.461288 37.492725  -0.047507 -0.352933 0.934442  0.373058 0.184545 1 1 1.000000
0  25.008909 93.511597 37.231209  -0.010464 -0.262112 0.964981  0.365246 0.187475 1 1 1.000000
skin_0
0  -0.013768 97.021378 37.685417  -0.000001 -0.877766 0.479089  0.500015 0.175756 1 1 1.000000
0  7.294835 96.732323 37.616600  -0.060210 -0.878302 0.474301  0.459975 0.176733 1 1 1.000000
0  7.294835 96.801147 37.740475  -0.057783 -0.878468 0.474294  0.459975 0.175756 1 1 1.000000
skin_0
0  7.294835 96.801147 37.740475  -0.057783 -0.878468 0.474294  0.459975 0.175756 1 1 1.000000
0  -0.013768 97.090195 37.823059  -0.000002 -0.877743 0.479131  0.500015 0.174779 1 1 1.000000
0  -0.013768 97.021378 37.685417  -0.000001 -0.877766 0.479089  0.500015 0.175756 1 1 1.000000
skin_0
0  12.841666 96.099182 37.478958  -0.116982 -0.867046 0.484300  0.430677 0.178686 1 1 1.000000
0  16.778128 95.369713 37.341320  -0.170780 -0.858498 0.483544  0.409192 0.181616 1 1 1.000000
0  16.778128 95.438530 37.478958  -0.167029 -0.859610 0.482879  0.409192 0.180639 1 1 1.000000
skin_0
0  16.778128 95.438530 37.478958  -0.167029 -0.859610 0.482879  0.409192 0.180639 1 1 1.000000
0  12.855430 96.181770 37.616600  -0.114472 -0.867430 0.484213  0.430677 0.178686 1 1 1.000000
0  12.841666 96.099182 37.478958  -0.116982 -0.867046 0.484300  0.430677 0.178686 1 1 1.000000
skin_0
0  7.294835 96.732323 37.616600  -0.060210 -0.878302 0.474301  0.459975 0.176733 1 1 1.000000
0  12.841666 96.099182 37.478958  -0.116982 -0.867046 0.484300  0.430677 0.178686 1 1 1.000000
0  12.855430 96.181770 37.616600  -0.114472 -0.867430 0.484213  0.430677 0.178686 1 1 1.000000
skin_0
0  12.855430 96.181770 37.616600  -0.114472 -0.867430 0.484213  0.430677 0.178686 1 1 1.000000
0  7.294835 96.801147 37.740475  -0.057783 -0.878468 0.474294  0.459975 0.175756 1 1 1.000000
0  7.294835 96.732323 37.616600  -0.060210 -0.878302 0.474301  0.459975 0.176733 1 1 1.000000
skin_0
0  16.778128 95.369713 37.341320  -0.170780 -0.858498 0.483544  0.409192 0.181616 1 1 1.000000
0  20.521894 94.433762 37.217445  -0.213432 -0.810500 0.545469  0.389660 0.184545 1 1 1.000000
0  20.535658 94.530106 37.355083  -0.208358 -0.813185 0.543430  0.389660 0.184545 1 1 1.000000
skin_0
0  20.535658 94.530106 37.355083  -0.208358 -0.813185 0.543430  0.389660 0.184545 1 1 1.000000
0  16.778128 95.438530 37.478958  -0.167029 -0.859610 0.482879  0.409192 0.180639 1 1 1.000000
0  16.778128 95.369713 37.341320  -0.170780 -0.858498 0.483544  0.409192 0.181616 1 1 1.000000
skin_0
0  20.521894 94.433762 37.217445  -0.213432 -0.810500 0.545469  0.389660 0.184545 1 1 1.000000
0  23.536179 93.442764 37.093571  -0.218396 -0.730000 0.647614  0.373058 0.188452 1 1 1.000000
0  23.536179 93.566650 37.231209  -0.219335 -0.737015 0.639297  0.373058 0.187475 1 1 1.000000
skin_0
0  23.536179 93.566650 37.231209  -0.219335 -0.737015 0.639297  0.373058 0.187475 1 1 1.000000
0  20.535658 94.530106 37.355083  -0.208358 -0.813185 0.543430  0.389660 0.184545 1 1 1.000000
0  20.521894 94.433762 37.217445  -0.213432 -0.810500 0.545469  0.389660 0.184545 1 1 1.000000
skin_0
0  25.077728 93.704285 37.258736  0.317315 0.160580 0.934626  0.365246 0.187475 1 1 1.000000
0  25.063963 93.635468 37.272503  0.188152 -0.038621 0.981380  0.365246 0.187475 1 1 1.000000
0  26.206366 92.589401 36.983456  0.372868 -0.172168 0.911772  0.358409 0.191382 1 1 1.000000
skin_0
0  26.206366 92.589401 36.983456  0.372868 -0.172168 0.911772  0.358409 0.191382 1 1 1.000000
0  26.220129 92.740807 36.969692  0.576310 0.095826 0.811594  0.358409 0.190405 1 1 1.000000
0  25.077728 93.704285 37.258736  0.317315 0.160580 0.934626  0.365246 0.187475 1 1 1.000000
skin_0
0  -0.013768 98.617973 38.511250  -0.000023 0.916406 0.400250  0.500015 0.169897 1 1 1.000000
0  -0.013768 98.452805 38.580067  0.000003 -0.096559 0.995327  0.500015 0.169897 1 1 1.000000
0  7.253544 98.163773 38.511250  0.013070 -0.099621 0.994940  0.460952 0.170873 1 1 1.000000
skin_0
0  7.253544 98.163773 38.511250  0.013070 -0.099621 0.994940  0.460952 0.170873 1 1 1.000000
0  7.253544 98.328934 38.442429  0.076591 0.916150 0.393450  0.460952 0.170873 1 1 1.000000
0  -0.013768 98.617973 38.511250  -0.000023 0.916406 0.400250  0.500015 0.169897 1 1 1.000000
skin_0
0  12.924250 97.682037 38.277264  0.152386 0.906848 0.392943  0.430677 0.172826 1 1 1.000000
0  12.924250 97.503105 38.346081  0.023172 -0.089166 0.995747  0.430677 0.173803 1 1 1.000000
0  16.819420 96.746086 38.180916  0.040433 -0.089990 0.995122  0.409192 0.176733 1 1 1.000000
skin_0
0  16.819420 96.746086 38.180916  0.040433 -0.089990 0.995122  0.409192 0.176733 1 1 1.000000
0  16.819420 96.925018 38.112095  0.223064 0.884784 0.409145  0.409192 0.175756 1 1 1.000000
0  12.924250 97.682037 38.277264  0.152386 0.906848 0.392943  0.430677 0.172826 1 1 1.000000
skin_0
0  7.253544 98.328934 38.442429  0.076591 0.916150 0.393450  0.460952 0.170873 1 1 1.000000
0  7.253544 98.163773 38.511250  0.013070 -0.099621 0.994940  0.460952 0.170873 1 1 1.000000
0  12.924250 97.503105 38.346081  0.023172 -0.089166 0.995747  0.430677 0.173803 1 1 1.000000
skin_0
0  12.924250 97.503105 38.346081  0.023172 -0.089166 0.995747  0.430677 0.173803 1 1 1.000000
0  12.924250 97.682037 38.277264  0.152386 0.906848 0.392943  0.430677 0.172826 1 1 1.000000
0  7.253544 98.328934 38.442429  0.076591 0.916150 0.393450  0.460952 0.170873 1 1 1.000000
skin_0
0  16.819420 96.925018 38.112095  0.223064 0.884784 0.409145  0.409192 0.175756 1 1 1.000000
0  16.819420 96.746086 38.180916  0.040433 -0.089990 0.995122  0.409192 0.176733 1 1 1.000000
0  20.549421 95.755096 37.891876  0.081523 -0.051788 0.995325  0.389660 0.179662 1 1 1.000000
skin_0
0  20.549421 95.755096 37.891876  0.081523 -0.051788 0.995325  0.389660 0.179662 1 1 1.000000
0  20.549421 95.920258 37.823059  0.311005 0.860039 0.404486  0.389660 0.179662 1 1 1.000000
0  16.819420 96.925018 38.112095  0.223064 0.884784 0.409145  0.409192 0.175756 1 1 1.000000
skin_0
0  20.549421 95.920258 37.823059  0.311005 0.860039 0.404486  0.389660 0.179662 1 1 1.000000
0  20.549421 95.755096 37.891876  0.081523 -0.051788 0.995325  0.389660 0.179662 1 1 1.000000
0  23.549942 94.612701 37.547779  0.165063 0.021703 0.986044  0.373058 0.183569 1 1 1.000000
skin_0
0  23.549942 94.612701 37.547779  0.165063 0.021703 0.986044  0.373058 0.183569 1 1 1.000000
0  23.549942 94.777863 37.478958  0.427969 0.812558 0.395718  0.373058 0.183569 1 1 1.000000
0  20.549421 95.920258 37.823059  0.311005 0.860039 0.404486  0.389660 0.179662 1 1 1.000000
skin_0
0  23.549942 94.777863 37.478958  0.427969 0.812558 0.395718  0.373058 0.183569 1 1 1.000000
0  23.549942 94.612701 37.547779  0.165063 0.021703 0.986044  0.373058 0.183569 1 1 1.000000
0  25.077728 93.704285 37.258736  0.317315 0.160580 0.934626  0.365246 0.187475 1 1 1.000000
skin_0
0  25.077728 93.704285 37.258736  0.317315 0.160580 0.934626  0.365246 0.187475 1 1 1.000000
0  25.091492 93.938271 37.217445  0.544948 0.705920 0.452447  0.365246 0.186499 1 1 1.000000
0  23.549942 94.777863 37.478958  0.427969 0.812558 0.395718  0.373058 0.183569 1 1 1.000000
skin_0
0  26.330238 92.878456 36.790764  0.885523 0.105023 0.452569  0.358409 0.190405 1 1 1.000000
0  26.275183 93.071144 36.763237  0.825314 0.562001 0.054882  0.358409 0.189428 1 1 1.000000
0  26.247656 93.084908 36.928402  0.716715 0.440075 0.540975  0.358409 0.189428 1 1 1.000000
skin_0
0  -0.013768 98.576683 38.401138  0.000001 0.936072 -0.351809  0.500015 0.169897 1 1 1.000000
0  -0.013768 98.617973 38.511250  -0.000023 0.916406 0.400250  0.500015 0.169897 1 1 1.000000
0  7.253544 98.328934 38.442429  0.076591 0.916150 0.393450  0.460952 0.170873 1 1 1.000000
skin_0
0  7.253544 98.328934 38.442429  0.076591 0.916150 0.393450  0.460952 0.170873 1 1 1.000000
0  7.267308 98.287643 38.332317  0.065650 0.928748 -0.364852  0.460952 0.170873 1 1 1.000000
0  -0.013768 98.576683 38.401138  0.000001 0.936072 -0.351809  0.500015 0.169897 1 1 1.000000
skin_0
0  12.924250 97.626976 38.153389  0.130191 0.925280 -0.356240  0.430677 0.172826 1 1 1.000000
0  12.924250 97.682037 38.277264  0.152386 0.906848 0.392943  0.430677 0.172826 1 1 1.000000
0  16.819420 96.925018 38.112095  0.223064 0.884784 0.409145  0.409192 0.175756 1 1 1.000000
skin_0
0  16.819420 96.925018 38.112095  0.223064 0.884784 0.409145  0.409192 0.175756 1 1 1.000000
0  16.819420 96.883728 38.001984  0.192015 0.926998 -0.322189  0.409192 0.175756 1 1 1.000000
0  12.924250 97.626976 38.153389  0.130191 0.925280 -0.356240  0.430677 0.172826 1 1 1.000000
skin_0
0  7.267308 98.287643 38.332317  0.065650 0.928748 -0.364852  0.460952 0.170873 1 1 1.000000
0  7.253544 98.328934 38.442429  0.076591 0.916150 0.393450  0.460952 0.170873 1 1 1.000000
0  12.924250 97.682037 38.277264  0.152386 0.906848 0.392943  0.430677 0.172826 1 1 1.000000
skin_0
0  12.924250 97.682037 38.277264  0.152386 0.906848 0.392943  0.430677 0.172826 1 1 1.000000
0  12.924250 97.626976 38.153389  0.130191 0.925280 -0.356240  0.430677 0.172826 1 1 1.000000
0  7.267308 98.287643 38.332317  0.065650 0.928748 -0.364852  0.460952 0.170873 1 1 1.000000
skin_0
0  16.819420 96.883728 38.001984  0.192015 0.926998 -0.322189  0.409192 0.175756 1 1 1.000000
0  16.819420 96.925018 38.112095  0.223064 0.884784 0.409145  0.409192 0.175756 1 1 1.000000
0  20.549421 95.920258 37.823059  0.311005 0.860039 0.404486  0.389660 0.179662 1 1 1.000000
skin_0
0  20.549421 95.920258 37.823059  0.311005 0.860039 0.404486  0.389660 0.179662 1 1 1.000000
0  20.535658 95.892731 37.712948  0.265371 0.914689 -0.304831  0.389660 0.179662 1 1 1.000000
0  16.819420 96.883728 38.001984  0.192015 0.926998 -0.322189  0.409192 0.175756 1 1 1.000000
skin_0
0  20.535658 95.892731 37.712948  0.265371 0.914689 -0.304831  0.389660 0.179662 1 1 1.000000
0  20.549421 95.920258 37.823059  0.311005 0.860039 0.404486  0.389660 0.179662 1 1 1.000000
0  23.549942 94.777863 37.478958  0.427969 0.812558 0.395718  0.373058 0.183569 1 1 1.000000
skin_0
0  23.549942 94.777863 37.478958  0.427969 0.812558 0.395718  0.373058 0.183569 1 1 1.000000
0  23.522413 94.750336 37.368847  0.365278 0.885566 -0.286958  0.373058 0.183569 1 1 1.000000
0  20.535658 95.892731 37.712948  0.265371 0.914689 -0.304831  0.389660 0.179662 1 1 1.000000
skin_0
0  23.522413 94.750336 37.368847  0.365278 0.885566 -0.286958  0.373058 0.183569 1 1 1.000000
0  23.549942 94.777863 37.478958  0.427969 0.812558 0.395718  0.373058 0.183569 1 1 1.000000
0  25.091492 93.938271 37.217445  0.544948 0.705920 0.452447  0.365246 0.186499 1 1 1.000000
skin_0
0  25.091492 93.938271 37.217445  0.544948 0.705920 0.452447  0.365246 0.186499 1 1 1.000000
0  25.022673 93.938271 37.093571  0.458192 0.837713 -0.297149  0.365246 0.186499 1 1 1.000000
0  23.522413 94.750336 37.368847  0.365278 0.885566 -0.286958  0.373058 0.183569 1 1 1.000000
skin_0
0  26.206366 92.589401 36.983456  0.372868 -0.172168 0.911772  0.358409 0.191382 1 1 1.000000
0  26.357765 92.479294 36.845821  0.622299 -0.154551 0.767370  0.358409 0.191382 1 1 1.000000
0  26.220129 92.740807 36.969692  0.576310 0.095826 0.811594  0.358409 0.190405 1 1 1.000000
skin_0
0  26.151308 92.369186 36.900875  0.157084 -0.422012 0.892878  0.359386 0.192358 1 1 1.000000
0  26.357765 92.479294 36.845821  0.622299 -0.154551 0.767370  0.358409 0.191382 1 1 1.000000
0  26.206366 92.589401 36.983456  0.372868 -0.172168 0.911772  0.358409 0.191382 1 1 1.000000
skin_0
0  25.889795 92.658226 37.024746  -0.102981 -0.457961 0.882987  0.360363 0.191382 1 1 1.000000
0  23.536179 93.566650 37.231209  -0.219335 -0.737015 0.639297  0.373058 0.187475 1 1 1.000000
0  23.536179 93.442764 37.093571  -0.218396 -0.730000 0.647614  0.373058 0.188452 1 1 1.000000
skin_0
0  23.536179 93.442764 37.093571  -0.218396 -0.730000 0.647614  0.373058 0.188452 1 1 1.000000
0  26.151308 92.369186 36.900875  0.157084 -0.422012 0.892878  0.359386 0.192358 1 1 1.000000
0  25.889795 92.658226 37.024746  -0.102981 -0.457961 0.882987  0.360363 0.191382 1 1 1.000000
skin_0
0  26.275183 93.071144 36.763237  0.825314 0.562001 0.054882  0.358409 0.189428 1 1 1.000000
0  24.885033 93.924507 36.859589  0.443177 0.846639 -0.294612  0.366222 0.186499 1 1 1.000000
0  25.022673 93.938271 37.093571  0.458192 0.837713 -0.297149  0.365246 0.186499 1 1 1.000000
skin_0
0  25.022673 93.938271 37.093571  0.458192 0.837713 -0.297149  0.365246 0.186499 1 1 1.000000
0  25.091492 93.938271 37.217445  0.544948 0.705920 0.452447  0.365246 0.186499 1 1 1.000000
0  26.247656 93.084908 36.928402  0.716715 0.440075 0.540975  0.358409 0.189428 1 1 1.000000
skin_0
0  26.247656 93.084908 36.928402  0.716715 0.440075 0.540975  0.358409 0.189428 1 1 1.000000
0  26.275183 93.071144 36.763237  0.825314 0.562001 0.054882  0.358409 0.189428 1 1 1.000000
0  25.022673 93.938271 37.093571  0.458192 0.837713 -0.297149  0.365246 0.186499 1 1 1.000000
skin_0
0  -0.013768 97.737091 38.098331  -0.000000 -0.481900 0.876226  0.500015 0.172826 1 1 1.000000
0  7.281072 97.448051 38.029510  -0.021306 -0.485760 0.873833  0.460952 0.173803 1 1 1.000000
0  7.267308 98.053650 38.442429  -0.027736 -0.566655 0.823489  0.460952 0.171850 1 1 1.000000
skin_0
0  7.267308 98.053650 38.442429  -0.027736 -0.566655 0.823489  0.460952 0.171850 1 1 1.000000
0  -0.013768 98.342697 38.511250  0.000021 -0.563306 0.826248  0.500015 0.170873 1 1 1.000000
0  -0.013768 97.737091 38.098331  -0.000000 -0.481900 0.876226  0.500015 0.172826 1 1 1.000000
skin_0
0  12.882957 96.787384 37.878113  -0.044053 -0.470903 0.881085  0.430677 0.175756 1 1 1.000000
0  16.791891 96.044128 37.726711  -0.060858 -0.464808 0.883317  0.409192 0.178686 1 1 1.000000
0  16.819420 96.635979 38.112095  -0.076599 -0.544445 0.835291  0.409192 0.176733 1 1 1.000000
skin_0
0  16.819420 96.635979 38.112095  -0.076599 -0.544445 0.835291  0.409192 0.176733 1 1 1.000000
0  12.924250 97.392990 38.277264  -0.056031 -0.547648 0.834831  0.430677 0.173803 1 1 1.000000
0  12.882957 96.787384 37.878113  -0.044053 -0.470903 0.881085  0.430677 0.175756 1 1 1.000000
skin_0
0  7.281072 97.448051 38.029510  -0.021306 -0.485760 0.873833  0.460952 0.173803 1 1 1.000000
0  12.882957 96.787384 37.878113  -0.044053 -0.470903 0.881085  0.430677 0.175756 1 1 1.000000
0  12.924250 97.392990 38.277264  -0.056031 -0.547648 0.834831  0.430677 0.173803 1 1 1.000000
skin_0
0  12.924250 97.392990 38.277264  -0.056031 -0.547648 0.834831  0.430677 0.173803 1 1 1.000000
0  7.267308 98.053650 38.442429  -0.027736 -0.566655 0.823489  0.460952 0.171850 1 1 1.000000
0  7.281072 97.448051 38.029510  -0.021306 -0.485760 0.873833  0.460952 0.173803 1 1 1.000000
skin_0
0  16.791891 96.044128 37.726711  -0.060858 -0.464808 0.883317  0.409192 0.178686 1 1 1.000000
0  20.535658 95.080666 37.520252  -0.070334 -0.388096 0.918931  0.389660 0.182592 1 1 1.000000
0  20.549421 95.631218 37.823059  -0.083683 -0.481295 0.872555  0.389660 0.180639 1 1 1.000000
skin_0
0  20.549421 95.631218 37.823059  -0.083683 -0.481295 0.872555  0.389660 0.180639 1 1 1.000000
0  16.819420 96.635979 38.112095  -0.076599 -0.544445 0.835291  0.409192 0.176733 1 1 1.000000
0  16.791891 96.044128 37.726711  -0.060858 -0.464808 0.883317  0.409192 0.178686 1 1 1.000000
skin_0
0  20.549421 95.631218 37.823059  -0.083683 -0.481295 0.872555  0.389660 0.180639 1 1 1.000000
0  20.535658 95.080666 37.520252  -0.070334 -0.388096 0.918931  0.389660 0.182592 1 1 1.000000
0  23.536179 94.089668 37.355083  -0.037907 -0.297752 0.953890  0.373058 0.185522 1 1 1.000000
skin_0
0  23.536179 94.089668 37.355083  -0.037907 -0.297752 0.953890  0.373058 0.185522 1 1 1.000000
0  23.549942 94.461288 37.492725  -0.047507 -0.352933 0.934442  0.373058 0.184545 1 1 1.000000
0  20.549421 95.631218 37.823059  -0.083683 -0.481295 0.872555  0.389660 0.180639 1 1 1.000000
skin_0
0  23.549942 94.461288 37.492725  -0.047507 -0.352933 0.934442  0.373058 0.184545 1 1 1.000000
0  23.536179 94.089668 37.355083  -0.037907 -0.297752 0.953890  0.373058 0.185522 1 1 1.000000
0  25.008909 93.511597 37.231209  -0.010464 -0.262112 0.964981  0.365246 0.187475 1 1 1.000000
skin_0
0  26.151308 92.369186 36.900875  0.157084 -0.422012 0.892878  0.359386 0.192358 1 1 1.000000
0  26.206366 92.589401 36.983456  0.372868 -0.172168 0.911772  0.358409 0.191382 1 1 1.000000
0  25.889795 92.658226 37.024746  -0.102981 -0.457961 0.882987  0.360363 0.191382 1 1 1.000000
skin_0
0  -0.013768 97.090195 37.823059  -0.000000 -0.392540 0.919735  0.500015 0.174779 1 1 1.000000
0  7.294835 96.801147 37.740475  -0.014463 -0.396697 0.917836  0.459975 0.175756 1 1 1.000000
0  7.281072 97.448051 38.029510  -0.021306 -0.485760 0.873833  0.460952 0.173803 1 1 1.000000
skin_0
0  7.281072 97.448051 38.029510  -0.021306 -0.485760 0.873833  0.460952 0.173803 1 1 1.000000
0  -0.013768 97.737091 38.098331  -0.000000 -0.481900 0.876226  0.500015 0.172826 1 1 1.000000
0  -0.013768 97.090195 37.823059  -0.000000 -0.392540 0.919735  0.500015 0.174779 1 1 1.000000
skin_0
0  12.855430 96.181770 37.616600  -0.030434 -0.386338 0.921855  0.430677 0.178686 1 1 1.000000
0  16.778128 95.438530 37.478958  -0.043293 -0.375633 0.925757  0.409192 0.180639 1 1 1.000000
0  16.791891 96.044128 37.726711  -0.060858 -0.464808 0.883317  0.409192 0.178686 1 1 1.000000
skin_0
0  16.791891 96.044128 37.726711  -0.060858 -0.464808 0.883317  0.409192 0.178686 1 1 1.000000
0  12.882957 96.787384 37.878113  -0.044053 -0.470903 0.881085  0.430677 0.175756 1 1 1.000000
0  12.855430 96.181770 37.616600  -0.030434 -0.386338 0.921855  0.430677 0.178686 1 1 1.000000
skin_0
0  7.294835 96.801147 37.740475  -0.014463 -0.396697 0.917836  0.459975 0.175756 1 1 1.000000
0  12.855430 96.181770 37.616600  -0.030434 -0.386338 0.921855  0.430677 0.178686 1 1 1.000000
0  12.882957 96.787384 37.878113  -0.044053 -0.470903 0.881085  0.430677 0.175756 1 1 1.000000
skin_0
0  12.882957 96.787384 37.878113  -0.044053 -0.470903 0.881085  0.430677 0.175756 1 1 1.000000
0  7.281072 97.448051 38.029510  -0.021306 -0.485760 0.873833  0.460952 0.173803 1 1 1.000000
0  7.294835 96.801147 37.740475  -0.014463 -0.396697 0.917836  0.459975 0.175756 1 1 1.000000
skin_0
0  16.778128 95.438530 37.478958  -0.043293 -0.375633 0.925757  0.409192 0.180639 1 1 1.000000
0  20.535658 94.530106 37.355083  -0.045150 -0.283337 0.957957  0.389660 0.184545 1 1 1.000000
0  20.535658 95.080666 37.520252  -0.070334 -0.388096 0.918931  0.389660 0.182592 1 1 1.000000
skin_0
0  20.535658 95.080666 37.520252  -0.070334 -0.388096 0.918931  0.389660 0.182592 1 1 1.000000
0  16.791891 96.044128 37.726711  -0.060858 -0.464808 0.883317  0.409192 0.178686 1 1 1.000000
0  16.778128 95.438530 37.478958  -0.043293 -0.375633 0.925757  0.409192 0.180639 1 1 1.000000
skin_0
0  20.535658 95.080666 37.520252  -0.070334 -0.388096 0.918931  0.389660 0.182592 1 1 1.000000
0  20.535658 94.530106 37.355083  -0.045150 -0.283337 0.957957  0.389660 0.184545 1 1 1.000000
0  23.536179 93.566650 37.231209  -0.018925 -0.238172 0.971039  0.373058 0.187475 1 1 1.000000
skin_0
0  23.536179 93.566650 37.231209  -0.018925 -0.238172 0.971039  0.373058 0.187475 1 1 1.000000
0  23.536179 94.089668 37.355083  -0.037907 -0.297752 0.953890  0.373058 0.185522 1 1 1.000000
0  20.535658 95.080666 37.520252  -0.070334 -0.388096 0.918931  0.389660 0.182592 1 1 1.000000
skin_0
0  23.536179 93.566650 37.231209  -0.018925 -0.238172 0.971039  0.373058 0.187475 1 1 1.000000
0  25.889795 92.658226 37.024746  0.048271 -0.208535 0.976823  0.360363 0.191382 1 1 1.000000
0  25.008909 93.511597 37.231209  -0.010464 -0.262112 0.964981  0.365246 0.187475 1 1 1.000000
skin_0
0  25.008909 93.511597 37.231209  -0.010464 -0.262112 0.964981  0.365246 0.187475 1 1 1.000000
0  23.536179 94.089668 37.355083  -0.037907 -0.297752 0.953890  0.373058 0.185522 1 1 1.000000
0  23.536179 93.566650 37.231209  -0.018925 -0.238172 0.971039  0.373058 0.187475 1 1 1.000000
skin_0
0  25.889795 92.658226 37.024746  0.048271 -0.208535 0.976823  0.360363 0.191382 1 1 1.000000
0  26.206366 92.589401 36.983456  0.372868 -0.172168 0.911772  0.358409 0.191382 1 1 1.000000
0  25.063963 93.635468 37.272503  0.188152 -0.038621 0.981380  0.365246 0.187475 1 1 1.000000
skin_0
0  25.063963 93.635468 37.272503  0.188152 -0.038621 0.981380  0.365246 0.187475 1 1 1.000000
0  25.008909 93.511597 37.231209  -0.010464 -0.262112 0.964981  0.365246 0.187475 1 1 1.000000
0  25.889795 92.658226 37.024746  0.048271 -0.208535 0.976823  0.360363 0.191382 1 1 1.000000
skin_0
0  26.220129 92.740807 36.969692  0.576310 0.095826 0.811594  0.358409 0.190405 1 1 1.000000
0  26.247656 93.084908 36.928402  0.716715 0.440075 0.540975  0.358409 0.189428 1 1 1.000000
0  25.091492 93.938271 37.217445  0.544948 0.705920 0.452447  0.365246 0.186499 1 1 1.000000
skin_0
0  25.091492 93.938271 37.217445  0.544948 0.705920 0.452447  0.365246 0.186499 1 1 1.000000
0  25.077728 93.704285 37.258736  0.317315 0.160580 0.934626  0.365246 0.187475 1 1 1.000000
0  26.220129 92.740807 36.969692  0.576310 0.095826 0.811594  0.358409 0.190405 1 1 1.000000
skin_0
0  23.549942 94.612701 37.547779  0.165063 0.021703 0.986044  0.373058 0.183569 1 1 1.000000
0  25.063963 93.635468 37.272503  0.188152 -0.038621 0.981380  0.365246 0.187475 1 1 1.000000
0  25.077728 93.704285 37.258736  0.317315 0.160580 0.934626  0.365246 0.187475 1 1 1.000000
skin_0
0  26.330238 92.878456 36.790764  0.885523 0.105023 0.452569  0.358409 0.190405 1 1 1.000000
0  26.247656 93.084908 36.928402  0.716715 0.440075 0.540975  0.358409 0.189428 1 1 1.000000
0  26.220129 92.740807 36.969692  0.576310 0.095826 0.811594  0.358409 0.190405 1 1 1.000000
skin_0
0  26.220129 92.740807 36.969692  0.576310 0.095826 0.811594  0.358409 0.190405 1 1 1.000000
0  26.357765 92.479294 36.845821  0.622299 -0.154551 0.767370  0.358409 0.191382 1 1 1.000000
0  26.330238 92.878456 36.790764  0.885523 0.105023 0.452569  0.358409 0.190405 1 1 1.000000
end
