version 1
nodes
0 "blender_implicit" -1
1 "root" -1
2 "steering_wheel" 1
end
skeleton
time 0
0  0.000000 0.000000 0.000000  0.000000 -0.000000 0.000000
1  0.000000 0.000000 0.000000  1.570796 -0.000000 0.000000
2  0.000004 24.183062 22.214848  0.000000 -0.000002 -0.000002
end
triangles
carbonfibre
0  -41.621880 56.142735 24.265671  0.980097 0.093887 0.174913  0.788110 0.517563 1 1 1.000000
0  -41.319073 49.687489 27.059732  0.928193 0.182982 0.323998  0.755882 0.531236 1 1 1.000000
0  -41.167671 47.815605 27.706629  0.998515 0.054467 -0.001339  0.746117 0.535142 1 1 1.000000
carbonfibre
0  -41.167671 47.815605 27.706629  0.998515 0.054467 -0.001339  0.746117 0.535142 1 1 1.000000
0  -40.988739 44.870144 27.968145  0.990591 0.050111 -0.127350  0.732444 0.536119 1 1 1.000000
0  -40.851105 41.608109 27.747923  0.998421 0.045006 0.033612  0.715842 0.535142 1 1 1.000000
carbonfibre
0  -41.621880 56.142735 24.265671  0.980097 0.093887 0.174913  0.788110 0.517563 1 1 1.000000
0  -41.167671 47.815605 27.706629  0.998515 0.054467 -0.001339  0.746117 0.535142 1 1 1.000000
0  -40.851105 41.608109 27.747923  0.998421 0.045006 0.033612  0.715842 0.535142 1 1 1.000000
carbonfibre
0  -40.851105 41.608109 27.747923  0.998421 0.045006 0.033612  0.715842 0.535142 1 1 1.000000
0  -40.630882 47.829369 15.649498  0.993287 0.107464 0.042815  0.747093 0.475570 1 1 1.000000
0  -41.621880 56.211552 24.238140  0.955766 0.261229 -0.135165  0.788110 0.517563 1 1 1.000000
carbonfibre
0  -41.621880 56.142735 24.265671  0.980097 0.093887 0.174913  0.788110 0.517563 1 1 1.000000
0  -40.851105 41.608109 27.747923  0.998421 0.045006 0.033612  0.715842 0.535142 1 1 1.000000
0  -41.621880 56.211552 24.238140  0.955766 0.261229 -0.135165  0.788110 0.517563 1 1 1.000000
carbonfibre
0  -42.007271 51.669483 6.730525  0.738071 0.659078 0.144455  0.765648 0.431623 1 1 1.000000
0  -41.883392 51.614429 10.006321  -0.553243 0.832288 0.034910  0.765648 0.447249 1 1 1.000000
0  -41.264023 51.862175 13.915254  0.987273 0.149608 -0.053947  0.766625 0.466781 1 1 1.000000
carbonfibre
0  -42.007271 51.669483 6.730525  0.738071 0.659078 0.144455  0.765648 0.431623 1 1 1.000000
0  -41.264023 51.862175 13.915254  0.987273 0.149608 -0.053947  0.766625 0.466781 1 1 1.000000
0  -40.630882 47.829369 15.649498  0.993287 0.107464 0.042815  0.747093 0.475570 1 1 1.000000
carbonfibre
0  -40.630882 47.829369 15.649498  0.993287 0.107464 0.042815  0.747093 0.475570 1 1 1.000000
0  -38.882874 51.738304 0.399155  0.834872 0.502576 0.224514  0.765648 0.400372 1 1 1.000000
0  -40.754757 51.738304 1.596609  0.239709 0.940291 0.241646  0.765648 0.406232 1 1 1.000000
carbonfibre
0  -42.007271 51.669483 6.730525  0.738071 0.659078 0.144455  0.765648 0.431623 1 1 1.000000
0  -40.630882 47.829369 15.649498  0.993287 0.107464 0.042815  0.747093 0.475570 1 1 1.000000
0  -40.754757 51.738304 1.596609  0.239709 0.940291 0.241646  0.765648 0.406232 1 1 1.000000
carbonfibre
0  -42.007271 51.669483 6.730525  0.738071 0.659078 0.144455  0.765648 0.431623 1 1 1.000000
0  -40.754757 51.738304 1.596609  0.239709 0.940291 0.241646  0.765648 0.406232 1 1 1.000000
0  -41.594353 51.738304 3.454729  0.073572 0.996737 0.033199  0.765648 0.415021 1 1 1.000000
carbonfibre
0  -40.039036 14.493329 18.333450  0.993810 0.017056 -0.109778  0.582049 0.488266 1 1 1.000000
0  -40.052799 14.080415 18.044409  0.080343 0.578430 -0.811766  0.580096 0.487289 1 1 1.000000
0  -40.107853 13.736318 17.796659  0.999519 0.025576 0.017522  0.579119 0.486312 1 1 1.000000
carbonfibre
0  -40.039036 14.493329 18.333450  0.993810 0.017056 -0.109778  0.582049 0.488266 1 1 1.000000
0  -40.107853 13.736318 17.796659  0.999519 0.025576 0.017522  0.579119 0.486312 1 1 1.000000
0  -40.630882 47.829369 15.649498  0.993287 0.107464 0.042815  0.747093 0.475570 1 1 1.000000
carbonfibre
0  -40.630882 47.829369 15.649498  0.993287 0.107464 0.042815  0.747093 0.475570 1 1 1.000000
0  -40.851105 41.608109 27.747923  0.998421 0.045006 0.033612  0.715842 0.535142 1 1 1.000000
0  -40.575825 34.547256 27.018438  0.999494 0.023980 0.020911  0.681661 0.531236 1 1 1.000000
carbonfibre
0  -40.039036 14.493329 18.333450  0.993810 0.017056 -0.109778  0.582049 0.488266 1 1 1.000000
0  -40.630882 47.829369 15.649498  0.993287 0.107464 0.042815  0.747093 0.475570 1 1 1.000000
0  -40.575825 34.547256 27.018438  0.999494 0.023980 0.020911  0.681661 0.531236 1 1 1.000000
carbonfibre
0  -40.039036 14.493329 18.333450  0.993810 0.017056 -0.109778  0.582049 0.488266 1 1 1.000000
0  -40.575825 34.547256 27.018438  0.999494 0.023980 0.020911  0.681661 0.531236 1 1 1.000000
0  -40.314312 24.651049 25.793457  0.999654 0.026280 0.001104  0.632832 0.525376 1 1 1.000000
carbonfibre
0  -38.690178 -3.138160 5.409195  0.993988 0.027378 0.106012  0.495132 0.424787 1 1 1.000000
0  -37.685417 -3.138160 0.000003  0.942618 0.283998 0.175548  0.495132 0.398419 1 1 1.000000
0  -37.726711 -2.972994 -0.068816  0.974206 0.140385 0.176676  0.496109 0.397443 1 1 1.000000
carbonfibre
0  -38.690178 -3.138160 5.409195  0.993988 0.027378 0.106012  0.495132 0.424787 1 1 1.000000
0  -37.726711 -2.972994 -0.068816  0.974206 0.140385 0.176676  0.496109 0.397443 1 1 1.000000
0  -37.726711 -2.794064 -0.055053  0.984339 0.022739 0.174811  0.497085 0.397443 1 1 1.000000
carbonfibre
0  -38.690178 -3.138160 5.409195  0.993988 0.027378 0.106012  0.495132 0.424787 1 1 1.000000
0  -37.726711 -2.794064 -0.055053  0.984339 0.022739 0.174811  0.497085 0.397443 1 1 1.000000
0  -38.057041 10.364175 0.055058  0.989829 0.012358 0.141723  0.562517 0.398419 1 1 1.000000
carbonfibre
0  -38.525017 31.051237 0.220224  0.993331 0.020305 0.113494  0.664083 0.399396 1 1 1.000000
0  -38.882874 51.738304 0.399155  0.834872 0.502576 0.224514  0.765648 0.400372 1 1 1.000000
0  -40.630882 47.829369 15.649498  0.993287 0.107464 0.042815  0.747093 0.475570 1 1 1.000000
carbonfibre
0  -38.057041 10.364175 0.055058  0.989829 0.012358 0.141723  0.562517 0.398419 1 1 1.000000
0  -38.525017 31.051237 0.220224  0.993331 0.020305 0.113494  0.664083 0.399396 1 1 1.000000
0  -40.630882 47.829369 15.649498  0.993287 0.107464 0.042815  0.747093 0.475570 1 1 1.000000
carbonfibre
0  -38.690178 -3.138160 5.409195  0.993988 0.027378 0.106012  0.495132 0.424787 1 1 1.000000
0  -38.057041 10.364175 0.055058  0.989829 0.012358 0.141723  0.562517 0.398419 1 1 1.000000
0  -40.630882 47.829369 15.649498  0.993287 0.107464 0.042815  0.747093 0.475570 1 1 1.000000
carbonfibre
0  -38.690178 -3.138160 5.409195  0.993988 0.027378 0.106012  0.495132 0.424787 1 1 1.000000
0  -40.630882 47.829369 15.649498  0.993287 0.107464 0.042815  0.747093 0.475570 1 1 1.000000
0  -38.703945 -3.083105 5.767056  0.998981 0.031334 0.032478  0.496109 0.426740 1 1 1.000000
carbonfibre
0  -41.745758 57.271370 23.728878  0.967093 0.207517 -0.147198  0.792993 0.514634 1 1 1.000000
0  -41.745758 56.596939 24.045446  0.968556 -0.104893 -0.225603  0.790063 0.516587 1 1 1.000000
0  -41.745758 56.431774 24.114267  0.978898 0.177558 -0.101150  0.789087 0.516587 1 1 1.000000
carbonfibre
0  -41.745758 56.431774 24.114267  0.978898 0.177558 -0.101150  0.789087 0.516587 1 1 1.000000
0  -41.621880 56.211552 24.238140  0.955766 0.261229 -0.135165  0.788110 0.517563 1 1 1.000000
0  -40.630882 47.829369 15.649498  0.993287 0.107464 0.042815  0.747093 0.475570 1 1 1.000000
carbonfibre
0  -40.630882 47.829369 15.649498  0.993287 0.107464 0.042815  0.747093 0.475570 1 1 1.000000
0  -41.374134 52.275093 16.048653  0.986332 0.164649 -0.006320  0.768578 0.477523 1 1 1.000000
0  -41.511768 53.403728 18.553671  0.982379 0.180186 -0.049634  0.774438 0.489242 1 1 1.000000
carbonfibre
0  -41.745758 56.431774 24.114267  0.978898 0.177558 -0.101150  0.789087 0.516587 1 1 1.000000
0  -40.630882 47.829369 15.649498  0.993287 0.107464 0.042815  0.747093 0.475570 1 1 1.000000
0  -41.511768 53.403728 18.553671  0.982379 0.180186 -0.049634  0.774438 0.489242 1 1 1.000000
carbonfibre
0  -41.745758 56.431774 24.114267  0.978898 0.177558 -0.101150  0.789087 0.516587 1 1 1.000000
0  -41.511768 53.403728 18.553671  0.982379 0.180186 -0.049634  0.774438 0.489242 1 1 1.000000
0  -41.649406 54.986568 21.086220  0.992080 0.122942 -0.025727  0.782250 0.501938 1 1 1.000000
carbonfibre
0  -41.745758 57.271370 23.728878  0.967093 0.207517 -0.147198  0.792993 0.514634 1 1 1.000000
0  -41.745758 56.431774 24.114267  0.978898 0.177558 -0.101150  0.789087 0.516587 1 1 1.000000
0  -41.649406 54.986568 21.086220  0.992080 0.122942 -0.025727  0.782250 0.501938 1 1 1.000000
carbonfibre
0  -41.745758 57.271370 23.728878  0.967093 0.207517 -0.147198  0.792993 0.514634 1 1 1.000000
0  -41.649406 54.986568 21.086220  0.992080 0.122942 -0.025727  0.782250 0.501938 1 1 1.000000
0  -41.800812 57.037384 23.467365  -0.127891 0.747907 -0.651367  0.792016 0.513657 1 1 1.000000
carbonfibre
0  -41.745758 57.271370 23.728878  0.967093 0.207517 -0.147198  0.792993 0.514634 1 1 1.000000
0  -41.800812 57.037384 23.467365  -0.127891 0.747907 -0.651367  0.792016 0.513657 1 1 1.000000
0  -41.814575 57.147499 23.591240  0.013167 0.740695 -0.671712  0.792993 0.514634 1 1 1.000000
carbonfibre
0  -40.630882 47.829369 15.649498  0.993287 0.107464 0.042815  0.747093 0.475570 1 1 1.000000
0  -40.107853 13.736318 17.796659  0.999519 0.025576 0.017522  0.579119 0.486312 1 1 1.000000
0  -39.997742 12.318642 16.778135  0.996968 0.020164 0.075157  0.571307 0.480453 1 1 1.000000
carbonfibre
0  -39.997742 12.318642 16.778135  0.996968 0.020164 0.075157  0.571307 0.480453 1 1 1.000000
0  -39.860104 10.460522 15.429276  0.987813 0.019319 0.154442  0.562517 0.474593 1 1 1.000000
0  -40.630882 47.829369 15.649498  0.993287 0.107464 0.042815  0.747093 0.475570 1 1 1.000000
carbonfibre
0  -40.630882 47.829369 15.649498  0.993287 0.107464 0.042815  0.747093 0.475570 1 1 1.000000
0  -39.860104 10.460522 15.429276  0.987813 0.019319 0.154442  0.562517 0.474593 1 1 1.000000
0  -39.791283 9.937495 15.057653  0.994464 0.020478 0.103062  0.559587 0.472640 1 1 1.000000
carbonfibre
0  -39.791283 9.937495 15.057653  0.994464 0.020478 0.103062  0.559587 0.472640 1 1 1.000000
0  -38.703945 -3.083105 5.767056  0.998981 0.031334 0.032478  0.496109 0.426740 1 1 1.000000
0  -40.630882 47.829369 15.649498  0.993287 0.107464 0.042815  0.747093 0.475570 1 1 1.000000
carbonfibre
0  -41.264023 51.862175 13.915254  0.987273 0.149608 -0.053947  0.766625 0.466781 1 1 1.000000
0  -41.374134 52.275093 16.048653  0.986332 0.164649 -0.006320  0.768578 0.477523 1 1 1.000000
0  -40.630882 47.829369 15.649498  0.993287 0.107464 0.042815  0.747093 0.475570 1 1 1.000000
skin_0dam
0  -40.768517 12.648975 16.984592  -0.018905 -0.586125 0.810000  0.432630 0.578112 1 1 1.000000
0  -39.997742 12.318642 16.778135  -0.018945 -0.586117 0.810005  0.431654 0.577136 1 1 1.000000
0  -40.465717 13.185763 17.383745  -0.018904 -0.586119 0.810004  0.437513 0.582018 1 1 1.000000
skin_0dam
0  -40.740990 12.139712 16.626734  -0.018893 -0.586120 0.810004  0.428724 0.574206 1 1 1.000000
0  -40.451950 11.589157 16.227581  -0.018919 -0.586110 0.810010  0.424818 0.570299 1 1 1.000000
0  -39.997742 12.318642 16.778135  -0.018945 -0.586117 0.810005  0.431654 0.577136 1 1 1.000000
skin_0dam
0  -40.768517 12.648975 16.984592  -0.018905 -0.586125 0.810000  0.432630 0.578112 1 1 1.000000
0  -40.740990 12.139712 16.626734  -0.018893 -0.586120 0.810004  0.428724 0.574206 1 1 1.000000
0  -39.997742 12.318642 16.778135  -0.018945 -0.586117 0.810005  0.431654 0.577136 1 1 1.000000
skin_0dam
0  -39.997742 12.318642 16.778135  -0.018945 -0.586117 0.810005  0.431654 0.577136 1 1 1.000000
0  -40.107853 13.736318 17.796659  -0.018929 -0.586120 0.810003  0.441420 0.585925 1 1 1.000000
0  -40.465717 13.185763 17.383745  -0.018904 -0.586119 0.810004  0.437513 0.582018 1 1 1.000000
skin_0dam
0  -40.451950 11.589157 16.227581  -0.018919 -0.586110 0.810010  0.424818 0.570299 1 1 1.000000
0  -39.860104 10.460522 15.429276  -0.018943 -0.586124 0.810000  0.418958 0.565416 1 1 1.000000
0  -39.997742 12.318642 16.778135  -0.018945 -0.586117 0.810005  0.431654 0.577136 1 1 1.000000
skin_0dam
0  -39.543537 -3.138160 1.183694  0.005041 -0.999984 0.002566  0.261727 0.465804 1 1 1.000000
0  -37.685417 -3.138160 0.000003  0.003326 -0.999994 0.001088  0.248054 0.465804 1 1 1.000000
0  -40.383133 -3.138160 3.014286  0.002179 -0.999997 0.000999  0.281259 0.465804 1 1 1.000000
skin_0dam
0  -40.575825 -3.138160 4.610892  -0.000120 -0.999996 0.002826  0.298837 0.465804 1 1 1.000000
0  -38.690178 -3.138160 5.409195  0.001436 -0.999998 0.001197  0.307627 0.465804 1 1 1.000000
0  -40.575825 -3.138160 4.803586  -0.000699 -0.999991 0.004257  0.300790 0.465804 1 1 1.000000
skin_0dam
0  -40.383133 -3.138160 3.014286  0.002179 -0.999997 0.000999  0.281259 0.465804 1 1 1.000000
0  -37.685417 -3.138160 0.000003  0.003326 -0.999994 0.001088  0.248054 0.465804 1 1 1.000000
0  -38.690178 -3.138160 5.409195  0.001436 -0.999998 0.001197  0.307627 0.465804 1 1 1.000000
skin_0dam
0  -38.690178 -3.138160 5.409195  0.001436 -0.999998 0.001197  0.307627 0.465804 1 1 1.000000
0  -40.575825 -3.138160 4.610892  -0.000120 -0.999996 0.002826  0.298837 0.465804 1 1 1.000000
0  -40.383133 -3.138160 3.014286  0.002179 -0.999997 0.000999  0.281259 0.465804 1 1 1.000000
skin_0dam
0  -40.796051 10.364175 3.110633  -0.966946 -0.019584 -0.254229  0.940458 0.505844 1 1 1.000000
0  -41.250259 31.051237 3.275799  -0.967942 -0.018774 -0.250470  0.939482 0.427717 1 1 1.000000
0  -40.396900 31.051237 1.417680  -0.754131 -0.009273 -0.656658  0.950224 0.427717 1 1 1.000000
skin_0dam
0  -40.396900 31.051237 1.417680  -0.754131 -0.009273 -0.656658  0.950224 0.427717 1 1 1.000000
0  -39.942688 10.364175 1.238749  -0.753057 -0.012296 -0.657841  0.951201 0.505844 1 1 1.000000
0  -40.796051 10.364175 3.110633  -0.966946 -0.019584 -0.254229  0.940458 0.505844 1 1 1.000000
skin_0dam
0  -39.942688 10.364175 1.238749  -0.753057 -0.012296 -0.657841  0.951201 0.505844 1 1 1.000000
0  -40.396900 31.051237 1.417680  -0.754131 -0.009273 -0.656658  0.950224 0.427717 1 1 1.000000
0  -38.525017 31.051237 0.220224  -0.538630 -0.003332 -0.842536  0.957060 0.427717 1 1 1.000000
skin_0dam
0  -38.525017 31.051237 0.220224  -0.538630 -0.003332 -0.842536  0.957060 0.427717 1 1 1.000000
0  -38.057041 10.364175 0.055058  -0.537899 -0.005557 -0.842991  0.958037 0.505844 1 1 1.000000
0  -39.942688 10.364175 1.238749  -0.753057 -0.012296 -0.657841  0.951201 0.505844 1 1 1.000000
skin_0dam
0  -40.988739 10.088899 5.533070  -0.999609 -0.024919 -0.012711  0.926786 0.506821 1 1 1.000000
0  -40.892395 9.689747 7.088385  -0.997943 -0.028942 0.057202  0.917997 0.507797 1 1 1.000000
0  -41.181435 28.890314 10.859680  -0.999906 -0.011683 0.007182  0.896512 0.435530 1 1 1.000000
skin_0dam
0  -41.181435 28.890314 10.859680  -0.999906 -0.011683 0.007182  0.896512 0.435530 1 1 1.000000
0  -41.195198 29.385815 9.263073  -0.998615 -0.020222 0.048577  0.905301 0.433576 1 1 1.000000
0  -40.988739 10.088899 5.533070  -0.999609 -0.024919 -0.012711  0.926786 0.506821 1 1 1.000000
skin_0dam
0  -41.250259 31.051237 3.275799  -0.967942 -0.018774 -0.250470  0.939482 0.427717 1 1 1.000000
0  -41.594353 51.738304 3.454729  -0.962416 -0.012902 -0.271274  0.938505 0.349590 1 1 1.000000
0  -40.754757 51.738304 1.596609  -0.758339 -0.007180 -0.651821  0.949248 0.349590 1 1 1.000000
skin_0dam
0  -40.754757 51.738304 1.596609  -0.758339 -0.007180 -0.651821  0.949248 0.349590 1 1 1.000000
0  -40.396900 31.051237 1.417680  -0.754131 -0.009273 -0.656658  0.950224 0.427717 1 1 1.000000
0  -41.250259 31.051237 3.275799  -0.967942 -0.018774 -0.250470  0.939482 0.427717 1 1 1.000000
skin_0dam
0  -39.942688 10.364175 1.238749  -0.753057 -0.012296 -0.657841  0.951201 0.505844 1 1 1.000000
0  -39.791283 4.583359 1.197458  -0.753488 -0.012997 -0.657333  0.951201 0.527329 1 1 1.000000
0  -40.658405 4.610887 3.055578  -0.965594 -0.021505 -0.259164  0.940458 0.527329 1 1 1.000000
skin_0dam
0  -40.658405 4.610887 3.055578  -0.965594 -0.021505 -0.259164  0.940458 0.527329 1 1 1.000000
0  -40.796051 10.364175 3.110633  -0.966946 -0.019584 -0.254229  0.940458 0.505844 1 1 1.000000
0  -39.942688 10.364175 1.238749  -0.753057 -0.012296 -0.657841  0.951201 0.505844 1 1 1.000000
skin_0dam
0  -40.396900 31.051237 1.417680  -0.754131 -0.009273 -0.656658  0.950224 0.427717 1 1 1.000000
0  -40.754757 51.738304 1.596609  -0.758339 -0.007180 -0.651821  0.949248 0.349590 1 1 1.000000
0  -38.882874 51.738304 0.399155  -0.537913 -0.002169 -0.842997  0.956084 0.349590 1 1 1.000000
skin_0dam
0  -38.882874 51.738304 0.399155  -0.537913 -0.002169 -0.842997  0.956084 0.349590 1 1 1.000000
0  -38.525017 31.051237 0.220224  -0.538630 -0.003332 -0.842536  0.957060 0.427717 1 1 1.000000
0  -40.396900 31.051237 1.417680  -0.754131 -0.009273 -0.656658  0.950224 0.427717 1 1 1.000000
skin_0dam
0  -40.892395 9.689747 7.088385  -0.997943 -0.028942 0.057202  0.917997 0.507797 1 1 1.000000
0  -40.988739 10.088899 5.533070  -0.999609 -0.024919 -0.012711  0.926786 0.506821 1 1 1.000000
0  -40.823578 4.184207 4.954988  -0.999222 -0.021399 -0.033116  0.929716 0.528306 1 1 1.000000
skin_0dam
0  -40.892395 9.689747 7.088385  -0.997943 -0.028942 0.057202  0.917997 0.507797 1 1 1.000000
0  -40.823578 4.184207 4.954988  -0.999222 -0.021399 -0.033116  0.929716 0.528306 1 1 1.000000
0  -40.754753 1.445201 4.913697  -0.999421 -0.023839 -0.024290  0.930692 0.539048 1 1 1.000000
skin_0dam
0  -40.892395 9.689747 7.088385  -0.997943 -0.028942 0.057202  0.917997 0.507797 1 1 1.000000
0  -40.754753 1.445201 4.913697  -0.999421 -0.023839 -0.024290  0.930692 0.539048 1 1 1.000000
0  -40.644642 -2.807828 4.679711  -0.998499 -0.021916 -0.050198  0.931669 0.554674 1 1 1.000000
skin_0dam
0  -38.758999 -2.794064 5.505542  -0.823868 -0.136770 0.550033  0.926786 0.554674 1 1 1.000000
0  -39.378372 9.648456 7.625175  -0.797042 -0.144136 0.586472  0.915067 0.507797 1 1 1.000000
0  -40.878632 9.648456 7.267315  -0.764911 -0.131280 0.630617  0.917020 0.507797 1 1 1.000000
skin_0dam
0  -40.878632 9.648456 7.267315  -0.764911 -0.131280 0.630617  0.917020 0.507797 1 1 1.000000
0  -40.644642 -2.807828 4.872405  -0.821051 -0.088276 0.563988  0.930692 0.554674 1 1 1.000000
0  -38.758999 -2.794064 5.505542  -0.823868 -0.136770 0.550033  0.926786 0.554674 1 1 1.000000
skin_0dam
0  -39.378372 9.648456 7.625175  -0.797042 -0.144136 0.586472  0.915067 0.507797 1 1 1.000000
0  -40.328075 28.821497 11.286358  -0.804666 -0.153581 0.573520  0.894559 0.435530 1 1 1.000000
0  -41.181435 28.821497 11.038610  -0.799881 -0.134052 0.584996  0.895535 0.435530 1 1 1.000000
skin_0dam
0  -41.181435 28.821497 11.038610  -0.799881 -0.134052 0.584996  0.895535 0.435530 1 1 1.000000
0  -40.878632 9.648456 7.267315  -0.764911 -0.131280 0.630617  0.917020 0.507797 1 1 1.000000
0  -39.378372 9.648456 7.625175  -0.797042 -0.144136 0.586472  0.915067 0.507797 1 1 1.000000
skin_0dam
0  -41.140148 47.898190 15.401750  -0.935379 -0.131135 0.328434  0.871120 0.364238 1 1 1.000000
0  -41.332840 48.008297 15.181528  -0.958344 -0.101339 0.267033  0.872097 0.363262 1 1 1.000000
0  -41.181435 28.821497 11.038610  -0.799881 -0.134052 0.584996  0.895535 0.435530 1 1 1.000000
skin_0dam
0  -41.181435 28.821497 11.038610  -0.799881 -0.134052 0.584996  0.895535 0.435530 1 1 1.000000
0  -40.328075 28.821497 11.286358  -0.804666 -0.153581 0.573520  0.894559 0.435530 1 1 1.000000
0  -41.140148 47.898190 15.401750  -0.935379 -0.131135 0.328434  0.871120 0.364238 1 1 1.000000
skin_0dam
0  -41.332840 48.008297 15.181528  -0.958344 -0.101339 0.267033  0.872097 0.363262 1 1 1.000000
0  -41.140148 47.898190 15.401750  -0.935379 -0.131135 0.328434  0.871120 0.364238 1 1 1.000000
0  -41.208965 49.467270 16.034887  -0.966472 -0.154497 0.205091  0.867214 0.358379 1 1 1.000000
skin_0dam
0  -41.208965 49.467270 16.034887  -0.966472 -0.154497 0.205091  0.867214 0.358379 1 1 1.000000
0  -41.332840 49.701252 15.897248  -0.981802 -0.132334 0.136207  0.868191 0.357402 1 1 1.000000
0  -41.332840 48.008297 15.181528  -0.958344 -0.101339 0.267033  0.872097 0.363262 1 1 1.000000
skin_0dam
0  -41.470474 30.225410 6.455248  -0.999616 -0.026765 0.007138  0.921903 0.430647 1 1 1.000000
0  -41.883392 51.614429 10.006321  -0.994355 -0.031124 0.101440  0.901395 0.349590 1 1 1.000000
0  -42.007271 51.669483 6.730525  -0.998900 -0.020920 -0.041956  0.919950 0.349590 1 1 1.000000
skin_0dam
0  -42.007271 51.669483 6.730525  -0.998900 -0.020920 -0.041956  0.919950 0.349590 1 1 1.000000
0  -41.250259 31.051237 3.275799  -0.967942 -0.018774 -0.250470  0.939482 0.427717 1 1 1.000000
0  -41.470474 30.225410 6.455248  -0.999616 -0.026765 0.007138  0.921903 0.430647 1 1 1.000000
skin_0dam
0  -40.988739 10.088899 5.533070  -0.999609 -0.024919 -0.012711  0.926786 0.506821 1 1 1.000000
0  -41.195198 29.385815 9.263073  -0.998615 -0.020222 0.048577  0.905301 0.433576 1 1 1.000000
0  -41.470474 30.225410 6.455248  -0.999616 -0.026765 0.007138  0.921903 0.430647 1 1 1.000000
skin_0dam
0  -41.470474 30.225410 6.455248  -0.999616 -0.026765 0.007138  0.921903 0.430647 1 1 1.000000
0  -40.796051 10.364175 3.110633  -0.966946 -0.019584 -0.254229  0.940458 0.505844 1 1 1.000000
0  -40.988739 10.088899 5.533070  -0.999609 -0.024919 -0.012711  0.926786 0.506821 1 1 1.000000
skin_0dam
0  -41.195198 29.385815 9.263073  -0.998615 -0.020222 0.048577  0.905301 0.433576 1 1 1.000000
0  -41.181435 28.890314 10.859680  -0.999906 -0.011683 0.007182  0.896512 0.435530 1 1 1.000000
0  -41.319077 48.366158 15.071417  -0.999209 0.007473 -0.039061  0.873074 0.362285 1 1 1.000000
skin_0dam
0  -41.319077 48.366158 15.071417  -0.999209 0.007473 -0.039061  0.873074 0.362285 1 1 1.000000
0  -41.264023 51.862175 13.915254  -0.999139 -0.015954 0.038299  0.879910 0.348613 1 1 1.000000
0  -41.195198 29.385815 9.263073  -0.998615 -0.020222 0.048577  0.905301 0.433576 1 1 1.000000
skin_0dam
0  -39.378372 9.648456 7.625175  -0.797042 -0.144136 0.586472  0.915067 0.507797 1 1 1.000000
0  -38.758999 -2.794064 5.505542  -0.823868 -0.136770 0.550033  0.926786 0.554674 1 1 1.000000
0  -38.786526 -2.560079 5.849639  -0.997414 -0.037908 -0.061066  0.924833 0.553697 1 1 1.000000
skin_0dam
0  -38.786526 -2.560079 5.849639  -0.997414 -0.037908 -0.061066  0.924833 0.553697 1 1 1.000000
0  -39.392136 9.662219 7.941744  -0.997373 -0.036807 -0.062381  0.913114 0.507797 1 1 1.000000
0  -39.378372 9.648456 7.625175  -0.797042 -0.144136 0.586472  0.915067 0.507797 1 1 1.000000
skin_0dam
0  -40.328075 28.738911 11.561635  -0.998461 -0.035895 -0.042268  0.892605 0.436506 1 1 1.000000
0  -40.328075 28.821497 11.286358  -0.804666 -0.153581 0.573520  0.894559 0.435530 1 1 1.000000
0  -39.378372 9.648456 7.625175  -0.797042 -0.144136 0.586472  0.915067 0.507797 1 1 1.000000
skin_0dam
0  -39.378372 9.648456 7.625175  -0.797042 -0.144136 0.586472  0.915067 0.507797 1 1 1.000000
0  -39.392136 9.662219 7.941744  -0.997373 -0.036807 -0.062381  0.913114 0.507797 1 1 1.000000
0  -40.328075 28.738911 11.561635  -0.998461 -0.035895 -0.042268  0.892605 0.436506 1 1 1.000000
skin_0dam
0  -40.328075 28.738911 11.561635  -0.998461 -0.035895 -0.042268  0.892605 0.436506 1 1 1.000000
0  -41.140148 47.829369 15.525623  -0.999017 -0.035608 -0.026397  0.870144 0.364238 1 1 1.000000
0  -41.140148 47.898190 15.401750  -0.935379 -0.131135 0.328434  0.871120 0.364238 1 1 1.000000
skin_0dam
0  -41.140148 47.898190 15.401750  -0.935379 -0.131135 0.328434  0.871120 0.364238 1 1 1.000000
0  -40.328075 28.821497 11.286358  -0.804666 -0.153581 0.573520  0.894559 0.435530 1 1 1.000000
0  -40.328075 28.738911 11.561635  -0.998461 -0.035895 -0.042268  0.892605 0.436506 1 1 1.000000
skin_0dam
0  -41.140148 47.898190 15.401750  -0.935379 -0.131135 0.328434  0.871120 0.364238 1 1 1.000000
0  -41.140148 47.829369 15.525623  -0.999017 -0.035608 -0.026397  0.870144 0.364238 1 1 1.000000
0  -41.208965 49.357155 16.158764  -0.999117 -0.031047 -0.028311  0.867214 0.358379 1 1 1.000000
skin_0dam
0  -41.208965 49.357155 16.158764  -0.999117 -0.031047 -0.028311  0.867214 0.358379 1 1 1.000000
0  -41.208965 49.467270 16.034887  -0.966472 -0.154497 0.205091  0.867214 0.358379 1 1 1.000000
0  -41.140148 47.898190 15.401750  -0.935379 -0.131135 0.328434  0.871120 0.364238 1 1 1.000000
skin_0dam
0  -41.332840 49.783833 15.704554  -0.999660 -0.007175 -0.025057  0.869167 0.356426 1 1 1.000000
0  -41.264023 51.862175 13.915254  -0.999139 -0.015954 0.038299  0.879910 0.348613 1 1 1.000000
0  -41.319077 48.366158 15.071417  -0.999209 0.007473 -0.039061  0.873074 0.362285 1 1 1.000000
skin_0dam
0  -40.451950 -2.972994 3.000522  -0.942777 -0.204291 -0.263511  0.941435 0.555650 1 1 1.000000
0  -40.451950 -2.807828 3.000522  -0.963559 -0.021367 -0.266640  0.941435 0.554674 1 1 1.000000
0  -39.598595 -2.807828 1.128639  -0.753509 -0.013034 -0.657309  0.952178 0.554674 1 1 1.000000
skin_0dam
0  -39.598595 -2.807828 1.128639  -0.753509 -0.013034 -0.657309  0.952178 0.554674 1 1 1.000000
0  -39.598595 -2.972994 1.128639  -0.738356 -0.195407 -0.645482  0.952178 0.555650 1 1 1.000000
0  -40.451950 -2.972994 3.000522  -0.942777 -0.204291 -0.263511  0.941435 0.555650 1 1 1.000000
skin_0dam
0  -39.598595 -2.972994 1.128639  -0.738356 -0.195407 -0.645482  0.952178 0.555650 1 1 1.000000
0  -39.598595 -2.807828 1.128639  -0.753509 -0.013034 -0.657309  0.952178 0.554674 1 1 1.000000
0  -37.726711 -2.794064 -0.055053  -0.537891 -0.006158 -0.842992  0.958037 0.554674 1 1 1.000000
skin_0dam
0  -37.726711 -2.794064 -0.055053  -0.537891 -0.006158 -0.842992  0.958037 0.554674 1 1 1.000000
0  -37.726711 -2.972994 -0.068816  -0.526868 -0.197421 -0.826701  0.958037 0.555650 1 1 1.000000
0  -39.598595 -2.972994 1.128639  -0.738356 -0.195407 -0.645482  0.952178 0.555650 1 1 1.000000
skin_0dam
0  -38.758999 -2.972994 5.478015  -0.734867 -0.362840 0.572990  0.926786 0.555650 1 1 1.000000
0  -38.758999 -2.794064 5.505542  -0.823868 -0.136770 0.550033  0.926786 0.554674 1 1 1.000000
0  -40.644642 -2.807828 4.872405  -0.821051 -0.088276 0.563988  0.930692 0.554674 1 1 1.000000
skin_0dam
0  -40.644642 -2.807828 4.872405  -0.821051 -0.088276 0.563988  0.930692 0.554674 1 1 1.000000
0  -40.630878 -2.972994 4.858641  -0.788807 -0.225412 0.571816  0.930692 0.555650 1 1 1.000000
0  -38.758999 -2.972994 5.478015  -0.734867 -0.362840 0.572990  0.926786 0.555650 1 1 1.000000
skin_0dam
0  -40.630878 -2.972994 4.665947  -0.982551 -0.179298 -0.049450  0.931669 0.555650 1 1 1.000000
0  -40.644642 -2.807828 4.679711  -0.998499 -0.021916 -0.050198  0.931669 0.554674 1 1 1.000000
0  -40.451950 -2.807828 3.000522  -0.963559 -0.021367 -0.266640  0.941435 0.554674 1 1 1.000000
skin_0dam
0  -40.451950 -2.807828 3.000522  -0.963559 -0.021367 -0.266640  0.941435 0.554674 1 1 1.000000
0  -40.451950 -2.972994 3.000522  -0.942777 -0.204291 -0.263511  0.941435 0.555650 1 1 1.000000
0  -40.630878 -2.972994 4.665947  -0.982551 -0.179298 -0.049450  0.931669 0.555650 1 1 1.000000
skin_0dam
0  -38.772762 -2.821592 5.808347  -0.967252 -0.212504 0.138800  0.924833 0.554674 1 1 1.000000
0  -38.786526 -2.560079 5.849639  -0.997414 -0.037908 -0.061066  0.924833 0.553697 1 1 1.000000
0  -38.758999 -2.794064 5.505542  -0.823868 -0.136770 0.550033  0.926786 0.554674 1 1 1.000000
skin_0dam
0  -38.758999 -2.794064 5.505542  -0.823868 -0.136770 0.550033  0.926786 0.554674 1 1 1.000000
0  -38.758999 -2.972994 5.478015  -0.734867 -0.362840 0.572990  0.926786 0.555650 1 1 1.000000
0  -38.772762 -2.821592 5.808347  -0.967252 -0.212504 0.138800  0.924833 0.554674 1 1 1.000000
skin_0dam
0  -39.543537 -3.138160 1.183694  -0.693015 -0.382972 -0.610789  0.983428 0.956053 1 1 1.000000
0  -40.383133 -3.138160 3.014286  -0.886577 -0.389978 -0.248793  0.983428 0.904294 1 1 1.000000
0  -40.451950 -2.972994 3.000522  -0.942777 -0.204291 -0.263511  0.019532 0.905271 1 1 1.000000
skin_0dam
0  -40.451950 -2.972994 3.000522  -0.942777 -0.204291 -0.263511  0.019532 0.905271 1 1 1.000000
0  -39.598595 -2.972994 1.128639  -0.738356 -0.195407 -0.645482  0.019532 0.957030 1 1 1.000000
0  -39.543537 -3.138160 1.183694  -0.693015 -0.382972 -0.610789  0.983428 0.956053 1 1 1.000000
skin_0dam
0  -37.685417 -3.138160 0.000003  -0.497468 -0.375991 -0.781765  0.983428 0.970702 1 1 1.000000
0  -39.543537 -3.138160 1.183694  -0.693015 -0.382972 -0.610789  0.983428 0.956053 1 1 1.000000
0  -39.598595 -2.972994 1.128639  -0.738356 -0.195407 -0.645482  0.019532 0.957030 1 1 1.000000
skin_0dam
0  -39.598595 -2.972994 1.128639  -0.738356 -0.195407 -0.645482  0.019532 0.957030 1 1 1.000000
0  -37.726711 -2.972994 -0.068816  -0.526868 -0.197421 -0.826701  0.019532 0.972655 1 1 1.000000
0  -37.685417 -3.138160 0.000003  -0.497468 -0.375991 -0.781765  0.983428 0.970702 1 1 1.000000
skin_0dam
0  -38.758999 -2.972994 5.478015  -0.734867 -0.362840 0.572990  0.019532 0.836909 1 1 1.000000
0  -40.630878 -2.972994 4.858641  -0.788807 -0.225412 0.571816  0.019532 0.866207 1 1 1.000000
0  -40.575825 -3.138160 4.803586  -0.739824 -0.426277 0.520527  0.983428 0.870113 1 1 1.000000
skin_0dam
0  -40.575825 -3.138160 4.803586  -0.739824 -0.426277 0.520527  0.983428 0.870113 1 1 1.000000
0  -38.690178 -3.138160 5.409195  -0.651342 -0.471876 0.594211  0.983428 0.837886 1 1 1.000000
0  -38.758999 -2.972994 5.478015  -0.734867 -0.362840 0.572990  0.019532 0.836909 1 1 1.000000
skin_0dam
0  -40.575825 -3.138160 4.610892  -0.940555 -0.333430 -0.064660  0.983428 0.874996 1 1 1.000000
0  -40.630878 -2.972994 4.665947  -0.982551 -0.179298 -0.049450  0.019532 0.874020 1 1 1.000000
0  -40.451950 -2.972994 3.000522  -0.942777 -0.204291 -0.263511  0.019532 0.905271 1 1 1.000000
skin_0dam
0  -40.451950 -2.972994 3.000522  -0.942777 -0.204291 -0.263511  0.019532 0.905271 1 1 1.000000
0  -40.383133 -3.138160 3.014286  -0.886577 -0.389978 -0.248793  0.983428 0.904294 1 1 1.000000
0  -40.575825 -3.138160 4.610892  -0.940555 -0.333430 -0.064660  0.983428 0.874996 1 1 1.000000
skin_0dam
0  -38.690178 -3.138160 5.409195  -0.651342 -0.471876 0.594211  0.983428 0.837886 1 1 1.000000
0  -38.703945 -3.083105 5.767056  -0.946450 -0.308079 0.096537  0.983428 0.828120 1 1 1.000000
0  -38.772762 -2.821592 5.808347  -0.967252 -0.212504 0.138800  0.019532 0.828120 1 1 1.000000
skin_0dam
0  -38.772762 -2.821592 5.808347  -0.967252 -0.212504 0.138800  0.019532 0.828120 1 1 1.000000
0  -38.758999 -2.972994 5.478015  -0.734867 -0.362840 0.572990  0.019532 0.836909 1 1 1.000000
0  -38.690178 -3.138160 5.409195  -0.651342 -0.471876 0.594211  0.983428 0.837886 1 1 1.000000
skin_0dam
0  -40.878632 9.648456 7.267315  -0.764911 -0.131280 0.630617  0.917020 0.507797 1 1 1.000000
0  -41.181435 28.821497 11.038610  -0.799881 -0.134052 0.584996  0.895535 0.435530 1 1 1.000000
0  -41.181435 28.890314 10.859680  -0.999906 -0.011683 0.007182  0.896512 0.435530 1 1 1.000000
skin_0dam
0  -41.181435 28.890314 10.859680  -0.999906 -0.011683 0.007182  0.896512 0.435530 1 1 1.000000
0  -40.892395 9.689747 7.088385  -0.997943 -0.028942 0.057202  0.917997 0.507797 1 1 1.000000
0  -40.878632 9.648456 7.267315  -0.764911 -0.131280 0.630617  0.917020 0.507797 1 1 1.000000
skin_0dam
0  -40.892395 9.689747 7.088385  -0.997943 -0.028942 0.057202  0.917997 0.507797 1 1 1.000000
0  -40.644642 -2.807828 4.679711  -0.998499 -0.021916 -0.050198  0.931669 0.554674 1 1 1.000000
0  -40.644642 -2.807828 4.872405  -0.821051 -0.088276 0.563988  0.930692 0.554674 1 1 1.000000
skin_0dam
0  -40.644642 -2.807828 4.872405  -0.821051 -0.088276 0.563988  0.930692 0.554674 1 1 1.000000
0  -40.878632 9.648456 7.267315  -0.764911 -0.131280 0.630617  0.917020 0.507797 1 1 1.000000
0  -40.892395 9.689747 7.088385  -0.997943 -0.028942 0.057202  0.917997 0.507797 1 1 1.000000
skin_0dam
0  -41.181435 28.821497 11.038610  -0.799881 -0.134052 0.584996  0.895535 0.435530 1 1 1.000000
0  -41.332840 48.008297 15.181528  -0.958344 -0.101339 0.267033  0.872097 0.363262 1 1 1.000000
0  -41.319077 48.366158 15.071417  -0.999209 0.007473 -0.039061  0.873074 0.362285 1 1 1.000000
skin_0dam
0  -41.319077 48.366158 15.071417  -0.999209 0.007473 -0.039061  0.873074 0.362285 1 1 1.000000
0  -41.181435 28.890314 10.859680  -0.999906 -0.011683 0.007182  0.896512 0.435530 1 1 1.000000
0  -41.181435 28.821497 11.038610  -0.799881 -0.134052 0.584996  0.895535 0.435530 1 1 1.000000
skin_0dam
0  -41.332840 48.008297 15.181528  -0.958344 -0.101339 0.267033  0.872097 0.363262 1 1 1.000000
0  -41.332840 49.701252 15.897248  -0.981802 -0.132334 0.136207  0.868191 0.357402 1 1 1.000000
0  -41.332840 49.783833 15.704554  -0.999660 -0.007175 -0.025057  0.869167 0.356426 1 1 1.000000
skin_0dam
0  -41.332840 49.783833 15.704554  -0.999660 -0.007175 -0.025057  0.869167 0.356426 1 1 1.000000
0  -41.319077 48.366158 15.071417  -0.999209 0.007473 -0.039061  0.873074 0.362285 1 1 1.000000
0  -41.332840 48.008297 15.181528  -0.958344 -0.101339 0.267033  0.872097 0.363262 1 1 1.000000
skin_0dam
0  -40.630878 -2.972994 4.858641  -0.788807 -0.225412 0.571816  0.930692 0.555650 1 1 1.000000
0  -40.644642 -2.807828 4.872405  -0.821051 -0.088276 0.563988  0.930692 0.554674 1 1 1.000000
0  -40.644642 -2.807828 4.679711  -0.998499 -0.021916 -0.050198  0.931669 0.554674 1 1 1.000000
skin_0dam
0  -40.644642 -2.807828 4.679711  -0.998499 -0.021916 -0.050198  0.931669 0.554674 1 1 1.000000
0  -40.630878 -2.972994 4.665947  -0.982551 -0.179298 -0.049450  0.931669 0.555650 1 1 1.000000
0  -40.630878 -2.972994 4.858641  -0.788807 -0.225412 0.571816  0.930692 0.555650 1 1 1.000000
skin_0dam
0  -40.575825 -3.138160 4.803586  -0.739824 -0.426277 0.520527  0.983428 0.870113 1 1 1.000000
0  -40.630878 -2.972994 4.858641  -0.788807 -0.225412 0.571816  0.019532 0.866207 1 1 1.000000
0  -40.630878 -2.972994 4.665947  -0.982551 -0.179298 -0.049450  0.019532 0.874020 1 1 1.000000
skin_0dam
0  -40.630878 -2.972994 4.665947  -0.982551 -0.179298 -0.049450  0.019532 0.874020 1 1 1.000000
0  -40.575825 -3.138160 4.610892  -0.940555 -0.333430 -0.064660  0.983428 0.874996 1 1 1.000000
0  -40.575825 -3.138160 4.803586  -0.739824 -0.426277 0.520527  0.983428 0.870113 1 1 1.000000
skin_0dam
0  -40.740990 1.541548 4.679711  -0.990197 0.039410 -0.134000  0.931669 0.539048 1 1 1.000000
0  -40.080326 4.390665 4.376907  -0.975028 0.221395 -0.017470  0.933622 0.528306 1 1 1.000000
0  -39.983978 4.376901 3.206980  -0.946234 0.215684 -0.241085  0.939482 0.528306 1 1 1.000000
skin_0dam
0  -39.983978 4.376901 3.206980  -0.946234 0.215684 -0.241085  0.939482 0.528306 1 1 1.000000
0  -40.575825 1.541548 3.028050  -0.961283 0.094869 -0.258720  0.941435 0.539048 1 1 1.000000
0  -40.740990 1.541548 4.679711  -0.990197 0.039410 -0.134000  0.931669 0.539048 1 1 1.000000
skin_0dam
0  -40.575825 1.541548 3.028050  -0.961283 0.094869 -0.258720  0.941435 0.539048 1 1 1.000000
0  -39.983978 4.376901 3.206980  -0.946234 0.215684 -0.241085  0.939482 0.528306 1 1 1.000000
0  -39.254498 4.335609 1.527790  -0.802933 0.209721 -0.557956  0.949248 0.528306 1 1 1.000000
skin_0dam
0  -39.254498 4.335609 1.527790  -0.802933 0.209721 -0.557956  0.949248 0.528306 1 1 1.000000
0  -39.722466 1.541548 1.169930  -0.756225 0.085367 -0.648718  0.951201 0.539048 1 1 1.000000
0  -40.575825 1.541548 3.028050  -0.961283 0.094869 -0.258720  0.941435 0.539048 1 1 1.000000
skin_0dam
0  -38.057041 10.364175 0.055058  -0.537899 -0.005557 -0.842991  0.958037 0.505844 1 1 1.000000
0  -39.791283 4.583359 1.197458  -0.753488 -0.012997 -0.657333  0.951201 0.527329 1 1 1.000000
0  -39.942688 10.364175 1.238749  -0.753057 -0.012296 -0.657841  0.951201 0.505844 1 1 1.000000
skin_0dam
0  -38.648888 4.170444 0.922181  -0.790930 -0.611256 0.028202  0.953154 0.528306 1 1 1.000000
0  -38.827816 1.541548 0.605612  -0.558975 0.032865 -0.828533  0.955107 0.539048 1 1 1.000000
0  -38.814053 4.225499 1.087347  -0.656922 0.169590 -0.734637  0.952178 0.528306 1 1 1.000000
skin_0dam
0  -40.644642 -2.807828 4.679711  -0.998499 -0.021916 -0.050198  0.931669 0.554674 1 1 1.000000
0  -40.740990 1.541548 4.679711  -0.990197 0.039410 -0.134000  0.931669 0.539048 1 1 1.000000
0  -40.575825 1.541548 3.028050  -0.961283 0.094869 -0.258720  0.941435 0.539048 1 1 1.000000
skin_0dam
0  -40.575825 1.541548 3.028050  -0.961283 0.094869 -0.258720  0.941435 0.539048 1 1 1.000000
0  -40.451950 -2.807828 3.000522  -0.963559 -0.021367 -0.266640  0.941435 0.554674 1 1 1.000000
0  -40.644642 -2.807828 4.679711  -0.998499 -0.021916 -0.050198  0.931669 0.554674 1 1 1.000000
skin_0dam
0  -40.451950 -2.807828 3.000522  -0.963559 -0.021367 -0.266640  0.941435 0.554674 1 1 1.000000
0  -40.575825 1.541548 3.028050  -0.961283 0.094869 -0.258720  0.941435 0.539048 1 1 1.000000
0  -39.722466 1.541548 1.169930  -0.756225 0.085367 -0.648718  0.951201 0.539048 1 1 1.000000
skin_0dam
0  -39.722466 1.541548 1.169930  -0.756225 0.085367 -0.648718  0.951201 0.539048 1 1 1.000000
0  -39.598595 -2.807828 1.128639  -0.753509 -0.013034 -0.657309  0.952178 0.554674 1 1 1.000000
0  -40.451950 -2.807828 3.000522  -0.963559 -0.021367 -0.266640  0.941435 0.554674 1 1 1.000000
skin_0dam
0  -39.598595 -2.807828 1.128639  -0.753509 -0.013034 -0.657309  0.952178 0.554674 1 1 1.000000
0  -38.827816 1.541548 0.605612  -0.558975 0.032865 -0.828533  0.955107 0.539048 1 1 1.000000
0  -38.621361 1.472729 0.481738  -0.537902 -0.006164 -0.842984  0.955107 0.539048 1 1 1.000000
skin_0dam
0  -38.621361 1.472729 0.481738  -0.537902 -0.006164 -0.842984  0.955107 0.539048 1 1 1.000000
0  -37.726711 -2.794064 -0.055053  -0.537891 -0.006158 -0.842992  0.958037 0.554674 1 1 1.000000
0  -39.598595 -2.807828 1.128639  -0.753509 -0.013034 -0.657309  0.952178 0.554674 1 1 1.000000
skin_0dam
0  -40.782280 4.638414 4.459490  -0.995726 -0.020777 -0.089988  0.932646 0.527329 1 1 1.000000
0  -40.823578 4.184207 4.954988  -0.999222 -0.021399 -0.033116  0.929716 0.528306 1 1 1.000000
0  -40.988739 10.088899 5.533070  -0.999609 -0.024919 -0.012711  0.926786 0.506821 1 1 1.000000
skin_0dam
0  -40.796051 10.364175 3.110633  -0.966946 -0.019584 -0.254229  0.940458 0.505844 1 1 1.000000
0  -40.658405 4.610887 3.055578  -0.965594 -0.021505 -0.259164  0.940458 0.527329 1 1 1.000000
0  -40.782280 4.638414 4.459490  -0.995726 -0.020777 -0.089988  0.932646 0.527329 1 1 1.000000
skin_0dam
0  -40.782280 4.638414 4.459490  -0.995726 -0.020777 -0.089988  0.932646 0.527329 1 1 1.000000
0  -40.988739 10.088899 5.533070  -0.999609 -0.024919 -0.012711  0.926786 0.506821 1 1 1.000000
0  -40.796051 10.364175 3.110633  -0.966946 -0.019584 -0.254229  0.940458 0.505844 1 1 1.000000
skin_0dam
0  -38.621361 1.472729 0.481738  -0.537902 -0.006164 -0.842984  0.955107 0.539048 1 1 1.000000
0  -38.648888 4.211735 0.467974  -0.537931 -0.006163 -0.842966  0.955107 0.528306 1 1 1.000000
0  -38.057041 10.364175 0.055058  -0.537899 -0.005557 -0.842991  0.958037 0.505844 1 1 1.000000
skin_0dam
0  -38.057041 10.364175 0.055058  -0.537899 -0.005557 -0.842991  0.958037 0.505844 1 1 1.000000
0  -37.726711 -2.794064 -0.055053  -0.537891 -0.006158 -0.842992  0.958037 0.554674 1 1 1.000000
0  -38.621361 1.472729 0.481738  -0.537902 -0.006164 -0.842984  0.955107 0.539048 1 1 1.000000
skin_0dam
0  -38.648888 4.211735 0.467974  -0.537931 -0.006163 -0.842966  0.955107 0.528306 1 1 1.000000
0  -39.791283 4.583359 1.197458  -0.753488 -0.012997 -0.657333  0.951201 0.527329 1 1 1.000000
0  -38.057041 10.364175 0.055058  -0.537899 -0.005557 -0.842991  0.958037 0.505844 1 1 1.000000
skin_0dam
0  -40.644642 4.363137 3.055578  -0.709881 -0.680659 -0.181031  0.940458 0.528306 1 1 1.000000
0  -40.658405 4.610887 3.055578  -0.965594 -0.021505 -0.259164  0.940458 0.527329 1 1 1.000000
0  -39.791283 4.583359 1.197458  -0.753488 -0.012997 -0.657333  0.951201 0.527329 1 1 1.000000
skin_0dam
0  -39.791283 4.583359 1.197458  -0.753488 -0.012997 -0.657333  0.951201 0.527329 1 1 1.000000
0  -39.791283 4.335609 1.197458  -0.612202 -0.637565 -0.467675  0.951201 0.528306 1 1 1.000000
0  -40.644642 4.363137 3.055578  -0.709881 -0.680659 -0.181031  0.940458 0.528306 1 1 1.000000
skin_0dam
0  -40.754753 1.445201 4.913697  -0.999421 -0.023839 -0.024290  0.930692 0.539048 1 1 1.000000
0  -40.823578 4.184207 4.954988  -0.999222 -0.021399 -0.033116  0.929716 0.528306 1 1 1.000000
0  -40.796051 4.046569 4.721003  -0.777121 -0.223197 -0.588444  0.931669 0.529283 1 1 1.000000
skin_0dam
0  -40.796051 4.046569 4.721003  -0.777121 -0.223197 -0.588444  0.931669 0.529283 1 1 1.000000
0  -40.740990 1.541548 4.679711  -0.990197 0.039410 -0.134000  0.931669 0.539048 1 1 1.000000
0  -40.754753 1.445201 4.913697  -0.999421 -0.023839 -0.024290  0.930692 0.539048 1 1 1.000000
skin_0dam
0  -40.823578 4.184207 4.954988  -0.999222 -0.021399 -0.033116  0.929716 0.528306 1 1 1.000000
0  -40.782280 4.638414 4.459490  -0.995726 -0.020777 -0.089988  0.932646 0.527329 1 1 1.000000
0  -40.768517 4.390665 4.376907  -0.787119 -0.541263 -0.295766  0.933622 0.528306 1 1 1.000000
skin_0dam
0  -40.768517 4.390665 4.376907  -0.787119 -0.541263 -0.295766  0.933622 0.528306 1 1 1.000000
0  -40.796051 4.046569 4.721003  -0.777121 -0.223197 -0.588444  0.931669 0.529283 1 1 1.000000
0  -40.823578 4.184207 4.954988  -0.999222 -0.021399 -0.033116  0.929716 0.528306 1 1 1.000000
skin_0dam
0  -40.768517 4.390665 4.376907  -0.787119 -0.541263 -0.295766  0.933622 0.528306 1 1 1.000000
0  -40.782280 4.638414 4.459490  -0.995726 -0.020777 -0.089988  0.932646 0.527329 1 1 1.000000
0  -40.658405 4.610887 3.055578  -0.965594 -0.021505 -0.259164  0.940458 0.527329 1 1 1.000000
skin_0dam
0  -40.658405 4.610887 3.055578  -0.965594 -0.021505 -0.259164  0.940458 0.527329 1 1 1.000000
0  -40.644642 4.363137 3.055578  -0.709881 -0.680659 -0.181031  0.940458 0.528306 1 1 1.000000
0  -40.768517 4.390665 4.376907  -0.787119 -0.541263 -0.295766  0.933622 0.528306 1 1 1.000000
skin_0dam
0  -38.827816 1.541548 0.605612  -0.558975 0.032865 -0.828533  0.955107 0.539048 1 1 1.000000
0  -38.896633 4.032804 0.633140  -0.858625 -0.329097 -0.393011  0.954131 0.529283 1 1 1.000000
0  -38.648888 4.211735 0.467974  -0.537931 -0.006163 -0.842966  0.955107 0.528306 1 1 1.000000
skin_0dam
0  -38.648888 4.211735 0.467974  -0.537931 -0.006163 -0.842966  0.955107 0.528306 1 1 1.000000
0  -38.621361 1.472729 0.481738  -0.537902 -0.006164 -0.842984  0.955107 0.539048 1 1 1.000000
0  -38.827816 1.541548 0.605612  -0.558975 0.032865 -0.828533  0.955107 0.539048 1 1 1.000000
skin_0dam
0  -38.896633 4.032804 0.633140  -0.858625 -0.329097 -0.393011  0.954131 0.529283 1 1 1.000000
0  -39.791283 4.335609 1.197458  -0.612202 -0.637565 -0.467675  0.951201 0.528306 1 1 1.000000
0  -39.791283 4.583359 1.197458  -0.753488 -0.012997 -0.657333  0.951201 0.527329 1 1 1.000000
skin_0dam
0  -39.791283 4.583359 1.197458  -0.753488 -0.012997 -0.657333  0.951201 0.527329 1 1 1.000000
0  -38.648888 4.211735 0.467974  -0.537931 -0.006163 -0.842966  0.955107 0.528306 1 1 1.000000
0  -38.896633 4.032804 0.633140  -0.858625 -0.329097 -0.393011  0.954131 0.529283 1 1 1.000000
skin_0dam
0  -38.648888 4.170444 0.922181  -0.790930 -0.611256 0.028202  0.953154 0.528306 1 1 1.000000
0  -38.896633 4.032804 0.633140  -0.858625 -0.329097 -0.393011  0.954131 0.529283 1 1 1.000000
0  -38.827816 1.541548 0.605612  -0.558975 0.032865 -0.828533  0.955107 0.539048 1 1 1.000000
skin_0dam
0  -40.107853 4.046569 4.721003  -0.644293 -0.277452 -0.712676  0.931669 0.529283 1 1 1.000000
0  -40.740990 1.541548 4.679711  -0.990197 0.039410 -0.134000  0.931669 0.539048 1 1 1.000000
0  -40.796051 4.046569 4.721003  -0.777121 -0.223197 -0.588444  0.931669 0.529283 1 1 1.000000
skin_0dam
0  -38.814053 4.225499 1.087347  -0.656922 0.169590 -0.734637  0.952178 0.528306 1 1 1.000000
0  -38.827816 1.541548 0.605612  -0.558975 0.032865 -0.828533  0.955107 0.539048 1 1 1.000000
0  -39.722466 1.541548 1.169930  -0.756225 0.085367 -0.648718  0.951201 0.539048 1 1 1.000000
skin_0dam
0  -39.722466 1.541548 1.169930  -0.756225 0.085367 -0.648718  0.951201 0.539048 1 1 1.000000
0  -39.254498 4.335609 1.527790  -0.802933 0.209721 -0.557956  0.949248 0.528306 1 1 1.000000
0  -38.814053 4.225499 1.087347  -0.656922 0.169590 -0.734637  0.952178 0.528306 1 1 1.000000
skin_0dam
0  -38.827816 1.541548 0.605612  -0.558975 0.032865 -0.828533  0.955107 0.539048 1 1 1.000000
0  -39.598595 -2.807828 1.128639  -0.753509 -0.013034 -0.657309  0.952178 0.554674 1 1 1.000000
0  -39.722466 1.541548 1.169930  -0.756225 0.085367 -0.648718  0.951201 0.539048 1 1 1.000000
skin_0dam
0  -40.080326 4.390665 4.376907  -0.975028 0.221395 -0.017470  0.933622 0.528306 1 1 1.000000
0  -40.740990 1.541548 4.679711  -0.990197 0.039410 -0.134000  0.931669 0.539048 1 1 1.000000
0  -40.107853 4.046569 4.721003  -0.644293 -0.277452 -0.712676  0.931669 0.529283 1 1 1.000000
skin_0dam
0  -40.740990 1.541548 4.679711  -0.990197 0.039410 -0.134000  0.931669 0.539048 1 1 1.000000
0  -40.644642 -2.807828 4.679711  -0.998499 -0.021916 -0.050198  0.931669 0.554674 1 1 1.000000
0  -40.754753 1.445201 4.913697  -0.999421 -0.023839 -0.024290  0.930692 0.539048 1 1 1.000000
skin_0dam
0  -40.796051 10.364175 3.110633  -0.966946 -0.019584 -0.254229  0.940458 0.505844 1 1 1.000000
0  -41.470474 30.225410 6.455248  -0.999616 -0.026765 0.007138  0.921903 0.430647 1 1 1.000000
0  -41.250259 31.051237 3.275799  -0.967942 -0.018774 -0.250470  0.939482 0.427717 1 1 1.000000
skin_0dam
0  -41.883392 51.614429 10.006321  -0.994355 -0.031124 0.101440  0.901395 0.349590 1 1 1.000000
0  -41.470474 30.225410 6.455248  -0.999616 -0.026765 0.007138  0.921903 0.430647 1 1 1.000000
0  -41.195198 29.385815 9.263073  -0.998615 -0.020222 0.048577  0.905301 0.433576 1 1 1.000000
skin_0dam
0  -41.195198 29.385815 9.263073  -0.998615 -0.020222 0.048577  0.905301 0.433576 1 1 1.000000
0  -41.264023 51.862175 13.915254  -0.999139 -0.015954 0.038299  0.879910 0.348613 1 1 1.000000
0  -41.883392 51.614429 10.006321  -0.994355 -0.031124 0.101440  0.901395 0.349590 1 1 1.000000
skin_0dam
0  -41.250259 31.051237 3.275799  -0.967942 -0.018774 -0.250470  0.939482 0.427717 1 1 1.000000
0  -42.007271 51.669483 6.730525  -0.998900 -0.020920 -0.041956  0.919950 0.349590 1 1 1.000000
0  -41.594353 51.738304 3.454729  -0.962416 -0.012902 -0.271274  0.938505 0.349590 1 1 1.000000
skin_0dam
0  -41.511768 53.403728 18.553671  -0.998872 -0.024732 -0.040525  0.853542 0.342753 1 1 1.000000
0  -41.374134 52.275093 16.048653  -0.998924 -0.012339 -0.044697  0.867214 0.347636 1 1 1.000000
0  -41.442951 51.752068 17.796659  -0.999027 -0.023109 -0.037557  0.857448 0.349590 1 1 1.000000
skin_0dam
0  -41.442951 51.752068 17.796659  -0.999027 -0.023109 -0.037557  0.857448 0.349590 1 1 1.000000
0  -41.442951 51.600666 17.934299  -0.981428 -0.171862 0.085221  0.856471 0.349590 1 1 1.000000
0  -41.649406 54.174507 21.540426  -0.974755 -0.199746 0.099770  0.835963 0.339824 1 1 1.000000
skin_0dam
0  -41.649406 54.174507 21.540426  -0.974755 -0.199746 0.099770  0.835963 0.339824 1 1 1.000000
0  -41.649406 54.339672 21.444080  -0.998842 -0.023806 -0.041821  0.836940 0.339824 1 1 1.000000
0  -41.442951 51.752068 17.796659  -0.999027 -0.023109 -0.037557  0.857448 0.349590 1 1 1.000000
skin_0dam
0  -41.649406 54.339672 21.444080  -0.998842 -0.023806 -0.041821  0.836940 0.339824 1 1 1.000000
0  -41.649406 54.174507 21.540426  -0.974755 -0.199746 0.099770  0.835963 0.339824 1 1 1.000000
0  -41.800812 56.184025 23.866518  -0.972397 -0.202633 0.115690  0.823267 0.332987 1 1 1.000000
skin_0dam
0  -41.800812 56.184025 23.866518  -0.972397 -0.202633 0.115690  0.823267 0.332987 1 1 1.000000
0  -41.800812 56.349194 23.783934  -0.998667 -0.022271 -0.046571  0.823267 0.332011 1 1 1.000000
0  -41.649406 54.339672 21.444080  -0.998842 -0.023806 -0.041821  0.836940 0.339824 1 1 1.000000
skin_0dam
0  -41.374134 52.275093 16.048653  -0.998924 -0.012339 -0.044697  0.867214 0.347636 1 1 1.000000
0  -41.264023 51.862175 13.915254  -0.999139 -0.015954 0.038299  0.879910 0.348613 1 1 1.000000
0  -41.332840 49.783833 15.704554  -0.999660 -0.007175 -0.025057  0.869167 0.356426 1 1 1.000000
skin_0dam
0  -41.332840 49.783833 15.704554  -0.999660 -0.007175 -0.025057  0.869167 0.356426 1 1 1.000000
0  -41.442951 51.752068 17.796659  -0.999027 -0.023109 -0.037557  0.857448 0.349590 1 1 1.000000
0  -41.374134 52.275093 16.048653  -0.998924 -0.012339 -0.044697  0.867214 0.347636 1 1 1.000000
skin_0dam
0  -41.649406 54.174507 21.540426  -0.974755 -0.199746 0.099770  0.835963 0.339824 1 1 1.000000
0  -41.442951 51.600666 17.934299  -0.981428 -0.171862 0.085221  0.856471 0.349590 1 1 1.000000
0  -41.319077 51.366680 18.085701  -0.978181 -0.182934 0.098468  0.855495 0.350566 1 1 1.000000
skin_0dam
0  -41.319077 51.366680 18.085701  -0.978181 -0.182934 0.098468  0.855495 0.350566 1 1 1.000000
0  -41.511768 53.940517 21.691828  -0.976088 -0.195335 0.095373  0.835963 0.340800 1 1 1.000000
0  -41.649406 54.174507 21.540426  -0.974755 -0.199746 0.099770  0.835963 0.339824 1 1 1.000000
skin_0dam
0  -41.663170 55.963806 24.004154  -0.969204 -0.213232 0.123190  0.822291 0.333964 1 1 1.000000
0  -41.800812 56.184025 23.866518  -0.972397 -0.202633 0.115690  0.823267 0.332987 1 1 1.000000
0  -41.649406 54.174507 21.540426  -0.974755 -0.199746 0.099770  0.835963 0.339824 1 1 1.000000
skin_0dam
0  -41.649406 54.174507 21.540426  -0.974755 -0.199746 0.099770  0.835963 0.339824 1 1 1.000000
0  -41.511768 53.940517 21.691828  -0.976088 -0.195335 0.095373  0.835963 0.340800 1 1 1.000000
0  -41.663170 55.963806 24.004154  -0.969204 -0.213232 0.123190  0.822291 0.333964 1 1 1.000000
skin_0dam
0  -41.319077 51.366680 18.085701  -0.978181 -0.182934 0.098468  0.855495 0.350566 1 1 1.000000
0  -41.442951 51.600666 17.934299  -0.981428 -0.171862 0.085221  0.856471 0.349590 1 1 1.000000
0  -41.332840 49.701252 15.897248  -0.981802 -0.132334 0.136207  0.868191 0.357402 1 1 1.000000
skin_0dam
0  -41.332840 49.701252 15.897248  -0.981802 -0.132334 0.136207  0.868191 0.357402 1 1 1.000000
0  -41.208965 49.467270 16.034887  -0.966472 -0.154497 0.205091  0.867214 0.358379 1 1 1.000000
0  -41.319077 51.366680 18.085701  -0.978181 -0.182934 0.098468  0.855495 0.350566 1 1 1.000000
skin_0dam
0  -40.548298 23.756399 19.407030  -0.914806 -0.090918 0.393527  0.848659 0.455061 1 1 1.000000
0  -40.520771 23.770163 19.544668  -0.993447 -0.054187 0.100630  0.847682 0.455061 1 1 1.000000
0  -40.933685 34.836296 20.976109  -0.999350 -0.035984 0.002235  0.839869 0.413068 1 1 1.000000
skin_0dam
0  -40.933685 34.836296 20.976109  -0.999350 -0.035984 0.002235  0.839869 0.413068 1 1 1.000000
0  -40.328075 28.738911 11.561635  -0.998461 -0.035895 -0.042268  0.892605 0.436506 1 1 1.000000
0  -40.507008 23.687580 18.182047  -0.998198 -0.031684 -0.050952  0.855495 0.455061 1 1 1.000000
skin_0dam
0  -40.933685 34.836296 20.976109  -0.999350 -0.035984 0.002235  0.839869 0.413068 1 1 1.000000
0  -40.507008 23.604996 18.305923  -0.951564 0.034581 -0.305499  0.854518 0.455061 1 1 1.000000
0  -40.837341 23.673817 18.815186  -0.934036 0.061916 -0.351771  0.851588 0.455061 1 1 1.000000
skin_0dam
0  -40.933685 34.836296 20.976109  -0.999350 -0.035984 0.002235  0.839869 0.413068 1 1 1.000000
0  -40.837341 23.673817 18.815186  -0.934036 0.061916 -0.351771  0.851588 0.455061 1 1 1.000000
0  -40.851105 23.701344 18.980350  -0.969323 -0.049503 0.240754  0.850612 0.455061 1 1 1.000000
skin_0dam
0  -40.933685 34.836296 20.976109  -0.999350 -0.035984 0.002235  0.839869 0.413068 1 1 1.000000
0  -40.851105 23.701344 18.980350  -0.969323 -0.049503 0.240754  0.850612 0.455061 1 1 1.000000
0  -40.548298 23.756399 19.407030  -0.914806 -0.090918 0.393527  0.848659 0.455061 1 1 1.000000
skin_0dam
0  -40.520771 23.770163 19.544668  -0.993447 -0.054187 0.100630  0.847682 0.455061 1 1 1.000000
0  -40.520771 23.797689 19.668543  -0.998580 -0.043732 0.030430  0.846706 0.455061 1 1 1.000000
0  -40.933685 34.836296 20.976109  -0.999350 -0.035984 0.002235  0.839869 0.413068 1 1 1.000000
skin_0dam
0  -40.507008 23.687580 18.182047  -0.998198 -0.031684 -0.050952  0.855495 0.455061 1 1 1.000000
0  -40.507008 23.604996 18.305923  -0.951564 0.034581 -0.305499  0.854518 0.455061 1 1 1.000000
0  -40.933685 34.836296 20.976109  -0.999350 -0.035984 0.002235  0.839869 0.413068 1 1 1.000000
skin_0dam
0  -40.520771 23.797689 19.668543  -0.998580 -0.043732 0.030430  0.846706 0.455061 1 1 1.000000
0  -40.396896 24.719870 25.435596  -0.998975 -0.036957 0.026139  0.814478 0.451155 1 1 1.000000
0  -40.658405 34.561020 26.688107  -0.998182 -0.039799 0.045274  0.807642 0.414045 1 1 1.000000
skin_0dam
0  -40.658405 34.561020 26.688107  -0.998182 -0.039799 0.045274  0.807642 0.414045 1 1 1.000000
0  -40.933685 34.836296 20.976109  -0.999350 -0.035984 0.002235  0.839869 0.413068 1 1 1.000000
0  -40.520771 23.797689 19.668543  -0.998580 -0.043732 0.030430  0.846706 0.455061 1 1 1.000000
skin_0dam
0  -41.319077 51.366680 18.085701  -0.978181 -0.182934 0.098468  0.855495 0.350566 1 1 1.000000
0  -41.208965 49.467270 16.034887  -0.966472 -0.154497 0.205091  0.867214 0.358379 1 1 1.000000
0  -41.208965 49.357155 16.158764  -0.999117 -0.031047 -0.028311  0.867214 0.358379 1 1 1.000000
skin_0dam
0  -41.208965 49.357155 16.158764  -0.999117 -0.031047 -0.028311  0.867214 0.358379 1 1 1.000000
0  -41.319077 51.270332 18.168283  -0.999196 -0.028029 -0.028666  0.855495 0.351543 1 1 1.000000
0  -41.319077 51.366680 18.085701  -0.978181 -0.182934 0.098468  0.855495 0.350566 1 1 1.000000
skin_0dam
0  -41.374130 46.824612 24.224377  -0.999090 -0.041166 0.011198  0.821314 0.368145 1 1 1.000000
0  -41.319077 51.270332 18.168283  -0.999196 -0.028029 -0.028666  0.855495 0.351543 1 1 1.000000
0  -41.208965 49.357155 16.158764  -0.999117 -0.031047 -0.028311  0.867214 0.358379 1 1 1.000000
skin_0dam
0  -41.208965 49.357155 16.158764  -0.999117 -0.031047 -0.028311  0.867214 0.358379 1 1 1.000000
0  -41.222725 44.003021 22.641535  -0.999173 -0.040573 0.002702  0.830103 0.378887 1 1 1.000000
0  -41.374130 46.824612 24.224377  -0.999090 -0.041166 0.011198  0.821314 0.368145 1 1 1.000000
skin_0dam
0  -41.511768 53.940517 21.691828  -0.976088 -0.195335 0.095373  0.835963 0.340800 1 1 1.000000
0  -41.319077 51.366680 18.085701  -0.978181 -0.182934 0.098468  0.855495 0.350566 1 1 1.000000
0  -41.319077 51.270332 18.168283  -0.999196 -0.028029 -0.028666  0.855495 0.351543 1 1 1.000000
skin_0dam
0  -41.319077 51.270332 18.168283  -0.999196 -0.028029 -0.028666  0.855495 0.351543 1 1 1.000000
0  -41.511768 53.871700 21.719358  -0.998906 -0.039103 -0.025629  0.834986 0.341777 1 1 1.000000
0  -41.511768 53.940517 21.691828  -0.976088 -0.195335 0.095373  0.835963 0.340800 1 1 1.000000
skin_0dam
0  -41.663170 55.963806 24.004154  -0.969204 -0.213232 0.123190  0.822291 0.333964 1 1 1.000000
0  -41.511768 53.940517 21.691828  -0.976088 -0.195335 0.095373  0.835963 0.340800 1 1 1.000000
0  -41.511768 53.871700 21.719358  -0.998906 -0.039103 -0.025629  0.834986 0.341777 1 1 1.000000
skin_0dam
0  -41.511768 53.871700 21.719358  -0.998906 -0.039103 -0.025629  0.834986 0.341777 1 1 1.000000
0  -41.663170 55.908752 24.031683  -0.998424 -0.051356 -0.022626  0.822291 0.333964 1 1 1.000000
0  -41.663170 55.963806 24.004154  -0.969204 -0.213232 0.123190  0.822291 0.333964 1 1 1.000000
skin_0dam
0  -41.332840 49.783833 15.704554  -0.999660 -0.007175 -0.025057  0.869167 0.356426 1 1 1.000000
0  -41.332840 49.701252 15.897248  -0.981802 -0.132334 0.136207  0.868191 0.357402 1 1 1.000000
0  -41.442951 51.600666 17.934299  -0.981428 -0.171862 0.085221  0.856471 0.349590 1 1 1.000000
skin_0dam
0  -41.442951 51.600666 17.934299  -0.981428 -0.171862 0.085221  0.856471 0.349590 1 1 1.000000
0  -41.442951 51.752068 17.796659  -0.999027 -0.023109 -0.037557  0.857448 0.349590 1 1 1.000000
0  -41.332840 49.783833 15.704554  -0.999660 -0.007175 -0.025057  0.869167 0.356426 1 1 1.000000
skin_0dam
0  -41.649406 54.339672 21.444080  -0.998842 -0.023806 -0.041821  0.836940 0.339824 1 1 1.000000
0  -41.649406 54.986568 21.086220  -0.998836 -0.023111 -0.042336  0.838893 0.336894 1 1 1.000000
0  -41.511768 53.403728 18.553671  -0.998872 -0.024732 -0.040525  0.853542 0.342753 1 1 1.000000
skin_0dam
0  -41.511768 53.403728 18.553671  -0.998872 -0.024732 -0.040525  0.853542 0.342753 1 1 1.000000
0  -41.442951 51.752068 17.796659  -0.999027 -0.023109 -0.037557  0.857448 0.349590 1 1 1.000000
0  -41.649406 54.339672 21.444080  -0.998842 -0.023806 -0.041821  0.836940 0.339824 1 1 1.000000
skin_0dam
0  -41.800812 56.349194 23.783934  -0.998667 -0.022271 -0.046571  0.823267 0.332011 1 1 1.000000
0  -41.800812 57.037384 23.467365  -0.998700 -0.021787 -0.046076  0.825221 0.329081 1 1 1.000000
0  -41.649406 54.986568 21.086220  -0.998836 -0.023111 -0.042336  0.838893 0.336894 1 1 1.000000
skin_0dam
0  -41.649406 54.986568 21.086220  -0.998836 -0.023111 -0.042336  0.838893 0.336894 1 1 1.000000
0  -41.649406 54.339672 21.444080  -0.998842 -0.023806 -0.041821  0.836940 0.339824 1 1 1.000000
0  -41.800812 56.349194 23.783934  -0.998667 -0.022271 -0.046571  0.823267 0.332011 1 1 1.000000
skin_0dam
0  -41.814575 56.307896 23.990391  -0.956538 -0.107227 0.271179  0.822291 0.332011 1 1 1.000000
0  -41.814575 56.473064 23.907808  -0.990364 0.058273 0.125633  0.823267 0.332011 1 1 1.000000
0  -41.800812 56.349194 23.783934  -0.998667 -0.022271 -0.046571  0.823267 0.332011 1 1 1.000000
skin_0dam
0  -41.800812 56.349194 23.783934  -0.998667 -0.022271 -0.046571  0.823267 0.332011 1 1 1.000000
0  -41.800812 56.184025 23.866518  -0.972397 -0.202633 0.115690  0.823267 0.332987 1 1 1.000000
0  -41.814575 56.307896 23.990391  -0.956538 -0.107227 0.271179  0.822291 0.332011 1 1 1.000000
skin_0dam
0  -41.676941 56.073914 24.128031  -0.944528 -0.115868 0.307314  0.821314 0.332987 1 1 1.000000
0  -41.814575 56.307896 23.990391  -0.956538 -0.107227 0.271179  0.822291 0.332011 1 1 1.000000
0  -41.800812 56.184025 23.866518  -0.972397 -0.202633 0.115690  0.823267 0.332987 1 1 1.000000
skin_0dam
0  -41.800812 56.184025 23.866518  -0.972397 -0.202633 0.115690  0.823267 0.332987 1 1 1.000000
0  -41.663170 55.963806 24.004154  -0.969204 -0.213232 0.123190  0.822291 0.333964 1 1 1.000000
0  -41.676941 56.073914 24.128031  -0.944528 -0.115868 0.307314  0.821314 0.332987 1 1 1.000000
skin_0dam
0  -40.396896 24.664812 25.628290  -0.965313 -0.127698 0.227738  0.813501 0.451155 1 1 1.000000
0  -40.658405 34.547256 26.867037  -0.968801 -0.059262 0.240649  0.806665 0.414045 1 1 1.000000
0  -40.658405 34.561020 26.688107  -0.998182 -0.039799 0.045274  0.807642 0.414045 1 1 1.000000
skin_0dam
0  -40.658405 34.561020 26.688107  -0.998182 -0.039799 0.045274  0.807642 0.414045 1 1 1.000000
0  -40.396896 24.719870 25.435596  -0.998975 -0.036957 0.026139  0.814478 0.451155 1 1 1.000000
0  -40.396896 24.664812 25.628290  -0.965313 -0.127698 0.227738  0.813501 0.451155 1 1 1.000000
skin_0dam
0  -41.676941 56.018860 24.155558  -0.988064 0.022119 0.152450  0.821314 0.332987 1 1 1.000000
0  -41.676941 56.073914 24.128031  -0.944528 -0.115868 0.307314  0.821314 0.332987 1 1 1.000000
0  -41.663170 55.963806 24.004154  -0.969204 -0.213232 0.123190  0.822291 0.333964 1 1 1.000000
skin_0dam
0  -41.663170 55.963806 24.004154  -0.969204 -0.213232 0.123190  0.822291 0.333964 1 1 1.000000
0  -41.663170 55.908752 24.031683  -0.998424 -0.051356 -0.022626  0.822291 0.333964 1 1 1.000000
0  -41.676941 56.018860 24.155558  -0.988064 0.022119 0.152450  0.821314 0.332987 1 1 1.000000
skin_0dam
0  -41.814575 56.473064 23.907808  -0.990364 0.058273 0.125633  0.823267 0.332011 1 1 1.000000
0  -41.814575 57.147499 23.591240  -0.984605 0.073413 0.158628  0.824244 0.329081 1 1 1.000000
0  -41.800812 57.037384 23.467365  -0.998700 -0.021787 -0.046076  0.825221 0.329081 1 1 1.000000
skin_0dam
0  -41.800812 57.037384 23.467365  -0.998700 -0.021787 -0.046076  0.825221 0.329081 1 1 1.000000
0  -41.800812 56.349194 23.783934  -0.998667 -0.022271 -0.046571  0.823267 0.332011 1 1 1.000000
0  -41.814575 56.473064 23.907808  -0.990364 0.058273 0.125633  0.823267 0.332011 1 1 1.000000
skin_0dam
0  -41.814575 56.473064 23.907808  -0.990364 0.058273 0.125633  0.015625 0.936522 1 1 1.000000
0  -41.814575 56.307896 23.990391  -0.956538 -0.107227 0.271179  0.015625 0.932615 1 1 1.000000
0  -41.745758 56.431774 24.114267  -0.908768 0.011683 0.417137  0.984405 0.935545 1 1 1.000000
skin_0dam
0  -41.745758 56.431774 24.114267  -0.908768 0.011683 0.417137  0.984405 0.935545 1 1 1.000000
0  -41.745758 56.596939 24.045446  -0.946150 0.135044 0.294217  0.984405 0.940428 1 1 1.000000
0  -41.814575 56.473064 23.907808  -0.990364 0.058273 0.125633  0.015625 0.936522 1 1 1.000000
skin_0dam
0  -41.814575 56.307896 23.990391  -0.956538 -0.107227 0.271179  0.009766 0.932615 1 1 1.000000
0  -41.676941 56.073914 24.128031  -0.944528 -0.115868 0.307314  0.009766 0.925779 1 1 1.000000
0  -41.621880 56.211552 24.238140  -0.880103 -0.044882 0.472657  0.984405 0.929685 1 1 1.000000
skin_0dam
0  -41.621880 56.211552 24.238140  -0.880103 -0.044882 0.472657  0.984405 0.929685 1 1 1.000000
0  -41.745758 56.431774 24.114267  -0.908768 0.011683 0.417137  0.984405 0.935545 1 1 1.000000
0  -41.814575 56.307896 23.990391  -0.956538 -0.107227 0.271179  0.009766 0.932615 1 1 1.000000
skin_0dam
0  -40.658405 34.547256 26.867037  -0.968801 -0.059262 0.240649  0.015625 0.342753 1 1 1.000000
0  -40.396896 24.664812 25.628290  -0.965313 -0.127698 0.227738  0.015625 0.075167 1 1 1.000000
0  -40.314312 24.651049 25.793457  -0.913050 -0.161661 0.374440  0.984405 0.074190 1 1 1.000000
skin_0dam
0  -40.314312 24.651049 25.793457  -0.913050 -0.161661 0.374440  0.984405 0.074190 1 1 1.000000
0  -40.575825 34.547256 27.018438  -0.902848 -0.077733 0.422875  0.984405 0.342753 1 1 1.000000
0  -40.658405 34.547256 26.867037  -0.968801 -0.059262 0.240649  0.015625 0.342753 1 1 1.000000
skin_0dam
0  -41.676941 56.073914 24.128031  -0.944528 -0.115868 0.307314  0.009766 0.925779 1 1 1.000000
0  -41.676941 56.018860 24.155558  -0.988064 0.022119 0.152450  0.009766 0.924802 1 1 1.000000
0  -41.621880 56.142735 24.265671  -0.942162 0.107087 0.317591  0.984405 0.928709 1 1 1.000000
skin_0dam
0  -41.621880 56.142735 24.265671  -0.942162 0.107087 0.317591  0.984405 0.928709 1 1 1.000000
0  -41.621880 56.211552 24.238140  -0.880103 -0.044882 0.472657  0.984405 0.929685 1 1 1.000000
0  -41.676941 56.073914 24.128031  -0.944528 -0.115868 0.307314  0.009766 0.925779 1 1 1.000000
skin_0dam
0  -41.814575 57.147499 23.591240  -0.984605 0.073413 0.158628  0.015625 0.955077 1 1 1.000000
0  -41.814575 56.473064 23.907808  -0.990364 0.058273 0.125633  0.015625 0.936522 1 1 1.000000
0  -41.745758 56.596939 24.045446  -0.946150 0.135044 0.294217  0.984405 0.940428 1 1 1.000000
skin_0dam
0  -41.745758 56.596939 24.045446  -0.946150 0.135044 0.294217  0.984405 0.940428 1 1 1.000000
0  -41.745758 57.271370 23.728878  -0.946012 0.136350 0.294059  0.984405 0.958983 1 1 1.000000
0  -41.814575 57.147499 23.591240  -0.984605 0.073413 0.158628  0.015625 0.955077 1 1 1.000000
skin_0dam
0  -41.250256 47.719261 27.376299  -0.996714 -0.056429 0.058109  0.803735 0.364238 1 1 1.000000
0  -41.401657 49.618671 26.729399  -0.998629 -0.036796 0.037220  0.806665 0.357402 1 1 1.000000
0  -41.401657 48.847897 25.972385  -0.998980 -0.036165 0.027024  0.811548 0.360332 1 1 1.000000
skin_0dam
0  -41.511768 53.871700 21.719358  -0.998906 -0.039103 -0.025629  0.834986 0.341777 1 1 1.000000
0  -41.401657 48.847897 25.972385  -0.998980 -0.036165 0.027024  0.811548 0.360332 1 1 1.000000
0  -41.401657 49.618671 26.729399  -0.998629 -0.036796 0.037220  0.806665 0.357402 1 1 1.000000
skin_0dam
0  -41.401657 49.618671 26.729399  -0.998629 -0.036796 0.037220  0.806665 0.357402 1 1 1.000000
0  -41.663170 55.908752 24.031683  -0.998424 -0.051356 -0.022626  0.822291 0.333964 1 1 1.000000
0  -41.511768 53.871700 21.719358  -0.998906 -0.039103 -0.025629  0.834986 0.341777 1 1 1.000000
skin_0dam
0  -41.140148 47.829369 15.525623  -0.999017 -0.035608 -0.026397  0.870144 0.364238 1 1 1.000000
0  -41.222725 44.003021 22.641535  -0.999173 -0.040573 0.002702  0.830103 0.378887 1 1 1.000000
0  -41.208965 49.357155 16.158764  -0.999117 -0.031047 -0.028311  0.867214 0.358379 1 1 1.000000
skin_0dam
0  -40.933685 34.836296 20.976109  -0.999350 -0.035984 0.002235  0.839869 0.413068 1 1 1.000000
0  -41.222725 44.003021 22.641535  -0.999173 -0.040573 0.002702  0.830103 0.378887 1 1 1.000000
0  -41.140148 47.829369 15.525623  -0.999017 -0.035608 -0.026397  0.870144 0.364238 1 1 1.000000
skin_0dam
0  -41.140148 47.829369 15.525623  -0.999017 -0.035608 -0.026397  0.870144 0.364238 1 1 1.000000
0  -40.328075 28.738911 11.561635  -0.998461 -0.035895 -0.042268  0.892605 0.436506 1 1 1.000000
0  -40.933685 34.836296 20.976109  -0.999350 -0.035984 0.002235  0.839869 0.413068 1 1 1.000000
skin_0dam
0  -41.222725 44.003021 22.641535  -0.999173 -0.040573 0.002702  0.830103 0.378887 1 1 1.000000
0  -40.933685 41.635635 27.431353  -0.997825 -0.044101 0.048992  0.802759 0.387677 1 1 1.000000
0  -41.071323 44.870144 27.637812  -0.997068 -0.053804 0.054413  0.801782 0.374981 1 1 1.000000
skin_0dam
0  -41.071323 44.870144 27.637812  -0.997068 -0.053804 0.054413  0.801782 0.374981 1 1 1.000000
0  -41.374130 46.824612 24.224377  -0.999090 -0.041166 0.011198  0.821314 0.368145 1 1 1.000000
0  -41.222725 44.003021 22.641535  -0.999173 -0.040573 0.002702  0.830103 0.378887 1 1 1.000000
skin_0dam
0  -41.250256 47.719261 27.376299  -0.996714 -0.056429 0.058109  0.803735 0.364238 1 1 1.000000
0  -41.250256 47.760551 27.541462  -0.965408 -0.011868 0.260473  0.802759 0.364238 1 1 1.000000
0  -41.387894 49.646198 26.894566  -0.971895 0.031808 0.233254  0.805689 0.357402 1 1 1.000000
skin_0dam
0  -41.387894 49.646198 26.894566  -0.971895 0.031808 0.233254  0.805689 0.357402 1 1 1.000000
0  -41.401657 49.618671 26.729399  -0.998629 -0.036796 0.037220  0.806665 0.357402 1 1 1.000000
0  -41.250256 47.719261 27.376299  -0.996714 -0.056429 0.058109  0.803735 0.364238 1 1 1.000000
skin_0dam
0  -41.401657 49.618671 26.729399  -0.998629 -0.036796 0.037220  0.806665 0.357402 1 1 1.000000
0  -41.387894 49.646198 26.894566  -0.971895 0.031808 0.233254  0.805689 0.357402 1 1 1.000000
0  -41.676941 56.018860 24.155558  -0.988064 0.022119 0.152450  0.821314 0.332987 1 1 1.000000
skin_0dam
0  -41.676941 56.018860 24.155558  -0.988064 0.022119 0.152450  0.821314 0.332987 1 1 1.000000
0  -41.663170 55.908752 24.031683  -0.998424 -0.051356 -0.022626  0.822291 0.333964 1 1 1.000000
0  -41.401657 49.618671 26.729399  -0.998629 -0.036796 0.037220  0.806665 0.357402 1 1 1.000000
skin_0dam
0  -40.658405 34.561020 26.688107  -0.998182 -0.039799 0.045274  0.807642 0.414045 1 1 1.000000
0  -40.658405 34.547256 26.867037  -0.968801 -0.059262 0.240649  0.806665 0.414045 1 1 1.000000
0  -40.933685 41.621872 27.596519  -0.965809 -0.060659 0.252058  0.801782 0.387677 1 1 1.000000
skin_0dam
0  -40.933685 41.621872 27.596519  -0.965809 -0.060659 0.252058  0.801782 0.387677 1 1 1.000000
0  -40.933685 41.635635 27.431353  -0.997825 -0.044101 0.048992  0.802759 0.387677 1 1 1.000000
0  -40.658405 34.561020 26.688107  -0.998182 -0.039799 0.045274  0.807642 0.414045 1 1 1.000000
skin_0dam
0  -40.933685 41.635635 27.431353  -0.997825 -0.044101 0.048992  0.802759 0.387677 1 1 1.000000
0  -40.933685 41.621872 27.596519  -0.965809 -0.060659 0.252058  0.801782 0.387677 1 1 1.000000
0  -41.071323 44.870144 27.802979  -0.962944 -0.046908 0.265592  0.800806 0.374981 1 1 1.000000
skin_0dam
0  -41.071323 44.870144 27.802979  -0.962944 -0.046908 0.265592  0.800806 0.374981 1 1 1.000000
0  -41.071323 44.870144 27.637812  -0.997068 -0.053804 0.054413  0.801782 0.374981 1 1 1.000000
0  -40.933685 41.635635 27.431353  -0.997825 -0.044101 0.048992  0.802759 0.387677 1 1 1.000000
skin_0dam
0  -41.071323 44.870144 27.637812  -0.997068 -0.053804 0.054413  0.801782 0.374981 1 1 1.000000
0  -41.071323 44.870144 27.802979  -0.962944 -0.046908 0.265592  0.800806 0.374981 1 1 1.000000
0  -41.250256 47.760551 27.541462  -0.965408 -0.011868 0.260473  0.802759 0.364238 1 1 1.000000
skin_0dam
0  -41.250256 47.760551 27.541462  -0.965408 -0.011868 0.260473  0.802759 0.364238 1 1 1.000000
0  -41.250256 47.719261 27.376299  -0.996714 -0.056429 0.058109  0.803735 0.364238 1 1 1.000000
0  -41.071323 44.870144 27.637812  -0.997068 -0.053804 0.054413  0.801782 0.374981 1 1 1.000000
skin_0dam
0  -41.387894 49.646198 26.894566  -0.971895 0.031808 0.233254  0.008789 0.827143 1 1 1.000000
0  -41.250256 47.760551 27.541462  -0.965408 -0.011868 0.260473  0.008789 0.702139 1 1 1.000000
0  -41.167671 47.815605 27.706629  -0.905415 0.028363 0.423579  0.984405 0.702139 1 1 1.000000
skin_0dam
0  -41.167671 47.815605 27.706629  -0.905415 0.028363 0.423579  0.984405 0.702139 1 1 1.000000
0  -41.319073 49.687489 27.059732  -0.912303 0.094818 0.398389  0.984405 0.741203 1 1 1.000000
0  -41.387894 49.646198 26.894566  -0.971895 0.031808 0.233254  0.008789 0.827143 1 1 1.000000
skin_0dam
0  -41.676941 56.018860 24.155558  -0.988064 0.022119 0.152450  0.008789 0.925779 1 1 1.000000
0  -41.387894 49.646198 26.894566  -0.971895 0.031808 0.233254  0.008789 0.827143 1 1 1.000000
0  -41.319073 49.687489 27.059732  -0.912303 0.094818 0.398389  0.984405 0.741203 1 1 1.000000
skin_0dam
0  -41.319073 49.687489 27.059732  -0.912303 0.094818 0.398389  0.984405 0.741203 1 1 1.000000
0  -41.621880 56.142735 24.265671  -0.942162 0.107087 0.317591  0.984405 0.928709 1 1 1.000000
0  -41.676941 56.018860 24.155558  -0.988064 0.022119 0.152450  0.008789 0.925779 1 1 1.000000
skin_0dam
0  -40.933685 41.621872 27.596519  -0.965809 -0.060659 0.252058  0.015625 0.534166 1 1 1.000000
0  -40.658405 34.547256 26.867037  -0.968801 -0.059262 0.240649  0.015625 0.342753 1 1 1.000000
0  -40.575825 34.547256 27.018438  -0.902848 -0.077733 0.422875  0.984405 0.342753 1 1 1.000000
skin_0dam
0  -40.575825 34.547256 27.018438  -0.902848 -0.077733 0.422875  0.984405 0.342753 1 1 1.000000
0  -40.851105 41.608109 27.747923  -0.898396 -0.073213 0.433042  0.984405 0.534166 1 1 1.000000
0  -40.933685 41.621872 27.596519  -0.965809 -0.060659 0.252058  0.015625 0.534166 1 1 1.000000
skin_0dam
0  -41.071323 44.870144 27.802979  -0.962944 -0.046908 0.265592  0.015625 0.622059 1 1 1.000000
0  -40.933685 41.621872 27.596519  -0.965809 -0.060659 0.252058  0.015625 0.534166 1 1 1.000000
0  -40.851105 41.608109 27.747923  -0.898396 -0.073213 0.433042  0.984405 0.534166 1 1 1.000000
skin_0dam
0  -40.851105 41.608109 27.747923  -0.898396 -0.073213 0.433042  0.984405 0.534166 1 1 1.000000
0  -40.988739 44.870144 27.968145  -0.897379 -0.041263 0.439328  0.984405 0.622059 1 1 1.000000
0  -41.071323 44.870144 27.802979  -0.962944 -0.046908 0.265592  0.015625 0.622059 1 1 1.000000
skin_0dam
0  -41.250256 47.760551 27.541462  -0.965408 -0.011868 0.260473  0.015625 0.701163 1 1 1.000000
0  -41.071323 44.870144 27.802979  -0.962944 -0.046908 0.265592  0.015625 0.622059 1 1 1.000000
0  -40.988739 44.870144 27.968145  -0.897379 -0.041263 0.439328  0.984405 0.622059 1 1 1.000000
skin_0dam
0  -40.988739 44.870144 27.968145  -0.897379 -0.041263 0.439328  0.984405 0.622059 1 1 1.000000
0  -41.167671 47.815605 27.706629  -0.905415 0.028363 0.423579  0.984405 0.702139 1 1 1.000000
0  -41.250256 47.760551 27.541462  -0.965408 -0.011868 0.260473  0.015625 0.701163 1 1 1.000000
skin_0dam
0  -41.071323 44.870144 27.637812  -0.997068 -0.053804 0.054413  0.801782 0.374981 1 1 1.000000
0  -41.250256 47.719261 27.376299  -0.996714 -0.056429 0.058109  0.803735 0.364238 1 1 1.000000
0  -41.401657 48.847897 25.972385  -0.998980 -0.036165 0.027024  0.811548 0.360332 1 1 1.000000
skin_0dam
0  -41.401657 48.847897 25.972385  -0.998980 -0.036165 0.027024  0.811548 0.360332 1 1 1.000000
0  -41.374130 46.824612 24.224377  -0.999090 -0.041166 0.011198  0.821314 0.368145 1 1 1.000000
0  -41.071323 44.870144 27.637812  -0.997068 -0.053804 0.054413  0.801782 0.374981 1 1 1.000000
skin_0dam
0  -40.933685 34.836296 20.976109  -0.999350 -0.035984 0.002235  0.839869 0.413068 1 1 1.000000
0  -40.658405 34.561020 26.688107  -0.998182 -0.039799 0.045274  0.807642 0.414045 1 1 1.000000
0  -40.933685 41.635635 27.431353  -0.997825 -0.044101 0.048992  0.802759 0.387677 1 1 1.000000
skin_0dam
0  -40.933685 41.635635 27.431353  -0.997825 -0.044101 0.048992  0.802759 0.387677 1 1 1.000000
0  -41.222725 44.003021 22.641535  -0.999173 -0.040573 0.002702  0.830103 0.378887 1 1 1.000000
0  -40.933685 34.836296 20.976109  -0.999350 -0.035984 0.002235  0.839869 0.413068 1 1 1.000000
skin_0dam
0  -40.809814 12.483809 16.695553  -0.959783 -0.056841 -0.274927  0.019532 0.551744 1 1 1.000000
0  -40.740990 12.139712 16.626734  -0.890010 -0.090747 -0.446820  0.983428 0.552721 1 1 1.000000
0  -40.768517 12.648975 16.984592  -0.897527 -0.246050 0.365929  0.983428 0.542955 1 1 1.000000
skin_0dam
0  -40.768517 12.648975 16.984592  -0.897527 -0.246050 0.365929  0.983428 0.542955 1 1 1.000000
0  -40.837341 12.993070 17.053413  -0.913231 -0.137734 0.383457  0.019532 0.541978 1 1 1.000000
0  -40.809814 12.483809 16.695553  -0.959783 -0.056841 -0.274927  0.019532 0.551744 1 1 1.000000
skin_0dam
0  -39.392136 9.662219 7.941744  -0.997373 -0.036807 -0.062381  0.913114 0.507797 1 1 1.000000
0  -38.786526 -2.560079 5.849639  -0.997414 -0.037908 -0.061066  0.924833 0.553697 1 1 1.000000
0  -39.832577 9.923732 14.630974  -0.997337 -0.035722 -0.063579  0.875027 0.506821 1 1 1.000000
skin_0dam
0  -39.915161 10.873438 15.525623  -0.938136 -0.014238 -0.345974  0.019532 0.575182 1 1 1.000000
0  -39.860104 10.460522 15.429276  -0.988877 -0.148732 0.001122  0.983428 0.570299 1 1 1.000000
0  -40.451950 11.589157 16.227581  -0.830501 -0.056529 -0.554141  0.983428 0.560533 1 1 1.000000
skin_0dam
0  -40.451950 11.589157 16.227581  -0.830501 -0.056529 -0.554141  0.983428 0.560533 1 1 1.000000
0  -40.520771 11.947018 16.296400  -0.777775 0.030878 -0.627784  0.019532 0.559557 1 1 1.000000
0  -39.915161 10.873438 15.525623  -0.938136 -0.014238 -0.345974  0.019532 0.575182 1 1 1.000000
skin_0dam
0  -40.520771 11.947018 16.296400  -0.777775 0.030878 -0.627784  0.019532 0.559557 1 1 1.000000
0  -40.451950 11.589157 16.227581  -0.830501 -0.056529 -0.554141  0.983428 0.560533 1 1 1.000000
0  -40.740990 12.139712 16.626734  -0.890010 -0.090747 -0.446820  0.983428 0.552721 1 1 1.000000
skin_0dam
0  -40.740990 12.139712 16.626734  -0.890010 -0.090747 -0.446820  0.983428 0.552721 1 1 1.000000
0  -40.809814 12.483809 16.695553  -0.959783 -0.056841 -0.274927  0.019532 0.551744 1 1 1.000000
0  -40.520771 11.947018 16.296400  -0.777775 0.030878 -0.627784  0.019532 0.559557 1 1 1.000000
skin_0dam
0  -40.052799 14.080415 18.044409  -0.815607 -0.268318 0.512631  0.983428 0.508774 1 1 1.000000
0  -40.135384 14.438274 18.099464  -0.913496 -0.177038 0.366308  0.019532 0.507797 1 1 1.000000
0  -40.190437 14.094178 17.851715  -0.726676 -0.209078 0.654392  0.019532 0.514634 1 1 1.000000
skin_0dam
0  -40.190437 14.094178 17.851715  -0.726676 -0.209078 0.654392  0.019532 0.514634 1 1 1.000000
0  -40.107853 13.736318 17.796659  -0.588067 -0.257836 0.766614  0.983428 0.515610 1 1 1.000000
0  -40.052799 14.080415 18.044409  -0.815607 -0.268318 0.512631  0.983428 0.508774 1 1 1.000000
skin_0dam
0  -40.107853 13.736318 17.796659  -0.588067 -0.257836 0.766614  0.983428 0.515610 1 1 1.000000
0  -40.190437 14.094178 17.851715  -0.726676 -0.209078 0.654392  0.019532 0.514634 1 1 1.000000
0  -40.534534 13.557388 17.452564  -0.616587 -0.195212 0.762701  0.019532 0.528306 1 1 1.000000
skin_0dam
0  -40.534534 13.557388 17.452564  -0.616587 -0.195212 0.762701  0.019532 0.528306 1 1 1.000000
0  -40.465717 13.185763 17.383745  -0.559924 -0.256099 0.787971  0.983428 0.530259 1 1 1.000000
0  -40.107853 13.736318 17.796659  -0.588067 -0.257836 0.766614  0.983428 0.515610 1 1 1.000000
skin_0dam
0  -40.465717 13.185763 17.383745  -0.559924 -0.256099 0.787971  0.983428 0.530259 1 1 1.000000
0  -40.534534 13.557388 17.452564  -0.616587 -0.195212 0.762701  0.019532 0.528306 1 1 1.000000
0  -40.837341 12.993070 17.053413  -0.913231 -0.137734 0.383457  0.019532 0.541978 1 1 1.000000
skin_0dam
0  -40.837341 12.993070 17.053413  -0.913231 -0.137734 0.383457  0.019532 0.541978 1 1 1.000000
0  -40.768517 12.648975 16.984592  -0.897527 -0.246050 0.365929  0.983428 0.542955 1 1 1.000000
0  -40.465717 13.185763 17.383745  -0.559924 -0.256099 0.787971  0.983428 0.530259 1 1 1.000000
skin_0dam
0  -39.873867 10.391703 15.167765  -0.990516 -0.131599 0.039503  0.019532 0.584948 1 1 1.000000
0  -39.791283 9.937495 15.057653  -0.940830 -0.249663 0.229147  0.983428 0.586901 1 1 1.000000
0  -39.860104 10.460522 15.429276  -0.988877 -0.148732 0.001122  0.983428 0.570299 1 1 1.000000
skin_0dam
0  -39.860104 10.460522 15.429276  -0.988877 -0.148732 0.001122  0.983428 0.570299 1 1 1.000000
0  -39.915161 10.873438 15.525623  -0.938136 -0.014238 -0.345974  0.019532 0.575182 1 1 1.000000
0  -39.873867 10.391703 15.167765  -0.990516 -0.131599 0.039503  0.019532 0.584948 1 1 1.000000
skin_0dam
0  -40.135384 15.195286 18.443562  -0.994468 -0.055860 0.088960  0.853542 0.487289 1 1 1.000000
0  -40.396896 24.719870 25.435596  -0.998975 -0.036957 0.026139  0.814478 0.451155 1 1 1.000000
0  -40.520771 23.797689 19.668543  -0.998580 -0.043732 0.030430  0.846706 0.455061 1 1 1.000000
skin_0dam
0  -38.786526 -2.560079 5.849639  -0.997414 -0.037908 -0.061066  0.924833 0.553697 1 1 1.000000
0  -38.772762 -2.821592 5.808347  -0.967252 -0.212504 0.138800  0.924833 0.554674 1 1 1.000000
0  -39.846340 9.923732 14.837433  -0.984918 -0.146715 0.091710  0.874050 0.506821 1 1 1.000000
skin_0dam
0  -39.846340 9.923732 14.837433  -0.984918 -0.146715 0.091710  0.874050 0.506821 1 1 1.000000
0  -39.832577 9.923732 14.630974  -0.997337 -0.035722 -0.063579  0.875027 0.506821 1 1 1.000000
0  -38.786526 -2.560079 5.849639  -0.997414 -0.037908 -0.061066  0.924833 0.553697 1 1 1.000000
skin_0dam
0  -40.135384 15.195286 18.443562  -0.994468 -0.055860 0.088960  0.853542 0.487289 1 1 1.000000
0  -40.121616 14.837427 18.388506  -0.956706 -0.164866 0.239862  0.854518 0.488266 1 1 1.000000
0  -40.396896 24.664812 25.628290  -0.965313 -0.127698 0.227738  0.813501 0.451155 1 1 1.000000
skin_0dam
0  -40.396896 24.664812 25.628290  -0.965313 -0.127698 0.227738  0.813501 0.451155 1 1 1.000000
0  -40.396896 24.719870 25.435596  -0.998975 -0.036957 0.026139  0.814478 0.451155 1 1 1.000000
0  -40.135384 15.195286 18.443562  -0.994468 -0.055860 0.088960  0.853542 0.487289 1 1 1.000000
skin_0dam
0  -39.873867 10.391703 15.167765  -0.990516 -0.131599 0.039503  0.019532 0.584948 1 1 1.000000
0  -39.846340 9.923732 14.837433  -0.984918 -0.146715 0.091710  0.019532 0.592761 1 1 1.000000
0  -39.791283 9.937495 15.057653  -0.940830 -0.249663 0.229147  0.983428 0.586901 1 1 1.000000
skin_0dam
0  -39.846340 9.923732 14.837433  -0.984918 -0.146715 0.091710  0.019532 0.592761 1 1 1.000000
0  -38.772762 -2.821592 5.808347  -0.967252 -0.212504 0.138800  0.019532 0.828120 1 1 1.000000
0  -38.703945 -3.083105 5.767056  -0.946450 -0.308079 0.096537  0.983428 0.828120 1 1 1.000000
skin_0dam
0  -38.703945 -3.083105 5.767056  -0.946450 -0.308079 0.096537  0.983428 0.828120 1 1 1.000000
0  -39.791283 9.937495 15.057653  -0.940830 -0.249663 0.229147  0.983428 0.586901 1 1 1.000000
0  -39.846340 9.923732 14.837433  -0.984918 -0.146715 0.091710  0.019532 0.592761 1 1 1.000000
skin_0dam
0  -40.121616 14.837427 18.388506  -0.956706 -0.164866 0.239862  0.019532 0.499985 1 1 1.000000
0  -40.039036 14.493329 18.333450  -0.873159 -0.266427 0.408180  0.983428 0.500961 1 1 1.000000
0  -40.314312 24.651049 25.793457  -0.913050 -0.161661 0.374440  0.983428 0.290994 1 1 1.000000
skin_0dam
0  -40.314312 24.651049 25.793457  -0.913050 -0.161661 0.374440  0.983428 0.290994 1 1 1.000000
0  -40.396896 24.664812 25.628290  -0.965313 -0.127698 0.227738  0.019532 0.306619 1 1 1.000000
0  -40.121616 14.837427 18.388506  -0.956706 -0.164866 0.239862  0.019532 0.499985 1 1 1.000000
skin_0dam
0  -40.507008 23.687580 18.182047  -0.998198 -0.031684 -0.050952  0.855495 0.455061 1 1 1.000000
0  -40.328075 28.738911 11.561635  -0.998461 -0.035895 -0.042268  0.892605 0.436506 1 1 1.000000
0  -39.392136 9.662219 7.941744  -0.997373 -0.036807 -0.062381  0.913114 0.507797 1 1 1.000000
skin_0dam
0  -40.507008 23.687580 18.182047  -0.998198 -0.031684 -0.050952  0.855495 0.455061 1 1 1.000000
0  -39.392136 9.662219 7.941744  -0.997373 -0.036807 -0.062381  0.913114 0.507797 1 1 1.000000
0  -39.832577 9.923732 14.630974  -0.997337 -0.035722 -0.063579  0.875027 0.506821 1 1 1.000000
skin_0dam
0  -40.507008 23.687580 18.182047  -0.998198 -0.031684 -0.050952  0.855495 0.455061 1 1 1.000000
0  -39.832577 9.923732 14.630974  -0.997337 -0.035722 -0.063579  0.875027 0.506821 1 1 1.000000
0  -39.901394 10.804619 15.264110  -0.997248 -0.038542 -0.063328  0.872097 0.503891 1 1 1.000000
skin_0dam
0  -39.942688 11.286352 15.608208  -0.910597 0.042199 -0.411136  0.870144 0.501938 1 1 1.000000
0  -40.507008 23.604996 18.305923  -0.951564 0.034581 -0.305499  0.854518 0.455061 1 1 1.000000
0  -40.507008 23.687580 18.182047  -0.998198 -0.031684 -0.050952  0.855495 0.455061 1 1 1.000000
skin_0dam
0  -40.507008 23.687580 18.182047  -0.998198 -0.031684 -0.050952  0.855495 0.455061 1 1 1.000000
0  -39.901394 10.804619 15.264110  -0.997248 -0.038542 -0.063328  0.872097 0.503891 1 1 1.000000
0  -39.942688 11.286352 15.608208  -0.910597 0.042199 -0.411136  0.870144 0.501938 1 1 1.000000
skin_0dam
0  -39.942688 11.286352 15.608208  -0.910597 0.042199 -0.411136  0.870144 0.501938 1 1 1.000000
0  -40.520771 12.332405 16.365219  -0.704638 0.123494 -0.698738  0.865261 0.498032 1 1 1.000000
0  -40.507008 23.604996 18.305923  -0.951564 0.034581 -0.305499  0.854518 0.455061 1 1 1.000000
skin_0dam
0  -40.809814 12.882958 16.764372  -0.899722 0.075343 -0.429911  0.863308 0.496078 1 1 1.000000
0  -40.837341 23.673817 18.815186  -0.934036 0.061916 -0.351771  0.851588 0.455061 1 1 1.000000
0  -40.507008 23.604996 18.305923  -0.951564 0.034581 -0.305499  0.854518 0.455061 1 1 1.000000
skin_0dam
0  -40.507008 23.604996 18.305923  -0.951564 0.034581 -0.305499  0.854518 0.455061 1 1 1.000000
0  -40.520771 12.332405 16.365219  -0.704638 0.123494 -0.698738  0.865261 0.498032 1 1 1.000000
0  -40.809814 12.882958 16.764372  -0.899722 0.075343 -0.429911  0.863308 0.496078 1 1 1.000000
skin_0dam
0  -40.837341 13.364695 17.122232  -0.945813 -0.059244 0.319260  0.861354 0.494125 1 1 1.000000
0  -40.851105 23.701344 18.980350  -0.969323 -0.049503 0.240754  0.850612 0.455061 1 1 1.000000
0  -40.837341 23.673817 18.815186  -0.934036 0.061916 -0.351771  0.851588 0.455061 1 1 1.000000
skin_0dam
0  -40.837341 23.673817 18.815186  -0.934036 0.061916 -0.351771  0.851588 0.455061 1 1 1.000000
0  -40.809814 12.882958 16.764372  -0.899722 0.075343 -0.429911  0.863308 0.496078 1 1 1.000000
0  -40.837341 13.364695 17.122232  -0.945813 -0.059244 0.319260  0.861354 0.494125 1 1 1.000000
skin_0dam
0  -40.534534 13.942777 17.535149  -0.670496 -0.137171 0.729122  0.859401 0.492172 1 1 1.000000
0  -40.548298 23.756399 19.407030  -0.914806 -0.090918 0.393527  0.848659 0.455061 1 1 1.000000
0  -40.851105 23.701344 18.980350  -0.969323 -0.049503 0.240754  0.850612 0.455061 1 1 1.000000
skin_0dam
0  -40.851105 23.701344 18.980350  -0.969323 -0.049503 0.240754  0.850612 0.455061 1 1 1.000000
0  -40.837341 13.364695 17.122232  -0.945813 -0.059244 0.319260  0.861354 0.494125 1 1 1.000000
0  -40.534534 13.942777 17.535149  -0.670496 -0.137171 0.729122  0.859401 0.492172 1 1 1.000000
skin_0dam
0  -40.534534 13.942777 17.535149  -0.670496 -0.137171 0.729122  0.859401 0.492172 1 1 1.000000
0  -40.204201 14.465802 17.906771  -0.822516 -0.120504 0.555829  0.856471 0.490219 1 1 1.000000
0  -40.548298 23.756399 19.407030  -0.914806 -0.090918 0.393527  0.848659 0.455061 1 1 1.000000
skin_0dam
0  -40.149147 14.796134 18.154520  -0.971157 -0.073870 0.226709  0.855495 0.488266 1 1 1.000000
0  -40.520771 23.770163 19.544668  -0.993447 -0.054187 0.100630  0.847682 0.455061 1 1 1.000000
0  -40.548298 23.756399 19.407030  -0.914806 -0.090918 0.393527  0.848659 0.455061 1 1 1.000000
skin_0dam
0  -40.548298 23.756399 19.407030  -0.914806 -0.090918 0.393527  0.848659 0.455061 1 1 1.000000
0  -40.204201 14.465802 17.906771  -0.822516 -0.120504 0.555829  0.856471 0.490219 1 1 1.000000
0  -40.149147 14.796134 18.154520  -0.971157 -0.073870 0.226709  0.855495 0.488266 1 1 1.000000
skin_0dam
0  -40.135384 15.195286 18.443562  -0.994468 -0.055860 0.088960  0.853542 0.487289 1 1 1.000000
0  -40.520771 23.797689 19.668543  -0.998580 -0.043732 0.030430  0.846706 0.455061 1 1 1.000000
0  -40.520771 23.770163 19.544668  -0.993447 -0.054187 0.100630  0.847682 0.455061 1 1 1.000000
skin_0dam
0  -40.520771 23.770163 19.544668  -0.993447 -0.054187 0.100630  0.847682 0.455061 1 1 1.000000
0  -40.149147 14.796134 18.154520  -0.971157 -0.073870 0.226709  0.855495 0.488266 1 1 1.000000
0  -40.135384 15.195286 18.443562  -0.994468 -0.055860 0.088960  0.853542 0.487289 1 1 1.000000
skin_0dam
0  -39.832577 9.923732 14.630974  -0.997337 -0.035722 -0.063579  0.875027 0.506821 1 1 1.000000
0  -39.846340 9.923732 14.837433  -0.984918 -0.146715 0.091710  0.874050 0.506821 1 1 1.000000
0  -39.873867 10.391703 15.167765  -0.990516 -0.131599 0.039503  0.872097 0.505844 1 1 1.000000
skin_0dam
0  -39.873867 10.391703 15.167765  -0.990516 -0.131599 0.039503  0.872097 0.505844 1 1 1.000000
0  -39.901394 10.804619 15.264110  -0.997248 -0.038542 -0.063328  0.872097 0.503891 1 1 1.000000
0  -39.832577 9.923732 14.630974  -0.997337 -0.035722 -0.063579  0.875027 0.506821 1 1 1.000000
skin_0dam
0  -39.915161 10.873438 15.525623  -0.938136 -0.014238 -0.345974  0.870144 0.503891 1 1 1.000000
0  -39.942688 11.286352 15.608208  -0.910597 0.042199 -0.411136  0.870144 0.501938 1 1 1.000000
0  -39.901394 10.804619 15.264110  -0.997248 -0.038542 -0.063328  0.872097 0.503891 1 1 1.000000
skin_0dam
0  -39.901394 10.804619 15.264110  -0.997248 -0.038542 -0.063328  0.872097 0.503891 1 1 1.000000
0  -39.873867 10.391703 15.167765  -0.990516 -0.131599 0.039503  0.872097 0.505844 1 1 1.000000
0  -39.915161 10.873438 15.525623  -0.938136 -0.014238 -0.345974  0.870144 0.503891 1 1 1.000000
skin_0dam
0  -40.520771 11.947018 16.296400  -0.777775 0.030878 -0.627784  0.866237 0.499008 1 1 1.000000
0  -40.520771 12.332405 16.365219  -0.704638 0.123494 -0.698738  0.865261 0.498032 1 1 1.000000
0  -39.942688 11.286352 15.608208  -0.910597 0.042199 -0.411136  0.870144 0.501938 1 1 1.000000
skin_0dam
0  -39.942688 11.286352 15.608208  -0.910597 0.042199 -0.411136  0.870144 0.501938 1 1 1.000000
0  -39.915161 10.873438 15.525623  -0.938136 -0.014238 -0.345974  0.870144 0.503891 1 1 1.000000
0  -40.520771 11.947018 16.296400  -0.777775 0.030878 -0.627784  0.866237 0.499008 1 1 1.000000
skin_0dam
0  -40.809814 12.483809 16.695553  -0.959783 -0.056841 -0.274927  0.863308 0.497055 1 1 1.000000
0  -40.809814 12.882958 16.764372  -0.899722 0.075343 -0.429911  0.863308 0.496078 1 1 1.000000
0  -40.520771 12.332405 16.365219  -0.704638 0.123494 -0.698738  0.865261 0.498032 1 1 1.000000
skin_0dam
0  -40.520771 12.332405 16.365219  -0.704638 0.123494 -0.698738  0.865261 0.498032 1 1 1.000000
0  -40.520771 11.947018 16.296400  -0.777775 0.030878 -0.627784  0.866237 0.499008 1 1 1.000000
0  -40.809814 12.483809 16.695553  -0.959783 -0.056841 -0.274927  0.863308 0.497055 1 1 1.000000
skin_0dam
0  -40.837341 12.993070 17.053413  -0.913231 -0.137734 0.383457  0.861354 0.495102 1 1 1.000000
0  -40.837341 13.364695 17.122232  -0.945813 -0.059244 0.319260  0.861354 0.494125 1 1 1.000000
0  -40.809814 12.882958 16.764372  -0.899722 0.075343 -0.429911  0.863308 0.496078 1 1 1.000000
skin_0dam
0  -40.809814 12.882958 16.764372  -0.899722 0.075343 -0.429911  0.863308 0.496078 1 1 1.000000
0  -40.809814 12.483809 16.695553  -0.959783 -0.056841 -0.274927  0.863308 0.497055 1 1 1.000000
0  -40.837341 12.993070 17.053413  -0.913231 -0.137734 0.383457  0.861354 0.495102 1 1 1.000000
skin_0dam
0  -40.534534 13.557388 17.452564  -0.616587 -0.195212 0.762701  0.859401 0.493149 1 1 1.000000
0  -40.534534 13.942777 17.535149  -0.670496 -0.137171 0.729122  0.859401 0.492172 1 1 1.000000
0  -40.837341 13.364695 17.122232  -0.945813 -0.059244 0.319260  0.861354 0.494125 1 1 1.000000
skin_0dam
0  -40.837341 13.364695 17.122232  -0.945813 -0.059244 0.319260  0.861354 0.494125 1 1 1.000000
0  -40.837341 12.993070 17.053413  -0.913231 -0.137734 0.383457  0.861354 0.495102 1 1 1.000000
0  -40.534534 13.557388 17.452564  -0.616587 -0.195212 0.762701  0.859401 0.493149 1 1 1.000000
skin_0dam
0  -40.190437 14.094178 17.851715  -0.726676 -0.209078 0.654392  0.857448 0.491195 1 1 1.000000
0  -40.204201 14.465802 17.906771  -0.822516 -0.120504 0.555829  0.856471 0.490219 1 1 1.000000
0  -40.534534 13.942777 17.535149  -0.670496 -0.137171 0.729122  0.859401 0.492172 1 1 1.000000
skin_0dam
0  -40.534534 13.942777 17.535149  -0.670496 -0.137171 0.729122  0.859401 0.492172 1 1 1.000000
0  -40.534534 13.557388 17.452564  -0.616587 -0.195212 0.762701  0.859401 0.493149 1 1 1.000000
0  -40.190437 14.094178 17.851715  -0.726676 -0.209078 0.654392  0.857448 0.491195 1 1 1.000000
skin_0dam
0  -40.135384 14.438274 18.099464  -0.913496 -0.177038 0.366308  0.855495 0.490219 1 1 1.000000
0  -40.149147 14.796134 18.154520  -0.971157 -0.073870 0.226709  0.855495 0.488266 1 1 1.000000
0  -40.204201 14.465802 17.906771  -0.822516 -0.120504 0.555829  0.856471 0.490219 1 1 1.000000
skin_0dam
0  -40.204201 14.465802 17.906771  -0.822516 -0.120504 0.555829  0.856471 0.490219 1 1 1.000000
0  -40.190437 14.094178 17.851715  -0.726676 -0.209078 0.654392  0.857448 0.491195 1 1 1.000000
0  -40.135384 14.438274 18.099464  -0.913496 -0.177038 0.366308  0.855495 0.490219 1 1 1.000000
skin_0dam
0  -40.135384 14.438274 18.099464  -0.913496 -0.177038 0.366308  0.855495 0.490219 1 1 1.000000
0  -40.121616 14.837427 18.388506  -0.956706 -0.164866 0.239862  0.854518 0.488266 1 1 1.000000
0  -40.135384 15.195286 18.443562  -0.994468 -0.055860 0.088960  0.853542 0.487289 1 1 1.000000
skin_0dam
0  -40.135384 15.195286 18.443562  -0.994468 -0.055860 0.088960  0.853542 0.487289 1 1 1.000000
0  -40.149147 14.796134 18.154520  -0.971157 -0.073870 0.226709  0.855495 0.488266 1 1 1.000000
0  -40.135384 14.438274 18.099464  -0.913496 -0.177038 0.366308  0.855495 0.490219 1 1 1.000000
skin_0dam
0  -40.052799 14.080415 18.044409  -0.815607 -0.268318 0.512631  0.983428 0.508774 1 1 1.000000
0  -40.039036 14.493329 18.333450  -0.873159 -0.266427 0.408180  0.983428 0.500961 1 1 1.000000
0  -40.121616 14.837427 18.388506  -0.956706 -0.164866 0.239862  0.019532 0.499985 1 1 1.000000
skin_0dam
0  -40.121616 14.837427 18.388506  -0.956706 -0.164866 0.239862  0.019532 0.499985 1 1 1.000000
0  -40.135384 14.438274 18.099464  -0.913496 -0.177038 0.366308  0.019532 0.507797 1 1 1.000000
0  -40.052799 14.080415 18.044409  -0.815607 -0.268318 0.512631  0.983428 0.508774 1 1 1.000000
skin_0dam
0  -41.401657 48.847897 25.972385  -0.998980 -0.036165 0.027024  0.811548 0.360332 1 1 1.000000
0  -41.511768 53.871700 21.719358  -0.998906 -0.039103 -0.025629  0.834986 0.341777 1 1 1.000000
0  -41.319077 51.270332 18.168283  -0.999196 -0.028029 -0.028666  0.855495 0.351543 1 1 1.000000
skin_0dam
0  -41.319077 51.270332 18.168283  -0.999196 -0.028029 -0.028666  0.855495 0.351543 1 1 1.000000
0  -41.374130 46.824612 24.224377  -0.999090 -0.041166 0.011198  0.821314 0.368145 1 1 1.000000
0  -41.401657 48.847897 25.972385  -0.998980 -0.036165 0.027024  0.811548 0.360332 1 1 1.000000
black
0  -40.796051 4.046569 4.721003  -0.777121 -0.223197 -0.588444  0.569353 0.199194 1 1 1.000000
0  -40.768517 4.390665 4.376907  -0.787119 -0.541263 -0.295766  0.568377 0.199194 1 1 1.000000
0  -39.777519 4.390665 4.376907  0.000000 -0.961950 -0.273227  0.568377 0.206030 1 1 1.000000
black
0  -39.708702 4.376901 3.275799  0.000000 -0.999828 0.018525  0.568377 0.207007 1 1 1.000000
0  -39.777519 4.390665 4.376907  0.000000 -0.961950 -0.273227  0.568377 0.206030 1 1 1.000000
0  -40.768517 4.390665 4.376907  -0.787119 -0.541263 -0.295766  0.568377 0.199194 1 1 1.000000
black
0  -40.768517 4.390665 4.376907  -0.787119 -0.541263 -0.295766  0.568377 0.199194 1 1 1.000000
0  -40.644642 4.363137 3.055578  -0.709881 -0.680659 -0.181031  0.568377 0.200171 1 1 1.000000
0  -39.708702 4.376901 3.275799  0.000000 -0.999828 0.018525  0.568377 0.207007 1 1 1.000000
black
0  -38.648888 4.170444 0.922181  -0.790930 -0.611256 0.028202  0.569353 0.213843 1 1 1.000000
0  -39.061802 4.335609 1.651665  -0.044468 -0.995140 0.087861  0.568377 0.210913 1 1 1.000000
0  -39.791283 4.335609 1.197458  -0.612202 -0.637565 -0.467675  0.568377 0.206030 1 1 1.000000
black
0  -39.791283 4.335609 1.197458  -0.612202 -0.637565 -0.467675  0.568377 0.206030 1 1 1.000000
0  -38.896633 4.032804 0.633140  -0.858625 -0.329097 -0.393011  0.569353 0.212867 1 1 1.000000
0  -38.648888 4.170444 0.922181  -0.790930 -0.611256 0.028202  0.569353 0.213843 1 1 1.000000
black
0  -39.061802 4.335609 1.651665  -0.044468 -0.995140 0.087861  0.568377 0.210913 1 1 1.000000
0  -39.708702 4.376901 3.275799  0.000000 -0.999828 0.018525  0.568377 0.207007 1 1 1.000000
0  -40.644642 4.363137 3.055578  -0.709881 -0.680659 -0.181031  0.568377 0.200171 1 1 1.000000
black
0  -40.644642 4.363137 3.055578  -0.709881 -0.680659 -0.181031  0.568377 0.200171 1 1 1.000000
0  -39.791283 4.335609 1.197458  -0.612202 -0.637565 -0.467675  0.568377 0.206030 1 1 1.000000
0  -39.061802 4.335609 1.651665  -0.044468 -0.995140 0.087861  0.568377 0.210913 1 1 1.000000
black
0  -39.777519 4.390665 4.376907  0.000000 -0.961950 -0.273227  0.568377 0.206030 1 1 1.000000
0  -40.107853 4.046569 4.721003  -0.644293 -0.277452 -0.712676  0.569353 0.204077 1 1 1.000000
0  -40.796051 4.046569 4.721003  -0.777121 -0.223197 -0.588444  0.569353 0.199194 1 1 1.000000
end
