version 1
nodes
0 "blender_implicit" -1
1 "root" -1
2 "steering_wheel" 1
end
skeleton
time 0
0  0.000000 0.000000 0.000000  0.000000 -0.000000 0.000000
1  0.000000 0.000000 0.000000  1.570796 -0.000000 0.000000
2  0.000004 24.183062 22.214848  0.000000 -0.000002 -0.000002
end
triangles
carbonfibre
0  41.140144 47.815613 27.706621  -0.998514 0.054492 -0.001097  0.252937 0.535142 1 1 1.000000
0  41.291546 49.687496 27.059725  -0.928191 0.182983 0.324003  0.244148 0.531236 1 1 1.000000
0  41.594345 56.142742 24.265663  -0.980134 0.093999 0.174647  0.211921 0.517563 1 1 1.000000
carbonfibre
0  41.594345 56.211559 24.238132  -0.955771 0.261209 -0.135172  0.211921 0.517563 1 1 1.000000
0  40.603348 47.829376 15.649492  -0.993290 0.107432 0.042809  0.252937 0.475570 1 1 1.000000
0  40.823578 41.608116 27.747915  -0.998421 0.045007 0.033613  0.283212 0.535142 1 1 1.000000
carbonfibre
0  41.594345 56.142742 24.265663  -0.980134 0.093999 0.174647  0.211921 0.517563 1 1 1.000000
0  41.594345 56.211559 24.238132  -0.955771 0.261209 -0.135172  0.211921 0.517563 1 1 1.000000
0  40.823578 41.608116 27.747915  -0.998421 0.045007 0.033613  0.283212 0.535142 1 1 1.000000
carbonfibre
0  41.140144 47.815613 27.706621  -0.998514 0.054492 -0.001097  0.252937 0.535142 1 1 1.000000
0  41.594345 56.142742 24.265663  -0.980134 0.093999 0.174647  0.211921 0.517563 1 1 1.000000
0  40.823578 41.608116 27.747915  -0.998421 0.045007 0.033613  0.283212 0.535142 1 1 1.000000
carbonfibre
0  41.140144 47.815613 27.706621  -0.998514 0.054492 -0.001097  0.252937 0.535142 1 1 1.000000
0  40.823578 41.608116 27.747915  -0.998421 0.045007 0.033613  0.283212 0.535142 1 1 1.000000
0  40.961212 44.870152 27.968138  -0.990591 0.050107 -0.127351  0.267586 0.536119 1 1 1.000000
carbonfibre
0  41.236488 51.862183 13.915248  -0.987209 0.149612 -0.055091  0.233406 0.466781 1 1 1.000000
0  41.855858 51.614437 10.006315  0.553306 0.832266 0.034440  0.234382 0.447249 1 1 1.000000
0  41.979733 51.669491 6.730519  -0.737865 0.659275 0.144609  0.234382 0.431623 1 1 1.000000
carbonfibre
0  41.979733 51.669491 6.730519  -0.737865 0.659275 0.144609  0.234382 0.431623 1 1 1.000000
0  41.566818 51.738312 3.454723  -0.073625 0.996733 0.033206  0.233406 0.415021 1 1 1.000000
0  40.727222 51.738312 1.596603  -0.239708 0.940291 0.241645  0.233406 0.406232 1 1 1.000000
carbonfibre
0  40.727222 51.738312 1.596603  -0.239708 0.940291 0.241645  0.233406 0.406232 1 1 1.000000
0  38.855339 51.738312 0.399149  -0.834676 0.502858 0.224610  0.233406 0.400372 1 1 1.000000
0  40.603348 47.829376 15.649492  -0.993290 0.107432 0.042809  0.252937 0.475570 1 1 1.000000
carbonfibre
0  41.979733 51.669491 6.730519  -0.737865 0.659275 0.144609  0.234382 0.431623 1 1 1.000000
0  40.727222 51.738312 1.596603  -0.239708 0.940291 0.241645  0.233406 0.406232 1 1 1.000000
0  40.603348 47.829376 15.649492  -0.993290 0.107432 0.042809  0.252937 0.475570 1 1 1.000000
carbonfibre
0  41.236488 51.862183 13.915248  -0.987209 0.149612 -0.055091  0.233406 0.466781 1 1 1.000000
0  41.979733 51.669491 6.730519  -0.737865 0.659275 0.144609  0.234382 0.431623 1 1 1.000000
0  40.603348 47.829376 15.649492  -0.993290 0.107432 0.042809  0.252937 0.475570 1 1 1.000000
carbonfibre
0  40.080326 13.736323 17.796652  -0.999523 0.025434 0.017535  0.420911 0.486312 1 1 1.000000
0  40.025272 14.080420 18.044401  -0.080466 0.578433 -0.811751  0.418958 0.487289 1 1 1.000000
0  40.011505 14.493335 18.333443  -0.993809 0.017037 -0.109787  0.417005 0.488266 1 1 1.000000
carbonfibre
0  40.011505 14.493335 18.333443  -0.993809 0.017037 -0.109787  0.417005 0.488266 1 1 1.000000
0  40.286785 24.651056 25.793449  -0.999665 0.025804 0.002206  0.367199 0.525376 1 1 1.000000
0  40.548298 34.547264 27.018431  -0.999494 0.023980 0.020912  0.318369 0.531236 1 1 1.000000
carbonfibre
0  40.548298 34.547264 27.018431  -0.999494 0.023980 0.020912  0.318369 0.531236 1 1 1.000000
0  40.823578 41.608116 27.747915  -0.998421 0.045007 0.033613  0.283212 0.535142 1 1 1.000000
0  40.603348 47.829376 15.649492  -0.993290 0.107432 0.042809  0.252937 0.475570 1 1 1.000000
carbonfibre
0  40.011505 14.493335 18.333443  -0.993809 0.017037 -0.109787  0.417005 0.488266 1 1 1.000000
0  40.548298 34.547264 27.018431  -0.999494 0.023980 0.020912  0.318369 0.531236 1 1 1.000000
0  40.603348 47.829376 15.649492  -0.993290 0.107432 0.042809  0.252937 0.475570 1 1 1.000000
carbonfibre
0  40.080326 13.736323 17.796652  -0.999523 0.025434 0.017535  0.420911 0.486312 1 1 1.000000
0  40.011505 14.493335 18.333443  -0.993809 0.017037 -0.109787  0.417005 0.488266 1 1 1.000000
0  40.603348 47.829376 15.649492  -0.993290 0.107432 0.042809  0.252937 0.475570 1 1 1.000000
carbonfibre
0  37.726711 -2.972988 -0.068822  -0.974213 0.140350 0.176665  0.502945 0.397443 1 1 1.000000
0  37.685417 -3.138155 -0.000003  -0.942621 0.283993 0.175536  0.503922 0.398419 1 1 1.000000
0  38.690178 -3.138155 5.409190  -0.993989 0.027382 0.105998  0.503922 0.424787 1 1 1.000000
carbonfibre
0  38.690178 -3.138155 5.409190  -0.993989 0.027382 0.105998  0.503922 0.424787 1 1 1.000000
0  38.703945 -3.083099 5.767050  -0.998981 0.031330 0.032486  0.503922 0.426740 1 1 1.000000
0  40.603348 47.829376 15.649492  -0.993290 0.107432 0.042809  0.252937 0.475570 1 1 1.000000
carbonfibre
0  40.603348 47.829376 15.649492  -0.993290 0.107432 0.042809  0.252937 0.475570 1 1 1.000000
0  38.855339 51.738312 0.399149  -0.834676 0.502858 0.224610  0.233406 0.400372 1 1 1.000000
0  38.497482 31.051245 0.220219  -0.993295 0.020005 0.113865  0.335948 0.399396 1 1 1.000000
carbonfibre
0  40.603348 47.829376 15.649492  -0.993290 0.107432 0.042809  0.252937 0.475570 1 1 1.000000
0  38.497482 31.051245 0.220219  -0.993295 0.020005 0.113865  0.335948 0.399396 1 1 1.000000
0  38.029510 10.364181 0.055053  -0.989688 0.011867 0.142745  0.437513 0.398419 1 1 1.000000
carbonfibre
0  38.690178 -3.138155 5.409190  -0.993989 0.027382 0.105998  0.503922 0.424787 1 1 1.000000
0  40.603348 47.829376 15.649492  -0.993290 0.107432 0.042809  0.252937 0.475570 1 1 1.000000
0  38.029510 10.364181 0.055053  -0.989688 0.011867 0.142745  0.437513 0.398419 1 1 1.000000
carbonfibre
0  38.690178 -3.138155 5.409190  -0.993989 0.027382 0.105998  0.503922 0.424787 1 1 1.000000
0  38.029510 10.364181 0.055053  -0.989688 0.011867 0.142745  0.437513 0.398419 1 1 1.000000
0  37.726711 -2.794059 -0.055058  -0.984340 0.022763 0.174805  0.501968 0.397443 1 1 1.000000
carbonfibre
0  37.726711 -2.972988 -0.068822  -0.974213 0.140350 0.176665  0.502945 0.397443 1 1 1.000000
0  38.690178 -3.138155 5.409190  -0.993989 0.027382 0.105998  0.503922 0.424787 1 1 1.000000
0  37.726711 -2.794059 -0.055058  -0.984340 0.022763 0.174805  0.501968 0.397443 1 1 1.000000
carbonfibre
0  41.718224 57.271378 23.728870  -0.967095 0.207489 -0.147227  0.206061 0.514634 1 1 1.000000
0  41.787041 57.147507 23.591232  -0.013186 0.740713 -0.671692  0.207038 0.514634 1 1 1.000000
0  41.773277 57.037392 23.467358  0.127813 0.747939 -0.651345  0.207038 0.513657 1 1 1.000000
carbonfibre
0  41.718224 57.271378 23.728870  -0.967095 0.207489 -0.147227  0.206061 0.514634 1 1 1.000000
0  41.773277 57.037392 23.467358  0.127813 0.747939 -0.651345  0.207038 0.513657 1 1 1.000000
0  41.621872 54.986576 21.086212  -0.992080 0.122942 -0.025727  0.217780 0.501938 1 1 1.000000
carbonfibre
0  41.484234 53.403736 18.553663  -0.982374 0.180206 -0.049677  0.225593 0.489242 1 1 1.000000
0  41.346600 52.275101 16.048645  -0.986284 0.164946 -0.006014  0.230476 0.477523 1 1 1.000000
0  40.603348 47.829376 15.649492  -0.993290 0.107432 0.042809  0.252937 0.475570 1 1 1.000000
carbonfibre
0  40.603348 47.829376 15.649492  -0.993290 0.107432 0.042809  0.252937 0.475570 1 1 1.000000
0  41.594345 56.211559 24.238132  -0.955771 0.261209 -0.135172  0.211921 0.517563 1 1 1.000000
0  41.718224 56.431782 24.114260  -0.978908 0.177520 -0.101119  0.209967 0.516587 1 1 1.000000
carbonfibre
0  41.484234 53.403736 18.553663  -0.982374 0.180206 -0.049677  0.225593 0.489242 1 1 1.000000
0  40.603348 47.829376 15.649492  -0.993290 0.107432 0.042809  0.252937 0.475570 1 1 1.000000
0  41.718224 56.431782 24.114260  -0.978908 0.177520 -0.101119  0.209967 0.516587 1 1 1.000000
carbonfibre
0  41.621872 54.986576 21.086212  -0.992080 0.122942 -0.025727  0.217780 0.501938 1 1 1.000000
0  41.484234 53.403736 18.553663  -0.982374 0.180206 -0.049677  0.225593 0.489242 1 1 1.000000
0  41.718224 56.431782 24.114260  -0.978908 0.177520 -0.101119  0.209967 0.516587 1 1 1.000000
carbonfibre
0  41.718224 57.271378 23.728870  -0.967095 0.207489 -0.147227  0.206061 0.514634 1 1 1.000000
0  41.621872 54.986576 21.086212  -0.992080 0.122942 -0.025727  0.217780 0.501938 1 1 1.000000
0  41.718224 56.431782 24.114260  -0.978908 0.177520 -0.101119  0.209967 0.516587 1 1 1.000000
carbonfibre
0  41.718224 57.271378 23.728870  -0.967095 0.207489 -0.147227  0.206061 0.514634 1 1 1.000000
0  41.718224 56.431782 24.114260  -0.978908 0.177520 -0.101119  0.209967 0.516587 1 1 1.000000
0  41.718224 56.596947 24.045439  -0.968367 -0.105229 -0.226258  0.209967 0.516587 1 1 1.000000
carbonfibre
0  40.603348 47.829376 15.649492  -0.993290 0.107432 0.042809  0.252937 0.475570 1 1 1.000000
0  39.832577 10.460527 15.429271  -0.987815 0.019318 0.154428  0.436537 0.474593 1 1 1.000000
0  39.970215 12.332411 16.778128  -0.996976 0.020169 0.075053  0.427747 0.480453 1 1 1.000000
carbonfibre
0  39.970215 12.332411 16.778128  -0.996976 0.020169 0.075053  0.427747 0.480453 1 1 1.000000
0  40.080326 13.736323 17.796652  -0.999523 0.025434 0.017535  0.420911 0.486312 1 1 1.000000
0  40.603348 47.829376 15.649492  -0.993290 0.107432 0.042809  0.252937 0.475570 1 1 1.000000
carbonfibre
0  40.603348 47.829376 15.649492  -0.993290 0.107432 0.042809  0.252937 0.475570 1 1 1.000000
0  38.703945 -3.083099 5.767050  -0.998981 0.031330 0.032486  0.503922 0.426740 1 1 1.000000
0  39.763756 9.937501 15.057648  -0.994435 0.020478 0.103342  0.439467 0.472640 1 1 1.000000
carbonfibre
0  39.763756 9.937501 15.057648  -0.994435 0.020478 0.103342  0.439467 0.472640 1 1 1.000000
0  39.832577 10.460527 15.429271  -0.987815 0.019318 0.154428  0.436537 0.474593 1 1 1.000000
0  40.603348 47.829376 15.649492  -0.993290 0.107432 0.042809  0.252937 0.475570 1 1 1.000000
carbonfibre
0  41.236488 51.862183 13.915248  -0.987209 0.149612 -0.055091  0.233406 0.466781 1 1 1.000000
0  40.603348 47.829376 15.649492  -0.993290 0.107432 0.042809  0.252937 0.475570 1 1 1.000000
0  41.346600 52.275101 16.048645  -0.986284 0.164946 -0.006014  0.230476 0.477523 1 1 1.000000
skin_0
0  40.383133 -3.138154 3.014280  -0.002179 -0.999997 0.000998  0.281259 0.465804 1 1 1.000000
0  40.575825 -3.138154 4.610887  0.000120 -0.999996 0.002826  0.298837 0.465804 1 1 1.000000
0  38.690178 -3.138155 5.409190  -0.001436 -0.999998 0.001197  0.307627 0.465804 1 1 1.000000
skin_0
0  40.383133 -3.138154 3.014280  -0.002179 -0.999997 0.000998  0.281259 0.465804 1 1 1.000000
0  38.690178 -3.138155 5.409190  -0.001436 -0.999998 0.001197  0.307627 0.465804 1 1 1.000000
0  37.685417 -3.138155 -0.000003  -0.003234 -0.999994 0.001058  0.248054 0.465804 1 1 1.000000
skin_0
0  40.383133 -3.138154 3.014280  -0.002179 -0.999997 0.000998  0.281259 0.465804 1 1 1.000000
0  37.685417 -3.138155 -0.000003  -0.003234 -0.999994 0.001058  0.248054 0.465804 1 1 1.000000
0  39.543537 -3.138154 1.183688  -0.004992 -0.999984 0.002556  0.261727 0.465804 1 1 1.000000
skin_0
0  40.575825 -3.138154 4.610887  0.000120 -0.999996 0.002826  0.298837 0.465804 1 1 1.000000
0  40.575825 -3.138154 4.803580  0.000700 -0.999991 0.004257  0.300790 0.465804 1 1 1.000000
0  38.690178 -3.138155 5.409190  -0.001436 -0.999998 0.001197  0.307627 0.465804 1 1 1.000000
skin_0
0  40.740990 12.648981 16.984585  0.018914 -0.586125 0.810000  0.432630 0.578112 1 1 1.000000
0  39.970215 12.332411 16.778128  0.018992 -0.586038 0.810061  0.431654 0.577136 1 1 1.000000
0  40.713463 12.139718 16.626726  0.018858 -0.586087 0.810029  0.428724 0.574206 1 1 1.000000
skin_0
0  40.740990 12.648981 16.984585  0.018914 -0.586125 0.810000  0.432630 0.578112 1 1 1.000000
0  40.438187 13.185769 17.383738  0.018947 -0.586125 0.809999  0.437513 0.582018 1 1 1.000000
0  39.970215 12.332411 16.778128  0.018992 -0.586038 0.810061  0.431654 0.577136 1 1 1.000000
skin_0
0  39.970215 12.332411 16.778128  0.018992 -0.586038 0.810061  0.431654 0.577136 1 1 1.000000
0  40.424423 11.589163 16.227573  0.018871 -0.586098 0.810020  0.424818 0.570299 1 1 1.000000
0  40.713463 12.139718 16.626726  0.018858 -0.586087 0.810029  0.428724 0.574206 1 1 1.000000
skin_0
0  39.970215 12.332411 16.778128  0.018992 -0.586038 0.810061  0.431654 0.577136 1 1 1.000000
0  39.832577 10.460527 15.429271  0.018896 -0.586116 0.810007  0.418958 0.565416 1 1 1.000000
0  40.424423 11.589163 16.227573  0.018871 -0.586098 0.810020  0.424818 0.570299 1 1 1.000000
skin_0
0  40.438187 13.185769 17.383738  0.018947 -0.586125 0.809999  0.437513 0.582018 1 1 1.000000
0  40.080326 13.736323 17.796652  0.018983 -0.586127 0.809997  0.441420 0.585925 1 1 1.000000
0  39.970215 12.332411 16.778128  0.018992 -0.586038 0.810061  0.431654 0.577136 1 1 1.000000
skin_0
0  40.369366 31.051245 1.417673  0.754533 -0.009205 -0.656198  0.049806 0.427717 1 1 1.000000
0  41.222721 31.051245 3.275793  0.967758 -0.018662 -0.251189  0.059572 0.427717 1 1 1.000000
0  40.768517 10.364181 3.110626  0.966946 -0.019584 -0.254229  0.058596 0.505844 1 1 1.000000
skin_0
0  40.768517 10.364181 3.110626  0.966946 -0.019584 -0.254229  0.058596 0.505844 1 1 1.000000
0  39.915161 10.364181 1.238743  0.753526 -0.012170 -0.657306  0.048830 0.505844 1 1 1.000000
0  40.369366 31.051245 1.417673  0.754533 -0.009205 -0.656198  0.049806 0.427717 1 1 1.000000
skin_0
0  38.497482 31.051245 0.220219  0.538629 -0.003332 -0.842536  0.042970 0.427717 1 1 1.000000
0  40.369366 31.051245 1.417673  0.754533 -0.009205 -0.656198  0.049806 0.427717 1 1 1.000000
0  39.915161 10.364181 1.238743  0.753526 -0.012170 -0.657306  0.048830 0.505844 1 1 1.000000
skin_0
0  39.915161 10.364181 1.238743  0.753526 -0.012170 -0.657306  0.048830 0.505844 1 1 1.000000
0  38.029510 10.364181 0.055053  0.537915 -0.005555 -0.842981  0.041993 0.505844 1 1 1.000000
0  38.497482 31.051245 0.220219  0.538629 -0.003332 -0.842536  0.042970 0.427717 1 1 1.000000
skin_0
0  40.864868 9.689753 7.088379  0.998004 -0.027744 0.056721  0.081057 0.507797 1 1 1.000000
0  40.961212 10.088904 5.533064  0.999649 -0.024208 -0.010793  0.072268 0.506821 1 1 1.000000
0  41.167671 29.385822 9.263067  0.998546 -0.020426 0.049878  0.093753 0.433576 1 1 1.000000
skin_0
0  41.167671 29.385822 9.263067  0.998546 -0.020426 0.049878  0.093753 0.433576 1 1 1.000000
0  41.153908 28.890322 10.859674  0.999915 -0.011653 0.005779  0.102542 0.435530 1 1 1.000000
0  40.864868 9.689753 7.088379  0.998004 -0.027744 0.056721  0.081057 0.507797 1 1 1.000000
skin_0
0  40.727222 51.738312 1.596603  0.758339 -0.007181 -0.651821  0.050783 0.349590 1 1 1.000000
0  41.566818 51.738312 3.454723  0.962396 -0.013306 -0.271323  0.060549 0.349590 1 1 1.000000
0  41.222721 31.051245 3.275793  0.967758 -0.018662 -0.251189  0.059572 0.427717 1 1 1.000000
skin_0
0  41.222721 31.051245 3.275793  0.967758 -0.018662 -0.251189  0.059572 0.427717 1 1 1.000000
0  40.369366 31.051245 1.417673  0.754533 -0.009205 -0.656198  0.049806 0.427717 1 1 1.000000
0  40.727222 51.738312 1.596603  0.758339 -0.007181 -0.651821  0.050783 0.349590 1 1 1.000000
skin_0
0  40.630878 4.610892 3.055571  0.965595 -0.021453 -0.259162  0.058596 0.527329 1 1 1.000000
0  39.763756 4.583364 1.197452  0.753510 -0.013038 -0.657307  0.047853 0.527329 1 1 1.000000
0  39.915161 10.364181 1.238743  0.753526 -0.012170 -0.657306  0.048830 0.505844 1 1 1.000000
skin_0
0  39.915161 10.364181 1.238743  0.753526 -0.012170 -0.657306  0.048830 0.505844 1 1 1.000000
0  40.768517 10.364181 3.110626  0.966946 -0.019584 -0.254229  0.058596 0.505844 1 1 1.000000
0  40.630878 4.610892 3.055571  0.965595 -0.021453 -0.259162  0.058596 0.527329 1 1 1.000000
skin_0
0  38.855339 51.738312 0.399149  0.537953 -0.002162 -0.842972  0.043947 0.349590 1 1 1.000000
0  40.727222 51.738312 1.596603  0.758339 -0.007181 -0.651821  0.050783 0.349590 1 1 1.000000
0  40.369366 31.051245 1.417673  0.754533 -0.009205 -0.656198  0.049806 0.427717 1 1 1.000000
skin_0
0  40.369366 31.051245 1.417673  0.754533 -0.009205 -0.656198  0.049806 0.427717 1 1 1.000000
0  38.497482 31.051245 0.220219  0.538629 -0.003332 -0.842536  0.042970 0.427717 1 1 1.000000
0  38.855339 51.738312 0.399149  0.537953 -0.002162 -0.842972  0.043947 0.349590 1 1 1.000000
skin_0
0  40.864868 9.689753 7.088379  0.998004 -0.027744 0.056721  0.081057 0.507797 1 1 1.000000
0  40.644642 -2.807822 4.679706  0.998498 -0.021933 -0.050205  0.067385 0.554674 1 1 1.000000
0  40.727226 1.445207 4.913691  0.999420 -0.023828 -0.024326  0.069338 0.539048 1 1 1.000000
skin_0
0  40.864868 9.689753 7.088379  0.998004 -0.027744 0.056721  0.081057 0.507797 1 1 1.000000
0  40.727226 1.445207 4.913691  0.999420 -0.023828 -0.024326  0.069338 0.539048 1 1 1.000000
0  40.796051 4.184213 4.954983  0.999207 -0.021714 -0.033361  0.069338 0.528306 1 1 1.000000
skin_0
0  40.864868 9.689753 7.088379  0.998004 -0.027744 0.056721  0.081057 0.507797 1 1 1.000000
0  40.796051 4.184213 4.954983  0.999207 -0.021714 -0.033361  0.069338 0.528306 1 1 1.000000
0  40.961212 10.088904 5.533064  0.999649 -0.024208 -0.010793  0.072268 0.506821 1 1 1.000000
skin_0
0  40.851105 9.648461 7.267309  0.764940 -0.131271 0.630583  0.082034 0.507797 1 1 1.000000
0  39.350842 9.648461 7.625169  0.797087 -0.144230 0.586387  0.084964 0.507797 1 1 1.000000
0  38.758999 -2.794059 5.505537  0.823868 -0.136770 0.550033  0.072268 0.554674 1 1 1.000000
skin_0
0  38.758999 -2.794059 5.505537  0.823868 -0.136770 0.550033  0.072268 0.554674 1 1 1.000000
0  40.644642 -2.807822 4.872399  0.821048 -0.088234 0.563999  0.069338 0.554674 1 1 1.000000
0  40.851105 9.648461 7.267309  0.764940 -0.131271 0.630583  0.082034 0.507797 1 1 1.000000
skin_0
0  41.153908 28.821505 11.038604  0.799221 -0.131742 0.586422  0.103519 0.435530 1 1 1.000000
0  40.300549 28.821505 11.286352  0.805620 -0.150641 0.572960  0.105472 0.435530 1 1 1.000000
0  39.350842 9.648461 7.625169  0.797087 -0.144230 0.586387  0.084964 0.507797 1 1 1.000000
skin_0
0  39.350842 9.648461 7.625169  0.797087 -0.144230 0.586387  0.084964 0.507797 1 1 1.000000
0  40.851105 9.648461 7.267309  0.764940 -0.131271 0.630583  0.082034 0.507797 1 1 1.000000
0  41.153908 28.821505 11.038604  0.799221 -0.131742 0.586422  0.103519 0.435530 1 1 1.000000
skin_0
0  41.305305 48.008305 15.181522  0.955865 -0.102752 0.275254  0.126957 0.363262 1 1 1.000000
0  41.112610 47.898197 15.401744  0.938184 -0.130253 0.320694  0.128910 0.364238 1 1 1.000000
0  40.300549 28.821505 11.286352  0.805620 -0.150641 0.572960  0.105472 0.435530 1 1 1.000000
skin_0
0  40.300549 28.821505 11.286352  0.805620 -0.150641 0.572960  0.105472 0.435530 1 1 1.000000
0  41.153908 28.821505 11.038604  0.799221 -0.131742 0.586422  0.103519 0.435530 1 1 1.000000
0  41.305305 48.008305 15.181522  0.955865 -0.102752 0.275254  0.126957 0.363262 1 1 1.000000
skin_0
0  41.112610 47.898197 15.401744  0.938184 -0.130253 0.320694  0.128910 0.364238 1 1 1.000000
0  41.305305 48.008305 15.181522  0.955865 -0.102752 0.275254  0.126957 0.363262 1 1 1.000000
0  41.305305 49.701260 15.897243  0.981121 -0.136754 0.136745  0.130863 0.357402 1 1 1.000000
skin_0
0  41.305305 49.701260 15.897243  0.981121 -0.136754 0.136745  0.130863 0.357402 1 1 1.000000
0  41.181431 49.467278 16.034880  0.968914 -0.159522 0.189098  0.131840 0.358379 1 1 1.000000
0  41.112610 47.898197 15.401744  0.938184 -0.130253 0.320694  0.128910 0.364238 1 1 1.000000
skin_0
0  41.979733 51.669491 6.730519  0.998900 -0.020920 -0.041956  0.079104 0.349590 1 1 1.000000
0  41.855858 51.614437 10.006315  0.994355 -0.031124 0.101439  0.097659 0.349590 1 1 1.000000
0  41.442947 30.225418 6.455242  0.999616 -0.026765 0.007137  0.078127 0.430647 1 1 1.000000
skin_0
0  41.442947 30.225418 6.455242  0.999616 -0.026765 0.007137  0.078127 0.430647 1 1 1.000000
0  41.222721 31.051245 3.275793  0.967758 -0.018662 -0.251189  0.059572 0.427717 1 1 1.000000
0  41.979733 51.669491 6.730519  0.998900 -0.020920 -0.041956  0.079104 0.349590 1 1 1.000000
skin_0
0  41.442947 30.225418 6.455242  0.999616 -0.026765 0.007137  0.078127 0.430647 1 1 1.000000
0  41.167671 29.385822 9.263067  0.998546 -0.020426 0.049878  0.093753 0.433576 1 1 1.000000
0  40.961212 10.088904 5.533064  0.999649 -0.024208 -0.010793  0.072268 0.506821 1 1 1.000000
skin_0
0  40.961212 10.088904 5.533064  0.999649 -0.024208 -0.010793  0.072268 0.506821 1 1 1.000000
0  40.768517 10.364181 3.110626  0.966946 -0.019584 -0.254229  0.058596 0.505844 1 1 1.000000
0  41.442947 30.225418 6.455242  0.999616 -0.026765 0.007137  0.078127 0.430647 1 1 1.000000
skin_0
0  41.153908 28.890322 10.859674  0.999915 -0.011653 0.005779  0.102542 0.435530 1 1 1.000000
0  41.167671 29.385822 9.263067  0.998546 -0.020426 0.049878  0.093753 0.433576 1 1 1.000000
0  41.236488 51.862183 13.915248  0.999134 -0.016757 0.038086  0.120121 0.348613 1 1 1.000000
skin_0
0  41.236488 51.862183 13.915248  0.999134 -0.016757 0.038086  0.120121 0.348613 1 1 1.000000
0  41.291542 48.366165 15.071411  0.999074 0.006715 -0.042500  0.126957 0.362285 1 1 1.000000
0  41.153908 28.890322 10.859674  0.999915 -0.011653 0.005779  0.102542 0.435530 1 1 1.000000
skin_0
0  38.786526 -2.560073 5.849633  0.997414 -0.037889 -0.061078  0.074221 0.553697 1 1 1.000000
0  38.758999 -2.794059 5.505537  0.823868 -0.136770 0.550033  0.072268 0.554674 1 1 1.000000
0  39.350842 9.648461 7.625169  0.797087 -0.144230 0.586387  0.084964 0.507797 1 1 1.000000
skin_0
0  39.350842 9.648461 7.625169  0.797087 -0.144230 0.586387  0.084964 0.507797 1 1 1.000000
0  39.364609 9.662225 7.941738  0.997373 -0.036928 -0.062318  0.085940 0.507797 1 1 1.000000
0  38.786526 -2.560073 5.849633  0.997414 -0.037889 -0.061078  0.074221 0.553697 1 1 1.000000
skin_0
0  40.300549 28.821505 11.286352  0.805620 -0.150641 0.572960  0.105472 0.435530 1 1 1.000000
0  40.300549 28.738918 11.561629  0.998468 -0.035800 -0.042202  0.106449 0.436506 1 1 1.000000
0  39.364609 9.662225 7.941738  0.997373 -0.036928 -0.062318  0.085940 0.507797 1 1 1.000000
skin_0
0  39.364609 9.662225 7.941738  0.997373 -0.036928 -0.062318  0.085940 0.507797 1 1 1.000000
0  39.350842 9.648461 7.625169  0.797087 -0.144230 0.586387  0.084964 0.507797 1 1 1.000000
0  40.300549 28.821505 11.286352  0.805620 -0.150641 0.572960  0.105472 0.435530 1 1 1.000000
skin_0
0  41.112610 47.898197 15.401744  0.938184 -0.130253 0.320694  0.128910 0.364238 1 1 1.000000
0  41.112610 47.829376 15.525618  0.999022 -0.035416 -0.026472  0.128910 0.364238 1 1 1.000000
0  40.300549 28.738918 11.561629  0.998468 -0.035800 -0.042202  0.106449 0.436506 1 1 1.000000
skin_0
0  40.300549 28.738918 11.561629  0.998468 -0.035800 -0.042202  0.106449 0.436506 1 1 1.000000
0  40.300549 28.821505 11.286352  0.805620 -0.150641 0.572960  0.105472 0.435530 1 1 1.000000
0  41.112610 47.898197 15.401744  0.938184 -0.130253 0.320694  0.128910 0.364238 1 1 1.000000
skin_0
0  41.112610 47.829376 15.525618  0.999022 -0.035416 -0.026472  0.128910 0.364238 1 1 1.000000
0  41.112610 47.898197 15.401744  0.938184 -0.130253 0.320694  0.128910 0.364238 1 1 1.000000
0  41.181431 49.467278 16.034880  0.968914 -0.159522 0.189098  0.131840 0.358379 1 1 1.000000
skin_0
0  41.181431 49.467278 16.034880  0.968914 -0.159522 0.189098  0.131840 0.358379 1 1 1.000000
0  41.181431 49.357162 16.158756  0.999089 -0.031980 -0.028272  0.132817 0.358379 1 1 1.000000
0  41.112610 47.829376 15.525618  0.999022 -0.035416 -0.026472  0.128910 0.364238 1 1 1.000000
skin_0
0  41.305305 49.783840 15.704548  0.999679 -0.006944 -0.024373  0.129887 0.356426 1 1 1.000000
0  41.291542 48.366165 15.071411  0.999074 0.006715 -0.042500  0.126957 0.362285 1 1 1.000000
0  41.236488 51.862183 13.915248  0.999134 -0.016757 0.038086  0.120121 0.348613 1 1 1.000000
skin_0
0  39.598595 -2.807822 1.128633  0.753504 -0.013018 -0.657314  0.047853 0.554674 1 1 1.000000
0  40.451950 -2.807822 3.000516  0.963525 -0.021360 -0.266764  0.058596 0.554674 1 1 1.000000
0  40.451950 -2.972988 3.000516  0.942776 -0.204301 -0.263504  0.058596 0.555650 1 1 1.000000
skin_0
0  40.451950 -2.972988 3.000516  0.942776 -0.204301 -0.263504  0.058596 0.555650 1 1 1.000000
0  39.598595 -2.972988 1.128633  0.738354 -0.195458 -0.645469  0.047853 0.555650 1 1 1.000000
0  39.598595 -2.807822 1.128633  0.753504 -0.013018 -0.657314  0.047853 0.554674 1 1 1.000000
skin_0
0  37.726711 -2.794059 -0.055058  0.537893 -0.006188 -0.842990  0.041017 0.554674 1 1 1.000000
0  39.598595 -2.807822 1.128633  0.753504 -0.013018 -0.657314  0.047853 0.554674 1 1 1.000000
0  39.598595 -2.972988 1.128633  0.738354 -0.195458 -0.645469  0.047853 0.555650 1 1 1.000000
skin_0
0  39.598595 -2.972988 1.128633  0.738354 -0.195458 -0.645469  0.047853 0.555650 1 1 1.000000
0  37.726711 -2.972988 -0.068822  0.526871 -0.197414 -0.826701  0.041017 0.555650 1 1 1.000000
0  37.726711 -2.794059 -0.055058  0.537893 -0.006188 -0.842990  0.041017 0.554674 1 1 1.000000
skin_0
0  40.644642 -2.807822 4.872399  0.821048 -0.088234 0.563999  0.069338 0.554674 1 1 1.000000
0  38.758999 -2.794059 5.505537  0.823868 -0.136770 0.550033  0.072268 0.554674 1 1 1.000000
0  38.758999 -2.972988 5.478009  0.734892 -0.362838 0.572958  0.072268 0.555650 1 1 1.000000
skin_0
0  38.758999 -2.972988 5.478009  0.734892 -0.362838 0.572958  0.072268 0.555650 1 1 1.000000
0  40.630878 -2.972988 4.858635  0.788808 -0.225412 0.571814  0.069338 0.555650 1 1 1.000000
0  40.644642 -2.807822 4.872399  0.821048 -0.088234 0.563999  0.069338 0.554674 1 1 1.000000
skin_0
0  40.451950 -2.807822 3.000516  0.963525 -0.021360 -0.266764  0.058596 0.554674 1 1 1.000000
0  40.644642 -2.807822 4.679706  0.998498 -0.021933 -0.050205  0.067385 0.554674 1 1 1.000000
0  40.630878 -2.972988 4.665942  0.982545 -0.179334 -0.049453  0.067385 0.555650 1 1 1.000000
skin_0
0  40.630878 -2.972988 4.665942  0.982545 -0.179334 -0.049453  0.067385 0.555650 1 1 1.000000
0  40.451950 -2.972988 3.000516  0.942776 -0.204301 -0.263504  0.058596 0.555650 1 1 1.000000
0  40.451950 -2.807822 3.000516  0.963525 -0.021360 -0.266764  0.058596 0.554674 1 1 1.000000
skin_0
0  38.758999 -2.794059 5.505537  0.823868 -0.136770 0.550033  0.072268 0.554674 1 1 1.000000
0  38.786526 -2.560073 5.849633  0.997414 -0.037889 -0.061078  0.074221 0.553697 1 1 1.000000
0  38.772762 -2.821586 5.808342  0.967236 -0.212543 0.138850  0.074221 0.554674 1 1 1.000000
skin_0
0  38.772762 -2.821586 5.808342  0.967236 -0.212543 0.138850  0.074221 0.554674 1 1 1.000000
0  38.758999 -2.972988 5.478009  0.734892 -0.362838 0.572958  0.072268 0.555650 1 1 1.000000
0  38.758999 -2.794059 5.505537  0.823868 -0.136770 0.550033  0.072268 0.554674 1 1 1.000000
skin_0
0  40.451950 -2.972988 3.000516  0.942776 -0.204301 -0.263504  0.019532 0.905271 1 1 1.000000
0  40.383133 -3.138154 3.014280  0.886562 -0.389981 -0.248842  0.983428 0.904294 1 1 1.000000
0  39.543537 -3.138154 1.183688  0.693023 -0.382961 -0.610786  0.983428 0.956053 1 1 1.000000
skin_0
0  39.543537 -3.138154 1.183688  0.693023 -0.382961 -0.610786  0.983428 0.956053 1 1 1.000000
0  39.598595 -2.972988 1.128633  0.738354 -0.195458 -0.645469  0.019532 0.957030 1 1 1.000000
0  40.451950 -2.972988 3.000516  0.942776 -0.204301 -0.263504  0.019532 0.905271 1 1 1.000000
skin_0
0  39.598595 -2.972988 1.128633  0.738354 -0.195458 -0.645469  0.019532 0.957030 1 1 1.000000
0  39.543537 -3.138154 1.183688  0.693023 -0.382961 -0.610786  0.983428 0.956053 1 1 1.000000
0  37.685417 -3.138155 -0.000003  0.497473 -0.375954 -0.781779  0.983428 0.970702 1 1 1.000000
skin_0
0  37.685417 -3.138155 -0.000003  0.497473 -0.375954 -0.781779  0.983428 0.970702 1 1 1.000000
0  37.726711 -2.972988 -0.068822  0.526871 -0.197414 -0.826701  0.019532 0.972655 1 1 1.000000
0  39.598595 -2.972988 1.128633  0.738354 -0.195458 -0.645469  0.019532 0.957030 1 1 1.000000
skin_0
0  40.575825 -3.138154 4.803580  0.739826 -0.426268 0.520532  0.983428 0.870113 1 1 1.000000
0  40.630878 -2.972988 4.858635  0.788808 -0.225412 0.571814  0.019532 0.866207 1 1 1.000000
0  38.758999 -2.972988 5.478009  0.734892 -0.362838 0.572958  0.019532 0.836909 1 1 1.000000
skin_0
0  38.758999 -2.972988 5.478009  0.734892 -0.362838 0.572958  0.019532 0.836909 1 1 1.000000
0  38.690178 -3.138155 5.409190  0.651350 -0.471899 0.594184  0.983428 0.837886 1 1 1.000000
0  40.575825 -3.138154 4.803580  0.739826 -0.426268 0.520532  0.983428 0.870113 1 1 1.000000
skin_0
0  40.451950 -2.972988 3.000516  0.942776 -0.204301 -0.263504  0.019532 0.905271 1 1 1.000000
0  40.630878 -2.972988 4.665942  0.982545 -0.179334 -0.049453  0.019532 0.874020 1 1 1.000000
0  40.575825 -3.138154 4.610887  0.940566 -0.333398 -0.064664  0.983428 0.874996 1 1 1.000000
skin_0
0  40.575825 -3.138154 4.610887  0.940566 -0.333398 -0.064664  0.983428 0.874996 1 1 1.000000
0  40.383133 -3.138154 3.014280  0.886562 -0.389981 -0.248842  0.983428 0.904294 1 1 1.000000
0  40.451950 -2.972988 3.000516  0.942776 -0.204301 -0.263504  0.019532 0.905271 1 1 1.000000
skin_0
0  38.772762 -2.821586 5.808342  0.967236 -0.212543 0.138850  0.019532 0.828120 1 1 1.000000
0  38.703945 -3.083099 5.767050  0.946441 -0.308101 0.096554  0.983428 0.828120 1 1 1.000000
0  38.690178 -3.138155 5.409190  0.651350 -0.471899 0.594184  0.983428 0.837886 1 1 1.000000
skin_0
0  38.690178 -3.138155 5.409190  0.651350 -0.471899 0.594184  0.983428 0.837886 1 1 1.000000
0  38.758999 -2.972988 5.478009  0.734892 -0.362838 0.572958  0.019532 0.836909 1 1 1.000000
0  38.772762 -2.821586 5.808342  0.967236 -0.212543 0.138850  0.019532 0.828120 1 1 1.000000
skin_0
0  41.153908 28.890322 10.859674  0.999915 -0.011653 0.005779  0.102542 0.435530 1 1 1.000000
0  41.153908 28.821505 11.038604  0.799221 -0.131742 0.586422  0.103519 0.435530 1 1 1.000000
0  40.851105 9.648461 7.267309  0.764940 -0.131271 0.630583  0.082034 0.507797 1 1 1.000000
skin_0
0  40.851105 9.648461 7.267309  0.764940 -0.131271 0.630583  0.082034 0.507797 1 1 1.000000
0  40.864868 9.689753 7.088379  0.998004 -0.027744 0.056721  0.081057 0.507797 1 1 1.000000
0  41.153908 28.890322 10.859674  0.999915 -0.011653 0.005779  0.102542 0.435530 1 1 1.000000
skin_0
0  40.644642 -2.807822 4.872399  0.821048 -0.088234 0.563999  0.069338 0.554674 1 1 1.000000
0  40.644642 -2.807822 4.679706  0.998498 -0.021933 -0.050205  0.067385 0.554674 1 1 1.000000
0  40.864868 9.689753 7.088379  0.998004 -0.027744 0.056721  0.081057 0.507797 1 1 1.000000
skin_0
0  40.864868 9.689753 7.088379  0.998004 -0.027744 0.056721  0.081057 0.507797 1 1 1.000000
0  40.851105 9.648461 7.267309  0.764940 -0.131271 0.630583  0.082034 0.507797 1 1 1.000000
0  40.644642 -2.807822 4.872399  0.821048 -0.088234 0.563999  0.069338 0.554674 1 1 1.000000
skin_0
0  41.291542 48.366165 15.071411  0.999074 0.006715 -0.042500  0.126957 0.362285 1 1 1.000000
0  41.305305 48.008305 15.181522  0.955865 -0.102752 0.275254  0.126957 0.363262 1 1 1.000000
0  41.153908 28.821505 11.038604  0.799221 -0.131742 0.586422  0.103519 0.435530 1 1 1.000000
skin_0
0  41.153908 28.821505 11.038604  0.799221 -0.131742 0.586422  0.103519 0.435530 1 1 1.000000
0  41.153908 28.890322 10.859674  0.999915 -0.011653 0.005779  0.102542 0.435530 1 1 1.000000
0  41.291542 48.366165 15.071411  0.999074 0.006715 -0.042500  0.126957 0.362285 1 1 1.000000
skin_0
0  41.305305 49.783840 15.704548  0.999679 -0.006944 -0.024373  0.129887 0.356426 1 1 1.000000
0  41.305305 49.701260 15.897243  0.981121 -0.136754 0.136745  0.130863 0.357402 1 1 1.000000
0  41.305305 48.008305 15.181522  0.955865 -0.102752 0.275254  0.126957 0.363262 1 1 1.000000
skin_0
0  41.305305 48.008305 15.181522  0.955865 -0.102752 0.275254  0.126957 0.363262 1 1 1.000000
0  41.291542 48.366165 15.071411  0.999074 0.006715 -0.042500  0.126957 0.362285 1 1 1.000000
0  41.305305 49.783840 15.704548  0.999679 -0.006944 -0.024373  0.129887 0.356426 1 1 1.000000
skin_0
0  40.644642 -2.807822 4.679706  0.998498 -0.021933 -0.050205  0.067385 0.554674 1 1 1.000000
0  40.644642 -2.807822 4.872399  0.821048 -0.088234 0.563999  0.069338 0.554674 1 1 1.000000
0  40.630878 -2.972988 4.858635  0.788808 -0.225412 0.571814  0.069338 0.555650 1 1 1.000000
skin_0
0  40.630878 -2.972988 4.858635  0.788808 -0.225412 0.571814  0.069338 0.555650 1 1 1.000000
0  40.630878 -2.972988 4.665942  0.982545 -0.179334 -0.049453  0.067385 0.555650 1 1 1.000000
0  40.644642 -2.807822 4.679706  0.998498 -0.021933 -0.050205  0.067385 0.554674 1 1 1.000000
skin_0
0  40.630878 -2.972988 4.665942  0.982545 -0.179334 -0.049453  0.019532 0.874020 1 1 1.000000
0  40.630878 -2.972988 4.858635  0.788808 -0.225412 0.571814  0.019532 0.866207 1 1 1.000000
0  40.575825 -3.138154 4.803580  0.739826 -0.426268 0.520532  0.983428 0.870113 1 1 1.000000
skin_0
0  40.575825 -3.138154 4.803580  0.739826 -0.426268 0.520532  0.983428 0.870113 1 1 1.000000
0  40.575825 -3.138154 4.610887  0.940566 -0.333398 -0.064664  0.983428 0.874996 1 1 1.000000
0  40.630878 -2.972988 4.665942  0.982545 -0.179334 -0.049453  0.019532 0.874020 1 1 1.000000
skin_0
0  39.956451 4.376907 3.206974  0.946233 0.215687 -0.241085  0.059572 0.528306 1 1 1.000000
0  40.052799 4.390671 4.376901  0.975020 0.221430 -0.017432  0.066408 0.528306 1 1 1.000000
0  40.713463 1.541554 4.679706  0.990195 0.039425 -0.134010  0.067385 0.539048 1 1 1.000000
skin_0
0  40.713463 1.541554 4.679706  0.990195 0.039425 -0.134010  0.067385 0.539048 1 1 1.000000
0  40.548298 1.541554 3.028044  0.961214 0.095358 -0.258796  0.058596 0.539048 1 1 1.000000
0  39.956451 4.376907 3.206974  0.946233 0.215687 -0.241085  0.059572 0.528306 1 1 1.000000
skin_0
0  39.226967 4.335615 1.527784  0.803543 0.210005 -0.556971  0.049806 0.528306 1 1 1.000000
0  39.956451 4.376907 3.206974  0.946233 0.215687 -0.241085  0.059572 0.528306 1 1 1.000000
0  40.548298 1.541554 3.028044  0.961214 0.095358 -0.258796  0.058596 0.539048 1 1 1.000000
skin_0
0  40.548298 1.541554 3.028044  0.961214 0.095358 -0.258796  0.058596 0.539048 1 1 1.000000
0  39.694939 1.541554 1.169924  0.756488 0.086175 -0.648305  0.047853 0.539048 1 1 1.000000
0  39.226967 4.335615 1.527784  0.803543 0.210005 -0.556971  0.049806 0.528306 1 1 1.000000
skin_0
0  38.029510 10.364181 0.055053  0.537915 -0.005555 -0.842981  0.041993 0.505844 1 1 1.000000
0  39.915161 10.364181 1.238743  0.753526 -0.012170 -0.657306  0.048830 0.505844 1 1 1.000000
0  39.763756 4.583364 1.197452  0.753510 -0.013038 -0.657307  0.047853 0.527329 1 1 1.000000
skin_0
0  38.621361 4.170449 0.922175  0.790929 -0.611258 0.028197  0.046876 0.528306 1 1 1.000000
0  38.786526 4.225504 1.087341  0.656778 0.169625 -0.734758  0.047853 0.528306 1 1 1.000000
0  38.800289 1.541554 0.605606  0.558932 0.032861 -0.828562  0.044923 0.539048 1 1 1.000000
skin_0
0  40.548298 1.541554 3.028044  0.961214 0.095358 -0.258796  0.058596 0.539048 1 1 1.000000
0  40.713463 1.541554 4.679706  0.990195 0.039425 -0.134010  0.067385 0.539048 1 1 1.000000
0  40.644642 -2.807822 4.679706  0.998498 -0.021933 -0.050205  0.067385 0.554674 1 1 1.000000
skin_0
0  40.644642 -2.807822 4.679706  0.998498 -0.021933 -0.050205  0.067385 0.554674 1 1 1.000000
0  40.451950 -2.807822 3.000516  0.963525 -0.021360 -0.266764  0.058596 0.554674 1 1 1.000000
0  40.548298 1.541554 3.028044  0.961214 0.095358 -0.258796  0.058596 0.539048 1 1 1.000000
skin_0
0  39.694939 1.541554 1.169924  0.756488 0.086175 -0.648305  0.047853 0.539048 1 1 1.000000
0  40.548298 1.541554 3.028044  0.961214 0.095358 -0.258796  0.058596 0.539048 1 1 1.000000
0  40.451950 -2.807822 3.000516  0.963525 -0.021360 -0.266764  0.058596 0.554674 1 1 1.000000
skin_0
0  40.451950 -2.807822 3.000516  0.963525 -0.021360 -0.266764  0.058596 0.554674 1 1 1.000000
0  39.598595 -2.807822 1.128633  0.753504 -0.013018 -0.657314  0.047853 0.554674 1 1 1.000000
0  39.694939 1.541554 1.169924  0.756488 0.086175 -0.648305  0.047853 0.539048 1 1 1.000000
skin_0
0  38.593834 1.472735 0.481732  0.537929 -0.006212 -0.842967  0.043947 0.539048 1 1 1.000000
0  38.800289 1.541554 0.605606  0.558932 0.032861 -0.828562  0.044923 0.539048 1 1 1.000000
0  39.598595 -2.807822 1.128633  0.753504 -0.013018 -0.657314  0.047853 0.554674 1 1 1.000000
skin_0
0  39.598595 -2.807822 1.128633  0.753504 -0.013018 -0.657314  0.047853 0.554674 1 1 1.000000
0  37.726711 -2.794059 -0.055058  0.537893 -0.006188 -0.842990  0.041017 0.554674 1 1 1.000000
0  38.593834 1.472735 0.481732  0.537929 -0.006212 -0.842967  0.043947 0.539048 1 1 1.000000
skin_0
0  40.754753 4.638420 4.459484  0.995722 -0.020786 -0.090035  0.066408 0.527329 1 1 1.000000
0  40.961212 10.088904 5.533064  0.999649 -0.024208 -0.010793  0.072268 0.506821 1 1 1.000000
0  40.796051 4.184213 4.954983  0.999207 -0.021714 -0.033361  0.069338 0.528306 1 1 1.000000
skin_0
0  40.754753 4.638420 4.459484  0.995722 -0.020786 -0.090035  0.066408 0.527329 1 1 1.000000
0  40.630878 4.610892 3.055571  0.965595 -0.021453 -0.259162  0.058596 0.527329 1 1 1.000000
0  40.768517 10.364181 3.110626  0.966946 -0.019584 -0.254229  0.058596 0.505844 1 1 1.000000
skin_0
0  40.768517 10.364181 3.110626  0.966946 -0.019584 -0.254229  0.058596 0.505844 1 1 1.000000
0  40.961212 10.088904 5.533064  0.999649 -0.024208 -0.010793  0.072268 0.506821 1 1 1.000000
0  40.754753 4.638420 4.459484  0.995722 -0.020786 -0.090035  0.066408 0.527329 1 1 1.000000
skin_0
0  38.621361 4.211740 0.467968  0.538049 -0.006265 -0.842890  0.043947 0.528306 1 1 1.000000
0  38.593834 1.472735 0.481732  0.537929 -0.006212 -0.842967  0.043947 0.539048 1 1 1.000000
0  37.726711 -2.794059 -0.055058  0.537893 -0.006188 -0.842990  0.041017 0.554674 1 1 1.000000
skin_0
0  37.726711 -2.794059 -0.055058  0.537893 -0.006188 -0.842990  0.041017 0.554674 1 1 1.000000
0  38.029510 10.364181 0.055053  0.537915 -0.005555 -0.842981  0.041993 0.505844 1 1 1.000000
0  38.621361 4.211740 0.467968  0.538049 -0.006265 -0.842890  0.043947 0.528306 1 1 1.000000
skin_0
0  38.621361 4.211740 0.467968  0.538049 -0.006265 -0.842890  0.043947 0.528306 1 1 1.000000
0  38.029510 10.364181 0.055053  0.537915 -0.005555 -0.842981  0.041993 0.505844 1 1 1.000000
0  39.763756 4.583364 1.197452  0.753510 -0.013038 -0.657307  0.047853 0.527329 1 1 1.000000
skin_0
0  39.763756 4.583364 1.197452  0.753510 -0.013038 -0.657307  0.047853 0.527329 1 1 1.000000
0  40.630878 4.610892 3.055571  0.965595 -0.021453 -0.259162  0.058596 0.527329 1 1 1.000000
0  40.617115 4.363143 3.055571  0.709841 -0.680703 -0.181023  0.058596 0.528306 1 1 1.000000
skin_0
0  40.617115 4.363143 3.055571  0.709841 -0.680703 -0.181023  0.058596 0.528306 1 1 1.000000
0  39.763756 4.335615 1.197452  0.612205 -0.637565 -0.467671  0.047853 0.528306 1 1 1.000000
0  39.763756 4.583364 1.197452  0.753510 -0.013038 -0.657307  0.047853 0.527329 1 1 1.000000
skin_0
0  40.768517 4.046575 4.720997  0.777082 -0.223155 -0.588512  0.068361 0.529283 1 1 1.000000
0  40.796051 4.184213 4.954983  0.999207 -0.021714 -0.033361  0.069338 0.528306 1 1 1.000000
0  40.727226 1.445207 4.913691  0.999420 -0.023828 -0.024326  0.069338 0.539048 1 1 1.000000
skin_0
0  40.727226 1.445207 4.913691  0.999420 -0.023828 -0.024326  0.069338 0.539048 1 1 1.000000
0  40.713463 1.541554 4.679706  0.990195 0.039425 -0.134010  0.067385 0.539048 1 1 1.000000
0  40.768517 4.046575 4.720997  0.777082 -0.223155 -0.588512  0.068361 0.529283 1 1 1.000000
skin_0
0  40.740990 4.390671 4.376901  0.787132 -0.541219 -0.295814  0.066408 0.528306 1 1 1.000000
0  40.754753 4.638420 4.459484  0.995722 -0.020786 -0.090035  0.066408 0.527329 1 1 1.000000
0  40.796051 4.184213 4.954983  0.999207 -0.021714 -0.033361  0.069338 0.528306 1 1 1.000000
skin_0
0  40.796051 4.184213 4.954983  0.999207 -0.021714 -0.033361  0.069338 0.528306 1 1 1.000000
0  40.768517 4.046575 4.720997  0.777082 -0.223155 -0.588512  0.068361 0.529283 1 1 1.000000
0  40.740990 4.390671 4.376901  0.787132 -0.541219 -0.295814  0.066408 0.528306 1 1 1.000000
skin_0
0  40.630878 4.610892 3.055571  0.965595 -0.021453 -0.259162  0.058596 0.527329 1 1 1.000000
0  40.754753 4.638420 4.459484  0.995722 -0.020786 -0.090035  0.066408 0.527329 1 1 1.000000
0  40.740990 4.390671 4.376901  0.787132 -0.541219 -0.295814  0.066408 0.528306 1 1 1.000000
skin_0
0  40.740990 4.390671 4.376901  0.787132 -0.541219 -0.295814  0.066408 0.528306 1 1 1.000000
0  40.617115 4.363143 3.055571  0.709841 -0.680703 -0.181023  0.058596 0.528306 1 1 1.000000
0  40.630878 4.610892 3.055571  0.965595 -0.021453 -0.259162  0.058596 0.527329 1 1 1.000000
skin_0
0  38.621361 4.211740 0.467968  0.538049 -0.006265 -0.842890  0.043947 0.528306 1 1 1.000000
0  38.869106 4.032810 0.633134  0.858653 -0.329068 -0.392974  0.044923 0.529283 1 1 1.000000
0  38.800289 1.541554 0.605606  0.558932 0.032861 -0.828562  0.044923 0.539048 1 1 1.000000
skin_0
0  38.800289 1.541554 0.605606  0.558932 0.032861 -0.828562  0.044923 0.539048 1 1 1.000000
0  38.593834 1.472735 0.481732  0.537929 -0.006212 -0.842967  0.043947 0.539048 1 1 1.000000
0  38.621361 4.211740 0.467968  0.538049 -0.006265 -0.842890  0.043947 0.528306 1 1 1.000000
skin_0
0  39.763756 4.583364 1.197452  0.753510 -0.013038 -0.657307  0.047853 0.527329 1 1 1.000000
0  39.763756 4.335615 1.197452  0.612205 -0.637565 -0.467671  0.047853 0.528306 1 1 1.000000
0  38.869106 4.032810 0.633134  0.858653 -0.329068 -0.392974  0.044923 0.529283 1 1 1.000000
skin_0
0  38.869106 4.032810 0.633134  0.858653 -0.329068 -0.392974  0.044923 0.529283 1 1 1.000000
0  38.621361 4.211740 0.467968  0.538049 -0.006265 -0.842890  0.043947 0.528306 1 1 1.000000
0  39.763756 4.583364 1.197452  0.753510 -0.013038 -0.657307  0.047853 0.527329 1 1 1.000000
skin_0
0  38.621361 4.170449 0.922175  0.790929 -0.611258 0.028197  0.046876 0.528306 1 1 1.000000
0  38.800289 1.541554 0.605606  0.558932 0.032861 -0.828562  0.044923 0.539048 1 1 1.000000
0  38.869106 4.032810 0.633134  0.858653 -0.329068 -0.392974  0.044923 0.529283 1 1 1.000000
skin_0
0  40.080326 4.046575 4.720997  0.644282 -0.277463 -0.712681  0.068361 0.529283 1 1 1.000000
0  40.768517 4.046575 4.720997  0.777082 -0.223155 -0.588512  0.068361 0.529283 1 1 1.000000
0  40.713463 1.541554 4.679706  0.990195 0.039425 -0.134010  0.067385 0.539048 1 1 1.000000
skin_0
0  39.694939 1.541554 1.169924  0.756488 0.086175 -0.648305  0.047853 0.539048 1 1 1.000000
0  38.800289 1.541554 0.605606  0.558932 0.032861 -0.828562  0.044923 0.539048 1 1 1.000000
0  38.786526 4.225504 1.087341  0.656778 0.169625 -0.734758  0.047853 0.528306 1 1 1.000000
skin_0
0  38.786526 4.225504 1.087341  0.656778 0.169625 -0.734758  0.047853 0.528306 1 1 1.000000
0  39.226967 4.335615 1.527784  0.803543 0.210005 -0.556971  0.049806 0.528306 1 1 1.000000
0  39.694939 1.541554 1.169924  0.756488 0.086175 -0.648305  0.047853 0.539048 1 1 1.000000
skin_0
0  38.800289 1.541554 0.605606  0.558932 0.032861 -0.828562  0.044923 0.539048 1 1 1.000000
0  39.694939 1.541554 1.169924  0.756488 0.086175 -0.648305  0.047853 0.539048 1 1 1.000000
0  39.598595 -2.807822 1.128633  0.753504 -0.013018 -0.657314  0.047853 0.554674 1 1 1.000000
skin_0
0  40.052799 4.390671 4.376901  0.975020 0.221430 -0.017432  0.066408 0.528306 1 1 1.000000
0  40.080326 4.046575 4.720997  0.644282 -0.277463 -0.712681  0.068361 0.529283 1 1 1.000000
0  40.713463 1.541554 4.679706  0.990195 0.039425 -0.134010  0.067385 0.539048 1 1 1.000000
skin_0
0  40.713463 1.541554 4.679706  0.990195 0.039425 -0.134010  0.067385 0.539048 1 1 1.000000
0  40.727226 1.445207 4.913691  0.999420 -0.023828 -0.024326  0.069338 0.539048 1 1 1.000000
0  40.644642 -2.807822 4.679706  0.998498 -0.021933 -0.050205  0.067385 0.554674 1 1 1.000000
skin_0
0  40.768517 10.364181 3.110626  0.966946 -0.019584 -0.254229  0.058596 0.505844 1 1 1.000000
0  41.222721 31.051245 3.275793  0.967758 -0.018662 -0.251189  0.059572 0.427717 1 1 1.000000
0  41.442947 30.225418 6.455242  0.999616 -0.026765 0.007137  0.078127 0.430647 1 1 1.000000
skin_0
0  41.167671 29.385822 9.263067  0.998546 -0.020426 0.049878  0.093753 0.433576 1 1 1.000000
0  41.442947 30.225418 6.455242  0.999616 -0.026765 0.007137  0.078127 0.430647 1 1 1.000000
0  41.855858 51.614437 10.006315  0.994355 -0.031124 0.101439  0.097659 0.349590 1 1 1.000000
skin_0
0  41.855858 51.614437 10.006315  0.994355 -0.031124 0.101439  0.097659 0.349590 1 1 1.000000
0  41.236488 51.862183 13.915248  0.999134 -0.016757 0.038086  0.120121 0.348613 1 1 1.000000
0  41.167671 29.385822 9.263067  0.998546 -0.020426 0.049878  0.093753 0.433576 1 1 1.000000
skin_0
0  41.222721 31.051245 3.275793  0.967758 -0.018662 -0.251189  0.059572 0.427717 1 1 1.000000
0  41.566818 51.738312 3.454723  0.962396 -0.013306 -0.271323  0.060549 0.349590 1 1 1.000000
0  41.979733 51.669491 6.730519  0.998900 -0.020920 -0.041956  0.079104 0.349590 1 1 1.000000
skin_0
0  41.484234 53.403736 18.553663  0.998875 -0.024506 -0.040606  0.146489 0.342753 1 1 1.000000
0  41.415417 51.752075 17.796652  0.999009 -0.023290 -0.037937  0.141606 0.349590 1 1 1.000000
0  41.346600 52.275101 16.048645  0.998942 -0.012297 -0.044316  0.131840 0.347636 1 1 1.000000
skin_0
0  41.415417 51.752075 17.796652  0.999009 -0.023290 -0.037937  0.141606 0.349590 1 1 1.000000
0  41.621872 54.339680 21.444073  0.998842 -0.023798 -0.041821  0.163091 0.339824 1 1 1.000000
0  41.621872 54.174515 21.540419  0.974756 -0.199743 0.099765  0.163091 0.339824 1 1 1.000000
skin_0
0  41.621872 54.174515 21.540419  0.974756 -0.199743 0.099765  0.163091 0.339824 1 1 1.000000
0  41.415417 51.600674 17.934292  0.981359 -0.172438 0.084849  0.142582 0.349590 1 1 1.000000
0  41.415417 51.752075 17.796652  0.999009 -0.023290 -0.037937  0.141606 0.349590 1 1 1.000000
skin_0
0  41.621872 54.339680 21.444073  0.998842 -0.023798 -0.041821  0.163091 0.339824 1 1 1.000000
0  41.773277 56.349201 23.783926  0.998666 -0.022286 -0.046569  0.175787 0.332011 1 1 1.000000
0  41.773277 56.184032 23.866510  0.972394 -0.202649 0.115687  0.176763 0.332987 1 1 1.000000
skin_0
0  41.773277 56.184032 23.866510  0.972394 -0.202649 0.115687  0.176763 0.332987 1 1 1.000000
0  41.621872 54.174515 21.540419  0.974756 -0.199743 0.099765  0.163091 0.339824 1 1 1.000000
0  41.621872 54.339680 21.444073  0.998842 -0.023798 -0.041821  0.163091 0.339824 1 1 1.000000
skin_0
0  41.346600 52.275101 16.048645  0.998942 -0.012297 -0.044316  0.131840 0.347636 1 1 1.000000
0  41.415417 51.752075 17.796652  0.999009 -0.023290 -0.037937  0.141606 0.349590 1 1 1.000000
0  41.305305 49.783840 15.704548  0.999679 -0.006944 -0.024373  0.129887 0.356426 1 1 1.000000
skin_0
0  41.305305 49.783840 15.704548  0.999679 -0.006944 -0.024373  0.129887 0.356426 1 1 1.000000
0  41.236488 51.862183 13.915248  0.999134 -0.016757 0.038086  0.120121 0.348613 1 1 1.000000
0  41.346600 52.275101 16.048645  0.998942 -0.012297 -0.044316  0.131840 0.347636 1 1 1.000000
skin_0
0  41.621872 54.174515 21.540419  0.974756 -0.199743 0.099765  0.163091 0.339824 1 1 1.000000
0  41.484234 53.940525 21.691820  0.976086 -0.195346 0.095372  0.164068 0.340800 1 1 1.000000
0  41.291542 51.366688 18.085693  0.978245 -0.182961 0.097782  0.143559 0.350566 1 1 1.000000
skin_0
0  41.291542 51.366688 18.085693  0.978245 -0.182961 0.097782  0.143559 0.350566 1 1 1.000000
0  41.415417 51.600674 17.934292  0.981359 -0.172438 0.084849  0.142582 0.349590 1 1 1.000000
0  41.621872 54.174515 21.540419  0.974756 -0.199743 0.099765  0.163091 0.339824 1 1 1.000000
skin_0
0  41.635635 55.963814 24.004147  0.969202 -0.213226 0.123217  0.176763 0.333964 1 1 1.000000
0  41.484234 53.940525 21.691820  0.976086 -0.195346 0.095372  0.164068 0.340800 1 1 1.000000
0  41.621872 54.174515 21.540419  0.974756 -0.199743 0.099765  0.163091 0.339824 1 1 1.000000
skin_0
0  41.621872 54.174515 21.540419  0.974756 -0.199743 0.099765  0.163091 0.339824 1 1 1.000000
0  41.773277 56.184032 23.866510  0.972394 -0.202649 0.115687  0.176763 0.332987 1 1 1.000000
0  41.635635 55.963814 24.004147  0.969202 -0.213226 0.123217  0.176763 0.333964 1 1 1.000000
skin_0
0  41.181431 49.467278 16.034880  0.968914 -0.159522 0.189098  0.131840 0.358379 1 1 1.000000
0  41.305305 49.701260 15.897243  0.981121 -0.136754 0.136745  0.130863 0.357402 1 1 1.000000
0  41.415417 51.600674 17.934292  0.981359 -0.172438 0.084849  0.142582 0.349590 1 1 1.000000
skin_0
0  41.415417 51.600674 17.934292  0.981359 -0.172438 0.084849  0.142582 0.349590 1 1 1.000000
0  41.291542 51.366688 18.085693  0.978245 -0.182961 0.097782  0.143559 0.350566 1 1 1.000000
0  41.181431 49.467278 16.034880  0.968914 -0.159522 0.189098  0.131840 0.358379 1 1 1.000000
skin_0
0  40.520771 23.756407 19.407022  0.914788 -0.090922 0.393568  0.151372 0.455061 1 1 1.000000
0  40.906158 34.836304 20.976101  0.999436 -0.033548 0.001296  0.160161 0.413068 1 1 1.000000
0  40.493244 23.770170 19.544661  0.993458 -0.054171 0.100537  0.152348 0.455061 1 1 1.000000
skin_0
0  40.906158 34.836304 20.976101  0.999436 -0.033548 0.001296  0.160161 0.413068 1 1 1.000000
0  40.479481 23.687588 18.182039  0.998198 -0.031683 -0.050953  0.144536 0.455061 1 1 1.000000
0  40.300549 28.738918 11.561629  0.998468 -0.035800 -0.042202  0.106449 0.436506 1 1 1.000000
skin_0
0  40.906158 34.836304 20.976101  0.999436 -0.033548 0.001296  0.160161 0.413068 1 1 1.000000
0  40.809814 23.673824 18.815178  0.934018 0.061928 -0.351817  0.147465 0.455061 1 1 1.000000
0  40.479481 23.605003 18.305916  0.951646 0.034507 -0.305254  0.144536 0.455061 1 1 1.000000
skin_0
0  40.906158 34.836304 20.976101  0.999436 -0.033548 0.001296  0.160161 0.413068 1 1 1.000000
0  40.823578 23.701351 18.980343  0.969323 -0.049501 0.240755  0.148442 0.455061 1 1 1.000000
0  40.809814 23.673824 18.815178  0.934018 0.061928 -0.351817  0.147465 0.455061 1 1 1.000000
skin_0
0  40.906158 34.836304 20.976101  0.999436 -0.033548 0.001296  0.160161 0.413068 1 1 1.000000
0  40.520771 23.756407 19.407022  0.914788 -0.090922 0.393568  0.151372 0.455061 1 1 1.000000
0  40.823578 23.701351 18.980343  0.969323 -0.049501 0.240755  0.148442 0.455061 1 1 1.000000
skin_0
0  40.493244 23.770170 19.544661  0.993458 -0.054171 0.100537  0.152348 0.455061 1 1 1.000000
0  40.906158 34.836304 20.976101  0.999436 -0.033548 0.001296  0.160161 0.413068 1 1 1.000000
0  40.493244 23.797697 19.668535  0.998556 -0.045014 0.029322  0.152348 0.455061 1 1 1.000000
skin_0
0  40.479481 23.687588 18.182039  0.998198 -0.031683 -0.050953  0.144536 0.455061 1 1 1.000000
0  40.906158 34.836304 20.976101  0.999436 -0.033548 0.001296  0.160161 0.413068 1 1 1.000000
0  40.479481 23.605003 18.305916  0.951646 0.034507 -0.305254  0.144536 0.455061 1 1 1.000000
skin_0
0  40.906158 34.836304 20.976101  0.999436 -0.033548 0.001296  0.160161 0.413068 1 1 1.000000
0  40.630878 34.561028 26.688099  0.998232 -0.037481 0.046123  0.192389 0.414045 1 1 1.000000
0  40.369370 24.719877 25.435589  0.998825 -0.039390 0.028243  0.185553 0.451155 1 1 1.000000
skin_0
0  40.369370 24.719877 25.435589  0.998825 -0.039390 0.028243  0.185553 0.451155 1 1 1.000000
0  40.493244 23.797697 19.668535  0.998556 -0.045014 0.029322  0.152348 0.455061 1 1 1.000000
0  40.906158 34.836304 20.976101  0.999436 -0.033548 0.001296  0.160161 0.413068 1 1 1.000000
skin_0
0  41.291542 51.366688 18.085693  0.978245 -0.182961 0.097782  0.143559 0.350566 1 1 1.000000
0  41.291542 51.270340 18.168276  0.999112 -0.028819 -0.030737  0.144536 0.351543 1 1 1.000000
0  41.181431 49.357162 16.158756  0.999089 -0.031980 -0.028272  0.132817 0.358379 1 1 1.000000
skin_0
0  41.181431 49.357162 16.158756  0.999089 -0.031980 -0.028272  0.132817 0.358379 1 1 1.000000
0  41.181431 49.467278 16.034880  0.968914 -0.159522 0.189098  0.131840 0.358379 1 1 1.000000
0  41.291542 51.366688 18.085693  0.978245 -0.182961 0.097782  0.143559 0.350566 1 1 1.000000
skin_0
0  41.195198 44.003029 22.641527  0.999137 -0.041518 -0.000835  0.169927 0.378887 1 1 1.000000
0  41.181431 49.357162 16.158756  0.999089 -0.031980 -0.028272  0.132817 0.358379 1 1 1.000000
0  41.291542 51.270340 18.168276  0.999112 -0.028819 -0.030737  0.144536 0.351543 1 1 1.000000
skin_0
0  41.291542 51.270340 18.168276  0.999112 -0.028819 -0.030737  0.144536 0.351543 1 1 1.000000
0  41.346603 46.824619 24.224369  0.998999 -0.043645 0.009782  0.178716 0.368145 1 1 1.000000
0  41.195198 44.003029 22.641527  0.999137 -0.041518 -0.000835  0.169927 0.378887 1 1 1.000000
skin_0
0  41.484234 53.940525 21.691820  0.976086 -0.195346 0.095372  0.164068 0.340800 1 1 1.000000
0  41.484234 53.871708 21.719351  0.999007 -0.034866 -0.027729  0.164068 0.341777 1 1 1.000000
0  41.291542 51.270340 18.168276  0.999112 -0.028819 -0.030737  0.144536 0.351543 1 1 1.000000
skin_0
0  41.291542 51.270340 18.168276  0.999112 -0.028819 -0.030737  0.144536 0.351543 1 1 1.000000
0  41.291542 51.366688 18.085693  0.978245 -0.182961 0.097782  0.143559 0.350566 1 1 1.000000
0  41.484234 53.940525 21.691820  0.976086 -0.195346 0.095372  0.164068 0.340800 1 1 1.000000
skin_0
0  41.635635 55.963814 24.004147  0.969202 -0.213226 0.123217  0.176763 0.333964 1 1 1.000000
0  41.635635 55.908760 24.031675  0.998501 -0.049902 -0.022494  0.177740 0.333964 1 1 1.000000
0  41.484234 53.871708 21.719351  0.999007 -0.034866 -0.027729  0.164068 0.341777 1 1 1.000000
skin_0
0  41.484234 53.871708 21.719351  0.999007 -0.034866 -0.027729  0.164068 0.341777 1 1 1.000000
0  41.484234 53.940525 21.691820  0.976086 -0.195346 0.095372  0.164068 0.340800 1 1 1.000000
0  41.635635 55.963814 24.004147  0.969202 -0.213226 0.123217  0.176763 0.333964 1 1 1.000000
skin_0
0  41.415417 51.752075 17.796652  0.999009 -0.023290 -0.037937  0.141606 0.349590 1 1 1.000000
0  41.415417 51.600674 17.934292  0.981359 -0.172438 0.084849  0.142582 0.349590 1 1 1.000000
0  41.305305 49.701260 15.897243  0.981121 -0.136754 0.136745  0.130863 0.357402 1 1 1.000000
skin_0
0  41.305305 49.701260 15.897243  0.981121 -0.136754 0.136745  0.130863 0.357402 1 1 1.000000
0  41.305305 49.783840 15.704548  0.999679 -0.006944 -0.024373  0.129887 0.356426 1 1 1.000000
0  41.415417 51.752075 17.796652  0.999009 -0.023290 -0.037937  0.141606 0.349590 1 1 1.000000
skin_0
0  41.621872 54.339680 21.444073  0.998842 -0.023798 -0.041821  0.163091 0.339824 1 1 1.000000
0  41.415417 51.752075 17.796652  0.999009 -0.023290 -0.037937  0.141606 0.349590 1 1 1.000000
0  41.484234 53.403736 18.553663  0.998875 -0.024506 -0.040606  0.146489 0.342753 1 1 1.000000
skin_0
0  41.484234 53.403736 18.553663  0.998875 -0.024506 -0.040606  0.146489 0.342753 1 1 1.000000
0  41.621872 54.986576 21.086212  0.998836 -0.023105 -0.042336  0.160161 0.336894 1 1 1.000000
0  41.621872 54.339680 21.444073  0.998842 -0.023798 -0.041821  0.163091 0.339824 1 1 1.000000
skin_0
0  41.773277 56.349201 23.783926  0.998666 -0.022286 -0.046569  0.175787 0.332011 1 1 1.000000
0  41.621872 54.339680 21.444073  0.998842 -0.023798 -0.041821  0.163091 0.339824 1 1 1.000000
0  41.621872 54.986576 21.086212  0.998836 -0.023105 -0.042336  0.160161 0.336894 1 1 1.000000
skin_0
0  41.621872 54.986576 21.086212  0.998836 -0.023105 -0.042336  0.160161 0.336894 1 1 1.000000
0  41.773277 57.037392 23.467358  0.998700 -0.021775 -0.046079  0.173833 0.329081 1 1 1.000000
0  41.773277 56.349201 23.783926  0.998666 -0.022286 -0.046569  0.175787 0.332011 1 1 1.000000
skin_0
0  41.787041 56.307903 23.990383  0.956535 -0.107239 0.271185  0.176763 0.332011 1 1 1.000000
0  41.773277 56.184032 23.866510  0.972394 -0.202649 0.115687  0.176763 0.332987 1 1 1.000000
0  41.773277 56.349201 23.783926  0.998666 -0.022286 -0.046569  0.175787 0.332011 1 1 1.000000
skin_0
0  41.773277 56.349201 23.783926  0.998666 -0.022286 -0.046569  0.175787 0.332011 1 1 1.000000
0  41.787041 56.473072 23.907801  0.990356 0.058300 0.125682  0.176763 0.332011 1 1 1.000000
0  41.787041 56.307903 23.990383  0.956535 -0.107239 0.271185  0.176763 0.332011 1 1 1.000000
skin_0
0  41.649399 56.073921 24.128023  0.944533 -0.115903 0.307285  0.177740 0.332987 1 1 1.000000
0  41.635635 55.963814 24.004147  0.969202 -0.213226 0.123217  0.176763 0.333964 1 1 1.000000
0  41.773277 56.184032 23.866510  0.972394 -0.202649 0.115687  0.176763 0.332987 1 1 1.000000
skin_0
0  41.773277 56.184032 23.866510  0.972394 -0.202649 0.115687  0.176763 0.332987 1 1 1.000000
0  41.787041 56.307903 23.990383  0.956535 -0.107239 0.271185  0.176763 0.332011 1 1 1.000000
0  41.649399 56.073921 24.128023  0.944533 -0.115903 0.307285  0.177740 0.332987 1 1 1.000000
skin_0
0  40.369370 24.664820 25.628283  0.965300 -0.127711 0.227786  0.186529 0.451155 1 1 1.000000
0  40.369370 24.719877 25.435589  0.998825 -0.039390 0.028243  0.185553 0.451155 1 1 1.000000
0  40.630878 34.561028 26.688099  0.998232 -0.037481 0.046123  0.192389 0.414045 1 1 1.000000
skin_0
0  40.630878 34.561028 26.688099  0.998232 -0.037481 0.046123  0.192389 0.414045 1 1 1.000000
0  40.630878 34.547264 26.867029  0.968796 -0.059307 0.240659  0.193365 0.414045 1 1 1.000000
0  40.369370 24.664820 25.628283  0.965300 -0.127711 0.227786  0.186529 0.451155 1 1 1.000000
skin_0
0  41.649399 56.018867 24.155550  0.988064 0.022132 0.152446  0.177740 0.332987 1 1 1.000000
0  41.635635 55.908760 24.031675  0.998501 -0.049902 -0.022494  0.177740 0.333964 1 1 1.000000
0  41.635635 55.963814 24.004147  0.969202 -0.213226 0.123217  0.176763 0.333964 1 1 1.000000
skin_0
0  41.635635 55.963814 24.004147  0.969202 -0.213226 0.123217  0.176763 0.333964 1 1 1.000000
0  41.649399 56.073921 24.128023  0.944533 -0.115903 0.307285  0.177740 0.332987 1 1 1.000000
0  41.649399 56.018867 24.155550  0.988064 0.022132 0.152446  0.177740 0.332987 1 1 1.000000
skin_0
0  41.787041 56.473072 23.907801  0.990356 0.058300 0.125682  0.176763 0.332011 1 1 1.000000
0  41.773277 56.349201 23.783926  0.998666 -0.022286 -0.046569  0.175787 0.332011 1 1 1.000000
0  41.773277 57.037392 23.467358  0.998700 -0.021775 -0.046079  0.173833 0.329081 1 1 1.000000
skin_0
0  41.773277 57.037392 23.467358  0.998700 -0.021775 -0.046079  0.173833 0.329081 1 1 1.000000
0  41.787041 57.147507 23.591232  0.984604 0.073408 0.158636  0.174810 0.329081 1 1 1.000000
0  41.787041 56.473072 23.907801  0.990356 0.058300 0.125682  0.176763 0.332011 1 1 1.000000
skin_0
0  41.787041 56.473072 23.907801  0.990356 0.058300 0.125682  0.015625 0.936522 1 1 1.000000
0  41.718224 56.596947 24.045439  0.946150 0.135051 0.294213  0.984405 0.940428 1 1 1.000000
0  41.718224 56.431782 24.114260  0.908755 0.011638 0.417168  0.984405 0.935545 1 1 1.000000
skin_0
0  41.718224 56.431782 24.114260  0.908755 0.011638 0.417168  0.984405 0.935545 1 1 1.000000
0  41.787041 56.307903 23.990383  0.956535 -0.107239 0.271185  0.015625 0.932615 1 1 1.000000
0  41.787041 56.473072 23.907801  0.990356 0.058300 0.125682  0.015625 0.936522 1 1 1.000000
skin_0
0  41.787041 56.307903 23.990383  0.956535 -0.107239 0.271185  0.009766 0.932615 1 1 1.000000
0  41.718224 56.431782 24.114260  0.908755 0.011638 0.417168  0.984405 0.935545 1 1 1.000000
0  41.594345 56.211559 24.238132  0.880112 -0.044914 0.472636  0.984405 0.929685 1 1 1.000000
skin_0
0  41.594345 56.211559 24.238132  0.880112 -0.044914 0.472636  0.984405 0.929685 1 1 1.000000
0  41.649399 56.073921 24.128023  0.944533 -0.115903 0.307285  0.009766 0.925779 1 1 1.000000
0  41.787041 56.307903 23.990383  0.956535 -0.107239 0.271185  0.009766 0.932615 1 1 1.000000
skin_0
0  40.630878 34.547264 26.867029  0.968796 -0.059307 0.240659  0.015625 0.342753 1 1 1.000000
0  40.548298 34.547264 27.018431  0.902885 -0.077724 0.422796  0.984405 0.342753 1 1 1.000000
0  40.286785 24.651056 25.793449  0.913052 -0.161653 0.374437  0.984405 0.074190 1 1 1.000000
skin_0
0  40.286785 24.651056 25.793449  0.913052 -0.161653 0.374437  0.984405 0.074190 1 1 1.000000
0  40.369370 24.664820 25.628283  0.965300 -0.127711 0.227786  0.015625 0.075167 1 1 1.000000
0  40.630878 34.547264 26.867029  0.968796 -0.059307 0.240659  0.015625 0.342753 1 1 1.000000
skin_0
0  41.649399 56.073921 24.128023  0.944533 -0.115903 0.307285  0.009766 0.925779 1 1 1.000000
0  41.594345 56.211559 24.238132  0.880112 -0.044914 0.472636  0.984405 0.929685 1 1 1.000000
0  41.594345 56.142742 24.265663  0.942165 0.107053 0.317592  0.984405 0.928709 1 1 1.000000
skin_0
0  41.594345 56.142742 24.265663  0.942165 0.107053 0.317592  0.984405 0.928709 1 1 1.000000
0  41.649399 56.018867 24.155550  0.988064 0.022132 0.152446  0.009766 0.924802 1 1 1.000000
0  41.649399 56.073921 24.128023  0.944533 -0.115903 0.307285  0.009766 0.925779 1 1 1.000000
skin_0
0  41.787041 57.147507 23.591232  0.984604 0.073408 0.158636  0.015625 0.955077 1 1 1.000000
0  41.718224 57.271378 23.728870  0.945995 0.136372 0.294102  0.984405 0.958983 1 1 1.000000
0  41.718224 56.596947 24.045439  0.946150 0.135051 0.294213  0.984405 0.940428 1 1 1.000000
skin_0
0  41.718224 56.596947 24.045439  0.946150 0.135051 0.294213  0.984405 0.940428 1 1 1.000000
0  41.787041 56.473072 23.907801  0.990356 0.058300 0.125682  0.015625 0.936522 1 1 1.000000
0  41.787041 57.147507 23.591232  0.984604 0.073408 0.158636  0.015625 0.955077 1 1 1.000000
skin_0
0  41.222725 47.719269 27.376291  0.996714 -0.056429 0.058112  0.196295 0.364238 1 1 1.000000
0  41.374130 48.847904 25.972378  0.998631 -0.041403 0.031969  0.188482 0.360332 1 1 1.000000
0  41.374130 49.618679 26.729391  0.998242 -0.039090 0.044554  0.192389 0.357402 1 1 1.000000
skin_0
0  41.635635 55.908760 24.031675  0.998501 -0.049902 -0.022494  0.177740 0.333964 1 1 1.000000
0  41.374130 49.618679 26.729391  0.998242 -0.039090 0.044554  0.192389 0.357402 1 1 1.000000
0  41.374130 48.847904 25.972378  0.998631 -0.041403 0.031969  0.188482 0.360332 1 1 1.000000
skin_0
0  41.374130 48.847904 25.972378  0.998631 -0.041403 0.031969  0.188482 0.360332 1 1 1.000000
0  41.484234 53.871708 21.719351  0.999007 -0.034866 -0.027729  0.164068 0.341777 1 1 1.000000
0  41.635635 55.908760 24.031675  0.998501 -0.049902 -0.022494  0.177740 0.333964 1 1 1.000000
skin_0
0  41.112610 47.829376 15.525618  0.999022 -0.035416 -0.026472  0.128910 0.364238 1 1 1.000000
0  41.181431 49.357162 16.158756  0.999089 -0.031980 -0.028272  0.132817 0.358379 1 1 1.000000
0  41.195198 44.003029 22.641527  0.999137 -0.041518 -0.000835  0.169927 0.378887 1 1 1.000000
skin_0
0  41.112610 47.829376 15.525618  0.999022 -0.035416 -0.026472  0.128910 0.364238 1 1 1.000000
0  41.195198 44.003029 22.641527  0.999137 -0.041518 -0.000835  0.169927 0.378887 1 1 1.000000
0  40.906158 34.836304 20.976101  0.999436 -0.033548 0.001296  0.160161 0.413068 1 1 1.000000
skin_0
0  40.906158 34.836304 20.976101  0.999436 -0.033548 0.001296  0.160161 0.413068 1 1 1.000000
0  40.300549 28.738918 11.561629  0.998468 -0.035800 -0.042202  0.106449 0.436506 1 1 1.000000
0  41.112610 47.829376 15.525618  0.999022 -0.035416 -0.026472  0.128910 0.364238 1 1 1.000000
skin_0
0  41.346603 46.824619 24.224369  0.998999 -0.043645 0.009782  0.178716 0.368145 1 1 1.000000
0  41.043797 44.870152 27.637804  0.996848 -0.050878 0.060865  0.197272 0.374981 1 1 1.000000
0  40.906158 41.635643 27.431345  0.997705 -0.046936 0.048814  0.196295 0.387677 1 1 1.000000
skin_0
0  40.906158 41.635643 27.431345  0.997705 -0.046936 0.048814  0.196295 0.387677 1 1 1.000000
0  41.195198 44.003029 22.641527  0.999137 -0.041518 -0.000835  0.169927 0.378887 1 1 1.000000
0  41.346603 46.824619 24.224369  0.998999 -0.043645 0.009782  0.178716 0.368145 1 1 1.000000
skin_0
0  41.222725 47.719269 27.376291  0.996714 -0.056429 0.058112  0.196295 0.364238 1 1 1.000000
0  41.374130 49.618679 26.729391  0.998242 -0.039090 0.044554  0.192389 0.357402 1 1 1.000000
0  41.360367 49.646206 26.894558  0.971936 0.031481 0.233131  0.193365 0.357402 1 1 1.000000
skin_0
0  41.360367 49.646206 26.894558  0.971936 0.031481 0.233131  0.193365 0.357402 1 1 1.000000
0  41.222725 47.760559 27.541454  0.965423 -0.011878 0.260418  0.197272 0.364238 1 1 1.000000
0  41.222725 47.719269 27.376291  0.996714 -0.056429 0.058112  0.196295 0.364238 1 1 1.000000
skin_0
0  41.374130 49.618679 26.729391  0.998242 -0.039090 0.044554  0.192389 0.357402 1 1 1.000000
0  41.635635 55.908760 24.031675  0.998501 -0.049902 -0.022494  0.177740 0.333964 1 1 1.000000
0  41.649399 56.018867 24.155550  0.988064 0.022132 0.152446  0.177740 0.332987 1 1 1.000000
skin_0
0  41.649399 56.018867 24.155550  0.988064 0.022132 0.152446  0.177740 0.332987 1 1 1.000000
0  41.360367 49.646206 26.894558  0.971936 0.031481 0.233131  0.193365 0.357402 1 1 1.000000
0  41.374130 49.618679 26.729391  0.998242 -0.039090 0.044554  0.192389 0.357402 1 1 1.000000
skin_0
0  40.906158 41.635643 27.431345  0.997705 -0.046936 0.048814  0.196295 0.387677 1 1 1.000000
0  40.906158 41.621880 27.596512  0.965805 -0.060619 0.252083  0.197272 0.387677 1 1 1.000000
0  40.630878 34.547264 26.867029  0.968796 -0.059307 0.240659  0.193365 0.414045 1 1 1.000000
skin_0
0  40.630878 34.547264 26.867029  0.968796 -0.059307 0.240659  0.193365 0.414045 1 1 1.000000
0  40.630878 34.561028 26.688099  0.998232 -0.037481 0.046123  0.192389 0.414045 1 1 1.000000
0  40.906158 41.635643 27.431345  0.997705 -0.046936 0.048814  0.196295 0.387677 1 1 1.000000
skin_0
0  40.906158 41.635643 27.431345  0.997705 -0.046936 0.048814  0.196295 0.387677 1 1 1.000000
0  41.043797 44.870152 27.637804  0.996848 -0.050878 0.060865  0.197272 0.374981 1 1 1.000000
0  41.043797 44.870152 27.802971  0.962930 -0.046918 0.265641  0.198248 0.374981 1 1 1.000000
skin_0
0  41.043797 44.870152 27.802971  0.962930 -0.046918 0.265641  0.198248 0.374981 1 1 1.000000
0  40.906158 41.621880 27.596512  0.965805 -0.060619 0.252083  0.197272 0.387677 1 1 1.000000
0  40.906158 41.635643 27.431345  0.997705 -0.046936 0.048814  0.196295 0.387677 1 1 1.000000
skin_0
0  41.043797 44.870152 27.637804  0.996848 -0.050878 0.060865  0.197272 0.374981 1 1 1.000000
0  41.222725 47.719269 27.376291  0.996714 -0.056429 0.058112  0.196295 0.364238 1 1 1.000000
0  41.222725 47.760559 27.541454  0.965423 -0.011878 0.260418  0.197272 0.364238 1 1 1.000000
skin_0
0  41.222725 47.760559 27.541454  0.965423 -0.011878 0.260418  0.197272 0.364238 1 1 1.000000
0  41.043797 44.870152 27.802971  0.962930 -0.046918 0.265641  0.198248 0.374981 1 1 1.000000
0  41.043797 44.870152 27.637804  0.996848 -0.050878 0.060865  0.197272 0.374981 1 1 1.000000
skin_0
0  41.360367 49.646206 26.894558  0.971936 0.031481 0.233131  0.008789 0.827143 1 1 1.000000
0  41.291546 49.687496 27.059725  0.912300 0.094818 0.398394  0.984405 0.741203 1 1 1.000000
0  41.140144 47.815613 27.706621  0.905417 0.028327 0.423576  0.984405 0.702139 1 1 1.000000
skin_0
0  41.140144 47.815613 27.706621  0.905417 0.028327 0.423576  0.984405 0.702139 1 1 1.000000
0  41.222725 47.760559 27.541454  0.965423 -0.011878 0.260418  0.008789 0.702139 1 1 1.000000
0  41.360367 49.646206 26.894558  0.971936 0.031481 0.233131  0.008789 0.827143 1 1 1.000000
skin_0
0  41.649399 56.018867 24.155550  0.988064 0.022132 0.152446  0.008789 0.925779 1 1 1.000000
0  41.594345 56.142742 24.265663  0.942165 0.107053 0.317592  0.984405 0.928709 1 1 1.000000
0  41.291546 49.687496 27.059725  0.912300 0.094818 0.398394  0.984405 0.741203 1 1 1.000000
skin_0
0  41.291546 49.687496 27.059725  0.912300 0.094818 0.398394  0.984405 0.741203 1 1 1.000000
0  41.360367 49.646206 26.894558  0.971936 0.031481 0.233131  0.008789 0.827143 1 1 1.000000
0  41.649399 56.018867 24.155550  0.988064 0.022132 0.152446  0.008789 0.925779 1 1 1.000000
skin_0
0  40.906158 41.621880 27.596512  0.965805 -0.060619 0.252083  0.015625 0.534166 1 1 1.000000
0  40.823578 41.608116 27.747915  0.898394 -0.073214 0.433044  0.984405 0.534166 1 1 1.000000
0  40.548298 34.547264 27.018431  0.902885 -0.077724 0.422796  0.984405 0.342753 1 1 1.000000
skin_0
0  40.548298 34.547264 27.018431  0.902885 -0.077724 0.422796  0.984405 0.342753 1 1 1.000000
0  40.630878 34.547264 26.867029  0.968796 -0.059307 0.240659  0.015625 0.342753 1 1 1.000000
0  40.906158 41.621880 27.596512  0.965805 -0.060619 0.252083  0.015625 0.534166 1 1 1.000000
skin_0
0  41.043797 44.870152 27.802971  0.962930 -0.046918 0.265641  0.015625 0.622059 1 1 1.000000
0  40.961212 44.870152 27.968138  0.897379 -0.041261 0.439327  0.984405 0.622059 1 1 1.000000
0  40.823578 41.608116 27.747915  0.898394 -0.073214 0.433044  0.984405 0.534166 1 1 1.000000
skin_0
0  40.823578 41.608116 27.747915  0.898394 -0.073214 0.433044  0.984405 0.534166 1 1 1.000000
0  40.906158 41.621880 27.596512  0.965805 -0.060619 0.252083  0.015625 0.534166 1 1 1.000000
0  41.043797 44.870152 27.802971  0.962930 -0.046918 0.265641  0.015625 0.622059 1 1 1.000000
skin_0
0  41.222725 47.760559 27.541454  0.965423 -0.011878 0.260418  0.015625 0.701163 1 1 1.000000
0  41.140144 47.815613 27.706621  0.905417 0.028327 0.423576  0.984405 0.702139 1 1 1.000000
0  40.961212 44.870152 27.968138  0.897379 -0.041261 0.439327  0.984405 0.622059 1 1 1.000000
skin_0
0  40.961212 44.870152 27.968138  0.897379 -0.041261 0.439327  0.984405 0.622059 1 1 1.000000
0  41.043797 44.870152 27.802971  0.962930 -0.046918 0.265641  0.015625 0.622059 1 1 1.000000
0  41.222725 47.760559 27.541454  0.965423 -0.011878 0.260418  0.015625 0.701163 1 1 1.000000
skin_0
0  41.043797 44.870152 27.637804  0.996848 -0.050878 0.060865  0.197272 0.374981 1 1 1.000000
0  41.346603 46.824619 24.224369  0.998999 -0.043645 0.009782  0.178716 0.368145 1 1 1.000000
0  41.374130 48.847904 25.972378  0.998631 -0.041403 0.031969  0.188482 0.360332 1 1 1.000000
skin_0
0  41.374130 48.847904 25.972378  0.998631 -0.041403 0.031969  0.188482 0.360332 1 1 1.000000
0  41.222725 47.719269 27.376291  0.996714 -0.056429 0.058112  0.196295 0.364238 1 1 1.000000
0  41.043797 44.870152 27.637804  0.996848 -0.050878 0.060865  0.197272 0.374981 1 1 1.000000
skin_0
0  41.195198 44.003029 22.641527  0.999137 -0.041518 -0.000835  0.169927 0.378887 1 1 1.000000
0  40.906158 41.635643 27.431345  0.997705 -0.046936 0.048814  0.196295 0.387677 1 1 1.000000
0  40.630878 34.561028 26.688099  0.998232 -0.037481 0.046123  0.192389 0.414045 1 1 1.000000
skin_0
0  40.630878 34.561028 26.688099  0.998232 -0.037481 0.046123  0.192389 0.414045 1 1 1.000000
0  40.906158 34.836304 20.976101  0.999436 -0.033548 0.001296  0.160161 0.413068 1 1 1.000000
0  41.195198 44.003029 22.641527  0.999137 -0.041518 -0.000835  0.169927 0.378887 1 1 1.000000
skin_0
0  40.782280 12.483814 16.695545  0.959781 -0.056833 -0.274939  0.019532 0.551744 1 1 1.000000
0  40.809814 12.993075 17.053406  0.913236 -0.137743 0.383440  0.019532 0.541978 1 1 1.000000
0  40.740990 12.648981 16.984585  0.897535 -0.246060 0.365904  0.983428 0.542955 1 1 1.000000
skin_0
0  40.740990 12.648981 16.984585  0.897535 -0.246060 0.365904  0.983428 0.542955 1 1 1.000000
0  40.713463 12.139718 16.626726  0.889986 -0.090708 -0.446874  0.983428 0.552721 1 1 1.000000
0  40.782280 12.483814 16.695545  0.959781 -0.056833 -0.274939  0.019532 0.551744 1 1 1.000000
skin_0
0  39.364609 9.662225 7.941738  0.997373 -0.036928 -0.062318  0.085940 0.507797 1 1 1.000000
0  39.805050 9.923738 14.630968  0.997339 -0.035685 -0.063578  0.124027 0.506821 1 1 1.000000
0  38.786526 -2.560073 5.849633  0.997414 -0.037889 -0.061078  0.074221 0.553697 1 1 1.000000
skin_0
0  39.887630 10.873444 15.525618  0.938138 -0.014227 -0.345970  0.019532 0.575182 1 1 1.000000
0  40.493244 11.947023 16.296392  0.777685 0.030850 -0.627897  0.019532 0.559557 1 1 1.000000
0  40.424423 11.589163 16.227573  0.830476 -0.056507 -0.554181  0.983428 0.560533 1 1 1.000000
skin_0
0  40.424423 11.589163 16.227573  0.830476 -0.056507 -0.554181  0.983428 0.560533 1 1 1.000000
0  39.832577 10.460527 15.429271  0.988880 -0.148711 0.001114  0.983428 0.570299 1 1 1.000000
0  39.887630 10.873444 15.525618  0.938138 -0.014227 -0.345970  0.019532 0.575182 1 1 1.000000
skin_0
0  40.493244 11.947023 16.296392  0.777685 0.030850 -0.627897  0.019532 0.559557 1 1 1.000000
0  40.782280 12.483814 16.695545  0.959781 -0.056833 -0.274939  0.019532 0.551744 1 1 1.000000
0  40.713463 12.139718 16.626726  0.889986 -0.090708 -0.446874  0.983428 0.552721 1 1 1.000000
skin_0
0  40.713463 12.139718 16.626726  0.889986 -0.090708 -0.446874  0.983428 0.552721 1 1 1.000000
0  40.424423 11.589163 16.227573  0.830476 -0.056507 -0.554181  0.983428 0.560533 1 1 1.000000
0  40.493244 11.947023 16.296392  0.777685 0.030850 -0.627897  0.019532 0.559557 1 1 1.000000
skin_0
0  40.025272 14.080420 18.044401  0.815603 -0.268325 0.512634  0.983428 0.508774 1 1 1.000000
0  40.080326 13.736323 17.796652  0.588075 -0.257826 0.766612  0.983428 0.515610 1 1 1.000000
0  40.162910 14.094184 17.851707  0.726712 -0.209086 0.654349  0.019532 0.514634 1 1 1.000000
skin_0
0  40.162910 14.094184 17.851707  0.726712 -0.209086 0.654349  0.019532 0.514634 1 1 1.000000
0  40.107853 14.438280 18.099457  0.913464 -0.176864 0.366473  0.019532 0.507797 1 1 1.000000
0  40.025272 14.080420 18.044401  0.815603 -0.268325 0.512634  0.983428 0.508774 1 1 1.000000
skin_0
0  40.080326 13.736323 17.796652  0.588075 -0.257826 0.766612  0.983428 0.515610 1 1 1.000000
0  40.438187 13.185769 17.383738  0.559917 -0.256093 0.787978  0.983428 0.530259 1 1 1.000000
0  40.507008 13.557394 17.452557  0.616598 -0.195225 0.762688  0.019532 0.528306 1 1 1.000000
skin_0
0  40.507008 13.557394 17.452557  0.616598 -0.195225 0.762688  0.019532 0.528306 1 1 1.000000
0  40.162910 14.094184 17.851707  0.726712 -0.209086 0.654349  0.019532 0.514634 1 1 1.000000
0  40.080326 13.736323 17.796652  0.588075 -0.257826 0.766612  0.983428 0.515610 1 1 1.000000
skin_0
0  40.438187 13.185769 17.383738  0.559917 -0.256093 0.787978  0.983428 0.530259 1 1 1.000000
0  40.740990 12.648981 16.984585  0.897535 -0.246060 0.365904  0.983428 0.542955 1 1 1.000000
0  40.809814 12.993075 17.053406  0.913236 -0.137743 0.383440  0.019532 0.541978 1 1 1.000000
skin_0
0  40.809814 12.993075 17.053406  0.913236 -0.137743 0.383440  0.019532 0.541978 1 1 1.000000
0  40.507008 13.557394 17.452557  0.616598 -0.195225 0.762688  0.019532 0.528306 1 1 1.000000
0  40.438187 13.185769 17.383738  0.559917 -0.256093 0.787978  0.983428 0.530259 1 1 1.000000
skin_0
0  39.846340 10.391708 15.167759  0.990521 -0.131566 0.039475  0.019532 0.584948 1 1 1.000000
0  39.887630 10.873444 15.525618  0.938138 -0.014227 -0.345970  0.019532 0.575182 1 1 1.000000
0  39.832577 10.460527 15.429271  0.988880 -0.148711 0.001114  0.983428 0.570299 1 1 1.000000
skin_0
0  39.832577 10.460527 15.429271  0.988880 -0.148711 0.001114  0.983428 0.570299 1 1 1.000000
0  39.763756 9.937501 15.057648  0.940834 -0.249652 0.229140  0.983428 0.586901 1 1 1.000000
0  39.846340 10.391708 15.167759  0.990521 -0.131566 0.039475  0.019532 0.584948 1 1 1.000000
skin_0
0  40.107853 15.195292 18.443554  0.994463 -0.055888 0.088991  0.145512 0.487289 1 1 1.000000
0  40.493244 23.797697 19.668535  0.998556 -0.045014 0.029322  0.152348 0.455061 1 1 1.000000
0  40.369370 24.719877 25.435589  0.998825 -0.039390 0.028243  0.185553 0.451155 1 1 1.000000
skin_0
0  38.786526 -2.560073 5.849633  0.997414 -0.037889 -0.061078  0.074221 0.553697 1 1 1.000000
0  39.805050 9.923738 14.630968  0.997339 -0.035685 -0.063578  0.124027 0.506821 1 1 1.000000
0  39.818813 9.923738 14.837427  0.984920 -0.146699 0.091717  0.125004 0.506821 1 1 1.000000
skin_0
0  39.818813 9.923738 14.837427  0.984920 -0.146699 0.091717  0.125004 0.506821 1 1 1.000000
0  38.772762 -2.821586 5.808342  0.967236 -0.212543 0.138850  0.074221 0.554674 1 1 1.000000
0  38.786526 -2.560073 5.849633  0.997414 -0.037889 -0.061078  0.074221 0.553697 1 1 1.000000
skin_0
0  40.107853 15.195292 18.443554  0.994463 -0.055888 0.088991  0.145512 0.487289 1 1 1.000000
0  40.369370 24.719877 25.435589  0.998825 -0.039390 0.028243  0.185553 0.451155 1 1 1.000000
0  40.369370 24.664820 25.628283  0.965300 -0.127711 0.227786  0.186529 0.451155 1 1 1.000000
skin_0
0  40.369370 24.664820 25.628283  0.965300 -0.127711 0.227786  0.186529 0.451155 1 1 1.000000
0  40.094090 14.837433 18.388498  0.956710 -0.164854 0.239853  0.145512 0.488266 1 1 1.000000
0  40.107853 15.195292 18.443554  0.994463 -0.055888 0.088991  0.145512 0.487289 1 1 1.000000
skin_0
0  39.846340 10.391708 15.167759  0.990521 -0.131566 0.039475  0.019532 0.584948 1 1 1.000000
0  39.763756 9.937501 15.057648  0.940834 -0.249652 0.229140  0.983428 0.586901 1 1 1.000000
0  39.818813 9.923738 14.837427  0.984920 -0.146699 0.091717  0.019532 0.592761 1 1 1.000000
skin_0
0  39.818813 9.923738 14.837427  0.984920 -0.146699 0.091717  0.019532 0.592761 1 1 1.000000
0  39.763756 9.937501 15.057648  0.940834 -0.249652 0.229140  0.983428 0.586901 1 1 1.000000
0  38.703945 -3.083099 5.767050  0.946441 -0.308101 0.096554  0.983428 0.828120 1 1 1.000000
skin_0
0  38.703945 -3.083099 5.767050  0.946441 -0.308101 0.096554  0.983428 0.828120 1 1 1.000000
0  38.772762 -2.821586 5.808342  0.967236 -0.212543 0.138850  0.019532 0.828120 1 1 1.000000
0  39.818813 9.923738 14.837427  0.984920 -0.146699 0.091717  0.019532 0.592761 1 1 1.000000
skin_0
0  40.094090 14.837433 18.388498  0.956710 -0.164854 0.239853  0.019532 0.499985 1 1 1.000000
0  40.369370 24.664820 25.628283  0.965300 -0.127711 0.227786  0.019532 0.306619 1 1 1.000000
0  40.286785 24.651056 25.793449  0.913052 -0.161653 0.374437  0.983428 0.290994 1 1 1.000000
skin_0
0  40.286785 24.651056 25.793449  0.913052 -0.161653 0.374437  0.983428 0.290994 1 1 1.000000
0  40.011505 14.493335 18.333443  0.873166 -0.266417 0.408170  0.983428 0.500961 1 1 1.000000
0  40.094090 14.837433 18.388498  0.956710 -0.164854 0.239853  0.019532 0.499985 1 1 1.000000
skin_0
0  40.479481 23.687588 18.182039  0.998198 -0.031683 -0.050953  0.144536 0.455061 1 1 1.000000
0  39.873867 10.804625 15.264104  0.997249 -0.038545 -0.063322  0.127934 0.503891 1 1 1.000000
0  39.805050 9.923738 14.630968  0.997339 -0.035685 -0.063578  0.124027 0.506821 1 1 1.000000
skin_0
0  40.479481 23.687588 18.182039  0.998198 -0.031683 -0.050953  0.144536 0.455061 1 1 1.000000
0  39.805050 9.923738 14.630968  0.997339 -0.035685 -0.063578  0.124027 0.506821 1 1 1.000000
0  39.364609 9.662225 7.941738  0.997373 -0.036928 -0.062318  0.085940 0.507797 1 1 1.000000
skin_0
0  40.479481 23.687588 18.182039  0.998198 -0.031683 -0.050953  0.144536 0.455061 1 1 1.000000
0  39.364609 9.662225 7.941738  0.997373 -0.036928 -0.062318  0.085940 0.507797 1 1 1.000000
0  40.300549 28.738918 11.561629  0.998468 -0.035800 -0.042202  0.106449 0.436506 1 1 1.000000
skin_0
0  39.915161 11.286358 15.608202  0.910589 0.042188 -0.411153  0.129887 0.501938 1 1 1.000000
0  39.873867 10.804625 15.264104  0.997249 -0.038545 -0.063322  0.127934 0.503891 1 1 1.000000
0  40.479481 23.687588 18.182039  0.998198 -0.031683 -0.050953  0.144536 0.455061 1 1 1.000000
skin_0
0  40.479481 23.687588 18.182039  0.998198 -0.031683 -0.050953  0.144536 0.455061 1 1 1.000000
0  40.479481 23.605003 18.305916  0.951646 0.034507 -0.305254  0.144536 0.455061 1 1 1.000000
0  39.915161 11.286358 15.608202  0.910589 0.042188 -0.411153  0.129887 0.501938 1 1 1.000000
skin_0
0  39.915161 11.286358 15.608202  0.910589 0.042188 -0.411153  0.129887 0.501938 1 1 1.000000
0  40.479481 23.605003 18.305916  0.951646 0.034507 -0.305254  0.144536 0.455061 1 1 1.000000
0  40.493244 12.332411 16.365211  0.704572 0.123514 -0.698800  0.133793 0.498032 1 1 1.000000
skin_0
0  40.782280 12.882964 16.764364  0.899718 0.075346 -0.429918  0.135746 0.496078 1 1 1.000000
0  40.493244 12.332411 16.365211  0.704572 0.123514 -0.698800  0.133793 0.498032 1 1 1.000000
0  40.479481 23.605003 18.305916  0.951646 0.034507 -0.305254  0.144536 0.455061 1 1 1.000000
skin_0
0  40.479481 23.605003 18.305916  0.951646 0.034507 -0.305254  0.144536 0.455061 1 1 1.000000
0  40.809814 23.673824 18.815178  0.934018 0.061928 -0.351817  0.147465 0.455061 1 1 1.000000
0  40.782280 12.882964 16.764364  0.899718 0.075346 -0.429918  0.135746 0.496078 1 1 1.000000
skin_0
0  40.809814 13.364700 17.122225  0.945818 -0.059236 0.319249  0.138676 0.494125 1 1 1.000000
0  40.782280 12.882964 16.764364  0.899718 0.075346 -0.429918  0.135746 0.496078 1 1 1.000000
0  40.809814 23.673824 18.815178  0.934018 0.061928 -0.351817  0.147465 0.455061 1 1 1.000000
skin_0
0  40.809814 23.673824 18.815178  0.934018 0.061928 -0.351817  0.147465 0.455061 1 1 1.000000
0  40.823578 23.701351 18.980343  0.969323 -0.049501 0.240755  0.148442 0.455061 1 1 1.000000
0  40.809814 13.364700 17.122225  0.945818 -0.059236 0.319249  0.138676 0.494125 1 1 1.000000
skin_0
0  40.507008 13.942782 17.535141  0.670497 -0.137175 0.729120  0.140629 0.492172 1 1 1.000000
0  40.809814 13.364700 17.122225  0.945818 -0.059236 0.319249  0.138676 0.494125 1 1 1.000000
0  40.823578 23.701351 18.980343  0.969323 -0.049501 0.240755  0.148442 0.455061 1 1 1.000000
skin_0
0  40.823578 23.701351 18.980343  0.969323 -0.049501 0.240755  0.148442 0.455061 1 1 1.000000
0  40.520771 23.756407 19.407022  0.914788 -0.090922 0.393568  0.151372 0.455061 1 1 1.000000
0  40.507008 13.942782 17.535141  0.670497 -0.137175 0.729120  0.140629 0.492172 1 1 1.000000
skin_0
0  40.507008 13.942782 17.535141  0.670497 -0.137175 0.729120  0.140629 0.492172 1 1 1.000000
0  40.520771 23.756407 19.407022  0.914788 -0.090922 0.393568  0.151372 0.455061 1 1 1.000000
0  40.176674 14.465808 17.906763  0.822511 -0.120514 0.555834  0.142582 0.490219 1 1 1.000000
skin_0
0  40.121616 14.796140 18.154512  0.971201 -0.074222 0.226405  0.144536 0.488266 1 1 1.000000
0  40.176674 14.465808 17.906763  0.822511 -0.120514 0.555834  0.142582 0.490219 1 1 1.000000
0  40.520771 23.756407 19.407022  0.914788 -0.090922 0.393568  0.151372 0.455061 1 1 1.000000
skin_0
0  40.520771 23.756407 19.407022  0.914788 -0.090922 0.393568  0.151372 0.455061 1 1 1.000000
0  40.493244 23.770170 19.544661  0.993458 -0.054171 0.100537  0.152348 0.455061 1 1 1.000000
0  40.121616 14.796140 18.154512  0.971201 -0.074222 0.226405  0.144536 0.488266 1 1 1.000000
skin_0
0  40.107853 15.195292 18.443554  0.994463 -0.055888 0.088991  0.145512 0.487289 1 1 1.000000
0  40.121616 14.796140 18.154512  0.971201 -0.074222 0.226405  0.144536 0.488266 1 1 1.000000
0  40.493244 23.770170 19.544661  0.993458 -0.054171 0.100537  0.152348 0.455061 1 1 1.000000
skin_0
0  40.493244 23.770170 19.544661  0.993458 -0.054171 0.100537  0.152348 0.455061 1 1 1.000000
0  40.493244 23.797697 19.668535  0.998556 -0.045014 0.029322  0.152348 0.455061 1 1 1.000000
0  40.107853 15.195292 18.443554  0.994463 -0.055888 0.088991  0.145512 0.487289 1 1 1.000000
skin_0
0  39.805050 9.923738 14.630968  0.997339 -0.035685 -0.063578  0.124027 0.506821 1 1 1.000000
0  39.873867 10.804625 15.264104  0.997249 -0.038545 -0.063322  0.127934 0.503891 1 1 1.000000
0  39.846340 10.391708 15.167759  0.990521 -0.131566 0.039475  0.126957 0.505844 1 1 1.000000
skin_0
0  39.846340 10.391708 15.167759  0.990521 -0.131566 0.039475  0.126957 0.505844 1 1 1.000000
0  39.818813 9.923738 14.837427  0.984920 -0.146699 0.091717  0.125004 0.506821 1 1 1.000000
0  39.805050 9.923738 14.630968  0.997339 -0.035685 -0.063578  0.124027 0.506821 1 1 1.000000
skin_0
0  39.887630 10.873444 15.525618  0.938138 -0.014227 -0.345970  0.128910 0.503891 1 1 1.000000
0  39.846340 10.391708 15.167759  0.990521 -0.131566 0.039475  0.126957 0.505844 1 1 1.000000
0  39.873867 10.804625 15.264104  0.997249 -0.038545 -0.063322  0.127934 0.503891 1 1 1.000000
skin_0
0  39.873867 10.804625 15.264104  0.997249 -0.038545 -0.063322  0.127934 0.503891 1 1 1.000000
0  39.915161 11.286358 15.608202  0.910589 0.042188 -0.411153  0.129887 0.501938 1 1 1.000000
0  39.887630 10.873444 15.525618  0.938138 -0.014227 -0.345970  0.128910 0.503891 1 1 1.000000
skin_0
0  40.493244 11.947023 16.296392  0.777685 0.030850 -0.627897  0.133793 0.499008 1 1 1.000000
0  39.887630 10.873444 15.525618  0.938138 -0.014227 -0.345970  0.128910 0.503891 1 1 1.000000
0  39.915161 11.286358 15.608202  0.910589 0.042188 -0.411153  0.129887 0.501938 1 1 1.000000
skin_0
0  39.915161 11.286358 15.608202  0.910589 0.042188 -0.411153  0.129887 0.501938 1 1 1.000000
0  40.493244 12.332411 16.365211  0.704572 0.123514 -0.698800  0.133793 0.498032 1 1 1.000000
0  40.493244 11.947023 16.296392  0.777685 0.030850 -0.627897  0.133793 0.499008 1 1 1.000000
skin_0
0  40.782280 12.483814 16.695545  0.959781 -0.056833 -0.274939  0.135746 0.497055 1 1 1.000000
0  40.493244 11.947023 16.296392  0.777685 0.030850 -0.627897  0.133793 0.499008 1 1 1.000000
0  40.493244 12.332411 16.365211  0.704572 0.123514 -0.698800  0.133793 0.498032 1 1 1.000000
skin_0
0  40.493244 12.332411 16.365211  0.704572 0.123514 -0.698800  0.133793 0.498032 1 1 1.000000
0  40.782280 12.882964 16.764364  0.899718 0.075346 -0.429918  0.135746 0.496078 1 1 1.000000
0  40.782280 12.483814 16.695545  0.959781 -0.056833 -0.274939  0.135746 0.497055 1 1 1.000000
skin_0
0  40.809814 12.993075 17.053406  0.913236 -0.137743 0.383440  0.137700 0.495102 1 1 1.000000
0  40.782280 12.483814 16.695545  0.959781 -0.056833 -0.274939  0.135746 0.497055 1 1 1.000000
0  40.782280 12.882964 16.764364  0.899718 0.075346 -0.429918  0.135746 0.496078 1 1 1.000000
skin_0
0  40.782280 12.882964 16.764364  0.899718 0.075346 -0.429918  0.135746 0.496078 1 1 1.000000
0  40.809814 13.364700 17.122225  0.945818 -0.059236 0.319249  0.138676 0.494125 1 1 1.000000
0  40.809814 12.993075 17.053406  0.913236 -0.137743 0.383440  0.137700 0.495102 1 1 1.000000
skin_0
0  40.507008 13.557394 17.452557  0.616598 -0.195225 0.762688  0.139653 0.493149 1 1 1.000000
0  40.809814 12.993075 17.053406  0.913236 -0.137743 0.383440  0.137700 0.495102 1 1 1.000000
0  40.809814 13.364700 17.122225  0.945818 -0.059236 0.319249  0.138676 0.494125 1 1 1.000000
skin_0
0  40.809814 13.364700 17.122225  0.945818 -0.059236 0.319249  0.138676 0.494125 1 1 1.000000
0  40.507008 13.942782 17.535141  0.670497 -0.137175 0.729120  0.140629 0.492172 1 1 1.000000
0  40.507008 13.557394 17.452557  0.616598 -0.195225 0.762688  0.139653 0.493149 1 1 1.000000
skin_0
0  40.162910 14.094184 17.851707  0.726712 -0.209086 0.654349  0.142582 0.491195 1 1 1.000000
0  40.507008 13.557394 17.452557  0.616598 -0.195225 0.762688  0.139653 0.493149 1 1 1.000000
0  40.507008 13.942782 17.535141  0.670497 -0.137175 0.729120  0.140629 0.492172 1 1 1.000000
skin_0
0  40.507008 13.942782 17.535141  0.670497 -0.137175 0.729120  0.140629 0.492172 1 1 1.000000
0  40.176674 14.465808 17.906763  0.822511 -0.120514 0.555834  0.142582 0.490219 1 1 1.000000
0  40.162910 14.094184 17.851707  0.726712 -0.209086 0.654349  0.142582 0.491195 1 1 1.000000
skin_0
0  40.107853 14.438280 18.099457  0.913464 -0.176864 0.366473  0.143559 0.490219 1 1 1.000000
0  40.162910 14.094184 17.851707  0.726712 -0.209086 0.654349  0.142582 0.491195 1 1 1.000000
0  40.176674 14.465808 17.906763  0.822511 -0.120514 0.555834  0.142582 0.490219 1 1 1.000000
skin_0
0  40.176674 14.465808 17.906763  0.822511 -0.120514 0.555834  0.142582 0.490219 1 1 1.000000
0  40.121616 14.796140 18.154512  0.971201 -0.074222 0.226405  0.144536 0.488266 1 1 1.000000
0  40.107853 14.438280 18.099457  0.913464 -0.176864 0.366473  0.143559 0.490219 1 1 1.000000
skin_0
0  40.107853 14.438280 18.099457  0.913464 -0.176864 0.366473  0.143559 0.490219 1 1 1.000000
0  40.121616 14.796140 18.154512  0.971201 -0.074222 0.226405  0.144536 0.488266 1 1 1.000000
0  40.107853 15.195292 18.443554  0.994463 -0.055888 0.088991  0.145512 0.487289 1 1 1.000000
skin_0
0  40.107853 15.195292 18.443554  0.994463 -0.055888 0.088991  0.145512 0.487289 1 1 1.000000
0  40.094090 14.837433 18.388498  0.956710 -0.164854 0.239853  0.145512 0.488266 1 1 1.000000
0  40.107853 14.438280 18.099457  0.913464 -0.176864 0.366473  0.143559 0.490219 1 1 1.000000
skin_0
0  40.025272 14.080420 18.044401  0.815603 -0.268325 0.512634  0.983428 0.508774 1 1 1.000000
0  40.107853 14.438280 18.099457  0.913464 -0.176864 0.366473  0.019532 0.507797 1 1 1.000000
0  40.094090 14.837433 18.388498  0.956710 -0.164854 0.239853  0.019532 0.499985 1 1 1.000000
skin_0
0  40.094090 14.837433 18.388498  0.956710 -0.164854 0.239853  0.019532 0.499985 1 1 1.000000
0  40.011505 14.493335 18.333443  0.873166 -0.266417 0.408170  0.983428 0.500961 1 1 1.000000
0  40.025272 14.080420 18.044401  0.815603 -0.268325 0.512634  0.983428 0.508774 1 1 1.000000
skin_0
0  41.346603 46.824619 24.224369  0.998999 -0.043645 0.009782  0.178716 0.368145 1 1 1.000000
0  41.291542 51.270340 18.168276  0.999112 -0.028819 -0.030737  0.144536 0.351543 1 1 1.000000
0  41.484234 53.871708 21.719351  0.999007 -0.034866 -0.027729  0.164068 0.341777 1 1 1.000000
skin_0
0  41.484234 53.871708 21.719351  0.999007 -0.034866 -0.027729  0.164068 0.341777 1 1 1.000000
0  41.374130 48.847904 25.972378  0.998631 -0.041403 0.031969  0.188482 0.360332 1 1 1.000000
0  41.346603 46.824619 24.224369  0.998999 -0.043645 0.009782  0.178716 0.368145 1 1 1.000000
black
0  39.749992 4.390671 4.376901  0.000000 -0.961927 -0.273306  0.568377 0.769524 1 1 1.000000
0  40.740990 4.390671 4.376901  0.787132 -0.541219 -0.295814  0.568377 0.777337 1 1 1.000000
0  40.768517 4.046575 4.720997  0.777082 -0.223155 -0.588512  0.569353 0.777337 1 1 1.000000
black
0  40.740990 4.390671 4.376901  0.787132 -0.541219 -0.295814  0.568377 0.777337 1 1 1.000000
0  39.749992 4.390671 4.376901  0.000000 -0.961927 -0.273306  0.568377 0.769524 1 1 1.000000
0  39.681175 4.376907 3.275793  -0.000000 -0.999828 0.018525  0.568377 0.769524 1 1 1.000000
black
0  39.681175 4.376907 3.275793  -0.000000 -0.999828 0.018525  0.568377 0.769524 1 1 1.000000
0  40.617115 4.363143 3.055571  0.709841 -0.680703 -0.181023  0.568377 0.776360 1 1 1.000000
0  40.740990 4.390671 4.376901  0.787132 -0.541219 -0.295814  0.568377 0.777337 1 1 1.000000
black
0  39.763756 4.335615 1.197452  0.612205 -0.637565 -0.467671  0.568377 0.770501 1 1 1.000000
0  39.034275 4.335615 1.651659  0.044596 -0.995139 0.087808  0.568377 0.764641 1 1 1.000000
0  38.621361 4.170449 0.922175  0.790929 -0.611258 0.028197  0.569353 0.761711 1 1 1.000000
black
0  38.621361 4.170449 0.922175  0.790929 -0.611258 0.028197  0.569353 0.761711 1 1 1.000000
0  38.869106 4.032810 0.633134  0.858653 -0.329068 -0.392974  0.569353 0.763665 1 1 1.000000
0  39.763756 4.335615 1.197452  0.612205 -0.637565 -0.467671  0.568377 0.770501 1 1 1.000000
black
0  40.617115 4.363143 3.055571  0.709841 -0.680703 -0.181023  0.568377 0.776360 1 1 1.000000
0  39.681175 4.376907 3.275793  -0.000000 -0.999828 0.018525  0.568377 0.769524 1 1 1.000000
0  39.034275 4.335615 1.651659  0.044596 -0.995139 0.087808  0.568377 0.764641 1 1 1.000000
black
0  39.034275 4.335615 1.651659  0.044596 -0.995139 0.087808  0.568377 0.764641 1 1 1.000000
0  39.763756 4.335615 1.197452  0.612205 -0.637565 -0.467671  0.568377 0.770501 1 1 1.000000
0  40.617115 4.363143 3.055571  0.709841 -0.680703 -0.181023  0.568377 0.776360 1 1 1.000000
black
0  40.768517 4.046575 4.720997  0.777082 -0.223155 -0.588512  0.569353 0.777337 1 1 1.000000
0  40.080326 4.046575 4.720997  0.644282 -0.277463 -0.712681  0.569353 0.772454 1 1 1.000000
0  39.749992 4.390671 4.376901  0.000000 -0.961927 -0.273306  0.568377 0.769524 1 1 1.000000
end
