version 1
nodes
0 "blender_implicit" -1
1 "root" -1
2 "steering_wheel" 1
end
skeleton
time 0
0  0.000000 0.000000 0.000000  0.000000 -0.000000 0.000000
1  0.000000 0.000000 0.000000  1.570796 -0.000000 0.000000
2  18.487606 30.459387 10.889964  0.000000 -0.000000 0.000000
end
triangles
aluminiummisc
0  26.110014 94.199783 10.240301  -0.000000 -0.000000 1.000000  0.017579 0.978515 1 1 1.000000
0  26.811970 94.199783 10.102663  0.383412 0.000000 0.923577  0.017579 0.978515 1 1 1.000000
0  26.811968 103.270157 10.102663  0.342536 0.000000 0.939505  0.017579 0.982421 1 1 1.000000
aluminiummisc
0  26.811968 103.270157 10.102663  0.342536 0.000000 0.939505  0.017579 0.982421 1 1 1.000000
0  26.110012 103.394035 10.240301  0.000000 -0.000000 1.000000  0.017579 0.982421 1 1 1.000000
0  26.110014 94.199783 10.240301  -0.000000 -0.000000 1.000000  0.017579 0.978515 1 1 1.000000
aluminiummisc
0  26.811970 94.199783 10.102663  0.383412 0.000000 0.923577  0.017579 0.978515 1 1 1.000000
0  27.403816 94.199783 9.703511  0.707108 0.000000 0.707105  0.017579 0.978515 1 1 1.000000
0  27.403814 102.926056 9.703511  0.653894 0.000000 0.756586  0.017579 0.982421 1 1 1.000000
aluminiummisc
0  27.403814 102.926056 9.703511  0.653894 0.000000 0.756586  0.017579 0.982421 1 1 1.000000
0  26.811968 103.270157 10.102663  0.342536 0.000000 0.939505  0.017579 0.982421 1 1 1.000000
0  26.811970 94.199783 10.102663  0.383412 0.000000 0.923577  0.017579 0.978515 1 1 1.000000
aluminiummisc
0  27.403816 94.199783 9.703511  0.707108 0.000000 0.707105  0.017579 0.978515 1 1 1.000000
0  27.802969 94.199783 9.111666  0.923872 0.000000 0.382702  0.017579 0.978515 1 1 1.000000
0  27.802967 102.403038 9.111666  0.887117 -0.000000 0.461545  0.017579 0.982421 1 1 1.000000
aluminiummisc
0  27.802967 102.403038 9.111666  0.887117 -0.000000 0.461545  0.017579 0.982421 1 1 1.000000
0  27.403814 102.926056 9.703511  0.653894 0.000000 0.756586  0.017579 0.982421 1 1 1.000000
0  27.403816 94.199783 9.703511  0.707108 0.000000 0.707105  0.017579 0.978515 1 1 1.000000
aluminiummisc
0  27.802969 94.199783 9.111666  0.923872 0.000000 0.382702  0.017579 0.978515 1 1 1.000000
0  27.940609 94.199783 8.409710  1.000000 0.000009 -0.000050  0.017579 0.978515 1 1 1.000000
0  27.940607 101.797424 8.409710  0.996004 -0.000005 0.089309  0.017579 0.982421 1 1 1.000000
aluminiummisc
0  27.940607 101.797424 8.409710  0.996004 -0.000005 0.089309  0.017579 0.982421 1 1 1.000000
0  27.802967 102.403038 9.111666  0.887117 -0.000000 0.461545  0.017579 0.982421 1 1 1.000000
0  27.802969 94.199783 9.111666  0.923872 0.000000 0.382702  0.017579 0.978515 1 1 1.000000
aluminiummisc
0  27.940609 94.199783 8.409710  1.000000 0.000009 -0.000050  0.015625 0.978515 1 1 1.000000
0  27.802969 94.199783 7.721518  0.923853 0.000000 -0.382747  0.015625 0.978515 1 1 1.000000
0  27.802967 101.178047 7.721518  0.952212 -0.000000 -0.305439  0.015625 0.980468 1 1 1.000000
aluminiummisc
0  27.802967 101.178047 7.721518  0.952212 -0.000000 -0.305439  0.015625 0.980468 1 1 1.000000
0  27.940607 101.797424 8.409710  0.996004 -0.000005 0.089309  0.015625 0.982421 1 1 1.000000
0  27.940609 94.199783 8.409710  1.000000 0.000009 -0.000050  0.015625 0.978515 1 1 1.000000
aluminiummisc
0  27.802969 94.199783 7.721518  0.923853 0.000000 -0.382747  0.015625 0.978515 1 1 1.000000
0  27.403816 94.199783 7.129672  0.707105 0.000001 -0.707108  0.015625 0.978515 1 1 1.000000
0  27.403814 100.655029 7.129672  0.751402 -0.000000 -0.659845  0.015625 0.980468 1 1 1.000000
aluminiummisc
0  27.403814 100.655029 7.129672  0.751402 -0.000000 -0.659845  0.015625 0.980468 1 1 1.000000
0  27.802967 101.178047 7.721518  0.952212 -0.000000 -0.305439  0.015625 0.980468 1 1 1.000000
0  27.802969 94.199783 7.721518  0.923853 0.000000 -0.382747  0.015625 0.978515 1 1 1.000000
aluminiummisc
0  27.403816 94.199783 7.129672  0.707105 0.000001 -0.707108  0.015625 0.978515 1 1 1.000000
0  26.811970 94.199783 6.730520  0.382795 0.000000 -0.923833  0.015625 0.978515 1 1 1.000000
0  26.811968 100.310928 6.730520  0.416625 -0.000000 -0.909079  0.015625 0.980468 1 1 1.000000
aluminiummisc
0  26.811968 100.310928 6.730520  0.416625 -0.000000 -0.909079  0.015625 0.980468 1 1 1.000000
0  27.403814 100.655029 7.129672  0.751402 -0.000000 -0.659845  0.015625 0.980468 1 1 1.000000
0  27.403816 94.199783 7.129672  0.707105 0.000001 -0.707108  0.015625 0.978515 1 1 1.000000
aluminiummisc
0  26.811970 94.199783 6.730520  0.382795 0.000000 -0.923833  0.015625 0.978515 1 1 1.000000
0  26.110014 94.199783 6.592881  -0.000000 0.000000 -1.000000  0.015625 0.978515 1 1 1.000000
0  26.110012 100.187050 6.592881  -0.000000 -0.000000 -1.000000  0.015625 0.980468 1 1 1.000000
aluminiummisc
0  26.110012 100.187050 6.592881  -0.000000 -0.000000 -1.000000  0.015625 0.980468 1 1 1.000000
0  26.811968 100.310928 6.730520  0.416625 -0.000000 -0.909079  0.015625 0.980468 1 1 1.000000
0  26.811970 94.199783 6.730520  0.382795 0.000000 -0.923833  0.015625 0.978515 1 1 1.000000
aluminiummisc
0  25.408060 94.199783 6.730520  -0.383409 -0.000000 -0.923579  0.015625 0.978515 1 1 1.000000
0  25.408058 100.310928 6.730520  -0.416393 -0.000000 -0.909185  0.015625 0.980468 1 1 1.000000
0  26.110012 100.187050 6.592881  -0.000000 -0.000000 -1.000000  0.015625 0.980468 1 1 1.000000
aluminiummisc
0  26.110012 100.187050 6.592881  -0.000000 -0.000000 -1.000000  0.015625 0.980468 1 1 1.000000
0  26.110014 94.199783 6.592881  -0.000000 0.000000 -1.000000  0.015625 0.978515 1 1 1.000000
0  25.408060 94.199783 6.730520  -0.383409 -0.000000 -0.923579  0.015625 0.978515 1 1 1.000000
aluminiummisc
0  24.816214 94.199783 7.129672  -0.707102 0.000003 -0.707112  0.015625 0.978515 1 1 1.000000
0  24.816212 100.655029 7.129672  -0.751511 -0.000001 -0.659721  0.015625 0.980468 1 1 1.000000
0  25.408058 100.310928 6.730520  -0.416393 -0.000000 -0.909185  0.015625 0.980468 1 1 1.000000
aluminiummisc
0  25.408058 100.310928 6.730520  -0.416393 -0.000000 -0.909185  0.015625 0.980468 1 1 1.000000
0  25.408060 94.199783 6.730520  -0.383409 -0.000000 -0.923579  0.015625 0.978515 1 1 1.000000
0  24.816214 94.199783 7.129672  -0.707102 0.000003 -0.707112  0.015625 0.978515 1 1 1.000000
aluminiummisc
0  24.430826 94.199783 7.721518  -0.923859 -0.000000 -0.382734  0.017579 0.978515 1 1 1.000000
0  24.430824 101.178047 7.721518  -0.952334 -0.000001 -0.305058  0.017579 0.980468 1 1 1.000000
0  24.816212 100.655029 7.129672  -0.751511 -0.000001 -0.659721  0.015625 0.980468 1 1 1.000000
aluminiummisc
0  24.816212 100.655029 7.129672  -0.751511 -0.000001 -0.659721  0.015625 0.980468 1 1 1.000000
0  24.816214 94.199783 7.129672  -0.707102 0.000003 -0.707112  0.015625 0.978515 1 1 1.000000
0  24.430826 94.199783 7.721518  -0.923859 -0.000000 -0.382734  0.017579 0.978515 1 1 1.000000
aluminiummisc
0  24.279425 94.199783 8.409710  -1.000000 -0.000000 -0.000006  0.017579 0.978515 1 1 1.000000
0  24.279423 101.797424 8.409710  -0.995968 0.000000 0.089705  0.017579 0.982421 1 1 1.000000
0  24.430824 101.178047 7.721518  -0.952334 -0.000001 -0.305058  0.017579 0.980468 1 1 1.000000
aluminiummisc
0  24.430824 101.178047 7.721518  -0.952334 -0.000001 -0.305058  0.017579 0.980468 1 1 1.000000
0  24.430826 94.199783 7.721518  -0.923859 -0.000000 -0.382734  0.017579 0.978515 1 1 1.000000
0  24.279425 94.199783 8.409710  -1.000000 -0.000000 -0.000006  0.017579 0.978515 1 1 1.000000
aluminiummisc
0  24.430826 94.199783 9.111666  -0.923870 -0.000000 0.382706  0.017579 0.978515 1 1 1.000000
0  24.430824 102.403038 9.111666  -0.887148 -0.000001 0.461485  0.017579 0.982421 1 1 1.000000
0  24.279423 101.797424 8.409710  -0.995968 0.000000 0.089705  0.017579 0.982421 1 1 1.000000
aluminiummisc
0  24.279423 101.797424 8.409710  -0.995968 0.000000 0.089705  0.017579 0.982421 1 1 1.000000
0  24.279425 94.199783 8.409710  -1.000000 -0.000000 -0.000006  0.017579 0.978515 1 1 1.000000
0  24.430826 94.199783 9.111666  -0.923870 -0.000000 0.382706  0.017579 0.978515 1 1 1.000000
aluminiummisc
0  24.816214 94.199783 9.703511  -0.707110 -0.000000 0.707103  0.017579 0.978515 1 1 1.000000
0  24.816212 102.926056 9.703511  -0.653891 -0.000001 0.756589  0.017579 0.982421 1 1 1.000000
0  24.430824 102.403038 9.111666  -0.887148 -0.000001 0.461485  0.017579 0.982421 1 1 1.000000
aluminiummisc
0  24.430824 102.403038 9.111666  -0.887148 -0.000001 0.461485  0.017579 0.982421 1 1 1.000000
0  24.430826 94.199783 9.111666  -0.923870 -0.000000 0.382706  0.017579 0.978515 1 1 1.000000
0  24.816214 94.199783 9.703511  -0.707110 -0.000000 0.707103  0.017579 0.978515 1 1 1.000000
aluminiummisc
0  25.408060 94.199783 10.102663  -0.383412 -0.000000 0.923577  0.017579 0.978515 1 1 1.000000
0  25.408058 103.270157 10.102663  -0.342536 -0.000000 0.939505  0.017579 0.982421 1 1 1.000000
0  24.816212 102.926056 9.703511  -0.653891 -0.000001 0.756589  0.017579 0.982421 1 1 1.000000
aluminiummisc
0  24.816212 102.926056 9.703511  -0.653891 -0.000001 0.756589  0.017579 0.982421 1 1 1.000000
0  24.816214 94.199783 9.703511  -0.707110 -0.000000 0.707103  0.017579 0.978515 1 1 1.000000
0  25.408060 94.199783 10.102663  -0.383412 -0.000000 0.923577  0.017579 0.978515 1 1 1.000000
aluminiummisc
0  26.110014 94.199783 10.240301  -0.000000 -0.000000 1.000000  0.017579 0.978515 1 1 1.000000
0  26.110012 103.394035 10.240301  0.000000 -0.000000 1.000000  0.017579 0.982421 1 1 1.000000
0  25.408058 103.270157 10.102663  -0.342536 -0.000000 0.939505  0.017579 0.982421 1 1 1.000000
aluminiummisc
0  25.408058 103.270157 10.102663  -0.342536 -0.000000 0.939505  0.017579 0.982421 1 1 1.000000
0  25.408060 94.199783 10.102663  -0.383412 -0.000000 0.923577  0.017579 0.978515 1 1 1.000000
0  26.110014 94.199783 10.240301  -0.000000 -0.000000 1.000000  0.017579 0.978515 1 1 1.000000
aluminiummisc
0  26.110012 103.394035 10.240301  0.001386 0.956328 0.292293  0.017579 0.982421 1 1 1.000000
0  26.811968 103.270157 10.102663  0.403872 0.893582 0.195955  0.017579 0.982421 1 1 1.000000
0  26.756914 103.338974 9.937496  0.398822 0.894300 0.202898  0.015625 0.982421 1 1 1.000000
aluminiummisc
0  26.756914 103.338974 9.937496  0.398822 0.894300 0.202898  0.015625 0.982421 1 1 1.000000
0  26.110012 103.449089 10.061372  0.001725 0.956298 0.292389  0.017579 0.982421 1 1 1.000000
0  26.110012 103.394035 10.240301  0.001386 0.956328 0.292293  0.017579 0.982421 1 1 1.000000
aluminiummisc
0  26.811968 103.270157 10.102663  0.403872 0.893582 0.195955  0.017579 0.982421 1 1 1.000000
0  27.403814 102.926056 9.703511  0.645691 0.762566 -0.039711  0.017579 0.982421 1 1 1.000000
0  27.307468 102.994873 9.579637  0.636293 0.771291 -0.015497  0.015625 0.982421 1 1 1.000000
aluminiummisc
0  27.307468 102.994873 9.579637  0.636293 0.771291 -0.015497  0.015625 0.982421 1 1 1.000000
0  26.756914 103.338974 9.937496  0.398822 0.894300 0.202898  0.015625 0.982421 1 1 1.000000
0  26.811968 103.270157 10.102663  0.403872 0.893582 0.195955  0.017579 0.982421 1 1 1.000000
aluminiummisc
0  27.403814 102.926056 9.703511  0.645691 0.762566 -0.039711  0.017579 0.982421 1 1 1.000000
0  27.802967 102.403038 9.111666  0.682338 0.653714 -0.327222  0.017579 0.982421 1 1 1.000000
0  27.679090 102.499382 9.042847  0.686446 0.671794 -0.278360  0.015625 0.982421 1 1 1.000000
aluminiummisc
0  27.679090 102.499382 9.042847  0.686446 0.671794 -0.278360  0.015625 0.982421 1 1 1.000000
0  27.307468 102.994873 9.579637  0.636293 0.771291 -0.015497  0.015625 0.982421 1 1 1.000000
0  27.403814 102.926056 9.703511  0.645691 0.762566 -0.039711  0.017579 0.982421 1 1 1.000000
aluminiummisc
0  27.802967 102.403038 9.111666  0.682338 0.653714 -0.327222  0.017579 0.982421 1 1 1.000000
0  27.940607 101.797424 8.409710  0.543366 0.607225 -0.579682  0.017579 0.982421 1 1 1.000000
0  27.802967 101.907532 8.409710  0.579950 0.625134 -0.522366  0.015625 0.982421 1 1 1.000000
aluminiummisc
0  27.802967 101.907532 8.409710  0.579950 0.625134 -0.522366  0.015625 0.982421 1 1 1.000000
0  27.679090 102.499382 9.042847  0.686446 0.671794 -0.278360  0.015625 0.982421 1 1 1.000000
0  27.802967 102.403038 9.111666  0.682338 0.653714 -0.327222  0.017579 0.982421 1 1 1.000000
aluminiummisc
0  27.940607 101.797424 8.409710  0.543366 0.607225 -0.579682  0.015625 0.982421 1 1 1.000000
0  27.802967 101.178047 7.721518  0.323271 0.615281 -0.718975  0.015625 0.980468 1 1 1.000000
0  27.679090 101.329460 7.790337  0.378038 0.623431 -0.684413  0.015625 0.982421 1 1 1.000000
aluminiummisc
0  27.679090 101.329460 7.790337  0.378038 0.623431 -0.684413  0.015625 0.982421 1 1 1.000000
0  27.802967 101.907532 8.409710  0.579950 0.625134 -0.522366  0.015625 0.982421 1 1 1.000000
0  27.940607 101.797424 8.409710  0.543366 0.607225 -0.579682  0.015625 0.982421 1 1 1.000000
aluminiummisc
0  27.802967 101.178047 7.721518  0.323271 0.615281 -0.718975  0.015625 0.980468 1 1 1.000000
0  27.403814 100.655029 7.129672  0.143609 0.648114 -0.747880  0.015625 0.980468 1 1 1.000000
0  27.307468 100.820190 7.253547  0.183392 0.646099 -0.740894  0.015625 0.982421 1 1 1.000000
aluminiummisc
0  27.307468 100.820190 7.253547  0.183392 0.646099 -0.740894  0.015625 0.982421 1 1 1.000000
0  27.679090 101.329460 7.790337  0.378038 0.623431 -0.684413  0.015625 0.982421 1 1 1.000000
0  27.802967 101.178047 7.721518  0.323271 0.615281 -0.718975  0.015625 0.980468 1 1 1.000000
aluminiummisc
0  27.403814 100.655029 7.129672  0.143609 0.648114 -0.747880  0.015625 0.980468 1 1 1.000000
0  26.811968 100.310928 6.730520  0.048449 0.676973 -0.734412  0.015625 0.980468 1 1 1.000000
0  26.756914 100.489853 6.895686  0.062619 0.672491 -0.737451  0.015625 0.982421 1 1 1.000000
aluminiummisc
0  26.756914 100.489853 6.895686  0.062619 0.672491 -0.737451  0.015625 0.982421 1 1 1.000000
0  27.307468 100.820190 7.253547  0.183392 0.646099 -0.740894  0.015625 0.982421 1 1 1.000000
0  27.403814 100.655029 7.129672  0.143609 0.648114 -0.747880  0.015625 0.980468 1 1 1.000000
aluminiummisc
0  26.811968 100.310928 6.730520  0.048449 0.676973 -0.734412  0.015625 0.980468 1 1 1.000000
0  26.110012 100.187050 6.592881  0.002276 0.685501 -0.728069  0.015625 0.980468 1 1 1.000000
0  26.110012 100.379745 6.758048  0.003664 0.685763 -0.727816  0.015625 0.982421 1 1 1.000000
aluminiummisc
0  26.110012 100.379745 6.758048  0.003664 0.685763 -0.727816  0.015625 0.982421 1 1 1.000000
0  26.756914 100.489853 6.895686  0.062619 0.672491 -0.737451  0.015625 0.982421 1 1 1.000000
0  26.811968 100.310928 6.730520  0.048449 0.676973 -0.734412  0.015625 0.980468 1 1 1.000000
aluminiummisc
0  26.110012 100.187050 6.592881  0.002276 0.685501 -0.728069  0.015625 0.980468 1 1 1.000000
0  25.408058 100.310928 6.730520  -0.050095 0.671140 -0.739636  0.015625 0.980468 1 1 1.000000
0  25.463112 100.489853 6.895686  -0.049735 0.676566 -0.734700  0.015625 0.982421 1 1 1.000000
aluminiummisc
0  25.463112 100.489853 6.895686  -0.049735 0.676566 -0.734700  0.015625 0.982421 1 1 1.000000
0  26.110012 100.379745 6.758048  0.003664 0.685763 -0.727816  0.015625 0.982421 1 1 1.000000
0  26.110012 100.187050 6.592881  0.002276 0.685501 -0.728069  0.015625 0.980468 1 1 1.000000
aluminiummisc
0  25.408058 100.310928 6.730520  -0.050095 0.671140 -0.739636  0.015625 0.980468 1 1 1.000000
0  24.816212 100.655029 7.129672  -0.157894 0.640660 -0.751415  0.015625 0.980468 1 1 1.000000
0  24.912560 100.820190 7.253547  -0.161322 0.650459 -0.742212  0.015625 0.980468 1 1 1.000000
aluminiummisc
0  24.912560 100.820190 7.253547  -0.161322 0.650459 -0.742212  0.015625 0.980468 1 1 1.000000
0  25.463112 100.489853 6.895686  -0.049735 0.676566 -0.734700  0.015625 0.982421 1 1 1.000000
0  25.408058 100.310928 6.730520  -0.050095 0.671140 -0.739636  0.015625 0.980468 1 1 1.000000
aluminiummisc
0  24.816212 100.655029 7.129672  -0.157894 0.640660 -0.751415  0.015625 0.980468 1 1 1.000000
0  24.430824 101.178047 7.721518  -0.344147 0.609661 -0.714056  0.017579 0.980468 1 1 1.000000
0  24.540936 101.329460 7.790337  -0.355175 0.626527 -0.693768  0.015625 0.980468 1 1 1.000000
aluminiummisc
0  24.540936 101.329460 7.790337  -0.355175 0.626527 -0.693768  0.015625 0.980468 1 1 1.000000
0  24.912560 100.820190 7.253547  -0.161322 0.650459 -0.742212  0.015625 0.980468 1 1 1.000000
0  24.816212 100.655029 7.129672  -0.157894 0.640660 -0.751415  0.015625 0.980468 1 1 1.000000
aluminiummisc
0  24.430824 101.178047 7.721518  -0.344147 0.609661 -0.714056  0.017579 0.980468 1 1 1.000000
0  24.279423 101.797424 8.409710  -0.559871 0.603559 -0.567681  0.017579 0.982421 1 1 1.000000
0  24.417061 101.907532 8.409710  -0.565318 0.627905 -0.534931  0.015625 0.980468 1 1 1.000000
aluminiummisc
0  24.417061 101.907532 8.409710  -0.565318 0.627905 -0.534931  0.015625 0.980468 1 1 1.000000
0  24.540936 101.329460 7.790337  -0.355175 0.626527 -0.693768  0.015625 0.980468 1 1 1.000000
0  24.430824 101.178047 7.721518  -0.344147 0.609661 -0.714056  0.017579 0.980468 1 1 1.000000
aluminiummisc
0  24.279423 101.797424 8.409710  -0.559871 0.603559 -0.567681  0.017579 0.982421 1 1 1.000000
0  24.430824 102.403038 9.111666  -0.690589 0.651066 -0.314959  0.017579 0.982421 1 1 1.000000
0  24.540936 102.499382 9.042847  -0.679184 0.675178 -0.287827  0.015625 0.980468 1 1 1.000000
aluminiummisc
0  24.540936 102.499382 9.042847  -0.679184 0.675178 -0.287827  0.015625 0.980468 1 1 1.000000
0  24.417061 101.907532 8.409710  -0.565318 0.627905 -0.534931  0.015625 0.980468 1 1 1.000000
0  24.279423 101.797424 8.409710  -0.559871 0.603559 -0.567681  0.017579 0.982421 1 1 1.000000
aluminiummisc
0  24.430824 102.403038 9.111666  -0.690589 0.651066 -0.314959  0.017579 0.982421 1 1 1.000000
0  24.816212 102.926056 9.703511  -0.648347 0.760733 -0.030540  0.017579 0.982421 1 1 1.000000
0  24.912560 102.994873 9.579637  -0.631954 0.774713 -0.021281  0.015625 0.978515 1 1 1.000000
aluminiummisc
0  24.912560 102.994873 9.579637  -0.631954 0.774713 -0.021281  0.015625 0.978515 1 1 1.000000
0  24.540936 102.499382 9.042847  -0.679184 0.675178 -0.287827  0.015625 0.980468 1 1 1.000000
0  24.430824 102.403038 9.111666  -0.690589 0.651066 -0.314959  0.017579 0.982421 1 1 1.000000
aluminiummisc
0  24.816212 102.926056 9.703511  -0.648347 0.760733 -0.030540  0.017579 0.982421 1 1 1.000000
0  25.408058 103.270157 10.102663  -0.402845 0.892885 0.201177  0.017579 0.982421 1 1 1.000000
0  25.463112 103.338974 9.937496  -0.395267 0.896529 0.199997  0.017579 0.982421 1 1 1.000000
aluminiummisc
0  25.463112 103.338974 9.937496  -0.395267 0.896529 0.199997  0.017579 0.982421 1 1 1.000000
0  24.912560 102.994873 9.579637  -0.631954 0.774713 -0.021281  0.015625 0.978515 1 1 1.000000
0  24.816212 102.926056 9.703511  -0.648347 0.760733 -0.030540  0.017579 0.982421 1 1 1.000000
aluminiummisc
0  25.408058 103.270157 10.102663  -0.402845 0.892885 0.201177  0.017579 0.982421 1 1 1.000000
0  26.110012 103.394035 10.240301  0.001386 0.956328 0.292293  0.017579 0.982421 1 1 1.000000
0  26.110012 103.449089 10.061372  0.001725 0.956298 0.292389  0.017579 0.982421 1 1 1.000000
aluminiummisc
0  26.110012 103.449089 10.061372  0.001725 0.956298 0.292389  0.017579 0.982421 1 1 1.000000
0  25.463112 103.338974 9.937496  -0.395267 0.896529 0.199997  0.017579 0.982421 1 1 1.000000
0  25.408058 103.270157 10.102663  -0.402845 0.892885 0.201177  0.017579 0.982421 1 1 1.000000
misc
0  25.463114 94.915497 9.937496  -0.000031 0.999999 -0.001376  0.044923 0.783197 1 1 1.000000
0  26.110014 94.929260 10.061372  -0.000027 0.999999 -0.001641  0.046876 0.783197 1 1 1.000000
0  26.756916 94.915497 9.937496  -0.000030 0.999999 -0.001408  0.050783 0.783197 1 1 1.000000
misc
0  25.463114 94.915497 9.937496  -0.000031 0.999999 -0.001376  0.044923 0.783197 1 1 1.000000
0  26.756916 94.915497 9.937496  -0.000030 0.999999 -0.001408  0.050783 0.783197 1 1 1.000000
0  27.307470 94.915497 9.579637  -0.000026 0.999999 -0.001132  0.027345 0.783197 1 1 1.000000
misc
0  25.463114 94.915497 9.937496  -0.000031 0.999999 -0.001376  0.044923 0.783197 1 1 1.000000
0  27.307470 94.915497 9.579637  -0.000026 0.999999 -0.001132  0.027345 0.783197 1 1 1.000000
0  27.679092 94.915497 9.042847  -0.000029 0.999999 -0.001300  0.029298 0.783197 1 1 1.000000
misc
0  25.463114 94.915497 9.937496  -0.000031 0.999999 -0.001376  0.044923 0.783197 1 1 1.000000
0  27.679092 94.915497 9.042847  -0.000029 0.999999 -0.001300  0.029298 0.783197 1 1 1.000000
0  27.802969 94.915497 8.409710  -0.000029 0.999999 -0.001290  0.029298 0.783197 1 1 1.000000
misc
0  25.463114 94.915497 9.937496  -0.000031 0.999999 -0.001376  0.044923 0.783197 1 1 1.000000
0  27.802969 94.915497 8.409710  -0.000029 0.999999 -0.001290  0.029298 0.783197 1 1 1.000000
0  27.679092 94.915497 7.790337  -0.000029 0.999999 -0.001297  0.031251 0.783197 1 1 1.000000
misc
0  25.463114 94.915497 9.937496  -0.000031 0.999999 -0.001376  0.044923 0.783197 1 1 1.000000
0  27.679092 94.915497 7.790337  -0.000029 0.999999 -0.001297  0.031251 0.783197 1 1 1.000000
0  27.307470 94.915497 7.253547  -0.000029 0.999999 -0.001295  0.031251 0.783197 1 1 1.000000
misc
0  25.463114 94.915497 9.937496  -0.000031 0.999999 -0.001376  0.044923 0.783197 1 1 1.000000
0  27.307470 94.915497 7.253547  -0.000029 0.999999 -0.001295  0.031251 0.783197 1 1 1.000000
0  26.756916 94.915497 6.895686  -0.000030 0.999999 -0.001292  0.035157 0.783197 1 1 1.000000
misc
0  25.463114 94.915497 9.937496  -0.000031 0.999999 -0.001376  0.044923 0.783197 1 1 1.000000
0  26.756916 94.915497 6.895686  -0.000030 0.999999 -0.001292  0.035157 0.783197 1 1 1.000000
0  26.110014 94.915497 6.758048  -0.000029 0.999999 -0.001296  0.037111 0.783197 1 1 1.000000
misc
0  25.463114 94.915497 9.937496  -0.000031 0.999999 -0.001376  0.044923 0.783197 1 1 1.000000
0  26.110014 94.915497 6.758048  -0.000029 0.999999 -0.001296  0.037111 0.783197 1 1 1.000000
0  25.463114 94.915497 6.895686  -0.000029 0.999999 -0.001294  0.037111 0.783197 1 1 1.000000
misc
0  25.463114 94.915497 9.937496  -0.000031 0.999999 -0.001376  0.044923 0.783197 1 1 1.000000
0  25.463114 94.915497 6.895686  -0.000029 0.999999 -0.001294  0.037111 0.783197 1 1 1.000000
0  24.912561 94.915497 7.253547  -0.000030 0.999999 -0.001292  0.039064 0.783197 1 1 1.000000
misc
0  25.463114 94.915497 9.937496  -0.000031 0.999999 -0.001376  0.044923 0.783197 1 1 1.000000
0  24.912561 94.915497 7.253547  -0.000030 0.999999 -0.001292  0.039064 0.783197 1 1 1.000000
0  24.540937 94.915497 7.790337  -0.000030 0.999999 -0.001291  0.039064 0.783197 1 1 1.000000
misc
0  25.463114 94.915497 9.937496  -0.000031 0.999999 -0.001376  0.044923 0.783197 1 1 1.000000
0  24.540937 94.915497 7.790337  -0.000030 0.999999 -0.001291  0.039064 0.783197 1 1 1.000000
0  24.417063 94.915497 8.409710  -0.000029 0.999999 -0.001299  0.042970 0.783197 1 1 1.000000
misc
0  25.463114 94.915497 9.937496  -0.000031 0.999999 -0.001376  0.044923 0.783197 1 1 1.000000
0  24.417063 94.915497 8.409710  -0.000029 0.999999 -0.001299  0.042970 0.783197 1 1 1.000000
0  24.540937 94.915497 9.042847  -0.000029 0.999999 -0.001282  0.042970 0.783197 1 1 1.000000
misc
0  25.463114 94.915497 9.937496  -0.000031 0.999999 -0.001376  0.044923 0.783197 1 1 1.000000
0  24.540937 94.915497 9.042847  -0.000029 0.999999 -0.001282  0.042970 0.783197 1 1 1.000000
0  24.912561 94.915497 9.579637  -0.000029 0.999999 -0.001389  0.044923 0.783197 1 1 1.000000
misc
0  26.110012 103.449089 10.061372  0.000006 0.000000 -1.000000  0.025391 0.818354 1 1 1.000000
0  26.756914 103.338974 9.937496  -0.333254 0.000000 -0.942837  0.027345 0.818354 1 1 1.000000
0  26.756916 94.915497 9.937496  -0.374726 0.000000 -0.927136  0.027345 0.783197 1 1 1.000000
misc
0  26.756916 94.915497 9.937496  -0.374726 0.000000 -0.927136  0.027345 0.783197 1 1 1.000000
0  26.110014 94.929260 10.061372  0.000001 0.000000 -1.000000  0.025391 0.783197 1 1 1.000000
0  26.110012 103.449089 10.061372  0.000006 0.000000 -1.000000  0.025391 0.818354 1 1 1.000000
misc
0  26.756914 103.338974 9.937496  -0.333254 0.000000 -0.942837  0.027345 0.818354 1 1 1.000000
0  27.307468 102.994873 9.579637  -0.641941 -0.000000 -0.766754  0.027345 0.818354 1 1 1.000000
0  27.307470 94.915497 9.579637  -0.698038 -0.000000 -0.716061  0.027345 0.783197 1 1 1.000000
misc
0  27.307470 94.915497 9.579637  -0.698038 -0.000000 -0.716061  0.027345 0.783197 1 1 1.000000
0  26.756916 94.915497 9.937496  -0.374726 0.000000 -0.927136  0.027345 0.783197 1 1 1.000000
0  26.756914 103.338974 9.937496  -0.333254 0.000000 -0.942837  0.027345 0.818354 1 1 1.000000
misc
0  27.307468 102.994873 9.579637  -0.641941 -0.000000 -0.766754  0.027345 0.818354 1 1 1.000000
0  27.679090 102.499382 9.042847  -0.880181 -0.000000 -0.474639  0.029298 0.818354 1 1 1.000000
0  27.679092 94.915497 9.042847  -0.920624 0.000001 -0.390451  0.029298 0.783197 1 1 1.000000
misc
0  27.679092 94.915497 9.042847  -0.920624 0.000001 -0.390451  0.029298 0.783197 1 1 1.000000
0  27.307470 94.915497 9.579637  -0.698038 -0.000000 -0.716061  0.027345 0.783197 1 1 1.000000
0  27.307468 102.994873 9.579637  -0.641941 -0.000000 -0.766754  0.027345 0.818354 1 1 1.000000
misc
0  27.679090 102.499382 9.042847  -0.880181 -0.000000 -0.474639  0.029298 0.818354 1 1 1.000000
0  27.802967 101.907532 8.409710  -0.995402 -0.000001 -0.095788  0.029298 0.818354 1 1 1.000000
0  27.802969 94.915497 8.409710  -1.000000 0.000001 0.000566  0.029298 0.783197 1 1 1.000000
misc
0  27.802969 94.915497 8.409710  -1.000000 0.000001 0.000566  0.029298 0.783197 1 1 1.000000
0  27.679092 94.915497 9.042847  -0.920624 0.000001 -0.390451  0.029298 0.783197 1 1 1.000000
0  27.679090 102.499382 9.042847  -0.880181 -0.000000 -0.474639  0.029298 0.818354 1 1 1.000000
misc
0  27.802967 101.907532 8.409710  -0.995402 -0.000001 -0.095788  0.029298 0.818354 1 1 1.000000
0  27.679090 101.329460 7.790337  -0.951104 0.000012 0.308872  0.031251 0.818354 1 1 1.000000
0  27.679092 94.915497 7.790337  -0.920488 -0.000000 0.390771  0.031251 0.783197 1 1 1.000000
misc
0  27.679092 94.915497 7.790337  -0.920488 -0.000000 0.390771  0.031251 0.783197 1 1 1.000000
0  27.802969 94.915497 8.409710  -1.000000 0.000001 0.000566  0.029298 0.783197 1 1 1.000000
0  27.802967 101.907532 8.409710  -0.995402 -0.000001 -0.095788  0.029298 0.818354 1 1 1.000000
misc
0  27.679090 101.329460 7.790337  -0.951104 0.000012 0.308872  0.011719 0.818354 1 1 1.000000
0  27.307468 100.820190 7.253547  -0.744710 -0.000000 0.667389  0.013672 0.818354 1 1 1.000000
0  27.307470 94.915497 7.253547  -0.698135 0.000001 0.715966  0.013672 0.783197 1 1 1.000000
misc
0  27.307470 94.915497 7.253547  -0.698135 0.000001 0.715966  0.013672 0.783197 1 1 1.000000
0  27.679092 94.915497 7.790337  -0.920488 -0.000000 0.390771  0.011719 0.783197 1 1 1.000000
0  27.679090 101.329460 7.790337  -0.951104 0.000012 0.308872  0.011719 0.818354 1 1 1.000000
misc
0  27.307468 100.820190 7.253547  -0.744710 -0.000000 0.667389  0.013672 0.818354 1 1 1.000000
0  26.756914 100.489853 6.895686  -0.408423 0.000000 0.912793  0.013672 0.818354 1 1 1.000000
0  26.756916 94.915497 6.895686  -0.374685 0.000000 0.927152  0.013672 0.783197 1 1 1.000000
misc
0  26.756916 94.915497 6.895686  -0.374685 0.000000 0.927152  0.013672 0.783197 1 1 1.000000
0  27.307470 94.915497 7.253547  -0.698135 0.000001 0.715966  0.013672 0.783197 1 1 1.000000
0  27.307468 100.820190 7.253547  -0.744710 -0.000000 0.667389  0.013672 0.818354 1 1 1.000000
misc
0  26.756914 100.489853 6.895686  -0.408423 0.000000 0.912793  0.013672 0.818354 1 1 1.000000
0  26.110012 100.379745 6.758048  -0.000003 0.000000 1.000000  0.015625 0.818354 1 1 1.000000
0  26.110014 94.915497 6.758048  0.000000 0.000000 1.000000  0.015625 0.783197 1 1 1.000000
misc
0  26.110014 94.915497 6.758048  0.000000 0.000000 1.000000  0.015625 0.783197 1 1 1.000000
0  26.756916 94.915497 6.895686  -0.374685 0.000000 0.927152  0.013672 0.783197 1 1 1.000000
0  26.756914 100.489853 6.895686  -0.408423 0.000000 0.912793  0.013672 0.818354 1 1 1.000000
misc
0  26.110012 100.379745 6.758048  -0.000003 0.000000 1.000000  0.015625 0.818354 1 1 1.000000
0  25.463112 100.489853 6.895686  0.408412 0.000000 0.912798  0.015625 0.818354 1 1 1.000000
0  25.463114 94.915497 6.895686  0.374645 0.000000 0.927169  0.015625 0.783197 1 1 1.000000
misc
0  25.463114 94.915497 6.895686  0.374645 0.000000 0.927169  0.015625 0.783197 1 1 1.000000
0  26.110014 94.915497 6.758048  0.000000 0.000000 1.000000  0.015625 0.783197 1 1 1.000000
0  26.110012 100.379745 6.758048  -0.000003 0.000000 1.000000  0.015625 0.818354 1 1 1.000000
misc
0  25.463112 100.489853 6.895686  0.408412 0.000000 0.912798  0.015625 0.818354 1 1 1.000000
0  24.912560 100.820190 7.253547  0.744805 0.000000 0.667282  0.017579 0.818354 1 1 1.000000
0  24.912561 94.915497 7.253547  0.698196 0.000000 0.715907  0.017579 0.783197 1 1 1.000000
misc
0  24.912561 94.915497 7.253547  0.698196 0.000000 0.715907  0.017579 0.783197 1 1 1.000000
0  25.463114 94.915497 6.895686  0.374645 0.000000 0.927169  0.015625 0.783197 1 1 1.000000
0  25.463112 100.489853 6.895686  0.408412 0.000000 0.912798  0.015625 0.818354 1 1 1.000000
misc
0  24.912560 100.820190 7.253547  0.744805 0.000000 0.667282  0.017579 0.818354 1 1 1.000000
0  24.540936 101.329460 7.790337  0.951130 -0.000000 0.308792  0.017579 0.818354 1 1 1.000000
0  24.540937 94.915497 7.790337  0.920487 0.000000 0.390773  0.017579 0.783197 1 1 1.000000
misc
0  24.540937 94.915497 7.790337  0.920487 0.000000 0.390773  0.017579 0.783197 1 1 1.000000
0  24.912561 94.915497 7.253547  0.698196 0.000000 0.715907  0.017579 0.783197 1 1 1.000000
0  24.912560 100.820190 7.253547  0.744805 0.000000 0.667282  0.017579 0.818354 1 1 1.000000
misc
0  24.540936 101.329460 7.790337  0.951130 -0.000000 0.308792  0.017579 0.818354 1 1 1.000000
0  24.417061 101.907532 8.409710  0.995401 0.000001 -0.095799  0.021485 0.818354 1 1 1.000000
0  24.417063 94.915497 8.409710  1.000000 0.000000 -0.000013  0.021485 0.783197 1 1 1.000000
misc
0  24.417063 94.915497 8.409710  1.000000 0.000000 -0.000013  0.021485 0.783197 1 1 1.000000
0  24.540937 94.915497 7.790337  0.920487 0.000000 0.390773  0.017579 0.783197 1 1 1.000000
0  24.540936 101.329460 7.790337  0.951130 -0.000000 0.308792  0.017579 0.818354 1 1 1.000000
misc
0  24.417061 101.907532 8.409710  0.995401 0.000001 -0.095799  0.021485 0.818354 1 1 1.000000
0  24.540936 102.499382 9.042847  0.880549 -0.000000 -0.473956  0.021485 0.818354 1 1 1.000000
0  24.540937 94.915497 9.042847  0.920642 0.000000 -0.390407  0.021485 0.783197 1 1 1.000000
misc
0  24.540937 94.915497 9.042847  0.920642 0.000000 -0.390407  0.021485 0.783197 1 1 1.000000
0  24.417063 94.915497 8.409710  1.000000 0.000000 -0.000013  0.021485 0.783197 1 1 1.000000
0  24.417061 101.907532 8.409710  0.995401 0.000001 -0.095799  0.021485 0.818354 1 1 1.000000
misc
0  24.540936 102.499382 9.042847  0.880549 -0.000000 -0.473956  0.021485 0.818354 1 1 1.000000
0  24.912560 102.994873 9.579637  0.642364 0.000000 -0.766400  0.023438 0.818354 1 1 1.000000
0  24.912561 94.915497 9.579637  0.698197 -0.000001 -0.715905  0.023438 0.783197 1 1 1.000000
misc
0  24.912561 94.915497 9.579637  0.698197 -0.000001 -0.715905  0.023438 0.783197 1 1 1.000000
0  24.540937 94.915497 9.042847  0.920642 0.000000 -0.390407  0.021485 0.783197 1 1 1.000000
0  24.540936 102.499382 9.042847  0.880549 -0.000000 -0.473956  0.021485 0.818354 1 1 1.000000
misc
0  24.912560 102.994873 9.579637  0.642364 0.000000 -0.766400  0.023438 0.818354 1 1 1.000000
0  25.463112 103.338974 9.937496  0.333263 0.000000 -0.942834  0.025391 0.818354 1 1 1.000000
0  25.463114 94.915497 9.937496  0.374724 0.000000 -0.927136  0.025391 0.783197 1 1 1.000000
misc
0  25.463114 94.915497 9.937496  0.374724 0.000000 -0.927136  0.025391 0.783197 1 1 1.000000
0  24.912561 94.915497 9.579637  0.698197 -0.000001 -0.715905  0.023438 0.783197 1 1 1.000000
0  24.912560 102.994873 9.579637  0.642364 0.000000 -0.766400  0.023438 0.818354 1 1 1.000000
misc
0  25.463112 103.338974 9.937496  0.333263 0.000000 -0.942834  0.025391 0.818354 1 1 1.000000
0  26.110012 103.449089 10.061372  0.000006 0.000000 -1.000000  0.025391 0.818354 1 1 1.000000
0  26.110014 94.929260 10.061372  0.000001 0.000000 -1.000000  0.025391 0.783197 1 1 1.000000
misc
0  26.110014 94.929260 10.061372  0.000001 0.000000 -1.000000  0.025391 0.783197 1 1 1.000000
0  25.463114 94.915497 9.937496  0.374724 0.000000 -0.927136  0.025391 0.783197 1 1 1.000000
0  25.463112 103.338974 9.937496  0.333263 0.000000 -0.942834  0.025391 0.818354 1 1 1.000000
aluminiummisc
0  -26.839514 103.270157 10.102667  -0.342202 0.000000 0.939626  0.017579 0.982421 1 1 1.000000
0  -26.839512 94.199783 10.102667  -0.383413 -0.000000 0.923577  0.017579 0.978515 1 1 1.000000
0  -26.137554 94.199783 10.240305  0.000000 0.000000 1.000000  0.017579 0.978515 1 1 1.000000
aluminiummisc
0  -26.137554 94.199783 10.240305  0.000000 0.000000 1.000000  0.017579 0.978515 1 1 1.000000
0  -26.137556 103.394035 10.240305  0.000001 0.000000 1.000000  0.017579 0.982421 1 1 1.000000
0  -26.839514 103.270157 10.102667  -0.342202 0.000000 0.939626  0.017579 0.982421 1 1 1.000000
aluminiummisc
0  -27.431356 102.926056 9.703515  -0.653896 -0.000000 0.756584  0.017579 0.982421 1 1 1.000000
0  -27.431355 94.199783 9.703515  -0.707109 0.000000 0.707104  0.017579 0.978515 1 1 1.000000
0  -26.839512 94.199783 10.102667  -0.383413 -0.000000 0.923577  0.017579 0.978515 1 1 1.000000
aluminiummisc
0  -26.839512 94.199783 10.102667  -0.383413 -0.000000 0.923577  0.017579 0.978515 1 1 1.000000
0  -26.839514 103.270157 10.102667  -0.342202 0.000000 0.939626  0.017579 0.982421 1 1 1.000000
0  -27.431356 102.926056 9.703515  -0.653896 -0.000000 0.756584  0.017579 0.982421 1 1 1.000000
aluminiummisc
0  -27.830509 102.403038 9.111670  -0.886721 -0.000000 0.462305  0.017579 0.982421 1 1 1.000000
0  -27.830507 94.199783 9.111670  -0.923872 -0.000000 0.382702  0.017579 0.978515 1 1 1.000000
0  -27.431355 94.199783 9.703515  -0.707109 0.000000 0.707104  0.017579 0.978515 1 1 1.000000
aluminiummisc
0  -27.431355 94.199783 9.703515  -0.707109 0.000000 0.707104  0.017579 0.978515 1 1 1.000000
0  -27.431356 102.926056 9.703515  -0.653896 -0.000000 0.756584  0.017579 0.982421 1 1 1.000000
0  -27.830509 102.403038 9.111670  -0.886721 -0.000000 0.462305  0.017579 0.982421 1 1 1.000000
aluminiummisc
0  -27.968149 101.797424 8.409714  -0.995981 -0.000002 0.089560  0.017579 0.982421 1 1 1.000000
0  -27.968147 94.199783 8.409714  -1.000000 -0.000000 -0.000152  0.017579 0.978515 1 1 1.000000
0  -27.830507 94.199783 9.111670  -0.923872 -0.000000 0.382702  0.017579 0.978515 1 1 1.000000
aluminiummisc
0  -27.830507 94.199783 9.111670  -0.923872 -0.000000 0.382702  0.017579 0.978515 1 1 1.000000
0  -27.830509 102.403038 9.111670  -0.886721 -0.000000 0.462305  0.017579 0.982421 1 1 1.000000
0  -27.968149 101.797424 8.409714  -0.995981 -0.000002 0.089560  0.017579 0.982421 1 1 1.000000
aluminiummisc
0  -27.830509 101.178047 7.721521  -0.952289 -0.000000 -0.305198  0.015625 0.980468 1 1 1.000000
0  -27.830507 94.199783 7.721521  -0.923834 0.000000 -0.382794  0.015625 0.978515 1 1 1.000000
0  -27.968147 94.199783 8.409714  -1.000000 -0.000000 -0.000152  0.015625 0.978515 1 1 1.000000
aluminiummisc
0  -27.968147 94.199783 8.409714  -1.000000 -0.000000 -0.000152  0.015625 0.978515 1 1 1.000000
0  -27.968149 101.797424 8.409714  -0.995981 -0.000002 0.089560  0.015625 0.982421 1 1 1.000000
0  -27.830509 101.178047 7.721521  -0.952289 -0.000000 -0.305198  0.015625 0.980468 1 1 1.000000
aluminiummisc
0  -27.431356 100.655029 7.129675  -0.751369 -0.000000 -0.659882  0.015625 0.980468 1 1 1.000000
0  -27.431355 94.199783 7.129675  -0.707106 -0.000000 -0.707108  0.015625 0.978515 1 1 1.000000
0  -27.830507 94.199783 7.721521  -0.923834 0.000000 -0.382794  0.015625 0.978515 1 1 1.000000
aluminiummisc
0  -27.830507 94.199783 7.721521  -0.923834 0.000000 -0.382794  0.015625 0.978515 1 1 1.000000
0  -27.830509 101.178047 7.721521  -0.952289 -0.000000 -0.305198  0.015625 0.980468 1 1 1.000000
0  -27.431356 100.655029 7.129675  -0.751369 -0.000000 -0.659882  0.015625 0.980468 1 1 1.000000
aluminiummisc
0  -26.839514 100.310928 6.730524  -0.416069 -0.000000 -0.909333  0.015625 0.980468 1 1 1.000000
0  -26.839512 94.199783 6.730524  -0.383410 -0.000000 -0.923578  0.015625 0.978515 1 1 1.000000
0  -27.431355 94.199783 7.129675  -0.707106 -0.000000 -0.707108  0.015625 0.978515 1 1 1.000000
aluminiummisc
0  -27.431355 94.199783 7.129675  -0.707106 -0.000000 -0.707108  0.015625 0.978515 1 1 1.000000
0  -27.431356 100.655029 7.129675  -0.751369 -0.000000 -0.659882  0.015625 0.980468 1 1 1.000000
0  -26.839514 100.310928 6.730524  -0.416069 -0.000000 -0.909333  0.015625 0.980468 1 1 1.000000
aluminiummisc
0  -26.137556 100.187050 6.592885  0.000000 0.000000 -1.000000  0.015625 0.980468 1 1 1.000000
0  -26.137554 94.199783 6.592885  0.000000 0.000000 -1.000000  0.015625 0.978515 1 1 1.000000
0  -26.839512 94.199783 6.730524  -0.383410 -0.000000 -0.923578  0.015625 0.978515 1 1 1.000000
aluminiummisc
0  -26.839512 94.199783 6.730524  -0.383410 -0.000000 -0.923578  0.015625 0.978515 1 1 1.000000
0  -26.839514 100.310928 6.730524  -0.416069 -0.000000 -0.909333  0.015625 0.980468 1 1 1.000000
0  -26.137556 100.187050 6.592885  0.000000 0.000000 -1.000000  0.015625 0.980468 1 1 1.000000
aluminiummisc
0  -26.137556 100.187050 6.592885  0.000000 0.000000 -1.000000  0.015625 0.980468 1 1 1.000000
0  -25.435600 100.310928 6.730524  0.417087 0.000000 -0.908867  0.015625 0.980468 1 1 1.000000
0  -25.435598 94.199783 6.730524  0.382936 0.000000 -0.923775  0.015625 0.978515 1 1 1.000000
aluminiummisc
0  -25.435598 94.199783 6.730524  0.382936 0.000000 -0.923775  0.015625 0.978515 1 1 1.000000
0  -26.137554 94.199783 6.592885  0.000000 0.000000 -1.000000  0.015625 0.978515 1 1 1.000000
0  -26.137556 100.187050 6.592885  0.000000 0.000000 -1.000000  0.015625 0.980468 1 1 1.000000
aluminiummisc
0  -25.435600 100.310928 6.730524  0.417087 0.000000 -0.908867  0.015625 0.980468 1 1 1.000000
0  -24.843754 100.655029 7.129675  0.751509 0.000000 -0.659723  0.015625 0.980468 1 1 1.000000
0  -24.843752 94.199783 7.129675  0.707102 0.000000 -0.707111  0.015625 0.978515 1 1 1.000000
aluminiummisc
0  -24.843752 94.199783 7.129675  0.707102 0.000000 -0.707111  0.015625 0.978515 1 1 1.000000
0  -25.435598 94.199783 6.730524  0.382936 0.000000 -0.923775  0.015625 0.978515 1 1 1.000000
0  -25.435600 100.310928 6.730524  0.417087 0.000000 -0.908867  0.015625 0.980468 1 1 1.000000
aluminiummisc
0  -24.843754 100.655029 7.129675  0.751509 0.000000 -0.659723  0.015625 0.980468 1 1 1.000000
0  -24.458366 101.178047 7.721521  0.952334 -0.000003 -0.305059  0.017579 0.980468 1 1 1.000000
0  -24.458364 94.199783 7.721521  0.923859 0.000000 -0.382732  0.017579 0.978515 1 1 1.000000
aluminiummisc
0  -24.458364 94.199783 7.721521  0.923859 0.000000 -0.382732  0.017579 0.978515 1 1 1.000000
0  -24.843752 94.199783 7.129675  0.707102 0.000000 -0.707111  0.015625 0.978515 1 1 1.000000
0  -24.843754 100.655029 7.129675  0.751509 0.000000 -0.659723  0.015625 0.980468 1 1 1.000000
aluminiummisc
0  -24.458366 101.178047 7.721521  0.952334 -0.000003 -0.305059  0.017579 0.980468 1 1 1.000000
0  -24.306965 101.797424 8.409714  0.995968 0.000001 0.089704  0.017579 0.982421 1 1 1.000000
0  -24.306963 94.199783 8.409714  1.000000 -0.000000 -0.000005  0.017579 0.978515 1 1 1.000000
aluminiummisc
0  -24.306963 94.199783 8.409714  1.000000 -0.000000 -0.000005  0.017579 0.978515 1 1 1.000000
0  -24.458364 94.199783 7.721521  0.923859 0.000000 -0.382732  0.017579 0.978515 1 1 1.000000
0  -24.458366 101.178047 7.721521  0.952334 -0.000003 -0.305059  0.017579 0.980468 1 1 1.000000
aluminiummisc
0  -24.306965 101.797424 8.409714  0.995968 0.000001 0.089704  0.017579 0.982421 1 1 1.000000
0  -24.458366 102.403038 9.111670  0.887148 -0.000000 0.461485  0.017579 0.982421 1 1 1.000000
0  -24.458364 94.199783 9.111670  0.923870 0.000000 0.382707  0.017579 0.978515 1 1 1.000000
aluminiummisc
0  -24.458364 94.199783 9.111670  0.923870 0.000000 0.382707  0.017579 0.978515 1 1 1.000000
0  -24.306963 94.199783 8.409714  1.000000 -0.000000 -0.000005  0.017579 0.978515 1 1 1.000000
0  -24.306965 101.797424 8.409714  0.995968 0.000001 0.089704  0.017579 0.982421 1 1 1.000000
aluminiummisc
0  -24.458366 102.403038 9.111670  0.887148 -0.000000 0.461485  0.017579 0.982421 1 1 1.000000
0  -24.843754 102.926056 9.703515  0.653968 0.000000 0.756522  0.017579 0.982421 1 1 1.000000
0  -24.843752 94.199783 9.703515  0.707183 -0.000004 0.707031  0.017579 0.978515 1 1 1.000000
aluminiummisc
0  -24.843752 94.199783 9.703515  0.707183 -0.000004 0.707031  0.017579 0.978515 1 1 1.000000
0  -24.458364 94.199783 9.111670  0.923870 0.000000 0.382707  0.017579 0.978515 1 1 1.000000
0  -24.458366 102.403038 9.111670  0.887148 -0.000000 0.461485  0.017579 0.982421 1 1 1.000000
aluminiummisc
0  -24.843754 102.926056 9.703515  0.653968 0.000000 0.756522  0.017579 0.982421 1 1 1.000000
0  -25.435600 103.270157 10.102667  0.342537 0.000000 0.939504  0.017579 0.982421 1 1 1.000000
0  -25.435598 94.199783 10.102667  0.383412 0.000000 0.923577  0.017579 0.978515 1 1 1.000000
aluminiummisc
0  -25.435598 94.199783 10.102667  0.383412 0.000000 0.923577  0.017579 0.978515 1 1 1.000000
0  -24.843752 94.199783 9.703515  0.707183 -0.000004 0.707031  0.017579 0.978515 1 1 1.000000
0  -24.843754 102.926056 9.703515  0.653968 0.000000 0.756522  0.017579 0.982421 1 1 1.000000
aluminiummisc
0  -25.435600 103.270157 10.102667  0.342537 0.000000 0.939504  0.017579 0.982421 1 1 1.000000
0  -26.137556 103.394035 10.240305  0.000001 0.000000 1.000000  0.017579 0.982421 1 1 1.000000
0  -26.137554 94.199783 10.240305  0.000000 0.000000 1.000000  0.017579 0.978515 1 1 1.000000
aluminiummisc
0  -26.137554 94.199783 10.240305  0.000000 0.000000 1.000000  0.017579 0.978515 1 1 1.000000
0  -25.435598 94.199783 10.102667  0.383412 0.000000 0.923577  0.017579 0.978515 1 1 1.000000
0  -25.435600 103.270157 10.102667  0.342537 0.000000 0.939504  0.017579 0.982421 1 1 1.000000
aluminiummisc
0  -26.784456 103.338974 9.937500  -0.398875 0.894311 0.202748  0.015625 0.982421 1 1 1.000000
0  -26.839514 103.270157 10.102667  -0.403922 0.893598 0.195782  0.017579 0.982421 1 1 1.000000
0  -26.137556 103.394035 10.240305  -0.001453 0.956333 0.292275  0.017579 0.982421 1 1 1.000000
aluminiummisc
0  -26.137556 103.394035 10.240305  -0.001453 0.956333 0.292275  0.017579 0.982421 1 1 1.000000
0  -26.137556 103.449089 10.061376  -0.001799 0.956295 0.292398  0.017579 0.982421 1 1 1.000000
0  -26.784456 103.338974 9.937500  -0.398875 0.894311 0.202748  0.015625 0.982421 1 1 1.000000
aluminiummisc
0  -27.335012 102.994873 9.579640  -0.636317 0.771271 -0.015524  0.015625 0.982421 1 1 1.000000
0  -27.431356 102.926056 9.703515  -0.645714 0.762545 -0.039731  0.017579 0.982421 1 1 1.000000
0  -26.839514 103.270157 10.102667  -0.403922 0.893598 0.195782  0.017579 0.982421 1 1 1.000000
aluminiummisc
0  -26.839514 103.270157 10.102667  -0.403922 0.893598 0.195782  0.017579 0.982421 1 1 1.000000
0  -26.784456 103.338974 9.937500  -0.398875 0.894311 0.202748  0.015625 0.982421 1 1 1.000000
0  -27.335012 102.994873 9.579640  -0.636317 0.771271 -0.015524  0.015625 0.982421 1 1 1.000000
aluminiummisc
0  -27.706633 102.499382 9.042850  -0.686496 0.671758 -0.278324  0.015625 0.982421 1 1 1.000000
0  -27.830509 102.403038 9.111670  -0.682359 0.653684 -0.327236  0.017579 0.982421 1 1 1.000000
0  -27.431356 102.926056 9.703515  -0.645714 0.762545 -0.039731  0.017579 0.982421 1 1 1.000000
aluminiummisc
0  -27.431356 102.926056 9.703515  -0.645714 0.762545 -0.039731  0.017579 0.982421 1 1 1.000000
0  -27.335012 102.994873 9.579640  -0.636317 0.771271 -0.015524  0.015625 0.982421 1 1 1.000000
0  -27.706633 102.499382 9.042850  -0.686496 0.671758 -0.278324  0.015625 0.982421 1 1 1.000000
aluminiummisc
0  -27.830509 101.907532 8.409714  -0.579993 0.625116 -0.522339  0.015625 0.982421 1 1 1.000000
0  -27.968149 101.797424 8.409714  -0.543415 0.607225 -0.579636  0.017579 0.982421 1 1 1.000000
0  -27.830509 102.403038 9.111670  -0.682359 0.653684 -0.327236  0.017579 0.982421 1 1 1.000000
aluminiummisc
0  -27.830509 102.403038 9.111670  -0.682359 0.653684 -0.327236  0.017579 0.982421 1 1 1.000000
0  -27.706633 102.499382 9.042850  -0.686496 0.671758 -0.278324  0.015625 0.982421 1 1 1.000000
0  -27.830509 101.907532 8.409714  -0.579993 0.625116 -0.522339  0.015625 0.982421 1 1 1.000000
aluminiummisc
0  -27.706633 101.329460 7.790340  -0.378099 0.623431 -0.684380  0.015625 0.982421 1 1 1.000000
0  -27.830509 101.178047 7.721521  -0.323330 0.615253 -0.718973  0.015625 0.980468 1 1 1.000000
0  -27.968149 101.797424 8.409714  -0.543415 0.607225 -0.579636  0.015625 0.982421 1 1 1.000000
aluminiummisc
0  -27.968149 101.797424 8.409714  -0.543415 0.607225 -0.579636  0.015625 0.982421 1 1 1.000000
0  -27.830509 101.907532 8.409714  -0.579993 0.625116 -0.522339  0.015625 0.982421 1 1 1.000000
0  -27.706633 101.329460 7.790340  -0.378099 0.623431 -0.684380  0.015625 0.982421 1 1 1.000000
aluminiummisc
0  -27.335012 100.820190 7.253551  -0.183437 0.646095 -0.740886  0.015625 0.982421 1 1 1.000000
0  -27.431356 100.655029 7.129675  -0.143701 0.648071 -0.747900  0.015625 0.980468 1 1 1.000000
0  -27.830509 101.178047 7.721521  -0.323330 0.615253 -0.718973  0.015625 0.980468 1 1 1.000000
aluminiummisc
0  -27.830509 101.178047 7.721521  -0.323330 0.615253 -0.718973  0.015625 0.980468 1 1 1.000000
0  -27.706633 101.329460 7.790340  -0.378099 0.623431 -0.684380  0.015625 0.982421 1 1 1.000000
0  -27.335012 100.820190 7.253551  -0.183437 0.646095 -0.740886  0.015625 0.982421 1 1 1.000000
aluminiummisc
0  -26.784456 100.489853 6.895690  -0.062688 0.672513 -0.737426  0.015625 0.982421 1 1 1.000000
0  -26.839514 100.310928 6.730524  -0.048481 0.676950 -0.734430  0.015625 0.980468 1 1 1.000000
0  -27.431356 100.655029 7.129675  -0.143701 0.648071 -0.747900  0.015625 0.980468 1 1 1.000000
aluminiummisc
0  -27.431356 100.655029 7.129675  -0.143701 0.648071 -0.747900  0.015625 0.980468 1 1 1.000000
0  -27.335012 100.820190 7.253551  -0.183437 0.646095 -0.740886  0.015625 0.982421 1 1 1.000000
0  -26.784456 100.489853 6.895690  -0.062688 0.672513 -0.737426  0.015625 0.982421 1 1 1.000000
aluminiummisc
0  -26.137556 100.379745 6.758051  -0.003723 0.685788 -0.727792  0.015625 0.982421 1 1 1.000000
0  -26.137556 100.187050 6.592885  -0.002336 0.685529 -0.728042  0.015625 0.980468 1 1 1.000000
0  -26.839514 100.310928 6.730524  -0.048481 0.676950 -0.734430  0.015625 0.980468 1 1 1.000000
aluminiummisc
0  -26.839514 100.310928 6.730524  -0.048481 0.676950 -0.734430  0.015625 0.980468 1 1 1.000000
0  -26.784456 100.489853 6.895690  -0.062688 0.672513 -0.737426  0.015625 0.982421 1 1 1.000000
0  -26.137556 100.379745 6.758051  -0.003723 0.685788 -0.727792  0.015625 0.982421 1 1 1.000000
aluminiummisc
0  -25.490654 100.489853 6.895690  0.049658 0.676574 -0.734698  0.015625 0.982421 1 1 1.000000
0  -25.435600 100.310928 6.730524  0.050047 0.671087 -0.739687  0.015625 0.980468 1 1 1.000000
0  -26.137556 100.187050 6.592885  -0.002336 0.685529 -0.728042  0.015625 0.980468 1 1 1.000000
aluminiummisc
0  -26.137556 100.187050 6.592885  -0.002336 0.685529 -0.728042  0.015625 0.980468 1 1 1.000000
0  -26.137556 100.379745 6.758051  -0.003723 0.685788 -0.727792  0.015625 0.982421 1 1 1.000000
0  -25.490654 100.489853 6.895690  0.049658 0.676574 -0.734698  0.015625 0.982421 1 1 1.000000
aluminiummisc
0  -24.940102 100.820190 7.253551  0.161263 0.650452 -0.742231  0.015625 0.980468 1 1 1.000000
0  -24.843754 100.655029 7.129675  0.157838 0.640627 -0.751455  0.015625 0.980468 1 1 1.000000
0  -25.435600 100.310928 6.730524  0.050047 0.671087 -0.739687  0.015625 0.980468 1 1 1.000000
aluminiummisc
0  -25.435600 100.310928 6.730524  0.050047 0.671087 -0.739687  0.015625 0.980468 1 1 1.000000
0  -25.490654 100.489853 6.895690  0.049658 0.676574 -0.734698  0.015625 0.982421 1 1 1.000000
0  -24.940102 100.820190 7.253551  0.161263 0.650452 -0.742231  0.015625 0.980468 1 1 1.000000
aluminiummisc
0  -24.568478 101.329460 7.790340  0.355129 0.626536 -0.693784  0.015625 0.980468 1 1 1.000000
0  -24.458366 101.178047 7.721521  0.344100 0.609673 -0.714068  0.017579 0.980468 1 1 1.000000
0  -24.843754 100.655029 7.129675  0.157838 0.640627 -0.751455  0.015625 0.980468 1 1 1.000000
aluminiummisc
0  -24.843754 100.655029 7.129675  0.157838 0.640627 -0.751455  0.015625 0.980468 1 1 1.000000
0  -24.940102 100.820190 7.253551  0.161263 0.650452 -0.742231  0.015625 0.980468 1 1 1.000000
0  -24.568478 101.329460 7.790340  0.355129 0.626536 -0.693784  0.015625 0.980468 1 1 1.000000
aluminiummisc
0  -24.444603 101.907532 8.409714  0.565278 0.627925 -0.534949  0.015625 0.980468 1 1 1.000000
0  -24.306965 101.797424 8.409714  0.559830 0.603591 -0.567687  0.017579 0.982421 1 1 1.000000
0  -24.458366 101.178047 7.721521  0.344100 0.609673 -0.714068  0.017579 0.980468 1 1 1.000000
aluminiummisc
0  -24.458366 101.178047 7.721521  0.344100 0.609673 -0.714068  0.017579 0.980468 1 1 1.000000
0  -24.568478 101.329460 7.790340  0.355129 0.626536 -0.693784  0.015625 0.980468 1 1 1.000000
0  -24.444603 101.907532 8.409714  0.565278 0.627925 -0.534949  0.015625 0.980468 1 1 1.000000
aluminiummisc
0  -24.568478 102.499382 9.042850  0.679159 0.675211 -0.287810  0.015625 0.980468 1 1 1.000000
0  -24.458366 102.403038 9.111670  0.690545 0.651097 -0.314991  0.017579 0.982421 1 1 1.000000
0  -24.306965 101.797424 8.409714  0.559830 0.603591 -0.567687  0.017579 0.982421 1 1 1.000000
aluminiummisc
0  -24.306965 101.797424 8.409714  0.559830 0.603591 -0.567687  0.017579 0.982421 1 1 1.000000
0  -24.444603 101.907532 8.409714  0.565278 0.627925 -0.534949  0.015625 0.980468 1 1 1.000000
0  -24.568478 102.499382 9.042850  0.679159 0.675211 -0.287810  0.015625 0.980468 1 1 1.000000
aluminiummisc
0  -24.940102 102.994873 9.579640  0.631929 0.774734 -0.021298  0.015625 0.978515 1 1 1.000000
0  -24.843754 102.926056 9.703515  0.648318 0.760757 -0.030552  0.017579 0.982421 1 1 1.000000
0  -24.458366 102.403038 9.111670  0.690545 0.651097 -0.314991  0.017579 0.982421 1 1 1.000000
aluminiummisc
0  -24.458366 102.403038 9.111670  0.690545 0.651097 -0.314991  0.017579 0.982421 1 1 1.000000
0  -24.568478 102.499382 9.042850  0.679159 0.675211 -0.287810  0.015625 0.980468 1 1 1.000000
0  -24.940102 102.994873 9.579640  0.631929 0.774734 -0.021298  0.015625 0.978515 1 1 1.000000
aluminiummisc
0  -25.490654 103.338974 9.937500  0.395212 0.896542 0.200052  0.017579 0.982421 1 1 1.000000
0  -25.435600 103.270157 10.102667  0.402779 0.892898 0.201251  0.017579 0.982421 1 1 1.000000
0  -24.843754 102.926056 9.703515  0.648318 0.760757 -0.030552  0.017579 0.982421 1 1 1.000000
aluminiummisc
0  -24.843754 102.926056 9.703515  0.648318 0.760757 -0.030552  0.017579 0.982421 1 1 1.000000
0  -24.940102 102.994873 9.579640  0.631929 0.774734 -0.021298  0.015625 0.978515 1 1 1.000000
0  -25.490654 103.338974 9.937500  0.395212 0.896542 0.200052  0.017579 0.982421 1 1 1.000000
aluminiummisc
0  -26.137556 103.449089 10.061376  -0.001799 0.956295 0.292398  0.017579 0.982421 1 1 1.000000
0  -26.137556 103.394035 10.240305  -0.001453 0.956333 0.292275  0.017579 0.982421 1 1 1.000000
0  -25.435600 103.270157 10.102667  0.402779 0.892898 0.201251  0.017579 0.982421 1 1 1.000000
aluminiummisc
0  -25.435600 103.270157 10.102667  0.402779 0.892898 0.201251  0.017579 0.982421 1 1 1.000000
0  -25.490654 103.338974 9.937500  0.395212 0.896542 0.200052  0.017579 0.982421 1 1 1.000000
0  -26.137556 103.449089 10.061376  -0.001799 0.956295 0.292398  0.017579 0.982421 1 1 1.000000
misc
0  -25.490652 94.915497 9.937500  -0.000030 0.999999 -0.001375  0.044923 0.783197 1 1 1.000000
0  -24.940100 94.915497 9.579640  -0.000032 0.999999 -0.001485  0.044923 0.783197 1 1 1.000000
0  -24.568476 94.915497 9.042850  -0.000029 0.999999 -0.001282  0.042970 0.783197 1 1 1.000000
misc
0  -25.490652 94.915497 9.937500  -0.000030 0.999999 -0.001375  0.044923 0.783197 1 1 1.000000
0  -24.568476 94.915497 9.042850  -0.000029 0.999999 -0.001282  0.042970 0.783197 1 1 1.000000
0  -24.444601 94.915497 8.409714  -0.000029 0.999999 -0.001299  0.042970 0.783197 1 1 1.000000
misc
0  -25.490652 94.915497 9.937500  -0.000030 0.999999 -0.001375  0.044923 0.783197 1 1 1.000000
0  -24.444601 94.915497 8.409714  -0.000029 0.999999 -0.001299  0.042970 0.783197 1 1 1.000000
0  -24.568476 94.915497 7.790340  -0.000030 0.999999 -0.001291  0.039064 0.783197 1 1 1.000000
misc
0  -25.490652 94.915497 9.937500  -0.000030 0.999999 -0.001375  0.044923 0.783197 1 1 1.000000
0  -24.568476 94.915497 7.790340  -0.000030 0.999999 -0.001291  0.039064 0.783197 1 1 1.000000
0  -24.940100 94.915497 7.253551  -0.000029 0.999999 -0.001292  0.039064 0.783197 1 1 1.000000
misc
0  -25.490652 94.915497 9.937500  -0.000030 0.999999 -0.001375  0.044923 0.783197 1 1 1.000000
0  -24.940100 94.915497 7.253551  -0.000029 0.999999 -0.001292  0.039064 0.783197 1 1 1.000000
0  -25.490652 94.915497 6.895690  -0.000029 0.999999 -0.001294  0.037111 0.783197 1 1 1.000000
misc
0  -25.490652 94.915497 9.937500  -0.000030 0.999999 -0.001375  0.044923 0.783197 1 1 1.000000
0  -25.490652 94.915497 6.895690  -0.000029 0.999999 -0.001294  0.037111 0.783197 1 1 1.000000
0  -26.137554 94.915497 6.758051  -0.000029 0.999999 -0.001296  0.037111 0.783197 1 1 1.000000
misc
0  -25.490652 94.915497 9.937500  -0.000030 0.999999 -0.001375  0.044923 0.783197 1 1 1.000000
0  -26.137554 94.915497 6.758051  -0.000029 0.999999 -0.001296  0.037111 0.783197 1 1 1.000000
0  -26.784454 94.915497 6.895690  -0.000029 0.999999 -0.001294  0.035157 0.783197 1 1 1.000000
misc
0  -25.490652 94.915497 9.937500  -0.000030 0.999999 -0.001375  0.044923 0.783197 1 1 1.000000
0  -26.784454 94.915497 6.895690  -0.000029 0.999999 -0.001294  0.035157 0.783197 1 1 1.000000
0  -27.335011 94.915497 7.253551  -0.000029 0.999999 -0.001295  0.031251 0.783197 1 1 1.000000
misc
0  -25.490652 94.915497 9.937500  -0.000030 0.999999 -0.001375  0.044923 0.783197 1 1 1.000000
0  -27.335011 94.915497 7.253551  -0.000029 0.999999 -0.001295  0.031251 0.783197 1 1 1.000000
0  -27.706631 94.915497 7.790340  -0.000029 0.999999 -0.001295  0.031251 0.783197 1 1 1.000000
misc
0  -25.490652 94.915497 9.937500  -0.000030 0.999999 -0.001375  0.044923 0.783197 1 1 1.000000
0  -27.706631 94.915497 7.790340  -0.000029 0.999999 -0.001295  0.031251 0.783197 1 1 1.000000
0  -27.830507 94.915497 8.409714  -0.000029 0.999999 -0.001290  0.029298 0.783197 1 1 1.000000
misc
0  -25.490652 94.915497 9.937500  -0.000030 0.999999 -0.001375  0.044923 0.783197 1 1 1.000000
0  -27.830507 94.915497 8.409714  -0.000029 0.999999 -0.001290  0.029298 0.783197 1 1 1.000000
0  -27.706631 94.915497 9.042850  -0.000029 0.999999 -0.001302  0.029298 0.783197 1 1 1.000000
misc
0  -25.490652 94.915497 9.937500  -0.000030 0.999999 -0.001375  0.044923 0.783197 1 1 1.000000
0  -27.706631 94.915497 9.042850  -0.000029 0.999999 -0.001302  0.029298 0.783197 1 1 1.000000
0  -27.335011 94.915497 9.579640  -0.000029 0.999999 -0.001281  0.027345 0.783197 1 1 1.000000
misc
0  -25.490652 94.915497 9.937500  -0.000030 0.999999 -0.001375  0.044923 0.783197 1 1 1.000000
0  -27.335011 94.915497 9.579640  -0.000029 0.999999 -0.001281  0.027345 0.783197 1 1 1.000000
0  -26.784454 94.915497 9.937500  -0.000030 0.999999 -0.001345  0.050783 0.783197 1 1 1.000000
misc
0  -25.490652 94.915497 9.937500  -0.000030 0.999999 -0.001375  0.044923 0.783197 1 1 1.000000
0  -26.784454 94.915497 9.937500  -0.000030 0.999999 -0.001345  0.050783 0.783197 1 1 1.000000
0  -26.137554 94.929260 10.061376  -0.000027 0.999999 -0.001640  0.046876 0.783197 1 1 1.000000
misc
0  -26.784454 94.915497 9.937500  0.374724 0.000000 -0.927137  0.027345 0.783197 1 1 1.000000
0  -26.784456 103.338974 9.937500  0.333043 0.000000 -0.942912  0.027345 0.818354 1 1 1.000000
0  -26.137556 103.449089 10.061376  -0.000004 -0.000000 -1.000000  0.025391 0.818354 1 1 1.000000
misc
0  -26.137556 103.449089 10.061376  -0.000004 -0.000000 -1.000000  0.025391 0.818354 1 1 1.000000
0  -26.137554 94.929260 10.061376  -0.000002 -0.000000 -1.000000  0.025391 0.783197 1 1 1.000000
0  -26.784454 94.915497 9.937500  0.374724 0.000000 -0.927137  0.027345 0.783197 1 1 1.000000
misc
0  -27.335011 94.915497 9.579640  0.698199 0.000001 -0.715904  0.027345 0.783197 1 1 1.000000
0  -27.335012 102.994873 9.579640  0.641941 0.000000 -0.766754  0.027345 0.818354 1 1 1.000000
0  -26.784456 103.338974 9.937500  0.333043 0.000000 -0.942912  0.027345 0.818354 1 1 1.000000
misc
0  -26.784456 103.338974 9.937500  0.333043 0.000000 -0.942912  0.027345 0.818354 1 1 1.000000
0  -26.784454 94.915497 9.937500  0.374724 0.000000 -0.927137  0.027345 0.783197 1 1 1.000000
0  -27.335011 94.915497 9.579640  0.698199 0.000001 -0.715904  0.027345 0.783197 1 1 1.000000
misc
0  -27.706631 94.915497 9.042850  0.920572 0.000000 -0.390573  0.029298 0.783197 1 1 1.000000
0  -27.706633 102.499382 9.042850  0.880182 0.000000 -0.474636  0.029298 0.818354 1 1 1.000000
0  -27.335012 102.994873 9.579640  0.641941 0.000000 -0.766754  0.027345 0.818354 1 1 1.000000
misc
0  -27.335012 102.994873 9.579640  0.641941 0.000000 -0.766754  0.027345 0.818354 1 1 1.000000
0  -27.335011 94.915497 9.579640  0.698199 0.000001 -0.715904  0.027345 0.783197 1 1 1.000000
0  -27.706631 94.915497 9.042850  0.920572 0.000000 -0.390573  0.029298 0.783197 1 1 1.000000
misc
0  -27.830507 94.915497 8.409714  1.000000 0.000000 0.000387  0.029298 0.783197 1 1 1.000000
0  -27.830509 101.907532 8.409714  0.995419 0.000000 -0.095607  0.029298 0.818354 1 1 1.000000
0  -27.706633 102.499382 9.042850  0.880182 0.000000 -0.474636  0.029298 0.818354 1 1 1.000000
misc
0  -27.706633 102.499382 9.042850  0.880182 0.000000 -0.474636  0.029298 0.818354 1 1 1.000000
0  -27.706631 94.915497 9.042850  0.920572 0.000000 -0.390573  0.029298 0.783197 1 1 1.000000
0  -27.830507 94.915497 8.409714  1.000000 0.000000 0.000387  0.029298 0.783197 1 1 1.000000
misc
0  -27.706631 94.915497 7.790340  0.920488 0.000000 0.390771  0.031251 0.783197 1 1 1.000000
0  -27.706633 101.329460 7.790340  0.951076 -0.000017 0.308957  0.031251 0.818354 1 1 1.000000
0  -27.830509 101.907532 8.409714  0.995419 0.000000 -0.095607  0.029298 0.818354 1 1 1.000000
misc
0  -27.830509 101.907532 8.409714  0.995419 0.000000 -0.095607  0.029298 0.818354 1 1 1.000000
0  -27.830507 94.915497 8.409714  1.000000 0.000000 0.000387  0.029298 0.783197 1 1 1.000000
0  -27.706631 94.915497 7.790340  0.920488 0.000000 0.390771  0.031251 0.783197 1 1 1.000000
misc
0  -27.335011 94.915497 7.253551  0.697974 0.000000 0.716123  0.013672 0.783197 1 1 1.000000
0  -27.335012 100.820190 7.253551  0.744830 0.000001 0.667254  0.013672 0.818354 1 1 1.000000
0  -27.706633 101.329460 7.790340  0.951076 -0.000017 0.308957  0.011719 0.818354 1 1 1.000000
misc
0  -27.706633 101.329460 7.790340  0.951076 -0.000017 0.308957  0.011719 0.818354 1 1 1.000000
0  -27.706631 94.915497 7.790340  0.920488 0.000000 0.390771  0.011719 0.783197 1 1 1.000000
0  -27.335011 94.915497 7.253551  0.697974 0.000000 0.716123  0.013672 0.783197 1 1 1.000000
misc
0  -26.784454 94.915497 6.895690  0.374684 0.000000 0.927153  0.013672 0.783197 1 1 1.000000
0  -26.784456 100.489853 6.895690  0.408423 0.000000 0.912793  0.013672 0.818354 1 1 1.000000
0  -27.335012 100.820190 7.253551  0.744830 0.000001 0.667254  0.013672 0.818354 1 1 1.000000
misc
0  -27.335012 100.820190 7.253551  0.744830 0.000001 0.667254  0.013672 0.818354 1 1 1.000000
0  -27.335011 94.915497 7.253551  0.697974 0.000000 0.716123  0.013672 0.783197 1 1 1.000000
0  -26.784454 94.915497 6.895690  0.374684 0.000000 0.927153  0.013672 0.783197 1 1 1.000000
misc
0  -26.137554 94.915497 6.758051  -0.000000 -0.000000 1.000000  0.015625 0.783197 1 1 1.000000
0  -26.137556 100.379745 6.758051  0.000005 -0.000000 1.000000  0.015625 0.818354 1 1 1.000000
0  -26.784456 100.489853 6.895690  0.408423 0.000000 0.912793  0.013672 0.818354 1 1 1.000000
misc
0  -26.784456 100.489853 6.895690  0.408423 0.000000 0.912793  0.013672 0.818354 1 1 1.000000
0  -26.784454 94.915497 6.895690  0.374684 0.000000 0.927153  0.013672 0.783197 1 1 1.000000
0  -26.137554 94.915497 6.758051  -0.000000 -0.000000 1.000000  0.015625 0.783197 1 1 1.000000
misc
0  -25.490652 94.915497 6.895690  -0.374603 -0.000000 0.927185  0.015625 0.783197 1 1 1.000000
0  -25.490654 100.489853 6.895690  -0.408413 -0.000000 0.912798  0.015625 0.818354 1 1 1.000000
0  -26.137556 100.379745 6.758051  0.000005 -0.000000 1.000000  0.015625 0.818354 1 1 1.000000
misc
0  -26.137556 100.379745 6.758051  0.000005 -0.000000 1.000000  0.015625 0.818354 1 1 1.000000
0  -26.137554 94.915497 6.758051  -0.000000 -0.000000 1.000000  0.015625 0.783197 1 1 1.000000
0  -25.490652 94.915497 6.895690  -0.374603 -0.000000 0.927185  0.015625 0.783197 1 1 1.000000
misc
0  -24.940100 94.915497 7.253551  -0.698036 0.000001 0.716063  0.017579 0.783197 1 1 1.000000
0  -24.940102 100.820190 7.253551  -0.744804 0.000000 0.667283  0.017579 0.818354 1 1 1.000000
0  -25.490654 100.489853 6.895690  -0.408413 -0.000000 0.912798  0.015625 0.818354 1 1 1.000000
misc
0  -25.490654 100.489853 6.895690  -0.408413 -0.000000 0.912798  0.015625 0.818354 1 1 1.000000
0  -25.490652 94.915497 6.895690  -0.374603 -0.000000 0.927185  0.015625 0.783197 1 1 1.000000
0  -24.940100 94.915497 7.253551  -0.698036 0.000001 0.716063  0.017579 0.783197 1 1 1.000000
misc
0  -24.568476 94.915497 7.790340  -0.920487 -0.000000 0.390773  0.017579 0.783197 1 1 1.000000
0  -24.568478 101.329460 7.790340  -0.951172 -0.000001 0.308663  0.017579 0.818354 1 1 1.000000
0  -24.940102 100.820190 7.253551  -0.744804 0.000000 0.667283  0.017579 0.818354 1 1 1.000000
misc
0  -24.940102 100.820190 7.253551  -0.744804 0.000000 0.667283  0.017579 0.818354 1 1 1.000000
0  -24.940100 94.915497 7.253551  -0.698036 0.000001 0.716063  0.017579 0.783197 1 1 1.000000
0  -24.568476 94.915497 7.790340  -0.920487 -0.000000 0.390773  0.017579 0.783197 1 1 1.000000
misc
0  -24.444601 94.915497 8.409714  -1.000000 -0.000001 -0.000013  0.021485 0.783197 1 1 1.000000
0  -24.444603 101.907532 8.409714  -0.995401 0.000000 -0.095799  0.021485 0.818354 1 1 1.000000
0  -24.568478 101.329460 7.790340  -0.951172 -0.000001 0.308663  0.017579 0.818354 1 1 1.000000
misc
0  -24.568478 101.329460 7.790340  -0.951172 -0.000001 0.308663  0.017579 0.818354 1 1 1.000000
0  -24.568476 94.915497 7.790340  -0.920487 -0.000000 0.390773  0.017579 0.783197 1 1 1.000000
0  -24.444601 94.915497 8.409714  -1.000000 -0.000001 -0.000013  0.021485 0.783197 1 1 1.000000
misc
0  -24.568476 94.915497 9.042850  -0.920677 -0.000001 -0.390325  0.021485 0.783197 1 1 1.000000
0  -24.568478 102.499382 9.042850  -0.880182 -0.000000 -0.474636  0.021485 0.818354 1 1 1.000000
0  -24.444603 101.907532 8.409714  -0.995401 0.000000 -0.095799  0.021485 0.818354 1 1 1.000000
misc
0  -24.444603 101.907532 8.409714  -0.995401 0.000000 -0.095799  0.021485 0.818354 1 1 1.000000
0  -24.444601 94.915497 8.409714  -1.000000 -0.000001 -0.000013  0.021485 0.783197 1 1 1.000000
0  -24.568476 94.915497 9.042850  -0.920677 -0.000001 -0.390325  0.021485 0.783197 1 1 1.000000
misc
0  -24.940100 94.915497 9.579640  -0.698390 -0.000000 -0.715717  0.023438 0.783197 1 1 1.000000
0  -24.940102 102.994873 9.579640  -0.642260 -0.000000 -0.766487  0.023438 0.818354 1 1 1.000000
0  -24.568478 102.499382 9.042850  -0.880182 -0.000000 -0.474636  0.021485 0.818354 1 1 1.000000
misc
0  -24.568478 102.499382 9.042850  -0.880182 -0.000000 -0.474636  0.021485 0.818354 1 1 1.000000
0  -24.568476 94.915497 9.042850  -0.920677 -0.000001 -0.390325  0.021485 0.783197 1 1 1.000000
0  -24.940100 94.915497 9.579640  -0.698390 -0.000000 -0.715717  0.023438 0.783197 1 1 1.000000
misc
0  -25.490652 94.915497 9.937500  -0.374724 -0.000000 -0.927136  0.025391 0.783197 1 1 1.000000
0  -25.490654 103.338974 9.937500  -0.333135 -0.000000 -0.942879  0.025391 0.818354 1 1 1.000000
0  -24.940102 102.994873 9.579640  -0.642260 -0.000000 -0.766487  0.023438 0.818354 1 1 1.000000
misc
0  -24.940102 102.994873 9.579640  -0.642260 -0.000000 -0.766487  0.023438 0.818354 1 1 1.000000
0  -24.940100 94.915497 9.579640  -0.698390 -0.000000 -0.715717  0.023438 0.783197 1 1 1.000000
0  -25.490652 94.915497 9.937500  -0.374724 -0.000000 -0.927136  0.025391 0.783197 1 1 1.000000
misc
0  -26.137554 94.929260 10.061376  -0.000002 -0.000000 -1.000000  0.025391 0.783197 1 1 1.000000
0  -26.137556 103.449089 10.061376  -0.000004 -0.000000 -1.000000  0.025391 0.818354 1 1 1.000000
0  -25.490654 103.338974 9.937500  -0.333135 -0.000000 -0.942879  0.025391 0.818354 1 1 1.000000
misc
0  -25.490654 103.338974 9.937500  -0.333135 -0.000000 -0.942879  0.025391 0.818354 1 1 1.000000
0  -25.490652 94.915497 9.937500  -0.374724 -0.000000 -0.927136  0.025391 0.783197 1 1 1.000000
0  -26.137554 94.929260 10.061376  -0.000002 -0.000000 -1.000000  0.025391 0.783197 1 1 1.000000
end
