version 1
nodes
0 "blender_implicit" -1
1 "root" -1
2 "steering_wheel" 1
end
skeleton
time 0
0  0.000000 0.000000 0.000000  0.000000 -0.000000 0.000000
1  0.000000 0.000000 0.000000  1.570796 -0.000000 0.000000
2  18.487606 30.459387 10.889964  0.000000 -0.000000 0.000000
end
triangles
chromemisc
0  -41.924679 -14.080420 40.947453  0.350805 0.935301 0.046335  0.408216 0.835932 1 1 1.000000
0  -36.487957 -16.117468 41.071327  0.350810 0.935302 0.046288  0.486343 0.830073 1 1 1.000000
0  -36.295265 -16.186289 40.974979  0.350812 0.935299 0.046330  0.488296 0.833979 1 1 1.000000
chromemisc
0  -36.969692 -15.704554 36.171398  0.350810 0.935301 0.046305  0.485366 0.912107 1 1 1.000000
0  -37.657887 -15.429276 36.047523  0.350808 0.935299 0.046357  0.471694 0.913083 1 1 1.000000
0  -44.044312 -13.048131 36.391621  0.350792 0.935306 0.046336  0.378918 0.913083 1 1 1.000000
chromemisc
0  -36.969692 -15.704554 36.171398  0.350810 0.935301 0.046305  0.485366 0.912107 1 1 1.000000
0  -44.044312 -13.048131 36.391621  0.350792 0.935306 0.046336  0.378918 0.913083 1 1 1.000000
0  -44.360882 -12.938022 36.543022  0.350833 0.935290 0.046352  0.373058 0.907224 1 1 1.000000
chromemisc
0  -36.969692 -15.704554 36.171398  0.350810 0.935301 0.046305  0.485366 0.912107 1 1 1.000000
0  -44.360882 -12.938022 36.543022  0.350833 0.935290 0.046352  0.373058 0.907224 1 1 1.000000
0  -44.539810 -12.882965 36.777008  0.350815 0.935298 0.046325  0.368175 0.899411 1 1 1.000000
chromemisc
0  -36.639362 -15.842193 36.680660  0.350806 0.935304 0.046282  0.492203 0.898434 1 1 1.000000
0  -36.969692 -15.704554 36.171398  0.350810 0.935301 0.046305  0.485366 0.912107 1 1 1.000000
0  -44.539810 -12.882965 36.777008  0.350815 0.935298 0.046325  0.368175 0.899411 1 1 1.000000
chromemisc
0  -36.639362 -15.842193 36.680660  0.350806 0.935304 0.046282  0.492203 0.898434 1 1 1.000000
0  -44.539810 -12.882965 36.777008  0.350815 0.935298 0.046325  0.368175 0.899411 1 1 1.000000
0  -44.732506 -12.855438 37.478962  0.350846 0.935274 0.046581  0.368175 0.893551 1 1 1.000000
chromemisc
0  -36.212681 -16.144995 39.474724  0.350810 0.935300 0.046336  0.495132 0.860347 1 1 1.000000
0  -36.639362 -15.842193 36.680660  0.350806 0.935304 0.046282  0.492203 0.898434 1 1 1.000000
0  -44.732506 -12.855438 37.478962  0.350846 0.935274 0.046581  0.368175 0.893551 1 1 1.000000
chromemisc
0  -36.212681 -16.144995 39.474724  0.350810 0.935300 0.046336  0.495132 0.860347 1 1 1.000000
0  -44.732506 -12.855438 37.478962  0.350846 0.935274 0.046581  0.368175 0.893551 1 1 1.000000
0  -44.746269 -12.882965 38.249737  0.350817 0.935299 0.046294  0.367199 0.879879 1 1 1.000000
chromemisc
0  -36.143860 -16.213816 40.217968  0.350898 0.935269 0.046277  0.493179 0.846675 1 1 1.000000
0  -36.212681 -16.144995 39.474724  0.350810 0.935300 0.046336  0.495132 0.860347 1 1 1.000000
0  -44.746269 -12.882965 38.249737  0.350817 0.935299 0.046294  0.367199 0.879879 1 1 1.000000
chromemisc
0  -36.143860 -16.213816 40.217968  0.350898 0.935269 0.046277  0.493179 0.846675 1 1 1.000000
0  -44.746269 -12.882965 38.249737  0.350817 0.935299 0.046294  0.367199 0.879879 1 1 1.000000
0  -44.691216 -12.951785 39.323318  0.351027 0.935231 0.046089  0.366222 0.867183 1 1 1.000000
chromemisc
0  -36.171391 -16.227579 40.782284  0.350808 0.935300 0.046337  0.493179 0.834956 1 1 1.000000
0  -36.143860 -16.213816 40.217968  0.350898 0.935269 0.046277  0.493179 0.846675 1 1 1.000000
0  -44.691216 -12.951785 39.323318  0.351027 0.935231 0.046089  0.366222 0.867183 1 1 1.000000
chromemisc
0  -36.171391 -16.227579 40.782284  0.350808 0.935300 0.046337  0.493179 0.834956 1 1 1.000000
0  -44.691216 -12.951785 39.323318  0.351027 0.935231 0.046089  0.366222 0.867183 1 1 1.000000
0  -44.594864 -13.034369 40.190441  0.350832 0.935276 0.046652  0.364269 0.849605 1 1 1.000000
chromemisc
0  -36.295265 -16.186289 40.974979  0.350812 0.935299 0.046330  0.488296 0.833979 1 1 1.000000
0  -36.171391 -16.227579 40.782284  0.350808 0.935300 0.046337  0.493179 0.834956 1 1 1.000000
0  -44.594864 -13.034369 40.190441  0.350832 0.935276 0.046652  0.364269 0.849605 1 1 1.000000
chromemisc
0  -36.295265 -16.186289 40.974979  0.350812 0.935299 0.046330  0.488296 0.833979 1 1 1.000000
0  -44.594864 -13.034369 40.190441  0.350832 0.935276 0.046652  0.364269 0.849605 1 1 1.000000
0  -44.415936 -13.116952 40.507011  0.350860 0.935284 0.046263  0.368175 0.844722 1 1 1.000000
chromemisc
0  -41.924679 -14.080420 40.947453  0.350805 0.935301 0.046335  0.408216 0.835932 1 1 1.000000
0  -36.295265 -16.186289 40.974979  0.350812 0.935299 0.046330  0.488296 0.833979 1 1 1.000000
0  -44.415936 -13.116952 40.507011  0.350860 0.935284 0.046263  0.368175 0.844722 1 1 1.000000
chromemisc
0  -44.415936 -13.116952 40.507011  0.350860 0.935284 0.046263  0.368175 0.844722 1 1 1.000000
0  -44.140659 -13.227062 40.658409  0.350831 0.935291 0.046345  0.374035 0.842769 1 1 1.000000
0  -43.548813 -13.461047 40.796055  0.350784 0.935309 0.046352  0.382824 0.837886 1 1 1.000000
chromemisc
0  -44.415936 -13.116952 40.507011  0.350860 0.935284 0.046263  0.368175 0.844722 1 1 1.000000
0  -43.548813 -13.461047 40.796055  0.350784 0.935309 0.046352  0.382824 0.837886 1 1 1.000000
0  -42.626637 -13.805143 40.892399  0.350807 0.935306 0.046231  0.396496 0.836909 1 1 1.000000
chromemisc
0  -41.924679 -14.080420 40.947453  0.350805 0.935301 0.046335  0.408216 0.835932 1 1 1.000000
0  -44.415936 -13.116952 40.507011  0.350860 0.935284 0.046263  0.368175 0.844722 1 1 1.000000
0  -42.626637 -13.805143 40.892399  0.350807 0.935306 0.046231  0.396496 0.836909 1 1 1.000000
misc
0  -38.717705 -21.044928 37.231213  -0.507021 -0.826602 0.244250  0.078127 0.654286 1 1 1.000000
0  -38.580063 -20.824705 37.905643  -0.478940 -0.797548 0.366789  0.078127 0.654286 1 1 1.000000
0  -43.259773 -18.003119 37.988224  -0.570823 -0.781527 0.251749  0.078127 0.654286 1 1 1.000000
misc
0  -43.259773 -18.003119 37.988224  -0.570823 -0.781527 0.251749  0.078127 0.654286 1 1 1.000000
0  -43.383644 -18.140757 37.286270  -0.607108 -0.784754 0.124824  0.078127 0.654286 1 1 1.000000
0  -38.717705 -21.044928 37.231213  -0.507021 -0.826602 0.244250  0.078127 0.654286 1 1 1.000000
misc
0  -37.644123 -19.544666 38.690182  -0.129270 -0.280805 0.951019  0.078127 0.654286 1 1 1.000000
0  -38.112091 -19.613487 38.593838  -0.200958 -0.398805 0.894746  0.078127 0.654286 1 1 1.000000
0  -34.437145 -21.636772 38.483727  -0.157513 -0.337813 0.927940  0.078127 0.654286 1 1 1.000000
misc
0  -34.437145 -21.636772 38.483727  -0.157513 -0.337813 0.927940  0.078127 0.654286 1 1 1.000000
0  -34.340797 -20.989870 38.703949  -0.114043 -0.255017 0.960188  0.078127 0.654286 1 1 1.000000
0  -37.644123 -19.544666 38.690182  -0.129270 -0.280805 0.951019  0.078127 0.654286 1 1 1.000000
misc
0  -43.025787 -17.493856 38.483727  -0.380982 -0.532975 0.755507  0.078127 0.654286 1 1 1.000000
0  -43.259773 -18.003119 37.988224  -0.372810 -0.546344 0.750014  0.078127 0.654286 1 1 1.000000
0  -38.580063 -20.824705 37.905643  -0.226625 -0.426483 0.875645  0.078127 0.654286 1 1 1.000000
misc
0  -38.580063 -20.824705 37.905643  -0.226625 -0.426483 0.875645  0.078127 0.654286 1 1 1.000000
0  -38.112091 -19.613487 38.593838  -0.200958 -0.398805 0.894746  0.078127 0.654286 1 1 1.000000
0  -43.025787 -17.493856 38.483727  -0.380982 -0.532975 0.755507  0.078127 0.654286 1 1 1.000000
misc
0  -43.259773 -18.003119 37.988224  -0.372810 -0.546344 0.750014  0.078127 0.654286 1 1 1.000000
0  -43.025787 -17.493856 38.483727  -0.380982 -0.532975 0.755507  0.078127 0.654286 1 1 1.000000
0  -43.892910 -16.764372 38.469959  -0.431083 -0.454241 0.779636  0.078127 0.654286 1 1 1.000000
misc
0  -43.892910 -16.764372 38.469959  -0.431083 -0.454241 0.779636  0.078127 0.654286 1 1 1.000000
0  -44.374645 -17.025883 38.057045  -0.421913 -0.440561 0.792398  0.078127 0.654286 1 1 1.000000
0  -43.259773 -18.003119 37.988224  -0.372810 -0.546344 0.750014  0.078127 0.654286 1 1 1.000000
misc
0  -44.443462 -17.108469 37.341324  -0.785550 -0.616192 0.056729  0.078127 0.654286 1 1 1.000000
0  -44.374645 -17.163523 36.611843  -0.790939 -0.610913 -0.034671  0.078127 0.654286 1 1 1.000000
0  -43.369881 -18.168283 36.639370  -0.620020 -0.784442 0.015013  0.078127 0.654286 1 1 1.000000
misc
0  -43.369881 -18.168283 36.639370  -0.620020 -0.784442 0.015013  0.078127 0.654286 1 1 1.000000
0  -43.383644 -18.140757 37.286270  -0.607108 -0.784754 0.124824  0.078127 0.654286 1 1 1.000000
0  -44.443462 -17.108469 37.341324  -0.785550 -0.616192 0.056729  0.078127 0.654286 1 1 1.000000
misc
0  -45.117889 -13.075660 37.437672  -0.986514 0.109126 -0.121988  0.078127 0.654286 1 1 1.000000
0  -44.911434 -13.089425 36.570549  -0.963788 0.122503 -0.236866  0.078127 0.654286 1 1 1.000000
0  -45.076599 -14.906253 36.625607  -0.980177 -0.053221 -0.190843  0.078127 0.654286 1 1 1.000000
misc
0  -45.076599 -14.906253 36.625607  -0.980177 -0.053221 -0.190843  0.078127 0.654286 1 1 1.000000
0  -45.241768 -14.864961 37.492729  -0.995412 -0.062501 -0.072446  0.078127 0.654286 1 1 1.000000
0  -45.117889 -13.075660 37.437672  -0.986514 0.109126 -0.121988  0.078127 0.654286 1 1 1.000000
misc
0  -35.909878 -17.177284 39.199444  0.952777 -0.297502 0.060892  0.076174 0.662099 1 1 1.000000
0  -36.185154 -17.548910 39.887634  0.870638 -0.473059 0.134926  0.076174 0.662099 1 1 1.000000
0  -37.052277 -18.884003 39.557304  0.746044 -0.655790 0.115572  0.080081 0.660146 1 1 1.000000
misc
0  -37.052277 -18.884003 39.557304  0.746044 -0.655790 0.115572  0.080081 0.660146 1 1 1.000000
0  -37.217442 -19.145515 38.814056  0.720242 -0.689780 0.073862  0.082034 0.662099 1 1 1.000000
0  -35.909878 -17.177284 39.199444  0.952777 -0.297502 0.060892  0.076174 0.662099 1 1 1.000000
misc
0  -36.804527 -18.003117 40.933689  0.493320 -0.533472 0.687054  0.078127 0.660146 1 1 1.000000
0  -36.019989 -16.337690 41.319077  0.571784 -0.379473 0.727368  0.074221 0.660146 1 1 1.000000
0  -36.364082 -16.227579 41.456715  0.107346 -0.193810 0.975149  0.074221 0.658193 1 1 1.000000
misc
0  -36.364082 -16.227579 41.456715  0.107346 -0.193810 0.975149  0.074221 0.658193 1 1 1.000000
0  -37.148621 -17.920534 41.057564  0.023367 -0.417459 0.908395  0.078127 0.658193 1 1 1.000000
0  -36.804527 -18.003117 40.933689  0.493320 -0.533472 0.687054  0.078127 0.660146 1 1 1.000000
misc
0  -37.148621 -17.920534 41.057564  0.023367 -0.417459 0.908395  0.078127 0.658193 1 1 1.000000
0  -36.364082 -16.227579 41.456715  0.107346 -0.193810 0.975149  0.074221 0.658193 1 1 1.000000
0  -42.007263 -14.369460 41.346607  -0.093751 -0.142123 0.985399  0.074221 0.656240 1 1 1.000000
misc
0  -42.007263 -14.369460 41.346607  -0.093751 -0.142123 0.985399  0.074221 0.656240 1 1 1.000000
0  -42.544048 -15.952303 40.906162  -0.200575 -0.379845 0.903044  0.078127 0.656240 1 1 1.000000
0  -37.148621 -17.920534 41.057564  0.023367 -0.417459 0.908395  0.078127 0.658193 1 1 1.000000
misc
0  -44.140659 -14.975070 40.796055  -0.417066 -0.350896 0.838408  0.076174 0.654286 1 1 1.000000
0  -43.713978 -13.791379 41.167675  -0.229439 -0.129171 0.964714  0.074221 0.654286 1 1 1.000000
0  -44.429699 -13.543632 40.988743  -0.404477 -0.071343 0.911762  0.074221 0.654286 1 1 1.000000
misc
0  -44.429699 -13.543632 40.988743  -0.404477 -0.071343 0.911762  0.074221 0.654286 1 1 1.000000
0  -44.691216 -14.300643 40.754757  -0.655861 -0.197298 0.728643  0.076174 0.654286 1 1 1.000000
0  -44.140659 -14.975070 40.796055  -0.417066 -0.350896 0.838408  0.076174 0.654286 1 1 1.000000
misc
0  -44.429699 -13.543632 40.988743  -0.404477 -0.071343 0.911762  0.074221 0.654286 1 1 1.000000
0  -44.718742 -13.433520 40.809818  -0.730549 -0.010816 0.682774  0.074221 0.654286 1 1 1.000000
0  -44.691216 -14.300643 40.754757  -0.655861 -0.197298 0.728643  0.076174 0.654286 1 1 1.000000
misc
0  -37.148621 -17.920534 41.057564  0.023367 -0.417459 0.908395  0.078127 0.654286 1 1 1.000000
0  -37.602833 -18.760128 40.479485  -0.055441 -0.717170 0.694690  0.078127 0.654286 1 1 1.000000
0  -37.134857 -18.677544 40.451954  0.425574 -0.735563 0.527099  0.078127 0.654286 1 1 1.000000
misc
0  -37.134857 -18.677544 40.451954  0.425574 -0.735563 0.527099  0.078127 0.654286 1 1 1.000000
0  -36.804527 -18.003117 40.933689  0.493320 -0.533472 0.687054  0.078127 0.654286 1 1 1.000000
0  -37.148621 -17.920534 41.057564  0.023367 -0.417459 0.908395  0.078127 0.654286 1 1 1.000000
misc
0  -42.544048 -15.952303 40.906162  -0.200575 -0.379845 0.903044  0.078127 0.654286 1 1 1.000000
0  -42.791801 -16.736843 40.328079  -0.357296 -0.663199 0.657652  0.078127 0.654286 1 1 1.000000
0  -37.602833 -18.760128 40.479485  -0.055441 -0.717170 0.694690  0.078127 0.654286 1 1 1.000000
misc
0  -37.602833 -18.760128 40.479485  -0.055441 -0.717170 0.694690  0.078127 0.654286 1 1 1.000000
0  -37.148621 -17.920534 41.057564  0.023367 -0.417459 0.908395  0.078127 0.654286 1 1 1.000000
0  -42.544048 -15.952303 40.906162  -0.200575 -0.379845 0.903044  0.078127 0.654286 1 1 1.000000
misc
0  -44.347118 -15.498097 40.286789  -0.675619 -0.539403 0.502576  0.078127 0.654286 1 1 1.000000
0  -44.140659 -14.975070 40.796055  -0.417066 -0.350896 0.838408  0.078127 0.654286 1 1 1.000000
0  -44.691216 -14.300643 40.754757  -0.655861 -0.197298 0.728643  0.078127 0.654286 1 1 1.000000
misc
0  -44.691216 -14.300643 40.754757  -0.655861 -0.197298 0.728643  0.078127 0.654286 1 1 1.000000
0  -44.856377 -14.617211 40.355610  -0.872397 -0.288211 0.394789  0.078127 0.654286 1 1 1.000000
0  -44.347118 -15.498097 40.286789  -0.675619 -0.539403 0.502576  0.078127 0.654286 1 1 1.000000
misc
0  -43.369881 -18.168283 36.639370  -0.364359 -0.454844 -0.812625  0.078127 0.654286 1 1 1.000000
0  -42.998260 -17.727840 36.240215  -0.285689 -0.344063 -0.894429  0.078127 0.654286 1 1 1.000000
0  -38.635120 -20.466846 36.102577  -0.278210 -0.399359 -0.873562  0.078127 0.654286 1 1 1.000000
misc
0  -38.635120 -20.466846 36.102577  -0.278210 -0.399359 -0.873562  0.078127 0.654286 1 1 1.000000
0  -38.800285 -21.086220 36.584312  -0.342401 -0.513836 -0.786597  0.078127 0.654286 1 1 1.000000
0  -43.369881 -18.168283 36.639370  -0.364359 -0.454844 -0.812625  0.078127 0.654286 1 1 1.000000
misc
0  -45.076599 -14.906253 36.625607  -0.671232 -0.061066 -0.738728  0.078127 0.654286 1 1 1.000000
0  -44.677452 -14.823668 36.240215  -0.542001 -0.061758 -0.838106  0.078127 0.654286 1 1 1.000000
0  -44.374645 -15.952304 36.226452  -0.430725 -0.147960 -0.890272  0.078127 0.654286 1 1 1.000000
misc
0  -44.374645 -15.952304 36.226452  -0.430725 -0.147960 -0.890272  0.078127 0.654286 1 1 1.000000
0  -44.842613 -16.268873 36.611843  -0.540487 -0.193608 -0.818773  0.078127 0.654286 1 1 1.000000
0  -45.076599 -14.906253 36.625607  -0.671232 -0.061066 -0.738728  0.078127 0.654286 1 1 1.000000
misc
0  -44.085602 -14.741085 36.019997  -0.234101 -0.059320 -0.970401  0.078127 0.654286 1 1 1.000000
0  -44.677452 -14.823668 36.240215  -0.542001 -0.061758 -0.838106  0.078127 0.654286 1 1 1.000000
0  -44.581100 -13.158243 36.185162  -0.597304 0.065943 -0.799300  0.078127 0.654286 1 1 1.000000
misc
0  -44.581100 -13.158243 36.185162  -0.597304 0.065943 -0.799300  0.078127 0.654286 1 1 1.000000
0  -44.085602 -13.309644 35.951180  -0.243356 0.024966 -0.969616  0.078127 0.654286 1 1 1.000000
0  -44.085602 -14.741085 36.019997  -0.234101 -0.059320 -0.970401  0.078127 0.654286 1 1 1.000000
misc
0  -37.878109 -17.562674 35.662136  -0.022716 -0.040238 -0.998932  0.078127 0.654286 1 1 1.000000
0  -38.373608 -19.544668 35.772247  -0.125310 -0.150766 -0.980595  0.078127 0.654286 1 1 1.000000
0  -42.062317 -17.287397 35.951180  -0.131098 -0.134118 -0.982255  0.078127 0.654286 1 1 1.000000
misc
0  -44.085602 -13.309644 35.951180  -0.243356 0.024966 -0.969616  0.078127 0.654286 1 1 1.000000
0  -37.589066 -15.429276 35.552025  0.033547 0.011766 -0.999368  0.078127 0.654286 1 1 1.000000
0  -44.085602 -14.741085 36.019997  -0.234101 -0.059320 -0.970401  0.078127 0.654286 1 1 1.000000
misc
0  -44.085602 -14.741085 36.019997  -0.234101 -0.059320 -0.970401  0.078127 0.654286 1 1 1.000000
0  -37.589066 -15.429276 35.552025  0.033547 0.011766 -0.999368  0.078127 0.654286 1 1 1.000000
0  -43.727741 -15.621971 36.006233  -0.183571 -0.078195 -0.979891  0.078127 0.654286 1 1 1.000000
misc
0  -36.501724 -15.773375 35.675900  0.849961 0.096776 -0.517881  0.078127 0.654286 1 1 1.000000
0  -36.102570 -15.966066 36.309036  0.942754 0.054651 -0.328981  0.078127 0.654286 1 1 1.000000
0  -35.937405 -18.126989 35.703426  0.981385 0.086536 -0.171453  0.078127 0.654286 1 1 1.000000
misc
0  -35.909878 -17.177284 39.199444  -0.116906 0.966088 -0.230234  0.078127 0.654286 1 1 1.000000
0  -34.161869 -16.998354 39.254501  -0.098737 0.968452 -0.228805  0.078127 0.654286 1 1 1.000000
0  -35.538254 -17.975590 35.703426  -0.287729 0.927133 -0.240075  0.078127 0.654286 1 1 1.000000
misc
0  -35.538254 -17.975590 35.703426  -0.287729 0.927133 -0.240075  0.078127 0.654286 1 1 1.000000
0  -35.937405 -18.126989 35.703426  -0.342218 0.908038 -0.241565  0.078127 0.654286 1 1 1.000000
0  -35.909878 -17.177284 39.199444  -0.116906 0.966088 -0.230234  0.078127 0.654286 1 1 1.000000
misc
0  -35.937405 -18.126989 35.703426  0.981385 0.086536 -0.171453  0.078127 0.654286 1 1 1.000000
0  -36.102570 -15.966066 36.309036  0.942754 0.054651 -0.328981  0.078127 0.654286 1 1 1.000000
0  -35.772240 -16.282635 39.337082  0.974455 -0.214254 -0.067332  0.078127 0.654286 1 1 1.000000
misc
0  -35.772240 -16.282635 39.337082  0.974455 -0.214254 -0.067332  0.078127 0.654286 1 1 1.000000
0  -35.909878 -17.177284 39.199444  0.952777 -0.297502 0.060892  0.078127 0.654286 1 1 1.000000
0  -35.937405 -18.126989 35.703426  0.981385 0.086536 -0.171453  0.078127 0.654286 1 1 1.000000
misc
0  -37.217442 -19.145515 38.814056  0.720242 -0.689780 0.073862  0.078127 0.654286 1 1 1.000000
0  -37.052277 -18.884003 39.557304  0.746044 -0.655790 0.115572  0.078127 0.654286 1 1 1.000000
0  -37.465191 -19.255627 39.571068  0.403843 -0.862684 0.304446  0.078127 0.654286 1 1 1.000000
misc
0  -37.465191 -19.255627 39.571068  0.403843 -0.862684 0.304446  0.078127 0.654286 1 1 1.000000
0  -37.644123 -19.544666 38.690182  0.307288 -0.927486 0.212942  0.078127 0.654286 1 1 1.000000
0  -37.217442 -19.145515 38.814056  0.720242 -0.689780 0.073862  0.078127 0.654286 1 1 1.000000
misc
0  -38.112091 -19.613487 38.593838  -0.190401 -0.939078 0.286146  0.078127 0.654286 1 1 1.000000
0  -37.946926 -19.351976 39.529778  -0.115583 -0.900641 0.418910  0.078127 0.654286 1 1 1.000000
0  -42.943203 -17.246105 39.405903  -0.474189 -0.798481 0.370908  0.078127 0.654286 1 1 1.000000
misc
0  -42.943203 -17.246105 39.405903  -0.474189 -0.798481 0.370908  0.078127 0.654286 1 1 1.000000
0  -43.025787 -17.493856 38.483727  -0.501078 -0.822998 0.267573  0.078127 0.654286 1 1 1.000000
0  -38.112091 -19.613487 38.593838  -0.190401 -0.939078 0.286146  0.078127 0.654286 1 1 1.000000
misc
0  -44.484753 -15.814666 39.337082  -0.789699 -0.566321 0.235914  0.078127 0.654286 1 1 1.000000
0  -44.347118 -15.498097 40.286789  -0.675619 -0.539403 0.502576  0.078127 0.654286 1 1 1.000000
0  -44.856377 -14.617211 40.355610  -0.872397 -0.288211 0.394789  0.078127 0.654286 1 1 1.000000
misc
0  -44.856377 -14.617211 40.355610  -0.872397 -0.288211 0.394789  0.078127 0.654286 1 1 1.000000
0  -45.035309 -14.809904 39.350845  -0.943400 -0.266901 0.196878  0.078127 0.654286 1 1 1.000000
0  -44.484753 -15.814666 39.337082  -0.789699 -0.566321 0.235914  0.078127 0.654286 1 1 1.000000
misc
0  -45.049072 -13.227063 39.405903  -0.991172 0.057851 0.119297  0.074221 0.650380 1 1 1.000000
0  -45.131653 -13.116952 38.332321  -0.994818 0.092836 0.041451  0.074221 0.646474 1 1 1.000000
0  -45.200478 -14.837434 38.456196  -0.980710 -0.161307 0.110402  0.078127 0.646474 1 1 1.000000
misc
0  -45.200478 -14.837434 38.456196  -0.980710 -0.161307 0.110402  0.078127 0.646474 1 1 1.000000
0  -45.035309 -14.809904 39.350845  -0.943400 -0.266901 0.196878  0.078127 0.650380 1 1 1.000000
0  -45.049072 -13.227063 39.405903  -0.991172 0.057851 0.119297  0.074221 0.650380 1 1 1.000000
misc
0  -44.883907 -16.172527 38.208447  -0.441035 -0.338560 0.831183  0.078127 0.654286 1 1 1.000000
0  -44.553574 -15.979831 38.469959  -0.455693 -0.332746 0.825605  0.078127 0.654286 1 1 1.000000
0  -45.200478 -14.837434 38.456196  -0.480910 -0.272041 0.833498  0.078127 0.654286 1 1 1.000000
misc
0  -45.241768 -14.864961 37.492729  -0.995412 -0.062501 -0.072446  0.078127 0.654286 1 1 1.000000
0  -45.076599 -14.906253 36.625607  -0.980177 -0.053221 -0.190843  0.078127 0.654286 1 1 1.000000
0  -44.842613 -16.268873 36.611843  -0.933917 -0.331982 -0.132620  0.078127 0.654286 1 1 1.000000
misc
0  -44.842613 -16.268873 36.611843  -0.933917 -0.331982 -0.132620  0.078127 0.654286 1 1 1.000000
0  -44.980255 -16.200054 37.410145  -0.936993 -0.349210 -0.009814  0.078127 0.654286 1 1 1.000000
0  -45.241768 -14.864961 37.492729  -0.995412 -0.062501 -0.072446  0.078127 0.654286 1 1 1.000000
misc
0  -42.544048 -15.952303 40.906162  -0.200575 -0.379845 0.903044  0.078127 0.656240 1 1 1.000000
0  -42.007263 -14.369460 41.346607  -0.093751 -0.142123 0.985399  0.074221 0.656240 1 1 1.000000
0  -42.764271 -14.121712 41.291550  -0.141886 -0.137969 0.980221  0.074221 0.656240 1 1 1.000000
misc
0  -42.764271 -14.121712 41.291550  -0.141886 -0.137969 0.980221  0.074221 0.656240 1 1 1.000000
0  -43.342354 -15.594443 40.851109  -0.294872 -0.376465 0.878251  0.078127 0.656240 1 1 1.000000
0  -42.544048 -15.952303 40.906162  -0.200575 -0.379845 0.903044  0.078127 0.656240 1 1 1.000000
misc
0  -42.791801 -16.736843 40.328079  -0.357296 -0.663199 0.657652  0.078127 0.654286 1 1 1.000000
0  -42.544048 -15.952303 40.906162  -0.200575 -0.379845 0.903044  0.078127 0.654286 1 1 1.000000
0  -43.342354 -15.594443 40.851109  -0.294872 -0.376465 0.878251  0.078127 0.654286 1 1 1.000000
misc
0  -43.342354 -15.594443 40.851109  -0.294872 -0.376465 0.878251  0.078127 0.654286 1 1 1.000000
0  -43.603867 -16.213818 40.300552  -0.515333 -0.620223 0.591401  0.078127 0.654286 1 1 1.000000
0  -42.791801 -16.736843 40.328079  -0.357296 -0.663199 0.657652  0.078127 0.654286 1 1 1.000000
misc
0  -42.998260 -17.727840 36.240215  -0.285689 -0.344063 -0.894429  0.078127 0.654286 1 1 1.000000
0  -43.369881 -18.168283 36.639370  -0.364359 -0.454844 -0.812625  0.078127 0.654286 1 1 1.000000
0  -44.374645 -17.163523 36.611843  -0.448625 -0.338544 -0.827118  0.078127 0.654286 1 1 1.000000
misc
0  -44.374645 -17.163523 36.611843  -0.448625 -0.338544 -0.827118  0.078127 0.654286 1 1 1.000000
0  -43.920437 -16.819427 36.226452  -0.346949 -0.256519 -0.902122  0.078127 0.654286 1 1 1.000000
0  -42.998260 -17.727840 36.240215  -0.285689 -0.344063 -0.894429  0.078127 0.654286 1 1 1.000000
misc
0  -42.943203 -17.246105 39.405903  -0.474189 -0.798481 0.370908  0.078127 0.654286 1 1 1.000000
0  -42.791801 -16.736843 40.328079  -0.357296 -0.663199 0.657652  0.078127 0.654286 1 1 1.000000
0  -43.603867 -16.213818 40.300552  -0.515333 -0.620223 0.591401  0.078127 0.654286 1 1 1.000000
misc
0  -43.603867 -16.213818 40.300552  -0.515333 -0.620223 0.591401  0.078127 0.654286 1 1 1.000000
0  -43.769039 -16.585440 39.364613  -0.651960 -0.694882 0.303458  0.078127 0.654286 1 1 1.000000
0  -42.943203 -17.246105 39.405903  -0.474189 -0.798481 0.370908  0.078127 0.654286 1 1 1.000000
misc
0  -44.374645 -17.025883 38.057045  -0.421913 -0.440561 0.792398  0.078127 0.654286 1 1 1.000000
0  -43.892910 -16.764372 38.469959  -0.431083 -0.454241 0.779636  0.078127 0.654286 1 1 1.000000
0  -44.553574 -15.979831 38.469959  -0.455693 -0.332746 0.825605  0.078127 0.654286 1 1 1.000000
misc
0  -44.553574 -15.979831 38.469959  -0.455693 -0.332746 0.825605  0.078127 0.654286 1 1 1.000000
0  -44.883907 -16.172527 38.208447  -0.441035 -0.338560 0.831183  0.078127 0.654286 1 1 1.000000
0  -44.374645 -17.025883 38.057045  -0.421913 -0.440561 0.792398  0.078127 0.654286 1 1 1.000000
misc
0  -44.980255 -16.200054 37.410145  -0.936993 -0.349210 -0.009814  0.078127 0.654286 1 1 1.000000
0  -44.842613 -16.268873 36.611843  -0.933917 -0.331982 -0.132620  0.078127 0.654286 1 1 1.000000
0  -44.374645 -17.163523 36.611843  -0.790939 -0.610913 -0.034671  0.078127 0.654286 1 1 1.000000
misc
0  -44.374645 -17.163523 36.611843  -0.790939 -0.610913 -0.034671  0.078127 0.654286 1 1 1.000000
0  -44.443462 -17.108469 37.341324  -0.785550 -0.616192 0.056729  0.078127 0.654286 1 1 1.000000
0  -44.980255 -16.200054 37.410145  -0.936993 -0.349210 -0.009814  0.078127 0.654286 1 1 1.000000
misc
0  -43.342354 -15.594443 40.851109  -0.294872 -0.376465 0.878251  0.078127 0.656240 1 1 1.000000
0  -42.764271 -14.121712 41.291550  -0.141886 -0.137969 0.980221  0.078127 0.658193 1 1 1.000000
0  -43.713978 -13.791379 41.167675  -0.229439 -0.129171 0.964714  0.078127 0.654286 1 1 1.000000
misc
0  -43.713978 -13.791379 41.167675  -0.229439 -0.129171 0.964714  0.078127 0.654286 1 1 1.000000
0  -44.140659 -14.975070 40.796055  -0.417066 -0.350896 0.838408  0.076174 0.654286 1 1 1.000000
0  -43.342354 -15.594443 40.851109  -0.294872 -0.376465 0.878251  0.078127 0.656240 1 1 1.000000
misc
0  -44.140659 -14.975070 40.796055  -0.417066 -0.350896 0.838408  0.076174 0.654286 1 1 1.000000
0  -44.347118 -15.498097 40.286789  -0.675619 -0.539403 0.502576  0.078127 0.654286 1 1 1.000000
0  -43.603867 -16.213818 40.300552  -0.515333 -0.620223 0.591401  0.078127 0.654286 1 1 1.000000
misc
0  -43.603867 -16.213818 40.300552  -0.515333 -0.620223 0.591401  0.078127 0.654286 1 1 1.000000
0  -43.342354 -15.594443 40.851109  -0.294872 -0.376465 0.878251  0.078127 0.656240 1 1 1.000000
0  -44.140659 -14.975070 40.796055  -0.417066 -0.350896 0.838408  0.076174 0.654286 1 1 1.000000
misc
0  -44.842613 -16.268873 36.611843  -0.540487 -0.193608 -0.818773  0.078127 0.654286 1 1 1.000000
0  -44.374645 -15.952304 36.226452  -0.430725 -0.147960 -0.890272  0.078127 0.654286 1 1 1.000000
0  -43.920437 -16.819427 36.226452  -0.346949 -0.256519 -0.902122  0.078127 0.654286 1 1 1.000000
misc
0  -43.920437 -16.819427 36.226452  -0.346949 -0.256519 -0.902122  0.078127 0.654286 1 1 1.000000
0  -44.374645 -17.163523 36.611843  -0.448625 -0.338544 -0.827118  0.078127 0.654286 1 1 1.000000
0  -44.842613 -16.268873 36.611843  -0.540487 -0.193608 -0.818773  0.078127 0.654286 1 1 1.000000
misc
0  -43.769039 -16.585440 39.364613  -0.651960 -0.694882 0.303458  0.078127 0.654286 1 1 1.000000
0  -43.603867 -16.213818 40.300552  -0.515333 -0.620223 0.591401  0.078127 0.654286 1 1 1.000000
0  -44.347118 -15.498097 40.286789  -0.675619 -0.539403 0.502576  0.078127 0.654286 1 1 1.000000
misc
0  -44.347118 -15.498097 40.286789  -0.675619 -0.539403 0.502576  0.078127 0.654286 1 1 1.000000
0  -44.484753 -15.814666 39.337082  -0.789699 -0.566321 0.235914  0.078127 0.654286 1 1 1.000000
0  -43.769039 -16.585440 39.364613  -0.651960 -0.694882 0.303458  0.078127 0.654286 1 1 1.000000
misc
0  -44.787560 -12.346177 36.611843  -0.957226 0.154678 -0.244528  0.078127 0.654286 1 1 1.000000
0  -44.911434 -13.089425 36.570549  -0.963788 0.122503 -0.236866  0.078127 0.654286 1 1 1.000000
0  -45.117889 -13.075660 37.437672  -0.986514 0.109126 -0.121988  0.078127 0.654286 1 1 1.000000
misc
0  -45.117889 -13.075660 37.437672  -0.986514 0.109126 -0.121988  0.078127 0.654286 1 1 1.000000
0  -45.021545 -12.318648 37.465199  -0.981492 0.139030 -0.131700  0.078127 0.654286 1 1 1.000000
0  -44.787560 -12.346177 36.611843  -0.957226 0.154678 -0.244528  0.078127 0.654286 1 1 1.000000
misc
0  -44.581100 -13.158243 36.185162  -0.597304 0.065943 -0.799300  0.078127 0.654286 1 1 1.000000
0  -44.484753 -12.414995 36.226452  -0.605558 0.142023 -0.783026  0.078127 0.654286 1 1 1.000000
0  -44.003021 -12.566398 36.006233  -0.242224 0.101197 -0.964928  0.078127 0.654286 1 1 1.000000
misc
0  -44.003021 -12.566398 36.006233  -0.242224 0.101197 -0.964928  0.078127 0.654286 1 1 1.000000
0  -44.085602 -13.309644 35.951180  -0.243356 0.024966 -0.969616  0.078127 0.654286 1 1 1.000000
0  -44.581100 -13.158243 36.185162  -0.597304 0.065943 -0.799300  0.078127 0.654286 1 1 1.000000
misc
0  -45.035309 -12.373704 38.318558  -0.992034 0.122190 0.030627  0.070315 0.646474 1 1 1.000000
0  -45.131653 -13.116952 38.332321  -0.994818 0.092836 0.041451  0.074221 0.646474 1 1 1.000000
0  -45.049072 -13.227063 39.405903  -0.991172 0.057851 0.119297  0.074221 0.650380 1 1 1.000000
misc
0  -45.049072 -13.227063 39.405903  -0.991172 0.057851 0.119297  0.074221 0.650380 1 1 1.000000
0  -44.966488 -12.470051 39.405903  -0.990427 0.093880 0.101202  0.070315 0.650380 1 1 1.000000
0  -45.035309 -12.373704 38.318558  -0.992034 0.122190 0.030627  0.070315 0.646474 1 1 1.000000
misc
0  -44.856377 -14.617211 40.355610  -0.872397 -0.288211 0.394789  0.078127 0.652333 1 1 1.000000
0  -44.691216 -14.300643 40.754757  -0.655861 -0.197298 0.728643  0.076174 0.654286 1 1 1.000000
0  -44.718742 -13.433520 40.809818  -0.730549 -0.010816 0.682774  0.074221 0.654286 1 1 1.000000
misc
0  -44.718742 -13.433520 40.809818  -0.730549 -0.010816 0.682774  0.074221 0.654286 1 1 1.000000
0  -44.897671 -13.350937 40.465721  -0.950313 0.011214 0.311095  0.074221 0.652333 1 1 1.000000
0  -44.856377 -14.617211 40.355610  -0.872397 -0.288211 0.394789  0.078127 0.652333 1 1 1.000000
misc
0  -44.842613 -12.580162 40.507011  -0.944468 0.070774 0.320892  0.072268 0.652333 1 1 1.000000
0  -44.897671 -13.350937 40.465721  -0.950313 0.011214 0.311095  0.074221 0.652333 1 1 1.000000
0  -44.718742 -13.433520 40.809818  -0.730549 -0.010816 0.682774  0.074221 0.654286 1 1 1.000000
misc
0  -44.718742 -13.433520 40.809818  -0.730549 -0.010816 0.682774  0.074221 0.654286 1 1 1.000000
0  -44.636154 -12.676509 40.837345  -0.709251 0.056589 0.702681  0.072268 0.654286 1 1 1.000000
0  -44.842613 -12.580162 40.507011  -0.944468 0.070774 0.320892  0.072268 0.652333 1 1 1.000000
misc
0  -42.998260 -17.727840 36.240215  -0.285689 -0.344063 -0.894429  0.078127 0.654286 1 1 1.000000
0  -42.062317 -17.287397 35.951180  -0.131098 -0.134118 -0.982255  0.078127 0.654286 1 1 1.000000
0  -38.373608 -19.544668 35.772247  -0.125310 -0.150766 -0.980595  0.078127 0.654286 1 1 1.000000
misc
0  -38.373608 -19.544668 35.772247  -0.125310 -0.150766 -0.980595  0.078127 0.654286 1 1 1.000000
0  -38.635120 -20.466846 36.102577  -0.278210 -0.399359 -0.873562  0.078127 0.654286 1 1 1.000000
0  -42.998260 -17.727840 36.240215  -0.285689 -0.344063 -0.894429  0.078127 0.654286 1 1 1.000000
misc
0  -43.727741 -15.621971 36.006233  -0.183571 -0.078195 -0.979891  0.078127 0.654286 1 1 1.000000
0  -44.374645 -15.952304 36.226452  -0.430725 -0.147960 -0.890272  0.078127 0.654286 1 1 1.000000
0  -44.677452 -14.823668 36.240215  -0.542001 -0.061758 -0.838106  0.078127 0.654286 1 1 1.000000
misc
0  -44.677452 -14.823668 36.240215  -0.542001 -0.061758 -0.838106  0.078127 0.654286 1 1 1.000000
0  -44.085602 -14.741085 36.019997  -0.234101 -0.059320 -0.970401  0.078127 0.654286 1 1 1.000000
0  -43.727741 -15.621971 36.006233  -0.183571 -0.078195 -0.979891  0.078127 0.654286 1 1 1.000000
misc
0  -44.911434 -13.089425 36.570549  -0.753162 0.091750 -0.651405  0.078127 0.654286 1 1 1.000000
0  -44.581100 -13.158243 36.185162  -0.597304 0.065943 -0.799300  0.078127 0.654286 1 1 1.000000
0  -44.677452 -14.823668 36.240215  -0.542001 -0.061758 -0.838106  0.078127 0.654286 1 1 1.000000
misc
0  -44.677452 -14.823668 36.240215  -0.542001 -0.061758 -0.838106  0.078127 0.654286 1 1 1.000000
0  -45.076599 -14.906253 36.625607  -0.671232 -0.061066 -0.738728  0.078127 0.654286 1 1 1.000000
0  -44.911434 -13.089425 36.570549  -0.753162 0.091750 -0.651405  0.078127 0.654286 1 1 1.000000
misc
0  -42.062317 -17.287397 35.951180  -0.131098 -0.134118 -0.982255  0.078127 0.654286 1 1 1.000000
0  -42.998260 -17.727840 36.240215  -0.285689 -0.344063 -0.894429  0.078127 0.654286 1 1 1.000000
0  -43.920437 -16.819427 36.226452  -0.346949 -0.256519 -0.902122  0.078127 0.654286 1 1 1.000000
misc
0  -43.920437 -16.819427 36.226452  -0.346949 -0.256519 -0.902122  0.078127 0.654286 1 1 1.000000
0  -43.135899 -16.461567 35.992470  -0.150040 -0.117572 -0.981664  0.078127 0.654286 1 1 1.000000
0  -42.062317 -17.287397 35.951180  -0.131098 -0.134118 -0.982255  0.078127 0.654286 1 1 1.000000
misc
0  -43.135899 -16.461567 35.992470  -0.150040 -0.117572 -0.981664  0.078127 0.654286 1 1 1.000000
0  -43.920437 -16.819427 36.226452  -0.346949 -0.256519 -0.902122  0.078127 0.654286 1 1 1.000000
0  -44.374645 -15.952304 36.226452  -0.430725 -0.147960 -0.890272  0.078127 0.654286 1 1 1.000000
misc
0  -44.374645 -15.952304 36.226452  -0.430725 -0.147960 -0.890272  0.078127 0.654286 1 1 1.000000
0  -43.727741 -15.621971 36.006233  -0.183571 -0.078195 -0.979891  0.078127 0.654286 1 1 1.000000
0  -43.135899 -16.461567 35.992470  -0.150040 -0.117572 -0.981664  0.078127 0.654286 1 1 1.000000
misc
0  -44.911434 -13.089425 36.570549  -0.753162 0.091750 -0.651405  0.078127 0.654286 1 1 1.000000
0  -44.787560 -12.346177 36.611843  -0.751840 0.156899 -0.640406  0.078127 0.654286 1 1 1.000000
0  -44.484753 -12.414995 36.226452  -0.605558 0.142023 -0.783026  0.078127 0.654286 1 1 1.000000
misc
0  -44.484753 -12.414995 36.226452  -0.605558 0.142023 -0.783026  0.078127 0.654286 1 1 1.000000
0  -44.581100 -13.158243 36.185162  -0.597304 0.065943 -0.799300  0.078127 0.654286 1 1 1.000000
0  -44.911434 -13.089425 36.570549  -0.753162 0.091750 -0.651405  0.078127 0.654286 1 1 1.000000
misc
0  -36.777000 -18.360977 40.314316  0.767553 -0.594637 0.239310  0.078127 0.654286 1 1 1.000000
0  -36.570541 -17.920534 40.575829  0.810855 -0.497840 0.307685  0.078127 0.654286 1 1 1.000000
0  -36.804527 -18.003117 40.933689  0.493320 -0.533472 0.687054  0.078127 0.654286 1 1 1.000000
misc
0  -36.804527 -18.003117 40.933689  0.493320 -0.533472 0.687054  0.078127 0.654286 1 1 1.000000
0  -37.134857 -18.677544 40.451954  0.425574 -0.735563 0.527099  0.078127 0.654286 1 1 1.000000
0  -36.777000 -18.360977 40.314316  0.767553 -0.594637 0.239310  0.078127 0.654286 1 1 1.000000
misc
0  -37.644123 -19.544666 38.690182  0.307288 -0.927486 0.212942  0.078127 0.654286 1 1 1.000000
0  -37.465191 -19.255627 39.571068  0.403843 -0.862684 0.304446  0.078127 0.654286 1 1 1.000000
0  -37.946926 -19.351976 39.529778  -0.115583 -0.900641 0.418910  0.078127 0.654286 1 1 1.000000
misc
0  -37.946926 -19.351976 39.529778  -0.115583 -0.900641 0.418910  0.078127 0.654286 1 1 1.000000
0  -38.112091 -19.613487 38.593838  -0.190401 -0.939078 0.286146  0.078127 0.654286 1 1 1.000000
0  -37.644123 -19.544666 38.690182  0.307288 -0.927486 0.212942  0.078127 0.654286 1 1 1.000000
misc
0  -36.019989 -16.337690 41.319077  0.571784 -0.379473 0.727368  0.074221 0.660146 1 1 1.000000
0  -36.804527 -18.003117 40.933689  0.493320 -0.533472 0.687054  0.078127 0.660146 1 1 1.000000
0  -36.570541 -17.920534 40.575829  0.810855 -0.497840 0.307685  0.078127 0.660146 1 1 1.000000
misc
0  -36.570541 -17.920534 40.575829  0.810855 -0.497840 0.307685  0.078127 0.660146 1 1 1.000000
0  -35.854824 -16.365217 40.933689  0.858888 -0.438258 0.265031  0.074221 0.660146 1 1 1.000000
0  -36.019989 -16.337690 41.319077  0.571784 -0.379473 0.727368  0.074221 0.660146 1 1 1.000000
misc
0  -35.854824 -16.365217 40.933689  0.858888 -0.438258 0.265031  0.074221 0.660146 1 1 1.000000
0  -36.570541 -17.920534 40.575829  0.810855 -0.497840 0.307685  0.078127 0.660146 1 1 1.000000
0  -36.185154 -17.548910 39.887634  0.870638 -0.473059 0.134926  0.076174 0.662099 1 1 1.000000
misc
0  -36.185154 -17.548910 39.887634  0.870638 -0.473059 0.134926  0.076174 0.662099 1 1 1.000000
0  -35.758476 -16.337690 40.135387  0.934023 -0.354805 0.041411  0.074221 0.662099 1 1 1.000000
0  -35.854824 -16.365217 40.933689  0.858888 -0.438258 0.265031  0.074221 0.660146 1 1 1.000000
misc
0  -44.429699 -13.543632 40.988743  -0.404477 -0.071343 0.911762  0.074221 0.654286 1 1 1.000000
0  -44.209476 -12.827909 41.085091  -0.381110 -0.006744 0.924505  0.072268 0.654286 1 1 1.000000
0  -44.636154 -12.676509 40.837345  -0.709251 0.056589 0.702681  0.072268 0.654286 1 1 1.000000
misc
0  -44.636154 -12.676509 40.837345  -0.709251 0.056589 0.702681  0.072268 0.654286 1 1 1.000000
0  -44.718742 -13.433520 40.809818  -0.730549 -0.010816 0.682774  0.074221 0.654286 1 1 1.000000
0  -44.429699 -13.543632 40.988743  -0.404477 -0.071343 0.911762  0.074221 0.654286 1 1 1.000000
misc
0  -44.209476 -12.827909 41.085091  -0.381110 -0.006744 0.924505  0.072268 0.654286 1 1 1.000000
0  -44.429699 -13.543632 40.988743  -0.404477 -0.071343 0.911762  0.074221 0.654286 1 1 1.000000
0  -43.713978 -13.791379 41.167675  -0.229439 -0.129171 0.964714  0.074221 0.654286 1 1 1.000000
misc
0  -43.713978 -13.791379 41.167675  -0.229439 -0.129171 0.964714  0.074221 0.654286 1 1 1.000000
0  -43.466232 -13.089424 41.264023  -0.187915 -0.050459 0.980888  0.072268 0.654286 1 1 1.000000
0  -44.209476 -12.827909 41.085091  -0.381110 -0.006744 0.924505  0.072268 0.654286 1 1 1.000000
misc
0  -43.466232 -13.089424 41.264023  -0.187915 -0.050459 0.980888  0.082034 0.658193 1 1 1.000000
0  -43.713978 -13.791379 41.167675  -0.229439 -0.129171 0.964714  0.078127 0.654286 1 1 1.000000
0  -42.764271 -14.121712 41.291550  -0.141886 -0.137969 0.980221  0.078127 0.658193 1 1 1.000000
misc
0  -42.764271 -14.121712 41.291550  -0.141886 -0.137969 0.980221  0.078127 0.658193 1 1 1.000000
0  -42.502758 -13.405991 41.360371  -0.103197 -0.054848 0.993148  0.078127 0.658193 1 1 1.000000
0  -43.466232 -13.089424 41.264023  -0.187915 -0.050459 0.980888  0.082034 0.658193 1 1 1.000000
misc
0  -42.502758 -13.405991 41.360371  -0.103197 -0.054848 0.993148  0.072268 0.656240 1 1 1.000000
0  -42.764271 -14.121712 41.291550  -0.141886 -0.137969 0.980221  0.074221 0.656240 1 1 1.000000
0  -42.007263 -14.369460 41.346607  -0.093751 -0.142123 0.985399  0.074221 0.656240 1 1 1.000000
misc
0  -42.007263 -14.369460 41.346607  -0.093751 -0.142123 0.985399  0.074221 0.656240 1 1 1.000000
0  -41.773277 -13.653741 41.401661  -0.061048 -0.061619 0.996231  0.072268 0.656240 1 1 1.000000
0  -42.502758 -13.405991 41.360371  -0.103197 -0.054848 0.993148  0.072268 0.656240 1 1 1.000000
misc
0  -41.773277 -13.653741 41.401661  -0.061048 -0.061619 0.996231  0.072268 0.656240 1 1 1.000000
0  -42.007263 -14.369460 41.346607  -0.093751 -0.142123 0.985399  0.074221 0.656240 1 1 1.000000
0  -36.364082 -16.227579 41.456715  0.107346 -0.193810 0.975149  0.074221 0.658193 1 1 1.000000
misc
0  -36.364082 -16.227579 41.456715  0.107346 -0.193810 0.975149  0.074221 0.658193 1 1 1.000000
0  -36.019989 -15.553153 41.498005  0.146548 -0.131443 0.980432  0.070315 0.660146 1 1 1.000000
0  -41.773277 -13.653741 41.401661  -0.061048 -0.061619 0.996231  0.072268 0.656240 1 1 1.000000
misc
0  -36.019989 -15.553153 41.498005  0.146548 -0.131443 0.980432  0.070315 0.660146 1 1 1.000000
0  -36.364082 -16.227579 41.456715  0.107346 -0.193810 0.975149  0.074221 0.658193 1 1 1.000000
0  -36.019989 -16.337690 41.319077  0.571784 -0.379473 0.727368  0.074221 0.660146 1 1 1.000000
misc
0  -36.019989 -16.337690 41.319077  0.571784 -0.379473 0.727368  0.074221 0.660146 1 1 1.000000
0  -35.689655 -15.649498 41.360371  0.612134 -0.350909 0.708629  0.070315 0.660146 1 1 1.000000
0  -36.019989 -15.553153 41.498005  0.146548 -0.131443 0.980432  0.070315 0.660146 1 1 1.000000
misc
0  -35.689655 -15.649498 41.360371  0.612134 -0.350909 0.708629  0.070315 0.660146 1 1 1.000000
0  -36.019989 -16.337690 41.319077  0.571784 -0.379473 0.727368  0.074221 0.660146 1 1 1.000000
0  -35.854824 -16.365217 40.933689  0.858888 -0.438258 0.265031  0.074221 0.660146 1 1 1.000000
misc
0  -35.854824 -16.365217 40.933689  0.858888 -0.438258 0.265031  0.074221 0.660146 1 1 1.000000
0  -35.510727 -15.677027 40.988743  0.868708 -0.436301 0.234496  0.070315 0.660146 1 1 1.000000
0  -35.689655 -15.649498 41.360371  0.612134 -0.350909 0.708629  0.070315 0.660146 1 1 1.000000
misc
0  -35.510727 -15.677027 40.988743  0.868708 -0.436301 0.234496  0.070315 0.660146 1 1 1.000000
0  -35.854824 -16.365217 40.933689  0.858888 -0.438258 0.265031  0.074221 0.660146 1 1 1.000000
0  -35.758476 -16.337690 40.135387  0.934023 -0.354805 0.041411  0.074221 0.662099 1 1 1.000000
misc
0  -35.758476 -16.337690 40.135387  0.934023 -0.354805 0.041411  0.074221 0.662099 1 1 1.000000
0  -35.455669 -15.649498 40.190441  0.925942 -0.376841 -0.024931  0.070315 0.662099 1 1 1.000000
0  -35.510727 -15.677027 40.988743  0.868708 -0.436301 0.234496  0.070315 0.660146 1 1 1.000000
misc
0  -35.552017 -15.566916 39.392139  0.949306 -0.284817 -0.133032  0.078127 0.654286 1 1 1.000000
0  -35.772240 -16.282635 39.337082  0.974455 -0.214254 -0.067332  0.078127 0.654286 1 1 1.000000
0  -36.102570 -15.966066 36.309036  0.942754 0.054651 -0.328981  0.078127 0.654286 1 1 1.000000
misc
0  -36.102570 -15.966066 36.309036  0.942754 0.054651 -0.328981  0.078127 0.654286 1 1 1.000000
0  -35.992462 -15.222819 36.501732  0.937673 -0.042407 -0.344921  0.078127 0.654286 1 1 1.000000
0  -35.552017 -15.566916 39.392139  0.949306 -0.284817 -0.133032  0.078127 0.654286 1 1 1.000000
misc
0  -36.501724 -15.773375 35.675900  0.849961 0.096776 -0.517881  0.078127 0.654286 1 1 1.000000
0  -36.474194 -15.016361 35.758484  0.841298 0.030641 -0.539702  0.078127 0.654286 1 1 1.000000
0  -35.992462 -15.222819 36.501732  0.937673 -0.042407 -0.344921  0.078127 0.654286 1 1 1.000000
misc
0  -35.992462 -15.222819 36.501732  0.937673 -0.042407 -0.344921  0.078127 0.654286 1 1 1.000000
0  -36.102570 -15.966066 36.309036  0.942754 0.054651 -0.328981  0.078127 0.654286 1 1 1.000000
0  -36.501724 -15.773375 35.675900  0.849961 0.096776 -0.517881  0.078127 0.654286 1 1 1.000000
misc
0  -36.474194 -15.016361 35.758484  0.151374 0.070987 -0.985924  0.078127 0.654286 1 1 1.000000
0  -36.501724 -15.773375 35.675900  0.094608 0.011359 -0.995450  0.078127 0.654286 1 1 1.000000
0  -37.589066 -15.429276 35.552025  0.033547 0.011766 -0.999368  0.078127 0.654286 1 1 1.000000
misc
0  -37.589066 -15.429276 35.552025  0.033547 0.011766 -0.999368  0.078127 0.654286 1 1 1.000000
0  -37.396374 -14.699794 35.607079  0.063090 0.063093 -0.996011  0.078127 0.654286 1 1 1.000000
0  -36.474194 -15.016361 35.758484  0.151374 0.070987 -0.985924  0.078127 0.654286 1 1 1.000000
misc
0  -37.396374 -14.699794 35.607079  0.063090 0.063093 -0.996011  0.078127 0.654286 1 1 1.000000
0  -37.589066 -15.429276 35.552025  0.033547 0.011766 -0.999368  0.078127 0.654286 1 1 1.000000
0  -44.085602 -13.309644 35.951180  -0.243356 0.024966 -0.969616  0.078127 0.654286 1 1 1.000000
misc
0  -44.085602 -13.309644 35.951180  -0.243356 0.024966 -0.969616  0.078127 0.654286 1 1 1.000000
0  -44.003021 -12.566398 36.006233  -0.242224 0.101197 -0.964928  0.078127 0.654286 1 1 1.000000
0  -37.396374 -14.699794 35.607079  0.063090 0.063093 -0.996011  0.078127 0.654286 1 1 1.000000
misc
0  -43.383644 -18.140757 37.286270  -0.607108 -0.784754 0.124824  0.078127 0.654286 1 1 1.000000
0  -43.369881 -18.168283 36.639370  -0.620020 -0.784442 0.015013  0.078127 0.654286 1 1 1.000000
0  -38.800285 -21.086220 36.584312  -0.525989 -0.842008 0.119822  0.078127 0.654286 1 1 1.000000
misc
0  -38.800285 -21.086220 36.584312  -0.525989 -0.842008 0.119822  0.078127 0.654286 1 1 1.000000
0  -38.717705 -21.044928 37.231213  -0.507021 -0.826602 0.244250  0.078127 0.654286 1 1 1.000000
0  -43.383644 -18.140757 37.286270  -0.607108 -0.784754 0.124824  0.078127 0.654286 1 1 1.000000
misc
0  -44.374645 -17.025883 38.057045  -0.768709 -0.620788 0.153979  0.078127 0.654286 1 1 1.000000
0  -44.443462 -17.108469 37.341324  -0.785550 -0.616192 0.056729  0.078127 0.654286 1 1 1.000000
0  -43.383644 -18.140757 37.286270  -0.607108 -0.784754 0.124824  0.078127 0.654286 1 1 1.000000
misc
0  -43.383644 -18.140757 37.286270  -0.607108 -0.784754 0.124824  0.078127 0.654286 1 1 1.000000
0  -43.259773 -18.003119 37.988224  -0.570823 -0.781527 0.251749  0.078127 0.654286 1 1 1.000000
0  -44.374645 -17.025883 38.057045  -0.768709 -0.620788 0.153979  0.078127 0.654286 1 1 1.000000
misc
0  -45.131653 -13.116952 38.332321  -0.994818 0.092836 0.041451  0.078127 0.654286 1 1 1.000000
0  -45.117889 -13.075660 37.437672  -0.986514 0.109126 -0.121988  0.078127 0.654286 1 1 1.000000
0  -45.241768 -14.864961 37.492729  -0.995412 -0.062501 -0.072446  0.078127 0.654286 1 1 1.000000
misc
0  -45.241768 -14.864961 37.492729  -0.995412 -0.062501 -0.072446  0.078127 0.654286 1 1 1.000000
0  -45.200478 -14.837434 38.456196  -0.980710 -0.161307 0.110402  0.078127 0.654286 1 1 1.000000
0  -45.131653 -13.116952 38.332321  -0.994818 0.092836 0.041451  0.078127 0.654286 1 1 1.000000
misc
0  -45.200478 -14.837434 38.456196  -0.980710 -0.161307 0.110402  0.078127 0.654286 1 1 1.000000
0  -45.241768 -14.864961 37.492729  -0.995412 -0.062501 -0.072446  0.078127 0.654286 1 1 1.000000
0  -44.980255 -16.200054 37.410145  -0.936993 -0.349210 -0.009814  0.078127 0.654286 1 1 1.000000
misc
0  -44.980255 -16.200054 37.410145  -0.936993 -0.349210 -0.009814  0.078127 0.654286 1 1 1.000000
0  -44.883907 -16.172527 38.208447  -0.920459 -0.372911 0.117016  0.078127 0.654286 1 1 1.000000
0  -45.200478 -14.837434 38.456196  -0.980710 -0.161307 0.110402  0.078127 0.654286 1 1 1.000000
misc
0  -44.883907 -16.172527 38.208447  -0.920459 -0.372911 0.117016  0.078127 0.654286 1 1 1.000000
0  -44.980255 -16.200054 37.410145  -0.936993 -0.349210 -0.009814  0.078127 0.654286 1 1 1.000000
0  -44.443462 -17.108469 37.341324  -0.785550 -0.616192 0.056729  0.078127 0.654286 1 1 1.000000
misc
0  -44.443462 -17.108469 37.341324  -0.785550 -0.616192 0.056729  0.078127 0.654286 1 1 1.000000
0  -44.374645 -17.025883 38.057045  -0.768709 -0.620788 0.153979  0.078127 0.654286 1 1 1.000000
0  -44.883907 -16.172527 38.208447  -0.920459 -0.372911 0.117016  0.078127 0.654286 1 1 1.000000
misc
0  -45.131653 -13.116952 38.332321  -0.994818 0.092836 0.041451  0.078127 0.654286 1 1 1.000000
0  -45.035309 -12.373704 38.318558  -0.992034 0.122190 0.030627  0.078127 0.654286 1 1 1.000000
0  -45.021545 -12.318648 37.465199  -0.981492 0.139030 -0.131700  0.078127 0.654286 1 1 1.000000
misc
0  -45.021545 -12.318648 37.465199  -0.981492 0.139030 -0.131700  0.078127 0.654286 1 1 1.000000
0  -45.117889 -13.075660 37.437672  -0.986514 0.109126 -0.121988  0.078127 0.654286 1 1 1.000000
0  -45.131653 -13.116952 38.332321  -0.994818 0.092836 0.041451  0.078127 0.654286 1 1 1.000000
misc
0  -36.777000 -18.360977 40.314316  0.767553 -0.594637 0.239310  0.080081 0.660146 1 1 1.000000
0  -37.052277 -18.884003 39.557304  0.746044 -0.655790 0.115572  0.080081 0.660146 1 1 1.000000
0  -36.185154 -17.548910 39.887634  0.870638 -0.473059 0.134926  0.076174 0.662099 1 1 1.000000
misc
0  -36.185154 -17.548910 39.887634  0.870638 -0.473059 0.134926  0.076174 0.662099 1 1 1.000000
0  -36.570541 -17.920534 40.575829  0.810855 -0.497840 0.307685  0.078127 0.660146 1 1 1.000000
0  -36.777000 -18.360977 40.314316  0.767553 -0.594637 0.239310  0.080081 0.660146 1 1 1.000000
misc
0  -37.134857 -18.677544 40.451954  0.425574 -0.735563 0.527099  0.078127 0.654286 1 1 1.000000
0  -37.465191 -19.255627 39.571068  0.403843 -0.862684 0.304446  0.078127 0.654286 1 1 1.000000
0  -37.052277 -18.884003 39.557304  0.746044 -0.655790 0.115572  0.078127 0.654286 1 1 1.000000
misc
0  -37.052277 -18.884003 39.557304  0.746044 -0.655790 0.115572  0.078127 0.654286 1 1 1.000000
0  -36.777000 -18.360977 40.314316  0.767553 -0.594637 0.239310  0.078127 0.654286 1 1 1.000000
0  -37.134857 -18.677544 40.451954  0.425574 -0.735563 0.527099  0.078127 0.654286 1 1 1.000000
misc
0  -42.791801 -16.736843 40.328079  -0.357296 -0.663199 0.657652  0.078127 0.654286 1 1 1.000000
0  -42.943203 -17.246105 39.405903  -0.474189 -0.798481 0.370908  0.078127 0.654286 1 1 1.000000
0  -37.946926 -19.351976 39.529778  -0.115583 -0.900641 0.418910  0.078127 0.654286 1 1 1.000000
misc
0  -37.946926 -19.351976 39.529778  -0.115583 -0.900641 0.418910  0.078127 0.654286 1 1 1.000000
0  -37.602833 -18.760128 40.479485  -0.055441 -0.717170 0.694690  0.078127 0.654286 1 1 1.000000
0  -42.791801 -16.736843 40.328079  -0.357296 -0.663199 0.657652  0.078127 0.654286 1 1 1.000000
misc
0  -44.553574 -15.979831 38.469959  -0.807185 -0.563412 0.176123  0.078127 0.654286 1 1 1.000000
0  -44.484753 -15.814666 39.337082  -0.789699 -0.566321 0.235914  0.078127 0.654286 1 1 1.000000
0  -45.035309 -14.809904 39.350845  -0.943400 -0.266901 0.196878  0.078127 0.654286 1 1 1.000000
misc
0  -45.035309 -14.809904 39.350845  -0.943400 -0.266901 0.196878  0.078127 0.654286 1 1 1.000000
0  -45.200478 -14.837434 38.456196  -0.980710 -0.161307 0.110402  0.078127 0.654286 1 1 1.000000
0  -44.553574 -15.979831 38.469959  -0.807185 -0.563412 0.176123  0.078127 0.654286 1 1 1.000000
misc
0  -44.897671 -13.350937 40.465721  -0.950313 0.011214 0.311095  0.074221 0.652333 1 1 1.000000
0  -45.049072 -13.227063 39.405903  -0.991172 0.057851 0.119297  0.074221 0.650380 1 1 1.000000
0  -45.035309 -14.809904 39.350845  -0.943400 -0.266901 0.196878  0.078127 0.650380 1 1 1.000000
misc
0  -45.035309 -14.809904 39.350845  -0.943400 -0.266901 0.196878  0.078127 0.650380 1 1 1.000000
0  -44.856377 -14.617211 40.355610  -0.872397 -0.288211 0.394789  0.078127 0.652333 1 1 1.000000
0  -44.897671 -13.350937 40.465721  -0.950313 0.011214 0.311095  0.074221 0.652333 1 1 1.000000
misc
0  -43.025787 -17.493856 38.483727  -0.501078 -0.822998 0.267573  0.078127 0.654286 1 1 1.000000
0  -42.943203 -17.246105 39.405903  -0.474189 -0.798481 0.370908  0.078127 0.654286 1 1 1.000000
0  -43.769039 -16.585440 39.364613  -0.651960 -0.694882 0.303458  0.078127 0.654286 1 1 1.000000
misc
0  -43.769039 -16.585440 39.364613  -0.651960 -0.694882 0.303458  0.078127 0.654286 1 1 1.000000
0  -43.892910 -16.764372 38.469959  -0.685027 -0.694572 0.219790  0.078127 0.654286 1 1 1.000000
0  -43.025787 -17.493856 38.483727  -0.501078 -0.822998 0.267573  0.078127 0.654286 1 1 1.000000
misc
0  -43.892910 -16.764372 38.469959  -0.685027 -0.694572 0.219790  0.078127 0.654286 1 1 1.000000
0  -43.769039 -16.585440 39.364613  -0.651960 -0.694882 0.303458  0.078127 0.654286 1 1 1.000000
0  -44.484753 -15.814666 39.337082  -0.789699 -0.566321 0.235914  0.078127 0.654286 1 1 1.000000
misc
0  -44.484753 -15.814666 39.337082  -0.789699 -0.566321 0.235914  0.078127 0.654286 1 1 1.000000
0  -44.553574 -15.979831 38.469959  -0.807185 -0.563412 0.176123  0.078127 0.654286 1 1 1.000000
0  -43.892910 -16.764372 38.469959  -0.685027 -0.694572 0.219790  0.078127 0.654286 1 1 1.000000
misc
0  -44.897671 -13.350937 40.465721  -0.950313 0.011214 0.311095  0.074221 0.652333 1 1 1.000000
0  -44.842613 -12.580162 40.507011  -0.944468 0.070774 0.320892  0.072268 0.652333 1 1 1.000000
0  -44.966488 -12.470051 39.405903  -0.990427 0.093880 0.101202  0.070315 0.650380 1 1 1.000000
misc
0  -44.966488 -12.470051 39.405903  -0.990427 0.093880 0.101202  0.070315 0.650380 1 1 1.000000
0  -45.049072 -13.227063 39.405903  -0.991172 0.057851 0.119297  0.074221 0.650380 1 1 1.000000
0  -44.897671 -13.350937 40.465721  -0.950313 0.011214 0.311095  0.074221 0.652333 1 1 1.000000
misc
0  -37.602833 -18.760128 40.479485  -0.055441 -0.717170 0.694690  0.078127 0.654286 1 1 1.000000
0  -37.946926 -19.351976 39.529778  -0.115583 -0.900641 0.418910  0.078127 0.654286 1 1 1.000000
0  -37.465191 -19.255627 39.571068  0.403843 -0.862684 0.304446  0.078127 0.654286 1 1 1.000000
misc
0  -37.465191 -19.255627 39.571068  0.403843 -0.862684 0.304446  0.078127 0.654286 1 1 1.000000
0  -37.134857 -18.677544 40.451954  0.425574 -0.735563 0.527099  0.078127 0.654286 1 1 1.000000
0  -37.602833 -18.760128 40.479485  -0.055441 -0.717170 0.694690  0.078127 0.654286 1 1 1.000000
misc
0  -35.758476 -16.337690 40.135387  0.934023 -0.354805 0.041411  0.074221 0.662099 1 1 1.000000
0  -36.185154 -17.548910 39.887634  0.870638 -0.473059 0.134926  0.076174 0.662099 1 1 1.000000
0  -35.909878 -17.177284 39.199444  0.952777 -0.297502 0.060892  0.076174 0.662099 1 1 1.000000
misc
0  -35.909878 -17.177284 39.199444  0.952777 -0.297502 0.060892  0.076174 0.662099 1 1 1.000000
0  -35.772240 -16.282635 39.337082  0.974455 -0.214254 -0.067332  0.074221 0.662099 1 1 1.000000
0  -35.758476 -16.337690 40.135387  0.934023 -0.354805 0.041411  0.074221 0.662099 1 1 1.000000
misc
0  -35.772240 -16.282635 39.337082  0.974455 -0.214254 -0.067332  0.074221 0.662099 1 1 1.000000
0  -35.552017 -15.566916 39.392139  0.949306 -0.284817 -0.133032  0.070315 0.662099 1 1 1.000000
0  -35.455669 -15.649498 40.190441  0.925942 -0.376841 -0.024931  0.070315 0.662099 1 1 1.000000
misc
0  -35.455669 -15.649498 40.190441  0.925942 -0.376841 -0.024931  0.070315 0.662099 1 1 1.000000
0  -35.758476 -16.337690 40.135387  0.934023 -0.354805 0.041411  0.074221 0.662099 1 1 1.000000
0  -35.772240 -16.282635 39.337082  0.974455 -0.214254 -0.067332  0.074221 0.662099 1 1 1.000000
misc
0  -42.062317 -17.287397 35.951180  -0.131098 -0.134118 -0.982255  0.078127 0.654286 1 1 1.000000
0  -43.135899 -16.461567 35.992470  -0.150040 -0.117572 -0.981664  0.078127 0.654286 1 1 1.000000
0  -37.589066 -15.429276 35.552025  0.033547 0.011766 -0.999368  0.078127 0.654286 1 1 1.000000
misc
0  -37.589066 -15.429276 35.552025  0.033547 0.011766 -0.999368  0.078127 0.654286 1 1 1.000000
0  -37.878109 -17.562674 35.662136  -0.022716 -0.040238 -0.998932  0.078127 0.654286 1 1 1.000000
0  -42.062317 -17.287397 35.951180  -0.131098 -0.134118 -0.982255  0.078127 0.654286 1 1 1.000000
misc
0  -37.589066 -15.429276 35.552025  0.033547 0.011766 -0.999368  0.078127 0.654286 1 1 1.000000
0  -43.135899 -16.461567 35.992470  -0.150040 -0.117572 -0.981664  0.078127 0.654286 1 1 1.000000
0  -43.727741 -15.621971 36.006233  -0.183571 -0.078195 -0.979891  0.078127 0.654286 1 1 1.000000
misc
0  -36.501724 -15.773375 35.675900  0.094608 0.011359 -0.995450  0.078127 0.654286 1 1 1.000000
0  -35.937405 -18.126989 35.703426  -0.007332 -0.012086 -0.999900  0.078127 0.654286 1 1 1.000000
0  -37.878109 -17.562674 35.662136  -0.022716 -0.040238 -0.998932  0.078127 0.654286 1 1 1.000000
misc
0  -37.878109 -17.562674 35.662136  -0.022716 -0.040238 -0.998932  0.078127 0.654286 1 1 1.000000
0  -37.589066 -15.429276 35.552025  0.033547 0.011766 -0.999368  0.078127 0.654286 1 1 1.000000
0  -36.501724 -15.773375 35.675900  0.094608 0.011359 -0.995450  0.078127 0.654286 1 1 1.000000
misc
0  -38.580063 -20.824705 37.905643  -0.478940 -0.797548 0.366789  0.078127 0.654286 1 1 1.000000
0  -38.717705 -21.044928 37.231213  -0.507021 -0.826602 0.244250  0.078127 0.654286 1 1 1.000000
0  -34.918880 -23.384783 37.189922  -0.487484 -0.809959 0.326077  0.078127 0.654286 1 1 1.000000
misc
0  -34.918880 -23.384783 37.189922  -0.487484 -0.809959 0.326077  0.078127 0.654286 1 1 1.000000
0  -34.684895 -23.164558 37.836826  -0.458727 -0.776364 0.432236  0.078127 0.654286 1 1 1.000000
0  -38.580063 -20.824705 37.905643  -0.478940 -0.797548 0.366789  0.078127 0.654286 1 1 1.000000
misc
0  -38.717705 -21.044928 37.231213  -0.507021 -0.826602 0.244250  0.078127 0.654286 1 1 1.000000
0  -38.800285 -21.086220 36.584312  -0.525989 -0.842008 0.119822  0.078127 0.654286 1 1 1.000000
0  -35.194157 -23.357252 36.529259  -0.514994 -0.838096 0.179933  0.078127 0.654286 1 1 1.000000
misc
0  -35.194157 -23.357252 36.529259  -0.514994 -0.838096 0.179933  0.078127 0.654286 1 1 1.000000
0  -34.918880 -23.384783 37.189922  -0.487484 -0.809959 0.326077  0.078127 0.654286 1 1 1.000000
0  -38.717705 -21.044928 37.231213  -0.507021 -0.826602 0.244250  0.078127 0.654286 1 1 1.000000
misc
0  -38.800285 -21.086220 36.584312  -0.342401 -0.513836 -0.786597  0.078127 0.654286 1 1 1.000000
0  -38.635120 -20.466846 36.102577  -0.278210 -0.399359 -0.873562  0.078127 0.654286 1 1 1.000000
0  -35.373085 -22.517658 36.006233  -0.314975 -0.473698 -0.822436  0.078127 0.654286 1 1 1.000000
misc
0  -35.373085 -22.517658 36.006233  -0.314975 -0.473698 -0.822436  0.078127 0.654286 1 1 1.000000
0  -35.194157 -23.357252 36.529259  -0.353044 -0.543568 -0.761508  0.078127 0.654286 1 1 1.000000
0  -38.800285 -21.086220 36.584312  -0.342401 -0.513836 -0.786597  0.078127 0.654286 1 1 1.000000
misc
0  -38.635120 -20.466846 36.102577  -0.278210 -0.399359 -0.873562  0.078127 0.654286 1 1 1.000000
0  -38.373608 -19.544668 35.772247  -0.125310 -0.150766 -0.980595  0.078127 0.654286 1 1 1.000000
0  -35.469433 -21.333967 35.634609  -0.170035 -0.214749 -0.961754  0.078127 0.654286 1 1 1.000000
misc
0  -35.469433 -21.333967 35.634609  -0.170035 -0.214749 -0.961754  0.078127 0.654286 1 1 1.000000
0  -35.373085 -22.517658 36.006233  -0.314975 -0.473698 -0.822436  0.078127 0.654286 1 1 1.000000
0  -38.635120 -20.466846 36.102577  -0.278210 -0.399359 -0.873562  0.078127 0.654286 1 1 1.000000
misc
0  -35.937405 -18.126989 35.703426  -0.007332 -0.012086 -0.999900  0.078127 0.654286 1 1 1.000000
0  -35.469433 -21.333967 35.634609  -0.170035 -0.214749 -0.961754  0.078127 0.654286 1 1 1.000000
0  -38.373608 -19.544668 35.772247  -0.125310 -0.150766 -0.980595  0.078127 0.654286 1 1 1.000000
misc
0  -38.373608 -19.544668 35.772247  -0.125310 -0.150766 -0.980595  0.078127 0.654286 1 1 1.000000
0  -37.878109 -17.562674 35.662136  -0.022716 -0.040238 -0.998932  0.078127 0.654286 1 1 1.000000
0  -35.937405 -18.126989 35.703426  -0.007332 -0.012086 -0.999900  0.078127 0.654286 1 1 1.000000
misc
0  -34.684895 -23.164558 37.836826  -0.186818 -0.374565 0.908185  0.078127 0.654286 1 1 1.000000
0  -34.437145 -21.636772 38.483727  -0.157513 -0.337813 0.927940  0.078127 0.654286 1 1 1.000000
0  -38.112091 -19.613487 38.593838  -0.200958 -0.398805 0.894746  0.078127 0.654286 1 1 1.000000
misc
0  -38.112091 -19.613487 38.593838  -0.200958 -0.398805 0.894746  0.078127 0.654286 1 1 1.000000
0  -38.580063 -20.824705 37.905643  -0.226625 -0.426483 0.875645  0.078127 0.654286 1 1 1.000000
0  -34.684895 -23.164558 37.836826  -0.186818 -0.374565 0.908185  0.078127 0.654286 1 1 1.000000
misc
0  -37.217442 -19.145515 38.814056  -0.068983 -0.169660 0.983085  0.078127 0.654286 1 1 1.000000
0  -34.299507 -20.260387 38.855347  -0.075168 -0.161842 0.983950  0.078127 0.654286 1 1 1.000000
0  -34.161869 -16.998354 39.254501  -0.039252 -0.145121 0.988635  0.078127 0.654286 1 1 1.000000
misc
0  -34.161869 -16.998354 39.254501  -0.039247 -0.145121 0.988635  0.078127 0.654286 1 1 1.000000
0  -35.909878 -17.177284 39.199444  -0.004770 -0.192654 0.981255  0.078127 0.654286 1 1 1.000000
0  -37.217442 -19.145515 38.814056  -0.068959 -0.169665 0.983086  0.078127 0.654286 1 1 1.000000
misc
0  -37.217442 -19.145515 38.814056  -0.068983 -0.169660 0.983085  0.078127 0.654286 1 1 1.000000
0  -37.644123 -19.544666 38.690182  -0.129270 -0.280805 0.951019  0.078127 0.654286 1 1 1.000000
0  -34.340797 -20.989870 38.703949  -0.114043 -0.255017 0.960188  0.078127 0.654286 1 1 1.000000
misc
0  -34.340797 -20.989870 38.703949  -0.114043 -0.255017 0.960188  0.078127 0.654286 1 1 1.000000
0  -34.299507 -20.260387 38.855347  -0.075168 -0.161842 0.983950  0.078127 0.654286 1 1 1.000000
0  -37.217442 -19.145515 38.814056  -0.068983 -0.169660 0.983085  0.078127 0.654286 1 1 1.000000
misc
0  -36.047516 -15.525623 41.346607  0.311610 0.948129 0.062861  0.078127 0.652333 1 1 1.000000
0  -36.019989 -15.553153 41.498005  0.311603 0.948132 0.062844  0.078127 0.654286 1 1 1.000000
0  -35.689655 -15.649498 41.360371  0.311601 0.948135 0.062809  0.078127 0.654286 1 1 1.000000
misc
0  -35.689655 -15.649498 41.360371  0.311601 0.948135 0.062809  0.078127 0.654286 1 1 1.000000
0  -35.772240 -15.608208 41.250259  0.311607 0.948133 0.062811  0.078127 0.652333 1 1 1.000000
0  -36.047516 -15.525623 41.346607  0.311610 0.948129 0.062861  0.078127 0.652333 1 1 1.000000
misc
0  -41.759514 -13.639977 41.264023  0.311590 0.948142 0.062764  0.078127 0.652333 1 1 1.000000
0  -41.773277 -13.653741 41.401661  0.311590 0.948141 0.062779  0.078127 0.654286 1 1 1.000000
0  -36.019989 -15.553153 41.498005  0.311603 0.948132 0.062844  0.078127 0.654286 1 1 1.000000
misc
0  -36.019989 -15.553153 41.498005  0.311603 0.948132 0.062844  0.078127 0.654286 1 1 1.000000
0  -36.047516 -15.525623 41.346607  0.311610 0.948129 0.062861  0.078127 0.652333 1 1 1.000000
0  -41.759514 -13.639977 41.264023  0.311590 0.948142 0.062764  0.078127 0.652333 1 1 1.000000
misc
0  -42.488995 -13.405991 41.222729  0.311592 0.948137 0.062823  0.078127 0.652333 1 1 1.000000
0  -42.502758 -13.405991 41.360371  0.311594 0.948137 0.062812  0.078127 0.654286 1 1 1.000000
0  -41.773277 -13.653741 41.401661  0.311590 0.948141 0.062779  0.078127 0.654286 1 1 1.000000
misc
0  -41.773277 -13.653741 41.401661  0.311590 0.948141 0.062779  0.078127 0.654286 1 1 1.000000
0  -41.759514 -13.639977 41.264023  0.311590 0.948142 0.062764  0.078127 0.652333 1 1 1.000000
0  -42.488995 -13.405991 41.222729  0.311592 0.948137 0.062823  0.078127 0.652333 1 1 1.000000
misc
0  -43.438705 -13.089424 41.126385  0.311543 0.948157 0.062755  0.078127 0.652333 1 1 1.000000
0  -43.466232 -13.089424 41.264023  0.311561 0.948151 0.062757  0.078127 0.654286 1 1 1.000000
0  -42.502758 -13.405991 41.360371  0.311594 0.948137 0.062812  0.078127 0.654286 1 1 1.000000
misc
0  -42.502758 -13.405991 41.360371  0.311594 0.948137 0.062812  0.078127 0.654286 1 1 1.000000
0  -42.488995 -13.405991 41.222729  0.311592 0.948137 0.062823  0.078127 0.652333 1 1 1.000000
0  -43.438705 -13.089424 41.126385  0.311543 0.948157 0.062755  0.078127 0.652333 1 1 1.000000
misc
0  -44.154423 -12.841674 40.947453  0.311610 0.948134 0.062782  0.078127 0.652333 1 1 1.000000
0  -44.209476 -12.827909 41.085091  0.311589 0.948139 0.062807  0.078127 0.654286 1 1 1.000000
0  -43.466232 -13.089424 41.264023  0.311561 0.948151 0.062757  0.078127 0.654286 1 1 1.000000
misc
0  -43.466232 -13.089424 41.264023  0.311561 0.948151 0.062757  0.078127 0.654286 1 1 1.000000
0  -43.438705 -13.089424 41.126385  0.311543 0.948157 0.062755  0.078127 0.652333 1 1 1.000000
0  -44.154423 -12.841674 40.947453  0.311610 0.948134 0.062782  0.078127 0.652333 1 1 1.000000
misc
0  -44.539810 -12.690272 40.727230  0.311633 0.948124 0.062815  0.078127 0.652333 1 1 1.000000
0  -44.636154 -12.676509 40.837345  0.311634 0.948126 0.062785  0.078127 0.654286 1 1 1.000000
0  -44.209476 -12.827909 41.085091  0.311589 0.948139 0.062807  0.078127 0.654286 1 1 1.000000
misc
0  -44.209476 -12.827909 41.085091  0.311589 0.948139 0.062807  0.078127 0.654286 1 1 1.000000
0  -44.154423 -12.841674 40.947453  0.311610 0.948134 0.062782  0.078127 0.652333 1 1 1.000000
0  -44.539810 -12.690272 40.727230  0.311633 0.948124 0.062815  0.078127 0.652333 1 1 1.000000
misc
0  -44.704979 -12.621453 40.451954  0.311610 0.948135 0.062767  0.078127 0.652333 1 1 1.000000
0  -44.842613 -12.580162 40.507011  0.311600 0.948135 0.062807  0.078127 0.654286 1 1 1.000000
0  -44.636154 -12.676509 40.837345  0.311634 0.948126 0.062785  0.078127 0.654286 1 1 1.000000
misc
0  -44.636154 -12.676509 40.837345  0.311634 0.948126 0.062785  0.078127 0.654286 1 1 1.000000
0  -44.539810 -12.690272 40.727230  0.311633 0.948124 0.062815  0.078127 0.652333 1 1 1.000000
0  -44.704979 -12.621453 40.451954  0.311610 0.948135 0.062767  0.078127 0.652333 1 1 1.000000
misc
0  -44.842613 -12.511342 39.392139  0.311627 0.948128 0.062784  0.078127 0.652333 1 1 1.000000
0  -44.966488 -12.470051 39.405903  0.311610 0.948134 0.062782  0.078127 0.654286 1 1 1.000000
0  -44.842613 -12.580162 40.507011  0.311600 0.948135 0.062807  0.078127 0.654286 1 1 1.000000
misc
0  -44.842613 -12.580162 40.507011  0.311600 0.948135 0.062807  0.078127 0.654286 1 1 1.000000
0  -44.704979 -12.621453 40.451954  0.311610 0.948135 0.062767  0.078127 0.652333 1 1 1.000000
0  -44.842613 -12.511342 39.392139  0.311627 0.948128 0.062784  0.078127 0.652333 1 1 1.000000
misc
0  -44.897671 -12.414995 38.304794  0.311568 0.948148 0.062771  0.078127 0.652333 1 1 1.000000
0  -45.035309 -12.373704 38.318558  0.311570 0.948147 0.062774  0.078127 0.654286 1 1 1.000000
0  -44.966488 -12.470051 39.405903  0.311610 0.948134 0.062782  0.078127 0.654286 1 1 1.000000
misc
0  -44.966488 -12.470051 39.405903  0.311610 0.948134 0.062782  0.078127 0.654286 1 1 1.000000
0  -44.842613 -12.511342 39.392139  0.311627 0.948128 0.062784  0.078127 0.652333 1 1 1.000000
0  -44.897671 -12.414995 38.304794  0.311568 0.948148 0.062771  0.078127 0.652333 1 1 1.000000
misc
0  -44.883907 -12.373704 37.478962  0.311642 0.948124 0.062772  0.078127 0.652333 1 1 1.000000
0  -45.021545 -12.318648 37.465199  0.311630 0.948128 0.062778  0.078127 0.654286 1 1 1.000000
0  -45.035309 -12.373704 38.318558  0.311570 0.948147 0.062774  0.078127 0.654286 1 1 1.000000
misc
0  -45.035309 -12.373704 38.318558  0.311570 0.948147 0.062774  0.078127 0.654286 1 1 1.000000
0  -44.897671 -12.414995 38.304794  0.311568 0.948148 0.062771  0.078127 0.652333 1 1 1.000000
0  -44.883907 -12.373704 37.478962  0.311642 0.948124 0.062772  0.078127 0.652333 1 1 1.000000
misc
0  -44.677452 -12.387467 36.680660  0.311598 0.948139 0.062772  0.078127 0.652333 1 1 1.000000
0  -44.787560 -12.346177 36.611843  0.311609 0.948134 0.062778  0.078127 0.654286 1 1 1.000000
0  -45.021545 -12.318648 37.465199  0.311630 0.948128 0.062778  0.078127 0.654286 1 1 1.000000
misc
0  -45.021545 -12.318648 37.465199  0.311630 0.948128 0.062778  0.078127 0.654286 1 1 1.000000
0  -44.883907 -12.373704 37.478962  0.311642 0.948124 0.062772  0.078127 0.652333 1 1 1.000000
0  -44.677452 -12.387467 36.680660  0.311598 0.948139 0.062772  0.078127 0.652333 1 1 1.000000
misc
0  -44.402172 -12.456287 36.350327  0.311606 0.948133 0.062814  0.078127 0.652333 1 1 1.000000
0  -44.484753 -12.414995 36.226452  0.311612 0.948131 0.062812  0.078127 0.654286 1 1 1.000000
0  -44.787560 -12.346177 36.611843  0.311609 0.948134 0.062778  0.078127 0.654286 1 1 1.000000
misc
0  -44.787560 -12.346177 36.611843  0.311609 0.948134 0.062778  0.078127 0.654286 1 1 1.000000
0  -44.677452 -12.387467 36.680660  0.311598 0.948139 0.062772  0.078127 0.652333 1 1 1.000000
0  -44.402172 -12.456287 36.350327  0.311606 0.948133 0.062814  0.078127 0.652333 1 1 1.000000
misc
0  -43.975491 -12.580161 36.143867  0.311617 0.948133 0.062761  0.078127 0.652333 1 1 1.000000
0  -44.003021 -12.566398 36.006233  0.311587 0.948143 0.062752  0.078127 0.654286 1 1 1.000000
0  -44.484753 -12.414995 36.226452  0.311612 0.948131 0.062812  0.078127 0.654286 1 1 1.000000
misc
0  -44.484753 -12.414995 36.226452  0.311612 0.948131 0.062812  0.078127 0.654286 1 1 1.000000
0  -44.402172 -12.456287 36.350327  0.311606 0.948133 0.062814  0.078127 0.652333 1 1 1.000000
0  -43.975491 -12.580161 36.143867  0.311617 0.948133 0.062761  0.078127 0.652333 1 1 1.000000
misc
0  -37.410137 -14.713557 35.744720  0.311603 0.948135 0.062802  0.078127 0.652333 1 1 1.000000
0  -37.396374 -14.699794 35.607079  0.311594 0.948137 0.062811  0.078127 0.654286 1 1 1.000000
0  -44.003021 -12.566398 36.006233  0.311587 0.948143 0.062752  0.078127 0.654286 1 1 1.000000
misc
0  -44.003021 -12.566398 36.006233  0.311587 0.948143 0.062752  0.078127 0.654286 1 1 1.000000
0  -43.975491 -12.580161 36.143867  0.311617 0.948133 0.062761  0.078127 0.652333 1 1 1.000000
0  -37.410137 -14.713557 35.744720  0.311603 0.948135 0.062802  0.078127 0.652333 1 1 1.000000
misc
0  -36.556778 -15.002598 35.882359  0.311584 0.948141 0.062797  0.078127 0.652333 1 1 1.000000
0  -36.474194 -15.016361 35.758484  0.311596 0.948139 0.062779  0.078127 0.654286 1 1 1.000000
0  -37.396374 -14.699794 35.607079  0.311594 0.948137 0.062811  0.078127 0.654286 1 1 1.000000
misc
0  -37.396374 -14.699794 35.607079  0.311594 0.948137 0.062811  0.078127 0.654286 1 1 1.000000
0  -37.410137 -14.713557 35.744720  0.311603 0.948135 0.062802  0.078127 0.652333 1 1 1.000000
0  -36.556778 -15.002598 35.882359  0.311584 0.948141 0.062797  0.078127 0.652333 1 1 1.000000
misc
0  -36.116333 -15.195292 36.556786  0.311570 0.948145 0.062814  0.078127 0.652333 1 1 1.000000
0  -35.992462 -15.222819 36.501732  0.311594 0.948138 0.062806  0.078127 0.654286 1 1 1.000000
0  -36.474194 -15.016361 35.758484  0.311596 0.948139 0.062779  0.078127 0.654286 1 1 1.000000
misc
0  -36.474194 -15.016361 35.758484  0.311596 0.948139 0.062779  0.078127 0.654286 1 1 1.000000
0  -36.556778 -15.002598 35.882359  0.311584 0.948141 0.062797  0.078127 0.652333 1 1 1.000000
0  -36.116333 -15.195292 36.556786  0.311570 0.948145 0.062814  0.078127 0.652333 1 1 1.000000
misc
0  -35.675892 -15.525623 39.405903  0.311606 0.948135 0.062777  0.078127 0.652333 1 1 1.000000
0  -35.552017 -15.566916 39.392139  0.311608 0.948135 0.062777  0.078127 0.654286 1 1 1.000000
0  -35.992462 -15.222819 36.501732  0.311594 0.948138 0.062806  0.078127 0.654286 1 1 1.000000
misc
0  -35.992462 -15.222819 36.501732  0.311594 0.948138 0.062806  0.078127 0.654286 1 1 1.000000
0  -36.116333 -15.195292 36.556786  0.311570 0.948145 0.062814  0.078127 0.652333 1 1 1.000000
0  -35.675892 -15.525623 39.405903  0.311606 0.948135 0.062777  0.078127 0.652333 1 1 1.000000
misc
0  -35.593307 -15.608208 40.190441  0.311596 0.948139 0.062775  0.078127 0.652333 1 1 1.000000
0  -35.455669 -15.649498 40.190441  0.311604 0.948136 0.062778  0.078127 0.654286 1 1 1.000000
0  -35.552017 -15.566916 39.392139  0.311608 0.948135 0.062777  0.078127 0.654286 1 1 1.000000
misc
0  -35.552017 -15.566916 39.392139  0.311608 0.948135 0.062777  0.078127 0.654286 1 1 1.000000
0  -35.675892 -15.525623 39.405903  0.311606 0.948135 0.062777  0.078127 0.652333 1 1 1.000000
0  -35.593307 -15.608208 40.190441  0.311596 0.948139 0.062775  0.078127 0.652333 1 1 1.000000
misc
0  -35.634602 -15.635735 40.961216  0.311607 0.948132 0.062823  0.078127 0.652333 1 1 1.000000
0  -35.510727 -15.677027 40.988743  0.311570 0.948151 0.062727  0.078127 0.654286 1 1 1.000000
0  -35.455669 -15.649498 40.190441  0.311604 0.948136 0.062778  0.078127 0.654286 1 1 1.000000
misc
0  -35.455669 -15.649498 40.190441  0.311604 0.948136 0.062778  0.078127 0.654286 1 1 1.000000
0  -35.593307 -15.608208 40.190441  0.311596 0.948139 0.062775  0.078127 0.652333 1 1 1.000000
0  -35.634602 -15.635735 40.961216  0.311607 0.948132 0.062823  0.078127 0.652333 1 1 1.000000
misc
0  -35.772240 -15.608208 41.250259  0.311607 0.948133 0.062811  0.078127 0.652333 1 1 1.000000
0  -35.689655 -15.649498 41.360371  0.311601 0.948135 0.062809  0.078127 0.654286 1 1 1.000000
0  -35.510727 -15.677027 40.988743  0.311570 0.948151 0.062727  0.078127 0.654286 1 1 1.000000
misc
0  -35.510727 -15.677027 40.988743  0.311570 0.948151 0.062727  0.078127 0.654286 1 1 1.000000
0  -35.634602 -15.635735 40.961216  0.311607 0.948132 0.062823  0.078127 0.652333 1 1 1.000000
0  -35.772240 -15.608208 41.250259  0.311607 0.948133 0.062811  0.078127 0.652333 1 1 1.000000
misc
0  -36.487957 -16.117468 41.071327  0.003299 0.437375 -0.899273  0.078127 0.654286 1 1 1.000000
0  -36.047516 -15.525623 41.346607  -0.027039 0.456328 -0.889401  0.078127 0.654286 1 1 1.000000
0  -35.772240 -15.608208 41.250259  -0.427948 0.663349 -0.613864  0.078127 0.654286 1 1 1.000000
misc
0  -35.772240 -15.608208 41.250259  -0.427948 0.663349 -0.613864  0.078127 0.654286 1 1 1.000000
0  -36.295265 -16.186289 40.974979  -0.400958 0.641628 -0.653870  0.078127 0.654286 1 1 1.000000
0  -36.487957 -16.117468 41.071327  0.003299 0.437375 -0.899273  0.078127 0.654286 1 1 1.000000
misc
0  -41.924679 -14.080420 40.947453  0.219757 0.516455 -0.827636  0.078127 0.654286 1 1 1.000000
0  -41.759514 -13.639977 41.264023  0.216282 0.532420 -0.818383  0.078127 0.654286 1 1 1.000000
0  -36.047516 -15.525623 41.346607  -0.027039 0.456328 -0.889401  0.078127 0.654286 1 1 1.000000
misc
0  -36.047516 -15.525623 41.346607  -0.027039 0.456328 -0.889401  0.078127 0.654286 1 1 1.000000
0  -36.487957 -16.117468 41.071327  0.003299 0.437375 -0.899273  0.078127 0.654286 1 1 1.000000
0  -41.924679 -14.080420 40.947453  0.219757 0.516455 -0.827636  0.078127 0.654286 1 1 1.000000
misc
0  -42.626637 -13.805143 40.892399  0.267070 0.533784 -0.802339  0.078127 0.654286 1 1 1.000000
0  -42.488995 -13.405991 41.222729  0.259836 0.550610 -0.793293  0.078127 0.654286 1 1 1.000000
0  -41.759514 -13.639977 41.264023  0.216282 0.532420 -0.818383  0.078127 0.654286 1 1 1.000000
misc
0  -41.759514 -13.639977 41.264023  0.216282 0.532420 -0.818383  0.078127 0.654286 1 1 1.000000
0  -41.924679 -14.080420 40.947453  0.219757 0.516455 -0.827636  0.078127 0.654286 1 1 1.000000
0  -42.626637 -13.805143 40.892399  0.267070 0.533784 -0.802339  0.078127 0.654286 1 1 1.000000
misc
0  -43.548813 -13.461047 40.796055  0.337352 0.553923 -0.761159  0.078127 0.654286 1 1 1.000000
0  -43.438705 -13.089424 41.126385  0.327070 0.571443 -0.752647  0.078127 0.654286 1 1 1.000000
0  -42.488995 -13.405991 41.222729  0.259836 0.550610 -0.793293  0.078127 0.654286 1 1 1.000000
misc
0  -42.488995 -13.405991 41.222729  0.259836 0.550610 -0.793293  0.078127 0.654286 1 1 1.000000
0  -42.626637 -13.805143 40.892399  0.267070 0.533784 -0.802339  0.078127 0.654286 1 1 1.000000
0  -43.548813 -13.461047 40.796055  0.337352 0.553923 -0.761159  0.078127 0.654286 1 1 1.000000
misc
0  -44.140659 -13.227062 40.658409  0.464807 0.547772 -0.695629  0.078127 0.654286 1 1 1.000000
0  -44.154423 -12.841674 40.947453  0.474604 0.549323 -0.687747  0.078127 0.654286 1 1 1.000000
0  -43.438705 -13.089424 41.126385  0.327070 0.571443 -0.752647  0.078127 0.654286 1 1 1.000000
misc
0  -43.438705 -13.089424 41.126385  0.327070 0.571443 -0.752647  0.078127 0.654286 1 1 1.000000
0  -43.548813 -13.461047 40.796055  0.337352 0.553923 -0.761159  0.078127 0.654286 1 1 1.000000
0  -44.140659 -13.227062 40.658409  0.464807 0.547772 -0.695629  0.078127 0.654286 1 1 1.000000
misc
0  -44.415936 -13.116952 40.507011  0.704787 0.487690 -0.515202  0.078127 0.654286 1 1 1.000000
0  -44.539810 -12.690272 40.727230  0.712881 0.490420 -0.501288  0.078127 0.654286 1 1 1.000000
0  -44.154423 -12.841674 40.947453  0.474604 0.549323 -0.687747  0.078127 0.654286 1 1 1.000000
misc
0  -44.154423 -12.841674 40.947453  0.474604 0.549323 -0.687747  0.078127 0.654286 1 1 1.000000
0  -44.140659 -13.227062 40.658409  0.464807 0.547772 -0.695629  0.078127 0.654286 1 1 1.000000
0  -44.415936 -13.116952 40.507011  0.704787 0.487690 -0.515202  0.078127 0.654286 1 1 1.000000
misc
0  -44.594864 -13.034369 40.190441  0.903898 0.379728 -0.196914  0.078127 0.654286 1 1 1.000000
0  -44.704979 -12.621453 40.451954  0.870775 0.418790 -0.257615  0.078127 0.654286 1 1 1.000000
0  -44.539810 -12.690272 40.727230  0.712881 0.490420 -0.501288  0.078127 0.654286 1 1 1.000000
misc
0  -44.539810 -12.690272 40.727230  0.712881 0.490420 -0.501288  0.078127 0.654286 1 1 1.000000
0  -44.415936 -13.116952 40.507011  0.704787 0.487690 -0.515202  0.078127 0.654286 1 1 1.000000
0  -44.594864 -13.034369 40.190441  0.903898 0.379728 -0.196914  0.078127 0.654286 1 1 1.000000
misc
0  -44.691216 -12.951785 39.323318  0.945385 0.321479 -0.053840  0.078127 0.654286 1 1 1.000000
0  -44.842613 -12.511342 39.392139  0.945353 0.321341 -0.055210  0.078127 0.654286 1 1 1.000000
0  -44.704979 -12.621453 40.451954  0.870775 0.418790 -0.257615  0.078127 0.654286 1 1 1.000000
misc
0  -44.704979 -12.621453 40.451954  0.870775 0.418790 -0.257615  0.078127 0.654286 1 1 1.000000
0  -44.594864 -13.034369 40.190441  0.903898 0.379728 -0.196914  0.078127 0.654286 1 1 1.000000
0  -44.691216 -12.951785 39.323318  0.945385 0.321479 -0.053840  0.078127 0.654286 1 1 1.000000
misc
0  -44.746269 -12.882965 38.249737  0.950032 0.312125 0.004262  0.078127 0.654286 1 1 1.000000
0  -44.897671 -12.414995 38.304794  0.950431 0.310917 0.003328  0.078127 0.654286 1 1 1.000000
0  -44.842613 -12.511342 39.392139  0.945353 0.321341 -0.055210  0.078127 0.654286 1 1 1.000000
misc
0  -44.842613 -12.511342 39.392139  0.945353 0.321341 -0.055210  0.078127 0.654286 1 1 1.000000
0  -44.691216 -12.951785 39.323318  0.945385 0.321479 -0.053840  0.078127 0.654286 1 1 1.000000
0  -44.746269 -12.882965 38.249737  0.950032 0.312125 0.004262  0.078127 0.654286 1 1 1.000000
misc
0  -44.732506 -12.855438 37.478962  0.943964 0.300588 0.136301  0.078127 0.654286 1 1 1.000000
0  -44.883907 -12.373704 37.478962  0.945089 0.298187 0.133764  0.078127 0.654286 1 1 1.000000
0  -44.897671 -12.414995 38.304794  0.950431 0.310917 0.003328  0.078127 0.654286 1 1 1.000000
misc
0  -44.897671 -12.414995 38.304794  0.950431 0.310917 0.003328  0.078127 0.654286 1 1 1.000000
0  -44.746269 -12.882965 38.249737  0.950032 0.312125 0.004262  0.078127 0.654286 1 1 1.000000
0  -44.732506 -12.855438 37.478962  0.943964 0.300588 0.136301  0.078127 0.654286 1 1 1.000000
misc
0  -44.539810 -12.882965 36.777008  0.864276 0.299224 0.404340  0.078127 0.654286 1 1 1.000000
0  -44.677452 -12.387467 36.680660  0.866686 0.294100 0.402941  0.078127 0.654286 1 1 1.000000
0  -44.883907 -12.373704 37.478962  0.945089 0.298187 0.133764  0.078127 0.654286 1 1 1.000000
misc
0  -44.883907 -12.373704 37.478962  0.945089 0.298187 0.133764  0.078127 0.654286 1 1 1.000000
0  -44.732506 -12.855438 37.478962  0.943964 0.300588 0.136301  0.078127 0.654286 1 1 1.000000
0  -44.539810 -12.882965 36.777008  0.864276 0.299224 0.404340  0.078127 0.654286 1 1 1.000000
misc
0  -44.360882 -12.938022 36.543022  0.644550 0.338287 0.685651  0.078127 0.654286 1 1 1.000000
0  -44.402172 -12.456287 36.350327  0.644728 0.331760 0.688666  0.078127 0.654286 1 1 1.000000
0  -44.677452 -12.387467 36.680660  0.866686 0.294100 0.402941  0.078127 0.654286 1 1 1.000000
misc
0  -44.677452 -12.387467 36.680660  0.866686 0.294100 0.402941  0.078127 0.654286 1 1 1.000000
0  -44.539810 -12.882965 36.777008  0.864276 0.299224 0.404340  0.078127 0.654286 1 1 1.000000
0  -44.360882 -12.938022 36.543022  0.644550 0.338287 0.685651  0.078127 0.654286 1 1 1.000000
misc
0  -44.044312 -13.048131 36.391621  0.351981 0.404869 0.843914  0.078127 0.654286 1 1 1.000000
0  -43.975491 -12.580161 36.143867  0.352136 0.396442 0.847841  0.078127 0.654286 1 1 1.000000
0  -44.402172 -12.456287 36.350327  0.644728 0.331760 0.688666  0.078127 0.654286 1 1 1.000000
misc
0  -44.402172 -12.456287 36.350327  0.644728 0.331760 0.688666  0.078127 0.654286 1 1 1.000000
0  -44.360882 -12.938022 36.543022  0.644550 0.338287 0.685651  0.078127 0.654286 1 1 1.000000
0  -44.044312 -13.048131 36.391621  0.351981 0.404869 0.843914  0.078127 0.654286 1 1 1.000000
misc
0  -37.657887 -15.429276 36.047523  0.079119 0.364197 0.927955  0.078127 0.654286 1 1 1.000000
0  -37.410137 -14.713557 35.744720  0.077968 0.359690 0.929809  0.078127 0.654286 1 1 1.000000
0  -43.975491 -12.580161 36.143867  0.352136 0.396442 0.847841  0.078127 0.654286 1 1 1.000000
misc
0  -43.975491 -12.580161 36.143867  0.352136 0.396442 0.847841  0.078127 0.654286 1 1 1.000000
0  -44.044312 -13.048131 36.391621  0.351981 0.404869 0.843914  0.078127 0.654286 1 1 1.000000
0  -37.657887 -15.429276 36.047523  0.079119 0.364197 0.927955  0.078127 0.654286 1 1 1.000000
misc
0  -36.969692 -15.704554 36.171398  -0.340217 0.518709 0.784343  0.078127 0.654286 1 1 1.000000
0  -36.556778 -15.002598 35.882359  -0.322265 0.511851 0.796338  0.078127 0.654286 1 1 1.000000
0  -37.410137 -14.713557 35.744720  0.077968 0.359690 0.929809  0.078127 0.654286 1 1 1.000000
misc
0  -37.410137 -14.713557 35.744720  0.077968 0.359690 0.929809  0.078127 0.654286 1 1 1.000000
0  -37.657887 -15.429276 36.047523  0.079119 0.364197 0.927955  0.078127 0.654286 1 1 1.000000
0  -36.969692 -15.704554 36.171398  -0.340217 0.518709 0.784343  0.078127 0.654286 1 1 1.000000
misc
0  -36.639362 -15.842193 36.680660  -0.697902 0.615682 0.365880  0.078127 0.654286 1 1 1.000000
0  -36.116333 -15.195292 36.556786  -0.687628 0.616734 0.383154  0.078127 0.654286 1 1 1.000000
0  -36.556778 -15.002598 35.882359  -0.322265 0.511851 0.796338  0.078127 0.654286 1 1 1.000000
misc
0  -36.556778 -15.002598 35.882359  -0.322265 0.511851 0.796338  0.078127 0.654286 1 1 1.000000
0  -36.969692 -15.704554 36.171398  -0.340217 0.518709 0.784343  0.078127 0.654286 1 1 1.000000
0  -36.639362 -15.842193 36.680660  -0.697902 0.615682 0.365880  0.078127 0.654286 1 1 1.000000
misc
0  -36.212681 -16.144995 39.474724  -0.738379 0.655465 0.158627  0.078127 0.654286 1 1 1.000000
0  -35.675892 -15.525623 39.405903  -0.733442 0.659344 0.165310  0.078127 0.654286 1 1 1.000000
0  -36.116333 -15.195292 36.556786  -0.687628 0.616734 0.383154  0.078127 0.654286 1 1 1.000000
misc
0  -36.116333 -15.195292 36.556786  -0.687628 0.616734 0.383154  0.078127 0.654286 1 1 1.000000
0  -36.639362 -15.842193 36.680660  -0.697902 0.615682 0.365880  0.078127 0.654286 1 1 1.000000
0  -36.212681 -16.144995 39.474724  -0.738379 0.655465 0.158627  0.078127 0.654286 1 1 1.000000
misc
0  -36.143860 -16.213816 40.217968  -0.742000 0.668437 0.051254  0.078127 0.654286 1 1 1.000000
0  -35.593307 -15.608208 40.190441  -0.736939 0.672652 0.066780  0.078127 0.654286 1 1 1.000000
0  -35.675892 -15.525623 39.405903  -0.733442 0.659344 0.165310  0.078127 0.654286 1 1 1.000000
misc
0  -35.675892 -15.525623 39.405903  -0.733442 0.659344 0.165310  0.078127 0.654286 1 1 1.000000
0  -36.212681 -16.144995 39.474724  -0.738379 0.655465 0.158627  0.078127 0.654286 1 1 1.000000
0  -36.143860 -16.213816 40.217968  -0.742000 0.668437 0.051254  0.078127 0.654286 1 1 1.000000
misc
0  -36.171391 -16.227579 40.782284  -0.684396 0.690372 -0.234496  0.078127 0.654286 1 1 1.000000
0  -35.634602 -15.635735 40.961216  -0.683302 0.702677 -0.198352  0.078127 0.654286 1 1 1.000000
0  -35.593307 -15.608208 40.190441  -0.736939 0.672652 0.066780  0.078127 0.654286 1 1 1.000000
misc
0  -35.593307 -15.608208 40.190441  -0.736939 0.672652 0.066780  0.078127 0.654286 1 1 1.000000
0  -36.143860 -16.213816 40.217968  -0.742000 0.668437 0.051254  0.078127 0.654286 1 1 1.000000
0  -36.171391 -16.227579 40.782284  -0.684396 0.690372 -0.234496  0.078127 0.654286 1 1 1.000000
misc
0  -36.295265 -16.186289 40.974979  -0.400958 0.641628 -0.653870  0.078127 0.654286 1 1 1.000000
0  -35.772240 -15.608208 41.250259  -0.427948 0.663349 -0.613864  0.078127 0.654286 1 1 1.000000
0  -35.634602 -15.635735 40.961216  -0.683302 0.702677 -0.198352  0.078127 0.654286 1 1 1.000000
misc
0  -35.634602 -15.635735 40.961216  -0.683302 0.702677 -0.198352  0.078127 0.654286 1 1 1.000000
0  -36.171391 -16.227579 40.782284  -0.684396 0.690372 -0.234496  0.078127 0.654286 1 1 1.000000
0  -36.295265 -16.186289 40.974979  -0.400958 0.641628 -0.653870  0.078127 0.654286 1 1 1.000000
end
