version 1
nodes
0 "blender_implicit" -1
1 "root" -1
2 "steering_wheel" 1
end
skeleton
time 0
0  0.000000 0.000000 0.000000  0.000000 -0.000000 0.000000
1  0.000000 0.000000 0.000000  1.570796 -0.000000 0.000000
2  18.487606 30.459387 10.889964  0.000000 -0.000000 0.000000
end
triangles
aluminiummisc
0  19.062922 94.709045 6.152439  -0.563428 0.031675 -0.825558  0.033204 0.980468 1 1 1.000000
0  19.021633 79.568802 5.601885  -0.561999 0.031733 -0.826529  0.357433 0.979492 1 1 1.000000
0  17.328680 79.513748 8.161962  -0.993063 0.007827 -0.117320  0.357433 0.986328 1 1 1.000000
aluminiummisc
0  17.328680 79.513748 8.161962  -0.993063 0.007827 -0.117320  0.357433 0.986328 1 1 1.000000
0  17.383736 94.653992 8.684988  -0.993058 0.008123 -0.117347  0.033204 0.987304 1 1 1.000000
0  19.062922 94.709045 6.152439  -0.563428 0.031675 -0.825558  0.033204 0.980468 1 1 1.000000
aluminiummisc
0  29.096769 94.653992 8.684987  0.993054 0.007857 -0.117396  0.033204 0.955077 1 1 1.000000
0  29.151825 79.513748 8.161961  0.993162 0.008075 -0.116466  0.357433 0.954100 1 1 1.000000
0  27.458872 79.568802 5.601884  0.561808 0.031656 -0.826662  0.357433 0.960936 1 1 1.000000
aluminiummisc
0  27.458872 79.568802 5.601884  0.561808 0.031656 -0.826662  0.357433 0.960936 1 1 1.000000
0  27.417578 94.709045 6.152438  0.562759 0.031716 -0.826013  0.033204 0.961913 1 1 1.000000
0  29.096769 94.653992 8.684987  0.993054 0.007857 -0.117396  0.033204 0.955077 1 1 1.000000
aluminiummisc
0  19.062922 94.709045 6.152439  0.004623 0.999323 0.036498  0.311533 0.878903 1 1 1.000000
0  17.383736 94.653992 8.684988  0.029109 0.998735 0.041011  0.357433 0.927732 1 1 1.000000
0  18.071926 94.557632 10.543107  0.008715 0.999298 0.036427  0.357433 0.997070 1 1 1.000000
aluminiummisc
0  19.062922 94.709045 6.152439  0.004623 0.999323 0.036498  0.311533 0.878903 1 1 1.000000
0  18.071926 94.557632 10.543107  0.008715 0.999298 0.036427  0.357433 0.997070 1 1 1.000000
0  28.408577 94.557632 10.543106  -0.008698 0.999299 0.036425  0.034181 0.997070 1 1 1.000000
aluminiummisc
0  28.408577 94.557632 10.543106  -0.008685 0.999299 0.036422  0.034181 0.997070 1 1 1.000000
0  29.096769 94.653992 8.684987  -0.028609 0.998737 0.041298  0.035157 0.927732 1 1 1.000000
0  27.417578 94.709045 6.152438  -0.004477 0.999321 0.036563  0.081057 0.878903 1 1 1.000000
aluminiummisc
0  19.062922 94.709045 6.152439  0.004464 0.999321 0.036564  0.311533 0.878903 1 1 1.000000
0  28.408577 94.557632 10.543106  -0.008685 0.999299 0.036422  0.034181 0.997070 1 1 1.000000
0  27.417578 94.709045 6.152438  -0.004477 0.999321 0.036563  0.081057 0.878903 1 1 1.000000
aluminiummisc
0  19.062922 94.709045 6.152439  0.004464 0.999321 0.036564  0.311533 0.878903 1 1 1.000000
0  27.417578 94.709045 6.152438  -0.004477 0.999321 0.036563  0.081057 0.878903 1 1 1.000000
0  23.247133 94.750336 5.271552  -0.000030 0.999207 0.039822  0.196295 0.853511 1 1 1.000000
aluminiummisc
0  27.417578 94.709045 6.152438  0.562759 0.031716 -0.826013  0.033204 0.961913 1 1 1.000000
0  27.458872 79.568802 5.601884  0.561808 0.031656 -0.826662  0.357433 0.960936 1 1 1.000000
0  23.247135 79.610100 4.707234  0.000227 0.037111 -0.999311  0.357433 0.970702 1 1 1.000000
aluminiummisc
0  23.247135 79.610100 4.707234  0.000227 0.037111 -0.999311  0.357433 0.970702 1 1 1.000000
0  23.247133 94.750336 5.271552  0.000237 0.037110 -0.999311  0.033204 0.971679 1 1 1.000000
0  27.417578 94.709045 6.152438  0.562759 0.031716 -0.826013  0.033204 0.961913 1 1 1.000000
aluminiummisc
0  23.247133 94.750336 5.271552  0.000237 0.037110 -0.999311  0.033204 0.971679 1 1 1.000000
0  23.247135 79.610100 4.707234  0.000227 0.037111 -0.999311  0.357433 0.970702 1 1 1.000000
0  19.021633 79.568802 5.601885  -0.561999 0.031733 -0.826529  0.357433 0.979492 1 1 1.000000
aluminiummisc
0  19.021633 79.568802 5.601885  -0.561999 0.031733 -0.826529  0.357433 0.979492 1 1 1.000000
0  19.062922 94.709045 6.152439  -0.563428 0.031675 -0.825558  0.033204 0.980468 1 1 1.000000
0  23.247133 94.750336 5.271552  0.000237 0.037110 -0.999311  0.033204 0.971679 1 1 1.000000
aluminiummisc
0  17.383736 94.653992 8.684988  -0.993058 0.008123 -0.117347  0.033204 0.987304 1 1 1.000000
0  17.328680 79.513748 8.161962  -0.993063 0.007827 -0.117320  0.357433 0.986328 1 1 1.000000
0  18.003109 79.417404 10.020081  -0.940699 -0.008272 0.339141  0.357433 0.990234 1 1 1.000000
aluminiummisc
0  18.003109 79.417404 10.020081  -0.940699 -0.008272 0.339141  0.357433 0.990234 1 1 1.000000
0  18.071926 94.557632 10.543107  -0.939256 -0.007843 0.343128  0.033204 0.992187 1 1 1.000000
0  17.383736 94.653992 8.684988  -0.993058 0.008123 -0.117347  0.033204 0.987304 1 1 1.000000
aluminiummisc
0  28.408577 94.557632 10.543106  0.939399 -0.008393 0.342724  0.033204 0.951170 1 1 1.000000
0  28.477398 79.417404 10.020080  0.940792 -0.007670 0.338897  0.357433 0.950194 1 1 1.000000
0  29.151825 79.513748 8.161961  0.993162 0.008075 -0.116466  0.357433 0.954100 1 1 1.000000
aluminiummisc
0  29.151825 79.513748 8.161961  0.993162 0.008075 -0.116466  0.357433 0.954100 1 1 1.000000
0  29.096769 94.653992 8.684987  0.993054 0.007857 -0.117396  0.033204 0.955077 1 1 1.000000
0  28.408577 94.557632 10.543106  0.939399 -0.008393 0.342724  0.033204 0.951170 1 1 1.000000
aluminiummisc
0  -19.090466 94.709045 6.152442  0.563382 0.031674 -0.825589  0.033204 0.980468 1 1 1.000000
0  -17.411274 94.653992 8.684990  0.992980 0.008152 -0.118003  0.033204 0.987304 1 1 1.000000
0  -17.356218 79.513748 8.161963  0.993122 0.007766 -0.116826  0.357433 0.986328 1 1 1.000000
aluminiummisc
0  -17.356218 79.513748 8.161963  0.993122 0.007766 -0.116826  0.357433 0.986328 1 1 1.000000
0  -19.049171 79.568802 5.601888  0.561999 0.031733 -0.826529  0.357433 0.979492 1 1 1.000000
0  -19.090466 94.709045 6.152442  0.563382 0.031674 -0.825589  0.033204 0.980468 1 1 1.000000
aluminiummisc
0  -29.124310 94.653992 8.684991  -0.993054 0.007858 -0.117395  0.033204 0.955077 1 1 1.000000
0  -27.445122 94.709045 6.152442  -0.562759 0.031716 -0.826013  0.033204 0.961913 1 1 1.000000
0  -27.486410 79.568802 5.601888  -0.561553 0.031773 -0.826830  0.357433 0.960936 1 1 1.000000
aluminiummisc
0  -27.486410 79.568802 5.601888  -0.561553 0.031773 -0.826830  0.357433 0.960936 1 1 1.000000
0  -29.179363 79.513748 8.161964  -0.993072 0.008082 -0.117232  0.357433 0.954100 1 1 1.000000
0  -29.124310 94.653992 8.684991  -0.993054 0.007858 -0.117395  0.033204 0.955077 1 1 1.000000
aluminiummisc
0  -18.099466 94.557632 10.543109  -0.008725 0.999298 0.036430  0.357433 0.997070 1 1 1.000000
0  -17.411274 94.653992 8.684990  -0.029109 0.998734 0.041014  0.358409 0.927732 1 1 1.000000
0  -19.090466 94.709045 6.152442  -0.004492 0.999321 0.036563  0.311533 0.878903 1 1 1.000000
aluminiummisc
0  -19.090466 94.709045 6.152442  -0.004337 0.999323 0.036532  0.311533 0.878903 1 1 1.000000
0  -23.274675 94.750336 5.271556  -0.000030 0.999209 0.039774  0.196295 0.853511 1 1 1.000000
0  -27.445122 94.709045 6.152442  0.004477 0.999321 0.036563  0.081057 0.878903 1 1 1.000000
aluminiummisc
0  -27.445122 94.709045 6.152442  0.004477 0.999321 0.036563  0.081057 0.878903 1 1 1.000000
0  -29.124310 94.653992 8.684991  0.029109 0.998734 0.041015  0.035157 0.927732 1 1 1.000000
0  -28.436115 94.557632 10.543110  0.008715 0.999298 0.036429  0.034181 0.997070 1 1 1.000000
aluminiummisc
0  -19.090466 94.709045 6.152442  -0.004337 0.999323 0.036532  0.311533 0.878903 1 1 1.000000
0  -27.445122 94.709045 6.152442  0.004477 0.999321 0.036563  0.081057 0.878903 1 1 1.000000
0  -28.436115 94.557632 10.543110  0.008715 0.999298 0.036429  0.034181 0.997070 1 1 1.000000
aluminiummisc
0  -18.099466 94.557632 10.543109  -0.008698 0.999299 0.036424  0.357433 0.997070 1 1 1.000000
0  -19.090466 94.709045 6.152442  -0.004337 0.999323 0.036532  0.311533 0.878903 1 1 1.000000
0  -28.436115 94.557632 10.543110  0.008715 0.999298 0.036429  0.034181 0.997070 1 1 1.000000
aluminiummisc
0  -27.445122 94.709045 6.152442  -0.562759 0.031716 -0.826013  0.033204 0.961913 1 1 1.000000
0  -23.274675 94.750336 5.271556  -0.000237 0.037110 -0.999311  0.033204 0.971679 1 1 1.000000
0  -23.274673 79.610100 4.707238  -0.000227 0.037111 -0.999311  0.357433 0.970702 1 1 1.000000
aluminiummisc
0  -23.274673 79.610100 4.707238  -0.000227 0.037111 -0.999311  0.357433 0.970702 1 1 1.000000
0  -27.486410 79.568802 5.601888  -0.561553 0.031773 -0.826830  0.357433 0.960936 1 1 1.000000
0  -27.445122 94.709045 6.152442  -0.562759 0.031716 -0.826013  0.033204 0.961913 1 1 1.000000
aluminiummisc
0  -23.274675 94.750336 5.271556  -0.000237 0.037110 -0.999311  0.033204 0.971679 1 1 1.000000
0  -19.090466 94.709045 6.152442  0.563382 0.031674 -0.825589  0.033204 0.980468 1 1 1.000000
0  -19.049171 79.568802 5.601888  0.561999 0.031733 -0.826529  0.357433 0.979492 1 1 1.000000
aluminiummisc
0  -19.049171 79.568802 5.601888  0.561999 0.031733 -0.826529  0.357433 0.979492 1 1 1.000000
0  -23.274673 79.610100 4.707238  -0.000227 0.037111 -0.999311  0.357433 0.970702 1 1 1.000000
0  -23.274675 94.750336 5.271556  -0.000237 0.037110 -0.999311  0.033204 0.971679 1 1 1.000000
aluminiummisc
0  -18.030647 79.417404 10.020082  0.940738 -0.008263 0.339034  0.357433 0.990234 1 1 1.000000
0  -17.356218 79.513748 8.161963  0.993122 0.007766 -0.116826  0.357433 0.986328 1 1 1.000000
0  -17.411274 94.653992 8.684990  0.992980 0.008152 -0.118003  0.033204 0.987304 1 1 1.000000
aluminiummisc
0  -17.411274 94.653992 8.684990  0.993015 0.008124 -0.117708  0.033204 0.987304 1 1 1.000000
0  -18.099466 94.557632 10.543109  0.939206 -0.007836 0.343264  0.033204 0.992187 1 1 1.000000
0  -18.030647 79.417404 10.020082  0.940735 -0.008272 0.339042  0.357433 0.990234 1 1 1.000000
aluminiummisc
0  -29.179363 79.513748 8.161964  -0.993105 0.008106 -0.116951  0.357433 0.954100 1 1 1.000000
0  -28.504936 79.417404 10.020083  -0.940857 -0.007686 0.338718  0.357433 0.950194 1 1 1.000000
0  -28.436115 94.557632 10.543110  -0.939429 -0.008353 0.342641  0.033204 0.951170 1 1 1.000000
aluminiummisc
0  -28.436115 94.557632 10.543110  -0.939396 -0.008357 0.342732  0.033204 0.951170 1 1 1.000000
0  -29.124310 94.653992 8.684991  -0.993054 0.007858 -0.117395  0.033204 0.955077 1 1 1.000000
0  -29.179363 79.513748 8.161964  -0.993072 0.008082 -0.117232  0.357433 0.954100 1 1 1.000000
aluminiummisc
0  -18.030647 79.417404 10.020082  -0.000000 -0.998659 -0.051778  0.357433 0.990234 1 1 1.000000
0  -28.504936 79.417404 10.020083  -0.000000 -0.998658 -0.051784  0.357433 0.950194 1 1 1.000000
0  -29.179363 79.513748 8.161964  -0.000000 -0.999268 -0.038266  0.357433 0.954100 1 1 1.000000
aluminiummisc
0  -29.179363 79.513748 8.161964  -0.000000 -0.999268 -0.038266  0.357433 0.954100 1 1 1.000000
0  -17.356218 79.513748 8.161963  -0.000000 -0.999268 -0.038264  0.357433 0.986328 1 1 1.000000
0  -18.030647 79.417404 10.020082  -0.000000 -0.998659 -0.051778  0.357433 0.990234 1 1 1.000000
aluminiummisc
0  28.477398 79.417404 10.020080  0.000000 -0.998659 -0.051780  0.357433 0.950194 1 1 1.000000
0  18.003109 79.417404 10.020081  0.000000 -0.998658 -0.051781  0.357433 0.990234 1 1 1.000000
0  17.328680 79.513748 8.161962  -0.000000 -0.999268 -0.038265  0.357433 0.986328 1 1 1.000000
aluminiummisc
0  17.328680 79.513748 8.161962  -0.000000 -0.999268 -0.038265  0.357433 0.986328 1 1 1.000000
0  29.151825 79.513748 8.161961  -0.000000 -0.999268 -0.038265  0.357433 0.954100 1 1 1.000000
0  28.477398 79.417404 10.020080  0.000000 -0.998659 -0.051780  0.357433 0.950194 1 1 1.000000
aluminiummisc
0  29.151825 79.513748 8.161961  -0.000000 -0.999268 -0.038265  0.357433 0.954100 1 1 1.000000
0  17.328680 79.513748 8.161962  -0.000000 -0.999268 -0.038265  0.357433 0.986328 1 1 1.000000
0  19.021633 79.568802 5.601885  0.000000 -0.999712 -0.024011  0.357433 0.979492 1 1 1.000000
aluminiummisc
0  19.021633 79.568802 5.601885  0.000000 -0.999712 -0.024011  0.357433 0.979492 1 1 1.000000
0  27.458872 79.568802 5.601884  -0.000000 -0.999720 -0.023682  0.357433 0.960936 1 1 1.000000
0  29.151825 79.513748 8.161961  -0.000000 -0.999268 -0.038265  0.357433 0.954100 1 1 1.000000
aluminiummisc
0  19.021633 79.568802 5.601885  0.000000 -0.999712 -0.024011  0.357433 0.979492 1 1 1.000000
0  23.247135 79.610100 4.707234  0.000000 -0.999209 -0.039775  0.357433 0.970702 1 1 1.000000
0  27.458872 79.568802 5.601884  -0.000000 -0.999720 -0.023682  0.357433 0.960936 1 1 1.000000
aluminiummisc
0  -27.486410 79.568802 5.601888  -0.000000 -0.999720 -0.023682  0.357433 0.960936 1 1 1.000000
0  -23.274673 79.610100 4.707238  0.000000 -0.999209 -0.039775  0.357433 0.970702 1 1 1.000000
0  -19.049171 79.568802 5.601888  0.000000 -0.999720 -0.023676  0.357433 0.979492 1 1 1.000000
aluminiummisc
0  -17.356218 79.513748 8.161963  -0.000000 -0.999268 -0.038264  0.357433 0.986328 1 1 1.000000
0  -29.179363 79.513748 8.161964  -0.000000 -0.999268 -0.038266  0.357433 0.954100 1 1 1.000000
0  -27.486410 79.568802 5.601888  -0.000000 -0.999720 -0.023682  0.357433 0.960936 1 1 1.000000
aluminiummisc
0  -27.486410 79.568802 5.601888  -0.000000 -0.999720 -0.023682  0.357433 0.960936 1 1 1.000000
0  -19.049171 79.568802 5.601888  0.000000 -0.999720 -0.023676  0.357433 0.979492 1 1 1.000000
0  -17.356218 79.513748 8.161963  -0.000000 -0.999268 -0.038264  0.357433 0.986328 1 1 1.000000
exhaust
0  27.087250 94.887970 7.363657  0.000000 1.000000 0.000000  0.654317 0.334941 1 1 1.000000
0  26.096251 94.887970 6.950742  0.000000 1.000000 0.000000  0.582049 0.307596 1 1 1.000000
0  25.105253 94.887970 7.363657  0.000000 1.000000 0.000000  0.509781 0.334941 1 1 1.000000
exhaust
0  25.105253 94.887970 7.363657  0.000000 1.000000 0.000000  0.509781 0.334941 1 1 1.000000
0  24.692341 94.887970 8.354654  0.000000 1.000000 0.000000  0.479507 0.402326 1 1 1.000000
0  25.105253 94.887970 9.345652  0.000000 1.000000 0.000000  0.509781 0.468734 1 1 1.000000
exhaust
0  25.105253 94.887970 9.345652  0.000000 1.000000 0.000000  0.509781 0.468734 1 1 1.000000
0  26.096251 94.887970 9.758567  0.000000 1.000000 0.000000  0.582049 0.497055 1 1 1.000000
0  27.087250 94.887970 9.345652  0.000000 1.000000 0.000000  0.654317 0.468734 1 1 1.000000
exhaust
0  25.105253 94.887970 7.363657  0.000000 1.000000 0.000000  0.509781 0.334941 1 1 1.000000
0  25.105253 94.887970 9.345652  0.000000 1.000000 0.000000  0.509781 0.468734 1 1 1.000000
0  27.087250 94.887970 9.345652  0.000000 1.000000 0.000000  0.654317 0.468734 1 1 1.000000
exhaust
0  27.087250 94.887970 7.363657  0.000000 1.000000 0.000000  0.654317 0.334941 1 1 1.000000
0  25.105253 94.887970 7.363657  0.000000 1.000000 0.000000  0.509781 0.334941 1 1 1.000000
0  27.087250 94.887970 9.345652  0.000000 1.000000 0.000000  0.654317 0.468734 1 1 1.000000
exhaust
0  27.087250 94.887970 7.363657  0.000000 1.000000 0.000000  0.654317 0.334941 1 1 1.000000
0  27.087250 94.887970 9.345652  0.000000 1.000000 0.000000  0.654317 0.468734 1 1 1.000000
0  27.500162 94.887970 8.354654  0.000000 1.000000 0.000000  0.684591 0.402326 1 1 1.000000
exhaust
0  -27.114788 94.887970 7.363661  0.000000 1.000000 0.000000  0.654317 0.334941 1 1 1.000000
0  -27.527700 94.887970 8.354658  0.000000 1.000000 0.000000  0.684591 0.402326 1 1 1.000000
0  -27.114788 94.887970 9.345655  0.000000 1.000000 0.000000  0.654317 0.468734 1 1 1.000000
exhaust
0  -27.114788 94.887970 9.345655  0.000000 1.000000 0.000000  0.654317 0.468734 1 1 1.000000
0  -26.123791 94.887970 9.758571  0.000000 1.000000 0.000000  0.582049 0.497055 1 1 1.000000
0  -25.132795 94.887970 9.345655  0.000000 1.000000 0.000000  0.509781 0.468734 1 1 1.000000
exhaust
0  -25.132795 94.887970 9.345655  0.000000 1.000000 0.000000  0.509781 0.468734 1 1 1.000000
0  -24.719879 94.887970 8.354658  0.000000 1.000000 0.000000  0.479507 0.402326 1 1 1.000000
0  -25.132795 94.887970 7.363661  0.000000 1.000000 0.000000  0.509781 0.334941 1 1 1.000000
exhaust
0  -27.114788 94.887970 9.345655  0.000000 1.000000 0.000000  0.654317 0.468734 1 1 1.000000
0  -25.132795 94.887970 9.345655  0.000000 1.000000 0.000000  0.509781 0.468734 1 1 1.000000
0  -25.132795 94.887970 7.363661  0.000000 1.000000 0.000000  0.509781 0.334941 1 1 1.000000
exhaust
0  -27.114788 94.887970 7.363661  0.000000 1.000000 0.000000  0.654317 0.334941 1 1 1.000000
0  -27.114788 94.887970 9.345655  0.000000 1.000000 0.000000  0.654317 0.468734 1 1 1.000000
0  -25.132795 94.887970 7.363661  0.000000 1.000000 0.000000  0.509781 0.334941 1 1 1.000000
exhaust
0  -27.114788 94.887970 7.363661  0.000000 1.000000 0.000000  0.654317 0.334941 1 1 1.000000
0  -25.132795 94.887970 7.363661  0.000000 1.000000 0.000000  0.509781 0.334941 1 1 1.000000
0  -26.123791 94.887970 6.950746  0.000000 1.000000 0.000000  0.582049 0.307596 1 1 1.000000
end
