version 1
nodes
0 "blender_implicit" -1
1 "root" -1
2 "steering_wheel" 1
end
skeleton
time 0
0  0.000000 0.000000 0.000000  0.000000 -0.000000 0.000000
1  0.000000 0.000000 0.000000  1.570796 -0.000000 0.000000
2  19.104225 25.848501 19.062937  0.000000 -0.000000 0.000000
end
triangles
skin_0
0  -40.644638 -24.940098 29.619804  -0.625235 0.709812 0.324419  0.769555 0.700186 1 1 1.000000
0  -40.644638 -24.774931 29.151834  -0.855725 0.507618 0.100287  0.603534 0.652333 1 1 1.000000
0  -40.809811 -25.063971 29.234419  -0.788782 0.526367 -0.317429  0.769555 0.701163 1 1 1.000000
skin_0
0  -38.373608 -20.164042 27.513935  -0.252875 0.909117 0.330999  0.311533 0.538072 1 1 1.000000
0  -38.442425 -20.301680 27.816742  -0.082777 0.832594 0.547664  0.310556 0.539048 1 1 1.000000
0  -38.112091 -20.838472 28.036963  0.807769 0.281113 0.518155  0.312510 0.541002 1 1 1.000000
skin_0
0  -38.112091 -20.838472 28.036963  0.807769 0.281113 0.518155  0.312510 0.541002 1 1 1.000000
0  -38.070801 -20.673306 27.720396  0.888088 0.348049 0.300270  0.313486 0.540025 1 1 1.000000
0  -38.373608 -20.164042 27.513935  -0.252875 0.909117 0.330999  0.311533 0.538072 1 1 1.000000
skin_0
0  -39.749989 -21.678064 26.729399  -0.885285 0.463794 -0.034152  0.244148 0.534166 1 1 1.000000
0  -39.584827 -21.512899 26.509176  -0.821408 0.541242 -0.179851  0.245125 0.533189 1 1 1.000000
0  -39.873863 -22.503897 26.178846  -0.819614 0.317474 -0.476909  0.239265 0.532212 1 1 1.000000
skin_0
0  -39.584827 -21.512899 26.509176  -0.821408 0.541242 -0.179851  0.245125 0.533189 1 1 1.000000
0  -39.749989 -21.678064 26.729399  -0.885285 0.463794 -0.034152  0.244148 0.534166 1 1 1.000000
0  -39.103088 -20.838472 27.279953  -0.769300 0.614525 0.174747  0.249031 0.537095 1 1 1.000000
skin_0
0  -39.103088 -20.838472 27.279953  -0.769300 0.614525 0.174747  0.249031 0.537095 1 1 1.000000
0  -38.992977 -20.728359 27.004675  -0.731701 0.681587 0.007261  0.249031 0.536119 1 1 1.000000
0  -39.584827 -21.512899 26.509176  -0.821408 0.541242 -0.179851  0.245125 0.533189 1 1 1.000000
skin_0
0  -38.442425 -20.301680 27.816742  -0.082777 0.832594 0.547664  0.251961 0.539048 1 1 1.000000
0  -38.373608 -20.164042 27.513935  -0.252875 0.909117 0.330999  0.251961 0.538072 1 1 1.000000
0  -38.992977 -20.728359 27.004675  -0.731701 0.681587 0.007261  0.249031 0.536119 1 1 1.000000
skin_0
0  -38.992977 -20.728359 27.004675  -0.731701 0.681587 0.007261  0.249031 0.536119 1 1 1.000000
0  -39.103088 -20.838472 27.279953  -0.769300 0.614525 0.174747  0.249031 0.537095 1 1 1.000000
0  -38.442425 -20.301680 27.816742  -0.082777 0.832594 0.547664  0.251961 0.539048 1 1 1.000000
skin_0
0  -39.364605 -23.494894 30.252945  -0.189805 0.631096 0.752125  0.238289 0.549791 1 1 1.000000
0  -38.442425 -20.301680 27.816742  -0.082777 0.832594 0.547664  0.251961 0.539048 1 1 1.000000
0  -39.103088 -20.838472 27.279953  -0.769300 0.614525 0.174747  0.249031 0.537095 1 1 1.000000
skin_0
0  -39.103088 -20.838472 27.279953  -0.769300 0.614525 0.174747  0.249031 0.537095 1 1 1.000000
0  -40.066559 -24.059210 29.716154  -0.803194 0.493033 0.334361  0.234382 0.547838 1 1 1.000000
0  -39.364605 -23.494894 30.252945  -0.189805 0.631096 0.752125  0.238289 0.549791 1 1 1.000000
skin_0
0  -40.066559 -24.059210 29.716154  -0.803194 0.493033 0.334361  0.234382 0.547838 1 1 1.000000
0  -39.103088 -20.838472 27.279953  -0.769300 0.614525 0.174747  0.249031 0.537095 1 1 1.000000
0  -39.749989 -21.678064 26.729399  -0.885285 0.463794 -0.034152  0.244148 0.534166 1 1 1.000000
skin_0
0  -39.749989 -21.678064 26.729399  -0.885285 0.463794 -0.034152  0.244148 0.534166 1 1 1.000000
0  -40.644638 -24.774931 29.151834  -0.919904 0.370580 0.128248  0.310556 0.568346 1 1 1.000000
0  -40.066559 -24.059210 29.716154  -0.803194 0.493033 0.334361  0.234382 0.547838 1 1 1.000000
skin_0
0  -40.644638 -24.774931 29.151834  -0.919904 0.370580 0.128248  0.310556 0.568346 1 1 1.000000
0  -39.749989 -21.678064 26.729399  -0.885285 0.463794 -0.034152  0.244148 0.534166 1 1 1.000000
0  -40.066559 -22.696590 26.371536  -0.916579 0.223334 -0.331671  0.238289 0.533189 1 1 1.000000
skin_0
0  -39.873863 -22.503897 26.178846  -0.819614 0.317474 -0.476909  0.239265 0.532212 1 1 1.000000
0  -40.066559 -22.696590 26.371536  -0.916579 0.223334 -0.331671  0.238289 0.533189 1 1 1.000000
0  -39.749989 -21.678064 26.729399  -0.885285 0.463794 -0.034152  0.244148 0.534166 1 1 1.000000
skin_0
0  -40.066559 -22.696590 26.371536  -0.916579 0.223334 -0.331671  0.238289 0.533189 1 1 1.000000
0  -39.873863 -22.503897 26.178846  -0.819614 0.317474 -0.476909  0.239265 0.532212 1 1 1.000000
0  -39.956448 -23.880281 25.999912  -0.916785 -0.107826 -0.384549  0.234382 0.531236 1 1 1.000000
skin_0
0  -39.956448 -23.880281 25.999912  -0.916785 -0.107826 -0.384549  0.234382 0.531236 1 1 1.000000
0  -40.011501 -24.141794 26.206373  -0.781544 -0.266111 -0.564246  0.232429 0.532212 1 1 1.000000
0  -40.066559 -22.696590 26.371536  -0.916579 0.223334 -0.331671  0.238289 0.533189 1 1 1.000000
skin_0
0  -40.919918 -25.600763 28.615046  -0.967906 0.086983 -0.235780  0.268563 0.554674 1 1 1.000000
0  -40.066559 -22.696590 26.371536  -0.916579 0.223334 -0.331671  0.238289 0.533189 1 1 1.000000
0  -40.011501 -24.141794 26.206373  -0.781544 -0.266111 -0.564246  0.232429 0.532212 1 1 1.000000
skin_0
0  -40.011501 -24.141794 26.206373  -0.781544 -0.266111 -0.564246  0.232429 0.532212 1 1 1.000000
0  -40.672165 -26.619286 28.174603  -0.620666 -0.407641 -0.669778  0.222663 0.540025 1 1 1.000000
0  -40.919918 -25.600763 28.615046  -0.967906 0.086983 -0.235780  0.268563 0.554674 1 1 1.000000
skin_0
0  -40.066559 -22.696590 26.371536  -0.916579 0.223334 -0.331671  0.238289 0.533189 1 1 1.000000
0  -40.919918 -25.600763 28.615046  -0.967906 0.086983 -0.235780  0.268563 0.554674 1 1 1.000000
0  -40.644638 -24.774931 29.151834  -0.919904 0.370580 0.128248  0.310556 0.568346 1 1 1.000000
skin_0
0  -40.919918 -25.435596 29.358295  -0.810726 0.141396 -0.568094  0.227546 0.700186 1 1 1.000000
0  -41.332832 -26.577995 29.495932  -0.679460 -0.098446 -0.727079  0.221686 0.701163 1 1 1.000000
0  -41.594345 -26.481649 29.606041  -0.308380 -0.148227 -0.939644  0.221686 0.701163 1 1 1.000000
skin_0
0  -42.860619 -25.972385 29.798738  -0.211461 -0.162782 -0.963736  0.224616 0.709952 1 1 1.000000
0  -43.025787 -28.270948 30.541981  -0.319504 -0.440044 -0.839213  0.214850 0.710929 1 1 1.000000
0  -44.938961 -27.279953 30.748442  -0.333809 -0.432836 -0.837391  0.219733 0.719718 1 1 1.000000
skin_0
0  -43.025787 -28.270948 30.541981  -0.319504 -0.440044 -0.839213  0.214850 0.710929 1 1 1.000000
0  -42.860619 -25.972385 29.798738  -0.211461 -0.162782 -0.963736  0.224616 0.709952 1 1 1.000000
0  -41.594345 -26.481649 29.606041  -0.308380 -0.148227 -0.939644  0.221686 0.701163 1 1 1.000000
skin_0
0  -41.594345 -26.481649 29.606041  -0.308380 -0.148227 -0.939644  0.221686 0.701163 1 1 1.000000
0  -41.484234 -28.945377 30.307999  -0.327625 -0.508758 -0.796133  0.210944 0.703116 1 1 1.000000
0  -43.025787 -28.270948 30.541981  -0.319504 -0.440044 -0.839213  0.214850 0.710929 1 1 1.000000
skin_0
0  -41.484234 -28.945377 30.307999  -0.327625 -0.508758 -0.796133  0.210944 0.703116 1 1 1.000000
0  -41.594345 -26.481649 29.606041  -0.308380 -0.148227 -0.939644  0.221686 0.701163 1 1 1.000000
0  -41.332832 -26.577995 29.495932  -0.679460 -0.098446 -0.727079  0.221686 0.701163 1 1 1.000000
skin_0
0  -41.332832 -26.577995 29.495932  -0.679460 -0.098446 -0.727079  0.221686 0.701163 1 1 1.000000
0  -41.319069 -28.546225 29.977665  -0.576881 -0.389206 -0.718141  0.215827 0.702139 1 1 1.000000
0  -41.484234 -28.945377 30.307999  -0.327625 -0.508758 -0.796133  0.210944 0.703116 1 1 1.000000
skin_0
0  -40.658401 -29.193125 30.239182  0.214401 -0.710038 -0.670729  0.208991 0.699210 1 1 1.000000
0  -41.360363 -31.065008 32.124828  0.056661 -0.970086 -0.236056  0.200201 0.702139 1 1 1.000000
0  -42.062317 -30.817261 32.124828  -0.374906 -0.866794 -0.328804  0.201178 0.706046 1 1 1.000000
skin_0
0  -42.062317 -30.817261 32.124828  -0.374906 -0.866794 -0.328804  0.201178 0.706046 1 1 1.000000
0  -41.484234 -28.945377 30.307999  -0.327625 -0.508758 -0.796133  0.210944 0.703116 1 1 1.000000
0  -40.658401 -29.193125 30.239182  0.214401 -0.710038 -0.670729  0.208991 0.699210 1 1 1.000000
skin_0
0  -41.484234 -28.945377 30.307999  -0.327625 -0.508758 -0.796133  0.210944 0.703116 1 1 1.000000
0  -42.062317 -30.817261 32.124828  -0.374906 -0.866794 -0.328804  0.201178 0.706046 1 1 1.000000
0  -43.273537 -30.225418 32.221172  -0.469273 -0.815607 -0.338479  0.204108 0.711905 1 1 1.000000
skin_0
0  -43.273537 -30.225418 32.221172  -0.469273 -0.815607 -0.338479  0.204108 0.711905 1 1 1.000000
0  -43.025787 -28.270948 30.541981  -0.319504 -0.440044 -0.839213  0.214850 0.710929 1 1 1.000000
0  -41.484234 -28.945377 30.307999  -0.327625 -0.508758 -0.796133  0.210944 0.703116 1 1 1.000000
skin_0
0  -43.025787 -28.270948 30.541981  -0.319504 -0.440044 -0.839213  0.214850 0.710929 1 1 1.000000
0  -43.273537 -30.225418 32.221172  -0.469273 -0.815607 -0.338479  0.204108 0.711905 1 1 1.000000
0  -44.994019 -29.179361 32.289989  -0.524123 -0.782602 -0.335901  0.208991 0.720695 1 1 1.000000
skin_0
0  -44.994019 -29.179361 32.289989  -0.524123 -0.782602 -0.335901  0.208991 0.720695 1 1 1.000000
0  -44.938961 -27.279953 30.748442  -0.333809 -0.432836 -0.837391  0.219733 0.719718 1 1 1.000000
0  -43.025787 -28.270948 30.541981  -0.319504 -0.440044 -0.839213  0.214850 0.710929 1 1 1.000000
skin_0
0  -44.938961 -27.279953 30.748442  -0.333809 -0.432836 -0.837391  0.219733 0.719718 1 1 1.000000
0  -44.994019 -29.179361 32.289989  -0.524123 -0.782602 -0.335901  0.208991 0.720695 1 1 1.000000
0  -46.631916 -28.009436 32.331287  -0.624234 -0.723207 -0.295471  0.214850 0.728507 1 1 1.000000
skin_0
0  -46.631916 -28.009436 32.331287  -0.624234 -0.723207 -0.295471  0.214850 0.728507 1 1 1.000000
0  -46.783321 -26.275190 30.982426  -0.432373 -0.425885 -0.794780  0.224616 0.728507 1 1 1.000000
0  -44.938961 -27.279953 30.748442  -0.333809 -0.432836 -0.837391  0.219733 0.719718 1 1 1.000000
skin_0
0  -41.319069 -28.546225 29.977665  -0.576881 -0.389206 -0.718141  0.216803 0.701163 1 1 1.000000
0  -40.672165 -26.619286 28.174603  -0.715611 -0.337516 -0.611543  0.222663 0.699210 1 1 1.000000
0  -39.956448 -26.922092 28.160839  0.182397 -0.696934 -0.693551  0.220710 0.695303 1 1 1.000000
skin_0
0  -39.956448 -26.922092 28.160839  0.182397 -0.696934 -0.693551  0.220710 0.695303 1 1 1.000000
0  -40.658401 -29.193125 30.239182  0.214401 -0.710038 -0.670729  0.208991 0.699210 1 1 1.000000
0  -41.319069 -28.546225 29.977665  -0.576881 -0.389206 -0.718141  0.216803 0.701163 1 1 1.000000
skin_0
0  -40.658401 -29.193125 30.239182  0.214401 -0.710038 -0.670729  0.208991 0.699210 1 1 1.000000
0  -41.484234 -28.945377 30.307999  -0.327625 -0.508758 -0.796133  0.210944 0.703116 1 1 1.000000
0  -41.319069 -28.546225 29.977665  -0.576881 -0.389206 -0.718141  0.216803 0.701163 1 1 1.000000
skin_0
0  -41.181431 -25.325487 29.482168  -0.325898 -0.111408 -0.938818  0.227546 0.701163 1 1 1.000000
0  -41.594345 -26.481649 29.606041  -0.308380 -0.148227 -0.939644  0.221686 0.701163 1 1 1.000000
0  -42.860619 -25.972385 29.798738  -0.211461 -0.162782 -0.963736  0.224616 0.709952 1 1 1.000000
skin_0
0  -41.594345 -26.481649 29.606041  -0.308380 -0.148227 -0.939644  0.221686 0.701163 1 1 1.000000
0  -41.181431 -25.325487 29.482168  -0.325898 -0.111408 -0.938818  0.227546 0.701163 1 1 1.000000
0  -40.919918 -25.435596 29.358295  -0.810726 0.141396 -0.568094  0.227546 0.700186 1 1 1.000000
skin_0
0  -40.809811 -25.063971 29.234419  -0.788782 0.526367 -0.317429  0.229499 0.699210 1 1 1.000000
0  -40.919918 -25.435596 29.358295  -0.810726 0.141396 -0.568094  0.227546 0.700186 1 1 1.000000
0  -41.181431 -25.325487 29.482168  -0.325898 -0.111408 -0.938818  0.227546 0.701163 1 1 1.000000
skin_0
0  -41.181431 -25.325487 29.482168  -0.325898 -0.111408 -0.938818  0.227546 0.701163 1 1 1.000000
0  -41.071320 -25.050207 29.372059  -0.247601 0.392543 -0.885779  0.229499 0.700186 1 1 1.000000
0  -40.809811 -25.063971 29.234419  -0.788782 0.526367 -0.317429  0.229499 0.699210 1 1 1.000000
skin_0
0  -42.736744 -24.417072 29.564751  0.018245 0.380967 -0.924409  0.231452 0.708975 1 1 1.000000
0  -41.071320 -25.050207 29.372059  -0.247601 0.392543 -0.885779  0.229499 0.700186 1 1 1.000000
0  -41.181431 -25.325487 29.482168  -0.325898 -0.111408 -0.938818  0.227546 0.701163 1 1 1.000000
skin_0
0  -41.181431 -25.325487 29.482168  -0.325898 -0.111408 -0.938818  0.227546 0.701163 1 1 1.000000
0  -42.764271 -24.816223 29.729918  -0.213149 -0.198671 -0.956607  0.229499 0.708975 1 1 1.000000
0  -42.736744 -24.417072 29.564751  0.018245 0.380967 -0.924409  0.231452 0.708975 1 1 1.000000
skin_0
0  -44.883907 -23.632530 29.881319  -0.005174 0.351479 -0.936181  0.235359 0.719718 1 1 1.000000
0  -42.736744 -24.417072 29.564751  0.018245 0.380967 -0.924409  0.231452 0.708975 1 1 1.000000
0  -42.764271 -24.816223 29.729918  -0.213149 -0.198671 -0.956607  0.229499 0.708975 1 1 1.000000
skin_0
0  -42.764271 -24.816223 29.729918  -0.213149 -0.198671 -0.956607  0.229499 0.708975 1 1 1.000000
0  -44.897671 -24.017918 30.032721  -0.218861 -0.217135 -0.951290  0.233406 0.719718 1 1 1.000000
0  -44.883907 -23.632530 29.881319  -0.005174 0.351479 -0.936181  0.235359 0.719718 1 1 1.000000
skin_0
0  -46.852139 -22.903048 30.156595  -0.131585 0.359265 -0.923912  0.239265 0.729484 1 1 1.000000
0  -44.883907 -23.632530 29.881319  -0.005174 0.351479 -0.936181  0.235359 0.719718 1 1 1.000000
0  -44.897671 -24.017918 30.032721  -0.218861 -0.217135 -0.951290  0.233406 0.719718 1 1 1.000000
skin_0
0  -44.897671 -24.017918 30.032721  -0.218861 -0.217135 -0.951290  0.233406 0.719718 1 1 1.000000
0  -46.824612 -23.315964 30.321762  -0.329395 -0.206744 -0.921279  0.237312 0.729484 1 1 1.000000
0  -46.852139 -22.903048 30.156595  -0.131585 0.359265 -0.923912  0.239265 0.729484 1 1 1.000000
skin_0
0  -46.852139 -22.903048 30.156595  -0.131585 0.359265 -0.923912  0.239265 0.729484 1 1 1.000000
0  -46.824612 -23.315964 30.321762  -0.329395 -0.206744 -0.921279  0.237312 0.729484 1 1 1.000000
0  -48.311104 -22.696590 30.899845  -0.651908 -0.139224 -0.745408  0.240242 0.736320 1 1 1.000000
skin_0
0  -48.324867 -23.508657 30.968662  -0.653497 -0.136283 -0.744559  0.237312 0.736320 1 1 1.000000
0  -48.311104 -22.696590 30.899845  -0.651908 -0.139224 -0.745408  0.240242 0.736320 1 1 1.000000
0  -46.824612 -23.315964 30.321762  -0.329395 -0.206744 -0.921279  0.237312 0.729484 1 1 1.000000
skin_0
0  -46.824612 -23.315964 30.321762  -0.329395 -0.206744 -0.921279  0.237312 0.729484 1 1 1.000000
0  -46.852139 -24.279434 30.376818  -0.322534 -0.166709 -0.931762  0.233406 0.729484 1 1 1.000000
0  -48.324867 -23.508657 30.968662  -0.653497 -0.136283 -0.744559  0.237312 0.736320 1 1 1.000000
skin_0
0  -48.200996 -25.242903 31.409105  -0.693915 -0.342075 -0.633613  0.230476 0.736320 1 1 1.000000
0  -48.324867 -23.508657 30.968662  -0.653497 -0.136283 -0.744559  0.237312 0.736320 1 1 1.000000
0  -46.852139 -24.279434 30.376818  -0.322534 -0.166709 -0.931762  0.233406 0.729484 1 1 1.000000
skin_0
0  -46.852139 -24.279434 30.376818  -0.322534 -0.166709 -0.931762  0.233406 0.729484 1 1 1.000000
0  -46.783321 -26.275190 30.982426  -0.432373 -0.425885 -0.794780  0.224616 0.728507 1 1 1.000000
0  -48.200996 -25.242903 31.409105  -0.693915 -0.342075 -0.633613  0.230476 0.736320 1 1 1.000000
skin_0
0  -46.783321 -26.275190 30.982426  -0.432373 -0.425885 -0.794780  0.224616 0.728507 1 1 1.000000
0  -46.852139 -24.279434 30.376818  -0.322534 -0.166709 -0.931762  0.233406 0.729484 1 1 1.000000
0  -44.911434 -25.105263 30.115305  -0.213291 -0.170701 -0.961960  0.228523 0.719718 1 1 1.000000
skin_0
0  -44.911434 -25.105263 30.115305  -0.213291 -0.170701 -0.961960  0.228523 0.719718 1 1 1.000000
0  -44.938961 -27.279953 30.748442  -0.333809 -0.432836 -0.837391  0.219733 0.719718 1 1 1.000000
0  -46.783321 -26.275190 30.982426  -0.432373 -0.425885 -0.794780  0.224616 0.728507 1 1 1.000000
skin_0
0  -44.938961 -27.279953 30.748442  -0.333809 -0.432836 -0.837391  0.219733 0.719718 1 1 1.000000
0  -44.911434 -25.105263 30.115305  -0.213291 -0.170701 -0.961960  0.228523 0.719718 1 1 1.000000
0  -42.860619 -25.972385 29.798738  -0.211461 -0.162782 -0.963736  0.224616 0.709952 1 1 1.000000
skin_0
0  -42.860619 -25.972385 29.798738  -0.211461 -0.162782 -0.963736  0.224616 0.709952 1 1 1.000000
0  -42.764271 -24.816223 29.729918  -0.213149 -0.198671 -0.956607  0.229499 0.708975 1 1 1.000000
0  -41.181431 -25.325487 29.482168  -0.325898 -0.111408 -0.938818  0.227546 0.701163 1 1 1.000000
skin_0
0  -42.764271 -24.816223 29.729918  -0.213149 -0.198671 -0.956607  0.229499 0.708975 1 1 1.000000
0  -42.860619 -25.972385 29.798738  -0.211461 -0.162782 -0.963736  0.224616 0.709952 1 1 1.000000
0  -44.911434 -25.105263 30.115305  -0.213291 -0.170701 -0.961960  0.228523 0.719718 1 1 1.000000
skin_0
0  -44.911434 -25.105263 30.115305  -0.213291 -0.170701 -0.961960  0.228523 0.719718 1 1 1.000000
0  -44.897671 -24.017918 30.032721  -0.218861 -0.217135 -0.951290  0.233406 0.719718 1 1 1.000000
0  -42.764271 -24.816223 29.729918  -0.213149 -0.198671 -0.956607  0.229499 0.708975 1 1 1.000000
skin_0
0  -44.897671 -24.017918 30.032721  -0.218861 -0.217135 -0.951290  0.233406 0.719718 1 1 1.000000
0  -44.911434 -25.105263 30.115305  -0.213291 -0.170701 -0.961960  0.228523 0.719718 1 1 1.000000
0  -46.852139 -24.279434 30.376818  -0.322534 -0.166709 -0.931762  0.233406 0.729484 1 1 1.000000
skin_0
0  -46.852139 -24.279434 30.376818  -0.322534 -0.166709 -0.931762  0.233406 0.729484 1 1 1.000000
0  -46.824612 -23.315964 30.321762  -0.329395 -0.206744 -0.921279  0.237312 0.729484 1 1 1.000000
0  -44.897671 -24.017918 30.032721  -0.218861 -0.217135 -0.951290  0.233406 0.719718 1 1 1.000000
skin_0
0  -48.311104 -22.696590 30.899845  -0.651908 -0.139224 -0.745408  0.240242 0.736320 1 1 1.000000
0  -48.269814 -22.338732 30.789734  -0.410622 0.503084 -0.760458  0.241218 0.735343 1 1 1.000000
0  -46.852139 -22.903048 30.156595  -0.131585 0.359265 -0.923912  0.239265 0.729484 1 1 1.000000
skin_0
0  -38.538773 -23.756407 27.582756  0.972251 -0.218871 -0.082606  0.765648 0.538072 1 1 1.000000
0  -39.130615 -25.697109 29.124308  0.967288 -0.246342 0.060579  0.772485 0.544908 1 1 1.000000
0  -39.405895 -26.674343 28.532461  0.809864 -0.500312 -0.306280  0.777367 0.541978 1 1 1.000000
skin_0
0  -39.405895 -26.674343 28.532461  0.809864 -0.500312 -0.306280  0.777367 0.541978 1 1 1.000000
0  -39.006741 -25.063971 27.032202  0.814971 -0.479519 -0.325397  0.770531 0.537095 1 1 1.000000
0  -38.538773 -23.756407 27.582756  0.972251 -0.218871 -0.082606  0.765648 0.538072 1 1 1.000000
skin_0
0  -38.112091 -20.838472 28.036963  0.807769 0.281113 0.518155  0.751000 0.541002 1 1 1.000000
0  -39.034271 -23.742641 30.211649  0.837938 0.138719 0.527842  0.762719 0.549791 1 1 1.000000
0  -39.006741 -24.527184 29.798738  0.969352 -0.158904 0.187366  0.766625 0.547838 1 1 1.000000
skin_0
0  -39.006741 -24.527184 29.798738  0.969352 -0.158904 0.187366  0.766625 0.547838 1 1 1.000000
0  -38.249729 -22.077217 27.899326  0.990277 -0.129756 0.050149  0.756859 0.540025 1 1 1.000000
0  -38.112091 -20.838472 28.036963  0.807769 0.281113 0.518155  0.751000 0.541002 1 1 1.000000
skin_0
0  -38.249729 -22.077217 27.899326  0.990277 -0.129756 0.050149  0.756859 0.540025 1 1 1.000000
0  -39.006741 -24.527184 29.798738  0.969352 -0.158904 0.187366  0.766625 0.547838 1 1 1.000000
0  -39.130615 -25.697109 29.124308  0.967288 -0.246342 0.060579  0.772485 0.544908 1 1 1.000000
skin_0
0  -39.130615 -25.697109 29.124308  0.967288 -0.246342 0.060579  0.772485 0.544908 1 1 1.000000
0  -38.538773 -23.756407 27.582756  0.972251 -0.218871 -0.082606  0.765648 0.538072 1 1 1.000000
0  -38.249729 -22.077217 27.899326  0.990277 -0.129756 0.050149  0.756859 0.540025 1 1 1.000000
skin_0
0  -38.538773 -23.756407 27.582756  0.972251 -0.218871 -0.082606  0.765648 0.538072 1 1 1.000000
0  -38.373608 -22.696590 27.390062  0.984149 -0.166978 -0.059743  0.759789 0.538072 1 1 1.000000
0  -38.249729 -22.077217 27.899326  0.990277 -0.129756 0.050149  0.756859 0.540025 1 1 1.000000
skin_0
0  -38.373608 -22.696590 27.390062  0.984149 -0.166978 -0.059743  0.759789 0.538072 1 1 1.000000
0  -38.538773 -23.756407 27.582756  0.972251 -0.218871 -0.082606  0.765648 0.538072 1 1 1.000000
0  -39.006741 -25.063971 27.032202  0.814971 -0.479519 -0.325397  0.770531 0.537095 1 1 1.000000
skin_0
0  -39.006741 -25.063971 27.032202  0.814971 -0.479519 -0.325397  0.770531 0.537095 1 1 1.000000
0  -38.979214 -24.857513 26.811979  0.811823 -0.476460 -0.337533  0.769555 0.536119 1 1 1.000000
0  -38.373608 -22.696590 27.390062  0.984149 -0.166978 -0.059743  0.759789 0.538072 1 1 1.000000
skin_0
0  -38.979214 -24.857513 26.811979  0.811823 -0.476460 -0.337533  0.769555 0.536119 1 1 1.000000
0  -39.006741 -25.063971 27.032202  0.814971 -0.479519 -0.325397  0.770531 0.537095 1 1 1.000000
0  -39.543533 -25.132793 26.564232  0.066987 -0.651826 -0.755404  0.771508 0.534166 1 1 1.000000
skin_0
0  -39.543533 -25.132793 26.564232  0.066987 -0.651826 -0.755404  0.771508 0.534166 1 1 1.000000
0  -39.516006 -24.885040 26.344009  -0.253255 -0.626830 -0.736849  0.769555 0.533189 1 1 1.000000
0  -38.979214 -24.857513 26.811979  0.811823 -0.476460 -0.337533  0.769555 0.536119 1 1 1.000000
skin_0
0  -38.112091 -20.838472 28.036963  0.807769 0.281113 0.518155  0.751000 0.541002 1 1 1.000000
0  -38.249729 -22.077217 27.899326  0.990277 -0.129756 0.050149  0.756859 0.540025 1 1 1.000000
0  -38.373608 -22.696590 27.390062  0.984149 -0.166978 -0.059743  0.759789 0.538072 1 1 1.000000
skin_0
0  -38.373608 -22.696590 27.390062  0.984149 -0.166978 -0.059743  0.759789 0.538072 1 1 1.000000
0  -38.070801 -20.673306 27.720396  0.888088 0.348049 0.300270  0.750023 0.540025 1 1 1.000000
0  -38.112091 -20.838472 28.036963  0.807769 0.281113 0.518155  0.751000 0.541002 1 1 1.000000
skin_0
0  -39.364605 -23.494894 30.252945  -0.167162 0.666837 0.726213  0.762719 0.693350 1 1 1.000000
0  -39.763752 -24.774931 31.395342  -0.187125 0.785908 0.589350  0.768578 0.695303 1 1 1.000000
0  -39.474716 -24.898804 31.243940  0.839493 0.261961 0.476054  0.769555 0.693350 1 1 1.000000
skin_0
0  -39.474716 -24.898804 31.243940  0.839493 0.261961 0.476054  0.769555 0.693350 1 1 1.000000
0  -39.034271 -23.742641 30.211649  0.751910 0.257280 0.606991  0.764672 0.691397 1 1 1.000000
0  -39.364605 -23.494894 30.252945  -0.167162 0.666837 0.726213  0.762719 0.693350 1 1 1.000000
skin_0
0  -38.442425 -20.301680 27.816742  -0.082777 0.832594 0.547664  0.748070 0.689444 1 1 1.000000
0  -39.364605 -23.494894 30.252945  -0.189805 0.631096 0.752125  0.760765 0.692373 1 1 1.000000
0  -39.034271 -23.742641 30.211649  0.837938 0.138719 0.527842  0.762719 0.690420 1 1 1.000000
skin_0
0  -39.034271 -23.742641 30.211649  0.837938 0.138719 0.527842  0.762719 0.690420 1 1 1.000000
0  -38.112091 -20.838472 28.036963  0.807769 0.281113 0.518155  0.751000 0.687490 1 1 1.000000
0  -38.442425 -20.301680 27.816742  -0.082777 0.832594 0.547664  0.748070 0.689444 1 1 1.000000
skin_0
0  -39.956448 -26.922092 28.160839  0.195651 -0.683115 -0.703616  0.695334 0.540025 1 1 1.000000
0  -39.543533 -25.132793 26.564232  0.066987 -0.651826 -0.755404  0.693381 0.534166 1 1 1.000000
0  -39.006741 -25.063971 27.032202  0.814971 -0.479519 -0.325397  0.690451 0.537095 1 1 1.000000
skin_0
0  -39.006741 -25.063971 27.032202  0.814971 -0.479519 -0.325397  0.690451 0.537095 1 1 1.000000
0  -39.405895 -26.674343 28.532461  0.809864 -0.500312 -0.306280  0.692404 0.541978 1 1 1.000000
0  -39.956448 -26.922092 28.160839  0.195651 -0.683115 -0.703616  0.695334 0.540025 1 1 1.000000
skin_0
0  -39.543533 -25.132793 26.564232  0.066987 -0.651826 -0.755404  0.228523 0.693350 1 1 1.000000
0  -39.956448 -26.922092 28.160839  0.195651 -0.683115 -0.703616  0.221686 0.695303 1 1 1.000000
0  -40.672165 -26.619286 28.174603  -0.620666 -0.407641 -0.669778  0.223640 0.699210 1 1 1.000000
skin_0
0  -40.672165 -26.619286 28.174603  -0.620666 -0.407641 -0.669778  0.223640 0.699210 1 1 1.000000
0  -40.011501 -24.141794 26.206373  -0.781544 -0.266111 -0.564246  0.232429 0.696280 1 1 1.000000
0  -39.543533 -25.132793 26.564232  0.066987 -0.651826 -0.755404  0.228523 0.693350 1 1 1.000000
skin_0
0  -39.516006 -24.885040 26.344009  -0.253255 -0.626830 -0.736849  0.229499 0.693350 1 1 1.000000
0  -39.543533 -25.132793 26.564232  0.066987 -0.651826 -0.755404  0.228523 0.693350 1 1 1.000000
0  -40.011501 -24.141794 26.206373  -0.781544 -0.266111 -0.564246  0.232429 0.696280 1 1 1.000000
skin_0
0  -40.011501 -24.141794 26.206373  -0.781544 -0.266111 -0.564246  0.232429 0.696280 1 1 1.000000
0  -39.956448 -23.880281 25.999912  -0.916785 -0.107826 -0.384549  0.234382 0.696280 1 1 1.000000
0  -39.516006 -24.885040 26.344009  -0.253255 -0.626830 -0.736849  0.229499 0.693350 1 1 1.000000
skin_0
0  -39.474716 -24.898804 31.243940  0.839493 0.261961 0.476054  0.769555 0.555650 1 1 1.000000
0  -39.006741 -24.527184 29.798738  0.965816 -0.120242 0.229655  0.767602 0.548814 1 1 1.000000
0  -39.034271 -23.742641 30.211649  0.751910 0.257280 0.606991  0.763695 0.550768 1 1 1.000000
skin_0
0  -39.474716 -24.898804 31.243940  0.839493 0.261961 0.476054  0.769555 0.555650 1 1 1.000000
0  -39.694935 -26.509176 31.932131  0.980234 -0.115995 0.160272  0.777367 0.559557 1 1 1.000000
0  -39.006741 -24.527184 29.798738  0.965816 -0.120242 0.229655  0.767602 0.548814 1 1 1.000000
skin_0
0  -39.006741 -24.527184 29.798738  0.965816 -0.120242 0.229655  0.767602 0.548814 1 1 1.000000
0  -39.694935 -26.509176 31.932131  0.980234 -0.115995 0.160272  0.777367 0.559557 1 1 1.000000
0  -39.777515 -27.775452 31.175121  0.973674 -0.209980 0.088701  0.784204 0.555650 1 1 1.000000
skin_0
0  -39.777515 -27.775452 31.175121  0.973674 -0.209980 0.088701  0.784204 0.555650 1 1 1.000000
0  -39.130615 -25.697109 29.124308  0.972283 -0.218412 0.083440  0.773461 0.544908 1 1 1.000000
0  -39.006741 -24.527184 29.798738  0.965816 -0.120242 0.229655  0.767602 0.548814 1 1 1.000000
skin_0
0  -40.025269 -28.766445 30.555750  0.852802 -0.477995 -0.210357  0.789087 0.552721 1 1 1.000000
0  -39.405895 -26.674343 28.532461  0.856852 -0.463797 -0.225162  0.777367 0.541978 1 1 1.000000
0  -39.130615 -25.697109 29.124308  0.972283 -0.218412 0.083440  0.773461 0.544908 1 1 1.000000
skin_0
0  -39.130615 -25.697109 29.124308  0.972283 -0.218412 0.083440  0.773461 0.544908 1 1 1.000000
0  -39.777515 -27.775452 31.175121  0.973674 -0.209980 0.088701  0.784204 0.555650 1 1 1.000000
0  -40.025269 -28.766445 30.555750  0.852802 -0.477995 -0.210357  0.789087 0.552721 1 1 1.000000
skin_0
0  -40.672165 -30.789734 32.400105  0.667421 -0.737510 0.103091  0.797876 0.561510 1 1 1.000000
0  -40.025269 -28.766445 30.555750  0.852802 -0.477995 -0.210357  0.789087 0.552721 1 1 1.000000
0  -39.777515 -27.775452 31.175121  0.973674 -0.209980 0.088701  0.784204 0.555650 1 1 1.000000
skin_0
0  -39.777515 -27.775452 31.175121  0.973674 -0.209980 0.088701  0.784204 0.555650 1 1 1.000000
0  -40.245491 -29.206888 33.294754  0.821090 -0.341247 0.457561  0.791040 0.565416 1 1 1.000000
0  -40.672165 -30.789734 32.400105  0.667421 -0.737510 0.103091  0.797876 0.561510 1 1 1.000000
skin_0
0  -40.245491 -29.206888 33.294754  0.821090 -0.341247 0.457561  0.791040 0.565416 1 1 1.000000
0  -39.777515 -27.775452 31.175121  0.973674 -0.209980 0.088701  0.784204 0.555650 1 1 1.000000
0  -39.694935 -26.509176 31.932131  0.980234 -0.115995 0.160272  0.777367 0.559557 1 1 1.000000
skin_0
0  -39.694935 -26.509176 31.932131  0.980234 -0.115995 0.160272  0.777367 0.559557 1 1 1.000000
0  -40.066559 -27.073496 33.914127  0.858909 -0.191527 0.474966  0.780297 0.568346 1 1 1.000000
0  -40.245491 -29.206888 33.294754  0.821090 -0.341247 0.457561  0.791040 0.565416 1 1 1.000000
skin_0
0  -40.066559 -27.073496 33.914127  0.858909 -0.191527 0.474966  0.780297 0.568346 1 1 1.000000
0  -39.694935 -26.509176 31.932131  0.980234 -0.115995 0.160272  0.777367 0.559557 1 1 1.000000
0  -39.694935 -25.765926 32.303753  0.982557 -0.003968 0.185920  0.774438 0.560533 1 1 1.000000
skin_0
0  -39.474716 -24.898804 31.243940  0.839493 0.261961 0.476054  0.769555 0.555650 1 1 1.000000
0  -39.694935 -25.765926 32.303753  0.982557 -0.003968 0.185920  0.774438 0.560533 1 1 1.000000
0  -39.694935 -26.509176 31.932131  0.980234 -0.115995 0.160272  0.777367 0.559557 1 1 1.000000
skin_0
0  -39.474716 -24.898804 31.243940  0.839493 0.261961 0.476054  0.769555 0.555650 1 1 1.000000
0  -39.763752 -25.504414 32.468922  0.765769 0.532225 0.361018  0.773461 0.561510 1 1 1.000000
0  -39.694935 -25.765926 32.303753  0.982557 -0.003968 0.185920  0.774438 0.560533 1 1 1.000000
skin_0
0  -40.052795 -25.999912 34.216934  0.838150 -0.051428 0.543011  0.775414 0.570299 1 1 1.000000
0  -39.694935 -25.765926 32.303753  0.982557 -0.003968 0.185920  0.774438 0.560533 1 1 1.000000
0  -39.763752 -25.504414 32.468922  0.765769 0.532225 0.361018  0.773461 0.561510 1 1 1.000000
skin_0
0  -39.763752 -25.504414 32.468922  0.765769 0.532225 0.361018  0.773461 0.561510 1 1 1.000000
0  -40.052795 -25.697109 34.203171  0.744126 0.516859 0.423241  0.774438 0.570299 1 1 1.000000
0  -40.052795 -25.999912 34.216934  0.838150 -0.051428 0.543011  0.775414 0.570299 1 1 1.000000
skin_0
0  -39.694935 -25.765926 32.303753  0.982557 -0.003968 0.185920  0.774438 0.560533 1 1 1.000000
0  -40.052795 -25.999912 34.216934  0.838150 -0.051428 0.543011  0.775414 0.570299 1 1 1.000000
0  -40.066559 -27.073496 33.914127  0.858909 -0.191527 0.474966  0.780297 0.568346 1 1 1.000000
skin_0
0  -40.658401 -29.193125 30.239182  0.214401 -0.710038 -0.670729  0.698264 0.550768 1 1 1.000000
0  -39.956448 -26.922092 28.160839  0.182397 -0.696934 -0.693551  0.695334 0.541002 1 1 1.000000
0  -39.405895 -26.674343 28.532461  0.856852 -0.463797 -0.225162  0.692404 0.542955 1 1 1.000000
skin_0
0  -39.405895 -26.674343 28.532461  0.856852 -0.463797 -0.225162  0.692404 0.542955 1 1 1.000000
0  -40.025269 -28.766445 30.555750  0.852802 -0.477995 -0.210357  0.695334 0.552721 1 1 1.000000
0  -40.658401 -29.193125 30.239182  0.214401 -0.710038 -0.670729  0.698264 0.550768 1 1 1.000000
skin_0
0  -41.360363 -31.065008 32.124828  0.056661 -0.970086 -0.236056  0.702170 0.560533 1 1 1.000000
0  -40.658401 -29.193125 30.239182  0.214401 -0.710038 -0.670729  0.698264 0.550768 1 1 1.000000
0  -40.025269 -28.766445 30.555750  0.852802 -0.477995 -0.210357  0.695334 0.552721 1 1 1.000000
skin_0
0  -40.025269 -28.766445 30.555750  0.852802 -0.477995 -0.210357  0.695334 0.552721 1 1 1.000000
0  -40.672165 -30.789734 32.400105  0.667421 -0.737510 0.103091  0.699240 0.561510 1 1 1.000000
0  -41.360363 -31.065008 32.124828  0.056661 -0.970086 -0.236056  0.702170 0.560533 1 1 1.000000
skin_0
0  -46.631916 -27.968145 32.565269  -0.592875 -0.664201 0.455341  0.727561 0.562487 1 1 1.000000
0  -46.631916 -28.009436 32.331287  -0.624234 -0.723207 -0.295471  0.727561 0.561510 1 1 1.000000
0  -44.994019 -29.179361 32.289989  -0.524123 -0.782602 -0.335901  0.719749 0.561510 1 1 1.000000
skin_0
0  -44.994019 -29.179361 32.289989  -0.524123 -0.782602 -0.335901  0.719749 0.561510 1 1 1.000000
0  -44.980255 -29.151834 32.537743  -0.472662 -0.745080 0.470581  0.719749 0.562487 1 1 1.000000
0  -46.631916 -27.968145 32.565269  -0.592875 -0.664201 0.455341  0.727561 0.562487 1 1 1.000000
skin_0
0  -44.980255 -29.151834 32.537743  -0.472662 -0.745080 0.470581  0.719749 0.562487 1 1 1.000000
0  -44.994019 -29.179361 32.289989  -0.524123 -0.782602 -0.335901  0.719749 0.561510 1 1 1.000000
0  -43.273537 -30.225418 32.221172  -0.469273 -0.815607 -0.338479  0.710959 0.561510 1 1 1.000000
skin_0
0  -43.273537 -30.225418 32.221172  -0.469273 -0.815607 -0.338479  0.710959 0.561510 1 1 1.000000
0  -43.259773 -30.197886 32.455158  -0.395324 -0.781703 0.482347  0.710959 0.562487 1 1 1.000000
0  -44.980255 -29.151834 32.537743  -0.472662 -0.745080 0.470581  0.719749 0.562487 1 1 1.000000
skin_0
0  -43.259773 -30.197886 32.455158  -0.395324 -0.781703 0.482347  0.710959 0.562487 1 1 1.000000
0  -43.273537 -30.225418 32.221172  -0.469273 -0.815607 -0.338479  0.710959 0.561510 1 1 1.000000
0  -42.062317 -30.817261 32.124828  -0.374906 -0.866794 -0.328804  0.705100 0.560533 1 1 1.000000
skin_0
0  -42.062317 -30.817261 32.124828  -0.374906 -0.866794 -0.328804  0.705100 0.560533 1 1 1.000000
0  -42.048553 -30.789734 32.386341  -0.317192 -0.802800 0.504878  0.705100 0.562487 1 1 1.000000
0  -43.259773 -30.197886 32.455158  -0.395324 -0.781703 0.482347  0.710959 0.562487 1 1 1.000000
skin_0
0  -42.048553 -30.789734 32.386341  -0.317192 -0.802800 0.504878  0.705100 0.562487 1 1 1.000000
0  -42.062317 -30.817261 32.124828  -0.374906 -0.866794 -0.328804  0.705100 0.560533 1 1 1.000000
0  -41.360363 -31.065008 32.124828  0.056661 -0.970086 -0.236056  0.702170 0.560533 1 1 1.000000
skin_0
0  -41.360363 -31.065008 32.124828  0.056661 -0.970086 -0.236056  0.702170 0.560533 1 1 1.000000
0  -41.442944 -30.954899 32.427631  -0.104441 -0.829276 0.548993  0.702170 0.562487 1 1 1.000000
0  -42.048553 -30.789734 32.386341  -0.317192 -0.802800 0.504878  0.705100 0.562487 1 1 1.000000
skin_0
0  -41.442944 -30.954899 32.427631  -0.104441 -0.829276 0.548993  0.702170 0.562487 1 1 1.000000
0  -41.360363 -31.065008 32.124828  0.056661 -0.970086 -0.236056  0.702170 0.560533 1 1 1.000000
0  -40.672165 -30.789734 32.400105  0.667421 -0.737510 0.103091  0.699240 0.561510 1 1 1.000000
skin_0
0  -40.672165 -30.789734 32.400105  0.667421 -0.737510 0.103091  0.699240 0.561510 1 1 1.000000
0  -41.030029 -30.762205 32.675381  0.146436 -0.712253 0.686478  0.700217 0.563463 1 1 1.000000
0  -41.442944 -30.954899 32.427631  -0.104441 -0.829276 0.548993  0.702170 0.562487 1 1 1.000000
skin_0
0  -40.919918 -25.600763 28.615046  -0.957323 0.172513 -0.231886  0.226569 0.542955 1 1 1.000000
0  -40.672165 -26.619286 28.174603  -0.715611 -0.337516 -0.611543  0.222663 0.541002 1 1 1.000000
0  -41.319069 -28.546225 29.977665  -0.576881 -0.389206 -0.718141  0.216803 0.545885 1 1 1.000000
skin_0
0  -41.319069 -28.546225 29.977665  -0.576881 -0.389206 -0.718141  0.216803 0.545885 1 1 1.000000
0  -41.332832 -26.577995 29.495932  -0.679460 -0.098446 -0.727079  0.221686 0.548814 1 1 1.000000
0  -40.919918 -25.600763 28.615046  -0.957323 0.172513 -0.231886  0.226569 0.542955 1 1 1.000000
skin_0
0  -41.332832 -26.577995 29.495932  -0.679460 -0.098446 -0.727079  0.221686 0.548814 1 1 1.000000
0  -40.919918 -25.435596 29.358295  -0.810726 0.141396 -0.568094  0.227546 0.546861 1 1 1.000000
0  -40.919918 -25.600763 28.615046  -0.957323 0.172513 -0.231886  0.226569 0.542955 1 1 1.000000
skin_0
0  -40.919918 -25.435596 29.358295  -0.810726 0.141396 -0.568094  0.227546 0.546861 1 1 1.000000
0  -40.809811 -25.063971 29.234419  -0.788782 0.526367 -0.317429  0.230476 0.545885 1 1 1.000000
0  -40.919918 -25.600763 28.615046  -0.957323 0.172513 -0.231886  0.226569 0.542955 1 1 1.000000
skin_0
0  -40.809811 -25.063971 29.234419  -0.788782 0.526367 -0.317429  0.230476 0.545885 1 1 1.000000
0  -40.644638 -24.774931 29.151834  -0.855725 0.507618 0.100287  0.230476 0.544908 1 1 1.000000
0  -40.919918 -25.600763 28.615046  -0.957323 0.172513 -0.231886  0.226569 0.542955 1 1 1.000000
skin_0
0  -46.631916 -28.009436 32.331287  -0.624234 -0.723207 -0.295471  0.214850 0.561510 1 1 1.000000
0  -46.631916 -27.968145 32.565269  -0.592875 -0.664201 0.455341  0.214850 0.562487 1 1 1.000000
0  -48.159698 -26.220137 32.510212  -0.803928 -0.471577 0.362373  0.224616 0.562487 1 1 1.000000
skin_0
0  -48.145935 -26.275190 32.276226  -0.806888 -0.538632 -0.242501  0.224616 0.561510 1 1 1.000000
0  -48.200996 -25.242903 31.409105  -0.693915 -0.342075 -0.633613  0.228523 0.556627 1 1 1.000000
0  -46.783321 -26.275190 30.982426  -0.432373 -0.425885 -0.794780  0.224616 0.554674 1 1 1.000000
skin_0
0  -46.783321 -26.275190 30.982426  -0.432373 -0.425885 -0.794780  0.224616 0.554674 1 1 1.000000
0  -46.631916 -28.009436 32.331287  -0.624234 -0.723207 -0.295471  0.214850 0.561510 1 1 1.000000
0  -48.145935 -26.275190 32.276226  -0.806888 -0.538632 -0.242501  0.224616 0.561510 1 1 1.000000
skin_0
0  -48.159698 -26.220137 32.510212  -0.803928 -0.471577 0.362373  0.224616 0.562487 1 1 1.000000
0  -48.145935 -26.275190 32.276226  -0.806888 -0.538632 -0.242501  0.224616 0.561510 1 1 1.000000
0  -46.631916 -28.009436 32.331287  -0.624234 -0.723207 -0.295471  0.214850 0.561510 1 1 1.000000
skin_0
0  -48.145935 -26.275190 32.276226  -0.806888 -0.538632 -0.242501  0.224616 0.561510 1 1 1.000000
0  -48.159698 -26.220137 32.510212  -0.803928 -0.471577 0.362373  0.224616 0.562487 1 1 1.000000
0  -48.820366 -24.334488 32.345051  -0.946468 -0.206502 0.248105  0.234382 0.561510 1 1 1.000000
skin_0
0  -48.820366 -24.334488 32.345051  -0.946468 -0.206502 0.248105  0.234382 0.561510 1 1 1.000000
0  -48.159698 -26.220137 32.510212  -0.803928 -0.471577 0.362373  0.224616 0.562487 1 1 1.000000
0  -48.173470 -25.119026 33.198410  -0.705259 -0.281242 0.650779  0.229499 0.564440 1 1 1.000000
skin_0
0  -48.820366 -24.334488 32.345051  -0.946468 -0.206502 0.248105  0.234382 0.561510 1 1 1.000000
0  -48.173470 -25.119026 33.198410  -0.705259 -0.281242 0.650779  0.229499 0.564440 1 1 1.000000
0  -48.173470 -23.536186 33.611320  -0.685156 -0.132865 0.716177  0.236335 0.566393 1 1 1.000000
skin_0
0  -48.173470 -23.536186 33.611320  -0.685156 -0.132865 0.716177  0.236335 0.566393 1 1 1.000000
0  -48.861660 -23.123268 32.634087  -0.904943 -0.088862 0.416150  0.239265 0.562487 1 1 1.000000
0  -48.820366 -24.334488 32.345051  -0.946468 -0.206502 0.248105  0.234382 0.561510 1 1 1.000000
skin_0
0  -48.861660 -23.123268 32.634087  -0.904943 -0.088862 0.416150  0.239265 0.562487 1 1 1.000000
0  -48.173470 -23.536186 33.611320  -0.685156 -0.132865 0.716177  0.236335 0.566393 1 1 1.000000
0  -48.173470 -22.806702 33.693905  -0.663930 -0.023003 0.747441  0.240242 0.568346 1 1 1.000000
skin_0
0  -48.173470 -22.806702 33.693905  -0.663930 -0.023003 0.747441  0.240242 0.568346 1 1 1.000000
0  -48.847897 -22.462605 32.744198  -0.887247 -0.048907 0.458695  0.241218 0.563463 1 1 1.000000
0  -48.861660 -23.123268 32.634087  -0.904943 -0.088862 0.416150  0.239265 0.562487 1 1 1.000000
skin_0
0  -48.999294 -23.026920 32.179882  -0.985737 -0.105101 0.131438  0.239265 0.560533 1 1 1.000000
0  -48.861660 -23.123268 32.634087  -0.904943 -0.088862 0.416150  0.239265 0.562487 1 1 1.000000
0  -48.847897 -22.462605 32.744198  -0.887247 -0.048907 0.458695  0.241218 0.563463 1 1 1.000000
skin_0
0  -48.847897 -22.462605 32.744198  -0.887247 -0.048907 0.458695  0.241218 0.563463 1 1 1.000000
0  -49.081882 -22.366259 32.097301  -0.990341 -0.028935 0.135598  0.242195 0.560533 1 1 1.000000
0  -48.999294 -23.026920 32.179882  -0.985737 -0.105101 0.131438  0.239265 0.560533 1 1 1.000000
skin_0
0  -48.985531 -23.026920 31.918367  -0.940774 -0.145339 -0.306302  0.239265 0.559557 1 1 1.000000
0  -48.999294 -23.026920 32.179882  -0.985737 -0.105101 0.131438  0.239265 0.560533 1 1 1.000000
0  -49.081882 -22.366259 32.097301  -0.990341 -0.028935 0.135598  0.242195 0.560533 1 1 1.000000
skin_0
0  -49.081882 -22.366259 32.097301  -0.990341 -0.028935 0.135598  0.242195 0.560533 1 1 1.000000
0  -49.068119 -22.366259 31.835785  -0.938247 -0.073189 -0.338137  0.242195 0.559557 1 1 1.000000
0  -48.985531 -23.026920 31.918367  -0.940774 -0.145339 -0.306302  0.239265 0.559557 1 1 1.000000
skin_0
0  -48.985531 -23.026920 31.918367  -0.940774 -0.145339 -0.306302  0.239265 0.559557 1 1 1.000000
0  -49.068119 -22.366259 31.835785  -0.938247 -0.073189 -0.338137  0.242195 0.559557 1 1 1.000000
0  -48.311104 -22.696590 30.899845  -0.651908 -0.139224 -0.745408  0.241218 0.555650 1 1 1.000000
skin_0
0  -48.269814 -22.338732 30.789734  -0.410622 0.503084 -0.760458  0.243171 0.555650 1 1 1.000000
0  -48.311104 -22.696590 30.899845  -0.651908 -0.139224 -0.745408  0.241218 0.555650 1 1 1.000000
0  -49.068119 -22.366259 31.835785  -0.938247 -0.073189 -0.338137  0.242195 0.559557 1 1 1.000000
skin_0
0  -49.068119 -22.366259 31.835785  -0.938247 -0.073189 -0.338137  0.242195 0.559557 1 1 1.000000
0  -49.054356 -22.063454 31.794495  -0.665385 0.680067 -0.307849  0.243171 0.558580 1 1 1.000000
0  -48.269814 -22.338732 30.789734  -0.410622 0.503084 -0.760458  0.243171 0.555650 1 1 1.000000
skin_0
0  -49.068119 -22.063454 32.069771  -0.681727 0.720397 0.127582  0.243171 0.560533 1 1 1.000000
0  -49.054356 -22.063454 31.794495  -0.665385 0.680067 -0.307849  0.243171 0.558580 1 1 1.000000
0  -49.068119 -22.366259 31.835785  -0.938247 -0.073189 -0.338137  0.242195 0.559557 1 1 1.000000
skin_0
0  -49.068119 -22.366259 31.835785  -0.938247 -0.073189 -0.338137  0.242195 0.559557 1 1 1.000000
0  -49.081882 -22.366259 32.097301  -0.990341 -0.028935 0.135598  0.242195 0.560533 1 1 1.000000
0  -49.068119 -22.063454 32.069771  -0.681727 0.720397 0.127582  0.243171 0.560533 1 1 1.000000
skin_0
0  -48.999294 -23.026920 32.179882  -0.985737 -0.105101 0.131438  0.239265 0.560533 1 1 1.000000
0  -48.820366 -24.334488 32.345051  -0.946468 -0.206502 0.248105  0.234382 0.561510 1 1 1.000000
0  -48.861660 -23.123268 32.634087  -0.904943 -0.088862 0.416150  0.239265 0.562487 1 1 1.000000
skin_0
0  -48.820366 -24.348251 32.097301  -0.944218 -0.231035 -0.234679  0.233406 0.560533 1 1 1.000000
0  -48.820366 -24.334488 32.345051  -0.946468 -0.206502 0.248105  0.234382 0.561510 1 1 1.000000
0  -48.999294 -23.026920 32.179882  -0.985737 -0.105101 0.131438  0.239265 0.560533 1 1 1.000000
skin_0
0  -48.999294 -23.026920 32.179882  -0.985737 -0.105101 0.131438  0.239265 0.560533 1 1 1.000000
0  -48.985531 -23.026920 31.918367  -0.940774 -0.145339 -0.306302  0.239265 0.559557 1 1 1.000000
0  -48.820366 -24.348251 32.097301  -0.944218 -0.231035 -0.234679  0.233406 0.560533 1 1 1.000000
skin_0
0  -48.820366 -24.348251 32.097301  -0.944218 -0.231035 -0.234679  0.233406 0.560533 1 1 1.000000
0  -48.985531 -23.026920 31.918367  -0.940774 -0.145339 -0.306302  0.239265 0.559557 1 1 1.000000
0  -48.324867 -23.508657 30.968662  -0.653497 -0.136283 -0.744559  0.238289 0.556627 1 1 1.000000
skin_0
0  -48.311104 -22.696590 30.899845  -0.651908 -0.139224 -0.745408  0.241218 0.555650 1 1 1.000000
0  -48.324867 -23.508657 30.968662  -0.653497 -0.136283 -0.744559  0.238289 0.556627 1 1 1.000000
0  -48.985531 -23.026920 31.918367  -0.940774 -0.145339 -0.306302  0.239265 0.559557 1 1 1.000000
skin_0
0  -48.324867 -23.508657 30.968662  -0.653497 -0.136283 -0.744559  0.238289 0.556627 1 1 1.000000
0  -48.200996 -25.242903 31.409105  -0.693915 -0.342075 -0.633613  0.231452 0.558580 1 1 1.000000
0  -48.820366 -24.348251 32.097301  -0.944218 -0.231035 -0.234679  0.233406 0.560533 1 1 1.000000
skin_0
0  -48.145935 -26.275190 32.276226  -0.806888 -0.538632 -0.242501  0.224616 0.561510 1 1 1.000000
0  -48.820366 -24.348251 32.097301  -0.944218 -0.231035 -0.234679  0.233406 0.560533 1 1 1.000000
0  -48.200996 -25.242903 31.409105  -0.693915 -0.342075 -0.633613  0.231452 0.558580 1 1 1.000000
skin_0
0  -48.820366 -24.334488 32.345051  -0.946468 -0.206502 0.248105  0.234382 0.561510 1 1 1.000000
0  -48.820366 -24.348251 32.097301  -0.944218 -0.231035 -0.234679  0.233406 0.560533 1 1 1.000000
0  -48.145935 -26.275190 32.276226  -0.806888 -0.538632 -0.242501  0.224616 0.561510 1 1 1.000000
skin_0
0  -48.847897 -22.201092 32.757965  -0.598550 0.648676 0.470060  0.243171 0.563463 1 1 1.000000
0  -49.068119 -22.063454 32.069771  -0.681727 0.720397 0.127582  0.243171 0.560533 1 1 1.000000
0  -49.081882 -22.366259 32.097301  -0.990341 -0.028935 0.135598  0.242195 0.560533 1 1 1.000000
skin_0
0  -49.081882 -22.366259 32.097301  -0.990341 -0.028935 0.135598  0.242195 0.560533 1 1 1.000000
0  -48.847897 -22.462605 32.744198  -0.887247 -0.048907 0.458695  0.241218 0.563463 1 1 1.000000
0  -48.847897 -22.201092 32.757965  -0.598550 0.648676 0.470060  0.243171 0.563463 1 1 1.000000
skin_0
0  -48.173470 -22.517660 33.680141  -0.369577 0.634120 0.679194  0.241218 0.568346 1 1 1.000000
0  -48.847897 -22.201092 32.757965  -0.598550 0.648676 0.470060  0.243171 0.563463 1 1 1.000000
0  -48.847897 -22.462605 32.744198  -0.887247 -0.048907 0.458695  0.241218 0.563463 1 1 1.000000
skin_0
0  -48.847897 -22.462605 32.744198  -0.887247 -0.048907 0.458695  0.241218 0.563463 1 1 1.000000
0  -48.173470 -22.806702 33.693905  -0.663930 -0.023003 0.747441  0.240242 0.568346 1 1 1.000000
0  -48.173470 -22.517660 33.680141  -0.369577 0.634120 0.679194  0.241218 0.568346 1 1 1.000000
skin_0
0  -41.030029 -30.762205 32.675381  0.146436 -0.712253 0.686478  0.797876 0.701163 1 1 1.000000
0  -40.672165 -30.789734 32.400105  0.667421 -0.737510 0.103091  0.797876 0.699210 1 1 1.000000
0  -40.245491 -29.206888 33.294754  0.821090 -0.341247 0.457561  0.791040 0.697256 1 1 1.000000
skin_0
0  -42.888149 -24.596001 34.918888  0.229825 0.620829 0.749501  0.768578 0.709952 1 1 1.000000
0  -44.938961 -23.811464 34.781250  0.117908 0.614288 0.780223  0.764672 0.719718 1 1 1.000000
0  -44.938961 -24.114267 34.795013  -0.158606 -0.062848 0.985340  0.766625 0.719718 1 1 1.000000
skin_0
0  -44.938961 -24.114267 34.795013  -0.158606 -0.062848 0.985340  0.766625 0.719718 1 1 1.000000
0  -42.888149 -24.898804 34.932652  -0.026490 -0.073883 0.996915  0.770531 0.709952 1 1 1.000000
0  -42.888149 -24.596001 34.918888  0.229825 0.620829 0.749501  0.768578 0.709952 1 1 1.000000
skin_0
0  -41.442944 -25.132793 34.822540  0.364500 0.645617 0.671057  0.771508 0.703116 1 1 1.000000
0  -42.888149 -24.596001 34.918888  0.229825 0.620829 0.749501  0.768578 0.709952 1 1 1.000000
0  -42.888149 -24.898804 34.932652  -0.026490 -0.073883 0.996915  0.770531 0.709952 1 1 1.000000
skin_0
0  -42.888149 -24.898804 34.932652  -0.026490 -0.073883 0.996915  0.770531 0.709952 1 1 1.000000
0  -41.456707 -25.435596 34.836304  0.090003 -0.071427 0.993377  0.772485 0.703116 1 1 1.000000
0  -41.442944 -25.132793 34.822540  0.364500 0.645617 0.671057  0.771508 0.703116 1 1 1.000000
skin_0
0  -40.685932 -25.531942 34.698666  0.481837 0.555542 0.677647  0.772485 0.699210 1 1 1.000000
0  -41.442944 -25.132793 34.822540  0.364500 0.645617 0.671057  0.771508 0.703116 1 1 1.000000
0  -41.456707 -25.435596 34.836304  0.090003 -0.071427 0.993377  0.772485 0.703116 1 1 1.000000
skin_0
0  -41.456707 -25.435596 34.836304  0.090003 -0.071427 0.993377  0.772485 0.703116 1 1 1.000000
0  -40.672165 -25.820984 34.684902  0.369183 -0.095450 0.924442  0.774438 0.699210 1 1 1.000000
0  -40.685932 -25.531942 34.698666  0.481837 0.555542 0.677647  0.772485 0.699210 1 1 1.000000
skin_0
0  -40.052795 -25.697109 34.203171  0.744126 0.516859 0.423241  0.774438 0.696280 1 1 1.000000
0  -40.685932 -25.531942 34.698666  0.481837 0.555542 0.677647  0.772485 0.699210 1 1 1.000000
0  -40.672165 -25.820984 34.684902  0.369183 -0.095450 0.924442  0.774438 0.699210 1 1 1.000000
skin_0
0  -40.672165 -25.820984 34.684902  0.369183 -0.095450 0.924442  0.774438 0.699210 1 1 1.000000
0  -40.052795 -25.999912 34.216934  0.838150 -0.051428 0.543011  0.775414 0.696280 1 1 1.000000
0  -40.052795 -25.697109 34.203171  0.744126 0.516859 0.423241  0.774438 0.696280 1 1 1.000000
skin_0
0  -40.052795 -25.999912 34.216934  0.838150 -0.051428 0.543011  0.775414 0.696280 1 1 1.000000
0  -40.672165 -25.820984 34.684902  0.369183 -0.095450 0.924442  0.774438 0.699210 1 1 1.000000
0  -40.727222 -26.963383 34.505970  0.326777 -0.268859 0.906053  0.780297 0.699210 1 1 1.000000
skin_0
0  -40.727222 -26.963383 34.505970  0.326777 -0.268859 0.906053  0.780297 0.699210 1 1 1.000000
0  -40.066559 -27.073496 33.914127  0.858909 -0.191527 0.474966  0.780297 0.696280 1 1 1.000000
0  -40.052795 -25.999912 34.216934  0.838150 -0.051428 0.543011  0.775414 0.696280 1 1 1.000000
skin_0
0  -40.066559 -27.073496 33.914127  0.858909 -0.191527 0.474966  0.780297 0.696280 1 1 1.000000
0  -40.727222 -26.963383 34.505970  0.326777 -0.268859 0.906053  0.780297 0.699210 1 1 1.000000
0  -40.809811 -29.261946 33.680141  0.254208 -0.453461 0.854255  0.791040 0.700186 1 1 1.000000
skin_0
0  -40.809811 -29.261946 33.680141  0.254208 -0.453461 0.854255  0.791040 0.700186 1 1 1.000000
0  -40.245491 -29.206888 33.294754  0.821090 -0.341247 0.457561  0.791040 0.697256 1 1 1.000000
0  -40.066559 -27.073496 33.914127  0.858909 -0.191527 0.474966  0.780297 0.696280 1 1 1.000000
skin_0
0  -40.245491 -29.206888 33.294754  0.821090 -0.341247 0.457561  0.791040 0.697256 1 1 1.000000
0  -40.809811 -29.261946 33.680141  0.254208 -0.453461 0.854255  0.791040 0.700186 1 1 1.000000
0  -41.030029 -30.762205 32.675381  0.146436 -0.712253 0.686478  0.797876 0.701163 1 1 1.000000
skin_0
0  -41.731987 -28.945377 33.762726  -0.119754 -0.457323 0.881201  0.790063 0.704093 1 1 1.000000
0  -41.030029 -30.762205 32.675381  0.146436 -0.712253 0.686478  0.797876 0.701163 1 1 1.000000
0  -40.809811 -29.261946 33.680141  0.254208 -0.453461 0.854255  0.791040 0.700186 1 1 1.000000
skin_0
0  -41.442944 -30.954899 32.427631  -0.104441 -0.829276 0.548993  0.798853 0.703116 1 1 1.000000
0  -41.030029 -30.762205 32.675381  0.146436 -0.712253 0.686478  0.797876 0.701163 1 1 1.000000
0  -41.731987 -28.945377 33.762726  -0.119754 -0.457323 0.881201  0.790063 0.704093 1 1 1.000000
skin_0
0  -42.048553 -30.789734 32.386341  -0.317192 -0.802800 0.504878  0.797876 0.706046 1 1 1.000000
0  -41.442944 -30.954899 32.427631  -0.104441 -0.829276 0.548993  0.798853 0.703116 1 1 1.000000
0  -41.731987 -28.945377 33.762726  -0.119754 -0.457323 0.881201  0.790063 0.704093 1 1 1.000000
skin_0
0  -43.259773 -30.197886 32.455158  -0.395324 -0.781703 0.482347  0.794946 0.711905 1 1 1.000000
0  -42.048553 -30.789734 32.386341  -0.317192 -0.802800 0.504878  0.797876 0.706046 1 1 1.000000
0  -41.731987 -28.945377 33.762726  -0.119754 -0.457323 0.881201  0.790063 0.704093 1 1 1.000000
skin_0
0  -41.731987 -28.945377 33.762726  -0.119754 -0.457323 0.881201  0.790063 0.704093 1 1 1.000000
0  -43.039551 -28.394823 33.831543  -0.200598 -0.457295 0.866396  0.787133 0.710929 1 1 1.000000
0  -43.259773 -30.197886 32.455158  -0.395324 -0.781703 0.482347  0.794946 0.711905 1 1 1.000000
skin_0
0  -44.938961 -23.811464 34.781250  0.117908 0.614288 0.780223  0.764672 0.719718 1 1 1.000000
0  -46.948483 -23.013157 34.354568  -0.072991 0.604863 0.792977  0.760765 0.730461 1 1 1.000000
0  -46.934719 -23.315964 34.354568  -0.360091 -0.065608 0.930607  0.762719 0.729484 1 1 1.000000
skin_0
0  -46.934719 -23.315964 34.354568  -0.360091 -0.065608 0.930607  0.762719 0.729484 1 1 1.000000
0  -44.938961 -24.114267 34.795013  -0.158606 -0.062848 0.985340  0.766625 0.719718 1 1 1.000000
0  -44.938961 -23.811464 34.781250  0.117908 0.614288 0.780223  0.764672 0.719718 1 1 1.000000
skin_0
0  -44.938961 -24.114267 34.795013  -0.158606 -0.062848 0.985340  0.766625 0.719718 1 1 1.000000
0  -46.934719 -23.315964 34.354568  -0.360091 -0.065608 0.930607  0.762719 0.729484 1 1 1.000000
0  -46.865902 -24.293198 34.244461  -0.387109 -0.207269 0.898435  0.766625 0.729484 1 1 1.000000
skin_0
0  -46.865902 -24.293198 34.244461  -0.387109 -0.207269 0.898435  0.766625 0.729484 1 1 1.000000
0  -44.938961 -25.201611 34.602318  -0.225590 -0.255840 0.940029  0.771508 0.719718 1 1 1.000000
0  -44.938961 -24.114267 34.795013  -0.158606 -0.062848 0.985340  0.766625 0.719718 1 1 1.000000
skin_0
0  -42.888149 -24.898804 34.932652  -0.026490 -0.073883 0.996915  0.770531 0.709952 1 1 1.000000
0  -44.938961 -24.114267 34.795013  -0.158606 -0.062848 0.985340  0.766625 0.719718 1 1 1.000000
0  -44.938961 -25.201611 34.602318  -0.225590 -0.255840 0.940029  0.771508 0.719718 1 1 1.000000
skin_0
0  -44.938961 -25.201611 34.602318  -0.225590 -0.255840 0.940029  0.771508 0.719718 1 1 1.000000
0  -42.943203 -26.054970 34.712429  -0.105041 -0.264415 0.958671  0.775414 0.709952 1 1 1.000000
0  -42.888149 -24.898804 34.932652  -0.026490 -0.073883 0.996915  0.770531 0.709952 1 1 1.000000
skin_0
0  -41.456707 -25.435596 34.836304  0.090003 -0.071427 0.993377  0.772485 0.703116 1 1 1.000000
0  -42.888149 -24.898804 34.932652  -0.026490 -0.073883 0.996915  0.770531 0.709952 1 1 1.000000
0  -42.943203 -26.054970 34.712429  -0.105041 -0.264415 0.958671  0.775414 0.709952 1 1 1.000000
skin_0
0  -42.943203 -26.054970 34.712429  -0.105041 -0.264415 0.958671  0.775414 0.709952 1 1 1.000000
0  -41.539288 -26.605522 34.629848  -0.007249 -0.256936 0.966401  0.778344 0.703116 1 1 1.000000
0  -41.456707 -25.435596 34.836304  0.090003 -0.071427 0.993377  0.772485 0.703116 1 1 1.000000
skin_0
0  -40.672165 -25.820984 34.684902  0.369183 -0.095450 0.924442  0.774438 0.699210 1 1 1.000000
0  -41.456707 -25.435596 34.836304  0.090003 -0.071427 0.993377  0.772485 0.703116 1 1 1.000000
0  -41.539288 -26.605522 34.629848  -0.007249 -0.256936 0.966401  0.778344 0.703116 1 1 1.000000
skin_0
0  -41.539288 -26.605522 34.629848  -0.007249 -0.256936 0.966401  0.778344 0.703116 1 1 1.000000
0  -40.727222 -26.963383 34.505970  0.326777 -0.268859 0.906053  0.780297 0.699210 1 1 1.000000
0  -40.672165 -25.820984 34.684902  0.369183 -0.095450 0.924442  0.774438 0.699210 1 1 1.000000
skin_0
0  -40.727222 -26.963383 34.505970  0.326777 -0.268859 0.906053  0.780297 0.699210 1 1 1.000000
0  -41.539288 -26.605522 34.629848  -0.007249 -0.256936 0.966401  0.778344 0.703116 1 1 1.000000
0  -41.731987 -28.945377 33.762726  -0.119754 -0.457323 0.881201  0.790063 0.704093 1 1 1.000000
skin_0
0  -41.731987 -28.945377 33.762726  -0.119754 -0.457323 0.881201  0.790063 0.704093 1 1 1.000000
0  -40.809811 -29.261946 33.680141  0.254208 -0.453461 0.854255  0.791040 0.700186 1 1 1.000000
0  -40.727222 -26.963383 34.505970  0.326777 -0.268859 0.906053  0.780297 0.699210 1 1 1.000000
skin_0
0  -46.865902 -24.293198 34.244461  -0.387109 -0.207269 0.898435  0.766625 0.729484 1 1 1.000000
0  -46.742031 -26.275190 33.652615  -0.423298 -0.391617 0.816979  0.776391 0.728507 1 1 1.000000
0  -44.925198 -27.390062 33.804016  -0.291517 -0.437120 0.850849  0.782250 0.719718 1 1 1.000000
skin_0
0  -44.925198 -27.390062 33.804016  -0.291517 -0.437120 0.850849  0.782250 0.719718 1 1 1.000000
0  -44.938961 -25.201611 34.602318  -0.225590 -0.255840 0.940029  0.771508 0.719718 1 1 1.000000
0  -46.865902 -24.293198 34.244461  -0.387109 -0.207269 0.898435  0.766625 0.729484 1 1 1.000000
skin_0
0  -42.943203 -26.054970 34.712429  -0.105041 -0.264415 0.958671  0.775414 0.709952 1 1 1.000000
0  -44.938961 -25.201611 34.602318  -0.225590 -0.255840 0.940029  0.771508 0.719718 1 1 1.000000
0  -44.925198 -27.390062 33.804016  -0.291517 -0.437120 0.850849  0.782250 0.719718 1 1 1.000000
skin_0
0  -44.925198 -27.390062 33.804016  -0.291517 -0.437120 0.850849  0.782250 0.719718 1 1 1.000000
0  -43.039551 -28.394823 33.831543  -0.200598 -0.457295 0.866396  0.787133 0.710929 1 1 1.000000
0  -42.943203 -26.054970 34.712429  -0.105041 -0.264415 0.958671  0.775414 0.709952 1 1 1.000000
skin_0
0  -41.539288 -26.605522 34.629848  -0.007249 -0.256936 0.966401  0.778344 0.703116 1 1 1.000000
0  -42.943203 -26.054970 34.712429  -0.105041 -0.264415 0.958671  0.775414 0.709952 1 1 1.000000
0  -43.039551 -28.394823 33.831543  -0.200598 -0.457295 0.866396  0.787133 0.710929 1 1 1.000000
skin_0
0  -43.039551 -28.394823 33.831543  -0.200598 -0.457295 0.866396  0.787133 0.710929 1 1 1.000000
0  -41.731987 -28.945377 33.762726  -0.119754 -0.457323 0.881201  0.790063 0.704093 1 1 1.000000
0  -41.539288 -26.605522 34.629848  -0.007249 -0.256936 0.966401  0.778344 0.703116 1 1 1.000000
skin_0
0  -44.980255 -29.151834 32.537743  -0.472662 -0.745080 0.470581  0.790063 0.720695 1 1 1.000000
0  -43.259773 -30.197886 32.455158  -0.395324 -0.781703 0.482347  0.794946 0.711905 1 1 1.000000
0  -43.039551 -28.394823 33.831543  -0.200598 -0.457295 0.866396  0.787133 0.710929 1 1 1.000000
skin_0
0  -43.039551 -28.394823 33.831543  -0.200598 -0.457295 0.866396  0.787133 0.710929 1 1 1.000000
0  -44.925198 -27.390062 33.804016  -0.291517 -0.437120 0.850849  0.782250 0.719718 1 1 1.000000
0  -44.980255 -29.151834 32.537743  -0.472662 -0.745080 0.470581  0.790063 0.720695 1 1 1.000000
skin_0
0  -46.631916 -27.968145 32.565269  -0.592875 -0.664201 0.455341  0.784204 0.728507 1 1 1.000000
0  -44.980255 -29.151834 32.537743  -0.472662 -0.745080 0.470581  0.790063 0.720695 1 1 1.000000
0  -44.925198 -27.390062 33.804016  -0.291517 -0.437120 0.850849  0.782250 0.719718 1 1 1.000000
skin_0
0  -44.925198 -27.390062 33.804016  -0.291517 -0.437120 0.850849  0.782250 0.719718 1 1 1.000000
0  -46.742031 -26.275190 33.652615  -0.423298 -0.391617 0.816979  0.776391 0.728507 1 1 1.000000
0  -46.631916 -27.968145 32.565269  -0.592875 -0.664201 0.455341  0.784204 0.728507 1 1 1.000000
skin_0
0  -48.159698 -26.220137 32.510212  -0.803928 -0.471577 0.362373  0.775414 0.736320 1 1 1.000000
0  -46.631916 -27.968145 32.565269  -0.592875 -0.664201 0.455341  0.784204 0.728507 1 1 1.000000
0  -46.742031 -26.275190 33.652615  -0.423298 -0.391617 0.816979  0.776391 0.728507 1 1 1.000000
skin_0
0  -46.742031 -26.275190 33.652615  -0.423298 -0.391617 0.816979  0.776391 0.728507 1 1 1.000000
0  -48.173470 -25.119026 33.198410  -0.705259 -0.281242 0.650779  0.770531 0.736320 1 1 1.000000
0  -48.159698 -26.220137 32.510212  -0.803928 -0.471577 0.362373  0.775414 0.736320 1 1 1.000000
skin_0
0  -48.173470 -25.119026 33.198410  -0.705259 -0.281242 0.650779  0.770531 0.736320 1 1 1.000000
0  -46.742031 -26.275190 33.652615  -0.423298 -0.391617 0.816979  0.776391 0.728507 1 1 1.000000
0  -46.865902 -24.293198 34.244461  -0.387109 -0.207269 0.898435  0.766625 0.729484 1 1 1.000000
skin_0
0  -46.865902 -24.293198 34.244461  -0.387109 -0.207269 0.898435  0.766625 0.729484 1 1 1.000000
0  -48.173470 -23.536186 33.611320  -0.685156 -0.132865 0.716177  0.763695 0.736320 1 1 1.000000
0  -48.173470 -25.119026 33.198410  -0.705259 -0.281242 0.650779  0.770531 0.736320 1 1 1.000000
skin_0
0  -48.173470 -23.536186 33.611320  -0.685156 -0.132865 0.716177  0.763695 0.736320 1 1 1.000000
0  -46.865902 -24.293198 34.244461  -0.387109 -0.207269 0.898435  0.766625 0.729484 1 1 1.000000
0  -46.934719 -23.315964 34.354568  -0.360091 -0.065608 0.930607  0.762719 0.729484 1 1 1.000000
skin_0
0  -46.934719 -23.315964 34.354568  -0.360091 -0.065608 0.930607  0.762719 0.729484 1 1 1.000000
0  -48.173470 -22.806702 33.693905  -0.663930 -0.023003 0.747441  0.759789 0.736320 1 1 1.000000
0  -48.173470 -23.536186 33.611320  -0.685156 -0.132865 0.716177  0.763695 0.736320 1 1 1.000000
skin_0
0  -48.173470 -22.806702 33.693905  -0.663930 -0.023003 0.747441  0.759789 0.736320 1 1 1.000000
0  -46.934719 -23.315964 34.354568  -0.360091 -0.065608 0.930607  0.762719 0.729484 1 1 1.000000
0  -46.948483 -23.013157 34.354568  -0.072991 0.604863 0.792977  0.760765 0.730461 1 1 1.000000
skin_0
0  -46.948483 -23.013157 34.354568  -0.072991 0.604863 0.792977  0.760765 0.730461 1 1 1.000000
0  -48.173470 -22.517660 33.680141  -0.369577 0.634120 0.679194  0.757836 0.736320 1 1 1.000000
0  -48.173470 -22.806702 33.693905  -0.663930 -0.023003 0.747441  0.759789 0.736320 1 1 1.000000
skin_0
0  -40.644638 -24.940098 29.619804  -0.625235 0.709812 0.324419  0.229499 0.547838 1 1 1.000000
0  -40.066559 -24.059210 29.716154  -0.776327 0.528291 0.343840  0.234382 0.547838 1 1 1.000000
0  -40.644638 -24.774931 29.151834  -0.855725 0.507618 0.100287  0.231452 0.545885 1 1 1.000000
skin_0
0  -40.644638 -24.940098 29.619804  -0.625235 0.709812 0.324419  0.229499 0.547838 1 1 1.000000
0  -40.314308 -24.912571 30.418108  -0.763145 0.539052 0.356418  0.229499 0.551744 1 1 1.000000
0  -40.066559 -24.059210 29.716154  -0.776327 0.528291 0.343840  0.234382 0.547838 1 1 1.000000
skin_0
0  -39.364605 -23.494894 30.252945  -0.167162 0.666837 0.726213  0.237312 0.550768 1 1 1.000000
0  -40.066559 -24.059210 29.716154  -0.776327 0.528291 0.343840  0.234382 0.547838 1 1 1.000000
0  -40.314308 -24.912571 30.418108  -0.763145 0.539052 0.356418  0.229499 0.551744 1 1 1.000000
skin_0
0  -40.314308 -24.912571 30.418108  -0.763145 0.539052 0.356418  0.229499 0.551744 1 1 1.000000
0  -39.763752 -24.774931 31.395342  -0.187125 0.785908 0.589350  0.230476 0.556627 1 1 1.000000
0  -39.364605 -23.494894 30.252945  -0.167162 0.666837 0.726213  0.237312 0.550768 1 1 1.000000
skin_0
0  -41.539288 -27.004675 30.734678  -0.688791 0.515421 0.509811  0.219733 0.553697 1 1 1.000000
0  -39.763752 -24.774931 31.395342  -0.187125 0.785908 0.589350  0.230476 0.556627 1 1 1.000000
0  -40.314308 -24.912571 30.418108  -0.763145 0.539052 0.356418  0.229499 0.551744 1 1 1.000000
skin_0
0  -39.997738 -25.476887 32.565269  -0.356364 0.913141 0.197933  0.227546 0.562487 1 1 1.000000
0  -39.763752 -24.774931 31.395342  -0.187125 0.785908 0.589350  0.230476 0.556627 1 1 1.000000
0  -41.539288 -27.004675 30.734678  -0.688791 0.515421 0.509811  0.219733 0.553697 1 1 1.000000
skin_0
0  -41.539288 -27.004675 30.734678  -0.688791 0.515421 0.509811  0.219733 0.553697 1 1 1.000000
0  -41.277779 -27.169842 32.386341  -0.800788 0.597633 0.039673  0.218757 0.561510 1 1 1.000000
0  -39.997738 -25.476887 32.565269  -0.356364 0.913141 0.197933  0.227546 0.562487 1 1 1.000000
skin_0
0  -40.328072 -25.614527 34.079296  -0.151015 0.976813 -0.151756  0.225593 0.569323 1 1 1.000000
0  -39.997738 -25.476887 32.565269  -0.356364 0.913141 0.197933  0.227546 0.562487 1 1 1.000000
0  -41.277779 -27.169842 32.386341  -0.800788 0.597633 0.039673  0.218757 0.561510 1 1 1.000000
skin_0
0  -41.277779 -27.169842 32.386341  -0.800788 0.597633 0.039673  0.218757 0.561510 1 1 1.000000
0  -41.456707 -27.156076 33.721432  -0.660628 0.588450 -0.466151  0.218757 0.568346 1 1 1.000000
0  -40.328072 -25.614527 34.079296  -0.151015 0.976813 -0.151756  0.225593 0.569323 1 1 1.000000
skin_0
0  -47.980770 -22.503897 33.514973  0.541817 0.829427 -0.135957  0.757836 0.567370 1 1 1.000000
0  -46.893429 -22.985630 34.120586  0.486658 0.792530 -0.367504  0.760765 0.570299 1 1 1.000000
0  -46.521805 -25.201611 33.680141  0.475175 0.279963 -0.834164  0.770531 0.567370 1 1 1.000000
skin_0
0  -46.521805 -25.201611 33.680141  0.475175 0.279963 -0.834164  0.770531 0.567370 1 1 1.000000
0  -47.416454 -24.816223 32.689144  0.828971 0.402036 -0.388810  0.768578 0.562487 1 1 1.000000
0  -47.980770 -22.503897 33.514973  0.541817 0.829427 -0.135957  0.757836 0.567370 1 1 1.000000
skin_0
0  -48.586384 -22.201092 32.716671  0.522139 0.852410 -0.027728  0.756859 0.563463 1 1 1.000000
0  -47.980770 -22.503897 33.514973  0.541817 0.829427 -0.135957  0.757836 0.567370 1 1 1.000000
0  -47.416454 -24.816223 32.689144  0.828971 0.402036 -0.388810  0.768578 0.562487 1 1 1.000000
skin_0
0  -48.820366 -22.077217 32.097301  0.506734 0.861639 0.028270  0.755882 0.560533 1 1 1.000000
0  -48.586384 -22.201092 32.716671  0.522139 0.852410 -0.027728  0.756859 0.563463 1 1 1.000000
0  -47.416454 -24.816223 32.689144  0.828971 0.402036 -0.388810  0.768578 0.562487 1 1 1.000000
skin_0
0  -47.416454 -24.816223 32.689144  0.828971 0.402036 -0.388810  0.768578 0.562487 1 1 1.000000
0  -47.705498 -24.637293 31.367815  0.750784 0.377037 0.542371  0.768578 0.556627 1 1 1.000000
0  -48.820366 -22.077217 32.097301  0.506734 0.861639 0.028270  0.755882 0.560533 1 1 1.000000
skin_0
0  -47.705498 -24.637293 31.367815  0.750784 0.377037 0.542371  0.768578 0.556627 1 1 1.000000
0  -48.806602 -22.063454 31.766968  0.466423 0.883889 0.034507  0.755882 0.559557 1 1 1.000000
0  -48.820366 -22.077217 32.097301  0.506734 0.861639 0.028270  0.755882 0.560533 1 1 1.000000
skin_0
0  -47.705498 -24.637293 31.367815  0.750784 0.377037 0.542371  0.768578 0.556627 1 1 1.000000
0  -48.104645 -22.283674 30.954899  0.458980 0.870254 0.178874  0.756859 0.556627 1 1 1.000000
0  -48.806602 -22.063454 31.766968  0.466423 0.883889 0.034507  0.755882 0.559557 1 1 1.000000
skin_0
0  -41.085083 -24.898804 29.647331  0.224635 0.882860 0.412428  0.298837 0.548814 1 1 1.000000
0  -40.644638 -24.940098 29.619804  -0.625235 0.709812 0.324419  0.300790 0.547838 1 1 1.000000
0  -40.809811 -25.063971 29.234419  -0.788782 0.526367 -0.317429  0.300790 0.546861 1 1 1.000000
skin_0
0  -40.809811 -25.063971 29.234419  -0.788782 0.526367 -0.317429  0.300790 0.546861 1 1 1.000000
0  -41.071320 -25.050207 29.372059  -0.247601 0.392543 -0.885779  0.299814 0.546861 1 1 1.000000
0  -41.085083 -24.898804 29.647331  0.224635 0.882860 0.412428  0.298837 0.548814 1 1 1.000000
skin_0
0  -42.667927 -24.306961 29.867556  0.372546 0.839316 0.395926  0.291025 0.549791 1 1 1.000000
0  -41.085083 -24.898804 29.647331  0.224635 0.882860 0.412428  0.298837 0.548814 1 1 1.000000
0  -41.071320 -25.050207 29.372059  -0.247601 0.392543 -0.885779  0.299814 0.546861 1 1 1.000000
skin_0
0  -41.071320 -25.050207 29.372059  -0.247601 0.392543 -0.885779  0.299814 0.546861 1 1 1.000000
0  -42.736744 -24.417072 29.564751  0.018245 0.380967 -0.924409  0.291025 0.547838 1 1 1.000000
0  -42.667927 -24.306961 29.867556  0.372546 0.839316 0.395926  0.291025 0.549791 1 1 1.000000
skin_0
0  -44.842613 -23.494894 30.184122  0.369626 0.848985 0.377624  0.280282 0.550768 1 1 1.000000
0  -42.667927 -24.306961 29.867556  0.372546 0.839316 0.395926  0.291025 0.549791 1 1 1.000000
0  -42.736744 -24.417072 29.564751  0.018245 0.380967 -0.924409  0.291025 0.547838 1 1 1.000000
skin_0
0  -42.736744 -24.417072 29.564751  0.018245 0.380967 -0.924409  0.291025 0.547838 1 1 1.000000
0  -44.883907 -23.632530 29.881319  -0.005174 0.351479 -0.936181  0.280282 0.549791 1 1 1.000000
0  -44.842613 -23.494894 30.184122  0.369626 0.848985 0.377624  0.280282 0.550768 1 1 1.000000
skin_0
0  -46.728260 -22.779175 30.445637  0.400771 0.862713 0.308396  0.271493 0.552721 1 1 1.000000
0  -44.842613 -23.494894 30.184122  0.369626 0.848985 0.377624  0.280282 0.550768 1 1 1.000000
0  -44.883907 -23.632530 29.881319  -0.005174 0.351479 -0.936181  0.280282 0.549791 1 1 1.000000
skin_0
0  -44.883907 -23.632530 29.881319  -0.005174 0.351479 -0.936181  0.280282 0.549791 1 1 1.000000
0  -46.852139 -22.903048 30.156595  -0.131585 0.359265 -0.923912  0.270516 0.550768 1 1 1.000000
0  -46.728260 -22.779175 30.445637  0.400771 0.862713 0.308396  0.271493 0.552721 1 1 1.000000
skin_0
0  -48.104645 -22.283674 30.954899  0.458980 0.870254 0.178874  0.264657 0.555650 1 1 1.000000
0  -46.728260 -22.779175 30.445637  0.400771 0.862713 0.308396  0.271493 0.552721 1 1 1.000000
0  -46.852139 -22.903048 30.156595  -0.131585 0.359265 -0.923912  0.270516 0.550768 1 1 1.000000
skin_0
0  -46.852139 -22.903048 30.156595  -0.131585 0.359265 -0.923912  0.270516 0.550768 1 1 1.000000
0  -48.269814 -22.338732 30.789734  -0.410622 0.503084 -0.760458  0.263680 0.553697 1 1 1.000000
0  -48.104645 -22.283674 30.954899  0.458980 0.870254 0.178874  0.264657 0.555650 1 1 1.000000
skin_0
0  -48.806602 -22.063454 31.766968  0.466423 0.883889 0.034507  0.260750 0.559557 1 1 1.000000
0  -48.104645 -22.283674 30.954899  0.458980 0.870254 0.178874  0.262703 0.556627 1 1 1.000000
0  -48.269814 -22.338732 30.789734  -0.410622 0.503084 -0.760458  0.263680 0.553697 1 1 1.000000
skin_0
0  -48.269814 -22.338732 30.789734  -0.410622 0.503084 -0.760458  0.263680 0.553697 1 1 1.000000
0  -49.054356 -22.063454 31.794495  -0.665385 0.680067 -0.307849  0.259774 0.558580 1 1 1.000000
0  -48.806602 -22.063454 31.766968  0.466423 0.883889 0.034507  0.260750 0.559557 1 1 1.000000
skin_0
0  -48.820366 -22.077217 32.097301  0.506734 0.861639 0.028270  0.260750 0.560533 1 1 1.000000
0  -48.806602 -22.063454 31.766968  0.466423 0.883889 0.034507  0.260750 0.559557 1 1 1.000000
0  -49.054356 -22.063454 31.794495  -0.665385 0.680067 -0.307849  0.259774 0.558580 1 1 1.000000
skin_0
0  -49.054356 -22.063454 31.794495  -0.665385 0.680067 -0.307849  0.259774 0.558580 1 1 1.000000
0  -49.068119 -22.063454 32.069771  -0.681727 0.720397 0.127582  0.259774 0.560533 1 1 1.000000
0  -48.820366 -22.077217 32.097301  0.506734 0.861639 0.028270  0.260750 0.560533 1 1 1.000000
skin_0
0  -48.586384 -22.201092 32.716671  0.522139 0.852410 -0.027728  0.261727 0.563463 1 1 1.000000
0  -48.820366 -22.077217 32.097301  0.506734 0.861639 0.028270  0.260750 0.560533 1 1 1.000000
0  -49.068119 -22.063454 32.069771  -0.681727 0.720397 0.127582  0.259774 0.560533 1 1 1.000000
skin_0
0  -49.068119 -22.063454 32.069771  -0.681727 0.720397 0.127582  0.259774 0.560533 1 1 1.000000
0  -48.847897 -22.201092 32.757965  -0.598550 0.648676 0.470060  0.260750 0.563463 1 1 1.000000
0  -48.586384 -22.201092 32.716671  0.522139 0.852410 -0.027728  0.261727 0.563463 1 1 1.000000
skin_0
0  -47.980770 -22.503897 33.514973  0.541817 0.829427 -0.135957  0.264657 0.567370 1 1 1.000000
0  -48.586384 -22.201092 32.716671  0.522139 0.852410 -0.027728  0.261727 0.563463 1 1 1.000000
0  -48.847897 -22.201092 32.757965  -0.598550 0.648676 0.470060  0.260750 0.563463 1 1 1.000000
skin_0
0  -48.847897 -22.201092 32.757965  -0.598550 0.648676 0.470060  0.260750 0.563463 1 1 1.000000
0  -48.173470 -22.517660 33.680141  -0.369577 0.634120 0.679194  0.263680 0.568346 1 1 1.000000
0  -47.980770 -22.503897 33.514973  0.541817 0.829427 -0.135957  0.264657 0.567370 1 1 1.000000
skin_0
0  -46.893429 -22.985630 34.120586  0.486658 0.792530 -0.367504  0.270516 0.570299 1 1 1.000000
0  -47.980770 -22.503897 33.514973  0.541817 0.829427 -0.135957  0.264657 0.567370 1 1 1.000000
0  -48.173470 -22.517660 33.680141  -0.369577 0.634120 0.679194  0.263680 0.568346 1 1 1.000000
skin_0
0  -48.173470 -22.517660 33.680141  -0.369577 0.634120 0.679194  0.263680 0.568346 1 1 1.000000
0  -46.948483 -23.013157 34.354568  -0.072991 0.604863 0.792977  0.269539 0.571276 1 1 1.000000
0  -46.893429 -22.985630 34.120586  0.486658 0.792530 -0.367504  0.270516 0.570299 1 1 1.000000
skin_0
0  -44.911434 -23.770170 34.547264  0.397528 0.777959 -0.486572  0.280282 0.572253 1 1 1.000000
0  -46.893429 -22.985630 34.120586  0.486658 0.792530 -0.367504  0.270516 0.570299 1 1 1.000000
0  -46.948483 -23.013157 34.354568  -0.072991 0.604863 0.792977  0.269539 0.571276 1 1 1.000000
skin_0
0  -46.948483 -23.013157 34.354568  -0.072991 0.604863 0.792977  0.269539 0.571276 1 1 1.000000
0  -44.938961 -23.811464 34.781250  0.117908 0.614288 0.780223  0.280282 0.574206 1 1 1.000000
0  -44.911434 -23.770170 34.547264  0.397528 0.777959 -0.486572  0.280282 0.572253 1 1 1.000000
skin_0
0  -42.901913 -24.554710 34.684902  0.302603 0.777116 -0.551835  0.290048 0.572253 1 1 1.000000
0  -44.911434 -23.770170 34.547264  0.397528 0.777959 -0.486572  0.280282 0.572253 1 1 1.000000
0  -44.938961 -23.811464 34.781250  0.117908 0.614288 0.780223  0.280282 0.574206 1 1 1.000000
skin_0
0  -44.938961 -23.811464 34.781250  0.117908 0.614288 0.780223  0.280282 0.574206 1 1 1.000000
0  -42.888149 -24.596001 34.918888  0.229825 0.620829 0.749501  0.290048 0.574206 1 1 1.000000
0  -42.901913 -24.554710 34.684902  0.302603 0.777116 -0.551835  0.290048 0.572253 1 1 1.000000
skin_0
0  -41.470470 -25.119026 34.588554  0.278043 0.751077 -0.598812  0.296884 0.572253 1 1 1.000000
0  -42.901913 -24.554710 34.684902  0.302603 0.777116 -0.551835  0.290048 0.572253 1 1 1.000000
0  -42.888149 -24.596001 34.918888  0.229825 0.620829 0.749501  0.290048 0.574206 1 1 1.000000
skin_0
0  -42.888149 -24.596001 34.918888  0.229825 0.620829 0.749501  0.290048 0.574206 1 1 1.000000
0  -41.442944 -25.132793 34.822540  0.364500 0.645617 0.671057  0.296884 0.574206 1 1 1.000000
0  -41.470470 -25.119026 34.588554  0.278043 0.751077 -0.598812  0.296884 0.572253 1 1 1.000000
skin_0
0  -40.782276 -25.504414 34.464680  0.060482 0.859236 -0.507992  0.300790 0.571276 1 1 1.000000
0  -41.470470 -25.119026 34.588554  0.278043 0.751077 -0.598812  0.296884 0.572253 1 1 1.000000
0  -41.442944 -25.132793 34.822540  0.364500 0.645617 0.671057  0.296884 0.574206 1 1 1.000000
skin_0
0  -41.442944 -25.132793 34.822540  0.364500 0.645617 0.671057  0.296884 0.574206 1 1 1.000000
0  -40.685932 -25.531942 34.698666  0.481837 0.555542 0.677647  0.300790 0.573229 1 1 1.000000
0  -40.782276 -25.504414 34.464680  0.060482 0.859236 -0.507992  0.300790 0.571276 1 1 1.000000
skin_0
0  -40.328072 -25.614527 34.079296  -0.151015 0.976813 -0.151756  0.302744 0.569323 1 1 1.000000
0  -40.782276 -25.504414 34.464680  0.060482 0.859236 -0.507992  0.300790 0.571276 1 1 1.000000
0  -40.685932 -25.531942 34.698666  0.481837 0.555542 0.677647  0.300790 0.573229 1 1 1.000000
skin_0
0  -40.685932 -25.531942 34.698666  0.481837 0.555542 0.677647  0.300790 0.573229 1 1 1.000000
0  -40.052795 -25.697109 34.203171  0.744126 0.516859 0.423241  0.303720 0.570299 1 1 1.000000
0  -40.328072 -25.614527 34.079296  -0.151015 0.976813 -0.151756  0.302744 0.569323 1 1 1.000000
skin_0
0  -39.997738 -25.476887 32.565269  -0.356364 0.913141 0.197933  0.303720 0.562487 1 1 1.000000
0  -40.328072 -25.614527 34.079296  -0.151015 0.976813 -0.151756  0.302744 0.569323 1 1 1.000000
0  -40.052795 -25.697109 34.203171  0.744126 0.516859 0.423241  0.303720 0.570299 1 1 1.000000
skin_0
0  -40.052795 -25.697109 34.203171  0.744126 0.516859 0.423241  0.303720 0.570299 1 1 1.000000
0  -39.763752 -25.504414 32.468922  0.765769 0.532225 0.361018  0.305673 0.561510 1 1 1.000000
0  -39.997738 -25.476887 32.565269  -0.356364 0.913141 0.197933  0.303720 0.562487 1 1 1.000000
skin_0
0  -39.763752 -24.774931 31.395342  -0.187125 0.785908 0.589350  0.304697 0.556627 1 1 1.000000
0  -39.997738 -25.476887 32.565269  -0.356364 0.913141 0.197933  0.303720 0.562487 1 1 1.000000
0  -39.763752 -25.504414 32.468922  0.765769 0.532225 0.361018  0.305673 0.561510 1 1 1.000000
skin_0
0  -39.763752 -25.504414 32.468922  0.765769 0.532225 0.361018  0.305673 0.561510 1 1 1.000000
0  -39.474716 -24.898804 31.243940  0.839493 0.261961 0.476054  0.306650 0.555650 1 1 1.000000
0  -39.763752 -24.774931 31.395342  -0.187125 0.785908 0.589350  0.304697 0.556627 1 1 1.000000
skin_0
0  -46.728260 -22.779175 30.445637  0.400771 0.862713 0.308396  0.759789 0.728507 1 1 1.000000
0  -48.104645 -22.283674 30.954899  0.458980 0.870254 0.178874  0.757836 0.734367 1 1 1.000000
0  -47.705498 -24.637293 31.367815  0.750784 0.377037 0.542371  0.768578 0.732414 1 1 1.000000
skin_0
0  -47.705498 -24.637293 31.367815  0.750784 0.377037 0.542371  0.768578 0.732414 1 1 1.000000
0  -46.852139 -24.967627 31.106304  0.291200 0.261331 0.920276  0.769555 0.729484 1 1 1.000000
0  -46.728260 -22.779175 30.445637  0.400771 0.862713 0.308396  0.759789 0.728507 1 1 1.000000
skin_0
0  -44.842613 -23.494894 30.184122  0.369626 0.848985 0.377624  0.762719 0.719718 1 1 1.000000
0  -46.728260 -22.779175 30.445637  0.400771 0.862713 0.308396  0.759789 0.728507 1 1 1.000000
0  -46.852139 -24.967627 31.106304  0.291200 0.261331 0.920276  0.769555 0.729484 1 1 1.000000
skin_0
0  -46.852139 -24.967627 31.106304  0.291200 0.261331 0.920276  0.769555 0.729484 1 1 1.000000
0  -44.181950 -25.986149 30.734678  0.241965 0.249340 0.937701  0.775414 0.716788 1 1 1.000000
0  -44.842613 -23.494894 30.184122  0.369626 0.848985 0.377624  0.762719 0.719718 1 1 1.000000
skin_0
0  -44.181950 -25.986149 30.734678  0.241965 0.249340 0.937701  0.775414 0.716788 1 1 1.000000
0  -42.667927 -24.306961 29.867556  0.372546 0.839316 0.395926  0.766625 0.708975 1 1 1.000000
0  -44.842613 -23.494894 30.184122  0.369626 0.848985 0.377624  0.762719 0.719718 1 1 1.000000
skin_0
0  -41.085083 -24.898804 29.647331  0.224635 0.882860 0.412428  0.769555 0.701163 1 1 1.000000
0  -42.667927 -24.306961 29.867556  0.372546 0.839316 0.395926  0.766625 0.708975 1 1 1.000000
0  -44.181950 -25.986149 30.734678  0.241965 0.249340 0.937701  0.775414 0.716788 1 1 1.000000
skin_0
0  -44.181950 -25.986149 30.734678  0.241965 0.249340 0.937701  0.775414 0.716788 1 1 1.000000
0  -42.241249 -26.715633 30.307999  0.132323 0.277418 0.951593  0.778344 0.707022 1 1 1.000000
0  -41.085083 -24.898804 29.647331  0.224635 0.882860 0.412428  0.769555 0.701163 1 1 1.000000
skin_0
0  -40.644638 -24.940098 29.619804  -0.625235 0.709812 0.324419  0.769555 0.699210 1 1 1.000000
0  -41.085083 -24.898804 29.647331  0.224635 0.882860 0.412428  0.769555 0.701163 1 1 1.000000
0  -42.241249 -26.715633 30.307999  0.132323 0.277418 0.951593  0.778344 0.707022 1 1 1.000000
skin_0
0  -42.241249 -26.715633 30.307999  0.132323 0.277418 0.951593  0.778344 0.707022 1 1 1.000000
0  -41.910915 -26.839510 30.390581  -0.324924 0.453648 0.829836  0.779321 0.705069 1 1 1.000000
0  -40.644638 -24.940098 29.619804  -0.625235 0.709812 0.324419  0.769555 0.699210 1 1 1.000000
skin_0
0  -40.314308 -24.912571 30.418108  -0.763145 0.539052 0.356418  0.771508 0.696280 1 1 1.000000
0  -40.644638 -24.940098 29.619804  -0.625235 0.709812 0.324419  0.769555 0.699210 1 1 1.000000
0  -41.910915 -26.839510 30.390581  -0.324924 0.453648 0.829836  0.779321 0.705069 1 1 1.000000
skin_0
0  -41.910915 -26.839510 30.390581  -0.324924 0.453648 0.829836  0.779321 0.705069 1 1 1.000000
0  -41.539288 -27.004675 30.734678  -0.688791 0.515421 0.509811  0.779321 0.701163 1 1 1.000000
0  -40.314308 -24.912571 30.418108  -0.763145 0.539052 0.356418  0.771508 0.696280 1 1 1.000000
skin_0
0  -46.521805 -25.201611 33.680141  0.475175 0.279963 -0.834164  0.228523 0.727531 1 1 1.000000
0  -46.893429 -22.985630 34.120586  0.486658 0.792530 -0.367504  0.239265 0.729484 1 1 1.000000
0  -44.911434 -23.770170 34.547264  0.397528 0.777959 -0.486572  0.235359 0.719718 1 1 1.000000
skin_0
0  -44.911434 -23.770170 34.547264  0.397528 0.777959 -0.486572  0.235359 0.719718 1 1 1.000000
0  -44.278294 -26.096260 34.216934  0.164291 0.210233 -0.963748  0.223640 0.716788 1 1 1.000000
0  -46.521805 -25.201611 33.680141  0.475175 0.279963 -0.834164  0.228523 0.727531 1 1 1.000000
skin_0
0  -44.911434 -23.770170 34.547264  0.397528 0.777959 -0.486572  0.235359 0.719718 1 1 1.000000
0  -42.901913 -24.554710 34.684902  0.302603 0.777116 -0.551835  0.231452 0.709952 1 1 1.000000
0  -44.278294 -26.096260 34.216934  0.164291 0.210233 -0.963748  0.223640 0.716788 1 1 1.000000
skin_0
0  -42.007263 -26.963383 34.175640  -0.179685 0.359024 -0.915869  0.219733 0.706046 1 1 1.000000
0  -44.278294 -26.096260 34.216934  0.164291 0.210233 -0.963748  0.223640 0.716788 1 1 1.000000
0  -42.901913 -24.554710 34.684902  0.302603 0.777116 -0.551835  0.231452 0.709952 1 1 1.000000
skin_0
0  -42.901913 -24.554710 34.684902  0.302603 0.777116 -0.551835  0.231452 0.709952 1 1 1.000000
0  -41.470470 -25.119026 34.588554  0.278043 0.751077 -0.598812  0.228523 0.703116 1 1 1.000000
0  -42.007263 -26.963383 34.175640  -0.179685 0.359024 -0.915869  0.219733 0.706046 1 1 1.000000
skin_0
0  -41.470470 -25.119026 34.588554  0.278043 0.751077 -0.598812  0.228523 0.703116 1 1 1.000000
0  -40.782276 -25.504414 34.464680  0.060482 0.859236 -0.507992  0.226569 0.699210 1 1 1.000000
0  -42.007263 -26.963383 34.175640  -0.179685 0.359024 -0.915869  0.219733 0.706046 1 1 1.000000
skin_0
0  -42.007263 -26.963383 34.175640  -0.179685 0.359024 -0.915869  0.219733 0.706046 1 1 1.000000
0  -40.782276 -25.504414 34.464680  0.060482 0.859236 -0.507992  0.226569 0.699210 1 1 1.000000
0  -40.328072 -25.614527 34.079296  -0.151015 0.976813 -0.151756  0.225593 0.697256 1 1 1.000000
skin_0
0  -40.328072 -25.614527 34.079296  -0.151015 0.976813 -0.151756  0.225593 0.697256 1 1 1.000000
0  -41.456707 -27.156076 33.721432  -0.660628 0.588450 -0.466151  0.218757 0.703116 1 1 1.000000
0  -42.007263 -26.963383 34.175640  -0.179685 0.359024 -0.915869  0.219733 0.706046 1 1 1.000000
doorline
0  -39.350838 -26.550467 28.381060  0.855744 -0.471519 -0.213007  0.235359 0.646474 1 1 1.000000
0  -39.419659 -26.743162 28.559988  0.809062 -0.517597 -0.278410  0.001953 0.650380 1 1 1.000000
0  -39.983974 -27.018438 28.188366  0.180990 -0.694753 -0.696104  0.001953 0.798822 1 1 1.000000
doorline
0  -39.983974 -27.018438 28.188366  0.180990 -0.694753 -0.696104  0.001953 0.798822 1 1 1.000000
0  -39.928921 -26.825743 28.009436  0.184987 -0.693624 -0.696180  0.235359 0.794916 1 1 1.000000
0  -39.350838 -26.550467 28.381060  0.855744 -0.471519 -0.213007  0.235359 0.646474 1 1 1.000000
doorline
0  -40.094086 -24.114267 29.771208  -0.798437 0.523733 0.296989  0.001953 0.717765 1 1 1.000000
0  -39.392132 -23.536186 30.321762  -0.188370 0.683448 0.705277  0.001953 0.876949 1 1 1.000000
0  -39.323311 -23.329727 30.142832  -0.164372 0.683068 0.711618  0.235359 0.889645 1 1 1.000000
doorline
0  -39.323311 -23.329727 30.142832  -0.164372 0.683068 0.711618  0.235359 0.889645 1 1 1.000000
0  -40.039032 -23.907808 29.592278  -0.786182 0.530604 0.316822  0.235359 0.729484 1 1 1.000000
0  -40.094086 -24.114267 29.771208  -0.798437 0.523733 0.296989  0.001953 0.717765 1 1 1.000000
doorline
0  -40.094086 -24.114267 29.771208  -0.798437 0.523733 0.296989  0.001953 0.717765 1 1 1.000000
0  -40.039032 -23.907808 29.592278  -0.786182 0.530604 0.316822  0.235359 0.729484 1 1 1.000000
0  -40.630875 -24.651056 29.027962  -0.887269 0.447510 0.111747  0.235359 0.544908 1 1 1.000000
doorline
0  -40.630875 -24.651056 29.027962  -0.887269 0.447510 0.111747  0.235359 0.544908 1 1 1.000000
0  -40.699696 -24.829987 29.206888  -0.905023 0.421242 0.059060  0.001953 0.536119 1 1 1.000000
0  -40.094086 -24.114267 29.771208  -0.798437 0.523733 0.296989  0.001953 0.717765 1 1 1.000000
doorline
0  -40.961208 -25.655817 28.656336  -0.986416 0.068813 -0.149157  0.001953 0.337870 1 1 1.000000
0  -40.699696 -24.829987 29.206888  -0.905023 0.421242 0.059060  0.001953 0.536119 1 1 1.000000
0  -40.630875 -24.651056 29.027962  -0.887269 0.447510 0.111747  0.235359 0.544908 1 1 1.000000
doorline
0  -40.630875 -24.651056 29.027962  -0.887269 0.447510 0.111747  0.235359 0.544908 1 1 1.000000
0  -40.919918 -25.490650 28.463644  -0.987023 0.123944 -0.102099  0.235359 0.342753 1 1 1.000000
0  -40.961208 -25.655817 28.656336  -0.986416 0.068813 -0.149157  0.001953 0.337870 1 1 1.000000
doorline
0  -40.699696 -26.688107 28.202129  -0.620337 -0.417003 -0.664297  0.001953 0.115207 1 1 1.000000
0  -40.961208 -25.655817 28.656336  -0.986416 0.068813 -0.149157  0.001953 0.337870 1 1 1.000000
0  -40.919918 -25.490650 28.463644  -0.987023 0.123944 -0.102099  0.235359 0.342753 1 1 1.000000
doorline
0  -40.919918 -25.490650 28.463644  -0.987023 0.123944 -0.102099  0.235359 0.342753 1 1 1.000000
0  -40.630875 -26.495413 28.009436  -0.706576 -0.337618 -0.621904  0.235359 0.126926 1 1 1.000000
0  -40.699696 -26.688107 28.202129  -0.620337 -0.417003 -0.664297  0.001953 0.115207 1 1 1.000000
doorline
0  -39.130615 -25.779690 29.179361  0.964098 -0.256541 0.068569  0.235359 0.409162 1 1 1.000000
0  -39.419659 -26.743162 28.559988  0.809062 -0.517597 -0.278410  0.235359 0.181616 1 1 1.000000
0  -39.350838 -26.550467 28.381060  0.855744 -0.471519 -0.213007  0.001953 0.199194 1 1 1.000000
doorline
0  -39.350838 -26.550467 28.381060  0.855744 -0.471519 -0.213007  0.001953 0.199194 1 1 1.000000
0  -39.061798 -25.587000 29.000431  0.967292 -0.235644 0.093905  0.001953 0.427717 1 1 1.000000
0  -39.130615 -25.779690 29.179361  0.964098 -0.256541 0.068569  0.235359 0.409162 1 1 1.000000
doorline
0  -38.992977 -24.596001 29.853792  0.969846 -0.151098 0.191230  0.235359 0.682608 1 1 1.000000
0  -39.130615 -25.779690 29.179361  0.964098 -0.256541 0.068569  0.235359 0.409162 1 1 1.000000
0  -39.061798 -25.587000 29.000431  0.967292 -0.235644 0.093905  0.001953 0.427717 1 1 1.000000
doorline
0  -39.061798 -25.587000 29.000431  0.967292 -0.235644 0.093905  0.001953 0.427717 1 1 1.000000
0  -38.924160 -24.389544 29.674864  0.968275 -0.127958 0.214639  0.001953 0.701163 1 1 1.000000
0  -38.992977 -24.596001 29.853792  0.969846 -0.151098 0.191230  0.235359 0.682608 1 1 1.000000
doorline
0  -38.992977 -24.596001 29.853792  0.969846 -0.151098 0.191230  0.235359 0.682608 1 1 1.000000
0  -38.924160 -24.389544 29.674864  0.968275 -0.127958 0.214639  0.001953 0.701163 1 1 1.000000
0  -38.965450 -23.591240 30.101538  0.748009 0.279389 0.602017  0.001953 0.882809 1 1 1.000000
doorline
0  -38.965450 -23.591240 30.101538  0.748009 0.279389 0.602017  0.001953 0.882809 1 1 1.000000
0  -39.034271 -23.797697 30.280472  0.834287 0.175011 0.522815  0.235359 0.864254 1 1 1.000000
0  -38.992977 -24.596001 29.853792  0.969846 -0.151098 0.191230  0.235359 0.682608 1 1 1.000000
doorline
0  -38.965450 -23.591240 30.101538  0.748009 0.279389 0.602017  0.235359 0.760735 1 1 1.000000
0  -39.323311 -23.329727 30.142832  -0.164372 0.683068 0.711618  0.235359 0.672842 1 1 1.000000
0  -39.392132 -23.536186 30.321762  -0.188370 0.683448 0.705277  0.001953 0.685537 1 1 1.000000
doorline
0  -39.392132 -23.536186 30.321762  -0.188370 0.683448 0.705277  0.001953 0.685537 1 1 1.000000
0  -39.034271 -23.797697 30.280472  0.834287 0.175011 0.522815  0.001953 0.772454 1 1 1.000000
0  -38.965450 -23.591240 30.101538  0.748009 0.279389 0.602017  0.235359 0.760735 1 1 1.000000
doorline
0  -39.928921 -26.825743 28.009436  0.184987 -0.693624 -0.696180  0.235359 0.653310 1 1 1.000000
0  -39.983974 -27.018438 28.188366  0.180990 -0.694753 -0.696104  0.001953 0.642567 1 1 1.000000
0  -40.699696 -26.688107 28.202129  -0.620337 -0.417003 -0.664297  0.001953 0.796869 1 1 1.000000
doorline
0  -40.699696 -26.688107 28.202129  -0.620337 -0.417003 -0.664297  0.001953 0.796869 1 1 1.000000
0  -40.630875 -26.495413 28.009436  -0.706576 -0.337618 -0.621904  0.235359 0.808588 1 1 1.000000
0  -39.928921 -26.825743 28.009436  0.184987 -0.693624 -0.696180  0.235359 0.653310 1 1 1.000000
chrome
0  -47.953243 -23.467365 30.954899  0.358631 0.933318 -0.017351  0.994171 0.349590 1 1 1.000000
0  -41.085083 -26.123789 30.583277  0.358446 0.933392 -0.017179  0.977569 0.347636 1 1 1.000000
0  -41.553051 -25.944857 30.101538  0.358442 0.933394 -0.017186  0.977569 0.366192 1 1 1.000000
chrome
0  -47.953243 -23.467365 30.954899  0.358631 0.933318 -0.017351  0.994171 0.349590 1 1 1.000000
0  -40.809811 -26.206373 31.147594  0.358446 0.933393 -0.017158  0.977569 0.333964 1 1 1.000000
0  -41.085083 -26.123789 30.583277  0.358446 0.933392 -0.017179  0.977569 0.347636 1 1 1.000000
chrome
0  -47.953243 -23.467365 30.954899  0.358631 0.933318 -0.017351  0.994171 0.349590 1 1 1.000000
0  -40.548294 -26.288956 32.551506  0.358447 0.933393 -0.017101  0.977569 0.320292 1 1 1.000000
0  -40.809811 -26.206373 31.147594  0.358446 0.933393 -0.017158  0.977569 0.333964 1 1 1.000000
chrome
0  -47.953243 -23.467365 30.954899  0.358631 0.933318 -0.017351  0.994171 0.349590 1 1 1.000000
0  -40.713459 -26.192610 34.492207  0.358381 0.933418 -0.017144  0.976592 0.296854 1 1 1.000000
0  -40.548294 -26.288956 32.551506  0.358447 0.933393 -0.017101  0.977569 0.320292 1 1 1.000000
chrome
0  -47.953243 -23.467365 30.954899  0.358631 0.933318 -0.017351  0.994171 0.349590 1 1 1.000000
0  -42.943203 -25.325487 34.629848  0.358651 0.933309 -0.017425  0.982452 0.290017 1 1 1.000000
0  -40.713459 -26.192610 34.492207  0.358381 0.933418 -0.017144  0.976592 0.296854 1 1 1.000000
chrome
0  -42.943203 -25.325487 34.629848  0.358651 0.933309 -0.017425  0.982452 0.290017 1 1 1.000000
0  -47.953243 -23.467365 30.954899  0.358631 0.933318 -0.017351  0.994171 0.349590 1 1 1.000000
0  -48.586384 -23.205854 31.711910  0.358396 0.933414 -0.017065  0.995148 0.339824 1 1 1.000000
chrome
0  -48.586384 -23.205854 31.711910  0.358396 0.933414 -0.017065  0.995148 0.339824 1 1 1.000000
0  -45.021545 -24.527184 34.492207  0.358700 0.933304 -0.016671  0.987335 0.292947 1 1 1.000000
0  -42.943203 -25.325487 34.629848  0.358651 0.933309 -0.017425  0.982452 0.290017 1 1 1.000000
chrome
0  -45.021545 -24.527184 34.492207  0.358700 0.933304 -0.016671  0.987335 0.292947 1 1 1.000000
0  -48.586384 -23.205854 31.711910  0.358396 0.933414 -0.017065  0.995148 0.339824 1 1 1.000000
0  -48.434978 -23.260908 32.441395  0.358452 0.933390 -0.017169  0.995148 0.328104 1 1 1.000000
chrome
0  -48.434978 -23.260908 32.441395  0.358452 0.933390 -0.017169  0.995148 0.328104 1 1 1.000000
0  -46.920956 -23.811464 34.051762  0.358436 0.933397 -0.017142  0.992218 0.301736 1 1 1.000000
0  -45.021545 -24.527184 34.492207  0.358700 0.933304 -0.016671  0.987335 0.292947 1 1 1.000000
chrome
0  -47.994534 -23.412312 33.280991  0.358473 0.933383 -0.017136  0.994171 0.314432 1 1 1.000000
0  -46.920956 -23.811464 34.051762  0.358436 0.933397 -0.017142  0.992218 0.301736 1 1 1.000000
0  -48.434978 -23.260908 32.441395  0.358452 0.933390 -0.017169  0.995148 0.328104 1 1 1.000000
end
