version 1
nodes
0 "blender_implicit" -1
1 "root" -1
2 "steering_wheel" 1
end
skeleton
time 0
0  0.000000 0.000000 0.000000  0.000000 -0.000000 0.000000
1  0.000000 0.000000 0.000000  1.570796 -0.000000 0.000000
2  19.104225 25.848501 19.062937  0.000000 -0.000000 0.000000
end
triangles
skin_0
0  40.644646 -24.940090 29.619797  0.625184 0.709845 0.324446  0.769555 0.700186 1 1 1.000000
0  40.809818 -25.063963 29.234411  0.788754 0.526404 -0.317436  0.769555 0.701163 1 1 1.000000
0  40.644646 -24.774923 29.151827  0.855710 0.507654 0.100240  0.603534 0.652333 1 1 1.000000
skin_0
0  40.658409 -29.193117 30.239174  -0.214496 -0.710061 -0.670675  0.208991 0.699210 1 1 1.000000
0  41.319077 -28.546217 29.977657  0.576883 -0.389210 -0.718138  0.216803 0.701163 1 1 1.000000
0  41.484241 -28.945370 30.307991  0.327646 -0.508715 -0.796151  0.210944 0.703116 1 1 1.000000
skin_0
0  41.319077 -28.546217 29.977657  0.576883 -0.389210 -0.718138  0.216803 0.701163 1 1 1.000000
0  40.658409 -29.193117 30.239174  -0.214496 -0.710061 -0.670675  0.208991 0.699210 1 1 1.000000
0  39.956455 -26.922085 28.160831  -0.182399 -0.696953 -0.693533  0.220710 0.695303 1 1 1.000000
skin_0
0  39.956455 -26.922085 28.160831  -0.182399 -0.696953 -0.693533  0.220710 0.695303 1 1 1.000000
0  40.672173 -26.619278 28.174595  0.715606 -0.337539 -0.611535  0.222663 0.699210 1 1 1.000000
0  41.319077 -28.546217 29.977657  0.576883 -0.389210 -0.718138  0.216803 0.701163 1 1 1.000000
skin_0
0  44.897678 -24.017910 30.032713  0.218921 -0.217199 -0.951261  0.233406 0.719718 1 1 1.000000
0  46.824619 -23.315956 30.321754  0.329392 -0.206747 -0.921280  0.237312 0.729484 1 1 1.000000
0  46.852146 -24.279427 30.376810  0.322410 -0.166557 -0.931832  0.233406 0.729484 1 1 1.000000
skin_0
0  46.852146 -24.279427 30.376810  0.322410 -0.166557 -0.931832  0.233406 0.729484 1 1 1.000000
0  44.911442 -25.105255 30.115297  0.213192 -0.170873 -0.961952  0.228523 0.719718 1 1 1.000000
0  44.897678 -24.017910 30.032713  0.218921 -0.217199 -0.951261  0.233406 0.719718 1 1 1.000000
skin_0
0  42.764278 -24.816216 29.729910  0.213020 -0.198492 -0.956673  0.229499 0.708975 1 1 1.000000
0  44.897678 -24.017910 30.032713  0.218921 -0.217199 -0.951261  0.233406 0.719718 1 1 1.000000
0  44.911442 -25.105255 30.115297  0.213192 -0.170873 -0.961952  0.228523 0.719718 1 1 1.000000
skin_0
0  44.911442 -25.105255 30.115297  0.213192 -0.170873 -0.961952  0.228523 0.719718 1 1 1.000000
0  42.860626 -25.972378 29.798731  0.211458 -0.162834 -0.963727  0.224616 0.709952 1 1 1.000000
0  42.764278 -24.816216 29.729910  0.213020 -0.198492 -0.956673  0.229499 0.708975 1 1 1.000000
skin_0
0  41.181438 -25.325480 29.482161  0.325894 -0.111402 -0.938820  0.227546 0.701163 1 1 1.000000
0  42.764278 -24.816216 29.729910  0.213020 -0.198492 -0.956673  0.229499 0.708975 1 1 1.000000
0  42.860626 -25.972378 29.798731  0.211458 -0.162834 -0.963727  0.224616 0.709952 1 1 1.000000
skin_0
0  42.860626 -25.972378 29.798731  0.211458 -0.162834 -0.963727  0.224616 0.709952 1 1 1.000000
0  41.594353 -26.481642 29.606033  0.308424 -0.148203 -0.939633  0.221686 0.701163 1 1 1.000000
0  41.181438 -25.325480 29.482161  0.325894 -0.111402 -0.938820  0.227546 0.701163 1 1 1.000000
skin_0
0  41.594353 -26.481642 29.606033  0.308424 -0.148203 -0.939633  0.221686 0.701163 1 1 1.000000
0  42.860626 -25.972378 29.798731  0.211458 -0.162834 -0.963727  0.224616 0.709952 1 1 1.000000
0  43.025795 -28.270941 30.541973  0.319937 -0.440044 -0.839048  0.214850 0.710929 1 1 1.000000
skin_0
0  43.025795 -28.270941 30.541973  0.319937 -0.440044 -0.839048  0.214850 0.710929 1 1 1.000000
0  41.484241 -28.945370 30.307991  0.327646 -0.508715 -0.796151  0.210944 0.703116 1 1 1.000000
0  41.594353 -26.481642 29.606033  0.308424 -0.148203 -0.939633  0.221686 0.701163 1 1 1.000000
skin_0
0  41.484241 -28.945370 30.307991  0.327646 -0.508715 -0.796151  0.210944 0.703116 1 1 1.000000
0  43.025795 -28.270941 30.541973  0.319937 -0.440044 -0.839048  0.214850 0.710929 1 1 1.000000
0  43.273544 -30.225410 32.221165  0.469249 -0.815616 -0.338490  0.204108 0.711905 1 1 1.000000
skin_0
0  43.273544 -30.225410 32.221165  0.469249 -0.815616 -0.338490  0.204108 0.711905 1 1 1.000000
0  42.062325 -30.817253 32.124821  0.374929 -0.866786 -0.328803  0.201178 0.706046 1 1 1.000000
0  41.484241 -28.945370 30.307991  0.327646 -0.508715 -0.796151  0.210944 0.703116 1 1 1.000000
skin_0
0  40.658409 -29.193117 30.239174  -0.214496 -0.710061 -0.670675  0.208991 0.699210 1 1 1.000000
0  41.484241 -28.945370 30.307991  0.327646 -0.508715 -0.796151  0.210944 0.703116 1 1 1.000000
0  42.062325 -30.817253 32.124821  0.374929 -0.866786 -0.328803  0.201178 0.706046 1 1 1.000000
skin_0
0  42.062325 -30.817253 32.124821  0.374929 -0.866786 -0.328803  0.201178 0.706046 1 1 1.000000
0  41.360371 -31.065001 32.124821  -0.056667 -0.970086 -0.236053  0.200201 0.702139 1 1 1.000000
0  40.658409 -29.193117 30.239174  -0.214496 -0.710061 -0.670675  0.208991 0.699210 1 1 1.000000
skin_0
0  44.938969 -27.279945 30.748434  0.334623 -0.433291 -0.836831  0.219733 0.719718 1 1 1.000000
0  43.025795 -28.270941 30.541973  0.319937 -0.440044 -0.839048  0.214850 0.710929 1 1 1.000000
0  42.860626 -25.972378 29.798731  0.211458 -0.162834 -0.963727  0.224616 0.709952 1 1 1.000000
skin_0
0  42.860626 -25.972378 29.798731  0.211458 -0.162834 -0.963727  0.224616 0.709952 1 1 1.000000
0  44.911442 -25.105255 30.115297  0.213192 -0.170873 -0.961952  0.228523 0.719718 1 1 1.000000
0  44.938969 -27.279945 30.748434  0.334623 -0.433291 -0.836831  0.219733 0.719718 1 1 1.000000
skin_0
0  46.783329 -26.275183 30.982418  0.432350 -0.425930 -0.794769  0.224616 0.728507 1 1 1.000000
0  44.938969 -27.279945 30.748434  0.334623 -0.433291 -0.836831  0.219733 0.719718 1 1 1.000000
0  44.911442 -25.105255 30.115297  0.213192 -0.170873 -0.961952  0.228523 0.719718 1 1 1.000000
skin_0
0  44.911442 -25.105255 30.115297  0.213192 -0.170873 -0.961952  0.228523 0.719718 1 1 1.000000
0  46.852146 -24.279427 30.376810  0.322410 -0.166557 -0.931832  0.233406 0.729484 1 1 1.000000
0  46.783329 -26.275183 30.982418  0.432350 -0.425930 -0.794769  0.224616 0.728507 1 1 1.000000
skin_0
0  48.201004 -25.242895 31.409098  0.693918 -0.342073 -0.633612  0.230476 0.736320 1 1 1.000000
0  46.783329 -26.275183 30.982418  0.432350 -0.425930 -0.794769  0.224616 0.728507 1 1 1.000000
0  46.852146 -24.279427 30.376810  0.322410 -0.166557 -0.931832  0.233406 0.729484 1 1 1.000000
skin_0
0  46.852146 -24.279427 30.376810  0.322410 -0.166557 -0.931832  0.233406 0.729484 1 1 1.000000
0  48.324875 -23.508650 30.968655  0.653507 -0.136174 -0.744571  0.237312 0.736320 1 1 1.000000
0  48.201004 -25.242895 31.409098  0.693918 -0.342073 -0.633612  0.230476 0.736320 1 1 1.000000
skin_0
0  48.324875 -23.508650 30.968655  0.653507 -0.136174 -0.744571  0.237312 0.736320 1 1 1.000000
0  46.852146 -24.279427 30.376810  0.322410 -0.166557 -0.931832  0.233406 0.729484 1 1 1.000000
0  46.824619 -23.315956 30.321754  0.329392 -0.206747 -0.921280  0.237312 0.729484 1 1 1.000000
skin_0
0  46.824619 -23.315956 30.321754  0.329392 -0.206747 -0.921280  0.237312 0.729484 1 1 1.000000
0  48.311111 -22.696583 30.899837  0.651907 -0.139221 -0.745409  0.240242 0.736320 1 1 1.000000
0  48.324875 -23.508650 30.968655  0.653507 -0.136174 -0.744571  0.237312 0.736320 1 1 1.000000
skin_0
0  48.311111 -22.696583 30.899837  0.651907 -0.139221 -0.745409  0.240242 0.736320 1 1 1.000000
0  46.824619 -23.315956 30.321754  0.329392 -0.206747 -0.921280  0.237312 0.729484 1 1 1.000000
0  46.852146 -22.903040 30.156588  0.131526 0.359302 -0.923907  0.239265 0.729484 1 1 1.000000
skin_0
0  46.852146 -22.903040 30.156588  0.131526 0.359302 -0.923907  0.239265 0.729484 1 1 1.000000
0  46.824619 -23.315956 30.321754  0.329392 -0.206747 -0.921280  0.237312 0.729484 1 1 1.000000
0  44.897678 -24.017910 30.032713  0.218921 -0.217199 -0.951261  0.233406 0.719718 1 1 1.000000
skin_0
0  44.897678 -24.017910 30.032713  0.218921 -0.217199 -0.951261  0.233406 0.719718 1 1 1.000000
0  44.883915 -23.632523 29.881311  0.005125 0.351450 -0.936193  0.235359 0.719718 1 1 1.000000
0  46.852146 -22.903040 30.156588  0.131526 0.359302 -0.923907  0.239265 0.729484 1 1 1.000000
skin_0
0  44.883915 -23.632523 29.881311  0.005125 0.351450 -0.936193  0.235359 0.719718 1 1 1.000000
0  44.897678 -24.017910 30.032713  0.218921 -0.217199 -0.951261  0.233406 0.719718 1 1 1.000000
0  42.764278 -24.816216 29.729910  0.213020 -0.198492 -0.956673  0.229499 0.708975 1 1 1.000000
skin_0
0  42.764278 -24.816216 29.729910  0.213020 -0.198492 -0.956673  0.229499 0.708975 1 1 1.000000
0  42.736752 -24.417065 29.564743  -0.017573 0.380397 -0.924657  0.231452 0.708975 1 1 1.000000
0  44.883915 -23.632523 29.881311  0.005125 0.351450 -0.936193  0.235359 0.719718 1 1 1.000000
skin_0
0  42.736752 -24.417065 29.564743  -0.017573 0.380397 -0.924657  0.231452 0.708975 1 1 1.000000
0  42.764278 -24.816216 29.729910  0.213020 -0.198492 -0.956673  0.229499 0.708975 1 1 1.000000
0  41.181438 -25.325480 29.482161  0.325894 -0.111402 -0.938820  0.227546 0.701163 1 1 1.000000
skin_0
0  41.181438 -25.325480 29.482161  0.325894 -0.111402 -0.938820  0.227546 0.701163 1 1 1.000000
0  41.071327 -25.050200 29.372051  0.247613 0.392570 -0.885763  0.229499 0.700186 1 1 1.000000
0  42.736752 -24.417065 29.564743  -0.017573 0.380397 -0.924657  0.231452 0.708975 1 1 1.000000
skin_0
0  40.809818 -25.063963 29.234411  0.788754 0.526404 -0.317436  0.229499 0.699210 1 1 1.000000
0  41.071327 -25.050200 29.372051  0.247613 0.392570 -0.885763  0.229499 0.700186 1 1 1.000000
0  41.181438 -25.325480 29.482161  0.325894 -0.111402 -0.938820  0.227546 0.701163 1 1 1.000000
skin_0
0  41.181438 -25.325480 29.482161  0.325894 -0.111402 -0.938820  0.227546 0.701163 1 1 1.000000
0  40.919926 -25.435589 29.358288  0.810686 0.141431 -0.568142  0.227546 0.700186 1 1 1.000000
0  40.809818 -25.063963 29.234411  0.788754 0.526404 -0.317436  0.229499 0.699210 1 1 1.000000
skin_0
0  40.919926 -25.435589 29.358288  0.810686 0.141431 -0.568142  0.227546 0.700186 1 1 1.000000
0  41.181438 -25.325480 29.482161  0.325894 -0.111402 -0.938820  0.227546 0.701163 1 1 1.000000
0  41.594353 -26.481642 29.606033  0.308424 -0.148203 -0.939633  0.221686 0.701163 1 1 1.000000
skin_0
0  41.594353 -26.481642 29.606033  0.308424 -0.148203 -0.939633  0.221686 0.701163 1 1 1.000000
0  41.332840 -26.577988 29.495924  0.679420 -0.098581 -0.727097  0.221686 0.701163 1 1 1.000000
0  40.919926 -25.435589 29.358288  0.810686 0.141431 -0.568142  0.227546 0.700186 1 1 1.000000
skin_0
0  41.332840 -26.577988 29.495924  0.679420 -0.098581 -0.727097  0.221686 0.701163 1 1 1.000000
0  41.594353 -26.481642 29.606033  0.308424 -0.148203 -0.939633  0.221686 0.701163 1 1 1.000000
0  41.484241 -28.945370 30.307991  0.327646 -0.508715 -0.796151  0.210944 0.703116 1 1 1.000000
skin_0
0  41.484241 -28.945370 30.307991  0.327646 -0.508715 -0.796151  0.210944 0.703116 1 1 1.000000
0  41.319077 -28.546217 29.977657  0.576883 -0.389210 -0.718138  0.215827 0.702139 1 1 1.000000
0  41.332840 -26.577988 29.495924  0.679420 -0.098581 -0.727097  0.221686 0.701163 1 1 1.000000
skin_0
0  46.852146 -22.903040 30.156588  0.131526 0.359302 -0.923907  0.239265 0.729484 1 1 1.000000
0  48.269821 -22.338724 30.789726  0.410160 0.502619 -0.761014  0.241218 0.735343 1 1 1.000000
0  48.311111 -22.696583 30.899837  0.651907 -0.139221 -0.745409  0.240242 0.736320 1 1 1.000000
skin_0
0  44.938969 -27.279945 30.748434  0.334623 -0.433291 -0.836831  0.219733 0.719718 1 1 1.000000
0  46.783329 -26.275183 30.982418  0.432350 -0.425930 -0.794769  0.224616 0.728507 1 1 1.000000
0  46.631924 -28.009428 32.331280  0.624222 -0.723221 -0.295463  0.214850 0.728507 1 1 1.000000
skin_0
0  46.631924 -28.009428 32.331280  0.624222 -0.723221 -0.295463  0.214850 0.728507 1 1 1.000000
0  44.994026 -29.179354 32.289982  0.524078 -0.782631 -0.335904  0.208991 0.720695 1 1 1.000000
0  44.938969 -27.279945 30.748434  0.334623 -0.433291 -0.836831  0.219733 0.719718 1 1 1.000000
skin_0
0  43.025795 -28.270941 30.541973  0.319937 -0.440044 -0.839048  0.214850 0.710929 1 1 1.000000
0  44.938969 -27.279945 30.748434  0.334623 -0.433291 -0.836831  0.219733 0.719718 1 1 1.000000
0  44.994026 -29.179354 32.289982  0.524078 -0.782631 -0.335904  0.208991 0.720695 1 1 1.000000
skin_0
0  44.994026 -29.179354 32.289982  0.524078 -0.782631 -0.335904  0.208991 0.720695 1 1 1.000000
0  43.273544 -30.225410 32.221165  0.469249 -0.815616 -0.338490  0.204108 0.711905 1 1 1.000000
0  43.025795 -28.270941 30.541973  0.319937 -0.440044 -0.839048  0.214850 0.710929 1 1 1.000000
skin_0
0  40.919926 -25.600756 28.615038  0.967892 0.087003 -0.235828  0.268563 0.554674 1 1 1.000000
0  40.672173 -26.619278 28.174595  0.620623 -0.407683 -0.669792  0.222663 0.540025 1 1 1.000000
0  40.011509 -24.141787 26.206366  0.781542 -0.266115 -0.564248  0.232429 0.532212 1 1 1.000000
skin_0
0  39.956455 -23.880274 25.999905  0.916790 -0.107803 -0.384546  0.234382 0.531236 1 1 1.000000
0  39.873871 -22.503889 26.178839  0.819595 0.317513 -0.476917  0.239265 0.532212 1 1 1.000000
0  40.066566 -22.696583 26.371529  0.916804 0.223307 -0.331064  0.238289 0.533189 1 1 1.000000
skin_0
0  40.066566 -22.696583 26.371529  0.916804 0.223307 -0.331064  0.238289 0.533189 1 1 1.000000
0  40.011509 -24.141787 26.206366  0.781542 -0.266115 -0.564248  0.232429 0.532212 1 1 1.000000
0  39.956455 -23.880274 25.999905  0.916790 -0.107803 -0.384546  0.234382 0.531236 1 1 1.000000
skin_0
0  40.011509 -24.141787 26.206366  0.781542 -0.266115 -0.564248  0.232429 0.532212 1 1 1.000000
0  40.066566 -22.696583 26.371529  0.916804 0.223307 -0.331064  0.238289 0.533189 1 1 1.000000
0  40.919926 -25.600756 28.615038  0.967892 0.087003 -0.235828  0.268563 0.554674 1 1 1.000000
skin_0
0  40.644646 -24.774923 29.151827  0.919903 0.370585 0.128237  0.310556 0.568346 1 1 1.000000
0  40.919926 -25.600756 28.615038  0.967892 0.087003 -0.235828  0.268563 0.554674 1 1 1.000000
0  40.066566 -22.696583 26.371529  0.916804 0.223307 -0.331064  0.238289 0.533189 1 1 1.000000
skin_0
0  40.066566 -22.696583 26.371529  0.916804 0.223307 -0.331064  0.238289 0.533189 1 1 1.000000
0  39.749996 -21.678057 26.729391  0.885270 0.463821 -0.034151  0.244148 0.534166 1 1 1.000000
0  40.644646 -24.774923 29.151827  0.919903 0.370585 0.128237  0.310556 0.568346 1 1 1.000000
skin_0
0  40.066566 -24.059202 29.716146  0.803165 0.493060 0.334391  0.234382 0.547838 1 1 1.000000
0  40.644646 -24.774923 29.151827  0.919903 0.370585 0.128237  0.310556 0.568346 1 1 1.000000
0  39.749996 -21.678057 26.729391  0.885270 0.463821 -0.034151  0.244148 0.534166 1 1 1.000000
skin_0
0  39.749996 -21.678057 26.729391  0.885270 0.463821 -0.034151  0.244148 0.534166 1 1 1.000000
0  39.103096 -20.838465 27.279945  0.769273 0.614553 0.174768  0.249031 0.537095 1 1 1.000000
0  40.066566 -24.059202 29.716146  0.803165 0.493060 0.334391  0.234382 0.547838 1 1 1.000000
skin_0
0  39.364613 -23.494886 30.252937  0.189800 0.631089 0.752132  0.238289 0.549791 1 1 1.000000
0  40.066566 -24.059202 29.716146  0.803165 0.493060 0.334391  0.234382 0.547838 1 1 1.000000
0  39.103096 -20.838465 27.279945  0.769273 0.614553 0.174768  0.249031 0.537095 1 1 1.000000
skin_0
0  39.103096 -20.838465 27.279945  0.769273 0.614553 0.174768  0.249031 0.537095 1 1 1.000000
0  38.442432 -20.301672 27.816734  0.082699 0.832598 0.547670  0.251961 0.539048 1 1 1.000000
0  39.364613 -23.494886 30.252937  0.189800 0.631089 0.752132  0.238289 0.549791 1 1 1.000000
skin_0
0  38.442432 -20.301672 27.816734  0.082699 0.832598 0.547670  0.251961 0.539048 1 1 1.000000
0  39.103096 -20.838465 27.279945  0.769273 0.614553 0.174768  0.249031 0.537095 1 1 1.000000
0  38.992985 -20.728352 27.004667  0.731690 0.681599 0.007286  0.249031 0.536119 1 1 1.000000
skin_0
0  38.992985 -20.728352 27.004667  0.731690 0.681599 0.007286  0.249031 0.536119 1 1 1.000000
0  38.373615 -20.164034 27.513927  0.252878 0.909085 0.331086  0.251961 0.538072 1 1 1.000000
0  38.442432 -20.301672 27.816734  0.082699 0.832598 0.547670  0.251961 0.539048 1 1 1.000000
skin_0
0  39.749996 -21.678057 26.729391  0.885270 0.463821 -0.034151  0.244148 0.534166 1 1 1.000000
0  40.066566 -22.696583 26.371529  0.916804 0.223307 -0.331064  0.238289 0.533189 1 1 1.000000
0  39.873871 -22.503889 26.178839  0.819595 0.317513 -0.476917  0.239265 0.532212 1 1 1.000000
skin_0
0  39.873871 -22.503889 26.178839  0.819595 0.317513 -0.476917  0.239265 0.532212 1 1 1.000000
0  39.584835 -21.512892 26.509169  0.821404 0.541248 -0.179852  0.245125 0.533189 1 1 1.000000
0  39.749996 -21.678057 26.729391  0.885270 0.463821 -0.034151  0.244148 0.534166 1 1 1.000000
skin_0
0  39.103096 -20.838465 27.279945  0.769273 0.614553 0.174768  0.249031 0.537095 1 1 1.000000
0  39.749996 -21.678057 26.729391  0.885270 0.463821 -0.034151  0.244148 0.534166 1 1 1.000000
0  39.584835 -21.512892 26.509169  0.821404 0.541248 -0.179852  0.245125 0.533189 1 1 1.000000
skin_0
0  39.584835 -21.512892 26.509169  0.821404 0.541248 -0.179852  0.245125 0.533189 1 1 1.000000
0  38.992985 -20.728352 27.004667  0.731690 0.681599 0.007286  0.249031 0.536119 1 1 1.000000
0  39.103096 -20.838465 27.279945  0.769273 0.614553 0.174768  0.249031 0.537095 1 1 1.000000
skin_0
0  39.474724 -24.898796 31.243933  -0.839476 0.261886 0.476126  0.769555 0.555650 1 1 1.000000
0  39.034279 -23.742634 30.211641  -0.751954 0.257268 0.606941  0.763695 0.550768 1 1 1.000000
0  39.006748 -24.527176 29.798731  -0.965815 -0.120243 0.229656  0.767602 0.548814 1 1 1.000000
skin_0
0  39.130623 -25.697102 29.124300  -0.972407 -0.217966 0.083157  0.773461 0.544908 1 1 1.000000
0  39.405903 -26.674335 28.532454  -0.856588 -0.464060 -0.225624  0.777367 0.541978 1 1 1.000000
0  40.025276 -28.766438 30.555742  -0.852918 -0.477878 -0.210152  0.789087 0.552721 1 1 1.000000
skin_0
0  40.025276 -28.766438 30.555742  -0.852918 -0.477878 -0.210152  0.789087 0.552721 1 1 1.000000
0  39.777523 -27.775444 31.175114  -0.973671 -0.209969 0.088752  0.784204 0.555650 1 1 1.000000
0  39.130623 -25.697102 29.124300  -0.972407 -0.217966 0.083157  0.773461 0.544908 1 1 1.000000
skin_0
0  39.006748 -24.527176 29.798731  -0.965815 -0.120243 0.229656  0.767602 0.548814 1 1 1.000000
0  39.130623 -25.697102 29.124300  -0.972407 -0.217966 0.083157  0.773461 0.544908 1 1 1.000000
0  39.777523 -27.775444 31.175114  -0.973671 -0.209969 0.088752  0.784204 0.555650 1 1 1.000000
skin_0
0  39.777523 -27.775444 31.175114  -0.973671 -0.209969 0.088752  0.784204 0.555650 1 1 1.000000
0  39.694942 -26.509169 31.932123  -0.980236 -0.115911 0.160320  0.777367 0.559557 1 1 1.000000
0  39.006748 -24.527176 29.798731  -0.965815 -0.120243 0.229656  0.767602 0.548814 1 1 1.000000
skin_0
0  39.474724 -24.898796 31.243933  -0.839476 0.261886 0.476126  0.769555 0.555650 1 1 1.000000
0  39.006748 -24.527176 29.798731  -0.965815 -0.120243 0.229656  0.767602 0.548814 1 1 1.000000
0  39.694942 -26.509169 31.932123  -0.980236 -0.115911 0.160320  0.777367 0.559557 1 1 1.000000
skin_0
0  39.474724 -24.898796 31.243933  -0.839476 0.261886 0.476126  0.769555 0.555650 1 1 1.000000
0  39.694942 -26.509169 31.932123  -0.980236 -0.115911 0.160320  0.777367 0.559557 1 1 1.000000
0  39.694942 -25.765919 32.303745  -0.982557 -0.003965 0.185919  0.774438 0.560533 1 1 1.000000
skin_0
0  39.474724 -24.898796 31.243933  -0.839476 0.261886 0.476126  0.769555 0.555650 1 1 1.000000
0  39.694942 -25.765919 32.303745  -0.982557 -0.003965 0.185919  0.774438 0.560533 1 1 1.000000
0  39.763760 -25.504406 32.468914  -0.765803 0.532183 0.361008  0.773461 0.561510 1 1 1.000000
skin_0
0  39.763760 -25.504406 32.468914  -0.765803 0.532183 0.361008  0.773461 0.561510 1 1 1.000000
0  39.694942 -25.765919 32.303745  -0.982557 -0.003965 0.185919  0.774438 0.560533 1 1 1.000000
0  40.052803 -25.999905 34.216927  -0.838160 -0.051480 0.542989  0.775414 0.570299 1 1 1.000000
skin_0
0  40.052803 -25.999905 34.216927  -0.838160 -0.051480 0.542989  0.775414 0.570299 1 1 1.000000
0  40.052803 -25.697102 34.203163  -0.744146 0.516833 0.423239  0.774438 0.570299 1 1 1.000000
0  39.763760 -25.504406 32.468914  -0.765803 0.532183 0.361008  0.773461 0.561510 1 1 1.000000
skin_0
0  39.777523 -27.775444 31.175114  -0.973671 -0.209969 0.088752  0.784204 0.555650 1 1 1.000000
0  40.025276 -28.766438 30.555742  -0.852918 -0.477878 -0.210152  0.789087 0.552721 1 1 1.000000
0  40.672173 -30.789726 32.400097  -0.667404 -0.737526 0.103083  0.797876 0.561510 1 1 1.000000
skin_0
0  40.672173 -30.789726 32.400097  -0.667404 -0.737526 0.103083  0.797876 0.561510 1 1 1.000000
0  40.245499 -29.206881 33.294746  -0.821051 -0.341105 0.457736  0.791040 0.565416 1 1 1.000000
0  39.777523 -27.775444 31.175114  -0.973671 -0.209969 0.088752  0.784204 0.555650 1 1 1.000000
skin_0
0  39.694942 -26.509169 31.932123  -0.980236 -0.115911 0.160320  0.777367 0.559557 1 1 1.000000
0  39.777523 -27.775444 31.175114  -0.973671 -0.209969 0.088752  0.784204 0.555650 1 1 1.000000
0  40.245499 -29.206881 33.294746  -0.821051 -0.341105 0.457736  0.791040 0.565416 1 1 1.000000
skin_0
0  40.245499 -29.206881 33.294746  -0.821051 -0.341105 0.457736  0.791040 0.565416 1 1 1.000000
0  40.066566 -27.073488 33.914120  -0.858911 -0.191523 0.474965  0.780297 0.568346 1 1 1.000000
0  39.694942 -26.509169 31.932123  -0.980236 -0.115911 0.160320  0.777367 0.559557 1 1 1.000000
skin_0
0  39.694942 -25.765919 32.303745  -0.982557 -0.003965 0.185919  0.774438 0.560533 1 1 1.000000
0  39.694942 -26.509169 31.932123  -0.980236 -0.115911 0.160320  0.777367 0.559557 1 1 1.000000
0  40.066566 -27.073488 33.914120  -0.858911 -0.191523 0.474965  0.780297 0.568346 1 1 1.000000
skin_0
0  40.066566 -27.073488 33.914120  -0.858911 -0.191523 0.474965  0.780297 0.568346 1 1 1.000000
0  40.052803 -25.999905 34.216927  -0.838160 -0.051480 0.542989  0.775414 0.570299 1 1 1.000000
0  39.694942 -25.765919 32.303745  -0.982557 -0.003965 0.185919  0.774438 0.560533 1 1 1.000000
skin_0
0  40.245499 -29.206881 33.294746  -0.821051 -0.341105 0.457736  0.791040 0.697256 1 1 1.000000
0  40.672173 -30.789726 32.400097  -0.667404 -0.737526 0.103083  0.797876 0.699210 1 1 1.000000
0  41.030037 -30.762197 32.675373  -0.146437 -0.712247 0.686485  0.797876 0.701163 1 1 1.000000
skin_0
0  48.173477 -22.806694 33.693897  0.663929 -0.022999 0.747441  0.759789 0.736320 1 1 1.000000
0  48.173477 -22.517653 33.680134  0.369549 0.634105 0.679223  0.757836 0.736320 1 1 1.000000
0  46.948490 -23.013149 34.354561  0.072908 0.604892 0.792963  0.760765 0.730461 1 1 1.000000
skin_0
0  46.948490 -23.013149 34.354561  0.072908 0.604892 0.792963  0.760765 0.730461 1 1 1.000000
0  46.934727 -23.315956 34.354561  0.359998 -0.065491 0.930651  0.762719 0.729484 1 1 1.000000
0  48.173477 -22.806694 33.693897  0.663929 -0.022999 0.747441  0.759789 0.736320 1 1 1.000000
skin_0
0  46.934727 -23.315956 34.354561  0.359998 -0.065491 0.930651  0.762719 0.729484 1 1 1.000000
0  46.948490 -23.013149 34.354561  0.072908 0.604892 0.792963  0.760765 0.730461 1 1 1.000000
0  44.938969 -23.811457 34.781242  -0.117926 0.614285 0.780223  0.764672 0.719718 1 1 1.000000
skin_0
0  44.938969 -23.811457 34.781242  -0.117926 0.614285 0.780223  0.764672 0.719718 1 1 1.000000
0  44.938969 -24.114260 34.795006  0.158630 -0.062797 0.985339  0.766625 0.719718 1 1 1.000000
0  46.934727 -23.315956 34.354561  0.359998 -0.065491 0.930651  0.762719 0.729484 1 1 1.000000
skin_0
0  44.938969 -24.114260 34.795006  0.158630 -0.062797 0.985339  0.766625 0.719718 1 1 1.000000
0  44.938969 -23.811457 34.781242  -0.117926 0.614285 0.780223  0.764672 0.719718 1 1 1.000000
0  42.888157 -24.595993 34.918880  -0.229836 0.620737 0.749573  0.768578 0.709952 1 1 1.000000
skin_0
0  42.888157 -24.595993 34.918880  -0.229836 0.620737 0.749573  0.768578 0.709952 1 1 1.000000
0  42.888157 -24.898796 34.932644  0.026462 -0.073896 0.996915  0.770531 0.709952 1 1 1.000000
0  44.938969 -24.114260 34.795006  0.158630 -0.062797 0.985339  0.766625 0.719718 1 1 1.000000
skin_0
0  42.888157 -24.898796 34.932644  0.026462 -0.073896 0.996915  0.770531 0.709952 1 1 1.000000
0  42.888157 -24.595993 34.918880  -0.229836 0.620737 0.749573  0.768578 0.709952 1 1 1.000000
0  41.442951 -25.132786 34.822533  -0.364618 0.645686 0.670927  0.771508 0.703116 1 1 1.000000
skin_0
0  41.442951 -25.132786 34.822533  -0.364618 0.645686 0.670927  0.771508 0.703116 1 1 1.000000
0  41.456715 -25.435589 34.836296  -0.089857 -0.072632 0.993303  0.772485 0.703116 1 1 1.000000
0  42.888157 -24.898796 34.932644  0.026462 -0.073896 0.996915  0.770531 0.709952 1 1 1.000000
skin_0
0  41.456715 -25.435589 34.836296  -0.089857 -0.072632 0.993303  0.772485 0.703116 1 1 1.000000
0  41.442951 -25.132786 34.822533  -0.364618 0.645686 0.670927  0.771508 0.703116 1 1 1.000000
0  40.685940 -25.531935 34.698658  -0.481826 0.555547 0.677651  0.772485 0.699210 1 1 1.000000
skin_0
0  40.685940 -25.531935 34.698658  -0.481826 0.555547 0.677651  0.772485 0.699210 1 1 1.000000
0  40.672173 -25.820976 34.684895  -0.369134 -0.095446 0.924462  0.774438 0.699210 1 1 1.000000
0  41.456715 -25.435589 34.836296  -0.089857 -0.072632 0.993303  0.772485 0.703116 1 1 1.000000
skin_0
0  40.672173 -25.820976 34.684895  -0.369134 -0.095446 0.924462  0.774438 0.699210 1 1 1.000000
0  40.685940 -25.531935 34.698658  -0.481826 0.555547 0.677651  0.772485 0.699210 1 1 1.000000
0  40.052803 -25.697102 34.203163  -0.744146 0.516833 0.423239  0.774438 0.696280 1 1 1.000000
skin_0
0  40.052803 -25.697102 34.203163  -0.744146 0.516833 0.423239  0.774438 0.696280 1 1 1.000000
0  40.052803 -25.999905 34.216927  -0.838160 -0.051480 0.542989  0.775414 0.696280 1 1 1.000000
0  40.672173 -25.820976 34.684895  -0.369134 -0.095446 0.924462  0.774438 0.699210 1 1 1.000000
skin_0
0  40.727230 -26.963375 34.505962  -0.326440 -0.268649 0.906236  0.780297 0.699210 1 1 1.000000
0  40.672173 -25.820976 34.684895  -0.369134 -0.095446 0.924462  0.774438 0.699210 1 1 1.000000
0  40.052803 -25.999905 34.216927  -0.838160 -0.051480 0.542989  0.775414 0.696280 1 1 1.000000
skin_0
0  40.052803 -25.999905 34.216927  -0.838160 -0.051480 0.542989  0.775414 0.696280 1 1 1.000000
0  40.066566 -27.073488 33.914120  -0.858911 -0.191523 0.474965  0.780297 0.696280 1 1 1.000000
0  40.727230 -26.963375 34.505962  -0.326440 -0.268649 0.906236  0.780297 0.699210 1 1 1.000000
skin_0
0  40.809818 -29.261938 33.680134  -0.254540 -0.453573 0.854097  0.791040 0.700186 1 1 1.000000
0  40.727230 -26.963375 34.505962  -0.326440 -0.268649 0.906236  0.780297 0.699210 1 1 1.000000
0  40.066566 -27.073488 33.914120  -0.858911 -0.191523 0.474965  0.780297 0.696280 1 1 1.000000
skin_0
0  40.066566 -27.073488 33.914120  -0.858911 -0.191523 0.474965  0.780297 0.696280 1 1 1.000000
0  40.245499 -29.206881 33.294746  -0.821051 -0.341105 0.457736  0.791040 0.697256 1 1 1.000000
0  40.809818 -29.261938 33.680134  -0.254540 -0.453573 0.854097  0.791040 0.700186 1 1 1.000000
skin_0
0  41.030037 -30.762197 32.675373  -0.146437 -0.712247 0.686485  0.797876 0.701163 1 1 1.000000
0  40.809818 -29.261938 33.680134  -0.254540 -0.453573 0.854097  0.791040 0.700186 1 1 1.000000
0  40.245499 -29.206881 33.294746  -0.821051 -0.341105 0.457736  0.791040 0.697256 1 1 1.000000
skin_0
0  41.731995 -28.945370 33.762718  0.119754 -0.457322 0.881201  0.790063 0.704093 1 1 1.000000
0  40.809818 -29.261938 33.680134  -0.254540 -0.453573 0.854097  0.791040 0.700186 1 1 1.000000
0  41.030037 -30.762197 32.675373  -0.146437 -0.712247 0.686485  0.797876 0.701163 1 1 1.000000
skin_0
0  48.173477 -23.536179 33.611313  0.685156 -0.132862 0.716176  0.763695 0.736320 1 1 1.000000
0  48.173477 -22.806694 33.693897  0.663929 -0.022999 0.747441  0.759789 0.736320 1 1 1.000000
0  46.934727 -23.315956 34.354561  0.359998 -0.065491 0.930651  0.762719 0.729484 1 1 1.000000
skin_0
0  46.934727 -23.315956 34.354561  0.359998 -0.065491 0.930651  0.762719 0.729484 1 1 1.000000
0  46.865910 -24.293190 34.244453  0.387157 -0.206714 0.898542  0.766625 0.729484 1 1 1.000000
0  48.173477 -23.536179 33.611313  0.685156 -0.132862 0.716176  0.763695 0.736320 1 1 1.000000
skin_0
0  46.865910 -24.293190 34.244453  0.387157 -0.206714 0.898542  0.766625 0.729484 1 1 1.000000
0  46.934727 -23.315956 34.354561  0.359998 -0.065491 0.930651  0.762719 0.729484 1 1 1.000000
0  44.938969 -24.114260 34.795006  0.158630 -0.062797 0.985339  0.766625 0.719718 1 1 1.000000
skin_0
0  44.938969 -24.114260 34.795006  0.158630 -0.062797 0.985339  0.766625 0.719718 1 1 1.000000
0  44.938969 -25.201603 34.602310  0.225647 -0.255600 0.940081  0.771508 0.719718 1 1 1.000000
0  46.865910 -24.293190 34.244453  0.387157 -0.206714 0.898542  0.766625 0.729484 1 1 1.000000
skin_0
0  44.938969 -25.201603 34.602310  0.225647 -0.255600 0.940081  0.771508 0.719718 1 1 1.000000
0  44.938969 -24.114260 34.795006  0.158630 -0.062797 0.985339  0.766625 0.719718 1 1 1.000000
0  42.888157 -24.898796 34.932644  0.026462 -0.073896 0.996915  0.770531 0.709952 1 1 1.000000
skin_0
0  42.888157 -24.898796 34.932644  0.026462 -0.073896 0.996915  0.770531 0.709952 1 1 1.000000
0  42.943211 -26.054962 34.712421  0.105118 -0.264475 0.958647  0.775414 0.709952 1 1 1.000000
0  44.938969 -25.201603 34.602310  0.225647 -0.255600 0.940081  0.771508 0.719718 1 1 1.000000
skin_0
0  42.943211 -26.054962 34.712421  0.105118 -0.264475 0.958647  0.775414 0.709952 1 1 1.000000
0  42.888157 -24.898796 34.932644  0.026462 -0.073896 0.996915  0.770531 0.709952 1 1 1.000000
0  41.456715 -25.435589 34.836296  -0.089857 -0.072632 0.993303  0.772485 0.703116 1 1 1.000000
skin_0
0  41.456715 -25.435589 34.836296  -0.089857 -0.072632 0.993303  0.772485 0.703116 1 1 1.000000
0  41.539295 -26.605515 34.629841  0.007149 -0.256950 0.966398  0.778344 0.703116 1 1 1.000000
0  42.943211 -26.054962 34.712421  0.105118 -0.264475 0.958647  0.775414 0.709952 1 1 1.000000
skin_0
0  41.539295 -26.605515 34.629841  0.007149 -0.256950 0.966398  0.778344 0.703116 1 1 1.000000
0  41.456715 -25.435589 34.836296  -0.089857 -0.072632 0.993303  0.772485 0.703116 1 1 1.000000
0  40.672173 -25.820976 34.684895  -0.369134 -0.095446 0.924462  0.774438 0.699210 1 1 1.000000
skin_0
0  40.672173 -25.820976 34.684895  -0.369134 -0.095446 0.924462  0.774438 0.699210 1 1 1.000000
0  40.727230 -26.963375 34.505962  -0.326440 -0.268649 0.906236  0.780297 0.699210 1 1 1.000000
0  41.539295 -26.605515 34.629841  0.007149 -0.256950 0.966398  0.778344 0.703116 1 1 1.000000
skin_0
0  46.865910 -24.293190 34.244453  0.387157 -0.206714 0.898542  0.766625 0.729484 1 1 1.000000
0  44.938969 -25.201603 34.602310  0.225647 -0.255600 0.940081  0.771508 0.719718 1 1 1.000000
0  44.925205 -27.390055 33.804008  0.291517 -0.437121 0.850849  0.782250 0.719718 1 1 1.000000
skin_0
0  44.925205 -27.390055 33.804008  0.291517 -0.437121 0.850849  0.782250 0.719718 1 1 1.000000
0  44.938969 -25.201603 34.602310  0.225647 -0.255600 0.940081  0.771508 0.719718 1 1 1.000000
0  42.943211 -26.054962 34.712421  0.105118 -0.264475 0.958647  0.775414 0.709952 1 1 1.000000
skin_0
0  42.943211 -26.054962 34.712421  0.105118 -0.264475 0.958647  0.775414 0.709952 1 1 1.000000
0  43.039558 -28.394815 33.831535  0.200447 -0.457431 0.866359  0.787133 0.710929 1 1 1.000000
0  44.925205 -27.390055 33.804008  0.291517 -0.437121 0.850849  0.782250 0.719718 1 1 1.000000
skin_0
0  43.039558 -28.394815 33.831535  0.200447 -0.457431 0.866359  0.787133 0.710929 1 1 1.000000
0  42.943211 -26.054962 34.712421  0.105118 -0.264475 0.958647  0.775414 0.709952 1 1 1.000000
0  41.539295 -26.605515 34.629841  0.007149 -0.256950 0.966398  0.778344 0.703116 1 1 1.000000
skin_0
0  41.539295 -26.605515 34.629841  0.007149 -0.256950 0.966398  0.778344 0.703116 1 1 1.000000
0  41.731995 -28.945370 33.762718  0.119754 -0.457322 0.881201  0.790063 0.704093 1 1 1.000000
0  43.039558 -28.394815 33.831535  0.200447 -0.457431 0.866359  0.787133 0.710929 1 1 1.000000
skin_0
0  41.731995 -28.945370 33.762718  0.119754 -0.457322 0.881201  0.790063 0.704093 1 1 1.000000
0  41.539295 -26.605515 34.629841  0.007149 -0.256950 0.966398  0.778344 0.703116 1 1 1.000000
0  40.727230 -26.963375 34.505962  -0.326440 -0.268649 0.906236  0.780297 0.699210 1 1 1.000000
skin_0
0  40.727230 -26.963375 34.505962  -0.326440 -0.268649 0.906236  0.780297 0.699210 1 1 1.000000
0  40.809818 -29.261938 33.680134  -0.254540 -0.453573 0.854097  0.791040 0.700186 1 1 1.000000
0  41.731995 -28.945370 33.762718  0.119754 -0.457322 0.881201  0.790063 0.704093 1 1 1.000000
skin_0
0  41.442951 -30.954891 32.427624  0.104430 -0.829276 0.548995  0.798853 0.703116 1 1 1.000000
0  41.731995 -28.945370 33.762718  0.119754 -0.457322 0.881201  0.790063 0.704093 1 1 1.000000
0  41.030037 -30.762197 32.675373  -0.146437 -0.712247 0.686485  0.797876 0.701163 1 1 1.000000
skin_0
0  42.048561 -30.789726 32.386333  0.317186 -0.802803 0.504876  0.797876 0.706046 1 1 1.000000
0  41.731995 -28.945370 33.762718  0.119754 -0.457322 0.881201  0.790063 0.704093 1 1 1.000000
0  41.442951 -30.954891 32.427624  0.104430 -0.829276 0.548995  0.798853 0.703116 1 1 1.000000
skin_0
0  41.731995 -28.945370 33.762718  0.119754 -0.457322 0.881201  0.790063 0.704093 1 1 1.000000
0  42.048561 -30.789726 32.386333  0.317186 -0.802803 0.504876  0.797876 0.706046 1 1 1.000000
0  43.259781 -30.197878 32.455151  0.395328 -0.781703 0.482344  0.794946 0.711905 1 1 1.000000
skin_0
0  43.259781 -30.197878 32.455151  0.395328 -0.781703 0.482344  0.794946 0.711905 1 1 1.000000
0  43.039558 -28.394815 33.831535  0.200447 -0.457431 0.866359  0.787133 0.710929 1 1 1.000000
0  41.731995 -28.945370 33.762718  0.119754 -0.457322 0.881201  0.790063 0.704093 1 1 1.000000
skin_0
0  43.039558 -28.394815 33.831535  0.200447 -0.457431 0.866359  0.787133 0.710929 1 1 1.000000
0  43.259781 -30.197878 32.455151  0.395328 -0.781703 0.482344  0.794946 0.711905 1 1 1.000000
0  44.980263 -29.151827 32.537735  0.472675 -0.745072 0.470582  0.790063 0.720695 1 1 1.000000
skin_0
0  44.980263 -29.151827 32.537735  0.472675 -0.745072 0.470582  0.790063 0.720695 1 1 1.000000
0  44.925205 -27.390055 33.804008  0.291517 -0.437121 0.850849  0.782250 0.719718 1 1 1.000000
0  43.039558 -28.394815 33.831535  0.200447 -0.457431 0.866359  0.787133 0.710929 1 1 1.000000
skin_0
0  44.925205 -27.390055 33.804008  0.291517 -0.437121 0.850849  0.782250 0.719718 1 1 1.000000
0  44.980263 -29.151827 32.537735  0.472675 -0.745072 0.470582  0.790063 0.720695 1 1 1.000000
0  46.631924 -27.968138 32.565262  0.592922 -0.664173 0.455321  0.784204 0.728507 1 1 1.000000
skin_0
0  46.631924 -27.968138 32.565262  0.592922 -0.664173 0.455321  0.784204 0.728507 1 1 1.000000
0  46.742039 -26.275183 33.652607  0.423181 -0.391493 0.817099  0.776391 0.728507 1 1 1.000000
0  44.925205 -27.390055 33.804008  0.291517 -0.437121 0.850849  0.782250 0.719718 1 1 1.000000
skin_0
0  44.925205 -27.390055 33.804008  0.291517 -0.437121 0.850849  0.782250 0.719718 1 1 1.000000
0  46.742039 -26.275183 33.652607  0.423181 -0.391493 0.817099  0.776391 0.728507 1 1 1.000000
0  46.865910 -24.293190 34.244453  0.387157 -0.206714 0.898542  0.766625 0.729484 1 1 1.000000
skin_0
0  46.865910 -24.293190 34.244453  0.387157 -0.206714 0.898542  0.766625 0.729484 1 1 1.000000
0  46.742039 -26.275183 33.652607  0.423181 -0.391493 0.817099  0.776391 0.728507 1 1 1.000000
0  48.173477 -25.119019 33.198402  0.705259 -0.281241 0.650779  0.770531 0.736320 1 1 1.000000
skin_0
0  48.173477 -25.119019 33.198402  0.705259 -0.281241 0.650779  0.770531 0.736320 1 1 1.000000
0  48.173477 -23.536179 33.611313  0.685156 -0.132862 0.716176  0.763695 0.736320 1 1 1.000000
0  46.865910 -24.293190 34.244453  0.387157 -0.206714 0.898542  0.766625 0.729484 1 1 1.000000
skin_0
0  48.159706 -26.220129 32.510204  0.803918 -0.471555 0.362424  0.775414 0.736320 1 1 1.000000
0  48.173477 -25.119019 33.198402  0.705259 -0.281241 0.650779  0.770531 0.736320 1 1 1.000000
0  46.742039 -26.275183 33.652607  0.423181 -0.391493 0.817099  0.776391 0.728507 1 1 1.000000
skin_0
0  46.742039 -26.275183 33.652607  0.423181 -0.391493 0.817099  0.776391 0.728507 1 1 1.000000
0  46.631924 -27.968138 32.565262  0.592922 -0.664173 0.455321  0.784204 0.728507 1 1 1.000000
0  48.159706 -26.220129 32.510204  0.803918 -0.471555 0.362424  0.775414 0.736320 1 1 1.000000
skin_0
0  41.442951 -30.954891 32.427624  0.104430 -0.829276 0.548995  0.702170 0.562487 1 1 1.000000
0  41.030037 -30.762197 32.675373  -0.146437 -0.712247 0.686485  0.700217 0.563463 1 1 1.000000
0  40.672173 -30.789726 32.400097  -0.667404 -0.737526 0.103083  0.699240 0.561510 1 1 1.000000
skin_0
0  40.672173 -30.789726 32.400097  -0.667404 -0.737526 0.103083  0.699240 0.561510 1 1 1.000000
0  41.360371 -31.065001 32.124821  -0.056667 -0.970086 -0.236053  0.702170 0.560533 1 1 1.000000
0  41.442951 -30.954891 32.427624  0.104430 -0.829276 0.548995  0.702170 0.562487 1 1 1.000000
skin_0
0  42.048561 -30.789726 32.386333  0.317186 -0.802803 0.504876  0.705100 0.562487 1 1 1.000000
0  41.442951 -30.954891 32.427624  0.104430 -0.829276 0.548995  0.702170 0.562487 1 1 1.000000
0  41.360371 -31.065001 32.124821  -0.056667 -0.970086 -0.236053  0.702170 0.560533 1 1 1.000000
skin_0
0  41.360371 -31.065001 32.124821  -0.056667 -0.970086 -0.236053  0.702170 0.560533 1 1 1.000000
0  42.062325 -30.817253 32.124821  0.374929 -0.866786 -0.328803  0.705100 0.560533 1 1 1.000000
0  42.048561 -30.789726 32.386333  0.317186 -0.802803 0.504876  0.705100 0.562487 1 1 1.000000
skin_0
0  43.259781 -30.197878 32.455151  0.395328 -0.781703 0.482344  0.710959 0.562487 1 1 1.000000
0  42.048561 -30.789726 32.386333  0.317186 -0.802803 0.504876  0.705100 0.562487 1 1 1.000000
0  42.062325 -30.817253 32.124821  0.374929 -0.866786 -0.328803  0.705100 0.560533 1 1 1.000000
skin_0
0  42.062325 -30.817253 32.124821  0.374929 -0.866786 -0.328803  0.705100 0.560533 1 1 1.000000
0  43.273544 -30.225410 32.221165  0.469249 -0.815616 -0.338490  0.710959 0.561510 1 1 1.000000
0  43.259781 -30.197878 32.455151  0.395328 -0.781703 0.482344  0.710959 0.562487 1 1 1.000000
skin_0
0  44.980263 -29.151827 32.537735  0.472675 -0.745072 0.470582  0.719749 0.562487 1 1 1.000000
0  43.259781 -30.197878 32.455151  0.395328 -0.781703 0.482344  0.710959 0.562487 1 1 1.000000
0  43.273544 -30.225410 32.221165  0.469249 -0.815616 -0.338490  0.710959 0.561510 1 1 1.000000
skin_0
0  43.273544 -30.225410 32.221165  0.469249 -0.815616 -0.338490  0.710959 0.561510 1 1 1.000000
0  44.994026 -29.179354 32.289982  0.524078 -0.782631 -0.335904  0.719749 0.561510 1 1 1.000000
0  44.980263 -29.151827 32.537735  0.472675 -0.745072 0.470582  0.719749 0.562487 1 1 1.000000
skin_0
0  46.631924 -27.968138 32.565262  0.592922 -0.664173 0.455321  0.727561 0.562487 1 1 1.000000
0  44.980263 -29.151827 32.537735  0.472675 -0.745072 0.470582  0.719749 0.562487 1 1 1.000000
0  44.994026 -29.179354 32.289982  0.524078 -0.782631 -0.335904  0.719749 0.561510 1 1 1.000000
skin_0
0  44.994026 -29.179354 32.289982  0.524078 -0.782631 -0.335904  0.719749 0.561510 1 1 1.000000
0  46.631924 -28.009428 32.331280  0.624222 -0.723221 -0.295463  0.727561 0.561510 1 1 1.000000
0  46.631924 -27.968138 32.565262  0.592922 -0.664173 0.455321  0.727561 0.562487 1 1 1.000000
skin_0
0  39.405903 -26.674335 28.532454  -0.856588 -0.464060 -0.225624  0.692404 0.542955 1 1 1.000000
0  39.956455 -26.922085 28.160831  -0.182399 -0.696953 -0.693533  0.695334 0.541002 1 1 1.000000
0  40.658409 -29.193117 30.239174  -0.214496 -0.710061 -0.670675  0.698264 0.550768 1 1 1.000000
skin_0
0  40.658409 -29.193117 30.239174  -0.214496 -0.710061 -0.670675  0.698264 0.550768 1 1 1.000000
0  40.025276 -28.766438 30.555742  -0.852918 -0.477878 -0.210152  0.695334 0.552721 1 1 1.000000
0  39.405903 -26.674335 28.532454  -0.856588 -0.464060 -0.225624  0.692404 0.542955 1 1 1.000000
skin_0
0  40.025276 -28.766438 30.555742  -0.852918 -0.477878 -0.210152  0.695334 0.552721 1 1 1.000000
0  40.658409 -29.193117 30.239174  -0.214496 -0.710061 -0.670675  0.698264 0.550768 1 1 1.000000
0  41.360371 -31.065001 32.124821  -0.056667 -0.970086 -0.236053  0.702170 0.560533 1 1 1.000000
skin_0
0  41.360371 -31.065001 32.124821  -0.056667 -0.970086 -0.236053  0.702170 0.560533 1 1 1.000000
0  40.672173 -30.789726 32.400097  -0.667404 -0.737526 0.103083  0.699240 0.561510 1 1 1.000000
0  40.025276 -28.766438 30.555742  -0.852918 -0.477878 -0.210152  0.695334 0.552721 1 1 1.000000
skin_0
0  48.985538 -23.026913 31.918360  0.940773 -0.145344 -0.306303  0.239265 0.559557 1 1 1.000000
0  49.068127 -22.366251 31.835777  0.938246 -0.073191 -0.338138  0.242195 0.559557 1 1 1.000000
0  49.081890 -22.366251 32.097294  0.990329 -0.029462 0.135572  0.242195 0.560533 1 1 1.000000
skin_0
0  49.081890 -22.366251 32.097294  0.990329 -0.029462 0.135572  0.242195 0.560533 1 1 1.000000
0  49.068127 -22.063446 32.069763  0.681685 0.720434 0.127598  0.243171 0.560533 1 1 1.000000
0  48.847904 -22.201084 32.757957  0.598516 0.648723 0.470039  0.243171 0.563463 1 1 1.000000
skin_0
0  49.068127 -22.063446 32.069763  0.681685 0.720434 0.127598  0.243171 0.560533 1 1 1.000000
0  49.081890 -22.366251 32.097294  0.990329 -0.029462 0.135572  0.242195 0.560533 1 1 1.000000
0  49.068127 -22.366251 31.835777  0.938246 -0.073191 -0.338138  0.242195 0.559557 1 1 1.000000
skin_0
0  49.068127 -22.366251 31.835777  0.938246 -0.073191 -0.338138  0.242195 0.559557 1 1 1.000000
0  49.054363 -22.063446 31.794487  0.665326 0.680107 -0.307891  0.243171 0.558580 1 1 1.000000
0  49.068127 -22.063446 32.069763  0.681685 0.720434 0.127598  0.243171 0.560533 1 1 1.000000
skin_0
0  48.269821 -22.338724 30.789726  0.410160 0.502619 -0.761014  0.243171 0.555650 1 1 1.000000
0  49.054363 -22.063446 31.794487  0.665326 0.680107 -0.307891  0.243171 0.558580 1 1 1.000000
0  49.068127 -22.366251 31.835777  0.938246 -0.073191 -0.338138  0.242195 0.559557 1 1 1.000000
skin_0
0  49.068127 -22.366251 31.835777  0.938246 -0.073191 -0.338138  0.242195 0.559557 1 1 1.000000
0  48.311111 -22.696583 30.899837  0.651907 -0.139221 -0.745409  0.241218 0.555650 1 1 1.000000
0  48.269821 -22.338724 30.789726  0.410160 0.502619 -0.761014  0.243171 0.555650 1 1 1.000000
skin_0
0  48.311111 -22.696583 30.899837  0.651907 -0.139221 -0.745409  0.241218 0.555650 1 1 1.000000
0  49.068127 -22.366251 31.835777  0.938246 -0.073191 -0.338138  0.242195 0.559557 1 1 1.000000
0  48.985538 -23.026913 31.918360  0.940773 -0.145344 -0.306303  0.239265 0.559557 1 1 1.000000
skin_0
0  48.985538 -23.026913 31.918360  0.940773 -0.145344 -0.306303  0.239265 0.559557 1 1 1.000000
0  48.324875 -23.508650 30.968655  0.653507 -0.136174 -0.744571  0.238289 0.556627 1 1 1.000000
0  48.311111 -22.696583 30.899837  0.651907 -0.139221 -0.745409  0.241218 0.555650 1 1 1.000000
skin_0
0  48.324875 -23.508650 30.968655  0.653507 -0.136174 -0.744571  0.238289 0.556627 1 1 1.000000
0  48.985538 -23.026913 31.918360  0.940773 -0.145344 -0.306303  0.239265 0.559557 1 1 1.000000
0  48.820374 -24.348244 32.097294  0.944219 -0.231075 -0.234639  0.233406 0.560533 1 1 1.000000
skin_0
0  48.820374 -24.348244 32.097294  0.944219 -0.231075 -0.234639  0.233406 0.560533 1 1 1.000000
0  48.201004 -25.242895 31.409098  0.693918 -0.342073 -0.633612  0.231452 0.558580 1 1 1.000000
0  48.324875 -23.508650 30.968655  0.653507 -0.136174 -0.744571  0.238289 0.556627 1 1 1.000000
skin_0
0  48.145943 -26.275183 32.276218  0.806821 -0.538666 -0.242651  0.224616 0.561510 1 1 1.000000
0  48.201004 -25.242895 31.409098  0.693918 -0.342073 -0.633612  0.231452 0.558580 1 1 1.000000
0  48.820374 -24.348244 32.097294  0.944219 -0.231075 -0.234639  0.233406 0.560533 1 1 1.000000
skin_0
0  48.145943 -26.275183 32.276218  0.806821 -0.538666 -0.242651  0.224616 0.561510 1 1 1.000000
0  48.820374 -24.348244 32.097294  0.944219 -0.231075 -0.234639  0.233406 0.560533 1 1 1.000000
0  48.820374 -24.334480 32.345043  0.946438 -0.207245 0.247598  0.234382 0.561510 1 1 1.000000
skin_0
0  48.820374 -24.334480 32.345043  0.946438 -0.207245 0.247598  0.234382 0.561510 1 1 1.000000
0  48.159706 -26.220129 32.510204  0.803918 -0.471555 0.362424  0.224616 0.562487 1 1 1.000000
0  48.145943 -26.275183 32.276218  0.806821 -0.538666 -0.242651  0.224616 0.561510 1 1 1.000000
skin_0
0  48.820374 -24.334480 32.345043  0.946438 -0.207245 0.247598  0.234382 0.561510 1 1 1.000000
0  48.173477 -25.119019 33.198402  0.705259 -0.281241 0.650779  0.229499 0.564440 1 1 1.000000
0  48.159706 -26.220129 32.510204  0.803918 -0.471555 0.362424  0.224616 0.562487 1 1 1.000000
skin_0
0  48.173477 -23.536179 33.611313  0.685156 -0.132862 0.716176  0.236335 0.566393 1 1 1.000000
0  48.173477 -25.119019 33.198402  0.705259 -0.281241 0.650779  0.229499 0.564440 1 1 1.000000
0  48.820374 -24.334480 32.345043  0.946438 -0.207245 0.247598  0.234382 0.561510 1 1 1.000000
skin_0
0  48.820374 -24.334480 32.345043  0.946438 -0.207245 0.247598  0.234382 0.561510 1 1 1.000000
0  48.861668 -23.123260 32.634079  0.904917 -0.088323 0.416323  0.239265 0.562487 1 1 1.000000
0  48.173477 -23.536179 33.611313  0.685156 -0.132862 0.716176  0.236335 0.566393 1 1 1.000000
skin_0
0  48.173477 -22.806694 33.693897  0.663929 -0.022999 0.747441  0.240242 0.568346 1 1 1.000000
0  48.173477 -23.536179 33.611313  0.685156 -0.132862 0.716176  0.236335 0.566393 1 1 1.000000
0  48.861668 -23.123260 32.634079  0.904917 -0.088323 0.416323  0.239265 0.562487 1 1 1.000000
skin_0
0  48.861668 -23.123260 32.634079  0.904917 -0.088323 0.416323  0.239265 0.562487 1 1 1.000000
0  48.847904 -22.462597 32.744190  0.887251 -0.048908 0.458687  0.241218 0.563463 1 1 1.000000
0  48.173477 -22.806694 33.693897  0.663929 -0.022999 0.747441  0.240242 0.568346 1 1 1.000000
skin_0
0  48.173477 -22.517653 33.680134  0.369549 0.634105 0.679223  0.241218 0.568346 1 1 1.000000
0  48.173477 -22.806694 33.693897  0.663929 -0.022999 0.747441  0.240242 0.568346 1 1 1.000000
0  48.847904 -22.462597 32.744190  0.887251 -0.048908 0.458687  0.241218 0.563463 1 1 1.000000
skin_0
0  48.847904 -22.462597 32.744190  0.887251 -0.048908 0.458687  0.241218 0.563463 1 1 1.000000
0  48.847904 -22.201084 32.757957  0.598516 0.648723 0.470039  0.243171 0.563463 1 1 1.000000
0  48.173477 -22.517653 33.680134  0.369549 0.634105 0.679223  0.241218 0.568346 1 1 1.000000
skin_0
0  48.847904 -22.201084 32.757957  0.598516 0.648723 0.470039  0.243171 0.563463 1 1 1.000000
0  48.847904 -22.462597 32.744190  0.887251 -0.048908 0.458687  0.241218 0.563463 1 1 1.000000
0  49.081890 -22.366251 32.097294  0.990329 -0.029462 0.135572  0.242195 0.560533 1 1 1.000000
skin_0
0  48.999302 -23.026913 32.179874  0.985720 -0.105142 0.131531  0.239265 0.560533 1 1 1.000000
0  49.081890 -22.366251 32.097294  0.990329 -0.029462 0.135572  0.242195 0.560533 1 1 1.000000
0  48.847904 -22.462597 32.744190  0.887251 -0.048908 0.458687  0.241218 0.563463 1 1 1.000000
skin_0
0  49.081890 -22.366251 32.097294  0.990329 -0.029462 0.135572  0.242195 0.560533 1 1 1.000000
0  48.999302 -23.026913 32.179874  0.985720 -0.105142 0.131531  0.239265 0.560533 1 1 1.000000
0  48.985538 -23.026913 31.918360  0.940773 -0.145344 -0.306303  0.239265 0.559557 1 1 1.000000
skin_0
0  48.820374 -24.348244 32.097294  0.944219 -0.231075 -0.234639  0.233406 0.560533 1 1 1.000000
0  48.985538 -23.026913 31.918360  0.940773 -0.145344 -0.306303  0.239265 0.559557 1 1 1.000000
0  48.999302 -23.026913 32.179874  0.985720 -0.105142 0.131531  0.239265 0.560533 1 1 1.000000
skin_0
0  48.999302 -23.026913 32.179874  0.985720 -0.105142 0.131531  0.239265 0.560533 1 1 1.000000
0  48.820374 -24.334480 32.345043  0.946438 -0.207245 0.247598  0.234382 0.561510 1 1 1.000000
0  48.820374 -24.348244 32.097294  0.944219 -0.231075 -0.234639  0.233406 0.560533 1 1 1.000000
skin_0
0  48.999302 -23.026913 32.179874  0.985720 -0.105142 0.131531  0.239265 0.560533 1 1 1.000000
0  48.861668 -23.123260 32.634079  0.904917 -0.088323 0.416323  0.239265 0.562487 1 1 1.000000
0  48.820374 -24.334480 32.345043  0.946438 -0.207245 0.247598  0.234382 0.561510 1 1 1.000000
skin_0
0  48.847904 -22.462597 32.744190  0.887251 -0.048908 0.458687  0.241218 0.563463 1 1 1.000000
0  48.861668 -23.123260 32.634079  0.904917 -0.088323 0.416323  0.239265 0.562487 1 1 1.000000
0  48.999302 -23.026913 32.179874  0.985720 -0.105142 0.131531  0.239265 0.560533 1 1 1.000000
skin_0
0  48.159706 -26.220129 32.510204  0.803918 -0.471555 0.362424  0.224616 0.562487 1 1 1.000000
0  46.631924 -27.968138 32.565262  0.592922 -0.664173 0.455321  0.214850 0.562487 1 1 1.000000
0  46.631924 -28.009428 32.331280  0.624222 -0.723221 -0.295463  0.214850 0.561510 1 1 1.000000
skin_0
0  46.631924 -28.009428 32.331280  0.624222 -0.723221 -0.295463  0.214850 0.561510 1 1 1.000000
0  48.145943 -26.275183 32.276218  0.806821 -0.538666 -0.242651  0.224616 0.561510 1 1 1.000000
0  48.159706 -26.220129 32.510204  0.803918 -0.471555 0.362424  0.224616 0.562487 1 1 1.000000
skin_0
0  48.145943 -26.275183 32.276218  0.806821 -0.538666 -0.242651  0.224616 0.561510 1 1 1.000000
0  46.631924 -28.009428 32.331280  0.624222 -0.723221 -0.295463  0.214850 0.561510 1 1 1.000000
0  46.783329 -26.275183 30.982418  0.432350 -0.425930 -0.794769  0.224616 0.554674 1 1 1.000000
skin_0
0  46.783329 -26.275183 30.982418  0.432350 -0.425930 -0.794769  0.224616 0.554674 1 1 1.000000
0  48.201004 -25.242895 31.409098  0.693918 -0.342073 -0.633612  0.228523 0.556627 1 1 1.000000
0  48.145943 -26.275183 32.276218  0.806821 -0.538666 -0.242651  0.224616 0.561510 1 1 1.000000
skin_0
0  40.328079 -25.614519 34.079288  0.150960 0.976823 -0.151748  0.225593 0.569323 1 1 1.000000
0  41.456715 -27.156069 33.721424  0.660608 0.588443 -0.466189  0.218757 0.568346 1 1 1.000000
0  41.277786 -27.169834 32.386333  0.800743 0.597689 0.039736  0.218757 0.561510 1 1 1.000000
skin_0
0  41.277786 -27.169834 32.386333  0.800743 0.597689 0.039736  0.218757 0.561510 1 1 1.000000
0  39.997746 -25.476879 32.565262  0.356273 0.913186 0.197891  0.227546 0.562487 1 1 1.000000
0  40.328079 -25.614519 34.079288  0.150960 0.976823 -0.151748  0.225593 0.569323 1 1 1.000000
skin_0
0  39.997746 -25.476879 32.565262  0.356273 0.913186 0.197891  0.227546 0.562487 1 1 1.000000
0  41.277786 -27.169834 32.386333  0.800743 0.597689 0.039736  0.218757 0.561510 1 1 1.000000
0  41.539295 -27.004667 30.734671  0.688749 0.515476 0.509813  0.219733 0.553697 1 1 1.000000
skin_0
0  41.539295 -27.004667 30.734671  0.688749 0.515476 0.509813  0.219733 0.553697 1 1 1.000000
0  39.763760 -24.774923 31.395334  0.187123 0.785908 0.589350  0.230476 0.556627 1 1 1.000000
0  39.997746 -25.476879 32.565262  0.356273 0.913186 0.197891  0.227546 0.562487 1 1 1.000000
skin_0
0  41.539295 -27.004667 30.734671  0.688749 0.515476 0.509813  0.219733 0.553697 1 1 1.000000
0  40.314316 -24.912563 30.418100  0.763145 0.539051 0.356419  0.229499 0.551744 1 1 1.000000
0  39.763760 -24.774923 31.395334  0.187123 0.785908 0.589350  0.230476 0.556627 1 1 1.000000
skin_0
0  39.364613 -23.494886 30.252937  0.167158 0.666846 0.726206  0.237312 0.550768 1 1 1.000000
0  39.763760 -24.774923 31.395334  0.187123 0.785908 0.589350  0.230476 0.556627 1 1 1.000000
0  40.314316 -24.912563 30.418100  0.763145 0.539051 0.356419  0.229499 0.551744 1 1 1.000000
skin_0
0  40.314316 -24.912563 30.418100  0.763145 0.539051 0.356419  0.229499 0.551744 1 1 1.000000
0  40.066566 -24.059202 29.716146  0.776323 0.528305 0.343827  0.234382 0.547838 1 1 1.000000
0  39.364613 -23.494886 30.252937  0.167158 0.666846 0.726206  0.237312 0.550768 1 1 1.000000
skin_0
0  40.644646 -24.940090 29.619797  0.625184 0.709845 0.324446  0.229499 0.547838 1 1 1.000000
0  40.066566 -24.059202 29.716146  0.776323 0.528305 0.343827  0.234382 0.547838 1 1 1.000000
0  40.314316 -24.912563 30.418100  0.763145 0.539051 0.356419  0.229499 0.551744 1 1 1.000000
skin_0
0  40.644646 -24.940090 29.619797  0.625184 0.709845 0.324446  0.229499 0.547838 1 1 1.000000
0  40.644646 -24.774923 29.151827  0.855710 0.507654 0.100240  0.231452 0.545885 1 1 1.000000
0  40.066566 -24.059202 29.716146  0.776323 0.528305 0.343827  0.234382 0.547838 1 1 1.000000
skin_0
0  47.705505 -24.637285 31.367807  -0.750786 0.377036 0.542369  0.768578 0.732414 1 1 1.000000
0  48.104652 -22.283667 30.954891  -0.459009 0.870242 0.178858  0.757836 0.734367 1 1 1.000000
0  46.728268 -22.779167 30.445629  -0.400831 0.862717 0.308308  0.759789 0.728507 1 1 1.000000
skin_0
0  46.728268 -22.779167 30.445629  -0.400831 0.862717 0.308308  0.759789 0.728507 1 1 1.000000
0  46.852146 -24.967619 31.106297  -0.290992 0.261423 0.920316  0.769555 0.729484 1 1 1.000000
0  47.705505 -24.637285 31.367807  -0.750786 0.377036 0.542369  0.768578 0.732414 1 1 1.000000
skin_0
0  46.852146 -24.967619 31.106297  -0.290992 0.261423 0.920316  0.769555 0.729484 1 1 1.000000
0  46.728268 -22.779167 30.445629  -0.400831 0.862717 0.308308  0.759789 0.728507 1 1 1.000000
0  44.842621 -23.494886 30.184114  -0.369685 0.848970 0.377601  0.762719 0.719718 1 1 1.000000
skin_0
0  44.842621 -23.494886 30.184114  -0.369685 0.848970 0.377601  0.762719 0.719718 1 1 1.000000
0  44.181957 -25.986141 30.734671  -0.241836 0.249704 0.937637  0.775414 0.716788 1 1 1.000000
0  46.852146 -24.967619 31.106297  -0.290992 0.261423 0.920316  0.769555 0.729484 1 1 1.000000
skin_0
0  44.181957 -25.986141 30.734671  -0.241836 0.249704 0.937637  0.775414 0.716788 1 1 1.000000
0  44.842621 -23.494886 30.184114  -0.369685 0.848970 0.377601  0.762719 0.719718 1 1 1.000000
0  42.667934 -24.306953 29.867548  -0.372716 0.839192 0.396029  0.766625 0.708975 1 1 1.000000
skin_0
0  44.181957 -25.986141 30.734671  -0.241836 0.249704 0.937637  0.775414 0.716788 1 1 1.000000
0  42.667934 -24.306953 29.867548  -0.372716 0.839192 0.396029  0.766625 0.708975 1 1 1.000000
0  41.085091 -24.898796 29.647324  -0.224751 0.882821 0.412449  0.769555 0.701163 1 1 1.000000
skin_0
0  41.085091 -24.898796 29.647324  -0.224751 0.882821 0.412449  0.769555 0.701163 1 1 1.000000
0  42.241257 -26.715626 30.307991  -0.132352 0.277441 0.951583  0.778344 0.707022 1 1 1.000000
0  44.181957 -25.986141 30.734671  -0.241836 0.249704 0.937637  0.775414 0.716788 1 1 1.000000
skin_0
0  42.241257 -26.715626 30.307991  -0.132352 0.277441 0.951583  0.778344 0.707022 1 1 1.000000
0  41.085091 -24.898796 29.647324  -0.224751 0.882821 0.412449  0.769555 0.701163 1 1 1.000000
0  40.644646 -24.940090 29.619797  0.625184 0.709845 0.324446  0.769555 0.699210 1 1 1.000000
skin_0
0  40.644646 -24.940090 29.619797  0.625184 0.709845 0.324446  0.769555 0.699210 1 1 1.000000
0  41.910923 -26.839502 30.390574  0.324871 0.453651 0.829855  0.779321 0.705069 1 1 1.000000
0  42.241257 -26.715626 30.307991  -0.132352 0.277441 0.951583  0.778344 0.707022 1 1 1.000000
skin_0
0  41.910923 -26.839502 30.390574  0.324871 0.453651 0.829855  0.779321 0.705069 1 1 1.000000
0  40.644646 -24.940090 29.619797  0.625184 0.709845 0.324446  0.769555 0.699210 1 1 1.000000
0  40.314316 -24.912563 30.418100  0.763145 0.539051 0.356419  0.771508 0.696280 1 1 1.000000
skin_0
0  40.314316 -24.912563 30.418100  0.763145 0.539051 0.356419  0.771508 0.696280 1 1 1.000000
0  41.539295 -27.004667 30.734671  0.688749 0.515476 0.509813  0.779321 0.701163 1 1 1.000000
0  41.910923 -26.839502 30.390574  0.324871 0.453651 0.829855  0.779321 0.705069 1 1 1.000000
skin_0
0  39.364613 -23.494886 30.252937  0.167158 0.666846 0.726206  0.762719 0.693350 1 1 1.000000
0  39.034279 -23.742634 30.211641  -0.751954 0.257268 0.606941  0.764672 0.691397 1 1 1.000000
0  39.474724 -24.898796 31.243933  -0.839476 0.261886 0.476126  0.769555 0.693350 1 1 1.000000
skin_0
0  39.474724 -24.898796 31.243933  -0.839476 0.261886 0.476126  0.769555 0.693350 1 1 1.000000
0  39.763760 -24.774923 31.395334  0.187123 0.785908 0.589350  0.768578 0.695303 1 1 1.000000
0  39.364613 -23.494886 30.252937  0.167158 0.666846 0.726206  0.762719 0.693350 1 1 1.000000
skin_0
0  38.442432 -20.301672 27.816734  0.082699 0.832598 0.547670  0.748070 0.689444 1 1 1.000000
0  38.112099 -20.838465 28.036955  -0.807802 0.281086 0.518118  0.751000 0.687490 1 1 1.000000
0  39.034279 -23.742634 30.211641  -0.837896 0.138703 0.527913  0.762719 0.690420 1 1 1.000000
skin_0
0  39.034279 -23.742634 30.211641  -0.837896 0.138703 0.527913  0.762719 0.690420 1 1 1.000000
0  39.364613 -23.494886 30.252937  0.189800 0.631089 0.752132  0.760765 0.692373 1 1 1.000000
0  38.442432 -20.301672 27.816734  0.082699 0.832598 0.547670  0.748070 0.689444 1 1 1.000000
skin_0
0  39.956455 -26.922085 28.160831  -0.195668 -0.683154 -0.703573  0.695334 0.540025 1 1 1.000000
0  39.405903 -26.674335 28.532454  -0.809875 -0.500325 -0.306229  0.692404 0.541978 1 1 1.000000
0  39.006748 -25.063963 27.032194  -0.814968 -0.479524 -0.325396  0.690451 0.537095 1 1 1.000000
skin_0
0  39.006748 -25.063963 27.032194  -0.814968 -0.479524 -0.325396  0.690451 0.537095 1 1 1.000000
0  39.543541 -25.132786 26.564224  -0.066984 -0.651824 -0.755406  0.693381 0.534166 1 1 1.000000
0  39.956455 -26.922085 28.160831  -0.195668 -0.683154 -0.703573  0.695334 0.540025 1 1 1.000000
skin_0
0  38.373615 -20.164034 27.513927  0.252878 0.909085 0.331086  0.311533 0.538072 1 1 1.000000
0  38.070808 -20.673298 27.720388  -0.888105 0.347987 0.300292  0.313486 0.540025 1 1 1.000000
0  38.112099 -20.838465 28.036955  -0.807802 0.281086 0.518118  0.312510 0.541002 1 1 1.000000
skin_0
0  38.112099 -20.838465 28.036955  -0.807802 0.281086 0.518118  0.312510 0.541002 1 1 1.000000
0  38.442432 -20.301672 27.816734  0.082699 0.832598 0.547670  0.310556 0.539048 1 1 1.000000
0  38.373615 -20.164034 27.513927  0.252878 0.909085 0.331086  0.311533 0.538072 1 1 1.000000
skin_0
0  38.538780 -23.756399 27.582748  -0.972251 -0.218869 -0.082606  0.765648 0.538072 1 1 1.000000
0  38.249737 -22.077209 27.899319  -0.990278 -0.129746 0.050153  0.756859 0.540025 1 1 1.000000
0  38.373615 -22.696583 27.390055  -0.984150 -0.166954 -0.059787  0.759789 0.538072 1 1 1.000000
skin_0
0  38.373615 -22.696583 27.390055  -0.984150 -0.166954 -0.059787  0.759789 0.538072 1 1 1.000000
0  38.249737 -22.077209 27.899319  -0.990278 -0.129746 0.050153  0.756859 0.540025 1 1 1.000000
0  38.112099 -20.838465 28.036955  -0.807802 0.281086 0.518118  0.751000 0.541002 1 1 1.000000
skin_0
0  38.112099 -20.838465 28.036955  -0.807802 0.281086 0.518118  0.751000 0.541002 1 1 1.000000
0  38.070808 -20.673298 27.720388  -0.888105 0.347987 0.300292  0.750023 0.540025 1 1 1.000000
0  38.373615 -22.696583 27.390055  -0.984150 -0.166954 -0.059787  0.759789 0.538072 1 1 1.000000
skin_0
0  39.006748 -24.527176 29.798731  -0.969352 -0.158903 0.187366  0.766625 0.547838 1 1 1.000000
0  39.034279 -23.742634 30.211641  -0.837896 0.138703 0.527913  0.762719 0.549791 1 1 1.000000
0  38.112099 -20.838465 28.036955  -0.807802 0.281086 0.518118  0.751000 0.541002 1 1 1.000000
skin_0
0  38.112099 -20.838465 28.036955  -0.807802 0.281086 0.518118  0.751000 0.541002 1 1 1.000000
0  38.249737 -22.077209 27.899319  -0.990278 -0.129746 0.050153  0.756859 0.540025 1 1 1.000000
0  39.006748 -24.527176 29.798731  -0.969352 -0.158903 0.187366  0.766625 0.547838 1 1 1.000000
skin_0
0  39.130623 -25.697102 29.124300  -0.967314 -0.246347 0.060136  0.772485 0.544908 1 1 1.000000
0  39.006748 -24.527176 29.798731  -0.969352 -0.158903 0.187366  0.766625 0.547838 1 1 1.000000
0  38.249737 -22.077209 27.899319  -0.990278 -0.129746 0.050153  0.756859 0.540025 1 1 1.000000
skin_0
0  38.249737 -22.077209 27.899319  -0.990278 -0.129746 0.050153  0.756859 0.540025 1 1 1.000000
0  38.538780 -23.756399 27.582748  -0.972251 -0.218869 -0.082606  0.765648 0.538072 1 1 1.000000
0  39.130623 -25.697102 29.124300  -0.967314 -0.246347 0.060136  0.772485 0.544908 1 1 1.000000
skin_0
0  39.405903 -26.674335 28.532454  -0.809875 -0.500325 -0.306229  0.777367 0.541978 1 1 1.000000
0  39.130623 -25.697102 29.124300  -0.967314 -0.246347 0.060136  0.772485 0.544908 1 1 1.000000
0  38.538780 -23.756399 27.582748  -0.972251 -0.218869 -0.082606  0.765648 0.538072 1 1 1.000000
skin_0
0  38.538780 -23.756399 27.582748  -0.972251 -0.218869 -0.082606  0.765648 0.538072 1 1 1.000000
0  39.006748 -25.063963 27.032194  -0.814968 -0.479524 -0.325396  0.770531 0.537095 1 1 1.000000
0  39.405903 -26.674335 28.532454  -0.809875 -0.500325 -0.306229  0.777367 0.541978 1 1 1.000000
skin_0
0  39.006748 -25.063963 27.032194  -0.814968 -0.479524 -0.325396  0.770531 0.537095 1 1 1.000000
0  38.538780 -23.756399 27.582748  -0.972251 -0.218869 -0.082606  0.765648 0.538072 1 1 1.000000
0  38.373615 -22.696583 27.390055  -0.984150 -0.166954 -0.059787  0.759789 0.538072 1 1 1.000000
skin_0
0  38.373615 -22.696583 27.390055  -0.984150 -0.166954 -0.059787  0.759789 0.538072 1 1 1.000000
0  38.979221 -24.857506 26.811972  -0.811827 -0.476454 -0.337533  0.769555 0.536119 1 1 1.000000
0  39.006748 -25.063963 27.032194  -0.814968 -0.479524 -0.325396  0.770531 0.537095 1 1 1.000000
skin_0
0  39.543541 -25.132786 26.564224  -0.066984 -0.651824 -0.755406  0.771508 0.534166 1 1 1.000000
0  39.006748 -25.063963 27.032194  -0.814968 -0.479524 -0.325396  0.770531 0.537095 1 1 1.000000
0  38.979221 -24.857506 26.811972  -0.811827 -0.476454 -0.337533  0.769555 0.536119 1 1 1.000000
skin_0
0  38.979221 -24.857506 26.811972  -0.811827 -0.476454 -0.337533  0.769555 0.536119 1 1 1.000000
0  39.516014 -24.885033 26.344002  0.253237 -0.626862 -0.736827  0.769555 0.533189 1 1 1.000000
0  39.543541 -25.132786 26.564224  -0.066984 -0.651824 -0.755406  0.771508 0.534166 1 1 1.000000
skin_0
0  40.809818 -25.063963 29.234411  0.788754 0.526404 -0.317436  0.230476 0.545885 1 1 1.000000
0  40.919926 -25.600756 28.615038  0.957353 0.172486 -0.231784  0.226569 0.542955 1 1 1.000000
0  40.644646 -24.774923 29.151827  0.855710 0.507654 0.100240  0.230476 0.544908 1 1 1.000000
skin_0
0  40.919926 -25.435589 29.358288  0.810686 0.141431 -0.568142  0.227546 0.546861 1 1 1.000000
0  40.919926 -25.600756 28.615038  0.957353 0.172486 -0.231784  0.226569 0.542955 1 1 1.000000
0  40.809818 -25.063963 29.234411  0.788754 0.526404 -0.317436  0.230476 0.545885 1 1 1.000000
skin_0
0  41.332840 -26.577988 29.495924  0.679420 -0.098581 -0.727097  0.221686 0.548814 1 1 1.000000
0  40.919926 -25.600756 28.615038  0.957353 0.172486 -0.231784  0.226569 0.542955 1 1 1.000000
0  40.919926 -25.435589 29.358288  0.810686 0.141431 -0.568142  0.227546 0.546861 1 1 1.000000
skin_0
0  40.919926 -25.600756 28.615038  0.957353 0.172486 -0.231784  0.226569 0.542955 1 1 1.000000
0  41.332840 -26.577988 29.495924  0.679420 -0.098581 -0.727097  0.221686 0.548814 1 1 1.000000
0  41.319077 -28.546217 29.977657  0.576883 -0.389210 -0.718138  0.216803 0.545885 1 1 1.000000
skin_0
0  41.319077 -28.546217 29.977657  0.576883 -0.389210 -0.718138  0.216803 0.545885 1 1 1.000000
0  40.672173 -26.619278 28.174595  0.715606 -0.337539 -0.611535  0.222663 0.541002 1 1 1.000000
0  40.919926 -25.600756 28.615038  0.957353 0.172486 -0.231784  0.226569 0.542955 1 1 1.000000
skin_0
0  47.705505 -24.637285 31.367807  -0.750786 0.377036 0.542369  0.768578 0.556627 1 1 1.000000
0  48.806610 -22.063446 31.766960  -0.466469 0.883863 0.034537  0.755882 0.559557 1 1 1.000000
0  48.104652 -22.283667 30.954891  -0.459009 0.870242 0.178858  0.756859 0.556627 1 1 1.000000
skin_0
0  47.705505 -24.637285 31.367807  -0.750786 0.377036 0.542369  0.768578 0.556627 1 1 1.000000
0  48.820374 -22.077209 32.097294  -0.506787 0.861609 0.028227  0.755882 0.560533 1 1 1.000000
0  48.806610 -22.063446 31.766960  -0.466469 0.883863 0.034537  0.755882 0.559557 1 1 1.000000
skin_0
0  48.820374 -22.077209 32.097294  -0.506787 0.861609 0.028227  0.755882 0.560533 1 1 1.000000
0  47.705505 -24.637285 31.367807  -0.750786 0.377036 0.542369  0.768578 0.556627 1 1 1.000000
0  47.416462 -24.816216 32.689137  -0.828883 0.402069 -0.388965  0.768578 0.562487 1 1 1.000000
skin_0
0  47.416462 -24.816216 32.689137  -0.828883 0.402069 -0.388965  0.768578 0.562487 1 1 1.000000
0  48.586391 -22.201084 32.716663  -0.522166 0.852394 -0.027711  0.756859 0.563463 1 1 1.000000
0  48.820374 -22.077209 32.097294  -0.506787 0.861609 0.028227  0.755882 0.560533 1 1 1.000000
skin_0
0  48.586391 -22.201084 32.716663  -0.522166 0.852394 -0.027711  0.756859 0.563463 1 1 1.000000
0  47.416462 -24.816216 32.689137  -0.828883 0.402069 -0.388965  0.768578 0.562487 1 1 1.000000
0  47.980778 -22.503889 33.514965  -0.541848 0.829400 -0.135998  0.757836 0.567370 1 1 1.000000
skin_0
0  47.980778 -22.503889 33.514965  -0.541848 0.829400 -0.135998  0.757836 0.567370 1 1 1.000000
0  47.416462 -24.816216 32.689137  -0.828883 0.402069 -0.388965  0.768578 0.562487 1 1 1.000000
0  46.521812 -25.201603 33.680134  -0.475173 0.279963 -0.834165  0.770531 0.567370 1 1 1.000000
skin_0
0  46.521812 -25.201603 33.680134  -0.475173 0.279963 -0.834165  0.770531 0.567370 1 1 1.000000
0  46.893436 -22.985622 34.120579  -0.486701 0.792507 -0.367498  0.760765 0.570299 1 1 1.000000
0  47.980778 -22.503889 33.514965  -0.541848 0.829400 -0.135998  0.757836 0.567370 1 1 1.000000
skin_0
0  39.516014 -24.885033 26.344002  0.253237 -0.626862 -0.736827  0.229499 0.693350 1 1 1.000000
0  39.956455 -23.880274 25.999905  0.916790 -0.107803 -0.384546  0.234382 0.696280 1 1 1.000000
0  40.011509 -24.141787 26.206366  0.781542 -0.266115 -0.564248  0.232429 0.696280 1 1 1.000000
skin_0
0  40.011509 -24.141787 26.206366  0.781542 -0.266115 -0.564248  0.232429 0.696280 1 1 1.000000
0  39.543541 -25.132786 26.564224  -0.066984 -0.651824 -0.755406  0.228523 0.693350 1 1 1.000000
0  39.516014 -24.885033 26.344002  0.253237 -0.626862 -0.736827  0.229499 0.693350 1 1 1.000000
skin_0
0  39.543541 -25.132786 26.564224  -0.066984 -0.651824 -0.755406  0.228523 0.693350 1 1 1.000000
0  40.011509 -24.141787 26.206366  0.781542 -0.266115 -0.564248  0.232429 0.696280 1 1 1.000000
0  40.672173 -26.619278 28.174595  0.620623 -0.407683 -0.669792  0.223640 0.699210 1 1 1.000000
skin_0
0  40.672173 -26.619278 28.174595  0.620623 -0.407683 -0.669792  0.223640 0.699210 1 1 1.000000
0  39.956455 -26.922085 28.160831  -0.195668 -0.683154 -0.703573  0.221686 0.695303 1 1 1.000000
0  39.543541 -25.132786 26.564224  -0.066984 -0.651824 -0.755406  0.228523 0.693350 1 1 1.000000
skin_0
0  48.104652 -22.283667 30.954891  -0.459009 0.870242 0.178858  0.264657 0.555650 1 1 1.000000
0  48.269821 -22.338724 30.789726  0.410160 0.502619 -0.761014  0.263680 0.553697 1 1 1.000000
0  46.852146 -22.903040 30.156588  0.131526 0.359302 -0.923907  0.270516 0.550768 1 1 1.000000
skin_0
0  46.852146 -22.903040 30.156588  0.131526 0.359302 -0.923907  0.270516 0.550768 1 1 1.000000
0  46.728268 -22.779167 30.445629  -0.400831 0.862717 0.308308  0.271493 0.552721 1 1 1.000000
0  48.104652 -22.283667 30.954891  -0.459009 0.870242 0.178858  0.264657 0.555650 1 1 1.000000
skin_0
0  46.728268 -22.779167 30.445629  -0.400831 0.862717 0.308308  0.271493 0.552721 1 1 1.000000
0  46.852146 -22.903040 30.156588  0.131526 0.359302 -0.923907  0.270516 0.550768 1 1 1.000000
0  44.883915 -23.632523 29.881311  0.005125 0.351450 -0.936193  0.280282 0.549791 1 1 1.000000
skin_0
0  44.883915 -23.632523 29.881311  0.005125 0.351450 -0.936193  0.280282 0.549791 1 1 1.000000
0  44.842621 -23.494886 30.184114  -0.369685 0.848970 0.377601  0.280282 0.550768 1 1 1.000000
0  46.728268 -22.779167 30.445629  -0.400831 0.862717 0.308308  0.271493 0.552721 1 1 1.000000
skin_0
0  44.842621 -23.494886 30.184114  -0.369685 0.848970 0.377601  0.280282 0.550768 1 1 1.000000
0  44.883915 -23.632523 29.881311  0.005125 0.351450 -0.936193  0.280282 0.549791 1 1 1.000000
0  42.736752 -24.417065 29.564743  -0.017573 0.380397 -0.924657  0.291025 0.547838 1 1 1.000000
skin_0
0  42.736752 -24.417065 29.564743  -0.017573 0.380397 -0.924657  0.291025 0.547838 1 1 1.000000
0  42.667934 -24.306953 29.867548  -0.372716 0.839192 0.396029  0.291025 0.549791 1 1 1.000000
0  44.842621 -23.494886 30.184114  -0.369685 0.848970 0.377601  0.280282 0.550768 1 1 1.000000
skin_0
0  42.667934 -24.306953 29.867548  -0.372716 0.839192 0.396029  0.291025 0.549791 1 1 1.000000
0  42.736752 -24.417065 29.564743  -0.017573 0.380397 -0.924657  0.291025 0.547838 1 1 1.000000
0  41.071327 -25.050200 29.372051  0.247613 0.392570 -0.885763  0.299814 0.546861 1 1 1.000000
skin_0
0  41.071327 -25.050200 29.372051  0.247613 0.392570 -0.885763  0.299814 0.546861 1 1 1.000000
0  41.085091 -24.898796 29.647324  -0.224751 0.882821 0.412449  0.298837 0.548814 1 1 1.000000
0  42.667934 -24.306953 29.867548  -0.372716 0.839192 0.396029  0.291025 0.549791 1 1 1.000000
skin_0
0  41.085091 -24.898796 29.647324  -0.224751 0.882821 0.412449  0.298837 0.548814 1 1 1.000000
0  41.071327 -25.050200 29.372051  0.247613 0.392570 -0.885763  0.299814 0.546861 1 1 1.000000
0  40.809818 -25.063963 29.234411  0.788754 0.526404 -0.317436  0.300790 0.546861 1 1 1.000000
skin_0
0  40.809818 -25.063963 29.234411  0.788754 0.526404 -0.317436  0.300790 0.546861 1 1 1.000000
0  40.644646 -24.940090 29.619797  0.625184 0.709845 0.324446  0.300790 0.547838 1 1 1.000000
0  41.085091 -24.898796 29.647324  -0.224751 0.882821 0.412449  0.298837 0.548814 1 1 1.000000
skin_0
0  48.586391 -22.201084 32.716663  -0.522166 0.852394 -0.027711  0.261727 0.563463 1 1 1.000000
0  48.847904 -22.201084 32.757957  0.598516 0.648723 0.470039  0.260750 0.563463 1 1 1.000000
0  49.068127 -22.063446 32.069763  0.681685 0.720434 0.127598  0.259774 0.560533 1 1 1.000000
skin_0
0  49.068127 -22.063446 32.069763  0.681685 0.720434 0.127598  0.259774 0.560533 1 1 1.000000
0  48.820374 -22.077209 32.097294  -0.506787 0.861609 0.028227  0.260750 0.560533 1 1 1.000000
0  48.586391 -22.201084 32.716663  -0.522166 0.852394 -0.027711  0.261727 0.563463 1 1 1.000000
skin_0
0  48.820374 -22.077209 32.097294  -0.506787 0.861609 0.028227  0.260750 0.560533 1 1 1.000000
0  49.068127 -22.063446 32.069763  0.681685 0.720434 0.127598  0.259774 0.560533 1 1 1.000000
0  49.054363 -22.063446 31.794487  0.665326 0.680107 -0.307891  0.259774 0.558580 1 1 1.000000
skin_0
0  49.054363 -22.063446 31.794487  0.665326 0.680107 -0.307891  0.259774 0.558580 1 1 1.000000
0  48.806610 -22.063446 31.766960  -0.466469 0.883863 0.034537  0.260750 0.559557 1 1 1.000000
0  48.820374 -22.077209 32.097294  -0.506787 0.861609 0.028227  0.260750 0.560533 1 1 1.000000
skin_0
0  48.806610 -22.063446 31.766960  -0.466469 0.883863 0.034537  0.260750 0.559557 1 1 1.000000
0  49.054363 -22.063446 31.794487  0.665326 0.680107 -0.307891  0.259774 0.558580 1 1 1.000000
0  48.269821 -22.338724 30.789726  0.410160 0.502619 -0.761014  0.263680 0.553697 1 1 1.000000
skin_0
0  48.269821 -22.338724 30.789726  0.410160 0.502619 -0.761014  0.263680 0.553697 1 1 1.000000
0  48.104652 -22.283667 30.954891  -0.459009 0.870242 0.178858  0.262703 0.556627 1 1 1.000000
0  48.806610 -22.063446 31.766960  -0.466469 0.883863 0.034537  0.260750 0.559557 1 1 1.000000
skin_0
0  39.763760 -24.774923 31.395334  0.187123 0.785908 0.589350  0.304697 0.556627 1 1 1.000000
0  39.474724 -24.898796 31.243933  -0.839476 0.261886 0.476126  0.306650 0.555650 1 1 1.000000
0  39.763760 -25.504406 32.468914  -0.765803 0.532183 0.361008  0.305673 0.561510 1 1 1.000000
skin_0
0  39.763760 -25.504406 32.468914  -0.765803 0.532183 0.361008  0.305673 0.561510 1 1 1.000000
0  39.997746 -25.476879 32.565262  0.356273 0.913186 0.197891  0.303720 0.562487 1 1 1.000000
0  39.763760 -24.774923 31.395334  0.187123 0.785908 0.589350  0.304697 0.556627 1 1 1.000000
skin_0
0  39.997746 -25.476879 32.565262  0.356273 0.913186 0.197891  0.303720 0.562487 1 1 1.000000
0  39.763760 -25.504406 32.468914  -0.765803 0.532183 0.361008  0.305673 0.561510 1 1 1.000000
0  40.052803 -25.697102 34.203163  -0.744146 0.516833 0.423239  0.303720 0.570299 1 1 1.000000
skin_0
0  40.052803 -25.697102 34.203163  -0.744146 0.516833 0.423239  0.303720 0.570299 1 1 1.000000
0  40.328079 -25.614519 34.079288  0.150960 0.976823 -0.151748  0.302744 0.569323 1 1 1.000000
0  39.997746 -25.476879 32.565262  0.356273 0.913186 0.197891  0.303720 0.562487 1 1 1.000000
skin_0
0  40.328079 -25.614519 34.079288  0.150960 0.976823 -0.151748  0.302744 0.569323 1 1 1.000000
0  40.052803 -25.697102 34.203163  -0.744146 0.516833 0.423239  0.303720 0.570299 1 1 1.000000
0  40.685940 -25.531935 34.698658  -0.481826 0.555547 0.677651  0.300790 0.573229 1 1 1.000000
skin_0
0  40.685940 -25.531935 34.698658  -0.481826 0.555547 0.677651  0.300790 0.573229 1 1 1.000000
0  40.782284 -25.504406 34.464672  -0.060540 0.859230 -0.507994  0.300790 0.571276 1 1 1.000000
0  40.328079 -25.614519 34.079288  0.150960 0.976823 -0.151748  0.302744 0.569323 1 1 1.000000
skin_0
0  40.782284 -25.504406 34.464672  -0.060540 0.859230 -0.507994  0.300790 0.571276 1 1 1.000000
0  40.685940 -25.531935 34.698658  -0.481826 0.555547 0.677651  0.300790 0.573229 1 1 1.000000
0  41.442951 -25.132786 34.822533  -0.364618 0.645686 0.670927  0.296884 0.574206 1 1 1.000000
skin_0
0  41.442951 -25.132786 34.822533  -0.364618 0.645686 0.670927  0.296884 0.574206 1 1 1.000000
0  41.470478 -25.119019 34.588547  -0.278029 0.750922 -0.599012  0.296884 0.572253 1 1 1.000000
0  40.782284 -25.504406 34.464672  -0.060540 0.859230 -0.507994  0.300790 0.571276 1 1 1.000000
skin_0
0  41.470478 -25.119019 34.588547  -0.278029 0.750922 -0.599012  0.296884 0.572253 1 1 1.000000
0  41.442951 -25.132786 34.822533  -0.364618 0.645686 0.670927  0.296884 0.574206 1 1 1.000000
0  42.888157 -24.595993 34.918880  -0.229836 0.620737 0.749573  0.290048 0.574206 1 1 1.000000
skin_0
0  42.888157 -24.595993 34.918880  -0.229836 0.620737 0.749573  0.290048 0.574206 1 1 1.000000
0  42.901920 -24.554703 34.684895  -0.302588 0.777121 -0.551836  0.290048 0.572253 1 1 1.000000
0  41.470478 -25.119019 34.588547  -0.278029 0.750922 -0.599012  0.296884 0.572253 1 1 1.000000
skin_0
0  42.901920 -24.554703 34.684895  -0.302588 0.777121 -0.551836  0.290048 0.572253 1 1 1.000000
0  42.888157 -24.595993 34.918880  -0.229836 0.620737 0.749573  0.290048 0.574206 1 1 1.000000
0  44.938969 -23.811457 34.781242  -0.117926 0.614285 0.780223  0.280282 0.574206 1 1 1.000000
skin_0
0  44.938969 -23.811457 34.781242  -0.117926 0.614285 0.780223  0.280282 0.574206 1 1 1.000000
0  44.911442 -23.770163 34.547256  -0.397552 0.778009 -0.486470  0.280282 0.572253 1 1 1.000000
0  42.901920 -24.554703 34.684895  -0.302588 0.777121 -0.551836  0.290048 0.572253 1 1 1.000000
skin_0
0  44.911442 -23.770163 34.547256  -0.397552 0.778009 -0.486470  0.280282 0.572253 1 1 1.000000
0  44.938969 -23.811457 34.781242  -0.117926 0.614285 0.780223  0.280282 0.574206 1 1 1.000000
0  46.948490 -23.013149 34.354561  0.072908 0.604892 0.792963  0.269539 0.571276 1 1 1.000000
skin_0
0  46.948490 -23.013149 34.354561  0.072908 0.604892 0.792963  0.269539 0.571276 1 1 1.000000
0  46.893436 -22.985622 34.120579  -0.486701 0.792507 -0.367498  0.270516 0.570299 1 1 1.000000
0  44.911442 -23.770163 34.547256  -0.397552 0.778009 -0.486470  0.280282 0.572253 1 1 1.000000
skin_0
0  46.893436 -22.985622 34.120579  -0.486701 0.792507 -0.367498  0.270516 0.570299 1 1 1.000000
0  46.948490 -23.013149 34.354561  0.072908 0.604892 0.792963  0.269539 0.571276 1 1 1.000000
0  48.173477 -22.517653 33.680134  0.369549 0.634105 0.679223  0.263680 0.568346 1 1 1.000000
skin_0
0  48.173477 -22.517653 33.680134  0.369549 0.634105 0.679223  0.263680 0.568346 1 1 1.000000
0  47.980778 -22.503889 33.514965  -0.541848 0.829400 -0.135998  0.264657 0.567370 1 1 1.000000
0  46.893436 -22.985622 34.120579  -0.486701 0.792507 -0.367498  0.270516 0.570299 1 1 1.000000
skin_0
0  47.980778 -22.503889 33.514965  -0.541848 0.829400 -0.135998  0.264657 0.567370 1 1 1.000000
0  48.173477 -22.517653 33.680134  0.369549 0.634105 0.679223  0.263680 0.568346 1 1 1.000000
0  48.847904 -22.201084 32.757957  0.598516 0.648723 0.470039  0.260750 0.563463 1 1 1.000000
skin_0
0  48.847904 -22.201084 32.757957  0.598516 0.648723 0.470039  0.260750 0.563463 1 1 1.000000
0  48.586391 -22.201084 32.716663  -0.522166 0.852394 -0.027711  0.261727 0.563463 1 1 1.000000
0  47.980778 -22.503889 33.514965  -0.541848 0.829400 -0.135998  0.264657 0.567370 1 1 1.000000
skin_0
0  42.007271 -26.963375 34.175632  0.179911 0.359115 -0.915788  0.219733 0.706046 1 1 1.000000
0  41.456715 -27.156069 33.721424  0.660608 0.588443 -0.466189  0.218757 0.703116 1 1 1.000000
0  40.328079 -25.614519 34.079288  0.150960 0.976823 -0.151748  0.225593 0.697256 1 1 1.000000
skin_0
0  40.328079 -25.614519 34.079288  0.150960 0.976823 -0.151748  0.225593 0.697256 1 1 1.000000
0  40.782284 -25.504406 34.464672  -0.060540 0.859230 -0.507994  0.226569 0.699210 1 1 1.000000
0  42.007271 -26.963375 34.175632  0.179911 0.359115 -0.915788  0.219733 0.706046 1 1 1.000000
skin_0
0  41.470478 -25.119019 34.588547  -0.278029 0.750922 -0.599012  0.228523 0.703116 1 1 1.000000
0  42.007271 -26.963375 34.175632  0.179911 0.359115 -0.915788  0.219733 0.706046 1 1 1.000000
0  40.782284 -25.504406 34.464672  -0.060540 0.859230 -0.507994  0.226569 0.699210 1 1 1.000000
skin_0
0  42.007271 -26.963375 34.175632  0.179911 0.359115 -0.915788  0.219733 0.706046 1 1 1.000000
0  41.470478 -25.119019 34.588547  -0.278029 0.750922 -0.599012  0.228523 0.703116 1 1 1.000000
0  42.901920 -24.554703 34.684895  -0.302588 0.777121 -0.551836  0.231452 0.709952 1 1 1.000000
skin_0
0  42.901920 -24.554703 34.684895  -0.302588 0.777121 -0.551836  0.231452 0.709952 1 1 1.000000
0  44.278301 -26.096252 34.216927  -0.164770 0.210330 -0.963645  0.223640 0.716788 1 1 1.000000
0  42.007271 -26.963375 34.175632  0.179911 0.359115 -0.915788  0.219733 0.706046 1 1 1.000000
skin_0
0  44.911442 -23.770163 34.547256  -0.397552 0.778009 -0.486470  0.235359 0.719718 1 1 1.000000
0  44.278301 -26.096252 34.216927  -0.164770 0.210330 -0.963645  0.223640 0.716788 1 1 1.000000
0  42.901920 -24.554703 34.684895  -0.302588 0.777121 -0.551836  0.231452 0.709952 1 1 1.000000
skin_0
0  46.521812 -25.201603 33.680134  -0.475173 0.279963 -0.834165  0.228523 0.727531 1 1 1.000000
0  44.278301 -26.096252 34.216927  -0.164770 0.210330 -0.963645  0.223640 0.716788 1 1 1.000000
0  44.911442 -23.770163 34.547256  -0.397552 0.778009 -0.486470  0.235359 0.719718 1 1 1.000000
skin_0
0  44.911442 -23.770163 34.547256  -0.397552 0.778009 -0.486470  0.235359 0.719718 1 1 1.000000
0  46.893436 -22.985622 34.120579  -0.486701 0.792507 -0.367498  0.239265 0.729484 1 1 1.000000
0  46.521812 -25.201603 33.680134  -0.475173 0.279963 -0.834165  0.228523 0.727531 1 1 1.000000
doorline
0  39.350845 -26.550459 28.381052  -0.855731 -0.471537 -0.213017  0.235359 0.646474 1 1 1.000000
0  39.928928 -26.825735 28.009428  -0.184990 -0.693630 -0.696173  0.235359 0.794916 1 1 1.000000
0  39.983982 -27.018431 28.188358  -0.180989 -0.694759 -0.696099  0.001953 0.798822 1 1 1.000000
doorline
0  39.983982 -27.018431 28.188358  -0.180989 -0.694759 -0.696099  0.001953 0.798822 1 1 1.000000
0  39.419666 -26.743155 28.559980  -0.809053 -0.517631 -0.278374  0.001953 0.650380 1 1 1.000000
0  39.350845 -26.550459 28.381052  -0.855731 -0.471537 -0.213017  0.235359 0.646474 1 1 1.000000
doorline
0  40.699703 -26.688099 28.202122  0.620315 -0.417029 -0.664301  0.001953 0.115207 1 1 1.000000
0  40.630882 -26.495405 28.009428  0.706573 -0.337619 -0.621907  0.235359 0.126926 1 1 1.000000
0  40.919926 -25.490643 28.463636  0.987031 0.123924 -0.102042  0.235359 0.342753 1 1 1.000000
doorline
0  40.919926 -25.490643 28.463636  0.987031 0.123924 -0.102042  0.235359 0.342753 1 1 1.000000
0  40.961216 -25.655809 28.656328  0.986408 0.068831 -0.149201  0.001953 0.337870 1 1 1.000000
0  40.699703 -26.688099 28.202122  0.620315 -0.417029 -0.664301  0.001953 0.115207 1 1 1.000000
doorline
0  40.961216 -25.655809 28.656328  0.986408 0.068831 -0.149201  0.001953 0.337870 1 1 1.000000
0  40.919926 -25.490643 28.463636  0.987031 0.123924 -0.102042  0.235359 0.342753 1 1 1.000000
0  40.630882 -24.651049 29.027954  0.887258 0.447544 0.111703  0.235359 0.544908 1 1 1.000000
doorline
0  40.630882 -24.651049 29.027954  0.887258 0.447544 0.111703  0.235359 0.544908 1 1 1.000000
0  40.699703 -24.829979 29.206881  0.905000 0.421289 0.059080  0.001953 0.536119 1 1 1.000000
0  40.961216 -25.655809 28.656328  0.986408 0.068831 -0.149201  0.001953 0.337870 1 1 1.000000
doorline
0  40.094093 -24.114260 29.771200  0.798422 0.523723 0.297048  0.001953 0.717765 1 1 1.000000
0  40.699703 -24.829979 29.206881  0.905000 0.421289 0.059080  0.001953 0.536119 1 1 1.000000
0  40.630882 -24.651049 29.027954  0.887258 0.447544 0.111703  0.235359 0.544908 1 1 1.000000
doorline
0  40.630882 -24.651049 29.027954  0.887258 0.447544 0.111703  0.235359 0.544908 1 1 1.000000
0  40.039040 -23.907801 29.592270  0.786171 0.530589 0.316876  0.235359 0.729484 1 1 1.000000
0  40.094093 -24.114260 29.771200  0.798422 0.523723 0.297048  0.001953 0.717765 1 1 1.000000
doorline
0  40.094093 -24.114260 29.771200  0.798422 0.523723 0.297048  0.001953 0.717765 1 1 1.000000
0  40.039040 -23.907801 29.592270  0.786171 0.530589 0.316876  0.235359 0.729484 1 1 1.000000
0  39.323318 -23.329720 30.142824  0.164341 0.683043 0.711649  0.235359 0.889645 1 1 1.000000
doorline
0  39.323318 -23.329720 30.142824  0.164341 0.683043 0.711649  0.235359 0.889645 1 1 1.000000
0  39.392139 -23.536179 30.321754  0.188313 0.683457 0.705283  0.001953 0.876949 1 1 1.000000
0  40.094093 -24.114260 29.771200  0.798422 0.523723 0.297048  0.001953 0.717765 1 1 1.000000
doorline
0  38.992985 -24.595993 29.853785  -0.969847 -0.151092 0.191229  0.235359 0.682608 1 1 1.000000
0  39.034279 -23.797689 30.280464  -0.834518 0.175416 0.522311  0.235359 0.864254 1 1 1.000000
0  38.965458 -23.591232 30.101530  -0.748007 0.279417 0.602006  0.001953 0.882809 1 1 1.000000
doorline
0  38.965458 -23.591232 30.101530  -0.748007 0.279417 0.602006  0.001953 0.882809 1 1 1.000000
0  38.924168 -24.389536 29.674856  -0.968276 -0.127957 0.214637  0.001953 0.701163 1 1 1.000000
0  38.992985 -24.595993 29.853785  -0.969847 -0.151092 0.191229  0.235359 0.682608 1 1 1.000000
doorline
0  38.992985 -24.595993 29.853785  -0.969847 -0.151092 0.191229  0.235359 0.682608 1 1 1.000000
0  38.924168 -24.389536 29.674856  -0.968276 -0.127957 0.214637  0.001953 0.701163 1 1 1.000000
0  39.061806 -25.586992 29.000423  -0.967293 -0.235640 0.093906  0.001953 0.427717 1 1 1.000000
doorline
0  39.061806 -25.586992 29.000423  -0.967293 -0.235640 0.093906  0.001953 0.427717 1 1 1.000000
0  39.130623 -25.779682 29.179354  -0.964097 -0.256544 0.068566  0.235359 0.409162 1 1 1.000000
0  38.992985 -24.595993 29.853785  -0.969847 -0.151092 0.191229  0.235359 0.682608 1 1 1.000000
doorline
0  39.130623 -25.779682 29.179354  -0.964097 -0.256544 0.068566  0.235359 0.409162 1 1 1.000000
0  39.061806 -25.586992 29.000423  -0.967293 -0.235640 0.093906  0.001953 0.427717 1 1 1.000000
0  39.350845 -26.550459 28.381052  -0.855731 -0.471537 -0.213017  0.001953 0.199194 1 1 1.000000
doorline
0  39.350845 -26.550459 28.381052  -0.855731 -0.471537 -0.213017  0.001953 0.199194 1 1 1.000000
0  39.419666 -26.743155 28.559980  -0.809053 -0.517631 -0.278374  0.235359 0.181616 1 1 1.000000
0  39.130623 -25.779682 29.179354  -0.964097 -0.256544 0.068566  0.235359 0.409162 1 1 1.000000
doorline
0  39.928928 -26.825735 28.009428  -0.184990 -0.693630 -0.696173  0.235359 0.653310 1 1 1.000000
0  40.630882 -26.495405 28.009428  0.706573 -0.337619 -0.621907  0.235359 0.808588 1 1 1.000000
0  40.699703 -26.688099 28.202122  0.620315 -0.417029 -0.664301  0.001953 0.796869 1 1 1.000000
doorline
0  40.699703 -26.688099 28.202122  0.620315 -0.417029 -0.664301  0.001953 0.796869 1 1 1.000000
0  39.983982 -27.018431 28.188358  -0.180989 -0.694759 -0.696099  0.001953 0.642567 1 1 1.000000
0  39.928928 -26.825735 28.009428  -0.184990 -0.693630 -0.696173  0.235359 0.653310 1 1 1.000000
doorline
0  38.965458 -23.591232 30.101530  -0.748007 0.279417 0.602006  0.235359 0.760735 1 1 1.000000
0  39.034279 -23.797689 30.280464  -0.834518 0.175416 0.522311  0.001953 0.772454 1 1 1.000000
0  39.392139 -23.536179 30.321754  0.188313 0.683457 0.705283  0.001953 0.685537 1 1 1.000000
doorline
0  39.392139 -23.536179 30.321754  0.188313 0.683457 0.705283  0.001953 0.685537 1 1 1.000000
0  39.323318 -23.329720 30.142824  0.164341 0.683043 0.711649  0.235359 0.672842 1 1 1.000000
0  38.965458 -23.591232 30.101530  -0.748007 0.279417 0.602006  0.235359 0.760735 1 1 1.000000
chrome
0  47.994541 -23.412304 33.280983  -0.358550 0.933353 -0.017145  0.994171 0.314432 1 1 1.000000
0  48.434986 -23.260900 32.441387  -0.358490 0.933376 -0.017144  0.995148 0.328104 1 1 1.000000
0  46.920963 -23.811457 34.051754  -0.358526 0.933362 -0.017173  0.992218 0.301736 1 1 1.000000
chrome
0  45.021553 -24.527176 34.492199  -0.358702 0.933303 -0.016674  0.987335 0.292947 1 1 1.000000
0  46.920963 -23.811457 34.051754  -0.358526 0.933362 -0.017173  0.992218 0.301736 1 1 1.000000
0  48.434986 -23.260900 32.441387  -0.358490 0.933376 -0.017144  0.995148 0.328104 1 1 1.000000
chrome
0  48.434986 -23.260900 32.441387  -0.358490 0.933376 -0.017144  0.995148 0.328104 1 1 1.000000
0  48.586391 -23.205847 31.711903  -0.358434 0.933399 -0.017039  0.995148 0.339824 1 1 1.000000
0  45.021553 -24.527176 34.492199  -0.358702 0.933303 -0.016674  0.987335 0.292947 1 1 1.000000
chrome
0  42.943211 -25.325480 34.629841  -0.358732 0.933277 -0.017477  0.982452 0.290017 1 1 1.000000
0  45.021553 -24.527176 34.492199  -0.358702 0.933303 -0.016674  0.987335 0.292947 1 1 1.000000
0  48.586391 -23.205847 31.711903  -0.358434 0.933399 -0.017039  0.995148 0.339824 1 1 1.000000
chrome
0  48.586391 -23.205847 31.711903  -0.358434 0.933399 -0.017039  0.995148 0.339824 1 1 1.000000
0  47.953251 -23.467358 30.954891  -0.358531 0.933360 -0.017188  0.994171 0.349590 1 1 1.000000
0  42.943211 -25.325480 34.629841  -0.358732 0.933277 -0.017477  0.982452 0.290017 1 1 1.000000
chrome
0  47.953251 -23.467358 30.954891  -0.358531 0.933360 -0.017188  0.994171 0.349590 1 1 1.000000
0  40.713467 -26.192602 34.492199  -0.358248 0.933470 -0.017123  0.976592 0.296854 1 1 1.000000
0  42.943211 -25.325480 34.629841  -0.358732 0.933277 -0.017477  0.982452 0.290017 1 1 1.000000
chrome
0  47.953251 -23.467358 30.954891  -0.358531 0.933360 -0.017188  0.994171 0.349590 1 1 1.000000
0  40.548302 -26.288948 32.551498  -0.358502 0.933372 -0.017106  0.977569 0.320292 1 1 1.000000
0  40.713467 -26.192602 34.492199  -0.358248 0.933470 -0.017123  0.976592 0.296854 1 1 1.000000
chrome
0  47.953251 -23.467358 30.954891  -0.358531 0.933360 -0.017188  0.994171 0.349590 1 1 1.000000
0  40.809818 -26.206366 31.147587  -0.358501 0.933372 -0.017160  0.977569 0.333964 1 1 1.000000
0  40.548302 -26.288948 32.551498  -0.358502 0.933372 -0.017106  0.977569 0.320292 1 1 1.000000
chrome
0  47.953251 -23.467358 30.954891  -0.358531 0.933360 -0.017188  0.994171 0.349590 1 1 1.000000
0  41.085091 -26.123781 30.583269  -0.358502 0.933371 -0.017176  0.977569 0.347636 1 1 1.000000
0  40.809818 -26.206366 31.147587  -0.358501 0.933372 -0.017160  0.977569 0.333964 1 1 1.000000
chrome
0  47.953251 -23.467358 30.954891  -0.358531 0.933360 -0.017188  0.994171 0.349590 1 1 1.000000
0  41.553059 -25.944849 30.101530  -0.358499 0.933373 -0.017138  0.977569 0.366192 1 1 1.000000
0  41.085091 -26.123781 30.583269  -0.358502 0.933371 -0.017176  0.977569 0.347636 1 1 1.000000
end
