version 1
nodes
0 "blender_implicit" -1
1 "root" -1
2 "steering_wheel" 1
end
skeleton
time 0
0  0.000000 0.000000 0.000000  0.000000 -0.000000 0.000000
1  0.000000 0.000000 0.000000  1.570796 -0.000000 0.000000
2  19.104225 25.848501 19.062937  0.000000 -0.000000 0.000000
end
triangles
exhaust
0  28.229647 87.056343 9.400707  0.246634 0.969053 0.010390  0.494156 0.743156 1 1 1.000000
0  27.486399 87.193977 11.107424  0.232174 0.972404 0.022917  0.527360 0.799799 1 1 1.000000
0  28.147062 86.987526 12.827905  0.244087 0.969535 0.020565  0.504898 0.860347 1 1 1.000000
exhaust
0  28.229647 87.056343 9.400707  0.246634 0.969053 0.010390  0.494156 0.743156 1 1 1.000000
0  31.629318 86.175453 9.386942  0.248121 0.968690 0.008672  0.369152 0.742180 1 1 1.000000
0  29.908838 86.574608 8.684987  0.248602 0.966972 -0.056233  0.434584 0.719718 1 1 1.000000
exhaust
0  28.229647 87.056343 9.400707  0.246634 0.969053 0.010390  0.494156 0.743156 1 1 1.000000
0  28.147062 86.987526 12.827905  0.244087 0.969535 0.020565  0.504898 0.860347 1 1 1.000000
0  31.629318 86.175453 9.386942  0.248121 0.968690 0.008672  0.369152 0.742180 1 1 1.000000
exhaust
0  28.147062 86.987526 12.827905  0.244087 0.969535 0.020565  0.504898 0.860347 1 1 1.000000
0  29.922602 86.533318 13.571153  0.247268 0.968763 0.018892  0.431654 0.897458 1 1 1.000000
0  31.629318 86.175453 9.386942  0.248121 0.968690 0.008672  0.369152 0.742180 1 1 1.000000
exhaust
0  29.922602 86.533318 13.571153  0.247268 0.968763 0.018892  0.431654 0.897458 1 1 1.000000
0  31.643082 86.092873 12.841668  0.252578 0.967335 0.021639  0.355480 0.860347 1 1 1.000000
0  31.629318 86.175453 9.386942  0.248121 0.968690 0.008672  0.369152 0.742180 1 1 1.000000
exhaust
0  31.643082 86.092873 12.841668  0.252578 0.967335 0.021639  0.355480 0.860347 1 1 1.000000
0  32.331280 85.968994 11.093659  0.244977 0.969281 0.021948  0.345714 0.795892 1 1 1.000000
0  31.629318 86.175453 9.386942  0.248121 0.968690 0.008672  0.369152 0.742180 1 1 1.000000
exhaust
0  -24.596003 87.895935 13.681268  -0.197983 0.980032 -0.018441  0.431654 0.897458 1 1 1.000000
0  -22.889286 88.226273 12.965547  -0.196040 0.980428 -0.018146  0.355480 0.860347 1 1 1.000000
0  -22.173567 88.336380 11.272593  -0.205927 0.978439 -0.015873  0.345714 0.795892 1 1 1.000000
exhaust
0  -22.173567 88.336380 11.272593  -0.205927 0.978439 -0.015873  0.345714 0.795892 1 1 1.000000
0  -22.903049 88.184975 9.565877  -0.234783 0.971945 0.014117  0.369152 0.742180 1 1 1.000000
0  -24.596003 87.785828 8.891448  -0.213587 0.976785 -0.016462  0.434584 0.719718 1 1 1.000000
exhaust
0  -24.596003 87.895935 13.681268  -0.197983 0.980032 -0.018441  0.431654 0.897458 1 1 1.000000
0  -22.173567 88.336380 11.272593  -0.205927 0.978439 -0.015873  0.345714 0.795892 1 1 1.000000
0  -24.596003 87.785828 8.891448  -0.213587 0.976785 -0.016462  0.434584 0.719718 1 1 1.000000
exhaust
0  -24.596003 87.895935 13.681268  -0.197983 0.980032 -0.018441  0.431654 0.897458 1 1 1.000000
0  -24.596003 87.785828 8.891448  -0.213587 0.976785 -0.016462  0.434584 0.719718 1 1 1.000000
0  -26.288958 87.427963 9.565877  -0.191329 0.980984 -0.032603  0.494156 0.743156 1 1 1.000000
exhaust
0  -26.990911 87.414200 11.272593  -0.159846 0.986397 -0.038349  0.527360 0.799799 1 1 1.000000
0  -24.596003 87.895935 13.681268  -0.197983 0.980032 -0.018441  0.431654 0.897458 1 1 1.000000
0  -26.288958 87.427963 9.565877  -0.191329 0.980984 -0.032603  0.494156 0.743156 1 1 1.000000
exhaust
0  -26.990911 87.414200 11.272593  -0.159846 0.986397 -0.038349  0.527360 0.799799 1 1 1.000000
0  -26.288958 87.524307 12.938020  -0.231396 0.972197 0.035893  0.504898 0.860347 1 1 1.000000
0  -24.596003 87.895935 13.681268  -0.197983 0.980032 -0.018441  0.431654 0.897458 1 1 1.000000
exhaust
0  -28.257187 87.056343 9.400711  -0.246412 0.969110 0.010309  0.494156 0.743156 1 1 1.000000
0  -29.936377 86.574608 8.684991  -0.248659 0.966958 -0.056220  0.434584 0.719718 1 1 1.000000
0  -31.656858 86.175453 9.386948  -0.248299 0.968644 0.008735  0.369152 0.742180 1 1 1.000000
exhaust
0  -28.174604 86.987526 12.827909  -0.244087 0.969535 0.020566  0.504898 0.860347 1 1 1.000000
0  -27.513937 87.193977 11.107428  -0.232269 0.972381 0.022926  0.527360 0.799799 1 1 1.000000
0  -28.257187 87.056343 9.400711  -0.246412 0.969110 0.010309  0.494156 0.743156 1 1 1.000000
exhaust
0  -28.174604 86.987526 12.827909  -0.244087 0.969535 0.020566  0.504898 0.860347 1 1 1.000000
0  -28.257187 87.056343 9.400711  -0.246412 0.969110 0.010309  0.494156 0.743156 1 1 1.000000
0  -31.656858 86.175453 9.386948  -0.248299 0.968644 0.008735  0.369152 0.742180 1 1 1.000000
exhaust
0  -28.174604 86.987526 12.827909  -0.244087 0.969535 0.020566  0.504898 0.860347 1 1 1.000000
0  -31.656858 86.175453 9.386948  -0.248299 0.968644 0.008735  0.369152 0.742180 1 1 1.000000
0  -29.950140 86.533318 13.571157  -0.247218 0.968779 0.018703  0.431654 0.897458 1 1 1.000000
exhaust
0  -31.656858 86.175453 9.386948  -0.248299 0.968644 0.008735  0.369152 0.742180 1 1 1.000000
0  -31.670622 86.092873 12.841674  -0.252576 0.967324 0.022116  0.355480 0.860347 1 1 1.000000
0  -29.950140 86.533318 13.571157  -0.247218 0.968779 0.018703  0.431654 0.897458 1 1 1.000000
exhaust
0  -31.656858 86.175453 9.386948  -0.248299 0.968644 0.008735  0.369152 0.742180 1 1 1.000000
0  -32.358814 85.968994 11.093665  -0.245026 0.969268 0.021942  0.345714 0.795892 1 1 1.000000
0  -31.670622 86.092873 12.841674  -0.252576 0.967324 0.022116  0.355480 0.860347 1 1 1.000000
exhaust
0  24.568464 87.895935 13.681264  0.197983 0.980032 -0.018441  0.431654 0.897458 1 1 1.000000
0  22.146025 88.336380 11.272590  0.205927 0.978439 -0.015872  0.345714 0.795892 1 1 1.000000
0  22.861746 88.226273 12.965543  0.196437 0.980341 -0.018554  0.355480 0.860347 1 1 1.000000
exhaust
0  24.568464 87.785828 8.891444  0.212661 0.976980 -0.016921  0.434584 0.719718 1 1 1.000000
0  22.875511 88.184975 9.565873  0.235100 0.971870 0.014039  0.369152 0.742180 1 1 1.000000
0  22.146025 88.336380 11.272590  0.205927 0.978439 -0.015872  0.345714 0.795892 1 1 1.000000
exhaust
0  24.568464 87.895935 13.681264  0.197983 0.980032 -0.018441  0.431654 0.897458 1 1 1.000000
0  24.568464 87.785828 8.891444  0.212661 0.976980 -0.016921  0.434584 0.719718 1 1 1.000000
0  22.146025 88.336380 11.272590  0.205927 0.978439 -0.015872  0.345714 0.795892 1 1 1.000000
exhaust
0  24.568464 87.895935 13.681264  0.197983 0.980032 -0.018441  0.431654 0.897458 1 1 1.000000
0  26.261417 87.427963 9.565873  0.190405 0.981161 -0.032700  0.494156 0.743156 1 1 1.000000
0  24.568464 87.785828 8.891444  0.212661 0.976980 -0.016921  0.434584 0.719718 1 1 1.000000
exhaust
0  24.568464 87.895935 13.681264  0.197983 0.980032 -0.018441  0.431654 0.897458 1 1 1.000000
0  26.963373 87.414200 11.272590  0.159737 0.986457 -0.037240  0.527360 0.799799 1 1 1.000000
0  26.261417 87.427963 9.565873  0.190405 0.981161 -0.032700  0.494156 0.743156 1 1 1.000000
exhaust
0  24.568464 87.895935 13.681264  0.197983 0.980032 -0.018441  0.431654 0.897458 1 1 1.000000
0  26.261417 87.524307 12.938016  0.231332 0.972213 0.035893  0.504898 0.860347 1 1 1.000000
0  26.963373 87.414200 11.272590  0.159737 0.986457 -0.037240  0.527360 0.799799 1 1 1.000000
exhaust
0  -22.558952 79.926666 8.451005  -0.001071 -0.999987 -0.005034  0.312510 0.284158 1 1 1.000000
0  -20.934818 79.926666 10.226542  0.000051 -1.000000 0.000677  0.226569 0.370098 1 1 1.000000
0  -20.769651 79.926666 12.373702  0.008738 -0.999957 -0.003240  0.221686 0.468734 1 1 1.000000
exhaust
0  -22.558952 79.926666 8.451005  -0.001071 -0.999987 -0.005034  0.312510 0.284158 1 1 1.000000
0  -20.769651 79.926666 12.373702  0.008738 -0.999957 -0.003240  0.221686 0.468734 1 1 1.000000
0  -23.439840 79.885376 14.300641  -0.003520 -0.999981 -0.005098  0.399426 0.567370 1 1 1.000000
exhaust
0  -25.091501 79.940430 7.638938  -0.000412 -0.999993 -0.003643  0.446303 0.229469 1 1 1.000000
0  -22.558952 79.926666 8.451005  -0.001071 -0.999987 -0.005034  0.312510 0.284158 1 1 1.000000
0  -23.439840 79.885376 14.300641  -0.003520 -0.999981 -0.005098  0.399426 0.567370 1 1 1.000000
exhaust
0  -27.266188 79.926666 14.906251  0.001827 -0.999996 -0.002299  0.587909 0.580065 1 1 1.000000
0  -25.091501 79.940430 7.638938  -0.000412 -0.999993 -0.003643  0.446303 0.229469 1 1 1.000000
0  -23.439840 79.885376 14.300641  -0.003520 -0.999981 -0.005098  0.399426 0.567370 1 1 1.000000
exhaust
0  -27.266188 79.926666 14.906251  0.001827 -0.999996 -0.002299  0.587909 0.580065 1 1 1.000000
0  -27.486410 79.926666 7.349897  0.002509 -0.999992 -0.003207  0.586932 0.218726 1 1 1.000000
0  -25.091501 79.940430 7.638938  -0.000412 -0.999993 -0.003643  0.446303 0.229469 1 1 1.000000
exhaust
0  -27.486410 79.926666 7.349897  0.002509 -0.999992 -0.003207  0.586932 0.218726 1 1 1.000000
0  -27.266188 79.926666 14.906251  0.001827 -0.999996 -0.002299  0.587909 0.580065 1 1 1.000000
0  -30.831026 79.885376 14.452044  0.001629 -0.999993 -0.003464  0.399426 0.565416 1 1 1.000000
exhaust
0  -30.101540 79.940430 7.611411  -0.003403 -0.999961 -0.008114  0.419935 0.236305 1 1 1.000000
0  -27.486410 79.926666 7.349897  0.002509 -0.999992 -0.003207  0.586932 0.218726 1 1 1.000000
0  -30.831026 79.885376 14.452044  0.001629 -0.999993 -0.003464  0.399426 0.565416 1 1 1.000000
exhaust
0  -32.221172 79.926666 8.781339  -0.000096 -0.999985 -0.005502  0.298837 0.279275 1 1 1.000000
0  -30.101540 79.940430 7.611411  -0.003403 -0.999961 -0.008114  0.419935 0.236305 1 1 1.000000
0  -30.831026 79.885376 14.452044  0.001629 -0.999993 -0.003464  0.399426 0.565416 1 1 1.000000
exhaust
0  -33.625084 79.926666 12.621452  -0.008644 -0.999960 -0.002416  0.229499 0.457015 1 1 1.000000
0  -32.221172 79.926666 8.781339  -0.000096 -0.999985 -0.005502  0.298837 0.279275 1 1 1.000000
0  -30.831026 79.885376 14.452044  0.001629 -0.999993 -0.003464  0.399426 0.565416 1 1 1.000000
exhaust
0  -33.625084 79.926666 12.621452  -0.008644 -0.999960 -0.002416  0.229499 0.457015 1 1 1.000000
0  -33.790253 79.926666 10.488055  -0.000058 -1.000000 0.000669  0.225593 0.358379 1 1 1.000000
0  -32.221172 79.926666 8.781339  -0.000096 -0.999985 -0.005502  0.298837 0.279275 1 1 1.000000
exhaust
0  -30.720917 86.258041 14.300641  -0.306145 0.014037 0.951881  0.054689 0.998047 1 1 1.000000
0  -30.831026 79.885376 14.452044  -0.346899 0.028266 0.937477  0.054689 0.244118 1 1 1.000000
0  -27.266188 79.926666 14.906251  0.005895 0.012298 0.999907  0.039064 0.244118 1 1 1.000000
exhaust
0  -27.266188 79.926666 14.906251  0.005895 0.012298 0.999907  0.039064 0.244118 1 1 1.000000
0  -27.266188 87.166451 14.809902  0.006541 0.014524 0.999873  0.039064 0.998047 1 1 1.000000
0  -30.720917 86.258041 14.300641  -0.306145 0.014037 0.951881  0.054689 0.998047 1 1 1.000000
exhaust
0  -23.536188 88.047340 14.341932  0.409377 0.006170 0.912344  0.008789 0.998047 1 1 1.000000
0  -27.266188 87.166451 14.809902  0.006541 0.014524 0.999873  0.039064 0.998047 1 1 1.000000
0  -27.266188 79.926666 14.906251  0.005895 0.012298 0.999907  0.039064 0.244118 1 1 1.000000
exhaust
0  -27.266188 79.926666 14.906251  0.005895 0.012298 0.999907  0.039064 0.244118 1 1 1.000000
0  -23.439840 79.885376 14.300641  0.384848 0.002906 0.922975  0.008789 0.244118 1 1 1.000000
0  -23.536188 88.047340 14.341932  0.409377 0.006170 0.912344  0.008789 0.998047 1 1 1.000000
exhaust
0  -23.536188 88.047340 14.341932  -0.236818 0.971132 -0.028641  0.400403 0.983398 1 1 1.000000
0  -20.962347 88.652954 12.401230  -0.251158 0.967378 -0.033158  0.220710 0.879879 1 1 1.000000
0  -21.127514 88.529068 10.240305  -0.245961 0.968818 -0.029906  0.224616 0.774407 1 1 1.000000
exhaust
0  -23.536188 88.047340 14.341932  -0.236818 0.971132 -0.028641  0.400403 0.983398 1 1 1.000000
0  -21.127514 88.529068 10.240305  -0.245961 0.968818 -0.029906  0.224616 0.774407 1 1 1.000000
0  -22.696592 88.088631 8.492296  -0.237480 0.971011 -0.027231  0.311533 0.676748 1 1 1.000000
exhaust
0  -25.160322 87.469254 7.693994  -0.238623 0.970684 -0.028827  0.447279 0.618152 1 1 1.000000
0  -23.536188 88.047340 14.341932  -0.236818 0.971132 -0.028641  0.400403 0.983398 1 1 1.000000
0  -22.696592 88.088631 8.492296  -0.237480 0.971011 -0.027231  0.311533 0.676748 1 1 1.000000
exhaust
0  -25.160322 87.469254 7.693994  -0.238623 0.970684 -0.028827  0.447279 0.618152 1 1 1.000000
0  -27.266188 87.166451 14.809902  -0.240633 0.970230 -0.027388  0.579119 0.983398 1 1 1.000000
0  -23.536188 88.047340 14.341932  -0.236818 0.971132 -0.028641  0.400403 0.983398 1 1 1.000000
exhaust
0  -25.160322 87.469254 7.693994  -0.238623 0.970684 -0.028827  0.447279 0.618152 1 1 1.000000
0  -27.486410 86.877419 7.418717  -0.238556 0.970599 -0.032077  0.579119 0.621082 1 1 1.000000
0  -27.266188 87.166451 14.809902  -0.240633 0.970230 -0.027388  0.579119 0.983398 1 1 1.000000
exhaust
0  -27.266188 87.166451 14.809902  -0.240633 0.970230 -0.027388  0.579119 0.983398 1 1 1.000000
0  -27.486410 86.877419 7.418717  -0.238556 0.970599 -0.032077  0.579119 0.621082 1 1 1.000000
0  -30.032722 86.271805 7.707757  -0.238692 0.970701 -0.027684  0.417982 0.625965 1 1 1.000000
exhaust
0  -30.720917 86.258041 14.300641  -0.241324 0.970099 -0.025914  0.397473 0.981445 1 1 1.000000
0  -27.266188 87.166451 14.809902  -0.240633 0.970230 -0.027388  0.579119 0.983398 1 1 1.000000
0  -30.032722 86.271805 7.707757  -0.238692 0.970701 -0.027684  0.417982 0.625965 1 1 1.000000
exhaust
0  -30.720917 86.258041 14.300641  -0.241324 0.970099 -0.025914  0.397473 0.981445 1 1 1.000000
0  -30.032722 86.271805 7.707757  -0.238692 0.970701 -0.027684  0.417982 0.625965 1 1 1.000000
0  -32.083538 85.790070 8.891449  -0.236753 0.971267 -0.024277  0.294931 0.671865 1 1 1.000000
exhaust
0  -33.611320 85.487259 10.611930  -0.226629 0.973558 -0.028717  0.220710 0.762688 1 1 1.000000
0  -30.720917 86.258041 14.300641  -0.241324 0.970099 -0.025914  0.397473 0.981445 1 1 1.000000
0  -32.083538 85.790070 8.891449  -0.236753 0.971267 -0.024277  0.294931 0.671865 1 1 1.000000
exhaust
0  -33.611320 85.487259 10.611930  -0.226629 0.973558 -0.028717  0.220710 0.762688 1 1 1.000000
0  -33.446156 85.597374 12.745326  -0.217743 0.975339 -0.036068  0.224616 0.867183 1 1 1.000000
0  -30.720917 86.258041 14.300641  -0.241324 0.970099 -0.025914  0.397473 0.981445 1 1 1.000000
exhaust
0  23.508648 88.047340 14.341928  -0.410008 0.005302 0.912067  0.008789 0.998047 1 1 1.000000
0  23.412302 79.885376 14.300637  -0.384848 0.002906 0.922975  0.008789 0.244118 1 1 1.000000
0  27.238649 79.926666 14.906247  -0.005996 0.012251 0.999907  0.039064 0.244118 1 1 1.000000
exhaust
0  27.238649 79.926666 14.906247  -0.005996 0.012251 0.999907  0.039064 0.244118 1 1 1.000000
0  27.238649 87.166451 14.809898  -0.006725 0.014386 0.999874  0.039064 0.998047 1 1 1.000000
0  23.508648 88.047340 14.341928  -0.410008 0.005302 0.912067  0.008789 0.998047 1 1 1.000000
exhaust
0  30.693378 86.258041 14.300637  0.306542 0.013390 0.951763  0.054689 0.998047 1 1 1.000000
0  27.238649 87.166451 14.809898  -0.006725 0.014386 0.999874  0.039064 0.998047 1 1 1.000000
0  27.238649 79.926666 14.906247  -0.005996 0.012251 0.999907  0.039064 0.244118 1 1 1.000000
exhaust
0  27.238649 79.926666 14.906247  -0.005996 0.012251 0.999907  0.039064 0.244118 1 1 1.000000
0  30.803488 79.885376 14.452040  0.346899 0.028267 0.937477  0.054689 0.244118 1 1 1.000000
0  30.693378 86.258041 14.300637  0.306542 0.013390 0.951763  0.054689 0.998047 1 1 1.000000
exhaust
0  -33.625084 79.926666 12.621452  -0.859819 0.027847 0.509839  0.144536 0.244118 1 1 1.000000
0  -30.831026 79.885376 14.452044  -0.346899 0.028266 0.937477  0.080081 0.244118 1 1 1.000000
0  -30.720917 86.258041 14.300641  -0.306145 0.014037 0.951881  0.080081 0.998047 1 1 1.000000
exhaust
0  -30.720917 86.258041 14.300641  -0.306145 0.014037 0.951881  0.080081 0.998047 1 1 1.000000
0  -33.446156 85.597374 12.745326  -0.816047 0.013356 0.577831  0.144536 0.998047 1 1 1.000000
0  -33.625084 79.926666 12.621452  -0.859819 0.027847 0.509839  0.144536 0.244118 1 1 1.000000
exhaust
0  -33.790253 79.926666 10.488055  -0.943453 0.037452 -0.329383  0.180670 0.244118 1 1 1.000000
0  -33.625084 79.926666 12.621452  -0.859819 0.027847 0.509839  0.144536 0.244118 1 1 1.000000
0  -33.446156 85.597374 12.745326  -0.816047 0.013356 0.577831  0.144536 0.998047 1 1 1.000000
exhaust
0  -33.446156 85.597374 12.745326  -0.816047 0.013356 0.577831  0.144536 0.998047 1 1 1.000000
0  -33.611320 85.487259 10.611930  -0.943897 0.034354 -0.328448  0.180670 0.998047 1 1 1.000000
0  -33.790253 79.926666 10.488055  -0.943453 0.037452 -0.329383  0.180670 0.244118 1 1 1.000000
exhaust
0  -32.221172 79.926666 8.781339  -0.619183 0.032916 -0.784557  0.188482 0.244118 1 1 1.000000
0  -33.790253 79.926666 10.488055  -0.943453 0.037452 -0.329383  0.180670 0.244118 1 1 1.000000
0  -33.611320 85.487259 10.611930  -0.943897 0.034354 -0.328448  0.180670 0.998047 1 1 1.000000
exhaust
0  -33.611320 85.487259 10.611930  -0.943897 0.034354 -0.328448  0.180670 0.998047 1 1 1.000000
0  -32.083538 85.790070 8.891449  -0.618124 0.025228 -0.785676  0.188482 0.998047 1 1 1.000000
0  -32.221172 79.926666 8.781339  -0.619183 0.032916 -0.784557  0.188482 0.244118 1 1 1.000000
exhaust
0  -30.101540 79.940430 7.611411  -0.302314 0.018930 -0.953020  0.153325 0.244118 1 1 1.000000
0  -32.221172 79.926666 8.781339  -0.619183 0.032916 -0.784557  0.188482 0.244118 1 1 1.000000
0  -32.083538 85.790070 8.891449  -0.618124 0.025228 -0.785676  0.188482 0.998047 1 1 1.000000
exhaust
0  -32.083538 85.790070 8.891449  -0.618124 0.025228 -0.785676  0.188482 0.998047 1 1 1.000000
0  -30.032722 86.271805 7.707757  -0.286897 0.017560 -0.957800  0.153325 0.998047 1 1 1.000000
0  -30.101540 79.940430 7.611411  -0.302314 0.018930 -0.953020  0.153325 0.244118 1 1 1.000000
exhaust
0  -30.101540 79.940430 7.611411  -0.302314 0.018930 -0.953020  0.153325 0.244118 1 1 1.000000
0  -30.032722 86.271805 7.707757  -0.286897 0.017560 -0.957800  0.153325 0.998047 1 1 1.000000
0  -27.486410 86.877419 7.418717  0.019571 0.011221 -0.999746  0.137700 0.998047 1 1 1.000000
exhaust
0  -27.486410 86.877419 7.418717  0.019571 0.011221 -0.999746  0.137700 0.998047 1 1 1.000000
0  -27.486410 79.926666 7.349897  0.011251 0.010575 -0.999881  0.137700 0.244118 1 1 1.000000
0  -30.101540 79.940430 7.611411  -0.302314 0.018930 -0.953020  0.153325 0.244118 1 1 1.000000
exhaust
0  -25.091501 79.940430 7.638938  0.213977 0.009819 -0.976789  0.125004 0.244118 1 1 1.000000
0  -27.486410 79.926666 7.349897  0.011251 0.010575 -0.999881  0.137700 0.244118 1 1 1.000000
0  -27.486410 86.877419 7.418717  0.019571 0.011221 -0.999746  0.137700 0.998047 1 1 1.000000
exhaust
0  -27.486410 86.877419 7.418717  0.019571 0.011221 -0.999746  0.137700 0.998047 1 1 1.000000
0  -25.160322 87.469254 7.693994  0.225911 0.009290 -0.974104  0.125004 0.998047 1 1 1.000000
0  -25.091501 79.940430 7.638938  0.213977 0.009819 -0.976789  0.125004 0.244118 1 1 1.000000
exhaust
0  -22.558952 79.926666 8.451005  0.541348 0.013068 -0.840697  0.088870 0.244118 1 1 1.000000
0  -25.091501 79.940430 7.638938  0.213977 0.009819 -0.976789  0.125004 0.244118 1 1 1.000000
0  -25.160322 87.469254 7.693994  0.225911 0.009290 -0.974104  0.125004 0.998047 1 1 1.000000
exhaust
0  -25.160322 87.469254 7.693994  0.225911 0.009290 -0.974104  0.125004 0.998047 1 1 1.000000
0  -22.696592 88.088631 8.492296  0.569746 0.014215 -0.821698  0.088870 0.998047 1 1 1.000000
0  -22.558952 79.926666 8.451005  0.541348 0.013068 -0.840697  0.088870 0.244118 1 1 1.000000
exhaust
0  -20.934818 79.926666 10.226542  0.918218 0.020445 -0.395547  0.058596 0.244118 1 1 1.000000
0  -22.558952 79.926666 8.451005  0.541348 0.013068 -0.840697  0.088870 0.244118 1 1 1.000000
0  -22.696592 88.088631 8.492296  0.569746 0.014215 -0.821698  0.088870 0.998047 1 1 1.000000
exhaust
0  -22.696592 88.088631 8.492296  0.569746 0.014215 -0.821698  0.088870 0.998047 1 1 1.000000
0  -21.127514 88.529068 10.240305  0.928302 0.021293 -0.371218  0.058596 0.998047 1 1 1.000000
0  -20.934818 79.926666 10.226542  0.918218 0.020445 -0.395547  0.058596 0.244118 1 1 1.000000
exhaust
0  -20.769651 79.926666 12.373702  0.907559 0.018813 0.419503  0.031251 0.244118 1 1 1.000000
0  -20.934818 79.926666 10.226542  0.918218 0.020445 -0.395547  0.058596 0.244118 1 1 1.000000
0  -21.127514 88.529068 10.240305  0.928302 0.021293 -0.371218  0.058596 0.998047 1 1 1.000000
exhaust
0  -21.127514 88.529068 10.240305  0.928302 0.021293 -0.371218  0.058596 0.998047 1 1 1.000000
0  -20.962347 88.652954 12.401230  0.918507 0.015891 0.395085  0.031251 0.998047 1 1 1.000000
0  -20.769651 79.926666 12.373702  0.907559 0.018813 0.419503  0.031251 0.244118 1 1 1.000000
exhaust
0  -23.439840 79.885376 14.300641  0.384848 0.002906 0.922975  0.003906 0.244118 1 1 1.000000
0  -20.769651 79.926666 12.373702  0.907559 0.018813 0.419503  0.031251 0.244118 1 1 1.000000
0  -20.962347 88.652954 12.401230  0.918507 0.015891 0.395085  0.031251 0.998047 1 1 1.000000
exhaust
0  -20.962347 88.652954 12.401230  0.918507 0.015891 0.395085  0.031251 0.998047 1 1 1.000000
0  -23.536188 88.047340 14.341932  0.409377 0.006170 0.912344  0.003906 0.998047 1 1 1.000000
0  -23.439840 79.885376 14.300641  0.384848 0.002906 0.922975  0.003906 0.244118 1 1 1.000000
exhaust
0  23.412302 79.885376 14.300637  -0.384848 0.002906 0.922975  0.003906 0.244118 1 1 1.000000
0  23.508648 88.047340 14.341928  -0.410008 0.005302 0.912067  0.003906 0.998047 1 1 1.000000
0  20.934807 88.652954 12.401226  -0.918507 0.015891 0.395085  0.031251 0.998047 1 1 1.000000
exhaust
0  20.934807 88.652954 12.401226  -0.918507 0.015891 0.395085  0.031251 0.998047 1 1 1.000000
0  20.742113 79.926666 12.373698  -0.907559 0.018813 0.419503  0.031251 0.244118 1 1 1.000000
0  23.412302 79.885376 14.300637  -0.384848 0.002906 0.922975  0.003906 0.244118 1 1 1.000000
exhaust
0  20.742113 79.926666 12.373698  -0.907559 0.018813 0.419503  0.031251 0.244118 1 1 1.000000
0  20.934807 88.652954 12.401226  -0.918507 0.015891 0.395085  0.031251 0.998047 1 1 1.000000
0  21.099974 88.529068 10.240301  -0.928301 0.021293 -0.371218  0.058596 0.998047 1 1 1.000000
exhaust
0  21.099974 88.529068 10.240301  -0.928301 0.021293 -0.371218  0.058596 0.998047 1 1 1.000000
0  20.907280 79.926666 10.226538  -0.917974 0.020145 -0.396128  0.058596 0.244118 1 1 1.000000
0  20.742113 79.926666 12.373698  -0.907559 0.018813 0.419503  0.031251 0.244118 1 1 1.000000
exhaust
0  20.907280 79.926666 10.226538  -0.917974 0.020145 -0.396128  0.058596 0.244118 1 1 1.000000
0  21.099974 88.529068 10.240301  -0.928301 0.021293 -0.371218  0.058596 0.998047 1 1 1.000000
0  22.669054 88.088631 8.492292  -0.569711 0.014179 -0.821723  0.088870 0.998047 1 1 1.000000
exhaust
0  22.669054 88.088631 8.492292  -0.569711 0.014179 -0.821723  0.088870 0.998047 1 1 1.000000
0  22.531414 79.926666 8.451001  -0.541692 0.013301 -0.840472  0.088870 0.244118 1 1 1.000000
0  20.907280 79.926666 10.226538  -0.917974 0.020145 -0.396128  0.058596 0.244118 1 1 1.000000
exhaust
0  22.531414 79.926666 8.451001  -0.541692 0.013301 -0.840472  0.088870 0.244118 1 1 1.000000
0  22.669054 88.088631 8.492292  -0.569711 0.014179 -0.821723  0.088870 0.998047 1 1 1.000000
0  25.132784 87.469254 7.693990  -0.224838 0.008840 -0.974356  0.125004 0.998047 1 1 1.000000
exhaust
0  25.132784 87.469254 7.693990  -0.224838 0.008840 -0.974356  0.125004 0.998047 1 1 1.000000
0  25.063961 79.940430 7.638935  -0.213512 0.009680 -0.976893  0.125004 0.244118 1 1 1.000000
0  22.531414 79.926666 8.451001  -0.541692 0.013301 -0.840472  0.088870 0.244118 1 1 1.000000
exhaust
0  25.063961 79.940430 7.638935  -0.213512 0.009680 -0.976893  0.125004 0.244118 1 1 1.000000
0  25.132784 87.469254 7.693990  -0.224838 0.008840 -0.974356  0.125004 0.998047 1 1 1.000000
0  27.458872 86.877419 7.418713  -0.019571 0.011220 -0.999746  0.137700 0.998047 1 1 1.000000
exhaust
0  27.458872 86.877419 7.418713  -0.019571 0.011220 -0.999746  0.137700 0.998047 1 1 1.000000
0  27.458872 79.926666 7.349894  -0.011396 0.010627 -0.999879  0.137700 0.244118 1 1 1.000000
0  25.063961 79.940430 7.638935  -0.213512 0.009680 -0.976893  0.125004 0.244118 1 1 1.000000
exhaust
0  30.074001 79.940430 7.611406  0.301454 0.019133 -0.953289  0.153325 0.244118 1 1 1.000000
0  27.458872 79.926666 7.349894  -0.011396 0.010627 -0.999879  0.137700 0.244118 1 1 1.000000
0  27.458872 86.877419 7.418713  -0.019571 0.011220 -0.999746  0.137700 0.998047 1 1 1.000000
exhaust
0  27.458872 86.877419 7.418713  -0.019571 0.011220 -0.999746  0.137700 0.998047 1 1 1.000000
0  30.005184 86.271805 7.707753  0.286947 0.017569 -0.957785  0.153325 0.998047 1 1 1.000000
0  30.074001 79.940430 7.611406  0.301454 0.019133 -0.953289  0.153325 0.244118 1 1 1.000000
exhaust
0  30.074001 79.940430 7.611406  0.301454 0.019133 -0.953289  0.153325 0.244118 1 1 1.000000
0  30.005184 86.271805 7.707753  0.286947 0.017569 -0.957785  0.153325 0.998047 1 1 1.000000
0  32.055996 85.790070 8.891443  0.618123 0.025227 -0.785676  0.188482 0.998047 1 1 1.000000
exhaust
0  32.055996 85.790070 8.891443  0.618123 0.025227 -0.785676  0.188482 0.998047 1 1 1.000000
0  32.193638 79.926666 8.781333  0.619182 0.032909 -0.784558  0.188482 0.244118 1 1 1.000000
0  30.074001 79.940430 7.611406  0.301454 0.019133 -0.953289  0.153325 0.244118 1 1 1.000000
exhaust
0  32.193638 79.926666 8.781333  0.619182 0.032909 -0.784558  0.188482 0.244118 1 1 1.000000
0  32.055996 85.790070 8.891443  0.618123 0.025227 -0.785676  0.188482 0.998047 1 1 1.000000
0  33.583786 85.487259 10.611924  0.943843 0.034393 -0.328600  0.180670 0.998047 1 1 1.000000
exhaust
0  33.583786 85.487259 10.611924  0.943843 0.034393 -0.328600  0.180670 0.998047 1 1 1.000000
0  33.762718 79.926666 10.488050  0.943454 0.037451 -0.329382  0.180670 0.244118 1 1 1.000000
0  32.193638 79.926666 8.781333  0.619182 0.032909 -0.784558  0.188482 0.244118 1 1 1.000000
exhaust
0  33.762718 79.926666 10.488050  0.943454 0.037451 -0.329382  0.180670 0.244118 1 1 1.000000
0  33.583786 85.487259 10.611924  0.943843 0.034393 -0.328600  0.180670 0.998047 1 1 1.000000
0  33.418621 85.597374 12.745320  0.815766 0.013516 0.578224  0.144536 0.998047 1 1 1.000000
exhaust
0  33.418621 85.597374 12.745320  0.815766 0.013516 0.578224  0.144536 0.998047 1 1 1.000000
0  33.597549 79.926666 12.621447  0.859575 0.028041 0.510240  0.144536 0.244118 1 1 1.000000
0  33.762718 79.926666 10.488050  0.943454 0.037451 -0.329382  0.180670 0.244118 1 1 1.000000
exhaust
0  33.597549 79.926666 12.621447  0.859575 0.028041 0.510240  0.144536 0.244118 1 1 1.000000
0  33.418621 85.597374 12.745320  0.815766 0.013516 0.578224  0.144536 0.998047 1 1 1.000000
0  30.693378 86.258041 14.300637  0.306542 0.013390 0.951763  0.080081 0.998047 1 1 1.000000
exhaust
0  30.693378 86.258041 14.300637  0.306542 0.013390 0.951763  0.080081 0.998047 1 1 1.000000
0  30.803488 79.885376 14.452040  0.346899 0.028267 0.937477  0.080081 0.244118 1 1 1.000000
0  33.597549 79.926666 12.621447  0.859575 0.028041 0.510240  0.144536 0.244118 1 1 1.000000
exhaust
0  21.099974 88.529068 10.240301  0.245961 0.968818 -0.029911  0.224616 0.774407 1 1 1.000000
0  20.934807 88.652954 12.401226  0.251098 0.967393 -0.033162  0.220710 0.879879 1 1 1.000000
0  23.508648 88.047340 14.341928  0.237323 0.971006 -0.028715  0.400403 0.983398 1 1 1.000000
exhaust
0  22.669054 88.088631 8.492292  0.237479 0.971011 -0.027231  0.311533 0.676748 1 1 1.000000
0  21.099974 88.529068 10.240301  0.245961 0.968818 -0.029911  0.224616 0.774407 1 1 1.000000
0  23.508648 88.047340 14.341928  0.237323 0.971006 -0.028715  0.400403 0.983398 1 1 1.000000
exhaust
0  25.132784 87.469254 7.693990  0.238623 0.970684 -0.028827  0.447279 0.618152 1 1 1.000000
0  22.669054 88.088631 8.492292  0.237479 0.971011 -0.027231  0.311533 0.676748 1 1 1.000000
0  23.508648 88.047340 14.341928  0.237323 0.971006 -0.028715  0.400403 0.983398 1 1 1.000000
exhaust
0  27.238649 87.166451 14.809898  0.240834 0.970187 -0.027120  0.579119 0.983398 1 1 1.000000
0  25.132784 87.469254 7.693990  0.238623 0.970684 -0.028827  0.447279 0.618152 1 1 1.000000
0  23.508648 88.047340 14.341928  0.237323 0.971006 -0.028715  0.400403 0.983398 1 1 1.000000
exhaust
0  27.238649 87.166451 14.809898  0.240834 0.970187 -0.027120  0.579119 0.983398 1 1 1.000000
0  27.458872 86.877419 7.418713  0.238447 0.970612 -0.032496  0.579119 0.621082 1 1 1.000000
0  25.132784 87.469254 7.693990  0.238623 0.970684 -0.028827  0.447279 0.618152 1 1 1.000000
exhaust
0  30.005184 86.271805 7.707753  0.238311 0.970789 -0.027867  0.417982 0.625965 1 1 1.000000
0  27.458872 86.877419 7.418713  0.238447 0.970612 -0.032496  0.579119 0.621082 1 1 1.000000
0  27.238649 87.166451 14.809898  0.240834 0.970187 -0.027120  0.579119 0.983398 1 1 1.000000
exhaust
0  30.693378 86.258041 14.300637  0.241645 0.970018 -0.025956  0.397473 0.981445 1 1 1.000000
0  30.005184 86.271805 7.707753  0.238311 0.970789 -0.027867  0.417982 0.625965 1 1 1.000000
0  27.238649 87.166451 14.809898  0.240834 0.970187 -0.027120  0.579119 0.983398 1 1 1.000000
exhaust
0  30.693378 86.258041 14.300637  0.241645 0.970018 -0.025956  0.397473 0.981445 1 1 1.000000
0  32.055996 85.790070 8.891443  0.236968 0.971216 -0.024183  0.294931 0.671865 1 1 1.000000
0  30.005184 86.271805 7.707753  0.238311 0.970789 -0.027867  0.417982 0.625965 1 1 1.000000
exhaust
0  30.693378 86.258041 14.300637  0.241645 0.970018 -0.025956  0.397473 0.981445 1 1 1.000000
0  33.583786 85.487259 10.611924  0.226581 0.973569 -0.028718  0.220710 0.762688 1 1 1.000000
0  32.055996 85.790070 8.891443  0.236968 0.971216 -0.024183  0.294931 0.671865 1 1 1.000000
exhaust
0  30.693378 86.258041 14.300637  0.241645 0.970018 -0.025956  0.397473 0.981445 1 1 1.000000
0  33.418621 85.597374 12.745320  0.217692 0.975348 -0.036131  0.224616 0.867183 1 1 1.000000
0  33.583786 85.487259 10.611924  0.226581 0.973569 -0.028718  0.220710 0.762688 1 1 1.000000
exhaust
0  20.742113 79.926666 12.373698  -0.008767 -0.999956 -0.003275  0.221686 0.468734 1 1 1.000000
0  20.907280 79.926666 10.226538  -0.000043 -1.000000 0.000487  0.226569 0.370098 1 1 1.000000
0  22.531414 79.926666 8.451001  0.001071 -0.999987 -0.005033  0.312510 0.284158 1 1 1.000000
exhaust
0  23.412302 79.885376 14.300637  0.003533 -0.999981 -0.005001  0.399426 0.567370 1 1 1.000000
0  20.742113 79.926666 12.373698  -0.008767 -0.999956 -0.003275  0.221686 0.468734 1 1 1.000000
0  22.531414 79.926666 8.451001  0.001071 -0.999987 -0.005033  0.312510 0.284158 1 1 1.000000
exhaust
0  25.063961 79.940430 7.638935  0.000412 -0.999993 -0.003643  0.446303 0.229469 1 1 1.000000
0  23.412302 79.885376 14.300637  0.003533 -0.999981 -0.005001  0.399426 0.567370 1 1 1.000000
0  22.531414 79.926666 8.451001  0.001071 -0.999987 -0.005033  0.312510 0.284158 1 1 1.000000
exhaust
0  25.063961 79.940430 7.638935  0.000412 -0.999993 -0.003643  0.446303 0.229469 1 1 1.000000
0  27.238649 79.926666 14.906247  -0.001827 -0.999996 -0.002299  0.587909 0.580065 1 1 1.000000
0  23.412302 79.885376 14.300637  0.003533 -0.999981 -0.005001  0.399426 0.567370 1 1 1.000000
exhaust
0  25.063961 79.940430 7.638935  0.000412 -0.999993 -0.003643  0.446303 0.229469 1 1 1.000000
0  27.458872 79.926666 7.349894  -0.002509 -0.999992 -0.003207  0.586932 0.218726 1 1 1.000000
0  27.238649 79.926666 14.906247  -0.001827 -0.999996 -0.002299  0.587909 0.580065 1 1 1.000000
exhaust
0  30.803488 79.885376 14.452040  -0.001481 -0.999995 -0.002708  0.399426 0.565416 1 1 1.000000
0  27.238649 79.926666 14.906247  -0.001827 -0.999996 -0.002299  0.587909 0.580065 1 1 1.000000
0  27.458872 79.926666 7.349894  -0.002509 -0.999992 -0.003207  0.586932 0.218726 1 1 1.000000
exhaust
0  30.803488 79.885376 14.452040  -0.001481 -0.999995 -0.002708  0.399426 0.565416 1 1 1.000000
0  27.458872 79.926666 7.349894  -0.002509 -0.999992 -0.003207  0.586932 0.218726 1 1 1.000000
0  30.074001 79.940430 7.611406  0.003535 -0.999962 -0.007913  0.419935 0.236305 1 1 1.000000
exhaust
0  32.193638 79.926666 8.781333  -0.000590 -0.999987 -0.005155  0.298837 0.279275 1 1 1.000000
0  30.803488 79.885376 14.452040  -0.001481 -0.999995 -0.002708  0.399426 0.565416 1 1 1.000000
0  30.074001 79.940430 7.611406  0.003535 -0.999962 -0.007913  0.419935 0.236305 1 1 1.000000
exhaust
0  32.193638 79.926666 8.781333  -0.000590 -0.999987 -0.005155  0.298837 0.279275 1 1 1.000000
0  33.597549 79.926666 12.621447  0.008739 -0.999959 -0.002524  0.229499 0.457015 1 1 1.000000
0  30.803488 79.885376 14.452040  -0.001481 -0.999995 -0.002708  0.399426 0.565416 1 1 1.000000
exhaust
0  32.193638 79.926666 8.781333  -0.000590 -0.999987 -0.005155  0.298837 0.279275 1 1 1.000000
0  33.762718 79.926666 10.488050  0.000058 -1.000000 0.000670  0.225593 0.358379 1 1 1.000000
0  33.597549 79.926666 12.621447  0.008739 -0.999959 -0.002524  0.229499 0.457015 1 1 1.000000
end
