version 1
nodes
0 "blender_implicit" -1
1 "root" -1
2 "steering_wheel" 1
end
skeleton
time 0
0  0.000000 0.000000 0.000000  0.000000 -0.000000 0.000000
1  0.000000 0.000000 0.000000  1.570796 -0.000000 0.000000
2  19.104225 25.848501 19.062937  0.000000 -0.000000 0.000000
end
triangles
skin_0
0  40.314308 46.907200 -0.233988  0.246908 0.253689 -0.935242  0.081057 0.345683 1 1 1.000000
0  40.204197 47.017311 -0.206461  -0.267483 0.793863 -0.546108  0.081057 0.345683 1 1 1.000000
0  40.341835 47.031075 -0.082586  0.197048 0.978135 -0.066518  0.082034 0.345683 1 1 1.000000
skin_0
0  40.906155 46.219006 3.509778  0.285002 0.953251 0.100425  0.103519 0.348613 1 1 1.000000
0  40.974972 46.122662 4.101624  0.359252 0.910115 0.206470  0.106449 0.348613 1 1 1.000000
0  41.181431 45.929966 4.101624  0.929504 0.362668 0.067041  0.106449 0.349590 1 1 1.000000
skin_0
0  41.181431 45.929966 4.101624  0.929504 0.362668 0.067041  0.106449 0.349590 1 1 1.000000
0  41.085083 46.095135 3.399668  0.911706 0.407844 -0.049549  0.102542 0.348613 1 1 1.000000
0  40.906155 46.219006 3.509778  0.285002 0.953251 0.100425  0.103519 0.348613 1 1 1.000000
skin_0
0  40.341835 47.031075 -0.082586  0.197048 0.978135 -0.066518  0.082034 0.345683 1 1 1.000000
0  40.906155 46.219006 3.509778  0.285002 0.953251 0.100425  0.103519 0.348613 1 1 1.000000
0  41.085083 46.095135 3.399668  0.911706 0.407844 -0.049549  0.102542 0.348613 1 1 1.000000
skin_0
0  41.085083 46.095135 3.399668  0.911706 0.407844 -0.049549  0.102542 0.348613 1 1 1.000000
0  40.465714 46.907200 -0.123878  0.819208 0.371862 -0.436597  0.082034 0.345683 1 1 1.000000
0  40.341835 47.031075 -0.082586  0.197048 0.978135 -0.066518  0.082034 0.345683 1 1 1.000000
skin_0
0  40.341835 47.031075 -0.082586  0.197048 0.978135 -0.066518  0.082034 0.345683 1 1 1.000000
0  40.465714 46.907200 -0.123878  0.819208 0.371862 -0.436597  0.082034 0.345683 1 1 1.000000
0  40.314308 46.907200 -0.233988  0.246908 0.253689 -0.935242  0.081057 0.345683 1 1 1.000000
skin_0
0  40.176670 44.539818 -0.302808  0.116160 0.007266 -0.993204  0.081057 0.355449 1 1 1.000000
0  40.314308 46.907200 -0.233988  0.246908 0.253689 -0.935242  0.081057 0.345683 1 1 1.000000
0  40.465714 46.907200 -0.123878  0.819208 0.371862 -0.436597  0.082034 0.345683 1 1 1.000000
skin_0
0  41.085083 46.095135 3.399668  0.911706 0.407844 -0.049549  0.102542 0.348613 1 1 1.000000
0  41.181431 45.929966 4.101624  0.929504 0.362668 0.067041  0.106449 0.349590 1 1 1.000000
0  41.071320 43.658932 4.087860  0.998146 -0.034206 0.050339  0.106449 0.358379 1 1 1.000000
skin_0
0  39.295788 4.335615 -0.220225  0.721320 0.018952 -0.692343  0.081057 0.513657 1 1 1.000000
0  39.061802 4.335615 -0.344099  -0.326938 0.010240 -0.944990  0.080081 0.513657 1 1 1.000000
0  38.772762 11.561635 -0.357863  -0.726337 -0.039845 -0.686183  0.080081 0.485336 1 1 1.000000
skin_0
0  38.772762 11.561635 -0.357863  -0.726337 -0.039845 -0.686183  0.080081 0.485336 1 1 1.000000
0  39.034275 11.561635 -0.247752  0.678283 0.011263 -0.734714  0.081057 0.485336 1 1 1.000000
0  39.295788 4.335615 -0.220225  0.721320 0.018952 -0.692343  0.081057 0.513657 1 1 1.000000
skin_0
0  39.034275 11.561635 -0.247752  0.678283 0.011263 -0.734714  0.081057 0.485336 1 1 1.000000
0  38.772762 11.561635 -0.357863  -0.726337 -0.039845 -0.686183  0.080081 0.485336 1 1 1.000000
0  38.662651 20.136515 -0.371627  -0.629460 0.025414 -0.776617  0.080081 0.451155 1 1 1.000000
skin_0
0  38.662651 20.136515 -0.371627  -0.629460 0.025414 -0.776617  0.080081 0.451155 1 1 1.000000
0  38.882870 20.136515 -0.261516  0.680977 -0.008146 -0.732260  0.081057 0.451155 1 1 1.000000
0  39.034275 11.561635 -0.247752  0.678283 0.011263 -0.734714  0.081057 0.485336 1 1 1.000000
skin_0
0  38.882870 20.136515 -0.261516  0.680977 -0.008146 -0.732260  0.081057 0.451155 1 1 1.000000
0  38.662651 20.136515 -0.371627  -0.629460 0.025414 -0.776617  0.080081 0.451155 1 1 1.000000
0  38.965450 27.789215 -0.357863  -0.373593 -0.017821 -0.927421  0.080081 0.420881 1 1 1.000000
skin_0
0  38.965450 27.789215 -0.357863  -0.373593 -0.017821 -0.927421  0.080081 0.420881 1 1 1.000000
0  39.171909 27.789215 -0.233988  0.728165 -0.030064 -0.684742  0.081057 0.420881 1 1 1.000000
0  38.882870 20.136515 -0.261516  0.680977 -0.008146 -0.732260  0.081057 0.451155 1 1 1.000000
skin_0
0  39.171909 27.789215 -0.233988  0.728165 -0.030064 -0.684742  0.081057 0.420881 1 1 1.000000
0  38.965450 27.789215 -0.357863  -0.373593 -0.017821 -0.927421  0.080081 0.420881 1 1 1.000000
0  39.598591 36.460438 -0.316572  0.125713 -0.005130 -0.992053  0.081057 0.386700 1 1 1.000000
skin_0
0  39.598591 36.460438 -0.316572  0.125713 -0.005130 -0.992053  0.081057 0.386700 1 1 1.000000
0  39.791279 36.460438 -0.192697  0.797162 -0.042329 -0.602279  0.081057 0.386700 1 1 1.000000
0  39.171909 27.789215 -0.233988  0.728165 -0.030064 -0.684742  0.081057 0.420881 1 1 1.000000
skin_0
0  39.791279 36.460438 -0.192697  0.797162 -0.042329 -0.602279  0.081057 0.386700 1 1 1.000000
0  39.598591 36.460438 -0.316572  0.125713 -0.005130 -0.992053  0.081057 0.386700 1 1 1.000000
0  40.176670 44.539818 -0.302808  0.116160 0.007266 -0.993204  0.081057 0.355449 1 1 1.000000
skin_0
0  40.176670 44.539818 -0.302808  0.116160 0.007266 -0.993204  0.081057 0.355449 1 1 1.000000
0  40.355602 44.512287 -0.192697  0.827859 -0.031128 -0.560071  0.081057 0.355449 1 1 1.000000
0  39.791279 36.460438 -0.192697  0.797162 -0.042329 -0.602279  0.081057 0.386700 1 1 1.000000
skin_0
0  40.465714 46.907200 -0.123878  0.819208 0.371862 -0.436597  0.082034 0.345683 1 1 1.000000
0  40.355602 44.512287 -0.192697  0.827859 -0.031128 -0.560071  0.081057 0.355449 1 1 1.000000
0  40.176670 44.539818 -0.302808  0.116160 0.007266 -0.993204  0.081057 0.355449 1 1 1.000000
skin_0
0  40.988735 43.782810 3.303321  0.986094 -0.025846 -0.164164  0.102542 0.358379 1 1 1.000000
0  40.355602 44.512287 -0.192697  0.827859 -0.031128 -0.560071  0.081057 0.355449 1 1 1.000000
0  40.465714 46.907200 -0.123878  0.819208 0.371862 -0.436597  0.082034 0.345683 1 1 1.000000
skin_0
0  40.465714 46.907200 -0.123878  0.819208 0.371862 -0.436597  0.082034 0.345683 1 1 1.000000
0  41.085083 46.095135 3.399668  0.911706 0.407844 -0.049549  0.102542 0.348613 1 1 1.000000
0  40.988735 43.782810 3.303321  0.986094 -0.025846 -0.164164  0.102542 0.358379 1 1 1.000000
skin_0
0  41.085083 46.095135 3.399668  0.911706 0.407844 -0.049549  0.102542 0.348613 1 1 1.000000
0  41.002499 43.755276 3.399668  0.991325 -0.026398 -0.128755  0.102542 0.358379 1 1 1.000000
0  40.988735 43.782810 3.303321  0.986094 -0.025846 -0.164164  0.102542 0.358379 1 1 1.000000
skin_0
0  41.071320 43.658932 4.087860  0.998146 -0.034206 0.050339  0.106449 0.358379 1 1 1.000000
0  41.002499 43.755276 3.399668  0.991325 -0.026398 -0.128755  0.102542 0.358379 1 1 1.000000
0  41.085083 46.095135 3.399668  0.911706 0.407844 -0.049549  0.102542 0.348613 1 1 1.000000
skin_0
0  41.002499 43.755276 3.399668  0.991325 -0.026398 -0.128755  0.102542 0.358379 1 1 1.000000
0  41.071320 43.658932 4.087860  0.998146 -0.034206 0.050339  0.106449 0.358379 1 1 1.000000
0  40.892391 36.460438 3.908930  0.995585 -0.019289 0.091862  0.105472 0.386700 1 1 1.000000
skin_0
0  40.892391 36.460438 3.908930  0.995585 -0.019289 0.091862  0.105472 0.386700 1 1 1.000000
0  40.837337 36.460438 3.206974  0.990847 -0.013095 -0.134354  0.101566 0.386700 1 1 1.000000
0  41.002499 43.755276 3.399668  0.991325 -0.026398 -0.128755  0.102542 0.358379 1 1 1.000000
skin_0
0  40.837337 36.460438 3.206974  0.990847 -0.013095 -0.134354  0.101566 0.386700 1 1 1.000000
0  40.892391 36.460438 3.908930  0.995585 -0.019289 0.091862  0.105472 0.386700 1 1 1.000000
0  40.809814 27.789215 3.743764  0.991545 -0.009430 0.129421  0.104495 0.420881 1 1 1.000000
skin_0
0  40.644642 11.561635 2.615128  0.916371 0.005614 -0.400290  0.097659 0.485336 1 1 1.000000
0  39.034275 11.561635 -0.247752  0.678283 0.011263 -0.734714  0.081057 0.485336 1 1 1.000000
0  38.882870 20.136515 -0.261516  0.680977 -0.008146 -0.732260  0.081057 0.451155 1 1 1.000000
skin_0
0  40.988735 43.782810 3.303321  0.986094 -0.025846 -0.164164  0.102542 0.358379 1 1 1.000000
0  41.002499 43.755276 3.399668  0.991325 -0.026398 -0.128755  0.102542 0.358379 1 1 1.000000
0  40.837337 36.460438 3.206974  0.990847 -0.013095 -0.134354  0.101566 0.386700 1 1 1.000000
skin_0
0  40.837337 36.460438 3.206974  0.990847 -0.013095 -0.134354  0.101566 0.386700 1 1 1.000000
0  40.823574 36.460438 3.110626  0.971469 -0.020904 -0.236244  0.100589 0.386700 1 1 1.000000
0  40.988735 43.782810 3.303321  0.986094 -0.025846 -0.164164  0.102542 0.358379 1 1 1.000000
skin_0
0  40.355602 44.512287 -0.192697  0.827859 -0.031128 -0.560071  0.081057 0.355449 1 1 1.000000
0  40.988735 43.782810 3.303321  0.986094 -0.025846 -0.164164  0.102542 0.358379 1 1 1.000000
0  40.823574 36.460438 3.110626  0.971469 -0.020904 -0.236244  0.100589 0.386700 1 1 1.000000
skin_0
0  40.823574 36.460438 3.110626  0.971469 -0.020904 -0.236244  0.100589 0.386700 1 1 1.000000
0  39.791279 36.460438 -0.192697  0.797162 -0.042329 -0.602279  0.081057 0.386700 1 1 1.000000
0  40.355602 44.512287 -0.192697  0.827859 -0.031128 -0.560071  0.081057 0.355449 1 1 1.000000
skin_0
0  39.791279 36.460438 -0.192697  0.797162 -0.042329 -0.602279  0.081057 0.386700 1 1 1.000000
0  40.823574 36.460438 3.110626  0.971469 -0.020904 -0.236244  0.100589 0.386700 1 1 1.000000
0  40.727226 27.789215 2.959224  0.938812 -0.012874 -0.344189  0.100589 0.420881 1 1 1.000000
skin_0
0  40.727226 27.789215 2.959224  0.938812 -0.012874 -0.344189  0.100589 0.420881 1 1 1.000000
0  39.171909 27.789215 -0.233988  0.728165 -0.030064 -0.684742  0.081057 0.420881 1 1 1.000000
0  39.791279 36.460438 -0.192697  0.797162 -0.042329 -0.602279  0.081057 0.386700 1 1 1.000000
skin_0
0  39.171909 27.789215 -0.233988  0.728165 -0.030064 -0.684742  0.081057 0.420881 1 1 1.000000
0  40.727226 27.789215 2.959224  0.938812 -0.012874 -0.344189  0.100589 0.420881 1 1 1.000000
0  40.685936 20.136515 2.807822  0.916708 -0.002655 -0.399550  0.099612 0.451155 1 1 1.000000
skin_0
0  40.685936 20.136515 2.807822  0.916708 -0.002655 -0.399550  0.099612 0.451155 1 1 1.000000
0  38.882870 20.136515 -0.261516  0.680977 -0.008146 -0.732260  0.081057 0.451155 1 1 1.000000
0  39.171909 27.789215 -0.233988  0.728165 -0.030064 -0.684742  0.081057 0.420881 1 1 1.000000
skin_0
0  38.882870 20.136515 -0.261516  0.680977 -0.008146 -0.732260  0.081057 0.451155 1 1 1.000000
0  40.685936 20.136515 2.807822  0.916708 -0.002655 -0.399550  0.099612 0.451155 1 1 1.000000
0  40.644642 11.561635 2.615128  0.916371 0.005614 -0.400290  0.097659 0.485336 1 1 1.000000
skin_0
0  40.672169 11.561635 2.697711  0.979292 -0.000209 -0.202452  0.098636 0.485336 1 1 1.000000
0  40.644642 11.561635 2.615128  0.916371 0.005614 -0.400290  0.097659 0.485336 1 1 1.000000
0  40.685936 20.136515 2.807822  0.916708 -0.002655 -0.399550  0.099612 0.451155 1 1 1.000000
skin_0
0  40.644642 11.561635 2.615128  0.916371 0.005614 -0.400290  0.097659 0.485336 1 1 1.000000
0  40.672169 11.561635 2.697711  0.979292 -0.000209 -0.202452  0.098636 0.485336 1 1 1.000000
0  40.630878 4.335615 2.532545  0.981405 -0.000729 -0.191946  0.097659 0.513657 1 1 1.000000
skin_0
0  40.630878 4.335615 2.532545  0.981405 -0.000729 -0.191946  0.097659 0.513657 1 1 1.000000
0  40.603352 4.335615 2.449962  0.931634 0.008517 -0.363299  0.096683 0.513657 1 1 1.000000
0  40.644642 11.561635 2.615128  0.916371 0.005614 -0.400290  0.097659 0.485336 1 1 1.000000
skin_0
0  39.034275 11.561635 -0.247752  0.678283 0.011263 -0.734714  0.081057 0.485336 1 1 1.000000
0  40.644642 11.561635 2.615128  0.916371 0.005614 -0.400290  0.097659 0.485336 1 1 1.000000
0  40.603352 4.335615 2.449962  0.931634 0.008517 -0.363299  0.096683 0.513657 1 1 1.000000
skin_0
0  40.603352 4.335615 2.449962  0.931634 0.008517 -0.363299  0.096683 0.513657 1 1 1.000000
0  39.295788 4.335615 -0.220225  0.721320 0.018952 -0.692343  0.081057 0.513657 1 1 1.000000
0  39.034275 11.561635 -0.247752  0.678283 0.011263 -0.734714  0.081057 0.485336 1 1 1.000000
skin_0
0  40.823574 36.460438 3.110626  0.971469 -0.020904 -0.236244  0.100589 0.386700 1 1 1.000000
0  40.837337 36.460438 3.206974  0.990847 -0.013095 -0.134354  0.101566 0.386700 1 1 1.000000
0  40.754753 27.789215 3.055571  0.984951 -0.004204 -0.172784  0.100589 0.420881 1 1 1.000000
skin_0
0  40.754753 27.789215 3.055571  0.984951 -0.004204 -0.172784  0.100589 0.420881 1 1 1.000000
0  40.727226 27.789215 2.959224  0.938812 -0.012874 -0.344189  0.100589 0.420881 1 1 1.000000
0  40.823574 36.460438 3.110626  0.971469 -0.020904 -0.236244  0.100589 0.386700 1 1 1.000000
skin_0
0  40.727226 27.789215 2.959224  0.938812 -0.012874 -0.344189  0.100589 0.420881 1 1 1.000000
0  40.754753 27.789215 3.055571  0.984951 -0.004204 -0.172784  0.100589 0.420881 1 1 1.000000
0  40.713463 20.136515 2.890405  0.979696 -0.000672 -0.200486  0.099612 0.451155 1 1 1.000000
skin_0
0  40.713463 20.136515 2.890405  0.979696 -0.000672 -0.200486  0.099612 0.451155 1 1 1.000000
0  40.685936 20.136515 2.807822  0.916708 -0.002655 -0.399550  0.099612 0.451155 1 1 1.000000
0  40.727226 27.789215 2.959224  0.938812 -0.012874 -0.344189  0.100589 0.420881 1 1 1.000000
skin_0
0  40.685936 20.136515 2.807822  0.916708 -0.002655 -0.399550  0.099612 0.451155 1 1 1.000000
0  40.713463 20.136515 2.890405  0.979696 -0.000672 -0.200486  0.099612 0.451155 1 1 1.000000
0  40.672169 11.561635 2.697711  0.979292 -0.000209 -0.202452  0.098636 0.485336 1 1 1.000000
skin_0
0  40.809814 27.789215 3.743764  0.991545 -0.009430 0.129421  0.104495 0.420881 1 1 1.000000
0  40.754753 27.789215 3.055571  0.984951 -0.004204 -0.172784  0.100589 0.420881 1 1 1.000000
0  40.837337 36.460438 3.206974  0.990847 -0.013095 -0.134354  0.101566 0.386700 1 1 1.000000
skin_0
0  40.754753 27.789215 3.055571  0.984951 -0.004204 -0.172784  0.100589 0.420881 1 1 1.000000
0  40.809814 27.789215 3.743764  0.991545 -0.009430 0.129421  0.104495 0.420881 1 1 1.000000
0  40.782280 20.136515 3.592361  0.992818 -0.006682 0.119447  0.103519 0.451155 1 1 1.000000
skin_0
0  40.782280 20.136515 3.592361  0.992818 -0.006682 0.119447  0.103519 0.451155 1 1 1.000000
0  40.713463 20.136515 2.890405  0.979696 -0.000672 -0.200486  0.099612 0.451155 1 1 1.000000
0  40.754753 27.789215 3.055571  0.984951 -0.004204 -0.172784  0.100589 0.420881 1 1 1.000000
skin_0
0  40.713463 20.136515 2.890405  0.979696 -0.000672 -0.200486  0.099612 0.451155 1 1 1.000000
0  40.782280 20.136515 3.592361  0.992818 -0.006682 0.119447  0.103519 0.451155 1 1 1.000000
0  40.740990 11.561635 3.427195  0.992516 -0.006438 0.121945  0.102542 0.485336 1 1 1.000000
skin_0
0  40.740990 11.561635 3.427195  0.992516 -0.006438 0.121945  0.102542 0.485336 1 1 1.000000
0  40.672169 11.561635 2.697711  0.979292 -0.000209 -0.202452  0.098636 0.485336 1 1 1.000000
0  40.713463 20.136515 2.890405  0.979696 -0.000672 -0.200486  0.099612 0.451155 1 1 1.000000
skin_0
0  40.672169 11.561635 2.697711  0.979292 -0.000209 -0.202452  0.098636 0.485336 1 1 1.000000
0  40.740990 11.561635 3.427195  0.992516 -0.006438 0.121945  0.102542 0.485336 1 1 1.000000
0  40.713463 4.335615 3.262029  0.997177 -0.006166 0.074829  0.101566 0.513657 1 1 1.000000
skin_0
0  40.713463 4.335615 3.262029  0.997177 -0.006166 0.074829  0.101566 0.513657 1 1 1.000000
0  40.630878 4.335615 2.532545  0.981405 -0.000729 -0.191946  0.097659 0.513657 1 1 1.000000
0  40.672169 11.561635 2.697711  0.979292 -0.000209 -0.202452  0.098636 0.485336 1 1 1.000000
skin_0
0  40.630878 4.335615 2.532545  0.981405 -0.000729 -0.191946  0.097659 0.513657 1 1 1.000000
0  40.713463 4.335615 3.262029  0.997177 -0.006166 0.074829  0.101566 0.513657 1 1 1.000000
0  40.685936 -5.161440 3.069335  0.998675 -0.005159 0.051207  0.100589 0.550768 1 1 1.000000
skin_0
0  40.685936 -5.161440 3.069335  0.998675 -0.005159 0.051207  0.100589 0.550768 1 1 1.000000
0  40.589588 -5.147676 2.298560  0.982391 -0.000367 -0.186834  0.096683 0.550768 1 1 1.000000
0  40.630878 4.335615 2.532545  0.981405 -0.000729 -0.191946  0.097659 0.513657 1 1 1.000000
skin_0
0  40.603352 4.335615 2.449962  0.931634 0.008517 -0.363299  0.096683 0.513657 1 1 1.000000
0  40.630878 4.335615 2.532545  0.981405 -0.000729 -0.191946  0.097659 0.513657 1 1 1.000000
0  40.589588 -5.147676 2.298560  0.982391 -0.000367 -0.186834  0.096683 0.550768 1 1 1.000000
skin_0
0  40.589588 -5.147676 2.298560  0.982391 -0.000367 -0.186834  0.096683 0.550768 1 1 1.000000
0  40.562061 -5.147676 2.215976  0.950114 0.007633 -0.311808  0.095706 0.550768 1 1 1.000000
0  40.603352 4.335615 2.449962  0.931634 0.008517 -0.363299  0.096683 0.513657 1 1 1.000000
skin_0
0  39.295788 4.335615 -0.220225  0.721320 0.018952 -0.692343  0.081057 0.513657 1 1 1.000000
0  40.603352 4.335615 2.449962  0.931634 0.008517 -0.363299  0.096683 0.513657 1 1 1.000000
0  40.562061 -5.147676 2.215976  0.950114 0.007633 -0.311808  0.095706 0.550768 1 1 1.000000
skin_0
0  40.562061 -5.147676 2.215976  0.950114 0.007633 -0.311808  0.095706 0.550768 1 1 1.000000
0  39.626122 -5.202732 -0.192697  0.751275 0.015217 -0.659814  0.081057 0.550768 1 1 1.000000
0  39.295788 4.335615 -0.220225  0.721320 0.018952 -0.692343  0.081057 0.513657 1 1 1.000000
skin_0
0  39.626122 -5.202732 -0.192697  0.751275 0.015217 -0.659814  0.081057 0.550768 1 1 1.000000
0  40.562061 -5.147676 2.215976  0.950114 0.007633 -0.311808  0.095706 0.550768 1 1 1.000000
0  40.520771 -15.222814 2.009519  0.965640 0.005156 -0.259833  0.094729 0.590808 1 1 1.000000
skin_0
0  40.520771 -15.222814 2.009519  0.965640 0.005156 -0.259833  0.094729 0.590808 1 1 1.000000
0  39.860104 -15.277870 -0.165169  0.777811 0.011352 -0.628395  0.082034 0.590808 1 1 1.000000
0  39.626122 -5.202732 -0.192697  0.751275 0.015217 -0.659814  0.081057 0.550768 1 1 1.000000
skin_0
0  39.860104 -15.277870 -0.165169  0.777811 0.011352 -0.628395  0.082034 0.590808 1 1 1.000000
0  40.520771 -15.222814 2.009519  0.965640 0.005156 -0.259833  0.094729 0.590808 1 1 1.000000
0  40.479485 -24.348244 1.844353  0.976813 0.004328 -0.214051  0.093753 0.625965 1 1 1.000000
skin_0
0  40.479485 -24.348244 1.844353  0.976813 0.004328 -0.214051  0.093753 0.625965 1 1 1.000000
0  40.039036 -24.183077 -0.137642  0.802401 0.008866 -0.596720  0.082034 0.625965 1 1 1.000000
0  39.860104 -15.277870 -0.165169  0.777811 0.011352 -0.628395  0.082034 0.590808 1 1 1.000000
skin_0
0  40.039036 -24.183077 -0.137642  0.802401 0.008866 -0.596720  0.082034 0.625965 1 1 1.000000
0  40.479485 -24.348244 1.844353  0.976813 0.004328 -0.214051  0.093753 0.625965 1 1 1.000000
0  40.451954 -34.106815 1.624131  0.975143 0.006565 -0.221481  0.091800 0.665029 1 1 1.000000
skin_0
0  40.479485 -34.093052 1.720478  0.979457 0.009463 -0.201431  0.092776 0.665029 1 1 1.000000
0  40.451954 -34.106815 1.624131  0.975143 0.006565 -0.221481  0.091800 0.665029 1 1 1.000000
0  40.479485 -24.348244 1.844353  0.976813 0.004328 -0.214051  0.093753 0.625965 1 1 1.000000
skin_0
0  40.479485 -24.348244 1.844353  0.976813 0.004328 -0.214051  0.093753 0.625965 1 1 1.000000
0  40.507011 -24.348244 1.926936  0.983305 -0.000033 -0.181967  0.093753 0.625965 1 1 1.000000
0  40.479485 -34.093052 1.720478  0.979457 0.009463 -0.201431  0.092776 0.665029 1 1 1.000000
skin_0
0  40.507011 -24.348244 1.926936  0.983305 -0.000033 -0.181967  0.093753 0.625965 1 1 1.000000
0  40.479485 -24.348244 1.844353  0.976813 0.004328 -0.214051  0.093753 0.625965 1 1 1.000000
0  40.520771 -15.222814 2.009519  0.965640 0.005156 -0.259833  0.094729 0.590808 1 1 1.000000
skin_0
0  40.520771 -15.222814 2.009519  0.965640 0.005156 -0.259833  0.094729 0.590808 1 1 1.000000
0  40.548298 -15.222814 2.092102  0.983481 -0.000427 -0.181009  0.094729 0.590808 1 1 1.000000
0  40.507011 -24.348244 1.926936  0.983305 -0.000033 -0.181967  0.093753 0.625965 1 1 1.000000
skin_0
0  40.548298 -15.222814 2.092102  0.983481 -0.000427 -0.181009  0.094729 0.590808 1 1 1.000000
0  40.520771 -15.222814 2.009519  0.965640 0.005156 -0.259833  0.094729 0.590808 1 1 1.000000
0  40.562061 -5.147676 2.215976  0.950114 0.007633 -0.311808  0.095706 0.550768 1 1 1.000000
skin_0
0  40.562061 -5.147676 2.215976  0.950114 0.007633 -0.311808  0.095706 0.550768 1 1 1.000000
0  40.589588 -5.147676 2.298560  0.982391 -0.000367 -0.186834  0.096683 0.550768 1 1 1.000000
0  40.548298 -15.222814 2.092102  0.983481 -0.000427 -0.181009  0.094729 0.590808 1 1 1.000000
skin_0
0  40.589588 -5.147676 2.298560  0.982391 -0.000367 -0.186834  0.096683 0.550768 1 1 1.000000
0  40.685936 -5.161440 3.069335  0.998675 -0.005159 0.051207  0.100589 0.550768 1 1 1.000000
0  40.658405 -15.222814 2.876641  0.994824 -0.005462 0.101466  0.099612 0.590808 1 1 1.000000
skin_0
0  40.658405 -15.222814 2.876641  0.994824 -0.005462 0.101466  0.099612 0.590808 1 1 1.000000
0  40.548298 -15.222814 2.092102  0.983481 -0.000427 -0.181009  0.094729 0.590808 1 1 1.000000
0  40.589588 -5.147676 2.298560  0.982391 -0.000367 -0.186834  0.096683 0.550768 1 1 1.000000
skin_0
0  40.548298 -15.222814 2.092102  0.983481 -0.000427 -0.181009  0.094729 0.590808 1 1 1.000000
0  40.658405 -15.222814 2.876641  0.994824 -0.005462 0.101466  0.099612 0.590808 1 1 1.000000
0  40.630882 -24.362009 2.683947  0.995156 -0.004884 0.098192  0.098636 0.625965 1 1 1.000000
skin_0
0  40.630882 -24.362009 2.683947  0.995156 -0.004884 0.098192  0.098636 0.625965 1 1 1.000000
0  40.507011 -24.348244 1.926936  0.983305 -0.000033 -0.181967  0.093753 0.625965 1 1 1.000000
0  40.548298 -15.222814 2.092102  0.983481 -0.000427 -0.181009  0.094729 0.590808 1 1 1.000000
skin_0
0  40.507011 -24.348244 1.926936  0.983305 -0.000033 -0.181967  0.093753 0.625965 1 1 1.000000
0  40.630882 -24.362009 2.683947  0.995156 -0.004884 0.098192  0.098636 0.625965 1 1 1.000000
0  40.603355 -33.404858 2.505017  0.996593 0.004552 0.082351  0.097659 0.662099 1 1 1.000000
skin_0
0  40.603355 -33.404858 2.505017  0.996593 0.004552 0.082351  0.097659 0.662099 1 1 1.000000
0  40.479485 -34.093052 1.720478  0.979457 0.009463 -0.201431  0.092776 0.665029 1 1 1.000000
0  40.507011 -24.348244 1.926936  0.983305 -0.000033 -0.181967  0.093753 0.625965 1 1 1.000000
skin_0
0  40.479485 -34.093052 1.720478  0.979457 0.009463 -0.201431  0.092776 0.665029 1 1 1.000000
0  40.603355 -33.404858 2.505017  0.996593 0.004552 0.082351  0.097659 0.662099 1 1 1.000000
0  40.658409 -35.978699 2.491253  0.931631 -0.353293 0.085130  0.097659 0.671865 1 1 1.000000
skin_0
0  40.658409 -35.978699 2.491253  0.931631 -0.353293 0.085130  0.097659 0.671865 1 1 1.000000
0  40.507011 -36.075043 1.748006  0.925025 -0.353666 -0.138743  0.092776 0.672842 1 1 1.000000
0  40.479485 -34.093052 1.720478  0.979457 0.009463 -0.201431  0.092776 0.665029 1 1 1.000000
skin_0
0  40.507011 -36.075043 1.748006  0.925025 -0.353666 -0.138743  0.092776 0.672842 1 1 1.000000
0  40.451954 -34.106815 1.624131  0.975143 0.006565 -0.221481  0.091800 0.665029 1 1 1.000000
0  40.479485 -34.093052 1.720478  0.979457 0.009463 -0.201431  0.092776 0.665029 1 1 1.000000
skin_0
0  40.039040 -34.478436 -0.178933  0.809897 0.001764 -0.586570  0.081057 0.666005 1 1 1.000000
0  40.451954 -34.106815 1.624131  0.975143 0.006565 -0.221481  0.091800 0.665029 1 1 1.000000
0  40.507011 -36.075043 1.748006  0.925025 -0.353666 -0.138743  0.092776 0.672842 1 1 1.000000
skin_0
0  40.451954 -34.106815 1.624131  0.975143 0.006565 -0.221481  0.091800 0.665029 1 1 1.000000
0  40.039040 -34.478436 -0.178933  0.809897 0.001764 -0.586570  0.081057 0.666005 1 1 1.000000
0  40.039036 -24.183077 -0.137642  0.802401 0.008866 -0.596720  0.082034 0.625965 1 1 1.000000
skin_0
0  39.818813 -24.183077 -0.261516  0.016724 0.003143 -0.999855  0.081057 0.625965 1 1 1.000000
0  40.039036 -24.183077 -0.137642  0.802401 0.008866 -0.596720  0.082034 0.625965 1 1 1.000000
0  40.039040 -34.478436 -0.178933  0.809897 0.001764 -0.586570  0.081057 0.666005 1 1 1.000000
skin_0
0  40.039036 -24.183077 -0.137642  0.802401 0.008866 -0.596720  0.082034 0.625965 1 1 1.000000
0  39.818813 -24.183077 -0.261516  0.016724 0.003143 -0.999855  0.081057 0.625965 1 1 1.000000
0  39.653648 -15.291634 -0.275280  -0.073425 -0.003127 -0.997296  0.081057 0.590808 1 1 1.000000
skin_0
0  39.653648 -15.291634 -0.275280  -0.073425 -0.003127 -0.997296  0.081057 0.590808 1 1 1.000000
0  39.860104 -15.277870 -0.165169  0.777811 0.011352 -0.628395  0.082034 0.590808 1 1 1.000000
0  40.039036 -24.183077 -0.137642  0.802401 0.008866 -0.596720  0.082034 0.625965 1 1 1.000000
skin_0
0  39.860104 -15.277870 -0.165169  0.777811 0.011352 -0.628395  0.082034 0.590808 1 1 1.000000
0  39.653648 -15.291634 -0.275280  -0.073425 -0.003127 -0.997296  0.081057 0.590808 1 1 1.000000
0  39.392136 -5.202732 -0.316572  -0.073295 -0.007188 -0.997284  0.081057 0.550768 1 1 1.000000
skin_0
0  39.392136 -5.202732 -0.316572  -0.073295 -0.007188 -0.997284  0.081057 0.550768 1 1 1.000000
0  39.626122 -5.202732 -0.192697  0.751275 0.015217 -0.659814  0.081057 0.550768 1 1 1.000000
0  39.860104 -15.277870 -0.165169  0.777811 0.011352 -0.628395  0.082034 0.590808 1 1 1.000000
skin_0
0  39.626122 -5.202732 -0.192697  0.751275 0.015217 -0.659814  0.081057 0.550768 1 1 1.000000
0  39.392136 -5.202732 -0.316572  -0.073295 -0.007188 -0.997284  0.081057 0.550768 1 1 1.000000
0  39.061802 4.335615 -0.344099  -0.326938 0.010240 -0.944990  0.080081 0.513657 1 1 1.000000
skin_0
0  39.061802 4.335615 -0.344099  -0.326938 0.010240 -0.944990  0.080081 0.513657 1 1 1.000000
0  39.295788 4.335615 -0.220225  0.721320 0.018952 -0.692343  0.081057 0.513657 1 1 1.000000
0  39.626122 -5.202732 -0.192697  0.751275 0.015217 -0.659814  0.081057 0.550768 1 1 1.000000
skin_0
0  40.039040 -34.478436 -0.178933  0.809897 0.001764 -0.586570  0.081057 0.666005 1 1 1.000000
0  39.846344 -34.492199 -0.302808  0.021696 0.001896 -0.999763  0.081057 0.666005 1 1 1.000000
0  39.818813 -24.183077 -0.261516  0.016724 0.003143 -0.999855  0.081057 0.625965 1 1 1.000000
skin_0
0  40.507011 -36.075043 1.748006  0.925025 -0.353666 -0.138743  0.092776 0.672842 1 1 1.000000
0  40.025276 -36.501724 -0.192697  0.785209 -0.354260 -0.507884  0.081057 0.673818 1 1 1.000000
0  40.039040 -34.478436 -0.178933  0.809897 0.001764 -0.586570  0.081057 0.666005 1 1 1.000000
skin_0
0  39.846344 -34.492199 -0.302808  0.021696 0.001896 -0.999763  0.081057 0.666005 1 1 1.000000
0  40.039040 -34.478436 -0.178933  0.809897 0.001764 -0.586570  0.081057 0.666005 1 1 1.000000
0  40.025276 -36.501724 -0.192697  0.785209 -0.354260 -0.507884  0.081057 0.673818 1 1 1.000000
skin_0
0  40.025276 -36.501724 -0.192697  0.785209 -0.354260 -0.507884  0.081057 0.673818 1 1 1.000000
0  39.846344 -36.543015 -0.302808  -0.041916 -0.449999 -0.892045  0.081057 0.673818 1 1 1.000000
0  39.846344 -34.492199 -0.302808  0.021696 0.001896 -0.999763  0.081057 0.666005 1 1 1.000000
skin_0
0  39.942692 -36.625599 -0.110114  0.442096 -0.885345 -0.143928  0.082034 0.674795 1 1 1.000000
0  39.805054 -36.639362 -0.165169  -0.161256 -0.920397 -0.356183  0.082034 0.674795 1 1 1.000000
0  39.846344 -36.543015 -0.302808  -0.041916 -0.449999 -0.892045  0.081057 0.673818 1 1 1.000000
skin_0
0  39.846344 -36.543015 -0.302808  -0.041916 -0.449999 -0.892045  0.081057 0.673818 1 1 1.000000
0  40.025276 -36.501724 -0.192697  0.785209 -0.354260 -0.507884  0.081057 0.673818 1 1 1.000000
0  39.942692 -36.625599 -0.110114  0.442096 -0.885345 -0.143928  0.082034 0.674795 1 1 1.000000
skin_0
0  40.355610 -36.253971 1.816825  0.444102 -0.892544 0.078353  0.093753 0.672842 1 1 1.000000
0  39.942692 -36.625599 -0.110114  0.442096 -0.885345 -0.143928  0.082034 0.674795 1 1 1.000000
0  40.025276 -36.501724 -0.192697  0.785209 -0.354260 -0.507884  0.081057 0.673818 1 1 1.000000
skin_0
0  40.025276 -36.501724 -0.192697  0.785209 -0.354260 -0.507884  0.081057 0.673818 1 1 1.000000
0  40.507011 -36.075043 1.748006  0.925025 -0.353666 -0.138743  0.092776 0.672842 1 1 1.000000
0  40.355610 -36.253971 1.816825  0.444102 -0.892544 0.078353  0.093753 0.672842 1 1 1.000000
skin_0
0  40.507011 -36.116333 2.477490  0.429290 -0.900380 0.070900  0.097659 0.672842 1 1 1.000000
0  40.355610 -36.253971 1.816825  0.444102 -0.892544 0.078353  0.093753 0.672842 1 1 1.000000
0  40.507011 -36.075043 1.748006  0.925025 -0.353666 -0.138743  0.092776 0.672842 1 1 1.000000
skin_0
0  40.507011 -36.075043 1.748006  0.925025 -0.353666 -0.138743  0.092776 0.672842 1 1 1.000000
0  40.658409 -35.978699 2.491253  0.931631 -0.353293 0.085130  0.097659 0.671865 1 1 1.000000
0  40.507011 -36.116333 2.477490  0.429290 -0.900380 0.070900  0.097659 0.672842 1 1 1.000000
skin_0
0  40.493248 -36.116333 2.628892  0.381131 -0.915532 0.128606  0.097659 0.672842 1 1 1.000000
0  40.507011 -36.116333 2.477490  0.429290 -0.900380 0.070900  0.097659 0.672842 1 1 1.000000
0  40.658409 -35.978699 2.491253  0.931631 -0.353293 0.085130  0.097659 0.671865 1 1 1.000000
skin_0
0  40.658409 -35.978699 2.491253  0.931631 -0.353293 0.085130  0.097659 0.671865 1 1 1.000000
0  40.603355 -35.951172 2.628892  0.894766 -0.262060 0.361550  0.098636 0.671865 1 1 1.000000
0  40.493248 -36.116333 2.628892  0.381131 -0.915532 0.128606  0.097659 0.672842 1 1 1.000000
skin_0
0  40.603355 -35.951172 2.628892  0.894766 -0.262060 0.361550  0.098636 0.671865 1 1 1.000000
0  40.658409 -35.978699 2.491253  0.931631 -0.353293 0.085130  0.097659 0.671865 1 1 1.000000
0  40.603355 -33.404858 2.505017  0.996593 0.004552 0.082351  0.097659 0.662099 1 1 1.000000
skin_0
0  40.603355 -33.404858 2.505017  0.996593 0.004552 0.082351  0.097659 0.662099 1 1 1.000000
0  40.562065 -33.404858 2.642656  0.941925 0.002989 0.335809  0.098636 0.662099 1 1 1.000000
0  40.603355 -35.951172 2.628892  0.894766 -0.262060 0.361550  0.098636 0.671865 1 1 1.000000
skin_0
0  40.562065 -33.404858 2.642656  0.941925 0.002989 0.335809  0.098636 0.662099 1 1 1.000000
0  40.603355 -33.404858 2.505017  0.996593 0.004552 0.082351  0.097659 0.662099 1 1 1.000000
0  40.630882 -24.362009 2.683947  0.995156 -0.004884 0.098192  0.098636 0.625965 1 1 1.000000
skin_0
0  40.630882 -24.362009 2.683947  0.995156 -0.004884 0.098192  0.098636 0.625965 1 1 1.000000
0  40.575829 -24.362009 2.821586  0.936332 -0.009339 0.350992  0.099612 0.625965 1 1 1.000000
0  40.562065 -33.404858 2.642656  0.941925 0.002989 0.335809  0.098636 0.662099 1 1 1.000000
skin_0
0  40.575829 -24.362009 2.821586  0.936332 -0.009339 0.350992  0.099612 0.625965 1 1 1.000000
0  40.630882 -24.362009 2.683947  0.995156 -0.004884 0.098192  0.098636 0.625965 1 1 1.000000
0  40.658405 -15.222814 2.876641  0.994824 -0.005462 0.101466  0.099612 0.590808 1 1 1.000000
skin_0
0  40.658405 -15.222814 2.876641  0.994824 -0.005462 0.101466  0.099612 0.590808 1 1 1.000000
0  40.603352 -15.222814 3.014280  0.942068 -0.009767 0.335279  0.100589 0.590808 1 1 1.000000
0  40.575829 -24.362009 2.821586  0.936332 -0.009339 0.350992  0.099612 0.625965 1 1 1.000000
skin_0
0  40.603352 -15.222814 3.014280  0.942068 -0.009767 0.335279  0.100589 0.590808 1 1 1.000000
0  40.658405 -15.222814 2.876641  0.994824 -0.005462 0.101466  0.099612 0.590808 1 1 1.000000
0  40.685936 -5.161440 3.069335  0.998675 -0.005159 0.051207  0.100589 0.550768 1 1 1.000000
skin_0
0  40.685936 -5.161440 3.069335  0.998675 -0.005159 0.051207  0.100589 0.550768 1 1 1.000000
0  40.644642 -5.161440 3.220737  0.974746 -0.008577 0.223152  0.101566 0.550768 1 1 1.000000
0  40.603352 -15.222814 3.014280  0.942068 -0.009767 0.335279  0.100589 0.590808 1 1 1.000000
skin_0
0  40.644642 -5.161440 3.220737  0.974746 -0.008577 0.223152  0.101566 0.550768 1 1 1.000000
0  40.685936 -5.161440 3.069335  0.998675 -0.005159 0.051207  0.100589 0.550768 1 1 1.000000
0  40.713463 4.335615 3.262029  0.997177 -0.006166 0.074829  0.101566 0.513657 1 1 1.000000
skin_0
0  40.713463 4.335615 3.262029  0.997177 -0.006166 0.074829  0.101566 0.513657 1 1 1.000000
0  40.658405 4.335615 3.427195  0.967553 -0.009583 0.252487  0.102542 0.513657 1 1 1.000000
0  40.644642 -5.161440 3.220737  0.974746 -0.008577 0.223152  0.101566 0.550768 1 1 1.000000
skin_0
0  40.658405 4.335615 3.427195  0.967553 -0.009583 0.252487  0.102542 0.513657 1 1 1.000000
0  40.713463 4.335615 3.262029  0.997177 -0.006166 0.074829  0.101566 0.513657 1 1 1.000000
0  40.740990 11.561635 3.427195  0.992516 -0.006438 0.121945  0.102542 0.485336 1 1 1.000000
skin_0
0  40.740990 11.561635 3.427195  0.992516 -0.006438 0.121945  0.102542 0.485336 1 1 1.000000
0  40.685936 11.561635 3.592361  0.941006 -0.010074 0.338241  0.103519 0.485336 1 1 1.000000
0  40.658405 4.335615 3.427195  0.967553 -0.009583 0.252487  0.102542 0.513657 1 1 1.000000
skin_0
0  40.685936 11.561635 3.592361  0.941006 -0.010074 0.338241  0.103519 0.485336 1 1 1.000000
0  40.740990 11.561635 3.427195  0.992516 -0.006438 0.121945  0.102542 0.485336 1 1 1.000000
0  40.782280 20.136515 3.592361  0.992818 -0.006682 0.119447  0.103519 0.451155 1 1 1.000000
skin_0
0  40.782280 20.136515 3.592361  0.992818 -0.006682 0.119447  0.103519 0.451155 1 1 1.000000
0  40.699699 20.136515 3.785055  0.943142 -0.010223 0.332233  0.105472 0.451155 1 1 1.000000
0  40.685936 11.561635 3.592361  0.941006 -0.010074 0.338241  0.103519 0.485336 1 1 1.000000
skin_0
0  40.699699 20.136515 3.785055  0.943142 -0.010223 0.332233  0.105472 0.451155 1 1 1.000000
0  40.782280 20.136515 3.592361  0.992818 -0.006682 0.119447  0.103519 0.451155 1 1 1.000000
0  40.809814 27.789215 3.743764  0.991545 -0.009430 0.129421  0.104495 0.420881 1 1 1.000000
skin_0
0  40.809814 27.789215 3.743764  0.991545 -0.009430 0.129421  0.104495 0.420881 1 1 1.000000
0  40.740990 27.789215 3.950222  0.943316 -0.013064 0.331638  0.106449 0.420881 1 1 1.000000
0  40.699699 20.136515 3.785055  0.943142 -0.010223 0.332233  0.105472 0.451155 1 1 1.000000
skin_0
0  40.740990 27.789215 3.950222  0.943316 -0.013064 0.331638  0.106449 0.420881 1 1 1.000000
0  40.809814 27.789215 3.743764  0.991545 -0.009430 0.129421  0.104495 0.420881 1 1 1.000000
0  40.892391 36.460438 3.908930  0.995585 -0.019289 0.091862  0.105472 0.386700 1 1 1.000000
skin_0
0  40.892391 36.460438 3.908930  0.995585 -0.019289 0.091862  0.105472 0.386700 1 1 1.000000
0  40.823574 36.460438 4.142915  0.964972 -0.023803 0.261270  0.107425 0.386700 1 1 1.000000
0  40.740990 27.789215 3.950222  0.943316 -0.013064 0.331638  0.106449 0.420881 1 1 1.000000
skin_0
0  40.823574 36.460438 4.142915  0.964972 -0.023803 0.261270  0.107425 0.386700 1 1 1.000000
0  40.892391 36.460438 3.908930  0.995585 -0.019289 0.091862  0.105472 0.386700 1 1 1.000000
0  41.071320 43.658932 4.087860  0.998146 -0.034206 0.050339  0.106449 0.358379 1 1 1.000000
skin_0
0  41.071320 43.658932 4.087860  0.998146 -0.034206 0.050339  0.106449 0.358379 1 1 1.000000
0  41.030029 43.645164 4.280554  0.976673 -0.038414 0.211270  0.108402 0.358379 1 1 1.000000
0  40.823574 36.460438 4.142915  0.964972 -0.023803 0.261270  0.107425 0.386700 1 1 1.000000
skin_0
0  41.030029 43.645164 4.280554  0.976673 -0.038414 0.211270  0.108402 0.358379 1 1 1.000000
0  41.071320 43.658932 4.087860  0.998146 -0.034206 0.050339  0.106449 0.358379 1 1 1.000000
0  41.181431 45.929966 4.101624  0.929504 0.362668 0.067041  0.106449 0.349590 1 1 1.000000
skin_0
0  41.181431 45.929966 4.101624  0.929504 0.362668 0.067041  0.106449 0.349590 1 1 1.000000
0  41.140141 45.902439 4.308081  0.905473 0.361400 0.222505  0.108402 0.349590 1 1 1.000000
0  41.030029 43.645164 4.280554  0.976673 -0.038414 0.211270  0.108402 0.358379 1 1 1.000000
skin_0
0  41.140141 45.902439 4.308081  0.905473 0.361400 0.222505  0.108402 0.349590 1 1 1.000000
0  41.181431 45.929966 4.101624  0.929504 0.362668 0.067041  0.106449 0.349590 1 1 1.000000
0  40.974972 46.122662 4.101624  0.359252 0.910115 0.206470  0.106449 0.348613 1 1 1.000000
skin_0
0  40.974972 46.122662 4.101624  0.359252 0.910115 0.206470  0.106449 0.348613 1 1 1.000000
0  40.947445 46.053837 4.308082  0.297764 0.893298 0.336682  0.108402 0.349590 1 1 1.000000
0  41.140141 45.902439 4.308081  0.905473 0.361400 0.222505  0.108402 0.349590 1 1 1.000000
skin_0
0  -40.369373 47.031067 -0.082580  -0.197093 0.978124 -0.066538  0.917020 0.345683 1 1 1.000000
0  -40.231731 47.017303 -0.206455  0.267415 0.793915 -0.546067  0.917997 0.345683 1 1 1.000000
0  -40.341843 46.907192 -0.233982  -0.246976 0.253637 -0.935239  0.917997 0.345683 1 1 1.000000
skin_0
0  -41.167675 45.902431 4.308088  -0.905475 0.361399 0.222498  0.891629 0.349590 1 1 1.000000
0  -40.974979 46.053829 4.308087  -0.297392 0.893539 0.336373  0.891629 0.349590 1 1 1.000000
0  -41.002506 46.122654 4.101630  -0.359304 0.910100 0.206441  0.892605 0.348613 1 1 1.000000
skin_0
0  -41.002506 46.122654 4.101630  -0.359304 0.910100 0.206441  0.892605 0.348613 1 1 1.000000
0  -41.208965 45.929958 4.101630  -0.929510 0.362656 0.067019  0.892605 0.349590 1 1 1.000000
0  -41.167675 45.902431 4.308088  -0.905475 0.361399 0.222498  0.891629 0.349590 1 1 1.000000
skin_0
0  -41.057564 43.645157 4.280560  -0.976673 -0.038414 0.211270  0.891629 0.358379 1 1 1.000000
0  -41.167675 45.902431 4.308088  -0.905475 0.361399 0.222498  0.891629 0.349590 1 1 1.000000
0  -41.208965 45.929958 4.101630  -0.929510 0.362656 0.067019  0.892605 0.349590 1 1 1.000000
skin_0
0  -41.208965 45.929958 4.101630  -0.929510 0.362656 0.067019  0.892605 0.349590 1 1 1.000000
0  -41.098854 43.658924 4.087866  -0.998143 -0.034239 0.050378  0.892605 0.358379 1 1 1.000000
0  -41.057564 43.645157 4.280560  -0.976673 -0.038414 0.211270  0.891629 0.358379 1 1 1.000000
skin_0
0  -41.098854 43.658924 4.087866  -0.998143 -0.034239 0.050378  0.892605 0.358379 1 1 1.000000
0  -41.208965 45.929958 4.101630  -0.929510 0.362656 0.067019  0.892605 0.349590 1 1 1.000000
0  -41.112617 46.095127 3.399674  -0.911707 0.407842 -0.049554  0.896512 0.348613 1 1 1.000000
skin_0
0  -40.933689 46.218998 3.509784  -0.285056 0.953237 0.100410  0.896512 0.348613 1 1 1.000000
0  -41.112617 46.095127 3.399674  -0.911707 0.407842 -0.049554  0.896512 0.348613 1 1 1.000000
0  -41.208965 45.929958 4.101630  -0.929510 0.362656 0.067019  0.892605 0.349590 1 1 1.000000
skin_0
0  -41.112617 46.095127 3.399674  -0.911707 0.407842 -0.049554  0.896512 0.348613 1 1 1.000000
0  -40.933689 46.218998 3.509784  -0.285056 0.953237 0.100410  0.896512 0.348613 1 1 1.000000
0  -40.369373 47.031067 -0.082580  -0.197093 0.978124 -0.066538  0.917020 0.345683 1 1 1.000000
skin_0
0  -40.369373 47.031067 -0.082580  -0.197093 0.978124 -0.066538  0.917020 0.345683 1 1 1.000000
0  -40.493248 46.907192 -0.123872  -0.819247 0.371821 -0.436558  0.917997 0.345683 1 1 1.000000
0  -41.112617 46.095127 3.399674  -0.911707 0.407842 -0.049554  0.896512 0.348613 1 1 1.000000
skin_0
0  -40.341843 46.907192 -0.233982  -0.246976 0.253637 -0.935239  0.917997 0.345683 1 1 1.000000
0  -40.493248 46.907192 -0.123872  -0.819247 0.371821 -0.436558  0.917997 0.345683 1 1 1.000000
0  -40.369373 47.031067 -0.082580  -0.197093 0.978124 -0.066538  0.917020 0.345683 1 1 1.000000
skin_0
0  -40.493248 46.907192 -0.123872  -0.819247 0.371821 -0.436558  0.917997 0.345683 1 1 1.000000
0  -40.341843 46.907192 -0.233982  -0.246976 0.253637 -0.935239  0.917997 0.345683 1 1 1.000000
0  -40.204205 44.539810 -0.302802  -0.116212 0.007261 -0.993198  0.918973 0.355449 1 1 1.000000
skin_0
0  -41.208965 45.929958 4.101630  -0.929510 0.362656 0.067019  0.892605 0.349590 1 1 1.000000
0  -41.002506 46.122654 4.101630  -0.359304 0.910100 0.206441  0.892605 0.348613 1 1 1.000000
0  -40.933689 46.218998 3.509784  -0.285056 0.953237 0.100410  0.896512 0.348613 1 1 1.000000
skin_0
0  -40.851109 36.460430 4.142921  -0.964972 -0.023802 0.261270  0.892605 0.386700 1 1 1.000000
0  -41.057564 43.645157 4.280560  -0.976673 -0.038414 0.211270  0.891629 0.358379 1 1 1.000000
0  -41.098854 43.658924 4.087866  -0.998143 -0.034239 0.050378  0.892605 0.358379 1 1 1.000000
skin_0
0  -40.837341 27.789207 3.743770  -0.991545 -0.009431 0.129421  0.894559 0.420881 1 1 1.000000
0  -40.809814 20.136507 3.592367  -0.992823 -0.006679 0.119407  0.895535 0.451155 1 1 1.000000
0  -40.727226 20.136507 3.785062  -0.943132 -0.010224 0.332262  0.894559 0.451155 1 1 1.000000
skin_0
0  -40.727226 20.136507 3.785062  -0.943132 -0.010224 0.332262  0.894559 0.451155 1 1 1.000000
0  -40.768517 27.789207 3.950228  -0.943332 -0.013064 0.331592  0.893582 0.420881 1 1 1.000000
0  -40.837341 27.789207 3.743770  -0.991545 -0.009431 0.129421  0.894559 0.420881 1 1 1.000000
skin_0
0  -40.919926 36.460430 3.908936  -0.995585 -0.019288 0.091863  0.893582 0.386700 1 1 1.000000
0  -40.837341 27.789207 3.743770  -0.991545 -0.009431 0.129421  0.894559 0.420881 1 1 1.000000
0  -40.768517 27.789207 3.950228  -0.943332 -0.013064 0.331592  0.893582 0.420881 1 1 1.000000
skin_0
0  -40.768517 27.789207 3.950228  -0.943332 -0.013064 0.331592  0.893582 0.420881 1 1 1.000000
0  -40.851109 36.460430 4.142921  -0.964972 -0.023802 0.261270  0.892605 0.386700 1 1 1.000000
0  -40.919926 36.460430 3.908936  -0.995585 -0.019288 0.091863  0.893582 0.386700 1 1 1.000000
skin_0
0  -41.098854 43.658924 4.087866  -0.998143 -0.034239 0.050378  0.892605 0.358379 1 1 1.000000
0  -40.919926 36.460430 3.908936  -0.995585 -0.019288 0.091863  0.893582 0.386700 1 1 1.000000
0  -40.851109 36.460430 4.142921  -0.964972 -0.023802 0.261270  0.892605 0.386700 1 1 1.000000
skin_0
0  -40.919926 36.460430 3.908936  -0.995585 -0.019288 0.091863  0.893582 0.386700 1 1 1.000000
0  -41.098854 43.658924 4.087866  -0.998143 -0.034239 0.050378  0.892605 0.358379 1 1 1.000000
0  -41.030037 43.755268 3.399674  -0.991394 -0.026539 -0.128197  0.896512 0.358379 1 1 1.000000
skin_0
0  -41.112617 46.095127 3.399674  -0.911707 0.407842 -0.049554  0.896512 0.348613 1 1 1.000000
0  -41.030037 43.755268 3.399674  -0.991394 -0.026539 -0.128197  0.896512 0.358379 1 1 1.000000
0  -41.098854 43.658924 4.087866  -0.998143 -0.034239 0.050378  0.892605 0.358379 1 1 1.000000
skin_0
0  -41.030037 43.755268 3.399674  -0.991394 -0.026539 -0.128197  0.896512 0.358379 1 1 1.000000
0  -41.112617 46.095127 3.399674  -0.911707 0.407842 -0.049554  0.896512 0.348613 1 1 1.000000
0  -41.016273 43.782803 3.303327  -0.986087 -0.025868 -0.164205  0.897488 0.358379 1 1 1.000000
skin_0
0  -41.016273 43.782803 3.303327  -0.986087 -0.025868 -0.164205  0.897488 0.358379 1 1 1.000000
0  -41.112617 46.095127 3.399674  -0.911707 0.407842 -0.049554  0.896512 0.348613 1 1 1.000000
0  -40.493248 46.907192 -0.123872  -0.819247 0.371821 -0.436558  0.917997 0.345683 1 1 1.000000
skin_0
0  -40.493248 46.907192 -0.123872  -0.819247 0.371821 -0.436558  0.917997 0.345683 1 1 1.000000
0  -40.383137 44.512280 -0.192691  -0.827889 -0.031132 -0.560027  0.917997 0.355449 1 1 1.000000
0  -41.016273 43.782803 3.303327  -0.986087 -0.025868 -0.164205  0.897488 0.358379 1 1 1.000000
skin_0
0  -40.204205 44.539810 -0.302802  -0.116212 0.007261 -0.993198  0.918973 0.355449 1 1 1.000000
0  -40.383137 44.512280 -0.192691  -0.827889 -0.031132 -0.560027  0.917997 0.355449 1 1 1.000000
0  -40.493248 46.907192 -0.123872  -0.819247 0.371821 -0.436558  0.917997 0.345683 1 1 1.000000
skin_0
0  -39.818817 36.460430 -0.192691  -0.797160 -0.042328 -0.602282  0.917997 0.386700 1 1 1.000000
0  -40.383137 44.512280 -0.192691  -0.827889 -0.031132 -0.560027  0.917997 0.355449 1 1 1.000000
0  -40.204205 44.539810 -0.302802  -0.116212 0.007261 -0.993198  0.918973 0.355449 1 1 1.000000
skin_0
0  -40.204205 44.539810 -0.302802  -0.116212 0.007261 -0.993198  0.918973 0.355449 1 1 1.000000
0  -39.626125 36.460430 -0.316566  -0.125708 -0.005133 -0.992054  0.918973 0.386700 1 1 1.000000
0  -39.818817 36.460430 -0.192691  -0.797160 -0.042328 -0.602282  0.917997 0.386700 1 1 1.000000
skin_0
0  -39.199444 27.789207 -0.233982  -0.728340 -0.030086 -0.684556  0.917997 0.420881 1 1 1.000000
0  -39.818817 36.460430 -0.192691  -0.797160 -0.042328 -0.602282  0.917997 0.386700 1 1 1.000000
0  -39.626125 36.460430 -0.316566  -0.125708 -0.005133 -0.992054  0.918973 0.386700 1 1 1.000000
skin_0
0  -39.626125 36.460430 -0.316566  -0.125708 -0.005133 -0.992054  0.918973 0.386700 1 1 1.000000
0  -38.992985 27.789207 -0.357857  0.373736 -0.017799 -0.927364  0.918973 0.420881 1 1 1.000000
0  -39.199444 27.789207 -0.233982  -0.728340 -0.030086 -0.684556  0.917997 0.420881 1 1 1.000000
skin_0
0  -38.910397 20.136507 -0.261510  -0.680977 -0.008146 -0.732260  0.918973 0.451155 1 1 1.000000
0  -39.199444 27.789207 -0.233982  -0.728340 -0.030086 -0.684556  0.917997 0.420881 1 1 1.000000
0  -38.992985 27.789207 -0.357857  0.373736 -0.017799 -0.927364  0.918973 0.420881 1 1 1.000000
skin_0
0  -38.992985 27.789207 -0.357857  0.373736 -0.017799 -0.927364  0.918973 0.420881 1 1 1.000000
0  -38.690178 20.136507 -0.371621  0.629461 0.025407 -0.776616  0.918973 0.451155 1 1 1.000000
0  -38.910397 20.136507 -0.261510  -0.680977 -0.008146 -0.732260  0.918973 0.451155 1 1 1.000000
skin_0
0  -39.061802 11.561629 -0.247746  -0.678321 0.011261 -0.734679  0.917997 0.485336 1 1 1.000000
0  -38.910397 20.136507 -0.261510  -0.680977 -0.008146 -0.732260  0.918973 0.451155 1 1 1.000000
0  -38.690178 20.136507 -0.371621  0.629461 0.025407 -0.776616  0.918973 0.451155 1 1 1.000000
skin_0
0  -40.039036 -24.183084 -0.137635  -0.802654 0.008888 -0.596379  0.917997 0.625965 1 1 1.000000
0  -40.039032 -34.478443 -0.178927  -0.809928 0.001770 -0.586527  0.917997 0.666005 1 1 1.000000
0  -40.451946 -34.106823 1.624137  -0.975143 0.006565 -0.221481  0.907254 0.665029 1 1 1.000000
skin_0
0  -40.451946 -34.106823 1.624137  -0.975143 0.006565 -0.221481  0.907254 0.665029 1 1 1.000000
0  -40.479477 -24.348251 1.844359  -0.976813 0.004337 -0.214049  0.906278 0.625965 1 1 1.000000
0  -40.039036 -24.183084 -0.137635  -0.802654 0.008888 -0.596379  0.917997 0.625965 1 1 1.000000
skin_0
0  -39.860104 -15.277876 -0.165163  -0.777812 0.011348 -0.628395  0.917997 0.590808 1 1 1.000000
0  -40.039036 -24.183084 -0.137635  -0.802654 0.008888 -0.596379  0.917997 0.625965 1 1 1.000000
0  -40.479477 -24.348251 1.844359  -0.976813 0.004337 -0.214049  0.906278 0.625965 1 1 1.000000
skin_0
0  -40.479477 -24.348251 1.844359  -0.976813 0.004337 -0.214049  0.906278 0.625965 1 1 1.000000
0  -40.520771 -15.222819 2.009525  -0.965640 0.005158 -0.259833  0.905301 0.590808 1 1 1.000000
0  -39.860104 -15.277876 -0.165163  -0.777812 0.011348 -0.628395  0.917997 0.590808 1 1 1.000000
skin_0
0  -39.626122 -5.202737 -0.192691  -0.751481 0.015121 -0.659581  0.917997 0.550768 1 1 1.000000
0  -39.860104 -15.277876 -0.165163  -0.777812 0.011348 -0.628395  0.917997 0.590808 1 1 1.000000
0  -40.520771 -15.222819 2.009525  -0.965640 0.005158 -0.259833  0.905301 0.590808 1 1 1.000000
skin_0
0  -40.520771 -15.222819 2.009525  -0.965640 0.005158 -0.259833  0.905301 0.590808 1 1 1.000000
0  -40.562061 -5.147682 2.215983  -0.950121 0.007628 -0.311787  0.903348 0.550768 1 1 1.000000
0  -39.626122 -5.202737 -0.192691  -0.751481 0.015121 -0.659581  0.917997 0.550768 1 1 1.000000
skin_0
0  -39.323315 4.335609 -0.220219  -0.721577 0.018930 -0.692075  0.917997 0.513657 1 1 1.000000
0  -39.626122 -5.202737 -0.192691  -0.751481 0.015121 -0.659581  0.917997 0.550768 1 1 1.000000
0  -40.562061 -5.147682 2.215983  -0.950121 0.007628 -0.311787  0.903348 0.550768 1 1 1.000000
skin_0
0  -40.562061 -5.147682 2.215983  -0.950121 0.007628 -0.311787  0.903348 0.550768 1 1 1.000000
0  -40.630878 4.335609 2.449968  -0.931629 0.008513 -0.363310  0.902371 0.513657 1 1 1.000000
0  -39.323315 4.335609 -0.220219  -0.721577 0.018930 -0.692075  0.917997 0.513657 1 1 1.000000
skin_0
0  -39.061802 11.561629 -0.247746  -0.678321 0.011261 -0.734679  0.917997 0.485336 1 1 1.000000
0  -39.323315 4.335609 -0.220219  -0.721577 0.018930 -0.692075  0.917997 0.513657 1 1 1.000000
0  -40.630878 4.335609 2.449968  -0.931629 0.008513 -0.363310  0.902371 0.513657 1 1 1.000000
skin_0
0  -40.630878 4.335609 2.449968  -0.931629 0.008513 -0.363310  0.902371 0.513657 1 1 1.000000
0  -40.672169 11.561629 2.615134  -0.916382 0.005614 -0.400265  0.901395 0.485336 1 1 1.000000
0  -39.061802 11.561629 -0.247746  -0.678321 0.011261 -0.734679  0.917997 0.485336 1 1 1.000000
skin_0
0  -38.910397 20.136507 -0.261510  -0.680977 -0.008146 -0.732260  0.918973 0.451155 1 1 1.000000
0  -39.061802 11.561629 -0.247746  -0.678321 0.011261 -0.734679  0.917997 0.485336 1 1 1.000000
0  -40.672169 11.561629 2.615134  -0.916382 0.005614 -0.400265  0.901395 0.485336 1 1 1.000000
skin_0
0  -40.672169 11.561629 2.615134  -0.916382 0.005614 -0.400265  0.901395 0.485336 1 1 1.000000
0  -40.713463 20.136507 2.807828  -0.916708 -0.002655 -0.399549  0.900418 0.451155 1 1 1.000000
0  -38.910397 20.136507 -0.261510  -0.680977 -0.008146 -0.732260  0.918973 0.451155 1 1 1.000000
skin_0
0  -39.199444 27.789207 -0.233982  -0.728340 -0.030086 -0.684556  0.917997 0.420881 1 1 1.000000
0  -38.910397 20.136507 -0.261510  -0.680977 -0.008146 -0.732260  0.918973 0.451155 1 1 1.000000
0  -40.713463 20.136507 2.807828  -0.916708 -0.002655 -0.399549  0.900418 0.451155 1 1 1.000000
skin_0
0  -40.713463 20.136507 2.807828  -0.916708 -0.002655 -0.399549  0.900418 0.451155 1 1 1.000000
0  -40.754753 27.789207 2.959231  -0.938846 -0.012879 -0.344097  0.899442 0.420881 1 1 1.000000
0  -39.199444 27.789207 -0.233982  -0.728340 -0.030086 -0.684556  0.917997 0.420881 1 1 1.000000
skin_0
0  -39.818817 36.460430 -0.192691  -0.797160 -0.042328 -0.602282  0.917997 0.386700 1 1 1.000000
0  -39.199444 27.789207 -0.233982  -0.728340 -0.030086 -0.684556  0.917997 0.420881 1 1 1.000000
0  -40.754753 27.789207 2.959231  -0.938846 -0.012879 -0.344097  0.899442 0.420881 1 1 1.000000
skin_0
0  -40.754753 27.789207 2.959231  -0.938846 -0.012879 -0.344097  0.899442 0.420881 1 1 1.000000
0  -40.851109 36.460430 3.110633  -0.971469 -0.020903 -0.236244  0.898465 0.386700 1 1 1.000000
0  -39.818817 36.460430 -0.192691  -0.797160 -0.042328 -0.602282  0.917997 0.386700 1 1 1.000000
skin_0
0  -40.383137 44.512280 -0.192691  -0.827889 -0.031132 -0.560027  0.917997 0.355449 1 1 1.000000
0  -39.818817 36.460430 -0.192691  -0.797160 -0.042328 -0.602282  0.917997 0.386700 1 1 1.000000
0  -40.851109 36.460430 3.110633  -0.971469 -0.020903 -0.236244  0.898465 0.386700 1 1 1.000000
skin_0
0  -40.851109 36.460430 3.110633  -0.971469 -0.020903 -0.236244  0.898465 0.386700 1 1 1.000000
0  -41.016273 43.782803 3.303327  -0.986087 -0.025868 -0.164205  0.897488 0.358379 1 1 1.000000
0  -40.383137 44.512280 -0.192691  -0.827889 -0.031132 -0.560027  0.917997 0.355449 1 1 1.000000
skin_0
0  -40.782280 27.789207 3.055578  -0.984959 -0.004208 -0.172736  0.898465 0.420881 1 1 1.000000
0  -40.864872 36.460430 3.206980  -0.990847 -0.013091 -0.134354  0.898465 0.386700 1 1 1.000000
0  -40.851109 36.460430 3.110633  -0.971469 -0.020903 -0.236244  0.898465 0.386700 1 1 1.000000
skin_0
0  -40.851109 36.460430 3.110633  -0.971469 -0.020903 -0.236244  0.898465 0.386700 1 1 1.000000
0  -40.754753 27.789207 2.959231  -0.938846 -0.012879 -0.344097  0.899442 0.420881 1 1 1.000000
0  -40.782280 27.789207 3.055578  -0.984959 -0.004208 -0.172736  0.898465 0.420881 1 1 1.000000
skin_0
0  -40.740990 20.136507 2.890411  -0.979686 -0.000632 -0.200538  0.899442 0.451155 1 1 1.000000
0  -40.782280 27.789207 3.055578  -0.984959 -0.004208 -0.172736  0.898465 0.420881 1 1 1.000000
0  -40.754753 27.789207 2.959231  -0.938846 -0.012879 -0.344097  0.899442 0.420881 1 1 1.000000
skin_0
0  -40.754753 27.789207 2.959231  -0.938846 -0.012879 -0.344097  0.899442 0.420881 1 1 1.000000
0  -40.713463 20.136507 2.807828  -0.916708 -0.002655 -0.399549  0.900418 0.451155 1 1 1.000000
0  -40.740990 20.136507 2.890411  -0.979686 -0.000632 -0.200538  0.899442 0.451155 1 1 1.000000
skin_0
0  -40.699699 11.561629 2.697717  -0.979308 -0.000213 -0.202374  0.901395 0.485336 1 1 1.000000
0  -40.740990 20.136507 2.890411  -0.979686 -0.000632 -0.200538  0.899442 0.451155 1 1 1.000000
0  -40.713463 20.136507 2.807828  -0.916708 -0.002655 -0.399549  0.900418 0.451155 1 1 1.000000
skin_0
0  -40.713463 20.136507 2.807828  -0.916708 -0.002655 -0.399549  0.900418 0.451155 1 1 1.000000
0  -40.672169 11.561629 2.615134  -0.916382 0.005614 -0.400265  0.901395 0.485336 1 1 1.000000
0  -40.699699 11.561629 2.697717  -0.979308 -0.000213 -0.202374  0.901395 0.485336 1 1 1.000000
skin_0
0  -40.658405 4.335609 2.532551  -0.981407 -0.000732 -0.191935  0.902371 0.513657 1 1 1.000000
0  -40.699699 11.561629 2.697717  -0.979308 -0.000213 -0.202374  0.901395 0.485336 1 1 1.000000
0  -40.672169 11.561629 2.615134  -0.916382 0.005614 -0.400265  0.901395 0.485336 1 1 1.000000
skin_0
0  -40.672169 11.561629 2.615134  -0.916382 0.005614 -0.400265  0.901395 0.485336 1 1 1.000000
0  -40.630878 4.335609 2.449968  -0.931629 0.008513 -0.363310  0.902371 0.513657 1 1 1.000000
0  -40.658405 4.335609 2.532551  -0.981407 -0.000732 -0.191935  0.902371 0.513657 1 1 1.000000
skin_0
0  -40.589588 -5.147682 2.298566  -0.982387 -0.000370 -0.186856  0.903348 0.550768 1 1 1.000000
0  -40.658405 4.335609 2.532551  -0.981407 -0.000732 -0.191935  0.902371 0.513657 1 1 1.000000
0  -40.630878 4.335609 2.449968  -0.931629 0.008513 -0.363310  0.902371 0.513657 1 1 1.000000
skin_0
0  -40.630878 4.335609 2.449968  -0.931629 0.008513 -0.363310  0.902371 0.513657 1 1 1.000000
0  -40.562061 -5.147682 2.215983  -0.950121 0.007628 -0.311787  0.903348 0.550768 1 1 1.000000
0  -40.589588 -5.147682 2.298566  -0.982387 -0.000370 -0.186856  0.903348 0.550768 1 1 1.000000
skin_0
0  -40.548298 -15.222819 2.092108  -0.983481 -0.000428 -0.181008  0.904324 0.590808 1 1 1.000000
0  -40.589588 -5.147682 2.298566  -0.982387 -0.000370 -0.186856  0.903348 0.550768 1 1 1.000000
0  -40.562061 -5.147682 2.215983  -0.950121 0.007628 -0.311787  0.903348 0.550768 1 1 1.000000
skin_0
0  -40.562061 -5.147682 2.215983  -0.950121 0.007628 -0.311787  0.903348 0.550768 1 1 1.000000
0  -40.520771 -15.222819 2.009525  -0.965640 0.005158 -0.259833  0.905301 0.590808 1 1 1.000000
0  -40.548298 -15.222819 2.092108  -0.983481 -0.000428 -0.181008  0.904324 0.590808 1 1 1.000000
skin_0
0  -40.507004 -24.348251 1.926942  -0.983314 0.000124 -0.181917  0.905301 0.625965 1 1 1.000000
0  -40.548298 -15.222819 2.092108  -0.983481 -0.000428 -0.181008  0.904324 0.590808 1 1 1.000000
0  -40.520771 -15.222819 2.009525  -0.965640 0.005158 -0.259833  0.905301 0.590808 1 1 1.000000
skin_0
0  -40.520771 -15.222819 2.009525  -0.965640 0.005158 -0.259833  0.905301 0.590808 1 1 1.000000
0  -40.479477 -24.348251 1.844359  -0.976813 0.004337 -0.214049  0.906278 0.625965 1 1 1.000000
0  -40.507004 -24.348251 1.926942  -0.983314 0.000124 -0.181917  0.905301 0.625965 1 1 1.000000
skin_0
0  -40.479477 -34.093060 1.720484  -0.979457 0.009459 -0.201431  0.907254 0.665029 1 1 1.000000
0  -40.507004 -24.348251 1.926942  -0.983314 0.000124 -0.181917  0.905301 0.625965 1 1 1.000000
0  -40.479477 -24.348251 1.844359  -0.976813 0.004337 -0.214049  0.906278 0.625965 1 1 1.000000
skin_0
0  -40.479477 -24.348251 1.844359  -0.976813 0.004337 -0.214049  0.906278 0.625965 1 1 1.000000
0  -40.451946 -34.106823 1.624137  -0.975143 0.006565 -0.221481  0.907254 0.665029 1 1 1.000000
0  -40.479477 -34.093060 1.720484  -0.979457 0.009459 -0.201431  0.907254 0.665029 1 1 1.000000
skin_0
0  -41.016273 43.782803 3.303327  -0.986087 -0.025868 -0.164205  0.897488 0.358379 1 1 1.000000
0  -40.851109 36.460430 3.110633  -0.971469 -0.020903 -0.236244  0.898465 0.386700 1 1 1.000000
0  -40.864872 36.460430 3.206980  -0.990847 -0.013091 -0.134354  0.898465 0.386700 1 1 1.000000
skin_0
0  -40.864872 36.460430 3.206980  -0.990847 -0.013091 -0.134354  0.898465 0.386700 1 1 1.000000
0  -41.030037 43.755268 3.399674  -0.991394 -0.026539 -0.128197  0.896512 0.358379 1 1 1.000000
0  -41.016273 43.782803 3.303327  -0.986087 -0.025868 -0.164205  0.897488 0.358379 1 1 1.000000
skin_0
0  -41.030037 43.755268 3.399674  -0.991394 -0.026539 -0.128197  0.896512 0.358379 1 1 1.000000
0  -40.864872 36.460430 3.206980  -0.990847 -0.013091 -0.134354  0.898465 0.386700 1 1 1.000000
0  -40.919926 36.460430 3.908936  -0.995585 -0.019288 0.091863  0.893582 0.386700 1 1 1.000000
skin_0
0  -40.837341 27.789207 3.743770  -0.991545 -0.009431 0.129421  0.894559 0.420881 1 1 1.000000
0  -40.919926 36.460430 3.908936  -0.995585 -0.019288 0.091863  0.893582 0.386700 1 1 1.000000
0  -40.864872 36.460430 3.206980  -0.990847 -0.013091 -0.134354  0.898465 0.386700 1 1 1.000000
skin_0
0  -40.864872 36.460430 3.206980  -0.990847 -0.013091 -0.134354  0.898465 0.386700 1 1 1.000000
0  -40.782280 27.789207 3.055578  -0.984959 -0.004208 -0.172736  0.898465 0.420881 1 1 1.000000
0  -40.837341 27.789207 3.743770  -0.991545 -0.009431 0.129421  0.894559 0.420881 1 1 1.000000
skin_0
0  -40.809814 20.136507 3.592367  -0.992823 -0.006679 0.119407  0.895535 0.451155 1 1 1.000000
0  -40.837341 27.789207 3.743770  -0.991545 -0.009431 0.129421  0.894559 0.420881 1 1 1.000000
0  -40.782280 27.789207 3.055578  -0.984959 -0.004208 -0.172736  0.898465 0.420881 1 1 1.000000
skin_0
0  -40.782280 27.789207 3.055578  -0.984959 -0.004208 -0.172736  0.898465 0.420881 1 1 1.000000
0  -40.740990 20.136507 2.890411  -0.979686 -0.000632 -0.200538  0.899442 0.451155 1 1 1.000000
0  -40.809814 20.136507 3.592367  -0.992823 -0.006679 0.119407  0.895535 0.451155 1 1 1.000000
skin_0
0  -40.768517 11.561629 3.427201  -0.992516 -0.006440 0.121947  0.896512 0.485336 1 1 1.000000
0  -40.809814 20.136507 3.592367  -0.992823 -0.006679 0.119407  0.895535 0.451155 1 1 1.000000
0  -40.740990 20.136507 2.890411  -0.979686 -0.000632 -0.200538  0.899442 0.451155 1 1 1.000000
skin_0
0  -40.740990 20.136507 2.890411  -0.979686 -0.000632 -0.200538  0.899442 0.451155 1 1 1.000000
0  -40.699699 11.561629 2.697717  -0.979308 -0.000213 -0.202374  0.901395 0.485336 1 1 1.000000
0  -40.768517 11.561629 3.427201  -0.992516 -0.006440 0.121947  0.896512 0.485336 1 1 1.000000
skin_0
0  -40.740990 4.335609 3.262035  -0.997180 -0.006165 0.074797  0.897488 0.513657 1 1 1.000000
0  -40.768517 11.561629 3.427201  -0.992516 -0.006440 0.121947  0.896512 0.485336 1 1 1.000000
0  -40.699699 11.561629 2.697717  -0.979308 -0.000213 -0.202374  0.901395 0.485336 1 1 1.000000
skin_0
0  -40.699699 11.561629 2.697717  -0.979308 -0.000213 -0.202374  0.901395 0.485336 1 1 1.000000
0  -40.658405 4.335609 2.532551  -0.981407 -0.000732 -0.191935  0.902371 0.513657 1 1 1.000000
0  -40.740990 4.335609 3.262035  -0.997180 -0.006165 0.074797  0.897488 0.513657 1 1 1.000000
skin_0
0  -40.685936 -5.161446 3.069341  -0.998675 -0.005159 0.051199  0.898465 0.550768 1 1 1.000000
0  -40.740990 4.335609 3.262035  -0.997180 -0.006165 0.074797  0.897488 0.513657 1 1 1.000000
0  -40.658405 4.335609 2.532551  -0.981407 -0.000732 -0.191935  0.902371 0.513657 1 1 1.000000
skin_0
0  -40.658405 4.335609 2.532551  -0.981407 -0.000732 -0.191935  0.902371 0.513657 1 1 1.000000
0  -40.589588 -5.147682 2.298566  -0.982387 -0.000370 -0.186856  0.903348 0.550768 1 1 1.000000
0  -40.685936 -5.161446 3.069341  -0.998675 -0.005159 0.051199  0.898465 0.550768 1 1 1.000000
skin_0
0  -40.658405 -15.222819 2.876647  -0.994823 -0.005599 0.101466  0.899442 0.590808 1 1 1.000000
0  -40.685936 -5.161446 3.069341  -0.998675 -0.005159 0.051199  0.898465 0.550768 1 1 1.000000
0  -40.589588 -5.147682 2.298566  -0.982387 -0.000370 -0.186856  0.903348 0.550768 1 1 1.000000
skin_0
0  -40.589588 -5.147682 2.298566  -0.982387 -0.000370 -0.186856  0.903348 0.550768 1 1 1.000000
0  -40.548298 -15.222819 2.092108  -0.983481 -0.000428 -0.181008  0.904324 0.590808 1 1 1.000000
0  -40.658405 -15.222819 2.876647  -0.994823 -0.005599 0.101466  0.899442 0.590808 1 1 1.000000
skin_0
0  -40.630875 -24.362017 2.683954  -0.995155 -0.004883 0.098193  0.901395 0.625965 1 1 1.000000
0  -40.658405 -15.222819 2.876647  -0.994823 -0.005599 0.101466  0.899442 0.590808 1 1 1.000000
0  -40.548298 -15.222819 2.092108  -0.983481 -0.000428 -0.181008  0.904324 0.590808 1 1 1.000000
skin_0
0  -40.548298 -15.222819 2.092108  -0.983481 -0.000428 -0.181008  0.904324 0.590808 1 1 1.000000
0  -40.507004 -24.348251 1.926942  -0.983314 0.000124 -0.181917  0.905301 0.625965 1 1 1.000000
0  -40.630875 -24.362017 2.683954  -0.995155 -0.004883 0.098193  0.901395 0.625965 1 1 1.000000
skin_0
0  -40.603348 -33.404865 2.505023  -0.996593 0.004548 0.082351  0.902371 0.662099 1 1 1.000000
0  -40.630875 -24.362017 2.683954  -0.995155 -0.004883 0.098193  0.901395 0.625965 1 1 1.000000
0  -40.507004 -24.348251 1.926942  -0.983314 0.000124 -0.181917  0.905301 0.625965 1 1 1.000000
skin_0
0  -40.507004 -24.348251 1.926942  -0.983314 0.000124 -0.181917  0.905301 0.625965 1 1 1.000000
0  -40.479477 -34.093060 1.720484  -0.979457 0.009459 -0.201431  0.907254 0.665029 1 1 1.000000
0  -40.603348 -33.404865 2.505023  -0.996593 0.004548 0.082351  0.902371 0.662099 1 1 1.000000
skin_0
0  -40.658401 -35.978706 2.491260  -0.931646 -0.353246 0.085171  0.902371 0.671865 1 1 1.000000
0  -40.603348 -33.404865 2.505023  -0.996593 0.004548 0.082351  0.902371 0.662099 1 1 1.000000
0  -40.479477 -34.093060 1.720484  -0.979457 0.009459 -0.201431  0.907254 0.665029 1 1 1.000000
skin_0
0  -40.479477 -34.093060 1.720484  -0.979457 0.009459 -0.201431  0.907254 0.665029 1 1 1.000000
0  -40.507004 -36.075050 1.748012  -0.925025 -0.353661 -0.138754  0.906278 0.672842 1 1 1.000000
0  -40.658401 -35.978706 2.491260  -0.931646 -0.353246 0.085171  0.902371 0.671865 1 1 1.000000
skin_0
0  -40.451946 -34.106823 1.624137  -0.975143 0.006565 -0.221481  0.907254 0.665029 1 1 1.000000
0  -40.507004 -36.075050 1.748012  -0.925025 -0.353661 -0.138754  0.906278 0.672842 1 1 1.000000
0  -40.479477 -34.093060 1.720484  -0.979457 0.009459 -0.201431  0.907254 0.665029 1 1 1.000000
skin_0
0  -40.507004 -36.075050 1.748012  -0.925025 -0.353661 -0.138754  0.906278 0.672842 1 1 1.000000
0  -40.451946 -34.106823 1.624137  -0.975143 0.006565 -0.221481  0.907254 0.665029 1 1 1.000000
0  -40.039032 -34.478443 -0.178927  -0.809928 0.001770 -0.586527  0.917997 0.666005 1 1 1.000000
skin_0
0  -40.039032 -34.478443 -0.178927  -0.809928 0.001770 -0.586527  0.917997 0.666005 1 1 1.000000
0  -40.025269 -36.501732 -0.192691  -0.785207 -0.354268 -0.507882  0.917997 0.673818 1 1 1.000000
0  -40.507004 -36.075050 1.748012  -0.925025 -0.353661 -0.138754  0.906278 0.672842 1 1 1.000000
skin_0
0  -40.355602 -36.253979 1.816831  -0.444061 -0.892564 0.078352  0.906278 0.672842 1 1 1.000000
0  -40.507004 -36.075050 1.748012  -0.925025 -0.353661 -0.138754  0.906278 0.672842 1 1 1.000000
0  -40.025269 -36.501732 -0.192691  -0.785207 -0.354268 -0.507882  0.917997 0.673818 1 1 1.000000
skin_0
0  -40.025269 -36.501732 -0.192691  -0.785207 -0.354268 -0.507882  0.917997 0.673818 1 1 1.000000
0  -39.942684 -36.625607 -0.110108  -0.442121 -0.885341 -0.143873  0.917997 0.674795 1 1 1.000000
0  -40.355602 -36.253979 1.816831  -0.444061 -0.892564 0.078352  0.906278 0.672842 1 1 1.000000
skin_0
0  -40.507004 -36.075050 1.748012  -0.925025 -0.353661 -0.138754  0.906278 0.672842 1 1 1.000000
0  -40.355602 -36.253979 1.816831  -0.444061 -0.892564 0.078352  0.906278 0.672842 1 1 1.000000
0  -40.507004 -36.116341 2.477496  -0.429292 -0.900379 0.070896  0.902371 0.672842 1 1 1.000000
skin_0
0  -40.507004 -36.116341 2.477496  -0.429292 -0.900379 0.070896  0.902371 0.672842 1 1 1.000000
0  -40.658401 -35.978706 2.491260  -0.931646 -0.353246 0.085171  0.902371 0.671865 1 1 1.000000
0  -40.507004 -36.075050 1.748012  -0.925025 -0.353661 -0.138754  0.906278 0.672842 1 1 1.000000
skin_0
0  -40.658401 -35.978706 2.491260  -0.931646 -0.353246 0.085171  0.902371 0.671865 1 1 1.000000
0  -40.507004 -36.116341 2.477496  -0.429292 -0.900379 0.070896  0.902371 0.672842 1 1 1.000000
0  -40.493240 -36.116341 2.628898  -0.381130 -0.915534 0.128599  0.901395 0.672842 1 1 1.000000
skin_0
0  -40.493240 -36.116341 2.628898  -0.381130 -0.915534 0.128599  0.901395 0.672842 1 1 1.000000
0  -40.603348 -35.951180 2.628898  -0.894768 -0.262047 0.361555  0.901395 0.671865 1 1 1.000000
0  -40.658401 -35.978706 2.491260  -0.931646 -0.353246 0.085171  0.902371 0.671865 1 1 1.000000
skin_0
0  -40.603348 -33.404865 2.505023  -0.996593 0.004548 0.082351  0.902371 0.662099 1 1 1.000000
0  -40.658401 -35.978706 2.491260  -0.931646 -0.353246 0.085171  0.902371 0.671865 1 1 1.000000
0  -40.603348 -35.951180 2.628898  -0.894768 -0.262047 0.361555  0.901395 0.671865 1 1 1.000000
skin_0
0  -40.603348 -35.951180 2.628898  -0.894768 -0.262047 0.361555  0.901395 0.671865 1 1 1.000000
0  -40.562057 -33.404865 2.642662  -0.941941 0.002989 0.335764  0.901395 0.662099 1 1 1.000000
0  -40.603348 -33.404865 2.505023  -0.996593 0.004548 0.082351  0.902371 0.662099 1 1 1.000000
skin_0
0  -40.630875 -24.362017 2.683954  -0.995155 -0.004883 0.098193  0.901395 0.625965 1 1 1.000000
0  -40.603348 -33.404865 2.505023  -0.996593 0.004548 0.082351  0.902371 0.662099 1 1 1.000000
0  -40.562057 -33.404865 2.642662  -0.941941 0.002989 0.335764  0.901395 0.662099 1 1 1.000000
skin_0
0  -40.562057 -33.404865 2.642662  -0.941941 0.002989 0.335764  0.901395 0.662099 1 1 1.000000
0  -40.575821 -24.362017 2.821592  -0.936331 -0.009338 0.350994  0.900418 0.625965 1 1 1.000000
0  -40.630875 -24.362017 2.683954  -0.995155 -0.004883 0.098193  0.901395 0.625965 1 1 1.000000
skin_0
0  -40.658405 -15.222819 2.876647  -0.994823 -0.005599 0.101466  0.899442 0.590808 1 1 1.000000
0  -40.630875 -24.362017 2.683954  -0.995155 -0.004883 0.098193  0.901395 0.625965 1 1 1.000000
0  -40.575821 -24.362017 2.821592  -0.936331 -0.009338 0.350994  0.900418 0.625965 1 1 1.000000
skin_0
0  -40.575821 -24.362017 2.821592  -0.936331 -0.009338 0.350994  0.900418 0.625965 1 1 1.000000
0  -40.603352 -15.222819 3.014286  -0.942068 -0.009768 0.335280  0.899442 0.590808 1 1 1.000000
0  -40.658405 -15.222819 2.876647  -0.994823 -0.005599 0.101466  0.899442 0.590808 1 1 1.000000
skin_0
0  -40.685936 -5.161446 3.069341  -0.998675 -0.005159 0.051199  0.898465 0.550768 1 1 1.000000
0  -40.658405 -15.222819 2.876647  -0.994823 -0.005599 0.101466  0.899442 0.590808 1 1 1.000000
0  -40.603352 -15.222819 3.014286  -0.942068 -0.009768 0.335280  0.899442 0.590808 1 1 1.000000
skin_0
0  -40.603352 -15.222819 3.014286  -0.942068 -0.009768 0.335280  0.899442 0.590808 1 1 1.000000
0  -40.644642 -5.161446 3.220743  -0.974744 -0.008579 0.223161  0.897488 0.550768 1 1 1.000000
0  -40.685936 -5.161446 3.069341  -0.998675 -0.005159 0.051199  0.898465 0.550768 1 1 1.000000
skin_0
0  -40.740990 4.335609 3.262035  -0.997180 -0.006165 0.074797  0.897488 0.513657 1 1 1.000000
0  -40.685936 -5.161446 3.069341  -0.998675 -0.005159 0.051199  0.898465 0.550768 1 1 1.000000
0  -40.644642 -5.161446 3.220743  -0.974744 -0.008579 0.223161  0.897488 0.550768 1 1 1.000000
skin_0
0  -40.644642 -5.161446 3.220743  -0.974744 -0.008579 0.223161  0.897488 0.550768 1 1 1.000000
0  -40.685936 4.335609 3.427201  -0.967554 -0.009583 0.252483  0.896512 0.513657 1 1 1.000000
0  -40.740990 4.335609 3.262035  -0.997180 -0.006165 0.074797  0.897488 0.513657 1 1 1.000000
skin_0
0  -40.768517 11.561629 3.427201  -0.992516 -0.006440 0.121947  0.896512 0.485336 1 1 1.000000
0  -40.740990 4.335609 3.262035  -0.997180 -0.006165 0.074797  0.897488 0.513657 1 1 1.000000
0  -40.685936 4.335609 3.427201  -0.967554 -0.009583 0.252483  0.896512 0.513657 1 1 1.000000
skin_0
0  -40.685936 4.335609 3.427201  -0.967554 -0.009583 0.252483  0.896512 0.513657 1 1 1.000000
0  -40.713463 11.561629 3.592367  -0.941006 -0.010071 0.338240  0.895535 0.485336 1 1 1.000000
0  -40.768517 11.561629 3.427201  -0.992516 -0.006440 0.121947  0.896512 0.485336 1 1 1.000000
skin_0
0  -40.809814 20.136507 3.592367  -0.992823 -0.006679 0.119407  0.895535 0.451155 1 1 1.000000
0  -40.768517 11.561629 3.427201  -0.992516 -0.006440 0.121947  0.896512 0.485336 1 1 1.000000
0  -40.713463 11.561629 3.592367  -0.941006 -0.010071 0.338240  0.895535 0.485336 1 1 1.000000
skin_0
0  -40.713463 11.561629 3.592367  -0.941006 -0.010071 0.338240  0.895535 0.485336 1 1 1.000000
0  -40.727226 20.136507 3.785062  -0.943132 -0.010224 0.332262  0.894559 0.451155 1 1 1.000000
0  -40.809814 20.136507 3.592367  -0.992823 -0.006679 0.119407  0.895535 0.451155 1 1 1.000000
skin_0
0  -38.690178 20.136507 -0.371621  0.629461 0.025407 -0.776616  0.918973 0.451155 1 1 1.000000
0  -38.800289 11.561629 -0.357857  0.726336 -0.039850 -0.686183  0.918973 0.485336 1 1 1.000000
0  -39.061802 11.561629 -0.247746  -0.678321 0.011261 -0.734679  0.917997 0.485336 1 1 1.000000
skin_0
0  -39.323315 4.335609 -0.220219  -0.721577 0.018930 -0.692075  0.917997 0.513657 1 1 1.000000
0  -39.061802 11.561629 -0.247746  -0.678321 0.011261 -0.734679  0.917997 0.485336 1 1 1.000000
0  -38.800289 11.561629 -0.357857  0.726336 -0.039850 -0.686183  0.918973 0.485336 1 1 1.000000
skin_0
0  -38.800289 11.561629 -0.357857  0.726336 -0.039850 -0.686183  0.918973 0.485336 1 1 1.000000
0  -39.089329 4.335609 -0.344093  0.326460 0.010118 -0.945157  0.918973 0.513657 1 1 1.000000
0  -39.323315 4.335609 -0.220219  -0.721577 0.018930 -0.692075  0.917997 0.513657 1 1 1.000000
skin_0
0  -39.626122 -5.202737 -0.192691  -0.751481 0.015121 -0.659581  0.917997 0.550768 1 1 1.000000
0  -39.323315 4.335609 -0.220219  -0.721577 0.018930 -0.692075  0.917997 0.513657 1 1 1.000000
0  -39.089329 4.335609 -0.344093  0.326460 0.010118 -0.945157  0.918973 0.513657 1 1 1.000000
skin_0
0  -39.089329 4.335609 -0.344093  0.326460 0.010118 -0.945157  0.918973 0.513657 1 1 1.000000
0  -39.392136 -5.202737 -0.316566  0.073250 -0.007176 -0.997288  0.918973 0.550768 1 1 1.000000
0  -39.626122 -5.202737 -0.192691  -0.751481 0.015121 -0.659581  0.917997 0.550768 1 1 1.000000
skin_0
0  -39.860104 -15.277876 -0.165163  -0.777812 0.011348 -0.628395  0.917997 0.590808 1 1 1.000000
0  -39.626122 -5.202737 -0.192691  -0.751481 0.015121 -0.659581  0.917997 0.550768 1 1 1.000000
0  -39.392136 -5.202737 -0.316566  0.073250 -0.007176 -0.997288  0.918973 0.550768 1 1 1.000000
skin_0
0  -39.392136 -5.202737 -0.316566  0.073250 -0.007176 -0.997288  0.918973 0.550768 1 1 1.000000
0  -39.653648 -15.291639 -0.275274  0.073632 -0.003139 -0.997281  0.918973 0.590808 1 1 1.000000
0  -39.860104 -15.277876 -0.165163  -0.777812 0.011348 -0.628395  0.917997 0.590808 1 1 1.000000
skin_0
0  -40.039036 -24.183084 -0.137635  -0.802654 0.008888 -0.596379  0.917997 0.625965 1 1 1.000000
0  -39.860104 -15.277876 -0.165163  -0.777812 0.011348 -0.628395  0.917997 0.590808 1 1 1.000000
0  -39.653648 -15.291639 -0.275274  0.073632 -0.003139 -0.997281  0.918973 0.590808 1 1 1.000000
skin_0
0  -39.653648 -15.291639 -0.275274  0.073632 -0.003139 -0.997281  0.918973 0.590808 1 1 1.000000
0  -39.818813 -24.183084 -0.261510  -0.016579 0.003189 -0.999857  0.918973 0.625965 1 1 1.000000
0  -40.039036 -24.183084 -0.137635  -0.802654 0.008888 -0.596379  0.917997 0.625965 1 1 1.000000
skin_0
0  -40.039032 -34.478443 -0.178927  -0.809928 0.001770 -0.586527  0.917997 0.666005 1 1 1.000000
0  -40.039036 -24.183084 -0.137635  -0.802654 0.008888 -0.596379  0.917997 0.625965 1 1 1.000000
0  -39.818813 -24.183084 -0.261510  -0.016579 0.003189 -0.999857  0.918973 0.625965 1 1 1.000000
skin_0
0  -39.818813 -24.183084 -0.261510  -0.016579 0.003189 -0.999857  0.918973 0.625965 1 1 1.000000
0  -39.846336 -34.492207 -0.302802  -0.021805 0.001897 -0.999760  0.918973 0.666005 1 1 1.000000
0  -40.039032 -34.478443 -0.178927  -0.809928 0.001770 -0.586527  0.917997 0.666005 1 1 1.000000
skin_0
0  -40.025269 -36.501732 -0.192691  -0.785207 -0.354268 -0.507882  0.917997 0.673818 1 1 1.000000
0  -40.039032 -34.478443 -0.178927  -0.809928 0.001770 -0.586527  0.917997 0.666005 1 1 1.000000
0  -39.846336 -34.492207 -0.302802  -0.021805 0.001897 -0.999760  0.918973 0.666005 1 1 1.000000
skin_0
0  -39.846336 -34.492207 -0.302802  -0.021805 0.001897 -0.999760  0.918973 0.666005 1 1 1.000000
0  -39.846336 -36.543022 -0.302802  0.041906 -0.450063 -0.892013  0.918973 0.673818 1 1 1.000000
0  -40.025269 -36.501732 -0.192691  -0.785207 -0.354268 -0.507882  0.917997 0.673818 1 1 1.000000
skin_0
0  -39.942684 -36.625607 -0.110108  -0.442121 -0.885341 -0.143873  0.917997 0.674795 1 1 1.000000
0  -40.025269 -36.501732 -0.192691  -0.785207 -0.354268 -0.507882  0.917997 0.673818 1 1 1.000000
0  -39.846336 -36.543022 -0.302802  0.041906 -0.450063 -0.892013  0.918973 0.673818 1 1 1.000000
skin_0
0  -39.846336 -36.543022 -0.302802  0.041906 -0.450063 -0.892013  0.918973 0.673818 1 1 1.000000
0  -39.805046 -36.639370 -0.165163  0.161301 -0.920377 -0.356214  0.917997 0.674795 1 1 1.000000
0  -39.942684 -36.625607 -0.110108  -0.442121 -0.885341 -0.143873  0.917997 0.674795 1 1 1.000000
skin_0
0  -40.974979 46.053829 4.308087  -0.091585 0.134180 0.986716  0.891629 0.349590 1 1 1.000000
0  -41.167675 45.902431 4.308088  -0.087515 0.023746 0.995880  0.891629 0.349590 1 1 1.000000
0  -38.814056 45.998775 4.514545  -0.086926 -0.014234 0.996113  0.890652 0.349590 1 1 1.000000
skin_0
0  -41.057564 43.645157 4.280560  -0.083992 -0.021007 0.996245  0.891629 0.358379 1 1 1.000000
0  -38.814056 45.998775 4.514545  -0.086926 -0.014234 0.996113  0.890652 0.349590 1 1 1.000000
0  -41.167675 45.902431 4.308088  -0.087515 0.023746 0.995880  0.891629 0.349590 1 1 1.000000
skin_0
0  -38.814056 45.998775 4.514545  -0.086926 -0.014234 0.996113  0.890652 0.349590 1 1 1.000000
0  -41.057564 43.645157 4.280560  -0.083992 -0.021007 0.996245  0.891629 0.358379 1 1 1.000000
0  -40.851109 36.460430 4.142921  -0.079082 -0.022646 0.996611  0.892605 0.386700 1 1 1.000000
skin_0
0  -38.814056 45.998775 4.514545  -0.086926 -0.014234 0.996113  0.890652 0.349590 1 1 1.000000
0  -40.851109 36.460430 4.142921  -0.079082 -0.022646 0.996611  0.892605 0.386700 1 1 1.000000
0  -40.768517 27.789207 3.950228  -0.117038 -0.018833 0.992949  0.893582 0.420881 1 1 1.000000
skin_0
0  -40.768517 27.789207 3.950228  -0.116816 -0.018807 0.992975  0.893582 0.420881 1 1 1.000000
0  -38.827816 19.407022 4.019047  -0.130778 -0.021761 0.991173  0.893582 0.454085 1 1 1.000000
0  -38.814056 45.998775 4.514545  -0.086936 -0.014234 0.996112  0.890652 0.349590 1 1 1.000000
skin_0
0  -40.768517 27.789207 3.950228  -0.116816 -0.018807 0.992975  0.893582 0.420881 1 1 1.000000
0  -40.727226 20.136507 3.785062  -0.130199 -0.021888 0.991246  0.894559 0.451155 1 1 1.000000
0  -38.827816 19.407022 4.019047  -0.130778 -0.021761 0.991173  0.893582 0.454085 1 1 1.000000
skin_0
0  -38.827816 19.407022 4.019047  -0.130778 -0.021761 0.991173  0.893582 0.454085 1 1 1.000000
0  -40.727226 20.136507 3.785062  -0.130199 -0.021888 0.991246  0.894559 0.451155 1 1 1.000000
0  -40.713463 11.561629 3.592367  -0.147349 -0.018870 0.988904  0.895535 0.485336 1 1 1.000000
skin_0
0  -38.814053 -9.510822 3.482256  -0.185964 -0.021421 0.982323  0.896512 0.568346 1 1 1.000000
0  -38.827816 19.407022 4.019047  -0.130778 -0.021761 0.991173  0.893582 0.454085 1 1 1.000000
0  -40.713463 11.561629 3.592367  -0.147349 -0.018870 0.988904  0.895535 0.485336 1 1 1.000000
skin_0
0  -40.713463 11.561629 3.592367  -0.147349 -0.018870 0.988904  0.895535 0.485336 1 1 1.000000
0  -40.685936 4.335609 3.427201  -0.198108 -0.023127 0.979907  0.896512 0.513657 1 1 1.000000
0  -38.814053 -9.510822 3.482256  -0.185964 -0.021421 0.982323  0.896512 0.568346 1 1 1.000000
skin_0
0  -40.685936 4.335609 3.427201  -0.198108 -0.023127 0.979907  0.896512 0.513657 1 1 1.000000
0  -40.644642 -5.161446 3.220743  -0.186660 -0.021641 0.982186  0.897488 0.550768 1 1 1.000000
0  -38.814053 -9.510822 3.482256  -0.185964 -0.021421 0.982323  0.896512 0.568346 1 1 1.000000
skin_0
0  -40.644642 -5.161446 3.220743  -0.186660 -0.021641 0.982186  0.897488 0.550768 1 1 1.000000
0  -40.603352 -15.222819 3.014286  -0.191605 -0.020303 0.981262  0.899442 0.590808 1 1 1.000000
0  -38.814053 -9.510822 3.482256  -0.185964 -0.021421 0.982323  0.896512 0.568346 1 1 1.000000
skin_0
0  -39.667408 -33.459919 2.821592  -0.194265 -0.029272 0.980512  0.900418 0.662099 1 1 1.000000
0  -38.814053 -9.510822 3.482256  -0.185964 -0.021421 0.982323  0.896512 0.568346 1 1 1.000000
0  -40.603352 -15.222819 3.014286  -0.191605 -0.020303 0.981262  0.899442 0.590808 1 1 1.000000
skin_0
0  -40.603352 -15.222819 3.014286  -0.191605 -0.020303 0.981262  0.899442 0.590808 1 1 1.000000
0  -40.575821 -24.362017 2.821592  -0.216279 -0.021301 0.976099  0.900418 0.625965 1 1 1.000000
0  -39.667408 -33.459919 2.821592  -0.194265 -0.029272 0.980512  0.900418 0.662099 1 1 1.000000
skin_0
0  -39.667408 -33.459919 2.821592  -0.194265 -0.029272 0.980512  0.900418 0.662099 1 1 1.000000
0  -40.575821 -24.362017 2.821592  -0.216279 -0.021301 0.976099  0.900418 0.625965 1 1 1.000000
0  -40.562057 -33.404865 2.642662  -0.183269 -0.025641 0.982728  0.901395 0.662099 1 1 1.000000
skin_0
0  -40.562057 -33.404865 2.642662  -0.183269 -0.025641 0.982728  0.901395 0.662099 1 1 1.000000
0  -39.749989 -36.130104 2.697717  -0.107671 -0.024279 0.993890  0.901395 0.672842 1 1 1.000000
0  -39.667408 -33.459919 2.821592  -0.194265 -0.029272 0.980512  0.900418 0.662099 1 1 1.000000
skin_0
0  -39.749989 -36.130104 2.697717  -0.107671 -0.024279 0.993890  0.901395 0.672842 1 1 1.000000
0  -40.562057 -33.404865 2.642662  -0.183269 -0.025641 0.982728  0.901395 0.662099 1 1 1.000000
0  -40.603348 -35.951180 2.628898  -0.088318 -0.035444 0.995462  0.901395 0.671865 1 1 1.000000
skin_0
0  -40.603348 -35.951180 2.628898  -0.088318 -0.035444 0.995462  0.901395 0.671865 1 1 1.000000
0  -40.493240 -36.116341 2.628898  -0.103148 -0.106133 0.988988  0.901395 0.672842 1 1 1.000000
0  -39.749989 -36.130104 2.697717  -0.107671 -0.024279 0.993890  0.901395 0.672842 1 1 1.000000
skin_0
0  39.749996 -36.130096 2.697711  0.107705 -0.024275 0.993886  0.098636 0.672842 1 1 1.000000
0  40.493248 -36.116333 2.628892  0.103154 -0.106137 0.988986  0.097659 0.672842 1 1 1.000000
0  40.603355 -35.951172 2.628892  0.088327 -0.035493 0.995459  0.098636 0.671865 1 1 1.000000
skin_0
0  40.603355 -35.951172 2.628892  0.088327 -0.035493 0.995459  0.098636 0.671865 1 1 1.000000
0  40.562065 -33.404858 2.642656  0.182899 -0.025576 0.982799  0.098636 0.662099 1 1 1.000000
0  39.749996 -36.130096 2.697711  0.107705 -0.024275 0.993886  0.098636 0.672842 1 1 1.000000
skin_0
0  39.667416 -33.459911 2.821586  0.194265 -0.029272 0.980512  0.099612 0.662099 1 1 1.000000
0  39.749996 -36.130096 2.697711  0.107703 -0.024274 0.993887  0.098636 0.672842 1 1 1.000000
0  40.562065 -33.404858 2.642656  0.183172 -0.025638 0.982746  0.098636 0.662099 1 1 1.000000
skin_0
0  40.562065 -33.404858 2.642656  0.183172 -0.025638 0.982746  0.098636 0.662099 1 1 1.000000
0  40.575829 -24.362009 2.821586  0.216231 -0.021300 0.976110  0.099612 0.625965 1 1 1.000000
0  39.667416 -33.459911 2.821586  0.194265 -0.029272 0.980512  0.099612 0.662099 1 1 1.000000
skin_0
0  39.667416 -33.459911 2.821586  0.194265 -0.029272 0.980512  0.099612 0.662099 1 1 1.000000
0  40.575829 -24.362009 2.821586  0.216231 -0.021300 0.976110  0.099612 0.625965 1 1 1.000000
0  40.603352 -15.222814 3.014280  0.191040 -0.020296 0.981372  0.100589 0.590808 1 1 1.000000
skin_0
0  40.603352 -15.222814 3.014280  0.191040 -0.020296 0.981372  0.100589 0.590808 1 1 1.000000
0  38.814053 -9.510817 3.482251  0.186064 -0.021404 0.982304  0.103519 0.568346 1 1 1.000000
0  39.667416 -33.459911 2.821586  0.194265 -0.029272 0.980512  0.099612 0.662099 1 1 1.000000
skin_0
0  40.603352 -15.222814 3.014280  0.191040 -0.020296 0.981372  0.100589 0.590808 1 1 1.000000
0  40.644642 -5.161440 3.220737  0.186706 -0.021636 0.982177  0.101566 0.550768 1 1 1.000000
0  38.814053 -9.510817 3.482251  0.186064 -0.021404 0.982304  0.103519 0.568346 1 1 1.000000
skin_0
0  40.644642 -5.161440 3.220737  0.186706 -0.021636 0.982177  0.101566 0.550768 1 1 1.000000
0  40.658405 4.335615 3.427195  0.197544 -0.023133 0.980021  0.102542 0.513657 1 1 1.000000
0  38.814053 -9.510817 3.482251  0.186064 -0.021404 0.982304  0.103519 0.568346 1 1 1.000000
skin_0
0  38.814053 -9.510817 3.482251  0.186064 -0.021404 0.982304  0.103519 0.568346 1 1 1.000000
0  40.658405 4.335615 3.427195  0.197544 -0.023133 0.980021  0.102542 0.513657 1 1 1.000000
0  40.685936 11.561635 3.592361  0.146568 -0.018987 0.989018  0.103519 0.485336 1 1 1.000000
skin_0
0  40.685936 11.561635 3.592361  0.146568 -0.018987 0.989018  0.103519 0.485336 1 1 1.000000
0  38.800289 19.407030 4.019041  0.130817 -0.021751 0.991168  0.106449 0.454085 1 1 1.000000
0  38.814053 -9.510817 3.482251  0.186064 -0.021404 0.982304  0.103519 0.568346 1 1 1.000000
skin_0
0  40.699699 20.136515 3.785055  0.130199 -0.021889 0.991246  0.105472 0.451155 1 1 1.000000
0  38.800289 19.407030 4.019041  0.130817 -0.021751 0.991168  0.106449 0.454085 1 1 1.000000
0  40.685936 11.561635 3.592361  0.146568 -0.018987 0.989018  0.103519 0.485336 1 1 1.000000
skin_0
0  40.699699 20.136515 3.785055  0.130199 -0.021889 0.991246  0.105472 0.451155 1 1 1.000000
0  40.740990 27.789215 3.950222  0.116579 -0.018840 0.993003  0.106449 0.420881 1 1 1.000000
0  38.800289 19.407030 4.019041  0.130817 -0.021751 0.991168  0.106449 0.454085 1 1 1.000000
skin_0
0  38.786522 45.998783 4.514539  0.086906 -0.014145 0.996116  0.109378 0.349590 1 1 1.000000
0  38.800289 19.407030 4.019041  0.130817 -0.021751 0.991168  0.106449 0.454085 1 1 1.000000
0  40.740990 27.789215 3.950222  0.116579 -0.018840 0.993003  0.106449 0.420881 1 1 1.000000
skin_0
0  40.740990 27.789215 3.950222  0.116579 -0.018840 0.993003  0.106449 0.420881 1 1 1.000000
0  40.823574 36.460438 4.142915  0.079130 -0.022644 0.996607  0.107425 0.386700 1 1 1.000000
0  38.786522 45.998783 4.514539  0.086906 -0.014145 0.996116  0.109378 0.349590 1 1 1.000000
skin_0
0  41.030029 43.645164 4.280554  0.083993 -0.021007 0.996245  0.108402 0.358379 1 1 1.000000
0  38.786522 45.998783 4.514539  0.086906 -0.014145 0.996116  0.109378 0.349590 1 1 1.000000
0  40.823574 36.460438 4.142915  0.079130 -0.022644 0.996607  0.107425 0.386700 1 1 1.000000
skin_0
0  38.786522 45.998783 4.514539  0.086906 -0.014145 0.996116  0.109378 0.349590 1 1 1.000000
0  41.030029 43.645164 4.280554  0.083993 -0.021007 0.996245  0.108402 0.358379 1 1 1.000000
0  41.140141 45.902439 4.308081  0.087481 0.023678 0.995885  0.108402 0.349590 1 1 1.000000
skin_0
0  41.140141 45.902439 4.308081  0.087481 0.023678 0.995885  0.108402 0.349590 1 1 1.000000
0  40.947445 46.053837 4.308082  0.091524 0.134175 0.986722  0.108402 0.349590 1 1 1.000000
0  38.786522 45.998783 4.514539  0.086906 -0.014145 0.996116  0.109378 0.349590 1 1 1.000000
black
0  39.749996 -36.130096 2.697711  0.076522 -0.983267 0.165320  0.335948 0.079073 1 1 1.000000
0  40.507011 -36.116333 2.477490  0.429290 -0.900380 0.070900  0.009766 -0.000031 1 1 1.000000
0  40.493248 -36.116333 2.628892  0.381131 -0.915532 0.128606  0.990265 0.079073 1 1 1.000000
black
0  -40.355602 -36.253979 1.816831  -0.444061 -0.892564 0.078352  0.923856 0.676748 1 1 1.000000
0  -39.749989 -36.130104 2.697717  -0.076520 -0.983273 0.165285  0.463881 0.675771 1 1 1.000000
0  -40.507004 -36.116341 2.477496  -0.429292 -0.900379 0.070896  0.463881 0.675771 1 1 1.000000
black
0  -39.199436 -36.598076 0.481738  0.350322 -0.906895 -0.234129  0.930692 0.676748 1 1 1.000000
0  -39.749989 -36.130104 2.697717  -0.076521 -0.983274 0.165278  0.463881 0.675771 1 1 1.000000
0  -40.355602 -36.253979 1.816831  -0.444061 -0.892564 0.078352  0.923856 0.676748 1 1 1.000000
black
0  -40.355602 -36.253979 1.816831  -0.444061 -0.892564 0.078352  0.923856 0.676748 1 1 1.000000
0  -39.942684 -36.625607 -0.110108  -0.442121 -0.885341 -0.143873  0.933622 0.677725 1 1 1.000000
0  -39.199436 -36.598076 0.481738  0.350322 -0.906895 -0.234129  0.930692 0.676748 1 1 1.000000
black
0  -39.942684 -36.625607 -0.110108  -0.442121 -0.885341 -0.143873  0.933622 0.677725 1 1 1.000000
0  -39.805046 -36.639370 -0.165163  0.161301 -0.920377 -0.356214  0.999054 0.677725 1 1 1.000000
0  -39.199436 -36.598076 0.481738  0.350322 -0.906895 -0.234129  0.930692 0.676748 1 1 1.000000
black
0  -40.507004 -36.116341 2.477496  -0.429292 -0.900379 0.070896  0.009766 -0.000031 1 1 1.000000
0  -39.749989 -36.130104 2.697717  -0.076520 -0.983273 0.165285  0.335948 0.079073 1 1 1.000000
0  -40.493240 -36.116341 2.628898  -0.381130 -0.915534 0.128599  0.990265 0.079073 1 1 1.000000
black
0  39.749996 -36.130096 2.697711  0.076522 -0.983267 0.165320  0.463881 0.675771 1 1 1.000000
0  40.355610 -36.253971 1.816825  0.444102 -0.892544 0.078353  0.923856 0.676748 1 1 1.000000
0  40.507011 -36.116333 2.477490  0.429290 -0.900380 0.070900  0.463881 0.675771 1 1 1.000000
black
0  40.355610 -36.253971 1.816825  0.444102 -0.892544 0.078353  0.923856 0.676748 1 1 1.000000
0  39.749996 -36.130096 2.697711  0.076522 -0.983267 0.165320  0.463881 0.675771 1 1 1.000000
0  39.199444 -36.598068 0.481732  -0.350266 -0.906915 -0.234133  0.930692 0.676748 1 1 1.000000
black
0  39.199444 -36.598068 0.481732  -0.350266 -0.906915 -0.234133  0.930692 0.676748 1 1 1.000000
0  39.942692 -36.625599 -0.110114  0.442096 -0.885345 -0.143928  0.933622 0.677725 1 1 1.000000
0  40.355610 -36.253971 1.816825  0.444102 -0.892544 0.078353  0.923856 0.676748 1 1 1.000000
black
0  39.805054 -36.639362 -0.165169  -0.161256 -0.920397 -0.356183  0.996124 0.677725 1 1 1.000000
0  39.942692 -36.625599 -0.110114  0.442096 -0.885345 -0.143928  0.933622 0.677725 1 1 1.000000
0  39.199444 -36.598068 0.481732  -0.350266 -0.906915 -0.234133  0.930692 0.676748 1 1 1.000000
black
0  -38.814056 45.998775 4.514545  0.079952 0.995474 0.051378  0.907254 0.346660 1 1 1.000000
0  -41.002506 46.122654 4.101630  -0.359304 0.910100 0.206441  0.908231 0.346660 1 1 1.000000
0  -40.974979 46.053829 4.308087  -0.297392 0.893539 0.336373  0.906278 0.346660 1 1 1.000000
black
0  -41.002506 46.122654 4.101630  -0.359304 0.910100 0.206441  0.908231 0.346660 1 1 1.000000
0  -38.814056 45.998775 4.514545  0.079952 0.995474 0.051378  0.907254 0.346660 1 1 1.000000
0  -40.933689 46.218998 3.509784  -0.285056 0.953237 0.100410  0.913114 0.345683 1 1 1.000000
black
0  -40.933689 46.218998 3.509784  -0.285056 0.953237 0.100410  0.913114 0.345683 1 1 1.000000
0  -38.814056 45.998775 4.514545  0.079952 0.995474 0.051378  0.907254 0.346660 1 1 1.000000
0  -38.814056 46.012539 0.261516  0.518284 0.621164 -0.587824  0.933622 0.342753 1 1 1.000000
black
0  -38.814056 46.012539 0.261516  0.518284 0.621164 -0.587824  0.933622 0.342753 1 1 1.000000
0  -40.369373 47.031067 -0.082580  -0.197093 0.978124 -0.066538  0.933622 0.342753 1 1 1.000000
0  -40.933689 46.218998 3.509784  -0.285056 0.953237 0.100410  0.913114 0.345683 1 1 1.000000
black
0  -40.369373 47.031067 -0.082580  -0.197093 0.978124 -0.066538  0.933622 0.342753 1 1 1.000000
0  -38.814056 46.012539 0.261516  0.518284 0.621164 -0.587824  0.933622 0.342753 1 1 1.000000
0  -40.231731 47.017303 -0.206455  0.267415 0.793915 -0.546067  0.933622 0.342753 1 1 1.000000
black
0  40.974972 46.122662 4.101624  0.359252 0.910115 0.206470  0.908231 0.346660 1 1 1.000000
0  38.786522 45.998783 4.514539  -0.079702 0.995463 0.051976  0.907254 0.346660 1 1 1.000000
0  40.947445 46.053837 4.308082  0.297764 0.893298 0.336682  0.906278 0.346660 1 1 1.000000
black
0  38.786522 45.998783 4.514539  -0.079702 0.995463 0.051976  0.907254 0.346660 1 1 1.000000
0  40.974972 46.122662 4.101624  0.359252 0.910115 0.206470  0.908231 0.346660 1 1 1.000000
0  40.906155 46.219006 3.509778  0.285002 0.953251 0.100425  0.913114 0.345683 1 1 1.000000
black
0  38.786522 46.012547 0.261510  -0.518183 0.621229 -0.587844  0.933622 0.342753 1 1 1.000000
0  38.786522 45.998783 4.514539  -0.079813 0.995468 0.051702  0.907254 0.346660 1 1 1.000000
0  40.906155 46.219006 3.509778  0.285002 0.953251 0.100425  0.913114 0.345683 1 1 1.000000
black
0  40.906155 46.219006 3.509778  0.285002 0.953251 0.100425  0.913114 0.345683 1 1 1.000000
0  40.341835 47.031075 -0.082586  0.197048 0.978135 -0.066518  0.933622 0.342753 1 1 1.000000
0  38.786522 46.012547 0.261510  -0.518183 0.621229 -0.587844  0.933622 0.342753 1 1 1.000000
black
0  38.786522 46.012547 0.261510  -0.518183 0.621229 -0.587844  0.933622 0.342753 1 1 1.000000
0  40.341835 47.031075 -0.082586  0.197048 0.978135 -0.066518  0.933622 0.342753 1 1 1.000000
0  40.204197 47.017311 -0.206461  -0.267483 0.793863 -0.546108  0.933622 0.342753 1 1 1.000000
black
0  -39.199436 -36.598076 0.481738  0.350322 -0.906895 -0.234129  0.181646 0.304666 1 1 1.000000
0  -39.805046 -36.639370 -0.165163  0.161301 -0.920377 -0.356214  0.173833 0.304666 1 1 1.000000
0  -39.846336 -36.543022 -0.302802  0.041906 -0.450063 -0.892013  0.180670 0.304666 1 1 1.000000
black
0  -38.814049 -35.152874 0.261516  0.539212 -0.057812 -0.840183  0.194342 0.304666 1 1 1.000000
0  -39.199436 -36.598076 0.481738  0.350322 -0.906895 -0.234129  0.181646 0.304666 1 1 1.000000
0  -39.846336 -36.543022 -0.302802  0.041906 -0.450063 -0.892013  0.180670 0.304666 1 1 1.000000
black
0  -39.846336 -34.492207 -0.302802  -0.021805 0.001897 -0.999760  0.187506 0.304666 1 1 1.000000
0  -38.814049 -35.152874 0.261516  0.539212 -0.057812 -0.840183  0.194342 0.304666 1 1 1.000000
0  -39.846336 -36.543022 -0.302802  0.041906 -0.450063 -0.892013  0.180670 0.304666 1 1 1.000000
black
0  -38.814049 -35.152874 0.261516  0.539212 -0.057812 -0.840183  0.194342 0.304666 1 1 1.000000
0  -39.846336 -34.492207 -0.302802  -0.021805 0.001897 -0.999760  0.187506 0.304666 1 1 1.000000
0  -39.818813 -24.183084 -0.261510  -0.016579 0.003189 -0.999857  0.259774 0.302713 1 1 1.000000
black
0  -39.818813 -24.183084 -0.261510  -0.016579 0.003189 -0.999857  0.259774 0.302713 1 1 1.000000
0  -38.800289 -9.538350 0.261516  0.625483 -0.017291 -0.780046  0.352550 0.299783 1 1 1.000000
0  -38.814049 -35.152874 0.261516  0.539212 -0.057812 -0.840183  0.194342 0.304666 1 1 1.000000
black
0  -39.818813 -24.183084 -0.261510  -0.016579 0.003189 -0.999857  0.259774 0.302713 1 1 1.000000
0  -39.653648 -15.291639 -0.275274  0.073632 -0.003139 -0.997281  0.288095 0.301736 1 1 1.000000
0  -38.800289 -9.538350 0.261516  0.625483 -0.017291 -0.780046  0.352550 0.299783 1 1 1.000000
black
0  -39.653648 -15.291639 -0.275274  0.073632 -0.003139 -0.997281  0.288095 0.301736 1 1 1.000000
0  -39.392136 -5.202737 -0.316566  0.073250 -0.007176 -0.997288  0.320322 0.300760 1 1 1.000000
0  -38.800289 -9.538350 0.261516  0.625483 -0.017291 -0.780046  0.352550 0.299783 1 1 1.000000
black
0  -39.392136 -5.202737 -0.316566  0.073250 -0.007176 -0.997288  0.320322 0.300760 1 1 1.000000
0  -39.089329 4.335609 -0.344093  0.326460 0.010118 -0.945157  0.349620 0.299783 1 1 1.000000
0  -38.800289 -9.538350 0.261516  0.625483 -0.017291 -0.780046  0.352550 0.299783 1 1 1.000000
black
0  -40.231731 47.017303 -0.206455  0.267415 0.793915 -0.546067  0.416028 0.399396 1 1 1.000000
0  -38.814056 46.012539 0.261516  0.518284 0.621164 -0.587824  0.416028 0.399396 1 1 1.000000
0  -40.341843 46.907192 -0.233982  -0.246976 0.253637 -0.935239  0.416028 0.399396 1 1 1.000000
black
0  -40.341843 46.907192 -0.233982  -0.246976 0.253637 -0.935239  0.416028 0.399396 1 1 1.000000
0  -38.814056 46.012539 0.261516  0.518284 0.621164 -0.587824  0.416028 0.399396 1 1 1.000000
0  -40.204205 44.539810 -0.302802  -0.116212 0.007261 -0.993198  0.427747 0.399396 1 1 1.000000
black
0  -40.204205 44.539810 -0.302802  -0.116212 0.007261 -0.993198  0.427747 0.399396 1 1 1.000000
0  -38.814056 46.012539 0.261516  0.518284 0.621164 -0.587824  0.416028 0.399396 1 1 1.000000
0  -39.626125 36.460430 -0.316566  -0.125708 -0.005133 -0.992054  0.464858 0.399396 1 1 1.000000
black
0  -38.992985 27.789207 -0.357857  0.373736 -0.017799 -0.927364  0.508805 0.399396 1 1 1.000000
0  -39.626125 36.460430 -0.316566  -0.125708 -0.005133 -0.992054  0.464858 0.399396 1 1 1.000000
0  -38.814056 46.012539 0.261516  0.518284 0.621164 -0.587824  0.416028 0.399396 1 1 1.000000
black
0  -38.814056 46.012539 0.261516  0.518284 0.621164 -0.587824  0.416028 0.399396 1 1 1.000000
0  -38.814053 19.407022 0.261516  0.983047 -0.001345 0.183350  0.508805 0.399396 1 1 1.000000
0  -38.992985 27.789207 -0.357857  0.373736 -0.017799 -0.927364  0.508805 0.399396 1 1 1.000000
black
0  -38.992985 27.789207 -0.357857  0.373736 -0.017799 -0.927364  0.508805 0.399396 1 1 1.000000
0  -38.814053 19.407022 0.261516  0.983047 -0.001345 0.183350  0.508805 0.399396 1 1 1.000000
0  -38.690178 20.136507 -0.371621  0.629461 0.025407 -0.776616  0.537126 0.399396 1 1 1.000000
black
0  -38.690178 20.136507 -0.371621  0.629461 0.025407 -0.776616  0.537126 0.399396 1 1 1.000000
0  -38.814053 19.407022 0.261516  0.983047 -0.001345 0.183350  0.508805 0.399396 1 1 1.000000
0  -38.800289 11.561629 -0.357857  0.726336 -0.039850 -0.686183  0.567400 0.400372 1 1 1.000000
black
0  -39.089329 4.335609 -0.344093  0.326460 0.010118 -0.945157  0.567400 0.399396 1 1 1.000000
0  -38.800289 11.561629 -0.357857  0.726336 -0.039850 -0.686183  0.567400 0.400372 1 1 1.000000
0  -38.814053 19.407022 0.261516  0.983047 -0.001345 0.183350  0.508805 0.399396 1 1 1.000000
black
0  -38.814053 19.407022 0.261516  0.983047 -0.001345 0.183350  0.508805 0.399396 1 1 1.000000
0  -38.800289 -9.538350 0.261516  0.625483 -0.017291 -0.780046  0.567400 0.399396 1 1 1.000000
0  -39.089329 4.335609 -0.344093  0.326460 0.010118 -0.945157  0.567400 0.399396 1 1 1.000000
black
0  39.061802 4.335615 -0.344099  -0.326938 0.010240 -0.944990  0.567400 0.399396 1 1 1.000000
0  38.800289 -9.538344 0.261510  -0.625476 -0.017300 -0.780051  0.567400 0.399396 1 1 1.000000
0  38.786526 19.407030 0.261510  -0.983054 -0.001347 0.183311  0.508805 0.399396 1 1 1.000000
black
0  38.786526 19.407030 0.261510  -0.983054 -0.001347 0.183311  0.508805 0.399396 1 1 1.000000
0  38.772762 11.561635 -0.357863  -0.726337 -0.039845 -0.686183  0.567400 0.400372 1 1 1.000000
0  39.061802 4.335615 -0.344099  -0.326938 0.010240 -0.944990  0.567400 0.399396 1 1 1.000000
black
0  38.786526 19.407030 0.261510  -0.983054 -0.001347 0.183311  0.508805 0.399396 1 1 1.000000
0  38.662651 20.136515 -0.371627  -0.629460 0.025414 -0.776617  0.537126 0.399396 1 1 1.000000
0  38.772762 11.561635 -0.357863  -0.726337 -0.039845 -0.686183  0.567400 0.400372 1 1 1.000000
black
0  38.786526 19.407030 0.261510  -0.983054 -0.001347 0.183311  0.508805 0.399396 1 1 1.000000
0  38.965450 27.789215 -0.357863  -0.373593 -0.017821 -0.927421  0.508805 0.399396 1 1 1.000000
0  38.662651 20.136515 -0.371627  -0.629460 0.025414 -0.776617  0.537126 0.399396 1 1 1.000000
black
0  38.965450 27.789215 -0.357863  -0.373593 -0.017821 -0.927421  0.508805 0.399396 1 1 1.000000
0  38.786526 19.407030 0.261510  -0.983054 -0.001347 0.183311  0.508805 0.399396 1 1 1.000000
0  38.786522 46.012547 0.261510  -0.518183 0.621229 -0.587844  0.416028 0.399396 1 1 1.000000
black
0  38.786522 46.012547 0.261510  -0.518183 0.621229 -0.587844  0.416028 0.399396 1 1 1.000000
0  39.598591 36.460438 -0.316572  0.125713 -0.005130 -0.992053  0.464858 0.399396 1 1 1.000000
0  38.965450 27.789215 -0.357863  -0.373593 -0.017821 -0.927421  0.508805 0.399396 1 1 1.000000
black
0  38.786522 46.012547 0.261510  -0.518183 0.621229 -0.587844  0.416028 0.399396 1 1 1.000000
0  40.176670 44.539818 -0.302808  0.116160 0.007266 -0.993204  0.427747 0.399396 1 1 1.000000
0  39.598591 36.460438 -0.316572  0.125713 -0.005130 -0.992053  0.464858 0.399396 1 1 1.000000
black
0  38.786522 46.012547 0.261510  -0.518183 0.621229 -0.587844  0.416028 0.399396 1 1 1.000000
0  40.314308 46.907200 -0.233988  0.246908 0.253689 -0.935242  0.416028 0.399396 1 1 1.000000
0  40.176670 44.539818 -0.302808  0.116160 0.007266 -0.993204  0.427747 0.399396 1 1 1.000000
black
0  38.786522 46.012547 0.261510  -0.518183 0.621229 -0.587844  0.416028 0.399396 1 1 1.000000
0  40.204197 47.017311 -0.206461  -0.267483 0.793863 -0.546108  0.416028 0.399396 1 1 1.000000
0  40.314308 46.907200 -0.233988  0.246908 0.253689 -0.935242  0.416028 0.399396 1 1 1.000000
black
0  39.061802 4.335615 -0.344099  -0.326938 0.010240 -0.944990  0.349620 0.299783 1 1 1.000000
0  39.392136 -5.202732 -0.316572  -0.073295 -0.007188 -0.997284  0.320322 0.300760 1 1 1.000000
0  38.800289 -9.538344 0.261510  -0.625476 -0.017300 -0.780051  0.352550 0.299783 1 1 1.000000
black
0  39.392136 -5.202732 -0.316572  -0.073295 -0.007188 -0.997284  0.320322 0.300760 1 1 1.000000
0  39.653648 -15.291634 -0.275280  -0.073425 -0.003127 -0.997296  0.288095 0.301736 1 1 1.000000
0  38.800289 -9.538344 0.261510  -0.625476 -0.017300 -0.780051  0.352550 0.299783 1 1 1.000000
black
0  39.653648 -15.291634 -0.275280  -0.073425 -0.003127 -0.997296  0.288095 0.301736 1 1 1.000000
0  39.818813 -24.183077 -0.261516  0.016724 0.003143 -0.999855  0.259774 0.302713 1 1 1.000000
0  38.800289 -9.538344 0.261510  -0.625476 -0.017300 -0.780051  0.352550 0.299783 1 1 1.000000
black
0  38.814056 -35.152866 0.261510  -0.539290 -0.057850 -0.840131  0.194342 0.304666 1 1 1.000000
0  38.800289 -9.538344 0.261510  -0.625476 -0.017300 -0.780051  0.352550 0.299783 1 1 1.000000
0  39.818813 -24.183077 -0.261516  0.016724 0.003143 -0.999855  0.259774 0.302713 1 1 1.000000
black
0  39.818813 -24.183077 -0.261516  0.016724 0.003143 -0.999855  0.259774 0.302713 1 1 1.000000
0  39.846344 -34.492199 -0.302808  0.021696 0.001896 -0.999763  0.187506 0.304666 1 1 1.000000
0  38.814056 -35.152866 0.261510  -0.539290 -0.057850 -0.840131  0.194342 0.304666 1 1 1.000000
black
0  38.814056 -35.152866 0.261510  -0.539290 -0.057850 -0.840131  0.194342 0.304666 1 1 1.000000
0  39.846344 -34.492199 -0.302808  0.021696 0.001896 -0.999763  0.187506 0.304666 1 1 1.000000
0  39.846344 -36.543015 -0.302808  -0.041916 -0.449999 -0.892045  0.180670 0.304666 1 1 1.000000
black
0  39.199444 -36.598068 0.481732  -0.350266 -0.906915 -0.234133  0.181646 0.304666 1 1 1.000000
0  38.814056 -35.152866 0.261510  -0.539290 -0.057850 -0.840131  0.194342 0.304666 1 1 1.000000
0  39.846344 -36.543015 -0.302808  -0.041916 -0.449999 -0.892045  0.180670 0.304666 1 1 1.000000
black
0  39.805054 -36.639362 -0.165169  -0.161256 -0.920397 -0.356183  0.173833 0.304666 1 1 1.000000
0  39.199444 -36.598068 0.481732  -0.350266 -0.906915 -0.234133  0.181646 0.304666 1 1 1.000000
0  39.846344 -36.543015 -0.302808  -0.041916 -0.449999 -0.892045  0.180670 0.304666 1 1 1.000000
end
