version 1
nodes
0 "blender_implicit" -1
1 "root" -1
2 "steering_wheel" 1
end
skeleton
time 0
0  0.000000 0.000000 0.000000  0.000000 -0.000000 0.000000
1  0.000000 0.000000 0.000000  1.570796 -0.000000 0.000000
2  11.949805 26.950357 16.504313  0.000000 -0.000000 0.000000
end
triangles
licenseplate
0  6.575926 103.078957 9.625751  0.000000 0.999951 0.009940  0.013672 0.021484 1 1 1.000000
0  -6.575926 103.078957 9.625751  0.000000 0.999951 0.009942  0.982422 0.021484 1 1 1.000000
0  -6.575926 103.021233 15.432151  0.000000 0.999951 0.009942  0.982422 0.982422 1 1 1.000000
licenseplate
0  -6.575926 103.021233 15.432151  0.000000 0.999951 0.009942  0.982422 0.982422 1 1 1.000000
0  6.575925 103.021233 15.432151  0.000000 0.999951 0.009940  0.013672 0.982422 1 1 1.000000
0  6.575926 103.078957 9.625751  0.000000 0.999951 0.009940  0.013672 0.021484 1 1 1.000000
licenseplate
0  -6.719587 103.097206 15.382369  -0.278191 0.953793 0.113531  0.988281 0.978516 1 1 1.000000
0  -6.473151 103.094894 15.614217  0.005851 0.993093 0.117187  0.978516 0.990234 1 1 1.000000
0  -6.575926 103.021233 15.432151  0.389193 0.888156 -0.244350  0.982422 0.982422 1 1 1.000000
licenseplate
0  6.575926 103.078957 9.625751  -0.389223 0.883140 0.261856  0.013672 0.021484 1 1 1.000000
0  6.575925 103.021233 15.432151  -0.265873 0.899559 -0.346561  0.013672 0.982422 1 1 1.000000
0  6.719587 103.097206 15.382367  0.035357 0.992288 0.118808  0.007812 0.978516 1 1 1.000000
licenseplate
0  6.719587 103.097206 15.382367  0.035357 0.992288 0.118808  0.007812 0.978516 1 1 1.000000
0  6.719587 103.153946 9.677033  0.280323 0.954843 -0.098456  0.007812 0.023438 1 1 1.000000
0  6.575926 103.078957 9.625751  -0.389223 0.883140 0.261856  0.013672 0.021484 1 1 1.000000
licenseplate
0  6.719587 103.153946 9.677033  0.280323 0.954843 -0.098456  0.007812 0.023438 1 1 1.000000
0  6.473444 103.156265 9.445184  -0.003622 0.994979 -0.100018  0.017578 0.009766 1 1 1.000000
0  6.575926 103.078957 9.625751  -0.389223 0.883140 0.261856  0.013672 0.021484 1 1 1.000000
licenseplate
0  -6.575926 103.021233 15.432151  0.389193 0.888156 -0.244350  0.982422 0.982422 1 1 1.000000
0  -6.575926 103.078957 9.625751  0.265973 0.892367 0.364607  0.982422 0.021484 1 1 1.000000
0  -6.719585 103.153946 9.677033  -0.033789 0.994894 -0.095097  0.988281 0.023438 1 1 1.000000
licenseplate
0  -6.719585 103.153946 9.677033  -0.033789 0.994894 -0.095097  0.988281 0.023438 1 1 1.000000
0  -6.719587 103.097206 15.382369  -0.278191 0.953793 0.113531  0.988281 0.978516 1 1 1.000000
0  -6.575926 103.021233 15.432151  0.389193 0.888156 -0.244350  0.982422 0.982422 1 1 1.000000
licenseplate
0  -6.490476 102.962547 15.765076  -0.322626 0.740416 0.589658  0.978516 0.998047 1 1 1.000000
0  -6.473151 103.094894 15.614217  0.005851 0.993093 0.117187  0.978516 0.990234 1 1 1.000000
0  -6.719587 103.097206 15.382369  -0.278191 0.953793 0.113531  0.988281 0.978516 1 1 1.000000
licenseplate
0  -6.719587 103.097206 15.382369  -0.278191 0.953793 0.113531  0.988281 0.978516 1 1 1.000000
0  -6.864501 102.965752 15.442824  -0.580135 0.766388 0.275849  0.996094 0.982422 1 1 1.000000
0  -6.490476 102.962547 15.765076  -0.322626 0.740416 0.589658  0.978516 0.998047 1 1 1.000000
licenseplate
0  6.719587 103.153946 9.677033  0.280323 0.954843 -0.098456  0.007812 0.023438 1 1 1.000000
0  6.719587 103.097206 15.382367  0.035357 0.992288 0.118808  0.007812 0.978516 1 1 1.000000
0  6.864499 102.965752 15.442824  0.615795 0.765196 0.187807  0.001953 0.982422 1 1 1.000000
licenseplate
0  6.864499 102.965752 15.442824  0.615795 0.765196 0.187807  0.001953 0.982422 1 1 1.000000
0  6.864501 103.023720 9.613979  0.578804 0.771690 -0.263590  0.001953 0.019531 1 1 1.000000
0  6.719587 103.153946 9.677033  0.280323 0.954843 -0.098456  0.007812 0.023438 1 1 1.000000
licenseplate
0  6.483223 103.026924 9.291723  0.325087 0.746354 -0.580754  0.017578 0.001953 1 1 1.000000
0  6.473444 103.156265 9.445184  -0.003622 0.994979 -0.100018  0.017578 0.009766 1 1 1.000000
0  6.719587 103.153946 9.677033  0.280323 0.954843 -0.098456  0.007812 0.023438 1 1 1.000000
licenseplate
0  6.719587 103.153946 9.677033  0.280323 0.954843 -0.098456  0.007812 0.023438 1 1 1.000000
0  6.864501 103.023720 9.613979  0.578804 0.771690 -0.263590  0.001953 0.019531 1 1 1.000000
0  6.483223 103.026924 9.291723  0.325087 0.746354 -0.580754  0.017578 0.001953 1 1 1.000000
licenseplate
0  -6.719587 103.097206 15.382369  -0.278191 0.953793 0.113531  0.988281 0.978516 1 1 1.000000
0  -6.719585 103.153946 9.677033  -0.033789 0.994894 -0.095097  0.988281 0.023438 1 1 1.000000
0  -6.864499 103.023720 9.613981  -0.616579 0.768615 -0.170471  0.996094 0.019531 1 1 1.000000
licenseplate
0  -6.864499 103.023720 9.613981  -0.616579 0.768615 -0.170471  0.996094 0.019531 1 1 1.000000
0  -6.864501 102.965752 15.442824  -0.580135 0.766388 0.275849  0.996094 0.982422 1 1 1.000000
0  -6.719587 103.097206 15.382369  -0.278191 0.953793 0.113531  0.988281 0.978516 1 1 1.000000
licenseplate
0  6.482536 102.962547 15.765076  0.244785 0.746832 0.618322  0.017578 0.998047 1 1 1.000000
0  6.472770 103.094894 15.614217  -0.006507 0.995705 0.092353  0.019531 0.990234 1 1 1.000000
0  -6.473151 103.094894 15.614217  0.005851 0.993093 0.117187  0.978516 0.990234 1 1 1.000000
licenseplate
0  -6.473151 103.094894 15.614217  0.005851 0.993093 0.117187  0.978516 0.990234 1 1 1.000000
0  -6.490476 102.962547 15.765076  -0.322626 0.740416 0.589658  0.978516 0.998047 1 1 1.000000
0  6.482536 102.962547 15.765076  0.244785 0.746832 0.618322  0.017578 0.998047 1 1 1.000000
licenseplate
0  6.482536 102.962547 15.765076  0.244785 0.746832 0.618322  0.017578 0.998047 1 1 1.000000
0  6.864499 102.965752 15.442824  0.615795 0.765196 0.187807  0.001953 0.982422 1 1 1.000000
0  6.719587 103.097206 15.382367  0.035357 0.992288 0.118808  0.007812 0.978516 1 1 1.000000
licenseplate
0  6.719587 103.097206 15.382367  0.035357 0.992288 0.118808  0.007812 0.978516 1 1 1.000000
0  6.472770 103.094894 15.614217  -0.006507 0.995705 0.092353  0.019531 0.990234 1 1 1.000000
0  6.482536 102.962547 15.765076  0.244785 0.746832 0.618322  0.017578 0.998047 1 1 1.000000
licenseplate
0  -6.489789 103.026924 9.291725  -0.243033 0.763019 -0.598947  0.978516 0.001953 1 1 1.000000
0  -6.472478 103.156265 9.445186  0.009839 0.997609 -0.068411  0.978516 0.009766 1 1 1.000000
0  6.473444 103.156265 9.445184  -0.003622 0.994979 -0.100018  0.017578 0.009766 1 1 1.000000
licenseplate
0  6.473444 103.156265 9.445184  -0.003622 0.994979 -0.100018  0.017578 0.009766 1 1 1.000000
0  6.483223 103.026924 9.291723  0.325087 0.746354 -0.580754  0.017578 0.001953 1 1 1.000000
0  -6.489789 103.026924 9.291725  -0.243033 0.763019 -0.598947  0.978516 0.001953 1 1 1.000000
licenseplate
0  -6.489789 103.026924 9.291725  -0.243033 0.763019 -0.598947  0.978516 0.001953 1 1 1.000000
0  -6.864499 103.023720 9.613981  -0.616579 0.768615 -0.170471  0.996094 0.019531 1 1 1.000000
0  -6.719585 103.153946 9.677033  -0.033789 0.994894 -0.095097  0.988281 0.023438 1 1 1.000000
licenseplate
0  -6.719585 103.153946 9.677033  -0.033789 0.994894 -0.095097  0.988281 0.023438 1 1 1.000000
0  -6.472478 103.156265 9.445186  0.009839 0.997609 -0.068411  0.978516 0.009766 1 1 1.000000
0  -6.489789 103.026924 9.291725  -0.243033 0.763019 -0.598947  0.978516 0.001953 1 1 1.000000
licenseplate
0  -6.575926 103.078957 9.625751  0.265973 0.892367 0.364607  0.982422 0.021484 1 1 1.000000
0  6.575926 103.078957 9.625751  -0.389223 0.883140 0.261856  0.013672 0.021484 1 1 1.000000
0  6.473444 103.156265 9.445184  -0.003622 0.994979 -0.100018  0.017578 0.009766 1 1 1.000000
licenseplate
0  6.473444 103.156265 9.445184  -0.003622 0.994979 -0.100018  0.017578 0.009766 1 1 1.000000
0  -6.472478 103.156265 9.445186  0.009839 0.997609 -0.068411  0.978516 0.009766 1 1 1.000000
0  -6.575926 103.078957 9.625751  0.265973 0.892367 0.364607  0.982422 0.021484 1 1 1.000000
licenseplate
0  -6.472478 103.156265 9.445186  0.009839 0.997609 -0.068411  0.978516 0.009766 1 1 1.000000
0  -6.719585 103.153946 9.677033  -0.033789 0.994894 -0.095097  0.988281 0.023438 1 1 1.000000
0  -6.575926 103.078957 9.625751  0.265973 0.892367 0.364607  0.982422 0.021484 1 1 1.000000
licenseplate
0  6.575925 103.021233 15.432151  -0.265873 0.899559 -0.346561  0.013672 0.982422 1 1 1.000000
0  -6.575926 103.021233 15.432151  0.389193 0.888156 -0.244350  0.982422 0.982422 1 1 1.000000
0  -6.473151 103.094894 15.614217  0.005851 0.993093 0.117187  0.978516 0.990234 1 1 1.000000
licenseplate
0  -6.473151 103.094894 15.614217  0.005851 0.993093 0.117187  0.978516 0.990234 1 1 1.000000
0  6.472770 103.094894 15.614217  -0.006507 0.995705 0.092353  0.019531 0.990234 1 1 1.000000
0  6.575925 103.021233 15.432151  -0.265873 0.899559 -0.346561  0.013672 0.982422 1 1 1.000000
licenseplate
0  6.472770 103.094894 15.614217  -0.006507 0.995705 0.092353  0.019531 0.990234 1 1 1.000000
0  6.719587 103.097206 15.382367  0.035357 0.992288 0.118808  0.007812 0.978516 1 1 1.000000
0  6.575925 103.021233 15.432151  -0.265873 0.899559 -0.346561  0.013672 0.982422 1 1 1.000000
end
