version 1
nodes
0 "blender_implicit" -1
1 "root" -1
2 "steering_wheel" 1
end
skeleton
time 0
0  0.000000 0.000000 0.000000  0.000000 -0.000000 0.000000
1  0.000000 0.000000 0.000000  1.570796 -0.000000 0.000000
2  11.949805 26.950357 16.504313  0.000000 -0.000000 0.000000
end
triangles
licenseplate
0  6.575926 105.111259 9.748741  0.000000 0.999982 0.006012  0.013672 0.021484 1 1 1.000000
0  -6.575926 105.111259 9.748741  0.000000 0.999982 0.006017  0.982422 0.021484 1 1 1.000000
0  -6.575926 105.076340 15.555325  0.000000 0.999982 0.006015  0.982422 0.982422 1 1 1.000000
licenseplate
0  -6.575926 105.076340 15.555325  0.000000 0.999982 0.006015  0.982422 0.982422 1 1 1.000000
0  6.575925 105.076340 15.555325  0.000000 0.999982 0.006011  0.013672 0.982422 1 1 1.000000
0  6.575926 105.111259 9.748741  0.000000 0.999982 0.006012  0.013672 0.021484 1 1 1.000000
licenseplate
0  -6.719587 105.152122 15.505244  -0.278182 0.954235 0.109777  0.988281 0.978516 1 1 1.000000
0  -6.473151 105.150726 15.737100  0.005846 0.993545 0.113288  0.978516 0.990234 1 1 1.000000
0  -6.575926 105.076340 15.555325  0.389212 0.887172 -0.247872  0.982422 0.982422 1 1 1.000000
licenseplate
0  6.575926 105.111259 9.748741  -0.389224 0.884170 0.258358  0.013672 0.021484 1 1 1.000000
0  6.575925 105.076340 15.555325  -0.265902 0.898185 -0.350084  0.013672 0.982422 1 1 1.000000
0  6.719587 105.152122 15.505242  0.035346 0.992747 0.114907  0.007812 0.978516 1 1 1.000000
licenseplate
0  6.719587 105.152122 15.505242  0.035346 0.992747 0.114907  0.007812 0.978516 1 1 1.000000
0  6.719587 105.186447 9.799728  0.280322 0.954449 -0.102210  0.007812 0.023438 1 1 1.000000
0  6.575926 105.111259 9.748741  -0.389224 0.884170 0.258358  0.013672 0.021484 1 1 1.000000
licenseplate
0  6.719587 105.186447 9.799728  0.280322 0.954449 -0.102210  0.007812 0.023438 1 1 1.000000
0  6.473444 105.187859 9.567872  -0.003626 0.994578 -0.103925  0.017578 0.009766 1 1 1.000000
0  6.575926 105.111259 9.748741  -0.389224 0.884170 0.258358  0.013672 0.021484 1 1 1.000000
licenseplate
0  -6.575926 105.076340 15.555325  0.389212 0.887172 -0.247872  0.982422 0.982422 1 1 1.000000
0  -6.575926 105.111259 9.748741  0.265957 0.893796 0.361104  0.982422 0.021484 1 1 1.000000
0  -6.719585 105.186447 9.799728  -0.033797 0.994515 -0.098981  0.988281 0.023438 1 1 1.000000
licenseplate
0  -6.719585 105.186447 9.799728  -0.033797 0.994515 -0.098981  0.988281 0.023438 1 1 1.000000
0  -6.719587 105.152122 15.505244  -0.278182 0.954235 0.109777  0.988281 0.978516 1 1 1.000000
0  -6.575926 105.076340 15.555325  0.389212 0.887172 -0.247872  0.982422 0.982422 1 1 1.000000
licenseplate
0  -6.490476 105.018974 15.888476  -0.322635 0.742680 0.586799  0.978516 0.998047 1 1 1.000000
0  -6.473151 105.150726 15.737100  0.005846 0.993545 0.113288  0.978516 0.990234 1 1 1.000000
0  -6.719587 105.152122 15.505244  -0.278182 0.954235 0.109777  0.988281 0.978516 1 1 1.000000
licenseplate
0  -6.719587 105.152122 15.505244  -0.278182 0.954235 0.109777  0.988281 0.978516 1 1 1.000000
0  -6.864501 105.020905 15.566215  -0.580143 0.767464 0.272825  0.996094 0.982422 1 1 1.000000
0  -6.490476 105.018974 15.888476  -0.322635 0.742680 0.586799  0.978516 0.998047 1 1 1.000000
licenseplate
0  6.719587 105.186447 9.799728  0.280322 0.954449 -0.102210  0.007812 0.023438 1 1 1.000000
0  6.719587 105.152122 15.505242  0.035346 0.992747 0.114907  0.007812 0.978516 1 1 1.000000
0  6.864499 105.020905 15.566215  0.615802 0.765923 0.184796  0.001953 0.982422 1 1 1.000000
licenseplate
0  6.864499 105.020905 15.566215  0.615802 0.765923 0.184796  0.001953 0.982422 1 1 1.000000
0  6.864501 105.055977 9.737186  0.578800 0.770656 -0.266608  0.001953 0.019531 1 1 1.000000
0  6.719587 105.186447 9.799728  0.280322 0.954449 -0.102210  0.007812 0.023438 1 1 1.000000
licenseplate
0  6.483223 105.057915 9.414922  0.325084 0.744086 -0.583657  0.017578 0.001953 1 1 1.000000
0  6.473444 105.187859 9.567872  -0.003626 0.994578 -0.103925  0.017578 0.009766 1 1 1.000000
0  6.719587 105.186447 9.799728  0.280322 0.954449 -0.102210  0.007812 0.023438 1 1 1.000000
licenseplate
0  6.719587 105.186447 9.799728  0.280322 0.954449 -0.102210  0.007812 0.023438 1 1 1.000000
0  6.864501 105.055977 9.737186  0.578800 0.770656 -0.266608  0.001953 0.019531 1 1 1.000000
0  6.483223 105.057915 9.414922  0.325084 0.744086 -0.583657  0.017578 0.001953 1 1 1.000000
licenseplate
0  -6.719587 105.152122 15.505244  -0.278182 0.954235 0.109777  0.988281 0.978516 1 1 1.000000
0  -6.719585 105.186447 9.799728  -0.033797 0.994515 -0.098981  0.988281 0.023438 1 1 1.000000
0  -6.864499 105.055977 9.737188  -0.616574 0.767954 -0.173445  0.996094 0.019531 1 1 1.000000
licenseplate
0  -6.864499 105.055977 9.737188  -0.616574 0.767954 -0.173445  0.996094 0.019531 1 1 1.000000
0  -6.864501 105.020905 15.566215  -0.580143 0.767464 0.272825  0.996094 0.982422 1 1 1.000000
0  -6.719587 105.152122 15.505244  -0.278182 0.954235 0.109777  0.988281 0.978516 1 1 1.000000
licenseplate
0  6.482536 105.018974 15.888476  0.244795 0.749272 0.615360  0.017578 0.998047 1 1 1.000000
0  6.472770 105.150726 15.737100  -0.006504 0.996063 0.088412  0.019531 0.990234 1 1 1.000000
0  -6.473151 105.150726 15.737100  0.005846 0.993545 0.113288  0.978516 0.990234 1 1 1.000000
licenseplate
0  -6.473151 105.150726 15.737100  0.005846 0.993545 0.113288  0.978516 0.990234 1 1 1.000000
0  -6.490476 105.018974 15.888476  -0.322635 0.742680 0.586799  0.978516 0.998047 1 1 1.000000
0  6.482536 105.018974 15.888476  0.244795 0.749272 0.615360  0.017578 0.998047 1 1 1.000000
licenseplate
0  6.482536 105.018974 15.888476  0.244795 0.749272 0.615360  0.017578 0.998047 1 1 1.000000
0  6.864499 105.020905 15.566215  0.615802 0.765923 0.184796  0.001953 0.982422 1 1 1.000000
0  6.719587 105.152122 15.505242  0.035346 0.992747 0.114907  0.007812 0.978516 1 1 1.000000
licenseplate
0  6.719587 105.152122 15.505242  0.035346 0.992747 0.114907  0.007812 0.978516 1 1 1.000000
0  6.472770 105.150726 15.737100  -0.006504 0.996063 0.088412  0.019531 0.990234 1 1 1.000000
0  6.482536 105.018974 15.888476  0.244795 0.749272 0.615360  0.017578 0.998047 1 1 1.000000
licenseplate
0  -6.489789 105.057915 9.414924  -0.243036 0.760657 -0.601942  0.978516 0.001953 1 1 1.000000
0  -6.472478 105.187859 9.567874  0.009838 0.997330 -0.072360  0.978516 0.009766 1 1 1.000000
0  6.473444 105.187859 9.567872  -0.003626 0.994578 -0.103925  0.017578 0.009766 1 1 1.000000
licenseplate
0  6.473444 105.187859 9.567872  -0.003626 0.994578 -0.103925  0.017578 0.009766 1 1 1.000000
0  6.483223 105.057915 9.414922  0.325084 0.744086 -0.583657  0.017578 0.001953 1 1 1.000000
0  -6.489789 105.057915 9.414924  -0.243036 0.760657 -0.601942  0.978516 0.001953 1 1 1.000000
licenseplate
0  -6.489789 105.057915 9.414924  -0.243036 0.760657 -0.601942  0.978516 0.001953 1 1 1.000000
0  -6.864499 105.055977 9.737188  -0.616574 0.767954 -0.173445  0.996094 0.019531 1 1 1.000000
0  -6.719585 105.186447 9.799728  -0.033797 0.994515 -0.098981  0.988281 0.023438 1 1 1.000000
licenseplate
0  -6.719585 105.186447 9.799728  -0.033797 0.994515 -0.098981  0.988281 0.023438 1 1 1.000000
0  -6.472478 105.187859 9.567874  0.009838 0.997330 -0.072360  0.978516 0.009766 1 1 1.000000
0  -6.489789 105.057915 9.414924  -0.243036 0.760657 -0.601942  0.978516 0.001953 1 1 1.000000
licenseplate
0  -6.575926 105.111259 9.748741  0.265957 0.893796 0.361104  0.982422 0.021484 1 1 1.000000
0  6.575926 105.111259 9.748741  -0.389224 0.884170 0.258358  0.013672 0.021484 1 1 1.000000
0  6.473444 105.187859 9.567872  -0.003626 0.994578 -0.103925  0.017578 0.009766 1 1 1.000000
licenseplate
0  6.473444 105.187859 9.567872  -0.003626 0.994578 -0.103925  0.017578 0.009766 1 1 1.000000
0  -6.472478 105.187859 9.567874  0.009838 0.997330 -0.072360  0.978516 0.009766 1 1 1.000000
0  -6.575926 105.111259 9.748741  0.265957 0.893796 0.361104  0.982422 0.021484 1 1 1.000000
licenseplate
0  -6.472478 105.187859 9.567874  0.009838 0.997330 -0.072360  0.978516 0.009766 1 1 1.000000
0  -6.719585 105.186447 9.799728  -0.033797 0.994515 -0.098981  0.988281 0.023438 1 1 1.000000
0  -6.575926 105.111259 9.748741  0.265957 0.893796 0.361104  0.982422 0.021484 1 1 1.000000
licenseplate
0  6.575925 105.076340 15.555325  -0.265902 0.898185 -0.350084  0.013672 0.982422 1 1 1.000000
0  -6.575926 105.076340 15.555325  0.389212 0.887172 -0.247872  0.982422 0.982422 1 1 1.000000
0  -6.473151 105.150726 15.737100  0.005846 0.993545 0.113288  0.978516 0.990234 1 1 1.000000
licenseplate
0  -6.473151 105.150726 15.737100  0.005846 0.993545 0.113288  0.978516 0.990234 1 1 1.000000
0  6.472770 105.150726 15.737100  -0.006504 0.996063 0.088412  0.019531 0.990234 1 1 1.000000
0  6.575925 105.076340 15.555325  -0.265902 0.898185 -0.350084  0.013672 0.982422 1 1 1.000000
licenseplate
0  6.472770 105.150726 15.737100  -0.006504 0.996063 0.088412  0.019531 0.990234 1 1 1.000000
0  6.719587 105.152122 15.505242  0.035346 0.992747 0.114907  0.007812 0.978516 1 1 1.000000
0  6.575925 105.076340 15.555325  -0.265902 0.898185 -0.350084  0.013672 0.982422 1 1 1.000000
end
