version 1
nodes
0 "blender_implicit" -1
1 "root" -1
2 "steering_wheel" 1
end
skeleton
time 0
0  0.000000 0.000000 0.000000  0.000000 -0.000000 0.000000
1  0.000000 0.000000 0.000000  1.570796 -0.000000 0.000000
2  11.949805 26.950357 16.504313  0.000000 -0.000000 0.000000
end
triangles
licenseplate
0  6.575926 103.528076 10.204523  0.000000 0.999144 0.041374  0.013672 0.021484 1 1 1.000000
0  -6.575926 103.528076 10.204523  0.000000 0.999144 0.041374  0.982422 0.021484 1 1 1.000000
0  -6.575926 103.287834 16.006239  0.000000 0.999144 0.041374  0.982422 0.982422 1 1 1.000000
licenseplate
0  -6.575926 103.287834 16.006239  0.000000 0.999144 0.041374  0.982422 0.982422 1 1 1.000000
0  6.575925 103.287834 16.006239  0.000000 0.999144 0.041374  0.013672 0.982422 1 1 1.000000
0  6.575926 103.528076 10.204523  0.000000 0.999144 0.041374  0.013672 0.021484 1 1 1.000000
licenseplate
0  -6.719587 103.365334 15.958870  -0.278184 0.949756 0.143448  0.988281 0.978516 1 1 1.000000
0  -6.473151 103.355743 16.190531  0.005841 0.988922 0.148319  0.978516 0.990234 1 1 1.000000
0  -6.575926 103.287834 16.006239  0.389206 0.895400 -0.216280  0.982422 0.982422 1 1 1.000000
licenseplate
0  6.575926 103.528076 10.204523  -0.389236 0.874476 0.289460  0.013672 0.021484 1 1 1.000000
0  6.575925 103.287834 16.006239  -0.265887 0.910024 -0.318057  0.013672 0.982422 1 1 1.000000
0  6.719587 103.365334 15.958868  0.035354 0.988065 0.149927  0.007812 0.978516 1 1 1.000000
licenseplate
0  6.719587 103.365334 15.958868  0.035354 0.988065 0.149927  0.007812 0.978516 1 1 1.000000
0  6.719587 103.601418 10.258139  0.280325 0.957467 -0.068370  0.007812 0.023438 1 1 1.000000
0  6.575926 103.528076 10.204523  -0.389236 0.874476 0.289460  0.013672 0.021484 1 1 1.000000
licenseplate
0  6.719587 103.601418 10.258139  0.280325 0.957467 -0.068370  0.007812 0.023438 1 1 1.000000
0  6.473444 103.611023 10.026477  -0.003632 0.997632 -0.068679  0.017578 0.009766 1 1 1.000000
0  6.575926 103.528076 10.204523  -0.389236 0.874476 0.289460  0.013672 0.021484 1 1 1.000000
licenseplate
0  -6.575926 103.287834 16.006239  0.389206 0.895400 -0.216280  0.982422 0.982422 1 1 1.000000
0  -6.575926 103.528076 10.204523  0.265972 0.880456 0.392500  0.982422 0.021484 1 1 1.000000
0  -6.719585 103.601418 10.258139  -0.033794 0.997394 -0.063749  0.988281 0.023438 1 1 1.000000
licenseplate
0  -6.719585 103.601418 10.258139  -0.033794 0.997394 -0.063749  0.988281 0.023438 1 1 1.000000
0  -6.719587 103.365334 15.958870  -0.278184 0.949756 0.143448  0.988281 0.978516 1 1 1.000000
0  -6.575926 103.287834 16.006239  0.389206 0.895400 -0.216280  0.982422 0.982422 1 1 1.000000
licenseplate
0  -6.490476 103.218719 16.337154  -0.322639 0.721507 0.612643  0.978516 0.998047 1 1 1.000000
0  -6.473151 103.355743 16.190531  0.005841 0.988922 0.148319  0.978516 0.990234 1 1 1.000000
0  -6.719587 103.365334 15.958870  -0.278184 0.949756 0.143448  0.988281 0.978516 1 1 1.000000
licenseplate
0  -6.719587 103.365334 15.958870  -0.278184 0.949756 0.143448  0.988281 0.978516 1 1 1.000000
0  -6.864501 103.232048 16.015162  -0.580129 0.757359 0.299763  0.996094 0.982422 1 1 1.000000
0  -6.490476 103.218719 16.337154  -0.322639 0.721507 0.612643  0.978516 0.998047 1 1 1.000000
licenseplate
0  6.719587 103.601418 10.258139  0.280325 0.957467 -0.068370  0.007812 0.023438 1 1 1.000000
0  6.719587 103.365334 15.958868  0.035354 0.988065 0.149927  0.007812 0.978516 1 1 1.000000
0  6.864499 103.232048 16.015162  0.615788 0.758931 0.211726  0.001953 0.982422 1 1 1.000000
licenseplate
0  6.864499 103.232048 16.015162  0.615788 0.758931 0.211726  0.001953 0.982422 1 1 1.000000
0  6.864501 103.473236 10.191021  0.578815 0.779601 -0.239156  0.001953 0.019531 1 1 1.000000
0  6.719587 103.601418 10.258139  0.280325 0.957467 -0.068370  0.007812 0.023438 1 1 1.000000
licenseplate
0  6.483223 103.486572 9.869025  0.325086 0.764283 -0.556947  0.017578 0.001953 1 1 1.000000
0  6.473444 103.611023 10.026477  -0.003632 0.997632 -0.068679  0.017578 0.009766 1 1 1.000000
0  6.719587 103.601418 10.258139  0.280325 0.957467 -0.068370  0.007812 0.023438 1 1 1.000000
licenseplate
0  6.719587 103.601418 10.258139  0.280325 0.957467 -0.068370  0.007812 0.023438 1 1 1.000000
0  6.864501 103.473236 10.191021  0.578815 0.779601 -0.239156  0.001953 0.019531 1 1 1.000000
0  6.483223 103.486572 9.869025  0.325086 0.764283 -0.556947  0.017578 0.001953 1 1 1.000000
licenseplate
0  -6.719587 103.365334 15.958870  -0.278184 0.949756 0.143448  0.988281 0.978516 1 1 1.000000
0  -6.719585 103.601418 10.258139  -0.033794 0.997394 -0.063749  0.988281 0.023438 1 1 1.000000
0  -6.864499 103.473236 10.191023  -0.616585 0.773599 -0.146178  0.996094 0.019531 1 1 1.000000
licenseplate
0  -6.864499 103.473236 10.191023  -0.616585 0.773599 -0.146178  0.996094 0.019531 1 1 1.000000
0  -6.864501 103.232048 16.015162  -0.580129 0.757359 0.299763  0.996094 0.982422 1 1 1.000000
0  -6.719587 103.365334 15.958870  -0.278184 0.949756 0.143448  0.988281 0.978516 1 1 1.000000
licenseplate
0  6.482536 103.218719 16.337154  0.244802 0.727040 0.641470  0.017578 0.998047 1 1 1.000000
0  6.472770 103.355743 16.190531  -0.006495 0.992313 0.123585  0.019531 0.990234 1 1 1.000000
0  -6.473151 103.355743 16.190531  0.005841 0.988922 0.148319  0.978516 0.990234 1 1 1.000000
licenseplate
0  -6.473151 103.355743 16.190531  0.005841 0.988922 0.148319  0.978516 0.990234 1 1 1.000000
0  -6.490476 103.218719 16.337154  -0.322639 0.721507 0.612643  0.978516 0.998047 1 1 1.000000
0  6.482536 103.218719 16.337154  0.244802 0.727040 0.641470  0.017578 0.998047 1 1 1.000000
licenseplate
0  6.482536 103.218719 16.337154  0.244802 0.727040 0.641470  0.017578 0.998047 1 1 1.000000
0  6.864499 103.232048 16.015162  0.615788 0.758931 0.211726  0.001953 0.982422 1 1 1.000000
0  6.719587 103.365334 15.958868  0.035354 0.988065 0.149927  0.007812 0.978516 1 1 1.000000
licenseplate
0  6.719587 103.365334 15.958868  0.035354 0.988065 0.149927  0.007812 0.978516 1 1 1.000000
0  6.472770 103.355743 16.190531  -0.006495 0.992313 0.123585  0.019531 0.990234 1 1 1.000000
0  6.482536 103.218719 16.337154  0.244802 0.727040 0.641470  0.017578 0.998047 1 1 1.000000
licenseplate
0  -6.489789 103.486572 9.869027  -0.243031 0.781466 -0.574671  0.978516 0.001953 1 1 1.000000
0  -6.472478 103.611023 10.026479  0.009845 0.999265 -0.037040  0.978516 0.009766 1 1 1.000000
0  6.473444 103.611023 10.026477  -0.003632 0.997632 -0.068679  0.017578 0.009766 1 1 1.000000
licenseplate
0  6.473444 103.611023 10.026477  -0.003632 0.997632 -0.068679  0.017578 0.009766 1 1 1.000000
0  6.483223 103.486572 9.869025  0.325086 0.764283 -0.556947  0.017578 0.001953 1 1 1.000000
0  -6.489789 103.486572 9.869027  -0.243031 0.781466 -0.574671  0.978516 0.001953 1 1 1.000000
licenseplate
0  -6.489789 103.486572 9.869027  -0.243031 0.781466 -0.574671  0.978516 0.001953 1 1 1.000000
0  -6.864499 103.473236 10.191023  -0.616585 0.773599 -0.146178  0.996094 0.019531 1 1 1.000000
0  -6.719585 103.601418 10.258139  -0.033794 0.997394 -0.063749  0.988281 0.023438 1 1 1.000000
licenseplate
0  -6.719585 103.601418 10.258139  -0.033794 0.997394 -0.063749  0.988281 0.023438 1 1 1.000000
0  -6.472478 103.611023 10.026479  0.009845 0.999265 -0.037040  0.978516 0.009766 1 1 1.000000
0  -6.489789 103.486572 9.869027  -0.243031 0.781466 -0.574671  0.978516 0.001953 1 1 1.000000
licenseplate
0  -6.575926 103.528076 10.204523  0.265972 0.880456 0.392500  0.982422 0.021484 1 1 1.000000
0  6.575926 103.528076 10.204523  -0.389236 0.874476 0.289460  0.013672 0.021484 1 1 1.000000
0  6.473444 103.611023 10.026477  -0.003632 0.997632 -0.068679  0.017578 0.009766 1 1 1.000000
licenseplate
0  6.473444 103.611023 10.026477  -0.003632 0.997632 -0.068679  0.017578 0.009766 1 1 1.000000
0  -6.472478 103.611023 10.026479  0.009845 0.999265 -0.037040  0.978516 0.009766 1 1 1.000000
0  -6.575926 103.528076 10.204523  0.265972 0.880456 0.392500  0.982422 0.021484 1 1 1.000000
licenseplate
0  -6.472478 103.611023 10.026479  0.009845 0.999265 -0.037040  0.978516 0.009766 1 1 1.000000
0  -6.719585 103.601418 10.258139  -0.033794 0.997394 -0.063749  0.988281 0.023438 1 1 1.000000
0  -6.575926 103.528076 10.204523  0.265972 0.880456 0.392500  0.982422 0.021484 1 1 1.000000
licenseplate
0  6.575925 103.287834 16.006239  -0.265887 0.910024 -0.318057  0.013672 0.982422 1 1 1.000000
0  -6.575926 103.287834 16.006239  0.389206 0.895400 -0.216280  0.982422 0.982422 1 1 1.000000
0  -6.473151 103.355743 16.190531  0.005841 0.988922 0.148319  0.978516 0.990234 1 1 1.000000
licenseplate
0  -6.473151 103.355743 16.190531  0.005841 0.988922 0.148319  0.978516 0.990234 1 1 1.000000
0  6.472770 103.355743 16.190531  -0.006495 0.992313 0.123585  0.019531 0.990234 1 1 1.000000
0  6.575925 103.287834 16.006239  -0.265887 0.910024 -0.318057  0.013672 0.982422 1 1 1.000000
licenseplate
0  6.472770 103.355743 16.190531  -0.006495 0.992313 0.123585  0.019531 0.990234 1 1 1.000000
0  6.719587 103.365334 15.958868  0.035354 0.988065 0.149927  0.007812 0.978516 1 1 1.000000
0  6.575925 103.287834 16.006239  -0.265887 0.910024 -0.318057  0.013672 0.982422 1 1 1.000000
end
