version 1
nodes
0 "blender_implicit" -1
1 "root" -1
2 "steering_wheel" 1
end
skeleton
time 0
0  0.000000 0.000000 0.000000  0.000000 -0.000000 0.000000
1  0.000000 0.000000 0.000000  1.570796 -0.000000 0.000000
2  -16.760822 27.162848 14.547910  0.000000 -0.000000 0.000000
end
triangles
chrome
0  21.584429 101.168007 5.546829  0.997345 -0.072427 -0.007512  0.994171 0.148412 1 1 1.000000
0  21.914761 105.682556 5.863398  0.937276 0.344382 -0.053995  0.994171 0.148412 1 1 1.000000
0  21.763359 105.847717 6.620409  0.875814 0.377035 0.301320  0.994171 0.148412 1 1 1.000000
chrome
0  21.763359 105.847717 6.620409  0.875814 0.377035 0.301320  0.994171 0.148412 1 1 1.000000
0  21.433025 101.181770 6.317605  0.921685 -0.088981 0.377596  0.994171 0.148412 1 1 1.000000
0  21.584429 101.168007 5.546829  0.997345 -0.072427 -0.007512  0.994171 0.148412 1 1 1.000000
chrome
0  21.914761 105.682556 5.863398  0.937276 0.344382 -0.053995  0.994171 0.148412 1 1 1.000000
0  21.832176 105.765137 5.849634  0.665679 0.729321 -0.157994  0.994171 0.148412 1 1 1.000000
0  21.680773 105.916534 6.565354  0.617872 0.782603 0.075938  0.994171 0.148412 1 1 1.000000
chrome
0  21.680773 105.916534 6.565354  0.617872 0.782603 0.075938  0.994171 0.148412 1 1 1.000000
0  21.763359 105.847717 6.620409  0.875814 0.377035 0.301320  0.994171 0.148412 1 1 1.000000
0  21.914761 105.682556 5.863398  0.937276 0.344382 -0.053995  0.994171 0.148412 1 1 1.000000
chrome
0  21.433025 101.181770 6.317605  0.921685 -0.088981 0.377596  0.994171 0.148412 1 1 1.000000
0  21.763359 105.847717 6.620409  0.875814 0.377035 0.301320  0.994171 0.148412 1 1 1.000000
0  21.322916 106.012886 7.253547  0.678153 0.417297 0.604956  0.994171 0.148412 1 1 1.000000
chrome
0  21.322916 106.012886 7.253547  0.678153 0.417297 0.604956  0.994171 0.148412 1 1 1.000000
0  20.992582 101.209297 6.978270  0.704293 -0.088667 0.704350  0.994171 0.148412 1 1 1.000000
0  21.433025 101.181770 6.317605  0.921685 -0.088981 0.377596  0.994171 0.148412 1 1 1.000000
chrome
0  21.763359 105.847717 6.620409  0.875814 0.377035 0.301320  0.994171 0.148412 1 1 1.000000
0  21.680773 105.916534 6.565354  0.617872 0.782603 0.075938  0.994171 0.148412 1 1 1.000000
0  21.267859 106.067940 7.170964  0.482169 0.832283 0.273530  0.994171 0.148412 1 1 1.000000
chrome
0  21.267859 106.067940 7.170964  0.482169 0.832283 0.273530  0.994171 0.148412 1 1 1.000000
0  21.322916 106.012886 7.253547  0.678153 0.417297 0.604956  0.994171 0.148412 1 1 1.000000
0  21.763359 105.847717 6.620409  0.875814 0.377035 0.301320  0.994171 0.148412 1 1 1.000000
chrome
0  20.992582 101.209297 6.978270  0.704293 -0.088667 0.704350  0.994171 0.148412 1 1 1.000000
0  21.322916 106.012886 7.253547  0.678153 0.417297 0.604956  0.994171 0.148412 1 1 1.000000
0  20.676012 106.136757 7.680226  0.375507 0.456461 0.806621  0.994171 0.148412 1 1 1.000000
chrome
0  20.676012 106.136757 7.680226  0.375507 0.456461 0.806621  0.994171 0.148412 1 1 1.000000
0  20.331917 101.250587 7.418714  0.378733 -0.075090 0.922455  0.994171 0.148412 1 1 1.000000
0  20.992582 101.209297 6.978270  0.704293 -0.088667 0.704350  0.994171 0.148412 1 1 1.000000
chrome
0  21.322916 106.012886 7.253547  0.678153 0.417297 0.604956  0.994171 0.148412 1 1 1.000000
0  21.267859 106.067940 7.170964  0.482169 0.832283 0.273530  0.994171 0.148412 1 1 1.000000
0  20.634722 106.191826 7.570116  0.278962 0.871153 0.404071  0.994171 0.148412 1 1 1.000000
chrome
0  20.634722 106.191826 7.570116  0.278962 0.871153 0.404071  0.994171 0.148412 1 1 1.000000
0  20.676012 106.136757 7.680226  0.375507 0.456461 0.806621  0.994171 0.148412 1 1 1.000000
0  21.322916 106.012886 7.253547  0.678153 0.417297 0.604956  0.994171 0.148412 1 1 1.000000
chrome
0  20.331917 101.250587 7.418714  0.378733 -0.075090 0.922455  0.994171 0.148412 1 1 1.000000
0  20.676012 106.136757 7.680226  0.375507 0.456461 0.806621  0.994171 0.148412 1 1 1.000000
0  19.905237 106.205589 7.817864  0.016505 0.485755 0.873939  0.994171 0.148412 1 1 1.000000
chrome
0  19.905237 106.205589 7.817864  0.016505 0.485755 0.873939  0.994171 0.148412 1 1 1.000000
0  19.561142 101.291878 7.570116  -0.004455 -0.050438 0.998717  0.994171 0.148412 1 1 1.000000
0  20.331917 101.250587 7.418714  0.378733 -0.075090 0.922455  0.994171 0.148412 1 1 1.000000
chrome
0  20.676012 106.136757 7.680226  0.375507 0.456461 0.806621  0.994171 0.148412 1 1 1.000000
0  20.634722 106.191826 7.570116  0.278962 0.871153 0.404071  0.994171 0.148412 1 1 1.000000
0  19.905237 106.260643 7.707754  0.039294 0.893086 0.448168  0.994171 0.148412 1 1 1.000000
chrome
0  19.905237 106.260643 7.707754  0.039294 0.893086 0.448168  0.994171 0.148412 1 1 1.000000
0  19.905237 106.205589 7.817864  0.016505 0.485755 0.873939  0.994171 0.148412 1 1 1.000000
0  20.676012 106.136757 7.680226  0.375507 0.456461 0.806621  0.994171 0.148412 1 1 1.000000
chrome
0  19.561142 101.291878 7.570116  -0.004455 -0.050438 0.998717  0.994171 0.148412 1 1 1.000000
0  19.905237 106.205589 7.817864  0.016505 0.485755 0.873939  0.994171 0.148412 1 1 1.000000
0  19.120699 106.205589 7.666463  -0.341198 0.499953 0.796010  0.994171 0.148412 1 1 1.000000
chrome
0  19.120699 106.205589 7.666463  -0.341198 0.499953 0.796010  0.994171 0.148412 1 1 1.000000
0  18.790367 101.333168 7.418714  -0.387228 -0.020717 0.921751  0.994171 0.148412 1 1 1.000000
0  19.561142 101.291878 7.570116  -0.004455 -0.050438 0.998717  0.994171 0.148412 1 1 1.000000
chrome
0  19.905237 106.205589 7.817864  0.016505 0.485755 0.873939  0.994171 0.148412 1 1 1.000000
0  19.905237 106.260643 7.707754  0.039294 0.893086 0.448168  0.994171 0.148412 1 1 1.000000
0  19.161991 106.260643 7.556352  -0.200404 0.894797 0.398970  0.994171 0.148412 1 1 1.000000
chrome
0  19.161991 106.260643 7.556352  -0.200404 0.894797 0.398970  0.994171 0.148412 1 1 1.000000
0  19.120699 106.205589 7.666463  -0.341198 0.499953 0.796010  0.994171 0.148412 1 1 1.000000
0  19.905237 106.205589 7.817864  0.016505 0.485755 0.873939  0.994171 0.148412 1 1 1.000000
chrome
0  18.790367 101.333168 7.418714  -0.387228 -0.020717 0.921751  0.994171 0.148412 1 1 1.000000
0  19.120699 106.205589 7.666463  -0.341198 0.499953 0.796010  0.994171 0.148412 1 1 1.000000
0  18.473797 106.150520 7.226019  -0.639792 0.498022 0.585355  0.994171 0.148412 1 1 1.000000
chrome
0  18.473797 106.150520 7.226019  -0.639792 0.498022 0.585355  0.994171 0.148412 1 1 1.000000
0  18.129702 101.374474 6.978270  -0.711294 0.012739 0.702779  0.994171 0.148412 1 1 1.000000
0  18.790367 101.333168 7.418714  -0.387228 -0.020717 0.921751  0.994171 0.148412 1 1 1.000000
chrome
0  19.120699 106.205589 7.666463  -0.341198 0.499953 0.796010  0.994171 0.148412 1 1 1.000000
0  19.161991 106.260643 7.556352  -0.200404 0.894797 0.398970  0.994171 0.148412 1 1 1.000000
0  18.542616 106.205589 7.143436  -0.403608 0.875997 0.264065  0.994171 0.148412 1 1 1.000000
chrome
0  18.542616 106.205589 7.143436  -0.403608 0.875997 0.264065  0.994171 0.148412 1 1 1.000000
0  18.473797 106.150520 7.226019  -0.639792 0.498022 0.585355  0.994171 0.148412 1 1 1.000000
0  19.120699 106.205589 7.666463  -0.341198 0.499953 0.796010  0.994171 0.148412 1 1 1.000000
chrome
0  18.129702 101.374474 6.978270  -0.711294 0.012739 0.702779  0.994171 0.148412 1 1 1.000000
0  18.473797 106.150520 7.226019  -0.639792 0.498022 0.585355  0.994171 0.148412 1 1 1.000000
0  18.033354 106.026649 6.579118  -0.831012 0.482727 0.276394  0.994171 0.148412 1 1 1.000000
chrome
0  18.033354 106.026649 6.579118  -0.831012 0.482727 0.276394  0.994171 0.148412 1 1 1.000000
0  17.703022 101.402000 6.317605  -0.925759 0.046732 0.375214  0.994171 0.148412 1 1 1.000000
0  18.129702 101.374474 6.978270  -0.711294 0.012739 0.702779  0.994171 0.148412 1 1 1.000000
chrome
0  18.473797 106.150520 7.226019  -0.639792 0.498022 0.585355  0.994171 0.148412 1 1 1.000000
0  18.542616 106.205589 7.143436  -0.403608 0.875997 0.264065  0.994171 0.148412 1 1 1.000000
0  18.129702 106.095467 6.524063  -0.539240 0.839749 0.063581  0.994171 0.148412 1 1 1.000000
chrome
0  18.129702 106.095467 6.524063  -0.539240 0.839749 0.063581  0.994171 0.148412 1 1 1.000000
0  18.033354 106.026649 6.579118  -0.831012 0.482727 0.276394  0.994171 0.148412 1 1 1.000000
0  18.473797 106.150520 7.226019  -0.639792 0.498022 0.585355  0.994171 0.148412 1 1 1.000000
chrome
0  17.703022 101.402000 6.317605  -0.925759 0.046732 0.375214  0.994171 0.148412 1 1 1.000000
0  18.033354 106.026649 6.579118  -0.831012 0.482727 0.276394  0.994171 0.148412 1 1 1.000000
0  17.881952 105.875244 5.822106  -0.884838 0.459160 -0.078949  0.994171 0.148412 1 1 1.000000
chrome
0  17.881952 105.875244 5.822106  -0.884838 0.459160 -0.078949  0.994171 0.148412 1 1 1.000000
0  17.537855 101.402000 5.546830  -0.996953 0.077486 -0.009005  0.994171 0.148412 1 1 1.000000
0  17.703022 101.402000 6.317605  -0.925759 0.046732 0.375214  0.994171 0.148412 1 1 1.000000
chrome
0  18.033354 106.026649 6.579118  -0.831012 0.482727 0.276394  0.994171 0.148412 1 1 1.000000
0  18.129702 106.095467 6.524063  -0.539240 0.839749 0.063581  0.994171 0.148412 1 1 1.000000
0  17.978298 105.944061 5.808343  -0.587174 0.791101 -0.171422  0.994171 0.148412 1 1 1.000000
chrome
0  17.978298 105.944061 5.808343  -0.587174 0.791101 -0.171422  0.994171 0.148412 1 1 1.000000
0  17.881952 105.875244 5.822106  -0.884838 0.459160 -0.078949  0.994171 0.148412 1 1 1.000000
0  18.033354 106.026649 6.579118  -0.831012 0.482727 0.276394  0.994171 0.148412 1 1 1.000000
chrome
0  17.537855 101.402000 5.546830  -0.996953 0.077486 -0.009005  0.994171 0.148412 1 1 1.000000
0  17.881952 105.875244 5.822106  -0.884838 0.459160 -0.078949  0.994171 0.148412 1 1 1.000000
0  18.033354 105.710083 5.065095  -0.797904 0.430962 -0.421451  0.994171 0.148412 1 1 1.000000
chrome
0  18.033354 105.710083 5.065095  -0.797904 0.430962 -0.421451  0.994171 0.148412 1 1 1.000000
0  17.703022 101.402000 4.762290  -0.915091 0.101255 -0.390328  0.994171 0.148412 1 1 1.000000
0  17.537855 101.402000 5.546830  -0.996953 0.077486 -0.009005  0.994171 0.148412 1 1 1.000000
chrome
0  17.881952 105.875244 5.822106  -0.884838 0.459160 -0.078949  0.994171 0.148412 1 1 1.000000
0  17.978298 105.944061 5.808343  -0.587174 0.791101 -0.171422  0.994171 0.148412 1 1 1.000000
0  18.129702 105.778900 5.092622  -0.539210 0.738153 -0.405441  0.994171 0.148412 1 1 1.000000
chrome
0  18.129702 105.778900 5.092622  -0.539210 0.738153 -0.405441  0.994171 0.148412 1 1 1.000000
0  18.033354 105.710083 5.065095  -0.797904 0.430962 -0.421451  0.994171 0.148412 1 1 1.000000
0  17.881952 105.875244 5.822106  -0.884838 0.459160 -0.078949  0.994171 0.148412 1 1 1.000000
chrome
0  17.703022 101.402000 4.762290  -0.915091 0.101255 -0.390328  0.994171 0.148412 1 1 1.000000
0  18.033354 105.710083 5.065095  -0.797904 0.430962 -0.421451  0.994171 0.148412 1 1 1.000000
0  18.473797 105.544922 4.431958  -0.590844 0.402892 -0.698985  0.994171 0.148412 1 1 1.000000
chrome
0  18.473797 105.544922 4.431958  -0.590844 0.402892 -0.698985  0.994171 0.148412 1 1 1.000000
0  18.129702 101.374474 4.115389  -0.695526 0.112755 -0.709598  0.994171 0.148412 1 1 1.000000
0  17.703022 101.402000 4.762290  -0.915091 0.101255 -0.390328  0.994171 0.148412 1 1 1.000000
chrome
0  18.033354 105.710083 5.065095  -0.797904 0.430962 -0.421451  0.994171 0.148412 1 1 1.000000
0  18.129702 105.778900 5.092622  -0.539210 0.738153 -0.405441  0.994171 0.148412 1 1 1.000000
0  18.542616 105.627502 4.487013  -0.403576 0.688280 -0.602824  0.994171 0.148412 1 1 1.000000
chrome
0  18.542616 105.627502 4.487013  -0.403576 0.688280 -0.602824  0.994171 0.148412 1 1 1.000000
0  18.473797 105.544922 4.431958  -0.590844 0.402892 -0.698985  0.994171 0.148412 1 1 1.000000
0  18.033354 105.710083 5.065095  -0.797904 0.430962 -0.421451  0.994171 0.148412 1 1 1.000000
chrome
0  18.129702 101.374474 4.115389  -0.695526 0.112755 -0.709598  0.994171 0.148412 1 1 1.000000
0  18.473797 105.544922 4.431958  -0.590844 0.402892 -0.698985  0.994171 0.148412 1 1 1.000000
0  19.120699 105.421036 4.005279  -0.301348 0.376453 -0.876055  0.994171 0.148412 1 1 1.000000
chrome
0  19.120699 105.421036 4.005279  -0.301348 0.376453 -0.876055  0.994171 0.148412 1 1 1.000000
0  18.790367 101.333168 3.674946  -0.373444 0.107735 -0.921375  0.994171 0.148412 1 1 1.000000
0  18.129702 101.374474 4.115389  -0.695526 0.112755 -0.709598  0.994171 0.148412 1 1 1.000000
chrome
0  18.473797 105.544922 4.431958  -0.590844 0.402892 -0.698985  0.994171 0.148412 1 1 1.000000
0  18.542616 105.627502 4.487013  -0.403576 0.688280 -0.602824  0.994171 0.148412 1 1 1.000000
0  19.161991 105.517380 4.074098  -0.200398 0.649424 -0.733546  0.994171 0.148412 1 1 1.000000
chrome
0  19.161991 105.517380 4.074098  -0.200398 0.649424 -0.733546  0.994171 0.148412 1 1 1.000000
0  19.120699 105.421036 4.005279  -0.301348 0.376453 -0.876055  0.994171 0.148412 1 1 1.000000
0  18.473797 105.544922 4.431958  -0.590844 0.402892 -0.698985  0.994171 0.148412 1 1 1.000000
chrome
0  18.790367 101.333168 3.674946  -0.373444 0.107735 -0.921375  0.994171 0.148412 1 1 1.000000
0  19.120699 105.421036 4.005279  -0.301348 0.376453 -0.876055  0.994171 0.148412 1 1 1.000000
0  19.905237 105.352219 3.867640  0.029175 0.352921 -0.935198  0.994171 0.148412 1 1 1.000000
chrome
0  19.905237 105.352219 3.867640  0.029175 0.352921 -0.935198  0.994171 0.148412 1 1 1.000000
0  19.561142 101.291878 3.523544  0.002151 0.085065 -0.996373  0.994171 0.148412 1 1 1.000000
0  18.790367 101.333168 3.674946  -0.373444 0.107735 -0.921375  0.994171 0.148412 1 1 1.000000
chrome
0  19.120699 105.421036 4.005279  -0.301348 0.376453 -0.876055  0.994171 0.148412 1 1 1.000000
0  19.161991 105.517380 4.074098  -0.200398 0.649424 -0.733546  0.994171 0.148412 1 1 1.000000
0  19.905237 105.448563 3.950223  0.039283 0.627488 -0.777634  0.994171 0.148412 1 1 1.000000
chrome
0  19.905237 105.448563 3.950223  0.039283 0.627488 -0.777634  0.994171 0.148412 1 1 1.000000
0  19.905237 105.352219 3.867640  0.029175 0.352921 -0.935198  0.994171 0.148412 1 1 1.000000
0  19.120699 105.421036 4.005279  -0.301348 0.376453 -0.876055  0.994171 0.148412 1 1 1.000000
chrome
0  19.561142 101.291878 3.523544  0.002151 0.085065 -0.996373  0.994171 0.148412 1 1 1.000000
0  19.905237 105.352219 3.867640  0.029175 0.352921 -0.935198  0.994171 0.148412 1 1 1.000000
0  20.676012 105.338455 4.019042  0.360330 0.334236 -0.870890  0.994171 0.148412 1 1 1.000000
chrome
0  20.676012 105.338455 4.019042  0.360330 0.334236 -0.870890  0.994171 0.148412 1 1 1.000000
0  20.331917 101.250587 3.674946  0.378458 0.047426 -0.924403  0.994171 0.148412 1 1 1.000000
0  19.561142 101.291878 3.523544  0.002151 0.085065 -0.996373  0.994171 0.148412 1 1 1.000000
chrome
0  19.905237 105.352219 3.867640  0.029175 0.352921 -0.935198  0.994171 0.148412 1 1 1.000000
0  19.905237 105.448563 3.950223  0.039283 0.627488 -0.777634  0.994171 0.148412 1 1 1.000000
0  20.634722 105.434799 4.101625  0.278961 0.625799 -0.728394  0.994171 0.148412 1 1 1.000000
chrome
0  20.634722 105.434799 4.101625  0.278961 0.625799 -0.728394  0.994171 0.148412 1 1 1.000000
0  20.676012 105.338455 4.019042  0.360330 0.334236 -0.870890  0.994171 0.148412 1 1 1.000000
0  19.905237 105.352219 3.867640  0.029175 0.352921 -0.935198  0.994171 0.148412 1 1 1.000000
chrome
0  20.331917 101.250587 3.674946  0.378458 0.047426 -0.924403  0.994171 0.148412 1 1 1.000000
0  20.676012 105.338455 4.019042  0.360330 0.334236 -0.870890  0.994171 0.148412 1 1 1.000000
0  21.322916 105.407272 4.459486  0.650459 0.323831 -0.687049  0.994171 0.148412 1 1 1.000000
chrome
0  21.322916 105.407272 4.459486  0.650459 0.323831 -0.687049  0.994171 0.148412 1 1 1.000000
0  20.992582 101.209297 4.115389  0.701203 0.002457 -0.712957  0.994171 0.148412 1 1 1.000000
0  20.331917 101.250587 3.674946  0.378458 0.047426 -0.924403  0.994171 0.148412 1 1 1.000000
chrome
0  20.676012 105.338455 4.019042  0.360330 0.334236 -0.870890  0.994171 0.148412 1 1 1.000000
0  20.634722 105.434799 4.101625  0.278961 0.625799 -0.728394  0.994171 0.148412 1 1 1.000000
0  21.267859 105.503616 4.514541  0.482179 0.644470 -0.593432  0.994171 0.148412 1 1 1.000000
chrome
0  21.267859 105.503616 4.514541  0.482179 0.644470 -0.593432  0.994171 0.148412 1 1 1.000000
0  21.322916 105.407272 4.459486  0.650459 0.323831 -0.687049  0.994171 0.148412 1 1 1.000000
0  20.676012 105.338455 4.019042  0.360330 0.334236 -0.870890  0.994171 0.148412 1 1 1.000000
chrome
0  20.992582 101.209297 4.115389  0.701203 0.002457 -0.712957  0.994171 0.148412 1 1 1.000000
0  21.322916 105.407272 4.459486  0.650459 0.323831 -0.687049  0.994171 0.148412 1 1 1.000000
0  21.763359 105.517380 5.106386  0.855612 0.326218 -0.401883  0.994171 0.148412 1 1 1.000000
chrome
0  21.763359 105.517380 5.106386  0.855612 0.326218 -0.401883  0.994171 0.148412 1 1 1.000000
0  21.433025 101.181770 4.762290  0.919330 -0.040191 -0.391429  0.994171 0.148412 1 1 1.000000
0  20.992582 101.209297 4.115389  0.701203 0.002457 -0.712957  0.994171 0.148412 1 1 1.000000
chrome
0  21.322916 105.407272 4.459486  0.650459 0.323831 -0.687049  0.994171 0.148412 1 1 1.000000
0  21.267859 105.503616 4.514541  0.482179 0.644470 -0.593432  0.994171 0.148412 1 1 1.000000
0  21.680773 105.613739 5.120150  0.617930 0.680902 -0.393108  0.994171 0.148412 1 1 1.000000
chrome
0  21.680773 105.613739 5.120150  0.617930 0.680902 -0.393108  0.994171 0.148412 1 1 1.000000
0  21.763359 105.517380 5.106386  0.855612 0.326218 -0.401883  0.994171 0.148412 1 1 1.000000
0  21.322916 105.407272 4.459486  0.650459 0.323831 -0.687049  0.994171 0.148412 1 1 1.000000
chrome
0  21.433025 101.181770 4.762290  0.919330 -0.040191 -0.391429  0.994171 0.148412 1 1 1.000000
0  21.763359 105.517380 5.106386  0.855612 0.326218 -0.401883  0.994171 0.148412 1 1 1.000000
0  21.914761 105.682556 5.863398  0.937276 0.344382 -0.053995  0.994171 0.148412 1 1 1.000000
chrome
0  21.914761 105.682556 5.863398  0.937276 0.344382 -0.053995  0.994171 0.148412 1 1 1.000000
0  21.584429 101.168007 5.546829  0.997345 -0.072427 -0.007512  0.994171 0.148412 1 1 1.000000
0  21.433025 101.181770 4.762290  0.919330 -0.040191 -0.391429  0.994171 0.148412 1 1 1.000000
chrome
0  21.763359 105.517380 5.106386  0.855612 0.326218 -0.401883  0.994171 0.148412 1 1 1.000000
0  21.680773 105.613739 5.120150  0.617930 0.680902 -0.393108  0.994171 0.148412 1 1 1.000000
0  21.832176 105.765137 5.849634  0.665679 0.729321 -0.157994  0.994171 0.148412 1 1 1.000000
chrome
0  21.832176 105.765137 5.849634  0.665679 0.729321 -0.157994  0.994171 0.148412 1 1 1.000000
0  21.914761 105.682556 5.863398  0.937276 0.344382 -0.053995  0.994171 0.148412 1 1 1.000000
0  21.763359 105.517380 5.106386  0.855612 0.326218 -0.401883  0.994171 0.148412 1 1 1.000000
chrome
0  16.808372 101.484581 5.546830  0.997334 -0.072573 -0.007624  0.994171 0.148412 1 1 1.000000
0  17.152468 105.999123 5.863398  0.937267 0.344406 -0.053985  0.994171 0.148412 1 1 1.000000
0  17.001066 106.164284 6.620410  0.875829 0.377024 0.301292  0.994171 0.148412 1 1 1.000000
chrome
0  17.001066 106.164284 6.620410  0.875829 0.377024 0.301292  0.994171 0.148412 1 1 1.000000
0  16.656969 101.498344 6.317605  0.921774 -0.089247 0.377315  0.994171 0.148412 1 1 1.000000
0  16.808372 101.484581 5.546830  0.997334 -0.072573 -0.007624  0.994171 0.148412 1 1 1.000000
chrome
0  17.152468 105.999123 5.863398  0.937267 0.344406 -0.053985  0.994171 0.148412 1 1 1.000000
0  17.056120 106.081703 5.849635  0.665636 0.729362 -0.157986  0.994171 0.148412 1 1 1.000000
0  16.904720 106.233116 6.565354  0.617887 0.782591 0.075935  0.994171 0.148412 1 1 1.000000
chrome
0  16.904720 106.233116 6.565354  0.617887 0.782591 0.075935  0.994171 0.148412 1 1 1.000000
0  17.001066 106.164284 6.620410  0.875829 0.377024 0.301292  0.994171 0.148412 1 1 1.000000
0  17.152468 105.999123 5.863398  0.937267 0.344406 -0.053985  0.994171 0.148412 1 1 1.000000
chrome
0  16.656969 101.498344 6.317605  0.921774 -0.089247 0.377315  0.994171 0.148412 1 1 1.000000
0  17.001066 106.164284 6.620410  0.875829 0.377024 0.301292  0.994171 0.148412 1 1 1.000000
0  16.560623 106.329460 7.253547  0.678177 0.417132 0.605043  0.994171 0.148412 1 1 1.000000
chrome
0  16.560623 106.329460 7.253547  0.678177 0.417132 0.605043  0.994171 0.148412 1 1 1.000000
0  16.216526 101.525871 6.978270  0.704358 -0.089028 0.704240  0.994171 0.148412 1 1 1.000000
0  16.656969 101.498344 6.317605  0.921774 -0.089247 0.377315  0.994171 0.148412 1 1 1.000000
chrome
0  17.001066 106.164284 6.620410  0.875829 0.377024 0.301292  0.994171 0.148412 1 1 1.000000
0  16.904720 106.233116 6.565354  0.617887 0.782591 0.075935  0.994171 0.148412 1 1 1.000000
0  16.491804 106.398277 7.170964  0.482156 0.832303 0.273489  0.994171 0.148412 1 1 1.000000
chrome
0  16.491804 106.398277 7.170964  0.482156 0.832303 0.273489  0.994171 0.148412 1 1 1.000000
0  16.560623 106.329460 7.253547  0.678177 0.417132 0.605043  0.994171 0.148412 1 1 1.000000
0  17.001066 106.164284 6.620410  0.875829 0.377024 0.301292  0.994171 0.148412 1 1 1.000000
chrome
0  16.216526 101.525871 6.978270  0.704358 -0.089028 0.704240  0.994171 0.148412 1 1 1.000000
0  16.560623 106.329460 7.253547  0.678177 0.417132 0.605043  0.994171 0.148412 1 1 1.000000
0  15.899959 106.453331 7.680226  0.375516 0.456476 0.806608  0.994171 0.148412 1 1 1.000000
chrome
0  15.899959 106.453331 7.680226  0.375516 0.456476 0.806608  0.994171 0.148412 1 1 1.000000
0  15.569625 101.567162 7.418714  0.379166 -0.074988 0.922285  0.994171 0.148412 1 1 1.000000
0  16.216526 101.525871 6.978270  0.704358 -0.089028 0.704240  0.994171 0.148412 1 1 1.000000
chrome
0  16.560623 106.329460 7.253547  0.678177 0.417132 0.605043  0.994171 0.148412 1 1 1.000000
0  16.491804 106.398277 7.170964  0.482156 0.832303 0.273489  0.994171 0.148412 1 1 1.000000
0  15.872432 106.508385 7.570116  0.278971 0.871179 0.404009  0.994171 0.148412 1 1 1.000000
chrome
0  15.872432 106.508385 7.570116  0.278971 0.871179 0.404009  0.994171 0.148412 1 1 1.000000
0  15.899959 106.453331 7.680226  0.375516 0.456476 0.806608  0.994171 0.148412 1 1 1.000000
0  16.560623 106.329460 7.253547  0.678177 0.417132 0.605043  0.994171 0.148412 1 1 1.000000
chrome
0  15.569625 101.567162 7.418714  0.379166 -0.074988 0.922285  0.994171 0.148412 1 1 1.000000
0  15.899959 106.453331 7.680226  0.375516 0.456476 0.806608  0.994171 0.148412 1 1 1.000000
0  15.129184 106.522148 7.817865  0.016529 0.485847 0.873888  0.994171 0.148412 1 1 1.000000
chrome
0  15.129184 106.522148 7.817865  0.016529 0.485847 0.873888  0.994171 0.148412 1 1 1.000000
0  14.798852 101.608452 7.570116  -0.004172 -0.050938 0.998693  0.994171 0.148412 1 1 1.000000
0  15.569625 101.567162 7.418714  0.379166 -0.074988 0.922285  0.994171 0.148412 1 1 1.000000
chrome
0  15.899959 106.453331 7.680226  0.375516 0.456476 0.806608  0.994171 0.148412 1 1 1.000000
0  15.872432 106.508385 7.570116  0.278971 0.871179 0.404009  0.994171 0.148412 1 1 1.000000
0  15.129184 106.577202 7.707754  0.039296 0.893097 0.448145  0.994171 0.148412 1 1 1.000000
chrome
0  15.129184 106.577202 7.707754  0.039296 0.893097 0.448145  0.994171 0.148412 1 1 1.000000
0  15.129184 106.522148 7.817865  0.016529 0.485847 0.873888  0.994171 0.148412 1 1 1.000000
0  15.899959 106.453331 7.680226  0.375516 0.456476 0.806608  0.994171 0.148412 1 1 1.000000
chrome
0  14.798852 101.608452 7.570116  -0.004172 -0.050938 0.998693  0.994171 0.148412 1 1 1.000000
0  15.129184 106.522148 7.817865  0.016529 0.485847 0.873888  0.994171 0.148412 1 1 1.000000
0  14.358409 106.522148 7.666463  -0.341185 0.499960 0.796011  0.994171 0.148412 1 1 1.000000
chrome
0  14.358409 106.522148 7.666463  -0.341185 0.499960 0.796011  0.994171 0.148412 1 1 1.000000
0  14.014312 101.649742 7.418714  -0.388212 -0.020212 0.921348  0.994171 0.148412 1 1 1.000000
0  14.798852 101.608452 7.570116  -0.004172 -0.050938 0.998693  0.994171 0.148412 1 1 1.000000
chrome
0  15.129184 106.522148 7.817865  0.016529 0.485847 0.873888  0.994171 0.148412 1 1 1.000000
0  15.129184 106.577202 7.707754  0.039296 0.893097 0.448145  0.994171 0.148412 1 1 1.000000
0  14.399700 106.577202 7.556353  -0.200405 0.894781 0.399004  0.994171 0.148412 1 1 1.000000
chrome
0  14.399700 106.577202 7.556353  -0.200405 0.894781 0.399004  0.994171 0.148412 1 1 1.000000
0  14.358409 106.522148 7.666463  -0.341185 0.499960 0.796011  0.994171 0.148412 1 1 1.000000
0  15.129184 106.522148 7.817865  0.016529 0.485847 0.873888  0.994171 0.148412 1 1 1.000000
chrome
0  14.014312 101.649742 7.418714  -0.388212 -0.020212 0.921348  0.994171 0.148412 1 1 1.000000
0  14.358409 106.522148 7.666463  -0.341185 0.499960 0.796011  0.994171 0.148412 1 1 1.000000
0  13.697743 106.467094 7.226020  -0.639823 0.498090 0.585263  0.994171 0.148412 1 1 1.000000
chrome
0  13.697743 106.467094 7.226020  -0.639823 0.498090 0.585263  0.994171 0.148412 1 1 1.000000
0  13.367413 101.691032 6.978271  -0.711241 0.012726 0.702832  0.994171 0.148412 1 1 1.000000
0  14.014312 101.649742 7.418714  -0.388212 -0.020212 0.921348  0.994171 0.148412 1 1 1.000000
chrome
0  14.358409 106.522148 7.666463  -0.341185 0.499960 0.796011  0.994171 0.148412 1 1 1.000000
0  14.399700 106.577202 7.556353  -0.200405 0.894781 0.399004  0.994171 0.148412 1 1 1.000000
0  13.780327 106.522148 7.143437  -0.403542 0.876079 0.263893  0.994171 0.148412 1 1 1.000000
chrome
0  13.780327 106.522148 7.143437  -0.403542 0.876079 0.263893  0.994171 0.148412 1 1 1.000000
0  13.697743 106.467094 7.226020  -0.639823 0.498090 0.585263  0.994171 0.148412 1 1 1.000000
0  14.358409 106.522148 7.666463  -0.341185 0.499960 0.796011  0.994171 0.148412 1 1 1.000000
chrome
0  13.367413 101.691032 6.978271  -0.711241 0.012726 0.702832  0.994171 0.148412 1 1 1.000000
0  13.697743 106.467094 7.226020  -0.639823 0.498090 0.585263  0.994171 0.148412 1 1 1.000000
0  13.257299 106.343224 6.579119  -0.831009 0.482732 0.276396  0.994171 0.148412 1 1 1.000000
chrome
0  13.257299 106.343224 6.579119  -0.831009 0.482732 0.276396  0.994171 0.148412 1 1 1.000000
0  12.926969 101.718559 6.317605  -0.925683 0.046469 0.375435  0.994171 0.148412 1 1 1.000000
0  13.367413 101.691032 6.978271  -0.711241 0.012726 0.702832  0.994171 0.148412 1 1 1.000000
chrome
0  13.697743 106.467094 7.226020  -0.639823 0.498090 0.585263  0.994171 0.148412 1 1 1.000000
0  13.780327 106.522148 7.143437  -0.403542 0.876079 0.263893  0.994171 0.148412 1 1 1.000000
0  13.353646 106.412041 6.524063  -0.539257 0.839737 0.063596  0.994171 0.148412 1 1 1.000000
chrome
0  13.353646 106.412041 6.524063  -0.539257 0.839737 0.063596  0.994171 0.148412 1 1 1.000000
0  13.257299 106.343224 6.579119  -0.831009 0.482732 0.276396  0.994171 0.148412 1 1 1.000000
0  13.697743 106.467094 7.226020  -0.639823 0.498090 0.585263  0.994171 0.148412 1 1 1.000000
chrome
0  12.926969 101.718559 6.317605  -0.925683 0.046469 0.375435  0.994171 0.148412 1 1 1.000000
0  13.257299 106.343224 6.579119  -0.831009 0.482732 0.276396  0.994171 0.148412 1 1 1.000000
0  13.105898 106.191826 5.822107  -0.885089 0.458697 -0.078839  0.994171 0.148412 1 1 1.000000
chrome
0  13.105898 106.191826 5.822107  -0.885089 0.458697 -0.078839  0.994171 0.148412 1 1 1.000000
0  12.775566 101.718559 5.546830  -0.996958 0.077428 -0.008919  0.994171 0.148412 1 1 1.000000
0  12.926969 101.718559 6.317605  -0.925683 0.046469 0.375435  0.994171 0.148412 1 1 1.000000
chrome
0  13.257299 106.343224 6.579119  -0.831009 0.482732 0.276396  0.994171 0.148412 1 1 1.000000
0  13.353646 106.412041 6.524063  -0.539257 0.839737 0.063596  0.994171 0.148412 1 1 1.000000
0  13.216007 106.260643 5.808343  -0.586949 0.791265 -0.171436  0.994171 0.148412 1 1 1.000000
chrome
0  13.216007 106.260643 5.808343  -0.586949 0.791265 -0.171436  0.994171 0.148412 1 1 1.000000
0  13.105898 106.191826 5.822107  -0.885089 0.458697 -0.078839  0.994171 0.148412 1 1 1.000000
0  13.257299 106.343224 6.579119  -0.831009 0.482732 0.276396  0.994171 0.148412 1 1 1.000000
chrome
0  12.775566 101.718559 5.546830  -0.996958 0.077428 -0.008919  0.994171 0.148412 1 1 1.000000
0  13.105898 106.191826 5.822107  -0.885089 0.458697 -0.078839  0.994171 0.148412 1 1 1.000000
0  13.257299 106.026649 5.065095  -0.797927 0.430926 -0.421444  0.994171 0.148412 1 1 1.000000
chrome
0  13.257299 106.026649 5.065095  -0.797927 0.430926 -0.421444  0.994171 0.148412 1 1 1.000000
0  12.926969 101.718559 4.762290  -0.915031 0.101104 -0.390508  0.994171 0.148412 1 1 1.000000
0  12.775566 101.718559 5.546830  -0.996958 0.077428 -0.008919  0.994171 0.148412 1 1 1.000000
chrome
0  13.105898 106.191826 5.822107  -0.885089 0.458697 -0.078839  0.994171 0.148412 1 1 1.000000
0  13.216007 106.260643 5.808343  -0.586949 0.791265 -0.171436  0.994171 0.148412 1 1 1.000000
0  13.353646 106.109230 5.092623  -0.539352 0.738041 -0.405456  0.994171 0.148412 1 1 1.000000
chrome
0  13.353646 106.109230 5.092623  -0.539352 0.738041 -0.405456  0.994171 0.148412 1 1 1.000000
0  13.257299 106.026649 5.065095  -0.797927 0.430926 -0.421444  0.994171 0.148412 1 1 1.000000
0  13.105898 106.191826 5.822107  -0.885089 0.458697 -0.078839  0.994171 0.148412 1 1 1.000000
chrome
0  12.926969 101.718559 4.762290  -0.915031 0.101104 -0.390508  0.994171 0.148412 1 1 1.000000
0  13.257299 106.026649 5.065095  -0.797927 0.430926 -0.421444  0.994171 0.148412 1 1 1.000000
0  13.697742 105.861481 4.431958  -0.590809 0.402904 -0.699008  0.994171 0.148412 1 1 1.000000
chrome
0  13.697742 105.861481 4.431958  -0.590809 0.402904 -0.699008  0.994171 0.148412 1 1 1.000000
0  13.367413 101.691032 4.115390  -0.695091 0.112633 -0.710043  0.994171 0.148412 1 1 1.000000
0  12.926969 101.718559 4.762290  -0.915031 0.101104 -0.390508  0.994171 0.148412 1 1 1.000000
chrome
0  13.257299 106.026649 5.065095  -0.797927 0.430926 -0.421444  0.994171 0.148412 1 1 1.000000
0  13.353646 106.109230 5.092623  -0.539352 0.738041 -0.405456  0.994171 0.148412 1 1 1.000000
0  13.780326 105.944061 4.487014  -0.403540 0.688230 -0.602905  0.994171 0.148412 1 1 1.000000
chrome
0  13.780326 105.944061 4.487014  -0.403540 0.688230 -0.602905  0.994171 0.148412 1 1 1.000000
0  13.697742 105.861481 4.431958  -0.590809 0.402904 -0.699008  0.994171 0.148412 1 1 1.000000
0  13.257299 106.026649 5.065095  -0.797927 0.430926 -0.421444  0.994171 0.148412 1 1 1.000000
chrome
0  13.367413 101.691032 4.115390  -0.695091 0.112633 -0.710043  0.994171 0.148412 1 1 1.000000
0  13.697742 105.861481 4.431958  -0.590809 0.402904 -0.699008  0.994171 0.148412 1 1 1.000000
0  14.358408 105.737610 4.005279  -0.301338 0.376438 -0.876065  0.994171 0.148412 1 1 1.000000
chrome
0  14.358408 105.737610 4.005279  -0.301338 0.376438 -0.876065  0.994171 0.148412 1 1 1.000000
0  14.014312 101.649742 3.674947  -0.373954 0.107721 -0.921170  0.994171 0.148412 1 1 1.000000
0  13.367413 101.691032 4.115390  -0.695091 0.112633 -0.710043  0.994171 0.148412 1 1 1.000000
chrome
0  13.697742 105.861481 4.431958  -0.590809 0.402904 -0.699008  0.994171 0.148412 1 1 1.000000
0  13.780326 105.944061 4.487014  -0.403540 0.688230 -0.602905  0.994171 0.148412 1 1 1.000000
0  14.399700 105.833954 4.074098  -0.200375 0.649422 -0.733554  0.994171 0.148412 1 1 1.000000
chrome
0  14.399700 105.833954 4.074098  -0.200375 0.649422 -0.733554  0.994171 0.148412 1 1 1.000000
0  14.358408 105.737610 4.005279  -0.301338 0.376438 -0.876065  0.994171 0.148412 1 1 1.000000
0  13.697742 105.861481 4.431958  -0.590809 0.402904 -0.699008  0.994171 0.148412 1 1 1.000000
chrome
0  14.014312 101.649742 3.674947  -0.373954 0.107721 -0.921170  0.994171 0.148412 1 1 1.000000
0  14.358408 105.737610 4.005279  -0.301338 0.376438 -0.876065  0.994171 0.148412 1 1 1.000000
0  15.129183 105.668793 3.867640  0.029174 0.352955 -0.935185  0.994171 0.148412 1 1 1.000000
chrome
0  15.129183 105.668793 3.867640  0.029174 0.352955 -0.935185  0.994171 0.148412 1 1 1.000000
0  14.798852 101.608452 3.523544  0.002392 0.084499 -0.996421  0.994171 0.148412 1 1 1.000000
0  14.014312 101.649742 3.674947  -0.373954 0.107721 -0.921170  0.994171 0.148412 1 1 1.000000
chrome
0  14.358408 105.737610 4.005279  -0.301338 0.376438 -0.876065  0.994171 0.148412 1 1 1.000000
0  14.399700 105.833954 4.074098  -0.200375 0.649422 -0.733554  0.994171 0.148412 1 1 1.000000
0  15.129183 105.765137 3.950223  0.039276 0.627552 -0.777583  0.994171 0.148412 1 1 1.000000
chrome
0  15.129183 105.765137 3.950223  0.039276 0.627552 -0.777583  0.994171 0.148412 1 1 1.000000
0  15.129183 105.668793 3.867640  0.029174 0.352955 -0.935185  0.994171 0.148412 1 1 1.000000
0  14.358408 105.737610 4.005279  -0.301338 0.376438 -0.876065  0.994171 0.148412 1 1 1.000000
chrome
0  14.798852 101.608452 3.523544  0.002392 0.084499 -0.996421  0.994171 0.148412 1 1 1.000000
0  15.129183 105.668793 3.867640  0.029174 0.352955 -0.935185  0.994171 0.148412 1 1 1.000000
0  15.899959 105.655029 4.019042  0.360333 0.334228 -0.870892  0.994171 0.148412 1 1 1.000000
chrome
0  15.899959 105.655029 4.019042  0.360333 0.334228 -0.870892  0.994171 0.148412 1 1 1.000000
0  15.569625 101.567162 3.674947  0.378883 0.047325 -0.924234  0.994171 0.148412 1 1 1.000000
0  14.798852 101.608452 3.523544  0.002392 0.084499 -0.996421  0.994171 0.148412 1 1 1.000000
chrome
0  15.129183 105.668793 3.867640  0.029174 0.352955 -0.935185  0.994171 0.148412 1 1 1.000000
0  15.129183 105.765137 3.950223  0.039276 0.627552 -0.777583  0.994171 0.148412 1 1 1.000000
0  15.872432 105.751373 4.101625  0.278956 0.625798 -0.728396  0.994171 0.148412 1 1 1.000000
chrome
0  15.872432 105.751373 4.101625  0.278956 0.625798 -0.728396  0.994171 0.148412 1 1 1.000000
0  15.899959 105.655029 4.019042  0.360333 0.334228 -0.870892  0.994171 0.148412 1 1 1.000000
0  15.129183 105.668793 3.867640  0.029174 0.352955 -0.935185  0.994171 0.148412 1 1 1.000000
chrome
0  15.569625 101.567162 3.674947  0.378883 0.047325 -0.924234  0.994171 0.148412 1 1 1.000000
0  15.899959 105.655029 4.019042  0.360333 0.334228 -0.870892  0.994171 0.148412 1 1 1.000000
0  16.560623 105.723846 4.459486  0.650456 0.323870 -0.687033  0.994171 0.148412 1 1 1.000000
chrome
0  16.560623 105.723846 4.459486  0.650456 0.323870 -0.687033  0.994171 0.148412 1 1 1.000000
0  16.216526 101.525871 4.115389  0.701201 0.002348 -0.712960  0.994171 0.148412 1 1 1.000000
0  15.569625 101.567162 3.674947  0.378883 0.047325 -0.924234  0.994171 0.148412 1 1 1.000000
chrome
0  15.899959 105.655029 4.019042  0.360333 0.334228 -0.870892  0.994171 0.148412 1 1 1.000000
0  15.872432 105.751373 4.101625  0.278956 0.625798 -0.728396  0.994171 0.148412 1 1 1.000000
0  16.491804 105.820190 4.514541  0.482165 0.644517 -0.593393  0.994171 0.148412 1 1 1.000000
chrome
0  16.491804 105.820190 4.514541  0.482165 0.644517 -0.593393  0.994171 0.148412 1 1 1.000000
0  16.560623 105.723846 4.459486  0.650456 0.323870 -0.687033  0.994171 0.148412 1 1 1.000000
0  15.899959 105.655029 4.019042  0.360333 0.334228 -0.870892  0.994171 0.148412 1 1 1.000000
chrome
0  16.216526 101.525871 4.115389  0.701201 0.002348 -0.712960  0.994171 0.148412 1 1 1.000000
0  16.560623 105.723846 4.459486  0.650456 0.323870 -0.687033  0.994171 0.148412 1 1 1.000000
0  17.001066 105.833954 5.106387  0.855640 0.326186 -0.401850  0.994171 0.148412 1 1 1.000000
chrome
0  17.001066 105.833954 5.106387  0.855640 0.326186 -0.401850  0.994171 0.148412 1 1 1.000000
0  16.656969 101.498344 4.762290  0.919395 -0.040417 -0.391253  0.994171 0.148412 1 1 1.000000
0  16.216526 101.525871 4.115389  0.701201 0.002348 -0.712960  0.994171 0.148412 1 1 1.000000
chrome
0  16.560623 105.723846 4.459486  0.650456 0.323870 -0.687033  0.994171 0.148412 1 1 1.000000
0  16.491804 105.820190 4.514541  0.482165 0.644517 -0.593393  0.994171 0.148412 1 1 1.000000
0  16.904720 105.930298 5.120150  0.617930 0.680902 -0.393108  0.994171 0.148412 1 1 1.000000
chrome
0  16.904720 105.930298 5.120150  0.617930 0.680902 -0.393108  0.994171 0.148412 1 1 1.000000
0  17.001066 105.833954 5.106387  0.855640 0.326186 -0.401850  0.994171 0.148412 1 1 1.000000
0  16.560623 105.723846 4.459486  0.650456 0.323870 -0.687033  0.994171 0.148412 1 1 1.000000
chrome
0  16.656969 101.498344 4.762290  0.919395 -0.040417 -0.391253  0.994171 0.148412 1 1 1.000000
0  17.001066 105.833954 5.106387  0.855640 0.326186 -0.401850  0.994171 0.148412 1 1 1.000000
0  17.152468 105.999123 5.863398  0.937267 0.344406 -0.053985  0.994171 0.148412 1 1 1.000000
chrome
0  17.152468 105.999123 5.863398  0.937267 0.344406 -0.053985  0.994171 0.148412 1 1 1.000000
0  16.808372 101.484581 5.546830  0.997334 -0.072573 -0.007624  0.994171 0.148412 1 1 1.000000
0  16.656969 101.498344 4.762290  0.919395 -0.040417 -0.391253  0.994171 0.148412 1 1 1.000000
chrome
0  17.001066 105.833954 5.106387  0.855640 0.326186 -0.401850  0.994171 0.148412 1 1 1.000000
0  16.904720 105.930298 5.120150  0.617930 0.680902 -0.393108  0.994171 0.148412 1 1 1.000000
0  17.056120 106.081703 5.849635  0.665636 0.729362 -0.157986  0.994171 0.148412 1 1 1.000000
chrome
0  17.056120 106.081703 5.849635  0.665636 0.729362 -0.157986  0.994171 0.148412 1 1 1.000000
0  17.152468 105.999123 5.863398  0.937267 0.344406 -0.053985  0.994171 0.148412 1 1 1.000000
0  17.001066 105.833954 5.106387  0.855640 0.326186 -0.401850  0.994171 0.148412 1 1 1.000000
exhaust
0  18.129702 106.095467 6.524063  0.909799 -0.006872 -0.414993  0.015625 0.201147 1 1 1.000000
0  18.542616 106.205589 7.143436  0.683794 0.023446 -0.729298  0.015625 0.205054 1 1 1.000000
0  18.322395 101.718559 6.799340  0.715578 0.050522 -0.696703  0.186529 0.209937 1 1 1.000000
exhaust
0  18.129702 106.095467 6.524063  0.909799 -0.006872 -0.414993  0.015625 0.201147 1 1 1.000000
0  18.322395 101.718559 6.799340  0.715578 0.050522 -0.696703  0.186529 0.209937 1 1 1.000000
0  17.813133 101.746086 5.546830  0.999818 -0.011628 0.015093  0.186529 0.207984 1 1 1.000000
exhaust
0  18.129702 106.095467 6.524063  0.909799 -0.006872 -0.414993  0.015625 0.201147 1 1 1.000000
0  17.813133 101.746086 5.546830  0.999818 -0.011628 0.015093  0.186529 0.207984 1 1 1.000000
0  17.978298 105.944061 5.808343  0.998876 -0.039298 -0.026486  0.015625 0.200171 1 1 1.000000
exhaust
0  19.161991 106.260643 7.556352  0.368553 0.058764 -0.927747  0.015625 0.208960 1 1 1.000000
0  19.905237 106.260643 7.707754  0.012145 0.084834 -0.996321  0.015625 0.214820 1 1 1.000000
0  19.574905 101.649742 7.308602  0.010962 0.116398 -0.993142  0.186529 0.214820 1 1 1.000000
exhaust
0  19.161991 106.260643 7.556352  0.368553 0.058764 -0.927747  0.015625 0.208960 1 1 1.000000
0  19.574905 101.649742 7.308602  0.010962 0.116398 -0.993142  0.186529 0.214820 1 1 1.000000
0  18.322395 101.718559 6.799340  0.715578 0.050522 -0.696703  0.186529 0.209937 1 1 1.000000
exhaust
0  19.161991 106.260643 7.556352  0.368553 0.058764 -0.927747  0.015625 0.208960 1 1 1.000000
0  18.322395 101.718559 6.799340  0.715578 0.050522 -0.696703  0.186529 0.209937 1 1 1.000000
0  18.542616 106.205589 7.143436  0.683794 0.023446 -0.729298  0.015625 0.205054 1 1 1.000000
exhaust
0  20.634722 106.191826 7.570116  -0.344947 0.113379 -0.931749  0.015625 0.220679 1 1 1.000000
0  21.267859 106.067940 7.170964  -0.657439 0.126796 -0.742763  0.015625 0.225562 1 1 1.000000
0  20.827415 101.567162 6.799340  -0.696871 0.158499 -0.699463  0.186529 0.219703 1 1 1.000000
exhaust
0  20.634722 106.191826 7.570116  -0.344947 0.113379 -0.931749  0.015625 0.220679 1 1 1.000000
0  20.827415 101.567162 6.799340  -0.696871 0.158499 -0.699463  0.186529 0.219703 1 1 1.000000
0  19.574905 101.649742 7.308602  0.010962 0.116398 -0.993142  0.186529 0.214820 1 1 1.000000
exhaust
0  20.634722 106.191826 7.570116  -0.344947 0.113379 -0.931749  0.015625 0.220679 1 1 1.000000
0  19.574905 101.649742 7.308602  0.010962 0.116398 -0.993142  0.186529 0.214820 1 1 1.000000
0  19.905237 106.260643 7.707754  0.012145 0.084834 -0.996321  0.015625 0.214820 1 1 1.000000
exhaust
0  21.680773 105.916534 6.565354  -0.889270 0.133232 -0.437547  0.015625 0.228492 1 1 1.000000
0  21.832176 105.765137 5.849634  -0.991000 0.119045 -0.061219  0.015625 0.229469 1 1 1.000000
0  21.336679 101.539635 5.546830  -0.989389 0.144638 0.013748  0.186529 0.222633 1 1 1.000000
exhaust
0  21.680773 105.916534 6.565354  -0.889270 0.133232 -0.437547  0.015625 0.228492 1 1 1.000000
0  21.336679 101.539635 5.546830  -0.989389 0.144638 0.013748  0.186529 0.222633 1 1 1.000000
0  20.827415 101.567162 6.799340  -0.696871 0.158499 -0.699463  0.186529 0.219703 1 1 1.000000
exhaust
0  21.680773 105.916534 6.565354  -0.889270 0.133232 -0.437547  0.015625 0.228492 1 1 1.000000
0  20.827415 101.567162 6.799340  -0.696871 0.158499 -0.699463  0.186529 0.219703 1 1 1.000000
0  21.267859 106.067940 7.170964  -0.657439 0.126796 -0.742763  0.015625 0.225562 1 1 1.000000
exhaust
0  21.680773 105.613739 5.120150  -0.935865 0.090030 0.340663  0.015625 0.228492 1 1 1.000000
0  21.267859 105.503616 4.514541  -0.726879 0.043646 0.685377  0.015625 0.225562 1 1 1.000000
0  20.827415 101.567162 4.294319  -0.691194 0.071806 0.719093  0.186529 0.219703 1 1 1.000000
exhaust
0  21.680773 105.613739 5.120150  -0.935865 0.090030 0.340663  0.015625 0.228492 1 1 1.000000
0  20.827415 101.567162 4.294319  -0.691194 0.071806 0.719093  0.186529 0.219703 1 1 1.000000
0  21.336679 101.539635 5.546830  -0.989389 0.144638 0.013748  0.186529 0.222633 1 1 1.000000
exhaust
0  21.680773 105.613739 5.120150  -0.935865 0.090030 0.340663  0.015625 0.228492 1 1 1.000000
0  21.336679 101.539635 5.546830  -0.989389 0.144638 0.013748  0.186529 0.222633 1 1 1.000000
0  21.832176 105.765137 5.849634  -0.991000 0.119045 -0.061219  0.015625 0.229469 1 1 1.000000
exhaust
0  20.634722 105.434799 4.101625  -0.400593 0.000399 0.916256  0.015625 0.220679 1 1 1.000000
0  19.905237 105.448563 3.950223  -0.017600 -0.043221 0.998910  0.015625 0.214820 1 1 1.000000
0  19.574905 101.649742 3.771293  0.004888 -0.008117 0.999955  0.186529 0.214820 1 1 1.000000
exhaust
0  20.634722 105.434799 4.101625  -0.400593 0.000399 0.916256  0.015625 0.220679 1 1 1.000000
0  19.574905 101.649742 3.771293  0.004888 -0.008117 0.999955  0.186529 0.214820 1 1 1.000000
0  20.827415 101.567162 4.294319  -0.691194 0.071806 0.719093  0.186529 0.219703 1 1 1.000000
exhaust
0  20.634722 105.434799 4.101625  -0.400593 0.000399 0.916256  0.015625 0.220679 1 1 1.000000
0  20.827415 101.567162 4.294319  -0.691194 0.071806 0.719093  0.186529 0.219703 1 1 1.000000
0  21.267859 105.503616 4.514541  -0.726879 0.043646 0.685377  0.015625 0.225562 1 1 1.000000
exhaust
0  19.161991 105.517380 4.074098  0.370333 -0.062944 0.926764  0.015625 0.208960 1 1 1.000000
0  18.542616 105.627502 4.487013  0.700173 -0.073367 0.710194  0.015625 0.205054 1 1 1.000000
0  18.322395 101.718559 4.294319  0.698264 -0.038874 0.714784  0.186529 0.209937 1 1 1.000000
exhaust
0  19.161991 105.517380 4.074098  0.370333 -0.062944 0.926764  0.015625 0.208960 1 1 1.000000
0  18.322395 101.718559 4.294319  0.698264 -0.038874 0.714784  0.186529 0.209937 1 1 1.000000
0  19.574905 101.649742 3.771293  0.004888 -0.008117 0.999955  0.186529 0.214820 1 1 1.000000
exhaust
0  19.161991 105.517380 4.074098  0.370333 -0.062944 0.926764  0.015625 0.208960 1 1 1.000000
0  19.574905 101.649742 3.771293  0.004888 -0.008117 0.999955  0.186529 0.214820 1 1 1.000000
0  19.905237 105.448563 3.950223  -0.017600 -0.043221 0.998910  0.015625 0.214820 1 1 1.000000
exhaust
0  18.129702 105.778900 5.092622  0.926365 -0.059264 0.371935  0.015625 0.201147 1 1 1.000000
0  17.978298 105.944061 5.808343  0.998876 -0.039298 -0.026486  0.015625 0.200171 1 1 1.000000
0  17.813133 101.746086 5.546830  0.999818 -0.011628 0.015093  0.186529 0.207984 1 1 1.000000
exhaust
0  18.129702 105.778900 5.092622  0.926365 -0.059264 0.371935  0.015625 0.201147 1 1 1.000000
0  17.813133 101.746086 5.546830  0.999818 -0.011628 0.015093  0.186529 0.207984 1 1 1.000000
0  18.322395 101.718559 4.294319  0.698264 -0.038874 0.714784  0.186529 0.209937 1 1 1.000000
exhaust
0  18.129702 105.778900 5.092622  0.926365 -0.059264 0.371935  0.015625 0.201147 1 1 1.000000
0  18.322395 101.718559 4.294319  0.698264 -0.038874 0.714784  0.186529 0.209937 1 1 1.000000
0  18.542616 105.627502 4.487013  0.700173 -0.073367 0.710194  0.015625 0.205054 1 1 1.000000
exhaust
0  13.353646 106.412041 6.524063  0.909686 -0.007649 -0.415227  0.015625 0.201147 1 1 1.000000
0  13.780327 106.522148 7.143437  0.684136 0.022530 -0.729007  0.015625 0.205054 1 1 1.000000
0  13.560105 101.869965 6.799340  0.715198 0.048739 -0.697221  0.186529 0.209937 1 1 1.000000
exhaust
0  13.353646 106.412041 6.524063  0.909686 -0.007649 -0.415227  0.015625 0.201147 1 1 1.000000
0  13.560105 101.869965 6.799340  0.715198 0.048739 -0.697221  0.186529 0.209937 1 1 1.000000
0  13.037079 101.897491 5.546830  0.999844 -0.009730 0.014778  0.186529 0.207984 1 1 1.000000
exhaust
0  13.353646 106.412041 6.524063  0.909686 -0.007649 -0.415227  0.015625 0.201147 1 1 1.000000
0  13.037079 101.897491 5.546830  0.999844 -0.009730 0.014778  0.186529 0.207984 1 1 1.000000
0  13.216007 106.260643 5.808343  0.998935 -0.037726 -0.026548  0.015625 0.200171 1 1 1.000000
exhaust
0  14.399700 106.577202 7.556353  0.370532 0.056186 -0.927119  0.015625 0.208960 1 1 1.000000
0  15.129184 106.577202 7.707754  0.012423 0.081735 -0.996577  0.015625 0.214820 1 1 1.000000
0  14.798852 101.787384 7.308603  0.010283 0.112513 -0.993597  0.186529 0.214820 1 1 1.000000
exhaust
0  14.399700 106.577202 7.556353  0.370532 0.056186 -0.927119  0.015625 0.208960 1 1 1.000000
0  14.798852 101.787384 7.308603  0.010283 0.112513 -0.993597  0.186529 0.214820 1 1 1.000000
0  13.560105 101.869965 6.799340  0.715198 0.048739 -0.697221  0.186529 0.209937 1 1 1.000000
exhaust
0  14.399700 106.577202 7.556353  0.370532 0.056186 -0.927119  0.015625 0.208960 1 1 1.000000
0  13.560105 101.869965 6.799340  0.715198 0.048739 -0.697221  0.186529 0.209937 1 1 1.000000
0  13.780327 106.522148 7.143437  0.684136 0.022530 -0.729007  0.015625 0.205054 1 1 1.000000
exhaust
0  15.872432 106.508385 7.570116  -0.345617 0.109297 -0.931989  0.015625 0.220679 1 1 1.000000
0  16.491804 106.398277 7.170964  -0.658528 0.122359 -0.742542  0.015625 0.225562 1 1 1.000000
0  16.051363 101.718559 6.799340  -0.697870 0.153084 -0.699673  0.186529 0.219703 1 1 1.000000
exhaust
0  15.872432 106.508385 7.570116  -0.345617 0.109297 -0.931989  0.015625 0.220679 1 1 1.000000
0  16.051363 101.718559 6.799340  -0.697870 0.153084 -0.699673  0.186529 0.219703 1 1 1.000000
0  14.798852 101.787384 7.308603  0.010283 0.112513 -0.993597  0.186529 0.214820 1 1 1.000000
exhaust
0  15.872432 106.508385 7.570116  -0.345617 0.109297 -0.931989  0.015625 0.220679 1 1 1.000000
0  14.798852 101.787384 7.308603  0.010283 0.112513 -0.993597  0.186529 0.214820 1 1 1.000000
0  15.129184 106.577202 7.707754  0.012423 0.081735 -0.996577  0.015625 0.214820 1 1 1.000000
exhaust
0  16.904720 106.233116 6.565354  -0.890141 0.128046 -0.437326  0.015625 0.228492 1 1 1.000000
0  17.056120 106.081703 5.849635  -0.991632 0.114327 -0.059956  0.015625 0.229469 1 1 1.000000
0  16.574387 101.691032 5.546830  -0.990140 0.139396 0.013856  0.186529 0.222633 1 1 1.000000
exhaust
0  16.904720 106.233116 6.565354  -0.890141 0.128046 -0.437326  0.015625 0.228492 1 1 1.000000
0  16.574387 101.691032 5.546830  -0.990140 0.139396 0.013856  0.186529 0.222633 1 1 1.000000
0  16.051363 101.718559 6.799340  -0.697870 0.153084 -0.699673  0.186529 0.219703 1 1 1.000000
exhaust
0  16.904720 106.233116 6.565354  -0.890141 0.128046 -0.437326  0.015625 0.228492 1 1 1.000000
0  16.051363 101.718559 6.799340  -0.697870 0.153084 -0.699673  0.186529 0.219703 1 1 1.000000
0  16.491804 106.398277 7.170964  -0.658528 0.122359 -0.742542  0.015625 0.225562 1 1 1.000000
exhaust
0  16.904720 105.930298 5.120150  -0.935923 0.086282 0.341471  0.015625 0.228492 1 1 1.000000
0  16.491804 105.820190 4.514541  -0.726492 0.041183 0.685940  0.015625 0.225562 1 1 1.000000
0  16.051363 101.718559 4.294319  -0.692201 0.069335 0.718367  0.186529 0.219703 1 1 1.000000
exhaust
0  16.904720 105.930298 5.120150  -0.935923 0.086282 0.341471  0.015625 0.228492 1 1 1.000000
0  16.051363 101.718559 4.294319  -0.692201 0.069335 0.718367  0.186529 0.219703 1 1 1.000000
0  16.574387 101.691032 5.546830  -0.990140 0.139396 0.013856  0.186529 0.222633 1 1 1.000000
exhaust
0  16.904720 105.930298 5.120150  -0.935923 0.086282 0.341471  0.015625 0.228492 1 1 1.000000
0  16.574387 101.691032 5.546830  -0.990140 0.139396 0.013856  0.186529 0.222633 1 1 1.000000
0  17.056120 106.081703 5.849635  -0.991632 0.114327 -0.059956  0.015625 0.229469 1 1 1.000000
exhaust
0  15.872432 105.751373 4.101625  -0.400252 0.000067 0.916405  0.015625 0.220679 1 1 1.000000
0  15.129183 105.765137 3.950223  -0.017030 -0.041445 0.998996  0.015625 0.214820 1 1 1.000000
0  14.798852 101.787384 3.771293  0.004766 -0.007621 0.999960  0.186529 0.214820 1 1 1.000000
exhaust
0  15.872432 105.751373 4.101625  -0.400252 0.000067 0.916405  0.015625 0.220679 1 1 1.000000
0  14.798852 101.787384 3.771293  0.004766 -0.007621 0.999960  0.186529 0.214820 1 1 1.000000
0  16.051363 101.718559 4.294319  -0.692201 0.069335 0.718367  0.186529 0.219703 1 1 1.000000
exhaust
0  15.872432 105.751373 4.101625  -0.400252 0.000067 0.916405  0.015625 0.220679 1 1 1.000000
0  16.051363 101.718559 4.294319  -0.692201 0.069335 0.718367  0.186529 0.219703 1 1 1.000000
0  16.491804 105.820190 4.514541  -0.726492 0.041183 0.685940  0.015625 0.225562 1 1 1.000000
exhaust
0  14.399700 105.833954 4.074098  0.370771 -0.060273 0.926766  0.015625 0.208960 1 1 1.000000
0  13.780326 105.944061 4.487014  0.700757 -0.070407 0.709918  0.015625 0.205054 1 1 1.000000
0  13.560105 101.869965 4.294320  0.698449 -0.037023 0.714702  0.186529 0.209937 1 1 1.000000
exhaust
0  14.399700 105.833954 4.074098  0.370771 -0.060273 0.926766  0.015625 0.208960 1 1 1.000000
0  13.560105 101.869965 4.294320  0.698449 -0.037023 0.714702  0.186529 0.209937 1 1 1.000000
0  14.798852 101.787384 3.771293  0.004766 -0.007621 0.999960  0.186529 0.214820 1 1 1.000000
exhaust
0  14.399700 105.833954 4.074098  0.370771 -0.060273 0.926766  0.015625 0.208960 1 1 1.000000
0  14.798852 101.787384 3.771293  0.004766 -0.007621 0.999960  0.186529 0.214820 1 1 1.000000
0  15.129183 105.765137 3.950223  -0.017030 -0.041445 0.998996  0.015625 0.214820 1 1 1.000000
exhaust
0  13.353646 106.109230 5.092623  0.926765 -0.057302 0.371246  0.015625 0.201147 1 1 1.000000
0  13.216007 106.260643 5.808343  0.998935 -0.037726 -0.026548  0.015625 0.200171 1 1 1.000000
0  13.037079 101.897491 5.546830  0.999844 -0.009730 0.014778  0.186529 0.207984 1 1 1.000000
exhaust
0  13.353646 106.109230 5.092623  0.926765 -0.057302 0.371246  0.015625 0.201147 1 1 1.000000
0  13.037079 101.897491 5.546830  0.999844 -0.009730 0.014778  0.186529 0.207984 1 1 1.000000
0  13.560105 101.869965 4.294320  0.698449 -0.037023 0.714702  0.186529 0.209937 1 1 1.000000
exhaust
0  13.353646 106.109230 5.092623  0.926765 -0.057302 0.371246  0.015625 0.201147 1 1 1.000000
0  13.560105 101.869965 4.294320  0.698449 -0.037023 0.714702  0.186529 0.209937 1 1 1.000000
0  13.780326 105.944061 4.487014  0.700757 -0.070407 0.709918  0.015625 0.205054 1 1 1.000000
exhaust
0  19.574905 101.649742 7.308602  0.058447 0.998290 -0.000049  0.186529 0.214820 1 1 1.000000
0  20.827415 101.567162 6.799340  0.058426 0.998292 -0.000006  0.186529 0.219703 1 1 1.000000
0  21.336679 101.539635 5.546830  0.058436 0.998291 -0.000001  0.186529 0.222633 1 1 1.000000
exhaust
0  21.336679 101.539635 5.546830  0.058436 0.998291 -0.000001  0.186529 0.222633 1 1 1.000000
0  20.827415 101.567162 4.294319  0.058403 0.998293 -0.000010  0.186529 0.219703 1 1 1.000000
0  19.574905 101.649742 3.771293  0.058737 0.998273 0.000480  0.186529 0.214820 1 1 1.000000
exhaust
0  19.574905 101.649742 3.771293  0.058737 0.998273 0.000480  0.186529 0.214820 1 1 1.000000
0  18.322395 101.718559 4.294319  0.058413 0.998293 0.000009  0.186529 0.209937 1 1 1.000000
0  17.813133 101.746086 5.546830  0.057907 0.998322 -0.000003  0.186529 0.207984 1 1 1.000000
exhaust
0  21.336679 101.539635 5.546830  0.058436 0.998291 -0.000001  0.186529 0.222633 1 1 1.000000
0  19.574905 101.649742 3.771293  0.058737 0.998273 0.000480  0.186529 0.214820 1 1 1.000000
0  17.813133 101.746086 5.546830  0.057907 0.998322 -0.000003  0.186529 0.207984 1 1 1.000000
exhaust
0  19.574905 101.649742 7.308602  0.058447 0.998290 -0.000049  0.186529 0.214820 1 1 1.000000
0  21.336679 101.539635 5.546830  0.058436 0.998291 -0.000001  0.186529 0.222633 1 1 1.000000
0  17.813133 101.746086 5.546830  0.057907 0.998322 -0.000003  0.186529 0.207984 1 1 1.000000
exhaust
0  19.574905 101.649742 7.308602  0.058447 0.998290 -0.000049  0.186529 0.214820 1 1 1.000000
0  17.813133 101.746086 5.546830  0.057907 0.998322 -0.000003  0.186529 0.207984 1 1 1.000000
0  18.322395 101.718559 6.799340  0.058455 0.998290 -0.000002  0.186529 0.209937 1 1 1.000000
exhaust
0  14.798852 101.787384 7.308603  0.058464 0.998290 0.000075  0.186529 0.214820 1 1 1.000000
0  16.051363 101.718559 6.799340  0.058418 0.998292 -0.000026  0.186529 0.219703 1 1 1.000000
0  16.574387 101.691032 5.546830  0.058394 0.998294 0.000000  0.186529 0.222633 1 1 1.000000
exhaust
0  16.574387 101.691032 5.546830  0.058394 0.998294 0.000000  0.186529 0.222633 1 1 1.000000
0  16.051363 101.718559 4.294319  0.058394 0.998294 -0.000013  0.186529 0.219703 1 1 1.000000
0  14.798852 101.787384 3.771293  0.058601 0.998281 -0.000266  0.186529 0.214820 1 1 1.000000
exhaust
0  14.798852 101.787384 3.771293  0.058601 0.998281 -0.000266  0.186529 0.214820 1 1 1.000000
0  13.560105 101.869965 4.294320  0.058416 0.998292 0.000010  0.186529 0.209937 1 1 1.000000
0  13.037079 101.897491 5.546830  0.058382 0.998294 -0.000001  0.186529 0.207984 1 1 1.000000
exhaust
0  16.574387 101.691032 5.546830  0.058394 0.998294 0.000000  0.186529 0.222633 1 1 1.000000
0  14.798852 101.787384 3.771293  0.058601 0.998281 -0.000266  0.186529 0.214820 1 1 1.000000
0  13.037079 101.897491 5.546830  0.058382 0.998294 -0.000001  0.186529 0.207984 1 1 1.000000
exhaust
0  14.798852 101.787384 7.308603  0.058464 0.998290 0.000075  0.186529 0.214820 1 1 1.000000
0  16.574387 101.691032 5.546830  0.058394 0.998294 0.000000  0.186529 0.222633 1 1 1.000000
0  13.037079 101.897491 5.546830  0.058382 0.998294 -0.000001  0.186529 0.207984 1 1 1.000000
exhaust
0  14.798852 101.787384 7.308603  0.058464 0.998290 0.000075  0.186529 0.214820 1 1 1.000000
0  13.037079 101.897491 5.546830  0.058382 0.998294 -0.000001  0.186529 0.207984 1 1 1.000000
0  13.560105 101.869965 6.799340  0.058412 0.998293 -0.000006  0.186529 0.209937 1 1 1.000000
end
