version 1
nodes
0 "blender_implicit" -1
1 "root" -1
2 "steering_wheel" 1
end
skeleton
time 0
0  0.000000 0.000000 0.000000  0.000000 -0.000000 0.000000
1  0.000000 0.000000 0.000000  1.570796 -0.000000 0.000000
2  -16.760822 27.162848 14.547910  0.000000 -0.000000 0.000000
end
triangles
headlight
0  29.644905 -90.927490 23.478310  -0.111228 -0.991571 -0.066452  0.498809 0.270695 1 1 1.000000
0  29.571491 -90.925606 23.574343  -0.112430 -0.991434 -0.066477  0.508011 0.275487 1 1 1.000000
0  24.677650 -90.379196 23.701969  -0.108923 -0.993898 0.017372  0.520310 0.597847 1 1 1.000000
headlight
0  24.677650 -90.379196 23.701969  -0.108923 -0.993898 0.017372  0.520310 0.597847 1 1 1.000000
0  24.677650 -90.381081 23.601130  -0.106952 -0.994260 0.003054  0.510631 0.597834 1 1 1.000000
0  29.644905 -90.927490 23.478310  -0.111228 -0.991571 -0.066452  0.498809 0.270695 1 1 1.000000
headlight
0  29.882376 -90.922844 23.019068  -0.106983 -0.992927 -0.051479  0.454809 0.255269 1 1 1.000000
0  29.644905 -90.927490 23.478310  -0.111228 -0.991571 -0.066452  0.498809 0.270695 1 1 1.000000
0  24.677650 -90.381081 23.601130  -0.106952 -0.994260 0.003054  0.510631 0.597834 1 1 1.000000
headlight
0  24.677650 -90.381081 23.601130  -0.106952 -0.994260 0.003054  0.510631 0.597834 1 1 1.000000
0  24.677649 -90.376434 23.118929  -0.102946 -0.994640 -0.009618  0.464373 0.597866 1 1 1.000000
0  29.882376 -90.922844 23.019068  -0.106983 -0.992927 -0.051479  0.454809 0.255269 1 1 1.000000
headlight
0  30.064472 -90.918884 22.510254  -0.102703 -0.994153 -0.033332  0.406039 0.243442 1 1 1.000000
0  29.882376 -90.922844 23.019068  -0.106983 -0.992927 -0.051479  0.454809 0.255269 1 1 1.000000
0  24.677649 -90.376434 23.118929  -0.102946 -0.994640 -0.009618  0.464373 0.597866 1 1 1.000000
headlight
0  24.677649 -90.376434 23.118929  -0.102946 -0.994640 -0.009618  0.464373 0.597866 1 1 1.000000
0  24.677649 -90.372475 22.584675  -0.100038 -0.994958 -0.007104  0.413119 0.597894 1 1 1.000000
0  30.064472 -90.918884 22.510254  -0.102703 -0.994153 -0.033332  0.406039 0.243442 1 1 1.000000
headlight
0  30.178099 -90.915779 21.974390  -0.099912 -0.994809 -0.019280  0.354655 0.236068 1 1 1.000000
0  30.064472 -90.918884 22.510254  -0.102703 -0.994153 -0.033332  0.406039 0.243442 1 1 1.000000
0  24.677649 -90.372475 22.584675  -0.100038 -0.994958 -0.007104  0.413119 0.597894 1 1 1.000000
headlight
0  24.677649 -90.372475 22.584675  -0.100038 -0.994958 -0.007104  0.413119 0.597894 1 1 1.000000
0  24.677649 -90.369370 22.022017  -0.098472 -0.995125 -0.005441  0.359138 0.597915 1 1 1.000000
0  30.178099 -90.915779 21.974390  -0.099912 -0.994809 -0.019280  0.354655 0.236068 1 1 1.000000
headlight
0  30.228437 -90.912979 21.425482  -0.098423 -0.995134 -0.004513  0.302004 0.232810 1 1 1.000000
0  30.178099 -90.915779 21.974390  -0.099912 -0.994809 -0.019280  0.354655 0.236068 1 1 1.000000
0  24.677649 -90.369370 22.022017  -0.098472 -0.995125 -0.005441  0.359138 0.597915 1 1 1.000000
headlight
0  24.677649 -90.369370 22.022017  -0.098472 -0.995125 -0.005441  0.359138 0.597915 1 1 1.000000
0  24.677649 -90.366577 21.445660  -0.098368 -0.995141 -0.004182  0.303841 0.597935 1 1 1.000000
0  30.228437 -90.912979 21.425482  -0.098423 -0.995134 -0.004513  0.302004 0.232810 1 1 1.000000
headlight
0  30.180029 -90.910637 20.878250  -0.098369 -0.995074 0.012259  0.249490 0.235978 1 1 1.000000
0  30.228437 -90.912979 21.425482  -0.098423 -0.995134 -0.004513  0.302004 0.232810 1 1 1.000000
0  24.677649 -90.366577 21.445660  -0.098368 -0.995141 -0.004182  0.303841 0.597935 1 1 1.000000
headlight
0  24.677649 -90.366577 21.445660  -0.098368 -0.995141 -0.004182  0.303841 0.597935 1 1 1.000000
0  24.677649 -90.364227 20.871067  -0.099964 -0.994988 -0.002438  0.248713 0.597951 1 1 1.000000
0  30.180029 -90.910637 20.878250  -0.098369 -0.995074 0.012259  0.249490 0.235978 1 1 1.000000
headlight
0  30.045069 -90.909325 20.350128  -0.099948 -0.994607 0.027710  0.198787 0.244772 1 1 1.000000
0  30.180029 -90.910637 20.878250  -0.098369 -0.995074 0.012259  0.249490 0.235978 1 1 1.000000
0  24.677649 -90.364227 20.871067  -0.099964 -0.994988 -0.002438  0.248713 0.597951 1 1 1.000000
headlight
0  24.677649 -90.364227 20.871067  -0.099964 -0.994988 -0.002438  0.248713 0.597951 1 1 1.000000
0  24.677649 -90.362915 20.316540  -0.103011 -0.994680 -0.000525  0.195508 0.597960 1 1 1.000000
0  30.045069 -90.909325 20.350128  -0.099948 -0.994607 0.027710  0.198787 0.244772 1 1 1.000000
headlight
0  29.854450 -90.908775 19.846306  -0.102996 -0.993824 0.041302  0.150402 0.257184 1 1 1.000000
0  30.045069 -90.909325 20.350128  -0.099948 -0.994607 0.027710  0.198787 0.244772 1 1 1.000000
0  24.677649 -90.362915 20.316540  -0.103011 -0.994680 -0.000525  0.195508 0.597960 1 1 1.000000
headlight
0  24.677649 -90.362915 20.316540  -0.103011 -0.994680 -0.000525  0.195508 0.597960 1 1 1.000000
0  24.677649 -90.362373 19.787525  -0.107329 -0.994223 0.000751  0.144750 0.597964 1 1 1.000000
0  29.854450 -90.908775 19.846306  -0.102996 -0.993824 0.041302  0.150402 0.257184 1 1 1.000000
headlight
0  29.617355 -90.908463 19.370508  -0.107302 -0.992721 0.054691  0.104694 0.272620 1 1 1.000000
0  29.854450 -90.908775 19.846306  -0.102996 -0.993824 0.041302  0.150402 0.257184 1 1 1.000000
0  24.677649 -90.362373 19.787525  -0.107329 -0.994223 0.000751  0.144750 0.597964 1 1 1.000000
headlight
0  24.677649 -90.362373 19.787525  -0.107329 -0.994223 0.000751  0.144750 0.597964 1 1 1.000000
0  24.677649 -90.362061 19.287939  -0.112935 -0.993601 -0.001672  0.096814 0.597966 1 1 1.000000
0  29.617355 -90.908463 19.370508  -0.107302 -0.992721 0.054691  0.104694 0.272620 1 1 1.000000
headlight
0  29.344137 -90.905540 18.955643  -0.112722 -0.988026 0.105349  0.064830 0.290426 1 1 1.000000
0  29.617355 -90.908463 19.370508  -0.107302 -0.992721 0.054691  0.104694 0.272620 1 1 1.000000
0  24.677649 -90.362061 19.287939  -0.112935 -0.993601 -0.001672  0.096814 0.597966 1 1 1.000000
headlight
0  24.677649 -90.362061 19.287939  -0.112935 -0.993601 -0.001672  0.096814 0.597966 1 1 1.000000
0  24.677649 -90.359131 18.852329  -0.117713 -0.992501 0.032948  0.055023 0.597986 1 1 1.000000
0  29.344137 -90.905540 18.955643  -0.112722 -0.988026 0.105349  0.064830 0.290426 1 1 1.000000
headlight
0  -24.670977 -90.379196 23.701973  0.108921 -0.993897 0.017490  0.520310 0.597847 1 1 1.000000
0  -29.564816 -90.925606 23.574347  0.112429 -0.991423 -0.066630  0.508011 0.275487 1 1 1.000000
0  -29.638229 -90.927490 23.478313  0.111228 -0.991567 -0.066507  0.498809 0.270695 1 1 1.000000
headlight
0  -29.638229 -90.927490 23.478313  0.111228 -0.991567 -0.066507  0.498809 0.270695 1 1 1.000000
0  -24.670977 -90.381081 23.601133  0.106951 -0.994259 0.003122  0.510631 0.597834 1 1 1.000000
0  -24.670977 -90.379196 23.701973  0.108921 -0.993897 0.017490  0.520310 0.597847 1 1 1.000000
headlight
0  -24.670977 -90.381081 23.601133  0.106951 -0.994259 0.003122  0.510631 0.597834 1 1 1.000000
0  -29.638229 -90.927490 23.478313  0.111228 -0.991567 -0.066507  0.498809 0.270695 1 1 1.000000
0  -29.875700 -90.922844 23.019072  0.106983 -0.992927 -0.051487  0.454809 0.255269 1 1 1.000000
headlight
0  -29.875700 -90.922844 23.019072  0.106983 -0.992927 -0.051487  0.454809 0.255269 1 1 1.000000
0  -24.670979 -90.376434 23.118933  0.102946 -0.994640 -0.009611  0.464373 0.597866 1 1 1.000000
0  -24.670977 -90.381081 23.601133  0.106951 -0.994259 0.003122  0.510631 0.597834 1 1 1.000000
headlight
0  -24.670979 -90.376434 23.118933  0.102946 -0.994640 -0.009611  0.464373 0.597866 1 1 1.000000
0  -29.875700 -90.922844 23.019072  0.106983 -0.992927 -0.051487  0.454809 0.255269 1 1 1.000000
0  -30.057802 -90.918884 22.510258  0.102703 -0.994153 -0.033333  0.406039 0.243442 1 1 1.000000
headlight
0  -30.057802 -90.918884 22.510258  0.102703 -0.994153 -0.033333  0.406039 0.243442 1 1 1.000000
0  -24.670979 -90.372475 22.584679  0.100038 -0.994958 -0.007104  0.413119 0.597894 1 1 1.000000
0  -24.670979 -90.376434 23.118933  0.102946 -0.994640 -0.009611  0.464373 0.597866 1 1 1.000000
headlight
0  -24.670979 -90.372475 22.584679  0.100038 -0.994958 -0.007104  0.413119 0.597894 1 1 1.000000
0  -30.057802 -90.918884 22.510258  0.102703 -0.994153 -0.033333  0.406039 0.243442 1 1 1.000000
0  -30.171427 -90.915779 21.974394  0.099912 -0.994809 -0.019282  0.354655 0.236068 1 1 1.000000
headlight
0  -30.171427 -90.915779 21.974394  0.099912 -0.994809 -0.019282  0.354655 0.236068 1 1 1.000000
0  -24.670979 -90.369370 22.022020  0.098472 -0.995125 -0.005441  0.359138 0.597915 1 1 1.000000
0  -24.670979 -90.372475 22.584679  0.100038 -0.994958 -0.007104  0.413119 0.597894 1 1 1.000000
headlight
0  -24.670979 -90.369370 22.022020  0.098472 -0.995125 -0.005441  0.359138 0.597915 1 1 1.000000
0  -30.171427 -90.915779 21.974394  0.099912 -0.994809 -0.019282  0.354655 0.236068 1 1 1.000000
0  -30.221766 -90.912979 21.425486  0.098423 -0.995134 -0.004517  0.302004 0.232810 1 1 1.000000
headlight
0  -30.221766 -90.912979 21.425486  0.098423 -0.995134 -0.004517  0.302004 0.232810 1 1 1.000000
0  -24.670979 -90.366577 21.445663  0.098368 -0.995141 -0.004182  0.303841 0.597935 1 1 1.000000
0  -24.670979 -90.369370 22.022020  0.098472 -0.995125 -0.005441  0.359138 0.597915 1 1 1.000000
headlight
0  -24.670979 -90.366577 21.445663  0.098368 -0.995141 -0.004182  0.303841 0.597935 1 1 1.000000
0  -30.221766 -90.912979 21.425486  0.098423 -0.995134 -0.004517  0.302004 0.232810 1 1 1.000000
0  -30.173357 -90.910637 20.878254  0.098369 -0.995075 0.012260  0.249490 0.235978 1 1 1.000000
headlight
0  -30.173357 -90.910637 20.878254  0.098369 -0.995075 0.012260  0.249490 0.235978 1 1 1.000000
0  -24.670979 -90.364227 20.871071  0.099964 -0.994988 -0.002437  0.248713 0.597951 1 1 1.000000
0  -24.670979 -90.366577 21.445663  0.098368 -0.995141 -0.004182  0.303841 0.597935 1 1 1.000000
headlight
0  -24.670979 -90.364227 20.871071  0.099964 -0.994988 -0.002437  0.248713 0.597951 1 1 1.000000
0  -30.173357 -90.910637 20.878254  0.098369 -0.995075 0.012260  0.249490 0.235978 1 1 1.000000
0  -30.038399 -90.909325 20.350132  0.099949 -0.994607 0.027714  0.198787 0.244772 1 1 1.000000
headlight
0  -30.038399 -90.909325 20.350132  0.099949 -0.994607 0.027714  0.198787 0.244772 1 1 1.000000
0  -24.670979 -90.362915 20.316544  0.103010 -0.994680 -0.000525  0.195508 0.597960 1 1 1.000000
0  -24.670979 -90.364227 20.871071  0.099964 -0.994988 -0.002437  0.248713 0.597951 1 1 1.000000
headlight
0  -24.670979 -90.362915 20.316544  0.103010 -0.994680 -0.000525  0.195508 0.597960 1 1 1.000000
0  -30.038399 -90.909325 20.350132  0.099949 -0.994607 0.027714  0.198787 0.244772 1 1 1.000000
0  -29.847780 -90.908775 19.846310  0.102996 -0.993824 0.041311  0.150402 0.257184 1 1 1.000000
headlight
0  -29.847780 -90.908775 19.846310  0.102996 -0.993824 0.041311  0.150402 0.257184 1 1 1.000000
0  -24.670979 -90.362373 19.787529  0.107330 -0.994223 0.000752  0.144750 0.597964 1 1 1.000000
0  -24.670979 -90.362915 20.316544  0.103010 -0.994680 -0.000525  0.195508 0.597960 1 1 1.000000
headlight
0  -24.670979 -90.362373 19.787529  0.107330 -0.994223 0.000752  0.144750 0.597964 1 1 1.000000
0  -29.847780 -90.908775 19.846310  0.102996 -0.993824 0.041311  0.150402 0.257184 1 1 1.000000
0  -29.610683 -90.908463 19.370512  0.107303 -0.992720 0.054702  0.104694 0.272620 1 1 1.000000
headlight
0  -29.610683 -90.908463 19.370512  0.107303 -0.992720 0.054702  0.104694 0.272620 1 1 1.000000
0  -24.670979 -90.362061 19.287943  0.112935 -0.993601 -0.001672  0.096814 0.597966 1 1 1.000000
0  -24.670979 -90.362373 19.787529  0.107330 -0.994223 0.000752  0.144750 0.597964 1 1 1.000000
headlight
0  -24.670979 -90.362061 19.287943  0.112935 -0.993601 -0.001672  0.096814 0.597966 1 1 1.000000
0  -29.610683 -90.908463 19.370512  0.107303 -0.992720 0.054702  0.104694 0.272620 1 1 1.000000
0  -29.337465 -90.905540 18.955647  0.112722 -0.988024 0.105364  0.064830 0.290426 1 1 1.000000
headlight
0  -29.337465 -90.905540 18.955647  0.112722 -0.988024 0.105364  0.064830 0.290426 1 1 1.000000
0  -24.670979 -90.359131 18.852333  0.117704 -0.992497 0.033089  0.055023 0.597986 1 1 1.000000
0  -24.670979 -90.362061 19.287943  0.112935 -0.993601 -0.001672  0.096814 0.597966 1 1 1.000000
headlight
0  -24.670979 -90.359131 18.852333  0.117704 -0.992497 0.033089  0.055023 0.597986 1 1 1.000000
0  -29.337465 -90.905540 18.955647  0.112722 -0.988024 0.105364  0.064830 0.290426 1 1 1.000000
0  -29.279402 -90.907921 18.924007  0.117657 -0.950470 0.287685  0.061776 0.294189 1 1 1.000000
headlight
0  29.286072 -90.907921 18.924004  -0.117676 -0.950689 0.286956  0.061776 0.294189 1 1 1.000000
0  29.344137 -90.905540 18.955643  -0.112722 -0.988026 0.105349  0.064830 0.290426 1 1 1.000000
0  24.677649 -90.359131 18.852329  -0.117713 -0.992501 0.032948  0.055023 0.597986 1 1 1.000000
headlight
0  24.677649 -90.359131 18.852329  -0.117713 -0.992501 0.032948  0.055023 0.597986 1 1 1.000000
0  24.677649 -90.361511 18.819109  -0.119054 -0.990335 0.071155  0.051831 0.597970 1 1 1.000000
0  29.286072 -90.907921 18.924004  -0.117676 -0.950689 0.286956  0.061776 0.294189 1 1 1.000000
end
