version 1
nodes
0 "blender_implicit" -1
1 "root" -1
2 "steering_wheel" 1
end
skeleton
time 0
0  0.000000 0.000000 0.000000  0.000000 -0.000000 0.000000
1  0.000000 0.000000 0.000000  1.570796 -0.000000 0.000000
2  -16.760822 27.162848 14.547910  0.000000 -0.000000 0.000000
end
triangles
lit
0  18.381268 -94.560638 20.829290  0.104598 -0.994506 0.004235  0.305666 0.933507 1 1 1.000000
0  23.341658 -94.031288 21.044546  0.107069 -0.994158 -0.013641  0.328441 0.613920 1 1 1.000000
0  23.285624 -94.045937 21.530432  0.105912 -0.994109 -0.023030  0.381559 0.617636 1 1 1.000000
lit
0  23.285624 -94.045937 21.530432  0.105912 -0.994109 -0.023030  0.381559 0.617636 1 1 1.000000
0  18.404722 -94.553215 21.260765  0.100207 -0.994842 0.015767  0.353001 0.932180 1 1 1.000000
0  18.381268 -94.560638 20.829290  0.104598 -0.994506 0.004235  0.305666 0.933507 1 1 1.000000
lit
0  23.162199 -94.073723 21.998386  0.100134 -0.994364 -0.034845  0.432716 0.625821 1 1 1.000000
0  22.989565 -94.112251 22.443922  0.089513 -0.994187 -0.059828  0.481423 0.637270 1 1 1.000000
0  18.628302 -94.505280 22.083874  0.091963 -0.994885 0.041793  0.443301 0.919525 1 1 1.000000
lit
0  18.628302 -94.505280 22.083874  0.091963 -0.994885 0.041793  0.443301 0.919525 1 1 1.000000
0  18.481194 -94.535042 21.684496  0.095999 -0.994912 0.030578  0.399487 0.927851 1 1 1.000000
0  23.162199 -94.073723 21.998386  0.100134 -0.994364 -0.034845  0.432716 0.625821 1 1 1.000000
lit
0  18.404722 -94.553215 21.260765  0.100207 -0.994842 0.015767  0.353001 0.932180 1 1 1.000000
0  23.285624 -94.045937 21.530432  0.105912 -0.994109 -0.023030  0.381559 0.617636 1 1 1.000000
0  23.162199 -94.073723 21.998386  0.100134 -0.994364 -0.034845  0.432716 0.625821 1 1 1.000000
lit
0  23.162199 -94.073723 21.998386  0.100134 -0.994364 -0.034845  0.432716 0.625821 1 1 1.000000
0  18.481194 -94.535042 21.684496  0.095999 -0.994912 0.030578  0.399487 0.927851 1 1 1.000000
0  18.404722 -94.553215 21.260765  0.100207 -0.994842 0.015767  0.353001 0.932180 1 1 1.000000
lit
0  22.588360 -94.192871 22.920588  0.087860 -0.983008 -0.161172  0.533533 0.663877 1 1 1.000000
0  18.933445 -94.441734 22.614645  0.054501 -0.986942 0.151573  0.501530 0.902254 1 1 1.000000
0  18.874063 -94.459267 22.521921  0.076186 -0.994040 0.077975  0.491357 0.905615 1 1 1.000000
lit
0  18.874063 -94.459267 22.521921  0.076186 -0.994040 0.077975  0.491357 0.905615 1 1 1.000000
0  22.717859 -94.174698 22.881357  0.082982 -0.991259 -0.102566  0.529244 0.655289 1 1 1.000000
0  22.588360 -94.192871 22.920588  0.087860 -0.983008 -0.161172  0.533533 0.663877 1 1 1.000000
lit
0  18.874063 -94.459267 22.521921  0.076186 -0.994040 0.077975  0.491357 0.905615 1 1 1.000000
0  18.628302 -94.505280 22.083874  0.091963 -0.994885 0.041793  0.443301 0.919525 1 1 1.000000
0  22.989565 -94.112251 22.443922  0.089513 -0.994187 -0.059828  0.481423 0.637270 1 1 1.000000
lit
0  22.989565 -94.112251 22.443922  0.089513 -0.994187 -0.059828  0.481423 0.637270 1 1 1.000000
0  22.717859 -94.174698 22.881357  0.082982 -0.991259 -0.102566  0.529244 0.655289 1 1 1.000000
0  18.874063 -94.459267 22.521921  0.076186 -0.994040 0.077975  0.491357 0.905615 1 1 1.000000
lit
0  18.551874 -94.535820 19.988043  0.106857 -0.994091 -0.019083  0.213376 0.923851 1 1 1.000000
0  23.272058 -94.034660 20.073483  0.104194 -0.994546 0.004586  0.222282 0.618535 1 1 1.000000
0  23.338972 -94.026535 20.555092  0.106564 -0.994293 -0.004953  0.274933 0.614098 1 1 1.000000
lit
0  23.338972 -94.026535 20.555092  0.106564 -0.994293 -0.004953  0.274933 0.614098 1 1 1.000000
0  18.433210 -94.554657 20.401075  0.106781 -0.994256 -0.007280  0.258688 0.930567 1 1 1.000000
0  18.551874 -94.535820 19.988043  0.106857 -0.994091 -0.019083  0.213376 0.923851 1 1 1.000000
lit
0  23.341658 -94.031288 21.044546  0.107069 -0.994158 -0.013641  0.328441 0.613920 1 1 1.000000
0  18.381268 -94.560638 20.829290  0.104598 -0.994506 0.004235  0.305666 0.933507 1 1 1.000000
0  18.433210 -94.554657 20.401075  0.106781 -0.994256 -0.007280  0.258688 0.930567 1 1 1.000000
lit
0  18.433210 -94.554657 20.401075  0.106781 -0.994256 -0.007280  0.258688 0.930567 1 1 1.000000
0  23.338972 -94.026535 20.555092  0.106564 -0.994293 -0.004953  0.274933 0.614098 1 1 1.000000
0  23.341658 -94.031288 21.044546  0.107069 -0.994158 -0.013641  0.328441 0.613920 1 1 1.000000
lit
0  18.964052 -94.468033 19.253225  0.100324 -0.994314 -0.035705  0.132762 0.900522 1 1 1.000000
0  22.973976 -94.078094 19.173595  0.094322 -0.994962 0.033956  0.123905 0.638304 1 1 1.000000
0  23.152731 -94.051765 19.608383  0.100333 -0.994874 0.012605  0.171437 0.626449 1 1 1.000000
lit
0  23.152731 -94.051765 19.608383  0.100333 -0.994874 0.012605  0.171437 0.626449 1 1 1.000000
0  18.728794 -94.506096 19.600740  0.104637 -0.994045 -0.030407  0.170887 0.913837 1 1 1.000000
0  18.964052 -94.468033 19.253225  0.100324 -0.994314 -0.035705  0.132762 0.900522 1 1 1.000000
lit
0  23.272058 -94.034660 20.073483  0.104194 -0.994546 0.004586  0.222282 0.618535 1 1 1.000000
0  18.551874 -94.535820 19.988043  0.106857 -0.994091 -0.019083  0.213376 0.923851 1 1 1.000000
0  18.728794 -94.506096 19.600740  0.104637 -0.994045 -0.030407  0.170887 0.913837 1 1 1.000000
lit
0  18.728794 -94.506096 19.600740  0.104637 -0.994045 -0.030407  0.170887 0.913837 1 1 1.000000
0  23.152731 -94.051765 19.608383  0.100333 -0.994874 0.012605  0.171437 0.626449 1 1 1.000000
0  23.272058 -94.034660 20.073483  0.104194 -0.994546 0.004586  0.222282 0.618535 1 1 1.000000
lit
0  19.283791 -94.425194 18.889309  0.094085 -0.995143 -0.028957  0.092839 0.882424 1 1 1.000000
0  22.737167 -94.125893 18.788736  0.087495 -0.993775 0.068963  0.081832 0.654009 1 1 1.000000
0  22.973976 -94.078094 19.173595  0.094322 -0.994962 0.033956  0.123905 0.638304 1 1 1.000000
lit
0  22.973976 -94.078094 19.173595  0.094322 -0.994962 0.033956  0.123905 0.638304 1 1 1.000000
0  18.964052 -94.468033 19.253225  0.100324 -0.994314 -0.035705  0.132762 0.900522 1 1 1.000000
0  19.283791 -94.425194 18.889309  0.094085 -0.995143 -0.028957  0.092839 0.882424 1 1 1.000000
lit
0  19.346373 -94.418739 18.857311  0.085368 -0.995847 -0.031643  0.089328 0.878882 1 1 1.000000
0  20.583561 -94.316818 18.755674  0.088048 -0.993301 0.074843  0.078217 0.796833 1 1 1.000000
0  22.041742 -94.190170 18.721539  0.086943 -0.994843 0.052228  0.074485 0.700128 1 1 1.000000
lit
0  22.041742 -94.190170 18.721539  0.086943 -0.994843 0.052228  0.074485 0.700128 1 1 1.000000
0  22.678114 -94.133568 18.753786  0.084570 -0.993618 0.074644  0.078011 0.657925 1 1 1.000000
0  22.737167 -94.125893 18.788736  0.087495 -0.993775 0.068963  0.081832 0.654009 1 1 1.000000
lit
0  19.346373 -94.418739 18.857311  0.085368 -0.995847 -0.031643  0.089328 0.878882 1 1 1.000000
0  22.041742 -94.190170 18.721539  0.086943 -0.994843 0.052228  0.074485 0.700128 1 1 1.000000
0  22.737167 -94.125893 18.788736  0.087495 -0.993775 0.068963  0.081832 0.654009 1 1 1.000000
lit
0  19.283791 -94.425194 18.889309  0.094085 -0.995143 -0.028957  0.092839 0.882424 1 1 1.000000
0  19.346373 -94.418739 18.857311  0.085368 -0.995847 -0.031643  0.089328 0.878882 1 1 1.000000
0  22.737167 -94.125893 18.788736  0.087495 -0.993775 0.068963  0.081832 0.654009 1 1 1.000000
lit
0  -23.278948 -94.045937 21.530436  -0.105912 -0.994109 -0.023032  0.381559 0.617636 1 1 1.000000
0  -23.334982 -94.031288 21.044550  -0.107069 -0.994158 -0.013640  0.328441 0.613920 1 1 1.000000
0  -18.374594 -94.560638 20.829294  -0.104598 -0.994506 0.004233  0.305666 0.933507 1 1 1.000000
lit
0  -18.374594 -94.560638 20.829294  -0.104598 -0.994506 0.004233  0.305666 0.933507 1 1 1.000000
0  -18.398046 -94.553215 21.260769  -0.100208 -0.994842 0.015764  0.353001 0.932180 1 1 1.000000
0  -23.278948 -94.045937 21.530436  -0.105912 -0.994109 -0.023032  0.381559 0.617636 1 1 1.000000
lit
0  -18.621628 -94.505280 22.083878  -0.091962 -0.994885 0.041798  0.443301 0.919525 1 1 1.000000
0  -22.982889 -94.112251 22.443926  -0.089513 -0.994187 -0.059834  0.481423 0.637270 1 1 1.000000
0  -23.155523 -94.073723 21.998390  -0.100134 -0.994364 -0.034845  0.432716 0.625821 1 1 1.000000
lit
0  -23.155523 -94.073723 21.998390  -0.100134 -0.994364 -0.034845  0.432716 0.625821 1 1 1.000000
0  -18.474520 -94.535042 21.684500  -0.095999 -0.994912 0.030582  0.399487 0.927851 1 1 1.000000
0  -18.621628 -94.505280 22.083878  -0.091962 -0.994885 0.041798  0.443301 0.919525 1 1 1.000000
lit
0  -23.155523 -94.073723 21.998390  -0.100134 -0.994364 -0.034845  0.432716 0.625821 1 1 1.000000
0  -23.278948 -94.045937 21.530436  -0.105912 -0.994109 -0.023032  0.381559 0.617636 1 1 1.000000
0  -18.398046 -94.553215 21.260769  -0.100208 -0.994842 0.015764  0.353001 0.932180 1 1 1.000000
lit
0  -18.398046 -94.553215 21.260769  -0.100208 -0.994842 0.015764  0.353001 0.932180 1 1 1.000000
0  -18.474520 -94.535042 21.684500  -0.095999 -0.994912 0.030582  0.399487 0.927851 1 1 1.000000
0  -23.155523 -94.073723 21.998390  -0.100134 -0.994364 -0.034845  0.432716 0.625821 1 1 1.000000
lit
0  -18.867390 -94.459267 22.521925  -0.076186 -0.994041 0.077962  0.491357 0.905615 1 1 1.000000
0  -18.926769 -94.441734 22.614649  -0.054502 -0.986943 0.151567  0.501530 0.902254 1 1 1.000000
0  -22.581686 -94.192871 22.920591  -0.087860 -0.983008 -0.161171  0.533533 0.663877 1 1 1.000000
lit
0  -22.581686 -94.192871 22.920591  -0.087860 -0.983008 -0.161171  0.533533 0.663877 1 1 1.000000
0  -22.711185 -94.174698 22.881361  -0.082982 -0.991259 -0.102568  0.529244 0.655289 1 1 1.000000
0  -18.867390 -94.459267 22.521925  -0.076186 -0.994041 0.077962  0.491357 0.905615 1 1 1.000000
lit
0  -22.982889 -94.112251 22.443926  -0.089513 -0.994187 -0.059834  0.481423 0.637270 1 1 1.000000
0  -18.621628 -94.505280 22.083878  -0.091962 -0.994885 0.041798  0.443301 0.919525 1 1 1.000000
0  -18.867390 -94.459267 22.521925  -0.076186 -0.994041 0.077962  0.491357 0.905615 1 1 1.000000
lit
0  -18.867390 -94.459267 22.521925  -0.076186 -0.994041 0.077962  0.491357 0.905615 1 1 1.000000
0  -22.711185 -94.174698 22.881361  -0.082982 -0.991259 -0.102568  0.529244 0.655289 1 1 1.000000
0  -22.982889 -94.112251 22.443926  -0.089513 -0.994187 -0.059834  0.481423 0.637270 1 1 1.000000
lit
0  -23.332298 -94.026535 20.555096  -0.106564 -0.994294 -0.004945  0.274933 0.614098 1 1 1.000000
0  -23.265383 -94.034660 20.073486  -0.104194 -0.994546 0.004581  0.222282 0.618535 1 1 1.000000
0  -18.545200 -94.535820 19.988047  -0.106857 -0.994091 -0.019083  0.213376 0.923851 1 1 1.000000
lit
0  -18.545200 -94.535820 19.988047  -0.106857 -0.994091 -0.019083  0.213376 0.923851 1 1 1.000000
0  -18.426537 -94.554657 20.401079  -0.106781 -0.994256 -0.007284  0.258688 0.930567 1 1 1.000000
0  -23.332298 -94.026535 20.555096  -0.106564 -0.994294 -0.004945  0.274933 0.614098 1 1 1.000000
lit
0  -18.426537 -94.554657 20.401079  -0.106781 -0.994256 -0.007284  0.258688 0.930567 1 1 1.000000
0  -18.374594 -94.560638 20.829294  -0.104598 -0.994506 0.004233  0.305666 0.933507 1 1 1.000000
0  -23.334982 -94.031288 21.044550  -0.107069 -0.994158 -0.013640  0.328441 0.613920 1 1 1.000000
lit
0  -23.334982 -94.031288 21.044550  -0.107069 -0.994158 -0.013640  0.328441 0.613920 1 1 1.000000
0  -23.332298 -94.026535 20.555096  -0.106564 -0.994294 -0.004945  0.274933 0.614098 1 1 1.000000
0  -18.426537 -94.554657 20.401079  -0.106781 -0.994256 -0.007284  0.258688 0.930567 1 1 1.000000
lit
0  -23.146061 -94.051765 19.608387  -0.100333 -0.994874 0.012600  0.171437 0.626449 1 1 1.000000
0  -22.967304 -94.078094 19.173599  -0.094322 -0.994962 0.033970  0.123905 0.638304 1 1 1.000000
0  -18.957378 -94.468033 19.253229  -0.100324 -0.994314 -0.035699  0.132762 0.900522 1 1 1.000000
lit
0  -18.957378 -94.468033 19.253229  -0.100324 -0.994314 -0.035699  0.132762 0.900522 1 1 1.000000
0  -18.722118 -94.506096 19.600744  -0.104636 -0.994046 -0.030396  0.170887 0.913837 1 1 1.000000
0  -23.146061 -94.051765 19.608387  -0.100333 -0.994874 0.012600  0.171437 0.626449 1 1 1.000000
lit
0  -18.722118 -94.506096 19.600744  -0.104636 -0.994046 -0.030396  0.170887 0.913837 1 1 1.000000
0  -18.545200 -94.535820 19.988047  -0.106857 -0.994091 -0.019083  0.213376 0.923851 1 1 1.000000
0  -23.265383 -94.034660 20.073486  -0.104194 -0.994546 0.004581  0.222282 0.618535 1 1 1.000000
lit
0  -23.265383 -94.034660 20.073486  -0.104194 -0.994546 0.004581  0.222282 0.618535 1 1 1.000000
0  -23.146061 -94.051765 19.608387  -0.100333 -0.994874 0.012600  0.171437 0.626449 1 1 1.000000
0  -18.722118 -94.506096 19.600744  -0.104636 -0.994046 -0.030396  0.170887 0.913837 1 1 1.000000
lit
0  -22.967304 -94.078094 19.173599  -0.094322 -0.994962 0.033970  0.123905 0.638304 1 1 1.000000
0  -22.730495 -94.125893 18.788740  -0.087494 -0.993776 0.068950  0.081832 0.654009 1 1 1.000000
0  -19.277121 -94.425194 18.889313  -0.094086 -0.995143 -0.028947  0.092839 0.882424 1 1 1.000000
lit
0  -19.277121 -94.425194 18.889313  -0.094086 -0.995143 -0.028947  0.092839 0.882424 1 1 1.000000
0  -18.957378 -94.468033 19.253229  -0.100324 -0.994314 -0.035699  0.132762 0.900522 1 1 1.000000
0  -22.967304 -94.078094 19.173599  -0.094322 -0.994962 0.033970  0.123905 0.638304 1 1 1.000000
lit
0  -22.035072 -94.190170 18.721542  -0.086942 -0.994843 0.052227  0.074485 0.700128 1 1 1.000000
0  -20.576891 -94.316818 18.755678  -0.088045 -0.993250 0.075513  0.078217 0.796833 1 1 1.000000
0  -19.339701 -94.418739 18.857315  -0.085375 -0.995847 -0.031616  0.089328 0.878882 1 1 1.000000
lit
0  -22.730495 -94.125893 18.788740  -0.087494 -0.993776 0.068950  0.081832 0.654009 1 1 1.000000
0  -22.671442 -94.133568 18.753790  -0.084578 -0.993649 0.074217  0.078011 0.657925 1 1 1.000000
0  -22.035072 -94.190170 18.721542  -0.086942 -0.994843 0.052227  0.074485 0.700128 1 1 1.000000
lit
0  -22.730495 -94.125893 18.788740  -0.087494 -0.993776 0.068950  0.081832 0.654009 1 1 1.000000
0  -22.035072 -94.190170 18.721542  -0.086942 -0.994843 0.052227  0.074485 0.700128 1 1 1.000000
0  -19.339701 -94.418739 18.857315  -0.085375 -0.995847 -0.031616  0.089328 0.878882 1 1 1.000000
lit
0  -22.730495 -94.125893 18.788740  -0.087494 -0.993776 0.068950  0.081832 0.654009 1 1 1.000000
0  -19.339701 -94.418739 18.857315  -0.085375 -0.995847 -0.031616  0.089328 0.878882 1 1 1.000000
0  -19.277121 -94.425194 18.889313  -0.094086 -0.995143 -0.028947  0.092839 0.882424 1 1 1.000000
end
