version 1
nodes
0 "blender_implicit" -1
1 "root" -1
2 "steering_wheel" 1
end
skeleton
time 0
0  0.000000 0.000000 0.000000  0.000000 -0.000000 0.000000
1  0.000000 0.000000 0.000000  1.570796 -0.000000 0.000000
2  -16.760822 27.162848 14.547910  0.000000 -0.000000 0.000000
end
triangles
exhaust
0  17.413984 101.622177 8.409713  0.053775 0.998553 0.000533  0.584979 0.997070 1 1 1.000000
0  17.413982 101.622177 3.096866  0.054257 0.998527 -0.000628  0.584979 0.633778 1 1 1.000000
0  14.674975 101.773575 3.096867  0.053820 0.998551 -0.000377  0.411145 0.633778 1 1 1.000000
exhaust
0  14.674975 101.773575 3.096867  0.053820 0.998551 -0.000377  0.411145 0.633778 1 1 1.000000
0  13.009551 101.856163 3.482255  0.053857 0.998549 -0.000013  0.298837 0.658193 1 1 1.000000
0  11.839623 101.924980 4.514543  0.053793 0.998552 -0.000256  0.218757 0.728507 1 1 1.000000
exhaust
0  11.839623 101.924980 4.514543  0.053793 0.998552 -0.000256  0.218757 0.728507 1 1 1.000000
0  11.385417 101.952507 5.945984  0.053888 0.998547 -0.000000  0.188482 0.828120 1 1 1.000000
0  11.839623 101.924980 7.391188  0.053876 0.998548 0.000028  0.218757 0.926756 1 1 1.000000
exhaust
0  14.674975 101.773575 3.096867  0.053820 0.998551 -0.000377  0.411145 0.633778 1 1 1.000000
0  11.839623 101.924980 4.514543  0.053793 0.998552 -0.000256  0.218757 0.728507 1 1 1.000000
0  11.839623 101.924980 7.391188  0.053876 0.998548 0.000028  0.218757 0.926756 1 1 1.000000
exhaust
0  17.413984 101.622177 8.409713  0.053775 0.998553 0.000533  0.584979 0.997070 1 1 1.000000
0  14.674975 101.773575 3.096867  0.053820 0.998551 -0.000377  0.411145 0.633778 1 1 1.000000
0  11.839623 101.924980 7.391188  0.053876 0.998548 0.000028  0.218757 0.926756 1 1 1.000000
exhaust
0  17.413984 101.622177 8.409713  0.053775 0.998553 0.000533  0.584979 0.997070 1 1 1.000000
0  11.839623 101.924980 7.391188  0.053876 0.998548 0.000028  0.218757 0.926756 1 1 1.000000
0  13.009551 101.856163 8.409713  0.053862 0.998548 0.000018  0.298837 0.997070 1 1 1.000000
exhaust
0  11.894680 85.711174 3.482255  -0.456219 0.031776 -0.889300  0.033204 0.241188 1 1 1.000000
0  10.710988 85.779991 4.514543  -0.835815 0.058046 -0.545934  0.017579 0.241188 1 1 1.000000
0  11.839623 101.924980 4.514543  -0.834483 0.058002 -0.547973  0.017579 0.979492 1 1 1.000000
exhaust
0  11.839623 101.924980 4.514543  -0.834483 0.058002 -0.547973  0.017579 0.979492 1 1 1.000000
0  13.009551 101.856163 3.482255  -0.452585 0.031432 -0.891167  0.033204 0.979492 1 1 1.000000
0  11.894680 85.711174 3.482255  -0.456219 0.031776 -0.889300  0.033204 0.241188 1 1 1.000000
exhaust
0  10.710988 85.779991 4.514543  -0.835815 0.058046 -0.545934  0.017579 0.241188 1 1 1.000000
0  10.270545 85.807518 5.945984  -0.997599 0.069248 -0.000095  0.001953 0.241188 1 1 1.000000
0  11.385417 101.952507 5.945984  -0.997595 0.069315 -0.000132  0.001953 0.979492 1 1 1.000000
exhaust
0  11.385417 101.952507 5.945984  -0.997595 0.069315 -0.000132  0.001953 0.979492 1 1 1.000000
0  11.839623 101.924980 4.514543  -0.834483 0.058002 -0.547973  0.017579 0.979492 1 1 1.000000
0  10.710988 85.779991 4.514543  -0.835815 0.058046 -0.545934  0.017579 0.241188 1 1 1.000000
exhaust
0  22.313913 85.146851 5.945983  0.997589 -0.069404 -0.000430  0.183599 0.241188 1 1 1.000000
0  21.859707 85.174377 4.514542  0.834426 -0.057990 -0.548061  0.166997 0.241188 1 1 1.000000
0  22.988340 101.319366 4.514542  0.835880 -0.058049 -0.545834  0.166997 0.979492 1 1 1.000000
exhaust
0  22.988340 101.319366 4.514542  0.835880 -0.058049 -0.545834  0.166997 0.979492 1 1 1.000000
0  23.428782 101.305603 5.945983  0.997599 -0.069260 -0.000051  0.183599 0.979492 1 1 1.000000
0  22.313913 85.146851 5.945983  0.997589 -0.069404 -0.000430  0.183599 0.241188 1 1 1.000000
exhaust
0  21.859707 85.174377 4.514542  0.834426 -0.057990 -0.548061  0.166997 0.241188 1 1 1.000000
0  20.689777 85.243195 3.482254  0.452862 -0.031437 -0.891026  0.151372 0.241188 1 1 1.000000
0  21.804649 101.388199 3.482254  0.456218 -0.031776 -0.889300  0.151372 0.979492 1 1 1.000000
exhaust
0  21.804649 101.388199 3.482254  0.456218 -0.031776 -0.889300  0.151372 0.979492 1 1 1.000000
0  22.988340 101.319366 4.514542  0.835880 -0.058049 -0.545834  0.166997 0.979492 1 1 1.000000
0  21.859707 85.174377 4.514542  0.834426 -0.057990 -0.548061  0.166997 0.241188 1 1 1.000000
exhaust
0  20.689777 85.243195 3.482254  0.452862 -0.031437 -0.891026  0.151372 0.241188 1 1 1.000000
0  19.024353 85.325783 3.096866  0.113729 -0.007900 -0.993480  0.128910 0.241188 1 1 1.000000
0  20.152987 101.470779 3.096866  0.115145 -0.007958 -0.993317  0.128910 0.979492 1 1 1.000000
exhaust
0  20.152987 101.470779 3.096866  0.115145 -0.007958 -0.993317  0.128910 0.979492 1 1 1.000000
0  21.804649 101.388199 3.482254  0.456218 -0.031776 -0.889300  0.151372 0.979492 1 1 1.000000
0  20.689777 85.243195 3.482254  0.452862 -0.031437 -0.891026  0.151372 0.241188 1 1 1.000000
exhaust
0  20.152987 101.470779 3.096866  0.115145 -0.007958 -0.993317  0.128910 0.979492 1 1 1.000000
0  19.024353 85.325783 3.096866  0.113729 -0.007900 -0.993480  0.128910 0.241188 1 1 1.000000
0  16.285347 85.477180 3.096867  -0.000000 -0.000000 -1.000000  0.092776 0.241188 1 1 1.000000
exhaust
0  16.285347 85.477180 3.096867  -0.000000 -0.000000 -1.000000  0.092776 0.241188 1 1 1.000000
0  17.413982 101.622177 3.096866  -0.000000 -0.000000 -1.000000  0.092776 0.979492 1 1 1.000000
0  20.152987 101.470779 3.096866  0.115145 -0.007958 -0.993317  0.128910 0.979492 1 1 1.000000
exhaust
0  13.546342 85.628586 3.096867  -0.115976 0.008045 -0.993219  0.055666 0.241188 1 1 1.000000
0  11.894680 85.711174 3.482255  -0.456219 0.031776 -0.889300  0.033204 0.241188 1 1 1.000000
0  13.009551 101.856163 3.482255  -0.452585 0.031432 -0.891167  0.033204 0.979492 1 1 1.000000
exhaust
0  13.009551 101.856163 3.482255  -0.452585 0.031432 -0.891167  0.033204 0.979492 1 1 1.000000
0  14.674975 101.773575 3.096867  -0.113879 0.007905 -0.993463  0.055666 0.979492 1 1 1.000000
0  13.546342 85.628586 3.096867  -0.115976 0.008045 -0.993219  0.055666 0.241188 1 1 1.000000
exhaust
0  16.285347 85.477180 3.096867  -0.053875 -0.998548 0.000036  0.588885 0.204077 1 1 1.000000
0  16.285347 85.477180 8.409713  -0.054019 -0.998540 -0.000543  0.588885 0.593738 1 1 1.000000
0  11.894680 85.711174 8.409713  -0.053947 -0.998544 -0.000009  0.881863 0.593738 1 1 1.000000
exhaust
0  11.894680 85.711174 8.409713  -0.053947 -0.998544 -0.000009  0.881863 0.593738 1 1 1.000000
0  10.710988 85.779991 7.391188  -0.054055 -0.998538 -0.000110  0.960967 0.518540 1 1 1.000000
0  10.270545 85.807518 5.945984  -0.053960 -0.998543 -0.000001  0.991241 0.413068 1 1 1.000000
exhaust
0  10.270545 85.807518 5.945984  -0.053960 -0.998543 -0.000001  0.991241 0.413068 1 1 1.000000
0  10.710988 85.779991 4.514543  -0.053997 -0.998541 0.000072  0.960967 0.307596 1 1 1.000000
0  11.894680 85.711174 3.482255  -0.053925 -0.998545 -0.000029  0.881863 0.232398 1 1 1.000000
exhaust
0  11.894680 85.711174 8.409713  -0.053947 -0.998544 -0.000009  0.881863 0.593738 1 1 1.000000
0  10.270545 85.807518 5.945984  -0.053960 -0.998543 -0.000001  0.991241 0.413068 1 1 1.000000
0  11.894680 85.711174 3.482255  -0.053925 -0.998545 -0.000029  0.881863 0.232398 1 1 1.000000
exhaust
0  16.285347 85.477180 3.096867  -0.053875 -0.998548 0.000036  0.588885 0.204077 1 1 1.000000
0  11.894680 85.711174 8.409713  -0.053947 -0.998544 -0.000009  0.881863 0.593738 1 1 1.000000
0  11.894680 85.711174 3.482255  -0.053925 -0.998545 -0.000029  0.881863 0.232398 1 1 1.000000
exhaust
0  16.285347 85.477180 3.096867  -0.053875 -0.998548 0.000036  0.588885 0.204077 1 1 1.000000
0  11.894680 85.711174 3.482255  -0.053925 -0.998545 -0.000029  0.881863 0.232398 1 1 1.000000
0  13.546342 85.628586 3.096867  -0.053897 -0.998546 -0.000076  0.771508 0.204077 1 1 1.000000
exhaust
0  11.894680 85.711174 8.409713  -0.352045 0.024443 0.935664  0.044923 0.241188 1 1 1.000000
0  13.009551 101.856163 8.409713  -0.346727 0.023943 0.937660  0.044923 0.979492 1 1 1.000000
0  11.839623 101.924980 7.391188  -0.833714 0.058009 0.549141  0.017579 0.979492 1 1 1.000000
exhaust
0  11.839623 101.924980 7.391188  -0.833714 0.058009 0.549141  0.017579 0.979492 1 1 1.000000
0  10.710988 85.779991 7.391188  -0.835577 0.058012 0.546302  0.017579 0.241188 1 1 1.000000
0  11.894680 85.711174 8.409713  -0.352045 0.024443 0.935664  0.044923 0.241188 1 1 1.000000
exhaust
0  10.710988 85.779991 7.391188  -0.835577 0.058012 0.546302  0.017579 0.241188 1 1 1.000000
0  11.839623 101.924980 7.391188  -0.833714 0.058009 0.549141  0.017579 0.979492 1 1 1.000000
0  11.385417 101.952507 5.945984  -0.997595 0.069315 -0.000132  0.001953 0.979492 1 1 1.000000
exhaust
0  11.385417 101.952507 5.945984  -0.997595 0.069315 -0.000132  0.001953 0.979492 1 1 1.000000
0  10.270545 85.807518 5.945984  -0.997599 0.069248 -0.000095  0.001953 0.241188 1 1 1.000000
0  10.710988 85.779991 7.391188  -0.835577 0.058012 0.546302  0.017579 0.241188 1 1 1.000000
exhaust
0  22.313913 85.146851 5.945983  0.997589 -0.069404 -0.000430  0.183599 0.241188 1 1 1.000000
0  23.428782 101.305603 5.945983  0.997599 -0.069260 -0.000051  0.183599 0.979492 1 1 1.000000
0  22.988340 101.319366 7.391187  0.836189 -0.058026 0.545364  0.166997 0.979492 1 1 1.000000
exhaust
0  22.988340 101.319366 7.391187  0.836189 -0.058026 0.545364  0.166997 0.979492 1 1 1.000000
0  21.859707 85.174377 7.391187  0.833714 -0.058009 0.549142  0.166997 0.241188 1 1 1.000000
0  22.313913 85.146851 5.945983  0.997589 -0.069404 -0.000430  0.183599 0.241188 1 1 1.000000
exhaust
0  21.859707 85.174377 7.391187  0.833714 -0.058009 0.549142  0.166997 0.241188 1 1 1.000000
0  22.988340 101.319366 7.391187  0.836189 -0.058026 0.545364  0.166997 0.979492 1 1 1.000000
0  21.804651 101.388199 8.409712  0.352126 -0.024445 0.935633  0.139653 0.979492 1 1 1.000000
exhaust
0  21.804651 101.388199 8.409712  0.352126 -0.024445 0.935633  0.139653 0.979492 1 1 1.000000
0  20.689777 85.243195 8.409712  0.346722 -0.023943 0.937662  0.139653 0.241188 1 1 1.000000
0  21.859707 85.174377 7.391187  0.833714 -0.058009 0.549142  0.166997 0.241188 1 1 1.000000
exhaust
0  16.285347 85.477180 8.409713  0.000000 -0.000000 1.000000  0.092776 0.241188 1 1 1.000000
0  20.689777 85.243195 8.409712  0.346722 -0.023943 0.937662  0.139653 0.241188 1 1 1.000000
0  21.804651 101.388199 8.409712  0.352126 -0.024445 0.935633  0.139653 0.979492 1 1 1.000000
exhaust
0  21.804651 101.388199 8.409712  0.352126 -0.024445 0.935633  0.139653 0.979492 1 1 1.000000
0  17.413984 101.622177 8.409713  0.000000 -0.000000 1.000000  0.092776 0.979492 1 1 1.000000
0  16.285347 85.477180 8.409713  0.000000 -0.000000 1.000000  0.092776 0.241188 1 1 1.000000
exhaust
0  21.804649 101.388199 3.482254  0.053882 0.998547 -0.000086  0.298837 0.658193 1 1 1.000000
0  20.152987 101.470779 3.096866  0.053871 0.998548 0.000018  0.411145 0.633778 1 1 1.000000
0  17.413982 101.622177 3.096866  0.054257 0.998527 -0.000628  0.584979 0.633778 1 1 1.000000
exhaust
0  17.413982 101.622177 3.096866  0.054257 0.998527 -0.000628  0.584979 0.633778 1 1 1.000000
0  17.413984 101.622177 8.409713  0.053775 0.998553 0.000533  0.584979 0.997070 1 1 1.000000
0  21.804651 101.388199 8.409712  0.053937 0.998544 0.000214  0.298837 0.997070 1 1 1.000000
exhaust
0  21.804649 101.388199 3.482254  0.053882 0.998547 -0.000086  0.298837 0.658193 1 1 1.000000
0  17.413982 101.622177 3.096866  0.054257 0.998527 -0.000628  0.584979 0.633778 1 1 1.000000
0  21.804651 101.388199 8.409712  0.053937 0.998544 0.000214  0.298837 0.997070 1 1 1.000000
exhaust
0  21.804651 101.388199 8.409712  0.053937 0.998544 0.000214  0.298837 0.997070 1 1 1.000000
0  22.988340 101.319366 7.391187  0.053871 0.998548 -0.000002  0.218757 0.926756 1 1 1.000000
0  23.428782 101.305603 5.945983  0.054593 0.998509 -0.000011  0.188482 0.828120 1 1 1.000000
exhaust
0  21.804649 101.388199 3.482254  0.053882 0.998547 -0.000086  0.298837 0.658193 1 1 1.000000
0  21.804651 101.388199 8.409712  0.053937 0.998544 0.000214  0.298837 0.997070 1 1 1.000000
0  23.428782 101.305603 5.945983  0.054593 0.998509 -0.000011  0.188482 0.828120 1 1 1.000000
exhaust
0  21.804649 101.388199 3.482254  0.053882 0.998547 -0.000086  0.298837 0.658193 1 1 1.000000
0  23.428782 101.305603 5.945983  0.054593 0.998509 -0.000011  0.188482 0.828120 1 1 1.000000
0  22.988340 101.319366 4.514542  0.053885 0.998547 0.000004  0.218757 0.728507 1 1 1.000000
exhaust
0  17.413982 101.622177 3.096866  -0.000000 -0.000000 -1.000000  0.092776 0.979492 1 1 1.000000
0  16.285347 85.477180 3.096867  -0.000000 -0.000000 -1.000000  0.092776 0.241188 1 1 1.000000
0  13.546342 85.628586 3.096867  -0.115976 0.008045 -0.993219  0.055666 0.241188 1 1 1.000000
exhaust
0  13.546342 85.628586 3.096867  -0.115976 0.008045 -0.993219  0.055666 0.241188 1 1 1.000000
0  14.674975 101.773575 3.096867  -0.113879 0.007905 -0.993463  0.055666 0.979492 1 1 1.000000
0  17.413982 101.622177 3.096866  -0.000000 -0.000000 -1.000000  0.092776 0.979492 1 1 1.000000
exhaust
0  21.859707 85.174377 7.391187  -0.053888 -0.998547 -0.000029  0.960967 0.518540 1 1 1.000000
0  20.689777 85.243195 8.409712  -0.053893 -0.998547 0.000022  0.881863 0.593738 1 1 1.000000
0  16.285347 85.477180 8.409713  -0.054019 -0.998540 -0.000543  0.588885 0.593738 1 1 1.000000
exhaust
0  16.285347 85.477180 8.409713  -0.054019 -0.998540 -0.000543  0.588885 0.593738 1 1 1.000000
0  16.285347 85.477180 3.096867  -0.053875 -0.998548 0.000036  0.588885 0.204077 1 1 1.000000
0  19.024353 85.325783 3.096866  -0.053883 -0.998547 -0.000096  0.771508 0.204077 1 1 1.000000
exhaust
0  21.859707 85.174377 7.391187  -0.053888 -0.998547 -0.000029  0.960967 0.518540 1 1 1.000000
0  16.285347 85.477180 8.409713  -0.054019 -0.998540 -0.000543  0.588885 0.593738 1 1 1.000000
0  19.024353 85.325783 3.096866  -0.053883 -0.998547 -0.000096  0.771508 0.204077 1 1 1.000000
exhaust
0  19.024353 85.325783 3.096866  -0.053883 -0.998547 -0.000096  0.771508 0.204077 1 1 1.000000
0  20.689777 85.243195 3.482254  -0.053884 -0.998547 -0.000040  0.881863 0.232398 1 1 1.000000
0  21.859707 85.174377 4.514542  -0.053817 -0.998551 -0.000264  0.960967 0.307596 1 1 1.000000
exhaust
0  21.859707 85.174377 7.391187  -0.053888 -0.998547 -0.000029  0.960967 0.518540 1 1 1.000000
0  19.024353 85.325783 3.096866  -0.053883 -0.998547 -0.000096  0.771508 0.204077 1 1 1.000000
0  21.859707 85.174377 4.514542  -0.053817 -0.998551 -0.000264  0.960967 0.307596 1 1 1.000000
exhaust
0  21.859707 85.174377 7.391187  -0.053888 -0.998547 -0.000029  0.960967 0.518540 1 1 1.000000
0  21.859707 85.174377 4.514542  -0.053817 -0.998551 -0.000264  0.960967 0.307596 1 1 1.000000
0  22.313913 85.146851 5.945983  -0.053888 -0.998547 -0.000000  0.991241 0.413068 1 1 1.000000
exhaust
0  16.285347 85.477180 8.409713  0.000000 -0.000000 1.000000  0.092776 0.241188 1 1 1.000000
0  17.413984 101.622177 8.409713  0.000000 -0.000000 1.000000  0.092776 0.979492 1 1 1.000000
0  13.009551 101.856163 8.409713  -0.346727 0.023943 0.937660  0.044923 0.979492 1 1 1.000000
exhaust
0  13.009551 101.856163 8.409713  -0.346727 0.023943 0.937660  0.044923 0.979492 1 1 1.000000
0  11.894680 85.711174 8.409713  -0.352045 0.024443 0.935664  0.044923 0.241188 1 1 1.000000
0  16.285347 85.477180 8.409713  0.000000 -0.000000 1.000000  0.092776 0.241188 1 1 1.000000
exhaust
0  11.757041 80.095520 2.408675  -0.048301 0.140598 -0.988888  0.092776 0.489242 1 1 1.000000
0  10.655933 80.508438 3.633657  -0.905683 0.422894 -0.029972  0.013672 0.489242 1 1 1.000000
0  14.977783 85.807518 4.927459  -0.795862 0.597286 0.099260  0.013672 0.266579 1 1 1.000000
exhaust
0  14.977783 85.807518 4.927459  -0.795862 0.597286 0.099260  0.013672 0.266579 1 1 1.000000
0  16.120182 85.724937 3.688712  0.287425 0.009772 -0.957753  0.092776 0.266579 1 1 1.000000
0  11.757041 80.095520 2.408675  -0.048301 0.140598 -0.988888  0.092776 0.489242 1 1 1.000000
exhaust
0  11.757041 80.095520 4.872403  -0.139789 -0.040458 0.989354  0.092776 0.489242 1 1 1.000000
0  16.120182 85.724937 6.166205  0.186814 -0.331138 0.924905  0.092776 0.266579 1 1 1.000000
0  14.977783 85.807518 4.927459  -0.795862 0.597286 0.099260  0.013672 0.266579 1 1 1.000000
exhaust
0  14.977783 85.807518 4.927459  -0.795862 0.597286 0.099260  0.013672 0.266579 1 1 1.000000
0  10.655933 80.508438 3.633657  -0.905683 0.422894 -0.029972  0.013672 0.489242 1 1 1.000000
0  11.757041 80.095520 4.872403  -0.139789 -0.040458 0.989354  0.092776 0.489242 1 1 1.000000
exhaust
0  12.858150 79.668839 3.647421  0.907131 -0.418870 -0.040752  0.166997 0.489242 1 1 1.000000
0  17.262581 85.642349 4.927458  0.799335 -0.598989 0.047716  0.166997 0.266579 1 1 1.000000
0  16.120182 85.724937 6.166205  0.186814 -0.331138 0.924905  0.092776 0.266579 1 1 1.000000
exhaust
0  16.120182 85.724937 6.166205  0.186814 -0.331138 0.924905  0.092776 0.266579 1 1 1.000000
0  11.757041 80.095520 4.872403  -0.139789 -0.040458 0.989354  0.092776 0.489242 1 1 1.000000
0  12.858150 79.668839 3.647421  0.907131 -0.418870 -0.040752  0.166997 0.489242 1 1 1.000000
exhaust
0  12.858150 79.668839 3.647421  0.907131 -0.418870 -0.040752  0.166997 0.489242 1 1 1.000000
0  11.757041 80.095520 2.408675  -0.048301 0.140598 -0.988888  0.092776 0.489242 1 1 1.000000
0  16.120182 85.724937 3.688712  0.287425 0.009772 -0.957753  0.092776 0.266579 1 1 1.000000
exhaust
0  16.120182 85.724937 3.688712  0.287425 0.009772 -0.957753  0.092776 0.266579 1 1 1.000000
0  17.262581 85.642349 4.927458  0.799335 -0.598989 0.047716  0.166997 0.266579 1 1 1.000000
0  12.858150 79.668839 3.647421  0.907131 -0.418870 -0.040752  0.166997 0.489242 1 1 1.000000
exhaust
0  6.278928 43.019875 2.048391  -0.970041 0.242238 -0.018457  0.013672 0.558580 1 1 1.000000
0  7.421329 42.717068 0.823409  0.069869 -0.003284 -0.997551  0.092776 0.558580 1 1 1.000000
0  4.475865 35.725037 1.016103  0.065687 -0.058481 -0.996125  0.092776 0.625965 1 1 1.000000
exhaust
0  4.475865 35.725037 1.016103  0.065687 -0.058481 -0.996125  0.092776 0.625965 1 1 1.000000
0  3.512397 36.371937 2.254849  -0.923214 0.384058 0.013253  0.013672 0.625965 1 1 1.000000
0  6.278928 43.019875 2.048391  -0.970041 0.242238 -0.018457  0.013672 0.558580 1 1 1.000000
exhaust
0  4.475866 35.725037 3.479832  0.091628 -0.011902 0.995722  0.092776 0.625965 1 1 1.000000
0  7.421329 42.717068 3.287138  0.068880 -0.024120 0.997333  0.092776 0.558580 1 1 1.000000
0  6.278928 43.019875 2.048391  -0.970041 0.242238 -0.018457  0.013672 0.558580 1 1 1.000000
exhaust
0  6.278928 43.019875 2.048391  -0.970041 0.242238 -0.018457  0.013672 0.558580 1 1 1.000000
0  3.512397 36.371937 2.254849  -0.923214 0.384058 0.013253  0.013672 0.625965 1 1 1.000000
0  4.475866 35.725037 3.479832  0.091628 -0.011902 0.995722  0.092776 0.625965 1 1 1.000000
exhaust
0  5.453099 35.091896 2.254849  0.921496 -0.388258 0.010061  0.166997 0.625965 1 1 1.000000
0  8.563729 42.400497 2.048391  0.970358 -0.241269 -0.013943  0.166997 0.558580 1 1 1.000000
0  7.421329 42.717068 3.287138  0.068880 -0.024120 0.997333  0.092776 0.558580 1 1 1.000000
exhaust
0  7.421329 42.717068 3.287138  0.068880 -0.024120 0.997333  0.092776 0.558580 1 1 1.000000
0  4.475866 35.725037 3.479832  0.091628 -0.011902 0.995722  0.092776 0.625965 1 1 1.000000
0  5.453099 35.091896 2.254849  0.921496 -0.388258 0.010061  0.166997 0.625965 1 1 1.000000
exhaust
0  7.421329 42.717068 0.823409  0.069869 -0.003284 -0.997551  0.092776 0.558580 1 1 1.000000
0  8.563729 42.400497 2.048391  0.970358 -0.241269 -0.013943  0.166997 0.558580 1 1 1.000000
0  5.453099 35.091896 2.254849  0.921496 -0.388258 0.010061  0.166997 0.625965 1 1 1.000000
exhaust
0  5.453099 35.091896 2.254849  0.921496 -0.388258 0.010061  0.166997 0.625965 1 1 1.000000
0  4.475865 35.725037 1.016103  0.065687 -0.058481 -0.996125  0.092776 0.625965 1 1 1.000000
0  7.421329 42.717068 0.823409  0.069869 -0.003284 -0.997551  0.092776 0.558580 1 1 1.000000
exhaust
0  9.004272 72.084961 3.440963  -0.986838 0.161646 -0.004616  0.013672 0.523423 1 1 1.000000
0  9.871395 71.286652 2.215981  -0.028137 0.017018 -0.999459  0.092776 0.523423 1 1 1.000000
0  7.421329 42.717068 0.823409  0.069869 -0.003284 -0.997551  0.092776 0.558580 1 1 1.000000
exhaust
0  7.421329 42.717068 0.823409  0.069869 -0.003284 -0.997551  0.092776 0.558580 1 1 1.000000
0  6.278928 43.019875 2.048391  -0.970041 0.242238 -0.018457  0.013672 0.558580 1 1 1.000000
0  9.004272 72.084961 3.440963  -0.986838 0.161646 -0.004616  0.013672 0.523423 1 1 1.000000
exhaust
0  7.421329 42.717068 3.287138  0.068880 -0.024120 0.997333  0.092776 0.558580 1 1 1.000000
0  9.871395 71.286652 4.679710  -0.057587 -0.051681 0.997002  0.092776 0.523423 1 1 1.000000
0  9.004272 72.084961 3.440963  -0.986838 0.161646 -0.004616  0.013672 0.523423 1 1 1.000000
exhaust
0  9.004272 72.084961 3.440963  -0.986838 0.161646 -0.004616  0.013672 0.523423 1 1 1.000000
0  6.278928 43.019875 2.048391  -0.970041 0.242238 -0.018457  0.013672 0.558580 1 1 1.000000
0  7.421329 42.717068 3.287138  0.068880 -0.024120 0.997333  0.092776 0.558580 1 1 1.000000
exhaust
0  12.858150 79.668839 3.647421  0.907131 -0.418870 -0.040752  0.166997 0.489242 1 1 1.000000
0  11.757041 80.095520 4.872403  -0.139789 -0.040458 0.989354  0.092776 0.489242 1 1 1.000000
0  9.871395 71.286652 4.679710  -0.057587 -0.051681 0.997002  0.092776 0.523423 1 1 1.000000
exhaust
0  9.871395 71.286652 4.679710  -0.057587 -0.051681 0.997002  0.092776 0.523423 1 1 1.000000
0  10.752282 70.488350 3.440963  0.990598 -0.135559 0.018434  0.166997 0.523423 1 1 1.000000
0  12.858150 79.668839 3.647421  0.907131 -0.418870 -0.040752  0.166997 0.489242 1 1 1.000000
exhaust
0  12.858150 79.668839 3.647421  0.907131 -0.418870 -0.040752  0.166997 0.489242 1 1 1.000000
0  10.752282 70.488350 3.440963  0.990598 -0.135559 0.018434  0.166997 0.523423 1 1 1.000000
0  9.871395 71.286652 2.215981  -0.028137 0.017018 -0.999459  0.092776 0.523423 1 1 1.000000
exhaust
0  9.871395 71.286652 2.215981  -0.028137 0.017018 -0.999459  0.092776 0.523423 1 1 1.000000
0  11.757041 80.095520 2.408675  -0.048301 0.140598 -0.988888  0.092776 0.489242 1 1 1.000000
0  12.858150 79.668839 3.647421  0.907131 -0.418870 -0.040752  0.166997 0.489242 1 1 1.000000
exhaust
0  9.004272 72.084961 3.440963  -0.986838 0.161646 -0.004616  0.013672 0.523423 1 1 1.000000
0  10.655933 80.508438 3.633657  -0.905683 0.422894 -0.029972  0.013672 0.489242 1 1 1.000000
0  11.757041 80.095520 2.408675  -0.048301 0.140598 -0.988888  0.092776 0.489242 1 1 1.000000
exhaust
0  11.757041 80.095520 2.408675  -0.048301 0.140598 -0.988888  0.092776 0.489242 1 1 1.000000
0  9.871395 71.286652 2.215981  -0.028137 0.017018 -0.999459  0.092776 0.523423 1 1 1.000000
0  9.004272 72.084961 3.440963  -0.986838 0.161646 -0.004616  0.013672 0.523423 1 1 1.000000
exhaust
0  11.757041 80.095520 4.872403  -0.139789 -0.040458 0.989354  0.092776 0.489242 1 1 1.000000
0  10.655933 80.508438 3.633657  -0.905683 0.422894 -0.029972  0.013672 0.489242 1 1 1.000000
0  9.004272 72.084961 3.440963  -0.986838 0.161646 -0.004616  0.013672 0.523423 1 1 1.000000
exhaust
0  9.004272 72.084961 3.440963  -0.986838 0.161646 -0.004616  0.013672 0.523423 1 1 1.000000
0  9.871395 71.286652 4.679710  -0.057587 -0.051681 0.997002  0.092776 0.523423 1 1 1.000000
0  11.757041 80.095520 4.872403  -0.139789 -0.040458 0.989354  0.092776 0.489242 1 1 1.000000
exhaust
0  7.421329 42.717068 3.287138  0.068880 -0.024120 0.997333  0.092776 0.558580 1 1 1.000000
0  8.563729 42.400497 2.048391  0.970358 -0.241269 -0.013943  0.166997 0.558580 1 1 1.000000
0  10.752282 70.488350 3.440963  0.990598 -0.135559 0.018434  0.166997 0.523423 1 1 1.000000
exhaust
0  10.752282 70.488350 3.440963  0.990598 -0.135559 0.018434  0.166997 0.523423 1 1 1.000000
0  9.871395 71.286652 4.679710  -0.057587 -0.051681 0.997002  0.092776 0.523423 1 1 1.000000
0  7.421329 42.717068 3.287138  0.068880 -0.024120 0.997333  0.092776 0.558580 1 1 1.000000
exhaust
0  8.563729 42.400497 2.048391  0.970358 -0.241269 -0.013943  0.166997 0.558580 1 1 1.000000
0  7.421329 42.717068 0.823409  0.069869 -0.003284 -0.997551  0.092776 0.558580 1 1 1.000000
0  9.871395 71.286652 2.215981  -0.028137 0.017018 -0.999459  0.092776 0.523423 1 1 1.000000
exhaust
0  9.871395 71.286652 2.215981  -0.028137 0.017018 -0.999459  0.092776 0.523423 1 1 1.000000
0  10.752282 70.488350 3.440963  0.990598 -0.135559 0.018434  0.166997 0.523423 1 1 1.000000
0  8.563729 42.400497 2.048391  0.970358 -0.241269 -0.013943  0.166997 0.558580 1 1 1.000000
end
