version 1
nodes
0 "blender_implicit" -1
1 "root" -1
2 "steering_wheel" 1
end
skeleton
time 0
0  0.000000 0.000000 0.000000  0.000000 -0.000000 0.000000
1  0.000000 0.000000 0.000000  1.570796 -0.000000 0.000000
2  -16.760822 27.162848 14.547910  0.000000 -0.000000 0.000000
end
triangles
phy
0  22.312775 102.187721 11.187685  0.000464 0.984479 -0.175501  -3.800781 -0.416016 1 1 1.000000
0  -22.227247 102.215813 11.227551  0.000464 0.984480 -0.175497  4.791016 -0.408203 1 1 1.000000
0  -22.288620 103.241066 16.978575  0.000464 0.984480 -0.175498  4.802734 0.654297 1 1 1.000000
phy
0  -22.288620 103.241066 16.978575  0.000464 0.984480 -0.175498  4.802734 0.654297 1 1 1.000000
0  22.319435 103.220695 16.982201  0.000464 0.984479 -0.175501  -3.802734 0.656250 1 1 1.000000
0  22.312775 102.187721 11.187685  0.000464 0.984479 -0.175501  -3.800781 -0.416016 1 1 1.000000
phy
0  14.344392 -100.527176 23.029198  0.000000 -0.967062 0.254542  3.263672 1.771484 1 1 1.000000
0  -14.313812 -100.527176 23.029202  0.000000 -0.967063 0.254536  -2.263672 1.771484 1 1 1.000000
0  -14.444988 -101.610130 18.914753  0.000000 -0.967063 0.254537  -2.289062 1.011719 1 1 1.000000
phy
0  -14.444988 -101.610130 18.914753  0.000000 -0.967063 0.254537  -2.289062 1.011719 1 1 1.000000
0  14.475564 -101.610130 18.914749  0.000000 -0.967062 0.254542  3.289062 1.011719 1 1 1.000000
0  14.344392 -100.527176 23.029198  0.000000 -0.967062 0.254542  3.263672 1.771484 1 1 1.000000
phy
0  36.819111 -43.804607 4.026875  0.998559 0.014190 -0.051746  0.001953 0.001953 1 1 1.000000
0  38.129532 -47.186039 23.437420  0.997776 0.005270 -0.066443  0.001953 0.001953 1 1 1.000000
0  38.227680 -77.213898 22.529533  0.998548 0.014444 -0.051902  0.001953 0.001953 1 1 1.000000
phy
0  37.026592 42.450031 2.380587  0.992394 0.023322 -0.120876  0.001953 0.003906 1 1 1.000000
0  35.638023 79.607964 2.904919  0.988472 0.039003 -0.146291  0.001953 0.005859 1 1 1.000000
0  38.723469 75.902298 22.764963  0.992485 0.022900 -0.120206  0.001953 0.005859 1 1 1.000000
phy
0  38.723469 75.902298 22.764963  0.992485 0.022900 -0.120206  0.001953 0.005859 1 1 1.000000
0  38.941219 44.916134 22.669472  0.995467 0.007288 -0.094826  0.001953 0.005859 1 1 1.000000
0  37.026592 42.450031 2.380587  0.992394 0.023322 -0.120876  0.001953 0.003906 1 1 1.000000
phy
0  -38.695286 75.902298 22.764971  -0.992216 0.024115 -0.122175  0.003906 0.005859 1 1 1.000000
0  -35.609829 76.659714 2.904925  -0.987501 0.042410 -0.151801  0.003906 0.005859 1 1 1.000000
0  -36.998417 42.450024 2.380592  -0.992216 0.024114 -0.122176  0.003906 0.003906 1 1 1.000000
phy
0  -36.998417 42.450024 2.380592  -0.991877 0.025609 -0.124593  0.003906 0.003906 1 1 1.000000
0  -38.913036 44.916126 22.669479  -0.995467 0.007288 -0.094826  0.003906 0.005859 1 1 1.000000
0  -38.695286 75.902298 22.764971  -0.991877 0.025609 -0.124593  0.003906 0.005859 1 1 1.000000
phy
0  -36.790920 -43.804615 4.026879  -0.998660 0.014998 -0.049523  0.003906 0.001953 1 1 1.000000
0  -37.628029 -78.650284 6.024727  -0.999215 0.025851 -0.030031  0.003906 0.001953 1 1 1.000000
0  -38.199467 -77.213898 22.529541  -0.998802 0.016618 -0.046029  0.003906 0.001953 1 1 1.000000
phy
0  -38.199467 -77.213898 22.529541  -0.998802 0.016618 -0.046029  0.003906 0.001953 1 1 1.000000
0  -38.101341 -47.186047 23.437428  -0.997776 0.005270 -0.066443  0.003906 0.001953 1 1 1.000000
0  -36.790920 -43.804615 4.026879  -0.998660 0.014998 -0.049523  0.003906 0.001953 1 1 1.000000
phy
0  38.227680 -77.213898 22.529533  0.998864 0.016734 -0.044621  0.001953 0.001953 1 1 1.000000
0  37.656254 -78.650284 6.024721  0.999214 0.025828 -0.030072  0.001953 0.001953 1 1 1.000000
0  36.819111 -43.804607 4.026875  0.998836 0.017368 -0.044991  0.001953 0.001953 1 1 1.000000
phy
0  38.129532 -47.186039 23.437420  0.936902 -0.003247 0.349576  0.283203 0.888672 1 1 1.000000
0  38.941219 44.916134 22.669472  0.972636 -0.003207 0.232311  0.279297 0.890625 1 1 1.000000
0  31.578312 47.305370 34.605000  0.873894 -0.003914 0.486101  0.320312 0.847656 1 1 1.000000
phy
0  31.578312 47.305370 34.605000  0.873894 -0.003914 0.486101  0.320312 0.847656 1 1 1.000000
0  32.957394 -29.944321 33.833481  0.817965 -0.041837 0.573745  0.312500 0.849609 1 1 1.000000
0  38.129532 -47.186039 23.437420  0.936902 -0.003247 0.349576  0.283203 0.888672 1 1 1.000000
phy
0  22.923185 97.101921 37.075665  0.249907 0.013331 0.968178  0.369141 0.837891 1 1 1.000000
0  31.887215 66.161400 35.187893  0.249907 0.013331 0.968178  0.318359 0.845703 1 1 1.000000
0  31.711470 95.569008 34.828327  0.249907 0.013331 0.968178  0.320312 0.847656 1 1 1.000000
phy
0  16.352943 99.715889 32.704403  0.000000 0.858253 0.513226  0.408203 0.853516 1 1 1.000000
0  -16.324759 99.715889 32.704407  0.000000 0.858251 0.513229  0.591797 0.853516 1 1 1.000000
0  -22.894999 97.101921 37.075665  -0.030524 0.507998 0.860817  0.630859 0.837891 1 1 1.000000
phy
0  -22.894999 97.101921 37.075665  -0.030524 0.507998 0.860817  0.630859 0.837891 1 1 1.000000
0  22.923185 97.101921 37.075665  0.034746 0.342151 0.939002  0.369141 0.837891 1 1 1.000000
0  16.352943 99.715889 32.704403  0.000000 0.858253 0.513226  0.408203 0.853516 1 1 1.000000
phy
0  15.294187 101.201309 23.732531  0.046792 0.986350 0.157874  0.414062 0.886719 1 1 1.000000
0  -15.265994 101.201309 23.732534  -0.068743 0.985516 0.155022  0.585938 0.886719 1 1 1.000000
0  -16.324759 99.715889 32.704407  -0.115608 0.972786 0.200805  0.591797 0.853516 1 1 1.000000
phy
0  -16.324759 99.715889 32.704407  -0.115608 0.972786 0.200805  0.591797 0.853516 1 1 1.000000
0  16.352943 99.715889 32.704403  0.142977 0.967178 0.210060  0.408203 0.853516 1 1 1.000000
0  15.294187 101.201309 23.732531  0.046792 0.986350 0.157874  0.414062 0.886719 1 1 1.000000
phy
0  31.578312 47.305370 34.605000  0.873894 -0.003914 0.486101  0.320312 0.847656 1 1 1.000000
0  38.941219 44.916134 22.669472  0.972636 -0.003207 0.232311  0.279297 0.890625 1 1 1.000000
0  38.723469 75.902298 22.764963  0.923738 0.085556 0.373349  0.281250 0.890625 1 1 1.000000
phy
0  38.723469 75.902298 22.764963  0.923738 0.085556 0.373349  0.281250 0.890625 1 1 1.000000
0  31.887215 66.161400 35.187893  0.780433 0.028359 0.624596  0.318359 0.845703 1 1 1.000000
0  31.578312 47.305370 34.605000  0.873894 -0.003914 0.486101  0.320312 0.847656 1 1 1.000000
phy
0  31.887215 66.161400 35.187893  0.780433 0.028359 0.624596  0.318359 0.845703 1 1 1.000000
0  38.723469 75.902298 22.764963  0.923738 0.085556 0.373349  0.281250 0.890625 1 1 1.000000
0  34.191715 98.661705 23.020979  0.914322 0.339206 0.221256  0.306641 0.888672 1 1 1.000000
phy
0  34.191715 98.661705 23.020979  0.914322 0.339206 0.221256  0.306641 0.888672 1 1 1.000000
0  31.711470 95.569008 34.828327  0.978163 0.008385 0.207669  0.320312 0.847656 1 1 1.000000
0  31.887215 66.161400 35.187893  0.780433 0.028359 0.624596  0.318359 0.845703 1 1 1.000000
phy
0  -22.894999 97.101921 37.075665  -0.030524 0.507998 0.860817  0.630859 0.837891 1 1 1.000000
0  -31.859034 66.161400 35.187901  -0.724581 -0.021033 0.688868  0.681641 0.845703 1 1 1.000000
0  0.014094 75.959846 38.415039  0.000003 -0.003419 0.999994  0.500000 0.833984 1 1 1.000000
phy
0  -38.101341 -47.186047 23.437428  -0.868528 -0.025752 0.494971  0.716797 0.888672 1 1 1.000000
0  -32.929188 -29.944324 33.833488  -0.866216 -0.040820 0.497999  0.687500 0.849609 1 1 1.000000
0  -31.550127 47.305363 34.605007  -0.868931 -0.006862 0.494885  0.679688 0.847656 1 1 1.000000
phy
0  -31.550127 47.305363 34.605007  -0.868931 -0.006862 0.494885  0.679688 0.847656 1 1 1.000000
0  -38.913036 44.916126 22.669479  -0.957140 -0.011234 0.289408  0.720703 0.890625 1 1 1.000000
0  -38.101341 -47.186047 23.437428  -0.868528 -0.025752 0.494971  0.716797 0.888672 1 1 1.000000
phy
0  -22.894999 97.101921 37.075665  -0.249906 0.013331 0.968178  0.630859 0.837891 1 1 1.000000
0  -31.683279 95.569008 34.828335  -0.249906 0.013331 0.968178  0.679688 0.847656 1 1 1.000000
0  -31.859034 66.161400 35.187901  -0.249906 0.013331 0.968178  0.681641 0.845703 1 1 1.000000
phy
0  -31.859034 66.161400 35.187901  -0.734833 -0.013403 0.678116  0.681641 0.845703 1 1 1.000000
0  -38.695286 75.902298 22.764971  -0.955536 0.105147 0.275491  0.718750 0.890625 1 1 1.000000
0  -38.913036 44.916126 22.669479  -0.957140 -0.011234 0.289408  0.720703 0.890625 1 1 1.000000
phy
0  -38.913036 44.916126 22.669479  -0.957140 -0.011234 0.289408  0.720703 0.890625 1 1 1.000000
0  -31.550127 47.305363 34.605007  -0.868931 -0.006862 0.494885  0.679688 0.847656 1 1 1.000000
0  -31.859034 66.161400 35.187901  -0.734833 -0.013403 0.678116  0.681641 0.845703 1 1 1.000000
phy
0  -38.695286 75.902298 22.764971  -0.955536 0.105147 0.275491  0.718750 0.890625 1 1 1.000000
0  -31.859034 66.161400 35.187901  -0.734833 -0.013403 0.678116  0.681641 0.845703 1 1 1.000000
0  -31.683279 95.569008 34.828335  -0.922235 0.099365 0.373642  0.679688 0.847656 1 1 1.000000
phy
0  -31.683279 95.569008 34.828335  -0.922235 0.099365 0.373642  0.679688 0.847656 1 1 1.000000
0  -34.163525 98.661705 23.020983  -0.899799 0.420568 0.116118  0.693359 0.888672 1 1 1.000000
0  -38.695286 75.902298 22.764971  -0.955536 0.105147 0.275491  0.718750 0.890625 1 1 1.000000
phy
0  -32.245255 -85.831673 25.733610  -0.176731 -0.150694 0.972655  0.683594 0.878906 1 1 1.000000
0  -17.521072 -97.537979 23.953476  -0.008185 -0.160388 0.987020  0.599609 0.886719 1 1 1.000000
0  -30.453449 -33.525063 34.248169  -0.133212 -0.150866 0.979538  0.671875 0.849609 1 1 1.000000
phy
0  -30.453449 -33.525063 34.248169  -0.133212 -0.150866 0.979538  0.671875 0.849609 1 1 1.000000
0  -32.929188 -29.944324 33.833488  -0.354960 -0.138346 0.924588  0.687500 0.849609 1 1 1.000000
0  -32.245255 -85.831673 25.733610  -0.176731 -0.150694 0.972655  0.683594 0.878906 1 1 1.000000
phy
0  -31.550127 47.305363 34.605007  -0.818349 0.079702 0.569168  0.679688 0.847656 1 1 1.000000
0  -25.555807 28.659458 48.648235  -0.537380 0.112425 0.835813  0.644531 0.794922 1 1 1.000000
0  -21.296490 38.338089 50.284962  -0.575684 0.077876 0.813955  0.621094 0.783203 1 1 1.000000
phy
0  -21.296490 38.338089 50.284962  -0.575684 0.077876 0.813955  0.621094 0.783203 1 1 1.000000
0  -31.859034 66.161400 35.187901  -0.844417 -0.030366 0.534826  0.681641 0.845703 1 1 1.000000
0  -31.550127 47.305363 34.605007  -0.818349 0.079702 0.569168  0.679688 0.847656 1 1 1.000000
phy
0  15.294187 101.201309 23.732531  0.069001 0.911852 0.404679  0.414062 0.886719 1 1 1.000000
0  34.191715 98.661705 23.020979  0.912065 0.335261 0.236089  0.306641 0.888672 1 1 1.000000
0  15.182823 102.961136 19.786110  0.046191 0.912809 0.405766  0.414062 0.900391 1 1 1.000000
phy
0  34.191715 98.661705 23.020979  0.700720 0.679781 0.216537  0.306641 0.888672 1 1 1.000000
0  38.723469 75.902298 22.764963  0.915277 0.080856 0.394626  0.281250 0.890625 1 1 1.000000
0  35.638023 79.607964 2.904919  0.978732 0.179379 -0.099531  0.298828 0.962891 1 1 1.000000
phy
0  35.638023 79.607964 2.904919  0.978732 0.179379 -0.099531  0.298828 0.962891 1 1 1.000000
0  32.893333 97.569481 5.774817  0.550563 0.826838 -0.114975  0.314453 0.951172 1 1 1.000000
0  34.191715 98.661705 23.020979  0.700720 0.679781 0.216537  0.306641 0.888672 1 1 1.000000
phy
0  15.182823 102.961136 19.786110  0.141728 0.983401 -0.113298  0.414062 0.900391 1 1 1.000000
0  34.191715 98.661705 23.020979  0.616812 0.786174 0.038388  0.306641 0.888672 1 1 1.000000
0  32.893333 97.569481 5.774817  0.551514 0.825988 -0.116516  0.314453 0.951172 1 1 1.000000
phy
0  32.893333 97.569481 5.774817  0.551514 0.825988 -0.116516  0.314453 0.951172 1 1 1.000000
0  14.908513 101.197166 6.259741  0.065939 0.989277 -0.130321  0.416016 0.951172 1 1 1.000000
0  15.182823 102.961136 19.786110  0.141728 0.983401 -0.113298  0.414062 0.900391 1 1 1.000000
phy
0  -15.154634 102.961136 19.786114  -0.082426 0.988019 -0.130476  0.585938 0.900391 1 1 1.000000
0  15.182823 102.961136 19.786110  0.141728 0.983401 -0.113298  0.414062 0.900391 1 1 1.000000
0  14.908513 101.197166 6.259741  0.065939 0.989277 -0.130321  0.416016 0.951172 1 1 1.000000
phy
0  14.908513 101.197166 6.259741  0.065939 0.989277 -0.130321  0.416016 0.951172 1 1 1.000000
0  -14.880323 101.197166 6.259743  -0.144306 0.983121 -0.112464  0.583984 0.951172 1 1 1.000000
0  -15.154634 102.961136 19.786114  -0.082426 0.988019 -0.130476  0.585938 0.900391 1 1 1.000000
phy
0  -16.324759 99.715889 32.704407  -0.115608 0.972786 0.200805  0.591797 0.853516 1 1 1.000000
0  -15.265994 101.201309 23.732534  -0.068743 0.985516 0.155022  0.585938 0.886719 1 1 1.000000
0  -34.163525 98.661705 23.020983  -0.545534 0.838069 -0.005731  0.693359 0.888672 1 1 1.000000
phy
0  -16.324759 99.715889 32.704407  -0.115608 0.972786 0.200805  0.591797 0.853516 1 1 1.000000
0  -34.163525 98.661705 23.020983  -0.545534 0.838069 -0.005731  0.693359 0.888672 1 1 1.000000
0  -31.683279 95.569008 34.828335  -0.217936 0.940967 0.259008  0.679688 0.847656 1 1 1.000000
phy
0  -16.324759 99.715889 32.704407  -0.115608 0.972786 0.200805  0.591797 0.853516 1 1 1.000000
0  -31.683279 95.569008 34.828335  -0.217936 0.940967 0.259008  0.679688 0.847656 1 1 1.000000
0  -22.894999 97.101921 37.075665  -0.223957 0.947131 0.229753  0.630859 0.837891 1 1 1.000000
phy
0  -34.163525 98.661705 23.020983  -0.581622 0.806934 0.102824  0.693359 0.888672 1 1 1.000000
0  -32.865150 97.569481 5.774822  -0.721450 0.685571 -0.097484  0.685547 0.951172 1 1 1.000000
0  -35.609829 76.659714 2.904925  -0.979313 0.167793 -0.113096  0.701172 0.962891 1 1 1.000000
phy
0  -35.609829 76.659714 2.904925  -0.979313 0.167793 -0.113096  0.701172 0.962891 1 1 1.000000
0  -38.695286 75.902298 22.764971  -0.949724 0.099781 0.296762  0.718750 0.890625 1 1 1.000000
0  -34.163525 98.661705 23.020983  -0.581622 0.806934 0.102824  0.693359 0.888672 1 1 1.000000
phy
0  -34.163525 98.661705 23.020983  -0.547350 0.836904 -0.000516  0.693359 0.888672 1 1 1.000000
0  -15.154634 102.961136 19.786114  -0.082426 0.988019 -0.130476  0.585938 0.900391 1 1 1.000000
0  -14.880323 101.197166 6.259743  -0.144306 0.983121 -0.112464  0.583984 0.951172 1 1 1.000000
phy
0  -14.880323 101.197166 6.259743  -0.144306 0.983121 -0.112464  0.583984 0.951172 1 1 1.000000
0  -32.865150 97.569481 5.774822  -0.723934 0.682770 -0.098718  0.685547 0.951172 1 1 1.000000
0  -34.163525 98.661705 23.020983  -0.547350 0.836904 -0.000516  0.693359 0.888672 1 1 1.000000
phy
0  -15.265994 101.201309 23.732534  -0.046664 0.912788 0.405760  0.585938 0.886719 1 1 1.000000
0  15.294187 101.201309 23.732531  0.069001 0.911852 0.404679  0.414062 0.886719 1 1 1.000000
0  15.182823 102.961136 19.786110  0.046191 0.912809 0.405766  0.414062 0.900391 1 1 1.000000
phy
0  15.182823 102.961136 19.786110  0.046191 0.912809 0.405766  0.414062 0.900391 1 1 1.000000
0  -15.154634 102.961136 19.786114  -0.068129 0.911877 0.404769  0.585938 0.900391 1 1 1.000000
0  -15.265994 101.201309 23.732534  -0.046664 0.912788 0.405760  0.585938 0.886719 1 1 1.000000
phy
0  21.324696 38.338089 50.284962  0.460547 0.056263 0.885850  0.378906 0.783203 1 1 1.000000
0  25.584015 28.659462 48.648228  0.537184 0.112324 0.835953  0.355469 0.794922 1 1 1.000000
0  31.578312 47.305370 34.605000  0.818405 0.079735 0.569084  0.320312 0.847656 1 1 1.000000
phy
0  31.578312 47.305370 34.605000  0.818405 0.079735 0.569084  0.320312 0.847656 1 1 1.000000
0  31.887215 66.161400 35.187893  0.844417 -0.030366 0.534825  0.318359 0.845703 1 1 1.000000
0  21.324696 38.338089 50.284962  0.460547 0.056263 0.885850  0.378906 0.783203 1 1 1.000000
phy
0  25.584015 28.659462 48.648228  0.537184 0.112324 0.835953  0.355469 0.794922 1 1 1.000000
0  21.324696 38.338089 50.284962  0.460547 0.056263 0.885850  0.378906 0.783203 1 1 1.000000
0  23.306902 -9.668701 49.697800  0.277576 0.001029 0.960703  0.367188 0.791016 1 1 1.000000
phy
0  21.324696 38.338089 50.284962  0.460547 0.056263 0.885850  0.378906 0.783203 1 1 1.000000
0  -21.296490 38.338089 50.284962  -0.575684 0.077876 0.813955  0.621094 0.783203 1 1 1.000000
0  -23.291157 -9.606178 49.702961  -0.176742 -0.003840 0.984250  0.632812 0.791016 1 1 1.000000
phy
0  -23.291157 -9.606178 49.702961  -0.176742 -0.003840 0.984250  0.632812 0.791016 1 1 1.000000
0  23.306902 -9.668701 49.697800  0.277576 0.001029 0.960703  0.367188 0.791016 1 1 1.000000
0  21.324696 38.338089 50.284962  0.460547 0.056263 0.885850  0.378906 0.783203 1 1 1.000000
phy
0  -23.291157 -9.606178 49.702961  -0.176742 -0.003840 0.984250  0.632812 0.791016 1 1 1.000000
0  -21.296490 38.338089 50.284962  -0.575684 0.077876 0.813955  0.621094 0.783203 1 1 1.000000
0  -25.555807 28.659458 48.648235  -0.537380 0.112425 0.835813  0.644531 0.794922 1 1 1.000000
phy
0  16.352943 99.715889 32.704403  0.142977 0.967178 0.210060  0.408203 0.853516 1 1 1.000000
0  22.923185 97.101921 37.075665  0.223958 0.947130 0.229755  0.369141 0.837891 1 1 1.000000
0  31.711470 95.569008 34.828327  0.217920 0.940971 0.259007  0.320312 0.847656 1 1 1.000000
phy
0  16.352943 99.715889 32.704403  0.142977 0.967178 0.210060  0.408203 0.853516 1 1 1.000000
0  31.711470 95.569008 34.828327  0.217920 0.940971 0.259007  0.320312 0.847656 1 1 1.000000
0  34.191715 98.661705 23.020979  0.614546 0.788251 0.031511  0.306641 0.888672 1 1 1.000000
phy
0  16.352943 99.715889 32.704403  0.142977 0.967178 0.210060  0.408203 0.853516 1 1 1.000000
0  34.191715 98.661705 23.020979  0.614546 0.788251 0.031511  0.306641 0.888672 1 1 1.000000
0  15.294187 101.201309 23.732531  0.046792 0.986350 0.157874  0.414062 0.886719 1 1 1.000000
phy
0  0.014094 75.959846 38.415039  0.000003 -0.003419 0.999994  0.500000 0.833984 1 1 1.000000
0  31.887215 66.161400 35.187893  0.772222 0.020841 0.635011  0.318359 0.845703 1 1 1.000000
0  22.923185 97.101921 37.075665  0.034746 0.342151 0.939002  0.369141 0.837891 1 1 1.000000
phy
0  0.014094 75.959846 38.415039  0.000003 -0.003419 0.999994  0.500000 0.833984 1 1 1.000000
0  22.923185 97.101921 37.075665  0.034746 0.342151 0.939002  0.369141 0.837891 1 1 1.000000
0  -22.894999 97.101921 37.075665  -0.030524 0.507998 0.860817  0.630859 0.837891 1 1 1.000000
phy
0  -15.265994 101.201309 23.732534  -0.046664 0.912788 0.405760  0.585938 0.886719 1 1 1.000000
0  -15.154634 102.961136 19.786114  -0.068129 0.911877 0.404769  0.585938 0.900391 1 1 1.000000
0  -34.163525 98.661705 23.020983  -0.897786 0.421734 0.126968  0.693359 0.888672 1 1 1.000000
phy
0  -38.199467 -77.213898 22.529541  -0.745696 -0.292320 0.598738  0.716797 0.890625 1 1 1.000000
0  -33.121044 -87.211479 19.220366  -0.838955 -0.498451 0.218405  0.687500 0.902344 1 1 1.000000
0  -32.245255 -85.831673 25.733610  -0.777873 -0.218910 0.589060  0.683594 0.878906 1 1 1.000000
phy
0  38.227680 -77.213898 22.529533  0.824899 -0.223081 0.519400  0.283203 0.890625 1 1 1.000000
0  38.129532 -47.186039 23.437420  0.936902 -0.003247 0.349576  0.283203 0.888672 1 1 1.000000
0  32.957394 -29.944321 33.833481  0.817965 -0.041837 0.573745  0.312500 0.849609 1 1 1.000000
phy
0  32.957394 -29.944321 33.833481  0.817965 -0.041837 0.573745  0.312500 0.849609 1 1 1.000000
0  32.273457 -85.831673 25.733606  0.774070 -0.333159 0.538350  0.316406 0.878906 1 1 1.000000
0  38.227680 -77.213898 22.529533  0.824899 -0.223081 0.519400  0.283203 0.890625 1 1 1.000000
phy
0  32.273457 -85.831673 25.733606  0.774070 -0.333159 0.538350  0.316406 0.878906 1 1 1.000000
0  33.149246 -87.211479 19.220362  0.838955 -0.498452 0.218404  0.312500 0.902344 1 1 1.000000
0  38.227680 -77.213898 22.529533  0.824899 -0.223081 0.519400  0.283203 0.890625 1 1 1.000000
phy
0  36.819111 -43.804607 4.026875  0.996339 -0.005708 -0.085304  0.291016 0.968750 1 1 1.000000
0  37.026592 42.450031 2.380587  0.995615 -0.004179 -0.093447  0.291016 0.964844 1 1 1.000000
0  38.941219 44.916134 22.669472  0.972636 -0.003207 0.232311  0.279297 0.890625 1 1 1.000000
phy
0  38.941219 44.916134 22.669472  0.972636 -0.003207 0.232311  0.279297 0.890625 1 1 1.000000
0  38.129532 -47.186039 23.437420  0.936902 -0.003247 0.349576  0.283203 0.888672 1 1 1.000000
0  36.819111 -43.804607 4.026875  0.996339 -0.005708 -0.085304  0.291016 0.968750 1 1 1.000000
phy
0  -38.913036 44.916126 22.669479  -0.952749 -0.003214 0.303743  0.720703 0.890625 1 1 1.000000
0  -36.998417 42.450024 2.380592  -0.995616 -0.004179 -0.093446  0.708984 0.964844 1 1 1.000000
0  -36.790920 -43.804615 4.026879  -0.997114 -0.007973 -0.075496  0.708984 0.968750 1 1 1.000000
phy
0  -36.790920 -43.804615 4.026879  -0.996206 -0.005235 -0.086865  0.708984 0.968750 1 1 1.000000
0  -38.101341 -47.186047 23.437428  -0.868528 -0.025752 0.494971  0.716797 0.888672 1 1 1.000000
0  -38.913036 44.916126 22.669479  -0.957140 -0.011234 0.289408  0.720703 0.890625 1 1 1.000000
phy
0  15.058631 -100.029060 24.788744  0.513125 -0.236363 0.825127  0.414062 0.882812 1 1 1.000000
0  17.549276 -97.537979 23.953472  0.513125 -0.236363 0.825127  0.400391 0.886719 1 1 1.000000
0  30.481646 -33.525066 34.248161  0.513125 -0.236363 0.825127  0.328125 0.849609 1 1 1.000000
phy
0  30.481646 -33.525066 34.248161  0.157845 -0.175810 0.971687  0.328125 0.849609 1 1 1.000000
0  -30.453449 -33.525063 34.248169  -0.117179 -0.147949 0.982029  0.671875 0.849609 1 1 1.000000
0  -15.030409 -100.029060 24.788748  0.000000 -0.140821 0.990035  0.585938 0.882812 1 1 1.000000
phy
0  -15.030409 -100.029060 24.788748  0.000000 -0.140821 0.990035  0.585938 0.882812 1 1 1.000000
0  15.058631 -100.029060 24.788744  0.000000 -0.140821 0.990035  0.414062 0.882812 1 1 1.000000
0  30.481646 -33.525066 34.248161  0.157845 -0.175810 0.971687  0.328125 0.849609 1 1 1.000000
phy
0  -17.521072 -97.537979 23.953476  -0.513120 -0.236363 0.825130  0.599609 0.886719 1 1 1.000000
0  -15.030409 -100.029060 24.788748  -0.513120 -0.236363 0.825130  0.585938 0.882812 1 1 1.000000
0  -30.453449 -33.525063 34.248169  -0.513120 -0.236363 0.825130  0.671875 0.849609 1 1 1.000000
phy
0  16.737394 -99.628708 19.637602  0.783909 -0.584484 0.209439  0.404297 0.902344 1 1 1.000000
0  17.549276 -97.537979 23.953472  0.725280 -0.663180 0.184826  0.400391 0.886719 1 1 1.000000
0  15.058631 -100.029060 24.788744  0.783546 -0.584654 0.210324  0.414062 0.882812 1 1 1.000000
phy
0  15.058631 -100.029060 24.788744  0.783546 -0.584654 0.210324  0.414062 0.882812 1 1 1.000000
0  16.120312 -101.643005 17.520565  0.833959 -0.500269 0.232904  0.408203 0.910156 1 1 1.000000
0  16.737394 -99.628708 19.637602  0.783909 -0.584484 0.209439  0.404297 0.902344 1 1 1.000000
phy
0  33.149246 -87.211479 19.220362  0.236134 -0.459621 0.856148  0.312500 0.902344 1 1 1.000000
0  33.323151 -92.022888 17.667465  0.076054 -0.304835 0.949364  0.310547 0.908203 1 1 1.000000
0  38.227680 -77.213898 22.529533  -0.014417 -0.307591 0.951409  0.283203 0.890625 1 1 1.000000
phy
0  14.308073 -103.488396 6.276714  0.319500 -0.936356 -0.145457  0.417969 0.970703 1 1 1.000000
0  32.823303 -89.307091 6.276712  0.814097 -0.580679 -0.007580  0.314453 0.970703 1 1 1.000000
0  33.323151 -92.022888 17.667465  0.631101 -0.774740 -0.038595  0.310547 0.908203 1 1 1.000000
phy
0  33.323151 -92.022888 17.667465  0.631101 -0.774740 -0.038595  0.310547 0.908203 1 1 1.000000
0  14.776012 -102.844841 14.057636  0.217347 -0.975520 -0.033474  0.416016 0.921875 1 1 1.000000
0  14.308073 -103.488396 6.276714  0.319500 -0.936356 -0.145457  0.417969 0.970703 1 1 1.000000
phy
0  16.120312 -101.643005 17.520565  0.170686 -0.948908 0.265406  0.408203 0.910156 1 1 1.000000
0  14.776012 -102.844841 14.057636  0.217347 -0.975520 -0.033474  0.416016 0.921875 1 1 1.000000
0  33.323151 -92.022888 17.667465  0.631101 -0.774740 -0.038595  0.310547 0.908203 1 1 1.000000
phy
0  -14.747792 -102.844841 14.057637  -0.246418 -0.967395 0.058514  0.583984 0.921875 1 1 1.000000
0  14.776012 -102.844841 14.057636  0.217347 -0.975520 -0.033474  0.416016 0.921875 1 1 1.000000
0  16.120312 -101.643005 17.520565  0.170686 -0.948908 0.265406  0.408203 0.910156 1 1 1.000000
phy
0  16.120312 -101.643005 17.520565  0.170686 -0.948908 0.265406  0.408203 0.910156 1 1 1.000000
0  -16.092091 -101.643005 17.520567  -0.251579 -0.940187 0.229688  0.591797 0.910156 1 1 1.000000
0  -14.747792 -102.844841 14.057637  -0.246418 -0.967395 0.058514  0.583984 0.921875 1 1 1.000000
phy
0  32.823303 -89.307091 6.276712  0.814097 -0.580679 -0.007580  0.314453 0.970703 1 1 1.000000
0  37.656254 -78.650284 6.024721  0.910134 -0.411635 0.047042  0.287109 0.970703 1 1 1.000000
0  38.227680 -77.213898 22.529533  0.933415 -0.358745 0.006165  0.283203 0.890625 1 1 1.000000
phy
0  38.227680 -77.213898 22.529533  0.933415 -0.358745 0.006165  0.283203 0.890625 1 1 1.000000
0  33.323151 -92.022888 17.667465  0.631101 -0.774740 -0.038595  0.310547 0.908203 1 1 1.000000
0  32.823303 -89.307091 6.276712  0.814097 -0.580679 -0.007580  0.314453 0.970703 1 1 1.000000
phy
0  15.058631 -100.029060 24.788744  0.000000 -0.976222 0.216775  0.414062 0.882812 1 1 1.000000
0  -15.030409 -100.029060 24.788748  0.000000 -0.976221 0.216777  0.585938 0.882812 1 1 1.000000
0  -16.092091 -101.643005 17.520567  0.000000 -0.976221 0.216777  0.591797 0.910156 1 1 1.000000
phy
0  -16.092091 -101.643005 17.520567  0.000000 -0.976221 0.216777  0.591797 0.910156 1 1 1.000000
0  16.120312 -101.643005 17.520565  0.000000 -0.976222 0.216775  0.408203 0.910156 1 1 1.000000
0  15.058631 -100.029060 24.788744  0.000000 -0.976222 0.216775  0.414062 0.882812 1 1 1.000000
phy
0  -14.279855 -103.488396 6.276716  -0.141292 -0.968456 -0.205254  0.582031 0.970703 1 1 1.000000
0  14.308073 -103.488396 6.276714  0.319500 -0.936356 -0.145457  0.417969 0.970703 1 1 1.000000
0  14.776012 -102.844841 14.057636  0.217347 -0.975520 -0.033474  0.416016 0.921875 1 1 1.000000
phy
0  14.776012 -102.844841 14.057636  0.217347 -0.975520 -0.033474  0.416016 0.921875 1 1 1.000000
0  -14.747792 -102.844841 14.057637  -0.246418 -0.967395 0.058514  0.583984 0.921875 1 1 1.000000
0  -14.279855 -103.488396 6.276716  -0.141292 -0.968456 -0.205254  0.582031 0.970703 1 1 1.000000
phy
0  33.149246 -87.211479 19.220362  0.236134 -0.459621 0.856148  0.312500 0.902344 1 1 1.000000
0  16.737394 -99.628708 19.637602  0.531410 -0.685649 0.497482  0.404297 0.902344 1 1 1.000000
0  16.120312 -101.643005 17.520565  0.368948 -0.524122 0.767577  0.408203 0.910156 1 1 1.000000
phy
0  16.120312 -101.643005 17.520565  0.368948 -0.524122 0.767577  0.408203 0.910156 1 1 1.000000
0  33.323151 -92.022888 17.667465  0.076054 -0.304835 0.949364  0.310547 0.908203 1 1 1.000000
0  33.149246 -87.211479 19.220362  0.236134 -0.459621 0.856148  0.312500 0.902344 1 1 1.000000
phy
0  -15.030409 -100.029060 24.788748  -0.783546 -0.584655 0.210318  0.585938 0.882812 1 1 1.000000
0  -17.521072 -97.537979 23.953476  -0.725278 -0.663182 0.184828  0.599609 0.886719 1 1 1.000000
0  -16.709183 -99.628708 19.637606  -0.783908 -0.584488 0.209433  0.595703 0.902344 1 1 1.000000
phy
0  -16.709183 -99.628708 19.637606  -0.783908 -0.584488 0.209433  0.595703 0.902344 1 1 1.000000
0  -16.092091 -101.643005 17.520567  -0.833955 -0.500274 0.232904  0.591797 0.910156 1 1 1.000000
0  -15.030409 -100.029060 24.788748  -0.783546 -0.584655 0.210318  0.585938 0.882812 1 1 1.000000
phy
0  -38.199467 -77.213898 22.529541  0.014419 -0.307592 0.951409  0.716797 0.890625 1 1 1.000000
0  -33.294930 -92.022888 17.667471  -0.076050 -0.304770 0.949385  0.689453 0.908203 1 1 1.000000
0  -33.121044 -87.211479 19.220366  -0.236100 -0.459599 0.856169  0.687500 0.902344 1 1 1.000000
phy
0  -37.628029 -78.650284 6.024727  -0.929375 -0.369127 -0.002581  0.712891 0.970703 1 1 1.000000
0  -32.795086 -89.307091 6.276718  -0.642078 -0.760682 -0.095385  0.685547 0.970703 1 1 1.000000
0  -33.294930 -92.022888 17.667471  -0.755839 -0.654462 0.019671  0.689453 0.908203 1 1 1.000000
phy
0  -33.294930 -92.022888 17.667471  -0.755839 -0.654462 0.019671  0.689453 0.908203 1 1 1.000000
0  -38.199467 -77.213898 22.529541  -0.945763 -0.323382 0.030937  0.716797 0.890625 1 1 1.000000
0  -37.628029 -78.650284 6.024727  -0.929375 -0.369127 -0.002581  0.712891 0.970703 1 1 1.000000
phy
0  -16.092091 -101.643005 17.520567  -0.368918 -0.524146 0.767574  0.591797 0.910156 1 1 1.000000
0  -16.709183 -99.628708 19.637606  -0.531410 -0.685649 0.497483  0.595703 0.902344 1 1 1.000000
0  -33.121044 -87.211479 19.220366  -0.236100 -0.459599 0.856169  0.687500 0.902344 1 1 1.000000
phy
0  -33.121044 -87.211479 19.220366  -0.236100 -0.459599 0.856169  0.687500 0.902344 1 1 1.000000
0  -33.294930 -92.022888 17.667471  -0.076050 -0.304770 0.949385  0.689453 0.908203 1 1 1.000000
0  -16.092091 -101.643005 17.520567  -0.368918 -0.524146 0.767574  0.591797 0.910156 1 1 1.000000
phy
0  -14.747792 -102.844841 14.057637  -0.246418 -0.967395 0.058514  0.583984 0.921875 1 1 1.000000
0  -33.294930 -92.022888 17.667471  -0.755839 -0.654462 0.019671  0.689453 0.908203 1 1 1.000000
0  -32.795086 -89.307091 6.276718  -0.642078 -0.760682 -0.095385  0.685547 0.970703 1 1 1.000000
phy
0  -32.795086 -89.307091 6.276718  -0.642078 -0.760682 -0.095385  0.685547 0.970703 1 1 1.000000
0  -14.279855 -103.488396 6.276716  -0.141292 -0.968456 -0.205254  0.582031 0.970703 1 1 1.000000
0  -14.747792 -102.844841 14.057637  -0.246418 -0.967395 0.058514  0.583984 0.921875 1 1 1.000000
phy
0  -16.092091 -101.643005 17.520567  -0.251579 -0.940187 0.229688  0.591797 0.910156 1 1 1.000000
0  -33.294930 -92.022888 17.667471  -0.755839 -0.654462 0.019671  0.689453 0.908203 1 1 1.000000
0  -14.747792 -102.844841 14.057637  -0.246418 -0.967395 0.058514  0.583984 0.921875 1 1 1.000000
phy
0  17.549276 -97.537979 23.953472  0.236342 -0.190909 0.952731  0.400391 0.886719 1 1 1.000000
0  32.273457 -85.831673 25.733606  -0.005668 -0.143363 0.989654  0.316406 0.878906 1 1 1.000000
0  32.957394 -29.944321 33.833481  0.250147 -0.196077 0.948146  0.312500 0.849609 1 1 1.000000
phy
0  32.957394 -29.944321 33.833481  0.250147 -0.196077 0.948146  0.312500 0.849609 1 1 1.000000
0  30.481646 -33.525066 34.248161  0.176243 -0.180057 0.967739  0.328125 0.849609 1 1 1.000000
0  17.549276 -97.537979 23.953472  0.236342 -0.190909 0.952731  0.400391 0.886719 1 1 1.000000
phy
0  -38.101341 -47.186047 23.437428  -0.868528 -0.025752 0.494971  0.716797 0.888672 1 1 1.000000
0  -38.199467 -77.213898 22.529541  -0.745696 -0.292320 0.598738  0.716797 0.890625 1 1 1.000000
0  -32.245255 -85.831673 25.733610  -0.777873 -0.218910 0.589060  0.683594 0.878906 1 1 1.000000
phy
0  -32.245255 -85.831673 25.733610  -0.777873 -0.218910 0.589060  0.683594 0.878906 1 1 1.000000
0  -32.929188 -29.944324 33.833488  -0.866216 -0.040820 0.497999  0.687500 0.849609 1 1 1.000000
0  -38.101341 -47.186047 23.437428  -0.868528 -0.025752 0.494971  0.716797 0.888672 1 1 1.000000
phy
0  -23.291157 -9.606178 49.702961  -0.509992 -0.332471 0.793329  0.632812 0.791016 1 1 1.000000
0  -32.929188 -29.944324 33.833488  -0.809207 -0.111697 0.576808  0.687500 0.849609 1 1 1.000000
0  -30.453449 -33.525063 34.248169  -0.207164 -0.486080 0.849005  0.671875 0.849609 1 1 1.000000
phy
0  30.481646 -33.525066 34.248161  0.305570 -0.451324 0.838411  0.328125 0.849609 1 1 1.000000
0  32.957394 -29.944321 33.833481  0.809078 -0.111800 0.576968  0.312500 0.849609 1 1 1.000000
0  23.306902 -9.668701 49.697800  0.384868 -0.399191 0.832180  0.367188 0.791016 1 1 1.000000
phy
0  -41.855778 -76.484497 13.337620  -0.813088 -0.483095 0.324820  0.810547 0.794922 1 1 1.000000
0  -37.545067 -80.778908 18.795313  -0.843633 -0.486651 0.226835  0.779297 0.810547 1 1 1.000000
0  -37.152168 -78.284515 20.504162  -0.702193 -0.378919 0.602781  0.771484 0.800781 1 1 1.000000
phy
0  -37.152168 -78.284515 20.504162  -0.702193 -0.378919 0.602781  0.771484 0.800781 1 1 1.000000
0  -42.421959 -69.839104 21.544691  -0.619247 -0.346194 0.704757  0.765625 0.771484 1 1 1.000000
0  -41.855778 -76.484497 13.337620  -0.813088 -0.483095 0.324820  0.810547 0.794922 1 1 1.000000
phy
0  42.452591 -69.839104 21.544683  0.619090 -0.350216 0.702906  0.234375 0.771484 1 1 1.000000
0  37.182793 -78.284515 20.504154  0.461446 -0.385131 0.799213  0.228516 0.800781 1 1 1.000000
0  37.575699 -80.778908 18.795305  0.750994 -0.519659 0.407385  0.220703 0.810547 1 1 1.000000
phy
0  37.575699 -80.778908 18.795305  0.750994 -0.519659 0.407385  0.220703 0.810547 1 1 1.000000
0  41.886406 -76.484497 13.337614  0.820332 -0.548877 0.160593  0.189453 0.794922 1 1 1.000000
0  42.452591 -69.839104 21.544683  0.619090 -0.350216 0.702906  0.234375 0.771484 1 1 1.000000
phy
0  -38.883492 82.071671 20.232399  -0.754089 0.236466 0.612726  0.771484 0.220703 1 1 1.000000
0  -43.289219 76.473328 17.922295  -0.666781 0.232573 0.708034  0.785156 0.240234 1 1 1.000000
0  -43.289219 60.025005 23.325205  -0.783828 0.079111 0.615919  0.755859 0.300781 1 1 1.000000
phy
0  -43.289219 60.025005 23.325205  -0.783828 0.079111 0.615919  0.755859 0.300781 1 1 1.000000
0  -39.379017 61.255436 29.138571  -0.811550 -0.095548 0.576418  0.724609 0.296875 1 1 1.000000
0  -38.883492 82.071671 20.232399  -0.754089 0.236466 0.612726  0.771484 0.220703 1 1 1.000000
phy
0  43.319828 60.025013 23.325197  0.783818 0.079105 0.615931  0.244141 0.300781 1 1 1.000000
0  43.319828 76.473328 17.922287  0.666781 0.232574 0.708035  0.214844 0.240234 1 1 1.000000
0  38.914089 82.071671 20.232391  0.754087 0.236474 0.612726  0.228516 0.220703 1 1 1.000000
phy
0  38.914089 82.071671 20.232391  0.754087 0.236474 0.612726  0.228516 0.220703 1 1 1.000000
0  39.409622 61.255444 29.138563  0.812245 -0.094102 0.575675  0.275391 0.296875 1 1 1.000000
0  43.319828 60.025013 23.325197  0.783818 0.079105 0.615931  0.244141 0.300781 1 1 1.000000
phy
0  37.712296 -45.008682 23.805740  0.743235 0.347342 0.571800  0.248047 0.681641 1 1 1.000000
0  42.345596 -49.971867 20.716948  0.748755 0.347845 0.564243  0.230469 0.699219 1 1 1.000000
0  42.312691 -45.472435 14.008414  0.789102 0.568198 0.233387  0.193359 0.681641 1 1 1.000000
phy
0  42.312691 -45.472435 14.008414  0.789102 0.568198 0.233387  0.193359 0.681641 1 1 1.000000
0  38.030354 -40.355732 15.989625  0.781700 0.613331 0.113003  0.205078 0.664062 1 1 1.000000
0  37.712296 -45.008682 23.805740  0.743235 0.347342 0.571800  0.248047 0.681641 1 1 1.000000
phy
0  42.420689 -60.983429 22.883804  0.639075 0.059559 0.766835  0.242188 0.738281 1 1 1.000000
0  42.345596 -49.971867 20.716948  0.748755 0.347845 0.564243  0.230469 0.699219 1 1 1.000000
0  37.712296 -45.008682 23.805740  0.743235 0.347342 0.571800  0.248047 0.681641 1 1 1.000000
phy
0  37.712296 -45.008682 23.805740  0.743235 0.347342 0.571800  0.248047 0.681641 1 1 1.000000
0  36.057251 -60.882629 28.031736  0.561246 -0.109124 0.820423  0.269531 0.738281 1 1 1.000000
0  42.420689 -60.983429 22.883804  0.639075 0.059559 0.766835  0.242188 0.738281 1 1 1.000000
phy
0  36.057251 -60.882629 28.031736  0.561246 -0.109124 0.820423  0.269531 0.738281 1 1 1.000000
0  37.182793 -78.284515 20.504154  0.461446 -0.385131 0.799213  0.228516 0.800781 1 1 1.000000
0  42.452591 -69.839104 21.544683  0.619090 -0.350216 0.702906  0.234375 0.771484 1 1 1.000000
phy
0  42.452591 -69.839104 21.544683  0.619090 -0.350216 0.702906  0.234375 0.771484 1 1 1.000000
0  42.420689 -60.983429 22.883804  0.639075 0.059559 0.766835  0.242188 0.738281 1 1 1.000000
0  36.057251 -60.882629 28.031736  0.561246 -0.109124 0.820423  0.269531 0.738281 1 1 1.000000
phy
0  38.661430 -30.180592 3.803253  0.587225 -0.018303 0.809217  0.138672 0.626953 1 1 1.000000
0  40.714012 23.422884 5.198385  0.365308 -0.038196 0.930103  0.146484 0.433594 1 1 1.000000
0  35.979668 17.059546 6.796530  0.579452 -0.015732 0.814855  0.154297 0.457031 1 1 1.000000
phy
0  35.979668 17.059546 6.796530  0.579452 -0.015732 0.814855  0.154297 0.457031 1 1 1.000000
0  36.093098 -30.182869 6.855293  0.765131 0.002638 0.643869  0.154297 0.626953 1 1 1.000000
0  38.661430 -30.180592 3.803253  0.587225 -0.018303 0.809217  0.138672 0.626953 1 1 1.000000
phy
0  36.961777 -32.632210 9.227123  0.862644 0.213506 0.458543  0.167969 0.636719 1 1 1.000000
0  38.661430 -30.180592 3.803253  0.843222 0.242318 0.479852  0.138672 0.626953 1 1 1.000000
0  36.093098 -30.182869 6.855293  0.569858 0.666951 0.480040  0.154297 0.626953 1 1 1.000000
phy
0  35.979668 17.059546 6.796530  0.792747 -0.503531 0.343524  0.154297 0.457031 1 1 1.000000
0  40.714012 23.422884 5.198385  0.776165 -0.528575 0.343768  0.146484 0.433594 1 1 1.000000
0  37.572353 21.327385 9.376829  0.791885 -0.506249 0.341512  0.167969 0.441406 1 1 1.000000
phy
0  39.516945 38.199272 18.832968  0.529106 -0.158157 0.833686  0.220703 0.378906 1 1 1.000000
0  37.924862 26.950388 16.973358  0.423821 -0.205801 0.882055  0.210938 0.419922 1 1 1.000000
0  41.573589 31.215466 16.215303  0.523764 -0.158137 0.837057  0.205078 0.404297 1 1 1.000000
phy
0  41.573589 31.215466 16.215303  0.523764 -0.158137 0.837057  0.205078 0.404297 1 1 1.000000
0  43.464481 44.390564 16.537041  0.621028 -0.108087 0.776300  0.207031 0.357422 1 1 1.000000
0  39.516945 38.199272 18.832968  0.529106 -0.158157 0.833686  0.220703 0.378906 1 1 1.000000
phy
0  40.714012 23.422884 5.198385  0.992505 -0.121022 -0.016960  0.146484 0.433594 1 1 1.000000
0  42.555038 42.349510 5.008171  0.993381 -0.097242 -0.061146  0.144531 0.365234 1 1 1.000000
0  43.464481 44.390564 16.537041  0.992505 -0.121025 -0.016962  0.207031 0.357422 1 1 1.000000
phy
0  43.464481 44.390564 16.537041  0.992670 -0.119092 -0.020576  0.207031 0.357422 1 1 1.000000
0  41.573589 31.215466 16.215303  0.989499 -0.142591 0.023654  0.205078 0.404297 1 1 1.000000
0  40.714012 23.422884 5.198385  0.992670 -0.119094 -0.020578  0.146484 0.433594 1 1 1.000000
phy
0  39.409622 61.255444 29.138563  0.812245 -0.094102 0.575675  0.275391 0.296875 1 1 1.000000
0  39.516945 38.199272 18.832968  0.758815 -0.262831 0.595920  0.220703 0.378906 1 1 1.000000
0  43.464481 44.390564 16.537041  0.769653 -0.252872 0.586251  0.207031 0.357422 1 1 1.000000
phy
0  43.464481 44.390564 16.537041  0.769653 -0.252872 0.586251  0.207031 0.357422 1 1 1.000000
0  43.319828 60.025013 23.325197  0.783818 0.079105 0.615931  0.244141 0.300781 1 1 1.000000
0  39.409622 61.255444 29.138563  0.812245 -0.094102 0.575675  0.275391 0.296875 1 1 1.000000
phy
0  -42.282066 -45.472443 14.008420  -0.787600 0.591958 0.171091  0.806641 0.681641 1 1 1.000000
0  -37.999741 -40.355740 15.989631  -0.787241 0.591950 0.172763  0.794922 0.664062 1 1 1.000000
0  -36.878521 -39.058846 7.746355  -0.765421 0.643529 -0.001364  0.839844 0.660156 1 1 1.000000
phy
0  -37.681671 -45.008690 23.805748  -0.743232 0.347345 0.571802  0.751953 0.681641 1 1 1.000000
0  -37.999741 -40.355740 15.989631  -0.787241 0.591950 0.172763  0.794922 0.664062 1 1 1.000000
0  -42.282066 -45.472443 14.008420  -0.787600 0.591958 0.171091  0.806641 0.681641 1 1 1.000000
phy
0  -42.282066 -45.472443 14.008420  -0.787600 0.591958 0.171091  0.806641 0.681641 1 1 1.000000
0  -42.314968 -49.971874 20.716955  -0.748753 0.347847 0.564243  0.769531 0.699219 1 1 1.000000
0  -37.681671 -45.008690 23.805748  -0.743232 0.347345 0.571802  0.751953 0.681641 1 1 1.000000
phy
0  -42.390064 -60.983437 22.883812  -0.639060 0.059562 0.766847  0.757812 0.738281 1 1 1.000000
0  -36.026619 -60.882637 28.031740  -0.561274 -0.109139 0.820402  0.730469 0.738281 1 1 1.000000
0  -37.681671 -45.008690 23.805748  -0.743232 0.347345 0.571802  0.751953 0.681641 1 1 1.000000
phy
0  -37.681671 -45.008690 23.805748  -0.743232 0.347345 0.571802  0.751953 0.681641 1 1 1.000000
0  -42.314968 -49.971874 20.716955  -0.748753 0.347847 0.564243  0.769531 0.699219 1 1 1.000000
0  -42.390064 -60.983437 22.883812  -0.639060 0.059562 0.766847  0.757812 0.738281 1 1 1.000000
phy
0  -36.026619 -60.882637 28.031740  -0.561274 -0.109139 0.820402  0.730469 0.738281 1 1 1.000000
0  -42.390064 -60.983437 22.883812  -0.639060 0.059562 0.766847  0.757812 0.738281 1 1 1.000000
0  -42.421959 -69.839104 21.544691  -0.619247 -0.346194 0.704757  0.765625 0.771484 1 1 1.000000
phy
0  -42.421959 -69.839104 21.544691  -0.619247 -0.346194 0.704757  0.765625 0.771484 1 1 1.000000
0  -37.152168 -78.284515 20.504162  -0.702193 -0.378919 0.602781  0.771484 0.800781 1 1 1.000000
0  -36.026619 -60.882637 28.031740  -0.561274 -0.109139 0.820402  0.730469 0.738281 1 1 1.000000
phy
0  -38.630810 -30.180599 3.803259  -0.586838 -0.018384 0.809496  0.861328 0.626953 1 1 1.000000
0  -36.062473 -30.182873 6.855297  -0.765130 0.002638 0.643870  0.845703 0.626953 1 1 1.000000
0  -35.949055 17.059542 6.796535  -0.586830 -0.018251 0.809505  0.845703 0.457031 1 1 1.000000
phy
0  -35.949055 17.059542 6.796535  -0.579483 -0.015765 0.814832  0.845703 0.457031 1 1 1.000000
0  -40.683403 23.422876 5.198392  -0.365308 -0.038196 0.930103  0.853516 0.433594 1 1 1.000000
0  -38.630810 -30.180599 3.803259  -0.579626 -0.017995 0.814684  0.861328 0.626953 1 1 1.000000
phy
0  -36.931152 -32.632217 9.227129  -0.862671 0.213531 0.458479  0.832031 0.636719 1 1 1.000000
0  -36.062473 -30.182873 6.855297  -0.569856 0.666954 0.480039  0.845703 0.626953 1 1 1.000000
0  -38.630810 -30.180599 3.803259  -0.843168 0.242341 0.479936  0.861328 0.626953 1 1 1.000000
phy
0  -35.949055 17.059542 6.796535  -0.792747 -0.503531 0.343523  0.845703 0.457031 1 1 1.000000
0  -37.541740 21.327377 9.376836  -0.791885 -0.506249 0.341512  0.832031 0.441406 1 1 1.000000
0  -40.683403 23.422876 5.198392  -0.775872 -0.529091 0.343635  0.853516 0.433594 1 1 1.000000
phy
0  -39.486332 38.199265 18.832975  -0.529067 -0.157793 0.833781  0.779297 0.378906 1 1 1.000000
0  -43.433872 44.390556 16.537048  -0.621028 -0.108088 0.776300  0.792969 0.357422 1 1 1.000000
0  -41.542973 31.215458 16.215309  -0.528924 -0.157318 0.833961  0.794922 0.404297 1 1 1.000000
phy
0  -41.542973 31.215458 16.215309  -0.523583 -0.158236 0.837151  0.794922 0.404297 1 1 1.000000
0  -37.894249 26.950380 16.973364  -0.423820 -0.205802 0.882055  0.789062 0.419922 1 1 1.000000
0  -39.486332 38.199265 18.832975  -0.523780 -0.158888 0.836904  0.779297 0.378906 1 1 1.000000
phy
0  -43.433872 44.390556 16.537048  -0.992565 -0.120346 -0.018228  0.792969 0.357422 1 1 1.000000
0  -42.524433 42.349503 5.008178  -0.993381 -0.097242 -0.061146  0.855469 0.365234 1 1 1.000000
0  -40.683403 23.422876 5.198392  -0.992588 -0.120074 -0.018734  0.853516 0.433594 1 1 1.000000
phy
0  -40.683403 23.422876 5.198392  -0.992587 -0.120087 -0.018717  0.853516 0.433594 1 1 1.000000
0  -41.542973 31.215458 16.215309  -0.989499 -0.142591 0.023656  0.794922 0.404297 1 1 1.000000
0  -43.433872 44.390556 16.537048  -0.992564 -0.120356 -0.018209  0.792969 0.357422 1 1 1.000000
phy
0  -39.379017 61.255436 29.138571  -0.811550 -0.095548 0.576418  0.724609 0.296875 1 1 1.000000
0  -43.289219 60.025005 23.325205  -0.783828 0.079111 0.615919  0.755859 0.300781 1 1 1.000000
0  -43.433872 44.390556 16.537048  -0.769606 -0.253034 0.586243  0.792969 0.357422 1 1 1.000000
phy
0  -43.433872 44.390556 16.537048  -0.769760 -0.252780 0.586150  0.792969 0.357422 1 1 1.000000
0  -39.486332 38.199265 18.832975  -0.758814 -0.262831 0.595920  0.779297 0.378906 1 1 1.000000
0  -39.379017 61.255436 29.138571  -0.812429 -0.088602 0.576288  0.724609 0.296875 1 1 1.000000
phy
0  -23.580658 104.428978 5.293068  -0.309670 0.880372 0.359233  0.634766 0.046875 1 1 1.000000
0  -39.805172 94.579300 4.373962  -0.731166 0.480845 0.483926  0.726562 0.042969 1 1 1.000000
0  -34.522766 96.201996 10.662009  -0.707812 0.496609 0.502376  0.695312 0.066406 1 1 1.000000
phy
0  -34.522766 96.201996 10.662009  -0.707812 0.496609 0.502376  0.695312 0.066406 1 1 1.000000
0  -22.227179 101.881104 11.258397  -0.136864 0.898171 0.417801  0.626953 0.068359 1 1 1.000000
0  -23.580658 104.428978 5.293068  -0.309670 0.880372 0.359233  0.634766 0.046875 1 1 1.000000
phy
0  39.836395 94.579948 4.374879  0.632479 0.636486 0.441424  0.273438 0.042969 1 1 1.000000
0  23.644341 104.428101 5.285259  0.168723 0.890200 0.423174  0.365234 0.046875 1 1 1.000000
0  22.312836 101.825745 11.227177  0.310844 0.890845 0.331318  0.373047 0.068359 1 1 1.000000
phy
0  22.312836 101.825745 11.227177  0.310844 0.890845 0.331318  0.373047 0.068359 1 1 1.000000
0  34.569141 96.208572 10.665696  0.781004 0.398176 0.481133  0.304688 0.066406 1 1 1.000000
0  39.836395 94.579948 4.374879  0.632479 0.636486 0.441424  0.273438 0.042969 1 1 1.000000
phy
0  -42.713543 76.473328 17.922295  -0.761902 0.633105 0.136685  0.785156 0.240234 1 1 1.000000
0  -38.366386 82.071671 20.232399  -0.803245 0.590022 0.081678  0.771484 0.220703 1 1 1.000000
0  -38.078358 84.121056 8.260647  -0.761786 0.633297 0.136446  0.837891 0.212891 1 1 1.000000
phy
0  -38.078358 84.121056 8.260647  -0.762058 0.633536 0.133791  0.837891 0.212891 1 1 1.000000
0  -42.511475 81.369331 1.230190  -0.716074 0.672100 0.188466  0.875000 0.222656 1 1 1.000000
0  -42.713543 76.473328 17.922295  -0.762392 0.632991 0.134464  0.785156 0.240234 1 1 1.000000
phy
0  38.396988 82.071671 20.232391  0.735136 0.664205 0.135672  0.228516 0.220703 1 1 1.000000
0  42.744148 76.473328 17.922287  0.810309 0.564890 0.155880  0.214844 0.240234 1 1 1.000000
0  42.542068 81.369339 1.230184  0.735148 0.664203 0.135616  0.125000 0.222656 1 1 1.000000
phy
0  42.542068 81.369339 1.230184  0.734602 0.664838 0.135464  0.125000 0.222656 1 1 1.000000
0  38.108955 84.121056 8.260641  0.647577 0.753513 0.113410  0.162109 0.212891 1 1 1.000000
0  38.396988 82.071671 20.232391  0.734506 0.664855 0.135903  0.228516 0.220703 1 1 1.000000
phy
0  23.644341 104.428101 5.285259  0.168723 0.890200 0.423174  0.365234 0.046875 1 1 1.000000
0  -23.580658 104.428978 5.293068  -0.309670 0.880372 0.359233  0.634766 0.046875 1 1 1.000000
0  -22.227179 101.881104 11.258397  -0.136864 0.898171 0.417801  0.626953 0.068359 1 1 1.000000
phy
0  -22.227179 101.881104 11.258397  -0.136864 0.898171 0.417801  0.626953 0.068359 1 1 1.000000
0  22.312836 101.825745 11.227177  0.310844 0.890845 0.331318  0.373047 0.068359 1 1 1.000000
0  23.644341 104.428101 5.285259  0.168723 0.890200 0.423174  0.365234 0.046875 1 1 1.000000
phy
0  -34.522766 96.201996 10.662009  -0.707812 0.496609 0.502376  0.824219 0.169922 1 1 1.000000
0  -39.805172 94.579300 4.373962  -0.731166 0.480845 0.483926  0.857422 0.175781 1 1 1.000000
0  -42.511475 81.369331 1.230190  -0.820632 0.082923 0.565408  0.875000 0.222656 1 1 1.000000
phy
0  -42.511475 81.369331 1.230190  -0.819669 0.080167 0.567200  0.875000 0.222656 1 1 1.000000
0  -38.078358 84.121056 8.260647  -0.861980 0.157942 0.481710  0.837891 0.212891 1 1 1.000000
0  -34.522766 96.201996 10.662009  -0.708490 0.504417 0.493564  0.824219 0.169922 1 1 1.000000
phy
0  34.569141 96.208572 10.665696  0.781004 0.398176 0.481133  0.175781 0.169922 1 1 1.000000
0  38.108955 84.121056 8.260641  0.861939 0.156461 0.482266  0.162109 0.212891 1 1 1.000000
0  42.542068 81.369339 1.230184  0.820783 0.081340 0.565419  0.125000 0.222656 1 1 1.000000
phy
0  42.542068 81.369339 1.230184  0.820783 0.081340 0.565419  0.125000 0.222656 1 1 1.000000
0  39.836395 94.579948 4.374879  0.632479 0.636486 0.441424  0.142578 0.175781 1 1 1.000000
0  34.569141 96.208572 10.665696  0.781004 0.398176 0.481133  0.175781 0.169922 1 1 1.000000
phy
0  33.149246 -87.211479 19.220362  0.586176 -0.770011 0.251953  0.501953 0.500000 1 1 1.000000
0  32.273457 -85.831673 25.733606  0.585595 -0.773451 0.242592  0.501953 0.500000 1 1 1.000000
0  17.549276 -97.537979 23.953472  0.586182 -0.770121 0.251602  0.500000 0.500000 1 1 1.000000
phy
0  17.549276 -97.537979 23.953472  0.586182 -0.770121 0.251602  0.500000 0.500000 1 1 1.000000
0  16.737394 -99.628708 19.637602  0.586661 -0.766618 0.261009  0.500000 0.500000 1 1 1.000000
0  33.149246 -87.211479 19.220362  0.586176 -0.770011 0.251953  0.501953 0.500000 1 1 1.000000
phy
0  -17.521072 -97.537979 23.953476  -0.586183 -0.770106 0.251648  0.500000 0.500000 1 1 1.000000
0  -32.245255 -85.831673 25.733610  -0.585595 -0.773452 0.242592  0.498047 0.500000 1 1 1.000000
0  -33.121044 -87.211479 19.220366  -0.586176 -0.770012 0.251953  0.498047 0.500000 1 1 1.000000
phy
0  -33.121044 -87.211479 19.220366  -0.586176 -0.770012 0.251953  0.498047 0.500000 1 1 1.000000
0  -16.709183 -99.628708 19.637606  -0.586660 -0.766618 0.261010  0.500000 0.500000 1 1 1.000000
0  -17.521072 -97.537979 23.953476  -0.586183 -0.770106 0.251648  0.500000 0.500000 1 1 1.000000
phy
0  32.957394 -29.944321 33.833481  0.809078 -0.111800 0.576968  0.498047 0.500000 1 1 1.000000
0  31.578312 47.305370 34.605000  0.913672 0.012254 0.406267  0.501953 0.500000 1 1 1.000000
0  25.584015 28.659462 48.648228  0.876137 -0.013718 0.481868  0.501953 0.501953 1 1 1.000000
phy
0  25.584015 28.659462 48.648228  0.876137 -0.013718 0.481868  0.501953 0.501953 1 1 1.000000
0  23.306902 -9.668701 49.697800  0.384868 -0.399191 0.832180  0.500000 0.501953 1 1 1.000000
0  32.957394 -29.944321 33.833481  0.809078 -0.111800 0.576968  0.498047 0.500000 1 1 1.000000
phy
0  23.306902 -9.668701 49.697800  0.384868 -0.399191 0.832180  0.500000 0.501953 1 1 1.000000
0  -23.291157 -9.606178 49.702961  -0.509992 -0.332471 0.793329  0.500000 0.498047 1 1 1.000000
0  -30.453449 -33.525063 34.248169  -0.207164 -0.486080 0.849005  0.501953 0.498047 1 1 1.000000
phy
0  -30.453449 -33.525063 34.248169  -0.207164 -0.486080 0.849005  0.501953 0.498047 1 1 1.000000
0  30.481646 -33.525066 34.248161  0.305570 -0.451324 0.838411  0.501953 0.501953 1 1 1.000000
0  23.306902 -9.668701 49.697800  0.384868 -0.399191 0.832180  0.500000 0.501953 1 1 1.000000
phy
0  -21.296490 38.338089 50.284962  -0.102370 0.352161 0.930324  0.498047 0.498047 1 1 1.000000
0  21.324696 38.338089 50.284962  0.102366 0.352168 0.930322  0.498047 0.501953 1 1 1.000000
0  0.014094 75.959846 38.415039  -0.000004 0.377600 0.925969  0.496094 0.500000 1 1 1.000000
phy
0  21.324696 38.338089 50.284962  0.102366 0.352168 0.930322  0.498047 0.501953 1 1 1.000000
0  31.887215 66.161400 35.187893  0.213724 0.401977 0.890358  0.496094 0.501953 1 1 1.000000
0  0.014094 75.959846 38.415039  -0.000004 0.377600 0.925969  0.496094 0.500000 1 1 1.000000
phy
0  0.014094 75.959846 38.415039  -0.000004 0.377600 0.925969  0.496094 0.500000 1 1 1.000000
0  -31.859034 66.161400 35.187901  -0.213724 0.401976 0.890358  0.496094 0.498047 1 1 1.000000
0  -21.296490 38.338089 50.284962  -0.102370 0.352161 0.930324  0.498047 0.498047 1 1 1.000000
phy
0  -32.929188 -29.944324 33.833488  -0.809207 -0.111697 0.576808  0.501953 0.500000 1 1 1.000000
0  -23.291157 -9.606178 49.702961  -0.509992 -0.332471 0.793329  0.500000 0.501953 1 1 1.000000
0  -25.555807 28.659458 48.648235  -0.876326 -0.013590 0.481527  0.498047 0.501953 1 1 1.000000
phy
0  -25.555807 28.659458 48.648235  -0.876326 -0.013590 0.481527  0.498047 0.501953 1 1 1.000000
0  -31.550127 47.305363 34.605007  -0.913672 0.012253 0.406268  0.498047 0.500000 1 1 1.000000
0  -32.929188 -29.944324 33.833488  -0.809207 -0.111697 0.576808  0.501953 0.500000 1 1 1.000000
phy
0  -19.810434 99.889854 32.796368  -0.218038 0.963938 0.152588  0.501953 0.500000 1 1 1.000000
0  -16.685726 101.223991 29.438179  -0.245478 0.957419 0.151951  0.500000 0.500000 1 1 1.000000
0  -19.902563 100.935326 26.060196  -0.218706 0.963789 0.152574  0.501953 0.500000 1 1 1.000000
phy
0  -19.902563 100.935326 26.060196  -0.218706 0.963789 0.152574  0.501953 0.500000 1 1 1.000000
0  -23.061806 99.780502 29.431087  -0.191065 0.969565 0.153093  0.501953 0.500000 1 1 1.000000
0  -19.810434 99.889854 32.796368  -0.218038 0.963938 0.152588  0.501953 0.500000 1 1 1.000000
phy
0  -28.341555 97.353310 34.643967  -0.219157 0.952749 0.210333  0.501953 0.500000 1 1 1.000000
0  -24.292179 99.168892 31.011265  -0.237962 0.948560 0.208824  0.501953 0.500000 1 1 1.000000
0  -28.098373 99.185181 26.599962  -0.219651 0.952641 0.210307  0.501953 0.500000 1 1 1.000000
phy
0  -28.098373 99.185181 26.599962  -0.219651 0.952641 0.210307  0.501953 0.500000 1 1 1.000000
0  -32.461170 97.337921 30.806778  -0.200804 0.956473 0.211749  0.501953 0.500000 1 1 1.000000
0  -28.341555 97.353310 34.643967  -0.219157 0.952749 0.210333  0.501953 0.500000 1 1 1.000000
phy
0  19.930756 100.935326 26.060192  0.218706 0.963789 0.152574  0.498047 0.500000 1 1 1.000000
0  16.713919 101.223991 29.438175  0.245478 0.957419 0.151951  0.500000 0.500000 1 1 1.000000
0  19.838627 99.889854 32.796364  0.218037 0.963938 0.152588  0.498047 0.500000 1 1 1.000000
phy
0  19.838627 99.889854 32.796364  0.218037 0.963938 0.152588  0.498047 0.500000 1 1 1.000000
0  23.089996 99.780502 29.431084  0.191065 0.969565 0.153093  0.498047 0.500000 1 1 1.000000
0  19.930756 100.935326 26.060192  0.218706 0.963789 0.152574  0.498047 0.500000 1 1 1.000000
phy
0  28.126566 99.185181 26.599958  0.219651 0.952641 0.210307  0.498047 0.500000 1 1 1.000000
0  24.320372 99.168892 31.011261  0.237962 0.948560 0.208824  0.498047 0.500000 1 1 1.000000
0  28.369749 97.353310 34.643959  0.218414 0.952904 0.210404  0.498047 0.500000 1 1 1.000000
phy
0  28.369749 97.353310 34.643959  0.218414 0.952904 0.210404  0.498047 0.500000 1 1 1.000000
0  32.489365 97.337921 30.806774  0.200804 0.956473 0.211749  0.498047 0.500000 1 1 1.000000
0  28.126566 99.185181 26.599958  0.219651 0.952641 0.210307  0.498047 0.500000 1 1 1.000000
phy
0  37.656254 -78.650284 6.024721  -0.000109 0.002110 -0.999998  0.496094 0.501953 1 1 1.000000
0  -37.628029 -78.650284 6.024727  -0.000136 -0.010848 -0.999941  0.496094 0.498047 1 1 1.000000
0  -35.609829 76.659714 2.904925  -0.000793 0.089762 -0.995963  0.503906 0.498047 1 1 1.000000
phy
0  -35.609829 76.659714 2.904925  -0.001551 0.089696 -0.995968  0.503906 0.498047 1 1 1.000000
0  35.638023 79.607964 2.904919  -0.000386 0.107457 -0.994210  0.503906 0.501953 1 1 1.000000
0  37.656254 -78.650284 6.024721  -0.000344 0.002129 -0.999998  0.496094 0.501953 1 1 1.000000
phy
0  32.823303 -89.307091 6.276712  -0.000121 -0.011693 -0.999932  0.496094 0.501953 1 1 1.000000
0  14.308073 -103.488396 6.276714  -0.000000 -0.000000 -1.000000  0.494141 0.500000 1 1 1.000000
0  -14.279855 -103.488396 6.276716  -0.000000 0.000000 -1.000000  0.494141 0.500000 1 1 1.000000
phy
0  32.823303 -89.307091 6.276712  -0.000121 -0.011693 -0.999932  0.496094 0.501953 1 1 1.000000
0  -14.279855 -103.488396 6.276716  -0.000000 0.000000 -1.000000  0.494141 0.500000 1 1 1.000000
0  -32.795086 -89.307091 6.276718  0.000127 -0.011697 -0.999932  0.496094 0.498047 1 1 1.000000
phy
0  32.823303 -89.307091 6.276712  -0.000121 -0.011693 -0.999932  0.496094 0.501953 1 1 1.000000
0  -32.795086 -89.307091 6.276718  0.000127 -0.011697 -0.999932  0.496094 0.498047 1 1 1.000000
0  -37.628029 -78.650284 6.024727  -0.000136 -0.010848 -0.999941  0.496094 0.498047 1 1 1.000000
phy
0  32.823303 -89.307091 6.276712  -0.000121 -0.011693 -0.999932  0.496094 0.501953 1 1 1.000000
0  -37.628029 -78.650284 6.024727  -0.000136 -0.010848 -0.999941  0.496094 0.498047 1 1 1.000000
0  37.656254 -78.650284 6.024721  -0.000109 0.002110 -0.999998  0.496094 0.501953 1 1 1.000000
phy
0  14.908513 101.197166 6.259741  -0.000299 0.147262 -0.989097  0.503906 0.500000 1 1 1.000000
0  32.893333 97.569481 5.774817  0.005365 0.158576 -0.987332  0.503906 0.501953 1 1 1.000000
0  35.638023 79.607964 2.904919  -0.000386 0.107457 -0.994210  0.503906 0.501953 1 1 1.000000
phy
0  14.908513 101.197166 6.259741  -0.000299 0.147262 -0.989097  0.503906 0.500000 1 1 1.000000
0  35.638023 79.607964 2.904919  -0.000386 0.107457 -0.994210  0.503906 0.501953 1 1 1.000000
0  -35.609829 76.659714 2.904925  -0.001551 0.089696 -0.995968  0.503906 0.498047 1 1 1.000000
phy
0  -35.609829 76.659714 2.904925  -0.001551 0.089696 -0.995968  0.503906 0.498047 1 1 1.000000
0  -32.865150 97.569481 5.774822  -0.000735 0.136071 -0.990699  0.503906 0.498047 1 1 1.000000
0  -14.880323 101.197166 6.259743  -0.000168 0.135602 -0.990763  0.503906 0.500000 1 1 1.000000
phy
0  14.908513 101.197166 6.259741  -0.000299 0.147262 -0.989097  0.503906 0.500000 1 1 1.000000
0  -35.609829 76.659714 2.904925  -0.001551 0.089696 -0.995968  0.503906 0.498047 1 1 1.000000
0  -14.880323 101.197166 6.259743  -0.000168 0.135602 -0.990763  0.503906 0.500000 1 1 1.000000
phy
0  40.714012 23.422884 5.198385  0.776165 -0.528575 0.343768  0.501953 0.500000 1 1 1.000000
0  41.573589 31.215466 16.215303  0.742140 -0.573132 0.347488  0.501953 0.500000 1 1 1.000000
0  37.924862 26.950388 16.973358  0.767145 -0.541335 0.344160  0.501953 0.500000 1 1 1.000000
phy
0  37.924862 26.950388 16.973358  0.767145 -0.541335 0.344160  0.501953 0.500000 1 1 1.000000
0  37.572353 21.327385 9.376829  0.791885 -0.506249 0.341512  0.500000 0.500000 1 1 1.000000
0  40.714012 23.422884 5.198385  0.776165 -0.528575 0.343768  0.501953 0.500000 1 1 1.000000
phy
0  -40.683403 23.422876 5.198392  -0.775872 -0.529091 0.343635  0.498047 0.500000 1 1 1.000000
0  -37.541740 21.327377 9.376836  -0.791885 -0.506249 0.341512  0.500000 0.500000 1 1 1.000000
0  -37.894249 26.950380 16.973364  -0.767119 -0.541641 0.343735  0.498047 0.500000 1 1 1.000000
phy
0  -37.894249 26.950380 16.973364  -0.767366 -0.540926 0.344309  0.498047 0.500000 1 1 1.000000
0  -41.542973 31.215458 16.215309  -0.742140 -0.573132 0.347488  0.498047 0.500000 1 1 1.000000
0  -40.683403 23.422876 5.198392  -0.776161 -0.528310 0.344186  0.498047 0.500000 1 1 1.000000
phy
0  -39.004196 -40.552410 19.816250  -0.972701 0.095354 0.211564  0.501953 0.500000 1 1 1.000000
0  -37.791763 -47.564632 28.551081  -0.972701 0.095354 0.211564  0.501953 0.500000 1 1 1.000000
0  -37.007851 -40.402416 28.927181  -0.972701 0.095354 0.211564  0.501953 0.500000 1 1 1.000000
phy
0  39.034817 -40.552402 19.816242  0.972701 0.095354 0.211565  0.498047 0.500000 1 1 1.000000
0  37.038464 -40.402409 28.927174  0.972701 0.095354 0.211565  0.498047 0.500000 1 1 1.000000
0  37.822380 -47.564625 28.551073  0.972701 0.095354 0.211565  0.498047 0.500000 1 1 1.000000
phy
0  39.380249 83.443344 10.186113  0.970356 0.241327 0.013076  0.503906 0.500000 1 1 1.000000
0  39.015614 84.816353 10.358204  0.966808 0.255203 0.012371  0.503906 0.500000 1 1 1.000000
0  39.209908 83.751656 17.138063  0.970165 0.242095 0.013029  0.503906 0.500000 1 1 1.000000
phy
0  39.209908 83.751656 17.138063  0.970165 0.242095 0.013029  0.503906 0.500000 1 1 1.000000
0  39.521435 82.430717 17.000565  0.973526 0.228162 0.013735  0.503906 0.500000 1 1 1.000000
0  39.380249 83.443344 10.186113  0.970356 0.241327 0.013076  0.503906 0.500000 1 1 1.000000
phy
0  -38.951214 82.430580 17.000580  -0.972500 0.232486 0.013911  0.496094 0.500000 1 1 1.000000
0  -38.639645 83.751656 17.138065  -0.973511 0.228308 0.012350  0.496094 0.500000 1 1 1.000000
0  -38.480663 84.796410 10.355657  -0.972420 0.232815 0.014028  0.496094 0.500000 1 1 1.000000
phy
0  -38.480663 84.796410 10.355657  -0.972420 0.232815 0.014028  0.496094 0.500000 1 1 1.000000
0  -38.812637 83.443497 10.186353  -0.971518 0.236466 0.015392  0.496094 0.500000 1 1 1.000000
0  -38.951214 82.430580 17.000580  -0.972500 0.232486 0.013911  0.496094 0.500000 1 1 1.000000
phy
0  22.422892 104.679543 5.020458  0.004576 0.926303 0.376751  0.498047 0.500000 1 1 1.000000
0  12.169376 104.711021 5.020460  0.002848 0.927651 0.373437  0.500000 0.500000 1 1 1.000000
0  12.162946 102.889809 9.544531  0.004469 0.926341 0.376659  0.500000 0.500000 1 1 1.000000
phy
0  12.162946 102.889809 9.544531  0.004469 0.926341 0.376659  0.500000 0.500000 1 1 1.000000
0  22.350084 102.794640 9.607497  0.006291 0.924899 0.380161  0.498047 0.500000 1 1 1.000000
0  22.422892 104.679543 5.020458  0.004576 0.926303 0.376751  0.498047 0.500000 1 1 1.000000
end
