version 1
nodes
0 "blender_implicit" -1
1 "root" -1
2 "steering_wheel" 1
end
skeleton
time 0
0  0.000000 0.000000 0.000000  0.000000 -0.000000 0.000000
1  0.000000 0.000000 0.000000  1.570796 -0.000000 0.000000
2  17.056166 26.385286 16.709314  0.000000 -0.000000 0.000000
end
triangles
exhaust
0  25.559458 78.013481 3.523543  1.000000 0.000000 0.000001  0.226569 0.020478 1 1 1.000000
0  25.559458 86.849876 3.523543  0.908229 0.407186 -0.096542  0.226569 0.006806 1 1 1.000000
0  25.421822 87.042572 4.239263  0.862395 0.438452 0.253049  0.149419 0.006806 1 1 1.000000
exhaust
0  25.421822 87.042572 4.239263  0.862395 0.438452 0.253049  0.149419 0.006806 1 1 1.000000
0  25.421822 78.013481 4.239263  0.923881 -0.000000 0.382680  0.149419 0.020478 1 1 1.000000
0  25.559458 78.013481 3.523543  1.000000 0.000000 0.000001  0.226569 0.020478 1 1 1.000000
exhaust
0  25.559458 86.849876 3.523543  0.908229 0.407186 -0.096542  0.013672 0.152318 1 1 1.000000
0  25.380527 86.987518 3.523543  0.612644 0.766599 -0.192337  0.013672 0.152318 1 1 1.000000
0  25.256655 87.166451 4.170444  0.590134 0.806235 0.041555  0.013672 0.151341 1 1 1.000000
exhaust
0  25.256655 87.166451 4.170444  0.590134 0.806235 0.041555  0.013672 0.151341 1 1 1.000000
0  25.421822 87.042572 4.239263  0.862395 0.438452 0.253049  0.013672 0.151341 1 1 1.000000
0  25.559458 86.849876 3.523543  0.908229 0.407186 -0.096542  0.013672 0.152318 1 1 1.000000
exhaust
0  25.421822 78.013481 4.239263  0.923881 -0.000000 0.382680  0.149419 0.020478 1 1 1.000000
0  25.421822 87.042572 4.239263  0.862395 0.438452 0.253049  0.149419 0.006806 1 1 1.000000
0  25.022669 87.207741 4.844872  0.677628 0.469281 0.566211  0.083010 0.006806 1 1 1.000000
exhaust
0  25.022669 87.207741 4.844872  0.677628 0.469281 0.566211  0.083010 0.006806 1 1 1.000000
0  25.022669 78.013481 4.844872  0.707105 0.000000 0.707108  0.083010 0.020478 1 1 1.000000
0  25.421822 78.013481 4.239263  0.923881 -0.000000 0.382680  0.149419 0.020478 1 1 1.000000
exhaust
0  25.421822 87.042572 4.239263  0.862395 0.438452 0.253049  0.013672 0.161107 1 1 1.000000
0  25.256655 87.166451 4.170444  0.590134 0.806235 0.041555  0.013672 0.161107 1 1 1.000000
0  24.898792 87.317848 4.720998  0.469837 0.844544 0.256901  0.013672 0.161107 1 1 1.000000
exhaust
0  24.898792 87.317848 4.720998  0.469837 0.844544 0.256901  0.013672 0.161107 1 1 1.000000
0  25.022669 87.207741 4.844872  0.677628 0.469281 0.566211  0.013672 0.161107 1 1 1.000000
0  25.421822 87.042572 4.239263  0.862395 0.438452 0.253049  0.013672 0.161107 1 1 1.000000
exhaust
0  25.022669 78.013481 4.844872  0.707105 0.000000 0.707108  0.083010 0.020478 1 1 1.000000
0  25.022669 87.207741 4.844872  0.677628 0.469281 0.566211  0.083010 0.006806 1 1 1.000000
0  24.417061 87.317848 5.244024  0.373884 0.492616 0.785837  0.038087 0.006806 1 1 1.000000
exhaust
0  24.417061 87.317848 5.244024  0.373884 0.492616 0.785837  0.038087 0.006806 1 1 1.000000
0  24.417061 78.013481 5.244024  0.382677 0.000000 0.923882  0.038087 0.020478 1 1 1.000000
0  25.022669 78.013481 4.844872  0.707105 0.000000 0.707108  0.083010 0.020478 1 1 1.000000
exhaust
0  25.022669 87.207741 4.844872  0.677628 0.469281 0.566211  0.013672 0.161107 1 1 1.000000
0  24.898792 87.317848 4.720998  0.469837 0.844544 0.256901  0.013672 0.161107 1 1 1.000000
0  24.348238 87.414192 5.078858  0.261724 0.873082 0.411373  0.013672 0.160131 1 1 1.000000
exhaust
0  24.348238 87.414192 5.078858  0.261724 0.873082 0.411373  0.013672 0.160131 1 1 1.000000
0  24.417061 87.317848 5.244024  0.373884 0.492616 0.785837  0.013672 0.160131 1 1 1.000000
0  25.022669 87.207741 4.844872  0.677628 0.469281 0.566211  0.013672 0.161107 1 1 1.000000
exhaust
0  24.417061 78.013481 5.244024  0.382677 0.000000 0.923882  0.038087 0.020478 1 1 1.000000
0  24.417061 87.317848 5.244024  0.373884 0.492616 0.785837  0.038087 0.006806 1 1 1.000000
0  23.701338 87.345375 5.381662  -0.000023 0.501455 0.865184  0.023438 0.006806 1 1 1.000000
exhaust
0  23.701338 87.345375 5.381662  -0.000023 0.501455 0.865184  0.023438 0.006806 1 1 1.000000
0  23.701338 78.013481 5.381662  -0.000002 0.000000 1.000000  0.023438 0.020478 1 1 1.000000
0  24.417061 78.013481 5.244024  0.382677 0.000000 0.923882  0.038087 0.020478 1 1 1.000000
exhaust
0  24.417061 87.317848 5.244024  0.373884 0.492616 0.785837  0.013672 0.160131 1 1 1.000000
0  24.348238 87.414192 5.078858  0.261724 0.873082 0.411373  0.013672 0.160131 1 1 1.000000
0  23.701338 87.441719 5.202732  -0.000063 0.883734 0.467990  0.013672 0.159154 1 1 1.000000
exhaust
0  23.701338 87.441719 5.202732  -0.000063 0.883734 0.467990  0.013672 0.159154 1 1 1.000000
0  23.701338 87.345375 5.381662  -0.000023 0.501455 0.865184  0.013672 0.159154 1 1 1.000000
0  24.417061 87.317848 5.244024  0.373884 0.492616 0.785837  0.013672 0.160131 1 1 1.000000
exhaust
0  23.701338 78.013481 5.381662  -0.000002 0.000000 1.000000  0.023438 0.020478 1 1 1.000000
0  23.701338 87.345375 5.381662  -0.000023 0.501455 0.865184  0.023438 0.006806 1 1 1.000000
0  22.985619 87.317848 5.244024  -0.373932 0.492611 0.785818  0.038087 0.006806 1 1 1.000000
exhaust
0  22.985619 87.317848 5.244024  -0.373932 0.492611 0.785818  0.038087 0.006806 1 1 1.000000
0  22.985619 78.013481 5.244024  -0.382681 0.000002 0.923880  0.038087 0.020478 1 1 1.000000
0  23.701338 78.013481 5.381662  -0.000002 0.000000 1.000000  0.023438 0.020478 1 1 1.000000
exhaust
0  23.701338 87.345375 5.381662  -0.000023 0.501455 0.865184  0.013672 0.159154 1 1 1.000000
0  23.701338 87.441719 5.202732  -0.000063 0.883734 0.467990  0.013672 0.159154 1 1 1.000000
0  23.054438 87.414192 5.078858  -0.261813 0.873071 0.411342  0.013672 0.159154 1 1 1.000000
exhaust
0  23.054438 87.414192 5.078858  -0.261813 0.873071 0.411342  0.013672 0.159154 1 1 1.000000
0  22.985619 87.317848 5.244024  -0.373932 0.492611 0.785818  0.013672 0.159154 1 1 1.000000
0  23.701338 87.345375 5.381662  -0.000023 0.501455 0.865184  0.013672 0.159154 1 1 1.000000
exhaust
0  22.985619 78.013481 5.244024  -0.382681 0.000002 0.923880  0.038087 0.020478 1 1 1.000000
0  22.985619 87.317848 5.244024  -0.373932 0.492611 0.785818  0.038087 0.006806 1 1 1.000000
0  22.380013 87.207741 4.844872  -0.677675 0.469253 0.566179  0.083010 0.006806 1 1 1.000000
exhaust
0  22.380013 87.207741 4.844872  -0.677675 0.469253 0.566179  0.083010 0.006806 1 1 1.000000
0  22.380013 78.013481 4.844872  -0.707108 0.000000 0.707106  0.083010 0.020478 1 1 1.000000
0  22.985619 78.013481 5.244024  -0.382681 0.000002 0.923880  0.038087 0.020478 1 1 1.000000
exhaust
0  22.985619 87.317848 5.244024  -0.373932 0.492611 0.785818  0.013672 0.159154 1 1 1.000000
0  23.054438 87.414192 5.078858  -0.261813 0.873071 0.411342  0.013672 0.159154 1 1 1.000000
0  22.517649 87.317848 4.720998  -0.469845 0.844551 0.256864  0.013672 0.158177 1 1 1.000000
exhaust
0  22.517649 87.317848 4.720998  -0.469845 0.844551 0.256864  0.013672 0.158177 1 1 1.000000
0  22.380013 87.207741 4.844872  -0.677675 0.469253 0.566179  0.013672 0.158177 1 1 1.000000
0  22.985619 87.317848 5.244024  -0.373932 0.492611 0.785818  0.013672 0.159154 1 1 1.000000
exhaust
0  22.380013 78.013481 4.844872  -0.707108 0.000000 0.707106  0.083010 0.020478 1 1 1.000000
0  22.380013 87.207741 4.844872  -0.677675 0.469253 0.566179  0.083010 0.006806 1 1 1.000000
0  21.980860 87.042572 4.239264  -0.862400 0.438447 0.253044  0.149419 0.006806 1 1 1.000000
exhaust
0  21.980860 87.042572 4.239264  -0.862400 0.438447 0.253044  0.149419 0.006806 1 1 1.000000
0  21.980860 78.013481 4.239264  -0.923881 0.000000 0.382680  0.149419 0.020478 1 1 1.000000
0  22.380013 78.013481 4.844872  -0.707108 0.000000 0.707106  0.083010 0.020478 1 1 1.000000
exhaust
0  22.380013 87.207741 4.844872  -0.677675 0.469253 0.566179  0.013672 0.158177 1 1 1.000000
0  22.517649 87.317848 4.720998  -0.469845 0.844551 0.256864  0.013672 0.158177 1 1 1.000000
0  22.146025 87.166451 4.170444  -0.590154 0.806217 0.041616  0.013672 0.158177 1 1 1.000000
exhaust
0  22.146025 87.166451 4.170444  -0.590154 0.806217 0.041616  0.013672 0.158177 1 1 1.000000
0  21.980860 87.042572 4.239264  -0.862400 0.438447 0.253044  0.013672 0.158177 1 1 1.000000
0  22.380013 87.207741 4.844872  -0.677675 0.469253 0.566179  0.013672 0.158177 1 1 1.000000
exhaust
0  21.980860 78.013481 4.239264  -0.923881 0.000000 0.382680  0.149419 0.020478 1 1 1.000000
0  21.980860 87.042572 4.239264  -0.862400 0.438447 0.253044  0.149419 0.006806 1 1 1.000000
0  21.843220 86.849876 3.523543  -0.908261 0.407116 -0.096531  0.226569 0.006806 1 1 1.000000
exhaust
0  21.843220 86.849876 3.523543  -0.908261 0.407116 -0.096531  0.226569 0.006806 1 1 1.000000
0  21.843220 78.013481 3.523543  -1.000000 0.000000 -0.000002  0.226569 0.020478 1 1 1.000000
0  21.980860 78.013481 4.239264  -0.923881 0.000000 0.382680  0.149419 0.020478 1 1 1.000000
exhaust
0  21.980860 87.042572 4.239264  -0.862400 0.438447 0.253044  0.013672 0.158177 1 1 1.000000
0  22.146025 87.166451 4.170444  -0.590154 0.806217 0.041616  0.013672 0.158177 1 1 1.000000
0  22.022150 86.987518 3.523543  -0.612716 0.766546 -0.192320  0.013672 0.157201 1 1 1.000000
exhaust
0  22.022150 86.987518 3.523543  -0.612716 0.766546 -0.192320  0.013672 0.157201 1 1 1.000000
0  21.843220 86.849876 3.523543  -0.908261 0.407116 -0.096531  0.013672 0.157201 1 1 1.000000
0  21.980860 87.042572 4.239264  -0.862400 0.438447 0.253044  0.013672 0.158177 1 1 1.000000
exhaust
0  21.843220 78.013481 3.523543  -1.000000 0.000000 -0.000002  0.226569 0.020478 1 1 1.000000
0  21.843220 86.849876 3.523543  -0.908261 0.407116 -0.096531  0.226569 0.006806 1 1 1.000000
0  21.980860 86.657188 2.807823  -0.819927 0.379321 -0.428761  0.304697 0.006806 1 1 1.000000
exhaust
0  21.980860 86.657188 2.807823  -0.819927 0.379321 -0.428761  0.304697 0.006806 1 1 1.000000
0  21.980860 78.013481 2.807823  -0.923919 -0.000000 -0.382589  0.304697 0.020478 1 1 1.000000
0  21.843220 78.013481 3.523543  -1.000000 0.000000 -0.000002  0.226569 0.020478 1 1 1.000000
exhaust
0  21.843220 86.849876 3.523543  -0.908261 0.407116 -0.096531  0.013672 0.157201 1 1 1.000000
0  22.022150 86.987518 3.523543  -0.612716 0.766546 -0.192320  0.013672 0.157201 1 1 1.000000
0  22.146025 86.822350 2.876642  -0.545373 0.731656 -0.408960  0.013672 0.156224 1 1 1.000000
exhaust
0  22.146025 86.822350 2.876642  -0.545373 0.731656 -0.408960  0.013672 0.156224 1 1 1.000000
0  21.980860 86.657188 2.807823  -0.819927 0.379321 -0.428761  0.013672 0.156224 1 1 1.000000
0  21.843220 86.849876 3.523543  -0.908261 0.407116 -0.096531  0.013672 0.157201 1 1 1.000000
exhaust
0  21.980860 78.013481 2.807823  -0.923919 -0.000000 -0.382589  0.304697 0.020478 1 1 1.000000
0  21.980860 86.657188 2.807823  -0.819927 0.379321 -0.428761  0.304697 0.006806 1 1 1.000000
0  22.380013 86.492020 2.202214  -0.616224 0.359394 -0.700788  0.371105 0.006806 1 1 1.000000
exhaust
0  22.380013 86.492020 2.202214  -0.616224 0.359394 -0.700788  0.371105 0.006806 1 1 1.000000
0  22.380013 78.013481 2.202214  -0.707106 0.000000 -0.707107  0.371105 0.020478 1 1 1.000000
0  21.980860 78.013481 2.807823  -0.923919 -0.000000 -0.382589  0.304697 0.020478 1 1 1.000000
exhaust
0  21.980860 86.657188 2.807823  -0.819927 0.379321 -0.428761  0.013672 0.156224 1 1 1.000000
0  22.146025 86.822350 2.876642  -0.545373 0.731656 -0.408960  0.013672 0.156224 1 1 1.000000
0  22.517649 86.670952 2.339852  -0.405647 0.705152 -0.581559  0.013672 0.156224 1 1 1.000000
exhaust
0  22.517649 86.670952 2.339852  -0.405647 0.705152 -0.581559  0.013672 0.156224 1 1 1.000000
0  22.380013 86.492020 2.202214  -0.616224 0.359394 -0.700788  0.013672 0.156224 1 1 1.000000
0  21.980860 86.657188 2.807823  -0.819927 0.379321 -0.428761  0.013672 0.156224 1 1 1.000000
exhaust
0  22.380013 78.013481 2.202214  -0.707106 0.000000 -0.707107  0.371105 0.020478 1 1 1.000000
0  22.380013 86.492020 2.202214  -0.616224 0.359394 -0.700788  0.371105 0.006806 1 1 1.000000
0  22.985619 86.381905 1.803062  -0.330042 0.346598 -0.878033  0.416028 0.006806 1 1 1.000000
exhaust
0  22.985619 86.381905 1.803062  -0.330042 0.346598 -0.878033  0.416028 0.006806 1 1 1.000000
0  22.985619 78.013481 1.803062  -0.382680 0.000000 -0.923881  0.416028 0.020478 1 1 1.000000
0  22.380013 78.013481 2.202214  -0.707106 0.000000 -0.707107  0.371105 0.020478 1 1 1.000000
exhaust
0  22.380013 86.492020 2.202214  -0.616224 0.359394 -0.700788  0.013672 0.156224 1 1 1.000000
0  22.517649 86.670952 2.339852  -0.405647 0.705152 -0.581559  0.013672 0.156224 1 1 1.000000
0  23.054438 86.574600 1.968228  -0.215714 0.688707 -0.692207  0.013672 0.155248 1 1 1.000000
exhaust
0  23.054438 86.574600 1.968228  -0.215714 0.688707 -0.692207  0.013672 0.155248 1 1 1.000000
0  22.985619 86.381905 1.803062  -0.330042 0.346598 -0.878033  0.013672 0.155248 1 1 1.000000
0  22.380013 86.492020 2.202214  -0.616224 0.359394 -0.700788  0.013672 0.156224 1 1 1.000000
exhaust
0  22.985619 78.013481 1.803062  -0.382680 0.000000 -0.923881  0.416028 0.020478 1 1 1.000000
0  22.985619 86.381905 1.803062  -0.330042 0.346598 -0.878033  0.416028 0.006806 1 1 1.000000
0  23.701338 86.340614 1.665424  -0.000048 0.342183 -0.939633  0.430677 0.006806 1 1 1.000000
exhaust
0  23.701338 86.340614 1.665424  -0.000048 0.342183 -0.939633  0.430677 0.006806 1 1 1.000000
0  23.701338 78.013481 1.665424  0.000001 0.000000 -1.000000  0.430677 0.020478 1 1 1.000000
0  22.985619 78.013481 1.803062  -0.382680 0.000000 -0.923881  0.416028 0.020478 1 1 1.000000
exhaust
0  22.985619 86.381905 1.803062  -0.330042 0.346598 -0.878033  0.013672 0.155248 1 1 1.000000
0  23.054438 86.574600 1.968228  -0.215714 0.688707 -0.692207  0.013672 0.155248 1 1 1.000000
0  23.701338 86.533310 1.844354  -0.000044 0.683128 -0.730299  0.013672 0.154271 1 1 1.000000
exhaust
0  23.701338 86.533310 1.844354  -0.000044 0.683128 -0.730299  0.013672 0.154271 1 1 1.000000
0  23.701338 86.340614 1.665424  -0.000048 0.342183 -0.939633  0.013672 0.154271 1 1 1.000000
0  22.985619 86.381905 1.803062  -0.330042 0.346598 -0.878033  0.013672 0.155248 1 1 1.000000
exhaust
0  23.701338 78.013481 1.665424  0.000001 0.000000 -1.000000  0.430677 0.020478 1 1 1.000000
0  23.701338 86.340614 1.665424  -0.000048 0.342183 -0.939633  0.430677 0.006806 1 1 1.000000
0  24.417061 86.381905 1.803062  0.329969 0.346592 -0.878063  0.416028 0.006806 1 1 1.000000
exhaust
0  24.417061 86.381905 1.803062  0.329969 0.346592 -0.878063  0.416028 0.006806 1 1 1.000000
0  24.417061 78.013481 1.803062  0.382682 0.000003 -0.923880  0.416028 0.020478 1 1 1.000000
0  23.701338 78.013481 1.665424  0.000001 0.000000 -1.000000  0.430677 0.020478 1 1 1.000000
exhaust
0  23.701338 86.340614 1.665424  -0.000048 0.342183 -0.939633  0.013672 0.154271 1 1 1.000000
0  23.701338 86.533310 1.844354  -0.000044 0.683128 -0.730299  0.013672 0.154271 1 1 1.000000
0  24.348238 86.574600 1.968228  0.215652 0.688665 -0.692268  0.013672 0.154271 1 1 1.000000
exhaust
0  24.348238 86.574600 1.968228  0.215652 0.688665 -0.692268  0.013672 0.154271 1 1 1.000000
0  24.417061 86.381905 1.803062  0.329969 0.346592 -0.878063  0.013672 0.154271 1 1 1.000000
0  23.701338 86.340614 1.665424  -0.000048 0.342183 -0.939633  0.013672 0.154271 1 1 1.000000
exhaust
0  24.417061 78.013481 1.803062  0.382682 0.000003 -0.923880  0.416028 0.020478 1 1 1.000000
0  24.417061 86.381905 1.803062  0.329969 0.346592 -0.878063  0.416028 0.006806 1 1 1.000000
0  25.022669 86.492020 2.202214  0.616172 0.359373 -0.700844  0.371105 0.006806 1 1 1.000000
exhaust
0  25.022669 86.492020 2.202214  0.616172 0.359373 -0.700844  0.371105 0.006806 1 1 1.000000
0  25.022669 78.013481 2.202214  0.707108 0.000000 -0.707106  0.371105 0.020478 1 1 1.000000
0  24.417061 78.013481 1.803062  0.382682 0.000003 -0.923880  0.416028 0.020478 1 1 1.000000
exhaust
0  24.417061 86.381905 1.803062  0.329969 0.346592 -0.878063  0.013672 0.154271 1 1 1.000000
0  24.348238 86.574600 1.968228  0.215652 0.688665 -0.692268  0.013672 0.154271 1 1 1.000000
0  24.898792 86.670952 2.339852  0.405578 0.705148 -0.581612  0.013672 0.153294 1 1 1.000000
exhaust
0  24.898792 86.670952 2.339852  0.405578 0.705148 -0.581612  0.013672 0.153294 1 1 1.000000
0  25.022669 86.492020 2.202214  0.616172 0.359373 -0.700844  0.013672 0.153294 1 1 1.000000
0  24.417061 86.381905 1.803062  0.329969 0.346592 -0.878063  0.013672 0.154271 1 1 1.000000
exhaust
0  25.022669 78.013481 2.202214  0.707108 0.000000 -0.707106  0.371105 0.020478 1 1 1.000000
0  25.022669 86.492020 2.202214  0.616172 0.359373 -0.700844  0.371105 0.006806 1 1 1.000000
0  25.421822 86.657188 2.807823  0.819391 0.379967 -0.429213  0.304697 0.006806 1 1 1.000000
exhaust
0  25.421822 86.657188 2.807823  0.819391 0.379967 -0.429213  0.304697 0.006806 1 1 1.000000
0  25.421822 78.013481 2.807823  0.923882 0.000000 -0.382678  0.304697 0.020478 1 1 1.000000
0  25.022669 78.013481 2.202214  0.707108 0.000000 -0.707106  0.371105 0.020478 1 1 1.000000
exhaust
0  25.022669 86.492020 2.202214  0.616172 0.359373 -0.700844  0.013672 0.153294 1 1 1.000000
0  24.898792 86.670952 2.339852  0.405578 0.705148 -0.581612  0.013672 0.153294 1 1 1.000000
0  25.256655 86.822350 2.876642  0.545291 0.731718 -0.408957  0.013672 0.152318 1 1 1.000000
exhaust
0  25.256655 86.822350 2.876642  0.545291 0.731718 -0.408957  0.013672 0.152318 1 1 1.000000
0  25.421822 86.657188 2.807823  0.819391 0.379967 -0.429213  0.013672 0.152318 1 1 1.000000
0  25.022669 86.492020 2.202214  0.616172 0.359373 -0.700844  0.013672 0.153294 1 1 1.000000
exhaust
0  25.421822 78.013481 2.807823  0.923882 0.000000 -0.382678  0.304697 0.020478 1 1 1.000000
0  25.421822 86.657188 2.807823  0.819391 0.379967 -0.429213  0.304697 0.006806 1 1 1.000000
0  25.559458 86.849876 3.523543  0.908229 0.407186 -0.096542  0.226569 0.006806 1 1 1.000000
exhaust
0  25.559458 86.849876 3.523543  0.908229 0.407186 -0.096542  0.226569 0.006806 1 1 1.000000
0  25.559458 78.013481 3.523543  1.000000 0.000000 0.000001  0.226569 0.020478 1 1 1.000000
0  25.421822 78.013481 2.807823  0.923882 0.000000 -0.382678  0.304697 0.020478 1 1 1.000000
exhaust
0  25.421822 86.657188 2.807823  0.819391 0.379967 -0.429213  0.013672 0.152318 1 1 1.000000
0  25.256655 86.822350 2.876642  0.545291 0.731718 -0.408957  0.013672 0.152318 1 1 1.000000
0  25.380527 86.987518 3.523543  0.612644 0.766599 -0.192337  0.013672 0.152318 1 1 1.000000
exhaust
0  25.380527 86.987518 3.523543  0.612644 0.766599 -0.192337  0.013672 0.152318 1 1 1.000000
0  25.559458 86.849876 3.523543  0.908229 0.407186 -0.096542  0.013672 0.152318 1 1 1.000000
0  25.421822 86.657188 2.807823  0.819391 0.379967 -0.429213  0.013672 0.152318 1 1 1.000000
exhaust
0  17.782885 78.013481 3.523543  -1.000000 0.000000 0.000002  0.226569 0.020478 1 1 1.000000
0  17.934288 78.013481 4.239264  -0.923859 -0.000000 0.382734  0.149419 0.020478 1 1 1.000000
0  17.934288 87.042572 4.239264  -0.861961 0.439085 0.253431  0.149419 0.006806 1 1 1.000000
exhaust
0  17.934288 87.042572 4.239264  -0.861961 0.439085 0.253431  0.149419 0.006806 1 1 1.000000
0  17.782885 86.849876 3.523543  -0.908258 0.407130 -0.096500  0.226569 0.006806 1 1 1.000000
0  17.782885 78.013481 3.523543  -1.000000 0.000000 0.000002  0.226569 0.020478 1 1 1.000000
exhaust
0  17.782885 86.849876 3.523543  -0.908258 0.407130 -0.096500  0.013672 0.152318 1 1 1.000000
0  17.934288 87.042572 4.239264  -0.861961 0.439085 0.253431  0.013672 0.151341 1 1 1.000000
0  18.099453 87.166451 4.170444  -0.590147 0.806226 0.041546  0.013672 0.151341 1 1 1.000000
exhaust
0  18.099453 87.166451 4.170444  -0.590147 0.806226 0.041546  0.013672 0.151341 1 1 1.000000
0  17.961815 86.987518 3.523543  -0.612687 0.766567 -0.192327  0.013672 0.152318 1 1 1.000000
0  17.782885 86.849876 3.523543  -0.908258 0.407130 -0.096500  0.013672 0.152318 1 1 1.000000
exhaust
0  17.934288 78.013481 4.239264  -0.923859 -0.000000 0.382734  0.149419 0.020478 1 1 1.000000
0  18.333439 78.013481 4.844873  -0.707106 0.000000 0.707108  0.083010 0.020478 1 1 1.000000
0  18.333439 87.207741 4.844873  -0.677676 0.469263 0.566169  0.083010 0.006806 1 1 1.000000
exhaust
0  18.333439 87.207741 4.844873  -0.677676 0.469263 0.566169  0.083010 0.006806 1 1 1.000000
0  17.934288 87.042572 4.239264  -0.861961 0.439085 0.253431  0.149419 0.006806 1 1 1.000000
0  17.934288 78.013481 4.239264  -0.923859 -0.000000 0.382734  0.149419 0.020478 1 1 1.000000
exhaust
0  17.934288 87.042572 4.239264  -0.861961 0.439085 0.253431  0.013672 0.161107 1 1 1.000000
0  18.333439 87.207741 4.844873  -0.677676 0.469263 0.566169  0.013672 0.161107 1 1 1.000000
0  18.457314 87.317848 4.720998  -0.469886 0.844528 0.256863  0.013672 0.161107 1 1 1.000000
exhaust
0  18.457314 87.317848 4.720998  -0.469886 0.844528 0.256863  0.013672 0.161107 1 1 1.000000
0  18.099453 87.166451 4.170444  -0.590147 0.806226 0.041546  0.013672 0.161107 1 1 1.000000
0  17.934288 87.042572 4.239264  -0.861961 0.439085 0.253431  0.013672 0.161107 1 1 1.000000
exhaust
0  18.333439 78.013481 4.844873  -0.707106 0.000000 0.707108  0.083010 0.020478 1 1 1.000000
0  18.939049 78.013481 5.244024  -0.382583 -0.000000 0.923921  0.038087 0.020478 1 1 1.000000
0  18.939049 87.317848 5.244024  -0.373940 0.492589 0.785828  0.038087 0.006806 1 1 1.000000
exhaust
0  18.939049 87.317848 5.244024  -0.373940 0.492589 0.785828  0.038087 0.006806 1 1 1.000000
0  18.333439 87.207741 4.844873  -0.677676 0.469263 0.566169  0.083010 0.006806 1 1 1.000000
0  18.333439 78.013481 4.844873  -0.707106 0.000000 0.707108  0.083010 0.020478 1 1 1.000000
exhaust
0  18.333439 87.207741 4.844873  -0.677676 0.469263 0.566169  0.013672 0.161107 1 1 1.000000
0  18.939049 87.317848 5.244024  -0.373940 0.492589 0.785828  0.013672 0.160131 1 1 1.000000
0  19.007868 87.414192 5.078858  -0.261777 0.873064 0.411378  0.013672 0.160131 1 1 1.000000
exhaust
0  19.007868 87.414192 5.078858  -0.261777 0.873064 0.411378  0.013672 0.160131 1 1 1.000000
0  18.457314 87.317848 4.720998  -0.469886 0.844528 0.256863  0.013672 0.161107 1 1 1.000000
0  18.333439 87.207741 4.844873  -0.677676 0.469263 0.566169  0.013672 0.161107 1 1 1.000000
exhaust
0  18.939049 78.013481 5.244024  -0.382583 -0.000000 0.923921  0.038087 0.020478 1 1 1.000000
0  19.654768 78.013481 5.381663  -0.000170 0.000001 1.000000  0.023438 0.020478 1 1 1.000000
0  19.654768 87.345375 5.381663  -0.000035 0.501437 0.865194  0.023438 0.006806 1 1 1.000000
exhaust
0  19.654768 87.345375 5.381663  -0.000035 0.501437 0.865194  0.023438 0.006806 1 1 1.000000
0  18.939049 87.317848 5.244024  -0.373940 0.492589 0.785828  0.038087 0.006806 1 1 1.000000
0  18.939049 78.013481 5.244024  -0.382583 -0.000000 0.923921  0.038087 0.020478 1 1 1.000000
exhaust
0  18.939049 87.317848 5.244024  -0.373940 0.492589 0.785828  0.013672 0.160131 1 1 1.000000
0  19.654768 87.345375 5.381663  -0.000035 0.501437 0.865194  0.013672 0.159154 1 1 1.000000
0  19.654768 87.441719 5.202733  -0.000040 0.883774 0.467914  0.013672 0.159154 1 1 1.000000
exhaust
0  19.654768 87.441719 5.202733  -0.000040 0.883774 0.467914  0.013672 0.159154 1 1 1.000000
0  19.007868 87.414192 5.078858  -0.261777 0.873064 0.411378  0.013672 0.160131 1 1 1.000000
0  18.939049 87.317848 5.244024  -0.373940 0.492589 0.785828  0.013672 0.160131 1 1 1.000000
exhaust
0  19.654768 78.013481 5.381663  -0.000170 0.000001 1.000000  0.023438 0.020478 1 1 1.000000
0  20.356724 78.013481 5.244024  0.382658 0.000000 0.923890  0.038087 0.020478 1 1 1.000000
0  20.356724 87.317848 5.244024  0.373873 0.492616 0.785843  0.038087 0.006806 1 1 1.000000
exhaust
0  20.356724 87.317848 5.244024  0.373873 0.492616 0.785843  0.038087 0.006806 1 1 1.000000
0  19.654768 87.345375 5.381663  -0.000035 0.501437 0.865194  0.023438 0.006806 1 1 1.000000
0  19.654768 78.013481 5.381663  -0.000170 0.000001 1.000000  0.023438 0.020478 1 1 1.000000
exhaust
0  19.654768 87.345375 5.381663  -0.000035 0.501437 0.865194  0.013672 0.159154 1 1 1.000000
0  20.356724 87.317848 5.244024  0.373873 0.492616 0.785843  0.013672 0.159154 1 1 1.000000
0  20.287907 87.414192 5.078858  0.261731 0.873083 0.411366  0.013672 0.159154 1 1 1.000000
exhaust
0  20.287907 87.414192 5.078858  0.261731 0.873083 0.411366  0.013672 0.159154 1 1 1.000000
0  19.654768 87.441719 5.202733  -0.000040 0.883774 0.467914  0.013672 0.159154 1 1 1.000000
0  19.654768 87.345375 5.381663  -0.000035 0.501437 0.865194  0.013672 0.159154 1 1 1.000000
exhaust
0  20.356724 78.013481 5.244024  0.382658 0.000000 0.923890  0.038087 0.020478 1 1 1.000000
0  20.962334 78.013481 4.844873  0.707120 0.000000 0.707094  0.083010 0.020478 1 1 1.000000
0  20.962334 87.207741 4.844873  0.677654 0.469265 0.566194  0.083010 0.006806 1 1 1.000000
exhaust
0  20.962334 87.207741 4.844873  0.677654 0.469265 0.566194  0.083010 0.006806 1 1 1.000000
0  20.356724 87.317848 5.244024  0.373873 0.492616 0.785843  0.038087 0.006806 1 1 1.000000
0  20.356724 78.013481 5.244024  0.382658 0.000000 0.923890  0.038087 0.020478 1 1 1.000000
exhaust
0  20.356724 87.317848 5.244024  0.373873 0.492616 0.785843  0.013672 0.159154 1 1 1.000000
0  20.962334 87.207741 4.844873  0.677654 0.469265 0.566194  0.013672 0.158177 1 1 1.000000
0  20.838461 87.317848 4.720998  0.469866 0.844530 0.256897  0.013672 0.158177 1 1 1.000000
exhaust
0  20.838461 87.317848 4.720998  0.469866 0.844530 0.256897  0.013672 0.158177 1 1 1.000000
0  20.287907 87.414192 5.078858  0.261731 0.873083 0.411366  0.013672 0.159154 1 1 1.000000
0  20.356724 87.317848 5.244024  0.373873 0.492616 0.785843  0.013672 0.159154 1 1 1.000000
exhaust
0  20.962334 78.013481 4.844873  0.707120 0.000000 0.707094  0.083010 0.020478 1 1 1.000000
0  21.375250 78.013481 4.239264  0.923872 0.000000 0.382701  0.149419 0.020478 1 1 1.000000
0  21.375250 87.042572 4.239264  0.862441 0.438354 0.253065  0.149419 0.006806 1 1 1.000000
exhaust
0  21.375250 87.042572 4.239264  0.862441 0.438354 0.253065  0.149419 0.006806 1 1 1.000000
0  20.962334 87.207741 4.844873  0.677654 0.469265 0.566194  0.083010 0.006806 1 1 1.000000
0  20.962334 78.013481 4.844873  0.707120 0.000000 0.707094  0.083010 0.020478 1 1 1.000000
exhaust
0  20.962334 87.207741 4.844873  0.677654 0.469265 0.566194  0.013672 0.158177 1 1 1.000000
0  21.375250 87.042572 4.239264  0.862441 0.438354 0.253065  0.013672 0.158177 1 1 1.000000
0  21.210083 87.166451 4.170444  0.590133 0.806238 0.041521  0.013672 0.158177 1 1 1.000000
exhaust
0  21.210083 87.166451 4.170444  0.590133 0.806238 0.041521  0.013672 0.158177 1 1 1.000000
0  20.838461 87.317848 4.720998  0.469866 0.844530 0.256897  0.013672 0.158177 1 1 1.000000
0  20.962334 87.207741 4.844873  0.677654 0.469265 0.566194  0.013672 0.158177 1 1 1.000000
exhaust
0  21.375250 78.013481 4.239264  0.923872 0.000000 0.382701  0.149419 0.020478 1 1 1.000000
0  21.512888 78.013481 3.523543  1.000000 0.000000 -0.000002  0.226569 0.020478 1 1 1.000000
0  21.512888 86.849876 3.523543  0.908264 0.407114 -0.096512  0.226569 0.006806 1 1 1.000000
exhaust
0  21.512888 86.849876 3.523543  0.908264 0.407114 -0.096512  0.226569 0.006806 1 1 1.000000
0  21.375250 87.042572 4.239264  0.862441 0.438354 0.253065  0.149419 0.006806 1 1 1.000000
0  21.375250 78.013481 4.239264  0.923872 0.000000 0.382701  0.149419 0.020478 1 1 1.000000
exhaust
0  21.375250 87.042572 4.239264  0.862441 0.438354 0.253065  0.013672 0.158177 1 1 1.000000
0  21.512888 86.849876 3.523543  0.908264 0.407114 -0.096512  0.013672 0.157201 1 1 1.000000
0  21.333960 86.987518 3.523543  0.612641 0.766603 -0.192333  0.013672 0.157201 1 1 1.000000
exhaust
0  21.333960 86.987518 3.523543  0.612641 0.766603 -0.192333  0.013672 0.157201 1 1 1.000000
0  21.210083 87.166451 4.170444  0.590133 0.806238 0.041521  0.013672 0.158177 1 1 1.000000
0  21.375250 87.042572 4.239264  0.862441 0.438354 0.253065  0.013672 0.158177 1 1 1.000000
exhaust
0  21.512888 78.013481 3.523543  1.000000 0.000000 -0.000002  0.226569 0.020478 1 1 1.000000
0  21.375250 78.013481 2.807823  0.923302 0.000000 -0.384075  0.304697 0.020478 1 1 1.000000
0  21.375250 86.657188 2.807823  0.819387 0.379912 -0.429269  0.304697 0.006806 1 1 1.000000
exhaust
0  21.375250 86.657188 2.807823  0.819387 0.379912 -0.429269  0.304697 0.006806 1 1 1.000000
0  21.512888 86.849876 3.523543  0.908264 0.407114 -0.096512  0.226569 0.006806 1 1 1.000000
0  21.512888 78.013481 3.523543  1.000000 0.000000 -0.000002  0.226569 0.020478 1 1 1.000000
exhaust
0  21.512888 86.849876 3.523543  0.908264 0.407114 -0.096512  0.013672 0.157201 1 1 1.000000
0  21.375250 86.657188 2.807823  0.819387 0.379912 -0.429269  0.013672 0.156224 1 1 1.000000
0  21.210083 86.822350 2.876642  0.545321 0.731700 -0.408950  0.013672 0.156224 1 1 1.000000
exhaust
0  21.210083 86.822350 2.876642  0.545321 0.731700 -0.408950  0.013672 0.156224 1 1 1.000000
0  21.333960 86.987518 3.523543  0.612641 0.766603 -0.192333  0.013672 0.157201 1 1 1.000000
0  21.512888 86.849876 3.523543  0.908264 0.407114 -0.096512  0.013672 0.157201 1 1 1.000000
exhaust
0  21.375250 78.013481 2.807823  0.923302 0.000000 -0.384075  0.304697 0.020478 1 1 1.000000
0  20.962334 78.013481 2.202214  0.707083 -0.000000 -0.707130  0.371105 0.020478 1 1 1.000000
0  20.962334 86.492020 2.202214  0.616202 0.359350 -0.700831  0.371105 0.006806 1 1 1.000000
exhaust
0  20.962334 86.492020 2.202214  0.616202 0.359350 -0.700831  0.371105 0.006806 1 1 1.000000
0  21.375250 86.657188 2.807823  0.819387 0.379912 -0.429269  0.304697 0.006806 1 1 1.000000
0  21.375250 78.013481 2.807823  0.923302 0.000000 -0.384075  0.304697 0.020478 1 1 1.000000
exhaust
0  21.375250 86.657188 2.807823  0.819387 0.379912 -0.429269  0.013672 0.156224 1 1 1.000000
0  20.962334 86.492020 2.202214  0.616202 0.359350 -0.700831  0.013672 0.156224 1 1 1.000000
0  20.838461 86.670952 2.339852  0.405603 0.705157 -0.581584  0.013672 0.156224 1 1 1.000000
exhaust
0  20.838461 86.670952 2.339852  0.405603 0.705157 -0.581584  0.013672 0.156224 1 1 1.000000
0  21.210083 86.822350 2.876642  0.545321 0.731700 -0.408950  0.013672 0.156224 1 1 1.000000
0  21.375250 86.657188 2.807823  0.819387 0.379912 -0.429269  0.013672 0.156224 1 1 1.000000
exhaust
0  20.962334 78.013481 2.202214  0.707083 -0.000000 -0.707130  0.371105 0.020478 1 1 1.000000
0  20.356724 78.013481 1.803063  0.382563 0.000002 -0.923930  0.416028 0.020478 1 1 1.000000
0  20.356724 86.381905 1.803063  0.329943 0.346589 -0.878074  0.416028 0.006806 1 1 1.000000
exhaust
0  20.356724 86.381905 1.803063  0.329943 0.346589 -0.878074  0.416028 0.006806 1 1 1.000000
0  20.962334 86.492020 2.202214  0.616202 0.359350 -0.700831  0.371105 0.006806 1 1 1.000000
0  20.962334 78.013481 2.202214  0.707083 -0.000000 -0.707130  0.371105 0.020478 1 1 1.000000
exhaust
0  20.962334 86.492020 2.202214  0.616202 0.359350 -0.700831  0.013672 0.156224 1 1 1.000000
0  20.356724 86.381905 1.803063  0.329943 0.346589 -0.878074  0.013672 0.155248 1 1 1.000000
0  20.287907 86.574600 1.968229  0.215644 0.688693 -0.692242  0.013672 0.155248 1 1 1.000000
exhaust
0  20.287907 86.574600 1.968229  0.215644 0.688693 -0.692242  0.013672 0.155248 1 1 1.000000
0  20.838461 86.670952 2.339852  0.405603 0.705157 -0.581584  0.013672 0.156224 1 1 1.000000
0  20.962334 86.492020 2.202214  0.616202 0.359350 -0.700831  0.013672 0.156224 1 1 1.000000
exhaust
0  20.356724 78.013481 1.803063  0.382563 0.000002 -0.923930  0.416028 0.020478 1 1 1.000000
0  19.654768 78.013481 1.665424  -0.000173 0.000000 -1.000000  0.430677 0.020478 1 1 1.000000
0  19.654768 86.340614 1.665424  -0.000041 0.342255 -0.939607  0.430677 0.006806 1 1 1.000000
exhaust
0  19.654768 86.340614 1.665424  -0.000041 0.342255 -0.939607  0.430677 0.006806 1 1 1.000000
0  20.356724 86.381905 1.803063  0.329943 0.346589 -0.878074  0.416028 0.006806 1 1 1.000000
0  20.356724 78.013481 1.803063  0.382563 0.000002 -0.923930  0.416028 0.020478 1 1 1.000000
exhaust
0  20.356724 86.381905 1.803063  0.329943 0.346589 -0.878074  0.013672 0.155248 1 1 1.000000
0  19.654768 86.340614 1.665424  -0.000041 0.342255 -0.939607  0.013672 0.154271 1 1 1.000000
0  19.654768 86.533310 1.844354  0.000041 0.683067 -0.730356  0.013672 0.154271 1 1 1.000000
exhaust
0  19.654768 86.533310 1.844354  0.000041 0.683067 -0.730356  0.013672 0.154271 1 1 1.000000
0  20.287907 86.574600 1.968229  0.215644 0.688693 -0.692242  0.013672 0.155248 1 1 1.000000
0  20.356724 86.381905 1.803063  0.329943 0.346589 -0.878074  0.013672 0.155248 1 1 1.000000
exhaust
0  19.654768 78.013481 1.665424  -0.000173 0.000000 -1.000000  0.430677 0.020478 1 1 1.000000
0  18.939049 78.013481 1.803063  -0.382682 0.000000 -0.923880  0.416028 0.020478 1 1 1.000000
0  18.939049 86.381905 1.803063  -0.330014 0.346557 -0.878060  0.416028 0.006806 1 1 1.000000
exhaust
0  18.939049 86.381905 1.803063  -0.330014 0.346557 -0.878060  0.416028 0.006806 1 1 1.000000
0  19.654768 86.340614 1.665424  -0.000041 0.342255 -0.939607  0.430677 0.006806 1 1 1.000000
0  19.654768 78.013481 1.665424  -0.000173 0.000000 -1.000000  0.430677 0.020478 1 1 1.000000
exhaust
0  19.654768 86.340614 1.665424  -0.000041 0.342255 -0.939607  0.013672 0.154271 1 1 1.000000
0  18.939049 86.381905 1.803063  -0.330014 0.346557 -0.878060  0.013672 0.154271 1 1 1.000000
0  19.007868 86.574600 1.968229  -0.215719 0.688674 -0.692238  0.013672 0.154271 1 1 1.000000
exhaust
0  19.007868 86.574600 1.968229  -0.215719 0.688674 -0.692238  0.013672 0.154271 1 1 1.000000
0  19.654768 86.533310 1.844354  0.000041 0.683067 -0.730356  0.013672 0.154271 1 1 1.000000
0  19.654768 86.340614 1.665424  -0.000041 0.342255 -0.939607  0.013672 0.154271 1 1 1.000000
exhaust
0  18.939049 78.013481 1.803063  -0.382682 0.000000 -0.923880  0.416028 0.020478 1 1 1.000000
0  18.333439 78.013481 2.202214  -0.707108 0.000000 -0.707106  0.371105 0.020478 1 1 1.000000
0  18.333439 86.492020 2.202214  -0.616228 0.359353 -0.700806  0.371105 0.006806 1 1 1.000000
exhaust
0  18.333439 86.492020 2.202214  -0.616228 0.359353 -0.700806  0.371105 0.006806 1 1 1.000000
0  18.939049 86.381905 1.803063  -0.330014 0.346557 -0.878060  0.416028 0.006806 1 1 1.000000
0  18.939049 78.013481 1.803063  -0.382682 0.000000 -0.923880  0.416028 0.020478 1 1 1.000000
exhaust
0  18.939049 86.381905 1.803063  -0.330014 0.346557 -0.878060  0.013672 0.154271 1 1 1.000000
0  18.333439 86.492020 2.202214  -0.616228 0.359353 -0.700806  0.013672 0.153294 1 1 1.000000
0  18.457314 86.670952 2.339853  -0.405640 0.705133 -0.581586  0.013672 0.153294 1 1 1.000000
exhaust
0  18.457314 86.670952 2.339853  -0.405640 0.705133 -0.581586  0.013672 0.153294 1 1 1.000000
0  19.007868 86.574600 1.968229  -0.215719 0.688674 -0.692238  0.013672 0.154271 1 1 1.000000
0  18.939049 86.381905 1.803063  -0.330014 0.346557 -0.878060  0.013672 0.154271 1 1 1.000000
exhaust
0  18.333439 78.013481 2.202214  -0.707108 0.000000 -0.707106  0.371105 0.020478 1 1 1.000000
0  17.934288 78.013481 2.807823  -0.923801 0.000000 -0.382872  0.304697 0.020478 1 1 1.000000
0  17.934288 86.657188 2.807823  -0.819417 0.379849 -0.429266  0.304697 0.006806 1 1 1.000000
exhaust
0  17.934288 86.657188 2.807823  -0.819417 0.379849 -0.429266  0.304697 0.006806 1 1 1.000000
0  18.333439 86.492020 2.202214  -0.616228 0.359353 -0.700806  0.371105 0.006806 1 1 1.000000
0  18.333439 78.013481 2.202214  -0.707108 0.000000 -0.707106  0.371105 0.020478 1 1 1.000000
exhaust
0  18.333439 86.492020 2.202214  -0.616228 0.359353 -0.700806  0.013672 0.153294 1 1 1.000000
0  17.934288 86.657188 2.807823  -0.819417 0.379849 -0.429266  0.013672 0.152318 1 1 1.000000
0  18.099453 86.822350 2.876642  -0.545356 0.731678 -0.408944  0.013672 0.152318 1 1 1.000000
exhaust
0  18.099453 86.822350 2.876642  -0.545356 0.731678 -0.408944  0.013672 0.152318 1 1 1.000000
0  18.457314 86.670952 2.339853  -0.405640 0.705133 -0.581586  0.013672 0.153294 1 1 1.000000
0  18.333439 86.492020 2.202214  -0.616228 0.359353 -0.700806  0.013672 0.153294 1 1 1.000000
exhaust
0  17.934288 78.013481 2.807823  -0.923801 0.000000 -0.382872  0.304697 0.020478 1 1 1.000000
0  17.782885 78.013481 3.523543  -1.000000 0.000000 0.000002  0.226569 0.020478 1 1 1.000000
0  17.782885 86.849876 3.523543  -0.908258 0.407130 -0.096500  0.226569 0.006806 1 1 1.000000
exhaust
0  17.782885 86.849876 3.523543  -0.908258 0.407130 -0.096500  0.226569 0.006806 1 1 1.000000
0  17.934288 86.657188 2.807823  -0.819417 0.379849 -0.429266  0.304697 0.006806 1 1 1.000000
0  17.934288 78.013481 2.807823  -0.923801 0.000000 -0.382872  0.304697 0.020478 1 1 1.000000
exhaust
0  17.934288 86.657188 2.807823  -0.819417 0.379849 -0.429266  0.013672 0.152318 1 1 1.000000
0  17.782885 86.849876 3.523543  -0.908258 0.407130 -0.096500  0.013672 0.152318 1 1 1.000000
0  17.961815 86.987518 3.523543  -0.612687 0.766567 -0.192327  0.013672 0.152318 1 1 1.000000
exhaust
0  17.961815 86.987518 3.523543  -0.612687 0.766567 -0.192327  0.013672 0.152318 1 1 1.000000
0  18.099453 86.822350 2.876642  -0.545356 0.731678 -0.408944  0.013672 0.152318 1 1 1.000000
0  17.934288 86.657188 2.807823  -0.819417 0.379849 -0.429266  0.013672 0.152318 1 1 1.000000
exhaust
0  18.099453 87.166451 4.170444  0.897270 0.101033 -0.429766  0.015625 0.201147 1 1 1.000000
0  18.457314 87.317848 4.720998  0.672977 0.099565 -0.732931  0.015625 0.205054 1 1 1.000000
0  19.117979 78.013481 4.060334  0.701875 0.113589 -0.703185  0.186529 0.209937 1 1 1.000000
exhaust
0  18.099453 87.166451 4.170444  0.897270 0.101033 -0.429766  0.015625 0.201147 1 1 1.000000
0  19.117979 78.013481 4.060334  0.701875 0.113589 -0.703185  0.186529 0.209937 1 1 1.000000
0  18.897757 78.013481 3.523543  0.993041 0.117756 -0.001416  0.186529 0.207984 1 1 1.000000
exhaust
0  18.099453 87.166451 4.170444  0.897270 0.101033 -0.429766  0.015625 0.201147 1 1 1.000000
0  18.897757 78.013481 3.523543  0.993041 0.117756 -0.001416  0.186529 0.207984 1 1 1.000000
0  17.961815 86.987518 3.523543  0.992900 0.102948 -0.059592  0.015625 0.200171 1 1 1.000000
exhaust
0  19.007868 87.414192 5.078858  0.359903 0.098759 -0.927748  0.015625 0.208960 1 1 1.000000
0  19.654768 87.441719 5.202733  -0.000872 0.097797 -0.995206  0.015625 0.214820 1 1 1.000000
0  19.654768 78.013481 4.280555  0.000002 0.112371 -0.993666  0.186529 0.214820 1 1 1.000000
exhaust
0  19.007868 87.414192 5.078858  0.359903 0.098759 -0.927748  0.015625 0.208960 1 1 1.000000
0  19.654768 78.013481 4.280555  0.000002 0.112371 -0.993666  0.186529 0.214820 1 1 1.000000
0  19.117979 78.013481 4.060334  0.701875 0.113589 -0.703185  0.186529 0.209937 1 1 1.000000
exhaust
0  19.007868 87.414192 5.078858  0.359903 0.098759 -0.927748  0.015625 0.208960 1 1 1.000000
0  19.117979 78.013481 4.060334  0.701875 0.113589 -0.703185  0.186529 0.209937 1 1 1.000000
0  18.457314 87.317848 4.720998  0.672977 0.099565 -0.732931  0.015625 0.205054 1 1 1.000000
exhaust
0  20.287907 87.414192 5.078858  -0.359843 0.098746 -0.927773  0.015625 0.220679 1 1 1.000000
0  20.838461 87.317848 4.720998  -0.673444 0.099458 -0.732517  0.015625 0.225562 1 1 1.000000
0  20.177795 78.013481 4.060334  -0.701889 0.113831 -0.703131  0.186529 0.219703 1 1 1.000000
exhaust
0  20.287907 87.414192 5.078858  -0.359843 0.098746 -0.927773  0.015625 0.220679 1 1 1.000000
0  20.177795 78.013481 4.060334  -0.701889 0.113831 -0.703131  0.186529 0.219703 1 1 1.000000
0  19.654768 78.013481 4.280555  0.000002 0.112371 -0.993666  0.186529 0.214820 1 1 1.000000
exhaust
0  20.287907 87.414192 5.078858  -0.359843 0.098746 -0.927773  0.015625 0.220679 1 1 1.000000
0  19.654768 78.013481 4.280555  0.000002 0.112371 -0.993666  0.186529 0.214820 1 1 1.000000
0  19.654768 87.441719 5.202733  -0.000872 0.097797 -0.995206  0.015625 0.214820 1 1 1.000000
exhaust
0  21.210083 87.166451 4.170444  -0.897033 0.101083 -0.430249  0.015625 0.228492 1 1 1.000000
0  21.333960 86.987518 3.523543  -0.992915 0.102995 -0.059263  0.015625 0.229469 1 1 1.000000
0  20.398018 78.013481 3.523543  -0.992962 0.118422 -0.001390  0.186529 0.222633 1 1 1.000000
exhaust
0  21.210083 87.166451 4.170444  -0.897033 0.101083 -0.430249  0.015625 0.228492 1 1 1.000000
0  20.398018 78.013481 3.523543  -0.992962 0.118422 -0.001390  0.186529 0.222633 1 1 1.000000
0  20.177795 78.013481 4.060334  -0.701889 0.113831 -0.703131  0.186529 0.219703 1 1 1.000000
exhaust
0  21.210083 87.166451 4.170444  -0.897033 0.101083 -0.430249  0.015625 0.228492 1 1 1.000000
0  20.177795 78.013481 4.060334  -0.701889 0.113831 -0.703131  0.186529 0.219703 1 1 1.000000
0  20.838461 87.317848 4.720998  -0.673444 0.099458 -0.732517  0.015625 0.225562 1 1 1.000000
exhaust
0  21.210083 86.822350 2.876642  -0.938391 0.104893 0.329272  0.015625 0.228492 1 1 1.000000
0  20.838461 86.670952 2.339852  -0.732747 0.106745 0.672077  0.015625 0.225562 1 1 1.000000
0  20.177795 78.013481 2.986753  -0.702658 0.121490 0.701079  0.186529 0.219703 1 1 1.000000
exhaust
0  21.210083 86.822350 2.876642  -0.938391 0.104893 0.329272  0.015625 0.228492 1 1 1.000000
0  20.177795 78.013481 2.986753  -0.702658 0.121490 0.701079  0.186529 0.219703 1 1 1.000000
0  20.398018 78.013481 3.523543  -0.992962 0.118422 -0.001390  0.186529 0.222633 1 1 1.000000
exhaust
0  21.210083 86.822350 2.876642  -0.938391 0.104893 0.329272  0.015625 0.228492 1 1 1.000000
0  20.398018 78.013481 3.523543  -0.992962 0.118422 -0.001390  0.186529 0.222633 1 1 1.000000
0  21.333960 86.987518 3.523543  -0.992915 0.102995 -0.059263  0.015625 0.229469 1 1 1.000000
exhaust
0  20.287907 86.574600 1.968229  -0.403393 0.107233 0.908722  0.015625 0.220679 1 1 1.000000
0  19.654768 86.533310 1.844354  -0.000013 0.108499 0.994096  0.015625 0.214820 1 1 1.000000
0  19.654768 78.013481 2.766532  -0.000008 0.123177 0.992385  0.186529 0.214820 1 1 1.000000
exhaust
0  20.287907 86.574600 1.968229  -0.403393 0.107233 0.908722  0.015625 0.220679 1 1 1.000000
0  19.654768 78.013481 2.766532  -0.000008 0.123177 0.992385  0.186529 0.214820 1 1 1.000000
0  20.177795 78.013481 2.986753  -0.702658 0.121490 0.701079  0.186529 0.219703 1 1 1.000000
exhaust
0  20.287907 86.574600 1.968229  -0.403393 0.107233 0.908722  0.015625 0.220679 1 1 1.000000
0  20.177795 78.013481 2.986753  -0.702658 0.121490 0.701079  0.186529 0.219703 1 1 1.000000
0  20.838461 86.670952 2.339852  -0.732747 0.106745 0.672077  0.015625 0.225562 1 1 1.000000
exhaust
0  19.007868 86.574600 1.968229  0.401528 0.107328 0.909536  0.015625 0.208960 1 1 1.000000
0  18.457314 86.670952 2.339853  0.732787 0.106749 0.672032  0.015625 0.205054 1 1 1.000000
0  19.117979 78.013481 2.986753  0.702644 0.121154 0.701151  0.186529 0.209937 1 1 1.000000
exhaust
0  19.007868 86.574600 1.968229  0.401528 0.107328 0.909536  0.015625 0.208960 1 1 1.000000
0  19.117979 78.013481 2.986753  0.702644 0.121154 0.701151  0.186529 0.209937 1 1 1.000000
0  19.654768 78.013481 2.766532  -0.000008 0.123177 0.992385  0.186529 0.214820 1 1 1.000000
exhaust
0  19.007868 86.574600 1.968229  0.401528 0.107328 0.909536  0.015625 0.208960 1 1 1.000000
0  19.654768 78.013481 2.766532  -0.000008 0.123177 0.992385  0.186529 0.214820 1 1 1.000000
0  19.654768 86.533310 1.844354  -0.000013 0.108499 0.994096  0.015625 0.214820 1 1 1.000000
exhaust
0  18.099453 86.822350 2.876642  0.938401 0.104893 0.329243  0.015625 0.201147 1 1 1.000000
0  17.961815 86.987518 3.523543  0.992900 0.102948 -0.059592  0.015625 0.200171 1 1 1.000000
0  18.897757 78.013481 3.523543  0.993041 0.117756 -0.001416  0.186529 0.207984 1 1 1.000000
exhaust
0  18.099453 86.822350 2.876642  0.938401 0.104893 0.329243  0.015625 0.201147 1 1 1.000000
0  18.897757 78.013481 3.523543  0.993041 0.117756 -0.001416  0.186529 0.207984 1 1 1.000000
0  19.117979 78.013481 2.986753  0.702644 0.121154 0.701151  0.186529 0.209937 1 1 1.000000
exhaust
0  18.099453 86.822350 2.876642  0.938401 0.104893 0.329243  0.015625 0.201147 1 1 1.000000
0  19.117979 78.013481 2.986753  0.702644 0.121154 0.701151  0.186529 0.209937 1 1 1.000000
0  18.457314 86.670952 2.339853  0.732787 0.106749 0.672032  0.015625 0.205054 1 1 1.000000
exhaust
0  22.146025 87.166451 4.170444  0.896770 0.100443 -0.430946  0.015625 0.201147 1 1 1.000000
0  22.517649 87.317848 4.720998  0.673183 0.099396 -0.732765  0.015625 0.205054 1 1 1.000000
0  23.164549 78.013481 4.060333  0.701881 0.113542 -0.703187  0.186529 0.209937 1 1 1.000000
exhaust
0  22.146025 87.166451 4.170444  0.896770 0.100443 -0.430946  0.015625 0.201147 1 1 1.000000
0  23.164549 78.013481 4.060333  0.701881 0.113542 -0.703187  0.186529 0.209937 1 1 1.000000
0  22.944328 78.013481 3.523543  0.993140 0.116920 -0.001371  0.186529 0.207984 1 1 1.000000
exhaust
0  22.146025 87.166451 4.170444  0.896770 0.100443 -0.430946  0.015625 0.201147 1 1 1.000000
0  22.944328 78.013481 3.523543  0.993140 0.116920 -0.001371  0.186529 0.207984 1 1 1.000000
0  22.022150 86.987518 3.523543  0.992917 0.102879 -0.059432  0.015625 0.200171 1 1 1.000000
exhaust
0  23.054438 87.414192 5.078858  0.359099 0.098589 -0.928078  0.015625 0.208960 1 1 1.000000
0  23.701338 87.441719 5.202732  0.000000 0.097345 -0.995251  0.015625 0.214820 1 1 1.000000
0  23.701338 78.013481 4.280555  0.000001 0.111743 -0.993737  0.186529 0.214820 1 1 1.000000
exhaust
0  23.054438 87.414192 5.078858  0.359099 0.098589 -0.928078  0.015625 0.208960 1 1 1.000000
0  23.701338 78.013481 4.280555  0.000001 0.111743 -0.993737  0.186529 0.214820 1 1 1.000000
0  23.164549 78.013481 4.060333  0.701881 0.113542 -0.703187  0.186529 0.209937 1 1 1.000000
exhaust
0  23.054438 87.414192 5.078858  0.359099 0.098589 -0.928078  0.015625 0.208960 1 1 1.000000
0  23.164549 78.013481 4.060333  0.701881 0.113542 -0.703187  0.186529 0.209937 1 1 1.000000
0  22.517649 87.317848 4.720998  0.673183 0.099396 -0.732765  0.015625 0.205054 1 1 1.000000
exhaust
0  24.348238 87.414192 5.078858  -0.359945 0.098758 -0.927732  0.015625 0.220679 1 1 1.000000
0  24.898792 87.317848 4.720998  -0.673397 0.099469 -0.732558  0.015625 0.225562 1 1 1.000000
0  24.238129 78.013481 4.060333  -0.701875 0.113589 -0.703185  0.186529 0.219703 1 1 1.000000
exhaust
0  24.348238 87.414192 5.078858  -0.359945 0.098758 -0.927732  0.015625 0.220679 1 1 1.000000
0  24.238129 78.013481 4.060333  -0.701875 0.113589 -0.703185  0.186529 0.219703 1 1 1.000000
0  23.701338 78.013481 4.280555  0.000001 0.111743 -0.993737  0.186529 0.214820 1 1 1.000000
exhaust
0  24.348238 87.414192 5.078858  -0.359945 0.098758 -0.927732  0.015625 0.220679 1 1 1.000000
0  23.701338 78.013481 4.280555  0.000001 0.111743 -0.993737  0.186529 0.214820 1 1 1.000000
0  23.701338 87.441719 5.202732  0.000000 0.097345 -0.995251  0.015625 0.214820 1 1 1.000000
exhaust
0  25.256655 87.166451 4.170444  -0.897045 0.101074 -0.430225  0.015625 0.228492 1 1 1.000000
0  25.380527 86.987518 3.523543  -0.992913 0.102891 -0.059476  0.015625 0.229469 1 1 1.000000
0  24.458351 78.013481 3.523543  -0.993100 0.117260 -0.001388  0.186529 0.222633 1 1 1.000000
exhaust
0  25.256655 87.166451 4.170444  -0.897045 0.101074 -0.430225  0.015625 0.228492 1 1 1.000000
0  24.458351 78.013481 3.523543  -0.993100 0.117260 -0.001388  0.186529 0.222633 1 1 1.000000
0  24.238129 78.013481 4.060333  -0.701875 0.113589 -0.703185  0.186529 0.219703 1 1 1.000000
exhaust
0  25.256655 87.166451 4.170444  -0.897045 0.101074 -0.430225  0.015625 0.228492 1 1 1.000000
0  24.238129 78.013481 4.060333  -0.701875 0.113589 -0.703185  0.186529 0.219703 1 1 1.000000
0  24.898792 87.317848 4.720998  -0.673397 0.099469 -0.732558  0.015625 0.225562 1 1 1.000000
exhaust
0  25.256655 86.822350 2.876642  -0.938423 0.104877 0.329185  0.015625 0.228492 1 1 1.000000
0  24.898792 86.670952 2.339852  -0.732786 0.106752 0.672033  0.015625 0.225562 1 1 1.000000
0  24.238129 78.013481 2.986753  -0.702645 0.121154 0.701150  0.186529 0.219703 1 1 1.000000
exhaust
0  25.256655 86.822350 2.876642  -0.938423 0.104877 0.329185  0.015625 0.228492 1 1 1.000000
0  24.238129 78.013481 2.986753  -0.702645 0.121154 0.701150  0.186529 0.219703 1 1 1.000000
0  24.458351 78.013481 3.523543  -0.993100 0.117260 -0.001388  0.186529 0.222633 1 1 1.000000
exhaust
0  25.256655 86.822350 2.876642  -0.938423 0.104877 0.329185  0.015625 0.228492 1 1 1.000000
0  24.458351 78.013481 3.523543  -0.993100 0.117260 -0.001388  0.186529 0.222633 1 1 1.000000
0  25.380527 86.987518 3.523543  -0.992913 0.102891 -0.059476  0.015625 0.229469 1 1 1.000000
exhaust
0  24.348238 86.574600 1.968228  -0.401528 0.107328 0.909536  0.015625 0.220679 1 1 1.000000
0  23.701338 86.533310 1.844354  0.000000 0.107611 0.994193  0.015625 0.214820 1 1 1.000000
0  23.701338 78.013481 2.766531  0.000001 0.122514 0.992467  0.186529 0.214820 1 1 1.000000
exhaust
0  24.348238 86.574600 1.968228  -0.401528 0.107328 0.909536  0.015625 0.220679 1 1 1.000000
0  23.701338 78.013481 2.766531  0.000001 0.122514 0.992467  0.186529 0.214820 1 1 1.000000
0  24.238129 78.013481 2.986753  -0.702645 0.121154 0.701150  0.186529 0.219703 1 1 1.000000
exhaust
0  24.348238 86.574600 1.968228  -0.401528 0.107328 0.909536  0.015625 0.220679 1 1 1.000000
0  24.238129 78.013481 2.986753  -0.702645 0.121154 0.701150  0.186529 0.219703 1 1 1.000000
0  24.898792 86.670952 2.339852  -0.732786 0.106752 0.672033  0.015625 0.225562 1 1 1.000000
exhaust
0  23.054438 86.574600 1.968228  0.401736 0.108004 0.909364  0.015625 0.208960 1 1 1.000000
0  22.517649 86.670952 2.339852  0.732719 0.106679 0.672118  0.015625 0.205054 1 1 1.000000
0  23.164549 78.013481 2.986753  0.702651 0.121099 0.701154  0.186529 0.209937 1 1 1.000000
exhaust
0  23.054438 86.574600 1.968228  0.401736 0.108004 0.909364  0.015625 0.208960 1 1 1.000000
0  23.164549 78.013481 2.986753  0.702651 0.121099 0.701154  0.186529 0.209937 1 1 1.000000
0  23.701338 78.013481 2.766531  0.000001 0.122514 0.992467  0.186529 0.214820 1 1 1.000000
exhaust
0  23.054438 86.574600 1.968228  0.401736 0.108004 0.909364  0.015625 0.208960 1 1 1.000000
0  23.701338 78.013481 2.766531  0.000001 0.122514 0.992467  0.186529 0.214820 1 1 1.000000
0  23.701338 86.533310 1.844354  0.000000 0.107611 0.994193  0.015625 0.214820 1 1 1.000000
exhaust
0  22.146025 86.822350 2.876642  0.938376 0.104887 0.329316  0.015625 0.201147 1 1 1.000000
0  22.022150 86.987518 3.523543  0.992917 0.102879 -0.059432  0.015625 0.200171 1 1 1.000000
0  22.944328 78.013481 3.523543  0.993140 0.116920 -0.001371  0.186529 0.207984 1 1 1.000000
exhaust
0  22.146025 86.822350 2.876642  0.938376 0.104887 0.329316  0.015625 0.201147 1 1 1.000000
0  22.944328 78.013481 3.523543  0.993140 0.116920 -0.001371  0.186529 0.207984 1 1 1.000000
0  23.164549 78.013481 2.986753  0.702651 0.121099 0.701154  0.186529 0.209937 1 1 1.000000
exhaust
0  22.146025 86.822350 2.876642  0.938376 0.104887 0.329316  0.015625 0.201147 1 1 1.000000
0  23.164549 78.013481 2.986753  0.702651 0.121099 0.701154  0.186529 0.209937 1 1 1.000000
0  22.517649 86.670952 2.339852  0.732719 0.106679 0.672118  0.015625 0.205054 1 1 1.000000
end
