version 1
nodes
0 "blender_implicit" -1
1 "root" -1
2 "steering_wheel" 1
end
skeleton
time 0
0  0.000000 0.000000 0.000000  0.000000 -0.000000 0.000000
1  0.000000 0.000000 0.000000  1.570796 -0.000000 0.000000
2  17.056166 26.385286 16.709314  0.000000 -0.000000 0.000000
end
triangles
exhaust
0  21.678055 78.013481 5.918453  0.000000 1.000000 -0.000000  0.584002 0.992187 1 1 1.000000
0  21.678055 78.013481 0.880885  0.000000 1.000000 -0.000001  0.584002 0.595691 1 1 1.000000
0  19.420784 78.013481 0.880885  0.000000 1.000000 -0.000000  0.412122 0.595691 1 1 1.000000
exhaust
0  19.420784 78.013481 0.880885  0.000000 1.000000 -0.000000  0.412122 0.595691 1 1 1.000000
0  18.058163 78.013481 1.252509  0.000000 1.000000 0.000000  0.300790 0.622059 1 1 1.000000
0  17.080929 78.013481 2.215978  0.000000 1.000000 0.000000  0.221686 0.699210 1 1 1.000000
exhaust
0  17.080929 78.013481 2.215978  0.000000 1.000000 0.000000  0.221686 0.699210 1 1 1.000000
0  16.709307 78.013481 3.592363  0.000000 1.000000 0.000000  0.192389 0.807611 1 1 1.000000
0  17.080929 78.013481 4.954984  0.000000 1.000000 0.000000  0.221686 0.916013 1 1 1.000000
exhaust
0  19.420784 78.013481 0.880885  0.000000 1.000000 -0.000000  0.412122 0.595691 1 1 1.000000
0  17.080929 78.013481 2.215978  0.000000 1.000000 0.000000  0.221686 0.699210 1 1 1.000000
0  17.080929 78.013481 4.954984  0.000000 1.000000 0.000000  0.221686 0.916013 1 1 1.000000
exhaust
0  21.678055 78.013481 5.918453  0.000000 1.000000 -0.000000  0.584002 0.992187 1 1 1.000000
0  19.420784 78.013481 0.880885  0.000000 1.000000 -0.000000  0.412122 0.595691 1 1 1.000000
0  17.080929 78.013481 4.954984  0.000000 1.000000 0.000000  0.221686 0.916013 1 1 1.000000
exhaust
0  21.678055 78.013481 5.918453  0.000000 1.000000 -0.000000  0.584002 0.992187 1 1 1.000000
0  17.080929 78.013481 4.954984  0.000000 1.000000 0.000000  0.221686 0.916013 1 1 1.000000
0  18.058163 78.013481 5.918453  0.000000 1.000000 0.000004  0.300790 0.992187 1 1 1.000000
exhaust
0  18.058165 63.465099 1.252509  -0.501156 -0.000000 -0.865357  0.033204 0.241188 1 1 1.000000
0  17.080931 63.465099 2.215978  -0.865313 -0.000000 -0.501231  0.017579 0.241188 1 1 1.000000
0  17.080929 78.013481 2.215978  -0.865285 0.000001 -0.501280  0.017579 0.979492 1 1 1.000000
exhaust
0  17.080929 78.013481 2.215978  -0.865285 0.000001 -0.501280  0.017579 0.979492 1 1 1.000000
0  18.058163 78.013481 1.252509  -0.500703 -0.000002 -0.865619  0.033204 0.979492 1 1 1.000000
0  18.058165 63.465099 1.252509  -0.501156 -0.000000 -0.865357  0.033204 0.241188 1 1 1.000000
exhaust
0  17.080931 63.465099 2.215978  -0.865313 -0.000000 -0.501231  0.017579 0.241188 1 1 1.000000
0  16.709309 63.465099 3.592363  -1.000000 -0.000000 -0.000330  0.001953 0.241188 1 1 1.000000
0  16.709307 78.013481 3.592363  -0.999999 0.000000 0.001270  0.001953 0.979492 1 1 1.000000
exhaust
0  16.709307 78.013481 3.592363  -0.999999 0.000000 0.001270  0.001953 0.979492 1 1 1.000000
0  17.080929 78.013481 2.215978  -0.865285 0.000001 -0.501280  0.017579 0.979492 1 1 1.000000
0  17.080931 63.465099 2.215978  -0.865313 -0.000000 -0.501231  0.017579 0.241188 1 1 1.000000
exhaust
0  26.633039 63.465103 3.592362  0.999999 0.000000 0.001270  0.183599 0.241188 1 1 1.000000
0  26.261415 63.465103 2.215977  0.865546 0.000000 -0.500829  0.166997 0.241188 1 1 1.000000
0  26.261414 78.013481 2.215977  0.865548 0.000000 -0.500826  0.166997 0.979492 1 1 1.000000
exhaust
0  26.261414 78.013481 2.215977  0.865548 0.000000 -0.500826  0.166997 0.979492 1 1 1.000000
0  26.633038 78.013481 3.592362  1.000000 0.000000 0.000150  0.183599 0.979492 1 1 1.000000
0  26.633039 63.465103 3.592362  0.999999 0.000000 0.001270  0.183599 0.241188 1 1 1.000000
exhaust
0  26.261415 63.465103 2.215977  0.865546 0.000000 -0.500829  0.166997 0.241188 1 1 1.000000
0  25.297949 63.465103 1.252508  0.501926 0.000000 -0.864911  0.151372 0.241188 1 1 1.000000
0  25.297947 78.013481 1.252508  0.501929 0.000000 -0.864909  0.151372 0.979492 1 1 1.000000
exhaust
0  25.297947 78.013481 1.252508  0.501929 0.000000 -0.864909  0.151372 0.979492 1 1 1.000000
0  26.261414 78.013481 2.215977  0.865548 0.000000 -0.500826  0.166997 0.979492 1 1 1.000000
0  26.261415 63.465103 2.215977  0.865546 0.000000 -0.500829  0.166997 0.241188 1 1 1.000000
exhaust
0  25.297949 63.465103 1.252508  0.501926 0.000000 -0.864911  0.151372 0.241188 1 1 1.000000
0  23.935328 63.465099 0.880884  0.132733 -0.000000 -0.991152  0.128910 0.241188 1 1 1.000000
0  23.935326 78.013481 0.880884  0.131304 0.000001 -0.991342  0.128910 0.979492 1 1 1.000000
exhaust
0  23.935326 78.013481 0.880884  0.131304 0.000001 -0.991342  0.128910 0.979492 1 1 1.000000
0  25.297947 78.013481 1.252508  0.501929 0.000000 -0.864909  0.151372 0.979492 1 1 1.000000
0  25.297949 63.465103 1.252508  0.501926 0.000000 -0.864911  0.151372 0.241188 1 1 1.000000
exhaust
0  23.935326 78.013481 0.880884  0.131304 0.000001 -0.991342  0.128910 0.979492 1 1 1.000000
0  23.935328 63.465099 0.880884  0.132733 -0.000000 -0.991152  0.128910 0.241188 1 1 1.000000
0  21.678057 63.465099 0.880885  -0.000000 -0.000000 -1.000000  0.092776 0.241188 1 1 1.000000
exhaust
0  21.678057 63.465099 0.880885  -0.000000 -0.000000 -1.000000  0.092776 0.241188 1 1 1.000000
0  21.678055 78.013481 0.880885  -0.000000 0.000000 -1.000000  0.092776 0.979492 1 1 1.000000
0  23.935326 78.013481 0.880884  0.131304 0.000001 -0.991342  0.128910 0.979492 1 1 1.000000
exhaust
0  19.420786 63.465099 0.880885  -0.132734 -0.000000 -0.991152  0.055666 0.241188 1 1 1.000000
0  18.058165 63.465099 1.252509  -0.501156 -0.000000 -0.865357  0.033204 0.241188 1 1 1.000000
0  18.058163 78.013481 1.252509  -0.500703 -0.000002 -0.865619  0.033204 0.979492 1 1 1.000000
exhaust
0  18.058163 78.013481 1.252509  -0.500703 -0.000002 -0.865619  0.033204 0.979492 1 1 1.000000
0  19.420784 78.013481 0.880885  -0.132030 -0.000000 -0.991246  0.055666 0.979492 1 1 1.000000
0  19.420786 63.465099 0.880885  -0.132734 -0.000000 -0.991152  0.055666 0.241188 1 1 1.000000
exhaust
0  21.678057 63.465099 0.880885  0.000000 -1.000000 0.000000  0.588885 0.211890 1 1 1.000000
0  21.678057 63.465099 5.918453  0.000000 -1.000000 0.000001  0.588885 0.570299 1 1 1.000000
0  18.058165 63.465099 5.918453  0.000000 -1.000000 0.000000  0.877957 0.570299 1 1 1.000000
exhaust
0  18.058165 63.465099 5.918453  0.000000 -1.000000 0.000000  0.877957 0.570299 1 1 1.000000
0  17.080931 63.465099 4.954984  0.000000 -1.000000 0.000000  0.955107 0.500961 1 1 1.000000
0  16.709309 63.465099 3.592363  0.000000 -1.000000 0.000000  0.984405 0.404279 1 1 1.000000
exhaust
0  16.709309 63.465099 3.592363  0.000000 -1.000000 0.000000  0.984405 0.404279 1 1 1.000000
0  17.080931 63.465099 2.215978  0.000000 -1.000000 0.000000  0.955107 0.306619 1 1 1.000000
0  18.058165 63.465099 1.252509  0.000000 -1.000000 0.000000  0.877957 0.238258 1 1 1.000000
exhaust
0  18.058165 63.465099 5.918453  0.000000 -1.000000 0.000000  0.877957 0.570299 1 1 1.000000
0  16.709309 63.465099 3.592363  0.000000 -1.000000 0.000000  0.984405 0.404279 1 1 1.000000
0  18.058165 63.465099 1.252509  0.000000 -1.000000 0.000000  0.877957 0.238258 1 1 1.000000
exhaust
0  21.678057 63.465099 0.880885  0.000000 -1.000000 0.000000  0.588885 0.211890 1 1 1.000000
0  18.058165 63.465099 5.918453  0.000000 -1.000000 0.000000  0.877957 0.570299 1 1 1.000000
0  18.058165 63.465099 1.252509  0.000000 -1.000000 0.000000  0.877957 0.238258 1 1 1.000000
exhaust
0  21.678057 63.465099 0.880885  0.000000 -1.000000 0.000000  0.588885 0.211890 1 1 1.000000
0  18.058165 63.465099 1.252509  0.000000 -1.000000 0.000000  0.877957 0.238258 1 1 1.000000
0  19.420786 63.465099 0.880885  0.000000 -1.000000 0.000000  0.768578 0.211890 1 1 1.000000
exhaust
0  18.058165 63.465099 5.918453  -0.382261 -0.000000 0.924054  0.044923 0.241188 1 1 1.000000
0  18.058163 78.013481 5.918453  -0.382540 0.000000 0.923939  0.044923 0.979492 1 1 1.000000
0  17.080929 78.013481 4.954984  -0.865327 -0.000000 0.501207  0.017579 0.979492 1 1 1.000000
exhaust
0  17.080929 78.013481 4.954984  -0.865327 -0.000000 0.501207  0.017579 0.979492 1 1 1.000000
0  17.080931 63.465099 4.954984  -0.865330 -0.000001 0.501203  0.017579 0.241188 1 1 1.000000
0  18.058165 63.465099 5.918453  -0.382261 -0.000000 0.924054  0.044923 0.241188 1 1 1.000000
exhaust
0  17.080931 63.465099 4.954984  -0.865330 -0.000001 0.501203  0.017579 0.241188 1 1 1.000000
0  17.080929 78.013481 4.954984  -0.865327 -0.000000 0.501207  0.017579 0.979492 1 1 1.000000
0  16.709307 78.013481 3.592363  -0.999999 0.000000 0.001270  0.001953 0.979492 1 1 1.000000
exhaust
0  16.709307 78.013481 3.592363  -0.999999 0.000000 0.001270  0.001953 0.979492 1 1 1.000000
0  16.709309 63.465099 3.592363  -1.000000 -0.000000 -0.000330  0.001953 0.241188 1 1 1.000000
0  17.080931 63.465099 4.954984  -0.865330 -0.000001 0.501203  0.017579 0.241188 1 1 1.000000
exhaust
0  26.633039 63.465103 3.592362  0.999999 0.000000 0.001270  0.183599 0.241188 1 1 1.000000
0  26.633038 78.013481 3.592362  1.000000 0.000000 0.000150  0.183599 0.979492 1 1 1.000000
0  26.261414 78.013481 4.954983  0.864911 0.000000 0.501925  0.166997 0.979492 1 1 1.000000
exhaust
0  26.261414 78.013481 4.954983  0.864911 0.000000 0.501925  0.166997 0.979492 1 1 1.000000
0  26.261415 63.465103 4.954983  0.864910 0.000000 0.501928  0.166997 0.241188 1 1 1.000000
0  26.633039 63.465103 3.592362  0.999999 0.000000 0.001270  0.183599 0.241188 1 1 1.000000
exhaust
0  26.261415 63.465103 4.954983  0.864910 0.000000 0.501928  0.166997 0.241188 1 1 1.000000
0  26.261414 78.013481 4.954983  0.864911 0.000000 0.501925  0.166997 0.979492 1 1 1.000000
0  25.297947 78.013481 5.918452  0.382694 0.000000 0.923875  0.139653 0.979492 1 1 1.000000
exhaust
0  25.297947 78.013481 5.918452  0.382694 0.000000 0.923875  0.139653 0.979492 1 1 1.000000
0  25.297949 63.465103 5.918452  0.382684 0.000000 0.923879  0.139653 0.241188 1 1 1.000000
0  26.261415 63.465103 4.954983  0.864910 0.000000 0.501928  0.166997 0.241188 1 1 1.000000
exhaust
0  21.678057 63.465099 5.918453  0.000000 0.000000 1.000000  0.092776 0.241188 1 1 1.000000
0  25.297949 63.465103 5.918452  0.382684 0.000000 0.923879  0.139653 0.241188 1 1 1.000000
0  25.297947 78.013481 5.918452  0.382694 0.000000 0.923875  0.139653 0.979492 1 1 1.000000
exhaust
0  25.297947 78.013481 5.918452  0.382694 0.000000 0.923875  0.139653 0.979492 1 1 1.000000
0  21.678055 78.013481 5.918453  0.000000 0.000000 1.000000  0.092776 0.979492 1 1 1.000000
0  21.678057 63.465099 5.918453  0.000000 0.000000 1.000000  0.092776 0.241188 1 1 1.000000
exhaust
0  25.297947 78.013481 1.252508  0.000000 1.000000 -0.000003  0.300790 0.622059 1 1 1.000000
0  23.935326 78.013481 0.880884  0.000000 1.000000 -0.000036  0.412122 0.595691 1 1 1.000000
0  21.678055 78.013481 0.880885  0.000000 1.000000 -0.000001  0.584002 0.595691 1 1 1.000000
exhaust
0  21.678055 78.013481 0.880885  0.000000 1.000000 -0.000001  0.584002 0.595691 1 1 1.000000
0  21.678055 78.013481 5.918453  0.000000 1.000000 -0.000000  0.584002 0.992187 1 1 1.000000
0  25.297947 78.013481 5.918452  0.000000 1.000000 0.000000  0.300790 0.992187 1 1 1.000000
exhaust
0  25.297947 78.013481 1.252508  0.000000 1.000000 -0.000003  0.300790 0.622059 1 1 1.000000
0  21.678055 78.013481 0.880885  0.000000 1.000000 -0.000001  0.584002 0.595691 1 1 1.000000
0  25.297947 78.013481 5.918452  0.000000 1.000000 0.000000  0.300790 0.992187 1 1 1.000000
exhaust
0  25.297947 78.013481 5.918452  0.000000 1.000000 0.000000  0.300790 0.992187 1 1 1.000000
0  26.261414 78.013481 4.954983  0.000000 1.000000 0.000004  0.221686 0.916013 1 1 1.000000
0  26.633038 78.013481 3.592362  0.000000 1.000000 0.000000  0.192389 0.807611 1 1 1.000000
exhaust
0  25.297947 78.013481 1.252508  0.000000 1.000000 -0.000003  0.300790 0.622059 1 1 1.000000
0  25.297947 78.013481 5.918452  0.000000 1.000000 0.000000  0.300790 0.992187 1 1 1.000000
0  26.633038 78.013481 3.592362  0.000000 1.000000 0.000000  0.192389 0.807611 1 1 1.000000
exhaust
0  25.297947 78.013481 1.252508  0.000000 1.000000 -0.000003  0.300790 0.622059 1 1 1.000000
0  26.633038 78.013481 3.592362  0.000000 1.000000 0.000000  0.192389 0.807611 1 1 1.000000
0  26.261414 78.013481 2.215977  0.000000 1.000000 -0.000004  0.221686 0.699210 1 1 1.000000
exhaust
0  21.678055 78.013481 0.880885  -0.000000 0.000000 -1.000000  0.092776 0.979492 1 1 1.000000
0  21.678057 63.465099 0.880885  -0.000000 -0.000000 -1.000000  0.092776 0.241188 1 1 1.000000
0  19.420786 63.465099 0.880885  -0.132734 -0.000000 -0.991152  0.055666 0.241188 1 1 1.000000
exhaust
0  19.420786 63.465099 0.880885  -0.132734 -0.000000 -0.991152  0.055666 0.241188 1 1 1.000000
0  19.420784 78.013481 0.880885  -0.132030 -0.000000 -0.991246  0.055666 0.979492 1 1 1.000000
0  21.678055 78.013481 0.880885  -0.000000 0.000000 -1.000000  0.092776 0.979492 1 1 1.000000
exhaust
0  26.261415 63.465103 4.954983  0.000001 -1.000000 0.000002  0.955107 0.500961 1 1 1.000000
0  25.297949 63.465103 5.918452  0.000001 -1.000000 0.000009  0.877957 0.570299 1 1 1.000000
0  21.678057 63.465099 5.918453  0.000000 -1.000000 0.000001  0.588885 0.570299 1 1 1.000000
exhaust
0  21.678057 63.465099 5.918453  0.000000 -1.000000 0.000001  0.588885 0.570299 1 1 1.000000
0  21.678057 63.465099 0.880885  0.000000 -1.000000 0.000000  0.588885 0.211890 1 1 1.000000
0  23.935328 63.465099 0.880884  0.000001 -1.000000 -0.000001  0.768578 0.211890 1 1 1.000000
exhaust
0  26.261415 63.465103 4.954983  0.000001 -1.000000 0.000002  0.955107 0.500961 1 1 1.000000
0  21.678057 63.465099 5.918453  0.000000 -1.000000 0.000001  0.588885 0.570299 1 1 1.000000
0  23.935328 63.465099 0.880884  0.000001 -1.000000 -0.000001  0.768578 0.211890 1 1 1.000000
exhaust
0  23.935328 63.465099 0.880884  0.000001 -1.000000 -0.000001  0.768578 0.211890 1 1 1.000000
0  25.297949 63.465103 1.252508  0.000004 -1.000000 -0.000008  0.877957 0.238258 1 1 1.000000
0  26.261415 63.465103 2.215977  0.000002 -1.000000 -0.000001  0.955107 0.306619 1 1 1.000000
exhaust
0  26.261415 63.465103 4.954983  0.000001 -1.000000 0.000002  0.955107 0.500961 1 1 1.000000
0  23.935328 63.465099 0.880884  0.000001 -1.000000 -0.000001  0.768578 0.211890 1 1 1.000000
0  26.261415 63.465103 2.215977  0.000002 -1.000000 -0.000001  0.955107 0.306619 1 1 1.000000
exhaust
0  26.261415 63.465103 4.954983  0.000001 -1.000000 0.000002  0.955107 0.500961 1 1 1.000000
0  26.261415 63.465103 2.215977  0.000002 -1.000000 -0.000001  0.955107 0.306619 1 1 1.000000
0  26.633039 63.465103 3.592362  0.000000 -1.000000 0.000000  0.984405 0.404279 1 1 1.000000
exhaust
0  21.678057 63.465099 5.918453  0.000000 0.000000 1.000000  0.092776 0.241188 1 1 1.000000
0  21.678055 78.013481 5.918453  0.000000 0.000000 1.000000  0.092776 0.979492 1 1 1.000000
0  18.058163 78.013481 5.918453  -0.382540 0.000000 0.923939  0.044923 0.979492 1 1 1.000000
exhaust
0  18.058163 78.013481 5.918453  -0.382540 0.000000 0.923939  0.044923 0.979492 1 1 1.000000
0  18.058165 63.465099 5.918453  -0.382261 -0.000000 0.924054  0.044923 0.241188 1 1 1.000000
0  21.678057 63.465099 5.918453  0.000000 0.000000 1.000000  0.092776 0.241188 1 1 1.000000
exhaust
0  19.186800 48.517563 1.472730  0.122547 0.056978 -0.990826  0.092776 0.489242 1 1 1.000000
0  18.016872 48.765312 2.697713  -0.926464 0.375298 0.028545  0.013672 0.489242 1 1 1.000000
0  20.673296 64.924072 3.853876  -0.986392 0.161168 0.032501  0.013672 0.266579 1 1 1.000000
exhaust
0  20.673296 64.924072 3.853876  -0.986392 0.161168 0.032501  0.013672 0.266579 1 1 1.000000
0  21.898279 64.924072 2.615129  0.078781 0.055311 -0.995356  0.092776 0.266579 1 1 1.000000
0  19.186800 48.517563 1.472730  0.122547 0.056978 -0.990826  0.092776 0.489242 1 1 1.000000
exhaust
0  19.186800 48.517563 3.936459  0.048221 -0.148138 0.987790  0.092776 0.489242 1 1 1.000000
0  21.898279 64.924072 5.092622  0.068685 -0.081496 0.994304  0.092776 0.266579 1 1 1.000000
0  20.673296 64.924072 3.853876  -0.986392 0.161168 0.032501  0.013672 0.266579 1 1 1.000000
exhaust
0  20.673296 64.924072 3.853876  -0.986392 0.161168 0.032501  0.013672 0.266579 1 1 1.000000
0  18.016872 48.765312 2.697713  -0.926464 0.375298 0.028545  0.013672 0.489242 1 1 1.000000
0  19.186800 48.517563 3.936459  0.048221 -0.148138 0.987790  0.092776 0.489242 1 1 1.000000
exhaust
0  20.342962 48.283573 2.711477  0.936595 -0.350276 0.009763  0.166997 0.489242 1 1 1.000000
0  23.123257 64.924072 3.853876  0.985538 -0.166996 0.028773  0.166997 0.266579 1 1 1.000000
0  21.898279 64.924072 5.092622  0.068685 -0.081496 0.994304  0.092776 0.266579 1 1 1.000000
exhaust
0  21.898279 64.924072 5.092622  0.068685 -0.081496 0.994304  0.092776 0.266579 1 1 1.000000
0  19.186800 48.517563 3.936459  0.048221 -0.148138 0.987790  0.092776 0.489242 1 1 1.000000
0  20.342962 48.283573 2.711477  0.936595 -0.350276 0.009763  0.166997 0.489242 1 1 1.000000
exhaust
0  20.342962 48.283573 2.711477  0.936595 -0.350276 0.009763  0.166997 0.489242 1 1 1.000000
0  19.186800 48.517563 1.472730  0.122547 0.056978 -0.990826  0.092776 0.489242 1 1 1.000000
0  21.898279 64.924072 2.615129  0.078781 0.055311 -0.995356  0.092776 0.266579 1 1 1.000000
exhaust
0  21.898279 64.924072 2.615129  0.078781 0.055311 -0.995356  0.092776 0.266579 1 1 1.000000
0  23.123257 64.924072 3.853876  0.985538 -0.166996 0.028773  0.166997 0.266579 1 1 1.000000
0  20.342962 48.283573 2.711477  0.936595 -0.350276 0.009763  0.166997 0.489242 1 1 1.000000
exhaust
0  2.491254 34.561020 0.523026  -0.126495 0.063653 -0.989923  0.092776 0.625965 1 1 1.000000
0  -0.110113 28.394815 1.224982  -0.189504 -0.035271 -0.981246  0.092776 0.774407 1 1 1.000000
0  -1.348859 28.394815 2.449965  -0.920776 0.388738 0.032467  0.013672 0.774407 1 1 1.000000
exhaust
0  -1.348859 28.394815 2.449965  -0.920776 0.388738 0.032467  0.013672 0.774407 1 1 1.000000
0  1.527785 35.194160 1.761772  -0.764937 0.643845 -0.018289  0.013672 0.625965 1 1 1.000000
0  2.491254 34.561020 0.523026  -0.126495 0.063653 -0.989923  0.092776 0.625965 1 1 1.000000
exhaust
0  1.527785 35.194160 1.761772  -0.764937 0.643845 -0.018289  0.013672 0.625965 1 1 1.000000
0  -1.348859 28.394815 2.449965  -0.920776 0.388738 0.032467  0.013672 0.774407 1 1 1.000000
0  -0.110113 28.394815 3.688711  -0.159038 0.171718 0.972224  0.092776 0.774407 1 1 1.000000
exhaust
0  -0.110113 28.394815 3.688711  -0.159038 0.171718 0.972224  0.092776 0.774407 1 1 1.000000
0  2.491254 34.561020 3.000518  -0.064099 0.162264 0.984663  0.092776 0.625965 1 1 1.000000
0  1.527785 35.194160 1.761772  -0.764937 0.643845 -0.018289  0.013672 0.625965 1 1 1.000000
exhaust
0  2.491254 34.561020 3.000518  -0.064099 0.162264 0.984663  0.092776 0.625965 1 1 1.000000
0  -0.110113 28.394815 3.688711  -0.159038 0.171718 0.972224  0.092776 0.774407 1 1 1.000000
0  1.114870 28.394815 2.449965  0.919834 -0.387462 0.061468  0.166997 0.774407 1 1 1.000000
exhaust
0  1.114870 28.394815 2.449965  0.919834 -0.387462 0.061468  0.166997 0.774407 1 1 1.000000
0  3.454723 33.914120 1.761772  0.738783 -0.673602 -0.021465  0.166997 0.625965 1 1 1.000000
0  2.491254 34.561020 3.000518  -0.064099 0.162264 0.984663  0.092776 0.625965 1 1 1.000000
exhaust
0  3.454723 33.914120 1.761772  0.738783 -0.673602 -0.021465  0.166997 0.625965 1 1 1.000000
0  1.114870 28.394815 2.449965  0.919834 -0.387462 0.061468  0.166997 0.774407 1 1 1.000000
0  -0.110113 28.394815 1.224982  -0.189504 -0.035271 -0.981246  0.092776 0.774407 1 1 1.000000
exhaust
0  -0.110113 28.394815 1.224982  -0.189504 -0.035271 -0.981246  0.092776 0.774407 1 1 1.000000
0  2.491254 34.561020 0.523026  -0.126495 0.063653 -0.989923  0.092776 0.625965 1 1 1.000000
0  3.454723 33.914120 1.761772  0.738783 -0.673602 -0.021465  0.166997 0.625965 1 1 1.000000
exhaust
0  13.997830 42.695457 1.555314  -0.676795 0.735291 -0.035999  0.013672 0.558580 1 1 1.000000
0  14.933771 41.965969 0.316567  0.100369 -0.037457 -0.994245  0.092776 0.558580 1 1 1.000000
0  2.491254 34.561020 0.523026  -0.126495 0.063653 -0.989923  0.092776 0.625965 1 1 1.000000
exhaust
0  2.491254 34.561020 0.523026  -0.126495 0.063653 -0.989923  0.092776 0.625965 1 1 1.000000
0  1.527785 35.194160 1.761772  -0.764937 0.643845 -0.018289  0.013672 0.625965 1 1 1.000000
0  13.997830 42.695457 1.555314  -0.676795 0.735291 -0.035999  0.013672 0.558580 1 1 1.000000
exhaust
0  2.491254 34.561020 3.000518  -0.064099 0.162264 0.984663  0.092776 0.625965 1 1 1.000000
0  14.933771 41.965969 2.780296  0.024816 -0.139648 0.989890  0.092776 0.558580 1 1 1.000000
0  13.997830 42.695457 1.555314  -0.676795 0.735291 -0.035999  0.013672 0.558580 1 1 1.000000
exhaust
0  13.997830 42.695457 1.555314  -0.676795 0.735291 -0.035999  0.013672 0.558580 1 1 1.000000
0  1.527785 35.194160 1.761772  -0.764937 0.643845 -0.018289  0.013672 0.625965 1 1 1.000000
0  2.491254 34.561020 3.000518  -0.064099 0.162264 0.984663  0.092776 0.625965 1 1 1.000000
exhaust
0  3.454723 33.914120 1.761772  0.738783 -0.673602 -0.021465  0.166997 0.625965 1 1 1.000000
0  15.869713 41.236488 1.555313  0.706363 -0.707149 -0.031487  0.166997 0.558580 1 1 1.000000
0  14.933771 41.965969 2.780296  0.024816 -0.139648 0.989890  0.092776 0.558580 1 1 1.000000
exhaust
0  14.933771 41.965969 2.780296  0.024816 -0.139648 0.989890  0.092776 0.558580 1 1 1.000000
0  2.491254 34.561020 3.000518  -0.064099 0.162264 0.984663  0.092776 0.625965 1 1 1.000000
0  3.454723 33.914120 1.761772  0.738783 -0.673602 -0.021465  0.166997 0.625965 1 1 1.000000
exhaust
0  14.933771 41.965969 0.316567  0.100369 -0.037457 -0.994245  0.092776 0.558580 1 1 1.000000
0  15.869713 41.236488 1.555313  0.706363 -0.707149 -0.031487  0.166997 0.558580 1 1 1.000000
0  3.454723 33.914120 1.761772  0.738783 -0.673602 -0.021465  0.166997 0.625965 1 1 1.000000
exhaust
0  3.454723 33.914120 1.761772  0.738783 -0.673602 -0.021465  0.166997 0.625965 1 1 1.000000
0  2.491254 34.561020 0.523026  -0.126495 0.063653 -0.989923  0.092776 0.625965 1 1 1.000000
0  14.933771 41.965969 0.316567  0.100369 -0.037457 -0.994245  0.092776 0.558580 1 1 1.000000
exhaust
0  19.186800 48.517563 1.472730  0.122547 0.056978 -0.990826  0.092776 0.489242 1 1 1.000000
0  14.933771 41.965969 0.316567  0.100369 -0.037457 -0.994245  0.092776 0.558580 1 1 1.000000
0  13.997830 42.695457 1.555314  -0.676795 0.735291 -0.035999  0.013672 0.558580 1 1 1.000000
exhaust
0  13.997830 42.695457 1.555314  -0.676795 0.735291 -0.035999  0.013672 0.558580 1 1 1.000000
0  18.016872 48.765312 2.697713  -0.926464 0.375298 0.028545  0.013672 0.489242 1 1 1.000000
0  19.186800 48.517563 1.472730  0.122547 0.056978 -0.990826  0.092776 0.489242 1 1 1.000000
exhaust
0  18.016872 48.765312 2.697713  -0.926464 0.375298 0.028545  0.013672 0.489242 1 1 1.000000
0  13.997830 42.695457 1.555314  -0.676795 0.735291 -0.035999  0.013672 0.558580 1 1 1.000000
0  14.933771 41.965969 2.780296  0.024816 -0.139648 0.989890  0.092776 0.558580 1 1 1.000000
exhaust
0  14.933771 41.965969 2.780296  0.024816 -0.139648 0.989890  0.092776 0.558580 1 1 1.000000
0  19.186800 48.517563 3.936459  0.048221 -0.148138 0.987790  0.092776 0.489242 1 1 1.000000
0  18.016872 48.765312 2.697713  -0.926464 0.375298 0.028545  0.013672 0.489242 1 1 1.000000
exhaust
0  14.933771 41.965969 2.780296  0.024816 -0.139648 0.989890  0.092776 0.558580 1 1 1.000000
0  15.869713 41.236488 1.555313  0.706363 -0.707149 -0.031487  0.166997 0.558580 1 1 1.000000
0  20.342962 48.283573 2.711477  0.936595 -0.350276 0.009763  0.166997 0.489242 1 1 1.000000
exhaust
0  20.342962 48.283573 2.711477  0.936595 -0.350276 0.009763  0.166997 0.489242 1 1 1.000000
0  19.186800 48.517563 3.936459  0.048221 -0.148138 0.987790  0.092776 0.489242 1 1 1.000000
0  14.933771 41.965969 2.780296  0.024816 -0.139648 0.989890  0.092776 0.558580 1 1 1.000000
exhaust
0  15.869713 41.236488 1.555313  0.706363 -0.707149 -0.031487  0.166997 0.558580 1 1 1.000000
0  14.933771 41.965969 0.316567  0.100369 -0.037457 -0.994245  0.092776 0.558580 1 1 1.000000
0  19.186800 48.517563 1.472730  0.122547 0.056978 -0.990826  0.092776 0.489242 1 1 1.000000
exhaust
0  19.186800 48.517563 1.472730  0.122547 0.056978 -0.990826  0.092776 0.489242 1 1 1.000000
0  20.342962 48.283573 2.711477  0.936595 -0.350276 0.009763  0.166997 0.489242 1 1 1.000000
0  15.869713 41.236488 1.555313  0.706363 -0.707149 -0.031487  0.166997 0.558580 1 1 1.000000
end
