version 1
nodes
0 "blender_implicit" -1
1 "root" -1
2 "steering_wheel" 1
end
skeleton
time 0
0  0.000000 0.000000 0.000000  0.000000 -0.000000 0.000000
1  0.000000 0.000000 0.000000  1.570796 -0.000000 0.000000
2  16.702593 33.588795 6.160704  0.000000 -0.000000 0.000000
end
triangles
brakelightlit
0  8.593471 48.182945 52.090412  0.118246 0.992848 0.016429  0.029300 0.040700 1 1 1.000000
0  8.845805 48.091171 52.296886  0.197548 0.980255 0.008678  0.014500 0.029000 1 1 1.000000
0  9.040817 48.125580 52.090412  0.189841 0.981512 0.024393  0.003800 0.041000 1 1 1.000000
brakelightlit
0  8.524649 48.091171 52.491848  0.110435 0.993748 0.016430  0.032400 0.017600 1 1 1.000000
0  8.845805 48.091171 52.296886  0.197548 0.980255 0.008678  0.014500 0.029000 1 1 1.000000
0  8.593471 48.182945 52.090412  0.118246 0.992848 0.016429  0.029300 0.040700 1 1 1.000000
brakelightlit
0  8.524649 48.091171 52.491848  0.110435 0.993748 0.016430  0.032400 0.017600 1 1 1.000000
0  8.593471 48.182945 52.090412  0.118246 0.992848 0.016429  0.029300 0.040700 1 1 1.000000
0  8.031479 48.251724 52.113369  0.047549 0.998342 0.032429  0.060600 0.039800 1 1 1.000000
brakelightlit
0  8.031479 48.102623 52.595085  0.047511 0.998345 0.032414  0.060300 0.011900 1 1 1.000000
0  8.524649 48.091171 52.491848  0.110435 0.993748 0.016430  0.032400 0.017600 1 1 1.000000
0  8.031479 48.251724 52.113369  0.047549 0.998342 0.032429  0.060600 0.039800 1 1 1.000000
brakelightlit
0  0.002642 48.274681 52.709770  -0.000014 0.998837 0.048218  0.500600 0.009600 1 1 1.000000
0  8.031479 48.102623 52.595085  0.047511 0.998345 0.032414  0.060300 0.011900 1 1 1.000000
0  8.031479 48.251724 52.113369  0.047549 0.998342 0.032429  0.060600 0.039800 1 1 1.000000
brakelightlit
0  0.002642 48.481152 52.170689  -0.000015 0.998838 0.048202  0.500600 0.038600 1 1 1.000000
0  0.002642 48.274681 52.709770  -0.000014 0.998837 0.048218  0.500600 0.009600 1 1 1.000000
0  8.031479 48.251724 52.113369  0.047549 0.998342 0.032429  0.060600 0.039800 1 1 1.000000
brakelightlit
0  0.002642 48.274681 52.709770  -0.000014 0.998837 0.048218  0.500600 0.009600 1 1 1.000000
0  0.002642 48.481152 52.170689  -0.000015 0.998838 0.048202  0.500600 0.038600 1 1 1.000000
0  -8.026196 48.251724 52.113365  -0.039795 0.998680 0.032459  0.940600 0.039800 1 1 1.000000
brakelightlit
0  -8.026196 48.102623 52.595081  -0.039747 0.998684 0.032412  0.940900 0.011900 1 1 1.000000
0  0.002642 48.274681 52.709770  -0.000014 0.998837 0.048218  0.500600 0.009600 1 1 1.000000
0  -8.026196 48.251724 52.113365  -0.039795 0.998680 0.032459  0.940600 0.039800 1 1 1.000000
brakelightlit
0  -8.530865 48.091171 52.491844  -0.102739 0.994573 0.016422  0.968800 0.017600 1 1 1.000000
0  -8.026196 48.102623 52.595081  -0.039747 0.998684 0.032412  0.940900 0.011900 1 1 1.000000
0  -8.026196 48.251724 52.113365  -0.039795 0.998680 0.032459  0.940600 0.039800 1 1 1.000000
brakelightlit
0  -8.588186 48.182903 52.090408  -0.110474 0.993743 0.016446  0.971900 0.040700 1 1 1.000000
0  -8.530865 48.091171 52.491844  -0.102739 0.994573 0.016422  0.968800 0.017600 1 1 1.000000
0  -8.026196 48.251724 52.113365  -0.039795 0.998680 0.032459  0.940600 0.039800 1 1 1.000000
brakelightlit
0  -8.851976 48.091171 52.296883  -0.189543 0.981835 0.008551  0.986700 0.029000 1 1 1.000000
0  -8.530865 48.091171 52.491844  -0.102739 0.994573 0.016422  0.968800 0.017600 1 1 1.000000
0  -8.588186 48.182903 52.090408  -0.110474 0.993743 0.016446  0.971900 0.040700 1 1 1.000000
brakelightlit
0  -8.851976 48.091171 52.296883  -0.189543 0.981835 0.008551  0.986700 0.029000 1 1 1.000000
0  -8.588186 48.182903 52.090408  -0.110474 0.993743 0.016446  0.971900 0.040700 1 1 1.000000
0  -9.035488 48.125580 52.090408  -0.182165 0.982968 0.024282  0.997400 0.041000 1 1 1.000000
end
