version 1
nodes
0 "blender_implicit" -1
1 "root" -1
2 "steering_wheel" 1
end
skeleton
time 0
0  0.000000 0.000000 0.000000  0.000000 -0.000000 0.000000
1  0.000000 0.000000 0.000000  1.570796 -0.000000 0.000000
2  16.702593 33.588799 6.160704  -0.000000 -0.000000 0.000000
end
triangles
brakelight
0  8.593471 48.182945 52.090412  0.118239 0.992851 0.016333  0.029300 0.040700 1 1 1.000000
0  8.845805 48.091171 52.296886  0.197569 0.980251 0.008585  0.014500 0.029000 1 1 1.000000
0  9.040817 48.125580 52.090412  0.189864 0.981510 0.024300  0.003800 0.041000 1 1 1.000000
brakelight
0  8.524649 48.091171 52.491848  0.110430 0.993750 0.016333  0.032400 0.017600 1 1 1.000000
0  8.845805 48.091171 52.296886  0.197569 0.980251 0.008585  0.014500 0.029000 1 1 1.000000
0  8.593471 48.182945 52.090412  0.118239 0.992851 0.016333  0.029300 0.040700 1 1 1.000000
brakelight
0  8.524649 48.091171 52.491848  0.110430 0.993750 0.016333  0.032400 0.017600 1 1 1.000000
0  8.593471 48.182945 52.090412  0.118239 0.992851 0.016333  0.029300 0.040700 1 1 1.000000
0  8.031479 48.251724 52.113369  0.047542 0.998346 0.032332  0.060600 0.039800 1 1 1.000000
brakelight
0  8.031479 48.102623 52.595085  0.047508 0.998348 0.032317  0.060300 0.011900 1 1 1.000000
0  8.524649 48.091171 52.491848  0.110430 0.993750 0.016333  0.032400 0.017600 1 1 1.000000
0  8.031479 48.251724 52.113369  0.047542 0.998346 0.032332  0.060600 0.039800 1 1 1.000000
brakelight
0  0.002642 48.274681 52.709770  -0.000014 0.998841 0.048121  0.500600 0.009600 1 1 1.000000
0  8.031479 48.102623 52.595085  0.047508 0.998348 0.032317  0.060300 0.011900 1 1 1.000000
0  8.031479 48.251724 52.113369  0.047542 0.998346 0.032332  0.060600 0.039800 1 1 1.000000
brakelight
0  0.002642 48.481152 52.170689  -0.000015 0.998842 0.048105  0.500600 0.038600 1 1 1.000000
0  0.002642 48.274681 52.709770  -0.000014 0.998841 0.048121  0.500600 0.009600 1 1 1.000000
0  8.031479 48.251724 52.113369  0.047542 0.998346 0.032332  0.060600 0.039800 1 1 1.000000
brakelight
0  0.002642 48.274681 52.709770  -0.000014 0.998841 0.048121  0.500600 0.009600 1 1 1.000000
0  0.002642 48.481152 52.170689  -0.000015 0.998842 0.048105  0.500600 0.038600 1 1 1.000000
0  -8.026196 48.251724 52.113365  -0.039785 0.998684 0.032362  0.940600 0.039800 1 1 1.000000
brakelight
0  -8.026196 48.102623 52.595081  -0.039742 0.998687 0.032315  0.940900 0.011900 1 1 1.000000
0  0.002642 48.274681 52.709770  -0.000014 0.998841 0.048121  0.500600 0.009600 1 1 1.000000
0  -8.026196 48.251724 52.113365  -0.039785 0.998684 0.032362  0.940600 0.039800 1 1 1.000000
brakelight
0  -8.530865 48.091171 52.491844  -0.102731 0.994575 0.016325  0.968800 0.017600 1 1 1.000000
0  -8.026196 48.102623 52.595081  -0.039742 0.998687 0.032315  0.940900 0.011900 1 1 1.000000
0  -8.026196 48.251724 52.113365  -0.039785 0.998684 0.032362  0.940600 0.039800 1 1 1.000000
brakelight
0  -8.588186 48.182903 52.090408  -0.110463 0.993746 0.016351  0.971900 0.040700 1 1 1.000000
0  -8.530865 48.091171 52.491844  -0.102731 0.994575 0.016325  0.968800 0.017600 1 1 1.000000
0  -8.026196 48.251724 52.113365  -0.039785 0.998684 0.032362  0.940600 0.039800 1 1 1.000000
brakelight
0  -8.851976 48.091171 52.296883  -0.189604 0.981824 0.008466  0.986700 0.029000 1 1 1.000000
0  -8.530865 48.091171 52.491844  -0.102731 0.994575 0.016325  0.968800 0.017600 1 1 1.000000
0  -8.588186 48.182903 52.090408  -0.110463 0.993746 0.016351  0.971900 0.040700 1 1 1.000000
brakelight
0  -8.851976 48.091171 52.296883  -0.189604 0.981824 0.008466  0.986700 0.029000 1 1 1.000000
0  -8.588186 48.182903 52.090408  -0.110463 0.993746 0.016351  0.971900 0.040700 1 1 1.000000
0  -9.035488 48.125580 52.090408  -0.182186 0.982967 0.024188  0.997400 0.041000 1 1 1.000000
end
