version 1
nodes
0 "blender_implicit" -1
1 "root" -1
2 "steering_wheel" 1
end
skeleton
time 0
0  0.000000 0.000000 0.000000  0.000000 -0.000000 0.000000
1  0.000000 0.000000 0.000000  1.570796 -0.000000 0.000000
2  16.702593 33.588806 6.160704  0.000000 -0.000000 0.000000
end
triangles
licenseplate
0  6.575926 110.251091 16.976547  0.000000 0.963897 0.266275  0.013672 0.021484 1 1 1.000000
0  -6.575926 110.251091 16.976547  0.000000 0.963898 0.266271  0.982422 0.021484 1 1 1.000000
0  -6.575926 108.704926 22.573599  0.000000 0.963898 0.266272  0.982422 0.982422 1 1 1.000000
licenseplate
0  -6.575926 108.704926 22.573599  0.000000 0.963898 0.266272  0.982422 0.982422 1 1 1.000000
0  6.575925 108.704926 22.573599  0.000000 0.963897 0.266277  0.013672 0.982422 1 1 1.000000
0  6.575926 110.251091 16.976547  0.000000 0.963897 0.266275  0.013672 0.021484 1 1 1.000000
licenseplate
0  -6.719587 108.791130 22.544985  -0.278177 0.892690 0.354573  0.988281 0.978516 1 1 1.000000
0  -6.473151 108.729385 22.768476  0.006019 0.929780 0.368067  0.978516 0.990234 1 1 1.000000
0  -6.575926 108.704926 22.573599  0.389177 0.921129 -0.007967  0.982422 0.982422 1 1 1.000000
licenseplate
0  6.575926 110.251091 16.976547  -0.389206 0.786435 0.479624  0.013672 0.021484 1 1 1.000000
0  6.575925 108.704926 22.573599  -0.265738 0.958428 -0.103918  0.013672 0.982422 1 1 1.000000
0  6.719587 108.791130 22.544985  0.035134 0.928563 0.369509  0.007812 0.978516 1 1 1.000000
licenseplate
0  6.719587 108.791130 22.544985  0.035134 0.928563 0.369509  0.007812 0.978516 1 1 1.000000
0  6.719587 110.310402 17.045361  0.280343 0.948120 0.149923  0.007812 0.023438 1 1 1.000000
0  6.575926 110.251091 16.976547  -0.389206 0.786435 0.479624  0.013672 0.021484 1 1 1.000000
licenseplate
0  6.719587 110.310402 17.045361  0.280343 0.948120 0.149923  0.007812 0.023438 1 1 1.000000
0  6.473444 110.372154 16.821873  -0.003795 0.987298 0.158836  0.017578 0.009766 1 1 1.000000
0  6.575926 110.251091 16.976547  -0.389206 0.786435 0.479624  0.013672 0.021484 1 1 1.000000
licenseplate
0  -6.575926 108.704926 22.573599  0.389177 0.921129 -0.007967  0.982422 0.982422 1 1 1.000000
0  -6.575926 110.251091 16.976547  0.265811 0.768939 0.581444  0.982422 0.021484 1 1 1.000000
0  -6.719585 110.310402 17.045361  -0.033599 0.985971 0.163501  0.988281 0.023438 1 1 1.000000
licenseplate
0  -6.719585 110.310402 17.045361  -0.033599 0.985971 0.163501  0.988281 0.023438 1 1 1.000000
0  -6.719587 108.791130 22.544985  -0.278177 0.892690 0.354573  0.988281 0.978516 1 1 1.000000
0  -6.575926 108.704926 22.573599  0.389177 0.921129 -0.007967  0.982422 0.982422 1 1 1.000000
licenseplate
0  -6.490476 108.562752 22.880310  -0.322829 0.564173 0.759928  0.978516 0.998047 1 1 1.000000
0  -6.473151 108.729385 22.768476  0.006019 0.929780 0.368067  0.978516 0.990234 1 1 1.000000
0  -6.719587 108.791130 22.544985  -0.278177 0.892690 0.354573  0.988281 0.978516 1 1 1.000000
licenseplate
0  -6.719587 108.791130 22.544985  -0.278177 0.892690 0.354573  0.988281 0.978516 1 1 1.000000
0  -6.864501 108.648560 22.569677  -0.580125 0.669896 0.463351  0.996094 0.982422 1 1 1.000000
0  -6.490476 108.562752 22.880310  -0.322829 0.564173 0.759928  0.978516 0.998047 1 1 1.000000
licenseplate
0  6.719587 110.310402 17.045361  0.280343 0.948120 0.149923  0.007812 0.023438 1 1 1.000000
0  6.719587 108.791130 22.544985  0.035134 0.928563 0.369509  0.007812 0.978516 1 1 1.000000
0  6.864499 108.648560 22.569677  0.615794 0.691348 0.377935  0.001953 0.982422 1 1 1.000000
licenseplate
0  6.864499 108.648560 22.569677  0.615794 0.691348 0.377935  0.001953 0.982422 1 1 1.000000
0  6.864501 110.200714 16.950989  0.578830 0.813475 -0.056687  0.001953 0.019531 1 1 1.000000
0  6.719587 110.310402 17.045361  0.280343 0.948120 0.149923  0.007812 0.023438 1 1 1.000000
licenseplate
0  6.483223 110.286530 16.640356  0.325296 0.870349 -0.369696  0.017578 0.001953 1 1 1.000000
0  6.473444 110.372154 16.821873  -0.003795 0.987298 0.158836  0.017578 0.009766 1 1 1.000000
0  6.719587 110.310402 17.045361  0.280343 0.948120 0.149923  0.007812 0.023438 1 1 1.000000
licenseplate
0  6.719587 110.310402 17.045361  0.280343 0.948120 0.149923  0.007812 0.023438 1 1 1.000000
0  6.864501 110.200714 16.950989  0.578830 0.813475 -0.056687  0.001953 0.019531 1 1 1.000000
0  6.483223 110.286530 16.640356  0.325296 0.870349 -0.369696  0.017578 0.001953 1 1 1.000000
licenseplate
0  -6.719587 108.791130 22.544985  -0.278177 0.892690 0.354573  0.988281 0.978516 1 1 1.000000
0  -6.719585 110.310402 17.045361  -0.033599 0.985971 0.163501  0.988281 0.023438 1 1 1.000000
0  -6.864499 110.200714 16.950993  -0.616607 0.786599 0.032540  0.996094 0.019531 1 1 1.000000
licenseplate
0  -6.864499 110.200714 16.950993  -0.616607 0.786599 0.032540  0.996094 0.019531 1 1 1.000000
0  -6.864501 108.648560 22.569677  -0.580125 0.669896 0.463351  0.996094 0.982422 1 1 1.000000
0  -6.719587 108.791130 22.544985  -0.278177 0.892690 0.354573  0.988281 0.978516 1 1 1.000000
licenseplate
0  6.482536 108.562752 22.880310  0.244797 0.563116 0.789288  0.017578 0.998047 1 1 1.000000
0  6.472770 108.729385 22.768476  -0.006662 0.938698 0.344677  0.019531 0.990234 1 1 1.000000
0  -6.473151 108.729385 22.768476  0.006019 0.929780 0.368067  0.978516 0.990234 1 1 1.000000
licenseplate
0  -6.473151 108.729385 22.768476  0.006019 0.929780 0.368067  0.978516 0.990234 1 1 1.000000
0  -6.490476 108.562752 22.880310  -0.322829 0.564173 0.759928  0.978516 0.998047 1 1 1.000000
0  6.482536 108.562752 22.880310  0.244797 0.563116 0.789288  0.017578 0.998047 1 1 1.000000
licenseplate
0  6.482536 108.562752 22.880310  0.244797 0.563116 0.789288  0.017578 0.998047 1 1 1.000000
0  6.864499 108.648560 22.569677  0.615794 0.691348 0.377935  0.001953 0.982422 1 1 1.000000
0  6.719587 108.791130 22.544985  0.035134 0.928563 0.369509  0.007812 0.978516 1 1 1.000000
licenseplate
0  6.719587 108.791130 22.544985  0.035134 0.928563 0.369509  0.007812 0.978516 1 1 1.000000
0  6.472770 108.729385 22.768476  -0.006662 0.938698 0.344677  0.019531 0.990234 1 1 1.000000
0  6.482536 108.562752 22.880310  0.244797 0.563116 0.789288  0.017578 0.998047 1 1 1.000000
licenseplate
0  -6.489789 110.286530 16.640356  -0.243040 0.891187 -0.383037  0.978516 0.001953 1 1 1.000000
0  -6.472478 110.372154 16.821873  0.010006 0.981725 0.190040  0.978516 0.009766 1 1 1.000000
0  6.473444 110.372154 16.821873  -0.003795 0.987298 0.158836  0.017578 0.009766 1 1 1.000000
licenseplate
0  6.473444 110.372154 16.821873  -0.003795 0.987298 0.158836  0.017578 0.009766 1 1 1.000000
0  6.483223 110.286530 16.640356  0.325296 0.870349 -0.369696  0.017578 0.001953 1 1 1.000000
0  -6.489789 110.286530 16.640356  -0.243040 0.891187 -0.383037  0.978516 0.001953 1 1 1.000000
licenseplate
0  -6.489789 110.286530 16.640356  -0.243040 0.891187 -0.383037  0.978516 0.001953 1 1 1.000000
0  -6.864499 110.200714 16.950993  -0.616607 0.786599 0.032540  0.996094 0.019531 1 1 1.000000
0  -6.719585 110.310402 17.045361  -0.033599 0.985971 0.163501  0.988281 0.023438 1 1 1.000000
licenseplate
0  -6.719585 110.310402 17.045361  -0.033599 0.985971 0.163501  0.988281 0.023438 1 1 1.000000
0  -6.472478 110.372154 16.821873  0.010006 0.981725 0.190040  0.978516 0.009766 1 1 1.000000
0  -6.489789 110.286530 16.640356  -0.243040 0.891187 -0.383037  0.978516 0.001953 1 1 1.000000
licenseplate
0  -6.575926 110.251091 16.976547  0.265811 0.768939 0.581444  0.982422 0.021484 1 1 1.000000
0  6.575926 110.251091 16.976547  -0.389206 0.786435 0.479624  0.013672 0.021484 1 1 1.000000
0  6.473444 110.372154 16.821873  -0.003795 0.987298 0.158836  0.017578 0.009766 1 1 1.000000
licenseplate
0  6.473444 110.372154 16.821873  -0.003795 0.987298 0.158836  0.017578 0.009766 1 1 1.000000
0  -6.472478 110.372154 16.821873  0.010006 0.981725 0.190040  0.978516 0.009766 1 1 1.000000
0  -6.575926 110.251091 16.976547  0.265811 0.768939 0.581444  0.982422 0.021484 1 1 1.000000
licenseplate
0  -6.472478 110.372154 16.821873  0.010006 0.981725 0.190040  0.978516 0.009766 1 1 1.000000
0  -6.719585 110.310402 17.045361  -0.033599 0.985971 0.163501  0.988281 0.023438 1 1 1.000000
0  -6.575926 110.251091 16.976547  0.265811 0.768939 0.581444  0.982422 0.021484 1 1 1.000000
licenseplate
0  6.575925 108.704926 22.573599  -0.265738 0.958428 -0.103918  0.013672 0.982422 1 1 1.000000
0  -6.575926 108.704926 22.573599  0.389177 0.921129 -0.007967  0.982422 0.982422 1 1 1.000000
0  -6.473151 108.729385 22.768476  0.006019 0.929780 0.368067  0.978516 0.990234 1 1 1.000000
licenseplate
0  -6.473151 108.729385 22.768476  0.006019 0.929780 0.368067  0.978516 0.990234 1 1 1.000000
0  6.472770 108.729385 22.768476  -0.006662 0.938698 0.344677  0.019531 0.990234 1 1 1.000000
0  6.575925 108.704926 22.573599  -0.265738 0.958428 -0.103918  0.013672 0.982422 1 1 1.000000
licenseplate
0  6.472770 108.729385 22.768476  -0.006662 0.938698 0.344677  0.019531 0.990234 1 1 1.000000
0  6.719587 108.791130 22.544985  0.035134 0.928563 0.369509  0.007812 0.978516 1 1 1.000000
0  6.575925 108.704926 22.573599  -0.265738 0.958428 -0.103918  0.013672 0.982422 1 1 1.000000
end
