version 1
nodes
0 "blender_implicit" -1
1 "root" -1
2 "steering_wheel" 1
end
skeleton
time 0
0  0 0 0  0 0 0
1  0.000000 0.000000 0.000000  1.570796 -0.000000 0.000000
2  16.702593 33.588814 6.160704  -0.000000 -0.000000 -0.000000
end
triangles
  phy
0  35.476013 -35.069412 36.581738  -0.752796 -0.515586 -0.409230  0.000000 0.000000 1 1 1.000000
0  26.921659 -6.795052 52.752220  -0.439383 0.113569 -0.891092  0.000000 0.000000 1 1 1.000000
0  40.956196 -72.929268 23.783449  -0.747526 0.184483 -0.638099  0.000000 0.000000 1 1 1.000000
  phy
0  40.956196 -72.929268 23.783449  -0.956351 -0.064230 -0.285073  0.000000 0.000000 1 1 1.000000
0  29.747055 29.211386 52.380672  -0.609032 -0.007613 -0.793109  0.000000 0.000000 1 1 1.000000
0  35.476013 -35.069412 36.581738  -0.638482 -0.511230 -0.575312  0.000000 0.000000 1 1 1.000000
  phy
0  35.476013 -35.069412 36.581738  -0.722239 -0.527113 -0.447797  0.000000 0.000000 1 1 1.000000
0  29.747055 29.211386 52.380672  -0.609032 -0.007613 -0.793109  0.000000 0.000000 1 1 1.000000
0  26.921659 -6.795052 52.752220  -0.439383 0.113569 -0.891092  0.000000 0.000000 1 1 1.000000
  phy
0  41.158031 -57.136063 23.757809  -0.993038 0.005707 -0.117660  0.000000 0.000000 1 1 1.000000
0  29.747055 29.211386 52.380672  -0.609032 -0.007613 -0.793109  0.000000 0.000000 1 1 1.000000
0  40.956196 -72.929268 23.783449  -0.956351 -0.064230 -0.285073  0.000000 0.000000 1 1 1.000000
  phy
0  36.809139 -83.282852 1.433123  -0.661325 0.225598 0.715370  0.000000 0.000000 1 1 1.000000
0  37.332272 -68.565605 1.374336  -0.647305 0.005156 0.762213  0.000000 0.000000 1 1 1.000000
0  40.956196 -72.929268 23.783449  -0.956351 -0.064230 -0.285073  0.000000 0.000000 1 1 1.000000
  phy
0  37.332272 -68.565605 1.374336  -0.647305 0.005156 0.762213  0.000000 0.000000 1 1 1.000000
0  41.158031 -57.136063 23.757809  -0.993038 0.005707 -0.117660  0.000000 0.000000 1 1 1.000000
0  40.956196 -72.929268 23.783449  -0.956351 -0.064230 -0.285073  0.000000 0.000000 1 1 1.000000
  phy
0  40.956196 -72.929268 23.783449  -0.747526 0.184483 -0.638099  0.000000 0.000000 1 1 1.000000
0  26.921659 -6.795052 52.752220  -0.439383 0.113569 -0.891092  0.000000 0.000000 1 1 1.000000
0  34.293053 -91.183952 26.150816  -0.729222 0.320847 -0.604395  0.000000 0.000000 1 1 1.000000
  phy
0  40.956196 -72.929268 23.783449  -0.956351 -0.064230 -0.285073  0.000000 0.000000 1 1 1.000000
0  36.794407 -89.847908 17.958517  -0.757693 -0.651369 0.040248  0.000000 0.000000 1 1 1.000000
0  36.809139 -83.282852 1.433123  -0.661325 0.225598 0.715370  0.000000 0.000000 1 1 1.000000
  phy
0  34.293053 -91.183952 26.150816  -0.729222 0.320847 -0.604395  0.000000 0.000000 1 1 1.000000
0  36.794407 -89.847908 17.958517  -0.784966 -0.611745 0.097959  0.000000 0.000000 1 1 1.000000
0  40.956196 -72.929268 23.783449  -0.747526 0.184483 -0.638099  0.000000 0.000000 1 1 1.000000
  phy
0  36.809139 -83.282852 1.433123  -0.661325 0.225598 0.715370  0.000000 0.000000 1 1 1.000000
0  24.535511 -101.605049 3.323960  -0.296216 -0.646319 0.703226  0.000000 0.000000 1 1 1.000000
0  -24.535864 -101.605034 3.321370  0.236876 -0.629042 0.740403  0.000000 0.000000 1 1 1.000000
  phy
0  24.535511 -101.605049 3.323960  -0.296216 -0.646319 0.703226  0.000000 0.000000 1 1 1.000000
0  21.682865 -105.606453 16.158710  -0.189291 -0.970572 -0.148859  0.000000 0.000000 1 1 1.000000
0  -24.535864 -101.605034 3.321370  0.236876 -0.629042 0.740403  0.000000 0.000000 1 1 1.000000
  phy
0  36.809139 -83.282852 1.433123  -0.661325 0.225598 0.715370  0.000000 0.000000 1 1 1.000000
0  36.794407 -89.847908 17.958517  -0.818127 -0.573979 0.034867  0.000000 0.000000 1 1 1.000000
0  24.535511 -101.605049 3.323960  -0.296216 -0.646319 0.703226  0.000000 0.000000 1 1 1.000000
  phy
0  36.794407 -89.847908 17.958517  -0.832895 -0.551124 0.050483  0.000000 0.000000 1 1 1.000000
0  21.682865 -105.606453 16.158710  -0.189291 -0.970572 -0.148859  0.000000 0.000000 1 1 1.000000
0  24.535511 -101.605049 3.323960  -0.296216 -0.646319 0.703226  0.000000 0.000000 1 1 1.000000
  phy
0  -24.294867 106.233650 22.353807  0.101266 0.993732 -0.047340  0.000000 0.000000 1 1 1.000000
0  -32.187790 98.776352 7.457906  0.692697 0.492464 0.526925  0.000000 0.000000 1 1 1.000000
0  -35.731945 101.759842 23.672434  0.936453 0.341860 0.078665  0.000000 0.000000 1 1 1.000000
  phy
0  -32.187790 98.776352 7.457906  0.692697 0.492464 0.526925  0.000000 0.000000 1 1 1.000000
0  -24.294867 106.233650 22.353807  0.101266 0.993732 -0.047340  0.000000 0.000000 1 1 1.000000
0  -22.655319 102.883949 7.729039  0.037769 0.587620 0.808255  0.000000 0.000000 1 1 1.000000
  phy
0  -24.294867 106.233650 22.353807  0.101266 0.993732 -0.047340  0.000000 0.000000 1 1 1.000000
0  -35.731945 101.759842 23.672434  0.936453 0.341860 0.078665  0.000000 0.000000 1 1 1.000000
0  -33.207012 97.227905 40.153816  0.655671 0.271060 -0.704714  0.000000 0.000000 1 1 1.000000
  phy
0  -24.294867 106.233650 22.353807  0.101266 0.993732 -0.047340  0.000000 0.000000 1 1 1.000000
0  -33.207012 97.227905 40.153816  0.655671 0.271060 -0.704714  0.000000 0.000000 1 1 1.000000
0  24.130407 106.257133 22.458975  0.014547 0.959716 -0.280594  0.000000 0.000000 1 1 1.000000
  phy
0  -22.655319 102.883949 7.729039  0.037769 0.587620 0.808255  0.000000 0.000000 1 1 1.000000
0  -24.294867 106.233650 22.353807  0.101266 0.993732 -0.047340  0.000000 0.000000 1 1 1.000000
0  22.654554 102.883934 7.731431  -0.065494 0.699190 0.711930  0.000000 0.000000 1 1 1.000000
  phy
0  22.654554 102.883934 7.731431  -0.065494 0.699190 0.711930  0.000000 0.000000 1 1 1.000000
0  -24.294867 106.233650 22.353807  0.101266 0.993732 -0.047340  0.000000 0.000000 1 1 1.000000
0  24.130407 106.257133 22.458975  0.014547 0.959716 -0.280594  0.000000 0.000000 1 1 1.000000
  phy
0  -35.731945 101.759842 23.672434  0.936453 0.341860 0.078665  0.000000 0.000000 1 1 1.000000
0  -32.187790 98.776352 7.457906  0.334023 0.777270 0.533179  0.000000 0.000000 1 1 1.000000
0  -34.895733 75.794853 4.391734  0.610599 -0.106960 0.784683  0.000000 0.000000 1 1 1.000000
  phy
0  -32.187790 98.776352 7.457906  0.726354 0.624649 0.286747  0.000000 0.000000 1 1 1.000000
0  -22.655319 102.883949 7.729039  0.037769 0.587620 0.808255  0.000000 0.000000 1 1 1.000000
0  -34.895733 75.794853 4.391734  0.610599 -0.106960 0.784683  0.000000 0.000000 1 1 1.000000
  phy
0  34.293053 -91.183952 26.150816  -0.729222 0.320847 -0.604395  0.000000 0.000000 1 1 1.000000
0  26.921659 -6.795052 52.752220  -0.439383 0.113569 -0.891092  0.000000 0.000000 1 1 1.000000
0  24.307053 -99.607956 27.906189  -0.226939 -0.659833 -0.716323  0.000000 0.000000 1 1 1.000000
  phy
0  24.307053 -99.607956 27.906189  -0.226939 -0.659833 -0.716323  0.000000 0.000000 1 1 1.000000
0  21.682865 -105.606453 16.158710  -0.223613 -0.969199 -0.103200  0.000000 0.000000 1 1 1.000000
0  34.293053 -91.183952 26.150816  -0.729222 0.320847 -0.604395  0.000000 0.000000 1 1 1.000000
  phy
0  34.293053 -91.183952 26.150816  -0.729222 0.320847 -0.604395  0.000000 0.000000 1 1 1.000000
0  21.682865 -105.606453 16.158710  -0.223613 -0.969199 -0.103200  0.000000 0.000000 1 1 1.000000
0  36.794407 -89.847908 17.958517  -0.835052 -0.547096 0.058089  0.000000 0.000000 1 1 1.000000
  phy
0  37.332272 -68.565605 1.374336  -0.647305 0.005156 0.762213  0.000000 0.000000 1 1 1.000000
0  36.809139 -83.282852 1.433123  -0.661325 0.225598 0.715370  0.000000 0.000000 1 1 1.000000
0  -36.809330 -83.282837 1.429237  0.654574 0.209325 0.726440  0.000000 0.000000 1 1 1.000000
  phy
0  36.809139 -83.282852 1.433123  -0.661325 0.225598 0.715370  0.000000 0.000000 1 1 1.000000
0  -24.535864 -101.605034 3.321370  0.236876 -0.629042 0.740403  0.000000 0.000000 1 1 1.000000
0  -36.809330 -83.282837 1.429237  0.654574 0.209325 0.726440  0.000000 0.000000 1 1 1.000000
  phy
0  -40.958744 -72.929237 23.779123  0.959173 -0.066176 -0.274969  0.000000 0.000000 1 1 1.000000
0  -35.479893 -35.069389 36.577995  0.638283 -0.511085 -0.575662  0.000000 0.000000 1 1 1.000000
0  -29.752573 29.211397 52.377533  0.600388 -0.005134 -0.799692  0.000000 0.000000 1 1 1.000000
  phy
0  -35.479893 -35.069389 36.577995  0.752585 -0.515652 -0.409535  0.000000 0.000000 1 1 1.000000
0  -40.958744 -72.929237 23.779123  0.740450 0.179164 -0.647792  0.000000 0.000000 1 1 1.000000
0  -26.927233 -6.795038 52.749378  0.439627 0.113182 -0.891021  0.000000 0.000000 1 1 1.000000
  phy
0  -29.752573 29.211397 52.377533  0.600388 -0.005134 -0.799692  0.000000 0.000000 1 1 1.000000
0  -35.479893 -35.069389 36.577995  0.722000 -0.527132 -0.448161  0.000000 0.000000 1 1 1.000000
0  -26.927233 -6.795038 52.749378  0.439627 0.113182 -0.891021  0.000000 0.000000 1 1 1.000000
  phy
0  -41.107018 -66.574837 23.630587  0.993004 0.013720 -0.117280  0.000000 0.000000 1 1 1.000000
0  -40.958744 -72.929237 23.779123  0.959173 -0.066176 -0.274969  0.000000 0.000000 1 1 1.000000
0  -29.752573 29.211397 52.377533  0.600388 -0.005134 -0.799692  0.000000 0.000000 1 1 1.000000
  phy
0  -41.107018 -66.574837 23.630587  0.993004 0.013720 -0.117280  0.000000 0.000000 1 1 1.000000
0  -29.752573 29.211397 52.377533  0.600388 -0.005134 -0.799692  0.000000 0.000000 1 1 1.000000
0  -41.827606 60.457058 25.284328  0.996293 -0.048336 -0.071163  0.000000 0.000000 1 1 1.000000
  phy
0  -40.958744 -72.929237 23.779123  0.959173 -0.066176 -0.274969  0.000000 0.000000 1 1 1.000000
0  -41.107018 -66.574837 23.630587  0.993004 0.013720 -0.117280  0.000000 0.000000 1 1 1.000000
0  -37.208744 -68.487289 1.396591  0.644092 0.003896 0.764938  0.000000 0.000000 1 1 1.000000
  phy
0  -37.208744 -68.487289 1.396591  0.644092 0.003896 0.764938  0.000000 0.000000 1 1 1.000000
0  -41.107018 -66.574837 23.630587  0.993004 0.013720 -0.117280  0.000000 0.000000 1 1 1.000000
0  -41.827606 60.457058 25.284328  0.996293 -0.048336 -0.071163  0.000000 0.000000 1 1 1.000000
  phy
0  -21.899540 -104.222900 16.603964  0.265233 -0.960645 -0.082543  0.000000 0.000000 1 1 1.000000
0  -24.310091 -99.607941 27.903622  0.187165 -0.742079 -0.643652  0.000000 0.000000 1 1 1.000000
0  -37.824150 -89.867691 18.013979  0.829516 -0.558030 0.022494  0.000000 0.000000 1 1 1.000000
  phy
0  -37.824150 -89.867691 18.013979  0.830031 -0.557215 0.023679  0.000000 0.000000 1 1 1.000000
0  -24.310091 -99.607941 27.903622  0.275829 -0.615619 -0.738195  0.000000 0.000000 1 1 1.000000
0  -34.306072 -91.171799 26.179548  0.699361 0.215241 -0.681591  0.000000 0.000000 1 1 1.000000
  phy
0  -37.824150 -89.867691 18.013979  0.829516 -0.558030 0.022494  0.000000 0.000000 1 1 1.000000
0  -24.535864 -101.605034 3.321370  0.080796 -0.771950 0.630528  0.000000 0.000000 1 1 1.000000
0  -21.899540 -104.222900 16.603964  0.265233 -0.960645 -0.082543  0.000000 0.000000 1 1 1.000000
  phy
0  -24.535864 -101.605034 3.321370  0.236876 -0.629042 0.740403  0.000000 0.000000 1 1 1.000000
0  -37.824150 -89.867691 18.013979  0.817526 -0.575786 0.011053  0.000000 0.000000 1 1 1.000000
0  -36.809330 -83.282837 1.429237  0.654574 0.209325 0.726440  0.000000 0.000000 1 1 1.000000
  phy
0  -40.958744 -72.929237 23.779123  0.740450 0.179164 -0.647792  0.000000 0.000000 1 1 1.000000
0  -37.824150 -89.867691 18.013979  0.801200 -0.596180 0.051450  0.000000 0.000000 1 1 1.000000
0  -34.306072 -91.171799 26.179548  0.699361 0.215241 -0.681591  0.000000 0.000000 1 1 1.000000
  phy
0  -37.824150 -89.867691 18.013979  0.777804 -0.628481 0.005708  0.000000 0.000000 1 1 1.000000
0  -40.958744 -72.929237 23.779123  0.959173 -0.066176 -0.274969  0.000000 0.000000 1 1 1.000000
0  -36.809330 -83.282837 1.429237  0.654574 0.209325 0.726440  0.000000 0.000000 1 1 1.000000
  phy
0  36.803375 101.808441 23.647598  -0.919019 0.386913 0.075511  0.000000 0.000000 1 1 1.000000
0  32.805622 98.813690 7.480912  -0.691526 0.416174 0.590416  0.000000 0.000000 1 1 1.000000
0  22.654554 102.883934 7.731431  -0.065494 0.699190 0.711930  0.000000 0.000000 1 1 1.000000
  phy
0  36.803375 101.808441 23.647598  -0.919019 0.386913 0.075511  0.000000 0.000000 1 1 1.000000
0  22.654554 102.883934 7.731431  -0.065494 0.699190 0.711930  0.000000 0.000000 1 1 1.000000
0  24.130407 106.257133 22.458975  0.014547 0.959716 -0.280594  0.000000 0.000000 1 1 1.000000
  phy
0  33.202824 97.227890 40.157322  -0.653118 0.260558 -0.711018  0.000000 0.000000 1 1 1.000000
0  36.803375 101.808441 23.647598  -0.919019 0.386913 0.075511  0.000000 0.000000 1 1 1.000000
0  24.130407 106.257133 22.458975  0.014547 0.959716 -0.280594  0.000000 0.000000 1 1 1.000000
  phy
0  36.803375 101.808441 23.647598  -0.919019 0.386913 0.075511  0.000000 0.000000 1 1 1.000000
0  33.202824 97.227890 40.157322  -0.653118 0.260558 -0.711018  0.000000 0.000000 1 1 1.000000
0  40.760807 60.389988 25.272800  -0.996490 -0.035988 -0.075584  0.000000 0.000000 1 1 1.000000
  phy
0  40.760807 60.389988 25.272800  -0.996490 -0.035988 -0.075584  0.000000 0.000000 1 1 1.000000
0  34.893028 75.570267 4.367755  -0.615431 -0.090058 0.783029  0.000000 0.000000 1 1 1.000000
0  36.803375 101.808441 23.647598  -0.919019 0.386913 0.075511  0.000000 0.000000 1 1 1.000000
  phy
0  36.803375 101.808441 23.647598  -0.919019 0.386913 0.075511  0.000000 0.000000 1 1 1.000000
0  34.893028 75.570267 4.367755  -0.615431 -0.090058 0.783029  0.000000 0.000000 1 1 1.000000
0  32.805622 98.813690 7.480912  -0.231334 0.694236 0.681558  0.000000 0.000000 1 1 1.000000
  phy
0  -35.731945 101.759842 23.672434  0.936453 0.341860 0.078665  0.000000 0.000000 1 1 1.000000
0  -41.827606 60.457058 25.284328  0.996293 -0.048336 -0.071163  0.000000 0.000000 1 1 1.000000
0  -33.207012 97.227905 40.153816  0.655671 0.271060 -0.704714  0.000000 0.000000 1 1 1.000000
  phy
0  -41.827606 60.457058 25.284328  0.996293 -0.048336 -0.071163  0.000000 0.000000 1 1 1.000000
0  -35.731945 101.759842 23.672434  0.936453 0.341860 0.078665  0.000000 0.000000 1 1 1.000000
0  -34.895733 75.794853 4.391734  0.610599 -0.106960 0.784683  0.000000 0.000000 1 1 1.000000
  phy
0  26.308544 41.162441 52.791790  -0.167488 0.221032 -0.960777  0.000000 0.000000 1 1 1.000000
0  33.202824 97.227890 40.157322  -0.653118 0.260558 -0.711018  0.000000 0.000000 1 1 1.000000
0  -26.314095 41.162457 52.789017  0.174785 0.372392 -0.911468  0.000000 0.000000 1 1 1.000000
  phy
0  26.308544 41.162441 52.791790  -0.167488 0.221032 -0.960777  0.000000 0.000000 1 1 1.000000
0  29.747055 29.211386 52.380672  -0.609032 -0.007613 -0.793109  0.000000 0.000000 1 1 1.000000
0  33.202824 97.227890 40.157322  -0.653118 0.260558 -0.711018  0.000000 0.000000 1 1 1.000000
  phy
0  26.308544 41.162441 52.791790  -0.167488 0.221032 -0.960777  0.000000 0.000000 1 1 1.000000
0  -26.314095 41.162457 52.789017  0.174785 0.372392 -0.911468  0.000000 0.000000 1 1 1.000000
0  26.921659 -6.795052 52.752220  -0.439383 0.113569 -0.891092  0.000000 0.000000 1 1 1.000000
  phy
0  26.921659 -6.795052 52.752220  -0.439383 0.113569 -0.891092  0.000000 0.000000 1 1 1.000000
0  29.747055 29.211386 52.380672  -0.609032 -0.007613 -0.793109  0.000000 0.000000 1 1 1.000000
0  26.308544 41.162441 52.791790  -0.167488 0.221032 -0.960777  0.000000 0.000000 1 1 1.000000
  phy
0  -24.310091 -99.607941 27.903622  0.275829 -0.615619 -0.738195  0.000000 0.000000 1 1 1.000000
0  21.682865 -105.606453 16.158710  -0.223613 -0.969199 -0.103200  0.000000 0.000000 1 1 1.000000
0  24.307053 -99.607956 27.906189  -0.226939 -0.659833 -0.716323  0.000000 0.000000 1 1 1.000000
  phy
0  26.921659 -6.795052 52.752220  -0.439383 0.113569 -0.891092  0.000000 0.000000 1 1 1.000000
0  -26.927233 -6.795038 52.749378  0.439627 0.113182 -0.891021  0.000000 0.000000 1 1 1.000000
0  24.307053 -99.607956 27.906189  -0.226939 -0.659833 -0.716323  0.000000 0.000000 1 1 1.000000
  phy
0  24.307053 -99.607956 27.906189  -0.226939 -0.659833 -0.716323  0.000000 0.000000 1 1 1.000000
0  -26.927233 -6.795038 52.749378  0.439627 0.113182 -0.891021  0.000000 0.000000 1 1 1.000000
0  -24.310091 -99.607941 27.903622  0.275829 -0.615619 -0.738195  0.000000 0.000000 1 1 1.000000
  phy
0  37.332272 -68.565605 1.374336  -0.647305 0.005156 0.762213  0.000000 0.000000 1 1 1.000000
0  -37.208744 -68.487289 1.396591  0.644092 0.003896 0.764938  0.000000 0.000000 1 1 1.000000
0  -34.895733 75.794853 4.391734  0.610599 -0.106960 0.784683  0.000000 0.000000 1 1 1.000000
  phy
0  34.893028 75.570267 4.367755  -0.615431 -0.090058 0.783029  0.000000 0.000000 1 1 1.000000
0  37.332272 -68.565605 1.374336  -0.647305 0.005156 0.762213  0.000000 0.000000 1 1 1.000000
0  -34.895733 75.794853 4.391734  0.610599 -0.106960 0.784683  0.000000 0.000000 1 1 1.000000
  phy
0  -37.208744 -68.487289 1.396591  0.644092 0.003896 0.764938  0.000000 0.000000 1 1 1.000000
0  37.332272 -68.565605 1.374336  -0.647305 0.005156 0.762213  0.000000 0.000000 1 1 1.000000
0  -36.809330 -83.282837 1.429237  0.654574 0.209325 0.726440  0.000000 0.000000 1 1 1.000000
  phy
0  40.760807 60.389988 25.272800  -0.996490 -0.035988 -0.075584  0.000000 0.000000 1 1 1.000000
0  41.158031 -57.136063 23.757809  -0.993038 0.005707 -0.117660  0.000000 0.000000 1 1 1.000000
0  37.332272 -68.565605 1.374336  -0.647305 0.005156 0.762213  0.000000 0.000000 1 1 1.000000
  phy
0  37.332272 -68.565605 1.374336  -0.647305 0.005156 0.762213  0.000000 0.000000 1 1 1.000000
0  34.893028 75.570267 4.367755  -0.615431 -0.090058 0.783029  0.000000 0.000000 1 1 1.000000
0  40.760807 60.389988 25.272800  -0.996490 -0.035988 -0.075584  0.000000 0.000000 1 1 1.000000
  phy
0  -24.535864 -101.605034 3.321370  0.236876 -0.629042 0.740403  0.000000 0.000000 1 1 1.000000
0  21.682865 -105.606453 16.158710  -0.189291 -0.970572 -0.148859  0.000000 0.000000 1 1 1.000000
0  -21.899540 -104.222900 16.603964  0.306933 -0.949933 -0.058478  0.000000 0.000000 1 1 1.000000
  phy
0  -21.899540 -104.222900 16.603964  0.268382 -0.957027 -0.109866  0.000000 0.000000 1 1 1.000000
0  21.682865 -105.606453 16.158710  -0.223613 -0.969199 -0.103200  0.000000 0.000000 1 1 1.000000
0  -24.310091 -99.607941 27.903622  0.275829 -0.615619 -0.738195  0.000000 0.000000 1 1 1.000000
  phy
0  -34.306072 -91.171799 26.179548  0.699361 0.215241 -0.681591  0.000000 0.000000 1 1 1.000000
0  -26.927233 -6.795038 52.749378  0.439627 0.113182 -0.891021  0.000000 0.000000 1 1 1.000000
0  -40.958744 -72.929237 23.779123  0.740450 0.179164 -0.647792  0.000000 0.000000 1 1 1.000000
  phy
0  -40.958744 -72.929237 23.779123  0.959173 -0.066176 -0.274969  0.000000 0.000000 1 1 1.000000
0  -37.208744 -68.487289 1.396591  0.644092 0.003896 0.764938  0.000000 0.000000 1 1 1.000000
0  -36.809330 -83.282837 1.429237  0.654574 0.209325 0.726440  0.000000 0.000000 1 1 1.000000
  phy
0  -37.208744 -68.487289 1.396591  0.644092 0.003896 0.764938  0.000000 0.000000 1 1 1.000000
0  -41.827606 60.457058 25.284328  0.996293 -0.048336 -0.071163  0.000000 0.000000 1 1 1.000000
0  -34.895733 75.794853 4.391734  0.610599 -0.106960 0.784683  0.000000 0.000000 1 1 1.000000
  phy
0  -41.827606 60.457058 25.284328  0.996293 -0.048336 -0.071163  0.000000 0.000000 1 1 1.000000
0  -29.752573 29.211397 52.377533  0.600388 -0.005134 -0.799692  0.000000 0.000000 1 1 1.000000
0  -33.207012 97.227905 40.153816  0.655671 0.271060 -0.704714  0.000000 0.000000 1 1 1.000000
  phy
0  -26.314095 41.162457 52.789017  0.174785 0.372392 -0.911468  0.000000 0.000000 1 1 1.000000
0  -33.207012 97.227905 40.153816  0.655671 0.271060 -0.704714  0.000000 0.000000 1 1 1.000000
0  -29.752573 29.211397 52.377533  0.600388 -0.005134 -0.799692  0.000000 0.000000 1 1 1.000000
  phy
0  -29.752573 29.211397 52.377533  0.600388 -0.005134 -0.799692  0.000000 0.000000 1 1 1.000000
0  -26.927233 -6.795038 52.749378  0.439627 0.113182 -0.891021  0.000000 0.000000 1 1 1.000000
0  -26.314095 41.162457 52.789017  0.174785 0.372392 -0.911468  0.000000 0.000000 1 1 1.000000
  phy
0  40.760807 60.389988 25.272800  -0.996490 -0.035988 -0.075584  0.000000 0.000000 1 1 1.000000
0  29.747055 29.211386 52.380672  -0.609032 -0.007613 -0.793109  0.000000 0.000000 1 1 1.000000
0  41.158031 -57.136063 23.757809  -0.993038 0.005707 -0.117660  0.000000 0.000000 1 1 1.000000
  phy
0  33.202824 97.227890 40.157322  -0.653118 0.260558 -0.711018  0.000000 0.000000 1 1 1.000000
0  29.747055 29.211386 52.380672  -0.609032 -0.007613 -0.793109  0.000000 0.000000 1 1 1.000000
0  40.760807 60.389988 25.272800  -0.996490 -0.035988 -0.075584  0.000000 0.000000 1 1 1.000000
  phy
0  22.654554 102.883934 7.731431  -0.065494 0.699190 0.711930  0.000000 0.000000 1 1 1.000000
0  32.805622 98.813690 7.480912  -0.812326 0.514867 0.273931  0.000000 0.000000 1 1 1.000000
0  34.893028 75.570267 4.367755  -0.615431 -0.090058 0.783029  0.000000 0.000000 1 1 1.000000
  phy
0  -22.655319 102.883949 7.729039  0.037769 0.587620 0.808255  0.000000 0.000000 1 1 1.000000
0  22.654554 102.883934 7.731431  -0.065494 0.699190 0.711930  0.000000 0.000000 1 1 1.000000
0  34.893028 75.570267 4.367755  -0.615431 -0.090058 0.783029  0.000000 0.000000 1 1 1.000000
  phy
0  -22.655319 102.883949 7.729039  0.037769 0.587620 0.808255  0.000000 0.000000 1 1 1.000000
0  34.893028 75.570267 4.367755  -0.615431 -0.090058 0.783029  0.000000 0.000000 1 1 1.000000
0  -34.895733 75.794853 4.391734  0.610599 -0.106960 0.784683  0.000000 0.000000 1 1 1.000000
  phy
0  -26.314095 41.162457 52.789017  0.174785 0.372392 -0.911468  0.000000 0.000000 1 1 1.000000
0  -26.927233 -6.795038 52.749378  0.439627 0.113182 -0.891021  0.000000 0.000000 1 1 1.000000
0  26.921659 -6.795052 52.752220  -0.439383 0.113569 -0.891092  0.000000 0.000000 1 1 1.000000
  phy
0  -24.310091 -99.607941 27.903622  0.275829 -0.615619 -0.738195  0.000000 0.000000 1 1 1.000000
0  -26.927233 -6.795038 52.749378  0.439627 0.113182 -0.891021  0.000000 0.000000 1 1 1.000000
0  -34.306072 -91.171799 26.179548  0.699361 0.215241 -0.681591  0.000000 0.000000 1 1 1.000000
  phy
0  33.202824 97.227890 40.157322  -0.653118 0.260558 -0.711018  0.000000 0.000000 1 1 1.000000
0  -33.207012 97.227905 40.153816  0.655671 0.271060 -0.704714  0.000000 0.000000 1 1 1.000000
0  -26.314095 41.162457 52.789017  0.174785 0.372392 -0.911468  0.000000 0.000000 1 1 1.000000
  phy
0  -33.207012 97.227905 40.153816  0.655671 0.271060 -0.704714  0.000000 0.000000 1 1 1.000000
0  33.202824 97.227890 40.157322  -0.653118 0.260558 -0.711018  0.000000 0.000000 1 1 1.000000
0  24.130407 106.257133 22.458975  0.014547 0.959716 -0.280594  0.000000 0.000000 1 1 1.000000
end
