version 1
nodes
0 "blender_implicit" -1
1 "root" -1
2 "steering_wheel" 1
end
skeleton
time 0
0  0 0 0  0 0 0
1  0.000000 0.000000 0.000000  1.570796 -0.000000 0.000000
2  16.702593 33.588814 6.160704  -0.000000 -0.000000 -0.000000
end
triangles
skin_0
0  -25.414276 53.309914 48.694424  -0.943283 0.182276 -0.277477  0.524500 0.671500 1 1 1.000000
0  -25.551920 44.260284 50.449310  -0.931432 -0.236830 -0.276309  0.581500 0.665700 1 1 1.000000
0  -25.506054 53.149319 48.855026  -0.698301 0.047576 0.714222  0.581200 0.666200 1 1 1.000000
skin_0
0  -25.551920 44.260284 50.449310  -0.931432 -0.236830 -0.276309  0.581500 0.665700 1 1 1.000000
0  -25.655155 44.374973 50.747509  -0.578280 0.015826 0.815685  0.591700 0.632900 1 1 1.000000
0  -25.506054 53.149319 48.855026  -0.698301 0.047576 0.714222  0.581200 0.666200 1 1 1.000000
skin_0
0  -25.620743 44.248787 50.919567  -0.572549 0.039823 0.818902  0.591300 0.632700 1 1 1.000000
0  -25.655155 44.374973 50.747509  -0.578280 0.015826 0.815685  0.591700 0.632900 1 1 1.000000
0  -25.540464 44.122639 50.655777  -0.908761 -0.395091 -0.134375  0.591000 0.632300 1 1 1.000000
skin_0
0  -25.655155 44.374973 50.747509  -0.578280 0.015826 0.815685  0.591700 0.632900 1 1 1.000000
0  -25.551920 44.260284 50.449310  -0.931432 -0.236830 -0.276309  0.591700 0.632800 1 1 1.000000
0  -25.540464 44.122639 50.655777  -0.908761 -0.395091 -0.134375  0.591000 0.632300 1 1 1.000000
skin_0
0  -24.886696 53.241093 50.231388  -0.698257 0.047662 0.714258  0.589400 0.662300 1 1 1.000000
0  -24.772005 53.401649 50.047874  -0.871694 0.475403 -0.118920  0.588700 0.662600 1 1 1.000000
0  -25.093163 53.275505 49.474380  -0.871710 0.475407 -0.118781  0.590000 0.660700 1 1 1.000000
skin_0
0  -25.196352 53.114902 49.657898  -0.698300 0.047606 0.714220  0.590700 0.660300 1 1 1.000000
0  -24.886696 53.241093 50.231388  -0.698257 0.047662 0.714258  0.589400 0.662300 1 1 1.000000
0  -25.093163 53.275505 49.474380  -0.871710 0.475407 -0.118781  0.590000 0.660700 1 1 1.000000
skin_0
0  -25.196352 53.114902 49.657898  -0.698300 0.047606 0.714220  0.590700 0.660300 1 1 1.000000
0  -25.093163 53.275505 49.474380  -0.871710 0.475407 -0.118781  0.590000 0.660700 1 1 1.000000
0  -25.379864 53.413109 49.015579  -0.871706 0.475430 -0.118725  0.590700 0.659800 1 1 1.000000
skin_0
0  -25.471642 53.252548 49.187634  -0.698316 0.047553 0.714209  0.591400 0.659400 1 1 1.000000
0  -25.196352 53.114902 49.657898  -0.698300 0.047606 0.714220  0.590700 0.660300 1 1 1.000000
0  -25.379864 53.413109 49.015579  -0.871706 0.475430 -0.118725  0.590700 0.659800 1 1 1.000000
skin_0
0  -25.471642 53.252548 49.187634  -0.698316 0.047553 0.714209  0.591400 0.659400 1 1 1.000000
0  -25.379864 53.413109 49.015579  -0.871706 0.475430 -0.118725  0.590700 0.659800 1 1 1.000000
0  -25.414276 53.309914 48.694424  -0.943283 0.182276 -0.277477  0.591300 0.658800 1 1 1.000000
skin_0
0  -25.506054 53.149319 48.855026  -0.698301 0.047576 0.714222  0.592000 0.658400 1 1 1.000000
0  -25.471642 53.252548 49.187634  -0.698316 0.047553 0.714209  0.591400 0.659400 1 1 1.000000
0  -25.414276 53.309914 48.694424  -0.943283 0.182276 -0.277477  0.591300 0.658800 1 1 1.000000
skin_0
0  -25.471642 53.252548 49.187634  -0.698316 0.047553 0.714209  0.591400 0.659400 1 1 1.000000
0  -25.506054 53.149319 48.855026  -0.698301 0.047576 0.714222  0.592000 0.658400 1 1 1.000000
0  -25.655155 44.374973 50.747509  -0.578280 0.015826 0.815685  0.591700 0.632900 1 1 1.000000
skin_0
0  -25.196352 53.114902 49.657898  -0.698300 0.047606 0.714220  0.590700 0.660300 1 1 1.000000
0  -25.471642 53.252548 49.187634  -0.698316 0.047553 0.714209  0.591400 0.659400 1 1 1.000000
0  -25.655155 44.374973 50.747509  -0.578280 0.015826 0.815685  0.591700 0.632900 1 1 1.000000
skin_0
0  -24.886696 53.241093 50.231388  -0.698257 0.047662 0.714258  0.589400 0.662300 1 1 1.000000
0  -25.196352 53.114902 49.657898  -0.698300 0.047606 0.714220  0.590700 0.660300 1 1 1.000000
0  -25.655155 44.374973 50.747509  -0.578280 0.015826 0.815685  0.591700 0.632900 1 1 1.000000
skin_0
0  -24.886696 53.241093 50.231388  -0.698257 0.047662 0.714258  0.589400 0.662300 1 1 1.000000
0  -25.655155 44.374973 50.747509  -0.578280 0.015826 0.815685  0.591700 0.632900 1 1 1.000000
0  -24.370571 53.757221 51.057213  -0.698325 0.047630 0.714195  0.587100 0.666300 1 1 1.000000
skin_0
0  -24.370571 53.757221 51.057213  -0.698325 0.047630 0.714195  0.587100 0.666300 1 1 1.000000
0  -25.655155 44.374973 50.747509  -0.578280 0.015826 0.815685  0.591700 0.632900 1 1 1.000000
0  -24.015005 53.986595 51.458649  -0.539976 0.007965 0.841643  0.585600 0.667100 1 1 1.000000
skin_0
0  -25.655155 44.374973 50.747509  -0.578280 0.015826 0.815685  0.591700 0.632900 1 1 1.000000
0  -25.620743 44.248787 50.919567  -0.572549 0.039823 0.818902  0.591300 0.632700 1 1 1.000000
0  -24.015005 53.986595 51.458649  -0.539976 0.007965 0.841643  0.585600 0.667100 1 1 1.000000
skin_0
0  -25.620743 44.248787 50.919567  -0.572549 0.039823 0.818902  0.591300 0.632700 1 1 1.000000
0  -23.579159 53.883366 51.733940  -0.356176 -0.031628 0.933883  0.583700 0.666700 1 1 1.000000
0  -24.015005 53.986595 51.458649  -0.539976 0.007965 0.841643  0.585600 0.667100 1 1 1.000000
skin_0
0  -25.620743 44.248787 50.919567  -0.572549 0.039823 0.818902  0.591300 0.632700 1 1 1.000000
0  -25.448687 44.168507 51.011349  -0.291271 -0.040462 0.955785  0.590500 0.632500 1 1 1.000000
0  -23.579159 53.883366 51.733940  -0.356176 -0.031628 0.933883  0.583700 0.666700 1 1 1.000000
skin_0
0  -25.448687 44.168507 51.011349  -0.291271 -0.040462 0.955785  0.590500 0.632500 1 1 1.000000
0  -23.040077 53.608120 51.848625  -0.294410 -0.039801 0.954850  0.581500 0.665700 1 1 1.000000
0  -23.579159 53.883366 51.733940  -0.356176 -0.031628 0.933883  0.583700 0.666700 1 1 1.000000
skin_0
0  -25.448687 44.168507 51.011349  -0.291271 -0.040462 0.955785  0.590500 0.632500 1 1 1.000000
0  -22.443630 53.527840 51.676575  -0.190007 -0.023668 0.981497  0.579000 0.665200 1 1 1.000000
0  -23.040077 53.608120 51.848625  -0.294410 -0.039801 0.954850  0.581500 0.665700 1 1 1.000000
skin_0
0  -25.448687 44.168507 51.011349  -0.291271 -0.040462 0.955785  0.590500 0.632500 1 1 1.000000
0  -19.874416 45.200802 52.261520  -0.142332 -0.015819 0.989693  0.571100 0.636600 1 1 1.000000
0  -22.443630 53.527840 51.676575  -0.190007 -0.023668 0.981497  0.579000 0.665200 1 1 1.000000
skin_0
0  -19.874416 45.200802 52.261520  -0.142332 -0.015819 0.989693  0.571100 0.636600 1 1 1.000000
0  -19.897373 53.745762 52.250061  -0.142493 -0.015809 0.989670  0.570700 0.666300 1 1 1.000000
0  -22.443630 53.527840 51.676575  -0.190007 -0.023668 0.981497  0.579000 0.665200 1 1 1.000000
skin_0
0  0.002641 55.684116 53.236446  -0.031560 0.852841 0.521217  0.500200 0.671800 1 1 1.000000
0  0.002641 55.821762 53.007069  -0.031587 0.852825 0.521241  0.500200 0.672300 1 1 1.000000
0  -6.982447 55.546513 52.926792  -0.063265 0.855099 0.514590  0.524500 0.671900 1 1 1.000000
skin_0
0  -6.982447 55.408871 53.156174  -0.008069 -0.015801 0.999843  0.524500 0.671500 1 1 1.000000
0  0.002641 55.684116 53.236446  -0.031560 0.852841 0.521217  0.500200 0.671800 1 1 1.000000
0  -6.982447 55.546513 52.926792  -0.063265 0.855099 0.514590  0.524500 0.671900 1 1 1.000000
skin_0
0  -6.982447 55.408871 53.156174  -0.008069 -0.015801 0.999843  0.524500 0.671500 1 1 1.000000
0  -6.982447 55.546513 52.926792  -0.063265 0.855099 0.514590  0.524500 0.671900 1 1 1.000000
0  -13.531644 54.858288 52.766190  -0.134702 0.855899 0.499292  0.548600 0.669700 1 1 1.000000
skin_0
0  -13.543098 54.720688 52.995613  -0.047501 -0.015775 0.998747  0.548600 0.669400 1 1 1.000000
0  -6.982447 55.408871 53.156174  -0.008069 -0.015801 0.999843  0.524500 0.671500 1 1 1.000000
0  -13.531644 54.858288 52.766190  -0.134702 0.855899 0.499292  0.548600 0.669700 1 1 1.000000
skin_0
0  -13.543098 54.720688 52.995613  -0.047501 -0.015775 0.998747  0.548600 0.669400 1 1 1.000000
0  -13.531644 54.858288 52.766190  -0.134702 0.855899 0.499292  0.548600 0.669700 1 1 1.000000
0  -19.897373 53.883366 52.032139  -0.182904 0.850628 0.492927  0.570700 0.666500 1 1 1.000000
skin_0
0  -19.897373 53.745762 52.250061  -0.142493 -0.015809 0.989670  0.570700 0.666300 1 1 1.000000
0  -13.543098 54.720688 52.995613  -0.047501 -0.015775 0.998747  0.548600 0.669400 1 1 1.000000
0  -19.897373 53.883366 52.032139  -0.182904 0.850628 0.492927  0.570700 0.666500 1 1 1.000000
skin_0
0  -19.897373 53.745762 52.250061  -0.142493 -0.015809 0.989670  0.570700 0.666300 1 1 1.000000
0  -19.897373 53.883366 52.032139  -0.182904 0.850628 0.492927  0.570700 0.666500 1 1 1.000000
0  -22.386309 53.665440 51.458649  0.047474 0.840801 0.539258  0.578800 0.665700 1 1 1.000000
skin_0
0  -22.443630 53.527840 51.676575  -0.190007 -0.023668 0.981497  0.579000 0.665200 1 1 1.000000
0  -19.897373 53.745762 52.250061  -0.142493 -0.015809 0.989670  0.570700 0.666300 1 1 1.000000
0  -22.386309 53.665440 51.458649  0.047474 0.840801 0.539258  0.578800 0.665700 1 1 1.000000
skin_0
0  -22.443630 53.527840 51.676575  -0.190007 -0.023668 0.981497  0.579000 0.665200 1 1 1.000000
0  -22.386309 53.665440 51.458649  0.047474 0.840801 0.539258  0.578800 0.665700 1 1 1.000000
0  -22.959755 53.734264 51.642159  0.277792 0.753972 0.595279  0.581200 0.666200 1 1 1.000000
skin_0
0  -23.040077 53.608120 51.848625  -0.294410 -0.039801 0.954850  0.581500 0.665700 1 1 1.000000
0  -22.443630 53.527840 51.676575  -0.190007 -0.023668 0.981497  0.579000 0.665200 1 1 1.000000
0  -22.959755 53.734264 51.642159  0.277792 0.753972 0.595279  0.581200 0.666200 1 1 1.000000
skin_0
0  -23.040077 53.608120 51.848625  -0.294410 -0.039801 0.954850  0.581500 0.665700 1 1 1.000000
0  -22.959755 53.734264 51.642159  0.277792 0.753972 0.595279  0.581200 0.666200 1 1 1.000000
0  -23.475924 54.043961 51.538929  0.323312 0.867307 -0.378480  0.583400 0.667200 1 1 1.000000
skin_0
0  -23.579159 53.883366 51.733940  -0.356176 -0.031628 0.933883  0.583700 0.666700 1 1 1.000000
0  -23.040077 53.608120 51.848625  -0.294410 -0.039801 0.954850  0.581500 0.665700 1 1 1.000000
0  -23.475924 54.043961 51.538929  0.323312 0.867307 -0.378480  0.583400 0.667200 1 1 1.000000
skin_0
0  -23.579159 53.883366 51.733940  -0.356176 -0.031628 0.933883  0.583700 0.666700 1 1 1.000000
0  -23.475924 54.043961 51.538929  0.323312 0.867307 -0.378480  0.583400 0.667200 1 1 1.000000
0  -23.854403 54.135700 51.275139  0.277402 0.847939 -0.451716  0.585000 0.667600 1 1 1.000000
skin_0
0  -24.015005 53.986595 51.458649  -0.539976 0.007965 0.841643  0.585600 0.667100 1 1 1.000000
0  -23.579159 53.883366 51.733940  -0.356176 -0.031628 0.933883  0.583700 0.666700 1 1 1.000000
0  -23.854403 54.135700 51.275139  0.277402 0.847939 -0.451716  0.585000 0.667600 1 1 1.000000
skin_0
0  -24.015005 53.986595 51.458649  -0.539976 0.007965 0.841643  0.585600 0.667100 1 1 1.000000
0  -23.854403 54.135700 51.275139  0.277402 0.847939 -0.451716  0.585000 0.667600 1 1 1.000000
0  -24.221424 53.975140 50.908112  -0.756117 0.652697 0.047678  0.586500 0.667100 1 1 1.000000
skin_0
0  -24.370571 53.757221 51.057213  -0.698325 0.047630 0.714195  0.587100 0.666300 1 1 1.000000
0  -24.015005 53.986595 51.458649  -0.539976 0.007965 0.841643  0.585600 0.667100 1 1 1.000000
0  -24.221424 53.975140 50.908112  -0.756117 0.652697 0.047678  0.586500 0.667100 1 1 1.000000
skin_0
0  -24.370571 53.757221 51.057213  -0.698325 0.047630 0.714195  0.587100 0.666300 1 1 1.000000
0  -24.221424 53.975140 50.908112  -0.756117 0.652697 0.047678  0.586500 0.667100 1 1 1.000000
0  -24.772005 53.401649 50.047874  -0.871694 0.475403 -0.118920  0.588700 0.662600 1 1 1.000000
skin_0
0  -24.886696 53.241093 50.231388  -0.698257 0.047662 0.714258  0.589400 0.662300 1 1 1.000000
0  -24.370571 53.757221 51.057213  -0.698325 0.047630 0.714195  0.587100 0.666300 1 1 1.000000
0  -24.772005 53.401649 50.047874  -0.871694 0.475403 -0.118920  0.588700 0.662600 1 1 1.000000
skin_0
0  -13.543098 54.720688 52.995613  -0.047501 -0.015775 0.998747  0.548600 0.669400 1 1 1.000000
0  -19.897373 53.745762 52.250061  -0.142493 -0.015809 0.989670  0.570700 0.666300 1 1 1.000000
0  -19.874416 45.200802 52.261520  -0.142332 -0.015819 0.989693  0.571100 0.636600 1 1 1.000000
skin_0
0  -13.589010 46.015125 52.869427  -0.047446 -0.015821 0.998749  0.548700 0.639500 1 1 1.000000
0  -13.543098 54.720688 52.995613  -0.047501 -0.015775 0.998747  0.548600 0.669400 1 1 1.000000
0  -19.874416 45.200802 52.261520  -0.142332 -0.015819 0.989693  0.571100 0.636600 1 1 1.000000
skin_0
0  -6.982447 55.408871 53.156174  -0.008069 -0.015801 0.999843  0.524500 0.671500 1 1 1.000000
0  -13.543098 54.720688 52.995613  -0.047501 -0.015775 0.998747  0.548600 0.669400 1 1 1.000000
0  -13.589010 46.015125 52.869427  -0.047446 -0.015821 0.998749  0.548700 0.639500 1 1 1.000000
skin_0
0  -6.970946 46.278965 53.030025  -0.007969 -0.015822 0.999843  0.525000 0.640100 1 1 1.000000
0  -6.982447 55.408871 53.156174  -0.008069 -0.015801 0.999843  0.524500 0.671500 1 1 1.000000
0  -13.589010 46.015125 52.869427  -0.047446 -0.015821 0.998749  0.548700 0.639500 1 1 1.000000
skin_0
0  0.002641 55.684116 53.236446  0.000000 -0.016538 0.999863  0.500200 0.671800 1 1 1.000000
0  -6.982447 55.408871 53.156174  -0.008069 -0.015801 0.999843  0.524500 0.671500 1 1 1.000000
0  -6.970946 46.278965 53.030025  -0.007969 -0.015822 0.999843  0.525000 0.640100 1 1 1.000000
skin_0
0  0.002642 46.428059 53.110302  0.000511 -0.015790 0.999875  0.500200 0.641100 1 1 1.000000
0  0.002641 55.684116 53.236446  0.000000 -0.016538 0.999863  0.500200 0.671800 1 1 1.000000
0  -6.970946 46.278965 53.030025  -0.007969 -0.015822 0.999843  0.525000 0.640100 1 1 1.000000
skin_0
0  0.002642 46.428059 53.110302  0.000511 -0.015790 0.999875  0.500200 0.641100 1 1 1.000000
0  -6.970946 46.278965 53.030025  -0.007969 -0.015822 0.999843  0.525000 0.640100 1 1 1.000000
0  0.002642 46.301872 52.892384  0.015517 -0.864336 0.502675  0.500200 0.640600 1 1 1.000000
skin_0
0  -6.970946 46.278965 53.030025  -0.007969 -0.015822 0.999843  0.525000 0.640100 1 1 1.000000
0  -6.959490 46.141319 52.800602  0.015700 -0.889535 0.456597  0.524900 0.639600 1 1 1.000000
0  0.002642 46.301872 52.892384  0.015517 -0.864336 0.502675  0.500200 0.640600 1 1 1.000000
skin_0
0  -6.970946 46.278965 53.030025  -0.007969 -0.015822 0.999843  0.525000 0.640100 1 1 1.000000
0  -13.589010 46.015125 52.869427  -0.047446 -0.015821 0.998749  0.548700 0.639500 1 1 1.000000
0  -6.959490 46.141319 52.800602  0.015700 -0.889535 0.456597  0.524900 0.639600 1 1 1.000000
skin_0
0  -13.589010 46.015125 52.869427  -0.047446 -0.015821 0.998749  0.548700 0.639500 1 1 1.000000
0  -11.857080 46.015125 52.708866  0.031611 -0.884321 0.465809  0.542300 0.639000 1 1 1.000000
0  -6.959490 46.141319 52.800602  0.015700 -0.889535 0.456597  0.524900 0.639600 1 1 1.000000
skin_0
0  -13.589010 46.015125 52.869427  -0.047446 -0.015821 0.998749  0.548700 0.639500 1 1 1.000000
0  -13.462820 45.888981 52.651501  0.054798 -0.854205 0.517040  0.548600 0.639000 1 1 1.000000
0  -11.857080 46.015125 52.708866  0.031611 -0.884321 0.465809  0.542300 0.639000 1 1 1.000000
skin_0
0  -13.589010 46.015125 52.869427  -0.047446 -0.015821 0.998749  0.548700 0.639500 1 1 1.000000
0  -13.680742 45.877480 52.663002  0.063112 -0.851605 0.520371  0.549400 0.638900 1 1 1.000000
0  -13.462820 45.888981 52.651501  0.054798 -0.854205 0.517040  0.548600 0.639000 1 1 1.000000
skin_0
0  -13.589010 46.015125 52.869427  -0.047446 -0.015821 0.998749  0.548700 0.639500 1 1 1.000000
0  -19.874416 45.200802 52.261520  -0.142332 -0.015819 0.989693  0.571100 0.636600 1 1 1.000000
0  -13.680742 45.877480 52.663002  0.063112 -0.851605 0.520371  0.549400 0.638900 1 1 1.000000
skin_0
0  -19.874416 45.200802 52.261520  -0.142332 -0.015819 0.989693  0.571100 0.636600 1 1 1.000000
0  -19.817049 45.074612 52.043594  0.047328 -0.852338 0.520845  0.570800 0.636100 1 1 1.000000
0  -13.680742 45.877480 52.663002  0.063112 -0.851605 0.520371  0.549400 0.638900 1 1 1.000000
skin_0
0  -19.874416 45.200802 52.261520  -0.142332 -0.015819 0.989693  0.571100 0.636600 1 1 1.000000
0  -25.448687 44.168507 51.011349  -0.291271 -0.040462 0.955785  0.590500 0.632500 1 1 1.000000
0  -19.817049 45.074612 52.043594  0.047328 -0.852338 0.520845  0.570800 0.636100 1 1 1.000000
skin_0
0  -25.448687 44.168507 51.011349  -0.291271 -0.040462 0.955785  0.590500 0.632500 1 1 1.000000
0  -25.379864 44.030861 50.781925  -0.275394 -0.873510 0.401420  0.590200 0.632000 1 1 1.000000
0  -19.817049 45.074612 52.043594  0.047328 -0.852338 0.520845  0.570800 0.636100 1 1 1.000000
skin_0
0  -25.448687 44.168507 51.011349  -0.291271 -0.040462 0.955785  0.590500 0.632500 1 1 1.000000
0  -25.620743 44.248787 50.919567  -0.572549 0.039823 0.818902  0.591300 0.632700 1 1 1.000000
0  -25.379864 44.030861 50.781925  -0.275394 -0.873510 0.401420  0.590200 0.632000 1 1 1.000000
skin_0
0  -25.620743 44.248787 50.919567  -0.572549 0.039823 0.818902  0.591300 0.632700 1 1 1.000000
0  -25.540464 44.122639 50.655777  -0.566614 -0.787021 0.244023  0.591000 0.632300 1 1 1.000000
0  -25.379864 44.030861 50.781925  -0.275394 -0.873510 0.401420  0.590200 0.632000 1 1 1.000000
skin_0
0  19.822334 45.074615 52.043602  -0.156748 0.000013 -0.987638  0.429500 0.636100 1 1 1.000000
0  13.686029 45.877529 52.663006  -0.094084 0.000116 -0.995564  0.450900 0.638900 1 1 1.000000
0  13.468105 45.888981 52.651505  -0.054997 0.000018 -0.998487  0.451700 0.639000 1 1 1.000000
skin_0
0  13.468105 45.888981 52.651505  -0.054997 0.000018 -0.998487  0.451700 0.639000 1 1 1.000000
0  11.862366 46.015125 52.708870  -0.015691 0.000083 -0.999877  0.457900 0.639000 1 1 1.000000
0  6.964775 46.141319 52.800606  -0.007944 0.007920 -0.999937  0.475300 0.639600 1 1 1.000000
skin_0
0  0.002641 55.821762 53.007069  0.004761 0.007025 -0.999964  0.500000 0.672300 1 1 1.000000
0  6.987731 55.546513 52.926796  -0.007879 0.007889 -0.999938  0.475800 0.671900 1 1 1.000000
0  0.002642 46.301872 52.892384  0.004623 0.007050 -0.999964  0.500000 0.640600 1 1 1.000000
skin_0
0  6.987731 55.546513 52.926796  -0.007879 0.007889 -0.999938  0.475800 0.671900 1 1 1.000000
0  6.964775 46.141319 52.800606  -0.007944 0.007920 -0.999937  0.475300 0.639600 1 1 1.000000
0  0.002642 46.301872 52.892384  0.004623 0.007050 -0.999964  0.500000 0.640600 1 1 1.000000
skin_0
0  6.987731 55.546513 52.926796  -0.007879 0.007889 -0.999938  0.475800 0.671900 1 1 1.000000
0  13.536926 54.858337 52.766193  -0.055007 0.000012 -0.998486  0.451700 0.669700 1 1 1.000000
0  6.964775 46.141319 52.800606  -0.007944 0.007920 -0.999937  0.475300 0.639600 1 1 1.000000
skin_0
0  13.536926 54.858337 52.766193  -0.055007 0.000012 -0.998486  0.451700 0.669700 1 1 1.000000
0  13.468105 45.888981 52.651505  -0.054997 0.000018 -0.998487  0.451700 0.639000 1 1 1.000000
0  6.964775 46.141319 52.800606  -0.007944 0.007920 -0.999937  0.475300 0.639600 1 1 1.000000
skin_0
0  13.536926 54.858337 52.766193  -0.055007 0.000012 -0.998486  0.451700 0.669700 1 1 1.000000
0  19.891155 53.883369 52.032146  -0.156768 -0.000041 -0.987635  0.429600 0.666500 1 1 1.000000
0  13.468105 45.888981 52.651505  -0.054997 0.000018 -0.998487  0.451700 0.639000 1 1 1.000000
skin_0
0  19.891155 53.883369 52.032146  -0.156768 -0.000041 -0.987635  0.429600 0.666500 1 1 1.000000
0  19.822334 45.074615 52.043602  -0.156748 0.000013 -0.987638  0.429500 0.636100 1 1 1.000000
0  13.468105 45.888981 52.651505  -0.054997 0.000018 -0.998487  0.451700 0.639000 1 1 1.000000
skin_0
0  19.891155 53.883369 52.032146  -0.156768 -0.000041 -0.987635  0.429600 0.666500 1 1 1.000000
0  22.391590 53.665443 51.458656  0.031397 0.070699 -0.997003  0.421500 0.665700 1 1 1.000000
0  19.822334 45.074615 52.043602  -0.156748 0.000013 -0.987638  0.429500 0.636100 1 1 1.000000
skin_0
0  22.391590 53.665443 51.458656  0.031397 0.070699 -0.997003  0.421500 0.665700 1 1 1.000000
0  25.385195 44.030865 50.781933  -0.078430 0.046984 -0.995812  0.410000 0.632000 1 1 1.000000
0  19.822334 45.074615 52.043602  -0.156748 0.000013 -0.987638  0.429500 0.636100 1 1 1.000000
skin_0
0  22.391590 53.665443 51.458656  0.031397 0.070699 -0.997003  0.421500 0.665700 1 1 1.000000
0  22.965036 53.734268 51.642166  -0.007903 0.078499 -0.996883  0.419100 0.666200 1 1 1.000000
0  25.385195 44.030865 50.781933  -0.078430 0.046984 -0.995812  0.410000 0.632000 1 1 1.000000
skin_0
0  25.385195 44.030865 50.781933  -0.078430 0.046984 -0.995812  0.410000 0.632000 1 1 1.000000
0  22.965036 53.734268 51.642166  -0.007903 0.078499 -0.996883  0.419100 0.666200 1 1 1.000000
0  25.545752 44.122643 50.655785  -0.591815 -0.047304 -0.804684  0.409300 0.632300 1 1 1.000000
skin_0
0  22.965036 53.734268 51.642166  -0.007903 0.078499 -0.996883  0.419100 0.666200 1 1 1.000000
0  23.481205 54.043964 51.538937  -0.316196 0.869494 -0.379474  0.416900 0.667200 1 1 1.000000
0  25.545752 44.122643 50.655785  -0.591815 -0.047304 -0.804684  0.409300 0.632300 1 1 1.000000
skin_0
0  23.481205 54.043964 51.538937  -0.316196 0.869494 -0.379474  0.416900 0.667200 1 1 1.000000
0  23.859686 54.135704 51.275146  -0.269974 0.849805 -0.452708  0.415200 0.667600 1 1 1.000000
0  25.545752 44.122643 50.655785  -0.591815 -0.047304 -0.804684  0.409300 0.632300 1 1 1.000000
skin_0
0  25.545752 44.122643 50.655785  -0.591815 -0.047304 -0.804684  0.409300 0.632300 1 1 1.000000
0  23.859686 54.135704 51.275146  -0.269974 0.849805 -0.452708  0.415200 0.667600 1 1 1.000000
0  25.557205 44.260288 50.449318  -0.870563 -0.094979 -0.482803  0.408500 0.632800 1 1 1.000000
skin_0
0  23.859686 54.135704 51.275146  -0.269974 0.849805 -0.452708  0.415200 0.667600 1 1 1.000000
0  24.226711 53.975143 50.908119  -0.855702 -0.102992 -0.507116  0.413800 0.667100 1 1 1.000000
0  25.557205 44.260288 50.449318  -0.870563 -0.094979 -0.482803  0.408500 0.632800 1 1 1.000000
skin_0
0  24.226711 53.975143 50.908119  -0.855702 -0.102992 -0.507116  0.413800 0.667100 1 1 1.000000
0  24.777292 53.401653 50.047882  -0.883994 -0.094701 -0.457807  0.411600 0.662600 1 1 1.000000
0  25.557205 44.260288 50.449318  -0.870563 -0.094979 -0.482803  0.408500 0.632800 1 1 1.000000
skin_0
0  24.777292 53.401653 50.047882  -0.883994 -0.094701 -0.457807  0.411600 0.662600 1 1 1.000000
0  25.098450 53.275509 49.474388  0.873563 0.472170 -0.118079  0.410200 0.660700 1 1 1.000000
0  25.557205 44.260288 50.449318  -0.870563 -0.094979 -0.482803  0.408500 0.632800 1 1 1.000000
skin_0
0  25.098450 53.275509 49.474388  0.873563 0.472170 -0.118079  0.410200 0.660700 1 1 1.000000
0  25.362238 53.378742 49.015587  0.873569 0.472184 -0.117979  0.409600 0.659800 1 1 1.000000
0  25.557205 44.260288 50.449318  -0.870563 -0.094979 -0.482803  0.408500 0.632800 1 1 1.000000
skin_0
0  25.362238 53.378742 49.015587  0.873569 0.472184 -0.117979  0.409600 0.659800 1 1 1.000000
0  25.419605 53.309917 48.694431  -0.899673 -0.094685 -0.426172  0.408900 0.658800 1 1 1.000000
0  25.557205 44.260288 50.449318  -0.870563 -0.094979 -0.482803  0.408500 0.632800 1 1 1.000000
skin_0
0  0.002641 55.684116 53.236446  0.000000 -0.016538 0.999863  0.500000 0.671800 1 1 1.000000
0  0.002642 46.428059 53.110302  0.000511 -0.015790 0.999875  0.500000 0.641100 1 1 1.000000
0  6.976230 46.278965 53.030029  0.015767 -0.015816 0.999751  0.475300 0.640100 1 1 1.000000
skin_0
0  6.976230 46.278965 53.030029  0.015767 -0.015816 0.999751  0.475300 0.640100 1 1 1.000000
0  0.002642 46.428059 53.110302  0.000511 -0.015790 0.999875  0.500000 0.641100 1 1 1.000000
0  0.002642 46.301872 52.892384  -0.007910 -0.864306 0.502905  0.500000 0.640600 1 1 1.000000
skin_0
0  6.964775 46.141319 52.800606  -0.007894 -0.889682 0.456513  0.475300 0.639600 1 1 1.000000
0  6.976230 46.278965 53.030029  0.015767 -0.015816 0.999751  0.475300 0.640100 1 1 1.000000
0  0.002642 46.301872 52.892384  -0.007910 -0.864306 0.502905  0.500000 0.640600 1 1 1.000000
skin_0
0  13.594296 46.015125 52.869431  0.055405 -0.015840 0.998338  0.451600 0.639500 1 1 1.000000
0  6.976230 46.278965 53.030029  0.015767 -0.015816 0.999751  0.475300 0.640100 1 1 1.000000
0  6.964775 46.141319 52.800606  -0.007894 -0.889682 0.456513  0.475300 0.639600 1 1 1.000000
skin_0
0  6.987731 55.408871 53.156178  0.015779 -0.015812 0.999750  0.475800 0.671500 1 1 1.000000
0  6.976230 46.278965 53.030029  0.015767 -0.015816 0.999751  0.475300 0.640100 1 1 1.000000
0  13.594296 46.015125 52.869431  0.055405 -0.015840 0.998338  0.451600 0.639500 1 1 1.000000
skin_0
0  13.548382 54.720688 52.995617  0.055378 -0.015806 0.998340  0.451700 0.669400 1 1 1.000000
0  6.987731 55.408871 53.156178  0.015779 -0.015812 0.999750  0.475800 0.671500 1 1 1.000000
0  13.594296 46.015125 52.869431  0.055405 -0.015840 0.998338  0.451600 0.639500 1 1 1.000000
skin_0
0  6.987731 55.408871 53.156178  0.015779 -0.015812 0.999750  0.475800 0.671500 1 1 1.000000
0  13.548382 54.720688 52.995617  0.055378 -0.015806 0.998340  0.451700 0.669400 1 1 1.000000
0  13.536926 54.858337 52.766193  0.142500 0.854991 0.498682  0.451700 0.669700 1 1 1.000000
skin_0
0  13.536926 54.858337 52.766193  0.142500 0.854991 0.498682  0.451700 0.669700 1 1 1.000000
0  13.548382 54.720688 52.995617  0.055378 -0.015806 0.998340  0.451700 0.669400 1 1 1.000000
0  19.891155 53.883369 52.032146  0.190594 0.849379 0.492168  0.429600 0.666500 1 1 1.000000
skin_0
0  13.548382 54.720688 52.995617  0.055378 -0.015806 0.998340  0.451700 0.669400 1 1 1.000000
0  19.902657 53.757225 52.250069  0.150346 -0.015790 0.988507  0.429500 0.666300 1 1 1.000000
0  19.891155 53.883369 52.032146  0.190594 0.849379 0.492168  0.429600 0.666500 1 1 1.000000
skin_0
0  19.891155 53.883369 52.032146  0.190594 0.849379 0.492168  0.429600 0.666500 1 1 1.000000
0  19.902657 53.757225 52.250069  0.150346 -0.015790 0.988507  0.429500 0.666300 1 1 1.000000
0  22.391590 53.665443 51.458656  -0.039718 0.841026 0.539535  0.421500 0.665700 1 1 1.000000
skin_0
0  19.902657 53.757225 52.250069  0.150346 -0.015790 0.988507  0.429500 0.666300 1 1 1.000000
0  22.448914 53.527843 51.676582  0.197629 -0.023676 0.979991  0.421200 0.665200 1 1 1.000000
0  22.391590 53.665443 51.458656  -0.039718 0.841026 0.539535  0.421500 0.665700 1 1 1.000000
skin_0
0  22.391590 53.665443 51.458656  -0.039718 0.841026 0.539535  0.421500 0.665700 1 1 1.000000
0  22.448914 53.527843 51.676582  0.197629 -0.023676 0.979991  0.421200 0.665200 1 1 1.000000
0  22.965036 53.734268 51.642166  -0.270396 0.755614 0.596602  0.419100 0.666200 1 1 1.000000
skin_0
0  22.448914 53.527843 51.676582  0.197629 -0.023676 0.979991  0.421200 0.665200 1 1 1.000000
0  23.045359 53.608124 51.848633  0.301638 -0.039666 0.952597  0.418700 0.665700 1 1 1.000000
0  22.965036 53.734268 51.642166  -0.270396 0.755614 0.596602  0.419100 0.666200 1 1 1.000000
skin_0
0  22.965036 53.734268 51.642166  -0.270396 0.755614 0.596602  0.419100 0.666200 1 1 1.000000
0  23.045359 53.608124 51.848633  0.301638 -0.039666 0.952597  0.418700 0.665700 1 1 1.000000
0  23.481205 54.043964 51.538937  -0.316196 0.869494 -0.379474  0.416900 0.667200 1 1 1.000000
skin_0
0  23.045359 53.608124 51.848633  0.301638 -0.039666 0.952597  0.418700 0.665700 1 1 1.000000
0  23.584438 53.883369 51.733948  0.363088 -0.031617 0.931218  0.416500 0.666700 1 1 1.000000
0  23.481205 54.043964 51.538937  -0.316196 0.869494 -0.379474  0.416900 0.667200 1 1 1.000000
skin_0
0  23.481205 54.043964 51.538937  -0.316196 0.869494 -0.379474  0.416900 0.667200 1 1 1.000000
0  23.584438 53.883369 51.733948  0.363088 -0.031617 0.931218  0.416500 0.666700 1 1 1.000000
0  23.859686 54.135704 51.275146  -0.269974 0.849805 -0.452708  0.415200 0.667600 1 1 1.000000
skin_0
0  23.584438 53.883369 51.733948  0.363088 -0.031617 0.931218  0.416500 0.666700 1 1 1.000000
0  24.020285 53.986599 51.458656  0.545620 0.007897 0.837995  0.414700 0.667100 1 1 1.000000
0  23.859686 54.135704 51.275146  -0.269974 0.849805 -0.452708  0.415200 0.667600 1 1 1.000000
skin_0
0  23.859686 54.135704 51.275146  -0.269974 0.849805 -0.452708  0.415200 0.667600 1 1 1.000000
0  24.020285 53.986599 51.458656  0.545620 0.007897 0.837995  0.414700 0.667100 1 1 1.000000
0  24.226711 53.975143 50.908119  0.759491 0.648787 0.047423  0.413800 0.667100 1 1 1.000000
skin_0
0  22.448914 53.527843 51.676582  0.197629 -0.023676 0.979991  0.421200 0.665200 1 1 1.000000
0  25.453972 44.168510 51.011356  0.301588 -0.039692 0.952612  0.409800 0.632500 1 1 1.000000
0  23.045359 53.608124 51.848633  0.301638 -0.039666 0.952597  0.418700 0.665700 1 1 1.000000
skin_0
0  19.879702 45.200806 52.261528  0.150319 -0.015789 0.988511  0.429200 0.636600 1 1 1.000000
0  25.453972 44.168510 51.011356  0.301588 -0.039692 0.952612  0.409800 0.632500 1 1 1.000000
0  22.448914 53.527843 51.676582  0.197629 -0.023676 0.979991  0.421200 0.665200 1 1 1.000000
skin_0
0  19.902657 53.757225 52.250069  0.150346 -0.015790 0.988507  0.429500 0.666300 1 1 1.000000
0  19.879702 45.200806 52.261528  0.150319 -0.015789 0.988511  0.429200 0.636600 1 1 1.000000
0  22.448914 53.527843 51.676582  0.197629 -0.023676 0.979991  0.421200 0.665200 1 1 1.000000
skin_0
0  19.902657 53.757225 52.250069  0.150346 -0.015790 0.988507  0.429500 0.666300 1 1 1.000000
0  13.548382 54.720688 52.995617  0.055378 -0.015806 0.998340  0.451700 0.669400 1 1 1.000000
0  19.879702 45.200806 52.261528  0.150319 -0.015789 0.988511  0.429200 0.636600 1 1 1.000000
skin_0
0  13.548382 54.720688 52.995617  0.055378 -0.015806 0.998340  0.451700 0.669400 1 1 1.000000
0  13.594296 46.015125 52.869431  0.055405 -0.015840 0.998338  0.451600 0.639500 1 1 1.000000
0  19.879702 45.200806 52.261528  0.150319 -0.015789 0.988511  0.429200 0.636600 1 1 1.000000
skin_0
0  19.879702 45.200806 52.261528  0.150319 -0.015789 0.988511  0.429200 0.636600 1 1 1.000000
0  13.594296 46.015125 52.869431  0.055405 -0.015840 0.998338  0.451600 0.639500 1 1 1.000000
0  13.686029 45.877529 52.663006  -0.055198 -0.851994 0.520633  0.450900 0.638900 1 1 1.000000
skin_0
0  13.686029 45.877529 52.663006  -0.055198 -0.851994 0.520633  0.450900 0.638900 1 1 1.000000
0  13.594296 46.015125 52.869431  0.055405 -0.015840 0.998338  0.451600 0.639500 1 1 1.000000
0  13.468105 45.888981 52.651505  -0.047035 -0.854451 0.517398  0.451700 0.639000 1 1 1.000000
skin_0
0  13.468105 45.888981 52.651505  -0.047035 -0.854451 0.517398  0.451700 0.639000 1 1 1.000000
0  13.594296 46.015125 52.869431  0.055405 -0.015840 0.998338  0.451600 0.639500 1 1 1.000000
0  11.862366 46.015125 52.708870  -0.023707 -0.884510 0.465918  0.457900 0.639000 1 1 1.000000
skin_0
0  11.862366 46.015125 52.708870  -0.023707 -0.884510 0.465918  0.457900 0.639000 1 1 1.000000
0  13.594296 46.015125 52.869431  0.055405 -0.015840 0.998338  0.451600 0.639500 1 1 1.000000
0  6.964775 46.141319 52.800606  -0.007894 -0.889682 0.456513  0.475300 0.639600 1 1 1.000000
skin_0
0  25.545752 44.122643 50.655785  0.571968 -0.783474 0.242941  0.409300 0.632300 1 1 1.000000
0  25.614574 44.248791 50.919575  0.577836 0.039561 0.815194  0.409000 0.632700 1 1 1.000000
0  25.385195 44.030865 50.781933  0.282697 -0.871599 0.400497  0.410000 0.632000 1 1 1.000000
skin_0
0  25.614574 44.248791 50.919575  0.577836 0.039561 0.815194  0.409000 0.632700 1 1 1.000000
0  25.453972 44.168510 51.011356  0.301588 -0.039692 0.952612  0.409800 0.632500 1 1 1.000000
0  25.385195 44.030865 50.781933  0.282697 -0.871599 0.400497  0.410000 0.632000 1 1 1.000000
skin_0
0  25.385195 44.030865 50.781933  0.282697 -0.871599 0.400497  0.410000 0.632000 1 1 1.000000
0  25.453972 44.168510 51.011356  0.301588 -0.039692 0.952612  0.409800 0.632500 1 1 1.000000
0  19.822334 45.074615 52.043602  -0.039505 -0.852638 0.521007  0.429500 0.636100 1 1 1.000000
skin_0
0  25.453972 44.168510 51.011356  0.301588 -0.039692 0.952612  0.409800 0.632500 1 1 1.000000
0  19.879702 45.200806 52.261528  0.150319 -0.015789 0.988511  0.429200 0.636600 1 1 1.000000
0  19.822334 45.074615 52.043602  -0.039505 -0.852638 0.521007  0.429500 0.636100 1 1 1.000000
skin_0
0  19.822334 45.074615 52.043602  -0.039505 -0.852638 0.521007  0.429500 0.636100 1 1 1.000000
0  19.879702 45.200806 52.261528  0.150319 -0.015789 0.988511  0.429200 0.636600 1 1 1.000000
0  13.686029 45.877529 52.663006  -0.055198 -0.851994 0.520633  0.450900 0.638900 1 1 1.000000
skin_0
0  24.020285 53.986599 51.458656  0.545620 0.007897 0.837995  0.414700 0.667100 1 1 1.000000
0  24.375856 53.757225 51.057220  0.702285 0.047309 0.710322  0.413100 0.666300 1 1 1.000000
0  24.226711 53.975143 50.908119  0.759491 0.648787 0.047423  0.413800 0.667100 1 1 1.000000
skin_0
0  24.226711 53.975143 50.908119  0.759491 0.648787 0.047423  0.413800 0.667100 1 1 1.000000
0  24.375856 53.757225 51.057220  0.702285 0.047309 0.710322  0.413100 0.666300 1 1 1.000000
0  24.777292 53.401653 50.047882  0.873555 0.472180 -0.118100  0.411600 0.662600 1 1 1.000000
skin_0
0  24.375856 53.757225 51.057220  0.702285 0.047309 0.710322  0.413100 0.666300 1 1 1.000000
0  24.891979 53.241096 50.231396  0.702294 0.047308 0.710313  0.410900 0.662300 1 1 1.000000
0  24.777292 53.401653 50.047882  0.873555 0.472180 -0.118100  0.411600 0.662600 1 1 1.000000
skin_0
0  24.777292 53.401653 50.047882  0.873555 0.472180 -0.118100  0.411600 0.662600 1 1 1.000000
0  24.891979 53.241096 50.231396  0.702294 0.047308 0.710313  0.410900 0.662300 1 1 1.000000
0  25.098450 53.275509 49.474388  0.873563 0.472170 -0.118079  0.410200 0.660700 1 1 1.000000
skin_0
0  24.891979 53.241096 50.231396  0.702294 0.047308 0.710313  0.410900 0.662300 1 1 1.000000
0  25.201639 53.114906 49.657906  0.702291 0.047343 0.710314  0.409500 0.660300 1 1 1.000000
0  25.098450 53.275509 49.474388  0.873563 0.472170 -0.118079  0.410200 0.660700 1 1 1.000000
skin_0
0  25.098450 53.275509 49.474388  0.873563 0.472170 -0.118079  0.410200 0.660700 1 1 1.000000
0  25.201639 53.114906 49.657906  0.702291 0.047343 0.710314  0.409500 0.660300 1 1 1.000000
0  25.362238 53.378742 49.015587  0.873569 0.472184 -0.117979  0.409600 0.659800 1 1 1.000000
skin_0
0  25.201639 53.114906 49.657906  0.702291 0.047343 0.710314  0.409500 0.660300 1 1 1.000000
0  25.453972 53.218143 49.187641  0.702440 0.047370 0.710165  0.408900 0.659400 1 1 1.000000
0  25.362238 53.378742 49.015587  0.873569 0.472184 -0.117979  0.409600 0.659800 1 1 1.000000
skin_0
0  25.362238 53.378742 49.015587  0.873569 0.472184 -0.117979  0.409600 0.659800 1 1 1.000000
0  25.453972 53.218143 49.187641  0.702440 0.047370 0.710165  0.408900 0.659400 1 1 1.000000
0  25.419605 53.309917 48.694431  0.944164 0.180889 -0.275379  0.408900 0.658800 1 1 1.000000
skin_0
0  25.453972 53.218143 49.187641  0.702440 0.047370 0.710165  0.408900 0.659400 1 1 1.000000
0  25.499886 53.149323 48.855034  0.702328 0.047257 0.710284  0.408200 0.658400 1 1 1.000000
0  25.419605 53.309917 48.694431  0.944164 0.180889 -0.275379  0.408900 0.658800 1 1 1.000000
skin_0
0  25.499886 53.149323 48.855034  0.702328 0.047257 0.710284  0.408200 0.658400 1 1 1.000000
0  25.453972 53.218143 49.187641  0.702440 0.047370 0.710165  0.408900 0.659400 1 1 1.000000
0  25.660439 44.374977 50.747517  0.583404 0.015711 0.812030  0.408500 0.632900 1 1 1.000000
skin_0
0  25.453972 53.218143 49.187641  0.702440 0.047370 0.710165  0.408900 0.659400 1 1 1.000000
0  25.201639 53.114906 49.657906  0.702291 0.047343 0.710314  0.409500 0.660300 1 1 1.000000
0  25.660439 44.374977 50.747517  0.583404 0.015711 0.812030  0.408500 0.632900 1 1 1.000000
skin_0
0  25.201639 53.114906 49.657906  0.702291 0.047343 0.710314  0.409500 0.660300 1 1 1.000000
0  24.891979 53.241096 50.231396  0.702294 0.047308 0.710313  0.410900 0.662300 1 1 1.000000
0  25.660439 44.374977 50.747517  0.583404 0.015711 0.812030  0.408500 0.632900 1 1 1.000000
skin_0
0  25.660439 44.374977 50.747517  0.583404 0.015711 0.812030  0.408500 0.632900 1 1 1.000000
0  24.891979 53.241096 50.231396  0.702294 0.047308 0.710313  0.410900 0.662300 1 1 1.000000
0  24.375856 53.757225 51.057220  0.702285 0.047309 0.710322  0.413100 0.666300 1 1 1.000000
skin_0
0  25.660439 44.374977 50.747517  0.583404 0.015711 0.812030  0.408500 0.632900 1 1 1.000000
0  24.375856 53.757225 51.057220  0.702285 0.047309 0.710322  0.413100 0.666300 1 1 1.000000
0  24.020285 53.986599 51.458656  0.545620 0.007897 0.837995  0.414700 0.667100 1 1 1.000000
skin_0
0  25.614574 44.248791 50.919575  0.577836 0.039561 0.815194  0.409000 0.632700 1 1 1.000000
0  25.660439 44.374977 50.747517  0.583404 0.015711 0.812030  0.408500 0.632900 1 1 1.000000
0  24.020285 53.986599 51.458656  0.545620 0.007897 0.837995  0.414700 0.667100 1 1 1.000000
skin_0
0  23.584438 53.883369 51.733948  0.363088 -0.031617 0.931218  0.416500 0.666700 1 1 1.000000
0  25.614574 44.248791 50.919575  0.577836 0.039561 0.815194  0.409000 0.632700 1 1 1.000000
0  24.020285 53.986599 51.458656  0.545620 0.007897 0.837995  0.414700 0.667100 1 1 1.000000
skin_0
0  25.453972 44.168510 51.011356  0.301588 -0.039692 0.952612  0.409800 0.632500 1 1 1.000000
0  25.614574 44.248791 50.919575  0.577836 0.039561 0.815194  0.409000 0.632700 1 1 1.000000
0  23.584438 53.883369 51.733948  0.363088 -0.031617 0.931218  0.416500 0.666700 1 1 1.000000
skin_0
0  23.045359 53.608124 51.848633  0.301638 -0.039666 0.952597  0.418700 0.665700 1 1 1.000000
0  25.453972 44.168510 51.011356  0.301588 -0.039692 0.952612  0.409800 0.632500 1 1 1.000000
0  23.584438 53.883369 51.733948  0.363088 -0.031617 0.931218  0.416500 0.666700 1 1 1.000000
skin_0
0  25.557205 44.260288 50.449318  0.932494 -0.234987 -0.274290  0.408500 0.632800 1 1 1.000000
0  25.660439 44.374977 50.747517  0.583404 0.015711 0.812030  0.408500 0.632900 1 1 1.000000
0  25.545752 44.122643 50.655785  0.910104 -0.392319 -0.133404  0.409300 0.632300 1 1 1.000000
skin_0
0  25.660439 44.374977 50.747517  0.583404 0.015711 0.812030  0.408500 0.632900 1 1 1.000000
0  25.614574 44.248791 50.919575  0.577836 0.039561 0.815194  0.409000 0.632700 1 1 1.000000
0  25.545752 44.122643 50.655785  0.910104 -0.392319 -0.133404  0.409300 0.632300 1 1 1.000000
skin_0
0  25.660439 44.374977 50.747517  0.583404 0.015711 0.812030  0.408500 0.632900 1 1 1.000000
0  25.557205 44.260288 50.449318  0.932494 -0.234987 -0.274290  0.418700 0.665700 1 1 1.000000
0  25.499886 53.149323 48.855034  0.702328 0.047257 0.710284  0.419100 0.666200 1 1 1.000000
skin_0
0  25.557205 44.260288 50.449318  0.932494 -0.234987 -0.274290  0.418700 0.665700 1 1 1.000000
0  25.419605 53.309917 48.694431  0.944164 0.180889 -0.275379  0.475800 0.671500 1 1 1.000000
0  25.499886 53.149323 48.855034  0.702328 0.047257 0.710284  0.419100 0.666200 1 1 1.000000
skin_0
0  -25.414276 53.309914 48.694424  0.901153 -0.093988 -0.423190  0.591300 0.658800 1 1 1.000000
0  -25.379864 53.413109 49.015579  -0.871706 0.475430 -0.118725  0.590700 0.659800 1 1 1.000000
0  -25.551920 44.260284 50.449310  0.872473 -0.094299 -0.479477  0.591700 0.632800 1 1 1.000000
skin_0
0  -25.379864 53.413109 49.015579  -0.871706 0.475430 -0.118725  0.590700 0.659800 1 1 1.000000
0  -25.093163 53.275505 49.474380  -0.871710 0.475407 -0.118781  0.590000 0.660700 1 1 1.000000
0  -25.551920 44.260284 50.449310  0.872473 -0.094299 -0.479477  0.591700 0.632800 1 1 1.000000
skin_0
0  -25.093163 53.275505 49.474380  -0.871710 0.475407 -0.118781  0.590000 0.660700 1 1 1.000000
0  -24.772005 53.401649 50.047874  0.885719 -0.094099 -0.454586  0.588700 0.662600 1 1 1.000000
0  -25.551920 44.260284 50.449310  0.872473 -0.094299 -0.479477  0.591700 0.632800 1 1 1.000000
skin_0
0  -24.772005 53.401649 50.047874  0.885719 -0.094099 -0.454586  0.588700 0.662600 1 1 1.000000
0  -24.221424 53.975140 50.908112  0.857880 -0.102292 -0.503566  0.586500 0.667100 1 1 1.000000
0  -25.551920 44.260284 50.449310  0.872473 -0.094299 -0.479477  0.591700 0.632800 1 1 1.000000
skin_0
0  -24.221424 53.975140 50.908112  0.857880 -0.102292 -0.503566  0.586500 0.667100 1 1 1.000000
0  -23.854403 54.135700 51.275139  0.277402 0.847939 -0.451716  0.585000 0.667600 1 1 1.000000
0  -25.551920 44.260284 50.449310  0.872473 -0.094299 -0.479477  0.591700 0.632800 1 1 1.000000
skin_0
0  -23.854403 54.135700 51.275139  0.277402 0.847939 -0.451716  0.585000 0.667600 1 1 1.000000
0  -25.540464 44.122639 50.655777  0.596989 -0.047104 -0.800866  0.591000 0.632300 1 1 1.000000
0  -25.551920 44.260284 50.449310  0.872473 -0.094299 -0.479477  0.591700 0.632800 1 1 1.000000
skin_0
0  -23.854403 54.135700 51.275139  0.277402 0.847939 -0.451716  0.585000 0.667600 1 1 1.000000
0  -23.475924 54.043961 51.538929  0.323312 0.867307 -0.378480  0.583400 0.667200 1 1 1.000000
0  -25.540464 44.122639 50.655777  0.596989 -0.047104 -0.800866  0.591000 0.632300 1 1 1.000000
skin_0
0  -23.475924 54.043961 51.538929  0.323312 0.867307 -0.378480  0.583400 0.667200 1 1 1.000000
0  -22.959755 53.734264 51.642159  0.015599 0.078395 -0.996800  0.581200 0.666200 1 1 1.000000
0  -25.540464 44.122639 50.655777  0.596989 -0.047104 -0.800866  0.591000 0.632300 1 1 1.000000
skin_0
0  -22.959755 53.734264 51.642159  0.015599 0.078395 -0.996800  0.581200 0.666200 1 1 1.000000
0  -25.379864 44.030861 50.781925  0.086235 0.046992 -0.995166  0.590200 0.632000 1 1 1.000000
0  -25.540464 44.122639 50.655777  0.596989 -0.047104 -0.800866  0.591000 0.632300 1 1 1.000000
skin_0
0  -22.959755 53.734264 51.642159  0.015599 0.078395 -0.996800  0.581200 0.666200 1 1 1.000000
0  -22.386309 53.665440 51.458649  -0.023628 0.070702 -0.997218  0.578800 0.665700 1 1 1.000000
0  -25.379864 44.030861 50.781925  0.086235 0.046992 -0.995166  0.590200 0.632000 1 1 1.000000
skin_0
0  -25.379864 44.030861 50.781925  0.086235 0.046992 -0.995166  0.590200 0.632000 1 1 1.000000
0  -22.386309 53.665440 51.458649  -0.023628 0.070702 -0.997218  0.578800 0.665700 1 1 1.000000
0  -19.817049 45.074612 52.043594  0.164632 -0.000890 -0.986355  0.570800 0.636100 1 1 1.000000
skin_0
0  -22.386309 53.665440 51.458649  -0.023628 0.070702 -0.997218  0.578800 0.665700 1 1 1.000000
0  -19.897373 53.883366 52.032139  0.164410 -0.000015 -0.986392  0.570700 0.666500 1 1 1.000000
0  -19.817049 45.074612 52.043594  0.164632 -0.000890 -0.986355  0.570800 0.636100 1 1 1.000000
skin_0
0  -19.817049 45.074612 52.043594  0.164632 -0.000890 -0.986355  0.570800 0.636100 1 1 1.000000
0  -19.897373 53.883366 52.032139  0.164410 -0.000015 -0.986392  0.570700 0.666500 1 1 1.000000
0  -13.462820 45.888981 52.651501  0.062907 -0.000022 -0.998019  0.548600 0.639000 1 1 1.000000
skin_0
0  -19.897373 53.883366 52.032139  0.164410 -0.000015 -0.986392  0.570700 0.666500 1 1 1.000000
0  -13.531644 54.858288 52.766190  0.062900 -0.000022 -0.998020  0.548600 0.669700 1 1 1.000000
0  -13.462820 45.888981 52.651501  0.062907 -0.000022 -0.998019  0.548600 0.639000 1 1 1.000000
skin_0
0  -13.462820 45.888981 52.651501  0.062907 -0.000022 -0.998019  0.548600 0.639000 1 1 1.000000
0  -13.531644 54.858288 52.766190  0.062900 -0.000022 -0.998020  0.548600 0.669700 1 1 1.000000
0  -6.959490 46.141319 52.800602  0.015714 0.007927 -0.999845  0.524900 0.639600 1 1 1.000000
skin_0
0  -13.531644 54.858288 52.766190  0.062900 -0.000022 -0.998020  0.548600 0.669700 1 1 1.000000
0  -6.982447 55.546513 52.926792  0.015692 0.007872 -0.999846  0.524500 0.671900 1 1 1.000000
0  -6.959490 46.141319 52.800602  0.015714 0.007927 -0.999845  0.524900 0.639600 1 1 1.000000
skin_0
0  -6.959490 46.141319 52.800602  0.015714 0.007927 -0.999845  0.524900 0.639600 1 1 1.000000
0  -6.982447 55.546513 52.926792  0.015692 0.007872 -0.999846  0.524500 0.671900 1 1 1.000000
0  0.002642 46.301872 52.892384  0.004623 0.007050 -0.999964  0.500200 0.640600 1 1 1.000000
skin_0
0  -6.982447 55.546513 52.926792  0.015692 0.007872 -0.999846  0.524500 0.671900 1 1 1.000000
0  0.002641 55.821762 53.007069  0.004761 0.007025 -0.999964  0.500200 0.672300 1 1 1.000000
0  0.002642 46.301872 52.892384  0.004623 0.007050 -0.999964  0.500200 0.640600 1 1 1.000000
skin_0
0  -11.857080 46.015125 52.708866  0.023608 0.000043 -0.999721  0.542300 0.639000 1 1 1.000000
0  -13.462820 45.888981 52.651501  0.062907 -0.000022 -0.998019  0.548600 0.639000 1 1 1.000000
0  -6.959490 46.141319 52.800602  0.015714 0.007927 -0.999845  0.524900 0.639600 1 1 1.000000
skin_0
0  -13.680742 45.877480 52.663002  0.101807 0.000178 -0.994804  0.549400 0.638900 1 1 1.000000
0  -19.817049 45.074612 52.043594  0.164632 -0.000890 -0.986355  0.570800 0.636100 1 1 1.000000
0  -13.462820 45.888981 52.651501  0.062907 -0.000022 -0.998019  0.548600 0.639000 1 1 1.000000
skin_0
0  0.002641 55.821762 53.007069  0.039497 0.852557 0.521140  0.500000 0.672300 1 1 1.000000
0  0.002641 55.684116 53.236446  0.039501 0.852632 0.521017  0.500000 0.671800 1 1 1.000000
0  6.987731 55.546513 52.926796  0.070979 0.854869 0.513965  0.475800 0.671900 1 1 1.000000
skin_0
0  0.002641 55.684116 53.236446  0.039501 0.852632 0.521017  0.500000 0.671800 1 1 1.000000
0  6.987731 55.408871 53.156178  0.015779 -0.015812 0.999750  0.475800 0.671500 1 1 1.000000
0  6.987731 55.546513 52.926796  0.070979 0.854869 0.513965  0.475800 0.671900 1 1 1.000000
skin_0
0  6.987731 55.546513 52.926796  0.070979 0.854869 0.513965  0.475800 0.671900 1 1 1.000000
0  6.987731 55.408871 53.156178  0.015779 -0.015812 0.999750  0.475800 0.671500 1 1 1.000000
0  13.536926 54.858337 52.766193  0.142500 0.854991 0.498682  0.451700 0.669700 1 1 1.000000
skin_0
0  6.987731 55.408871 53.156178  0.015779 -0.015812 0.999750  0.475800 0.671500 1 1 1.000000
0  0.002641 55.684116 53.236446  0.000000 -0.016538 0.999863  0.500000 0.671800 1 1 1.000000
0  6.976230 46.278965 53.030029  0.015767 -0.015816 0.999751  0.475300 0.640100 1 1 1.000000
end
