version 1
nodes
0 "blender_implicit" -1
1 "root" -1
2 "steering_wheel" 1
end
skeleton
time 0
0  0 0 0  0 0 0
1  0.000000 0.000000 0.000000  1.570796 -0.000000 0.000000
2  16.702593 33.588814 6.160704  -0.000000 -0.000000 -0.000000
end
triangles
carbonfibre
0  -24.944014 -2.903314 52.135372  -0.185976 -0.249093 0.950455  0.371766 0.539650 1 1 1.000000
0  -26.721857 1.179950 52.846466  -0.189300 -0.201576 0.961006  0.362655 0.525873 1 1 1.000000
0  -26.343332 -2.857403 51.837128  -0.212835 -0.255713 0.943034  0.364535 0.539555 1 1 1.000000
carbonfibre
0  -26.343332 -2.857403 51.837128  -0.212835 -0.255713 0.943034  0.364535 0.539555 1 1 1.000000
0  -26.721857 1.179950 52.846466  -0.189300 -0.201576 0.961006  0.362655 0.525873 1 1 1.000000
0  -27.111790 -2.926225 51.642159  -0.216147 -0.255828 0.942249  0.360630 0.539745 1 1 1.000000
carbonfibre
0  -25.620743 24.991127 53.809937  -0.237602 0.099890 0.966213  0.368295 0.445495 1 1 1.000000
0  -20.574051 25.071405 55.014286  -0.165886 0.087300 0.982273  0.394326 0.445115 1 1 1.000000
0  -20.482319 32.113819 54.245781  -0.173518 0.137301 0.975213  0.394759 0.421362 1 1 1.000000
carbonfibre
0  -25.620743 24.991127 53.809937  -0.237602 0.099890 0.966213  0.368295 0.445495 1 1 1.000000
0  -25.723974 18.074862 54.291695  -0.223390 0.045379 0.973672  0.367716 0.468772 1 1 1.000000
0  -20.574051 25.071405 55.014286  -0.165886 0.087300 0.982273  0.394326 0.445115 1 1 1.000000
carbonfibre
0  -25.723974 18.074862 54.291695  -0.223390 0.045379 0.973672  0.367716 0.468772 1 1 1.000000
0  -20.642876 18.166595 55.427177  -0.158651 0.028488 0.986924  0.393892 0.468487 1 1 1.000000
0  -20.574051 25.071405 55.014286  -0.165886 0.087300 0.982273  0.394326 0.445115 1 1 1.000000
carbonfibre
0  -20.642876 18.166595 55.427177  -0.158651 0.028488 0.986924  0.393892 0.468487 1 1 1.000000
0  -25.723974 18.074862 54.291695  -0.223390 0.045379 0.973672  0.367716 0.468772 1 1 1.000000
0  -25.987764 11.594442 54.245781  -0.208991 -0.022789 0.977652  0.366415 0.490720 1 1 1.000000
carbonfibre
0  -20.746107 11.479753 55.335400  -0.149689 -0.042152 0.987834  0.393313 0.491100 1 1 1.000000
0  -20.642876 18.166595 55.427177  -0.158651 0.028488 0.986924  0.393892 0.468487 1 1 1.000000
0  -25.987764 11.594442 54.245781  -0.208991 -0.022789 0.977652  0.366415 0.490720 1 1 1.000000
carbonfibre
0  -20.746107 11.479753 55.335400  -0.149689 -0.042152 0.987834  0.393313 0.491100 1 1 1.000000
0  -25.987764 11.594442 54.245781  -0.208991 -0.022789 0.977652  0.366415 0.490720 1 1 1.000000
0  -26.308922 6.272507 53.809937  -0.196701 -0.105219 0.974801  0.364824 0.508677 1 1 1.000000
carbonfibre
0  -20.929619 5.916939 54.830730  -0.144084 -0.130889 0.980871  0.392446 0.509912 1 1 1.000000
0  -20.746107 11.479753 55.335400  -0.149689 -0.042152 0.987834  0.393313 0.491100 1 1 1.000000
0  -26.308922 6.272507 53.809937  -0.196701 -0.105219 0.974801  0.364824 0.508677 1 1 1.000000
carbonfibre
0  -20.929619 5.916939 54.830730  -0.144084 -0.130889 0.980871  0.392446 0.509912 1 1 1.000000
0  -26.308922 6.272507 53.809937  -0.196701 -0.105219 0.974801  0.364824 0.508677 1 1 1.000000
0  -26.721857 1.179950 52.846466  -0.189300 -0.201576 0.961006  0.362655 0.525873 1 1 1.000000
carbonfibre
0  -21.170498 0.767015 53.809937  -0.129630 -0.233208 0.963748  0.391144 0.527299 1 1 1.000000
0  -20.929619 5.916939 54.830730  -0.144084 -0.130889 0.980871  0.392446 0.509912 1 1 1.000000
0  -26.721857 1.179950 52.846466  -0.189300 -0.201576 0.961006  0.362655 0.525873 1 1 1.000000
carbonfibre
0  -21.170498 0.767015 53.809937  -0.129630 -0.233208 0.963748  0.391144 0.527299 1 1 1.000000
0  -26.721857 1.179950 52.846466  -0.189300 -0.201576 0.961006  0.362655 0.525873 1 1 1.000000
0  -24.944014 -2.903314 52.135372  -0.185976 -0.249093 0.950455  0.371766 0.539650 1 1 1.000000
carbonfibre
0  -24.944014 -2.903314 52.135372  -0.185976 -0.249093 0.950455  0.371766 0.539650 1 1 1.000000
0  -23.361229 -3.086826 52.376205  -0.121304 -0.284791 0.950883  0.379864 0.540315 1 1 1.000000
0  -21.170498 0.767015 53.809937  -0.129630 -0.233208 0.963748  0.391144 0.527299 1 1 1.000000
carbonfibre
0  -23.361229 -3.086826 52.376205  -0.121304 -0.284791 0.950883  0.379864 0.540315 1 1 1.000000
0  -13.772517 -4.176441 53.179123  -0.110133 -0.287000 0.951579  0.429178 0.543925 1 1 1.000000
0  -21.170498 0.767015 53.809937  -0.129630 -0.233208 0.963748  0.391144 0.527299 1 1 1.000000
carbonfibre
0  -13.772517 -4.176441 53.179123  -0.110133 -0.287000 0.951579  0.429178 0.543925 1 1 1.000000
0  -13.761018 0.285302 54.509624  -0.103390 -0.238201 0.965697  0.429322 0.528914 1 1 1.000000
0  -21.170498 0.767015 53.809937  -0.129630 -0.233208 0.963748  0.391144 0.527299 1 1 1.000000
carbonfibre
0  -13.761018 0.285302 54.509624  -0.103390 -0.238201 0.965697  0.429322 0.528914 1 1 1.000000
0  -13.772517 -4.176441 53.179123  -0.110133 -0.287000 0.951579  0.429178 0.543925 1 1 1.000000
0  -13.566051 -4.187897 53.190582  -0.061646 -0.284987 0.956547  0.430335 0.544020 1 1 1.000000
carbonfibre
0  -13.543095 0.273847 54.521076  -0.042820 -0.249565 0.967411  0.430335 0.528914 1 1 1.000000
0  -13.761018 0.285302 54.509624  -0.103390 -0.238201 0.965697  0.429322 0.528914 1 1 1.000000
0  -13.566051 -4.187897 53.190582  -0.061646 -0.284987 0.956547  0.430335 0.544020 1 1 1.000000
carbonfibre
0  -13.543095 0.273847 54.521076  -0.042820 -0.249565 0.967411  0.430335 0.528914 1 1 1.000000
0  -13.566051 -4.187897 53.190582  -0.061646 -0.284987 0.956547  0.430335 0.544020 1 1 1.000000
0  -11.914398 -4.302586 53.259403  -0.030920 -0.282004 0.958915  0.438722 0.544400 1 1 1.000000
carbonfibre
0  -11.914398 0.193524 54.555489  -0.025188 -0.222044 0.974711  0.438722 0.529199 1 1 1.000000
0  -13.543095 0.273847 54.521076  -0.042820 -0.249565 0.967411  0.430335 0.528914 1 1 1.000000
0  -11.914398 -4.302586 53.259403  -0.030920 -0.282004 0.958915  0.438722 0.544400 1 1 1.000000
carbonfibre
0  -11.914398 0.193524 54.555489  -0.025188 -0.222044 0.974711  0.438722 0.529199 1 1 1.000000
0  -11.914398 -4.302586 53.259403  -0.030920 -0.282004 0.958915  0.438722 0.544400 1 1 1.000000
0  0.002645 -0.288189 54.796371  0.000000 -0.228732 0.973489  0.499894 0.530814 1 1 1.000000
carbonfibre
0  -11.914398 -4.302586 53.259403  -0.030920 -0.282004 0.958915  0.438722 0.544400 1 1 1.000000
0  0.002646 -4.681109 53.477329  -0.000000 -0.287581 0.957756  0.499894 0.545731 1 1 1.000000
0  0.002645 -0.288189 54.796371  0.000000 -0.228732 0.973489  0.499894 0.530814 1 1 1.000000
carbonfibre
0  0.002646 -4.681109 53.477329  -0.000000 -0.287581 0.957756  0.499894 0.545731 1 1 1.000000
0  11.919691 -4.302584 53.259407  0.030917 -0.282003 0.958915  0.561211 0.544400 1 1 1.000000
0  0.002645 -0.288189 54.796371  0.000000 -0.228732 0.973489  0.499894 0.530814 1 1 1.000000
carbonfibre
0  -20.482319 32.113819 54.245781  -0.173518 0.137301 0.975213  0.394759 0.421362 1 1 1.000000
0  -20.574051 25.071405 55.014286  -0.165886 0.087300 0.982273  0.394326 0.445115 1 1 1.000000
0  -13.715154 32.113819 55.071613  -0.117008 0.125210 0.985206  0.429467 0.421362 1 1 1.000000
carbonfibre
0  -20.574051 25.071405 55.014286  -0.165886 0.087300 0.982273  0.394326 0.445115 1 1 1.000000
0  -13.738110 25.082861 55.828617  -0.113002 0.075987 0.990685  0.429467 0.445115 1 1 1.000000
0  -13.715154 32.113819 55.071613  -0.117008 0.125210 0.985206  0.429467 0.421362 1 1 1.000000
carbonfibre
0  -20.574051 25.071405 55.014286  -0.165886 0.087300 0.982273  0.394326 0.445115 1 1 1.000000
0  -20.642876 18.166595 55.427177  -0.158651 0.028488 0.986924  0.393892 0.468487 1 1 1.000000
0  -13.738110 25.082861 55.828617  -0.113002 0.075987 0.990685  0.429467 0.445115 1 1 1.000000
carbonfibre
0  -20.642876 18.166595 55.427177  -0.158651 0.028488 0.986924  0.393892 0.468487 1 1 1.000000
0  -13.726653 18.166597 56.241550  -0.108397 0.010392 0.994053  0.429467 0.468487 1 1 1.000000
0  -13.738110 25.082861 55.828617  -0.113002 0.075987 0.990685  0.429467 0.445115 1 1 1.000000
carbonfibre
0  -13.726653 18.166597 56.241550  -0.108397 0.010392 0.994053  0.429467 0.468487 1 1 1.000000
0  -20.642876 18.166595 55.427177  -0.158651 0.028488 0.986924  0.393892 0.468487 1 1 1.000000
0  -20.746107 11.479753 55.335400  -0.149689 -0.042152 0.987834  0.393313 0.491100 1 1 1.000000
carbonfibre
0  -13.738108 11.261830 56.115364  -0.106062 -0.063287 0.992343  0.429467 0.491765 1 1 1.000000
0  -13.726653 18.166597 56.241550  -0.108397 0.010392 0.994053  0.429467 0.468487 1 1 1.000000
0  -20.746107 11.479753 55.335400  -0.149689 -0.042152 0.987834  0.393313 0.491100 1 1 1.000000
carbonfibre
0  -13.738108 11.261830 56.115364  -0.106062 -0.063287 0.992343  0.429467 0.491765 1 1 1.000000
0  -20.746107 11.479753 55.335400  -0.149689 -0.042152 0.987834  0.393313 0.491100 1 1 1.000000
0  -20.929619 5.916939 54.830730  -0.144084 -0.130889 0.980871  0.392446 0.509912 1 1 1.000000
carbonfibre
0  -13.749563 5.481093 55.564827  -0.105604 -0.158211 0.981742  0.429322 0.511337 1 1 1.000000
0  -13.738108 11.261830 56.115364  -0.106062 -0.063287 0.992343  0.429467 0.491765 1 1 1.000000
0  -20.929619 5.916939 54.830730  -0.144084 -0.130889 0.980871  0.392446 0.509912 1 1 1.000000
carbonfibre
0  -13.749563 5.481093 55.564827  -0.105604 -0.158211 0.981742  0.429322 0.511337 1 1 1.000000
0  -20.929619 5.916939 54.830730  -0.144084 -0.130889 0.980871  0.392446 0.509912 1 1 1.000000
0  -21.170498 0.767015 53.809937  -0.129630 -0.233208 0.963748  0.391144 0.527299 1 1 1.000000
carbonfibre
0  -13.761018 0.285302 54.509624  -0.103390 -0.238201 0.965697  0.429322 0.528914 1 1 1.000000
0  -13.749563 5.481093 55.564827  -0.105604 -0.158211 0.981742  0.429322 0.511337 1 1 1.000000
0  -21.170498 0.767015 53.809937  -0.129630 -0.233208 0.963748  0.391144 0.527299 1 1 1.000000
carbonfibre
0  -13.531639 5.481093 55.564827  0.013400 -0.152187 0.988261  0.430479 0.511337 1 1 1.000000
0  -13.749563 5.481093 55.564827  -0.105604 -0.158211 0.981742  0.429322 0.511337 1 1 1.000000
0  -13.761018 0.285302 54.509624  -0.103390 -0.238201 0.965697  0.429322 0.528914 1 1 1.000000
carbonfibre
0  -13.543095 0.273847 54.521076  -0.042820 -0.249565 0.967411  0.430335 0.528914 1 1 1.000000
0  -13.531639 5.481093 55.564827  0.013400 -0.152187 0.988261  0.430479 0.511337 1 1 1.000000
0  -13.761018 0.285302 54.509624  -0.103390 -0.238201 0.965697  0.429322 0.528914 1 1 1.000000
carbonfibre
0  -13.543095 0.273847 54.521076  -0.042820 -0.249565 0.967411  0.430335 0.528914 1 1 1.000000
0  -11.914398 0.193524 54.555489  -0.025188 -0.222044 0.974711  0.438722 0.529199 1 1 1.000000
0  -13.531639 5.481093 55.564827  0.013400 -0.152187 0.988261  0.430479 0.511337 1 1 1.000000
carbonfibre
0  -11.914398 0.193524 54.555489  -0.025188 -0.222044 0.974711  0.438722 0.529199 1 1 1.000000
0  -11.902944 5.435226 55.496002  -0.018912 -0.142312 0.989641  0.438867 0.511527 1 1 1.000000
0  -13.531639 5.481093 55.564827  0.013400 -0.152187 0.988261  0.430479 0.511337 1 1 1.000000
carbonfibre
0  -13.531639 5.481093 55.564827  0.013400 -0.152187 0.988261  0.430479 0.511337 1 1 1.000000
0  -11.902944 5.435226 55.496002  -0.018912 -0.142312 0.989641  0.438867 0.511527 1 1 1.000000
0  -13.531641 11.261830 56.103905  0.067921 -0.058686 0.995963  0.430479 0.491860 1 1 1.000000
carbonfibre
0  -11.902944 5.435226 55.496002  -0.018912 -0.142312 0.989641  0.438867 0.511527 1 1 1.000000
0  -11.891489 11.250377 55.966263  -0.016293 -0.043406 0.998925  0.438867 0.491860 1 1 1.000000
0  -13.531641 11.261830 56.103905  0.067921 -0.058686 0.995963  0.430479 0.491860 1 1 1.000000
carbonfibre
0  -13.531641 11.261830 56.103905  0.067921 -0.058686 0.995963  0.430479 0.491860 1 1 1.000000
0  -11.891489 11.250377 55.966263  -0.016293 -0.043406 0.998925  0.438867 0.491860 1 1 1.000000
0  -13.520185 18.166597 56.230053  0.080396 0.018700 0.996588  0.430479 0.468487 1 1 1.000000
carbonfibre
0  -13.520185 18.166597 56.230053  0.080396 0.018700 0.996588  0.430479 0.468487 1 1 1.000000
0  -13.726653 18.166597 56.241550  -0.108397 0.010392 0.994053  0.429467 0.468487 1 1 1.000000
0  -13.531641 11.261830 56.103905  0.067921 -0.058686 0.995963  0.430479 0.491860 1 1 1.000000
carbonfibre
0  -13.726653 18.166597 56.241550  -0.108397 0.010392 0.994053  0.429467 0.468487 1 1 1.000000
0  -13.520185 18.166597 56.230053  0.080396 0.018700 0.996588  0.430479 0.468487 1 1 1.000000
0  -13.520187 25.082861 55.817158  0.035116 0.085201 0.995745  0.430479 0.445115 1 1 1.000000
carbonfibre
0  -13.738110 25.082861 55.828617  -0.113002 0.075987 0.990685  0.429467 0.445115 1 1 1.000000
0  -13.726653 18.166597 56.241550  -0.108397 0.010392 0.994053  0.429467 0.468487 1 1 1.000000
0  -13.520187 25.082861 55.817158  0.035116 0.085201 0.995745  0.430479 0.445115 1 1 1.000000
carbonfibre
0  -13.738110 25.082861 55.828617  -0.113002 0.075987 0.990685  0.429467 0.445115 1 1 1.000000
0  -13.520187 25.082861 55.817158  0.035116 0.085201 0.995745  0.430479 0.445115 1 1 1.000000
0  -13.508686 32.113819 55.071613  0.000024 0.131379 0.991332  0.430624 0.421362 1 1 1.000000
carbonfibre
0  -13.715154 32.113819 55.071613  -0.117008 0.125210 0.985206  0.429467 0.421362 1 1 1.000000
0  -13.738110 25.082861 55.828617  -0.113002 0.075987 0.990685  0.429467 0.445115 1 1 1.000000
0  -13.508686 32.113819 55.071613  0.000024 0.131379 0.991332  0.430624 0.421362 1 1 1.000000
carbonfibre
0  -13.703699 39.752678 53.855854  -0.120385 0.168009 0.978407  0.429612 0.395614 1 1 1.000000
0  -13.715154 32.113819 55.071613  -0.117008 0.125210 0.985206  0.429467 0.421362 1 1 1.000000
0  -13.508686 32.113819 55.071613  0.000024 0.131379 0.991332  0.430624 0.421362 1 1 1.000000
carbonfibre
0  -13.715154 32.113819 55.071613  -0.117008 0.125210 0.985206  0.429467 0.421362 1 1 1.000000
0  -13.703699 39.752678 53.855854  -0.120385 0.168009 0.978407  0.429612 0.395614 1 1 1.000000
0  -20.482319 32.113819 54.245781  -0.173518 0.137301 0.975213  0.394759 0.421362 1 1 1.000000
carbonfibre
0  -13.703699 39.752678 53.855854  -0.120385 0.168009 0.978407  0.429612 0.395614 1 1 1.000000
0  -20.310263 39.385654 53.075890  -0.190071 0.177064 0.965671  0.395627 0.396849 1 1 1.000000
0  -20.482319 32.113819 54.245781  -0.173518 0.137301 0.975213  0.394759 0.421362 1 1 1.000000
carbonfibre
0  -13.726653 18.166597 56.241550  -0.108397 0.010392 0.994053  0.429467 0.468487 1 1 1.000000
0  -13.738108 11.261830 56.115364  -0.106062 -0.063287 0.992343  0.429467 0.491765 1 1 1.000000
0  -13.531641 11.261830 56.103905  0.067921 -0.058686 0.995963  0.430479 0.491860 1 1 1.000000
carbonfibre
0  -13.531641 11.261830 56.103905  0.067921 -0.058686 0.995963  0.430479 0.491860 1 1 1.000000
0  -13.738108 11.261830 56.115364  -0.106062 -0.063287 0.992343  0.429467 0.491765 1 1 1.000000
0  -13.531639 5.481093 55.564827  0.013400 -0.152187 0.988261  0.430479 0.511337 1 1 1.000000
carbonfibre
0  -13.738108 11.261830 56.115364  -0.106062 -0.063287 0.992343  0.429467 0.491765 1 1 1.000000
0  -13.749563 5.481093 55.564827  -0.105604 -0.158211 0.981742  0.429322 0.511337 1 1 1.000000
0  -13.531639 5.481093 55.564827  0.013400 -0.152187 0.988261  0.430479 0.511337 1 1 1.000000
carbonfibre
0  0.002644 11.009497 56.287418  -0.000001 -0.043372 0.999059  0.499894 0.492715 1 1 1.000000
0  11.896778 11.250378 55.966267  0.016282 -0.043401 0.998925  0.561067 0.491860 1 1 1.000000
0  0.002644 18.166597 56.367695  -0.000000 0.018936 0.999821  0.499894 0.468487 1 1 1.000000
carbonfibre
0  -11.891489 11.250377 55.966263  -0.016293 -0.043406 0.998925  0.438867 0.491860 1 1 1.000000
0  0.002644 11.009497 56.287418  -0.000001 -0.043372 0.999059  0.499894 0.492715 1 1 1.000000
0  0.002644 18.166597 56.367695  -0.000000 0.018936 0.999821  0.499894 0.468487 1 1 1.000000
carbonfibre
0  -11.879989 18.166597 56.069496  -0.010188 0.016521 0.999812  0.438867 0.468487 1 1 1.000000
0  -11.891489 11.250377 55.966263  -0.016293 -0.043406 0.998925  0.438867 0.491860 1 1 1.000000
0  0.002644 18.166597 56.367695  -0.000000 0.018936 0.999821  0.499894 0.468487 1 1 1.000000
carbonfibre
0  -11.891489 11.250377 55.966263  -0.016293 -0.043406 0.998925  0.438867 0.491860 1 1 1.000000
0  -11.879989 18.166597 56.069496  -0.010188 0.016521 0.999812  0.438867 0.468487 1 1 1.000000
0  -13.520185 18.166597 56.230053  0.080396 0.018700 0.996588  0.430479 0.468487 1 1 1.000000
carbonfibre
0  -11.879989 18.166597 56.069496  -0.010188 0.016521 0.999812  0.438867 0.468487 1 1 1.000000
0  -11.879990 25.071407 55.736885  -0.012880 0.065103 0.997795  0.439012 0.445115 1 1 1.000000
0  -13.520185 18.166597 56.230053  0.080396 0.018700 0.996588  0.430479 0.468487 1 1 1.000000
carbonfibre
0  -11.879990 25.071407 55.736885  -0.012880 0.065103 0.997795  0.439012 0.445115 1 1 1.000000
0  -13.520187 25.082861 55.817158  0.035116 0.085201 0.995745  0.430479 0.445115 1 1 1.000000
0  -13.520185 18.166597 56.230053  0.080396 0.018700 0.996588  0.430479 0.468487 1 1 1.000000
carbonfibre
0  -11.879990 25.071407 55.736885  -0.012880 0.065103 0.997795  0.439012 0.445115 1 1 1.000000
0  -11.868534 32.113819 55.071613  -0.019432 0.114761 0.993203  0.439012 0.421362 1 1 1.000000
0  -13.520187 25.082861 55.817158  0.035116 0.085201 0.995745  0.430479 0.445115 1 1 1.000000
carbonfibre
0  -11.868534 32.113819 55.071613  -0.019432 0.114761 0.993203  0.439012 0.421362 1 1 1.000000
0  -13.508686 32.113819 55.071613  0.000024 0.131379 0.991332  0.430624 0.421362 1 1 1.000000
0  -13.520187 25.082861 55.817158  0.035116 0.085201 0.995745  0.430479 0.445115 1 1 1.000000
carbonfibre
0  -13.508686 32.113819 55.071613  0.000024 0.131379 0.991332  0.430624 0.421362 1 1 1.000000
0  -11.868534 32.113819 55.071613  -0.019432 0.114761 0.993203  0.439012 0.421362 1 1 1.000000
0  -13.497231 39.752678 53.867306  -0.034383 0.170995 0.984672  0.430624 0.395519 1 1 1.000000
carbonfibre
0  -13.497231 39.752678 53.867306  -0.034383 0.170995 0.984672  0.430624 0.395519 1 1 1.000000
0  -13.703699 39.752678 53.855854  -0.120385 0.168009 0.978407  0.429612 0.395614 1 1 1.000000
0  -13.508686 32.113819 55.071613  0.000024 0.131379 0.991332  0.430624 0.421362 1 1 1.000000
carbonfibre
0  -13.703699 39.752678 53.855854  -0.120385 0.168009 0.978407  0.429612 0.395614 1 1 1.000000
0  -13.497231 39.752678 53.867306  -0.034383 0.170995 0.984672  0.430624 0.395519 1 1 1.000000
0  -13.692244 45.866028 52.651501  -0.120812 0.190194 0.974285  0.429612 0.374902 1 1 1.000000
carbonfibre
0  -13.703699 39.752678 53.855854  -0.120385 0.168009 0.978407  0.429612 0.395614 1 1 1.000000
0  -13.692244 45.866028 52.651501  -0.120812 0.190194 0.974285  0.429612 0.374902 1 1 1.000000
0  -20.310263 39.385654 53.075890  -0.190071 0.177064 0.965671  0.395627 0.396849 1 1 1.000000
carbonfibre
0  -13.692244 45.866028 52.651501  -0.120812 0.190194 0.974285  0.429612 0.374902 1 1 1.000000
0  -19.817049 45.063156 52.043594  -0.185247 0.191303 0.963891  0.398086 0.377657 1 1 1.000000
0  -20.310263 39.385654 53.075890  -0.190071 0.177064 0.965671  0.395627 0.396849 1 1 1.000000
carbonfibre
0  -20.310263 39.385654 53.075890  -0.190071 0.177064 0.965671  0.395627 0.396849 1 1 1.000000
0  -19.817049 45.063156 52.043594  -0.185247 0.191303 0.963891  0.398086 0.377657 1 1 1.000000
0  -25.368408 44.042362 50.770466  -0.254473 0.192761 0.947674  0.369596 0.381078 1 1 1.000000
carbonfibre
0  -20.310263 39.385654 53.075890  -0.190071 0.177064 0.965671  0.395627 0.396849 1 1 1.000000
0  -25.368408 44.042362 50.770466  -0.254473 0.192761 0.947674  0.369596 0.381078 1 1 1.000000
0  -25.460186 38.743340 51.814217  -0.254976 0.177152 0.950581  0.369163 0.399035 1 1 1.000000
carbonfibre
0  -20.310263 39.385654 53.075890  -0.190071 0.177064 0.965671  0.395627 0.396849 1 1 1.000000
0  -25.460186 38.743340 51.814217  -0.254976 0.177152 0.950581  0.369163 0.399035 1 1 1.000000
0  -25.529009 31.999125 52.961201  -0.249493 0.148063 0.956990  0.368729 0.421742 1 1 1.000000
carbonfibre
0  -20.482319 32.113819 54.245781  -0.173518 0.137301 0.975213  0.394759 0.421362 1 1 1.000000
0  -20.310263 39.385654 53.075890  -0.190071 0.177064 0.965671  0.395627 0.396849 1 1 1.000000
0  -25.529009 31.999125 52.961201  -0.249493 0.148063 0.956990  0.368729 0.421742 1 1 1.000000
carbonfibre
0  -25.529009 31.999125 52.961201  -0.249493 0.148063 0.956990  0.368729 0.421742 1 1 1.000000
0  -25.620743 24.991127 53.809937  -0.237602 0.099890 0.966213  0.368295 0.445495 1 1 1.000000
0  -20.482319 32.113819 54.245781  -0.173518 0.137301 0.975213  0.394759 0.421362 1 1 1.000000
carbonfibre
0  -11.845578 46.015125 52.708866  -0.024523 0.193692 0.980756  0.439156 0.374427 1 1 1.000000
0  -13.485775 45.888981 52.651501  -0.046121 0.194195 0.979878  0.430769 0.374807 1 1 1.000000
0  -13.497231 39.752678 53.867306  -0.034383 0.170995 0.984672  0.430624 0.395519 1 1 1.000000
carbonfibre
0  -13.497231 39.752678 53.867306  -0.034383 0.170995 0.984672  0.430624 0.395519 1 1 1.000000
0  -13.485775 45.888981 52.651501  -0.046121 0.194195 0.979878  0.430769 0.374807 1 1 1.000000
0  -13.692244 45.866028 52.651501  -0.120812 0.190194 0.974285  0.429612 0.374902 1 1 1.000000
carbonfibre
0  0.002643 32.113819 55.346901  -0.000000 0.130843 0.991403  0.499894 0.421362 1 1 1.000000
0  0.002642 39.890320 54.176960  -0.000005 0.176809 0.984245  0.499894 0.395139 1 1 1.000000
0  -11.857080 39.787086 53.936131  -0.023903 0.161405 0.986599  0.439012 0.395424 1 1 1.000000
carbonfibre
0  -11.868534 32.113819 55.071613  -0.019432 0.114761 0.993203  0.439012 0.421362 1 1 1.000000
0  0.002643 32.113819 55.346901  -0.000000 0.130843 0.991403  0.499894 0.421362 1 1 1.000000
0  -11.857080 39.787086 53.936131  -0.023903 0.161405 0.986599  0.439012 0.395424 1 1 1.000000
carbonfibre
0  0.002643 25.071407 56.012127  0.000000 0.080214 0.996778  0.499894 0.445115 1 1 1.000000
0  0.002643 32.113819 55.346901  -0.000000 0.130843 0.991403  0.499894 0.421362 1 1 1.000000
0  -11.868534 32.113819 55.071613  -0.019432 0.114761 0.993203  0.439012 0.421362 1 1 1.000000
carbonfibre
0  -11.879990 25.071407 55.736885  -0.012880 0.065103 0.997795  0.439012 0.445115 1 1 1.000000
0  0.002643 25.071407 56.012127  0.000000 0.080214 0.996778  0.499894 0.445115 1 1 1.000000
0  -11.868534 32.113819 55.071613  -0.019432 0.114761 0.993203  0.439012 0.421362 1 1 1.000000
carbonfibre
0  0.002644 18.166597 56.367695  -0.000000 0.018936 0.999821  0.499894 0.468487 1 1 1.000000
0  0.002643 25.071407 56.012127  0.000000 0.080214 0.996778  0.499894 0.445115 1 1 1.000000
0  -11.879990 25.071407 55.736885  -0.012880 0.065103 0.997795  0.439012 0.445115 1 1 1.000000
carbonfibre
0  -11.879989 18.166597 56.069496  -0.010188 0.016521 0.999812  0.438867 0.468487 1 1 1.000000
0  0.002644 18.166597 56.367695  -0.000000 0.018936 0.999821  0.499894 0.468487 1 1 1.000000
0  -11.879990 25.071407 55.736885  -0.012880 0.065103 0.997795  0.439012 0.445115 1 1 1.000000
carbonfibre
0  -11.868534 32.113819 55.071613  -0.019432 0.114761 0.993203  0.439012 0.421362 1 1 1.000000
0  -11.857080 39.787086 53.936131  -0.023903 0.161405 0.986599  0.439012 0.395424 1 1 1.000000
0  -13.497231 39.752678 53.867306  -0.034383 0.170995 0.984672  0.430624 0.395519 1 1 1.000000
carbonfibre
0  -11.857080 39.787086 53.936131  -0.023903 0.161405 0.986599  0.439012 0.395424 1 1 1.000000
0  -11.845578 46.015125 52.708866  -0.024523 0.193692 0.980756  0.439156 0.374427 1 1 1.000000
0  -13.497231 39.752678 53.867306  -0.034383 0.170995 0.984672  0.430624 0.395519 1 1 1.000000
carbonfibre
0  -11.857080 39.787086 53.936131  -0.023903 0.161405 0.986599  0.439012 0.395424 1 1 1.000000
0  0.002642 39.890320 54.176960  -0.000005 0.176809 0.984245  0.499894 0.395139 1 1 1.000000
0  -11.845578 46.015125 52.708866  -0.024523 0.193692 0.980756  0.439156 0.374427 1 1 1.000000
carbonfibre
0  0.002642 39.890320 54.176960  -0.000005 0.176809 0.984245  0.499894 0.395139 1 1 1.000000
0  0.002642 46.324829 52.903835  -0.000000 0.194096 0.980983  0.499894 0.373382 1 1 1.000000
0  -11.845578 46.015125 52.708866  -0.024523 0.193692 0.980756  0.439156 0.374427 1 1 1.000000
carbonfibre
0  0.002642 46.324829 52.903835  -0.000000 0.194096 0.980983  0.499894 0.373382 1 1 1.000000
0  0.002642 39.890320 54.176960  -0.000005 0.176809 0.984245  0.499894 0.395139 1 1 1.000000
0  11.850864 46.015125 52.708870  0.024522 0.193692 0.980756  0.560777 0.374427 1 1 1.000000
carbonfibre
0  0.002642 39.890320 54.176960  -0.000005 0.176809 0.984245  0.499894 0.395139 1 1 1.000000
0  11.862366 39.787086 53.936134  0.023902 0.161406 0.986599  0.560922 0.395424 1 1 1.000000
0  11.850864 46.015125 52.708870  0.024522 0.193692 0.980756  0.560777 0.374427 1 1 1.000000
carbonfibre
0  0.002642 39.890320 54.176960  -0.000005 0.176809 0.984245  0.499894 0.395139 1 1 1.000000
0  0.002643 32.113819 55.346901  -0.000000 0.130843 0.991403  0.499894 0.421362 1 1 1.000000
0  11.862366 39.787086 53.936134  0.023902 0.161406 0.986599  0.560922 0.395424 1 1 1.000000
carbonfibre
0  0.002643 32.113819 55.346901  -0.000000 0.130843 0.991403  0.499894 0.421362 1 1 1.000000
0  11.873821 32.113819 55.071617  0.019432 0.114761 0.993203  0.560922 0.421362 1 1 1.000000
0  11.862366 39.787086 53.936134  0.023902 0.161406 0.986599  0.560922 0.395424 1 1 1.000000
carbonfibre
0  0.002643 32.113819 55.346901  -0.000000 0.130843 0.991403  0.499894 0.421362 1 1 1.000000
0  0.002643 25.071407 56.012127  0.000000 0.080214 0.996778  0.499894 0.445115 1 1 1.000000
0  11.873821 32.113819 55.071617  0.019432 0.114761 0.993203  0.560922 0.421362 1 1 1.000000
carbonfibre
0  0.002643 25.071407 56.012127  0.000000 0.080214 0.996778  0.499894 0.445115 1 1 1.000000
0  11.885275 25.071409 55.736889  0.013008 0.065098 0.997794  0.560922 0.445115 1 1 1.000000
0  11.873821 32.113819 55.071617  0.019432 0.114761 0.993203  0.560922 0.421362 1 1 1.000000
carbonfibre
0  0.002643 25.071407 56.012127  0.000000 0.080214 0.996778  0.499894 0.445115 1 1 1.000000
0  0.002644 18.166597 56.367695  -0.000000 0.018936 0.999821  0.499894 0.468487 1 1 1.000000
0  11.885275 25.071409 55.736889  0.013008 0.065098 0.997794  0.560922 0.445115 1 1 1.000000
carbonfibre
0  0.002644 18.166597 56.367695  -0.000000 0.018936 0.999821  0.499894 0.468487 1 1 1.000000
0  11.885275 18.166599 56.069500  0.010173 0.016636 0.999810  0.561067 0.468487 1 1 1.000000
0  11.885275 25.071409 55.736889  0.013008 0.065098 0.997794  0.560922 0.445115 1 1 1.000000
carbonfibre
0  11.896778 11.250378 55.966267  0.016282 -0.043401 0.998925  0.561067 0.491860 1 1 1.000000
0  11.885275 18.166599 56.069500  0.010173 0.016636 0.999810  0.561067 0.468487 1 1 1.000000
0  0.002644 18.166597 56.367695  -0.000000 0.018936 0.999821  0.499894 0.468487 1 1 1.000000
carbonfibre
0  11.885275 18.166599 56.069500  0.010173 0.016636 0.999810  0.561067 0.468487 1 1 1.000000
0  11.896778 11.250378 55.966267  0.016282 -0.043401 0.998925  0.561067 0.491860 1 1 1.000000
0  13.514017 18.166599 56.230057  -0.080410 0.018862 0.996583  0.569310 0.468487 1 1 1.000000
carbonfibre
0  11.896778 11.250378 55.966267  0.016282 -0.043401 0.998925  0.561067 0.491860 1 1 1.000000
0  13.525475 11.261833 56.103909  -0.067798 -0.058658 0.995973  0.569454 0.491860 1 1 1.000000
0  13.514017 18.166599 56.230057  -0.080410 0.018862 0.996583  0.569310 0.468487 1 1 1.000000
carbonfibre
0  13.731941 18.166599 56.241554  0.108310 0.010402 0.994063  0.570467 0.468487 1 1 1.000000
0  13.514017 18.166599 56.230057  -0.080410 0.018862 0.996583  0.569310 0.468487 1 1 1.000000
0  13.525475 11.261833 56.103909  -0.067798 -0.058658 0.995973  0.569454 0.491860 1 1 1.000000
carbonfibre
0  13.743399 11.261833 56.115368  0.105975 -0.063292 0.992353  0.570467 0.491765 1 1 1.000000
0  13.731941 18.166599 56.241554  0.108310 0.010402 0.994063  0.570467 0.468487 1 1 1.000000
0  13.525475 11.261833 56.103909  -0.067798 -0.058658 0.995973  0.569454 0.491860 1 1 1.000000
carbonfibre
0  13.731941 18.166599 56.241554  0.108310 0.010402 0.994063  0.570467 0.468487 1 1 1.000000
0  13.743399 11.261833 56.115368  0.105975 -0.063292 0.992353  0.570467 0.491765 1 1 1.000000
0  20.751396 11.479756 55.335407  0.149701 -0.041999 0.987839  0.606620 0.491100 1 1 1.000000
carbonfibre
0  13.754854 5.481095 55.564831  0.105501 -0.158304 0.981738  0.570611 0.511337 1 1 1.000000
0  13.743399 11.261833 56.115368  0.105975 -0.063292 0.992353  0.570467 0.491765 1 1 1.000000
0  13.536930 5.481095 55.564831  -0.013385 -0.152057 0.988281  0.569454 0.511337 1 1 1.000000
carbonfibre
0  13.743399 11.261833 56.115368  0.105975 -0.063292 0.992353  0.570467 0.491765 1 1 1.000000
0  13.525475 11.261833 56.103909  -0.067798 -0.058658 0.995973  0.569454 0.491860 1 1 1.000000
0  13.536930 5.481095 55.564831  -0.013385 -0.152057 0.988281  0.569454 0.511337 1 1 1.000000
carbonfibre
0  20.751396 11.479756 55.335407  0.149701 -0.041999 0.987839  0.606620 0.491100 1 1 1.000000
0  13.743399 11.261833 56.115368  0.105975 -0.063292 0.992353  0.570467 0.491765 1 1 1.000000
0  20.934910 5.916942 54.830738  0.144321 -0.130963 0.980826  0.607488 0.509912 1 1 1.000000
carbonfibre
0  13.743399 11.261833 56.115368  0.105975 -0.063292 0.992353  0.570467 0.491765 1 1 1.000000
0  13.754854 5.481095 55.564831  0.105501 -0.158304 0.981738  0.570611 0.511337 1 1 1.000000
0  20.934910 5.916942 54.830738  0.144321 -0.130963 0.980826  0.607488 0.509912 1 1 1.000000
carbonfibre
0  20.934910 5.916942 54.830738  0.144321 -0.130963 0.980826  0.607488 0.509912 1 1 1.000000
0  13.754854 5.481095 55.564831  0.105501 -0.158304 0.981738  0.570611 0.511337 1 1 1.000000
0  21.175789 0.767018 53.809944  0.129645 -0.233181 0.963753  0.608790 0.527299 1 1 1.000000
carbonfibre
0  13.754854 5.481095 55.564831  0.105501 -0.158304 0.981738  0.570611 0.511337 1 1 1.000000
0  13.754854 0.285304 54.509628  0.103374 -0.238203 0.965698  0.570611 0.528914 1 1 1.000000
0  21.175789 0.767018 53.809944  0.129645 -0.233181 0.963753  0.608790 0.527299 1 1 1.000000
carbonfibre
0  13.754854 5.481095 55.564831  0.105501 -0.158304 0.981738  0.570611 0.511337 1 1 1.000000
0  13.536930 5.481095 55.564831  -0.013385 -0.152057 0.988281  0.569454 0.511337 1 1 1.000000
0  13.754854 0.285304 54.509628  0.103374 -0.238203 0.965698  0.570611 0.528914 1 1 1.000000
carbonfibre
0  13.536930 5.481095 55.564831  -0.013385 -0.152057 0.988281  0.569454 0.511337 1 1 1.000000
0  13.548429 0.273849 54.521080  0.043009 -0.249587 0.967397  0.569599 0.528914 1 1 1.000000
0  13.754854 0.285304 54.509628  0.103374 -0.238203 0.965698  0.570611 0.528914 1 1 1.000000
carbonfibre
0  11.919689 0.193525 54.555492  0.025174 -0.221998 0.974722  0.561211 0.529199 1 1 1.000000
0  13.548429 0.273849 54.521080  0.043009 -0.249587 0.967397  0.569599 0.528914 1 1 1.000000
0  13.536930 5.481095 55.564831  -0.013385 -0.152057 0.988281  0.569454 0.511337 1 1 1.000000
carbonfibre
0  11.908234 5.435228 55.496006  0.018908 -0.142310 0.989642  0.561067 0.511527 1 1 1.000000
0  11.919689 0.193525 54.555492  0.025174 -0.221998 0.974722  0.561211 0.529199 1 1 1.000000
0  13.536930 5.481095 55.564831  -0.013385 -0.152057 0.988281  0.569454 0.511337 1 1 1.000000
carbonfibre
0  11.908234 5.435228 55.496006  0.018908 -0.142310 0.989642  0.561067 0.511527 1 1 1.000000
0  13.536930 5.481095 55.564831  -0.013385 -0.152057 0.988281  0.569454 0.511337 1 1 1.000000
0  13.525475 11.261833 56.103909  -0.067798 -0.058658 0.995973  0.569454 0.491860 1 1 1.000000
carbonfibre
0  11.896778 11.250378 55.966267  0.016282 -0.043401 0.998925  0.561067 0.491860 1 1 1.000000
0  11.908234 5.435228 55.496006  0.018908 -0.142310 0.989642  0.561067 0.511527 1 1 1.000000
0  13.525475 11.261833 56.103909  -0.067798 -0.058658 0.995973  0.569454 0.491860 1 1 1.000000
carbonfibre
0  20.648163 18.166645 55.427185  0.158483 0.028502 0.986950  0.606042 0.468487 1 1 1.000000
0  20.751396 11.479756 55.335407  0.149701 -0.041999 0.987839  0.606620 0.491100 1 1 1.000000
0  25.981600 11.594447 54.245789  0.209293 -0.022926 0.977584  0.633519 0.490720 1 1 1.000000
carbonfibre
0  25.981600 11.594447 54.245789  0.209293 -0.022926 0.977584  0.633519 0.490720 1 1 1.000000
0  20.751396 11.479756 55.335407  0.149701 -0.041999 0.987839  0.606620 0.491100 1 1 1.000000
0  26.302761 6.272511 53.809944  0.197106 -0.105097 0.974733  0.635109 0.508676 1 1 1.000000
carbonfibre
0  20.751396 11.479756 55.335407  0.149701 -0.041999 0.987839  0.606620 0.491100 1 1 1.000000
0  20.934910 5.916942 54.830738  0.144321 -0.130963 0.980826  0.607488 0.509912 1 1 1.000000
0  26.302761 6.272511 53.809944  0.197106 -0.105097 0.974733  0.635109 0.508676 1 1 1.000000
carbonfibre
0  26.302761 6.272511 53.809944  0.197106 -0.105097 0.974733  0.635109 0.508676 1 1 1.000000
0  20.934910 5.916942 54.830738  0.144321 -0.130963 0.980826  0.607488 0.509912 1 1 1.000000
0  26.727150 1.179954 52.846474  0.189404 -0.201393 0.961024  0.637279 0.525873 1 1 1.000000
carbonfibre
0  20.934910 5.916942 54.830738  0.144321 -0.130963 0.980826  0.607488 0.509912 1 1 1.000000
0  21.175789 0.767018 53.809944  0.129645 -0.233181 0.963753  0.608790 0.527299 1 1 1.000000
0  26.727150 1.179954 52.846474  0.189404 -0.201393 0.961024  0.637279 0.525873 1 1 1.000000
carbonfibre
0  26.727150 1.179954 52.846474  0.189404 -0.201393 0.961024  0.637279 0.525873 1 1 1.000000
0  21.175789 0.767018 53.809944  0.129645 -0.233181 0.963753  0.608790 0.527299 1 1 1.000000
0  24.949352 -2.903265 52.135380  0.186296 -0.249280 0.950344  0.628168 0.539650 1 1 1.000000
carbonfibre
0  23.366524 -3.086822 52.376213  0.121308 -0.284790 0.950883  0.620069 0.540315 1 1 1.000000
0  24.949352 -2.903265 52.135380  0.186296 -0.249280 0.950344  0.628168 0.539650 1 1 1.000000
0  21.175789 0.767018 53.809944  0.129645 -0.233181 0.963753  0.608790 0.527299 1 1 1.000000
carbonfibre
0  13.777811 -4.176439 53.179127  0.109954 -0.286904 0.951628  0.570756 0.543925 1 1 1.000000
0  23.366524 -3.086822 52.376213  0.121308 -0.284790 0.950883  0.620069 0.540315 1 1 1.000000
0  21.175789 0.767018 53.809944  0.129645 -0.233181 0.963753  0.608790 0.527299 1 1 1.000000
carbonfibre
0  13.754854 0.285304 54.509628  0.103374 -0.238203 0.965698  0.570611 0.528914 1 1 1.000000
0  13.777811 -4.176439 53.179127  0.109954 -0.286904 0.951628  0.570756 0.543925 1 1 1.000000
0  21.175789 0.767018 53.809944  0.129645 -0.233181 0.963753  0.608790 0.527299 1 1 1.000000
carbonfibre
0  13.777811 -4.176439 53.179127  0.109954 -0.286904 0.951628  0.570756 0.543925 1 1 1.000000
0  13.754854 0.285304 54.509628  0.103374 -0.238203 0.965698  0.570611 0.528914 1 1 1.000000
0  13.571344 -4.187895 53.190586  0.061697 -0.284894 0.956571  0.569599 0.544020 1 1 1.000000
carbonfibre
0  13.754854 0.285304 54.509628  0.103374 -0.238203 0.965698  0.570611 0.528914 1 1 1.000000
0  13.548429 0.273849 54.521080  0.043009 -0.249587 0.967397  0.569599 0.528914 1 1 1.000000
0  13.571344 -4.187895 53.190586  0.061697 -0.284894 0.956571  0.569599 0.544020 1 1 1.000000
carbonfibre
0  13.571344 -4.187895 53.190586  0.061697 -0.284894 0.956571  0.569599 0.544020 1 1 1.000000
0  13.548429 0.273849 54.521080  0.043009 -0.249587 0.967397  0.569599 0.528914 1 1 1.000000
0  11.919691 -4.302584 53.259407  0.030917 -0.282003 0.958915  0.561211 0.544400 1 1 1.000000
carbonfibre
0  13.548429 0.273849 54.521080  0.043009 -0.249587 0.967397  0.569599 0.528914 1 1 1.000000
0  11.919689 0.193525 54.555492  0.025174 -0.221998 0.974722  0.561211 0.529199 1 1 1.000000
0  11.919691 -4.302584 53.259407  0.030917 -0.282003 0.958915  0.561211 0.544400 1 1 1.000000
carbonfibre
0  11.919691 -4.302584 53.259407  0.030917 -0.282003 0.958915  0.561211 0.544400 1 1 1.000000
0  11.919689 0.193525 54.555492  0.025174 -0.221998 0.974722  0.561211 0.529199 1 1 1.000000
0  0.002645 -0.288189 54.796371  0.000000 -0.228732 0.973489  0.499894 0.530814 1 1 1.000000
carbonfibre
0  0.002645 -0.288189 54.796371  0.000000 -0.228732 0.973489  0.499894 0.530814 1 1 1.000000
0  11.919689 0.193525 54.555492  0.025174 -0.221998 0.974722  0.561211 0.529199 1 1 1.000000
0  11.908234 5.435228 55.496006  0.018908 -0.142310 0.989642  0.561067 0.511527 1 1 1.000000
carbonfibre
0  0.002645 4.953469 55.794209  -0.000002 -0.113903 0.993492  0.499894 0.513142 1 1 1.000000
0  0.002645 -0.288189 54.796371  0.000000 -0.228732 0.973489  0.499894 0.530814 1 1 1.000000
0  11.908234 5.435228 55.496006  0.018908 -0.142310 0.989642  0.561067 0.511527 1 1 1.000000
carbonfibre
0  0.002645 4.953469 55.794209  -0.000002 -0.113903 0.993492  0.499894 0.513142 1 1 1.000000
0  11.908234 5.435228 55.496006  0.018908 -0.142310 0.989642  0.561067 0.511527 1 1 1.000000
0  11.896778 11.250378 55.966267  0.016282 -0.043401 0.998925  0.561067 0.491860 1 1 1.000000
carbonfibre
0  0.002644 11.009497 56.287418  -0.000001 -0.043372 0.999059  0.499894 0.492715 1 1 1.000000
0  0.002645 4.953469 55.794209  -0.000002 -0.113903 0.993492  0.499894 0.513142 1 1 1.000000
0  11.896778 11.250378 55.966267  0.016282 -0.043401 0.998925  0.561067 0.491860 1 1 1.000000
carbonfibre
0  -11.914398 0.193524 54.555489  -0.025188 -0.222044 0.974711  0.438722 0.529199 1 1 1.000000
0  0.002645 -0.288189 54.796371  0.000000 -0.228732 0.973489  0.499894 0.530814 1 1 1.000000
0  -11.902944 5.435226 55.496002  -0.018912 -0.142312 0.989641  0.438867 0.511527 1 1 1.000000
carbonfibre
0  0.002645 -0.288189 54.796371  0.000000 -0.228732 0.973489  0.499894 0.530814 1 1 1.000000
0  0.002645 4.953469 55.794209  -0.000002 -0.113903 0.993492  0.499894 0.513142 1 1 1.000000
0  -11.902944 5.435226 55.496002  -0.018912 -0.142312 0.989641  0.438867 0.511527 1 1 1.000000
carbonfibre
0  -11.902944 5.435226 55.496002  -0.018912 -0.142312 0.989641  0.438867 0.511527 1 1 1.000000
0  0.002645 4.953469 55.794209  -0.000002 -0.113903 0.993492  0.499894 0.513142 1 1 1.000000
0  -11.891489 11.250377 55.966263  -0.016293 -0.043406 0.998925  0.438867 0.491860 1 1 1.000000
carbonfibre
0  0.002645 4.953469 55.794209  -0.000002 -0.113903 0.993492  0.499894 0.513142 1 1 1.000000
0  0.002644 11.009497 56.287418  -0.000001 -0.043372 0.999059  0.499894 0.492715 1 1 1.000000
0  -11.891489 11.250377 55.966263  -0.016293 -0.043406 0.998925  0.438867 0.491860 1 1 1.000000
carbonfibre
0  26.727150 1.179954 52.846474  0.189404 -0.201393 0.961024  0.637279 0.525873 1 1 1.000000
0  26.348625 -2.857399 51.837135  0.212826 -0.255712 0.943036  0.635399 0.539555 1 1 1.000000
0  27.117130 -2.926221 51.642166  0.216135 -0.255827 0.942252  0.639303 0.539745 1 1 1.000000
carbonfibre
0  26.727150 1.179954 52.846474  0.189404 -0.201393 0.961024  0.637279 0.525873 1 1 1.000000
0  24.949352 -2.903265 52.135380  0.186296 -0.249280 0.950344  0.628168 0.539650 1 1 1.000000
0  26.348625 -2.857399 51.837135  0.212826 -0.255712 0.943036  0.635399 0.539555 1 1 1.000000
carbonfibre
0  20.648163 18.166645 55.427185  0.158483 0.028502 0.986950  0.606042 0.468487 1 1 1.000000
0  13.731941 18.166599 56.241554  0.108310 0.010402 0.994063  0.570467 0.468487 1 1 1.000000
0  20.751396 11.479756 55.335407  0.149701 -0.041999 0.987839  0.606620 0.491100 1 1 1.000000
carbonfibre
0  13.731941 18.166599 56.241554  0.108310 0.010402 0.994063  0.570467 0.468487 1 1 1.000000
0  20.648163 18.166645 55.427185  0.158483 0.028502 0.986950  0.606042 0.468487 1 1 1.000000
0  13.731941 25.082863 55.828621  0.112972 0.075993 0.990688  0.570467 0.445115 1 1 1.000000
carbonfibre
0  20.648163 18.166645 55.427185  0.158483 0.028502 0.986950  0.606042 0.468487 1 1 1.000000
0  20.579338 25.071409 55.014294  0.166010 0.087404 0.982243  0.605608 0.445115 1 1 1.000000
0  13.731941 25.082863 55.828621  0.112972 0.075993 0.990688  0.570467 0.445115 1 1 1.000000
carbonfibre
0  13.731941 25.082863 55.828621  0.112972 0.075993 0.990688  0.570467 0.445115 1 1 1.000000
0  20.579338 25.071409 55.014294  0.166010 0.087404 0.982243  0.605608 0.445115 1 1 1.000000
0  13.720440 32.113819 55.071617  0.116991 0.125199 0.985210  0.570467 0.421362 1 1 1.000000
carbonfibre
0  20.579338 25.071409 55.014294  0.166010 0.087404 0.982243  0.605608 0.445115 1 1 1.000000
0  20.476105 32.113823 54.245789  0.173584 0.137400 0.975187  0.605174 0.421362 1 1 1.000000
0  13.720440 32.113819 55.071617  0.116991 0.125199 0.985210  0.570467 0.421362 1 1 1.000000
carbonfibre
0  20.304094 39.385658 53.075897  0.189900 0.176965 0.965723  0.604306 0.396849 1 1 1.000000
0  13.708984 39.752678 53.855858  0.120590 0.168001 0.978383  0.570322 0.395614 1 1 1.000000
0  20.476105 32.113823 54.245789  0.173584 0.137400 0.975187  0.605174 0.421362 1 1 1.000000
carbonfibre
0  13.708984 39.752678 53.855858  0.120590 0.168001 0.978383  0.570322 0.395614 1 1 1.000000
0  13.720440 32.113819 55.071617  0.116991 0.125199 0.985210  0.570467 0.421362 1 1 1.000000
0  20.476105 32.113823 54.245789  0.173584 0.137400 0.975187  0.605174 0.421362 1 1 1.000000
carbonfibre
0  13.720440 32.113819 55.071617  0.116991 0.125199 0.985210  0.570467 0.421362 1 1 1.000000
0  13.708984 39.752678 53.855858  0.120590 0.168001 0.978383  0.570322 0.395614 1 1 1.000000
0  13.514017 32.113819 55.071617  -0.000024 0.131379 0.991332  0.569310 0.421362 1 1 1.000000
carbonfibre
0  13.731941 25.082863 55.828621  0.112972 0.075993 0.990688  0.570467 0.445115 1 1 1.000000
0  13.720440 32.113819 55.071617  0.116991 0.125199 0.985210  0.570467 0.421362 1 1 1.000000
0  13.514017 32.113819 55.071617  -0.000024 0.131379 0.991332  0.569310 0.421362 1 1 1.000000
carbonfibre
0  13.525473 25.082863 55.817162  -0.035273 0.085190 0.995740  0.569454 0.445115 1 1 1.000000
0  13.731941 25.082863 55.828621  0.112972 0.075993 0.990688  0.570467 0.445115 1 1 1.000000
0  13.514017 32.113819 55.071617  -0.000024 0.131379 0.991332  0.569310 0.421362 1 1 1.000000
carbonfibre
0  13.731941 18.166599 56.241554  0.108310 0.010402 0.994063  0.570467 0.468487 1 1 1.000000
0  13.731941 25.082863 55.828621  0.112972 0.075993 0.990688  0.570467 0.445115 1 1 1.000000
0  13.525473 25.082863 55.817162  -0.035273 0.085190 0.995740  0.569454 0.445115 1 1 1.000000
carbonfibre
0  13.514017 18.166599 56.230057  -0.080410 0.018862 0.996583  0.569310 0.468487 1 1 1.000000
0  13.731941 18.166599 56.241554  0.108310 0.010402 0.994063  0.570467 0.468487 1 1 1.000000
0  13.525473 25.082863 55.817162  -0.035273 0.085190 0.995740  0.569454 0.445115 1 1 1.000000
carbonfibre
0  11.885275 25.071409 55.736889  0.013008 0.065098 0.997794  0.560922 0.445115 1 1 1.000000
0  11.885275 18.166599 56.069500  0.010173 0.016636 0.999810  0.561067 0.468487 1 1 1.000000
0  13.514017 18.166599 56.230057  -0.080410 0.018862 0.996583  0.569310 0.468487 1 1 1.000000
carbonfibre
0  13.525473 25.082863 55.817162  -0.035273 0.085190 0.995740  0.569454 0.445115 1 1 1.000000
0  11.885275 25.071409 55.736889  0.013008 0.065098 0.997794  0.560922 0.445115 1 1 1.000000
0  13.514017 18.166599 56.230057  -0.080410 0.018862 0.996583  0.569310 0.468487 1 1 1.000000
carbonfibre
0  11.873821 32.113819 55.071617  0.019432 0.114761 0.993203  0.560922 0.421362 1 1 1.000000
0  11.885275 25.071409 55.736889  0.013008 0.065098 0.997794  0.560922 0.445115 1 1 1.000000
0  13.525473 25.082863 55.817162  -0.035273 0.085190 0.995740  0.569454 0.445115 1 1 1.000000
carbonfibre
0  13.514017 32.113819 55.071617  -0.000024 0.131379 0.991332  0.569310 0.421362 1 1 1.000000
0  11.873821 32.113819 55.071617  0.019432 0.114761 0.993203  0.560922 0.421362 1 1 1.000000
0  13.525473 25.082863 55.817162  -0.035273 0.085190 0.995740  0.569454 0.445115 1 1 1.000000
carbonfibre
0  11.873821 32.113819 55.071617  0.019432 0.114761 0.993203  0.560922 0.421362 1 1 1.000000
0  13.514017 32.113819 55.071617  -0.000024 0.131379 0.991332  0.569310 0.421362 1 1 1.000000
0  13.502518 39.752678 53.867310  0.034384 0.170993 0.984672  0.569310 0.395519 1 1 1.000000
carbonfibre
0  13.708984 39.752678 53.855858  0.120590 0.168001 0.978383  0.570322 0.395614 1 1 1.000000
0  13.502518 39.752678 53.867310  0.034384 0.170993 0.984672  0.569310 0.395519 1 1 1.000000
0  13.514017 32.113819 55.071617  -0.000024 0.131379 0.991332  0.569310 0.421362 1 1 1.000000
carbonfibre
0  13.502518 39.752678 53.867310  0.034384 0.170993 0.984672  0.569310 0.395519 1 1 1.000000
0  13.708984 39.752678 53.855858  0.120590 0.168001 0.978383  0.570322 0.395614 1 1 1.000000
0  13.697530 45.866028 52.651505  0.120894 0.190082 0.974296  0.570322 0.374902 1 1 1.000000
carbonfibre
0  13.697530 45.866028 52.651505  0.120894 0.190082 0.974296  0.570322 0.374902 1 1 1.000000
0  13.708984 39.752678 53.855858  0.120590 0.168001 0.978383  0.570322 0.395614 1 1 1.000000
0  20.304094 39.385658 53.075897  0.189900 0.176965 0.965723  0.604306 0.396849 1 1 1.000000
carbonfibre
0  19.822334 45.063160 52.043602  0.185186 0.191002 0.963963  0.601703 0.377657 1 1 1.000000
0  13.697530 45.866028 52.651505  0.120894 0.190082 0.974296  0.570322 0.374902 1 1 1.000000
0  20.304094 39.385658 53.075897  0.189900 0.176965 0.965723  0.604306 0.396849 1 1 1.000000
carbonfibre
0  19.822334 45.063160 52.043602  0.185186 0.191002 0.963963  0.601703 0.377657 1 1 1.000000
0  20.304094 39.385658 53.075897  0.189900 0.176965 0.965723  0.604306 0.396849 1 1 1.000000
0  25.373695 44.042366 50.770473  0.254186 0.192510 0.947802  0.630337 0.381078 1 1 1.000000
carbonfibre
0  25.373695 44.042366 50.770473  0.254186 0.192510 0.947802  0.630337 0.381078 1 1 1.000000
0  20.304094 39.385658 53.075897  0.189900 0.176965 0.965723  0.604306 0.396849 1 1 1.000000
0  25.465475 38.743343 51.814224  0.254447 0.177172 0.950719  0.630771 0.399035 1 1 1.000000
carbonfibre
0  25.465475 38.743343 51.814224  0.254447 0.177172 0.950719  0.630771 0.399035 1 1 1.000000
0  20.304094 39.385658 53.075897  0.189900 0.176965 0.965723  0.604306 0.396849 1 1 1.000000
0  25.534296 31.999128 52.961208  0.248885 0.147949 0.957166  0.631205 0.421742 1 1 1.000000
carbonfibre
0  20.304094 39.385658 53.075897  0.189900 0.176965 0.965723  0.604306 0.396849 1 1 1.000000
0  20.476105 32.113823 54.245789  0.173584 0.137400 0.975187  0.605174 0.421362 1 1 1.000000
0  25.534296 31.999128 52.961208  0.248885 0.147949 0.957166  0.631205 0.421742 1 1 1.000000
carbonfibre
0  25.614574 24.991131 53.809944  0.237679 0.100026 0.966180  0.631639 0.445495 1 1 1.000000
0  25.534296 31.999128 52.961208  0.248885 0.147949 0.957166  0.631205 0.421742 1 1 1.000000
0  20.476105 32.113823 54.245789  0.173584 0.137400 0.975187  0.605174 0.421362 1 1 1.000000
carbonfibre
0  20.579338 25.071409 55.014294  0.166010 0.087404 0.982243  0.605608 0.445115 1 1 1.000000
0  25.614574 24.991131 53.809944  0.237679 0.100026 0.966180  0.631639 0.445495 1 1 1.000000
0  20.476105 32.113823 54.245789  0.173584 0.137400 0.975187  0.605174 0.421362 1 1 1.000000
carbonfibre
0  25.729263 18.074865 54.291702  0.223509 0.045401 0.973644  0.632217 0.468772 1 1 1.000000
0  25.614574 24.991131 53.809944  0.237679 0.100026 0.966180  0.631639 0.445495 1 1 1.000000
0  20.579338 25.071409 55.014294  0.166010 0.087404 0.982243  0.605608 0.445115 1 1 1.000000
carbonfibre
0  20.648163 18.166645 55.427185  0.158483 0.028502 0.986950  0.606042 0.468487 1 1 1.000000
0  25.729263 18.074865 54.291702  0.223509 0.045401 0.973644  0.632217 0.468772 1 1 1.000000
0  20.579338 25.071409 55.014294  0.166010 0.087404 0.982243  0.605608 0.445115 1 1 1.000000
carbonfibre
0  25.729263 18.074865 54.291702  0.223509 0.045401 0.973644  0.632217 0.468772 1 1 1.000000
0  20.648163 18.166645 55.427185  0.158483 0.028502 0.986950  0.606042 0.468487 1 1 1.000000
0  25.981600 11.594447 54.245789  0.209293 -0.022926 0.977584  0.633519 0.490720 1 1 1.000000
carbonfibre
0  13.491062 45.888981 52.651505  0.045968 0.194197 0.979885  0.569165 0.374807 1 1 1.000000
0  13.502518 39.752678 53.867310  0.034384 0.170993 0.984672  0.569310 0.395519 1 1 1.000000
0  13.697530 45.866028 52.651505  0.120894 0.190082 0.974296  0.570322 0.374902 1 1 1.000000
carbonfibre
0  13.491062 45.888981 52.651505  0.045968 0.194197 0.979885  0.569165 0.374807 1 1 1.000000
0  11.850864 46.015125 52.708870  0.024522 0.193692 0.980756  0.560777 0.374427 1 1 1.000000
0  13.502518 39.752678 53.867310  0.034384 0.170993 0.984672  0.569310 0.395519 1 1 1.000000
carbonfibre
0  11.850864 46.015125 52.708870  0.024522 0.193692 0.980756  0.560777 0.374427 1 1 1.000000
0  11.862366 39.787086 53.936134  0.023902 0.161406 0.986599  0.560922 0.395424 1 1 1.000000
0  13.502518 39.752678 53.867310  0.034384 0.170993 0.984672  0.569310 0.395519 1 1 1.000000
carbonfibre
0  11.862366 39.787086 53.936134  0.023902 0.161406 0.986599  0.560922 0.395424 1 1 1.000000
0  11.873821 32.113819 55.071617  0.019432 0.114761 0.993203  0.560922 0.421362 1 1 1.000000
0  13.502518 39.752678 53.867310  0.034384 0.170993 0.984672  0.569310 0.395519 1 1 1.000000
carbonfibre
0  1.103759 39.202141 54.658726  0.683137 0.376409 0.625812  0.506547 0.402075 1 1 1.000000
0  1.080803 38.238667 54.933968  0.708090 -0.053647 0.704082  0.506402 0.405400 1 1 1.000000
0  1.298726 39.167728 54.280197  0.861226 0.302908 0.408089  0.507848 0.402170 1 1 1.000000
carbonfibre
0  1.080803 38.238667 54.933968  0.708090 -0.053647 0.704082  0.506402 0.405400 1 1 1.000000
0  1.310181 38.066612 54.463711  0.860695 -0.174665 0.478223  0.507848 0.405970 1 1 1.000000
0  1.298726 39.167728 54.280197  0.861226 0.302908 0.408089  0.507848 0.402170 1 1 1.000000
carbonfibre
0  1.080803 38.238667 54.933968  0.708090 -0.053647 0.704082  0.506402 0.405400 1 1 1.000000
0  0.599090 37.504578 55.083111  0.472536 -0.428704 0.770014  0.503944 0.407776 1 1 1.000000
0  1.310181 38.066612 54.463711  0.860695 -0.174665 0.478223  0.507848 0.405970 1 1 1.000000
carbonfibre
0  0.599090 37.504578 55.083111  0.472536 -0.428704 0.770014  0.503944 0.407776 1 1 1.000000
0  0.748191 37.217876 54.612812  0.568674 -0.613968 0.547406  0.504956 0.408821 1 1 1.000000
0  1.310181 38.066612 54.463711  0.860695 -0.174665 0.478223  0.507848 0.405970 1 1 1.000000
carbonfibre
0  0.599090 37.504578 55.083111  0.472536 -0.428704 0.770014  0.503944 0.407776 1 1 1.000000
0  0.002642 37.263741 55.128983  -0.002866 -0.591487 0.806310  0.501051 0.408536 1 1 1.000000
0  0.748191 37.217876 54.612812  0.568674 -0.613968 0.547406  0.504956 0.408821 1 1 1.000000
carbonfibre
0  0.002642 37.263741 55.128983  -0.002866 -0.591487 0.806310  0.501051 0.408536 1 1 1.000000
0  0.002642 36.931129 54.658726  -0.000000 -0.816423 0.577454  0.501051 0.409771 1 1 1.000000
0  0.748191 37.217876 54.612812  0.568674 -0.613968 0.547406  0.504956 0.408821 1 1 1.000000
carbonfibre
0  0.002642 36.931129 54.658726  -0.000000 -0.816423 0.577454  0.501051 0.409771 1 1 1.000000
0  0.002642 37.263741 55.128983  -0.002866 -0.591487 0.806310  0.501051 0.408536 1 1 1.000000
0  -0.742906 37.217876 54.612812  -0.568672 -0.613968 0.547407  0.497291 0.408821 1 1 1.000000
carbonfibre
0  0.002642 37.263741 55.128983  -0.002866 -0.591487 0.806310  0.501051 0.408536 1 1 1.000000
0  -0.593805 37.504578 55.083111  -0.469196 -0.427238 0.772867  0.498304 0.407776 1 1 1.000000
0  -0.742906 37.217876 54.612812  -0.568672 -0.613968 0.547407  0.497291 0.408821 1 1 1.000000
carbonfibre
0  -0.742906 37.217876 54.612812  -0.568672 -0.613968 0.547407  0.497291 0.408821 1 1 1.000000
0  -0.593805 37.504578 55.083111  -0.469196 -0.427238 0.772867  0.498304 0.407776 1 1 1.000000
0  -1.304897 38.066612 54.463711  -0.860694 -0.174664 0.478225  0.494399 0.405970 1 1 1.000000
carbonfibre
0  -0.593805 37.504578 55.083111  -0.469196 -0.427238 0.772867  0.498304 0.407776 1 1 1.000000
0  -1.075518 38.238667 54.933968  -0.701917 -0.050481 0.710468  0.495845 0.405400 1 1 1.000000
0  -1.304897 38.066612 54.463711  -0.860694 -0.174664 0.478225  0.494399 0.405970 1 1 1.000000
carbonfibre
0  -1.304897 38.066612 54.463711  -0.860694 -0.174664 0.478225  0.494399 0.405970 1 1 1.000000
0  -1.075518 38.238667 54.933968  -0.701917 -0.050481 0.710468  0.495845 0.405400 1 1 1.000000
0  -1.293442 39.167728 54.280197  -0.861189 0.302923 0.408156  0.494399 0.402170 1 1 1.000000
carbonfibre
0  -1.075518 38.238667 54.933968  -0.701917 -0.050481 0.710468  0.495845 0.405400 1 1 1.000000
0  -1.098429 39.202141 54.658726  -0.682245 0.376739 0.626586  0.495701 0.402075 1 1 1.000000
0  -1.293442 39.167728 54.280197  -0.861189 0.302923 0.408156  0.494399 0.402170 1 1 1.000000
carbonfibre
0  -1.293442 39.167728 54.280197  -0.861189 0.302923 0.408156  0.494399 0.402170 1 1 1.000000
0  -1.098429 39.202141 54.658726  -0.682245 0.376739 0.626586  0.495701 0.402075 1 1 1.000000
0  -0.811728 40.005009 54.142551  -0.248931 0.585093 0.771816  0.496858 0.399795 1 1 1.000000
carbonfibre
0  -0.811728 40.005009 54.142551  -0.248931 0.585093 0.771816  0.496858 0.399795 1 1 1.000000
0  -1.098429 39.202141 54.658726  -0.682245 0.376739 0.626586  0.495701 0.402075 1 1 1.000000
0  -0.605261 40.085289 54.119640  -0.195452 0.588167 0.784766  0.498015 0.399225 1 1 1.000000
carbonfibre
0  -1.098429 39.202141 54.658726  -0.682245 0.376739 0.626586  0.495701 0.402075 1 1 1.000000
0  -0.880506 39.225052 54.773415  -0.454098 0.439371 0.775080  0.496568 0.402075 1 1 1.000000
0  -0.605261 40.085289 54.119640  -0.195452 0.588167 0.784766  0.498015 0.399225 1 1 1.000000
carbonfibre
0  -0.869050 38.307491 55.025745  -0.427484 0.077672 0.900680  0.496568 0.405210 1 1 1.000000
0  -0.880506 39.225052 54.773415  -0.454098 0.439371 0.775080  0.496568 0.402075 1 1 1.000000
0  -1.098429 39.202141 54.658726  -0.682245 0.376739 0.626586  0.495701 0.402075 1 1 1.000000
carbonfibre
0  -1.075518 38.238667 54.933968  -0.701917 -0.050481 0.710468  0.495845 0.405400 1 1 1.000000
0  -0.869050 38.307491 55.025745  -0.427484 0.077672 0.900680  0.496568 0.405210 1 1 1.000000
0  -1.098429 39.202141 54.658726  -0.682245 0.376739 0.626586  0.495701 0.402075 1 1 1.000000
carbonfibre
0  -0.456160 37.676632 55.151890  -0.268654 -0.165140 0.948975  0.498738 0.407301 1 1 1.000000
0  -0.869050 38.307491 55.025745  -0.427484 0.077672 0.900680  0.496568 0.405210 1 1 1.000000
0  -1.075518 38.238667 54.933968  -0.701917 -0.050481 0.710468  0.495845 0.405400 1 1 1.000000
carbonfibre
0  -0.593805 37.504578 55.083111  -0.469196 -0.427238 0.772867  0.498304 0.407776 1 1 1.000000
0  -0.456160 37.676632 55.151890  -0.268654 -0.165140 0.948975  0.498738 0.407301 1 1 1.000000
0  -1.075518 38.238667 54.933968  -0.701917 -0.050481 0.710468  0.495845 0.405400 1 1 1.000000
carbonfibre
0  0.002642 37.493118 55.174847  -0.013192 -0.202553 0.979182  0.501051 0.407966 1 1 1.000000
0  -0.456160 37.676632 55.151890  -0.268654 -0.165140 0.948975  0.498738 0.407301 1 1 1.000000
0  -0.593805 37.504578 55.083111  -0.469196 -0.427238 0.772867  0.498304 0.407776 1 1 1.000000
carbonfibre
0  0.002642 37.263741 55.128983  -0.002866 -0.591487 0.806310  0.501051 0.408536 1 1 1.000000
0  0.002642 37.493118 55.174847  -0.013192 -0.202553 0.979182  0.501051 0.407966 1 1 1.000000
0  -0.593805 37.504578 55.083111  -0.469196 -0.427238 0.772867  0.498304 0.407776 1 1 1.000000
carbonfibre
0  0.461445 37.676632 55.151890  0.270484 -0.154206 0.950294  0.503510 0.407301 1 1 1.000000
0  0.002642 37.493118 55.174847  -0.013192 -0.202553 0.979182  0.501051 0.407966 1 1 1.000000
0  0.002642 37.263741 55.128983  -0.002866 -0.591487 0.806310  0.501051 0.408536 1 1 1.000000
carbonfibre
0  0.599090 37.504578 55.083111  0.472536 -0.428704 0.770014  0.503944 0.407776 1 1 1.000000
0  0.461445 37.676632 55.151890  0.270484 -0.154206 0.950294  0.503510 0.407301 1 1 1.000000
0  0.002642 37.263741 55.128983  -0.002866 -0.591487 0.806310  0.501051 0.408536 1 1 1.000000
carbonfibre
0  0.885836 38.307491 55.025745  0.443966 0.074164 0.892969  0.505679 0.405210 1 1 1.000000
0  0.461445 37.676632 55.151890  0.270484 -0.154206 0.950294  0.503510 0.407301 1 1 1.000000
0  0.599090 37.504578 55.083111  0.472536 -0.428704 0.770014  0.503944 0.407776 1 1 1.000000
carbonfibre
0  1.080803 38.238667 54.933968  0.708090 -0.053647 0.704082  0.506402 0.405400 1 1 1.000000
0  0.885836 38.307491 55.025745  0.443966 0.074164 0.892969  0.505679 0.405210 1 1 1.000000
0  0.599090 37.504578 55.083111  0.472536 -0.428704 0.770014  0.503944 0.407776 1 1 1.000000
carbonfibre
0  0.885836 39.225052 54.773415  0.454676 0.439263 0.774802  0.505679 0.402075 1 1 1.000000
0  0.885836 38.307491 55.025745  0.443966 0.074164 0.892969  0.505679 0.405210 1 1 1.000000
0  1.080803 38.238667 54.933968  0.708090 -0.053647 0.704082  0.506402 0.405400 1 1 1.000000
carbonfibre
0  1.103759 39.202141 54.658726  0.683137 0.376409 0.625812  0.506547 0.402075 1 1 1.000000
0  0.885836 39.225052 54.773415  0.454676 0.439263 0.774802  0.505679 0.402075 1 1 1.000000
0  1.080803 38.238667 54.933968  0.708090 -0.053647 0.704082  0.506402 0.405400 1 1 1.000000
carbonfibre
0  0.622000 40.085289 54.119640  0.203171 0.588493 0.782558  0.504233 0.399225 1 1 1.000000
0  0.885836 39.225052 54.773415  0.454676 0.439263 0.774802  0.505679 0.402075 1 1 1.000000
0  1.103759 39.202141 54.658726  0.683137 0.376409 0.625812  0.506547 0.402075 1 1 1.000000
carbonfibre
0  0.817013 40.005009 54.142551  0.255360 0.585731 0.769227  0.505390 0.399795 1 1 1.000000
0  0.622000 40.085289 54.119640  0.203178 0.588501 0.782550  0.504233 0.399225 1 1 1.000000
0  1.103759 39.202141 54.658726  0.683137 0.376409 0.625812  0.506547 0.402075 1 1 1.000000
carbonfibre
0  1.103759 39.202141 54.658726  0.683137 0.376409 0.625812  0.506547 0.402075 1 1 1.000000
0  1.298726 39.167728 54.280197  0.861226 0.302908 0.408089  0.507848 0.402170 1 1 1.000000
0  0.817013 40.005009 54.142551  0.255360 0.585731 0.769227  0.505390 0.399795 1 1 1.000000
carbonfibre
0  -0.605261 40.085289 54.119640  0.000000 0.605078 0.796166  0.498015 0.399225 1 1 1.000000
0  -0.880506 39.225052 54.773415  -0.000001 0.496881 0.867819  0.496568 0.402075 1 1 1.000000
0  0.622000 40.085289 54.119640  0.000000 0.605077 0.796167  0.504233 0.399225 1 1 1.000000
carbonfibre
0  -0.880506 39.225052 54.773415  -0.000001 0.496881 0.867819  0.496568 0.402075 1 1 1.000000
0  0.885836 39.225052 54.773415  -0.000000 0.395120 0.918630  0.505679 0.402075 1 1 1.000000
0  0.622000 40.085289 54.119640  0.000000 0.605077 0.796167  0.504233 0.399225 1 1 1.000000
carbonfibre
0  -0.880506 39.225052 54.773415  -0.000001 0.496881 0.867819  0.496568 0.402075 1 1 1.000000
0  -0.869050 38.307491 55.025745  0.000000 0.247918 0.968781  0.496568 0.405210 1 1 1.000000
0  0.885836 39.225052 54.773415  -0.000000 0.395120 0.918630  0.505679 0.402075 1 1 1.000000
carbonfibre
0  -0.869050 38.307491 55.025745  0.000000 0.247918 0.968781  0.496568 0.405210 1 1 1.000000
0  0.885836 38.307491 55.025745  -0.000003 0.230368 0.973104  0.505679 0.405210 1 1 1.000000
0  0.885836 39.225052 54.773415  -0.000000 0.395120 0.918630  0.505679 0.402075 1 1 1.000000
carbonfibre
0  -0.869050 38.307491 55.025745  0.000000 0.247918 0.968781  0.496568 0.405210 1 1 1.000000
0  -0.456160 37.676632 55.151890  0.000000 0.185218 0.982697  0.498738 0.407301 1 1 1.000000
0  0.885836 38.307491 55.025745  -0.000003 0.230368 0.973104  0.505679 0.405210 1 1 1.000000
carbonfibre
0  -0.456160 37.676632 55.151890  0.000000 0.185218 0.982697  0.498738 0.407301 1 1 1.000000
0  0.461445 37.676632 55.151890  0.000000 0.185275 0.982687  0.503510 0.407301 1 1 1.000000
0  0.885836 38.307491 55.025745  -0.000003 0.230368 0.973104  0.505679 0.405210 1 1 1.000000
carbonfibre
0  -0.456160 37.676632 55.151890  0.000000 0.185218 0.982697  0.498738 0.407301 1 1 1.000000
0  0.002642 37.493118 55.174847  0.000000 0.123276 0.992372  0.501051 0.407966 1 1 1.000000
0  0.461445 37.676632 55.151890  0.000000 0.185275 0.982687  0.503510 0.407301 1 1 1.000000
end
