version 1
nodes
0 "blender_implicit" -1
1 "root" -1
2 "steering_wheel" 1
end
skeleton
time 0
0  0 0 0  0 0 0
1  0.000000 0.000000 0.000000  1.570796 -0.000000 0.000000
2  16.702593 33.588814 6.160704  -0.000000 -0.000000 -0.000000
end
triangles
carbonfibre
0  11.793543 42.046597 55.782753  0.998380 0.015735 0.054671  0.125455 0.631586 1 1 1.000000
0  11.793543 41.599297 55.897442  0.997469 0.007924 0.070658  0.125455 0.631574 1 1 1.000000
0  11.908232 42.298931 53.787037  0.998360 0.015692 0.055051  0.125454 0.631586 1 1 1.000000
carbonfibre
0  11.908232 42.298931 53.787037  0.996271 0.000009 0.086280  0.125454 0.631586 1 1 1.000000
0  11.793543 41.599297 55.897442  0.997469 0.007947 0.070651  0.125455 0.631574 1 1 1.000000
0  11.919687 37.974834 54.578449  0.958997 0.015699 0.282982  0.125454 0.631557 1 1 1.000000
carbonfibre
0  11.793543 41.599297 55.897442  0.997469 0.007947 0.070651  0.125455 0.631574 1 1 1.000000
0  11.793543 36.047935 55.002792  0.855384 0.000014 0.517995  0.125455 0.631545 1 1 1.000000
0  11.919687 37.974834 54.578449  0.958997 0.015699 0.282982  0.125454 0.631557 1 1 1.000000
carbonfibre
0  11.793543 36.047935 55.002792  0.855384 0.000014 0.517995  0.125455 0.631545 1 1 1.000000
0  11.793543 41.599297 55.897442  0.997469 0.007947 0.070651  0.125455 0.631574 1 1 1.000000
0  11.655897 36.002071 55.048706  0.039415 -0.110279 0.993119  0.125455 0.631545 1 1 1.000000
carbonfibre
0  11.793543 41.599297 55.897442  0.997469 0.007947 0.070651  0.125455 0.631574 1 1 1.000000
0  11.667353 41.610748 55.954807  0.039667 0.039719 0.998423  0.125455 0.631574 1 1 1.000000
0  11.655897 36.002071 55.048706  0.039415 -0.110279 0.993119  0.125455 0.631545 1 1 1.000000
carbonfibre
0  11.655897 42.058098 55.828621  0.396758 0.229988 0.888645  0.125455 0.631586 1 1 1.000000
0  11.667353 41.610748 55.954807  0.039667 0.039719 0.998423  0.125455 0.631574 1 1 1.000000
0  11.793543 41.599297 55.897442  0.997469 0.007947 0.070651  0.125455 0.631574 1 1 1.000000
carbonfibre
0  11.793543 42.046597 55.782753  0.397011 0.229990 0.888531  0.125455 0.631586 1 1 1.000000
0  11.655897 42.058098 55.828621  0.396758 0.229988 0.888645  0.125455 0.631586 1 1 1.000000
0  11.793543 41.599297 55.897442  0.997469 0.007947 0.070651  0.125455 0.631574 1 1 1.000000
carbonfibre
0  11.908232 42.298931 53.787037  0.742415 0.118082 0.659452  0.125454 0.631586 1 1 1.000000
0  11.919687 37.974834 54.578449  0.958997 0.015699 0.282982  0.125454 0.631557 1 1 1.000000
0  11.977055 42.287476 53.706707  0.742414 0.118084 0.659452  0.125454 0.631586 1 1 1.000000
carbonfibre
0  11.919687 37.974834 54.578449  0.958997 0.015699 0.282982  0.125454 0.631557 1 1 1.000000
0  11.988510 37.963379 54.498127  0.814586 0.055305 0.577401  0.125454 0.631557 1 1 1.000000
0  11.977055 42.287476 53.706707  0.742414 0.118084 0.659452  0.125454 0.631586 1 1 1.000000
carbonfibre
0  12.332623 42.792145 53.224998  0.770685 0.102292 0.628953  0.125452 0.631586 1 1 1.000000
0  11.977055 42.287476 53.706707  0.770686 0.102290 0.628951  0.125454 0.631586 1 1 1.000000
0  12.321121 37.917511 54.050819  0.814579 0.055315 0.577409  0.125452 0.631557 1 1 1.000000
carbonfibre
0  11.977055 42.287476 53.706707  0.770686 0.102290 0.628951  0.125454 0.631586 1 1 1.000000
0  11.988510 37.963379 54.498127  0.814586 0.055305 0.577401  0.125454 0.631557 1 1 1.000000
0  12.321121 37.917511 54.050819  0.814579 0.055315 0.577409  0.125452 0.631557 1 1 1.000000
carbonfibre
0  12.068787 35.027142 54.486671  0.841583 -0.117985 0.527084  0.125454 0.631540 1 1 1.000000
0  12.321121 37.917511 54.050819  0.814579 0.055315 0.577409  0.125452 0.631557 1 1 1.000000
0  11.988510 37.963379 54.498127  0.814586 0.055305 0.577401  0.125454 0.631557 1 1 1.000000
carbonfibre
0  11.885275 35.371208 54.865196  0.841629 -0.118012 0.527004  0.125454 0.631545 1 1 1.000000
0  12.068787 35.027142 54.486671  0.841583 -0.117985 0.527084  0.125454 0.631540 1 1 1.000000
0  11.988510 37.963379 54.498127  0.814586 0.055305 0.577401  0.125454 0.631557 1 1 1.000000
carbonfibre
0  11.988510 37.963379 54.498127  0.814586 0.055305 0.577401  0.125454 0.631557 1 1 1.000000
0  11.919687 37.974834 54.578449  0.958997 0.015699 0.282982  0.125454 0.631557 1 1 1.000000
0  11.885275 35.371208 54.865196  0.841629 -0.118012 0.527004  0.125454 0.631545 1 1 1.000000
carbonfibre
0  11.919687 37.974834 54.578449  0.958997 0.015699 0.282982  0.125454 0.631557 1 1 1.000000
0  11.850864 35.508854 54.945469  0.711262 0.000002 0.702927  0.125454 0.631545 1 1 1.000000
0  11.885275 35.371208 54.865196  0.841629 -0.118012 0.527004  0.125454 0.631545 1 1 1.000000
carbonfibre
0  11.919687 37.974834 54.578449  0.958997 0.015699 0.282982  0.125454 0.631557 1 1 1.000000
0  11.793543 36.047935 55.002792  0.855384 0.000014 0.517995  0.125455 0.631545 1 1 1.000000
0  11.850864 35.508854 54.945469  0.711262 0.000002 0.702927  0.125454 0.631545 1 1 1.000000
carbonfibre
0  11.850864 35.508854 54.945469  0.711262 0.000002 0.702927  0.125454 0.631545 1 1 1.000000
0  11.793543 36.047935 55.002792  0.855384 0.000014 0.517995  0.125455 0.631545 1 1 1.000000
0  11.793543 35.348297 54.968384  0.385100 -0.055115 0.921228  0.125455 0.631545 1 1 1.000000
carbonfibre
0  11.793543 36.047935 55.002792  0.855384 0.000014 0.517995  0.125455 0.631545 1 1 1.000000
0  11.655897 36.002071 55.048706  0.039415 -0.110279 0.993119  0.125455 0.631545 1 1 1.000000
0  11.793543 35.348297 54.968384  0.385100 -0.055115 0.921228  0.125455 0.631545 1 1 1.000000
carbonfibre
0  11.655897 36.002071 55.048706  0.039415 -0.110279 0.993119  0.125455 0.631545 1 1 1.000000
0  11.644442 35.199200 54.991341  0.039594 -0.055422 0.997678  0.125455 0.631545 1 1 1.000000
0  11.793543 35.348297 54.968384  0.385100 -0.055115 0.921228  0.125455 0.631545 1 1 1.000000
carbonfibre
0  11.644442 35.199200 54.991341  0.039594 -0.055422 0.997678  0.125455 0.631545 1 1 1.000000
0  11.655897 36.002071 55.048706  0.039415 -0.110279 0.993119  0.125455 0.631545 1 1 1.000000
0  11.495342 35.359756 54.979885  -0.287042 -0.047405 0.956744  0.125455 0.631545 1 1 1.000000
carbonfibre
0  11.644442 35.199200 54.991341  0.039594 -0.055422 0.997678  0.125455 0.631545 1 1 1.000000
0  11.495342 35.359756 54.979885  -0.287042 -0.047405 0.956744  0.125455 0.631545 1 1 1.000000
0  11.460930 35.095966 54.911060  -0.594115 -0.427739 0.681224  0.125455 0.631540 1 1 1.000000
carbonfibre
0  11.495342 35.359756 54.979885  -0.287042 -0.047405 0.956744  0.125455 0.631545 1 1 1.000000
0  11.437975 35.508854 54.956928  -0.601109 0.007904 0.799128  0.125455 0.631545 1 1 1.000000
0  11.460930 35.095966 54.911060  -0.594115 -0.427739 0.681224  0.125455 0.631540 1 1 1.000000
carbonfibre
0  11.437975 35.508854 54.956928  -0.601109 0.007904 0.799128  0.125455 0.631545 1 1 1.000000
0  11.392107 35.371208 54.888103  -0.800890 -0.118885 0.586892  0.125456 0.631545 1 1 1.000000
0  11.460930 35.095966 54.911060  -0.594115 -0.427739 0.681224  0.125455 0.631540 1 1 1.000000
carbonfibre
0  11.437975 35.508854 54.956928  -0.601109 0.007904 0.799128  0.125455 0.631545 1 1 1.000000
0  11.357697 37.974834 54.589905  -0.924880 0.023693 0.379521  0.125456 0.631557 1 1 1.000000
0  11.392107 35.371208 54.888103  -0.800890 -0.118885 0.586892  0.125456 0.631545 1 1 1.000000
carbonfibre
0  11.357697 37.974834 54.589905  -0.924880 0.023693 0.379521  0.125456 0.631557 1 1 1.000000
0  11.277418 37.963379 54.521080  -0.769874 0.063515 0.635028  0.125456 0.631557 1 1 1.000000
0  11.392107 35.371208 54.888103  -0.800890 -0.118885 0.586892  0.125456 0.631545 1 1 1.000000
carbonfibre
0  11.277418 37.963379 54.521080  -0.769874 0.063515 0.635028  0.125456 0.631557 1 1 1.000000
0  11.357697 37.974834 54.589905  -0.924880 0.023693 0.379521  0.125456 0.631557 1 1 1.000000
0  11.357697 42.298931 53.798489  -0.670279 0.127407 0.731090  0.125456 0.631586 1 1 1.000000
carbonfibre
0  11.277418 42.287476 53.729664  -0.670320 0.127422 0.731050  0.125456 0.631586 1 1 1.000000
0  11.277418 37.963379 54.521080  -0.769874 0.063515 0.635028  0.125456 0.631557 1 1 1.000000
0  11.357697 42.298931 53.798489  -0.670279 0.127407 0.731090  0.125456 0.631586 1 1 1.000000
carbonfibre
0  12.068787 35.027142 54.486671  0.841583 -0.117985 0.527084  0.125454 0.631540 1 1 1.000000
0  11.885275 35.371208 54.865196  0.841629 -0.118012 0.527004  0.125454 0.631545 1 1 1.000000
0  11.873821 34.648621 54.544037  0.809600 -0.259289 0.526609  0.125454 0.631540 1 1 1.000000
carbonfibre
0  10.887440 42.860966 53.270863  -0.722294 0.111097 0.682604  0.125457 0.631586 1 1 1.000000
0  10.921850 37.917511 54.096691  -0.769903 0.063491 0.634994  0.125457 0.631557 1 1 1.000000
0  11.277418 42.287476 53.729664  -0.722294 0.111102 0.682604  0.125456 0.631586 1 1 1.000000
carbonfibre
0  10.921850 37.917511 54.096691  -0.769903 0.063491 0.634994  0.125457 0.631557 1 1 1.000000
0  11.277418 37.963379 54.521080  -0.769874 0.063515 0.635028  0.125456 0.631557 1 1 1.000000
0  11.277418 42.287476 53.729664  -0.722294 0.111102 0.682604  0.125456 0.631586 1 1 1.000000
carbonfibre
0  11.392107 35.371208 54.888103  -0.800890 -0.118885 0.586892  0.125456 0.631545 1 1 1.000000
0  11.277418 37.963379 54.521080  -0.769874 0.063515 0.635028  0.125456 0.631557 1 1 1.000000
0  10.921850 37.917511 54.096691  -0.769903 0.063491 0.634994  0.125457 0.631557 1 1 1.000000
carbonfibre
0  11.185640 35.027142 54.521080  -0.800937 -0.118915 0.586821  0.125456 0.631540 1 1 1.000000
0  11.392107 35.371208 54.888103  -0.800890 -0.118885 0.586892  0.125456 0.631545 1 1 1.000000
0  10.921850 37.917511 54.096691  -0.769903 0.063491 0.634994  0.125457 0.631557 1 1 1.000000
carbonfibre
0  11.185640 35.027142 54.521080  -0.800937 -0.118915 0.586821  0.125456 0.631540 1 1 1.000000
0  11.380606 34.648621 54.555492  -0.769041 -0.253710 0.586691  0.125456 0.631540 1 1 1.000000
0  11.392107 35.371208 54.888103  -0.800890 -0.118885 0.586892  0.125456 0.631545 1 1 1.000000
carbonfibre
0  11.380606 34.648621 54.555492  -0.769041 -0.253710 0.586691  0.125456 0.631540 1 1 1.000000
0  11.460930 35.095966 54.911060  -0.594115 -0.427739 0.681224  0.125455 0.631540 1 1 1.000000
0  11.392107 35.371208 54.888103  -0.800890 -0.118885 0.586892  0.125456 0.631545 1 1 1.000000
carbonfibre
0  11.460930 35.095966 54.911060  -0.594115 -0.427739 0.681224  0.125455 0.631540 1 1 1.000000
0  11.380606 34.648621 54.555492  -0.769041 -0.253710 0.586691  0.125456 0.631540 1 1 1.000000
0  11.621487 34.522472 54.555492  0.023687 -0.623530 0.781440  0.125455 0.631540 1 1 1.000000
carbonfibre
0  11.644442 34.958321 54.922512  0.023720 -0.623470 0.781487  0.125455 0.631540 1 1 1.000000
0  11.460930 35.095966 54.911060  -0.594115 -0.427739 0.681224  0.125455 0.631540 1 1 1.000000
0  11.621487 34.522472 54.555492  0.023687 -0.623530 0.781440  0.125455 0.631540 1 1 1.000000
carbonfibre
0  11.644442 34.958321 54.922512  0.023720 -0.623470 0.781487  0.125455 0.631540 1 1 1.000000
0  11.621487 34.522472 54.555492  0.023687 -0.623530 0.781440  0.125455 0.631540 1 1 1.000000
0  11.873821 34.648621 54.544037  0.809600 -0.259289 0.526609  0.125454 0.631540 1 1 1.000000
carbonfibre
0  11.816452 35.095966 54.899563  0.639615 -0.426382 0.639602  0.125454 0.631540 1 1 1.000000
0  11.644442 34.958321 54.922512  0.023720 -0.623470 0.781487  0.125455 0.631540 1 1 1.000000
0  11.873821 34.648621 54.544037  0.809600 -0.259289 0.526609  0.125454 0.631540 1 1 1.000000
carbonfibre
0  11.885275 35.371208 54.865196  0.841629 -0.118012 0.527004  0.125454 0.631545 1 1 1.000000
0  11.816452 35.095966 54.899563  0.639615 -0.426382 0.639602  0.125454 0.631540 1 1 1.000000
0  11.873821 34.648621 54.544037  0.809600 -0.259289 0.526609  0.125454 0.631540 1 1 1.000000
carbonfibre
0  11.816452 35.095966 54.899563  0.639615 -0.426382 0.639602  0.125454 0.631540 1 1 1.000000
0  11.885275 35.371208 54.865196  0.841629 -0.118012 0.527004  0.125454 0.631545 1 1 1.000000
0  11.850864 35.508854 54.945469  0.711262 0.000002 0.702927  0.125454 0.631545 1 1 1.000000
carbonfibre
0  11.793543 35.348297 54.968384  0.385100 -0.055115 0.921228  0.125455 0.631545 1 1 1.000000
0  11.816452 35.095966 54.899563  0.639615 -0.426382 0.639602  0.125454 0.631540 1 1 1.000000
0  11.850864 35.508854 54.945469  0.711262 0.000002 0.702927  0.125454 0.631545 1 1 1.000000
carbonfibre
0  11.816452 35.095966 54.899563  0.639615 -0.426382 0.639602  0.125454 0.631540 1 1 1.000000
0  11.793543 35.348297 54.968384  0.385100 -0.055115 0.921228  0.125455 0.631545 1 1 1.000000
0  11.644442 34.958321 54.922512  0.023720 -0.623470 0.781487  0.125455 0.631540 1 1 1.000000
carbonfibre
0  11.793543 35.348297 54.968384  0.385100 -0.055115 0.921228  0.125455 0.631545 1 1 1.000000
0  11.644442 35.199200 54.991341  0.039594 -0.055422 0.997678  0.125455 0.631545 1 1 1.000000
0  11.644442 34.958321 54.922512  0.023720 -0.623470 0.781487  0.125455 0.631540 1 1 1.000000
carbonfibre
0  11.644442 34.958321 54.922512  0.023720 -0.623470 0.781487  0.125455 0.631540 1 1 1.000000
0  11.644442 35.199200 54.991341  0.039594 -0.055422 0.997678  0.125455 0.631545 1 1 1.000000
0  11.460930 35.095966 54.911060  -0.594115 -0.427739 0.681224  0.125455 0.631540 1 1 1.000000
carbonfibre
0  11.518251 36.059391 55.014294  -0.792347 -0.000038 0.610071  0.125455 0.631545 1 1 1.000000
0  11.529753 41.599297 55.908901  -0.994703 -0.000032 0.102794  0.125455 0.631574 1 1 1.000000
0  11.357697 37.974834 54.589905  -0.924880 0.023693 0.379521  0.125456 0.631557 1 1 1.000000
carbonfibre
0  11.529753 41.599297 55.908901  -0.994703 -0.000032 0.102794  0.125455 0.631574 1 1 1.000000
0  11.357697 42.298931 53.798489  -0.994713 0.000013 0.102689  0.125456 0.631586 1 1 1.000000
0  11.357697 37.974834 54.589905  -0.924880 0.023693 0.379521  0.125456 0.631557 1 1 1.000000
carbonfibre
0  11.529753 42.046597 55.794212  -0.996867 -0.000007 0.079094  0.125455 0.631586 1 1 1.000000
0  11.357697 42.298931 53.798489  -0.994713 0.000013 0.102689  0.125456 0.631586 1 1 1.000000
0  11.529753 41.599297 55.908901  -0.994703 -0.000032 0.102794  0.125455 0.631574 1 1 1.000000
carbonfibre
0  11.655897 42.058098 55.828621  -0.317304 0.230010 0.920008  0.125455 0.631586 1 1 1.000000
0  11.529753 42.046597 55.794212  -0.317297 0.230013 0.920009  0.125455 0.631586 1 1 1.000000
0  11.529753 41.599297 55.908901  -0.994703 -0.000032 0.102794  0.125455 0.631574 1 1 1.000000
carbonfibre
0  11.667353 41.610748 55.954807  0.039667 0.039719 0.998423  0.125455 0.631574 1 1 1.000000
0  11.655897 42.058098 55.828621  -0.317304 0.230010 0.920008  0.125455 0.631586 1 1 1.000000
0  11.529753 41.599297 55.908901  -0.994703 -0.000032 0.102794  0.125455 0.631574 1 1 1.000000
carbonfibre
0  11.667353 41.610748 55.954807  0.039667 0.039719 0.998423  0.125455 0.631574 1 1 1.000000
0  11.529753 41.599297 55.908901  -0.994703 -0.000032 0.102794  0.125455 0.631574 1 1 1.000000
0  11.655897 36.002071 55.048706  0.039415 -0.110279 0.993119  0.125455 0.631545 1 1 1.000000
carbonfibre
0  11.529753 41.599297 55.908901  -0.994703 -0.000032 0.102794  0.125455 0.631574 1 1 1.000000
0  11.518251 36.059391 55.014294  -0.792347 -0.000038 0.610071  0.125455 0.631545 1 1 1.000000
0  11.655897 36.002071 55.048706  0.039415 -0.110279 0.993119  0.125455 0.631545 1 1 1.000000
carbonfibre
0  11.655897 36.002071 55.048706  0.039415 -0.110279 0.993119  0.125455 0.631545 1 1 1.000000
0  11.518251 36.059391 55.014294  -0.792347 -0.000038 0.610071  0.125455 0.631545 1 1 1.000000
0  11.495342 35.359756 54.979885  -0.287042 -0.047405 0.956744  0.125455 0.631545 1 1 1.000000
carbonfibre
0  11.518251 36.059391 55.014294  -0.792347 -0.000038 0.610071  0.125455 0.631545 1 1 1.000000
0  11.437975 35.508854 54.956928  -0.601109 0.007904 0.799128  0.125455 0.631545 1 1 1.000000
0  11.495342 35.359756 54.979885  -0.287042 -0.047405 0.956744  0.125455 0.631545 1 1 1.000000
carbonfibre
0  11.518251 36.059391 55.014294  -0.792347 -0.000038 0.610071  0.125455 0.631545 1 1 1.000000
0  11.357697 37.974834 54.589905  -0.924880 0.023693 0.379521  0.125456 0.631557 1 1 1.000000
0  11.437975 35.508854 54.956928  -0.601109 0.007904 0.799128  0.125455 0.631545 1 1 1.000000
carbonfibre
0  -11.879990 35.371208 54.865192  -0.839281 -0.118784 0.530563  0.125454 0.631545 1 1 1.000000
0  -12.063501 35.027142 54.486668  -0.839273 -0.118779 0.530577  0.125454 0.631540 1 1 1.000000
0  -11.868534 34.648621 54.544033  -0.806777 -0.261009 0.530080  0.125454 0.631540 1 1 1.000000
carbonfibre
0  -12.063501 35.027142 54.486668  -0.839273 -0.118779 0.530577  0.125454 0.631540 1 1 1.000000
0  -11.879990 35.371208 54.865192  -0.839281 -0.118784 0.530563  0.125454 0.631545 1 1 1.000000
0  -11.983225 37.963379 54.498123  -0.811907 0.055703 0.581123  0.125454 0.631557 1 1 1.000000
carbonfibre
0  -12.327337 37.917511 54.050816  -0.811907 0.055707 0.581123  0.125452 0.631557 1 1 1.000000
0  -12.063501 35.027142 54.486668  -0.839273 -0.118779 0.530577  0.125454 0.631540 1 1 1.000000
0  -11.983225 37.963379 54.498123  -0.811907 0.055703 0.581123  0.125454 0.631557 1 1 1.000000
carbonfibre
0  -11.983225 37.963379 54.498123  -0.811907 0.055703 0.581123  0.125454 0.631557 1 1 1.000000
0  -11.971769 42.287476 53.706703  -0.767427 0.102906 0.632823  0.125454 0.631586 1 1 1.000000
0  -12.327337 37.917511 54.050816  -0.811907 0.055707 0.581123  0.125452 0.631557 1 1 1.000000
carbonfibre
0  -11.971769 42.287476 53.706703  -0.767427 0.102906 0.632823  0.125454 0.631586 1 1 1.000000
0  -12.327337 42.792145 53.224995  -0.767394 0.102895 0.632866  0.125452 0.631586 1 1 1.000000
0  -12.327337 37.917511 54.050816  -0.811907 0.055707 0.581123  0.125452 0.631557 1 1 1.000000
carbonfibre
0  -11.914402 37.974834 54.578445  -0.958345 0.015803 0.285176  0.125454 0.631557 1 1 1.000000
0  -11.983225 37.963379 54.498123  -0.811907 0.055703 0.581123  0.125454 0.631557 1 1 1.000000
0  -11.879990 35.371208 54.865192  -0.839281 -0.118784 0.530563  0.125454 0.631545 1 1 1.000000
carbonfibre
0  -11.983225 37.963379 54.498123  -0.811907 0.055703 0.581123  0.125454 0.631557 1 1 1.000000
0  -11.914402 37.974834 54.578445  -0.958345 0.015803 0.285176  0.125454 0.631557 1 1 1.000000
0  -11.971769 42.287476 53.706703  -0.736932 0.118792 0.665447  0.125454 0.631586 1 1 1.000000
carbonfibre
0  -11.914402 37.974834 54.578445  -0.958345 0.015803 0.285176  0.125454 0.631557 1 1 1.000000
0  -11.902946 42.298931 53.787033  -0.736932 0.118791 0.665447  0.125454 0.631586 1 1 1.000000
0  -11.971769 42.287476 53.706703  -0.736932 0.118792 0.665447  0.125454 0.631586 1 1 1.000000
carbonfibre
0  -11.788257 41.599297 55.897438  -0.997424 0.007892 0.071299  0.125455 0.631574 1 1 1.000000
0  -11.902946 42.298931 53.787033  -0.996207 -0.000006 0.087014  0.125454 0.631586 1 1 1.000000
0  -11.914402 37.974834 54.578445  -0.958345 0.015803 0.285176  0.125454 0.631557 1 1 1.000000
carbonfibre
0  -11.788257 41.599297 55.897438  -0.997425 0.007919 0.071275  0.125455 0.631574 1 1 1.000000
0  -11.788257 42.046597 55.782749  -0.998324 0.015771 0.055691  0.125455 0.631586 1 1 1.000000
0  -11.902946 42.298931 53.787033  -0.998316 0.015749 0.055833  0.125454 0.631586 1 1 1.000000
carbonfibre
0  -11.662067 42.058098 55.828617  -0.390174 0.230786 0.891349  0.125455 0.631586 1 1 1.000000
0  -11.788257 42.046597 55.782749  -0.390212 0.230784 0.891332  0.125455 0.631586 1 1 1.000000
0  -11.788257 41.599297 55.897438  -0.997424 0.007892 0.071299  0.125455 0.631574 1 1 1.000000
carbonfibre
0  -11.662067 41.610748 55.954803  -0.031632 0.039702 0.998711  0.125455 0.631574 1 1 1.000000
0  -11.662067 42.058098 55.828617  -0.390174 0.230786 0.891349  0.125455 0.631586 1 1 1.000000
0  -11.788257 41.599297 55.897438  -0.997424 0.007892 0.071299  0.125455 0.631574 1 1 1.000000
carbonfibre
0  -11.662067 41.610748 55.954803  -0.031632 0.039702 0.998711  0.125455 0.631574 1 1 1.000000
0  -11.788257 41.599297 55.897438  -0.997424 0.007892 0.071299  0.125455 0.631574 1 1 1.000000
0  -11.650612 36.002071 55.048702  -0.031549 -0.110351 0.993392  0.125455 0.631545 1 1 1.000000
carbonfibre
0  -11.524423 41.599297 55.908897  0.994810 -0.000020 0.101754  0.125455 0.631574 1 1 1.000000
0  -11.662067 41.610748 55.954803  -0.031632 0.039702 0.998711  0.125455 0.631574 1 1 1.000000
0  -11.650612 36.002071 55.048702  -0.031549 -0.110351 0.993392  0.125455 0.631545 1 1 1.000000
carbonfibre
0  -11.512965 36.059391 55.014290  0.795235 0.000001 0.606302  0.125455 0.631545 1 1 1.000000
0  -11.524423 41.599297 55.908897  0.994810 -0.000020 0.101754  0.125455 0.631574 1 1 1.000000
0  -11.650612 36.002071 55.048702  -0.031549 -0.110351 0.993392  0.125455 0.631545 1 1 1.000000
carbonfibre
0  -11.524423 41.599297 55.908897  0.994810 -0.000020 0.101754  0.125455 0.631574 1 1 1.000000
0  -11.512965 36.059391 55.014290  0.795235 0.000001 0.606302  0.125455 0.631545 1 1 1.000000
0  -11.352411 37.974834 54.589901  0.925976 0.023504 0.376849  0.125456 0.631557 1 1 1.000000
carbonfibre
0  -11.352411 37.974834 54.589901  0.925976 0.023504 0.376849  0.125456 0.631557 1 1 1.000000
0  -11.512965 36.059391 55.014290  0.795235 0.000001 0.606302  0.125455 0.631545 1 1 1.000000
0  -11.432689 35.508854 54.956924  0.606166 0.007884 0.795299  0.125455 0.631545 1 1 1.000000
carbonfibre
0  -11.352411 37.974834 54.589901  0.925976 0.023504 0.376849  0.125456 0.631557 1 1 1.000000
0  -11.432689 35.508854 54.956924  0.606166 0.007884 0.795299  0.125455 0.631545 1 1 1.000000
0  -11.398277 35.371208 54.888100  0.803683 -0.118214 0.583197  0.125456 0.631545 1 1 1.000000
carbonfibre
0  -11.398277 35.371208 54.888100  0.803683 -0.118214 0.583197  0.125456 0.631545 1 1 1.000000
0  -11.432689 35.508854 54.956924  0.606166 0.007884 0.795299  0.125455 0.631545 1 1 1.000000
0  -11.467099 35.095966 54.911057  0.599112 -0.425683 0.678129  0.125455 0.631540 1 1 1.000000
carbonfibre
0  -11.467099 35.095966 54.911057  0.599112 -0.425683 0.678129  0.125455 0.631540 1 1 1.000000
0  -11.375320 34.648621 54.555489  0.772273 -0.252191 0.583091  0.125456 0.631540 1 1 1.000000
0  -11.398277 35.371208 54.888100  0.803683 -0.118214 0.583197  0.125456 0.631545 1 1 1.000000
carbonfibre
0  -11.375320 34.648621 54.555489  0.772273 -0.252191 0.583091  0.125456 0.631540 1 1 1.000000
0  -11.467099 35.095966 54.911057  0.599112 -0.425683 0.678129  0.125455 0.631540 1 1 1.000000
0  -11.627655 34.522472 54.555489  -0.015725 -0.623593 0.781591  0.125455 0.631540 1 1 1.000000
carbonfibre
0  -11.467099 35.095966 54.911057  0.599112 -0.425683 0.678129  0.125455 0.631540 1 1 1.000000
0  -11.639156 34.958321 54.922508  -0.015683 -0.623573 0.781607  0.125455 0.631540 1 1 1.000000
0  -11.627655 34.522472 54.555489  -0.015725 -0.623593 0.781591  0.125455 0.631540 1 1 1.000000
carbonfibre
0  -11.627655 34.522472 54.555489  -0.015725 -0.623593 0.781591  0.125455 0.631540 1 1 1.000000
0  -11.639156 34.958321 54.922508  -0.015683 -0.623573 0.781607  0.125455 0.631540 1 1 1.000000
0  -11.868534 34.648621 54.544033  -0.806777 -0.261009 0.530080  0.125454 0.631540 1 1 1.000000
carbonfibre
0  -11.639156 34.958321 54.922508  -0.015683 -0.623573 0.781607  0.125455 0.631540 1 1 1.000000
0  -11.811167 35.095966 54.899559  -0.634799 -0.428595 0.642913  0.125454 0.631540 1 1 1.000000
0  -11.868534 34.648621 54.544033  -0.806777 -0.261009 0.530080  0.125454 0.631540 1 1 1.000000
carbonfibre
0  -11.811167 35.095966 54.899559  -0.634799 -0.428595 0.642913  0.125454 0.631540 1 1 1.000000
0  -11.879990 35.371208 54.865192  -0.839281 -0.118784 0.530563  0.125454 0.631545 1 1 1.000000
0  -11.868534 34.648621 54.544033  -0.806777 -0.261009 0.530080  0.125454 0.631540 1 1 1.000000
carbonfibre
0  -11.879990 35.371208 54.865192  -0.839281 -0.118784 0.530563  0.125454 0.631545 1 1 1.000000
0  -11.811167 35.095966 54.899559  -0.634799 -0.428595 0.642913  0.125454 0.631540 1 1 1.000000
0  -11.845578 35.508854 54.945465  -0.707126 -0.000001 0.707087  0.125454 0.631545 1 1 1.000000
carbonfibre
0  -11.845578 35.508854 54.945465  -0.707126 -0.000001 0.707087  0.125454 0.631545 1 1 1.000000
0  -11.914402 37.974834 54.578445  -0.958345 0.015803 0.285176  0.125454 0.631557 1 1 1.000000
0  -11.879990 35.371208 54.865192  -0.839281 -0.118784 0.530563  0.125454 0.631545 1 1 1.000000
carbonfibre
0  -11.788257 36.047935 55.002789  -0.853350 -0.000026 0.521339  0.125455 0.631545 1 1 1.000000
0  -11.914402 37.974834 54.578445  -0.958345 0.015803 0.285176  0.125454 0.631557 1 1 1.000000
0  -11.845578 35.508854 54.945465  -0.707126 -0.000001 0.707087  0.125454 0.631545 1 1 1.000000
carbonfibre
0  -11.788257 36.047935 55.002789  -0.853350 -0.000026 0.521339  0.125455 0.631545 1 1 1.000000
0  -11.845578 35.508854 54.945465  -0.707126 -0.000001 0.707087  0.125454 0.631545 1 1 1.000000
0  -11.788257 35.348297 54.968380  -0.378920 -0.055213 0.923781  0.125455 0.631545 1 1 1.000000
carbonfibre
0  -11.811167 35.095966 54.899559  -0.634799 -0.428595 0.642913  0.125454 0.631540 1 1 1.000000
0  -11.788257 35.348297 54.968380  -0.378920 -0.055213 0.923781  0.125455 0.631545 1 1 1.000000
0  -11.845578 35.508854 54.945465  -0.707126 -0.000001 0.707087  0.125454 0.631545 1 1 1.000000
carbonfibre
0  -11.788257 35.348297 54.968380  -0.378920 -0.055213 0.923781  0.125455 0.631545 1 1 1.000000
0  -11.811167 35.095966 54.899559  -0.634799 -0.428595 0.642913  0.125454 0.631540 1 1 1.000000
0  -11.639156 34.958321 54.922508  -0.015683 -0.623573 0.781607  0.125455 0.631540 1 1 1.000000
carbonfibre
0  -11.788257 36.047935 55.002789  -0.853350 -0.000026 0.521339  0.125455 0.631545 1 1 1.000000
0  -11.788257 41.599297 55.897438  -0.997424 0.007892 0.071299  0.125455 0.631574 1 1 1.000000
0  -11.914402 37.974834 54.578445  -0.958345 0.015803 0.285176  0.125454 0.631557 1 1 1.000000
carbonfibre
0  -11.788257 41.599297 55.897438  -0.997424 0.007892 0.071299  0.125455 0.631574 1 1 1.000000
0  -11.788257 36.047935 55.002789  -0.853350 -0.000026 0.521339  0.125455 0.631545 1 1 1.000000
0  -11.650612 36.002071 55.048702  -0.031549 -0.110351 0.993392  0.125455 0.631545 1 1 1.000000
carbonfibre
0  -11.650612 36.002071 55.048702  -0.031549 -0.110351 0.993392  0.125455 0.631545 1 1 1.000000
0  -11.788257 36.047935 55.002789  -0.853350 -0.000026 0.521339  0.125455 0.631545 1 1 1.000000
0  -11.788257 35.348297 54.968380  -0.378920 -0.055213 0.923781  0.125455 0.631545 1 1 1.000000
carbonfibre
0  -11.639156 35.199200 54.991337  -0.031707 -0.055410 0.997960  0.125455 0.631545 1 1 1.000000
0  -11.650612 36.002071 55.048702  -0.031549 -0.110351 0.993392  0.125455 0.631545 1 1 1.000000
0  -11.788257 35.348297 54.968380  -0.378920 -0.055213 0.923781  0.125455 0.631545 1 1 1.000000
carbonfibre
0  -11.639156 35.199200 54.991337  -0.031707 -0.055410 0.997960  0.125455 0.631545 1 1 1.000000
0  -11.788257 35.348297 54.968380  -0.378920 -0.055213 0.923781  0.125455 0.631545 1 1 1.000000
0  -11.639156 34.958321 54.922508  -0.015683 -0.623573 0.781607  0.125455 0.631540 1 1 1.000000
carbonfibre
0  -11.639156 35.199200 54.991337  -0.031707 -0.055410 0.997960  0.125455 0.631545 1 1 1.000000
0  -11.639156 34.958321 54.922508  -0.015683 -0.623573 0.781607  0.125455 0.631540 1 1 1.000000
0  -11.467099 35.095966 54.911057  0.599112 -0.425683 0.678129  0.125455 0.631540 1 1 1.000000
carbonfibre
0  -11.490055 35.359756 54.979881  0.292100 -0.047288 0.955218  0.125455 0.631545 1 1 1.000000
0  -11.639156 35.199200 54.991337  -0.031707 -0.055410 0.997960  0.125455 0.631545 1 1 1.000000
0  -11.467099 35.095966 54.911057  0.599112 -0.425683 0.678129  0.125455 0.631540 1 1 1.000000
carbonfibre
0  -11.432689 35.508854 54.956924  0.606166 0.007884 0.795299  0.125455 0.631545 1 1 1.000000
0  -11.490055 35.359756 54.979881  0.292100 -0.047288 0.955218  0.125455 0.631545 1 1 1.000000
0  -11.467099 35.095966 54.911057  0.599112 -0.425683 0.678129  0.125455 0.631540 1 1 1.000000
carbonfibre
0  -11.432689 35.508854 54.956924  0.606166 0.007884 0.795299  0.125455 0.631545 1 1 1.000000
0  -11.512965 36.059391 55.014290  0.795235 0.000001 0.606302  0.125455 0.631545 1 1 1.000000
0  -11.490055 35.359756 54.979881  0.292100 -0.047288 0.955218  0.125455 0.631545 1 1 1.000000
carbonfibre
0  -11.512965 36.059391 55.014290  0.795235 0.000001 0.606302  0.125455 0.631545 1 1 1.000000
0  -11.650612 36.002071 55.048702  -0.031549 -0.110351 0.993392  0.125455 0.631545 1 1 1.000000
0  -11.490055 35.359756 54.979881  0.292100 -0.047288 0.955218  0.125455 0.631545 1 1 1.000000
carbonfibre
0  -11.650612 36.002071 55.048702  -0.031549 -0.110351 0.993392  0.125455 0.631545 1 1 1.000000
0  -11.639156 35.199200 54.991337  -0.031707 -0.055410 0.997960  0.125455 0.631545 1 1 1.000000
0  -11.490055 35.359756 54.979881  0.292100 -0.047288 0.955218  0.125455 0.631545 1 1 1.000000
carbonfibre
0  -11.375320 34.648621 54.555489  0.772273 -0.252191 0.583091  0.125456 0.631540 1 1 1.000000
0  -11.180354 35.027142 54.521076  0.803730 -0.118212 0.583133  0.125456 0.631540 1 1 1.000000
0  -11.398277 35.371208 54.888100  0.803683 -0.118214 0.583197  0.125456 0.631545 1 1 1.000000
carbonfibre
0  -11.398277 35.371208 54.888100  0.803683 -0.118214 0.583197  0.125456 0.631545 1 1 1.000000
0  -11.180354 35.027142 54.521076  0.803730 -0.118212 0.583133  0.125456 0.631540 1 1 1.000000
0  -10.916563 37.917511 54.096687  0.773118 0.063142 0.631111  0.125457 0.631557 1 1 1.000000
carbonfibre
0  -10.916563 37.917511 54.096687  0.773118 0.063142 0.631111  0.125457 0.631557 1 1 1.000000
0  -10.893608 42.860966 53.270859  0.726038 0.110402 0.678734  0.125457 0.631586 1 1 1.000000
0  -11.272087 42.287476 53.729660  0.725982 0.110400 0.678794  0.125456 0.631586 1 1 1.000000
carbonfibre
0  -11.272087 37.963379 54.521076  0.773008 0.063112 0.631249  0.125456 0.631557 1 1 1.000000
0  -10.916563 37.917511 54.096687  0.773118 0.063142 0.631111  0.125457 0.631557 1 1 1.000000
0  -11.272087 42.287476 53.729660  0.725982 0.110400 0.678794  0.125456 0.631586 1 1 1.000000
carbonfibre
0  -11.272087 37.963379 54.521076  0.773008 0.063112 0.631249  0.125456 0.631557 1 1 1.000000
0  -11.398277 35.371208 54.888100  0.803683 -0.118214 0.583197  0.125456 0.631545 1 1 1.000000
0  -10.916563 37.917511 54.096687  0.773118 0.063142 0.631111  0.125457 0.631557 1 1 1.000000
carbonfibre
0  -11.272087 37.963379 54.521076  0.773008 0.063112 0.631249  0.125456 0.631557 1 1 1.000000
0  -11.352411 37.974834 54.589901  0.925976 0.023504 0.376849  0.125456 0.631557 1 1 1.000000
0  -11.398277 35.371208 54.888100  0.803683 -0.118214 0.583197  0.125456 0.631545 1 1 1.000000
carbonfibre
0  -11.352411 37.974834 54.589901  0.925976 0.023504 0.376849  0.125456 0.631557 1 1 1.000000
0  -11.272087 37.963379 54.521076  0.773008 0.063112 0.631249  0.125456 0.631557 1 1 1.000000
0  -11.352411 42.298931 53.798485  0.673108 0.126672 0.728615  0.125456 0.631586 1 1 1.000000
carbonfibre
0  -11.272087 37.963379 54.521076  0.773008 0.063112 0.631249  0.125456 0.631557 1 1 1.000000
0  -11.272087 42.287476 53.729660  0.673188 0.126684 0.728539  0.125456 0.631586 1 1 1.000000
0  -11.352411 42.298931 53.798485  0.673108 0.126672 0.728615  0.125456 0.631586 1 1 1.000000
carbonfibre
0  -11.352411 42.298931 53.798485  0.994799 0.000044 0.101860  0.125456 0.631586 1 1 1.000000
0  -11.524423 41.599297 55.908897  0.994810 -0.000020 0.101754  0.125455 0.631574 1 1 1.000000
0  -11.352411 37.974834 54.589901  0.925976 0.023504 0.376849  0.125456 0.631557 1 1 1.000000
carbonfibre
0  -11.352411 42.298931 53.798485  0.994799 0.000044 0.101860  0.125456 0.631586 1 1 1.000000
0  -11.524423 42.046597 55.794209  0.996913 0.000023 0.078512  0.125455 0.631586 1 1 1.000000
0  -11.524423 41.599297 55.908897  0.994810 -0.000020 0.101754  0.125455 0.631574 1 1 1.000000
carbonfibre
0  -11.524423 42.046597 55.794209  0.324302 0.229407 0.917715  0.125455 0.631586 1 1 1.000000
0  -11.662067 42.058098 55.828617  0.324276 0.229409 0.917723  0.125455 0.631586 1 1 1.000000
0  -11.524423 41.599297 55.908897  0.994810 -0.000020 0.101754  0.125455 0.631574 1 1 1.000000
carbonfibre
0  -11.662067 42.058098 55.828617  0.324276 0.229409 0.917723  0.125455 0.631586 1 1 1.000000
0  -11.662067 41.610748 55.954803  -0.031632 0.039702 0.998711  0.125455 0.631574 1 1 1.000000
0  -11.524423 41.599297 55.908897  0.994810 -0.000020 0.101754  0.125455 0.631574 1 1 1.000000
carbonfibre
0  -20.126751 36.426460 53.465866  0.496500 -0.425610 0.756534  0.125457 0.631557 1 1 1.000000
0  -19.989107 41.519016 52.628590  0.623730 0.110498 0.773790  0.125457 0.631586 1 1 1.000000
0  -20.424953 40.888161 53.041473  0.623711 0.110500 0.773805  0.125456 0.631586 1 1 1.000000
carbonfibre
0  -20.551142 36.472328 53.832893  0.677609 0.063007 0.732718  0.125456 0.631557 1 1 1.000000
0  -20.126751 36.426460 53.465866  0.496500 -0.425610 0.756534  0.125457 0.631557 1 1 1.000000
0  -20.424953 40.888161 53.041473  0.623711 0.110500 0.773805  0.125456 0.631586 1 1 1.000000
carbonfibre
0  -20.551142 36.472328 53.832893  0.677609 0.063007 0.732718  0.125456 0.631557 1 1 1.000000
0  -20.711697 33.868702 54.176956  0.717713 -0.118286 0.686219  0.125456 0.631545 1 1 1.000000
0  -20.126751 36.426460 53.465866  0.496500 -0.425610 0.756534  0.125457 0.631557 1 1 1.000000
carbonfibre
0  -20.711697 33.868702 54.176956  0.717713 -0.118286 0.686219  0.125456 0.631545 1 1 1.000000
0  -20.447906 33.524590 53.844345  0.717671 -0.118287 0.686262  0.125456 0.631540 1 1 1.000000
0  -20.126751 36.426460 53.465866  0.496500 -0.425610 0.756534  0.125457 0.631557 1 1 1.000000
carbonfibre
0  -20.551142 36.472328 53.832893  0.677609 0.063007 0.732718  0.125456 0.631557 1 1 1.000000
0  -20.424953 40.888161 53.041473  0.553809 0.126578 0.822966  0.125456 0.631586 1 1 1.000000
0  -20.516731 40.865250 53.098846  0.553808 0.126581 0.822966  0.125456 0.631586 1 1 1.000000
carbonfibre
0  -20.631420 36.472328 53.890217  0.864122 0.023608 0.502729  0.125456 0.631557 1 1 1.000000
0  -20.551142 36.472328 53.832893  0.677609 0.063007 0.732718  0.125456 0.631557 1 1 1.000000
0  -20.516731 40.865250 53.098846  0.553808 0.126581 0.822966  0.125456 0.631586 1 1 1.000000
carbonfibre
0  -20.551142 36.472328 53.832893  0.677609 0.063007 0.732718  0.125456 0.631557 1 1 1.000000
0  -20.631420 36.472328 53.890217  0.864122 0.023608 0.502729  0.125456 0.631557 1 1 1.000000
0  -20.711697 33.868702 54.176956  0.717713 -0.118286 0.686219  0.125456 0.631545 1 1 1.000000
carbonfibre
0  -20.631420 36.472328 53.890217  0.864122 0.023608 0.502729  0.125456 0.631557 1 1 1.000000
0  -20.769066 34.006302 54.245781  0.487554 0.007904 0.873057  0.125455 0.631545 1 1 1.000000
0  -20.711697 33.868702 54.176956  0.717713 -0.118286 0.686219  0.125456 0.631545 1 1 1.000000
carbonfibre
0  -20.711697 33.868702 54.176956  0.717713 -0.118286 0.686219  0.125456 0.631545 1 1 1.000000
0  -20.769066 34.006302 54.245781  0.487554 0.007904 0.873057  0.125455 0.631545 1 1 1.000000
0  -20.791977 33.593414 54.199917  0.496514 -0.425603 0.756529  0.125455 0.631540 1 1 1.000000
carbonfibre
0  -20.791977 33.593414 54.199917  0.496514 -0.425603 0.756529  0.125455 0.631540 1 1 1.000000
0  -20.654331 33.157566 53.855850  0.496513 -0.425613 0.756524  0.125456 0.631540 1 1 1.000000
0  -20.711697 33.868702 54.176956  0.717713 -0.118286 0.686219  0.125456 0.631545 1 1 1.000000
carbonfibre
0  -20.654331 33.157566 53.855850  0.496513 -0.425613 0.756524  0.125456 0.631540 1 1 1.000000
0  -20.447906 33.524590 53.844345  0.717671 -0.118287 0.686262  0.125456 0.631540 1 1 1.000000
0  -20.711697 33.868702 54.176956  0.717713 -0.118286 0.686219  0.125456 0.631545 1 1 1.000000
carbonfibre
0  -20.654331 33.157566 53.855850  0.496513 -0.425613 0.756524  0.125456 0.631540 1 1 1.000000
0  -20.791977 33.593414 54.199917  0.496514 -0.425603 0.756529  0.125455 0.631540 1 1 1.000000
0  -20.895210 33.031376 53.821438  -0.126117 -0.622489 0.772400  0.125455 0.631540 1 1 1.000000
carbonfibre
0  -20.791977 33.593414 54.199917  0.496514 -0.425603 0.756529  0.125455 0.631540 1 1 1.000000
0  -20.964033 33.455769 54.188465  -0.126074 -0.622615 0.772306  0.125455 0.631540 1 1 1.000000
0  -20.895210 33.031376 53.821438  -0.126117 -0.622489 0.772400  0.125455 0.631540 1 1 1.000000
carbonfibre
0  -20.895210 33.031376 53.821438  -0.126117 -0.622489 0.772400  0.125455 0.631540 1 1 1.000000
0  -20.964033 33.455769 54.188465  -0.126074 -0.622615 0.772306  0.125455 0.631540 1 1 1.000000
0  -21.136089 33.157566 53.775524  -0.723500 -0.429301 0.540600  0.125454 0.631540 1 1 1.000000
carbonfibre
0  -20.964033 33.455769 54.188465  -0.126074 -0.622615 0.772306  0.125455 0.631540 1 1 1.000000
0  -21.124634 33.593414 54.142548  -0.723515 -0.429274 0.540601  0.125454 0.631540 1 1 1.000000
0  -21.136089 33.157566 53.775524  -0.723500 -0.429301 0.540600  0.125454 0.631540 1 1 1.000000
carbonfibre
0  -21.124634 33.593414 54.142548  -0.723515 -0.429274 0.540601  0.125454 0.631540 1 1 1.000000
0  -21.193411 33.868702 54.096684  -0.903402 -0.118800 0.412009  0.125454 0.631545 1 1 1.000000
0  -21.136089 33.157566 53.775524  -0.723500 -0.429301 0.540600  0.125454 0.631540 1 1 1.000000
carbonfibre
0  -21.193411 33.868702 54.096684  -0.903402 -0.118800 0.412009  0.125454 0.631545 1 1 1.000000
0  -21.124634 33.593414 54.142548  -0.723515 -0.429274 0.540601  0.125454 0.631540 1 1 1.000000
0  -21.170500 34.006302 54.176956  -0.802856 0.000009 0.596173  0.125454 0.631545 1 1 1.000000
carbonfibre
0  -21.170500 34.006302 54.176956  -0.802856 0.000009 0.596173  0.125454 0.631545 1 1 1.000000
0  -21.193411 36.472328 53.798481  -0.989671 0.015788 0.142484  0.125454 0.631557 1 1 1.000000
0  -21.193411 33.868702 54.096684  -0.903402 -0.118800 0.412009  0.125454 0.631545 1 1 1.000000
carbonfibre
0  -21.124634 34.556885 54.245781  -0.770484 -0.047544 0.635684  0.125455 0.631545 1 1 1.000000
0  -21.193411 36.472328 53.798481  -0.989671 0.015788 0.142484  0.125454 0.631557 1 1 1.000000
0  -21.170500 34.006302 54.176956  -0.802856 0.000009 0.596173  0.125454 0.631545 1 1 1.000000
carbonfibre
0  -21.124634 34.556885 54.245781  -0.770484 -0.047544 0.635684  0.125455 0.631545 1 1 1.000000
0  -21.250778 40.096745 55.117523  -0.890958 0.023917 0.453455  0.125455 0.631574 1 1 1.000000
0  -21.193411 36.472328 53.798481  -0.989671 0.015788 0.142484  0.125454 0.631557 1 1 1.000000
carbonfibre
0  -21.250778 40.096745 55.117523  -0.890958 0.023917 0.453455  0.125455 0.631574 1 1 1.000000
0  -21.124634 34.556885 54.245781  -0.770484 -0.047544 0.635684  0.125455 0.631545 1 1 1.000000
0  -20.998444 34.499516 54.303150  -0.165954 -0.110657 0.979905  0.125455 0.631545 1 1 1.000000
carbonfibre
0  -21.136089 40.108242 55.197800  -0.166888 0.039695 0.985176  0.125455 0.631574 1 1 1.000000
0  -21.250778 40.096745 55.117523  -0.890958 0.023917 0.453455  0.125455 0.631574 1 1 1.000000
0  -20.998444 34.499516 54.303150  -0.165954 -0.110657 0.979905  0.125455 0.631545 1 1 1.000000
carbonfibre
0  -20.986988 40.096745 55.163387  0.694996 0.023703 0.718623  0.125455 0.631574 1 1 1.000000
0  -21.136089 40.108242 55.197800  -0.166888 0.039695 0.985176  0.125455 0.631574 1 1 1.000000
0  -20.998444 34.499516 54.303150  -0.165954 -0.110657 0.979905  0.125455 0.631545 1 1 1.000000
carbonfibre
0  -21.113132 40.555546 55.071609  -0.166764 0.254102 0.952692  0.125455 0.631586 1 1 1.000000
0  -21.136089 40.108242 55.197800  -0.166888 0.039695 0.985176  0.125455 0.631574 1 1 1.000000
0  -20.986988 40.096745 55.163387  0.694996 0.023703 0.718623  0.125455 0.631574 1 1 1.000000
carbonfibre
0  -20.964033 40.555546 55.048698  0.700005 0.141499 0.699979  0.125455 0.631586 1 1 1.000000
0  -21.113132 40.555546 55.071609  -0.166764 0.254102 0.952692  0.125455 0.631586 1 1 1.000000
0  -20.986988 40.096745 55.163387  0.694996 0.023703 0.718623  0.125455 0.631574 1 1 1.000000
carbonfibre
0  -20.516731 40.865250 53.098846  0.970147 -0.000004 0.242518  0.125456 0.631586 1 1 1.000000
0  -20.964033 40.555546 55.048698  0.700005 0.141499 0.699979  0.125455 0.631586 1 1 1.000000
0  -20.986988 40.096745 55.163387  0.694996 0.023703 0.718623  0.125455 0.631574 1 1 1.000000
carbonfibre
0  -20.516731 40.865250 53.098846  0.970147 -0.000004 0.242518  0.125456 0.631586 1 1 1.000000
0  -20.986988 40.096745 55.163387  0.694996 0.023703 0.718623  0.125455 0.631574 1 1 1.000000
0  -20.631420 36.472328 53.890217  0.864122 0.023608 0.502729  0.125456 0.631557 1 1 1.000000
carbonfibre
0  -20.986988 40.096745 55.163387  0.694996 0.023703 0.718623  0.125455 0.631574 1 1 1.000000
0  -20.860798 34.556885 54.291695  0.150130 -0.039578 0.987874  0.125455 0.631545 1 1 1.000000
0  -20.631420 36.472328 53.890217  0.864122 0.023608 0.502729  0.125456 0.631557 1 1 1.000000
carbonfibre
0  -20.631420 36.472328 53.890217  0.864122 0.023608 0.502729  0.125456 0.631557 1 1 1.000000
0  -20.860798 34.556885 54.291695  0.150130 -0.039578 0.987874  0.125455 0.631545 1 1 1.000000
0  -20.769066 34.006302 54.245781  0.487554 0.007904 0.873057  0.125455 0.631545 1 1 1.000000
carbonfibre
0  -20.769066 34.006302 54.245781  0.487554 0.007904 0.873057  0.125455 0.631545 1 1 1.000000
0  -20.860798 34.556885 54.291695  0.150130 -0.039578 0.987874  0.125455 0.631545 1 1 1.000000
0  -20.826387 33.857204 54.257286  0.150050 -0.039504 0.987889  0.125455 0.631545 1 1 1.000000
carbonfibre
0  -20.769066 34.006302 54.245781  0.487554 0.007904 0.873057  0.125455 0.631545 1 1 1.000000
0  -20.826387 33.857204 54.257286  0.150050 -0.039504 0.987889  0.125455 0.631545 1 1 1.000000
0  -20.791977 33.593414 54.199917  0.496514 -0.425603 0.756529  0.125455 0.631540 1 1 1.000000
carbonfibre
0  -21.136089 40.108242 55.197800  -0.166888 0.039695 0.985176  0.125455 0.631574 1 1 1.000000
0  -21.113132 40.555546 55.071609  -0.166764 0.254102 0.952692  0.125455 0.631586 1 1 1.000000
0  -21.250778 40.096745 55.117523  -0.890958 0.023917 0.453455  0.125455 0.631574 1 1 1.000000
carbonfibre
0  -21.113132 40.555546 55.071609  -0.166764 0.254102 0.952692  0.125455 0.631586 1 1 1.000000
0  -21.227823 40.555546 55.002785  -0.887355 0.150516 0.435828  0.125455 0.631586 1 1 1.000000
0  -21.250778 40.096745 55.117523  -0.890958 0.023917 0.453455  0.125455 0.631574 1 1 1.000000
carbonfibre
0  -21.250778 40.096745 55.117523  -0.890958 0.023917 0.453455  0.125455 0.631574 1 1 1.000000
0  -21.227823 40.555546 55.002785  -0.887355 0.150516 0.435828  0.125455 0.631586 1 1 1.000000
0  -21.067266 40.865250 53.007065  -0.997957 0.007899 -0.063395  0.125454 0.631586 1 1 1.000000
carbonfibre
0  -21.250778 40.096745 55.117523  -0.890958 0.023917 0.453455  0.125455 0.631574 1 1 1.000000
0  -21.067266 40.865250 53.007065  -0.997957 0.007899 -0.063395  0.125454 0.631586 1 1 1.000000
0  -21.193411 36.472328 53.798481  -0.989671 0.015788 0.142484  0.125454 0.631557 1 1 1.000000
carbonfibre
0  -20.826387 33.857204 54.257286  0.150050 -0.039504 0.987889  0.125455 0.631545 1 1 1.000000
0  -20.975487 33.696648 54.245781  -0.166798 -0.055578 0.984423  0.125455 0.631545 1 1 1.000000
0  -20.791977 33.593414 54.199917  0.496514 -0.425603 0.756529  0.125455 0.631540 1 1 1.000000
carbonfibre
0  -20.975487 33.696648 54.245781  -0.166798 -0.055578 0.984423  0.125455 0.631545 1 1 1.000000
0  -20.964033 33.455769 54.188465  -0.126074 -0.622615 0.772306  0.125455 0.631540 1 1 1.000000
0  -20.791977 33.593414 54.199917  0.496514 -0.425603 0.756529  0.125455 0.631540 1 1 1.000000
carbonfibre
0  -20.975487 33.696648 54.245781  -0.166798 -0.055578 0.984423  0.125455 0.631545 1 1 1.000000
0  -21.113132 33.857204 54.199917  -0.505614 -0.047405 0.861457  0.125455 0.631545 1 1 1.000000
0  -20.964033 33.455769 54.188465  -0.126074 -0.622615 0.772306  0.125455 0.631540 1 1 1.000000
carbonfibre
0  -21.113132 33.857204 54.199917  -0.505614 -0.047405 0.861457  0.125455 0.631545 1 1 1.000000
0  -21.124634 33.593414 54.142548  -0.723515 -0.429274 0.540601  0.125454 0.631540 1 1 1.000000
0  -20.964033 33.455769 54.188465  -0.126074 -0.622615 0.772306  0.125455 0.631540 1 1 1.000000
carbonfibre
0  -21.124634 33.593414 54.142548  -0.723515 -0.429274 0.540601  0.125454 0.631540 1 1 1.000000
0  -21.113132 33.857204 54.199917  -0.505614 -0.047405 0.861457  0.125455 0.631545 1 1 1.000000
0  -21.170500 34.006302 54.176956  -0.802856 0.000009 0.596173  0.125454 0.631545 1 1 1.000000
carbonfibre
0  -21.124634 34.556885 54.245781  -0.770484 -0.047544 0.635684  0.125455 0.631545 1 1 1.000000
0  -21.170500 34.006302 54.176956  -0.802856 0.000009 0.596173  0.125454 0.631545 1 1 1.000000
0  -21.113132 33.857204 54.199917  -0.505614 -0.047405 0.861457  0.125455 0.631545 1 1 1.000000
carbonfibre
0  -20.998444 34.499516 54.303150  -0.165954 -0.110657 0.979905  0.125455 0.631545 1 1 1.000000
0  -21.124634 34.556885 54.245781  -0.770484 -0.047544 0.635684  0.125455 0.631545 1 1 1.000000
0  -21.113132 33.857204 54.199917  -0.505614 -0.047405 0.861457  0.125455 0.631545 1 1 1.000000
carbonfibre
0  -20.975487 33.696648 54.245781  -0.166798 -0.055578 0.984423  0.125455 0.631545 1 1 1.000000
0  -20.998444 34.499516 54.303150  -0.165954 -0.110657 0.979905  0.125455 0.631545 1 1 1.000000
0  -21.113132 33.857204 54.199917  -0.505614 -0.047405 0.861457  0.125455 0.631545 1 1 1.000000
carbonfibre
0  -20.998444 34.499516 54.303150  -0.165954 -0.110657 0.979905  0.125455 0.631545 1 1 1.000000
0  -20.975487 33.696648 54.245781  -0.166798 -0.055578 0.984423  0.125455 0.631545 1 1 1.000000
0  -20.826387 33.857204 54.257286  0.150050 -0.039504 0.987889  0.125455 0.631545 1 1 1.000000
carbonfibre
0  -20.860798 34.556885 54.291695  0.150130 -0.039578 0.987874  0.125455 0.631545 1 1 1.000000
0  -20.998444 34.499516 54.303150  -0.165954 -0.110657 0.979905  0.125455 0.631545 1 1 1.000000
0  -20.826387 33.857204 54.257286  0.150050 -0.039504 0.987889  0.125455 0.631545 1 1 1.000000
carbonfibre
0  -20.860798 34.556885 54.291695  0.150130 -0.039578 0.987874  0.125455 0.631545 1 1 1.000000
0  -20.986988 40.096745 55.163387  0.694996 0.023703 0.718623  0.125455 0.631574 1 1 1.000000
0  -20.998444 34.499516 54.303150  -0.165954 -0.110657 0.979905  0.125455 0.631545 1 1 1.000000
carbonfibre
0  21.061096 40.865253 53.007072  0.997989 0.007895 -0.062887  0.125454 0.631586 1 1 1.000000
0  21.256063 40.096748 55.117531  0.892612 0.023692 0.450203  0.125455 0.631574 1 1 1.000000
0  21.187241 36.472332 53.798489  0.989827 0.015699 0.141409  0.125454 0.631557 1 1 1.000000
carbonfibre
0  21.233107 40.555550 55.002792  0.889045 0.149508 0.432720  0.125455 0.631586 1 1 1.000000
0  21.256063 40.096748 55.117531  0.892612 0.023692 0.450203  0.125455 0.631574 1 1 1.000000
0  21.061096 40.865253 53.007072  0.997989 0.007895 -0.062887  0.125454 0.631586 1 1 1.000000
carbonfibre
0  21.233107 40.555550 55.002792  0.889045 0.149508 0.432720  0.125455 0.631586 1 1 1.000000
0  21.118420 40.555550 55.071617  0.174310 0.253722 0.951441  0.125455 0.631586 1 1 1.000000
0  21.256063 40.096748 55.117531  0.892612 0.023692 0.450203  0.125455 0.631574 1 1 1.000000
carbonfibre
0  21.118420 40.555550 55.071617  0.174310 0.253722 0.951441  0.125455 0.631586 1 1 1.000000
0  21.129919 40.108246 55.197807  0.174482 0.039700 0.983860  0.125455 0.631574 1 1 1.000000
0  21.256063 40.096748 55.117531  0.892612 0.023692 0.450203  0.125455 0.631574 1 1 1.000000
carbonfibre
0  21.324886 33.524593 53.695255  0.904824 -0.117993 0.409109  0.125454 0.631540 1 1 1.000000
0  21.198742 33.868706 54.096691  0.904813 -0.117994 0.409134  0.125454 0.631545 1 1 1.000000
0  21.141376 33.157570 53.775532  0.727283 -0.426899 0.537417  0.125454 0.631540 1 1 1.000000
carbonfibre
0  21.198742 33.868706 54.096691  0.904813 -0.117994 0.409134  0.125454 0.631545 1 1 1.000000
0  21.324886 33.524593 53.695255  0.904824 -0.117993 0.409109  0.125454 0.631540 1 1 1.000000
0  21.256063 36.460873 53.706707  0.891526 0.055199 0.449594  0.125454 0.631557 1 1 1.000000
carbonfibre
0  21.256063 36.460873 53.706707  0.891526 0.055199 0.449594  0.125454 0.631557 1 1 1.000000
0  21.187241 36.472332 53.798489  0.989827 0.015699 0.141409  0.125454 0.631557 1 1 1.000000
0  21.198742 33.868706 54.096691  0.904813 -0.117994 0.409134  0.125454 0.631545 1 1 1.000000
carbonfibre
0  21.187241 36.472332 53.798489  0.989827 0.015699 0.141409  0.125454 0.631557 1 1 1.000000
0  21.256063 36.460873 53.706707  0.891526 0.055199 0.449594  0.125454 0.631557 1 1 1.000000
0  21.129919 40.888165 52.915337  0.820045 0.118307 0.559937  0.125454 0.631586 1 1 1.000000
carbonfibre
0  21.061096 40.865253 53.007072  0.819558 0.118310 0.560650  0.125454 0.631586 1 1 1.000000
0  21.187241 36.472332 53.798489  0.989827 0.015699 0.141409  0.125454 0.631557 1 1 1.000000
0  21.129919 40.888165 52.915337  0.820045 0.118307 0.559937  0.125454 0.631586 1 1 1.000000
carbonfibre
0  21.324886 33.524593 53.695255  0.904824 -0.117993 0.409109  0.125454 0.631540 1 1 1.000000
0  21.519854 36.414963 53.224998  0.891528 0.055192 0.449590  0.125452 0.631557 1 1 1.000000
0  21.256063 36.460873 53.706707  0.891526 0.055199 0.449594  0.125454 0.631557 1 1 1.000000
carbonfibre
0  21.129919 40.888165 52.915337  0.857882 0.102292 0.503563  0.125454 0.631586 1 1 1.000000
0  21.256063 36.460873 53.706707  0.891526 0.055199 0.449594  0.125454 0.631557 1 1 1.000000
0  21.519854 36.414963 53.224998  0.891528 0.055192 0.449590  0.125452 0.631557 1 1 1.000000
carbonfibre
0  21.416666 41.220776 52.410629  0.857841 0.102307 0.503629  0.125452 0.631586 1 1 1.000000
0  21.129919 40.888165 52.915337  0.857882 0.102292 0.503563  0.125454 0.631586 1 1 1.000000
0  21.519854 36.414963 53.224998  0.891528 0.055192 0.449590  0.125452 0.631557 1 1 1.000000
carbonfibre
0  20.453194 33.524593 53.844353  -0.713838 -0.119005 0.690126  0.125456 0.631540 1 1 1.000000
0  20.716984 33.868706 54.176964  -0.713562 -0.118983 0.690414  0.125456 0.631545 1 1 1.000000
0  20.132038 36.426464 53.465874  -0.490470 -0.427173 0.759580  0.125457 0.631557 1 1 1.000000
carbonfibre
0  20.453194 33.524593 53.844353  -0.713838 -0.119005 0.690126  0.125456 0.631540 1 1 1.000000
0  20.659662 33.157570 53.855858  -0.490495 -0.427216 0.759540  0.125456 0.631540 1 1 1.000000
0  20.716984 33.868706 54.176964  -0.713562 -0.118983 0.690414  0.125456 0.631545 1 1 1.000000
carbonfibre
0  20.659662 33.157570 53.855858  -0.490495 -0.427216 0.759540  0.125456 0.631540 1 1 1.000000
0  20.785807 33.593418 54.199924  -0.490544 -0.427190 0.759523  0.125455 0.631540 1 1 1.000000
0  20.716984 33.868706 54.176964  -0.713562 -0.118983 0.690414  0.125456 0.631545 1 1 1.000000
carbonfibre
0  20.785807 33.593418 54.199924  -0.490544 -0.427190 0.759523  0.125455 0.631540 1 1 1.000000
0  20.659662 33.157570 53.855858  -0.490495 -0.427216 0.759540  0.125456 0.631540 1 1 1.000000
0  20.900497 33.031425 53.821445  0.133924 -0.621863 0.771590  0.125455 0.631540 1 1 1.000000
carbonfibre
0  20.969320 33.455772 54.188473  0.133860 -0.621893 0.771577  0.125455 0.631540 1 1 1.000000
0  20.785807 33.593418 54.199924  -0.490544 -0.427190 0.759523  0.125455 0.631540 1 1 1.000000
0  20.900497 33.031425 53.821445  0.133924 -0.621863 0.771590  0.125455 0.631540 1 1 1.000000
carbonfibre
0  20.969320 33.455772 54.188473  0.133860 -0.621893 0.771577  0.125455 0.631540 1 1 1.000000
0  20.900497 33.031425 53.821445  0.133924 -0.621863 0.771590  0.125455 0.631540 1 1 1.000000
0  21.141376 33.157570 53.775532  0.727283 -0.426899 0.537417  0.125454 0.631540 1 1 1.000000
carbonfibre
0  21.129919 33.593418 54.142555  0.727231 -0.426893 0.537491  0.125454 0.631540 1 1 1.000000
0  20.969320 33.455772 54.188473  0.133860 -0.621893 0.771577  0.125455 0.631540 1 1 1.000000
0  21.141376 33.157570 53.775532  0.727283 -0.426899 0.537417  0.125454 0.631540 1 1 1.000000
carbonfibre
0  21.198742 33.868706 54.096691  0.904813 -0.117994 0.409134  0.125454 0.631545 1 1 1.000000
0  21.129919 33.593418 54.142555  0.727231 -0.426893 0.537491  0.125454 0.631540 1 1 1.000000
0  21.141376 33.157570 53.775532  0.727283 -0.426899 0.537417  0.125454 0.631540 1 1 1.000000
carbonfibre
0  21.129919 33.593418 54.142555  0.727231 -0.426893 0.537491  0.125454 0.631540 1 1 1.000000
0  21.198742 33.868706 54.096691  0.904813 -0.117994 0.409134  0.125454 0.631545 1 1 1.000000
0  21.175787 34.006351 54.176964  0.804042 0.000010 0.594572  0.125454 0.631545 1 1 1.000000
carbonfibre
0  21.187241 36.472332 53.798489  0.989827 0.015699 0.141409  0.125454 0.631557 1 1 1.000000
0  21.175787 34.006351 54.176964  0.804042 0.000010 0.594572  0.125454 0.631545 1 1 1.000000
0  21.198742 33.868706 54.096691  0.904813 -0.117994 0.409134  0.125454 0.631545 1 1 1.000000
carbonfibre
0  21.187241 36.472332 53.798489  0.989827 0.015699 0.141409  0.125454 0.631557 1 1 1.000000
0  21.118420 34.556889 54.245789  0.773857 -0.047268 0.631594  0.125455 0.631545 1 1 1.000000
0  21.175787 34.006351 54.176964  0.804042 0.000010 0.594572  0.125454 0.631545 1 1 1.000000
carbonfibre
0  21.256063 40.096748 55.117531  0.892612 0.023692 0.450203  0.125455 0.631574 1 1 1.000000
0  21.118420 34.556889 54.245789  0.773857 -0.047268 0.631594  0.125455 0.631545 1 1 1.000000
0  21.187241 36.472332 53.798489  0.989827 0.015699 0.141409  0.125454 0.631557 1 1 1.000000
carbonfibre
0  21.118420 34.556889 54.245789  0.773857 -0.047268 0.631594  0.125455 0.631545 1 1 1.000000
0  21.256063 40.096748 55.117531  0.892612 0.023692 0.450203  0.125455 0.631574 1 1 1.000000
0  21.003731 34.499519 54.303158  0.173604 -0.110411 0.978607  0.125455 0.631545 1 1 1.000000
carbonfibre
0  21.256063 40.096748 55.117531  0.892612 0.023692 0.450203  0.125455 0.631574 1 1 1.000000
0  21.129919 40.108246 55.197807  0.174482 0.039700 0.983860  0.125455 0.631574 1 1 1.000000
0  21.003731 34.499519 54.303158  0.173604 -0.110411 0.978607  0.125455 0.631545 1 1 1.000000
carbonfibre
0  21.129919 40.108246 55.197807  0.174482 0.039700 0.983860  0.125455 0.631574 1 1 1.000000
0  20.992273 40.096748 55.163395  -0.690872 0.023800 0.722586  0.125455 0.631574 1 1 1.000000
0  21.003731 34.499519 54.303158  0.173604 -0.110411 0.978607  0.125455 0.631545 1 1 1.000000
carbonfibre
0  21.129919 40.108246 55.197807  0.174482 0.039700 0.983860  0.125455 0.631574 1 1 1.000000
0  21.118420 40.555550 55.071617  0.174310 0.253722 0.951441  0.125455 0.631586 1 1 1.000000
0  20.992273 40.096748 55.163395  -0.690872 0.023800 0.722586  0.125455 0.631574 1 1 1.000000
carbonfibre
0  21.118420 40.555550 55.071617  0.174310 0.253722 0.951441  0.125455 0.631586 1 1 1.000000
0  20.969320 40.555550 55.048706  -0.695942 0.142296 0.703858  0.125455 0.631586 1 1 1.000000
0  20.992273 40.096748 55.163395  -0.690872 0.023800 0.722586  0.125455 0.631574 1 1 1.000000
carbonfibre
0  20.969320 40.555550 55.048706  -0.695942 0.142296 0.703858  0.125455 0.631586 1 1 1.000000
0  20.522017 40.865253 53.098854  -0.969673 -0.000010 0.244407  0.125456 0.631586 1 1 1.000000
0  20.992273 40.096748 55.163395  -0.690872 0.023800 0.722586  0.125455 0.631574 1 1 1.000000
carbonfibre
0  19.994390 41.519020 52.628597  -0.618918 0.110997 0.777573  0.125457 0.631586 1 1 1.000000
0  20.132038 36.426464 53.465874  -0.490470 -0.427173 0.759580  0.125457 0.631557 1 1 1.000000
0  20.430237 40.888165 53.041481  -0.618920 0.110994 0.777572  0.125456 0.631586 1 1 1.000000
carbonfibre
0  20.132038 36.426464 53.465874  -0.490470 -0.427173 0.759580  0.125457 0.631557 1 1 1.000000
0  20.544928 36.472332 53.832901  -0.673372 0.063397 0.736580  0.125456 0.631557 1 1 1.000000
0  20.430237 40.888165 53.041481  -0.618920 0.110994 0.777572  0.125456 0.631586 1 1 1.000000
carbonfibre
0  20.716984 33.868706 54.176964  -0.713562 -0.118983 0.690414  0.125456 0.631545 1 1 1.000000
0  20.544928 36.472332 53.832901  -0.673372 0.063397 0.736580  0.125456 0.631557 1 1 1.000000
0  20.132038 36.426464 53.465874  -0.490470 -0.427173 0.759580  0.125457 0.631557 1 1 1.000000
carbonfibre
0  20.636707 36.472332 53.890224  -0.862083 0.023704 0.506212  0.125456 0.631557 1 1 1.000000
0  20.544928 36.472332 53.832901  -0.673372 0.063397 0.736580  0.125456 0.631557 1 1 1.000000
0  20.716984 33.868706 54.176964  -0.713562 -0.118983 0.690414  0.125456 0.631545 1 1 1.000000
carbonfibre
0  20.774353 34.006351 54.245789  -0.481507 0.007903 0.876407  0.125455 0.631545 1 1 1.000000
0  20.636707 36.472332 53.890224  -0.862083 0.023704 0.506212  0.125456 0.631557 1 1 1.000000
0  20.716984 33.868706 54.176964  -0.713562 -0.118983 0.690414  0.125456 0.631545 1 1 1.000000
carbonfibre
0  20.774353 34.006351 54.245789  -0.481507 0.007903 0.876407  0.125455 0.631545 1 1 1.000000
0  20.716984 33.868706 54.176964  -0.713562 -0.118983 0.690414  0.125456 0.631545 1 1 1.000000
0  20.785807 33.593418 54.199924  -0.490544 -0.427190 0.759523  0.125455 0.631540 1 1 1.000000
carbonfibre
0  20.544928 36.472332 53.832901  -0.673372 0.063397 0.736580  0.125456 0.631557 1 1 1.000000
0  20.636707 36.472332 53.890224  -0.862083 0.023704 0.506212  0.125456 0.631557 1 1 1.000000
0  20.522017 40.865253 53.098854  -0.547999 0.127191 0.826753  0.125456 0.631586 1 1 1.000000
carbonfibre
0  20.430237 40.888165 53.041481  -0.547899 0.127201 0.826817  0.125456 0.631586 1 1 1.000000
0  20.544928 36.472332 53.832901  -0.673372 0.063397 0.736580  0.125456 0.631557 1 1 1.000000
0  20.522017 40.865253 53.098854  -0.547999 0.127191 0.826753  0.125456 0.631586 1 1 1.000000
carbonfibre
0  20.992273 40.096748 55.163395  -0.690872 0.023800 0.722586  0.125455 0.631574 1 1 1.000000
0  20.522017 40.865253 53.098854  -0.969673 -0.000010 0.244407  0.125456 0.631586 1 1 1.000000
0  20.636707 36.472332 53.890224  -0.862083 0.023704 0.506212  0.125456 0.631557 1 1 1.000000
carbonfibre
0  20.854630 34.556889 54.291702  -0.142519 -0.039622 0.988999  0.125455 0.631545 1 1 1.000000
0  20.992273 40.096748 55.163395  -0.690872 0.023800 0.722586  0.125455 0.631574 1 1 1.000000
0  20.636707 36.472332 53.890224  -0.862083 0.023704 0.506212  0.125456 0.631557 1 1 1.000000
carbonfibre
0  20.854630 34.556889 54.291702  -0.142519 -0.039622 0.988999  0.125455 0.631545 1 1 1.000000
0  20.636707 36.472332 53.890224  -0.862083 0.023704 0.506212  0.125456 0.631557 1 1 1.000000
0  20.774353 34.006351 54.245789  -0.481507 0.007903 0.876407  0.125455 0.631545 1 1 1.000000
carbonfibre
0  20.854630 34.556889 54.291702  -0.142519 -0.039622 0.988999  0.125455 0.631545 1 1 1.000000
0  20.774353 34.006351 54.245789  -0.481507 0.007903 0.876407  0.125455 0.631545 1 1 1.000000
0  20.831673 33.857208 54.257294  -0.142335 -0.039588 0.989027  0.125455 0.631545 1 1 1.000000
carbonfibre
0  20.831673 33.857208 54.257294  -0.142335 -0.039588 0.989027  0.125455 0.631545 1 1 1.000000
0  20.774353 34.006351 54.245789  -0.481507 0.007903 0.876407  0.125455 0.631545 1 1 1.000000
0  20.785807 33.593418 54.199924  -0.490544 -0.427190 0.759523  0.125455 0.631540 1 1 1.000000
carbonfibre
0  20.980774 33.696651 54.245789  0.174555 -0.055493 0.983083  0.125455 0.631545 1 1 1.000000
0  20.831673 33.857208 54.257294  -0.142335 -0.039588 0.989027  0.125455 0.631545 1 1 1.000000
0  20.785807 33.593418 54.199924  -0.490544 -0.427190 0.759523  0.125455 0.631540 1 1 1.000000
carbonfibre
0  20.969320 33.455772 54.188473  0.133860 -0.621893 0.771577  0.125455 0.631540 1 1 1.000000
0  20.980774 33.696651 54.245789  0.174555 -0.055493 0.983083  0.125455 0.631545 1 1 1.000000
0  20.785807 33.593418 54.199924  -0.490544 -0.427190 0.759523  0.125455 0.631540 1 1 1.000000
carbonfibre
0  21.118420 33.857208 54.199924  0.511556 -0.047182 0.857953  0.125455 0.631545 1 1 1.000000
0  20.980774 33.696651 54.245789  0.174555 -0.055493 0.983083  0.125455 0.631545 1 1 1.000000
0  20.969320 33.455772 54.188473  0.133860 -0.621893 0.771577  0.125455 0.631540 1 1 1.000000
carbonfibre
0  21.129919 33.593418 54.142555  0.727231 -0.426893 0.537491  0.125454 0.631540 1 1 1.000000
0  21.118420 33.857208 54.199924  0.511556 -0.047182 0.857953  0.125455 0.631545 1 1 1.000000
0  20.969320 33.455772 54.188473  0.133860 -0.621893 0.771577  0.125455 0.631540 1 1 1.000000
carbonfibre
0  21.118420 33.857208 54.199924  0.511556 -0.047182 0.857953  0.125455 0.631545 1 1 1.000000
0  21.129919 33.593418 54.142555  0.727231 -0.426893 0.537491  0.125454 0.631540 1 1 1.000000
0  21.175787 34.006351 54.176964  0.804042 0.000010 0.594572  0.125454 0.631545 1 1 1.000000
carbonfibre
0  21.175787 34.006351 54.176964  0.804042 0.000010 0.594572  0.125454 0.631545 1 1 1.000000
0  21.118420 34.556889 54.245789  0.773857 -0.047268 0.631594  0.125455 0.631545 1 1 1.000000
0  21.118420 33.857208 54.199924  0.511556 -0.047182 0.857953  0.125455 0.631545 1 1 1.000000
carbonfibre
0  21.118420 34.556889 54.245789  0.773857 -0.047268 0.631594  0.125455 0.631545 1 1 1.000000
0  21.003731 34.499519 54.303158  0.173604 -0.110411 0.978607  0.125455 0.631545 1 1 1.000000
0  21.118420 33.857208 54.199924  0.511556 -0.047182 0.857953  0.125455 0.631545 1 1 1.000000
carbonfibre
0  21.003731 34.499519 54.303158  0.173604 -0.110411 0.978607  0.125455 0.631545 1 1 1.000000
0  20.980774 33.696651 54.245789  0.174555 -0.055493 0.983083  0.125455 0.631545 1 1 1.000000
0  21.118420 33.857208 54.199924  0.511556 -0.047182 0.857953  0.125455 0.631545 1 1 1.000000
carbonfibre
0  20.980774 33.696651 54.245789  0.174555 -0.055493 0.983083  0.125455 0.631545 1 1 1.000000
0  21.003731 34.499519 54.303158  0.173604 -0.110411 0.978607  0.125455 0.631545 1 1 1.000000
0  20.831673 33.857208 54.257294  -0.142335 -0.039588 0.989027  0.125455 0.631545 1 1 1.000000
carbonfibre
0  21.003731 34.499519 54.303158  0.173604 -0.110411 0.978607  0.125455 0.631545 1 1 1.000000
0  20.854630 34.556889 54.291702  -0.142519 -0.039622 0.988999  0.125455 0.631545 1 1 1.000000
0  20.831673 33.857208 54.257294  -0.142335 -0.039588 0.989027  0.125455 0.631545 1 1 1.000000
carbonfibre
0  20.992273 40.096748 55.163395  -0.690872 0.023800 0.722586  0.125455 0.631574 1 1 1.000000
0  20.854630 34.556889 54.291702  -0.142519 -0.039622 0.988999  0.125455 0.631545 1 1 1.000000
0  21.003731 34.499519 54.303158  0.173604 -0.110411 0.978607  0.125455 0.631545 1 1 1.000000
carbonfibre
0  -21.193411 33.868702 54.096684  -0.903402 -0.118800 0.412009  0.125454 0.631545 1 1 1.000000
0  -21.319599 33.524590 53.695248  -0.903412 -0.118787 0.411990  0.125454 0.631540 1 1 1.000000
0  -21.136089 33.157566 53.775524  -0.723500 -0.429301 0.540600  0.125454 0.631540 1 1 1.000000
carbonfibre
0  -21.319599 33.524590 53.695248  -0.903412 -0.118787 0.411990  0.125454 0.631540 1 1 1.000000
0  -21.193411 33.868702 54.096684  -0.903402 -0.118800 0.412009  0.125454 0.631545 1 1 1.000000
0  -21.250778 36.460869 53.706699  -0.889821 0.055595 0.452910  0.125454 0.631557 1 1 1.000000
carbonfibre
0  -21.514568 36.414959 53.224991  -0.889888 0.055595 0.452780  0.125452 0.631557 1 1 1.000000
0  -21.319599 33.524590 53.695248  -0.903412 -0.118787 0.411990  0.125454 0.631540 1 1 1.000000
0  -21.250778 36.460869 53.706699  -0.889821 0.055595 0.452910  0.125454 0.631557 1 1 1.000000
carbonfibre
0  -21.250778 36.460869 53.706699  -0.889821 0.055595 0.452910  0.125454 0.631557 1 1 1.000000
0  -21.124634 40.888161 52.915329  -0.855769 0.103001 0.507001  0.125454 0.631586 1 1 1.000000
0  -21.514568 36.414959 53.224991  -0.889888 0.055595 0.452780  0.125452 0.631557 1 1 1.000000
carbonfibre
0  -21.124634 40.888161 52.915329  -0.855769 0.103001 0.507001  0.125454 0.631586 1 1 1.000000
0  -21.411335 41.220772 52.410622  -0.855773 0.102998 0.506995  0.125452 0.631586 1 1 1.000000
0  -21.514568 36.414959 53.224991  -0.889888 0.055595 0.452780  0.125452 0.631557 1 1 1.000000
carbonfibre
0  -21.193411 36.472328 53.798481  -0.989671 0.015788 0.142484  0.125454 0.631557 1 1 1.000000
0  -21.250778 36.460869 53.706699  -0.889821 0.055595 0.452910  0.125454 0.631557 1 1 1.000000
0  -21.193411 33.868702 54.096684  -0.903402 -0.118800 0.412009  0.125454 0.631545 1 1 1.000000
carbonfibre
0  -21.250778 36.460869 53.706699  -0.889821 0.055595 0.452910  0.125454 0.631557 1 1 1.000000
0  -21.193411 36.472328 53.798481  -0.989671 0.015788 0.142484  0.125454 0.631557 1 1 1.000000
0  -21.124634 40.888161 52.915329  -0.817484 0.119016 0.563521  0.125454 0.631586 1 1 1.000000
carbonfibre
0  -21.193411 36.472328 53.798481  -0.989671 0.015788 0.142484  0.125454 0.631557 1 1 1.000000
0  -21.067266 40.865250 53.007065  -0.817402 0.119018 0.563639  0.125454 0.631586 1 1 1.000000
0  -21.124634 40.888161 52.915329  -0.817484 0.119016 0.563521  0.125454 0.631586 1 1 1.000000
carbonfibre
0  11.655897 42.058098 55.828621  0.000002 0.990864 -0.134864  0.125455 0.631586 1 1 1.000000
0  11.793543 42.046597 55.782753  -0.000001 0.999968 -0.008011  0.125455 0.631586 1 1 1.000000
0  11.529753 42.046597 55.794212  -0.000001 0.999969 -0.007912  0.125455 0.631586 1 1 1.000000
carbonfibre
0  11.529753 42.046597 55.794212  -0.000001 0.999969 -0.007912  0.125455 0.631586 1 1 1.000000
0  11.793543 42.046597 55.782753  -0.000001 0.999968 -0.008011  0.125455 0.631586 1 1 1.000000
0  11.908232 42.298931 53.787037  0.000001 0.999968 -0.008019  0.125454 0.631586 1 1 1.000000
carbonfibre
0  11.357697 42.298931 53.798489  -0.000000 0.999967 -0.008135  0.125456 0.631586 1 1 1.000000
0  11.529753 42.046597 55.794212  -0.000001 0.999969 -0.007912  0.125455 0.631586 1 1 1.000000
0  11.908232 42.298931 53.787037  0.000001 0.999968 -0.008019  0.125454 0.631586 1 1 1.000000
carbonfibre
0  11.277418 42.287476 53.729664  0.023779 0.936709 0.349302  0.125456 0.631586 1 1 1.000000
0  11.357697 42.298931 53.798489  -0.000000 0.999967 -0.008135  0.125456 0.631586 1 1 1.000000
0  11.908232 42.298931 53.787037  0.000001 0.999968 -0.008019  0.125454 0.631586 1 1 1.000000
carbonfibre
0  11.977055 42.287476 53.706707  0.023802 0.936711 0.349294  0.125454 0.631586 1 1 1.000000
0  11.277418 42.287476 53.729664  0.023779 0.936709 0.349302  0.125456 0.631586 1 1 1.000000
0  11.908232 42.298931 53.787037  0.000001 0.999968 -0.008019  0.125454 0.631586 1 1 1.000000
carbonfibre
0  11.277418 42.287476 53.729664  0.023779 0.936709 0.349302  0.125456 0.631586 1 1 1.000000
0  11.977055 42.287476 53.706707  0.023802 0.936711 0.349294  0.125454 0.631586 1 1 1.000000
0  10.887440 42.860966 53.270863  0.047388 0.648798 0.759484  0.125457 0.631586 1 1 1.000000
carbonfibre
0  11.977055 42.287476 53.706707  0.023794 0.936704 0.349313  0.125454 0.631586 1 1 1.000000
0  12.332623 42.792145 53.224998  0.047402 0.648783 0.759496  0.125452 0.631586 1 1 1.000000
0  10.887440 42.860966 53.270863  0.047383 0.648788 0.759493  0.125457 0.631586 1 1 1.000000
carbonfibre
0  21.118420 40.555550 55.071617  -0.015800 0.990740 -0.134850  0.125455 0.631586 1 1 1.000000
0  21.233107 40.555550 55.002792  0.007997 0.999968 -0.000030  0.125455 0.631586 1 1 1.000000
0  20.969320 40.555550 55.048706  0.008000 0.999968 -0.000017  0.125455 0.631586 1 1 1.000000
carbonfibre
0  20.969320 40.555550 55.048706  0.008000 0.999968 -0.000017  0.125455 0.631586 1 1 1.000000
0  21.233107 40.555550 55.002792  0.007997 0.999968 -0.000030  0.125455 0.631586 1 1 1.000000
0  21.061096 40.865253 53.007072  0.039593 0.974289 0.221796  0.125454 0.631586 1 1 1.000000
carbonfibre
0  20.522017 40.865253 53.098854  0.039595 0.974292 0.221782  0.125456 0.631586 1 1 1.000000
0  20.969320 40.555550 55.048706  0.008000 0.999968 -0.000017  0.125455 0.631586 1 1 1.000000
0  21.061096 40.865253 53.007072  0.039593 0.974289 0.221796  0.125454 0.631586 1 1 1.000000
carbonfibre
0  20.430237 40.888165 53.041481  0.135083 0.850327 0.508623  0.125456 0.631586 1 1 1.000000
0  20.522017 40.865253 53.098854  0.039595 0.974292 0.221782  0.125456 0.631586 1 1 1.000000
0  21.061096 40.865253 53.007072  0.039593 0.974289 0.221796  0.125454 0.631586 1 1 1.000000
carbonfibre
0  21.129919 40.888165 52.915337  0.135092 0.850331 0.508613  0.125454 0.631586 1 1 1.000000
0  20.430237 40.888165 53.041481  0.135083 0.850327 0.508623  0.125456 0.631586 1 1 1.000000
0  21.061096 40.865253 53.007072  0.039593 0.974289 0.221796  0.125454 0.631586 1 1 1.000000
carbonfibre
0  20.430237 40.888165 53.041481  0.135083 0.850327 0.508623  0.125456 0.631586 1 1 1.000000
0  21.129919 40.888165 52.915337  0.135092 0.850331 0.508613  0.125454 0.631586 1 1 1.000000
0  19.994390 41.519020 52.628597  -0.618935 0.111034 0.777554  0.125457 0.631586 1 1 1.000000
carbonfibre
0  21.129919 40.888165 52.915337  0.135092 0.850331 0.508613  0.125454 0.631586 1 1 1.000000
0  21.416666 41.220776 52.410629  0.214380 0.690661 0.690673  0.125452 0.631586 1 1 1.000000
0  19.994390 41.519020 52.628597  -0.618935 0.111034 0.777554  0.125457 0.631586 1 1 1.000000
carbonfibre
0  -12.327337 42.792145 53.224995  -0.039589 0.648966 0.759786  0.125452 0.631586 1 1 1.000000
0  -11.971769 42.287476 53.706703  -0.015798 0.936846 0.349386  0.125454 0.631586 1 1 1.000000
0  -10.893608 42.860966 53.270859  -0.039558 0.648914 0.759833  0.125457 0.631586 1 1 1.000000
carbonfibre
0  -11.971769 42.287476 53.706703  -0.015798 0.936846 0.349386  0.125454 0.631586 1 1 1.000000
0  -11.272087 42.287476 53.729660  -0.015780 0.936839 0.349404  0.125456 0.631586 1 1 1.000000
0  -10.893608 42.860966 53.270859  -0.039558 0.648914 0.759833  0.125457 0.631586 1 1 1.000000
carbonfibre
0  -11.272087 42.287476 53.729660  -0.015780 0.936839 0.349404  0.125456 0.631586 1 1 1.000000
0  -11.971769 42.287476 53.706703  -0.015798 0.936846 0.349386  0.125454 0.631586 1 1 1.000000
0  -11.902946 42.298931 53.787033  -0.000003 0.999970 -0.007800  0.125454 0.631586 1 1 1.000000
carbonfibre
0  -11.352411 42.298931 53.798485  -0.000000 0.999968 -0.007937  0.125456 0.631586 1 1 1.000000
0  -11.272087 42.287476 53.729660  -0.015780 0.936839 0.349404  0.125456 0.631586 1 1 1.000000
0  -11.902946 42.298931 53.787033  -0.000003 0.999970 -0.007800  0.125454 0.631586 1 1 1.000000
carbonfibre
0  -11.524423 42.046597 55.794209  -0.000003 0.999968 -0.008012  0.125455 0.631586 1 1 1.000000
0  -11.352411 42.298931 53.798485  -0.000000 0.999968 -0.007937  0.125456 0.631586 1 1 1.000000
0  -11.902946 42.298931 53.787033  -0.000003 0.999970 -0.007800  0.125454 0.631586 1 1 1.000000
carbonfibre
0  -11.788257 42.046597 55.782749  0.000000 0.999968 -0.008013  0.125455 0.631586 1 1 1.000000
0  -11.524423 42.046597 55.794209  -0.000003 0.999968 -0.008012  0.125455 0.631586 1 1 1.000000
0  -11.902946 42.298931 53.787033  -0.000003 0.999970 -0.007800  0.125454 0.631586 1 1 1.000000
carbonfibre
0  -11.788257 42.046597 55.782749  0.000000 0.999968 -0.008013  0.125455 0.631586 1 1 1.000000
0  -11.662067 42.058098 55.828617  0.000003 0.990850 -0.134965  0.125455 0.631586 1 1 1.000000
0  -11.524423 42.046597 55.794209  -0.000003 0.999968 -0.008012  0.125455 0.631586 1 1 1.000000
carbonfibre
0  -21.411335 41.220772 52.410622  -0.206685 0.691790 0.691887  0.125452 0.631586 1 1 1.000000
0  -21.124634 40.888161 52.915329  -0.127302 0.851224 0.509128  0.125454 0.631586 1 1 1.000000
0  -19.989107 41.519016 52.628590  0.623734 0.110527 0.773783  0.125457 0.631586 1 1 1.000000
carbonfibre
0  -21.124634 40.888161 52.915329  -0.127302 0.851224 0.509128  0.125454 0.631586 1 1 1.000000
0  -20.424953 40.888161 53.041473  -0.127306 0.851238 0.509105  0.125456 0.631586 1 1 1.000000
0  -19.989107 41.519016 52.628590  0.623734 0.110527 0.773783  0.125457 0.631586 1 1 1.000000
carbonfibre
0  -20.424953 40.888161 53.041473  -0.127306 0.851238 0.509105  0.125456 0.631586 1 1 1.000000
0  -21.124634 40.888161 52.915329  -0.127302 0.851224 0.509128  0.125454 0.631586 1 1 1.000000
0  -21.067266 40.865250 53.007065  -0.031719 0.974550 0.221917  0.125454 0.631586 1 1 1.000000
carbonfibre
0  -20.516731 40.865250 53.098846  -0.031708 0.974552 0.221908  0.125456 0.631586 1 1 1.000000
0  -20.424953 40.888161 53.041473  -0.127306 0.851238 0.509105  0.125456 0.631586 1 1 1.000000
0  -21.067266 40.865250 53.007065  -0.031719 0.974550 0.221917  0.125454 0.631586 1 1 1.000000
carbonfibre
0  -20.964033 40.555546 55.048698  0.000007 1.000000 -0.000018  0.125455 0.631586 1 1 1.000000
0  -20.516731 40.865250 53.098846  -0.031708 0.974552 0.221908  0.125456 0.631586 1 1 1.000000
0  -21.067266 40.865250 53.007065  -0.031719 0.974550 0.221917  0.125454 0.631586 1 1 1.000000
carbonfibre
0  -21.227823 40.555546 55.002785  0.000001 1.000000 0.000019  0.125455 0.631586 1 1 1.000000
0  -20.964033 40.555546 55.048698  0.000007 1.000000 -0.000018  0.125455 0.631586 1 1 1.000000
0  -21.067266 40.865250 53.007065  -0.031719 0.974550 0.221917  0.125454 0.631586 1 1 1.000000
carbonfibre
0  -21.227823 40.555546 55.002785  0.000001 1.000000 0.000019  0.125455 0.631586 1 1 1.000000
0  -21.113132 40.555546 55.071609  0.023801 0.990603 -0.134683  0.125455 0.631586 1 1 1.000000
0  -20.964033 40.555546 55.048698  0.000007 1.000000 -0.000018  0.125455 0.631586 1 1 1.000000
end
