version 1
nodes
0 "blender_implicit" -1
1 "root" -1
2 "steering_wheel" 1
end
skeleton
time 0
0  0.000000 0.000000 0.000000  0.000000 -0.000000 0.000000
1  0.000000 0.000000 0.000000  1.570796 -0.000000 0.000000
2  16.702593 33.588806 6.160704  0.000000 -0.000000 0.000000
end
triangles
skin_0
0  -24.944014 -2.903314 52.135372  -0.185896 -0.249047 0.950483  0.629688 0.539650 1 1 1.000000
0  -26.721857 1.179950 52.846466  -0.189305 -0.201621 0.960996  0.638907 0.525873 1 1 1.000000
0  -26.343332 -2.857403 51.837128  -0.212835 -0.255713 0.943034  0.637005 0.539555 1 1 1.000000
skin_0
0  -26.343332 -2.857403 51.837128  -0.212835 -0.255713 0.943034  0.637005 0.539555 1 1 1.000000
0  -26.721857 1.179950 52.846466  -0.189305 -0.201621 0.960996  0.638907 0.525873 1 1 1.000000
0  -27.111790 -2.926225 51.642159  -0.216147 -0.255828 0.942249  0.640956 0.539745 1 1 1.000000
skin_0
0  -25.620743 24.991127 53.809937  -0.237602 0.099890 0.966213  0.633200 0.445495 1 1 1.000000
0  -20.574051 25.071405 55.014286  -0.165886 0.087300 0.982273  0.606861 0.445115 1 1 1.000000
0  -20.482319 32.113819 54.245781  -0.173518 0.137301 0.975213  0.606422 0.421362 1 1 1.000000
skin_0
0  -25.620743 24.991127 53.809937  -0.237602 0.099890 0.966213  0.633200 0.445495 1 1 1.000000
0  -25.723974 18.074862 54.291695  -0.223396 0.045428 0.973669  0.633786 0.468772 1 1 1.000000
0  -20.574051 25.071405 55.014286  -0.165886 0.087300 0.982273  0.606861 0.445115 1 1 1.000000
skin_0
0  -25.723974 18.074862 54.291695  -0.223396 0.045428 0.973669  0.633786 0.468772 1 1 1.000000
0  -20.642876 18.166595 55.427177  -0.158651 0.028488 0.986924  0.607300 0.468487 1 1 1.000000
0  -20.574051 25.071405 55.014286  -0.165886 0.087300 0.982273  0.606861 0.445115 1 1 1.000000
skin_0
0  -20.642876 18.166595 55.427177  -0.158651 0.028488 0.986924  0.607300 0.468487 1 1 1.000000
0  -25.723974 18.074862 54.291695  -0.223396 0.045428 0.973669  0.633786 0.468772 1 1 1.000000
0  -25.987764 11.594442 54.245781  -0.208991 -0.022788 0.977652  0.635103 0.490720 1 1 1.000000
skin_0
0  -20.746107 11.479753 55.335400  -0.149689 -0.042152 0.987834  0.607886 0.491100 1 1 1.000000
0  -20.642876 18.166595 55.427177  -0.158651 0.028488 0.986924  0.607300 0.468487 1 1 1.000000
0  -25.987764 11.594442 54.245781  -0.208991 -0.022788 0.977652  0.635103 0.490720 1 1 1.000000
skin_0
0  -20.746107 11.479753 55.335400  -0.149689 -0.042152 0.987834  0.607886 0.491100 1 1 1.000000
0  -25.987764 11.594442 54.245781  -0.208991 -0.022788 0.977652  0.635103 0.490720 1 1 1.000000
0  -26.308922 6.272507 53.809937  -0.196699 -0.105266 0.974797  0.636713 0.508677 1 1 1.000000
skin_0
0  -20.929619 5.916939 54.830730  -0.144127 -0.130913 0.980862  0.608763 0.509912 1 1 1.000000
0  -20.746107 11.479753 55.335400  -0.149689 -0.042152 0.987834  0.607886 0.491100 1 1 1.000000
0  -26.308922 6.272507 53.809937  -0.196699 -0.105266 0.974797  0.636713 0.508677 1 1 1.000000
skin_0
0  -20.929619 5.916939 54.830730  -0.144127 -0.130913 0.980862  0.608763 0.509912 1 1 1.000000
0  -26.308922 6.272507 53.809937  -0.196699 -0.105266 0.974797  0.636713 0.508677 1 1 1.000000
0  -26.721857 1.179950 52.846466  -0.189305 -0.201621 0.960996  0.638907 0.525873 1 1 1.000000
skin_0
0  -21.170498 0.767015 53.809937  -0.129630 -0.233208 0.963748  0.610080 0.527299 1 1 1.000000
0  -20.929619 5.916939 54.830730  -0.144127 -0.130913 0.980862  0.608763 0.509912 1 1 1.000000
0  -26.721857 1.179950 52.846466  -0.189305 -0.201621 0.960996  0.638907 0.525873 1 1 1.000000
skin_0
0  -21.170498 0.767015 53.809937  -0.129630 -0.233208 0.963748  0.610080 0.527299 1 1 1.000000
0  -26.721857 1.179950 52.846466  -0.189305 -0.201621 0.960996  0.638907 0.525873 1 1 1.000000
0  -24.944014 -2.903314 52.135372  -0.185896 -0.249047 0.950483  0.629688 0.539650 1 1 1.000000
skin_0
0  -24.944014 -2.903314 52.135372  -0.185896 -0.249047 0.950483  0.629688 0.539650 1 1 1.000000
0  -23.361229 -3.086826 52.376205  -0.121306 -0.284790 0.950883  0.621494 0.540315 1 1 1.000000
0  -21.170498 0.767015 53.809937  -0.129630 -0.233208 0.963748  0.610080 0.527299 1 1 1.000000
skin_0
0  -23.361229 -3.086826 52.376205  -0.121306 -0.284790 0.950883  0.621494 0.540315 1 1 1.000000
0  -13.772517 -4.176441 53.179123  -0.110133 -0.287000 0.951579  0.571595 0.543925 1 1 1.000000
0  -21.170498 0.767015 53.809937  -0.129630 -0.233208 0.963748  0.610080 0.527299 1 1 1.000000
skin_0
0  -13.772517 -4.176441 53.179123  -0.110133 -0.287000 0.951579  0.571595 0.543925 1 1 1.000000
0  -13.761018 0.285302 54.509624  -0.103390 -0.238200 0.965697  0.571449 0.528914 1 1 1.000000
0  -21.170498 0.767015 53.809937  -0.129630 -0.233208 0.963748  0.610080 0.527299 1 1 1.000000
skin_0
0  -13.761018 0.285302 54.509624  -0.103390 -0.238200 0.965697  0.571449 0.528914 1 1 1.000000
0  -13.772517 -4.176441 53.179123  -0.110133 -0.287000 0.951579  0.571595 0.543925 1 1 1.000000
0  -13.566051 -4.187897 53.190582  -0.061741 -0.284986 0.956541  0.570424 0.544020 1 1 1.000000
skin_0
0  -13.543095 0.273847 54.521076  -0.042820 -0.249564 0.967411  0.570424 0.528914 1 1 1.000000
0  -13.761018 0.285302 54.509624  -0.103390 -0.238200 0.965697  0.571449 0.528914 1 1 1.000000
0  -13.566051 -4.187897 53.190582  -0.061741 -0.284986 0.956541  0.570424 0.544020 1 1 1.000000
skin_0
0  -13.543095 0.273847 54.521076  -0.042820 -0.249564 0.967411  0.570424 0.528914 1 1 1.000000
0  -13.566051 -4.187897 53.190582  -0.061741 -0.284986 0.956541  0.570424 0.544020 1 1 1.000000
0  -11.914398 -4.302586 53.259403  -0.030920 -0.282004 0.958915  0.561938 0.544400 1 1 1.000000
skin_0
0  -11.914398 0.193524 54.555489  -0.025188 -0.222045 0.974711  0.561938 0.529199 1 1 1.000000
0  -13.543095 0.273847 54.521076  -0.042820 -0.249564 0.967411  0.570424 0.528914 1 1 1.000000
0  -11.914398 -4.302586 53.259403  -0.030920 -0.282004 0.958915  0.561938 0.544400 1 1 1.000000
skin_0
0  -11.914398 0.193524 54.555489  -0.025188 -0.222045 0.974711  0.561938 0.529199 1 1 1.000000
0  -11.914398 -4.302586 53.259403  -0.030920 -0.282004 0.958915  0.561938 0.544400 1 1 1.000000
0  0.002645 -0.288189 54.796371  0.000000 -0.228732 0.973489  0.500040 0.530814 1 1 1.000000
skin_0
0  -11.914398 -4.302586 53.259403  -0.030920 -0.282004 0.958915  0.561938 0.544400 1 1 1.000000
0  0.002646 -4.681109 53.477329  -0.000000 -0.287581 0.957756  0.500040 0.545731 1 1 1.000000
0  0.002645 -0.288189 54.796371  0.000000 -0.228732 0.973489  0.500040 0.530814 1 1 1.000000
skin_0
0  0.002646 -4.681109 53.477329  -0.000000 -0.287581 0.957756  0.500040 0.545731 1 1 1.000000
0  11.919691 -4.302584 53.259407  0.030917 -0.282003 0.958915  0.437995 0.544400 1 1 1.000000
0  0.002645 -0.288189 54.796371  0.000000 -0.228732 0.973489  0.500040 0.530814 1 1 1.000000
skin_0
0  -20.482319 32.113819 54.245781  -0.173518 0.137301 0.975213  0.606422 0.421362 1 1 1.000000
0  -20.574051 25.071405 55.014286  -0.165886 0.087300 0.982273  0.606861 0.445115 1 1 1.000000
0  -13.715154 32.113819 55.071613  -0.117008 0.125210 0.985206  0.571303 0.421362 1 1 1.000000
skin_0
0  -20.574051 25.071405 55.014286  -0.165886 0.087300 0.982273  0.606861 0.445115 1 1 1.000000
0  -13.738110 25.082861 55.828617  -0.113002 0.075987 0.990685  0.571303 0.445115 1 1 1.000000
0  -13.715154 32.113819 55.071613  -0.117008 0.125210 0.985206  0.571303 0.421362 1 1 1.000000
skin_0
0  -20.574051 25.071405 55.014286  -0.165886 0.087300 0.982273  0.606861 0.445115 1 1 1.000000
0  -20.642876 18.166595 55.427177  -0.158651 0.028488 0.986924  0.607300 0.468487 1 1 1.000000
0  -13.738110 25.082861 55.828617  -0.113002 0.075987 0.990685  0.571303 0.445115 1 1 1.000000
skin_0
0  -20.642876 18.166595 55.427177  -0.158651 0.028488 0.986924  0.607300 0.468487 1 1 1.000000
0  -13.726653 18.166597 56.241550  -0.108347 0.010399 0.994059  0.571303 0.468487 1 1 1.000000
0  -13.738110 25.082861 55.828617  -0.113002 0.075987 0.990685  0.571303 0.445115 1 1 1.000000
skin_0
0  -13.726653 18.166597 56.241550  -0.108347 0.010399 0.994059  0.571303 0.468487 1 1 1.000000
0  -20.642876 18.166595 55.427177  -0.158651 0.028488 0.986924  0.607300 0.468487 1 1 1.000000
0  -20.746107 11.479753 55.335400  -0.149689 -0.042152 0.987834  0.607886 0.491100 1 1 1.000000
skin_0
0  -13.738108 11.261830 56.115364  -0.106012 -0.063282 0.992349  0.571303 0.491765 1 1 1.000000
0  -13.726653 18.166597 56.241550  -0.108347 0.010399 0.994059  0.571303 0.468487 1 1 1.000000
0  -20.746107 11.479753 55.335400  -0.149689 -0.042152 0.987834  0.607886 0.491100 1 1 1.000000
skin_0
0  -13.738108 11.261830 56.115364  -0.106012 -0.063282 0.992349  0.571303 0.491765 1 1 1.000000
0  -20.746107 11.479753 55.335400  -0.149689 -0.042152 0.987834  0.607886 0.491100 1 1 1.000000
0  -20.929619 5.916939 54.830730  -0.144127 -0.130913 0.980862  0.608763 0.509912 1 1 1.000000
skin_0
0  -13.749563 5.481093 55.564827  -0.105603 -0.158211 0.981742  0.571449 0.511337 1 1 1.000000
0  -13.738108 11.261830 56.115364  -0.106012 -0.063282 0.992349  0.571303 0.491765 1 1 1.000000
0  -20.929619 5.916939 54.830730  -0.144127 -0.130913 0.980862  0.608763 0.509912 1 1 1.000000
skin_0
0  -13.749563 5.481093 55.564827  -0.105603 -0.158211 0.981742  0.571449 0.511337 1 1 1.000000
0  -20.929619 5.916939 54.830730  -0.144127 -0.130913 0.980862  0.608763 0.509912 1 1 1.000000
0  -21.170498 0.767015 53.809937  -0.129630 -0.233208 0.963748  0.610080 0.527299 1 1 1.000000
skin_0
0  -13.761018 0.285302 54.509624  -0.103390 -0.238200 0.965697  0.571449 0.528914 1 1 1.000000
0  -13.749563 5.481093 55.564827  -0.105603 -0.158211 0.981742  0.571449 0.511337 1 1 1.000000
0  -21.170498 0.767015 53.809937  -0.129630 -0.233208 0.963748  0.610080 0.527299 1 1 1.000000
skin_0
0  -13.531639 5.481093 55.564827  0.013410 -0.152138 0.988268  0.570279 0.511337 1 1 1.000000
0  -13.749563 5.481093 55.564827  -0.105603 -0.158211 0.981742  0.571449 0.511337 1 1 1.000000
0  -13.761018 0.285302 54.509624  -0.103390 -0.238200 0.965697  0.571449 0.528914 1 1 1.000000
skin_0
0  -13.543095 0.273847 54.521076  -0.042820 -0.249564 0.967411  0.570424 0.528914 1 1 1.000000
0  -13.531639 5.481093 55.564827  0.013410 -0.152138 0.988268  0.570279 0.511337 1 1 1.000000
0  -13.761018 0.285302 54.509624  -0.103390 -0.238200 0.965697  0.571449 0.528914 1 1 1.000000
skin_0
0  -13.543095 0.273847 54.521076  -0.042820 -0.249564 0.967411  0.570424 0.528914 1 1 1.000000
0  -11.914398 0.193524 54.555489  -0.025188 -0.222045 0.974711  0.561938 0.529199 1 1 1.000000
0  -13.531639 5.481093 55.564827  0.013410 -0.152138 0.988268  0.570279 0.511337 1 1 1.000000
skin_0
0  -11.914398 0.193524 54.555489  -0.025188 -0.222045 0.974711  0.561938 0.529199 1 1 1.000000
0  -11.902944 5.435226 55.496002  -0.018912 -0.142312 0.989641  0.561791 0.511527 1 1 1.000000
0  -13.531639 5.481093 55.564827  0.013410 -0.152138 0.988268  0.570279 0.511337 1 1 1.000000
skin_0
0  -13.531639 5.481093 55.564827  0.013410 -0.152138 0.988268  0.570279 0.511337 1 1 1.000000
0  -11.902944 5.435226 55.496002  -0.018912 -0.142312 0.989641  0.561791 0.511527 1 1 1.000000
0  -13.531641 11.261830 56.103905  0.067926 -0.058734 0.995960  0.570279 0.491860 1 1 1.000000
skin_0
0  -11.902944 5.435226 55.496002  -0.018912 -0.142312 0.989641  0.561791 0.511527 1 1 1.000000
0  -11.891489 11.250377 55.966263  -0.016294 -0.043406 0.998925  0.561791 0.491860 1 1 1.000000
0  -13.531641 11.261830 56.103905  0.067926 -0.058734 0.995960  0.570279 0.491860 1 1 1.000000
skin_0
0  -13.531641 11.261830 56.103905  0.067926 -0.058734 0.995960  0.570279 0.491860 1 1 1.000000
0  -11.891489 11.250377 55.966263  -0.016294 -0.043406 0.998925  0.561791 0.491860 1 1 1.000000
0  -13.520185 18.166597 56.230053  0.080396 0.018700 0.996588  0.570279 0.468487 1 1 1.000000
skin_0
0  -13.520185 18.166597 56.230053  0.080396 0.018700 0.996588  0.570279 0.468487 1 1 1.000000
0  -13.726653 18.166597 56.241550  -0.108347 0.010399 0.994059  0.571303 0.468487 1 1 1.000000
0  -13.531641 11.261830 56.103905  0.067926 -0.058734 0.995960  0.570279 0.491860 1 1 1.000000
skin_0
0  -13.726653 18.166597 56.241550  -0.108347 0.010399 0.994059  0.571303 0.468487 1 1 1.000000
0  -13.520185 18.166597 56.230053  0.080396 0.018700 0.996588  0.570279 0.468487 1 1 1.000000
0  -13.520187 25.082861 55.817158  0.035117 0.085200 0.995745  0.570279 0.445115 1 1 1.000000
skin_0
0  -13.738110 25.082861 55.828617  -0.113002 0.075987 0.990685  0.571303 0.445115 1 1 1.000000
0  -13.726653 18.166597 56.241550  -0.108347 0.010399 0.994059  0.571303 0.468487 1 1 1.000000
0  -13.520187 25.082861 55.817158  0.035117 0.085200 0.995745  0.570279 0.445115 1 1 1.000000
skin_0
0  -13.738110 25.082861 55.828617  -0.113002 0.075987 0.990685  0.571303 0.445115 1 1 1.000000
0  -13.520187 25.082861 55.817158  0.035117 0.085200 0.995745  0.570279 0.445115 1 1 1.000000
0  -13.508686 32.113819 55.071613  0.000024 0.131379 0.991332  0.570132 0.421362 1 1 1.000000
skin_0
0  -13.715154 32.113819 55.071613  -0.117008 0.125210 0.985206  0.571303 0.421362 1 1 1.000000
0  -13.738110 25.082861 55.828617  -0.113002 0.075987 0.990685  0.571303 0.445115 1 1 1.000000
0  -13.508686 32.113819 55.071613  0.000024 0.131379 0.991332  0.570132 0.421362 1 1 1.000000
skin_0
0  -13.703699 39.752678 53.855854  -0.120385 0.168008 0.978407  0.571156 0.395614 1 1 1.000000
0  -13.715154 32.113819 55.071613  -0.117008 0.125210 0.985206  0.571303 0.421362 1 1 1.000000
0  -13.508686 32.113819 55.071613  0.000024 0.131379 0.991332  0.570132 0.421362 1 1 1.000000
skin_0
0  -13.715154 32.113819 55.071613  -0.117008 0.125210 0.985206  0.571303 0.421362 1 1 1.000000
0  -13.703699 39.752678 53.855854  -0.120385 0.168008 0.978407  0.571156 0.395614 1 1 1.000000
0  -20.482319 32.113819 54.245781  -0.173518 0.137301 0.975213  0.606422 0.421362 1 1 1.000000
skin_0
0  -13.703699 39.752678 53.855854  -0.120385 0.168008 0.978407  0.571156 0.395614 1 1 1.000000
0  -20.310263 39.385654 53.075890  -0.190072 0.177064 0.965671  0.605544 0.396849 1 1 1.000000
0  -20.482319 32.113819 54.245781  -0.173518 0.137301 0.975213  0.606422 0.421362 1 1 1.000000
skin_0
0  -13.726653 18.166597 56.241550  -0.108347 0.010399 0.994059  0.571303 0.468487 1 1 1.000000
0  -13.738108 11.261830 56.115364  -0.106012 -0.063282 0.992349  0.571303 0.491765 1 1 1.000000
0  -13.531641 11.261830 56.103905  0.067926 -0.058734 0.995960  0.570279 0.491860 1 1 1.000000
skin_0
0  -13.531641 11.261830 56.103905  0.067926 -0.058734 0.995960  0.570279 0.491860 1 1 1.000000
0  -13.738108 11.261830 56.115364  -0.106012 -0.063282 0.992349  0.571303 0.491765 1 1 1.000000
0  -13.531639 5.481093 55.564827  0.013410 -0.152138 0.988268  0.570279 0.511337 1 1 1.000000
skin_0
0  -13.738108 11.261830 56.115364  -0.106012 -0.063282 0.992349  0.571303 0.491765 1 1 1.000000
0  -13.749563 5.481093 55.564827  -0.105603 -0.158211 0.981742  0.571449 0.511337 1 1 1.000000
0  -13.531639 5.481093 55.564827  0.013410 -0.152138 0.988268  0.570279 0.511337 1 1 1.000000
skin_0
0  0.002644 11.009497 56.287418  -0.000001 -0.043371 0.999059  0.500040 0.492715 1 1 1.000000
0  11.896778 11.250378 55.966267  0.016283 -0.043401 0.998925  0.438141 0.491860 1 1 1.000000
0  0.002644 18.166597 56.367695  -0.000000 0.018936 0.999821  0.500040 0.468487 1 1 1.000000
skin_0
0  -11.891489 11.250377 55.966263  -0.016294 -0.043406 0.998925  0.561791 0.491860 1 1 1.000000
0  0.002644 11.009497 56.287418  -0.000001 -0.043371 0.999059  0.500040 0.492715 1 1 1.000000
0  0.002644 18.166597 56.367695  -0.000000 0.018936 0.999821  0.500040 0.468487 1 1 1.000000
skin_0
0  -11.879989 18.166597 56.069496  -0.010188 0.016521 0.999812  0.561791 0.468487 1 1 1.000000
0  -11.891489 11.250377 55.966263  -0.016294 -0.043406 0.998925  0.561791 0.491860 1 1 1.000000
0  0.002644 18.166597 56.367695  -0.000000 0.018936 0.999821  0.500040 0.468487 1 1 1.000000
skin_0
0  -11.891489 11.250377 55.966263  -0.016294 -0.043406 0.998925  0.561791 0.491860 1 1 1.000000
0  -11.879989 18.166597 56.069496  -0.010188 0.016521 0.999812  0.561791 0.468487 1 1 1.000000
0  -13.520185 18.166597 56.230053  0.080396 0.018700 0.996588  0.570279 0.468487 1 1 1.000000
skin_0
0  -11.879989 18.166597 56.069496  -0.010188 0.016521 0.999812  0.561791 0.468487 1 1 1.000000
0  -11.879990 25.071407 55.736885  -0.012881 0.065103 0.997795  0.561644 0.445115 1 1 1.000000
0  -13.520185 18.166597 56.230053  0.080396 0.018700 0.996588  0.570279 0.468487 1 1 1.000000
skin_0
0  -11.879990 25.071407 55.736885  -0.012881 0.065103 0.997795  0.561644 0.445115 1 1 1.000000
0  -13.520187 25.082861 55.817158  0.035117 0.085200 0.995745  0.570279 0.445115 1 1 1.000000
0  -13.520185 18.166597 56.230053  0.080396 0.018700 0.996588  0.570279 0.468487 1 1 1.000000
skin_0
0  -11.879990 25.071407 55.736885  -0.012881 0.065103 0.997795  0.561644 0.445115 1 1 1.000000
0  -11.868534 32.113819 55.071613  -0.019432 0.114761 0.993203  0.561644 0.421362 1 1 1.000000
0  -13.520187 25.082861 55.817158  0.035117 0.085200 0.995745  0.570279 0.445115 1 1 1.000000
skin_0
0  -11.868534 32.113819 55.071613  -0.019432 0.114761 0.993203  0.561644 0.421362 1 1 1.000000
0  -13.508686 32.113819 55.071613  0.000024 0.131379 0.991332  0.570132 0.421362 1 1 1.000000
0  -13.520187 25.082861 55.817158  0.035117 0.085200 0.995745  0.570279 0.445115 1 1 1.000000
skin_0
0  -13.508686 32.113819 55.071613  0.000024 0.131379 0.991332  0.570132 0.421362 1 1 1.000000
0  -11.868534 32.113819 55.071613  -0.019432 0.114761 0.993203  0.561644 0.421362 1 1 1.000000
0  -13.497231 39.752678 53.867306  -0.034432 0.170999 0.984669  0.570132 0.395519 1 1 1.000000
skin_0
0  -13.497231 39.752678 53.867306  -0.034432 0.170999 0.984669  0.570132 0.395519 1 1 1.000000
0  -13.703699 39.752678 53.855854  -0.120385 0.168008 0.978407  0.571156 0.395614 1 1 1.000000
0  -13.508686 32.113819 55.071613  0.000024 0.131379 0.991332  0.570132 0.421362 1 1 1.000000
skin_0
0  -13.703699 39.752678 53.855854  -0.120385 0.168008 0.978407  0.571156 0.395614 1 1 1.000000
0  -13.497231 39.752678 53.867306  -0.034432 0.170999 0.984669  0.570132 0.395519 1 1 1.000000
0  -13.692244 45.866028 52.651501  -0.120813 0.190194 0.974285  0.571156 0.374902 1 1 1.000000
skin_0
0  -13.703699 39.752678 53.855854  -0.120385 0.168008 0.978407  0.571156 0.395614 1 1 1.000000
0  -13.692244 45.866028 52.651501  -0.120813 0.190194 0.974285  0.571156 0.374902 1 1 1.000000
0  -20.310263 39.385654 53.075890  -0.190072 0.177064 0.965671  0.605544 0.396849 1 1 1.000000
skin_0
0  -13.692244 45.866028 52.651501  -0.120813 0.190194 0.974285  0.571156 0.374902 1 1 1.000000
0  -19.817049 45.063156 52.043594  -0.185247 0.191303 0.963891  0.603056 0.377657 1 1 1.000000
0  -20.310263 39.385654 53.075890  -0.190072 0.177064 0.965671  0.605544 0.396849 1 1 1.000000
skin_0
0  -20.310263 39.385654 53.075890  -0.190072 0.177064 0.965671  0.605544 0.396849 1 1 1.000000
0  -19.817049 45.063156 52.043594  -0.185247 0.191303 0.963891  0.603056 0.377657 1 1 1.000000
0  -25.368408 44.042362 50.770466  -0.254473 0.192761 0.947674  0.631884 0.381078 1 1 1.000000
skin_0
0  -20.310263 39.385654 53.075890  -0.190072 0.177064 0.965671  0.605544 0.396849 1 1 1.000000
0  -25.368408 44.042362 50.770466  -0.254473 0.192761 0.947674  0.631884 0.381078 1 1 1.000000
0  -25.460186 38.743340 51.814217  -0.254976 0.177153 0.950581  0.632322 0.399035 1 1 1.000000
skin_0
0  -20.310263 39.385654 53.075890  -0.190072 0.177064 0.965671  0.605544 0.396849 1 1 1.000000
0  -25.460186 38.743340 51.814217  -0.254976 0.177153 0.950581  0.632322 0.399035 1 1 1.000000
0  -25.529009 31.999125 52.961201  -0.249492 0.148064 0.956991  0.632761 0.421742 1 1 1.000000
skin_0
0  -20.482319 32.113819 54.245781  -0.173518 0.137301 0.975213  0.606422 0.421362 1 1 1.000000
0  -20.310263 39.385654 53.075890  -0.190072 0.177064 0.965671  0.605544 0.396849 1 1 1.000000
0  -25.529009 31.999125 52.961201  -0.249492 0.148064 0.956991  0.632761 0.421742 1 1 1.000000
skin_0
0  -25.529009 31.999125 52.961201  -0.249492 0.148064 0.956991  0.632761 0.421742 1 1 1.000000
0  -25.620743 24.991127 53.809937  -0.237602 0.099890 0.966213  0.633200 0.445495 1 1 1.000000
0  -20.482319 32.113819 54.245781  -0.173518 0.137301 0.975213  0.606422 0.421362 1 1 1.000000
skin_0
0  -11.845578 46.015125 52.708866  -0.024522 0.193692 0.980756  0.561499 0.374427 1 1 1.000000
0  -13.485775 45.888981 52.651501  -0.046121 0.194195 0.979878  0.569985 0.374807 1 1 1.000000
0  -13.497231 39.752678 53.867306  -0.034432 0.170999 0.984669  0.570132 0.395519 1 1 1.000000
skin_0
0  -13.497231 39.752678 53.867306  -0.034432 0.170999 0.984669  0.570132 0.395519 1 1 1.000000
0  -13.485775 45.888981 52.651501  -0.046121 0.194195 0.979878  0.569985 0.374807 1 1 1.000000
0  -13.692244 45.866028 52.651501  -0.120813 0.190194 0.974285  0.571156 0.374902 1 1 1.000000
skin_0
0  0.002643 32.113819 55.346901  -0.000000 0.130843 0.991403  0.500040 0.421362 1 1 1.000000
0  0.002642 39.890320 54.176960  -0.000005 0.176761 0.984254  0.500040 0.395139 1 1 1.000000
0  -11.857080 39.787086 53.936131  -0.023974 0.161470 0.986586  0.561644 0.395424 1 1 1.000000
skin_0
0  -11.868534 32.113819 55.071613  -0.019432 0.114761 0.993203  0.561644 0.421362 1 1 1.000000
0  0.002643 32.113819 55.346901  -0.000000 0.130843 0.991403  0.500040 0.421362 1 1 1.000000
0  -11.857080 39.787086 53.936131  -0.023974 0.161470 0.986586  0.561644 0.395424 1 1 1.000000
skin_0
0  0.002643 25.071407 56.012127  0.000000 0.080117 0.996785  0.500040 0.445115 1 1 1.000000
0  0.002643 32.113819 55.346901  -0.000000 0.130843 0.991403  0.500040 0.421362 1 1 1.000000
0  -11.868534 32.113819 55.071613  -0.019432 0.114761 0.993203  0.561644 0.421362 1 1 1.000000
skin_0
0  -11.879990 25.071407 55.736885  -0.012881 0.065103 0.997795  0.561644 0.445115 1 1 1.000000
0  0.002643 25.071407 56.012127  0.000000 0.080117 0.996785  0.500040 0.445115 1 1 1.000000
0  -11.868534 32.113819 55.071613  -0.019432 0.114761 0.993203  0.561644 0.421362 1 1 1.000000
skin_0
0  0.002644 18.166597 56.367695  -0.000000 0.018936 0.999821  0.500040 0.468487 1 1 1.000000
0  0.002643 25.071407 56.012127  0.000000 0.080117 0.996785  0.500040 0.445115 1 1 1.000000
0  -11.879990 25.071407 55.736885  -0.012881 0.065103 0.997795  0.561644 0.445115 1 1 1.000000
skin_0
0  -11.879989 18.166597 56.069496  -0.010188 0.016521 0.999812  0.561791 0.468487 1 1 1.000000
0  0.002644 18.166597 56.367695  -0.000000 0.018936 0.999821  0.500040 0.468487 1 1 1.000000
0  -11.879990 25.071407 55.736885  -0.012881 0.065103 0.997795  0.561644 0.445115 1 1 1.000000
skin_0
0  -11.868534 32.113819 55.071613  -0.019432 0.114761 0.993203  0.561644 0.421362 1 1 1.000000
0  -11.857080 39.787086 53.936131  -0.023974 0.161470 0.986586  0.561644 0.395424 1 1 1.000000
0  -13.497231 39.752678 53.867306  -0.034432 0.170999 0.984669  0.570132 0.395519 1 1 1.000000
skin_0
0  -11.857080 39.787086 53.936131  -0.023974 0.161470 0.986586  0.561644 0.395424 1 1 1.000000
0  -11.845578 46.015125 52.708866  -0.024522 0.193692 0.980756  0.561499 0.374427 1 1 1.000000
0  -13.497231 39.752678 53.867306  -0.034432 0.170999 0.984669  0.570132 0.395519 1 1 1.000000
skin_0
0  -11.857080 39.787086 53.936131  -0.023974 0.161470 0.986586  0.561644 0.395424 1 1 1.000000
0  0.002642 39.890320 54.176960  -0.000005 0.176761 0.984254  0.500040 0.395139 1 1 1.000000
0  -11.845578 46.015125 52.708866  -0.024522 0.193692 0.980756  0.561499 0.374427 1 1 1.000000
skin_0
0  0.002642 39.890320 54.176960  -0.000005 0.176761 0.984254  0.500040 0.395139 1 1 1.000000
0  0.002642 46.324829 52.903835  -0.000000 0.194096 0.980983  0.500040 0.373382 1 1 1.000000
0  -11.845578 46.015125 52.708866  -0.024522 0.193692 0.980756  0.561499 0.374427 1 1 1.000000
skin_0
0  0.002642 46.324829 52.903835  -0.000000 0.194096 0.980983  0.500040 0.373382 1 1 1.000000
0  0.002642 39.890320 54.176960  -0.000005 0.176761 0.984254  0.500040 0.395139 1 1 1.000000
0  11.850864 46.015125 52.708870  0.024522 0.193692 0.980756  0.438434 0.374427 1 1 1.000000
skin_0
0  0.002642 39.890320 54.176960  -0.000005 0.176761 0.984254  0.500040 0.395139 1 1 1.000000
0  11.862366 39.787086 53.936134  0.023902 0.161405 0.986599  0.438288 0.395424 1 1 1.000000
0  11.850864 46.015125 52.708870  0.024522 0.193692 0.980756  0.438434 0.374427 1 1 1.000000
skin_0
0  0.002642 39.890320 54.176960  -0.000005 0.176761 0.984254  0.500040 0.395139 1 1 1.000000
0  0.002643 32.113819 55.346901  -0.000000 0.130843 0.991403  0.500040 0.421362 1 1 1.000000
0  11.862366 39.787086 53.936134  0.023902 0.161405 0.986599  0.438288 0.395424 1 1 1.000000
skin_0
0  0.002643 32.113819 55.346901  -0.000000 0.130843 0.991403  0.500040 0.421362 1 1 1.000000
0  11.873821 32.113819 55.071617  0.019432 0.114761 0.993203  0.438288 0.421362 1 1 1.000000
0  11.862366 39.787086 53.936134  0.023902 0.161405 0.986599  0.438288 0.395424 1 1 1.000000
skin_0
0  0.002643 32.113819 55.346901  -0.000000 0.130843 0.991403  0.500040 0.421362 1 1 1.000000
0  0.002643 25.071407 56.012127  0.000000 0.080117 0.996785  0.500040 0.445115 1 1 1.000000
0  11.873821 32.113819 55.071617  0.019432 0.114761 0.993203  0.438288 0.421362 1 1 1.000000
skin_0
0  0.002643 25.071407 56.012127  0.000000 0.080117 0.996785  0.500040 0.445115 1 1 1.000000
0  11.885275 25.071409 55.736889  0.013009 0.065099 0.997794  0.438288 0.445115 1 1 1.000000
0  11.873821 32.113819 55.071617  0.019432 0.114761 0.993203  0.438288 0.421362 1 1 1.000000
skin_0
0  0.002643 25.071407 56.012127  0.000000 0.080117 0.996785  0.500040 0.445115 1 1 1.000000
0  0.002644 18.166597 56.367695  -0.000000 0.018936 0.999821  0.500040 0.468487 1 1 1.000000
0  11.885275 25.071409 55.736889  0.013009 0.065099 0.997794  0.438288 0.445115 1 1 1.000000
skin_0
0  0.002644 18.166597 56.367695  -0.000000 0.018936 0.999821  0.500040 0.468487 1 1 1.000000
0  11.885275 18.166599 56.069500  0.010174 0.016636 0.999810  0.438141 0.468487 1 1 1.000000
0  11.885275 25.071409 55.736889  0.013009 0.065099 0.997794  0.438288 0.445115 1 1 1.000000
skin_0
0  11.896778 11.250378 55.966267  0.016283 -0.043401 0.998925  0.438141 0.491860 1 1 1.000000
0  11.885275 18.166599 56.069500  0.010174 0.016636 0.999810  0.438141 0.468487 1 1 1.000000
0  0.002644 18.166597 56.367695  -0.000000 0.018936 0.999821  0.500040 0.468487 1 1 1.000000
skin_0
0  11.885275 18.166599 56.069500  0.010174 0.016636 0.999810  0.438141 0.468487 1 1 1.000000
0  11.896778 11.250378 55.966267  0.016283 -0.043401 0.998925  0.438141 0.491860 1 1 1.000000
0  13.514017 18.166599 56.230057  -0.080507 0.018862 0.996576  0.429800 0.468487 1 1 1.000000
skin_0
0  11.896778 11.250378 55.966267  0.016283 -0.043401 0.998925  0.438141 0.491860 1 1 1.000000
0  13.525475 11.261833 56.103909  -0.067798 -0.058657 0.995973  0.429654 0.491860 1 1 1.000000
0  13.514017 18.166599 56.230057  -0.080507 0.018862 0.996576  0.429800 0.468487 1 1 1.000000
skin_0
0  13.731941 18.166599 56.241554  0.108308 0.010402 0.994063  0.428629 0.468487 1 1 1.000000
0  13.514017 18.166599 56.230057  -0.080507 0.018862 0.996576  0.429800 0.468487 1 1 1.000000
0  13.525475 11.261833 56.103909  -0.067798 -0.058657 0.995973  0.429654 0.491860 1 1 1.000000
skin_0
0  13.743399 11.261833 56.115368  0.105924 -0.063287 0.992358  0.428629 0.491765 1 1 1.000000
0  13.731941 18.166599 56.241554  0.108308 0.010402 0.994063  0.428629 0.468487 1 1 1.000000
0  13.525475 11.261833 56.103909  -0.067798 -0.058657 0.995973  0.429654 0.491860 1 1 1.000000
skin_0
0  13.731941 18.166599 56.241554  0.108308 0.010402 0.994063  0.428629 0.468487 1 1 1.000000
0  13.743399 11.261833 56.115368  0.105924 -0.063287 0.992358  0.428629 0.491765 1 1 1.000000
0  20.751396 11.479756 55.335407  0.149702 -0.041998 0.987839  0.392047 0.491100 1 1 1.000000
skin_0
0  13.754854 5.481095 55.564831  0.105500 -0.158303 0.981738  0.428484 0.511337 1 1 1.000000
0  13.743399 11.261833 56.115368  0.105924 -0.063287 0.992358  0.428629 0.491765 1 1 1.000000
0  13.536930 5.481095 55.564831  -0.013385 -0.152056 0.988281  0.429654 0.511337 1 1 1.000000
skin_0
0  13.743399 11.261833 56.115368  0.105924 -0.063287 0.992358  0.428629 0.491765 1 1 1.000000
0  13.525475 11.261833 56.103909  -0.067798 -0.058657 0.995973  0.429654 0.491860 1 1 1.000000
0  13.536930 5.481095 55.564831  -0.013385 -0.152056 0.988281  0.429654 0.511337 1 1 1.000000
skin_0
0  20.751396 11.479756 55.335407  0.149702 -0.041998 0.987839  0.392047 0.491100 1 1 1.000000
0  13.743399 11.261833 56.115368  0.105924 -0.063287 0.992358  0.428629 0.491765 1 1 1.000000
0  20.934910 5.916942 54.830738  0.144321 -0.130963 0.980826  0.391169 0.509912 1 1 1.000000
skin_0
0  13.743399 11.261833 56.115368  0.105924 -0.063287 0.992358  0.428629 0.491765 1 1 1.000000
0  13.754854 5.481095 55.564831  0.105500 -0.158303 0.981738  0.428484 0.511337 1 1 1.000000
0  20.934910 5.916942 54.830738  0.144321 -0.130963 0.980826  0.391169 0.509912 1 1 1.000000
skin_0
0  20.934910 5.916942 54.830738  0.144321 -0.130963 0.980826  0.391169 0.509912 1 1 1.000000
0  13.754854 5.481095 55.564831  0.105500 -0.158303 0.981738  0.428484 0.511337 1 1 1.000000
0  21.175789 0.767018 53.809944  0.129693 -0.233172 0.963748  0.389852 0.527299 1 1 1.000000
skin_0
0  13.754854 5.481095 55.564831  0.105500 -0.158303 0.981738  0.428484 0.511337 1 1 1.000000
0  13.754854 0.285304 54.509628  0.103374 -0.238203 0.965698  0.428484 0.528914 1 1 1.000000
0  21.175789 0.767018 53.809944  0.129693 -0.233172 0.963748  0.389852 0.527299 1 1 1.000000
skin_0
0  13.754854 5.481095 55.564831  0.105500 -0.158303 0.981738  0.428484 0.511337 1 1 1.000000
0  13.536930 5.481095 55.564831  -0.013385 -0.152056 0.988281  0.429654 0.511337 1 1 1.000000
0  13.754854 0.285304 54.509628  0.103374 -0.238203 0.965698  0.428484 0.528914 1 1 1.000000
skin_0
0  13.536930 5.481095 55.564831  -0.013385 -0.152056 0.988281  0.429654 0.511337 1 1 1.000000
0  13.548429 0.273849 54.521080  0.043009 -0.249586 0.967397  0.429508 0.528914 1 1 1.000000
0  13.754854 0.285304 54.509628  0.103374 -0.238203 0.965698  0.428484 0.528914 1 1 1.000000
skin_0
0  11.919689 0.193525 54.555492  0.025186 -0.222045 0.974711  0.437995 0.529199 1 1 1.000000
0  13.548429 0.273849 54.521080  0.043009 -0.249586 0.967397  0.429508 0.528914 1 1 1.000000
0  13.536930 5.481095 55.564831  -0.013385 -0.152056 0.988281  0.429654 0.511337 1 1 1.000000
skin_0
0  11.908234 5.435228 55.496006  0.018864 -0.142292 0.989645  0.438141 0.511527 1 1 1.000000
0  11.919689 0.193525 54.555492  0.025186 -0.222045 0.974711  0.437995 0.529199 1 1 1.000000
0  13.536930 5.481095 55.564831  -0.013385 -0.152056 0.988281  0.429654 0.511337 1 1 1.000000
skin_0
0  11.908234 5.435228 55.496006  0.018864 -0.142292 0.989645  0.438141 0.511527 1 1 1.000000
0  13.536930 5.481095 55.564831  -0.013385 -0.152056 0.988281  0.429654 0.511337 1 1 1.000000
0  13.525475 11.261833 56.103909  -0.067798 -0.058657 0.995973  0.429654 0.491860 1 1 1.000000
skin_0
0  11.896778 11.250378 55.966267  0.016283 -0.043401 0.998925  0.438141 0.491860 1 1 1.000000
0  11.908234 5.435228 55.496006  0.018864 -0.142292 0.989645  0.438141 0.511527 1 1 1.000000
0  13.525475 11.261833 56.103909  -0.067798 -0.058657 0.995973  0.429654 0.491860 1 1 1.000000
skin_0
0  20.648163 18.166645 55.427185  0.158389 0.028528 0.986965  0.392632 0.468487 1 1 1.000000
0  20.751396 11.479756 55.335407  0.149702 -0.041998 0.987839  0.392047 0.491100 1 1 1.000000
0  25.981600 11.594447 54.245789  0.209293 -0.022925 0.977584  0.364829 0.490720 1 1 1.000000
skin_0
0  25.981600 11.594447 54.245789  0.209293 -0.022925 0.977584  0.364829 0.490720 1 1 1.000000
0  20.751396 11.479756 55.335407  0.149702 -0.041998 0.987839  0.392047 0.491100 1 1 1.000000
0  26.302761 6.272511 53.809944  0.197105 -0.105144 0.974728  0.363220 0.508676 1 1 1.000000
skin_0
0  20.751396 11.479756 55.335407  0.149702 -0.041998 0.987839  0.392047 0.491100 1 1 1.000000
0  20.934910 5.916942 54.830738  0.144321 -0.130963 0.980826  0.391169 0.509912 1 1 1.000000
0  26.302761 6.272511 53.809944  0.197105 -0.105144 0.974728  0.363220 0.508676 1 1 1.000000
skin_0
0  26.302761 6.272511 53.809944  0.197105 -0.105144 0.974728  0.363220 0.508676 1 1 1.000000
0  20.934910 5.916942 54.830738  0.144321 -0.130963 0.980826  0.391169 0.509912 1 1 1.000000
0  26.727150 1.179954 52.846474  0.189400 -0.201343 0.961035  0.361025 0.525873 1 1 1.000000
skin_0
0  20.934910 5.916942 54.830738  0.144321 -0.130963 0.980826  0.391169 0.509912 1 1 1.000000
0  21.175789 0.767018 53.809944  0.129693 -0.233172 0.963748  0.389852 0.527299 1 1 1.000000
0  26.727150 1.179954 52.846474  0.189400 -0.201343 0.961035  0.361025 0.525873 1 1 1.000000
skin_0
0  26.727150 1.179954 52.846474  0.189400 -0.201343 0.961035  0.361025 0.525873 1 1 1.000000
0  21.175789 0.767018 53.809944  0.129693 -0.233172 0.963748  0.389852 0.527299 1 1 1.000000
0  24.949352 -2.903265 52.135380  0.186376 -0.249326 0.950316  0.370244 0.539650 1 1 1.000000
skin_0
0  23.366524 -3.086822 52.376213  0.121309 -0.284789 0.950884  0.378439 0.540315 1 1 1.000000
0  24.949352 -2.903265 52.135380  0.186376 -0.249326 0.950316  0.370244 0.539650 1 1 1.000000
0  21.175789 0.767018 53.809944  0.129693 -0.233172 0.963748  0.389852 0.527299 1 1 1.000000
skin_0
0  13.777811 -4.176439 53.179127  0.109954 -0.286904 0.951628  0.428337 0.543925 1 1 1.000000
0  23.366524 -3.086822 52.376213  0.121309 -0.284789 0.950884  0.378439 0.540315 1 1 1.000000
0  21.175789 0.767018 53.809944  0.129693 -0.233172 0.963748  0.389852 0.527299 1 1 1.000000
skin_0
0  13.754854 0.285304 54.509628  0.103374 -0.238203 0.965698  0.428484 0.528914 1 1 1.000000
0  13.777811 -4.176439 53.179127  0.109954 -0.286904 0.951628  0.428337 0.543925 1 1 1.000000
0  21.175789 0.767018 53.809944  0.129693 -0.233172 0.963748  0.389852 0.527299 1 1 1.000000
skin_0
0  13.777811 -4.176439 53.179127  0.109954 -0.286904 0.951628  0.428337 0.543925 1 1 1.000000
0  13.754854 0.285304 54.509628  0.103374 -0.238203 0.965698  0.428484 0.528914 1 1 1.000000
0  13.571344 -4.187895 53.190586  0.061362 -0.284897 0.956592  0.429508 0.544020 1 1 1.000000
skin_0
0  13.754854 0.285304 54.509628  0.103374 -0.238203 0.965698  0.428484 0.528914 1 1 1.000000
0  13.548429 0.273849 54.521080  0.043009 -0.249586 0.967397  0.429508 0.528914 1 1 1.000000
0  13.571344 -4.187895 53.190586  0.061362 -0.284897 0.956592  0.429508 0.544020 1 1 1.000000
skin_0
0  13.571344 -4.187895 53.190586  0.061362 -0.284897 0.956592  0.429508 0.544020 1 1 1.000000
0  13.548429 0.273849 54.521080  0.043009 -0.249586 0.967397  0.429508 0.528914 1 1 1.000000
0  11.919691 -4.302584 53.259407  0.030917 -0.282003 0.958915  0.437995 0.544400 1 1 1.000000
skin_0
0  13.548429 0.273849 54.521080  0.043009 -0.249586 0.967397  0.429508 0.528914 1 1 1.000000
0  11.919689 0.193525 54.555492  0.025186 -0.222045 0.974711  0.437995 0.529199 1 1 1.000000
0  11.919691 -4.302584 53.259407  0.030917 -0.282003 0.958915  0.437995 0.544400 1 1 1.000000
skin_0
0  11.919691 -4.302584 53.259407  0.030917 -0.282003 0.958915  0.437995 0.544400 1 1 1.000000
0  11.919689 0.193525 54.555492  0.025186 -0.222045 0.974711  0.437995 0.529199 1 1 1.000000
0  0.002645 -0.288189 54.796371  0.000000 -0.228732 0.973489  0.500040 0.530814 1 1 1.000000
skin_0
0  0.002645 -0.288189 54.796371  0.000000 -0.228732 0.973489  0.500040 0.530814 1 1 1.000000
0  11.919689 0.193525 54.555492  0.025186 -0.222045 0.974711  0.437995 0.529199 1 1 1.000000
0  11.908234 5.435228 55.496006  0.018864 -0.142292 0.989645  0.438141 0.511527 1 1 1.000000
skin_0
0  0.002645 4.953469 55.794209  -0.000002 -0.113904 0.993492  0.500040 0.513142 1 1 1.000000
0  0.002645 -0.288189 54.796371  0.000000 -0.228732 0.973489  0.500040 0.530814 1 1 1.000000
0  11.908234 5.435228 55.496006  0.018864 -0.142292 0.989645  0.438141 0.511527 1 1 1.000000
skin_0
0  0.002645 4.953469 55.794209  -0.000002 -0.113904 0.993492  0.500040 0.513142 1 1 1.000000
0  11.908234 5.435228 55.496006  0.018864 -0.142292 0.989645  0.438141 0.511527 1 1 1.000000
0  11.896778 11.250378 55.966267  0.016283 -0.043401 0.998925  0.438141 0.491860 1 1 1.000000
skin_0
0  0.002644 11.009497 56.287418  -0.000001 -0.043371 0.999059  0.500040 0.492715 1 1 1.000000
0  0.002645 4.953469 55.794209  -0.000002 -0.113904 0.993492  0.500040 0.513142 1 1 1.000000
0  11.896778 11.250378 55.966267  0.016283 -0.043401 0.998925  0.438141 0.491860 1 1 1.000000
skin_0
0  -11.914398 0.193524 54.555489  -0.025188 -0.222045 0.974711  0.561938 0.529199 1 1 1.000000
0  0.002645 -0.288189 54.796371  0.000000 -0.228732 0.973489  0.500040 0.530814 1 1 1.000000
0  -11.902944 5.435226 55.496002  -0.018912 -0.142312 0.989641  0.561791 0.511527 1 1 1.000000
skin_0
0  0.002645 -0.288189 54.796371  0.000000 -0.228732 0.973489  0.500040 0.530814 1 1 1.000000
0  0.002645 4.953469 55.794209  -0.000002 -0.113904 0.993492  0.500040 0.513142 1 1 1.000000
0  -11.902944 5.435226 55.496002  -0.018912 -0.142312 0.989641  0.561791 0.511527 1 1 1.000000
skin_0
0  -11.902944 5.435226 55.496002  -0.018912 -0.142312 0.989641  0.561791 0.511527 1 1 1.000000
0  0.002645 4.953469 55.794209  -0.000002 -0.113904 0.993492  0.500040 0.513142 1 1 1.000000
0  -11.891489 11.250377 55.966263  -0.016294 -0.043406 0.998925  0.561791 0.491860 1 1 1.000000
skin_0
0  0.002645 4.953469 55.794209  -0.000002 -0.113904 0.993492  0.500040 0.513142 1 1 1.000000
0  0.002644 11.009497 56.287418  -0.000001 -0.043371 0.999059  0.500040 0.492715 1 1 1.000000
0  -11.891489 11.250377 55.966263  -0.016294 -0.043406 0.998925  0.561791 0.491860 1 1 1.000000
skin_0
0  26.727150 1.179954 52.846474  0.189400 -0.201343 0.961035  0.361025 0.525873 1 1 1.000000
0  26.348625 -2.857399 51.837135  0.212826 -0.255712 0.943036  0.362927 0.539555 1 1 1.000000
0  27.117130 -2.926221 51.642166  0.216135 -0.255827 0.942252  0.358977 0.539745 1 1 1.000000
skin_0
0  26.727150 1.179954 52.846474  0.189400 -0.201343 0.961035  0.361025 0.525873 1 1 1.000000
0  24.949352 -2.903265 52.135380  0.186376 -0.249326 0.950316  0.370244 0.539650 1 1 1.000000
0  26.348625 -2.857399 51.837135  0.212826 -0.255712 0.943036  0.362927 0.539555 1 1 1.000000
skin_0
0  20.648163 18.166645 55.427185  0.158389 0.028528 0.986965  0.392632 0.468487 1 1 1.000000
0  13.731941 18.166599 56.241554  0.108308 0.010402 0.994063  0.428629 0.468487 1 1 1.000000
0  20.751396 11.479756 55.335407  0.149702 -0.041998 0.987839  0.392047 0.491100 1 1 1.000000
skin_0
0  13.731941 18.166599 56.241554  0.108308 0.010402 0.994063  0.428629 0.468487 1 1 1.000000
0  20.648163 18.166645 55.427185  0.158389 0.028528 0.986965  0.392632 0.468487 1 1 1.000000
0  13.731941 25.082863 55.828621  0.112972 0.075993 0.990688  0.428629 0.445115 1 1 1.000000
skin_0
0  20.648163 18.166645 55.427185  0.158389 0.028528 0.986965  0.392632 0.468487 1 1 1.000000
0  20.579338 25.071409 55.014294  0.166010 0.087404 0.982243  0.393071 0.445115 1 1 1.000000
0  13.731941 25.082863 55.828621  0.112972 0.075993 0.990688  0.428629 0.445115 1 1 1.000000
skin_0
0  13.731941 25.082863 55.828621  0.112972 0.075993 0.990688  0.428629 0.445115 1 1 1.000000
0  20.579338 25.071409 55.014294  0.166010 0.087404 0.982243  0.393071 0.445115 1 1 1.000000
0  13.720440 32.113819 55.071617  0.116991 0.125199 0.985210  0.428629 0.421362 1 1 1.000000
skin_0
0  20.579338 25.071409 55.014294  0.166010 0.087404 0.982243  0.393071 0.445115 1 1 1.000000
0  20.476105 32.113823 54.245789  0.173583 0.137400 0.975187  0.393511 0.421362 1 1 1.000000
0  13.720440 32.113819 55.071617  0.116991 0.125199 0.985210  0.428629 0.421362 1 1 1.000000
skin_0
0  20.304094 39.385658 53.075897  0.189901 0.176965 0.965723  0.394389 0.396849 1 1 1.000000
0  13.708984 39.752678 53.855858  0.120590 0.168001 0.978383  0.428776 0.395614 1 1 1.000000
0  20.476105 32.113823 54.245789  0.173583 0.137400 0.975187  0.393511 0.421362 1 1 1.000000
skin_0
0  13.708984 39.752678 53.855858  0.120590 0.168001 0.978383  0.428776 0.395614 1 1 1.000000
0  13.720440 32.113819 55.071617  0.116991 0.125199 0.985210  0.428629 0.421362 1 1 1.000000
0  20.476105 32.113823 54.245789  0.173583 0.137400 0.975187  0.393511 0.421362 1 1 1.000000
skin_0
0  13.720440 32.113819 55.071617  0.116991 0.125199 0.985210  0.428629 0.421362 1 1 1.000000
0  13.708984 39.752678 53.855858  0.120590 0.168001 0.978383  0.428776 0.395614 1 1 1.000000
0  13.514017 32.113819 55.071617  -0.000024 0.131379 0.991332  0.429800 0.421362 1 1 1.000000
skin_0
0  13.731941 25.082863 55.828621  0.112972 0.075993 0.990688  0.428629 0.445115 1 1 1.000000
0  13.720440 32.113819 55.071617  0.116991 0.125199 0.985210  0.428629 0.421362 1 1 1.000000
0  13.514017 32.113819 55.071617  -0.000024 0.131379 0.991332  0.429800 0.421362 1 1 1.000000
skin_0
0  13.525473 25.082863 55.817162  -0.035273 0.085190 0.995740  0.429654 0.445115 1 1 1.000000
0  13.731941 25.082863 55.828621  0.112972 0.075993 0.990688  0.428629 0.445115 1 1 1.000000
0  13.514017 32.113819 55.071617  -0.000024 0.131379 0.991332  0.429800 0.421362 1 1 1.000000
skin_0
0  13.731941 18.166599 56.241554  0.108308 0.010402 0.994063  0.428629 0.468487 1 1 1.000000
0  13.731941 25.082863 55.828621  0.112972 0.075993 0.990688  0.428629 0.445115 1 1 1.000000
0  13.525473 25.082863 55.817162  -0.035273 0.085190 0.995740  0.429654 0.445115 1 1 1.000000
skin_0
0  13.514017 18.166599 56.230057  -0.080507 0.018862 0.996576  0.429800 0.468487 1 1 1.000000
0  13.731941 18.166599 56.241554  0.108308 0.010402 0.994063  0.428629 0.468487 1 1 1.000000
0  13.525473 25.082863 55.817162  -0.035273 0.085190 0.995740  0.429654 0.445115 1 1 1.000000
skin_0
0  11.885275 25.071409 55.736889  0.013009 0.065099 0.997794  0.438288 0.445115 1 1 1.000000
0  11.885275 18.166599 56.069500  0.010174 0.016636 0.999810  0.438141 0.468487 1 1 1.000000
0  13.514017 18.166599 56.230057  -0.080507 0.018862 0.996576  0.429800 0.468487 1 1 1.000000
skin_0
0  13.525473 25.082863 55.817162  -0.035273 0.085190 0.995740  0.429654 0.445115 1 1 1.000000
0  11.885275 25.071409 55.736889  0.013009 0.065099 0.997794  0.438288 0.445115 1 1 1.000000
0  13.514017 18.166599 56.230057  -0.080507 0.018862 0.996576  0.429800 0.468487 1 1 1.000000
skin_0
0  11.873821 32.113819 55.071617  0.019432 0.114761 0.993203  0.438288 0.421362 1 1 1.000000
0  11.885275 25.071409 55.736889  0.013009 0.065099 0.997794  0.438288 0.445115 1 1 1.000000
0  13.525473 25.082863 55.817162  -0.035273 0.085190 0.995740  0.429654 0.445115 1 1 1.000000
skin_0
0  13.514017 32.113819 55.071617  -0.000024 0.131379 0.991332  0.429800 0.421362 1 1 1.000000
0  11.873821 32.113819 55.071617  0.019432 0.114761 0.993203  0.438288 0.421362 1 1 1.000000
0  13.525473 25.082863 55.817162  -0.035273 0.085190 0.995740  0.429654 0.445115 1 1 1.000000
skin_0
0  11.873821 32.113819 55.071617  0.019432 0.114761 0.993203  0.438288 0.421362 1 1 1.000000
0  13.514017 32.113819 55.071617  -0.000024 0.131379 0.991332  0.429800 0.421362 1 1 1.000000
0  13.502518 39.752678 53.867310  0.034384 0.170993 0.984672  0.429800 0.395519 1 1 1.000000
skin_0
0  13.708984 39.752678 53.855858  0.120590 0.168001 0.978383  0.428776 0.395614 1 1 1.000000
0  13.502518 39.752678 53.867310  0.034384 0.170993 0.984672  0.429800 0.395519 1 1 1.000000
0  13.514017 32.113819 55.071617  -0.000024 0.131379 0.991332  0.429800 0.421362 1 1 1.000000
skin_0
0  13.502518 39.752678 53.867310  0.034384 0.170993 0.984672  0.429800 0.395519 1 1 1.000000
0  13.708984 39.752678 53.855858  0.120590 0.168001 0.978383  0.428776 0.395614 1 1 1.000000
0  13.697530 45.866028 52.651505  0.120895 0.190082 0.974296  0.428776 0.374902 1 1 1.000000
skin_0
0  13.697530 45.866028 52.651505  0.120895 0.190082 0.974296  0.428776 0.374902 1 1 1.000000
0  13.708984 39.752678 53.855858  0.120590 0.168001 0.978383  0.428776 0.395614 1 1 1.000000
0  20.304094 39.385658 53.075897  0.189901 0.176965 0.965723  0.394389 0.396849 1 1 1.000000
skin_0
0  19.822334 45.063160 52.043602  0.185186 0.191002 0.963963  0.397023 0.377657 1 1 1.000000
0  13.697530 45.866028 52.651505  0.120895 0.190082 0.974296  0.428776 0.374902 1 1 1.000000
0  20.304094 39.385658 53.075897  0.189901 0.176965 0.965723  0.394389 0.396849 1 1 1.000000
skin_0
0  19.822334 45.063160 52.043602  0.185186 0.191002 0.963963  0.397023 0.377657 1 1 1.000000
0  20.304094 39.385658 53.075897  0.189901 0.176965 0.965723  0.394389 0.396849 1 1 1.000000
0  25.373695 44.042366 50.770473  0.254186 0.192510 0.947802  0.368049 0.381078 1 1 1.000000
skin_0
0  25.373695 44.042366 50.770473  0.254186 0.192510 0.947802  0.368049 0.381078 1 1 1.000000
0  20.304094 39.385658 53.075897  0.189901 0.176965 0.965723  0.394389 0.396849 1 1 1.000000
0  25.465475 38.743343 51.814224  0.254447 0.177172 0.950719  0.367610 0.399035 1 1 1.000000
skin_0
0  25.465475 38.743343 51.814224  0.254447 0.177172 0.950719  0.367610 0.399035 1 1 1.000000
0  20.304094 39.385658 53.075897  0.189901 0.176965 0.965723  0.394389 0.396849 1 1 1.000000
0  25.534296 31.999128 52.961208  0.248885 0.147950 0.957166  0.367171 0.421742 1 1 1.000000
skin_0
0  20.304094 39.385658 53.075897  0.189901 0.176965 0.965723  0.394389 0.396849 1 1 1.000000
0  20.476105 32.113823 54.245789  0.173583 0.137400 0.975187  0.393511 0.421362 1 1 1.000000
0  25.534296 31.999128 52.961208  0.248885 0.147950 0.957166  0.367171 0.421742 1 1 1.000000
skin_0
0  25.614574 24.991131 53.809944  0.237668 0.099980 0.966187  0.366732 0.445495 1 1 1.000000
0  25.534296 31.999128 52.961208  0.248885 0.147950 0.957166  0.367171 0.421742 1 1 1.000000
0  20.476105 32.113823 54.245789  0.173583 0.137400 0.975187  0.393511 0.421362 1 1 1.000000
skin_0
0  20.579338 25.071409 55.014294  0.166010 0.087404 0.982243  0.393071 0.445115 1 1 1.000000
0  25.614574 24.991131 53.809944  0.237668 0.099980 0.966187  0.366732 0.445495 1 1 1.000000
0  20.476105 32.113823 54.245789  0.173583 0.137400 0.975187  0.393511 0.421362 1 1 1.000000
skin_0
0  25.729263 18.074865 54.291702  0.223508 0.045402 0.973644  0.366147 0.468772 1 1 1.000000
0  25.614574 24.991131 53.809944  0.237668 0.099980 0.966187  0.366732 0.445495 1 1 1.000000
0  20.579338 25.071409 55.014294  0.166010 0.087404 0.982243  0.393071 0.445115 1 1 1.000000
skin_0
0  20.648163 18.166645 55.427185  0.158389 0.028528 0.986965  0.392632 0.468487 1 1 1.000000
0  25.729263 18.074865 54.291702  0.223508 0.045402 0.973644  0.366147 0.468772 1 1 1.000000
0  20.579338 25.071409 55.014294  0.166010 0.087404 0.982243  0.393071 0.445115 1 1 1.000000
skin_0
0  25.729263 18.074865 54.291702  0.223508 0.045402 0.973644  0.366147 0.468772 1 1 1.000000
0  20.648163 18.166645 55.427185  0.158389 0.028528 0.986965  0.392632 0.468487 1 1 1.000000
0  25.981600 11.594447 54.245789  0.209293 -0.022925 0.977584  0.364829 0.490720 1 1 1.000000
skin_0
0  13.491062 45.888981 52.651505  0.045967 0.194197 0.979885  0.429947 0.374807 1 1 1.000000
0  13.502518 39.752678 53.867310  0.034384 0.170993 0.984672  0.429800 0.395519 1 1 1.000000
0  13.697530 45.866028 52.651505  0.120895 0.190082 0.974296  0.428776 0.374902 1 1 1.000000
skin_0
0  13.491062 45.888981 52.651505  0.045967 0.194197 0.979885  0.429947 0.374807 1 1 1.000000
0  11.850864 46.015125 52.708870  0.024522 0.193692 0.980756  0.438434 0.374427 1 1 1.000000
0  13.502518 39.752678 53.867310  0.034384 0.170993 0.984672  0.429800 0.395519 1 1 1.000000
skin_0
0  11.850864 46.015125 52.708870  0.024522 0.193692 0.980756  0.438434 0.374427 1 1 1.000000
0  11.862366 39.787086 53.936134  0.023902 0.161405 0.986599  0.438288 0.395424 1 1 1.000000
0  13.502518 39.752678 53.867310  0.034384 0.170993 0.984672  0.429800 0.395519 1 1 1.000000
skin_0
0  11.862366 39.787086 53.936134  0.023902 0.161405 0.986599  0.438288 0.395424 1 1 1.000000
0  11.873821 32.113819 55.071617  0.019432 0.114761 0.993203  0.438288 0.421362 1 1 1.000000
0  13.502518 39.752678 53.867310  0.034384 0.170993 0.984672  0.429800 0.395519 1 1 1.000000
skin_0
0  1.103759 39.202141 54.658726  0.683137 0.376406 0.625813  0.493308 0.402075 1 1 1.000000
0  1.080803 38.238667 54.933968  0.708090 -0.053651 0.704081  0.493455 0.405400 1 1 1.000000
0  1.298726 39.167728 54.280197  0.861225 0.302910 0.408089  0.491991 0.402170 1 1 1.000000
skin_0
0  1.080803 38.238667 54.933968  0.708090 -0.053651 0.704081  0.493455 0.405400 1 1 1.000000
0  1.310181 38.066612 54.463711  0.860695 -0.174665 0.478223  0.491991 0.405970 1 1 1.000000
0  1.298726 39.167728 54.280197  0.861225 0.302910 0.408089  0.491991 0.402170 1 1 1.000000
skin_0
0  1.080803 38.238667 54.933968  0.708090 -0.053651 0.704081  0.493455 0.405400 1 1 1.000000
0  0.599090 37.504578 55.083111  0.472537 -0.428706 0.770013  0.495942 0.407776 1 1 1.000000
0  1.310181 38.066612 54.463711  0.860695 -0.174665 0.478223  0.491991 0.405970 1 1 1.000000
skin_0
0  0.599090 37.504578 55.083111  0.472537 -0.428706 0.770013  0.495942 0.407776 1 1 1.000000
0  0.748191 37.217876 54.612812  0.568670 -0.613971 0.547406  0.494918 0.408821 1 1 1.000000
0  1.310181 38.066612 54.463711  0.860695 -0.174665 0.478223  0.491991 0.405970 1 1 1.000000
skin_0
0  0.599090 37.504578 55.083111  0.472537 -0.428706 0.770013  0.495942 0.407776 1 1 1.000000
0  0.002642 37.263741 55.128983  -0.002865 -0.591490 0.806307  0.498869 0.408536 1 1 1.000000
0  0.748191 37.217876 54.612812  0.568670 -0.613971 0.547406  0.494918 0.408821 1 1 1.000000
skin_0
0  0.002642 37.263741 55.128983  -0.002865 -0.591490 0.806307  0.498869 0.408536 1 1 1.000000
0  0.002642 36.931129 54.658726  -0.000000 -0.816423 0.577454  0.498869 0.409771 1 1 1.000000
0  0.748191 37.217876 54.612812  0.568670 -0.613971 0.547406  0.494918 0.408821 1 1 1.000000
skin_0
0  0.002642 36.931129 54.658726  -0.000000 -0.816423 0.577454  0.498869 0.409771 1 1 1.000000
0  0.002642 37.263741 55.128983  -0.002865 -0.591490 0.806307  0.498869 0.408536 1 1 1.000000
0  -0.742906 37.217876 54.612812  -0.568668 -0.613972 0.547408  0.502674 0.408821 1 1 1.000000
skin_0
0  0.002642 37.263741 55.128983  -0.002865 -0.591490 0.806307  0.498869 0.408536 1 1 1.000000
0  -0.593805 37.504578 55.083111  -0.469194 -0.427237 0.772868  0.501649 0.407776 1 1 1.000000
0  -0.742906 37.217876 54.612812  -0.568668 -0.613972 0.547408  0.502674 0.408821 1 1 1.000000
skin_0
0  -0.742906 37.217876 54.612812  -0.568668 -0.613972 0.547408  0.502674 0.408821 1 1 1.000000
0  -0.593805 37.504578 55.083111  -0.469194 -0.427237 0.772868  0.501649 0.407776 1 1 1.000000
0  -1.304897 38.066612 54.463711  -0.860694 -0.174665 0.478225  0.505600 0.405970 1 1 1.000000
skin_0
0  -0.593805 37.504578 55.083111  -0.469194 -0.427237 0.772868  0.501649 0.407776 1 1 1.000000
0  -1.075518 38.238667 54.933968  -0.701914 -0.050479 0.710471  0.504137 0.405400 1 1 1.000000
0  -1.304897 38.066612 54.463711  -0.860694 -0.174665 0.478225  0.505600 0.405970 1 1 1.000000
skin_0
0  -1.304897 38.066612 54.463711  -0.860694 -0.174665 0.478225  0.505600 0.405970 1 1 1.000000
0  -1.075518 38.238667 54.933968  -0.701914 -0.050479 0.710471  0.504137 0.405400 1 1 1.000000
0  -1.293442 39.167728 54.280197  -0.861188 0.302926 0.408155  0.505600 0.402170 1 1 1.000000
skin_0
0  -1.075518 38.238667 54.933968  -0.701914 -0.050479 0.710471  0.504137 0.405400 1 1 1.000000
0  -1.098429 39.202141 54.658726  -0.682249 0.376738 0.626582  0.504283 0.402075 1 1 1.000000
0  -1.293442 39.167728 54.280197  -0.861188 0.302926 0.408155  0.505600 0.402170 1 1 1.000000
skin_0
0  -1.293442 39.167728 54.280197  -0.861188 0.302926 0.408155  0.505600 0.402170 1 1 1.000000
0  -1.098429 39.202141 54.658726  -0.682249 0.376738 0.626582  0.504283 0.402075 1 1 1.000000
0  -0.811728 40.005009 54.142551  -0.248927 0.585093 0.771817  0.503112 0.399795 1 1 1.000000
skin_0
0  -0.811728 40.005009 54.142551  -0.248927 0.585093 0.771817  0.503112 0.399795 1 1 1.000000
0  -1.098429 39.202141 54.658726  -0.682249 0.376738 0.626582  0.504283 0.402075 1 1 1.000000
0  -0.605261 40.085289 54.119640  -0.195439 0.588163 0.784772  0.501941 0.399225 1 1 1.000000
skin_0
0  -1.098429 39.202141 54.658726  -0.682249 0.376738 0.626582  0.504283 0.402075 1 1 1.000000
0  -0.880506 39.225052 54.773415  -0.454098 0.439372 0.775079  0.503405 0.402075 1 1 1.000000
0  -0.605261 40.085289 54.119640  -0.195439 0.588163 0.784772  0.501941 0.399225 1 1 1.000000
skin_0
0  -0.869050 38.307491 55.025745  -0.427484 0.077670 0.900680  0.503405 0.405210 1 1 1.000000
0  -0.880506 39.225052 54.773415  -0.454098 0.439372 0.775079  0.503405 0.402075 1 1 1.000000
0  -1.098429 39.202141 54.658726  -0.682249 0.376738 0.626582  0.504283 0.402075 1 1 1.000000
skin_0
0  -1.075518 38.238667 54.933968  -0.701914 -0.050479 0.710471  0.504137 0.405400 1 1 1.000000
0  -0.869050 38.307491 55.025745  -0.427484 0.077670 0.900680  0.503405 0.405210 1 1 1.000000
0  -1.098429 39.202141 54.658726  -0.682249 0.376738 0.626582  0.504283 0.402075 1 1 1.000000
skin_0
0  -0.456160 37.676632 55.151890  -0.268652 -0.165141 0.948976  0.501210 0.407301 1 1 1.000000
0  -0.869050 38.307491 55.025745  -0.427484 0.077670 0.900680  0.503405 0.405210 1 1 1.000000
0  -1.075518 38.238667 54.933968  -0.701914 -0.050479 0.710471  0.504137 0.405400 1 1 1.000000
skin_0
0  -0.593805 37.504578 55.083111  -0.469194 -0.427237 0.772868  0.501649 0.407776 1 1 1.000000
0  -0.456160 37.676632 55.151890  -0.268652 -0.165141 0.948976  0.501210 0.407301 1 1 1.000000
0  -1.075518 38.238667 54.933968  -0.701914 -0.050479 0.710471  0.504137 0.405400 1 1 1.000000
skin_0
0  0.002642 37.493118 55.174847  -0.013189 -0.202552 0.979183  0.498869 0.407966 1 1 1.000000
0  -0.456160 37.676632 55.151890  -0.268652 -0.165141 0.948976  0.501210 0.407301 1 1 1.000000
0  -0.593805 37.504578 55.083111  -0.469194 -0.427237 0.772868  0.501649 0.407776 1 1 1.000000
skin_0
0  0.002642 37.263741 55.128983  -0.002865 -0.591490 0.806307  0.498869 0.408536 1 1 1.000000
0  0.002642 37.493118 55.174847  -0.013189 -0.202552 0.979183  0.498869 0.407966 1 1 1.000000
0  -0.593805 37.504578 55.083111  -0.469194 -0.427237 0.772868  0.501649 0.407776 1 1 1.000000
skin_0
0  0.461445 37.676632 55.151890  0.270485 -0.154207 0.950294  0.496381 0.407301 1 1 1.000000
0  0.002642 37.493118 55.174847  -0.013189 -0.202552 0.979183  0.498869 0.407966 1 1 1.000000
0  0.002642 37.263741 55.128983  -0.002865 -0.591490 0.806307  0.498869 0.408536 1 1 1.000000
skin_0
0  0.599090 37.504578 55.083111  0.472537 -0.428706 0.770013  0.495942 0.407776 1 1 1.000000
0  0.461445 37.676632 55.151890  0.270485 -0.154207 0.950294  0.496381 0.407301 1 1 1.000000
0  0.002642 37.263741 55.128983  -0.002865 -0.591490 0.806307  0.498869 0.408536 1 1 1.000000
skin_0
0  0.885836 38.307491 55.025745  0.443967 0.074167 0.892968  0.494186 0.405210 1 1 1.000000
0  0.461445 37.676632 55.151890  0.270485 -0.154207 0.950294  0.496381 0.407301 1 1 1.000000
0  0.599090 37.504578 55.083111  0.472537 -0.428706 0.770013  0.495942 0.407776 1 1 1.000000
skin_0
0  1.080803 38.238667 54.933968  0.708090 -0.053651 0.704081  0.493455 0.405400 1 1 1.000000
0  0.885836 38.307491 55.025745  0.443967 0.074167 0.892968  0.494186 0.405210 1 1 1.000000
0  0.599090 37.504578 55.083111  0.472537 -0.428706 0.770013  0.495942 0.407776 1 1 1.000000
skin_0
0  0.885836 39.225052 54.773415  0.454676 0.439265 0.774801  0.494186 0.402075 1 1 1.000000
0  0.885836 38.307491 55.025745  0.443967 0.074167 0.892968  0.494186 0.405210 1 1 1.000000
0  1.080803 38.238667 54.933968  0.708090 -0.053651 0.704081  0.493455 0.405400 1 1 1.000000
skin_0
0  1.103759 39.202141 54.658726  0.683137 0.376406 0.625813  0.493308 0.402075 1 1 1.000000
0  0.885836 39.225052 54.773415  0.454676 0.439265 0.774801  0.494186 0.402075 1 1 1.000000
0  1.080803 38.238667 54.933968  0.708090 -0.053651 0.704081  0.493455 0.405400 1 1 1.000000
skin_0
0  0.622000 40.085289 54.119640  0.203339 0.588540 0.782479  0.495649 0.399225 1 1 1.000000
0  0.885836 39.225052 54.773415  0.454676 0.439265 0.774801  0.494186 0.402075 1 1 1.000000
0  1.103759 39.202141 54.658726  0.683137 0.376406 0.625813  0.493308 0.402075 1 1 1.000000
skin_0
0  0.817013 40.005009 54.142551  0.255356 0.585731 0.769229  0.494479 0.399795 1 1 1.000000
0  0.622000 40.085289 54.119640  0.203176 0.588504 0.782549  0.495649 0.399225 1 1 1.000000
0  1.103759 39.202141 54.658726  0.683137 0.376406 0.625813  0.493308 0.402075 1 1 1.000000
skin_0
0  1.103759 39.202141 54.658726  0.683137 0.376406 0.625813  0.493308 0.402075 1 1 1.000000
0  1.298726 39.167728 54.280197  0.861225 0.302910 0.408089  0.491991 0.402170 1 1 1.000000
0  0.817013 40.005009 54.142551  0.255356 0.585731 0.769229  0.494479 0.399795 1 1 1.000000
skin_0
0  -0.605261 40.085289 54.119640  0.000000 0.605078 0.796166  0.501941 0.399225 1 1 1.000000
0  -0.880506 39.225052 54.773415  -0.000004 0.496839 0.867843  0.503405 0.402075 1 1 1.000000
0  0.622000 40.085289 54.119640  0.000000 0.605077 0.796167  0.495649 0.399225 1 1 1.000000
skin_0
0  -0.880506 39.225052 54.773415  -0.000004 0.496839 0.867843  0.503405 0.402075 1 1 1.000000
0  0.885836 39.225052 54.773415  0.000005 0.395121 0.918629  0.494186 0.402075 1 1 1.000000
0  0.622000 40.085289 54.119640  0.000000 0.605077 0.796167  0.495649 0.399225 1 1 1.000000
skin_0
0  -0.880506 39.225052 54.773415  -0.000004 0.496839 0.867843  0.503405 0.402075 1 1 1.000000
0  -0.869050 38.307491 55.025745  0.000000 0.247918 0.968781  0.503405 0.405210 1 1 1.000000
0  0.885836 39.225052 54.773415  0.000005 0.395121 0.918629  0.494186 0.402075 1 1 1.000000
skin_0
0  -0.869050 38.307491 55.025745  0.000000 0.247918 0.968781  0.503405 0.405210 1 1 1.000000
0  0.885836 38.307491 55.025745  -0.000000 0.230369 0.973103  0.494186 0.405210 1 1 1.000000
0  0.885836 39.225052 54.773415  0.000005 0.395121 0.918629  0.494186 0.402075 1 1 1.000000
skin_0
0  -0.869050 38.307491 55.025745  0.000000 0.247918 0.968781  0.503405 0.405210 1 1 1.000000
0  -0.456160 37.676632 55.151890  0.000000 0.185219 0.982697  0.501210 0.407301 1 1 1.000000
0  0.885836 38.307491 55.025745  -0.000000 0.230369 0.973103  0.494186 0.405210 1 1 1.000000
skin_0
0  -0.456160 37.676632 55.151890  0.000000 0.185219 0.982697  0.501210 0.407301 1 1 1.000000
0  0.461445 37.676632 55.151890  0.000000 0.185275 0.982687  0.496381 0.407301 1 1 1.000000
0  0.885836 38.307491 55.025745  -0.000000 0.230369 0.973103  0.494186 0.405210 1 1 1.000000
skin_0
0  -0.456160 37.676632 55.151890  0.000000 0.185219 0.982697  0.501210 0.407301 1 1 1.000000
0  0.002642 37.493118 55.174847  -0.000000 0.123276 0.992372  0.498869 0.407966 1 1 1.000000
0  0.461445 37.676632 55.151890  0.000000 0.185275 0.982687  0.496381 0.407301 1 1 1.000000
end
